<?xml version="1.0" encoding="UTF-8" standalone="no"?>
<!DOCTYPE svg PUBLIC "-//W3C//DTD SVG 1.1//EN"
 "http://www.w3.org/Graphics/SVG/1.1/DTD/svg11.dtd">
<!-- Generated by graphviz version 2.43.0 (0)
 -->
<!-- Title: com.cliffc.aa.node.ProjNode.set_idx Pages: 1 -->
<svg width="1236pt" height="116pt"
 viewBox="0.00 0.00 1236.00 116.00" xmlns="http://www.w3.org/2000/svg" xmlns:xlink="http://www.w3.org/1999/xlink">
<g id="graph0" class="graph" transform="scale(1 1) rotate(0) translate(4 112)">
<title>com.cliffc.aa.node.ProjNode.set_idx</title>
<!-- Node1 -->
<g id="node1" class="node">
<title>Node1</title>
<g id="a_node1"><a xlink:title=" ">
<polygon fill="#bfbfbf" stroke="black" points="0,-44.5 0,-63.5 191,-63.5 191,-44.5 0,-44.5"/>
<text text-anchor="middle" x="95.5" y="-51.5" font-family="Helvetica,sans-Serif" font-size="10.00">com.cliffc.aa.node.ProjNode.set_idx</text>
</a>
</g>
</g>
<!-- Node2 -->
<g id="node2" class="node">
<title>Node2</title>
<g id="a_node2"><a xlink:href="../../df/db5/a01158.html#abd1ef05754be5fb96db69e3bd0a0a8bd" target="_top" xlink:title=" ">
<polygon fill="none" stroke="black" points="227,-44.5 227,-63.5 403,-63.5 403,-44.5 227,-44.5"/>
<text text-anchor="middle" x="315" y="-51.5" font-family="Helvetica,sans-Serif" font-size="10.00">com.cliffc.aa.node.Node.unelock</text>
</a>
</g>
</g>
<!-- Node1&#45;&gt;Node2 -->
<g id="edge1" class="edge">
<title>Node1&#45;&gt;Node2</title>
<path fill="none" stroke="midnightblue" d="M191.27,-54C199.65,-54 208.14,-54 216.55,-54"/>
<polygon fill="midnightblue" stroke="midnightblue" points="216.74,-57.5 226.74,-54 216.74,-50.5 216.74,-57.5"/>
</g>
<!-- Node3 -->
<g id="node3" class="node">
<title>Node3</title>
<g id="a_node3"><a xlink:href="../../d9/d0a/a00390.html#a195b2b7d0b8f0f1770422573c2cc22ff" target="_top" xlink:title=" ">
<polygon fill="none" stroke="black" points="448,-88.5 448,-107.5 621,-107.5 621,-88.5 448,-88.5"/>
<text text-anchor="middle" x="534.5" y="-95.5" font-family="Helvetica,sans-Serif" font-size="10.00">com.cliffc.aa.GVNGCM.add_flow</text>
</a>
</g>
</g>
<!-- Node2&#45;&gt;Node3 -->
<g id="edge2" class="edge">
<title>Node2&#45;&gt;Node3</title>
<path fill="none" stroke="midnightblue" d="M362.72,-63.52C385.69,-68.2 413.8,-73.91 439,-79 450.92,-81.41 463.68,-83.98 475.85,-86.43"/>
<polygon fill="midnightblue" stroke="midnightblue" points="475.41,-89.91 485.91,-88.45 476.79,-83.05 475.41,-89.91"/>
</g>
<!-- Node7 -->
<g id="node7" class="node">
<title>Node7</title>
<g id="a_node7"><a xlink:href="../../d9/d0a/a00390.html#ad52b88a21b47c661e6f6a3bcfdbb3576" target="_top" xlink:title=" ">
<polygon fill="none" stroke="black" points="460.5,-39 460.5,-69 608.5,-69 608.5,-39 460.5,-39"/>
<text text-anchor="start" x="468.5" y="-57" font-family="Helvetica,sans-Serif" font-size="10.00">com.cliffc.aa.GVNGCM.add</text>
<text text-anchor="middle" x="534.5" y="-46" font-family="Helvetica,sans-Serif" font-size="10.00">_reduce</text>
</a>
</g>
</g>
<!-- Node2&#45;&gt;Node7 -->
<g id="edge6" class="edge">
<title>Node2&#45;&gt;Node7</title>
<path fill="none" stroke="midnightblue" d="M403.21,-54C418.72,-54 434.84,-54 450.24,-54"/>
<polygon fill="midnightblue" stroke="midnightblue" points="450.24,-57.5 460.24,-54 450.24,-50.5 450.24,-57.5"/>
</g>
<!-- Node8 -->
<g id="node8" class="node">
<title>Node8</title>
<g id="a_node8"><a xlink:href="../../df/db5/a01158.html#abcbaaf7e990f5a12a68e91a70af8fb7e" target="_top" xlink:title=" ">
<polygon fill="none" stroke="black" points="439,-0.5 439,-19.5 630,-19.5 630,-0.5 439,-0.5"/>
<text text-anchor="middle" x="534.5" y="-7.5" font-family="Helvetica,sans-Serif" font-size="10.00">com.cliffc.aa.node.Node.check_vals</text>
</a>
</g>
</g>
<!-- Node2&#45;&gt;Node8 -->
<g id="edge8" class="edge">
<title>Node2&#45;&gt;Node8</title>
<path fill="none" stroke="midnightblue" d="M363.19,-44.45C396.4,-37.74 441.02,-28.71 476.26,-21.58"/>
<polygon fill="midnightblue" stroke="midnightblue" points="477.29,-24.94 486.4,-19.53 475.9,-18.08 477.29,-24.94"/>
</g>
<!-- Node4 -->
<g id="node4" class="node">
<title>Node4</title>
<g id="a_node4"><a xlink:href="../../d9/d0a/a00390.html#a6074ca566ae10e746122ac8d09239d02" target="_top" xlink:title=" ">
<polygon fill="none" stroke="black" points="666,-66.5 666,-85.5 843,-85.5 843,-66.5 666,-66.5"/>
<text text-anchor="middle" x="754.5" y="-73.5" font-family="Helvetica,sans-Serif" font-size="10.00">com.cliffc.aa.GVNGCM.add_work</text>
</a>
</g>
</g>
<!-- Node3&#45;&gt;Node4 -->
<g id="edge3" class="edge">
<title>Node3&#45;&gt;Node4</title>
<path fill="none" stroke="midnightblue" d="M621.03,-89.37C632.38,-88.22 644.09,-87.04 655.62,-85.88"/>
<polygon fill="midnightblue" stroke="midnightblue" points="656.11,-89.35 665.7,-84.86 655.4,-82.38 656.11,-89.35"/>
</g>
<!-- Node5 -->
<g id="node5" class="node">
<title>Node5</title>
<g id="a_node5"><a xlink:href="../../d6/d2f/a01394.html#acc21c59313a6ce5c286431fd2d4fd891" target="_top" xlink:title=" ">
<polygon fill="none" stroke="black" points="879,-66.5 879,-85.5 1034,-85.5 1034,-66.5 879,-66.5"/>
<text text-anchor="middle" x="956.5" y="-73.5" font-family="Helvetica,sans-Serif" font-size="10.00">com.cliffc.aa.node.Work.add</text>
</a>
</g>
</g>
<!-- Node4&#45;&gt;Node5 -->
<g id="edge4" class="edge">
<title>Node4&#45;&gt;Node5</title>
<path fill="none" stroke="midnightblue" d="M843.22,-76C851.65,-76 860.2,-76 868.63,-76"/>
<polygon fill="midnightblue" stroke="midnightblue" points="868.82,-79.5 878.82,-76 868.82,-72.5 868.82,-79.5"/>
</g>
<!-- Node6 -->
<g id="node6" class="node">
<title>Node6</title>
<g id="a_node6"><a xlink:href="../../df/dee/a01646.html#a88ad20daf92e92fe0e3925b23c4fecf0" target="_top" xlink:title=" ">
<polygon fill="none" stroke="black" points="1070,-66.5 1070,-85.5 1228,-85.5 1228,-66.5 1070,-66.5"/>
<text text-anchor="middle" x="1149" y="-73.5" font-family="Helvetica,sans-Serif" font-size="10.00">com.cliffc.aa.util.VBitSet.tset</text>
</a>
</g>
</g>
<!-- Node5&#45;&gt;Node6 -->
<g id="edge5" class="edge">
<title>Node5&#45;&gt;Node6</title>
<path fill="none" stroke="midnightblue" d="M1034.16,-76C1042.63,-76 1051.31,-76 1059.9,-76"/>
<polygon fill="midnightblue" stroke="midnightblue" points="1059.94,-79.5 1069.94,-76 1059.94,-72.5 1059.94,-79.5"/>
</g>
<!-- Node7&#45;&gt;Node4 -->
<g id="edge7" class="edge">
<title>Node7&#45;&gt;Node4</title>
<path fill="none" stroke="midnightblue" d="M608.7,-61.39C623.71,-62.9 639.75,-64.52 655.48,-66.11"/>
<polygon fill="midnightblue" stroke="midnightblue" points="655.46,-69.62 665.76,-67.15 656.16,-62.66 655.46,-69.62"/>
</g>
</g>
</svg>
