<?xml version="1.0" encoding="UTF-8" standalone="no"?>
<!DOCTYPE svg PUBLIC "-//W3C//DTD SVG 1.1//EN"
 "http://www.w3.org/Graphics/SVG/1.1/DTD/svg11.dtd">
<!-- Generated by graphviz version 2.43.0 (0)
 -->
<!-- Title: com.cliffc.aa.HM.HM5.Con.prep_tree Pages: 1 -->
<!--zoomable 78 -->
<svg id="main" version="1.1" xmlns="http://www.w3.org/2000/svg" xmlns:xlink="http://www.w3.org/1999/xlink" xml:space="preserve" onload="init(evt)">
<style type="text/css"><![CDATA[
.edge:hover path { stroke: red; }
.edge:hover polygon { stroke: red; fill: red; }
]]></style>
<script type="text/javascript"><![CDATA[
var edges = document.getElementsByTagName('g');
if (edges && edges.length) {
  for (var i=0;i<edges.length;i++) {
    if (edges[i].id.substr(0,4)=='edge') {
      edges[i].setAttribute('class','edge');
    }
  }
}
]]></script>
        <defs>
                <circle id="rim" cx="0" cy="0" r="7"/>
                <circle id="rim2" cx="0" cy="0" r="3.5"/>
                <g id="zoomPlus">
                        <use xlink:href="#rim" fill="#404040">
                                <set attributeName="fill" to="#808080" begin="zoomplus.mouseover" end="zoomplus.mouseout"/>
                        </use>
                        <path d="M-4,0h8M0,-4v8" fill="none" stroke="white" stroke-width="1.5" pointer-events="none"/>
                </g>
                <g id="zoomMin">
                        <use xlink:href="#rim" fill="#404040">
                                <set attributeName="fill" to="#808080" begin="zoomminus.mouseover" end="zoomminus.mouseout"/>
                        </use>
                        <path d="M-4,0h8" fill="none" stroke="white" stroke-width="1.5" pointer-events="none"/>
                </g>
                <g id="dirArrow">
                        <path fill="none" stroke="white" stroke-width="1.5" d="M0,-3.0v7 M-2.5,-0.5L0,-3.0L2.5,-0.5"/>
                </g>
               <g id="resetDef">
                       <use xlink:href="#rim2" fill="#404040">
                               <set attributeName="fill" to="#808080" begin="reset.mouseover" end="reset.mouseout"/>
                       </use>
               </g>
        </defs>

<script type="text/javascript">
var viewWidth = 1836;
var viewHeight = 78;
var sectionId = 'dynsection-16';
</script>
<script xlink:href="../../svgpan.js"/>
<svg id="graph" class="graph">
<g id="viewport">
<title>com.cliffc.aa.HM.HM5.Con.prep_tree</title>
<!-- Node1 -->
<g id="node1" class="node">
<title>Node1</title>
<g id="a_node1"><a xlink:title=" ">
<polygon fill="#bfbfbf" stroke="black" points="0,-28 0,-47 195,-47 195,-28 0,-28"/>
<text text-anchor="middle" x="97.5" y="-35" font-family="Helvetica,sans-Serif" font-size="10.00">com.cliffc.aa.HM.HM5.Con.prep_tree</text>
</a>
</g>
</g>
<!-- Node2 -->
<g id="node2" class="node">
<title>Node2</title>
<g id="a_node2"><a xlink:href="../../d6/dc0/a00734.html#a58ddb5c86ea0a1081de36686f0e5dacb" target="_top" xlink:title=" ">
<polygon fill="none" stroke="black" points="231,-50 231,-69 428,-69 428,-50 231,-50"/>
<text text-anchor="middle" x="329.5" y="-57" font-family="Helvetica,sans-Serif" font-size="10.00">com.cliffc.aa.HM.HM5.T2.make_base</text>
</a>
</g>
</g>
<!-- Node1&#45;&gt;Node2 -->
<g id="edge1" class="edge">
<title>Node1&#45;&gt;Node2</title>
<path fill="none" stroke="midnightblue" d="M195.04,-46.73C203.52,-47.55 212.14,-48.37 220.71,-49.19"/>
<polygon fill="midnightblue" stroke="midnightblue" points="220.44,-52.68 230.73,-50.15 221.11,-45.71 220.44,-52.68"/>
</g>
<!-- Node10 -->
<g id="node10" class="node">
<title>Node10</title>
<g id="a_node10"><a xlink:href="../../d8/dcb/a00706.html#a0aced3310a60987a5dff294258eb91eb" target="_top" xlink:title=" ">
<polygon fill="none" stroke="black" points="237,-0.5 237,-30.5 422,-30.5 422,-0.5 237,-0.5"/>
<text text-anchor="start" x="245" y="-18.5" font-family="Helvetica,sans-Serif" font-size="10.00">com.cliffc.aa.HM.HM5.Syntax.prep</text>
<text text-anchor="middle" x="329.5" y="-7.5" font-family="Helvetica,sans-Serif" font-size="10.00">_tree_impl</text>
</a>
</g>
</g>
<!-- Node1&#45;&gt;Node10 -->
<g id="edge10" class="edge">
<title>Node1&#45;&gt;Node10</title>
<path fill="none" stroke="midnightblue" d="M195.04,-28.27C205.57,-27.26 216.31,-26.23 226.89,-25.22"/>
<polygon fill="midnightblue" stroke="midnightblue" points="227.36,-28.69 236.98,-24.25 226.7,-21.72 227.36,-28.69"/>
</g>
<!-- Node3 -->
<g id="node3" class="node">
<title>Node3</title>
<g id="a_node3"><a xlink:href="../../d6/dc0/a00734.html#ac7e5c8a630972e55b6b2116bbd8ad9e5" target="_top" xlink:title=" ">
<polygon fill="none" stroke="black" points="483.5,-50 483.5,-69 637.5,-69 637.5,-50 483.5,-50"/>
<text text-anchor="middle" x="560.5" y="-57" font-family="Helvetica,sans-Serif" font-size="10.00">com.cliffc.aa.HM.HM5.T2.T2</text>
</a>
</g>
</g>
<!-- Node2&#45;&gt;Node3 -->
<g id="edge2" class="edge">
<title>Node2&#45;&gt;Node3</title>
<path fill="none" stroke="midnightblue" d="M428.28,-59.5C443.2,-59.5 458.5,-59.5 473.14,-59.5"/>
<polygon fill="midnightblue" stroke="midnightblue" points="473.17,-63 483.17,-59.5 473.17,-56 473.17,-63"/>
</g>
<!-- Node4 -->
<g id="node4" class="node">
<title>Node4</title>
<g id="a_node4"><a xlink:href="../../d6/dc0/a00734.html#a433dc9a7e90d9193c6be808d7f3302c3" target="_top" xlink:title=" ">
<polygon fill="none" stroke="black" points="693,-50 693,-69 856,-69 856,-50 693,-50"/>
<text text-anchor="middle" x="774.5" y="-57" font-family="Helvetica,sans-Serif" font-size="10.00">com.cliffc.aa.HM.HM5.T2.args</text>
</a>
</g>
</g>
<!-- Node3&#45;&gt;Node4 -->
<g id="edge3" class="edge">
<title>Node3&#45;&gt;Node4</title>
<path fill="none" stroke="midnightblue" d="M637.74,-59.5C652.3,-59.5 667.68,-59.5 682.65,-59.5"/>
<polygon fill="midnightblue" stroke="midnightblue" points="682.93,-63 692.93,-59.5 682.93,-56 682.93,-63"/>
</g>
<!-- Node5 -->
<g id="node5" class="node">
<title>Node5</title>
<g id="a_node5"><a xlink:href="../../d6/dc0/a00734.html#a6d2cdd09875e9eecfede070ee929cead" target="_top" xlink:title=" ">
<polygon fill="none" stroke="black" points="892,-50 892,-69 1052,-69 1052,-50 892,-50"/>
<text text-anchor="middle" x="972" y="-57" font-family="Helvetica,sans-Serif" font-size="10.00">com.cliffc.aa.HM.HM5.T2.find</text>
</a>
</g>
</g>
<!-- Node4&#45;&gt;Node5 -->
<g id="edge4" class="edge">
<title>Node4&#45;&gt;Node5</title>
<path fill="none" stroke="midnightblue" d="M856.15,-59.5C864.52,-59.5 873.07,-59.5 881.53,-59.5"/>
<polygon fill="midnightblue" stroke="midnightblue" points="881.8,-63 891.8,-59.5 881.8,-56 881.8,-63"/>
</g>
<!-- Node6 -->
<g id="node6" class="node">
<title>Node6</title>
<g id="a_node6"><a xlink:href="../../d6/dc0/a00734.html#ae1dc4e87f4ba9daf78a3f1558014cd6a" target="_top" xlink:title=" ">
<polygon fill="none" stroke="black" points="1293,-50 1293,-69 1467,-69 1467,-50 1293,-50"/>
<text text-anchor="middle" x="1380" y="-57" font-family="Helvetica,sans-Serif" font-size="10.00">com.cliffc.aa.HM.HM5.T2.is_leaf</text>
</a>
</g>
</g>
<!-- Node5&#45;&gt;Node6 -->
<g id="edge5" class="edge">
<title>Node5&#45;&gt;Node6</title>
<path fill="none" stroke="midnightblue" d="M1052.24,-59.5C1118.23,-59.5 1212.43,-59.5 1282.74,-59.5"/>
<polygon fill="midnightblue" stroke="midnightblue" points="1282.94,-63 1292.94,-59.5 1282.94,-56 1282.94,-63"/>
</g>
<!-- Node9 -->
<g id="node9" class="node">
<title>Node9</title>
<g id="a_node9"><a xlink:href="../../d6/dc0/a00734.html#af00df14b2828230ad686eede9d6e2378" target="_top" xlink:title=" ">
<polygon fill="none" stroke="black" points="1088,-31 1088,-50 1257,-50 1257,-31 1088,-31"/>
<text text-anchor="middle" x="1172.5" y="-38" font-family="Helvetica,sans-Serif" font-size="10.00">com.cliffc.aa.HM.HM5.T2.no_uf</text>
</a>
</g>
</g>
<!-- Node5&#45;&gt;Node9 -->
<g id="edge8" class="edge">
<title>Node5&#45;&gt;Node9</title>
<path fill="none" stroke="midnightblue" d="M1052.02,-51.94C1060.49,-51.13 1069.17,-50.29 1077.79,-49.47"/>
<polygon fill="midnightblue" stroke="midnightblue" points="1078.24,-52.94 1087.87,-48.51 1077.58,-45.97 1078.24,-52.94"/>
</g>
<!-- Node7 -->
<g id="node7" class="node">
<title>Node7</title>
<g id="a_node7"><a xlink:href="../../d6/dc0/a00734.html#af33c2106ab6eb89d00c64a5eac9de455" target="_top" xlink:title=" ">
<polygon fill="none" stroke="black" points="1503,-50 1503,-69 1659,-69 1659,-50 1503,-50"/>
<text text-anchor="middle" x="1581" y="-57" font-family="Helvetica,sans-Serif" font-size="10.00">com.cliffc.aa.HM.HM5.T2.isa</text>
</a>
</g>
</g>
<!-- Node6&#45;&gt;Node7 -->
<g id="edge6" class="edge">
<title>Node6&#45;&gt;Node7</title>
<path fill="none" stroke="midnightblue" d="M1467.13,-59.5C1475.57,-59.5 1484.14,-59.5 1492.59,-59.5"/>
<polygon fill="midnightblue" stroke="midnightblue" points="1492.82,-63 1502.82,-59.5 1492.82,-56 1492.82,-63"/>
</g>
<!-- Node8 -->
<g id="node8" class="node">
<title>Node8</title>
<g id="a_node8"><a xlink:href="../../dd/d55/a01638.html#a3975ba7dca9fe2d6e4992b2b5558f882" target="_top" xlink:title=" ">
<polygon fill="none" stroke="black" points="1695,-50 1695,-69 1828,-69 1828,-50 1695,-50"/>
<text text-anchor="middle" x="1761.5" y="-57" font-family="Helvetica,sans-Serif" font-size="10.00">com.cliffc.aa.util.Util.eq</text>
</a>
</g>
</g>
<!-- Node7&#45;&gt;Node8 -->
<g id="edge7" class="edge">
<title>Node7&#45;&gt;Node8</title>
<path fill="none" stroke="midnightblue" d="M1659.25,-59.5C1667.69,-59.5 1676.28,-59.5 1684.7,-59.5"/>
<polygon fill="midnightblue" stroke="midnightblue" points="1684.87,-63 1694.87,-59.5 1684.87,-56 1684.87,-63"/>
</g>
<!-- Node9&#45;&gt;Node6 -->
<g id="edge9" class="edge">
<title>Node9&#45;&gt;Node6</title>
<path fill="none" stroke="midnightblue" d="M1257.08,-48.23C1265.55,-49.01 1274.2,-49.81 1282.78,-50.6"/>
<polygon fill="midnightblue" stroke="midnightblue" points="1282.54,-54.1 1292.82,-51.53 1283.18,-47.13 1282.54,-54.1"/>
</g>
<!-- Node11 -->
<g id="node11" class="node">
<title>Node11</title>
<g id="a_node11"><a xlink:href="../../da/d3a/a00694.html#a23056422e8a0d8b4766e84df69484568" target="_top" xlink:title=" ">
<polygon fill="none" stroke="black" points="464,-6 464,-25 657,-25 657,-6 464,-6"/>
<text text-anchor="middle" x="560.5" y="-13" font-family="Helvetica,sans-Serif" font-size="10.00">com.cliffc.aa.HM.HM5.Worklist.push</text>
</a>
</g>
</g>
<!-- Node10&#45;&gt;Node11 -->
<g id="edge11" class="edge">
<title>Node10&#45;&gt;Node11</title>
<path fill="none" stroke="midnightblue" d="M422.32,-15.5C432.7,-15.5 443.33,-15.5 453.86,-15.5"/>
<polygon fill="midnightblue" stroke="midnightblue" points="453.91,-19 463.91,-15.5 453.91,-12 453.91,-19"/>
</g>
</g>
</svg>
        <g id="navigator" transform="translate(0 0)" fill="#404254">
                <rect fill="#f2f5e9" fill-opacity="0.5" stroke="#606060" stroke-width=".5" x="0" y="0" width="60" height="60"/>
                <use id="zoomplus" xlink:href="#zoomPlus" x="17" y="9" onmousedown="handleZoom(evt,'in')"/>
                <use id="zoomminus" xlink:href="#zoomMin" x="42" y="9" onmousedown="handleZoom(evt,'out')"/>
                <use id="reset" xlink:href="#resetDef" x="30" y="36" onmousedown="handleReset()"/>
                <g id="arrowUp" xlink:href="#dirArrow" transform="translate(30 24)" onmousedown="handlePan(0,-1)">
                  <use xlink:href="#rim" fill="#404040">
                        <set attributeName="fill" to="#808080" begin="arrowUp.mouseover" end="arrowUp.mouseout"/>
                  </use>
                  <path fill="none" stroke="white" stroke-width="1.5" d="M0,-3.0v7 M-2.5,-0.5L0,-3.0L2.5,-0.5"/>
                </g>
                <g id="arrowRight" xlink:href="#dirArrow" transform="rotate(90) translate(36 -43)" onmousedown="handlePan(1,0)">
                  <use xlink:href="#rim" fill="#404040">
                        <set attributeName="fill" to="#808080" begin="arrowRight.mouseover" end="arrowRight.mouseout"/>
                  </use>
                  <path fill="none" stroke="white" stroke-width="1.5" d="M0,-3.0v7 M-2.5,-0.5L0,-3.0L2.5,-0.5"/>
                </g>
                <g id="arrowDown" xlink:href="#dirArrow" transform="rotate(180) translate(-30 -48)" onmousedown="handlePan(0,1)">
                  <use xlink:href="#rim" fill="#404040">
                        <set attributeName="fill" to="#808080" begin="arrowDown.mouseover" end="arrowDown.mouseout"/>
                  </use>
                  <path fill="none" stroke="white" stroke-width="1.5" d="M0,-3.0v7 M-2.5,-0.5L0,-3.0L2.5,-0.5"/>
                </g>
                <g id="arrowLeft" xlink:href="#dirArrow" transform="rotate(270) translate(-36 17)" onmousedown="handlePan(-1,0)">
                  <use xlink:href="#rim" fill="#404040">
                        <set attributeName="fill" to="#808080" begin="arrowLeft.mouseover" end="arrowLeft.mouseout"/>
                  </use>
                  <path fill="none" stroke="white" stroke-width="1.5" d="M0,-3.0v7 M-2.5,-0.5L0,-3.0L2.5,-0.5"/>
                </g>
        </g>
        <svg viewBox="0 0 15 15" width="100%" height="30px" preserveAspectRatio="xMaxYMin meet">
         <g id="arrow_out" transform="scale(0.3 0.3)">
          <a xlink:href="a00710_aeb8fe1f90116fb4801d23ce74edda7f0_cgraph_org.svg" target="_base">
           <rect id="button" ry="5" rx="5" y="6" x="6" height="38" width="38"
                fill="#f2f5e9" fill-opacity="0.5" stroke="#606060" stroke-width="1.0"/>
           <path id="arrow"
             d="M 11.500037,31.436501 C 11.940474,20.09759 22.043105,11.32322 32.158766,21.979434 L 37.068811,17.246167 C 37.068811,17.246167 37.088388,32 37.088388,32 L 22.160133,31.978069 C 22.160133,31.978069 26.997745,27.140456 26.997745,27.140456 C 18.528582,18.264221 13.291696,25.230495 11.500037,31.436501 z"
             style="fill:#404040;"/>
          </a>
         </g>
        </svg>
</svg>
