<?xml version="1.0" encoding="UTF-8" standalone="no"?>
<!DOCTYPE svg PUBLIC "-//W3C//DTD SVG 1.1//EN"
 "http://www.w3.org/Graphics/SVG/1.1/DTD/svg11.dtd">
<!-- Generated by graphviz version 2.43.0 (0)
 -->
<!-- Title: com.cliffc.aa.HM.HM.Field.Field Pages: 1 -->
<!--zoomable 192 -->
<svg id="main" version="1.1" xmlns="http://www.w3.org/2000/svg" xmlns:xlink="http://www.w3.org/1999/xlink" xml:space="preserve" onload="init(evt)">
<style type="text/css"><![CDATA[
.edge:hover path { stroke: red; }
.edge:hover polygon { stroke: red; fill: red; }
]]></style>
<script type="text/javascript"><![CDATA[
var edges = document.getElementsByTagName('g');
if (edges && edges.length) {
  for (var i=0;i<edges.length;i++) {
    if (edges[i].id.substr(0,4)=='edge') {
      edges[i].setAttribute('class','edge');
    }
  }
}
]]></script>
        <defs>
                <circle id="rim" cx="0" cy="0" r="7"/>
                <circle id="rim2" cx="0" cy="0" r="3.5"/>
                <g id="zoomPlus">
                        <use xlink:href="#rim" fill="#404040">
                                <set attributeName="fill" to="#808080" begin="zoomplus.mouseover" end="zoomplus.mouseout"/>
                        </use>
                        <path d="M-4,0h8M0,-4v8" fill="none" stroke="white" stroke-width="1.5" pointer-events="none"/>
                </g>
                <g id="zoomMin">
                        <use xlink:href="#rim" fill="#404040">
                                <set attributeName="fill" to="#808080" begin="zoomminus.mouseover" end="zoomminus.mouseout"/>
                        </use>
                        <path d="M-4,0h8" fill="none" stroke="white" stroke-width="1.5" pointer-events="none"/>
                </g>
                <g id="dirArrow">
                        <path fill="none" stroke="white" stroke-width="1.5" d="M0,-3.0v7 M-2.5,-0.5L0,-3.0L2.5,-0.5"/>
                </g>
               <g id="resetDef">
                       <use xlink:href="#rim2" fill="#404040">
                               <set attributeName="fill" to="#808080" begin="reset.mouseover" end="reset.mouseout"/>
                       </use>
               </g>
        </defs>

<script type="text/javascript">
var viewWidth = 756;
var viewHeight = 192;
var sectionId = 'dynsection-2';
</script>
<script xlink:href="../../svgpan.js"/>
<svg id="graph" class="graph">
<g id="viewport">
<title>com.cliffc.aa.HM.HM.Field.Field</title>
<!-- Node1 -->
<g id="node1" class="node">
<title>Node1</title>
<g id="a_node1"><a xlink:title=" ">
<polygon fill="#bfbfbf" stroke="black" points="0,-55 0,-85 147,-85 147,-55 0,-55"/>
<text text-anchor="start" x="8" y="-73" font-family="Helvetica,sans-Serif" font-size="10.00">com.cliffc.aa.HM.HM.Field.</text>
<text text-anchor="middle" x="73.5" y="-62" font-family="Helvetica,sans-Serif" font-size="10.00">Field</text>
</a>
</g>
</g>
<!-- Node2 -->
<g id="node2" class="node">
<title>Node2</title>
<g id="a_node2"><a xlink:href="../../d4/d6d/a00402.html#af5177a7d3bb90e7196db62013489cdfa" target="_top" xlink:title=" ">
<polygon fill="none" stroke="black" points="198,-82.5 198,-101.5 328,-101.5 328,-82.5 198,-82.5"/>
<text text-anchor="middle" x="263" y="-89.5" font-family="Helvetica,sans-Serif" font-size="10.00">com.cliffc.aa.HM.HM.id</text>
</a>
</g>
</g>
<!-- Node1&#45;&gt;Node2 -->
<g id="edge1" class="edge">
<title>Node1&#45;&gt;Node2</title>
<path fill="none" stroke="midnightblue" d="M147.26,-78.54C160.55,-80.1 174.43,-81.73 187.76,-83.29"/>
<polygon fill="midnightblue" stroke="midnightblue" points="187.49,-86.78 197.83,-84.47 188.31,-79.83 187.49,-86.78"/>
</g>
<!-- Node9 -->
<g id="node9" class="node">
<title>Node9</title>
<g id="a_node9"><a xlink:href="../../de/df4/a00450.html#a6b19020940aecd66ab2f6710c8c2fe28" target="_top" xlink:title=" ">
<polygon fill="none" stroke="black" points="183,-38.5 183,-57.5 343,-57.5 343,-38.5 183,-38.5"/>
<text text-anchor="middle" x="263" y="-45.5" font-family="Helvetica,sans-Serif" font-size="10.00">com.cliffc.aa.HM.HM.Field.str</text>
</a>
</g>
</g>
<!-- Node1&#45;&gt;Node9 -->
<g id="edge8" class="edge">
<title>Node1&#45;&gt;Node9</title>
<path fill="none" stroke="midnightblue" d="M147.26,-61.46C155.62,-60.48 164.22,-59.47 172.76,-58.47"/>
<polygon fill="midnightblue" stroke="midnightblue" points="173.23,-61.94 182.75,-57.3 172.41,-54.99 173.23,-61.94"/>
</g>
<!-- Node3 -->
<g id="node3" class="node">
<title>Node3</title>
<g id="a_node3"><a xlink:href="../../d4/d99/a01634.html#a13f190a0b152b149f9ff7390030e66a3" target="_top" xlink:title=" ">
<polygon fill="none" stroke="black" points="394,-164.5 394,-183.5 534,-183.5 534,-164.5 394,-164.5"/>
<text text-anchor="middle" x="464" y="-171.5" font-family="Helvetica,sans-Serif" font-size="10.00">com.cliffc.aa.util.SB.clear</text>
</a>
</g>
</g>
<!-- Node2&#45;&gt;Node3 -->
<g id="edge2" class="edge">
<title>Node2&#45;&gt;Node3</title>
<path fill="none" stroke="midnightblue" d="M278.26,-101.53C299.39,-115.24 340.68,-140.5 379,-155 385.83,-157.58 393.1,-159.87 400.41,-161.89"/>
<polygon fill="midnightblue" stroke="midnightblue" points="399.8,-165.34 410.35,-164.46 401.55,-158.57 399.8,-165.34"/>
</g>
<!-- Node4 -->
<g id="node4" class="node">
<title>Node4</title>
<g id="a_node4"><a xlink:href="../../d4/d6d/a00402.html#a2ed004c4d979501b5ba62e7e43183aed" target="_top" xlink:title=" ">
<polygon fill="none" stroke="black" points="382.5,-126.5 382.5,-145.5 545.5,-145.5 545.5,-126.5 382.5,-126.5"/>
<text text-anchor="middle" x="464" y="-133.5" font-family="Helvetica,sans-Serif" font-size="10.00">com.cliffc.aa.HM.HM.isAlpha1</text>
</a>
</g>
</g>
<!-- Node2&#45;&gt;Node4 -->
<g id="edge3" class="edge">
<title>Node2&#45;&gt;Node4</title>
<path fill="none" stroke="midnightblue" d="M307.18,-101.55C337.3,-108.21 377.68,-117.14 409.79,-124.24"/>
<polygon fill="midnightblue" stroke="midnightblue" points="409.38,-127.73 419.9,-126.47 410.9,-120.89 409.38,-127.73"/>
</g>
<!-- Node6 -->
<g id="node6" class="node">
<title>Node6</title>
<g id="a_node6"><a xlink:href="../../d4/d99/a01634.html#ac801338e82849a7fe2ae7a0feb80bb55" target="_top" xlink:title=" ">
<polygon fill="none" stroke="black" points="403,-38.5 403,-57.5 525,-57.5 525,-38.5 403,-38.5"/>
<text text-anchor="middle" x="464" y="-45.5" font-family="Helvetica,sans-Serif" font-size="10.00">com.cliffc.aa.util.SB.p</text>
</a>
</g>
</g>
<!-- Node2&#45;&gt;Node6 -->
<g id="edge5" class="edge">
<title>Node2&#45;&gt;Node6</title>
<path fill="none" stroke="midnightblue" d="M307.18,-82.45C337.3,-75.79 377.68,-66.86 409.79,-59.76"/>
<polygon fill="midnightblue" stroke="midnightblue" points="410.9,-63.11 419.9,-57.53 409.38,-56.27 410.9,-63.11"/>
</g>
<!-- Node8 -->
<g id="node8" class="node">
<title>Node8</title>
<g id="a_node8"><a xlink:href="../../d4/d99/a01634.html#a810e7fa54cbd178760c86b30b2aa893c" target="_top" xlink:title=" ">
<polygon fill="none" stroke="black" points="401,-77 401,-107 527,-107 527,-77 401,-77"/>
<text text-anchor="start" x="409" y="-95" font-family="Helvetica,sans-Serif" font-size="10.00">com.cliffc.aa.util.SB.to</text>
<text text-anchor="middle" x="464" y="-84" font-family="Helvetica,sans-Serif" font-size="10.00">String</text>
</a>
</g>
</g>
<!-- Node2&#45;&gt;Node8 -->
<g id="edge7" class="edge">
<title>Node2&#45;&gt;Node8</title>
<path fill="none" stroke="midnightblue" d="M328.06,-92C347.99,-92 370.09,-92 390.55,-92"/>
<polygon fill="midnightblue" stroke="midnightblue" points="390.76,-95.5 400.76,-92 390.76,-88.5 390.76,-95.5"/>
</g>
<!-- Node5 -->
<g id="node5" class="node">
<title>Node5</title>
<g id="a_node5"><a xlink:href="../../d4/d6d/a00402.html#afdff5e1ff47fc1898cb4248be907371e" target="_top" xlink:title=" ">
<polygon fill="none" stroke="black" points="585,-126.5 585,-145.5 748,-145.5 748,-126.5 585,-126.5"/>
<text text-anchor="middle" x="666.5" y="-133.5" font-family="Helvetica,sans-Serif" font-size="10.00">com.cliffc.aa.HM.HM.isAlpha0</text>
</a>
</g>
</g>
<!-- Node4&#45;&gt;Node5 -->
<g id="edge4" class="edge">
<title>Node4&#45;&gt;Node5</title>
<path fill="none" stroke="midnightblue" d="M545.68,-136C555.29,-136 565.16,-136 574.89,-136"/>
<polygon fill="midnightblue" stroke="midnightblue" points="574.98,-139.5 584.98,-136 574.98,-132.5 574.98,-139.5"/>
</g>
<!-- Node7 -->
<g id="node7" class="node">
<title>Node7</title>
<g id="a_node7"><a xlink:href="../../d4/d99/a01634.html#abd1b8ac722e0fb0bf1e7b2ea0eaeb0b6" target="_top" xlink:title=" ">
<polygon fill="none" stroke="black" points="605.5,-38.5 605.5,-57.5 727.5,-57.5 727.5,-38.5 605.5,-38.5"/>
<text text-anchor="middle" x="666.5" y="-45.5" font-family="Helvetica,sans-Serif" font-size="10.00">com.cliffc.aa.util.SB.s</text>
</a>
</g>
</g>
<!-- Node6&#45;&gt;Node7 -->
<g id="edge6" class="edge">
<title>Node6&#45;&gt;Node7</title>
<path fill="none" stroke="midnightblue" d="M525.16,-48C547.16,-48 572.26,-48 595.08,-48"/>
<polygon fill="midnightblue" stroke="midnightblue" points="595.39,-51.5 605.39,-48 595.39,-44.5 595.39,-51.5"/>
</g>
<!-- Node9&#45;&gt;Node6 -->
<g id="edge9" class="edge">
<title>Node9&#45;&gt;Node6</title>
<path fill="none" stroke="midnightblue" d="M343.22,-48C359.49,-48 376.52,-48 392.46,-48"/>
<polygon fill="midnightblue" stroke="midnightblue" points="392.76,-51.5 402.76,-48 392.76,-44.5 392.76,-51.5"/>
</g>
<!-- Node10 -->
<g id="node10" class="node">
<title>Node10</title>
<g id="a_node10"><a xlink:href="../../de/df7/a00418.html#a2f409ec31ee7f719839feff85e2d3e9b" target="_top" xlink:title=" ">
<polygon fill="none" stroke="black" points="379,-0.5 379,-19.5 549,-19.5 549,-0.5 379,-0.5"/>
<text text-anchor="middle" x="464" y="-7.5" font-family="Helvetica,sans-Serif" font-size="10.00">com.cliffc.aa.HM.HM.Syntax.str</text>
</a>
</g>
</g>
<!-- Node9&#45;&gt;Node10 -->
<g id="edge10" class="edge">
<title>Node9&#45;&gt;Node10</title>
<path fill="none" stroke="midnightblue" d="M313.96,-38.46C341.05,-33.29 374.71,-26.86 403.18,-21.42"/>
<polygon fill="midnightblue" stroke="midnightblue" points="403.85,-24.86 413.02,-19.54 402.54,-17.98 403.85,-24.86"/>
</g>
</g>
</svg>
        <g id="navigator" transform="translate(0 0)" fill="#404254">
                <rect fill="#f2f5e9" fill-opacity="0.5" stroke="#606060" stroke-width=".5" x="0" y="0" width="60" height="60"/>
                <use id="zoomplus" xlink:href="#zoomPlus" x="17" y="9" onmousedown="handleZoom(evt,'in')"/>
                <use id="zoomminus" xlink:href="#zoomMin" x="42" y="9" onmousedown="handleZoom(evt,'out')"/>
                <use id="reset" xlink:href="#resetDef" x="30" y="36" onmousedown="handleReset()"/>
                <g id="arrowUp" xlink:href="#dirArrow" transform="translate(30 24)" onmousedown="handlePan(0,-1)">
                  <use xlink:href="#rim" fill="#404040">
                        <set attributeName="fill" to="#808080" begin="arrowUp.mouseover" end="arrowUp.mouseout"/>
                  </use>
                  <path fill="none" stroke="white" stroke-width="1.5" d="M0,-3.0v7 M-2.5,-0.5L0,-3.0L2.5,-0.5"/>
                </g>
                <g id="arrowRight" xlink:href="#dirArrow" transform="rotate(90) translate(36 -43)" onmousedown="handlePan(1,0)">
                  <use xlink:href="#rim" fill="#404040">
                        <set attributeName="fill" to="#808080" begin="arrowRight.mouseover" end="arrowRight.mouseout"/>
                  </use>
                  <path fill="none" stroke="white" stroke-width="1.5" d="M0,-3.0v7 M-2.5,-0.5L0,-3.0L2.5,-0.5"/>
                </g>
                <g id="arrowDown" xlink:href="#dirArrow" transform="rotate(180) translate(-30 -48)" onmousedown="handlePan(0,1)">
                  <use xlink:href="#rim" fill="#404040">
                        <set attributeName="fill" to="#808080" begin="arrowDown.mouseover" end="arrowDown.mouseout"/>
                  </use>
                  <path fill="none" stroke="white" stroke-width="1.5" d="M0,-3.0v7 M-2.5,-0.5L0,-3.0L2.5,-0.5"/>
                </g>
                <g id="arrowLeft" xlink:href="#dirArrow" transform="rotate(270) translate(-36 17)" onmousedown="handlePan(-1,0)">
                  <use xlink:href="#rim" fill="#404040">
                        <set attributeName="fill" to="#808080" begin="arrowLeft.mouseover" end="arrowLeft.mouseout"/>
                  </use>
                  <path fill="none" stroke="white" stroke-width="1.5" d="M0,-3.0v7 M-2.5,-0.5L0,-3.0L2.5,-0.5"/>
                </g>
        </g>
        <svg viewBox="0 0 15 15" width="100%" height="30px" preserveAspectRatio="xMaxYMin meet">
         <g id="arrow_out" transform="scale(0.3 0.3)">
          <a xlink:href="a00450_a1a943400d941101225e6148661192ea2_cgraph_org.svg" target="_base">
           <rect id="button" ry="5" rx="5" y="6" x="6" height="38" width="38"
                fill="#f2f5e9" fill-opacity="0.5" stroke="#606060" stroke-width="1.0"/>
           <path id="arrow"
             d="M 11.500037,31.436501 C 11.940474,20.09759 22.043105,11.32322 32.158766,21.979434 L 37.068811,17.246167 C 37.068811,17.246167 37.088388,32 37.088388,32 L 22.160133,31.978069 C 22.160133,31.978069 26.997745,27.140456 26.997745,27.140456 C 18.528582,18.264221 13.291696,25.230495 11.500037,31.436501 z"
             style="fill:#404040;"/>
          </a>
         </g>
        </svg>
</svg>
