<?xml version="1.0" encoding="UTF-8" standalone="no"?>
<!DOCTYPE svg PUBLIC "-//W3C//DTD SVG 1.1//EN"
 "http://www.w3.org/Graphics/SVG/1.1/DTD/svg11.dtd">
<!-- Generated by graphviz version 2.43.0 (0)
 -->
<!-- Title: com.cliffc.aa.node.CallEpiNode.check_and_wire Pages: 1 -->
<svg width="740pt" height="154pt"
 viewBox="0.00 0.00 740.00 153.50" xmlns="http://www.w3.org/2000/svg" xmlns:xlink="http://www.w3.org/1999/xlink">
<g id="graph0" class="graph" transform="scale(1 1) rotate(0) translate(4 149.5)">
<title>com.cliffc.aa.node.CallEpiNode.check_and_wire</title>
<!-- Node1 -->
<g id="node1" class="node">
<title>Node1</title>
<g id="a_node1"><a xlink:title=" ">
<polygon fill="#bfbfbf" stroke="black" points="589,-49.5 589,-79.5 732,-79.5 732,-49.5 589,-49.5"/>
<text text-anchor="start" x="597" y="-67.5" font-family="Helvetica,sans-Serif" font-size="10.00">com.cliffc.aa.node.CallEpi</text>
<text text-anchor="middle" x="660.5" y="-56.5" font-family="Helvetica,sans-Serif" font-size="10.00">Node.check_and_wire</text>
</a>
</g>
</g>
<!-- Node2 -->
<g id="node2" class="node">
<title>Node2</title>
<g id="a_node2"><a xlink:href="../../d9/d0a/a00390.html#adef511925a7d3a3ec9b8441a8e2c298c" target="_top" xlink:title=" ">
<polygon fill="none" stroke="black" points="384,-98.5 384,-128.5 542,-128.5 542,-98.5 384,-98.5"/>
<text text-anchor="start" x="392" y="-116.5" font-family="Helvetica,sans-Serif" font-size="10.00">com.cliffc.aa.GVNGCM.check</text>
<text text-anchor="middle" x="463" y="-105.5" font-family="Helvetica,sans-Serif" font-size="10.00">_and_wire</text>
</a>
</g>
</g>
<!-- Node1&#45;&gt;Node2 -->
<g id="edge1" class="edge">
<title>Node1&#45;&gt;Node2</title>
<path fill="none" stroke="midnightblue" d="M589.77,-81.98C568.22,-87.38 544.69,-93.28 523.87,-98.49"/>
<polygon fill="midnightblue" stroke="midnightblue" points="590.67,-85.36 599.51,-79.53 588.96,-78.57 590.67,-85.36"/>
</g>
<!-- Node6 -->
<g id="node6" class="node">
<title>Node6</title>
<g id="a_node6"><a xlink:href="../../dc/d81/a01006.html#a2fc8d45a36328634008e89d520cfb885" target="_top" xlink:title=" ">
<polygon fill="none" stroke="black" points="391.5,-49.5 391.5,-79.5 534.5,-79.5 534.5,-49.5 391.5,-49.5"/>
<text text-anchor="start" x="399.5" y="-67.5" font-family="Helvetica,sans-Serif" font-size="10.00">com.cliffc.aa.node.CallEpi</text>
<text text-anchor="middle" x="463" y="-56.5" font-family="Helvetica,sans-Serif" font-size="10.00">Node.ideal_reduce</text>
</a>
</g>
</g>
<!-- Node1&#45;&gt;Node6 -->
<g id="edge5" class="edge">
<title>Node1&#45;&gt;Node6</title>
<path fill="none" stroke="midnightblue" d="M578.9,-64.5C564.27,-64.5 549.12,-64.5 534.8,-64.5"/>
<polygon fill="midnightblue" stroke="midnightblue" points="578.92,-68 588.92,-64.5 578.92,-61 578.92,-68"/>
</g>
<!-- Node7 -->
<g id="node7" class="node">
<title>Node7</title>
<g id="a_node7"><a xlink:href="../../d0/d2b/a01010.html#aef07a2283d73f9f60f0215af08389efb" target="_top" xlink:title=" ">
<polygon fill="none" stroke="black" points="373,-0.5 373,-30.5 553,-30.5 553,-0.5 373,-0.5"/>
<text text-anchor="start" x="381" y="-18.5" font-family="Helvetica,sans-Serif" font-size="10.00">com.cliffc.aa.node.CallNode.ideal</text>
<text text-anchor="middle" x="463" y="-7.5" font-family="Helvetica,sans-Serif" font-size="10.00">_reduce</text>
</a>
</g>
</g>
<!-- Node1&#45;&gt;Node7 -->
<g id="edge6" class="edge">
<title>Node1&#45;&gt;Node7</title>
<path fill="none" stroke="midnightblue" d="M589.77,-47.02C568.22,-41.62 544.69,-35.72 523.87,-30.51"/>
<polygon fill="midnightblue" stroke="midnightblue" points="588.96,-50.43 599.51,-49.47 590.67,-43.64 588.96,-50.43"/>
</g>
<!-- Node3 -->
<g id="node3" class="node">
<title>Node3</title>
<g id="a_node3"><a xlink:href="../../d9/d0a/a00390.html#a30adb7d17b631cd35a2e994feaa511f1" target="_top" xlink:title=" ">
<polygon fill="none" stroke="black" points="190,-104 190,-123 337,-123 337,-104 190,-104"/>
<text text-anchor="middle" x="263.5" y="-111" font-family="Helvetica,sans-Serif" font-size="10.00">com.cliffc.aa.GVNGCM.gcp</text>
</a>
</g>
</g>
<!-- Node2&#45;&gt;Node3 -->
<g id="edge2" class="edge">
<title>Node2&#45;&gt;Node3</title>
<path fill="none" stroke="midnightblue" d="M373.74,-113.5C361.51,-113.5 349.07,-113.5 337.17,-113.5"/>
<polygon fill="midnightblue" stroke="midnightblue" points="373.94,-117 383.94,-113.5 373.94,-110 373.94,-117"/>
</g>
<!-- Node4 -->
<g id="node4" class="node">
<title>Node4</title>
<g id="a_node4"><a xlink:href="../../da/de3/a01398.html#a7b1a6eaad3b721625612e7475ca9bf3b" target="_top" xlink:title=" ">
<polygon fill="none" stroke="black" points="15.5,-126 15.5,-145 138.5,-145 138.5,-126 15.5,-126"/>
<text text-anchor="middle" x="77" y="-133" font-family="Helvetica,sans-Serif" font-size="10.00">com.cliffc.aa.Parse.go</text>
</a>
</g>
</g>
<!-- Node3&#45;&gt;Node4 -->
<g id="edge3" class="edge">
<title>Node3&#45;&gt;Node4</title>
<path fill="none" stroke="midnightblue" d="M179.83,-123.36C165.98,-125.01 151.84,-126.69 138.68,-128.26"/>
<polygon fill="midnightblue" stroke="midnightblue" points="180.33,-126.82 189.85,-122.16 179.5,-119.87 180.33,-126.82"/>
</g>
<!-- Node5 -->
<g id="node5" class="node">
<title>Node5</title>
<g id="a_node5"><a xlink:href="../../d4/d8e/a01694.html#a0047bc5cd2ee14b1d3822a5969bc0502" target="_top" xlink:title=" ">
<polygon fill="none" stroke="black" points="0,-76.5 0,-106.5 154,-106.5 154,-76.5 0,-76.5"/>
<text text-anchor="start" x="8" y="-94.5" font-family="Helvetica,sans-Serif" font-size="10.00">com.cliffc.aa.node.TestNode</text>
<text text-anchor="middle" x="77" y="-83.5" font-family="Helvetica,sans-Serif" font-size="10.00">Small.testRecursiveDisplay</text>
</a>
</g>
</g>
<!-- Node3&#45;&gt;Node5 -->
<g id="edge4" class="edge">
<title>Node3&#45;&gt;Node5</title>
<path fill="none" stroke="midnightblue" d="M179.89,-103.65C171.35,-102.63 162.7,-101.6 154.23,-100.59"/>
<polygon fill="midnightblue" stroke="midnightblue" points="179.5,-107.13 189.85,-104.84 180.33,-100.18 179.5,-107.13"/>
</g>
</g>
</svg>
