<?xml version="1.0" encoding="UTF-8" standalone="no"?>
<!DOCTYPE svg PUBLIC "-//W3C//DTD SVG 1.1//EN"
 "http://www.w3.org/Graphics/SVG/1.1/DTD/svg11.dtd">
<!-- Generated by graphviz version 2.43.0 (0)
 -->
<!-- Title: com.cliffc.aa.node.CallEpiNode.esc_out Pages: 1 -->
<svg width="634pt" height="127pt"
 viewBox="0.00 0.00 634.00 127.00" xmlns="http://www.w3.org/2000/svg" xmlns:xlink="http://www.w3.org/1999/xlink">
<g id="graph0" class="graph" transform="scale(1 1) rotate(0) translate(4 123)">
<title>com.cliffc.aa.node.CallEpiNode.esc_out</title>
<!-- Node1 -->
<g id="node1" class="node">
<title>Node1</title>
<g id="a_node1"><a xlink:title=" ">
<polygon fill="#bfbfbf" stroke="black" points="483,-44.5 483,-74.5 626,-74.5 626,-44.5 483,-44.5"/>
<text text-anchor="start" x="491" y="-62.5" font-family="Helvetica,sans-Serif" font-size="10.00">com.cliffc.aa.node.CallEpi</text>
<text text-anchor="middle" x="554.5" y="-51.5" font-family="Helvetica,sans-Serif" font-size="10.00">Node.esc_out</text>
</a>
</g>
</g>
<!-- Node2 -->
<g id="node2" class="node">
<title>Node2</title>
<g id="a_node2"><a xlink:href="../../d0/d2b/a01010.html#ab379c52becb0c5ae2aea5dfa6046eea2" target="_top" xlink:title=" ">
<polygon fill="none" stroke="black" points="268,-88.5 268,-118.5 424,-118.5 424,-88.5 268,-88.5"/>
<text text-anchor="start" x="276" y="-106.5" font-family="Helvetica,sans-Serif" font-size="10.00">com.cliffc.aa.node.CallNode.</text>
<text text-anchor="middle" x="346" y="-95.5" font-family="Helvetica,sans-Serif" font-size="10.00">_ideal_grow</text>
</a>
</g>
</g>
<!-- Node1&#45;&gt;Node2 -->
<g id="edge1" class="edge">
<title>Node1&#45;&gt;Node2</title>
<path fill="none" stroke="midnightblue" d="M473.22,-76.61C454.84,-80.52 435.45,-84.65 417.52,-88.47"/>
<polygon fill="midnightblue" stroke="midnightblue" points="473.96,-80.03 483.01,-74.52 472.5,-73.18 473.96,-80.03"/>
</g>
<!-- Node4 -->
<g id="node4" class="node">
<title>Node4</title>
<g id="a_node4"><a xlink:href="../../d0/d2b/a01010.html#a5b34a20cc97a31a50a5dc1b5450f62fd" target="_top" xlink:title=" ">
<polygon fill="none" stroke="black" points="245,-50 245,-69 447,-69 447,-50 245,-50"/>
<text text-anchor="middle" x="346" y="-57" font-family="Helvetica,sans-Serif" font-size="10.00">com.cliffc.aa.node.CallNode.escapees</text>
</a>
</g>
</g>
<!-- Node1&#45;&gt;Node4 -->
<g id="edge3" class="edge">
<title>Node1&#45;&gt;Node4</title>
<path fill="none" stroke="midnightblue" d="M472.67,-59.5C464.33,-59.5 455.78,-59.5 447.27,-59.5"/>
<polygon fill="midnightblue" stroke="midnightblue" points="472.72,-63 482.72,-59.5 472.72,-56 472.72,-63"/>
</g>
<!-- Node5 -->
<g id="node5" class="node">
<title>Node5</title>
<g id="a_node5"><a xlink:href="../../dc/d81/a01006.html#abb422a6e7ca1e2d4c40517cc0197a237" target="_top" xlink:title=" ">
<polygon fill="none" stroke="black" points="274.5,-0.5 274.5,-30.5 417.5,-30.5 417.5,-0.5 274.5,-0.5"/>
<text text-anchor="start" x="282.5" y="-18.5" font-family="Helvetica,sans-Serif" font-size="10.00">com.cliffc.aa.node.CallEpi</text>
<text text-anchor="middle" x="346" y="-7.5" font-family="Helvetica,sans-Serif" font-size="10.00">Node.value</text>
</a>
</g>
</g>
<!-- Node1&#45;&gt;Node5 -->
<g id="edge5" class="edge">
<title>Node1&#45;&gt;Node5</title>
<path fill="none" stroke="midnightblue" d="M473.22,-42.39C454.84,-38.48 435.45,-34.35 417.52,-30.53"/>
<polygon fill="midnightblue" stroke="midnightblue" points="472.5,-45.82 483.01,-44.48 473.96,-38.97 472.5,-45.82"/>
</g>
<!-- Node3 -->
<g id="node3" class="node">
<title>Node3</title>
<g id="a_node3"><a xlink:href="../../d0/d2b/a01010.html#a88196b80c9958b84e83d3d5e8967ec48" target="_top" xlink:title=" ">
<polygon fill="none" stroke="black" points="0,-72 0,-91 209,-91 209,-72 0,-72"/>
<text text-anchor="middle" x="104.5" y="-79" font-family="Helvetica,sans-Serif" font-size="10.00">com.cliffc.aa.node.CallNode.ideal_grow</text>
</a>
</g>
</g>
<!-- Node2&#45;&gt;Node3 -->
<g id="edge2" class="edge">
<title>Node2&#45;&gt;Node3</title>
<path fill="none" stroke="midnightblue" d="M257.66,-95.48C241.88,-94.03 225.29,-92.5 209.09,-91.02"/>
<polygon fill="midnightblue" stroke="midnightblue" points="257.62,-98.99 267.9,-96.42 258.26,-92.02 257.62,-98.99"/>
</g>
<!-- Node4&#45;&gt;Node3 -->
<g id="edge4" class="edge">
<title>Node4&#45;&gt;Node3</title>
<path fill="none" stroke="midnightblue" d="M234.82,-69.62C226.26,-70.41 217.64,-71.2 209.13,-71.98"/>
<polygon fill="midnightblue" stroke="midnightblue" points="235.18,-73.1 244.82,-68.7 234.54,-66.13 235.18,-73.1"/>
</g>
</g>
</svg>
