<?xml version="1.0" encoding="UTF-8" standalone="no"?>
<!DOCTYPE svg PUBLIC "-//W3C//DTD SVG 1.1//EN"
 "http://www.w3.org/Graphics/SVG/1.1/DTD/svg11.dtd">
<!-- Generated by graphviz version 2.43.0 (0)
 -->
<!-- Title: com.cliffc.aa.HM.HM Pages: 1 -->
<svg width="668pt" height="231pt"
 viewBox="0.00 0.00 668.00 231.00" xmlns="http://www.w3.org/2000/svg" xmlns:xlink="http://www.w3.org/1999/xlink">
<g id="graph0" class="graph" transform="scale(1 1) rotate(0) translate(4 227)">
<title>com.cliffc.aa.HM.HM</title>
<!-- Node1 -->
<g id="node1" class="node">
<title>Node1</title>
<g id="a_node1"><a xlink:title=" ">
<polygon fill="#bfbfbf" stroke="black" points="542,-90.5 542,-109.5 660,-109.5 660,-90.5 542,-90.5"/>
<text text-anchor="middle" x="601" y="-97.5" font-family="Helvetica,sans-Serif" font-size="10.00">com.cliffc.aa.HM.HM</text>
</a>
</g>
</g>
<!-- Node2 -->
<g id="node2" class="node">
<title>Node2</title>
<g id="a_node2"><a xlink:href="../../d4/d99/a01634.html" target="_top" xlink:title="Tight/tiny StringBuilder wrapper.">
<polygon fill="none" stroke="black" points="291,-175.5 291,-194.5 404,-194.5 404,-175.5 291,-175.5"/>
<text text-anchor="middle" x="347.5" y="-182.5" font-family="Helvetica,sans-Serif" font-size="10.00">com.cliffc.aa.util.SB</text>
</a>
</g>
</g>
<!-- Node2&#45;&gt;Node1 -->
<g id="edge1" class="edge">
<title>Node2&#45;&gt;Node1</title>
<path fill="none" stroke="#9a32cd" stroke-dasharray="5,2" d="M414.52,-183.74C448.4,-181.1 489.65,-174.72 524,-160 551.81,-148.08 578.09,-123.26 591.24,-109.57"/>
<polygon fill="#9a32cd" stroke="#9a32cd" points="413.99,-180.27 404.26,-184.45 414.47,-187.25 413.99,-180.27"/>
<text text-anchor="middle" x="488" y="-182" font-family="Helvetica,sans-Serif" font-size="10.00"> ID</text>
</g>
<!-- Node3 -->
<g id="node3" class="node">
<title>Node3</title>
<g id="a_node3"><a xlink:title=" ">
<polygon fill="none" stroke="#bfbfbf" points="0,-203.5 0,-222.5 104,-222.5 104,-203.5 0,-203.5"/>
<text text-anchor="middle" x="52" y="-210.5" font-family="Helvetica,sans-Serif" font-size="10.00">final StringBuilder</text>
</a>
</g>
</g>
<!-- Node3&#45;&gt;Node2 -->
<g id="edge2" class="edge">
<title>Node3&#45;&gt;Node2</title>
<path fill="none" stroke="#9a32cd" stroke-dasharray="5,2" d="M114.24,-207.16C166.35,-202.19 240.56,-195.11 290.97,-190.3"/>
<polygon fill="#9a32cd" stroke="#9a32cd" points="113.75,-203.69 104.12,-208.12 114.41,-210.66 113.75,-203.69"/>
<text text-anchor="middle" x="182.5" y="-209" font-family="Helvetica,sans-Serif" font-size="10.00"> _sb</text>
</g>
<!-- Node4 -->
<g id="node4" class="node">
<title>Node4</title>
<g id="a_node4"><a xlink:title=" ">
<polygon fill="none" stroke="#bfbfbf" points="37.5,-151.5 37.5,-170.5 66.5,-170.5 66.5,-151.5 37.5,-151.5"/>
<text text-anchor="middle" x="52" y="-158.5" font-family="Helvetica,sans-Serif" font-size="10.00">int</text>
</a>
</g>
</g>
<!-- Node4&#45;&gt;Node1 -->
<g id="edge5" class="edge">
<title>Node4&#45;&gt;Node1</title>
<path fill="none" stroke="#9a32cd" stroke-dasharray="5,2" d="M76.8,-159.5C146.07,-154.96 353.45,-140.1 524,-115 534.25,-113.49 545.2,-111.53 555.52,-109.53"/>
<polygon fill="#9a32cd" stroke="#9a32cd" points="76.3,-156.02 66.55,-160.16 76.75,-163.01 76.3,-156.02"/>
<text text-anchor="middle" x="347.5" y="-148" font-family="Helvetica,sans-Serif" font-size="10.00"> X</text>
</g>
<!-- Node4&#45;&gt;Node2 -->
<g id="edge3" class="edge">
<title>Node4&#45;&gt;Node2</title>
<path fill="none" stroke="#9a32cd" stroke-dasharray="5,2" d="M76.74,-162.94C123.03,-166.73 226.43,-175.18 290.92,-180.46"/>
<polygon fill="#9a32cd" stroke="#9a32cd" points="77.01,-159.45 66.76,-162.13 76.44,-166.43 77.01,-159.45"/>
<text text-anchor="middle" x="182.5" y="-178" font-family="Helvetica,sans-Serif" font-size="10.00"> _indent</text>
</g>
<!-- Node5 -->
<g id="node5" class="node">
<title>Node5</title>
<g id="a_node5"><a xlink:title=" ">
<polygon fill="none" stroke="#bfbfbf" points="328.5,-90.5 328.5,-109.5 366.5,-109.5 366.5,-90.5 328.5,-90.5"/>
<text text-anchor="middle" x="347.5" y="-97.5" font-family="Helvetica,sans-Serif" font-size="10.00">byte</text>
</a>
</g>
</g>
<!-- Node5&#45;&gt;Node1 -->
<g id="edge4" class="edge">
<title>Node5&#45;&gt;Node1</title>
<path fill="none" stroke="#9a32cd" stroke-dasharray="5,2" d="M376.64,-100C416.43,-100 490.06,-100 541.88,-100"/>
<polygon fill="#9a32cd" stroke="#9a32cd" points="376.59,-96.5 366.59,-100 376.59,-103.5 376.59,-96.5"/>
<text text-anchor="middle" x="488" y="-103" font-family="Helvetica,sans-Serif" font-size="10.00"> BUF</text>
</g>
<!-- Node6 -->
<g id="node6" class="node">
<title>Node6</title>
<g id="a_node6"><a xlink:title=" ">
<polygon fill="none" stroke="#bfbfbf" points="261,-41 261,-71 434,-71 434,-41 261,-41"/>
<text text-anchor="start" x="269" y="-59" font-family="Helvetica,sans-Serif" font-size="10.00">HashMap&lt; String, com.cliffc.aa.</text>
<text text-anchor="middle" x="347.5" y="-48" font-family="Helvetica,sans-Serif" font-size="10.00">HM.HM.PrimSyn &gt;</text>
</a>
</g>
</g>
<!-- Node6&#45;&gt;Node1 -->
<g id="edge6" class="edge">
<title>Node6&#45;&gt;Node1</title>
<path fill="none" stroke="#9a32cd" stroke-dasharray="5,2" d="M444.46,-71.3C470.31,-75.58 498.25,-80.33 524,-85 533.4,-86.7 543.43,-88.62 553.02,-90.49"/>
<polygon fill="#9a32cd" stroke="#9a32cd" points="444.72,-67.8 434.29,-69.63 443.58,-74.71 444.72,-67.8"/>
<text text-anchor="middle" x="488" y="-88" font-family="Helvetica,sans-Serif" font-size="10.00"> PRIMSYNS</text>
</g>
<!-- Node7 -->
<g id="node7" class="node">
<title>Node7</title>
<g id="a_node7"><a xlink:title=" ">
<polygon fill="none" stroke="#bfbfbf" points="21,-46.5 21,-65.5 83,-65.5 83,-46.5 21,-46.5"/>
<text text-anchor="middle" x="52" y="-53.5" font-family="Helvetica,sans-Serif" font-size="10.00">HashMap</text>
</a>
</g>
</g>
<!-- Node7&#45;&gt;Node6 -->
<g id="edge7" class="edge">
<title>Node7&#45;&gt;Node6</title>
<path fill="none" stroke="orange" stroke-dasharray="5,2" d="M93.1,-56C136.08,-56 205.61,-56 260.98,-56"/>
<polygon fill="orange" stroke="orange" points="93.03,-52.5 83.03,-56 93.03,-59.5 93.03,-52.5"/>
<text text-anchor="start" x="122" y="-70" font-family="Helvetica,sans-Serif" font-size="10.00"> &lt; String, com::cliffc</text>
<text text-anchor="middle" x="182.5" y="-59" font-family="Helvetica,sans-Serif" font-size="10.00">::aa::HM::HM::PrimSyn &gt;</text>
</g>
<!-- Node8 -->
<g id="node8" class="node">
<title>Node8</title>
<g id="a_node8"><a xlink:title=" ">
<polygon fill="none" stroke="#bfbfbf" points="319.5,-0.5 319.5,-19.5 375.5,-19.5 375.5,-0.5 319.5,-0.5"/>
<text text-anchor="middle" x="347.5" y="-7.5" font-family="Helvetica,sans-Serif" font-size="10.00">boolean</text>
</a>
</g>
</g>
<!-- Node8&#45;&gt;Node1 -->
<g id="edge8" class="edge">
<title>Node8&#45;&gt;Node1</title>
<path fill="none" stroke="#9a32cd" stroke-dasharray="5,2" d="M385.89,-9.7C422.59,-10.73 479.4,-15.9 524,-36 552.62,-48.9 578.96,-75.81 591.79,-90.28"/>
<polygon fill="#9a32cd" stroke="#9a32cd" points="385.7,-6.2 375.64,-9.51 385.57,-13.2 385.7,-6.2"/>
<text text-anchor="middle" x="488" y="-61" font-family="Helvetica,sans-Serif" font-size="10.00"> DO_GCP</text>
<text text-anchor="middle" x="488" y="-50" font-family="Helvetica,sans-Serif" font-size="10.00">DO_HM</text>
<text text-anchor="middle" x="488" y="-39" font-family="Helvetica,sans-Serif" font-size="10.00">DEBUG_LEAKS</text>
</g>
</g>
</svg>
