<?xml version="1.0" encoding="UTF-8" standalone="no"?>
<!DOCTYPE svg PUBLIC "-//W3C//DTD SVG 1.1//EN"
 "http://www.w3.org/Graphics/SVG/1.1/DTD/svg11.dtd">
<!-- Generated by graphviz version 2.43.0 (0)
 -->
<!-- Title: com.cliffc.aa.HM.HM5.T2.add_deps_work_impl Pages: 1 -->
<!--zoomable 142 -->
<svg id="main" version="1.1" xmlns="http://www.w3.org/2000/svg" xmlns:xlink="http://www.w3.org/1999/xlink" xml:space="preserve" onload="init(evt)">
<style type="text/css"><![CDATA[
.edge:hover path { stroke: red; }
.edge:hover polygon { stroke: red; fill: red; }
]]></style>
<script type="text/javascript"><![CDATA[
var edges = document.getElementsByTagName('g');
if (edges && edges.length) {
  for (var i=0;i<edges.length;i++) {
    if (edges[i].id.substr(0,4)=='edge') {
      edges[i].setAttribute('class','edge');
    }
  }
}
]]></script>
        <defs>
                <circle id="rim" cx="0" cy="0" r="7"/>
                <circle id="rim2" cx="0" cy="0" r="3.5"/>
                <g id="zoomPlus">
                        <use xlink:href="#rim" fill="#404040">
                                <set attributeName="fill" to="#808080" begin="zoomplus.mouseover" end="zoomplus.mouseout"/>
                        </use>
                        <path d="M-4,0h8M0,-4v8" fill="none" stroke="white" stroke-width="1.5" pointer-events="none"/>
                </g>
                <g id="zoomMin">
                        <use xlink:href="#rim" fill="#404040">
                                <set attributeName="fill" to="#808080" begin="zoomminus.mouseover" end="zoomminus.mouseout"/>
                        </use>
                        <path d="M-4,0h8" fill="none" stroke="white" stroke-width="1.5" pointer-events="none"/>
                </g>
                <g id="dirArrow">
                        <path fill="none" stroke="white" stroke-width="1.5" d="M0,-3.0v7 M-2.5,-0.5L0,-3.0L2.5,-0.5"/>
                </g>
               <g id="resetDef">
                       <use xlink:href="#rim2" fill="#404040">
                               <set attributeName="fill" to="#808080" begin="reset.mouseover" end="reset.mouseout"/>
                       </use>
               </g>
        </defs>

<script type="text/javascript">
var viewWidth = 1409;
var viewHeight = 142;
var sectionId = 'dynsection-23';
</script>
<script xlink:href="../../svgpan.js"/>
<svg id="graph" class="graph">
<g id="viewport">
<title>com.cliffc.aa.HM.HM5.T2.add_deps_work_impl</title>
<!-- Node1 -->
<g id="node1" class="node">
<title>Node1</title>
<g id="a_node1"><a xlink:title=" ">
<polygon fill="#bfbfbf" stroke="black" points="0,-52 0,-82 160,-82 160,-52 0,-52"/>
<text text-anchor="start" x="8" y="-70" font-family="Helvetica,sans-Serif" font-size="10.00">com.cliffc.aa.HM.HM5.T2.add</text>
<text text-anchor="middle" x="80" y="-59" font-family="Helvetica,sans-Serif" font-size="10.00">_deps_work_impl</text>
</a>
</g>
</g>
<!-- Node1&#45;&gt;Node1 -->
<g id="edge1" class="edge">
<title>Node1&#45;&gt;Node1</title>
<path fill="none" stroke="midnightblue" d="M42.36,-82.16C33.28,-91.56 45.83,-100.5 80,-100.5 100.82,-100.5 113.62,-97.18 118.38,-92.46"/>
<polygon fill="midnightblue" stroke="midnightblue" points="121.85,-91.88 117.64,-82.16 114.87,-92.38 121.85,-91.88"/>
</g>
<!-- Node2 -->
<g id="node2" class="node">
<title>Node2</title>
<g id="a_node2"><a xlink:href="../../da/d3a/a00694.html#acc36e046227e83764f12d3e802043ef0" target="_top" xlink:title=" ">
<polygon fill="none" stroke="black" points="196,-114.5 196,-133.5 396,-133.5 396,-114.5 196,-114.5"/>
<text text-anchor="middle" x="296" y="-121.5" font-family="Helvetica,sans-Serif" font-size="10.00">com.cliffc.aa.HM.HM5.Worklist.addAll</text>
</a>
</g>
</g>
<!-- Node1&#45;&gt;Node2 -->
<g id="edge2" class="edge">
<title>Node1&#45;&gt;Node2</title>
<path fill="none" stroke="midnightblue" d="M122.13,-82.03C143.89,-89.61 171.17,-98.54 196,-105 206.44,-107.71 217.59,-110.22 228.51,-112.47"/>
<polygon fill="midnightblue" stroke="midnightblue" points="227.94,-115.92 238.44,-114.45 229.32,-109.06 227.94,-115.92"/>
</g>
<!-- Node4 -->
<g id="node4" class="node">
<title>Node4</title>
<g id="a_node4"><a xlink:href="../../d6/dc0/a00734.html#a433dc9a7e90d9193c6be808d7f3302c3" target="_top" xlink:title=" ">
<polygon fill="none" stroke="black" points="214.5,-76.5 214.5,-95.5 377.5,-95.5 377.5,-76.5 214.5,-76.5"/>
<text text-anchor="middle" x="296" y="-83.5" font-family="Helvetica,sans-Serif" font-size="10.00">com.cliffc.aa.HM.HM5.T2.args</text>
</a>
</g>
</g>
<!-- Node1&#45;&gt;Node4 -->
<g id="edge4" class="edge">
<title>Node1&#45;&gt;Node4</title>
<path fill="none" stroke="midnightblue" d="M160.08,-74.02C174.49,-75.3 189.63,-76.64 204.35,-77.95"/>
<polygon fill="midnightblue" stroke="midnightblue" points="204.19,-81.45 214.46,-78.85 204.81,-74.48 204.19,-81.45"/>
</g>
<!-- Node6 -->
<g id="node6" class="node">
<title>Node6</title>
<g id="a_node6"><a xlink:href="../../d6/dc0/a00734.html#ae1dc4e87f4ba9daf78a3f1558014cd6a" target="_top" xlink:title=" ">
<polygon fill="none" stroke="black" points="866,-76.5 866,-95.5 1040,-95.5 1040,-76.5 866,-76.5"/>
<text text-anchor="middle" x="953" y="-83.5" font-family="Helvetica,sans-Serif" font-size="10.00">com.cliffc.aa.HM.HM5.T2.is_leaf</text>
</a>
</g>
</g>
<!-- Node1&#45;&gt;Node6 -->
<g id="edge11" class="edge">
<title>Node1&#45;&gt;Node6</title>
<path fill="none" stroke="midnightblue" d="M160.15,-62.99C296.96,-56.97 586.43,-48.15 830,-67 850.38,-68.58 872.51,-71.62 892.26,-74.81"/>
<polygon fill="midnightblue" stroke="midnightblue" points="891.9,-78.3 902.34,-76.49 893.05,-71.39 891.9,-78.3"/>
</g>
<!-- Node10 -->
<g id="node10" class="node">
<title>Node10</title>
<g id="a_node10"><a xlink:href="../../df/dee/a01646.html#a88ad20daf92e92fe0e3925b23c4fecf0" target="_top" xlink:title=" ">
<polygon fill="none" stroke="black" points="217,-0.5 217,-19.5 375,-19.5 375,-0.5 217,-0.5"/>
<text text-anchor="middle" x="296" y="-7.5" font-family="Helvetica,sans-Serif" font-size="10.00">com.cliffc.aa.util.VBitSet.tset</text>
</a>
</g>
</g>
<!-- Node1&#45;&gt;Node10 -->
<g id="edge12" class="edge">
<title>Node1&#45;&gt;Node10</title>
<path fill="none" stroke="midnightblue" d="M131.82,-51.92C151.78,-46.13 174.92,-39.58 196,-34 211.57,-29.88 228.59,-25.66 244.05,-21.92"/>
<polygon fill="midnightblue" stroke="midnightblue" points="245.05,-25.28 253.96,-19.54 243.42,-18.47 245.05,-25.28"/>
</g>
<!-- Node3 -->
<g id="node3" class="node">
<title>Node3</title>
<g id="a_node3"><a xlink:href="../../da/d3a/a00694.html#a23056422e8a0d8b4766e84df69484568" target="_top" xlink:title=" ">
<polygon fill="none" stroke="black" points="432,-114.5 432,-133.5 625,-133.5 625,-114.5 432,-114.5"/>
<text text-anchor="middle" x="528.5" y="-121.5" font-family="Helvetica,sans-Serif" font-size="10.00">com.cliffc.aa.HM.HM5.Worklist.push</text>
</a>
</g>
</g>
<!-- Node2&#45;&gt;Node3 -->
<g id="edge3" class="edge">
<title>Node2&#45;&gt;Node3</title>
<path fill="none" stroke="midnightblue" d="M396.09,-124C404.6,-124 413.22,-124 421.78,-124"/>
<polygon fill="midnightblue" stroke="midnightblue" points="421.78,-127.5 431.78,-124 421.78,-120.5 421.78,-127.5"/>
</g>
<!-- Node5 -->
<g id="node5" class="node">
<title>Node5</title>
<g id="a_node5"><a xlink:href="../../d6/dc0/a00734.html#a6d2cdd09875e9eecfede070ee929cead" target="_top" xlink:title=" ">
<polygon fill="none" stroke="black" points="448.5,-76.5 448.5,-95.5 608.5,-95.5 608.5,-76.5 448.5,-76.5"/>
<text text-anchor="middle" x="528.5" y="-83.5" font-family="Helvetica,sans-Serif" font-size="10.00">com.cliffc.aa.HM.HM5.T2.find</text>
</a>
</g>
</g>
<!-- Node4&#45;&gt;Node5 -->
<g id="edge5" class="edge">
<title>Node4&#45;&gt;Node5</title>
<path fill="none" stroke="midnightblue" d="M377.62,-86C397.28,-86 418.41,-86 438.44,-86"/>
<polygon fill="midnightblue" stroke="midnightblue" points="438.48,-89.5 448.48,-86 438.48,-82.5 438.48,-89.5"/>
</g>
<!-- Node5&#45;&gt;Node6 -->
<g id="edge6" class="edge">
<title>Node5&#45;&gt;Node6</title>
<path fill="none" stroke="midnightblue" d="M583.05,-95.51C606.84,-99.28 635.23,-103.15 661,-105 735.92,-110.38 755.11,-110.8 830,-105 850.38,-103.42 872.51,-100.38 892.26,-97.19"/>
<polygon fill="midnightblue" stroke="midnightblue" points="893.05,-100.61 902.34,-95.51 891.9,-93.7 893.05,-100.61"/>
</g>
<!-- Node9 -->
<g id="node9" class="node">
<title>Node9</title>
<g id="a_node9"><a xlink:href="../../d6/dc0/a00734.html#af00df14b2828230ad686eede9d6e2378" target="_top" xlink:title=" ">
<polygon fill="none" stroke="black" points="661,-76.5 661,-95.5 830,-95.5 830,-76.5 661,-76.5"/>
<text text-anchor="middle" x="745.5" y="-83.5" font-family="Helvetica,sans-Serif" font-size="10.00">com.cliffc.aa.HM.HM5.T2.no_uf</text>
</a>
</g>
</g>
<!-- Node5&#45;&gt;Node9 -->
<g id="edge9" class="edge">
<title>Node5&#45;&gt;Node9</title>
<path fill="none" stroke="midnightblue" d="M608.64,-86C622.32,-86 636.66,-86 650.69,-86"/>
<polygon fill="midnightblue" stroke="midnightblue" points="650.83,-89.5 660.83,-86 650.83,-82.5 650.83,-89.5"/>
</g>
<!-- Node7 -->
<g id="node7" class="node">
<title>Node7</title>
<g id="a_node7"><a xlink:href="../../d6/dc0/a00734.html#af33c2106ab6eb89d00c64a5eac9de455" target="_top" xlink:title=" ">
<polygon fill="none" stroke="black" points="1076,-76.5 1076,-95.5 1232,-95.5 1232,-76.5 1076,-76.5"/>
<text text-anchor="middle" x="1154" y="-83.5" font-family="Helvetica,sans-Serif" font-size="10.00">com.cliffc.aa.HM.HM5.T2.isa</text>
</a>
</g>
</g>
<!-- Node6&#45;&gt;Node7 -->
<g id="edge7" class="edge">
<title>Node6&#45;&gt;Node7</title>
<path fill="none" stroke="midnightblue" d="M1040.13,-86C1048.57,-86 1057.14,-86 1065.59,-86"/>
<polygon fill="midnightblue" stroke="midnightblue" points="1065.82,-89.5 1075.82,-86 1065.82,-82.5 1065.82,-89.5"/>
</g>
<!-- Node8 -->
<g id="node8" class="node">
<title>Node8</title>
<g id="a_node8"><a xlink:href="../../dd/d55/a01638.html#a3975ba7dca9fe2d6e4992b2b5558f882" target="_top" xlink:title=" ">
<polygon fill="none" stroke="black" points="1268,-76.5 1268,-95.5 1401,-95.5 1401,-76.5 1268,-76.5"/>
<text text-anchor="middle" x="1334.5" y="-83.5" font-family="Helvetica,sans-Serif" font-size="10.00">com.cliffc.aa.util.Util.eq</text>
</a>
</g>
</g>
<!-- Node7&#45;&gt;Node8 -->
<g id="edge8" class="edge">
<title>Node7&#45;&gt;Node8</title>
<path fill="none" stroke="midnightblue" d="M1232.25,-86C1240.69,-86 1249.28,-86 1257.7,-86"/>
<polygon fill="midnightblue" stroke="midnightblue" points="1257.87,-89.5 1267.87,-86 1257.87,-82.5 1257.87,-89.5"/>
</g>
<!-- Node9&#45;&gt;Node6 -->
<g id="edge10" class="edge">
<title>Node9&#45;&gt;Node6</title>
<path fill="none" stroke="midnightblue" d="M830.08,-86C838.55,-86 847.2,-86 855.78,-86"/>
<polygon fill="midnightblue" stroke="midnightblue" points="855.82,-89.5 865.82,-86 855.82,-82.5 855.82,-89.5"/>
</g>
</g>
</svg>
        <g id="navigator" transform="translate(0 0)" fill="#404254">
                <rect fill="#f2f5e9" fill-opacity="0.5" stroke="#606060" stroke-width=".5" x="0" y="0" width="60" height="60"/>
                <use id="zoomplus" xlink:href="#zoomPlus" x="17" y="9" onmousedown="handleZoom(evt,'in')"/>
                <use id="zoomminus" xlink:href="#zoomMin" x="42" y="9" onmousedown="handleZoom(evt,'out')"/>
                <use id="reset" xlink:href="#resetDef" x="30" y="36" onmousedown="handleReset()"/>
                <g id="arrowUp" xlink:href="#dirArrow" transform="translate(30 24)" onmousedown="handlePan(0,-1)">
                  <use xlink:href="#rim" fill="#404040">
                        <set attributeName="fill" to="#808080" begin="arrowUp.mouseover" end="arrowUp.mouseout"/>
                  </use>
                  <path fill="none" stroke="white" stroke-width="1.5" d="M0,-3.0v7 M-2.5,-0.5L0,-3.0L2.5,-0.5"/>
                </g>
                <g id="arrowRight" xlink:href="#dirArrow" transform="rotate(90) translate(36 -43)" onmousedown="handlePan(1,0)">
                  <use xlink:href="#rim" fill="#404040">
                        <set attributeName="fill" to="#808080" begin="arrowRight.mouseover" end="arrowRight.mouseout"/>
                  </use>
                  <path fill="none" stroke="white" stroke-width="1.5" d="M0,-3.0v7 M-2.5,-0.5L0,-3.0L2.5,-0.5"/>
                </g>
                <g id="arrowDown" xlink:href="#dirArrow" transform="rotate(180) translate(-30 -48)" onmousedown="handlePan(0,1)">
                  <use xlink:href="#rim" fill="#404040">
                        <set attributeName="fill" to="#808080" begin="arrowDown.mouseover" end="arrowDown.mouseout"/>
                  </use>
                  <path fill="none" stroke="white" stroke-width="1.5" d="M0,-3.0v7 M-2.5,-0.5L0,-3.0L2.5,-0.5"/>
                </g>
                <g id="arrowLeft" xlink:href="#dirArrow" transform="rotate(270) translate(-36 17)" onmousedown="handlePan(-1,0)">
                  <use xlink:href="#rim" fill="#404040">
                        <set attributeName="fill" to="#808080" begin="arrowLeft.mouseover" end="arrowLeft.mouseout"/>
                  </use>
                  <path fill="none" stroke="white" stroke-width="1.5" d="M0,-3.0v7 M-2.5,-0.5L0,-3.0L2.5,-0.5"/>
                </g>
        </g>
        <svg viewBox="0 0 15 15" width="100%" height="30px" preserveAspectRatio="xMaxYMin meet">
         <g id="arrow_out" transform="scale(0.3 0.3)">
          <a xlink:href="a00734_a56a51d831e19eedf50ee4ace2829de4f_cgraph_org.svg" target="_base">
           <rect id="button" ry="5" rx="5" y="6" x="6" height="38" width="38"
                fill="#f2f5e9" fill-opacity="0.5" stroke="#606060" stroke-width="1.0"/>
           <path id="arrow"
             d="M 11.500037,31.436501 C 11.940474,20.09759 22.043105,11.32322 32.158766,21.979434 L 37.068811,17.246167 C 37.068811,17.246167 37.088388,32 37.088388,32 L 22.160133,31.978069 C 22.160133,31.978069 26.997745,27.140456 26.997745,27.140456 C 18.528582,18.264221 13.291696,25.230495 11.500037,31.436501 z"
             style="fill:#404040;"/>
          </a>
         </g>
        </svg>
</svg>
