<?xml version="1.0" encoding="UTF-8" standalone="no"?>
<!DOCTYPE svg PUBLIC "-//W3C//DTD SVG 1.1//EN"
 "http://www.w3.org/Graphics/SVG/1.1/DTD/svg11.dtd">
<!-- Generated by graphviz version 2.43.0 (0)
 -->
<!-- Title: com.cliffc.aa.HM.HM5.T2._p Pages: 1 -->
<svg width="345pt" height="46pt"
 viewBox="0.00 0.00 345.00 46.00" xmlns="http://www.w3.org/2000/svg" xmlns:xlink="http://www.w3.org/1999/xlink">
<g id="graph0" class="graph" transform="scale(1 1) rotate(0) translate(4 42)">
<title>com.cliffc.aa.HM.HM5.T2._p</title>
<!-- Node1 -->
<g id="node1" class="node">
<title>Node1</title>
<g id="a_node1"><a xlink:title=" ">
<polygon fill="#bfbfbf" stroke="black" points="184,-0.5 184,-19.5 337,-19.5 337,-0.5 184,-0.5"/>
<text text-anchor="middle" x="260.5" y="-7.5" font-family="Helvetica,sans-Serif" font-size="10.00">com.cliffc.aa.HM.HM5.T2._p</text>
</a>
</g>
</g>
<!-- Node1&#45;&gt;Node1 -->
<g id="edge1" class="edge">
<title>Node1&#45;&gt;Node1</title>
<path fill="none" stroke="midnightblue" d="M295.36,-27.89C294.85,-33.54 283.23,-38 260.5,-38 227.44,-38 217.89,-28.57 231.83,-19.76"/>
<polygon fill="midnightblue" stroke="midnightblue" points="298.01,-25.6 289.17,-19.76 292.44,-29.83 298.01,-25.6"/>
</g>
<!-- Node2 -->
<g id="node2" class="node">
<title>Node2</title>
<g id="a_node2"><a xlink:href="../../d6/dc0/a00734.html#a1f9ef0bee2cb477cfa583e8d5e3723b8" target="_top" xlink:title=" ">
<polygon fill="none" stroke="black" points="0,-0.5 0,-19.5 148,-19.5 148,-0.5 0,-0.5"/>
<text text-anchor="middle" x="74" y="-7.5" font-family="Helvetica,sans-Serif" font-size="10.00">com.cliffc.aa.HM.HM5.T2.p</text>
</a>
</g>
</g>
<!-- Node1&#45;&gt;Node2 -->
<g id="edge2" class="edge">
<title>Node1&#45;&gt;Node2</title>
<path fill="none" stroke="midnightblue" d="M173.86,-10C165.24,-10 156.55,-10 148.08,-10"/>
<polygon fill="midnightblue" stroke="midnightblue" points="173.92,-13.5 183.92,-10 173.92,-6.5 173.92,-13.5"/>
</g>
</g>
</svg>
