<?xml version="1.0" encoding="UTF-8" standalone="no"?>
<!DOCTYPE svg PUBLIC "-//W3C//DTD SVG 1.1//EN"
 "http://www.w3.org/Graphics/SVG/1.1/DTD/svg11.dtd">
<!-- Generated by graphviz version 2.43.0 (0)
 -->
<!-- Title: com.cliffc.aa.HM.HM5.T2.is_base Pages: 1 -->
<!--zoomable 952 -->
<svg id="main" version="1.1" xmlns="http://www.w3.org/2000/svg" xmlns:xlink="http://www.w3.org/1999/xlink" xml:space="preserve" onload="init(evt)">
<style type="text/css"><![CDATA[
.edge:hover path { stroke: red; }
.edge:hover polygon { stroke: red; fill: red; }
]]></style>
<script type="text/javascript"><![CDATA[
var edges = document.getElementsByTagName('g');
if (edges && edges.length) {
  for (var i=0;i<edges.length;i++) {
    if (edges[i].id.substr(0,4)=='edge') {
      edges[i].setAttribute('class','edge');
    }
  }
}
]]></script>
        <defs>
                <circle id="rim" cx="0" cy="0" r="7"/>
                <circle id="rim2" cx="0" cy="0" r="3.5"/>
                <g id="zoomPlus">
                        <use xlink:href="#rim" fill="#404040">
                                <set attributeName="fill" to="#808080" begin="zoomplus.mouseover" end="zoomplus.mouseout"/>
                        </use>
                        <path d="M-4,0h8M0,-4v8" fill="none" stroke="white" stroke-width="1.5" pointer-events="none"/>
                </g>
                <g id="zoomMin">
                        <use xlink:href="#rim" fill="#404040">
                                <set attributeName="fill" to="#808080" begin="zoomminus.mouseover" end="zoomminus.mouseout"/>
                        </use>
                        <path d="M-4,0h8" fill="none" stroke="white" stroke-width="1.5" pointer-events="none"/>
                </g>
                <g id="dirArrow">
                        <path fill="none" stroke="white" stroke-width="1.5" d="M0,-3.0v7 M-2.5,-0.5L0,-3.0L2.5,-0.5"/>
                </g>
               <g id="resetDef">
                       <use xlink:href="#rim2" fill="#404040">
                               <set attributeName="fill" to="#808080" begin="reset.mouseover" end="reset.mouseout"/>
                       </use>
               </g>
        </defs>

<script type="text/javascript">
var viewWidth = 1236;
var viewHeight = 952;
var sectionId = 'dynsection-41';
</script>
<script xlink:href="../../svgpan.js"/>
<svg id="graph" class="graph">
<g id="viewport">
<title>com.cliffc.aa.HM.HM5.T2.is_base</title>
<!-- Node1 -->
<g id="node1" class="node">
<title>Node1</title>
<g id="a_node1"><a xlink:title=" ">
<polygon fill="#bfbfbf" stroke="black" points="1049,-449.5 1049,-468.5 1228,-468.5 1228,-449.5 1049,-449.5"/>
<text text-anchor="middle" x="1138.5" y="-456.5" font-family="Helvetica,sans-Serif" font-size="10.00">com.cliffc.aa.HM.HM5.T2.is_base</text>
</a>
</g>
</g>
<!-- Node2 -->
<g id="node2" class="node">
<title>Node2</title>
<g id="a_node2"><a xlink:href="../../d6/dc0/a00734.html#a525148077532928256b0f6a80ab0bd77" target="_top" xlink:title=" ">
<polygon fill="none" stroke="black" points="864.5,-544 864.5,-574 1006.5,-574 1006.5,-544 864.5,-544"/>
<text text-anchor="start" x="872.5" y="-562" font-family="Helvetica,sans-Serif" font-size="10.00">com.cliffc.aa.HM.HM5.T2.</text>
<text text-anchor="middle" x="935.5" y="-551" font-family="Helvetica,sans-Serif" font-size="10.00">_cycle_equals</text>
</a>
</g>
</g>
<!-- Node1&#45;&gt;Node2 -->
<g id="edge1" class="edge">
<title>Node1&#45;&gt;Node2</title>
<path fill="none" stroke="midnightblue" d="M1113.46,-473.84C1088.76,-488.76 1048.96,-511.94 1013,-529 1001.79,-534.32 989.36,-539.49 977.84,-543.99"/>
<polygon fill="midnightblue" stroke="midnightblue" points="1115.42,-476.74 1122.14,-468.55 1111.78,-470.76 1115.42,-476.74"/>
</g>
<!-- Node4 -->
<g id="node4" class="node">
<title>Node4</title>
<g id="a_node4"><a xlink:href="../../d6/dc0/a00734.html#a48de1fc29e8ebe064ef1952f79ec96ab" target="_top" xlink:title=" ">
<polygon fill="none" stroke="black" points="443.5,-523 443.5,-553 585.5,-553 585.5,-523 443.5,-523"/>
<text text-anchor="start" x="451.5" y="-541" font-family="Helvetica,sans-Serif" font-size="10.00">com.cliffc.aa.HM.HM5.T2.</text>
<text text-anchor="middle" x="514.5" y="-530" font-family="Helvetica,sans-Serif" font-size="10.00">_fresh_unify</text>
</a>
</g>
</g>
<!-- Node1&#45;&gt;Node4 -->
<g id="edge7" class="edge">
<title>Node1&#45;&gt;Node4</title>
<path fill="none" stroke="midnightblue" d="M1101.54,-471.82C1076.93,-480.06 1043.38,-490.27 1013,-496 862.45,-524.41 682.64,-533.61 585.73,-536.59"/>
<polygon fill="midnightblue" stroke="midnightblue" points="1102.83,-475.08 1111.17,-468.54 1100.58,-468.45 1102.83,-475.08"/>
</g>
<!-- Node7 -->
<g id="node7" class="node">
<title>Node7</title>
<g id="a_node7"><a xlink:href="../../d6/dc0/a00734.html#a66f30d7c5d248d2a68aea338d20ca1a3" target="_top" xlink:title=" ">
<polygon fill="none" stroke="black" points="859,-449.5 859,-468.5 1012,-468.5 1012,-449.5 859,-449.5"/>
<text text-anchor="middle" x="935.5" y="-456.5" font-family="Helvetica,sans-Serif" font-size="10.00">com.cliffc.aa.HM.HM5.T2._p</text>
</a>
</g>
</g>
<!-- Node1&#45;&gt;Node7 -->
<g id="edge8" class="edge">
<title>Node1&#45;&gt;Node7</title>
<path fill="none" stroke="midnightblue" d="M1038.71,-459C1029.79,-459 1020.86,-459 1012.19,-459"/>
<polygon fill="midnightblue" stroke="midnightblue" points="1038.75,-462.5 1048.75,-459 1038.75,-455.5 1038.75,-462.5"/>
</g>
<!-- Node9 -->
<g id="node9" class="node">
<title>Node9</title>
<g id="a_node9"><a xlink:href="../../d6/dc0/a00734.html#a0a42951b73ab2ac41da0ecf7bda7e68b" target="_top" xlink:title=" ">
<polygon fill="none" stroke="black" points="864.5,-382 864.5,-412 1006.5,-412 1006.5,-382 864.5,-382"/>
<text text-anchor="start" x="872.5" y="-400" font-family="Helvetica,sans-Serif" font-size="10.00">com.cliffc.aa.HM.HM5.T2.</text>
<text text-anchor="middle" x="935.5" y="-389" font-family="Helvetica,sans-Serif" font-size="10.00">_unify</text>
</a>
</g>
</g>
<!-- Node1&#45;&gt;Node9 -->
<g id="edge11" class="edge">
<title>Node1&#45;&gt;Node9</title>
<path fill="none" stroke="midnightblue" d="M1096.57,-446.38C1064.43,-436.46 1019.56,-422.62 985.5,-412.12"/>
<polygon fill="midnightblue" stroke="midnightblue" points="1095.95,-449.85 1106.53,-449.45 1098.01,-443.16 1095.95,-449.85"/>
</g>
<!-- Node40 -->
<g id="node40" class="node">
<title>Node40</title>
<g id="a_node40"><a xlink:href="../../d6/dc0/a00734.html#a8f583bbae92fa7b1dae3fb2e6df47f14" target="_top" xlink:title=" ">
<polygon fill="none" stroke="black" points="858,-162.5 858,-181.5 1013,-181.5 1013,-162.5 858,-162.5"/>
<text text-anchor="middle" x="935.5" y="-169.5" font-family="Helvetica,sans-Serif" font-size="10.00">com.cliffc.aa.HM.HM5.T2.str</text>
</a>
</g>
</g>
<!-- Node1&#45;&gt;Node40 -->
<g id="edge44" class="edge">
<title>Node1&#45;&gt;Node40</title>
<path fill="none" stroke="midnightblue" d="M1124.97,-441.1C1086.69,-386.45 972.17,-222.94 943.21,-181.58"/>
<polygon fill="midnightblue" stroke="midnightblue" points="1122.21,-443.27 1130.81,-449.45 1127.94,-439.25 1122.21,-443.27"/>
</g>
<!-- Node3 -->
<g id="node3" class="node">
<title>Node3</title>
<g id="a_node3"><a xlink:href="../../d6/dc0/a00734.html#ac0d383baba0cfa607a1dcd5850cf63db" target="_top" xlink:title=" ">
<polygon fill="none" stroke="black" points="650.5,-544 650.5,-574 817.5,-574 817.5,-544 650.5,-544"/>
<text text-anchor="start" x="658.5" y="-562" font-family="Helvetica,sans-Serif" font-size="10.00">com.cliffc.aa.HM.HM5.T2.cycle</text>
<text text-anchor="middle" x="734" y="-551" font-family="Helvetica,sans-Serif" font-size="10.00">_equals</text>
</a>
</g>
</g>
<!-- Node2&#45;&gt;Node3 -->
<g id="edge2" class="edge">
<title>Node2&#45;&gt;Node3</title>
<path fill="none" stroke="midnightblue" d="M854.37,-559C842.24,-559 829.71,-559 817.54,-559"/>
<polygon fill="midnightblue" stroke="midnightblue" points="854.44,-562.5 864.44,-559 854.44,-555.5 854.44,-562.5"/>
</g>
<!-- Node3&#45;&gt;Node4 -->
<g id="edge3" class="edge">
<title>Node3&#45;&gt;Node4</title>
<path fill="none" stroke="midnightblue" d="M640.34,-550.05C621.99,-548.28 603.01,-546.45 585.56,-544.76"/>
<polygon fill="midnightblue" stroke="midnightblue" points="640.17,-553.55 650.46,-551.03 640.85,-546.59 640.17,-553.55"/>
</g>
<!-- Node4&#45;&gt;Node4 -->
<g id="edge4" class="edge">
<title>Node4&#45;&gt;Node4</title>
<path fill="none" stroke="midnightblue" d="M553.24,-563.46C548.43,-568.18 535.52,-571.5 514.5,-571.5 480.01,-571.5 467.35,-562.56 476.51,-553.16"/>
<polygon fill="midnightblue" stroke="midnightblue" points="556.7,-562.88 552.49,-553.16 549.72,-563.39 556.7,-562.88"/>
</g>
<!-- Node5 -->
<g id="node5" class="node">
<title>Node5</title>
<g id="a_node5"><a xlink:href="../../d6/dc0/a00734.html#a572c6ea68cc9415753c3adcf10682286" target="_top" xlink:title=" ">
<polygon fill="none" stroke="black" points="211,-913 211,-943 378,-943 378,-913 211,-913"/>
<text text-anchor="start" x="219" y="-931" font-family="Helvetica,sans-Serif" font-size="10.00">com.cliffc.aa.HM.HM5.T2.fresh</text>
<text text-anchor="middle" x="294.5" y="-920" font-family="Helvetica,sans-Serif" font-size="10.00">_unify</text>
</a>
</g>
</g>
<!-- Node4&#45;&gt;Node5 -->
<g id="edge5" class="edge">
<title>Node4&#45;&gt;Node5</title>
<path fill="none" stroke="midnightblue" d="M512.09,-563.41C507.04,-629.49 484.2,-808.18 383,-903 378.85,-906.89 374.14,-910.18 369.1,-912.96"/>
<polygon fill="midnightblue" stroke="midnightblue" points="515.61,-563.33 512.8,-553.11 508.62,-562.84 515.61,-563.33"/>
</g>
<!-- Node6 -->
<g id="node6" class="node">
<title>Node6</title>
<g id="a_node6"><a xlink:href="../../df/d96/a00714.html#af2c271d6c848a0c519abbd420e770296" target="_top" xlink:title=" ">
<polygon fill="none" stroke="black" points="0,-918.5 0,-937.5 170,-937.5 170,-918.5 0,-918.5"/>
<text text-anchor="middle" x="85" y="-925.5" font-family="Helvetica,sans-Serif" font-size="10.00">com.cliffc.aa.HM.HM5.Ident.hm</text>
</a>
</g>
</g>
<!-- Node5&#45;&gt;Node6 -->
<g id="edge6" class="edge">
<title>Node5&#45;&gt;Node6</title>
<path fill="none" stroke="midnightblue" d="M200.73,-928C190.5,-928 180.13,-928 170.02,-928"/>
<polygon fill="midnightblue" stroke="midnightblue" points="200.89,-931.5 210.89,-928 200.89,-924.5 200.89,-931.5"/>
</g>
<!-- Node7&#45;&gt;Node7 -->
<g id="edge9" class="edge">
<title>Node7&#45;&gt;Node7</title>
<path fill="none" stroke="midnightblue" d="M973,-476.5C972.99,-482.34 960.49,-487 935.5,-487 899.95,-487 889.68,-477.57 904.67,-468.76"/>
<polygon fill="midnightblue" stroke="midnightblue" points="975.5,-474.05 966.33,-468.76 970.2,-478.62 975.5,-474.05"/>
</g>
<!-- Node8 -->
<g id="node8" class="node">
<title>Node8</title>
<g id="a_node8"><a xlink:href="../../d6/dc0/a00734.html#a1f9ef0bee2cb477cfa583e8d5e3723b8" target="_top" xlink:title=" ">
<polygon fill="none" stroke="black" points="660,-456.5 660,-475.5 808,-475.5 808,-456.5 660,-456.5"/>
<text text-anchor="middle" x="734" y="-463.5" font-family="Helvetica,sans-Serif" font-size="10.00">com.cliffc.aa.HM.HM5.T2.p</text>
</a>
</g>
</g>
<!-- Node7&#45;&gt;Node8 -->
<g id="edge10" class="edge">
<title>Node7&#45;&gt;Node8</title>
<path fill="none" stroke="midnightblue" d="M848.55,-462.02C835.04,-462.49 821.2,-462.98 808.02,-463.44"/>
<polygon fill="midnightblue" stroke="midnightblue" points="848.92,-465.5 858.79,-461.66 848.68,-458.51 848.92,-465.5"/>
</g>
<!-- Node9&#45;&gt;Node4 -->
<g id="edge12" class="edge">
<title>Node9&#45;&gt;Node4</title>
<path fill="none" stroke="midnightblue" d="M854.37,-405.17C781.85,-413.59 681.2,-428.14 646,-447 625.5,-457.99 628.35,-470.7 610,-485 590.86,-499.91 567.01,-513.25 548.06,-522.82"/>
<polygon fill="midnightblue" stroke="midnightblue" points="854.86,-408.64 864.4,-404.03 854.07,-401.69 854.86,-408.64"/>
</g>
<!-- Node9&#45;&gt;Node9 -->
<g id="edge13" class="edge">
<title>Node9&#45;&gt;Node9</title>
<path fill="none" stroke="midnightblue" d="M971.04,-422.46C966.63,-427.18 954.78,-430.5 935.5,-430.5 903.86,-430.5 892.24,-421.56 900.65,-412.16"/>
<polygon fill="midnightblue" stroke="midnightblue" points="974.51,-421.91 970.35,-412.16 967.52,-422.37 974.51,-421.91"/>
</g>
<!-- Node10 -->
<g id="node10" class="node">
<title>Node10</title>
<g id="a_node10"><a xlink:href="../../d6/dc0/a00734.html#a3465146f4aea17d744ebda435c9bb486" target="_top" xlink:title=" ">
<polygon fill="none" stroke="black" points="651,-380.5 651,-399.5 817,-399.5 817,-380.5 651,-380.5"/>
<text text-anchor="middle" x="734" y="-387.5" font-family="Helvetica,sans-Serif" font-size="10.00">com.cliffc.aa.HM.HM5.T2.unify</text>
</a>
</g>
</g>
<!-- Node9&#45;&gt;Node10 -->
<g id="edge14" class="edge">
<title>Node9&#45;&gt;Node10</title>
<path fill="none" stroke="midnightblue" d="M854.29,-394.19C842.08,-393.76 829.45,-393.31 817.19,-392.88"/>
<polygon fill="midnightblue" stroke="midnightblue" points="854.33,-397.69 864.44,-394.54 854.57,-390.69 854.33,-397.69"/>
</g>
<!-- Node11 -->
<g id="node11" class="node">
<title>Node11</title>
<g id="a_node11"><a xlink:href="../../da/dd4/a00690.html#a6c8e953a04f3873f88342c7c4237e333" target="_top" xlink:title=" ">
<polygon fill="none" stroke="black" points="443,-456.5 443,-475.5 586,-475.5 586,-456.5 443,-456.5"/>
<text text-anchor="middle" x="514.5" y="-463.5" font-family="Helvetica,sans-Serif" font-size="10.00">com.cliffc.aa.HM.HM5.hm</text>
</a>
</g>
</g>
<!-- Node10&#45;&gt;Node11 -->
<g id="edge15" class="edge">
<title>Node10&#45;&gt;Node11</title>
<path fill="none" stroke="midnightblue" d="M672.96,-402.53C663.64,-405.6 654.34,-409.38 646,-414 627.01,-424.51 629.35,-437.17 610,-447 602.39,-450.87 594.06,-453.95 585.61,-456.4"/>
<polygon fill="midnightblue" stroke="midnightblue" points="674.1,-405.84 682.64,-399.57 672.05,-399.14 674.1,-405.84"/>
</g>
<!-- Node36 -->
<g id="node36" class="node">
<title>Node36</title>
<g id="a_node36"><a xlink:href="../../dc/d8f/a00718.html#ab3c2a0a922fdc3b38df0a2676aef41a9" target="_top" xlink:title=" ">
<polygon fill="none" stroke="black" points="422,-418.5 422,-437.5 607,-437.5 607,-418.5 422,-418.5"/>
<text text-anchor="middle" x="514.5" y="-425.5" font-family="Helvetica,sans-Serif" font-size="10.00">com.cliffc.aa.HM.HM5.Lambda.hm</text>
</a>
</g>
</g>
<!-- Node10&#45;&gt;Node36 -->
<g id="edge40" class="edge">
<title>Node10&#45;&gt;Node36</title>
<path fill="none" stroke="midnightblue" d="M668.46,-401.28C637.17,-406.74 599.99,-413.24 570.13,-418.46"/>
<polygon fill="midnightblue" stroke="midnightblue" points="669.15,-404.71 678.4,-399.54 667.94,-397.81 669.15,-404.71"/>
</g>
<!-- Node37 -->
<g id="node37" class="node">
<title>Node37</title>
<g id="a_node37"><a xlink:href="../../db/d7c/a00722.html#ad1d2510f971faa5081cd315b3b679c49" target="_top" xlink:title=" ">
<polygon fill="none" stroke="black" points="419,-380.5 419,-399.5 610,-399.5 610,-380.5 419,-380.5"/>
<text text-anchor="middle" x="514.5" y="-387.5" font-family="Helvetica,sans-Serif" font-size="10.00">com.cliffc.aa.HM.HM5.Lambda2.hm</text>
</a>
</g>
</g>
<!-- Node10&#45;&gt;Node37 -->
<g id="edge41" class="edge">
<title>Node10&#45;&gt;Node37</title>
<path fill="none" stroke="midnightblue" d="M640.76,-390C630.66,-390 620.37,-390 610.25,-390"/>
<polygon fill="midnightblue" stroke="midnightblue" points="640.77,-393.5 650.77,-390 640.77,-386.5 640.77,-393.5"/>
</g>
<!-- Node38 -->
<g id="node38" class="node">
<title>Node38</title>
<g id="a_node38"><a xlink:href="../../d6/d59/a00726.html#a3f88adbdef93654ecb199983852ce6ba" target="_top" xlink:title=" ">
<polygon fill="none" stroke="black" points="434,-342.5 434,-361.5 595,-361.5 595,-342.5 434,-342.5"/>
<text text-anchor="middle" x="514.5" y="-349.5" font-family="Helvetica,sans-Serif" font-size="10.00">com.cliffc.aa.HM.HM5.Let.hm</text>
</a>
</g>
</g>
<!-- Node10&#45;&gt;Node38 -->
<g id="edge42" class="edge">
<title>Node10&#45;&gt;Node38</title>
<path fill="none" stroke="midnightblue" d="M668.46,-378.72C637.17,-373.26 599.99,-366.76 570.13,-361.54"/>
<polygon fill="midnightblue" stroke="midnightblue" points="667.94,-382.19 678.4,-380.46 669.15,-375.29 667.94,-382.19"/>
</g>
<!-- Node39 -->
<g id="node39" class="node">
<title>Node39</title>
<g id="a_node39"><a xlink:href="../../d2/db1/a00730.html#a34fb289ece69026938f1f511b88c27f2" target="_top" xlink:title=" ">
<polygon fill="none" stroke="black" points="428.5,-304.5 428.5,-323.5 600.5,-323.5 600.5,-304.5 428.5,-304.5"/>
<text text-anchor="middle" x="514.5" y="-311.5" font-family="Helvetica,sans-Serif" font-size="10.00">com.cliffc.aa.HM.HM5.Apply.hm</text>
</a>
</g>
</g>
<!-- Node10&#45;&gt;Node39 -->
<g id="edge43" class="edge">
<title>Node10&#45;&gt;Node39</title>
<path fill="none" stroke="midnightblue" d="M706.62,-375.55C682.2,-362.73 644.56,-344.31 610,-333 598.55,-329.25 586.06,-326.11 574.03,-323.53"/>
<polygon fill="midnightblue" stroke="midnightblue" points="705.14,-378.73 715.61,-380.34 708.42,-372.55 705.14,-378.73"/>
</g>
<!-- Node12 -->
<g id="node12" class="node">
<title>Node12</title>
<g id="a_node12"><a xlink:href="../../de/df6/a01670.html#a375737d25ef4f3f83f8519fcc82ce256" target="_top" xlink:title=" ">
<polygon fill="none" stroke="black" points="206,-874.5 206,-893.5 383,-893.5 383,-874.5 206,-874.5"/>
<text text-anchor="middle" x="294.5" y="-881.5" font-family="Helvetica,sans-Serif" font-size="10.00">com.cliffc.aa.HM.TestHM5.test00</text>
</a>
</g>
</g>
<!-- Node11&#45;&gt;Node12 -->
<g id="edge16" class="edge">
<title>Node11&#45;&gt;Node12</title>
<path fill="none" stroke="midnightblue" d="M466.13,-479.32C448.53,-486.69 430.16,-497.74 419,-514 374.63,-578.65 435.26,-806.55 383,-865 379.68,-868.71 375.83,-871.79 371.62,-874.33"/>
<polygon fill="midnightblue" stroke="midnightblue" points="467.7,-482.47 475.77,-475.6 465.18,-475.94 467.7,-482.47"/>
</g>
<!-- Node13 -->
<g id="node13" class="node">
<title>Node13</title>
<g id="a_node13"><a xlink:href="../../de/df6/a01670.html#a5aa857c81bc7c3fd6b80a198788041db" target="_top" xlink:title=" ">
<polygon fill="none" stroke="black" points="206,-836.5 206,-855.5 383,-855.5 383,-836.5 206,-836.5"/>
<text text-anchor="middle" x="294.5" y="-843.5" font-family="Helvetica,sans-Serif" font-size="10.00">com.cliffc.aa.HM.TestHM5.test01</text>
</a>
</g>
</g>
<!-- Node11&#45;&gt;Node13 -->
<g id="edge17" class="edge">
<title>Node11&#45;&gt;Node13</title>
<path fill="none" stroke="midnightblue" d="M466.23,-479.39C448.65,-486.77 430.26,-497.81 419,-514 339.05,-628.96 476.98,-723.19 383,-827 379.66,-830.69 375.79,-833.75 371.57,-836.29"/>
<polygon fill="midnightblue" stroke="midnightblue" points="467.8,-482.54 475.86,-475.67 465.27,-476.01 467.8,-482.54"/>
</g>
<!-- Node14 -->
<g id="node14" class="node">
<title>Node14</title>
<g id="a_node14"><a xlink:href="../../de/df6/a01670.html#a7af40f6251d65922e762ea6cdbd38d96" target="_top" xlink:title=" ">
<polygon fill="none" stroke="black" points="206,-798.5 206,-817.5 383,-817.5 383,-798.5 206,-798.5"/>
<text text-anchor="middle" x="294.5" y="-805.5" font-family="Helvetica,sans-Serif" font-size="10.00">com.cliffc.aa.HM.TestHM5.test02</text>
</a>
</g>
</g>
<!-- Node11&#45;&gt;Node14 -->
<g id="edge18" class="edge">
<title>Node11&#45;&gt;Node14</title>
<path fill="none" stroke="midnightblue" d="M466.77,-479.31C449.09,-486.7 430.47,-497.77 419,-514 347.83,-614.64 466.44,-698.27 383,-789 379.53,-792.78 375.5,-795.89 371.11,-798.46"/>
<polygon fill="midnightblue" stroke="midnightblue" points="468.38,-482.44 476.45,-475.58 465.86,-475.91 468.38,-482.44"/>
</g>
<!-- Node15 -->
<g id="node15" class="node">
<title>Node15</title>
<g id="a_node15"><a xlink:href="../../de/df6/a01670.html#a2b4087141f5b257d43f1e0b4935b83db" target="_top" xlink:title=" ">
<polygon fill="none" stroke="black" points="206,-760.5 206,-779.5 383,-779.5 383,-760.5 206,-760.5"/>
<text text-anchor="middle" x="294.5" y="-767.5" font-family="Helvetica,sans-Serif" font-size="10.00">com.cliffc.aa.HM.TestHM5.test03</text>
</a>
</g>
</g>
<!-- Node11&#45;&gt;Node15 -->
<g id="edge19" class="edge">
<title>Node11&#45;&gt;Node15</title>
<path fill="none" stroke="midnightblue" d="M467.35,-479.26C449.57,-486.66 430.73,-497.77 419,-514 356.6,-600.35 455.92,-673.33 383,-751 379.49,-754.74 375.43,-757.83 371.02,-760.38"/>
<polygon fill="midnightblue" stroke="midnightblue" points="468.99,-482.37 477.07,-475.51 466.48,-475.84 468.99,-482.37"/>
</g>
<!-- Node16 -->
<g id="node16" class="node">
<title>Node16</title>
<g id="a_node16"><a xlink:href="../../de/df6/a01670.html#a59b2d09f6d56bd1db27943980d923dce" target="_top" xlink:title=" ">
<polygon fill="none" stroke="black" points="206,-722.5 206,-741.5 383,-741.5 383,-722.5 206,-722.5"/>
<text text-anchor="middle" x="294.5" y="-729.5" font-family="Helvetica,sans-Serif" font-size="10.00">com.cliffc.aa.HM.TestHM5.test04</text>
</a>
</g>
</g>
<!-- Node11&#45;&gt;Node16 -->
<g id="edge20" class="edge">
<title>Node11&#45;&gt;Node16</title>
<path fill="none" stroke="midnightblue" d="M467.58,-479.42C449.83,-486.85 430.96,-497.93 419,-514 365.33,-586.1 445.44,-648.35 383,-713 379.33,-716.8 375.09,-719.93 370.5,-722.49"/>
<polygon fill="midnightblue" stroke="midnightblue" points="469.21,-482.54 477.27,-475.66 466.68,-476.02 469.21,-482.54"/>
</g>
<!-- Node17 -->
<g id="node17" class="node">
<title>Node17</title>
<g id="a_node17"><a xlink:href="../../de/df6/a01670.html#ac2d4c25bbffd2848c8e3e6d93d4d5c51" target="_top" xlink:title=" ">
<polygon fill="none" stroke="black" points="206,-684.5 206,-703.5 383,-703.5 383,-684.5 206,-684.5"/>
<text text-anchor="middle" x="294.5" y="-691.5" font-family="Helvetica,sans-Serif" font-size="10.00">com.cliffc.aa.HM.TestHM5.test05</text>
</a>
</g>
</g>
<!-- Node11&#45;&gt;Node17 -->
<g id="edge21" class="edge">
<title>Node11&#45;&gt;Node17</title>
<path fill="none" stroke="midnightblue" d="M468.72,-479.32C450.8,-486.8 431.48,-497.94 419,-514 374.02,-571.91 435.01,-623.31 383,-675 379.25,-678.73 374.95,-681.8 370.32,-684.32"/>
<polygon fill="midnightblue" stroke="midnightblue" points="470.43,-482.42 478.49,-475.54 467.9,-475.89 470.43,-482.42"/>
</g>
<!-- Node18 -->
<g id="node18" class="node">
<title>Node18</title>
<g id="a_node18"><a xlink:href="../../de/df6/a01670.html#a20c6a5afa229adf46f8c404b6b4379d2" target="_top" xlink:title=" ">
<polygon fill="none" stroke="black" points="206,-646.5 206,-665.5 383,-665.5 383,-646.5 206,-646.5"/>
<text text-anchor="middle" x="294.5" y="-653.5" font-family="Helvetica,sans-Serif" font-size="10.00">com.cliffc.aa.HM.TestHM5.test06</text>
</a>
</g>
</g>
<!-- Node11&#45;&gt;Node18 -->
<g id="edge22" class="edge">
<title>Node11&#45;&gt;Node18</title>
<path fill="none" stroke="midnightblue" d="M470.29,-479.27C452.16,-486.82 432.25,-498.04 419,-514 382.62,-557.83 424.68,-598.18 383,-637 378.91,-640.81 374.23,-643.93 369.22,-646.47"/>
<polygon fill="midnightblue" stroke="midnightblue" points="471.79,-482.44 479.84,-475.55 469.25,-475.92 471.79,-482.44"/>
</g>
<!-- Node19 -->
<g id="node19" class="node">
<title>Node19</title>
<g id="a_node19"><a xlink:href="../../de/df6/a01670.html#a83a7074792006ef24f939bc7c369bfe7" target="_top" xlink:title=" ">
<polygon fill="none" stroke="black" points="206,-608.5 206,-627.5 383,-627.5 383,-608.5 206,-608.5"/>
<text text-anchor="middle" x="294.5" y="-615.5" font-family="Helvetica,sans-Serif" font-size="10.00">com.cliffc.aa.HM.TestHM5.test07</text>
</a>
</g>
</g>
<!-- Node11&#45;&gt;Node19 -->
<g id="edge23" class="edge">
<title>Node11&#45;&gt;Node19</title>
<path fill="none" stroke="midnightblue" d="M473,-479.23C454.57,-486.94 433.64,-498.3 419,-514 391.01,-544 414.59,-572.82 383,-599 378.45,-602.77 373.33,-605.84 367.89,-608.33"/>
<polygon fill="midnightblue" stroke="midnightblue" points="474.36,-482.46 482.37,-475.52 471.79,-475.95 474.36,-482.46"/>
</g>
<!-- Node20 -->
<g id="node20" class="node">
<title>Node20</title>
<g id="a_node20"><a xlink:href="../../de/df6/a01670.html#ab4a89b0895ec601582e0925c9b0f6bce" target="_top" xlink:title=" ">
<polygon fill="none" stroke="black" points="206,-570.5 206,-589.5 383,-589.5 383,-570.5 206,-570.5"/>
<text text-anchor="middle" x="294.5" y="-577.5" font-family="Helvetica,sans-Serif" font-size="10.00">com.cliffc.aa.HM.TestHM5.test08</text>
</a>
</g>
</g>
<!-- Node11&#45;&gt;Node20 -->
<g id="edge24" class="edge">
<title>Node11&#45;&gt;Node20</title>
<path fill="none" stroke="midnightblue" d="M477.79,-479.59C459.07,-487.79 436.47,-499.47 419,-514 398.77,-530.82 405.22,-546.9 383,-561 376.96,-564.83 370.27,-567.9 363.35,-570.35"/>
<polygon fill="midnightblue" stroke="midnightblue" points="479.33,-482.74 487.18,-475.63 476.61,-476.3 479.33,-482.74"/>
</g>
<!-- Node21 -->
<g id="node21" class="node">
<title>Node21</title>
<g id="a_node21"><a xlink:href="../../de/df6/a01670.html#a3f61b99e809a394a0e660f56e0b2d74c" target="_top" xlink:title=" ">
<polygon fill="none" stroke="black" points="206,-532.5 206,-551.5 383,-551.5 383,-532.5 206,-532.5"/>
<text text-anchor="middle" x="294.5" y="-539.5" font-family="Helvetica,sans-Serif" font-size="10.00">com.cliffc.aa.HM.TestHM5.test09</text>
</a>
</g>
</g>
<!-- Node11&#45;&gt;Node21 -->
<g id="edge25" class="edge">
<title>Node11&#45;&gt;Node21</title>
<path fill="none" stroke="midnightblue" d="M485.7,-480.07C459.7,-492.76 419.5,-511.19 383,-523 371.76,-526.64 359.48,-529.79 347.77,-532.42"/>
<polygon fill="midnightblue" stroke="midnightblue" points="487.52,-483.07 494.94,-475.51 484.42,-476.8 487.52,-483.07"/>
</g>
<!-- Node22 -->
<g id="node22" class="node">
<title>Node22</title>
<g id="a_node22"><a xlink:href="../../de/df6/a01670.html#a83e5fe3644f140e560b246a23f1bbf7a" target="_top" xlink:title=" ">
<polygon fill="none" stroke="black" points="206,-494.5 206,-513.5 383,-513.5 383,-494.5 206,-494.5"/>
<text text-anchor="middle" x="294.5" y="-501.5" font-family="Helvetica,sans-Serif" font-size="10.00">com.cliffc.aa.HM.TestHM5.test10</text>
</a>
</g>
</g>
<!-- Node11&#45;&gt;Node22 -->
<g id="edge26" class="edge">
<title>Node11&#45;&gt;Node22</title>
<path fill="none" stroke="midnightblue" d="M448.81,-477.28C417.45,-482.74 380.19,-489.24 350.25,-494.46"/>
<polygon fill="midnightblue" stroke="midnightblue" points="449.52,-480.71 458.77,-475.54 448.32,-473.81 449.52,-480.71"/>
</g>
<!-- Node23 -->
<g id="node23" class="node">
<title>Node23</title>
<g id="a_node23"><a xlink:href="../../de/df6/a01670.html#abf677249a78fbb918ccdf47263e4c4bc" target="_top" xlink:title=" ">
<polygon fill="none" stroke="black" points="206,-456.5 206,-475.5 383,-475.5 383,-456.5 206,-456.5"/>
<text text-anchor="middle" x="294.5" y="-463.5" font-family="Helvetica,sans-Serif" font-size="10.00">com.cliffc.aa.HM.TestHM5.test11</text>
</a>
</g>
</g>
<!-- Node11&#45;&gt;Node23 -->
<g id="edge27" class="edge">
<title>Node11&#45;&gt;Node23</title>
<path fill="none" stroke="midnightblue" d="M432.31,-466C416.26,-466 399.34,-466 383.08,-466"/>
<polygon fill="midnightblue" stroke="midnightblue" points="432.72,-469.5 442.72,-466 432.72,-462.5 432.72,-469.5"/>
</g>
<!-- Node24 -->
<g id="node24" class="node">
<title>Node24</title>
<g id="a_node24"><a xlink:href="../../de/df6/a01670.html#a3dd3e6c4eac70163e73bf92d2b921c91" target="_top" xlink:title=" ">
<polygon fill="none" stroke="black" points="206,-418.5 206,-437.5 383,-437.5 383,-418.5 206,-418.5"/>
<text text-anchor="middle" x="294.5" y="-425.5" font-family="Helvetica,sans-Serif" font-size="10.00">com.cliffc.aa.HM.TestHM5.test12</text>
</a>
</g>
</g>
<!-- Node11&#45;&gt;Node24 -->
<g id="edge28" class="edge">
<title>Node11&#45;&gt;Node24</title>
<path fill="none" stroke="midnightblue" d="M448.81,-454.72C417.45,-449.26 380.19,-442.76 350.25,-437.54"/>
<polygon fill="midnightblue" stroke="midnightblue" points="448.32,-458.19 458.77,-456.46 449.52,-451.29 448.32,-458.19"/>
</g>
<!-- Node25 -->
<g id="node25" class="node">
<title>Node25</title>
<g id="a_node25"><a xlink:href="../../de/df6/a01670.html#ad39222a06243d7b3cd9e3e49b77a26e0" target="_top" xlink:title=" ">
<polygon fill="none" stroke="black" points="206,-380.5 206,-399.5 383,-399.5 383,-380.5 206,-380.5"/>
<text text-anchor="middle" x="294.5" y="-387.5" font-family="Helvetica,sans-Serif" font-size="10.00">com.cliffc.aa.HM.TestHM5.test13</text>
</a>
</g>
</g>
<!-- Node11&#45;&gt;Node25 -->
<g id="edge29" class="edge">
<title>Node11&#45;&gt;Node25</title>
<path fill="none" stroke="midnightblue" d="M433.08,-453.49C428.2,-451.62 423.46,-449.47 419,-447 398.64,-435.74 403.27,-420.42 383,-409 376.09,-405.11 368.47,-402.01 360.68,-399.55"/>
<polygon fill="midnightblue" stroke="midnightblue" points="432.03,-456.83 442.63,-456.76 434.3,-450.21 432.03,-456.83"/>
</g>
<!-- Node26 -->
<g id="node26" class="node">
<title>Node26</title>
<g id="a_node26"><a xlink:href="../../de/df6/a01670.html#a229cdc95fedbc52203e28176716f5ac6" target="_top" xlink:title=" ">
<polygon fill="none" stroke="black" points="206,-342.5 206,-361.5 383,-361.5 383,-342.5 206,-342.5"/>
<text text-anchor="middle" x="294.5" y="-349.5" font-family="Helvetica,sans-Serif" font-size="10.00">com.cliffc.aa.HM.TestHM5.test14</text>
</a>
</g>
</g>
<!-- Node11&#45;&gt;Node26 -->
<g id="edge30" class="edge">
<title>Node11&#45;&gt;Node26</title>
<path fill="none" stroke="midnightblue" d="M433.27,-455.63C428.19,-453.26 423.37,-450.41 419,-447 389.55,-423.98 412.27,-394.24 383,-371 378.25,-367.23 372.92,-364.17 367.29,-361.68"/>
<polygon fill="midnightblue" stroke="midnightblue" points="432.07,-458.93 442.66,-459.41 434.68,-452.43 432.07,-458.93"/>
</g>
<!-- Node27 -->
<g id="node27" class="node">
<title>Node27</title>
<g id="a_node27"><a xlink:href="../../de/df6/a01670.html#aebe6d9c0dc9c8335592e8960200bf361" target="_top" xlink:title=" ">
<polygon fill="none" stroke="black" points="206,-304.5 206,-323.5 383,-323.5 383,-304.5 206,-304.5"/>
<text text-anchor="middle" x="294.5" y="-311.5" font-family="Helvetica,sans-Serif" font-size="10.00">com.cliffc.aa.HM.TestHM5.test15</text>
</a>
</g>
</g>
<!-- Node11&#45;&gt;Node27 -->
<g id="edge31" class="edge">
<title>Node11&#45;&gt;Node27</title>
<path fill="none" stroke="midnightblue" d="M433.28,-456.58C428.11,-454 423.28,-450.84 419,-447 379.47,-411.5 422.26,-368.8 383,-333 378.87,-329.23 374.16,-326.14 369.13,-323.62"/>
<polygon fill="midnightblue" stroke="midnightblue" points="432.3,-459.96 442.88,-460.63 435.02,-453.51 432.3,-459.96"/>
</g>
<!-- Node28 -->
<g id="node28" class="node">
<title>Node28</title>
<g id="a_node28"><a xlink:href="../../de/df6/a01670.html#af55953e1ea8a29f36630619536a0dc8f" target="_top" xlink:title=" ">
<polygon fill="none" stroke="black" points="206,-266.5 206,-285.5 383,-285.5 383,-266.5 206,-266.5"/>
<text text-anchor="middle" x="294.5" y="-273.5" font-family="Helvetica,sans-Serif" font-size="10.00">com.cliffc.aa.HM.TestHM5.test16</text>
</a>
</g>
</g>
<!-- Node11&#45;&gt;Node28 -->
<g id="edge32" class="edge">
<title>Node11&#45;&gt;Node28</title>
<path fill="none" stroke="midnightblue" d="M433.62,-457.27C428.28,-454.55 423.32,-451.17 419,-447 369.08,-398.75 432.55,-343.63 383,-295 379.12,-291.19 374.66,-288.06 369.86,-285.51"/>
<polygon fill="midnightblue" stroke="midnightblue" points="432.36,-460.53 442.93,-461.25 435.11,-454.1 432.36,-460.53"/>
</g>
<!-- Node29 -->
<g id="node29" class="node">
<title>Node29</title>
<g id="a_node29"><a xlink:href="../../de/df6/a01670.html#a067854732c02e6e5a298453e0d636424" target="_top" xlink:title=" ">
<polygon fill="none" stroke="black" points="206,-228.5 206,-247.5 383,-247.5 383,-228.5 206,-228.5"/>
<text text-anchor="middle" x="294.5" y="-235.5" font-family="Helvetica,sans-Serif" font-size="10.00">com.cliffc.aa.HM.TestHM5.test17</text>
</a>
</g>
</g>
<!-- Node11&#45;&gt;Node29 -->
<g id="edge33" class="edge">
<title>Node11&#45;&gt;Node29</title>
<path fill="none" stroke="midnightblue" d="M433.41,-457.48C428.12,-454.71 423.22,-451.27 419,-447 358.57,-385.89 442.96,-318.58 383,-257 379.31,-253.21 375.06,-250.1 370.46,-247.54"/>
<polygon fill="midnightblue" stroke="midnightblue" points="432.09,-460.73 442.65,-461.53 434.9,-454.31 432.09,-460.73"/>
</g>
<!-- Node30 -->
<g id="node30" class="node">
<title>Node30</title>
<g id="a_node30"><a xlink:href="../../de/df6/a01670.html#a94119d0dc67ee5e1043231dcbabfb5d1" target="_top" xlink:title=" ">
<polygon fill="none" stroke="black" points="206,-190.5 206,-209.5 383,-209.5 383,-190.5 206,-190.5"/>
<text text-anchor="middle" x="294.5" y="-197.5" font-family="Helvetica,sans-Serif" font-size="10.00">com.cliffc.aa.HM.TestHM5.test18</text>
</a>
</g>
</g>
<!-- Node11&#45;&gt;Node30 -->
<g id="edge34" class="edge">
<title>Node11&#45;&gt;Node30</title>
<path fill="none" stroke="midnightblue" d="M433.55,-457.78C428.18,-454.95 423.23,-451.41 419,-447 347.99,-372.96 453.44,-293.59 383,-219 379.48,-215.27 375.41,-212.19 371,-209.64"/>
<polygon fill="midnightblue" stroke="midnightblue" points="432.37,-461.08 442.94,-461.89 435.18,-454.67 432.37,-461.08"/>
</g>
<!-- Node31 -->
<g id="node31" class="node">
<title>Node31</title>
<g id="a_node31"><a xlink:href="../../de/df6/a01670.html#ad6cc55495f81cd5e8ec57f6ac2487673" target="_top" xlink:title=" ">
<polygon fill="none" stroke="black" points="206,-152.5 206,-171.5 383,-171.5 383,-152.5 206,-152.5"/>
<text text-anchor="middle" x="294.5" y="-159.5" font-family="Helvetica,sans-Serif" font-size="10.00">com.cliffc.aa.HM.TestHM5.test19</text>
</a>
</g>
</g>
<!-- Node11&#45;&gt;Node31 -->
<g id="edge35" class="edge">
<title>Node11&#45;&gt;Node31</title>
<path fill="none" stroke="midnightblue" d="M433.44,-457.88C428.09,-455.03 423.18,-451.46 419,-447 337.38,-359.99 463.95,-268.64 383,-181 379.52,-177.23 375.48,-174.12 371.09,-171.56"/>
<polygon fill="midnightblue" stroke="midnightblue" points="432.24,-461.17 442.8,-462.02 435.07,-454.77 432.24,-461.17"/>
</g>
<!-- Node32 -->
<g id="node32" class="node">
<title>Node32</title>
<g id="a_node32"><a xlink:href="../../de/df6/a01670.html#a88edfecb93881e2c63a6a9ccf886dfce" target="_top" xlink:title=" ">
<polygon fill="none" stroke="black" points="206,-114.5 206,-133.5 383,-133.5 383,-114.5 206,-114.5"/>
<text text-anchor="middle" x="294.5" y="-121.5" font-family="Helvetica,sans-Serif" font-size="10.00">com.cliffc.aa.HM.TestHM5.test20</text>
</a>
</g>
</g>
<!-- Node11&#45;&gt;Node32 -->
<g id="edge36" class="edge">
<title>Node11&#45;&gt;Node32</title>
<path fill="none" stroke="midnightblue" d="M433.36,-457.95C428.03,-455.09 423.14,-451.49 419,-447 326.75,-347 474.48,-243.71 383,-143 379.66,-139.32 375.78,-136.26 371.56,-133.73"/>
<polygon fill="midnightblue" stroke="midnightblue" points="432.13,-461.24 442.69,-462.12 434.98,-454.85 432.13,-461.24"/>
</g>
<!-- Node33 -->
<g id="node33" class="node">
<title>Node33</title>
<g id="a_node33"><a xlink:href="../../de/df6/a01670.html#abfe2b1c7b73074a7c56f83636da60a2c" target="_top" xlink:title=" ">
<polygon fill="none" stroke="black" points="206,-76.5 206,-95.5 383,-95.5 383,-76.5 206,-76.5"/>
<text text-anchor="middle" x="294.5" y="-83.5" font-family="Helvetica,sans-Serif" font-size="10.00">com.cliffc.aa.HM.TestHM5.test21</text>
</a>
</g>
</g>
<!-- Node11&#45;&gt;Node33 -->
<g id="edge37" class="edge">
<title>Node11&#45;&gt;Node33</title>
<path fill="none" stroke="midnightblue" d="M433.29,-458.01C427.98,-455.13 423.11,-451.52 419,-447 316.1,-333.99 485.03,-218.8 383,-105 379.68,-101.3 375.82,-98.22 371.61,-95.68"/>
<polygon fill="midnightblue" stroke="midnightblue" points="432.05,-461.29 442.61,-462.19 434.92,-454.91 432.05,-461.29"/>
</g>
<!-- Node34 -->
<g id="node34" class="node">
<title>Node34</title>
<g id="a_node34"><a xlink:href="../../de/df6/a01670.html#a92433e10e7670f8262ffbe08b2e9874d" target="_top" xlink:title=" ">
<polygon fill="none" stroke="black" points="206,-38.5 206,-57.5 383,-57.5 383,-38.5 206,-38.5"/>
<text text-anchor="middle" x="294.5" y="-45.5" font-family="Helvetica,sans-Serif" font-size="10.00">com.cliffc.aa.HM.TestHM5.test22</text>
</a>
</g>
</g>
<!-- Node11&#45;&gt;Node34 -->
<g id="edge38" class="edge">
<title>Node11&#45;&gt;Node34</title>
<path fill="none" stroke="midnightblue" d="M433.24,-458.06C427.94,-455.17 423.09,-451.54 419,-447 362.22,-383.99 439.29,-130.45 383,-67 379.7,-63.28 375.86,-60.19 371.66,-57.64"/>
<polygon fill="midnightblue" stroke="midnightblue" points="431.99,-461.34 442.54,-462.25 434.86,-454.95 431.99,-461.34"/>
</g>
<!-- Node35 -->
<g id="node35" class="node">
<title>Node35</title>
<g id="a_node35"><a xlink:href="../../de/df6/a01670.html#af67239eadf46fd18a9bc3342c71788bd" target="_top" xlink:title=" ">
<polygon fill="none" stroke="black" points="206,-0.5 206,-19.5 383,-19.5 383,-0.5 206,-0.5"/>
<text text-anchor="middle" x="294.5" y="-7.5" font-family="Helvetica,sans-Serif" font-size="10.00">com.cliffc.aa.HM.TestHM5.test23</text>
</a>
</g>
</g>
<!-- Node11&#45;&gt;Node35 -->
<g id="edge39" class="edge">
<title>Node11&#45;&gt;Node35</title>
<path fill="none" stroke="midnightblue" d="M433.48,-458.25C428.07,-455.33 423.14,-451.64 419,-447 356.89,-377.47 444.58,-99 383,-29 379.71,-25.26 375.88,-22.17 371.69,-19.6"/>
<polygon fill="midnightblue" stroke="midnightblue" points="432.4,-461.6 442.96,-462.47 435.25,-455.21 432.4,-461.6"/>
</g>
<!-- Node40&#45;&gt;Node40 -->
<g id="edge54" class="edge">
<title>Node40&#45;&gt;Node40</title>
<path fill="none" stroke="midnightblue" d="M973,-189.5C972.99,-195.34 960.49,-200 935.5,-200 899.95,-200 889.68,-190.57 904.67,-181.76"/>
<polygon fill="midnightblue" stroke="midnightblue" points="975.5,-187.05 966.33,-181.76 970.2,-191.62 975.5,-187.05"/>
</g>
<!-- Node41 -->
<g id="node41" class="node">
<title>Node41</title>
<g id="a_node41"><a xlink:href="../../d8/dcb/a00706.html#a9a9f2db3236ca7db004ca8ea9e423468" target="_top" xlink:title=" ">
<polygon fill="none" stroke="black" points="646,-190.5 646,-209.5 822,-209.5 822,-190.5 646,-190.5"/>
<text text-anchor="middle" x="734" y="-197.5" font-family="Helvetica,sans-Serif" font-size="10.00">com.cliffc.aa.HM.HM5.Syntax.p0</text>
</a>
</g>
</g>
<!-- Node40&#45;&gt;Node41 -->
<g id="edge45" class="edge">
<title>Node40&#45;&gt;Node41</title>
<path fill="none" stroke="midnightblue" d="M856.42,-182.96C838.77,-185.44 820.17,-188.05 802.97,-190.46"/>
<polygon fill="midnightblue" stroke="midnightblue" points="857.26,-186.37 866.68,-181.52 856.29,-179.44 857.26,-186.37"/>
</g>
<!-- Node47 -->
<g id="node47" class="node">
<title>Node47</title>
<g id="a_node47"><a xlink:href="../../df/dbb/a00698.html#ad7d671b8dec67baaff84c7c5575670eb" target="_top" xlink:title=" ">
<polygon fill="none" stroke="black" points="646,-134.5 646,-153.5 822,-153.5 822,-134.5 646,-134.5"/>
<text text-anchor="middle" x="734" y="-141.5" font-family="Helvetica,sans-Serif" font-size="10.00">com.cliffc.aa.HM.HM5.VStack.str</text>
</a>
</g>
</g>
<!-- Node40&#45;&gt;Node47 -->
<g id="edge51" class="edge">
<title>Node40&#45;&gt;Node47</title>
<path fill="none" stroke="midnightblue" d="M856.42,-161.04C838.77,-158.56 820.17,-155.95 802.97,-153.54"/>
<polygon fill="midnightblue" stroke="midnightblue" points="856.29,-164.56 866.68,-162.48 857.26,-157.63 856.29,-164.56"/>
</g>
<!-- Node49 -->
<g id="node49" class="node">
<title>Node49</title>
<g id="a_node49"><a xlink:href="../../d6/dc0/a00734.html#a45d6f6524446be98de4bcda9d81a3514" target="_top" xlink:title=" ">
<polygon fill="none" stroke="black" points="658,-85 658,-115 810,-115 810,-85 658,-85"/>
<text text-anchor="start" x="666" y="-103" font-family="Helvetica,sans-Serif" font-size="10.00">com.cliffc.aa.HM.HM5.T2.to</text>
<text text-anchor="middle" x="734" y="-92" font-family="Helvetica,sans-Serif" font-size="10.00">String</text>
</a>
</g>
</g>
<!-- Node40&#45;&gt;Node49 -->
<g id="edge55" class="edge">
<title>Node40&#45;&gt;Node49</title>
<path fill="none" stroke="midnightblue" d="M904.31,-158.26C881.87,-148.33 850.36,-134.96 822,-125 812.07,-121.51 801.37,-118.14 791,-115.05"/>
<polygon fill="midnightblue" stroke="midnightblue" points="903.08,-161.55 913.63,-162.43 905.93,-155.15 903.08,-161.55"/>
</g>
<!-- Node42 -->
<g id="node42" class="node">
<title>Node42</title>
<g id="a_node42"><a xlink:href="../../d8/dcb/a00706.html#a40da2cb0c289d9233e2947d0579d8402" target="_top" xlink:title=" ">
<polygon fill="none" stroke="black" points="429.5,-266.5 429.5,-285.5 599.5,-285.5 599.5,-266.5 429.5,-266.5"/>
<text text-anchor="middle" x="514.5" y="-273.5" font-family="Helvetica,sans-Serif" font-size="10.00">com.cliffc.aa.HM.HM5.Syntax.p</text>
</a>
</g>
</g>
<!-- Node41&#45;&gt;Node42 -->
<g id="edge46" class="edge">
<title>Node41&#45;&gt;Node42</title>
<path fill="none" stroke="midnightblue" d="M706.62,-214.45C682.2,-227.27 644.56,-245.69 610,-257 598.55,-260.75 586.06,-263.89 574.03,-266.47"/>
<polygon fill="midnightblue" stroke="midnightblue" points="708.42,-217.45 715.61,-209.66 705.14,-211.27 708.42,-217.45"/>
</g>
<!-- Node43 -->
<g id="node43" class="node">
<title>Node43</title>
<g id="a_node43"><a xlink:href="../../dc/d8f/a00718.html#ae53bf9a14991a968588935d7e8729e9f" target="_top" xlink:title=" ">
<polygon fill="none" stroke="black" points="424,-228.5 424,-247.5 605,-247.5 605,-228.5 424,-228.5"/>
<text text-anchor="middle" x="514.5" y="-235.5" font-family="Helvetica,sans-Serif" font-size="10.00">com.cliffc.aa.HM.HM5.Lambda.p2</text>
</a>
</g>
</g>
<!-- Node41&#45;&gt;Node43 -->
<g id="edge47" class="edge">
<title>Node41&#45;&gt;Node43</title>
<path fill="none" stroke="midnightblue" d="M668.46,-211.28C637.17,-216.74 599.99,-223.24 570.13,-228.46"/>
<polygon fill="midnightblue" stroke="midnightblue" points="669.15,-214.71 678.4,-209.54 667.94,-207.81 669.15,-214.71"/>
</g>
<!-- Node44 -->
<g id="node44" class="node">
<title>Node44</title>
<g id="a_node44"><a xlink:href="../../db/d7c/a00722.html#a6f069f9bd671e151618dae9106f88c87" target="_top" xlink:title=" ">
<polygon fill="none" stroke="black" points="421,-190.5 421,-209.5 608,-209.5 608,-190.5 421,-190.5"/>
<text text-anchor="middle" x="514.5" y="-197.5" font-family="Helvetica,sans-Serif" font-size="10.00">com.cliffc.aa.HM.HM5.Lambda2.p2</text>
</a>
</g>
</g>
<!-- Node41&#45;&gt;Node44 -->
<g id="edge48" class="edge">
<title>Node41&#45;&gt;Node44</title>
<path fill="none" stroke="midnightblue" d="M635.53,-200C626.4,-200 617.16,-200 608.07,-200"/>
<polygon fill="midnightblue" stroke="midnightblue" points="635.79,-203.5 645.79,-200 635.79,-196.5 635.79,-203.5"/>
</g>
<!-- Node45 -->
<g id="node45" class="node">
<title>Node45</title>
<g id="a_node45"><a xlink:href="../../d6/d59/a00726.html#ae75e6f5462f2ca9b92d08cd8dbf7ac61" target="_top" xlink:title=" ">
<polygon fill="none" stroke="black" points="436,-152.5 436,-171.5 593,-171.5 593,-152.5 436,-152.5"/>
<text text-anchor="middle" x="514.5" y="-159.5" font-family="Helvetica,sans-Serif" font-size="10.00">com.cliffc.aa.HM.HM5.Let.p2</text>
</a>
</g>
</g>
<!-- Node41&#45;&gt;Node45 -->
<g id="edge49" class="edge">
<title>Node41&#45;&gt;Node45</title>
<path fill="none" stroke="midnightblue" d="M668.46,-188.72C637.17,-183.26 599.99,-176.76 570.13,-171.54"/>
<polygon fill="midnightblue" stroke="midnightblue" points="667.94,-192.19 678.4,-190.46 669.15,-185.29 667.94,-192.19"/>
</g>
<!-- Node46 -->
<g id="node46" class="node">
<title>Node46</title>
<g id="a_node46"><a xlink:href="../../d2/db1/a00730.html#a027aada756b7d8142be1819b0087c2f3" target="_top" xlink:title=" ">
<polygon fill="none" stroke="black" points="430.5,-114.5 430.5,-133.5 598.5,-133.5 598.5,-114.5 430.5,-114.5"/>
<text text-anchor="middle" x="514.5" y="-121.5" font-family="Helvetica,sans-Serif" font-size="10.00">com.cliffc.aa.HM.HM5.Apply.p2</text>
</a>
</g>
</g>
<!-- Node41&#45;&gt;Node46 -->
<g id="edge50" class="edge">
<title>Node41&#45;&gt;Node46</title>
<path fill="none" stroke="midnightblue" d="M658.52,-186.96C654.18,-185.22 649.97,-183.24 646,-181 625.74,-169.57 630.36,-154.26 610,-143 602.97,-139.11 595.26,-136.01 587.36,-133.54"/>
<polygon fill="midnightblue" stroke="midnightblue" points="657.6,-190.35 668.19,-190.42 659.95,-183.75 657.6,-190.35"/>
</g>
<!-- Node47&#45;&gt;Node47 -->
<g id="edge52" class="edge">
<title>Node47&#45;&gt;Node47</title>
<path fill="none" stroke="midnightblue" d="M771.5,-161.5C771.49,-167.34 758.99,-172 734,-172 698.45,-172 688.18,-162.57 703.17,-153.76"/>
<polygon fill="midnightblue" stroke="midnightblue" points="774,-159.05 764.83,-153.76 768.7,-163.62 774,-159.05"/>
</g>
<!-- Node48 -->
<g id="node48" class="node">
<title>Node48</title>
<g id="a_node48"><a xlink:href="../../df/dbb/a00698.html#a5a6646516f6dc5e1c5ce578ce79489f7" target="_top" xlink:title=" ">
<polygon fill="none" stroke="black" points="428,-65 428,-95 601,-95 601,-65 428,-65"/>
<text text-anchor="start" x="436" y="-83" font-family="Helvetica,sans-Serif" font-size="10.00">com.cliffc.aa.HM.HM5.VStack.to</text>
<text text-anchor="middle" x="514.5" y="-72" font-family="Helvetica,sans-Serif" font-size="10.00">String</text>
</a>
</g>
</g>
<!-- Node47&#45;&gt;Node48 -->
<g id="edge53" class="edge">
<title>Node47&#45;&gt;Node48</title>
<path fill="none" stroke="midnightblue" d="M671.54,-131.98C662.86,-129.68 654.13,-127.02 646,-124 629.04,-117.7 626.85,-111.58 610,-105 600.51,-101.3 590.28,-97.96 580.18,-95.01"/>
<polygon fill="midnightblue" stroke="midnightblue" points="670.73,-135.39 681.28,-134.44 672.44,-128.6 670.73,-135.39"/>
</g>
</g>
</svg>
        <g id="navigator" transform="translate(0 0)" fill="#404254">
                <rect fill="#f2f5e9" fill-opacity="0.5" stroke="#606060" stroke-width=".5" x="0" y="0" width="60" height="60"/>
                <use id="zoomplus" xlink:href="#zoomPlus" x="17" y="9" onmousedown="handleZoom(evt,'in')"/>
                <use id="zoomminus" xlink:href="#zoomMin" x="42" y="9" onmousedown="handleZoom(evt,'out')"/>
                <use id="reset" xlink:href="#resetDef" x="30" y="36" onmousedown="handleReset()"/>
                <g id="arrowUp" xlink:href="#dirArrow" transform="translate(30 24)" onmousedown="handlePan(0,-1)">
                  <use xlink:href="#rim" fill="#404040">
                        <set attributeName="fill" to="#808080" begin="arrowUp.mouseover" end="arrowUp.mouseout"/>
                  </use>
                  <path fill="none" stroke="white" stroke-width="1.5" d="M0,-3.0v7 M-2.5,-0.5L0,-3.0L2.5,-0.5"/>
                </g>
                <g id="arrowRight" xlink:href="#dirArrow" transform="rotate(90) translate(36 -43)" onmousedown="handlePan(1,0)">
                  <use xlink:href="#rim" fill="#404040">
                        <set attributeName="fill" to="#808080" begin="arrowRight.mouseover" end="arrowRight.mouseout"/>
                  </use>
                  <path fill="none" stroke="white" stroke-width="1.5" d="M0,-3.0v7 M-2.5,-0.5L0,-3.0L2.5,-0.5"/>
                </g>
                <g id="arrowDown" xlink:href="#dirArrow" transform="rotate(180) translate(-30 -48)" onmousedown="handlePan(0,1)">
                  <use xlink:href="#rim" fill="#404040">
                        <set attributeName="fill" to="#808080" begin="arrowDown.mouseover" end="arrowDown.mouseout"/>
                  </use>
                  <path fill="none" stroke="white" stroke-width="1.5" d="M0,-3.0v7 M-2.5,-0.5L0,-3.0L2.5,-0.5"/>
                </g>
                <g id="arrowLeft" xlink:href="#dirArrow" transform="rotate(270) translate(-36 17)" onmousedown="handlePan(-1,0)">
                  <use xlink:href="#rim" fill="#404040">
                        <set attributeName="fill" to="#808080" begin="arrowLeft.mouseover" end="arrowLeft.mouseout"/>
                  </use>
                  <path fill="none" stroke="white" stroke-width="1.5" d="M0,-3.0v7 M-2.5,-0.5L0,-3.0L2.5,-0.5"/>
                </g>
        </g>
        <svg viewBox="0 0 15 15" width="100%" height="30px" preserveAspectRatio="xMaxYMin meet">
         <g id="arrow_out" transform="scale(0.3 0.3)">
          <a xlink:href="a00734_a75166214333353f1c5bccf18e3f26ac1_icgraph_org.svg" target="_base">
           <rect id="button" ry="5" rx="5" y="6" x="6" height="38" width="38"
                fill="#f2f5e9" fill-opacity="0.5" stroke="#606060" stroke-width="1.0"/>
           <path id="arrow"
             d="M 11.500037,31.436501 C 11.940474,20.09759 22.043105,11.32322 32.158766,21.979434 L 37.068811,17.246167 C 37.068811,17.246167 37.088388,32 37.088388,32 L 22.160133,31.978069 C 22.160133,31.978069 26.997745,27.140456 26.997745,27.140456 C 18.528582,18.264221 13.291696,25.230495 11.500037,31.436501 z"
             style="fill:#404040;"/>
          </a>
         </g>
        </svg>
</svg>
