<?xml version="1.0" encoding="UTF-8" standalone="no"?>
<!DOCTYPE svg PUBLIC "-//W3C//DTD SVG 1.1//EN"
 "http://www.w3.org/Graphics/SVG/1.1/DTD/svg11.dtd">
<!-- Generated by graphviz version 2.43.0 (0)
 -->
<!-- Title: com.cliffc.aa.util.Ary.addAll Pages: 1 -->
<svg width="822pt" height="209pt"
 viewBox="0.00 0.00 822.00 209.00" xmlns="http://www.w3.org/2000/svg" xmlns:xlink="http://www.w3.org/1999/xlink">
<g id="graph0" class="graph" transform="scale(1 1) rotate(0) translate(4 205)">
<title>com.cliffc.aa.util.Ary.addAll</title>
<!-- Node1 -->
<g id="node1" class="node">
<title>Node1</title>
<g id="a_node1"><a xlink:title=" ">
<polygon fill="#bfbfbf" stroke="black" points="665,-132 665,-151 814,-151 814,-132 665,-132"/>
<text text-anchor="middle" x="739.5" y="-139" font-family="Helvetica,sans-Serif" font-size="10.00">com.cliffc.aa.util.Ary.addAll</text>
</a>
</g>
</g>
<!-- Node2 -->
<g id="node2" class="node">
<title>Node2</title>
<g id="a_node2"><a xlink:href="../../da/dab/a01362.html#a6c87ebfc07d449eef3a93127f05e579b" target="_top" xlink:title=" ">
<polygon fill="none" stroke="black" points="459,-170.5 459,-200.5 597,-200.5 597,-170.5 459,-170.5"/>
<text text-anchor="start" x="467" y="-188.5" font-family="Helvetica,sans-Serif" font-size="10.00">com.cliffc.aa.node.Scope</text>
<text text-anchor="middle" x="528" y="-177.5" font-family="Helvetica,sans-Serif" font-size="10.00">Node.IfScope.check</text>
</a>
</g>
</g>
<!-- Node1&#45;&gt;Node2 -->
<g id="edge1" class="edge">
<title>Node1&#45;&gt;Node2</title>
<path fill="none" stroke="midnightblue" d="M683.21,-153.11C656.8,-158.66 624.95,-165.35 597.07,-171.2"/>
<polygon fill="midnightblue" stroke="midnightblue" points="683.97,-156.53 693.04,-151.05 682.54,-149.68 683.97,-156.53"/>
</g>
<!-- Node3 -->
<g id="node3" class="node">
<title>Node3</title>
<g id="a_node3"><a xlink:href="../../d9/d8e/a01050.html#ac44a1aea6567cf56824950cf1323e964" target="_top" xlink:title=" ">
<polygon fill="none" stroke="black" points="427,-132 427,-151 629,-151 629,-132 427,-132"/>
<text text-anchor="middle" x="528" y="-139" font-family="Helvetica,sans-Serif" font-size="10.00">com.cliffc.aa.node.FunNode.find_body</text>
</a>
</g>
</g>
<!-- Node1&#45;&gt;Node3 -->
<g id="edge2" class="edge">
<title>Node1&#45;&gt;Node3</title>
<path fill="none" stroke="midnightblue" d="M654.79,-141.5C646.38,-141.5 637.79,-141.5 629.24,-141.5"/>
<polygon fill="midnightblue" stroke="midnightblue" points="654.93,-145 664.93,-141.5 654.93,-138 654.93,-145"/>
</g>
<!-- Node5 -->
<g id="node5" class="node">
<title>Node5</title>
<g id="a_node5"><a xlink:href="../../d9/d0a/a00390.html#aa019318d8da6f235769a3989d15f28d6" target="_top" xlink:title=" ">
<polygon fill="none" stroke="black" points="432,-79 432,-98 624,-98 624,-79 432,-79"/>
<text text-anchor="middle" x="528" y="-86" font-family="Helvetica,sans-Serif" font-size="10.00">com.cliffc.aa.GVNGCM.retype_mem</text>
</a>
</g>
</g>
<!-- Node1&#45;&gt;Node5 -->
<g id="edge4" class="edge">
<title>Node1&#45;&gt;Node5</title>
<path fill="none" stroke="midnightblue" d="M690.83,-129.44C653.2,-119.92 601.42,-106.82 566.66,-98.03"/>
<polygon fill="midnightblue" stroke="midnightblue" points="690.01,-132.84 700.56,-131.9 691.72,-126.06 690.01,-132.84"/>
</g>
<!-- Node4 -->
<g id="node4" class="node">
<title>Node4</title>
<g id="a_node4"><a xlink:href="../../d9/d8e/a01050.html#a35a8d77a634141d969d902a346af2000" target="_top" xlink:title=" ">
<polygon fill="none" stroke="black" points="0,-95.5 0,-125.5 179,-125.5 179,-95.5 0,-95.5"/>
<text text-anchor="start" x="8" y="-113.5" font-family="Helvetica,sans-Serif" font-size="10.00">com.cliffc.aa.node.FunNode.ideal</text>
<text text-anchor="middle" x="89.5" y="-102.5" font-family="Helvetica,sans-Serif" font-size="10.00">_inline</text>
</a>
</g>
</g>
<!-- Node3&#45;&gt;Node4 -->
<g id="edge3" class="edge">
<title>Node3&#45;&gt;Node4</title>
<path fill="none" stroke="midnightblue" d="M416.67,-146.1C356.81,-147.18 281.63,-146.23 215,-138.5 192,-135.83 167.04,-130.68 145.54,-125.51"/>
<polygon fill="midnightblue" stroke="midnightblue" points="416.97,-149.6 426.9,-145.9 416.83,-142.6 416.97,-149.6"/>
</g>
<!-- Node6 -->
<g id="node6" class="node">
<title>Node6</title>
<g id="a_node6"><a xlink:href="../../d7/df7/a01074.html#a574ddd22fbc528ed095a83113490f7eb" target="_top" xlink:title=" ">
<polygon fill="none" stroke="black" points="227,-98.5 227,-128.5 379,-128.5 379,-98.5 227,-98.5"/>
<text text-anchor="start" x="235" y="-116.5" font-family="Helvetica,sans-Serif" font-size="10.00">com.cliffc.aa.node.MemJoin</text>
<text text-anchor="middle" x="303" y="-105.5" font-family="Helvetica,sans-Serif" font-size="10.00">Node.ideal_reduce</text>
</a>
</g>
</g>
<!-- Node5&#45;&gt;Node6 -->
<g id="edge5" class="edge">
<title>Node5&#45;&gt;Node6</title>
<path fill="none" stroke="midnightblue" d="M431.79,-99.17C414.22,-101.14 396.09,-103.18 379.22,-105.07"/>
<polygon fill="midnightblue" stroke="midnightblue" points="432.51,-102.62 442.06,-98.02 431.73,-95.66 432.51,-102.62"/>
</g>
<!-- Node7 -->
<g id="node7" class="node">
<title>Node7</title>
<g id="a_node7"><a xlink:href="../../dc/d81/a01006.html#a3b5642b004e55b27a2860a15c0cb7741" target="_top" xlink:title=" ">
<polygon fill="none" stroke="black" points="231.5,-0.5 231.5,-30.5 374.5,-30.5 374.5,-0.5 231.5,-0.5"/>
<text text-anchor="start" x="239.5" y="-18.5" font-family="Helvetica,sans-Serif" font-size="10.00">com.cliffc.aa.node.CallEpi</text>
<text text-anchor="middle" x="303" y="-7.5" font-family="Helvetica,sans-Serif" font-size="10.00">Node.set_is_copy</text>
</a>
</g>
</g>
<!-- Node5&#45;&gt;Node7 -->
<g id="edge6" class="edge">
<title>Node5&#45;&gt;Node7</title>
<path fill="none" stroke="midnightblue" d="M492.63,-75.29C465.28,-64.98 425.94,-50.59 391,-39.5 381.44,-36.46 371.23,-33.45 361.28,-30.63"/>
<polygon fill="midnightblue" stroke="midnightblue" points="491.54,-78.62 502.13,-78.89 494.02,-72.07 491.54,-78.62"/>
</g>
<!-- Node9 -->
<g id="node9" class="node">
<title>Node9</title>
<g id="a_node9"><a xlink:href="../../d9/d8e/a01050.html#a0ef60478ee30510481eb33dc87069b2a" target="_top" xlink:title=" ">
<polygon fill="none" stroke="black" points="215,-49.5 215,-79.5 391,-79.5 391,-49.5 215,-49.5"/>
<text text-anchor="start" x="223" y="-67.5" font-family="Helvetica,sans-Serif" font-size="10.00">com.cliffc.aa.node.FunNode.split</text>
<text text-anchor="middle" x="303" y="-56.5" font-family="Helvetica,sans-Serif" font-size="10.00">_callers</text>
</a>
</g>
</g>
<!-- Node5&#45;&gt;Node9 -->
<g id="edge8" class="edge">
<title>Node5&#45;&gt;Node9</title>
<path fill="none" stroke="midnightblue" d="M428.25,-77.87C415.93,-76.55 403.39,-75.2 391.26,-73.89"/>
<polygon fill="midnightblue" stroke="midnightblue" points="428.23,-81.39 438.54,-78.98 428.98,-74.43 428.23,-81.39"/>
</g>
<!-- Node8 -->
<g id="node8" class="node">
<title>Node8</title>
<g id="a_node8"><a xlink:href="../../dc/d81/a01006.html#a2fc8d45a36328634008e89d520cfb885" target="_top" xlink:title=" ">
<polygon fill="none" stroke="black" points="18,-0.5 18,-30.5 161,-30.5 161,-0.5 18,-0.5"/>
<text text-anchor="start" x="26" y="-18.5" font-family="Helvetica,sans-Serif" font-size="10.00">com.cliffc.aa.node.CallEpi</text>
<text text-anchor="middle" x="89.5" y="-7.5" font-family="Helvetica,sans-Serif" font-size="10.00">Node.ideal_reduce</text>
</a>
</g>
</g>
<!-- Node7&#45;&gt;Node8 -->
<g id="edge7" class="edge">
<title>Node7&#45;&gt;Node8</title>
<path fill="none" stroke="midnightblue" d="M221.08,-15.5C201.34,-15.5 180.37,-15.5 161.15,-15.5"/>
<polygon fill="midnightblue" stroke="midnightblue" points="221.28,-19 231.28,-15.5 221.28,-12 221.28,-19"/>
</g>
<!-- Node9&#45;&gt;Node4 -->
<g id="edge9" class="edge">
<title>Node9&#45;&gt;Node4</title>
<path fill="none" stroke="midnightblue" d="M222.97,-81.69C202.13,-86.22 179.81,-91.07 159.55,-95.48"/>
<polygon fill="midnightblue" stroke="midnightblue" points="223.72,-85.11 232.75,-79.56 222.23,-78.27 223.72,-85.11"/>
</g>
</g>
</svg>
