<?xml version="1.0" encoding="UTF-8" standalone="no"?>
<!DOCTYPE svg PUBLIC "-//W3C//DTD SVG 1.1//EN"
 "http://www.w3.org/Graphics/SVG/1.1/DTD/svg11.dtd">
<!-- Generated by graphviz version 2.43.0 (0)
 -->
<!-- Title: com.cliffc.aa.type.TypeStruct.init Pages: 1 -->
<svg width="1034pt" height="166pt"
 viewBox="0.00 0.00 1034.00 165.50" xmlns="http://www.w3.org/2000/svg" xmlns:xlink="http://www.w3.org/1999/xlink">
<g id="graph0" class="graph" transform="scale(1 1) rotate(0) translate(4 161.5)">
<title>com.cliffc.aa.type.TypeStruct.init</title>
<!-- Node1 -->
<g id="node1" class="node">
<title>Node1</title>
<g id="a_node1"><a xlink:title=" ">
<polygon fill="#bfbfbf" stroke="black" points="0,-101 0,-120 176,-120 176,-101 0,-101"/>
<text text-anchor="middle" x="88" y="-108" font-family="Helvetica,sans-Serif" font-size="10.00">com.cliffc.aa.type.TypeStruct.init</text>
</a>
</g>
</g>
<!-- Node1&#45;&gt;Node1 -->
<g id="edge2" class="edge">
<title>Node1&#45;&gt;Node1</title>
<path fill="none" stroke="midnightblue" d="M54.98,-120.11C38.39,-128.96 49.4,-138.5 88,-138.5 116.35,-138.5 129.81,-133.36 128.4,-127.12"/>
<polygon fill="midnightblue" stroke="midnightblue" points="130.68,-124.46 121.02,-120.11 125.86,-129.54 130.68,-124.46"/>
</g>
<!-- Node2 -->
<g id="node2" class="node">
<title>Node2</title>
<g id="a_node2"><a xlink:href="../../da/da6/a01522.html#af7ed4d2deaacbc98e71248cb459ad397" target="_top" xlink:title=" ">
<polygon fill="none" stroke="black" points="215.5,-120 215.5,-139 393.5,-139 393.5,-120 215.5,-120"/>
<text text-anchor="middle" x="304.5" y="-127" font-family="Helvetica,sans-Serif" font-size="10.00">com.cliffc.aa.type.TypeStruct.flds</text>
</a>
</g>
</g>
<!-- Node1&#45;&gt;Node2 -->
<g id="edge1" class="edge">
<title>Node1&#45;&gt;Node2</title>
<path fill="none" stroke="midnightblue" d="M176.25,-118.23C185.8,-119.07 195.58,-119.94 205.25,-120.8"/>
<polygon fill="midnightblue" stroke="midnightblue" points="205.02,-124.29 215.29,-121.69 205.64,-117.32 205.02,-124.29"/>
</g>
<!-- Node3 -->
<g id="node3" class="node">
<title>Node3</title>
<g id="a_node3"><a xlink:href="../../da/da6/a01522.html#ad7153135a70c477199288d2e0a219203" target="_top" xlink:title=" ">
<polygon fill="none" stroke="black" points="212,-82 212,-101 397,-101 397,-82 212,-82"/>
<text text-anchor="middle" x="304.5" y="-89" font-family="Helvetica,sans-Serif" font-size="10.00">com.cliffc.aa.type.TypeStruct.open</text>
</a>
</g>
</g>
<!-- Node1&#45;&gt;Node3 -->
<g id="edge3" class="edge">
<title>Node1&#45;&gt;Node3</title>
<path fill="none" stroke="midnightblue" d="M176.25,-102.77C184.67,-102.03 193.26,-101.27 201.8,-100.51"/>
<polygon fill="midnightblue" stroke="midnightblue" points="202.14,-103.99 211.79,-99.62 201.52,-97.02 202.14,-103.99"/>
</g>
<!-- Node4 -->
<g id="node4" class="node">
<title>Node4</title>
<g id="a_node4"><a xlink:href="../../da/da6/a01522.html#a7f8e1f0000812b5468e8eaca07dd28f3" target="_top" xlink:title=" ">
<polygon fill="none" stroke="black" points="436.5,-120 436.5,-139 624.5,-139 624.5,-120 436.5,-120"/>
<text text-anchor="middle" x="530.5" y="-127" font-family="Helvetica,sans-Serif" font-size="10.00">com.cliffc.aa.type.TypeStruct.make</text>
</a>
</g>
</g>
<!-- Node3&#45;&gt;Node4 -->
<g id="edge4" class="edge">
<title>Node3&#45;&gt;Node4</title>
<path fill="none" stroke="midnightblue" d="M361.74,-101.04C392.49,-106.26 430.78,-112.75 463.01,-118.22"/>
<polygon fill="midnightblue" stroke="midnightblue" points="462.8,-121.73 473.24,-119.96 463.97,-114.83 462.8,-121.73"/>
</g>
<!-- Node5 -->
<g id="node5" class="node">
<title>Node5</title>
<g id="a_node5"><a xlink:href="../../d7/dd1/a01458.html#ae33cca2c9d7c59fe30da706c1c4d9bf2" target="_top" xlink:title=" ">
<polygon fill="none" stroke="black" points="433,-82 433,-101 628,-101 628,-82 433,-82"/>
<text text-anchor="middle" x="530.5" y="-89" font-family="Helvetica,sans-Serif" font-size="10.00">com.cliffc.aa.type.TypeFld.make_tup</text>
</a>
</g>
</g>
<!-- Node3&#45;&gt;Node5 -->
<g id="edge6" class="edge">
<title>Node3&#45;&gt;Node5</title>
<path fill="none" stroke="midnightblue" d="M397.26,-91.5C405.59,-91.5 414.07,-91.5 422.52,-91.5"/>
<polygon fill="midnightblue" stroke="midnightblue" points="422.8,-95 432.8,-91.5 422.8,-88 422.8,-95"/>
</g>
<!-- Node7 -->
<g id="node7" class="node">
<title>Node7</title>
<g id="a_node7"><a xlink:href="../../d5/d67/a01466.html#aae9c15c127f99a9ce4687428f9150fa5" target="_top" xlink:title=" ">
<polygon fill="none" stroke="black" points="450,-44 450,-63 611,-63 611,-44 450,-44"/>
<text text-anchor="middle" x="530.5" y="-51" font-family="Helvetica,sans-Serif" font-size="10.00">com.cliffc.aa.type.TypeFlds.ts</text>
</a>
</g>
</g>
<!-- Node3&#45;&gt;Node7 -->
<g id="edge9" class="edge">
<title>Node3&#45;&gt;Node7</title>
<path fill="none" stroke="midnightblue" d="M361.74,-81.96C392.49,-76.74 430.78,-70.25 463.01,-64.78"/>
<polygon fill="midnightblue" stroke="midnightblue" points="463.97,-68.17 473.24,-63.04 462.8,-61.27 463.97,-68.17"/>
</g>
<!-- Node4&#45;&gt;Node4 -->
<g id="edge5" class="edge">
<title>Node4&#45;&gt;Node4</title>
<path fill="none" stroke="midnightblue" d="M496.87,-139.11C479.97,-147.96 491.18,-157.5 530.5,-157.5 559.37,-157.5 573.09,-152.36 571.65,-146.12"/>
<polygon fill="midnightblue" stroke="midnightblue" points="573.83,-143.37 564.13,-139.11 569.06,-148.49 573.83,-143.37"/>
</g>
<!-- Node6 -->
<g id="node6" class="node">
<title>Node6</title>
<g id="a_node6"><a xlink:href="../../d7/dd1/a01458.html#a68cd98652ac4a01ee6b4dd90bb553dae" target="_top" xlink:title=" ">
<polygon fill="none" stroke="black" points="664,-82 664,-101 838,-101 838,-82 664,-82"/>
<text text-anchor="middle" x="751" y="-89" font-family="Helvetica,sans-Serif" font-size="10.00">com.cliffc.aa.type.TypeFld.make</text>
</a>
</g>
</g>
<!-- Node5&#45;&gt;Node6 -->
<g id="edge7" class="edge">
<title>Node5&#45;&gt;Node6</title>
<path fill="none" stroke="midnightblue" d="M628.29,-91.5C636.73,-91.5 645.27,-91.5 653.71,-91.5"/>
<polygon fill="midnightblue" stroke="midnightblue" points="653.93,-95 663.93,-91.5 653.93,-88 653.93,-95"/>
</g>
<!-- Node6&#45;&gt;Node6 -->
<g id="edge8" class="edge">
<title>Node6&#45;&gt;Node6</title>
<path fill="none" stroke="midnightblue" d="M720.48,-101.26C705.64,-110.07 715.81,-119.5 751,-119.5 775.74,-119.5 788.12,-114.84 788.12,-109"/>
<polygon fill="midnightblue" stroke="midnightblue" points="790.67,-106.59 781.52,-101.26 785.34,-111.14 790.67,-106.59"/>
</g>
<!-- Node8 -->
<g id="node8" class="node">
<title>Node8</title>
<g id="a_node8"><a xlink:href="../../d5/d67/a01466.html#aa4690362ae6b60d7c29aaba6b6b41dfb" target="_top" xlink:title=" ">
<polygon fill="none" stroke="black" points="667,-44 667,-63 835,-63 835,-44 667,-44"/>
<text text-anchor="middle" x="751" y="-51" font-family="Helvetica,sans-Serif" font-size="10.00">com.cliffc.aa.type.TypeFlds.get</text>
</a>
</g>
</g>
<!-- Node7&#45;&gt;Node8 -->
<g id="edge10" class="edge">
<title>Node7&#45;&gt;Node8</title>
<path fill="none" stroke="midnightblue" d="M611,-53.5C625.77,-53.5 641.33,-53.5 656.48,-53.5"/>
<polygon fill="midnightblue" stroke="midnightblue" points="656.88,-57 666.88,-53.5 656.88,-50 656.88,-57"/>
</g>
<!-- Node9 -->
<g id="node9" class="node">
<title>Node9</title>
<g id="a_node9"><a xlink:href="../../d5/d67/a01466.html#a7635be6e4a0ff98f908dbdbe136a11d0" target="_top" xlink:title=" ">
<polygon fill="none" stroke="black" points="665,-6 665,-25 837,-25 837,-6 665,-6"/>
<text text-anchor="middle" x="751" y="-13" font-family="Helvetica,sans-Serif" font-size="10.00">com.cliffc.aa.type.TypeFlds.tary</text>
</a>
</g>
</g>
<!-- Node7&#45;&gt;Node9 -->
<g id="edge11" class="edge">
<title>Node7&#45;&gt;Node9</title>
<path fill="none" stroke="midnightblue" d="M586.35,-43.96C616.35,-38.74 653.7,-32.25 685.14,-26.78"/>
<polygon fill="midnightblue" stroke="midnightblue" points="685.87,-30.21 695.12,-25.04 684.67,-23.31 685.87,-30.21"/>
</g>
<!-- Node10 -->
<g id="node10" class="node">
<title>Node10</title>
<g id="a_node10"><a xlink:href="../../d5/d67/a01466.html#adb7e8e0bcb616710cc42cd7f670936e0" target="_top" xlink:title=" ">
<polygon fill="none" stroke="black" points="874,-0.5 874,-30.5 1026,-30.5 1026,-0.5 874,-0.5"/>
<text text-anchor="start" x="882" y="-18.5" font-family="Helvetica,sans-Serif" font-size="10.00">com.cliffc.aa.type.TypeFlds.</text>
<text text-anchor="middle" x="950" y="-7.5" font-family="Helvetica,sans-Serif" font-size="10.00">TypeFlds</text>
</a>
</g>
</g>
<!-- Node9&#45;&gt;Node10 -->
<g id="edge12" class="edge">
<title>Node9&#45;&gt;Node10</title>
<path fill="none" stroke="midnightblue" d="M837.26,-15.5C846.01,-15.5 854.89,-15.5 863.64,-15.5"/>
<polygon fill="midnightblue" stroke="midnightblue" points="863.82,-19 873.82,-15.5 863.82,-12 863.82,-19"/>
</g>
</g>
</svg>
