<?xml version="1.0" encoding="UTF-8" standalone="no"?>
<!DOCTYPE svg PUBLIC "-//W3C//DTD SVG 1.1//EN"
 "http://www.w3.org/Graphics/SVG/1.1/DTD/svg11.dtd">
<!-- Generated by graphviz version 2.43.0 (0)
 -->
<!-- Title: com.cliffc.aa.type.TypeStruct.equals Pages: 1 -->
<svg width="839pt" height="165pt"
 viewBox="0.00 0.00 839.00 165.00" xmlns="http://www.w3.org/2000/svg" xmlns:xlink="http://www.w3.org/1999/xlink">
<g id="graph0" class="graph" transform="scale(1 1) rotate(0) translate(4 161)">
<title>com.cliffc.aa.type.TypeStruct.equals</title>
<!-- Node1 -->
<g id="node1" class="node">
<title>Node1</title>
<g id="a_node1"><a xlink:title=" ">
<polygon fill="#bfbfbf" stroke="black" points="0,-115.5 0,-134.5 193,-134.5 193,-115.5 0,-115.5"/>
<text text-anchor="middle" x="96.5" y="-122.5" font-family="Helvetica,sans-Serif" font-size="10.00">com.cliffc.aa.type.TypeStruct.equals</text>
</a>
</g>
</g>
<!-- Node2 -->
<g id="node2" class="node">
<title>Node2</title>
<g id="a_node2"><a xlink:href="../../da/da6/a01522.html#a5a61b83f23fb201884894481b01d3326" target="_top" xlink:title=" ">
<polygon fill="none" stroke="black" points="453,-137.5 453,-156.5 635,-156.5 635,-137.5 453,-137.5"/>
<text text-anchor="middle" x="544" y="-144.5" font-family="Helvetica,sans-Serif" font-size="10.00">com.cliffc.aa.type.TypeStruct.cmp</text>
</a>
</g>
</g>
<!-- Node1&#45;&gt;Node2 -->
<g id="edge1" class="edge">
<title>Node1&#45;&gt;Node2</title>
<path fill="none" stroke="midnightblue" d="M193.07,-129.72C266.57,-133.35 367.85,-138.35 442.55,-142.04"/>
<polygon fill="midnightblue" stroke="midnightblue" points="442.74,-145.55 452.9,-142.55 443.09,-138.56 442.74,-145.55"/>
</g>
<!-- Node4 -->
<g id="node4" class="node">
<title>Node4</title>
<g id="a_node4"><a xlink:href="../../da/da6/a01522.html#afd761832bd26b85246498104e7a3839e" target="_top" xlink:title=" ">
<polygon fill="none" stroke="black" points="229,-88 229,-118 415,-118 415,-88 229,-88"/>
<text text-anchor="start" x="237" y="-106" font-family="Helvetica,sans-Serif" font-size="10.00">com.cliffc.aa.type.TypeStruct.cycle</text>
<text text-anchor="middle" x="322" y="-95" font-family="Helvetica,sans-Serif" font-size="10.00">_equals</text>
</a>
</g>
</g>
<!-- Node1&#45;&gt;Node4 -->
<g id="edge3" class="edge">
<title>Node1&#45;&gt;Node4</title>
<path fill="none" stroke="midnightblue" d="M193.26,-115.57C201.77,-114.74 210.41,-113.89 218.98,-113.04"/>
<polygon fill="midnightblue" stroke="midnightblue" points="219.38,-116.52 228.99,-112.06 218.69,-109.55 219.38,-116.52"/>
</g>
<!-- Node3 -->
<g id="node3" class="node">
<title>Node3</title>
<g id="a_node3"><a xlink:href="../../dd/d55/a01638.html#a3975ba7dca9fe2d6e4992b2b5558f882" target="_top" xlink:title=" ">
<polygon fill="none" stroke="black" points="685.5,-137.5 685.5,-156.5 818.5,-156.5 818.5,-137.5 685.5,-137.5"/>
<text text-anchor="middle" x="752" y="-144.5" font-family="Helvetica,sans-Serif" font-size="10.00">com.cliffc.aa.util.Util.eq</text>
</a>
</g>
</g>
<!-- Node2&#45;&gt;Node3 -->
<g id="edge2" class="edge">
<title>Node2&#45;&gt;Node3</title>
<path fill="none" stroke="midnightblue" d="M635.05,-147C648.38,-147 662,-147 675,-147"/>
<polygon fill="midnightblue" stroke="midnightblue" points="675.28,-150.5 685.28,-147 675.28,-143.5 675.28,-150.5"/>
</g>
<!-- Node4&#45;&gt;Node2 -->
<g id="edge4" class="edge">
<title>Node4&#45;&gt;Node2</title>
<path fill="none" stroke="midnightblue" d="M398.1,-118.02C426.68,-123.74 458.78,-130.16 485.49,-135.5"/>
<polygon fill="midnightblue" stroke="midnightblue" points="484.95,-138.96 495.44,-137.49 486.32,-132.09 484.95,-138.96"/>
</g>
<!-- Node5 -->
<g id="node5" class="node">
<title>Node5</title>
<g id="a_node5"><a xlink:href="../../da/da6/a01522.html#a065646ac533196e92be0c53f25383911" target="_top" xlink:title=" ">
<polygon fill="none" stroke="black" points="451,-88 451,-118 637,-118 637,-88 451,-88"/>
<text text-anchor="start" x="459" y="-106" font-family="Helvetica,sans-Serif" font-size="10.00">com.cliffc.aa.type.TypeStruct.cycle</text>
<text text-anchor="middle" x="544" y="-95" font-family="Helvetica,sans-Serif" font-size="10.00">_equals0</text>
</a>
</g>
</g>
<!-- Node4&#45;&gt;Node5 -->
<g id="edge5" class="edge">
<title>Node4&#45;&gt;Node5</title>
<path fill="none" stroke="midnightblue" d="M415.03,-103C423.57,-103 432.27,-103 440.9,-103"/>
<polygon fill="midnightblue" stroke="midnightblue" points="440.99,-106.5 450.99,-103 440.99,-99.5 440.99,-106.5"/>
</g>
<!-- Node7 -->
<g id="node7" class="node">
<title>Node7</title>
<g id="a_node7"><a xlink:href="../../da/da6/a01522.html#ab860d965308c5a6bb5fbb70ecf03b234" target="_top" xlink:title=" ">
<polygon fill="none" stroke="black" points="454.5,-39 454.5,-69 633.5,-69 633.5,-39 454.5,-39"/>
<text text-anchor="start" x="462.5" y="-57" font-family="Helvetica,sans-Serif" font-size="10.00">com.cliffc.aa.type.TypeStruct.find</text>
<text text-anchor="middle" x="544" y="-46" font-family="Helvetica,sans-Serif" font-size="10.00">_other</text>
</a>
</g>
</g>
<!-- Node4&#45;&gt;Node7 -->
<g id="edge7" class="edge">
<title>Node4&#45;&gt;Node7</title>
<path fill="none" stroke="midnightblue" d="M390.5,-87.97C414.26,-82.67 441.14,-76.69 465.65,-71.23"/>
<polygon fill="midnightblue" stroke="midnightblue" points="466.63,-74.6 475.63,-69.01 465.1,-67.76 466.63,-74.6"/>
</g>
<!-- Node8 -->
<g id="node8" class="node">
<title>Node8</title>
<g id="a_node8"><a xlink:href="../../da/da6/a01522.html#ac2104477ec8244374059301b91701d90" target="_top" xlink:title=" ">
<polygon fill="none" stroke="black" points="456,-0.5 456,-19.5 632,-19.5 632,-0.5 456,-0.5"/>
<text text-anchor="middle" x="544" y="-7.5" font-family="Helvetica,sans-Serif" font-size="10.00">com.cliffc.aa.type.TypeStruct.len</text>
</a>
</g>
</g>
<!-- Node4&#45;&gt;Node8 -->
<g id="edge8" class="edge">
<title>Node4&#45;&gt;Node8</title>
<path fill="none" stroke="midnightblue" d="M344.64,-87.91C369.3,-71.39 411.35,-45.21 451,-30 458.9,-26.97 467.36,-24.35 475.84,-22.09"/>
<polygon fill="midnightblue" stroke="midnightblue" points="476.92,-25.43 485.77,-19.61 475.22,-18.64 476.92,-25.43"/>
</g>
<!-- Node6 -->
<g id="node6" class="node">
<title>Node6</title>
<g id="a_node6"><a xlink:href="../../d0/de2/a01442.html#a259ebcac926b2f1b2f1002af0c7a7a6b" target="_top" xlink:title=" ">
<polygon fill="none" stroke="black" points="673,-88 673,-118 831,-118 831,-88 673,-88"/>
<text text-anchor="start" x="681" y="-106" font-family="Helvetica,sans-Serif" font-size="10.00">com.cliffc.aa.type.Type.cycle</text>
<text text-anchor="middle" x="752" y="-95" font-family="Helvetica,sans-Serif" font-size="10.00">_equals</text>
</a>
</g>
</g>
<!-- Node5&#45;&gt;Node6 -->
<g id="edge6" class="edge">
<title>Node5&#45;&gt;Node6</title>
<path fill="none" stroke="midnightblue" d="M637.15,-103C645.61,-103 654.16,-103 662.58,-103"/>
<polygon fill="midnightblue" stroke="midnightblue" points="662.77,-106.5 672.77,-103 662.77,-99.5 662.77,-106.5"/>
</g>
</g>
</svg>
