<?xml version="1.0" encoding="UTF-8" standalone="no"?>
<!DOCTYPE svg PUBLIC "-//W3C//DTD SVG 1.1//EN"
 "http://www.w3.org/Graphics/SVG/1.1/DTD/svg11.dtd">
<!-- Generated by graphviz version 2.43.0 (0)
 -->
<!-- Title: com.cliffc.aa.type.TypeStruct.repeats_in_cycles Pages: 1 -->
<svg width="1076pt" height="165pt"
 viewBox="0.00 0.00 1076.00 165.00" xmlns="http://www.w3.org/2000/svg" xmlns:xlink="http://www.w3.org/1999/xlink">
<g id="graph0" class="graph" transform="scale(1 1) rotate(0) translate(4 161)">
<title>com.cliffc.aa.type.TypeStruct.repeats_in_cycles</title>
<!-- Node1 -->
<g id="node1" class="node">
<title>Node1</title>
<g id="a_node1"><a xlink:title=" ">
<polygon fill="#bfbfbf" stroke="black" points="0,-66 0,-96 197,-96 197,-66 0,-66"/>
<text text-anchor="start" x="8" y="-84" font-family="Helvetica,sans-Serif" font-size="10.00">com.cliffc.aa.type.TypeStruct.repeats</text>
<text text-anchor="middle" x="98.5" y="-73" font-family="Helvetica,sans-Serif" font-size="10.00">_in_cycles</text>
</a>
</g>
</g>
<!-- Node2 -->
<g id="node2" class="node">
<title>Node2</title>
<g id="a_node2"><a xlink:href="../../da/da6/a01522.html#a49675f7fbc9f7c33c7d3668a937c0495" target="_top" xlink:title=" ">
<polygon fill="none" stroke="black" points="235,-115.5 235,-134.5 428,-134.5 428,-115.5 235,-115.5"/>
<text text-anchor="middle" x="331.5" y="-122.5" font-family="Helvetica,sans-Serif" font-size="10.00">com.cliffc.aa.type.TypeStruct.equals</text>
</a>
</g>
</g>
<!-- Node1&#45;&gt;Node2 -->
<g id="edge1" class="edge">
<title>Node1&#45;&gt;Node2</title>
<path fill="none" stroke="midnightblue" d="M178.35,-96.02C208.5,-101.76 242.37,-108.21 270.48,-113.57"/>
<polygon fill="midnightblue" stroke="midnightblue" points="270.08,-117.05 280.56,-115.49 271.39,-110.18 270.08,-117.05"/>
</g>
<!-- Node10 -->
<g id="node10" class="node">
<title>Node10</title>
<g id="a_node10"><a xlink:href="../../da/da6/a01522.html#a9166b449b0997724974b06ead41f09a0" target="_top" xlink:title=" ">
<polygon fill="none" stroke="black" points="233,-66 233,-96 430,-96 430,-66 233,-66"/>
<text text-anchor="start" x="241" y="-84" font-family="Helvetica,sans-Serif" font-size="10.00">com.cliffc.aa.type.TypeStruct.repeats</text>
<text text-anchor="middle" x="331.5" y="-73" font-family="Helvetica,sans-Serif" font-size="10.00">_in_cycles</text>
</a>
</g>
</g>
<!-- Node1&#45;&gt;Node10 -->
<g id="edge10" class="edge">
<title>Node1&#45;&gt;Node10</title>
<path fill="none" stroke="midnightblue" d="M197.13,-81C205.63,-81 214.25,-81 222.83,-81"/>
<polygon fill="midnightblue" stroke="midnightblue" points="222.85,-84.5 232.85,-81 222.85,-77.5 222.85,-84.5"/>
</g>
<!-- Node11 -->
<g id="node11" class="node">
<title>Node11</title>
<g id="a_node11"><a xlink:href="../../df/dee/a01646.html#a88ad20daf92e92fe0e3925b23c4fecf0" target="_top" xlink:title=" ">
<polygon fill="none" stroke="black" points="252.5,-27.5 252.5,-46.5 410.5,-46.5 410.5,-27.5 252.5,-27.5"/>
<text text-anchor="middle" x="331.5" y="-34.5" font-family="Helvetica,sans-Serif" font-size="10.00">com.cliffc.aa.util.VBitSet.tset</text>
</a>
</g>
</g>
<!-- Node1&#45;&gt;Node11 -->
<g id="edge11" class="edge">
<title>Node1&#45;&gt;Node11</title>
<path fill="none" stroke="midnightblue" d="M178.35,-65.98C208.5,-60.24 242.37,-53.79 270.48,-48.43"/>
<polygon fill="midnightblue" stroke="midnightblue" points="271.39,-51.82 280.56,-46.51 270.08,-44.95 271.39,-51.82"/>
</g>
<!-- Node3 -->
<g id="node3" class="node">
<title>Node3</title>
<g id="a_node3"><a xlink:href="../../da/da6/a01522.html#a5a61b83f23fb201884894481b01d3326" target="_top" xlink:title=" ">
<polygon fill="none" stroke="black" points="690,-137.5 690,-156.5 872,-156.5 872,-137.5 690,-137.5"/>
<text text-anchor="middle" x="781" y="-144.5" font-family="Helvetica,sans-Serif" font-size="10.00">com.cliffc.aa.type.TypeStruct.cmp</text>
</a>
</g>
</g>
<!-- Node2&#45;&gt;Node3 -->
<g id="edge2" class="edge">
<title>Node2&#45;&gt;Node3</title>
<path fill="none" stroke="midnightblue" d="M428.23,-129.71C502.16,-133.34 604.2,-138.36 679.35,-142.05"/>
<polygon fill="midnightblue" stroke="midnightblue" points="679.61,-145.57 689.77,-142.56 679.95,-138.58 679.61,-145.57"/>
</g>
<!-- Node5 -->
<g id="node5" class="node">
<title>Node5</title>
<g id="a_node5"><a xlink:href="../../da/da6/a01522.html#afd761832bd26b85246498104e7a3839e" target="_top" xlink:title=" ">
<polygon fill="none" stroke="black" points="466,-88 466,-118 652,-118 652,-88 466,-88"/>
<text text-anchor="start" x="474" y="-106" font-family="Helvetica,sans-Serif" font-size="10.00">com.cliffc.aa.type.TypeStruct.cycle</text>
<text text-anchor="middle" x="559" y="-95" font-family="Helvetica,sans-Serif" font-size="10.00">_equals</text>
</a>
</g>
</g>
<!-- Node2&#45;&gt;Node5 -->
<g id="edge4" class="edge">
<title>Node2&#45;&gt;Node5</title>
<path fill="none" stroke="midnightblue" d="M428.13,-115.67C437.3,-114.78 446.62,-113.87 455.85,-112.97"/>
<polygon fill="midnightblue" stroke="midnightblue" points="456.2,-116.45 465.81,-111.99 455.52,-109.48 456.2,-116.45"/>
</g>
<!-- Node4 -->
<g id="node4" class="node">
<title>Node4</title>
<g id="a_node4"><a xlink:href="../../dd/d55/a01638.html#a3975ba7dca9fe2d6e4992b2b5558f882" target="_top" xlink:title=" ">
<polygon fill="none" stroke="black" points="922.5,-137.5 922.5,-156.5 1055.5,-156.5 1055.5,-137.5 922.5,-137.5"/>
<text text-anchor="middle" x="989" y="-144.5" font-family="Helvetica,sans-Serif" font-size="10.00">com.cliffc.aa.util.Util.eq</text>
</a>
</g>
</g>
<!-- Node3&#45;&gt;Node4 -->
<g id="edge3" class="edge">
<title>Node3&#45;&gt;Node4</title>
<path fill="none" stroke="midnightblue" d="M872.05,-147C885.38,-147 899,-147 912,-147"/>
<polygon fill="midnightblue" stroke="midnightblue" points="912.28,-150.5 922.28,-147 912.28,-143.5 912.28,-150.5"/>
</g>
<!-- Node5&#45;&gt;Node3 -->
<g id="edge5" class="edge">
<title>Node5&#45;&gt;Node3</title>
<path fill="none" stroke="midnightblue" d="M635.1,-118.02C663.68,-123.74 695.78,-130.16 722.49,-135.5"/>
<polygon fill="midnightblue" stroke="midnightblue" points="721.95,-138.96 732.44,-137.49 723.32,-132.09 721.95,-138.96"/>
</g>
<!-- Node6 -->
<g id="node6" class="node">
<title>Node6</title>
<g id="a_node6"><a xlink:href="../../da/da6/a01522.html#a065646ac533196e92be0c53f25383911" target="_top" xlink:title=" ">
<polygon fill="none" stroke="black" points="688,-88 688,-118 874,-118 874,-88 688,-88"/>
<text text-anchor="start" x="696" y="-106" font-family="Helvetica,sans-Serif" font-size="10.00">com.cliffc.aa.type.TypeStruct.cycle</text>
<text text-anchor="middle" x="781" y="-95" font-family="Helvetica,sans-Serif" font-size="10.00">_equals0</text>
</a>
</g>
</g>
<!-- Node5&#45;&gt;Node6 -->
<g id="edge6" class="edge">
<title>Node5&#45;&gt;Node6</title>
<path fill="none" stroke="midnightblue" d="M652.03,-103C660.57,-103 669.27,-103 677.9,-103"/>
<polygon fill="midnightblue" stroke="midnightblue" points="677.99,-106.5 687.99,-103 677.99,-99.5 677.99,-106.5"/>
</g>
<!-- Node8 -->
<g id="node8" class="node">
<title>Node8</title>
<g id="a_node8"><a xlink:href="../../da/da6/a01522.html#ab860d965308c5a6bb5fbb70ecf03b234" target="_top" xlink:title=" ">
<polygon fill="none" stroke="black" points="691.5,-39 691.5,-69 870.5,-69 870.5,-39 691.5,-39"/>
<text text-anchor="start" x="699.5" y="-57" font-family="Helvetica,sans-Serif" font-size="10.00">com.cliffc.aa.type.TypeStruct.find</text>
<text text-anchor="middle" x="781" y="-46" font-family="Helvetica,sans-Serif" font-size="10.00">_other</text>
</a>
</g>
</g>
<!-- Node5&#45;&gt;Node8 -->
<g id="edge8" class="edge">
<title>Node5&#45;&gt;Node8</title>
<path fill="none" stroke="midnightblue" d="M627.5,-87.97C651.26,-82.67 678.14,-76.69 702.65,-71.23"/>
<polygon fill="midnightblue" stroke="midnightblue" points="703.63,-74.6 712.63,-69.01 702.1,-67.76 703.63,-74.6"/>
</g>
<!-- Node9 -->
<g id="node9" class="node">
<title>Node9</title>
<g id="a_node9"><a xlink:href="../../da/da6/a01522.html#ac2104477ec8244374059301b91701d90" target="_top" xlink:title=" ">
<polygon fill="none" stroke="black" points="693,-0.5 693,-19.5 869,-19.5 869,-0.5 693,-0.5"/>
<text text-anchor="middle" x="781" y="-7.5" font-family="Helvetica,sans-Serif" font-size="10.00">com.cliffc.aa.type.TypeStruct.len</text>
</a>
</g>
</g>
<!-- Node5&#45;&gt;Node9 -->
<g id="edge9" class="edge">
<title>Node5&#45;&gt;Node9</title>
<path fill="none" stroke="midnightblue" d="M581.64,-87.91C606.3,-71.39 648.35,-45.21 688,-30 695.9,-26.97 704.36,-24.35 712.84,-22.09"/>
<polygon fill="midnightblue" stroke="midnightblue" points="713.92,-25.43 722.77,-19.61 712.22,-18.64 713.92,-25.43"/>
</g>
<!-- Node7 -->
<g id="node7" class="node">
<title>Node7</title>
<g id="a_node7"><a xlink:href="../../d0/de2/a01442.html#a259ebcac926b2f1b2f1002af0c7a7a6b" target="_top" xlink:title=" ">
<polygon fill="none" stroke="black" points="910,-88 910,-118 1068,-118 1068,-88 910,-88"/>
<text text-anchor="start" x="918" y="-106" font-family="Helvetica,sans-Serif" font-size="10.00">com.cliffc.aa.type.Type.cycle</text>
<text text-anchor="middle" x="989" y="-95" font-family="Helvetica,sans-Serif" font-size="10.00">_equals</text>
</a>
</g>
</g>
<!-- Node6&#45;&gt;Node7 -->
<g id="edge7" class="edge">
<title>Node6&#45;&gt;Node7</title>
<path fill="none" stroke="midnightblue" d="M874.15,-103C882.61,-103 891.16,-103 899.58,-103"/>
<polygon fill="midnightblue" stroke="midnightblue" points="899.77,-106.5 909.77,-103 899.77,-99.5 899.77,-106.5"/>
</g>
</g>
</svg>
