<?xml version="1.0" encoding="UTF-8" standalone="no"?>
<!DOCTYPE svg PUBLIC "-//W3C//DTD SVG 1.1//EN"
 "http://www.w3.org/Graphics/SVG/1.1/DTD/svg11.dtd">
<!-- Generated by graphviz version 2.43.0 (0)
 -->
<!-- Title: com.cliffc.aa.type.TypeStruct.make_from Pages: 1 -->
<svg width="1763pt" height="368pt"
 viewBox="0.00 0.00 1763.00 367.50" xmlns="http://www.w3.org/2000/svg" xmlns:xlink="http://www.w3.org/1999/xlink">
<g id="graph0" class="graph" transform="scale(1 1) rotate(0) translate(4 363.5)">
<title>com.cliffc.aa.type.TypeStruct.make_from</title>
<!-- Node1 -->
<g id="node1" class="node">
<title>Node1</title>
<g id="a_node1"><a xlink:title=" ">
<polygon fill="#bfbfbf" stroke="black" points="0,-195.5 0,-214.5 216,-214.5 216,-195.5 0,-195.5"/>
<text text-anchor="middle" x="108" y="-202.5" font-family="Helvetica,sans-Serif" font-size="10.00">com.cliffc.aa.type.TypeStruct.make_from</text>
</a>
</g>
</g>
<!-- Node2 -->
<g id="node2" class="node">
<title>Node2</title>
<g id="a_node2"><a xlink:href="../../da/da6/a01522.html#af7ed4d2deaacbc98e71248cb459ad397" target="_top" xlink:title=" ">
<polygon fill="none" stroke="black" points="736.5,-157.5 736.5,-176.5 914.5,-176.5 914.5,-157.5 736.5,-157.5"/>
<text text-anchor="middle" x="825.5" y="-164.5" font-family="Helvetica,sans-Serif" font-size="10.00">com.cliffc.aa.type.TypeStruct.flds</text>
</a>
</g>
</g>
<!-- Node1&#45;&gt;Node2 -->
<g id="edge1" class="edge">
<title>Node1&#45;&gt;Node2</title>
<path fill="none" stroke="midnightblue" d="M216.12,-199.31C354.23,-191.98 592.49,-179.32 726.18,-172.22"/>
<polygon fill="midnightblue" stroke="midnightblue" points="726.61,-175.7 736.41,-171.68 726.24,-168.71 726.61,-175.7"/>
</g>
<!-- Node3 -->
<g id="node3" class="node">
<title>Node3</title>
<g id="a_node3"><a xlink:href="../../da/da6/a01522.html#a9cbde0552e5f930dcd0e058c8a31b7aa" target="_top" xlink:title=" ">
<polygon fill="none" stroke="black" points="252,-261 252,-291 458,-291 458,-261 252,-261"/>
<text text-anchor="start" x="260" y="-279" font-family="Helvetica,sans-Serif" font-size="10.00">com.cliffc.aa.type.TypeStruct.hashcons</text>
<text text-anchor="middle" x="355" y="-268" font-family="Helvetica,sans-Serif" font-size="10.00">_freeS</text>
</a>
</g>
</g>
<!-- Node1&#45;&gt;Node3 -->
<g id="edge2" class="edge">
<title>Node1&#45;&gt;Node3</title>
<path fill="none" stroke="midnightblue" d="M141.79,-214.5C180.21,-225.64 244.71,-244.33 292.53,-258.19"/>
<polygon fill="midnightblue" stroke="midnightblue" points="291.59,-261.56 302.17,-260.98 293.54,-254.83 291.59,-261.56"/>
</g>
<!-- Node13 -->
<g id="node13" class="node">
<title>Node13</title>
<g id="a_node13"><a xlink:href="../../da/da6/a01522.html#ac831a9a3f5b64517297f55a1737309ec" target="_top" xlink:title=" ">
<polygon fill="none" stroke="black" points="258,-129.5 258,-148.5 452,-148.5 452,-129.5 258,-129.5"/>
<text text-anchor="middle" x="355" y="-136.5" font-family="Helvetica,sans-Serif" font-size="10.00">com.cliffc.aa.type.TypeStruct.malloc</text>
</a>
</g>
</g>
<!-- Node1&#45;&gt;Node13 -->
<g id="edge15" class="edge">
<title>Node1&#45;&gt;Node13</title>
<path fill="none" stroke="midnightblue" d="M144.36,-195.47C187.79,-183.78 261.5,-163.92 308.94,-151.14"/>
<polygon fill="midnightblue" stroke="midnightblue" points="309.9,-154.5 318.65,-148.52 308.08,-147.75 309.9,-154.5"/>
</g>
<!-- Node4 -->
<g id="node4" class="node">
<title>Node4</title>
<g id="a_node4"><a xlink:href="../../d5/d67/a01466.html#a129115553daba52b57a9d40488d132bb" target="_top" xlink:title=" ">
<polygon fill="none" stroke="black" points="494,-292.5 494,-311.5 697,-311.5 697,-292.5 494,-292.5"/>
<text text-anchor="middle" x="595.5" y="-299.5" font-family="Helvetica,sans-Serif" font-size="10.00">com.cliffc.aa.type.TypeFlds.hash_cons</text>
</a>
</g>
</g>
<!-- Node3&#45;&gt;Node4 -->
<g id="edge3" class="edge">
<title>Node3&#45;&gt;Node4</title>
<path fill="none" stroke="midnightblue" d="M458.18,-287.14C471.05,-288.54 484.19,-289.97 496.99,-291.37"/>
<polygon fill="midnightblue" stroke="midnightblue" points="496.84,-294.87 507.16,-292.48 497.6,-287.92 496.84,-294.87"/>
</g>
<!-- Node5 -->
<g id="node5" class="node">
<title>Node5</title>
<g id="a_node5"><a xlink:href="../../d5/d67/a01466.html#afd4ab1c8bae82cb0cd94e747234484c7" target="_top" xlink:title=" ">
<polygon fill="none" stroke="black" points="737.5,-220 737.5,-250 913.5,-250 913.5,-220 737.5,-220"/>
<text text-anchor="start" x="745.5" y="-238" font-family="Helvetica,sans-Serif" font-size="10.00">com.cliffc.aa.type.TypeFlds.hash</text>
<text text-anchor="middle" x="825.5" y="-227" font-family="Helvetica,sans-Serif" font-size="10.00">_cons_</text>
</a>
</g>
</g>
<!-- Node4&#45;&gt;Node5 -->
<g id="edge4" class="edge">
<title>Node4&#45;&gt;Node5</title>
<path fill="none" stroke="midnightblue" d="M629.17,-292.4C664.12,-282.13 720.37,-265.6 763.55,-252.91"/>
<polygon fill="midnightblue" stroke="midnightblue" points="764.77,-256.2 773.38,-250.02 762.8,-249.48 764.77,-256.2"/>
</g>
<!-- Node8 -->
<g id="node8" class="node">
<title>Node8</title>
<g id="a_node8"><a xlink:href="../../d5/d67/a01466.html#aae9c15c127f99a9ce4687428f9150fa5" target="_top" xlink:title=" ">
<polygon fill="none" stroke="black" points="1191.5,-274.5 1191.5,-293.5 1352.5,-293.5 1352.5,-274.5 1191.5,-274.5"/>
<text text-anchor="middle" x="1272" y="-281.5" font-family="Helvetica,sans-Serif" font-size="10.00">com.cliffc.aa.type.TypeFlds.ts</text>
</a>
</g>
</g>
<!-- Node4&#45;&gt;Node8 -->
<g id="edge14" class="edge">
<title>Node4&#45;&gt;Node8</title>
<path fill="none" stroke="midnightblue" d="M697.12,-310.11C808.08,-317.47 991.77,-324.94 1149,-309 1174.18,-306.45 1201.85,-301 1224.46,-295.84"/>
<polygon fill="midnightblue" stroke="midnightblue" points="1225.52,-299.19 1234.46,-293.5 1223.93,-292.37 1225.52,-299.19"/>
</g>
<!-- Node10 -->
<g id="node10" class="node">
<title>Node10</title>
<g id="a_node10"><a xlink:href="../../d5/d67/a01466.html#a7635be6e4a0ff98f908dbdbe136a11d0" target="_top" xlink:title=" ">
<polygon fill="none" stroke="black" points="1395,-334.5 1395,-353.5 1567,-353.5 1567,-334.5 1395,-334.5"/>
<text text-anchor="middle" x="1481" y="-341.5" font-family="Helvetica,sans-Serif" font-size="10.00">com.cliffc.aa.type.TypeFlds.tary</text>
</a>
</g>
</g>
<!-- Node4&#45;&gt;Node10 -->
<g id="edge13" class="edge">
<title>Node4&#45;&gt;Node10</title>
<path fill="none" stroke="midnightblue" d="M635.05,-311.5C662.24,-317.74 699.62,-325.39 733,-329 966.15,-354.2 1242.54,-351.29 1384.82,-347.4"/>
<polygon fill="midnightblue" stroke="midnightblue" points="1384.93,-350.9 1394.83,-347.12 1384.74,-343.9 1384.93,-350.9"/>
</g>
<!-- Node6 -->
<g id="node6" class="node">
<title>Node6</title>
<g id="a_node6"><a xlink:href="../../d9/df5/a01574.html#ac48b496d83326e6d52ae1ec4f3459e86" target="_top" xlink:title=" ">
<polygon fill="none" stroke="black" points="987.5,-171 987.5,-201 1115.5,-201 1115.5,-171 987.5,-171"/>
<text text-anchor="start" x="995.5" y="-189" font-family="Helvetica,sans-Serif" font-size="10.00">com.cliffc.aa.util.IHash</text>
<text text-anchor="middle" x="1051.5" y="-178" font-family="Helvetica,sans-Serif" font-size="10.00">Map.get</text>
</a>
</g>
</g>
<!-- Node5&#45;&gt;Node6 -->
<g id="edge5" class="edge">
<title>Node5&#45;&gt;Node6</title>
<path fill="none" stroke="midnightblue" d="M895.23,-219.97C921.23,-214.28 950.91,-207.79 977.3,-202.01"/>
<polygon fill="midnightblue" stroke="midnightblue" points="978.22,-205.39 987.24,-199.84 976.73,-198.56 978.22,-205.39"/>
</g>
<!-- Node7 -->
<g id="node7" class="node">
<title>Node7</title>
<g id="a_node7"><a xlink:href="../../d0/da4/a01470.html#a0750a35f6cf3724d55eb0e0574ea7d9d" target="_top" xlink:title=" ">
<polygon fill="none" stroke="black" points="975.5,-269 975.5,-299 1127.5,-299 1127.5,-269 975.5,-269"/>
<text text-anchor="start" x="983.5" y="-287" font-family="Helvetica,sans-Serif" font-size="10.00">com.cliffc.aa.type.TypeFlds.</text>
<text text-anchor="middle" x="1051.5" y="-276" font-family="Helvetica,sans-Serif" font-size="10.00">Key.hash</text>
</a>
</g>
</g>
<!-- Node5&#45;&gt;Node7 -->
<g id="edge6" class="edge">
<title>Node5&#45;&gt;Node7</title>
<path fill="none" stroke="midnightblue" d="M895.23,-250.03C919.53,-255.35 947.03,-261.37 972.07,-266.84"/>
<polygon fill="midnightblue" stroke="midnightblue" points="971.38,-270.28 981.9,-268.99 972.88,-263.44 971.38,-270.28"/>
</g>
<!-- Node5&#45;&gt;Node8 -->
<g id="edge12" class="edge">
<title>Node5&#45;&gt;Node8</title>
<path fill="none" stroke="midnightblue" d="M856.57,-219.82C874.62,-210.49 897.91,-198.04 918,-186 934.5,-176.12 935.6,-167.57 954,-162 1036.95,-136.89 1068.93,-128.83 1149,-162 1199.97,-183.11 1240.75,-236.99 1259.62,-265.57"/>
<polygon fill="midnightblue" stroke="midnightblue" points="1256.81,-267.68 1265.16,-274.2 1262.7,-263.89 1256.81,-267.68"/>
</g>
<!-- Node12 -->
<g id="node12" class="node">
<title>Node12</title>
<g id="a_node12"><a xlink:href="../../d9/df5/a01574.html#a48318148c1c043cb02b70ff5a7be8eb0" target="_top" xlink:title=" ">
<polygon fill="none" stroke="black" points="987.5,-220 987.5,-250 1115.5,-250 1115.5,-220 987.5,-220"/>
<text text-anchor="start" x="995.5" y="-238" font-family="Helvetica,sans-Serif" font-size="10.00">com.cliffc.aa.util.IHash</text>
<text text-anchor="middle" x="1051.5" y="-227" font-family="Helvetica,sans-Serif" font-size="10.00">Map.put</text>
</a>
</g>
</g>
<!-- Node5&#45;&gt;Node12 -->
<g id="edge11" class="edge">
<title>Node5&#45;&gt;Node12</title>
<path fill="none" stroke="midnightblue" d="M913.75,-235C934.76,-235 957.01,-235 977.31,-235"/>
<polygon fill="midnightblue" stroke="midnightblue" points="977.41,-238.5 987.41,-235 977.41,-231.5 977.41,-238.5"/>
</g>
<!-- Node7&#45;&gt;Node8 -->
<g id="edge7" class="edge">
<title>Node7&#45;&gt;Node8</title>
<path fill="none" stroke="midnightblue" d="M1127.7,-284C1144.83,-284 1163.2,-284 1180.88,-284"/>
<polygon fill="midnightblue" stroke="midnightblue" points="1181.19,-287.5 1191.19,-284 1181.19,-280.5 1181.19,-287.5"/>
</g>
<!-- Node9 -->
<g id="node9" class="node">
<title>Node9</title>
<g id="a_node9"><a xlink:href="../../d5/d67/a01466.html#aa4690362ae6b60d7c29aaba6b6b41dfb" target="_top" xlink:title=" ">
<polygon fill="none" stroke="black" points="1397,-274.5 1397,-293.5 1565,-293.5 1565,-274.5 1397,-274.5"/>
<text text-anchor="middle" x="1481" y="-281.5" font-family="Helvetica,sans-Serif" font-size="10.00">com.cliffc.aa.type.TypeFlds.get</text>
</a>
</g>
</g>
<!-- Node8&#45;&gt;Node9 -->
<g id="edge8" class="edge">
<title>Node8&#45;&gt;Node9</title>
<path fill="none" stroke="midnightblue" d="M1352.74,-284C1363.81,-284 1375.27,-284 1386.56,-284"/>
<polygon fill="midnightblue" stroke="midnightblue" points="1386.88,-287.5 1396.88,-284 1386.88,-280.5 1386.88,-287.5"/>
</g>
<!-- Node8&#45;&gt;Node10 -->
<g id="edge9" class="edge">
<title>Node8&#45;&gt;Node10</title>
<path fill="none" stroke="midnightblue" d="M1305.8,-293.51C1341.28,-303.79 1397.98,-320.23 1437,-331.54"/>
<polygon fill="midnightblue" stroke="midnightblue" points="1436.43,-335.02 1447.01,-334.44 1438.38,-328.29 1436.43,-335.02"/>
</g>
<!-- Node11 -->
<g id="node11" class="node">
<title>Node11</title>
<g id="a_node11"><a xlink:href="../../d5/d67/a01466.html#adb7e8e0bcb616710cc42cd7f670936e0" target="_top" xlink:title=" ">
<polygon fill="none" stroke="black" points="1603,-329 1603,-359 1755,-359 1755,-329 1603,-329"/>
<text text-anchor="start" x="1611" y="-347" font-family="Helvetica,sans-Serif" font-size="10.00">com.cliffc.aa.type.TypeFlds.</text>
<text text-anchor="middle" x="1679" y="-336" font-family="Helvetica,sans-Serif" font-size="10.00">TypeFlds</text>
</a>
</g>
</g>
<!-- Node10&#45;&gt;Node11 -->
<g id="edge10" class="edge">
<title>Node10&#45;&gt;Node11</title>
<path fill="none" stroke="midnightblue" d="M1567.11,-344C1575.56,-344 1584.14,-344 1592.59,-344"/>
<polygon fill="midnightblue" stroke="midnightblue" points="1592.81,-347.5 1602.81,-344 1592.81,-340.5 1592.81,-347.5"/>
</g>
<!-- Node13&#45;&gt;Node2 -->
<g id="edge16" class="edge">
<title>Node13&#45;&gt;Node2</title>
<path fill="none" stroke="midnightblue" d="M452.13,-145.36C466.18,-146.27 480.46,-147.17 494,-148 572,-152.79 660.38,-157.85 726.11,-161.54"/>
<polygon fill="midnightblue" stroke="midnightblue" points="726.28,-165.06 736.46,-162.12 726.68,-158.07 726.28,-165.06"/>
</g>
<!-- Node14 -->
<g id="node14" class="node">
<title>Node14</title>
<g id="a_node14"><a xlink:href="../../da/da6/a01522.html#a1fa964976b06483361074f2d455d5d98" target="_top" xlink:title=" ">
<polygon fill="none" stroke="black" points="507.5,-101.5 507.5,-120.5 683.5,-120.5 683.5,-101.5 507.5,-101.5"/>
<text text-anchor="middle" x="595.5" y="-108.5" font-family="Helvetica,sans-Serif" font-size="10.00">com.cliffc.aa.type.TypeStruct.init</text>
</a>
</g>
</g>
<!-- Node13&#45;&gt;Node14 -->
<g id="edge17" class="edge">
<title>Node13&#45;&gt;Node14</title>
<path fill="none" stroke="midnightblue" d="M437.08,-129.48C458.3,-126.99 481.32,-124.29 503.03,-121.74"/>
<polygon fill="midnightblue" stroke="midnightblue" points="503.72,-125.18 513.24,-120.54 502.9,-118.23 503.72,-125.18"/>
</g>
<!-- Node15 -->
<g id="node15" class="node">
<title>Node15</title>
<g id="a_node15"><a xlink:href="../../da/da6/a01522.html#ad7153135a70c477199288d2e0a219203" target="_top" xlink:title=" ">
<polygon fill="none" stroke="black" points="733,-63.5 733,-82.5 918,-82.5 918,-63.5 733,-63.5"/>
<text text-anchor="middle" x="825.5" y="-70.5" font-family="Helvetica,sans-Serif" font-size="10.00">com.cliffc.aa.type.TypeStruct.open</text>
</a>
</g>
</g>
<!-- Node13&#45;&gt;Node15 -->
<g id="edge27" class="edge">
<title>Node13&#45;&gt;Node15</title>
<path fill="none" stroke="midnightblue" d="M377.96,-129.44C404.77,-118.27 451.77,-100.25 494,-92 569.63,-77.23 656.7,-72.72 722.47,-71.77"/>
<polygon fill="midnightblue" stroke="midnightblue" points="722.89,-75.27 732.84,-71.65 722.8,-68.27 722.89,-75.27"/>
</g>
<!-- Node14&#45;&gt;Node2 -->
<g id="edge18" class="edge">
<title>Node14&#45;&gt;Node2</title>
<path fill="none" stroke="midnightblue" d="M635.44,-120.56C674.29,-130.11 734.09,-144.79 776.01,-155.09"/>
<polygon fill="midnightblue" stroke="midnightblue" points="775.18,-158.49 785.73,-157.48 776.85,-151.69 775.18,-158.49"/>
</g>
<!-- Node14&#45;&gt;Node14 -->
<g id="edge19" class="edge">
<title>Node14&#45;&gt;Node14</title>
<path fill="none" stroke="midnightblue" d="M560.34,-120.61C542.68,-129.46 554.4,-139 595.5,-139 626.33,-139 640.63,-133.63 638.4,-127.22"/>
<polygon fill="midnightblue" stroke="midnightblue" points="640.54,-124.44 630.66,-120.61 635.99,-129.77 640.54,-124.44"/>
</g>
<!-- Node14&#45;&gt;Node15 -->
<g id="edge20" class="edge">
<title>Node14&#45;&gt;Node15</title>
<path fill="none" stroke="midnightblue" d="M653.74,-101.46C685.18,-96.22 724.35,-89.69 757.25,-84.21"/>
<polygon fill="midnightblue" stroke="midnightblue" points="757.95,-87.64 767.24,-82.54 756.8,-80.74 757.95,-87.64"/>
</g>
<!-- Node15&#45;&gt;Node8 -->
<g id="edge26" class="edge">
<title>Node15&#45;&gt;Node8</title>
<path fill="none" stroke="midnightblue" d="M905.56,-82.53C987.37,-93.47 1108.72,-113.02 1149,-137 1202.49,-168.84 1243.12,-233.01 1261,-264.99"/>
<polygon fill="midnightblue" stroke="midnightblue" points="1258.14,-267.05 1265.99,-274.16 1264.28,-263.7 1258.14,-267.05"/>
</g>
<!-- Node16 -->
<g id="node16" class="node">
<title>Node16</title>
<g id="a_node16"><a xlink:href="../../da/da6/a01522.html#a7f8e1f0000812b5468e8eaca07dd28f3" target="_top" xlink:title=" ">
<polygon fill="none" stroke="black" points="957.5,-38.5 957.5,-57.5 1145.5,-57.5 1145.5,-38.5 957.5,-38.5"/>
<text text-anchor="middle" x="1051.5" y="-45.5" font-family="Helvetica,sans-Serif" font-size="10.00">com.cliffc.aa.type.TypeStruct.make</text>
</a>
</g>
</g>
<!-- Node15&#45;&gt;Node16 -->
<g id="edge21" class="edge">
<title>Node15&#45;&gt;Node16</title>
<path fill="none" stroke="midnightblue" d="M911.82,-63.48C925.85,-61.91 940.47,-60.28 954.73,-58.69"/>
<polygon fill="midnightblue" stroke="midnightblue" points="955.49,-62.13 965.04,-57.54 954.72,-55.17 955.49,-62.13"/>
</g>
<!-- Node17 -->
<g id="node17" class="node">
<title>Node17</title>
<g id="a_node17"><a xlink:href="../../d7/dd1/a01458.html#ae33cca2c9d7c59fe30da706c1c4d9bf2" target="_top" xlink:title=" ">
<polygon fill="none" stroke="black" points="954,-0.5 954,-19.5 1149,-19.5 1149,-0.5 954,-0.5"/>
<text text-anchor="middle" x="1051.5" y="-7.5" font-family="Helvetica,sans-Serif" font-size="10.00">com.cliffc.aa.type.TypeFld.make_tup</text>
</a>
</g>
</g>
<!-- Node15&#45;&gt;Node17 -->
<g id="edge23" class="edge">
<title>Node15&#45;&gt;Node17</title>
<path fill="none" stroke="midnightblue" d="M851.1,-63.37C876.55,-53.69 917.6,-38.81 954,-29 964.06,-26.29 974.8,-23.79 985.33,-21.56"/>
<polygon fill="midnightblue" stroke="midnightblue" points="986.25,-24.94 995.34,-19.5 984.84,-18.09 986.25,-24.94"/>
</g>
<!-- Node16&#45;&gt;Node16 -->
<g id="edge22" class="edge">
<title>Node16&#45;&gt;Node16</title>
<path fill="none" stroke="midnightblue" d="M1017.87,-57.61C1000.97,-66.46 1012.18,-76 1051.5,-76 1080.37,-76 1094.09,-70.86 1092.65,-64.62"/>
<polygon fill="midnightblue" stroke="midnightblue" points="1094.83,-61.87 1085.13,-57.61 1090.06,-66.99 1094.83,-61.87"/>
</g>
<!-- Node18 -->
<g id="node18" class="node">
<title>Node18</title>
<g id="a_node18"><a xlink:href="../../d7/dd1/a01458.html#a68cd98652ac4a01ee6b4dd90bb553dae" target="_top" xlink:title=" ">
<polygon fill="none" stroke="black" points="1185,-0.5 1185,-19.5 1359,-19.5 1359,-0.5 1185,-0.5"/>
<text text-anchor="middle" x="1272" y="-7.5" font-family="Helvetica,sans-Serif" font-size="10.00">com.cliffc.aa.type.TypeFld.make</text>
</a>
</g>
</g>
<!-- Node17&#45;&gt;Node18 -->
<g id="edge24" class="edge">
<title>Node17&#45;&gt;Node18</title>
<path fill="none" stroke="midnightblue" d="M1149.29,-10C1157.73,-10 1166.27,-10 1174.71,-10"/>
<polygon fill="midnightblue" stroke="midnightblue" points="1174.93,-13.5 1184.93,-10 1174.93,-6.5 1174.93,-13.5"/>
</g>
<!-- Node18&#45;&gt;Node18 -->
<g id="edge25" class="edge">
<title>Node18&#45;&gt;Node18</title>
<path fill="none" stroke="midnightblue" d="M1240.2,-19.61C1224.23,-28.46 1234.83,-38 1272,-38 1298.72,-38 1311.71,-33.07 1310.97,-27.01"/>
<polygon fill="midnightblue" stroke="midnightblue" points="1313.27,-24.36 1303.8,-19.61 1308.24,-29.23 1313.27,-24.36"/>
</g>
</g>
</svg>
