<?xml version="1.0" encoding="UTF-8" standalone="no"?>
<!DOCTYPE svg PUBLIC "-//W3C//DTD SVG 1.1//EN"
 "http://www.w3.org/Graphics/SVG/1.1/DTD/svg11.dtd">
<!-- Generated by graphviz version 2.43.0 (0)
 -->
<!-- Title: com.cliffc.aa.type.TypeStruct.make Pages: 1 -->
<svg width="802pt" height="109pt"
 viewBox="0.00 0.00 802.00 108.50" xmlns="http://www.w3.org/2000/svg" xmlns:xlink="http://www.w3.org/1999/xlink">
<g id="graph0" class="graph" transform="scale(1 1) rotate(0) translate(4 104.5)">
<title>com.cliffc.aa.type.TypeStruct.make</title>
<!-- Node1 -->
<g id="node1" class="node">
<title>Node1</title>
<g id="a_node1"><a xlink:title=" ">
<polygon fill="#bfbfbf" stroke="black" points="0,-44 0,-63 188,-63 188,-44 0,-44"/>
<text text-anchor="middle" x="94" y="-51" font-family="Helvetica,sans-Serif" font-size="10.00">com.cliffc.aa.type.TypeStruct.make</text>
</a>
</g>
</g>
<!-- Node1&#45;&gt;Node1 -->
<g id="edge3" class="edge">
<title>Node1&#45;&gt;Node1</title>
<path fill="none" stroke="midnightblue" d="M60.98,-63.11C44.39,-71.96 55.4,-81.5 94,-81.5 122.35,-81.5 135.81,-76.36 134.4,-70.12"/>
<polygon fill="midnightblue" stroke="midnightblue" points="136.68,-67.46 127.02,-63.11 131.86,-72.54 136.68,-67.46"/>
</g>
<!-- Node2 -->
<g id="node2" class="node">
<title>Node2</title>
<g id="a_node2"><a xlink:href="../../d7/dd1/a01458.html#a68cd98652ac4a01ee6b4dd90bb553dae" target="_top" xlink:title=" ">
<polygon fill="none" stroke="black" points="224,-63 224,-82 398,-82 398,-63 224,-63"/>
<text text-anchor="middle" x="311" y="-70" font-family="Helvetica,sans-Serif" font-size="10.00">com.cliffc.aa.type.TypeFld.make</text>
</a>
</g>
</g>
<!-- Node1&#45;&gt;Node2 -->
<g id="edge1" class="edge">
<title>Node1&#45;&gt;Node2</title>
<path fill="none" stroke="midnightblue" d="M188.05,-61.72C196.62,-62.48 205.31,-63.25 213.9,-64.01"/>
<polygon fill="midnightblue" stroke="midnightblue" points="213.65,-67.5 223.92,-64.89 214.27,-60.53 213.65,-67.5"/>
</g>
<!-- Node3 -->
<g id="node3" class="node">
<title>Node3</title>
<g id="a_node3"><a xlink:href="../../d5/d67/a01466.html#aae9c15c127f99a9ce4687428f9150fa5" target="_top" xlink:title=" ">
<polygon fill="none" stroke="black" points="230.5,-25 230.5,-44 391.5,-44 391.5,-25 230.5,-25"/>
<text text-anchor="middle" x="311" y="-32" font-family="Helvetica,sans-Serif" font-size="10.00">com.cliffc.aa.type.TypeFlds.ts</text>
</a>
</g>
</g>
<!-- Node1&#45;&gt;Node3 -->
<g id="edge4" class="edge">
<title>Node1&#45;&gt;Node3</title>
<path fill="none" stroke="midnightblue" d="M188.05,-45.28C198.72,-44.33 209.57,-43.37 220.19,-42.44"/>
<polygon fill="midnightblue" stroke="midnightblue" points="220.64,-45.91 230.29,-41.54 220.02,-38.94 220.64,-45.91"/>
</g>
<!-- Node2&#45;&gt;Node2 -->
<g id="edge2" class="edge">
<title>Node2&#45;&gt;Node2</title>
<path fill="none" stroke="midnightblue" d="M279.2,-82.11C263.23,-90.96 273.83,-100.5 311,-100.5 337.72,-100.5 350.71,-95.57 349.97,-89.51"/>
<polygon fill="midnightblue" stroke="midnightblue" points="352.27,-86.86 342.8,-82.11 347.24,-91.73 352.27,-86.86"/>
</g>
<!-- Node4 -->
<g id="node4" class="node">
<title>Node4</title>
<g id="a_node4"><a xlink:href="../../d5/d67/a01466.html#aa4690362ae6b60d7c29aaba6b6b41dfb" target="_top" xlink:title=" ">
<polygon fill="none" stroke="black" points="436,-44 436,-63 604,-63 604,-44 436,-44"/>
<text text-anchor="middle" x="520" y="-51" font-family="Helvetica,sans-Serif" font-size="10.00">com.cliffc.aa.type.TypeFlds.get</text>
</a>
</g>
</g>
<!-- Node3&#45;&gt;Node4 -->
<g id="edge5" class="edge">
<title>Node3&#45;&gt;Node4</title>
<path fill="none" stroke="midnightblue" d="M391.74,-41.82C402.92,-42.85 414.5,-43.91 425.91,-44.96"/>
<polygon fill="midnightblue" stroke="midnightblue" points="425.6,-48.44 435.88,-45.87 426.24,-41.47 425.6,-48.44"/>
</g>
<!-- Node5 -->
<g id="node5" class="node">
<title>Node5</title>
<g id="a_node5"><a xlink:href="../../d5/d67/a01466.html#a7635be6e4a0ff98f908dbdbe136a11d0" target="_top" xlink:title=" ">
<polygon fill="none" stroke="black" points="434,-6 434,-25 606,-25 606,-6 434,-6"/>
<text text-anchor="middle" x="520" y="-13" font-family="Helvetica,sans-Serif" font-size="10.00">com.cliffc.aa.type.TypeFlds.tary</text>
</a>
</g>
</g>
<!-- Node3&#45;&gt;Node5 -->
<g id="edge6" class="edge">
<title>Node3&#45;&gt;Node5</title>
<path fill="none" stroke="midnightblue" d="M391.74,-27.18C402.18,-26.22 412.96,-25.23 423.63,-24.25"/>
<polygon fill="midnightblue" stroke="midnightblue" points="424.17,-27.72 433.81,-23.32 423.53,-20.75 424.17,-27.72"/>
</g>
<!-- Node6 -->
<g id="node6" class="node">
<title>Node6</title>
<g id="a_node6"><a xlink:href="../../d5/d67/a01466.html#adb7e8e0bcb616710cc42cd7f670936e0" target="_top" xlink:title=" ">
<polygon fill="none" stroke="black" points="642,-0.5 642,-30.5 794,-30.5 794,-0.5 642,-0.5"/>
<text text-anchor="start" x="650" y="-18.5" font-family="Helvetica,sans-Serif" font-size="10.00">com.cliffc.aa.type.TypeFlds.</text>
<text text-anchor="middle" x="718" y="-7.5" font-family="Helvetica,sans-Serif" font-size="10.00">TypeFlds</text>
</a>
</g>
</g>
<!-- Node5&#45;&gt;Node6 -->
<g id="edge7" class="edge">
<title>Node5&#45;&gt;Node6</title>
<path fill="none" stroke="midnightblue" d="M606.11,-15.5C614.56,-15.5 623.14,-15.5 631.59,-15.5"/>
<polygon fill="midnightblue" stroke="midnightblue" points="631.81,-19 641.81,-15.5 631.81,-12 631.81,-19"/>
</g>
</g>
</svg>
