<?xml version="1.0" encoding="UTF-8" standalone="no"?>
<!DOCTYPE svg PUBLIC "-//W3C//DTD SVG 1.1//EN"
 "http://www.w3.org/Graphics/SVG/1.1/DTD/svg11.dtd">
<!-- Generated by graphviz version 2.43.0 (0)
 -->
<!-- Title: com.cliffc.aa.type.TypeStruct.len0 Pages: 1 -->
<svg width="1557pt" height="1160pt"
 viewBox="0.00 0.00 1557.00 1159.50" xmlns="http://www.w3.org/2000/svg" xmlns:xlink="http://www.w3.org/1999/xlink">
<g id="graph0" class="graph" transform="scale(1 1) rotate(0) translate(4 1155.5)">
<title>com.cliffc.aa.type.TypeStruct.len0</title>
<!-- Node1 -->
<g id="node1" class="node">
<title>Node1</title>
<g id="a_node1"><a xlink:title=" ">
<polygon fill="#bfbfbf" stroke="black" points="1367,-184 1367,-203 1549,-203 1549,-184 1367,-184"/>
<text text-anchor="middle" x="1458" y="-191" font-family="Helvetica,sans-Serif" font-size="10.00">com.cliffc.aa.type.TypeStruct.len0</text>
</a>
</g>
</g>
<!-- Node2 -->
<g id="node2" class="node">
<title>Node2</title>
<g id="a_node2"><a xlink:href="../../da/da6/a01522.html#ac198bf75224be957327b2373462d74a8" target="_top" xlink:title=" ">
<polygon fill="none" stroke="black" points="1155,-184 1155,-203 1331,-203 1331,-184 1155,-184"/>
<text text-anchor="middle" x="1243" y="-191" font-family="Helvetica,sans-Serif" font-size="10.00">com.cliffc.aa.type.TypeStruct.len</text>
</a>
</g>
</g>
<!-- Node1&#45;&gt;Node2 -->
<g id="edge1" class="edge">
<title>Node1&#45;&gt;Node2</title>
<path fill="none" stroke="midnightblue" d="M1356.96,-193.5C1348.4,-193.5 1339.78,-193.5 1331.32,-193.5"/>
<polygon fill="midnightblue" stroke="midnightblue" points="1356.98,-197 1366.98,-193.5 1356.98,-190 1356.98,-197"/>
</g>
<!-- Node3 -->
<g id="node3" class="node">
<title>Node3</title>
<g id="a_node3"><a xlink:href="../../da/da6/a01522.html#a8ce555e6e87cfc2e386d76d536fa88c9" target="_top" xlink:title=" ">
<polygon fill="none" stroke="black" points="908,-310 908,-329 1111,-329 1111,-310 908,-310"/>
<text text-anchor="middle" x="1009.5" y="-317" font-family="Helvetica,sans-Serif" font-size="10.00">com.cliffc.aa.type.TypeStruct.ax_meet</text>
</a>
</g>
</g>
<!-- Node2&#45;&gt;Node3 -->
<g id="edge2" class="edge">
<title>Node2&#45;&gt;Node3</title>
<path fill="none" stroke="midnightblue" d="M1227.69,-210.84C1206.61,-235.12 1164.71,-278.72 1119,-300.5 1110.8,-304.41 1101.91,-307.52 1092.86,-310"/>
<polygon fill="midnightblue" stroke="midnightblue" points="1230.44,-213.01 1234.25,-203.12 1225.11,-208.47 1230.44,-213.01"/>
</g>
<!-- Node32 -->
<g id="node32" class="node">
<title>Node32</title>
<g id="a_node32"><a xlink:href="../../d4/d8a/a01062.html#a940f72f7e41cd0b0785d4a9e717d0d40" target="_top" xlink:title=" ">
<polygon fill="none" stroke="black" points="928.5,-260.5 928.5,-290.5 1090.5,-290.5 1090.5,-260.5 928.5,-260.5"/>
<text text-anchor="start" x="936.5" y="-278.5" font-family="Helvetica,sans-Serif" font-size="10.00">com.cliffc.aa.node.Intrinsic</text>
<text text-anchor="middle" x="1009.5" y="-267.5" font-family="Helvetica,sans-Serif" font-size="10.00">Node.convertTypeNameStruct</text>
</a>
</g>
</g>
<!-- Node2&#45;&gt;Node32 -->
<g id="edge33" class="edge">
<title>Node2&#45;&gt;Node32</title>
<path fill="none" stroke="midnightblue" d="M1215.12,-207.94C1190.64,-220.6 1153.2,-238.78 1119,-250.5 1108.21,-254.2 1096.63,-257.52 1085.2,-260.44"/>
<polygon fill="midnightblue" stroke="midnightblue" points="1216.91,-210.95 1224.15,-203.21 1213.67,-204.75 1216.91,-210.95"/>
</g>
<!-- Node35 -->
<g id="node35" class="node">
<title>Node35</title>
<g id="a_node35"><a xlink:href="../../da/da6/a01522.html#ade981dabd9a97a805a45ce120a716195" target="_top" xlink:title=" ">
<polygon fill="none" stroke="black" points="900,-222 900,-241 1119,-241 1119,-222 900,-222"/>
<text text-anchor="middle" x="1009.5" y="-229" font-family="Helvetica,sans-Serif" font-size="10.00">com.cliffc.aa.type.TypeStruct.cyclic_meet</text>
</a>
</g>
</g>
<!-- Node2&#45;&gt;Node35 -->
<g id="edge36" class="edge">
<title>Node2&#45;&gt;Node35</title>
<path fill="none" stroke="midnightblue" d="M1173.74,-204.7C1140.34,-210.19 1100.57,-216.72 1068.64,-221.96"/>
<polygon fill="midnightblue" stroke="midnightblue" points="1174.58,-208.11 1183.88,-203.04 1173.45,-201.21 1174.58,-208.11"/>
</g>
<!-- Node37 -->
<g id="node37" class="node">
<title>Node37</title>
<g id="a_node37"><a xlink:href="../../d7/d90/a01530.html#adbcc157c0393f31b503b2cfc4b22e86c" target="_top" xlink:title=" ">
<polygon fill="none" stroke="black" points="917,-184 917,-203 1102,-203 1102,-184 917,-184"/>
<text text-anchor="middle" x="1009.5" y="-191" font-family="Helvetica,sans-Serif" font-size="10.00">com.cliffc.aa.type.TypeTuple.make</text>
</a>
</g>
</g>
<!-- Node2&#45;&gt;Node37 -->
<g id="edge38" class="edge">
<title>Node2&#45;&gt;Node37</title>
<path fill="none" stroke="midnightblue" d="M1144.66,-193.5C1130.6,-193.5 1116.18,-193.5 1102.25,-193.5"/>
<polygon fill="midnightblue" stroke="midnightblue" points="1144.81,-197 1154.81,-193.5 1144.81,-190 1144.81,-197"/>
</g>
<!-- Node38 -->
<g id="node38" class="node">
<title>Node38</title>
<g id="a_node38"><a xlink:href="../../dd/de2/a01134.html#a2db7c7f623cc9a9a1a557439efe1a680" target="_top" xlink:title=" ">
<polygon fill="none" stroke="black" points="936,-134.5 936,-164.5 1083,-164.5 1083,-134.5 936,-134.5"/>
<text text-anchor="start" x="944" y="-152.5" font-family="Helvetica,sans-Serif" font-size="10.00">com.cliffc.aa.node.NewObj</text>
<text text-anchor="middle" x="1009.5" y="-141.5" font-family="Helvetica,sans-Serif" font-size="10.00">Node.promote_forward</text>
</a>
</g>
</g>
<!-- Node2&#45;&gt;Node38 -->
<g id="edge39" class="edge">
<title>Node2&#45;&gt;Node38</title>
<path fill="none" stroke="midnightblue" d="M1181.8,-182.06C1151.6,-176.32 1114.79,-169.32 1083.04,-163.29"/>
<polygon fill="midnightblue" stroke="midnightblue" points="1181.29,-185.52 1191.77,-183.95 1182.6,-178.65 1181.29,-185.52"/>
</g>
<!-- Node41 -->
<g id="node41" class="node">
<title>Node41</title>
<g id="a_node41"><a xlink:href="../../d9/d9a/a00998.html#ab91ccb27ae052176deeaf9382b2f8165" target="_top" xlink:title=" ">
<polygon fill="none" stroke="black" points="927,-67.5 927,-97.5 1092,-97.5 1092,-67.5 927,-67.5"/>
<text text-anchor="start" x="935" y="-85.5" font-family="Helvetica,sans-Serif" font-size="10.00">com.cliffc.aa.HM.HM9.T2.walk</text>
<text text-anchor="middle" x="1009.5" y="-74.5" font-family="Helvetica,sans-Serif" font-size="10.00">_types_out</text>
</a>
</g>
</g>
<!-- Node2&#45;&gt;Node41 -->
<g id="edge42" class="edge">
<title>Node2&#45;&gt;Node41</title>
<path fill="none" stroke="midnightblue" d="M1217.39,-178.67C1192.9,-164.21 1154.02,-142.04 1119,-125.5 1097.29,-115.25 1072.43,-105.27 1051.99,-97.52"/>
<polygon fill="midnightblue" stroke="midnightblue" points="1215.65,-181.71 1226.03,-183.81 1219.22,-175.69 1215.65,-181.71"/>
</g>
<!-- Node43 -->
<g id="node43" class="node">
<title>Node43</title>
<g id="a_node43"><a xlink:href="../../d6/d90/a00514.html#aa0bdecbeeba56f110f4d5d11c9acb866" target="_top" xlink:title=" ">
<polygon fill="none" stroke="black" points="930,-0.5 930,-30.5 1089,-30.5 1089,-0.5 930,-0.5"/>
<text text-anchor="start" x="938" y="-18.5" font-family="Helvetica,sans-Serif" font-size="10.00">com.cliffc.aa.HM.HM.T2.walk</text>
<text text-anchor="middle" x="1009.5" y="-7.5" font-family="Helvetica,sans-Serif" font-size="10.00">_types_out</text>
</a>
</g>
</g>
<!-- Node2&#45;&gt;Node43 -->
<g id="edge45" class="edge">
<title>Node2&#45;&gt;Node43</title>
<path fill="none" stroke="midnightblue" d="M1229.73,-175.42C1209.62,-147 1167.05,-91.7 1119,-58.5 1101.83,-46.64 1080.91,-37.36 1062.04,-30.51"/>
<polygon fill="midnightblue" stroke="midnightblue" points="1227.09,-177.75 1235.67,-183.96 1232.83,-173.75 1227.09,-177.75"/>
</g>
<!-- Node4 -->
<g id="node4" class="node">
<title>Node4</title>
<g id="a_node4"><a xlink:href="../../da/da6/a01522.html#a0f02d84ec88b635a8d3a8bde3e81e7de" target="_top" xlink:title=" ">
<polygon fill="none" stroke="black" points="681.5,-305.5 681.5,-335.5 854.5,-335.5 854.5,-305.5 681.5,-305.5"/>
<text text-anchor="start" x="689.5" y="-323.5" font-family="Helvetica,sans-Serif" font-size="10.00">com.cliffc.aa.type.TypeStruct.ax</text>
<text text-anchor="middle" x="768" y="-312.5" font-family="Helvetica,sans-Serif" font-size="10.00">_impl_struct</text>
</a>
</g>
</g>
<!-- Node3&#45;&gt;Node4 -->
<g id="edge3" class="edge">
<title>Node3&#45;&gt;Node4</title>
<path fill="none" stroke="midnightblue" d="M897.57,-319.96C883.22,-320.02 868.7,-320.08 854.85,-320.14"/>
<polygon fill="midnightblue" stroke="midnightblue" points="897.99,-323.46 907.97,-319.92 897.96,-316.46 897.99,-323.46"/>
</g>
<!-- Node5 -->
<g id="node5" class="node">
<title>Node5</title>
<g id="a_node5"><a xlink:href="../../da/da6/a01522.html#a48db251858f656af25e71c34cda0325d" target="_top" xlink:title=" ">
<polygon fill="none" stroke="black" points="442,-627 442,-646 636,-646 636,-627 442,-627"/>
<text text-anchor="middle" x="539" y="-634" font-family="Helvetica,sans-Serif" font-size="10.00">com.cliffc.aa.type.TypeStruct.approx</text>
</a>
</g>
</g>
<!-- Node4&#45;&gt;Node5 -->
<g id="edge4" class="edge">
<title>Node4&#45;&gt;Node5</title>
<path fill="none" stroke="midnightblue" d="M750.11,-344.01C704.13,-408.02 578.04,-583.54 546.98,-626.78"/>
<polygon fill="midnightblue" stroke="midnightblue" points="753.06,-345.91 756.05,-335.74 747.37,-341.82 753.06,-345.91"/>
</g>
<!-- Node30 -->
<g id="node30" class="node">
<title>Node30</title>
<g id="a_node30"><a xlink:href="../../da/da6/a01522.html#a34d685f435ab079bd2e8afb996727f69" target="_top" xlink:title=" ">
<polygon fill="none" stroke="black" points="452.5,-305.5 452.5,-335.5 625.5,-335.5 625.5,-305.5 452.5,-305.5"/>
<text text-anchor="start" x="460.5" y="-323.5" font-family="Helvetica,sans-Serif" font-size="10.00">com.cliffc.aa.type.TypeStruct.ax</text>
<text text-anchor="middle" x="539" y="-312.5" font-family="Helvetica,sans-Serif" font-size="10.00">_impl_ptr</text>
</a>
</g>
</g>
<!-- Node4&#45;&gt;Node30 -->
<g id="edge29" class="edge">
<title>Node4&#45;&gt;Node30</title>
<path fill="none" stroke="midnightblue" d="M670.85,-313.82C655.81,-313.7 640.35,-313.74 625.56,-313.94"/>
<polygon fill="midnightblue" stroke="midnightblue" points="671.14,-317.32 681.18,-313.93 671.22,-310.32 671.14,-317.32"/>
</g>
<!-- Node6 -->
<g id="node6" class="node">
<title>Node6</title>
<g id="a_node6"><a xlink:href="../../d9/d3b/a01650.html#a9579935a098ba379d210781829315449" target="_top" xlink:title=" ">
<polygon fill="none" stroke="black" points="227.5,-1069.5 227.5,-1099.5 391.5,-1099.5 391.5,-1069.5 227.5,-1069.5"/>
<text text-anchor="start" x="235.5" y="-1087.5" font-family="Helvetica,sans-Serif" font-size="10.00">com.cliffc.aa.HM.TestHM.build</text>
<text text-anchor="middle" x="309.5" y="-1076.5" font-family="Helvetica,sans-Serif" font-size="10.00">_cycle</text>
</a>
</g>
</g>
<!-- Node5&#45;&gt;Node6 -->
<g id="edge5" class="edge">
<title>Node5&#45;&gt;Node6</title>
<path fill="none" stroke="midnightblue" d="M534.86,-656.4C524.84,-714.99 489.26,-890.15 406,-1007.5 387.52,-1033.56 357.9,-1055.51 336.55,-1069.23"/>
<polygon fill="midnightblue" stroke="midnightblue" points="538.35,-656.72 536.53,-646.28 531.45,-655.58 538.35,-656.72"/>
</g>
<!-- Node10 -->
<g id="node10" class="node">
<title>Node10</title>
<g id="a_node10"><a xlink:href="../../d0/d31/a01686.html#ad9e2d24c2e8832354d1519304a1aecdc" target="_top" xlink:title=" ">
<polygon fill="none" stroke="black" points="224.5,-967.5 224.5,-997.5 394.5,-997.5 394.5,-967.5 224.5,-967.5"/>
<text text-anchor="start" x="232.5" y="-985.5" font-family="Helvetica,sans-Serif" font-size="10.00">com.cliffc.aa.HM.TestHM9.build</text>
<text text-anchor="middle" x="309.5" y="-974.5" font-family="Helvetica,sans-Serif" font-size="10.00">_cycle</text>
</a>
</g>
</g>
<!-- Node5&#45;&gt;Node10 -->
<g id="edge9" class="edge">
<title>Node5&#45;&gt;Node10</title>
<path fill="none" stroke="midnightblue" d="M535.05,-655.97C525.92,-709.61 493.33,-861.1 406,-945.5 396.16,-955.01 383.59,-962.15 370.84,-967.48"/>
<polygon fill="midnightblue" stroke="midnightblue" points="538.51,-656.5 536.65,-646.07 531.6,-655.39 538.51,-656.5"/>
</g>
<!-- Node14 -->
<g id="node14" class="node">
<title>Node14</title>
<g id="a_node14"><a xlink:href="../../d9/d3b/a01650.html#adf9144a428be6fe23af8cf8d4d3c0a50" target="_top" xlink:title=" ">
<polygon fill="none" stroke="black" points="227.5,-905.5 227.5,-935.5 391.5,-935.5 391.5,-905.5 227.5,-905.5"/>
<text text-anchor="start" x="235.5" y="-923.5" font-family="Helvetica,sans-Serif" font-size="10.00">com.cliffc.aa.HM.TestHM.build</text>
<text text-anchor="middle" x="309.5" y="-912.5" font-family="Helvetica,sans-Serif" font-size="10.00">_cycle2</text>
</a>
</g>
</g>
<!-- Node5&#45;&gt;Node14 -->
<g id="edge13" class="edge">
<title>Node5&#45;&gt;Node14</title>
<path fill="none" stroke="midnightblue" d="M533.9,-655.82C522.6,-704.11 486.42,-830.76 406,-895.5 401.19,-899.37 395.85,-902.64 390.22,-905.42"/>
<polygon fill="midnightblue" stroke="midnightblue" points="537.32,-656.56 536.09,-646.03 530.49,-655.03 537.32,-656.56"/>
</g>
<!-- Node17 -->
<g id="node17" class="node">
<title>Node17</title>
<g id="a_node17"><a xlink:href="../../d0/d31/a01686.html#a81f1000fbebecbd82db8ed59a1858dc5" target="_top" xlink:title=" ">
<polygon fill="none" stroke="black" points="221,-867 221,-886 398,-886 398,-867 221,-867"/>
<text text-anchor="middle" x="309.5" y="-874" font-family="Helvetica,sans-Serif" font-size="10.00">com.cliffc.aa.HM.TestHM9.test36</text>
</a>
</g>
</g>
<!-- Node5&#45;&gt;Node17 -->
<g id="edge16" class="edge">
<title>Node5&#45;&gt;Node17</title>
<path fill="none" stroke="midnightblue" d="M532.31,-656.17C518.54,-700.02 479.05,-805.96 406,-857.5 400.61,-861.3 394.65,-864.38 388.41,-866.88"/>
<polygon fill="midnightblue" stroke="midnightblue" points="535.71,-657.02 535.26,-646.43 529.01,-654.99 535.71,-657.02"/>
</g>
<!-- Node18 -->
<g id="node18" class="node">
<title>Node18</title>
<g id="a_node18"><a xlink:href="../../db/d7f/a01718.html#aacfe55cc6126f7ad0768785180fe10ea" target="_top" xlink:title=" ">
<polygon fill="none" stroke="black" points="218.5,-817.5 218.5,-847.5 400.5,-847.5 400.5,-817.5 218.5,-817.5"/>
<text text-anchor="start" x="226.5" y="-835.5" font-family="Helvetica,sans-Serif" font-size="10.00">com.cliffc.aa.type.TestApprox.test</text>
<text text-anchor="middle" x="309.5" y="-824.5" font-family="Helvetica,sans-Serif" font-size="10.00">Approx1</text>
</a>
</g>
</g>
<!-- Node5&#45;&gt;Node18 -->
<g id="edge17" class="edge">
<title>Node5&#45;&gt;Node18</title>
<path fill="none" stroke="midnightblue" d="M528.97,-655.4C510.89,-691.15 466.7,-768.62 406,-808.5 400.71,-811.97 394.96,-814.94 388.99,-817.48"/>
<polygon fill="midnightblue" stroke="midnightblue" points="532.27,-656.63 533.55,-646.11 525.99,-653.53 532.27,-656.63"/>
</g>
<!-- Node19 -->
<g id="node19" class="node">
<title>Node19</title>
<g id="a_node19"><a xlink:href="../../db/d7f/a01718.html#adb28674de27028a6e4f608e64a5b28b8" target="_top" xlink:title=" ">
<polygon fill="none" stroke="black" points="218.5,-768.5 218.5,-798.5 400.5,-798.5 400.5,-768.5 218.5,-768.5"/>
<text text-anchor="start" x="226.5" y="-786.5" font-family="Helvetica,sans-Serif" font-size="10.00">com.cliffc.aa.type.TestApprox.test</text>
<text text-anchor="middle" x="309.5" y="-775.5" font-family="Helvetica,sans-Serif" font-size="10.00">Approx2</text>
</a>
</g>
</g>
<!-- Node5&#45;&gt;Node19 -->
<g id="edge18" class="edge">
<title>Node5&#45;&gt;Node19</title>
<path fill="none" stroke="midnightblue" d="M524.27,-654.04C502.26,-680.93 456.4,-732.08 406,-759.5 399.69,-762.93 392.88,-765.88 385.91,-768.42"/>
<polygon fill="midnightblue" stroke="midnightblue" points="527.01,-656.21 530.55,-646.23 521.56,-651.83 527.01,-656.21"/>
</g>
<!-- Node20 -->
<g id="node20" class="node">
<title>Node20</title>
<g id="a_node20"><a xlink:href="../../db/d7f/a01718.html#a7a622bd5ab1efca400f72041842fc857" target="_top" xlink:title=" ">
<polygon fill="none" stroke="black" points="218.5,-719.5 218.5,-749.5 400.5,-749.5 400.5,-719.5 218.5,-719.5"/>
<text text-anchor="start" x="226.5" y="-737.5" font-family="Helvetica,sans-Serif" font-size="10.00">com.cliffc.aa.type.TestApprox.test</text>
<text text-anchor="middle" x="309.5" y="-726.5" font-family="Helvetica,sans-Serif" font-size="10.00">Approx3</text>
</a>
</g>
</g>
<!-- Node5&#45;&gt;Node20 -->
<g id="edge19" class="edge">
<title>Node5&#45;&gt;Node20</title>
<path fill="none" stroke="midnightblue" d="M515.39,-651.63C489.82,-668.16 446.44,-694.41 406,-710.5 397.58,-713.85 388.55,-716.84 379.53,-719.48"/>
<polygon fill="midnightblue" stroke="midnightblue" points="517.52,-654.42 523.97,-646.02 513.69,-648.57 517.52,-654.42"/>
</g>
<!-- Node21 -->
<g id="node21" class="node">
<title>Node21</title>
<g id="a_node21"><a xlink:href="../../db/d7f/a01718.html#ae32950efb170e26ead9a1837c2981da3" target="_top" xlink:title=" ">
<polygon fill="none" stroke="black" points="218.5,-670.5 218.5,-700.5 400.5,-700.5 400.5,-670.5 218.5,-670.5"/>
<text text-anchor="start" x="226.5" y="-688.5" font-family="Helvetica,sans-Serif" font-size="10.00">com.cliffc.aa.type.TestApprox.test</text>
<text text-anchor="middle" x="309.5" y="-677.5" font-family="Helvetica,sans-Serif" font-size="10.00">Approx4</text>
</a>
</g>
</g>
<!-- Node5&#45;&gt;Node21 -->
<g id="edge20" class="edge">
<title>Node5&#45;&gt;Node21</title>
<path fill="none" stroke="midnightblue" d="M483.71,-648.19C452.78,-654.86 413.69,-663.27 380.47,-670.43"/>
<polygon fill="midnightblue" stroke="midnightblue" points="484.83,-651.53 493.87,-646.01 483.35,-644.69 484.83,-651.53"/>
</g>
<!-- Node22 -->
<g id="node22" class="node">
<title>Node22</title>
<g id="a_node22"><a xlink:href="../../db/d7f/a01718.html#acbd05feed9a8939d23ccf976d0cea28b" target="_top" xlink:title=" ">
<polygon fill="none" stroke="black" points="218.5,-621.5 218.5,-651.5 400.5,-651.5 400.5,-621.5 218.5,-621.5"/>
<text text-anchor="start" x="226.5" y="-639.5" font-family="Helvetica,sans-Serif" font-size="10.00">com.cliffc.aa.type.TestApprox.test</text>
<text text-anchor="middle" x="309.5" y="-628.5" font-family="Helvetica,sans-Serif" font-size="10.00">Approx5</text>
</a>
</g>
</g>
<!-- Node5&#45;&gt;Node22 -->
<g id="edge21" class="edge">
<title>Node5&#45;&gt;Node22</title>
<path fill="none" stroke="midnightblue" d="M431.84,-636.5C421.37,-636.5 410.8,-636.5 400.51,-636.5"/>
<polygon fill="midnightblue" stroke="midnightblue" points="431.85,-640 441.85,-636.5 431.85,-633 431.85,-640"/>
</g>
<!-- Node23 -->
<g id="node23" class="node">
<title>Node23</title>
<g id="a_node23"><a xlink:href="../../db/d7f/a01718.html#ae0977e1ffd74e7c001b33ac738c2f237" target="_top" xlink:title=" ">
<polygon fill="none" stroke="black" points="218.5,-572.5 218.5,-602.5 400.5,-602.5 400.5,-572.5 218.5,-572.5"/>
<text text-anchor="start" x="226.5" y="-590.5" font-family="Helvetica,sans-Serif" font-size="10.00">com.cliffc.aa.type.TestApprox.test</text>
<text text-anchor="middle" x="309.5" y="-579.5" font-family="Helvetica,sans-Serif" font-size="10.00">Approx6</text>
</a>
</g>
</g>
<!-- Node5&#45;&gt;Node23 -->
<g id="edge22" class="edge">
<title>Node5&#45;&gt;Node23</title>
<path fill="none" stroke="midnightblue" d="M483.71,-624.81C452.78,-618.14 413.69,-609.73 380.47,-602.57"/>
<polygon fill="midnightblue" stroke="midnightblue" points="483.35,-628.31 493.87,-626.99 484.83,-621.47 483.35,-628.31"/>
</g>
<!-- Node24 -->
<g id="node24" class="node">
<title>Node24</title>
<g id="a_node24"><a xlink:href="../../db/d7f/a01718.html#abc821828b6d07d62a7bd1ec5fb0762dd" target="_top" xlink:title=" ">
<polygon fill="none" stroke="black" points="218.5,-523.5 218.5,-553.5 400.5,-553.5 400.5,-523.5 218.5,-523.5"/>
<text text-anchor="start" x="226.5" y="-541.5" font-family="Helvetica,sans-Serif" font-size="10.00">com.cliffc.aa.type.TestApprox.test</text>
<text text-anchor="middle" x="309.5" y="-530.5" font-family="Helvetica,sans-Serif" font-size="10.00">Approx7</text>
</a>
</g>
</g>
<!-- Node5&#45;&gt;Node24 -->
<g id="edge23" class="edge">
<title>Node5&#45;&gt;Node24</title>
<path fill="none" stroke="midnightblue" d="M514.92,-621.4C489.23,-605.16 446.06,-579.53 406,-563.5 396.69,-559.78 386.65,-556.45 376.7,-553.53"/>
<polygon fill="midnightblue" stroke="midnightblue" points="513.24,-624.48 523.55,-626.92 517.01,-618.59 513.24,-624.48"/>
</g>
<!-- Node25 -->
<g id="node25" class="node">
<title>Node25</title>
<g id="a_node25"><a xlink:href="../../db/d7f/a01718.html#a8a139f05733ab330be9b591f80c96bfb" target="_top" xlink:title=" ">
<polygon fill="none" stroke="black" points="218.5,-474.5 218.5,-504.5 400.5,-504.5 400.5,-474.5 218.5,-474.5"/>
<text text-anchor="start" x="226.5" y="-492.5" font-family="Helvetica,sans-Serif" font-size="10.00">com.cliffc.aa.type.TestApprox.test</text>
<text text-anchor="middle" x="309.5" y="-481.5" font-family="Helvetica,sans-Serif" font-size="10.00">Approx8</text>
</a>
</g>
</g>
<!-- Node5&#45;&gt;Node25 -->
<g id="edge24" class="edge">
<title>Node5&#45;&gt;Node25</title>
<path fill="none" stroke="midnightblue" d="M523.91,-618.82C501.71,-592.15 455.92,-541.84 406,-514.5 398.93,-510.63 391.25,-507.34 383.4,-504.54"/>
<polygon fill="midnightblue" stroke="midnightblue" points="521.47,-621.36 530.51,-626.89 526.89,-616.93 521.47,-621.36"/>
</g>
<!-- Node26 -->
<g id="node26" class="node">
<title>Node26</title>
<g id="a_node26"><a xlink:href="../../d5/d29/a01722.html#ac1c1cba36e56a630ef0f08bda741f610" target="_top" xlink:title=" ">
<polygon fill="none" stroke="black" points="224.5,-425.5 224.5,-455.5 394.5,-455.5 394.5,-425.5 224.5,-425.5"/>
<text text-anchor="start" x="232.5" y="-443.5" font-family="Helvetica,sans-Serif" font-size="10.00">com.cliffc.aa.type.TestType.test</text>
<text text-anchor="middle" x="309.5" y="-432.5" font-family="Helvetica,sans-Serif" font-size="10.00">Recursive</text>
</a>
</g>
</g>
<!-- Node5&#45;&gt;Node26 -->
<g id="edge25" class="edge">
<title>Node5&#45;&gt;Node26</title>
<path fill="none" stroke="midnightblue" d="M528.9,-617.76C510.71,-582.32 466.34,-505.44 406,-465.5 400.14,-461.62 393.71,-458.34 387.04,-455.57"/>
<polygon fill="midnightblue" stroke="midnightblue" points="525.91,-619.6 533.52,-626.97 532.17,-616.46 525.91,-619.6"/>
</g>
<!-- Node27 -->
<g id="node27" class="node">
<title>Node27</title>
<g id="a_node27"><a xlink:href="../../d5/d29/a01722.html#af90585603d51828b3abcedd485657965" target="_top" xlink:title=" ">
<polygon fill="none" stroke="black" points="213,-387 213,-406 406,-406 406,-387 213,-387"/>
<text text-anchor="middle" x="309.5" y="-394" font-family="Helvetica,sans-Serif" font-size="10.00">com.cliffc.aa.type.TestType.testType</text>
</a>
</g>
</g>
<!-- Node5&#45;&gt;Node27 -->
<g id="edge26" class="edge">
<title>Node5&#45;&gt;Node27</title>
<path fill="none" stroke="midnightblue" d="M532.24,-616.97C518.34,-573.42 478.6,-468.16 406,-416.5 399.93,-412.18 393.12,-408.75 386.01,-406.04"/>
<polygon fill="midnightblue" stroke="midnightblue" points="528.93,-618.11 535.23,-626.64 535.62,-616.05 528.93,-618.11"/>
</g>
<!-- Node28 -->
<g id="node28" class="node">
<title>Node28</title>
<g id="a_node28"><a xlink:href="../../d0/df0/a00934.html#a11717743ffc034467903015829d151f8" target="_top" xlink:title=" ">
<polygon fill="none" stroke="black" points="223,-349 223,-368 396,-368 396,-349 223,-349"/>
<text text-anchor="middle" x="309.5" y="-356" font-family="Helvetica,sans-Serif" font-size="10.00">com.cliffc.aa.HM.HM9.Struct.val</text>
</a>
</g>
</g>
<!-- Node5&#45;&gt;Node28 -->
<g id="edge27" class="edge">
<title>Node5&#45;&gt;Node28</title>
<path fill="none" stroke="midnightblue" d="M534.12,-616.88C523.36,-567.92 488.32,-439.81 406,-377.5 401.01,-373.73 395.47,-370.64 389.64,-368.14"/>
<polygon fill="midnightblue" stroke="midnightblue" points="530.73,-617.75 536.21,-626.81 537.58,-616.31 530.73,-617.75"/>
</g>
<!-- Node29 -->
<g id="node29" class="node">
<title>Node29</title>
<g id="a_node29"><a xlink:href="../../d3/def/a00446.html#a531989e1fa38cf17b83b958f6de43274" target="_top" xlink:title=" ">
<polygon fill="none" stroke="black" points="226,-311 226,-330 393,-330 393,-311 226,-311"/>
<text text-anchor="middle" x="309.5" y="-318" font-family="Helvetica,sans-Serif" font-size="10.00">com.cliffc.aa.HM.HM.Struct.val</text>
</a>
</g>
</g>
<!-- Node5&#45;&gt;Node29 -->
<g id="edge28" class="edge">
<title>Node5&#45;&gt;Node29</title>
<path fill="none" stroke="midnightblue" d="M535.51,-616.97C527.57,-563.33 497.75,-412.86 406,-339.5 401.25,-335.7 395.94,-332.59 390.33,-330.06"/>
<polygon fill="midnightblue" stroke="midnightblue" points="532.04,-617.46 536.88,-626.88 538.98,-616.5 532.04,-617.46"/>
</g>
<!-- Node7 -->
<g id="node7" class="node">
<title>Node7</title>
<g id="a_node7"><a xlink:href="../../d9/d3b/a01650.html#afa5d1b73a77444b4c99506f1a7a92926" target="_top" xlink:title=" ">
<polygon fill="none" stroke="black" points="3,-1132 3,-1151 174,-1151 174,-1132 3,-1132"/>
<text text-anchor="middle" x="88.5" y="-1139" font-family="Helvetica,sans-Serif" font-size="10.00">com.cliffc.aa.HM.TestHM.test32</text>
</a>
</g>
</g>
<!-- Node6&#45;&gt;Node7 -->
<g id="edge6" class="edge">
<title>Node6&#45;&gt;Node7</title>
<path fill="none" stroke="midnightblue" d="M249.59,-1102.44C226.99,-1109.09 200.88,-1116.46 177,-1122.5 163.89,-1125.81 149.58,-1129.07 136.41,-1131.92"/>
<polygon fill="midnightblue" stroke="midnightblue" points="250.79,-1105.74 259.38,-1099.55 248.8,-1099.03 250.79,-1105.74"/>
</g>
<!-- Node8 -->
<g id="node8" class="node">
<title>Node8</title>
<g id="a_node8"><a xlink:href="../../d9/d3b/a01650.html#a1eaffa73ab63c11bc24229afe5bfb2b5" target="_top" xlink:title=" ">
<polygon fill="none" stroke="black" points="3,-1094 3,-1113 174,-1113 174,-1094 3,-1094"/>
<text text-anchor="middle" x="88.5" y="-1101" font-family="Helvetica,sans-Serif" font-size="10.00">com.cliffc.aa.HM.TestHM.test33</text>
</a>
</g>
</g>
<!-- Node6&#45;&gt;Node8 -->
<g id="edge7" class="edge">
<title>Node6&#45;&gt;Node8</title>
<path fill="none" stroke="midnightblue" d="M217.03,-1092.44C202.87,-1093.66 188.28,-1094.93 174.27,-1096.15"/>
<polygon fill="midnightblue" stroke="midnightblue" points="217.6,-1095.9 227.26,-1091.55 217,-1088.93 217.6,-1095.9"/>
</g>
<!-- Node9 -->
<g id="node9" class="node">
<title>Node9</title>
<g id="a_node9"><a xlink:href="../../d9/d3b/a01650.html#ac349438a9f96f85080d6202815e39f8c" target="_top" xlink:title=" ">
<polygon fill="none" stroke="black" points="3,-1056 3,-1075 174,-1075 174,-1056 3,-1056"/>
<text text-anchor="middle" x="88.5" y="-1063" font-family="Helvetica,sans-Serif" font-size="10.00">com.cliffc.aa.HM.TestHM.test34</text>
</a>
</g>
</g>
<!-- Node6&#45;&gt;Node9 -->
<g id="edge8" class="edge">
<title>Node6&#45;&gt;Node9</title>
<path fill="none" stroke="midnightblue" d="M217.03,-1076.56C202.87,-1075.34 188.28,-1074.07 174.27,-1072.85"/>
<polygon fill="midnightblue" stroke="midnightblue" points="217,-1080.07 227.26,-1077.45 217.6,-1073.1 217,-1080.07"/>
</g>
<!-- Node11 -->
<g id="node11" class="node">
<title>Node11</title>
<g id="a_node11"><a xlink:href="../../d0/d31/a01686.html#a8d8557ae6366bab2ccdf7a54ad2b7bca" target="_top" xlink:title=" ">
<polygon fill="none" stroke="black" points="0,-1018 0,-1037 177,-1037 177,-1018 0,-1018"/>
<text text-anchor="middle" x="88.5" y="-1025" font-family="Helvetica,sans-Serif" font-size="10.00">com.cliffc.aa.HM.TestHM9.test32</text>
</a>
</g>
</g>
<!-- Node10&#45;&gt;Node11 -->
<g id="edge10" class="edge">
<title>Node10&#45;&gt;Node11</title>
<path fill="none" stroke="midnightblue" d="M225.13,-999.63C194.87,-1005.85 161.78,-1012.65 135.86,-1017.97"/>
<polygon fill="midnightblue" stroke="midnightblue" points="226.18,-1002.99 235.27,-997.55 224.77,-996.13 226.18,-1002.99"/>
</g>
<!-- Node12 -->
<g id="node12" class="node">
<title>Node12</title>
<g id="a_node12"><a xlink:href="../../d0/d31/a01686.html#acbe1e1d62fe8bb352cc705a4850bc686" target="_top" xlink:title=" ">
<polygon fill="none" stroke="black" points="0,-980 0,-999 177,-999 177,-980 0,-980"/>
<text text-anchor="middle" x="88.5" y="-987" font-family="Helvetica,sans-Serif" font-size="10.00">com.cliffc.aa.HM.TestHM9.test33</text>
</a>
</g>
</g>
<!-- Node10&#45;&gt;Node12 -->
<g id="edge11" class="edge">
<title>Node10&#45;&gt;Node12</title>
<path fill="none" stroke="midnightblue" d="M214.23,-985.51C201.98,-985.9 189.46,-986.3 177.31,-986.69"/>
<polygon fill="midnightblue" stroke="midnightblue" points="214.57,-989 224.46,-985.19 214.35,-982.01 214.57,-989"/>
</g>
<!-- Node13 -->
<g id="node13" class="node">
<title>Node13</title>
<g id="a_node13"><a xlink:href="../../d0/d31/a01686.html#af51b4a5d4a6d20c7271d637784787890" target="_top" xlink:title=" ">
<polygon fill="none" stroke="black" points="0,-942 0,-961 177,-961 177,-942 0,-942"/>
<text text-anchor="middle" x="88.5" y="-949" font-family="Helvetica,sans-Serif" font-size="10.00">com.cliffc.aa.HM.TestHM9.test34</text>
</a>
</g>
</g>
<!-- Node10&#45;&gt;Node13 -->
<g id="edge12" class="edge">
<title>Node10&#45;&gt;Node13</title>
<path fill="none" stroke="midnightblue" d="M214.38,-969.18C194.97,-966.43 174.9,-963.59 156.68,-961.01"/>
<polygon fill="midnightblue" stroke="midnightblue" points="214.06,-972.67 224.46,-970.6 215.04,-965.74 214.06,-972.67"/>
</g>
<!-- Node15 -->
<g id="node15" class="node">
<title>Node15</title>
<g id="a_node15"><a xlink:href="../../d9/d3b/a01650.html#a367092190cb14f76527db07a1f26090b" target="_top" xlink:title=" ">
<polygon fill="none" stroke="black" points="3,-904 3,-923 174,-923 174,-904 3,-904"/>
<text text-anchor="middle" x="88.5" y="-911" font-family="Helvetica,sans-Serif" font-size="10.00">com.cliffc.aa.HM.TestHM.test36</text>
</a>
</g>
</g>
<!-- Node14&#45;&gt;Node15 -->
<g id="edge14" class="edge">
<title>Node14&#45;&gt;Node15</title>
<path fill="none" stroke="midnightblue" d="M217.03,-917.58C202.87,-917.12 188.28,-916.66 174.27,-916.21"/>
<polygon fill="midnightblue" stroke="midnightblue" points="217.16,-921.08 227.26,-917.9 217.38,-914.09 217.16,-921.08"/>
</g>
<!-- Node16 -->
<g id="node16" class="node">
<title>Node16</title>
<g id="a_node16"><a xlink:href="../../d9/d3b/a01650.html#a6cfb1ffb0ff9306ad0cd97fafe97286d" target="_top" xlink:title=" ">
<polygon fill="none" stroke="black" points="3,-866 3,-885 174,-885 174,-866 3,-866"/>
<text text-anchor="middle" x="88.5" y="-873" font-family="Helvetica,sans-Serif" font-size="10.00">com.cliffc.aa.HM.TestHM.test56</text>
</a>
</g>
</g>
<!-- Node14&#45;&gt;Node16 -->
<g id="edge15" class="edge">
<title>Node14&#45;&gt;Node16</title>
<path fill="none" stroke="midnightblue" d="M225.13,-903.37C194.87,-897.15 161.78,-890.35 135.86,-885.03"/>
<polygon fill="midnightblue" stroke="midnightblue" points="224.77,-906.87 235.27,-905.45 226.18,-900.01 224.77,-906.87"/>
</g>
<!-- Node30&#45;&gt;Node4 -->
<g id="edge32" class="edge">
<title>Node30&#45;&gt;Node4</title>
<path fill="none" stroke="midnightblue" d="M635.89,-327.18C650.93,-327.3 666.39,-327.27 681.18,-327.07"/>
<polygon fill="midnightblue" stroke="midnightblue" points="635.6,-323.67 625.56,-327.06 635.53,-330.67 635.6,-323.67"/>
</g>
<!-- Node31 -->
<g id="node31" class="node">
<title>Node31</title>
<g id="a_node31"><a xlink:href="../../da/da6/a01522.html#a92589c57a2f7df3980b029ddff993fe4" target="_top" xlink:title=" ">
<polygon fill="none" stroke="black" points="223,-261.5 223,-291.5 396,-291.5 396,-261.5 223,-261.5"/>
<text text-anchor="start" x="231" y="-279.5" font-family="Helvetica,sans-Serif" font-size="10.00">com.cliffc.aa.type.TypeStruct.ax</text>
<text text-anchor="middle" x="309.5" y="-268.5" font-family="Helvetica,sans-Serif" font-size="10.00">_impl_fptr</text>
</a>
</g>
</g>
<!-- Node30&#45;&gt;Node31 -->
<g id="edge30" class="edge">
<title>Node30&#45;&gt;Node31</title>
<path fill="none" stroke="midnightblue" d="M450.39,-303.56C429.9,-299.59 408.22,-295.4 388.19,-291.53"/>
<polygon fill="midnightblue" stroke="midnightblue" points="449.86,-307.02 460.34,-305.48 451.19,-300.15 449.86,-307.02"/>
</g>
<!-- Node31&#45;&gt;Node4 -->
<g id="edge31" class="edge">
<title>Node31&#45;&gt;Node4</title>
<path fill="none" stroke="midnightblue" d="M406.31,-279.37C471.29,-282.05 559.05,-287.12 636,-296.5 654.82,-298.79 675.02,-302.08 693.8,-305.49"/>
<polygon fill="midnightblue" stroke="midnightblue" points="406.21,-275.86 396.08,-278.96 405.93,-282.86 406.21,-275.86"/>
</g>
<!-- Node33 -->
<g id="node33" class="node">
<title>Node33</title>
<g id="a_node33"><a xlink:href="../../da/de3/a01398.html#a7de58cb94e034d32c45310fa8d87f292" target="_top" xlink:title="A type&#45;statement assigns a type to a type variable.">
<polygon fill="none" stroke="black" points="699.5,-264 699.5,-283 836.5,-283 836.5,-264 699.5,-264"/>
<text text-anchor="middle" x="768" y="-271" font-family="Helvetica,sans-Serif" font-size="10.00">com.cliffc.aa.Parse.tstmt</text>
</a>
</g>
</g>
<!-- Node32&#45;&gt;Node33 -->
<g id="edge34" class="edge">
<title>Node32&#45;&gt;Node33</title>
<path fill="none" stroke="midnightblue" d="M918.17,-274.75C891.12,-274.52 861.93,-274.28 836.61,-274.06"/>
<polygon fill="midnightblue" stroke="midnightblue" points="918.39,-278.25 928.42,-274.83 918.45,-271.25 918.39,-278.25"/>
</g>
<!-- Node34 -->
<g id="node34" class="node">
<title>Node34</title>
<g id="a_node34"><a xlink:href="../../da/de3/a01398.html#adf95c17fe0de5cfff574ee89b78f0d37" target="_top" xlink:title=" ">
<polygon fill="none" stroke="black" points="469.5,-229 469.5,-248 608.5,-248 608.5,-229 469.5,-229"/>
<text text-anchor="middle" x="539" y="-236" font-family="Helvetica,sans-Serif" font-size="10.00">com.cliffc.aa.Parse.stmts</text>
</a>
</g>
</g>
<!-- Node33&#45;&gt;Node34 -->
<g id="edge35" class="edge">
<title>Node33&#45;&gt;Node34</title>
<path fill="none" stroke="midnightblue" d="M695.27,-262.44C665.21,-257.81 630.61,-252.47 601.72,-248.02"/>
<polygon fill="midnightblue" stroke="midnightblue" points="694.85,-265.92 705.27,-263.98 695.92,-259 694.85,-265.92"/>
</g>
<!-- Node36 -->
<g id="node36" class="node">
<title>Node36</title>
<g id="a_node36"><a xlink:href="../../da/da6/a01522.html#a8bfc72a6d7c52e1b8f25dc0a0604b1ce" target="_top" xlink:title=" ">
<polygon fill="none" stroke="black" points="672,-222 672,-241 864,-241 864,-222 672,-222"/>
<text text-anchor="middle" x="768" y="-229" font-family="Helvetica,sans-Serif" font-size="10.00">com.cliffc.aa.type.TypeStruct.xmeet</text>
</a>
</g>
</g>
<!-- Node35&#45;&gt;Node36 -->
<g id="edge37" class="edge">
<title>Node35&#45;&gt;Node36</title>
<path fill="none" stroke="midnightblue" d="M889.91,-231.5C881.34,-231.5 872.76,-231.5 864.34,-231.5"/>
<polygon fill="midnightblue" stroke="midnightblue" points="889.96,-235 899.96,-231.5 889.96,-228 889.96,-235"/>
</g>
<!-- Node39 -->
<g id="node39" class="node">
<title>Node39</title>
<g id="a_node39"><a xlink:href="../../d7/d08/a00378.html#a44625d53a9619e7e3d576b03d3ab1cb1" target="_top" xlink:title=" ">
<polygon fill="none" stroke="black" points="704,-140 704,-159 832,-159 832,-140 704,-140"/>
<text text-anchor="middle" x="768" y="-147" font-family="Helvetica,sans-Serif" font-size="10.00">com.cliffc.aa.Env.close</text>
</a>
</g>
</g>
<!-- Node38&#45;&gt;Node39 -->
<g id="edge40" class="edge">
<title>Node38&#45;&gt;Node39</title>
<path fill="none" stroke="midnightblue" d="M925.76,-149.5C895.15,-149.5 860.96,-149.5 832.34,-149.5"/>
<polygon fill="midnightblue" stroke="midnightblue" points="925.99,-153 935.99,-149.5 925.99,-146 925.99,-153"/>
</g>
<!-- Node40 -->
<g id="node40" class="node">
<title>Node40</title>
<g id="a_node40"><a xlink:href="../../dc/d2d/a01534.html#adefee15688aa3bbaa69600f308df81c8" target="_top" xlink:title=" ">
<polygon fill="none" stroke="black" points="464,-140 464,-159 614,-159 614,-140 464,-140"/>
<text text-anchor="middle" x="539" y="-147" font-family="Helvetica,sans-Serif" font-size="10.00">com.cliffc.aa.TypeEnv.close</text>
</a>
</g>
</g>
<!-- Node39&#45;&gt;Node40 -->
<g id="edge41" class="edge">
<title>Node39&#45;&gt;Node40</title>
<path fill="none" stroke="midnightblue" d="M693.46,-149.5C668.06,-149.5 639.59,-149.5 614.14,-149.5"/>
<polygon fill="midnightblue" stroke="midnightblue" points="693.77,-153 703.77,-149.5 693.77,-146 693.77,-153"/>
</g>
<!-- Node41&#45;&gt;Node41 -->
<g id="edge44" class="edge">
<title>Node41&#45;&gt;Node41</title>
<path fill="none" stroke="midnightblue" d="M1051.1,-107.59C1046.31,-112.51 1032.44,-116 1009.5,-116 972.8,-116 959.32,-107.06 969.07,-97.66"/>
<polygon fill="midnightblue" stroke="midnightblue" points="1054.58,-107.18 1049.93,-97.66 1047.62,-108 1054.58,-107.18"/>
</g>
<!-- Node42 -->
<g id="node42" class="node">
<title>Node42</title>
<g id="a_node42"><a xlink:href="../../d8/d38/a00926.html#a8131ee594decbbdd998aab28fabea51b" target="_top" xlink:title=" ">
<polygon fill="none" stroke="black" points="682.5,-73 682.5,-92 853.5,-92 853.5,-73 682.5,-73"/>
<text text-anchor="middle" x="768" y="-80" font-family="Helvetica,sans-Serif" font-size="10.00">com.cliffc.aa.HM.HM9.Apply.val</text>
</a>
</g>
</g>
<!-- Node41&#45;&gt;Node42 -->
<g id="edge43" class="edge">
<title>Node41&#45;&gt;Node42</title>
<path fill="none" stroke="midnightblue" d="M916.68,-82.5C895.96,-82.5 874.06,-82.5 853.65,-82.5"/>
<polygon fill="midnightblue" stroke="midnightblue" points="916.75,-86 926.75,-82.5 916.75,-79 916.75,-86"/>
</g>
<!-- Node43&#45;&gt;Node43 -->
<g id="edge47" class="edge">
<title>Node43&#45;&gt;Node43</title>
<path fill="none" stroke="midnightblue" d="M1051.1,-40.59C1046.31,-45.51 1032.44,-49 1009.5,-49 972.8,-49 959.32,-40.06 969.07,-30.66"/>
<polygon fill="midnightblue" stroke="midnightblue" points="1054.58,-40.18 1049.93,-30.66 1047.62,-41 1054.58,-40.18"/>
</g>
<!-- Node44 -->
<g id="node44" class="node">
<title>Node44</title>
<g id="a_node44"><a xlink:href="../../dd/dfd/a00438.html#a40305653e9392070e933aa4d27e02da9" target="_top" xlink:title=" ">
<polygon fill="none" stroke="black" points="685.5,-6 685.5,-25 850.5,-25 850.5,-6 685.5,-6"/>
<text text-anchor="middle" x="768" y="-13" font-family="Helvetica,sans-Serif" font-size="10.00">com.cliffc.aa.HM.HM.Apply.val</text>
</a>
</g>
</g>
<!-- Node43&#45;&gt;Node44 -->
<g id="edge46" class="edge">
<title>Node43&#45;&gt;Node44</title>
<path fill="none" stroke="midnightblue" d="M919.51,-15.5C896.96,-15.5 872.84,-15.5 850.68,-15.5"/>
<polygon fill="midnightblue" stroke="midnightblue" points="919.75,-19 929.75,-15.5 919.75,-12 919.75,-19"/>
</g>
</g>
</svg>
