<?xml version="1.0" encoding="UTF-8" standalone="no"?>
<!DOCTYPE svg PUBLIC "-//W3C//DTD SVG 1.1//EN"
 "http://www.w3.org/Graphics/SVG/1.1/DTD/svg11.dtd">
<!-- Generated by graphviz version 2.43.0 (0)
 -->
<!-- Title: com.cliffc.aa.type.TypeStruct._clone Pages: 1 -->
<!--zoomable 94 -->
<svg id="main" version="1.1" xmlns="http://www.w3.org/2000/svg" xmlns:xlink="http://www.w3.org/1999/xlink" xml:space="preserve" onload="init(evt)">
<style type="text/css"><![CDATA[
.edge:hover path { stroke: red; }
.edge:hover polygon { stroke: red; fill: red; }
]]></style>
<script type="text/javascript"><![CDATA[
var edges = document.getElementsByTagName('g');
if (edges && edges.length) {
  for (var i=0;i<edges.length;i++) {
    if (edges[i].id.substr(0,4)=='edge') {
      edges[i].setAttribute('class','edge');
    }
  }
}
]]></script>
        <defs>
                <circle id="rim" cx="0" cy="0" r="7"/>
                <circle id="rim2" cx="0" cy="0" r="3.5"/>
                <g id="zoomPlus">
                        <use xlink:href="#rim" fill="#404040">
                                <set attributeName="fill" to="#808080" begin="zoomplus.mouseover" end="zoomplus.mouseout"/>
                        </use>
                        <path d="M-4,0h8M0,-4v8" fill="none" stroke="white" stroke-width="1.5" pointer-events="none"/>
                </g>
                <g id="zoomMin">
                        <use xlink:href="#rim" fill="#404040">
                                <set attributeName="fill" to="#808080" begin="zoomminus.mouseover" end="zoomminus.mouseout"/>
                        </use>
                        <path d="M-4,0h8" fill="none" stroke="white" stroke-width="1.5" pointer-events="none"/>
                </g>
                <g id="dirArrow">
                        <path fill="none" stroke="white" stroke-width="1.5" d="M0,-3.0v7 M-2.5,-0.5L0,-3.0L2.5,-0.5"/>
                </g>
               <g id="resetDef">
                       <use xlink:href="#rim2" fill="#404040">
                               <set attributeName="fill" to="#808080" begin="reset.mouseover" end="reset.mouseout"/>
                       </use>
               </g>
        </defs>

<script type="text/javascript">
var viewWidth = 1347;
var viewHeight = 94;
var sectionId = 'dynsection-3';
</script>
<script xlink:href="../../svgpan.js"/>
<svg id="graph" class="graph">
<g id="viewport">
<title>com.cliffc.aa.type.TypeStruct._clone</title>
<!-- Node1 -->
<g id="node1" class="node">
<title>Node1</title>
<g id="a_node1"><a xlink:title=" ">
<polygon fill="#bfbfbf" stroke="black" points="1178,-17 1178,-47 1339,-47 1339,-17 1178,-17"/>
<text text-anchor="start" x="1186" y="-35" font-family="Helvetica,sans-Serif" font-size="10.00">com.cliffc.aa.type.TypeStruct.</text>
<text text-anchor="middle" x="1258.5" y="-24" font-family="Helvetica,sans-Serif" font-size="10.00">_clone</text>
</a>
</g>
</g>
<!-- Node2 -->
<g id="node2" class="node">
<title>Node2</title>
<g id="a_node2"><a xlink:href="../../da/da6/a01522.html#a1ebac979a540f0d1db5fe560860ae97c" target="_top" xlink:title=" ">
<polygon fill="none" stroke="black" points="952,-39 952,-69 1113,-69 1113,-39 952,-39"/>
<text text-anchor="start" x="960" y="-57" font-family="Helvetica,sans-Serif" font-size="10.00">com.cliffc.aa.type.TypeStruct.</text>
<text text-anchor="middle" x="1032.5" y="-46" font-family="Helvetica,sans-Serif" font-size="10.00">_sharp</text>
</a>
</g>
</g>
<!-- Node1&#45;&gt;Node2 -->
<g id="edge1" class="edge">
<title>Node1&#45;&gt;Node2</title>
<path fill="none" stroke="midnightblue" d="M1167.94,-40.8C1149.85,-42.57 1130.95,-44.43 1113.23,-46.17"/>
<polygon fill="midnightblue" stroke="midnightblue" points="1168.29,-44.28 1177.9,-39.82 1167.6,-37.31 1168.29,-44.28"/>
</g>
<!-- Node9 -->
<g id="node9" class="node">
<title>Node9</title>
<g id="a_node9"><a xlink:href="../../da/da6/a01522.html#ade981dabd9a97a805a45ce120a716195" target="_top" xlink:title=" ">
<polygon fill="none" stroke="black" points="923,-0.5 923,-19.5 1142,-19.5 1142,-0.5 923,-0.5"/>
<text text-anchor="middle" x="1032.5" y="-7.5" font-family="Helvetica,sans-Serif" font-size="10.00">com.cliffc.aa.type.TypeStruct.cyclic_meet</text>
</a>
</g>
</g>
<!-- Node1&#45;&gt;Node9 -->
<g id="edge9" class="edge">
<title>Node1&#45;&gt;Node9</title>
<path fill="none" stroke="midnightblue" d="M1167.71,-23.18C1155.47,-21.98 1142.86,-20.74 1130.5,-19.53"/>
<polygon fill="midnightblue" stroke="midnightblue" points="1167.6,-26.69 1177.9,-24.18 1168.29,-19.72 1167.6,-26.69"/>
</g>
<!-- Node3 -->
<g id="node3" class="node">
<title>Node3</title>
<g id="a_node3"><a xlink:href="../../da/da6/a01522.html#a4bbd63c992371486c0953c125b3598f3" target="_top" xlink:title=" ">
<polygon fill="none" stroke="black" points="687,-44.5 687,-63.5 887,-63.5 887,-44.5 687,-44.5"/>
<text text-anchor="middle" x="787" y="-51.5" font-family="Helvetica,sans-Serif" font-size="10.00">com.cliffc.aa.type.TypeStruct.sharpen</text>
</a>
</g>
</g>
<!-- Node2&#45;&gt;Node3 -->
<g id="edge2" class="edge">
<title>Node2&#45;&gt;Node3</title>
<path fill="none" stroke="midnightblue" d="M941.46,-54C923.74,-54 905.06,-54 887.07,-54"/>
<polygon fill="midnightblue" stroke="midnightblue" points="941.77,-57.5 951.77,-54 941.77,-50.5 941.77,-57.5"/>
</g>
<!-- Node4 -->
<g id="node4" class="node">
<title>Node4</title>
<g id="a_node4"><a xlink:href="../../d6/d51/a01494.html#a51b44578cd9dbeb3f2d28ea77ccf3e71" target="_top" xlink:title=" ">
<polygon fill="none" stroke="black" points="455,-44.5 455,-63.5 651,-63.5 651,-44.5 455,-44.5"/>
<text text-anchor="middle" x="553" y="-51.5" font-family="Helvetica,sans-Serif" font-size="10.00">com.cliffc.aa.type.TypeMem.sharpen</text>
</a>
</g>
</g>
<!-- Node3&#45;&gt;Node4 -->
<g id="edge3" class="edge">
<title>Node3&#45;&gt;Node4</title>
<path fill="none" stroke="midnightblue" d="M676.92,-54C668.35,-54 659.73,-54 651.25,-54"/>
<polygon fill="midnightblue" stroke="midnightblue" points="676.94,-57.5 686.94,-54 676.94,-50.5 676.94,-57.5"/>
</g>
<!-- Node5 -->
<g id="node5" class="node">
<title>Node5</title>
<g id="a_node5"><a xlink:href="../../d6/d51/a01494.html#ae434c7b538095991a82c26e058b2bed3" target="_top" xlink:title=" ">
<polygon fill="none" stroke="black" points="228,-66.5 228,-85.5 419,-85.5 419,-66.5 228,-66.5"/>
<text text-anchor="middle" x="323.5" y="-73.5" font-family="Helvetica,sans-Serif" font-size="10.00">com.cliffc.aa.type.TypeMem.sharptr</text>
</a>
</g>
</g>
<!-- Node4&#45;&gt;Node5 -->
<g id="edge4" class="edge">
<title>Node4&#45;&gt;Node5</title>
<path fill="none" stroke="midnightblue" d="M444.83,-64.36C436.25,-65.19 427.63,-66.03 419.15,-66.85"/>
<polygon fill="midnightblue" stroke="midnightblue" points="445.24,-67.84 454.86,-63.39 444.57,-60.87 445.24,-67.84"/>
</g>
<!-- Node8 -->
<g id="node8" class="node">
<title>Node8</title>
<g id="a_node8"><a xlink:href="../../d6/d9a/a01710.html#a065e03a5090218b4a23e51ee69e99249" target="_top" xlink:title=" ">
<polygon fill="none" stroke="black" points="249,-17 249,-47 398,-47 398,-17 249,-17"/>
<text text-anchor="start" x="257" y="-35" font-family="Helvetica,sans-Serif" font-size="10.00">com.cliffc.aa.TestParse.test</text>
<text text-anchor="middle" x="323.5" y="-24" font-family="Helvetica,sans-Serif" font-size="10.00">Parse07</text>
</a>
</g>
</g>
<!-- Node4&#45;&gt;Node8 -->
<g id="edge8" class="edge">
<title>Node4&#45;&gt;Node8</title>
<path fill="none" stroke="midnightblue" d="M444.59,-43.61C428.91,-42.1 413.07,-40.56 398.26,-39.13"/>
<polygon fill="midnightblue" stroke="midnightblue" points="444.57,-47.13 454.86,-44.61 445.24,-40.16 444.57,-47.13"/>
</g>
<!-- Node6 -->
<g id="node6" class="node">
<title>Node6</title>
<g id="a_node6"><a xlink:href="../../d7/d90/a01530.html#acb83167a9887d8a9b8f47c6d965c0f6b" target="_top" xlink:title=" ">
<polygon fill="none" stroke="black" points="0,-66.5 0,-85.5 192,-85.5 192,-66.5 0,-66.5"/>
<text text-anchor="middle" x="96" y="-73.5" font-family="Helvetica,sans-Serif" font-size="10.00">com.cliffc.aa.type.TypeTuple.sharptr</text>
</a>
</g>
</g>
<!-- Node5&#45;&gt;Node6 -->
<g id="edge5" class="edge">
<title>Node5&#45;&gt;Node6</title>
<path fill="none" stroke="midnightblue" d="M217.83,-69.27C209.26,-69.23 200.63,-69.25 192.13,-69.32"/>
<polygon fill="midnightblue" stroke="midnightblue" points="217.83,-72.77 227.85,-69.33 217.87,-65.77 217.83,-72.77"/>
</g>
<!-- Node7 -->
<g id="node7" class="node">
<title>Node7</title>
<g id="a_node7"><a xlink:href="../../d0/de2/a01442.html#a73035500b9adc5f4821408e88177f1c7" target="_top" xlink:title=" ">
<polygon fill="none" stroke="black" points="31.5,-17 31.5,-47 160.5,-47 160.5,-17 31.5,-17"/>
<text text-anchor="start" x="39.5" y="-35" font-family="Helvetica,sans-Serif" font-size="10.00">com.cliffc.aa.type.Type</text>
<text text-anchor="middle" x="96" y="-24" font-family="Helvetica,sans-Serif" font-size="10.00">&lt; TypeFlt &gt;::sharptr</text>
</a>
</g>
</g>
<!-- Node5&#45;&gt;Node7 -->
<g id="edge7" class="edge">
<title>Node5&#45;&gt;Node7</title>
<path fill="none" stroke="midnightblue" d="M263.6,-64.51C232.04,-58.35 193.12,-50.75 160.83,-44.46"/>
<polygon fill="midnightblue" stroke="midnightblue" points="263.08,-67.97 273.57,-66.45 264.43,-61.1 263.08,-67.97"/>
</g>
<!-- Node6&#45;&gt;Node5 -->
<g id="edge6" class="edge">
<title>Node6&#45;&gt;Node5</title>
<path fill="none" stroke="midnightblue" d="M202.16,-82.74C210.73,-82.77 219.36,-82.75 227.85,-82.67"/>
<polygon fill="midnightblue" stroke="midnightblue" points="202.15,-79.24 192.13,-82.68 202.11,-86.24 202.15,-79.24"/>
</g>
<!-- Node10 -->
<g id="node10" class="node">
<title>Node10</title>
<g id="a_node10"><a xlink:href="../../da/da6/a01522.html#a8bfc72a6d7c52e1b8f25dc0a0604b1ce" target="_top" xlink:title=" ">
<polygon fill="none" stroke="black" points="691,-0.5 691,-19.5 883,-19.5 883,-0.5 691,-0.5"/>
<text text-anchor="middle" x="787" y="-7.5" font-family="Helvetica,sans-Serif" font-size="10.00">com.cliffc.aa.type.TypeStruct.xmeet</text>
</a>
</g>
</g>
<!-- Node9&#45;&gt;Node10 -->
<g id="edge10" class="edge">
<title>Node9&#45;&gt;Node10</title>
<path fill="none" stroke="midnightblue" d="M912.69,-10C902.85,-10 892.99,-10 883.36,-10"/>
<polygon fill="midnightblue" stroke="midnightblue" points="912.92,-13.5 922.92,-10 912.92,-6.5 912.92,-13.5"/>
</g>
</g>
</svg>
        <g id="navigator" transform="translate(0 0)" fill="#404254">
                <rect fill="#f2f5e9" fill-opacity="0.5" stroke="#606060" stroke-width=".5" x="0" y="0" width="60" height="60"/>
                <use id="zoomplus" xlink:href="#zoomPlus" x="17" y="9" onmousedown="handleZoom(evt,'in')"/>
                <use id="zoomminus" xlink:href="#zoomMin" x="42" y="9" onmousedown="handleZoom(evt,'out')"/>
                <use id="reset" xlink:href="#resetDef" x="30" y="36" onmousedown="handleReset()"/>
                <g id="arrowUp" xlink:href="#dirArrow" transform="translate(30 24)" onmousedown="handlePan(0,-1)">
                  <use xlink:href="#rim" fill="#404040">
                        <set attributeName="fill" to="#808080" begin="arrowUp.mouseover" end="arrowUp.mouseout"/>
                  </use>
                  <path fill="none" stroke="white" stroke-width="1.5" d="M0,-3.0v7 M-2.5,-0.5L0,-3.0L2.5,-0.5"/>
                </g>
                <g id="arrowRight" xlink:href="#dirArrow" transform="rotate(90) translate(36 -43)" onmousedown="handlePan(1,0)">
                  <use xlink:href="#rim" fill="#404040">
                        <set attributeName="fill" to="#808080" begin="arrowRight.mouseover" end="arrowRight.mouseout"/>
                  </use>
                  <path fill="none" stroke="white" stroke-width="1.5" d="M0,-3.0v7 M-2.5,-0.5L0,-3.0L2.5,-0.5"/>
                </g>
                <g id="arrowDown" xlink:href="#dirArrow" transform="rotate(180) translate(-30 -48)" onmousedown="handlePan(0,1)">
                  <use xlink:href="#rim" fill="#404040">
                        <set attributeName="fill" to="#808080" begin="arrowDown.mouseover" end="arrowDown.mouseout"/>
                  </use>
                  <path fill="none" stroke="white" stroke-width="1.5" d="M0,-3.0v7 M-2.5,-0.5L0,-3.0L2.5,-0.5"/>
                </g>
                <g id="arrowLeft" xlink:href="#dirArrow" transform="rotate(270) translate(-36 17)" onmousedown="handlePan(-1,0)">
                  <use xlink:href="#rim" fill="#404040">
                        <set attributeName="fill" to="#808080" begin="arrowLeft.mouseover" end="arrowLeft.mouseout"/>
                  </use>
                  <path fill="none" stroke="white" stroke-width="1.5" d="M0,-3.0v7 M-2.5,-0.5L0,-3.0L2.5,-0.5"/>
                </g>
        </g>
        <svg viewBox="0 0 15 15" width="100%" height="30px" preserveAspectRatio="xMaxYMin meet">
         <g id="arrow_out" transform="scale(0.3 0.3)">
          <a xlink:href="a01522_add595169079ba14d6e24e4b3e4f4e6f7_icgraph_org.svg" target="_base">
           <rect id="button" ry="5" rx="5" y="6" x="6" height="38" width="38"
                fill="#f2f5e9" fill-opacity="0.5" stroke="#606060" stroke-width="1.0"/>
           <path id="arrow"
             d="M 11.500037,31.436501 C 11.940474,20.09759 22.043105,11.32322 32.158766,21.979434 L 37.068811,17.246167 C 37.068811,17.246167 37.088388,32 37.088388,32 L 22.160133,31.978069 C 22.160133,31.978069 26.997745,27.140456 26.997745,27.140456 C 18.528582,18.264221 13.291696,25.230495 11.500037,31.436501 z"
             style="fill:#404040;"/>
          </a>
         </g>
        </svg>
</svg>
