<?xml version="1.0" encoding="UTF-8" standalone="no"?>
<!DOCTYPE svg PUBLIC "-//W3C//DTD SVG 1.1//EN"
 "http://www.w3.org/Graphics/SVG/1.1/DTD/svg11.dtd">
<!-- Generated by graphviz version 2.43.0 (0)
 -->
<!-- Title: com.cliffc.aa.type.TypeStruct.ax_impl_struct Pages: 1 -->
<svg width="1111pt" height="863pt"
 viewBox="0.00 0.00 1111.00 863.23" xmlns="http://www.w3.org/2000/svg" xmlns:xlink="http://www.w3.org/1999/xlink">
<g id="graph0" class="graph" transform="scale(1 1) rotate(0) translate(4 859.23)">
<title>com.cliffc.aa.type.TypeStruct.ax_impl_struct</title>
<!-- Node1 -->
<g id="node1" class="node">
<title>Node1</title>
<g id="a_node1"><a xlink:title=" ">
<polygon fill="#bfbfbf" stroke="black" points="0,-457.47 0,-487.47 173,-487.47 173,-457.47 0,-457.47"/>
<text text-anchor="start" x="8" y="-475.47" font-family="Helvetica,sans-Serif" font-size="10.00">com.cliffc.aa.type.TypeStruct.ax</text>
<text text-anchor="middle" x="86.5" y="-464.47" font-family="Helvetica,sans-Serif" font-size="10.00">_impl_struct</text>
</a>
</g>
</g>
<!-- Node2 -->
<g id="node2" class="node">
<title>Node2</title>
<g id="a_node2"><a xlink:href="../../da/da6/a01522.html#a92589c57a2f7df3980b029ddff993fe4" target="_top" xlink:title=" ">
<polygon fill="none" stroke="black" points="224,-684.47 224,-714.47 397,-714.47 397,-684.47 224,-684.47"/>
<text text-anchor="start" x="232" y="-702.47" font-family="Helvetica,sans-Serif" font-size="10.00">com.cliffc.aa.type.TypeStruct.ax</text>
<text text-anchor="middle" x="310.5" y="-691.47" font-family="Helvetica,sans-Serif" font-size="10.00">_impl_fptr</text>
</a>
</g>
</g>
<!-- Node1&#45;&gt;Node2 -->
<g id="edge1" class="edge">
<title>Node1&#45;&gt;Node2</title>
<path fill="none" stroke="midnightblue" d="M95.94,-487.63C113.74,-518.61 157.72,-590.23 209,-637.47 226.96,-654.02 249.97,-668.6 269.44,-679.45"/>
<polygon fill="midnightblue" stroke="midnightblue" points="267.93,-682.61 278.39,-684.32 271.28,-676.46 267.93,-682.61"/>
</g>
<!-- Node3 -->
<g id="node3" class="node">
<title>Node3</title>
<g id="a_node3"><a xlink:href="../../da/da6/a01522.html#a34d685f435ab079bd2e8afb996727f69" target="_top" xlink:title=" ">
<polygon fill="none" stroke="black" points="451.5,-640.47 451.5,-670.47 624.5,-670.47 624.5,-640.47 451.5,-640.47"/>
<text text-anchor="start" x="459.5" y="-658.47" font-family="Helvetica,sans-Serif" font-size="10.00">com.cliffc.aa.type.TypeStruct.ax</text>
<text text-anchor="middle" x="538" y="-647.47" font-family="Helvetica,sans-Serif" font-size="10.00">_impl_ptr</text>
</a>
</g>
</g>
<!-- Node1&#45;&gt;Node3 -->
<g id="edge17" class="edge">
<title>Node1&#45;&gt;Node3</title>
<path fill="none" stroke="midnightblue" d="M118.22,-487.62C142.07,-502.75 176.44,-525.2 209,-540.47 303.69,-584.9 421.97,-618.08 487.49,-637.52"/>
<polygon fill="midnightblue" stroke="midnightblue" points="486.57,-640.89 497.16,-640.4 488.58,-634.19 486.57,-640.89"/>
</g>
<!-- Node5 -->
<g id="node5" class="node">
<title>Node5</title>
<g id="a_node5"><a xlink:href="../../d9/df5/a01574.html#ac48b496d83326e6d52ae1ec4f3459e86" target="_top" xlink:title=" ">
<polygon fill="none" stroke="black" points="692.5,-754.47 692.5,-784.47 820.5,-784.47 820.5,-754.47 692.5,-754.47"/>
<text text-anchor="start" x="700.5" y="-772.47" font-family="Helvetica,sans-Serif" font-size="10.00">com.cliffc.aa.util.IHash</text>
<text text-anchor="middle" x="756.5" y="-761.47" font-family="Helvetica,sans-Serif" font-size="10.00">Map.get</text>
</a>
</g>
</g>
<!-- Node1&#45;&gt;Node5 -->
<g id="edge44" class="edge">
<title>Node1&#45;&gt;Node5</title>
<path fill="none" stroke="midnightblue" d="M89.72,-487.57C97.16,-532.31 125.66,-664.83 209,-724.47 350.84,-825.98 569.59,-805.24 682.5,-785.24"/>
<polygon fill="midnightblue" stroke="midnightblue" points="683.21,-788.67 692.43,-783.44 681.96,-781.79 683.21,-788.67"/>
</g>
<!-- Node7 -->
<g id="node7" class="node">
<title>Node7</title>
<g id="a_node7"><a xlink:href="../../d9/df5/a01574.html#a48318148c1c043cb02b70ff5a7be8eb0" target="_top" xlink:title=" ">
<polygon fill="none" stroke="black" points="692.5,-803.47 692.5,-833.47 820.5,-833.47 820.5,-803.47 692.5,-803.47"/>
<text text-anchor="start" x="700.5" y="-821.47" font-family="Helvetica,sans-Serif" font-size="10.00">com.cliffc.aa.util.IHash</text>
<text text-anchor="middle" x="756.5" y="-810.47" font-family="Helvetica,sans-Serif" font-size="10.00">Map.put</text>
</a>
</g>
</g>
<!-- Node1&#45;&gt;Node7 -->
<g id="edge48" class="edge">
<title>Node1&#45;&gt;Node7</title>
<path fill="none" stroke="midnightblue" d="M88.59,-487.7C93.04,-537.74 114.43,-698.18 209,-773.47 346.36,-882.84 569.45,-857.98 683.45,-835.53"/>
<polygon fill="midnightblue" stroke="midnightblue" points="684.36,-838.92 693.47,-833.51 682.98,-832.06 684.36,-838.92"/>
</g>
<!-- Node9 -->
<g id="node9" class="node">
<title>Node9</title>
<g id="a_node9"><a xlink:href="../../da/da6/a01522.html#af6d9b31d16f97829b465bd5ffd235d23" target="_top" xlink:title=" ">
<polygon fill="none" stroke="black" points="664,-550.97 664,-569.97 849,-569.97 849,-550.97 664,-550.97"/>
<text text-anchor="middle" x="756.5" y="-557.97" font-family="Helvetica,sans-Serif" font-size="10.00">com.cliffc.aa.type.TypeStruct.ufind</text>
</a>
</g>
</g>
<!-- Node1&#45;&gt;Node9 -->
<g id="edge50" class="edge">
<title>Node1&#45;&gt;Node9</title>
<path fill="none" stroke="midnightblue" d="M173.12,-483.75C302.35,-500.78 545.61,-532.82 672.98,-549.6"/>
<polygon fill="midnightblue" stroke="midnightblue" points="672.7,-553.1 683.07,-550.93 673.61,-546.16 672.7,-553.1"/>
</g>
<!-- Node11 -->
<g id="node11" class="node">
<title>Node11</title>
<g id="a_node11"><a xlink:href="../../da/da6/a01522.html#a8ce555e6e87cfc2e386d76d536fa88c9" target="_top" xlink:title=" ">
<polygon fill="none" stroke="black" points="209,-399.97 209,-418.97 412,-418.97 412,-399.97 209,-399.97"/>
<text text-anchor="middle" x="310.5" y="-406.97" font-family="Helvetica,sans-Serif" font-size="10.00">com.cliffc.aa.type.TypeStruct.ax_meet</text>
</a>
</g>
</g>
<!-- Node1&#45;&gt;Node11 -->
<g id="edge18" class="edge">
<title>Node1&#45;&gt;Node11</title>
<path fill="none" stroke="midnightblue" d="M140.39,-457.46C178.84,-446.55 230.25,-431.97 266.25,-421.75"/>
<polygon fill="midnightblue" stroke="midnightblue" points="267.31,-425.09 275.98,-418.99 265.4,-418.35 267.31,-425.09"/>
</g>
<!-- Node20 -->
<g id="node20" class="node">
<title>Node20</title>
<g id="a_node20"><a xlink:href="../../d5/d67/a01466.html#ac5fde295c2934c99a97e2833f45ed837" target="_top" xlink:title=" ">
<polygon fill="none" stroke="black" points="221,-361.97 221,-380.97 400,-380.97 400,-361.97 221,-361.97"/>
<text text-anchor="middle" x="310.5" y="-368.97" font-family="Helvetica,sans-Serif" font-size="10.00">com.cliffc.aa.type.TypeFlds.clone</text>
</a>
</g>
</g>
<!-- Node1&#45;&gt;Node20 -->
<g id="edge33" class="edge">
<title>Node1&#45;&gt;Node20</title>
<path fill="none" stroke="midnightblue" d="M105.08,-457.16C127.59,-438.42 168.52,-407.13 209,-390.47 215.34,-387.87 222.06,-385.61 228.9,-383.66"/>
<polygon fill="midnightblue" stroke="midnightblue" points="230.18,-386.95 238.96,-381.02 228.4,-380.17 230.18,-386.95"/>
</g>
<!-- Node28 -->
<g id="node28" class="node">
<title>Node28</title>
<g id="a_node28"><a xlink:href="../../d6/d02/a01542.html#ad20d8e8c23d027edf235bd54f85d3ea8" target="_top" xlink:title=" ">
<polygon fill="none" stroke="black" points="247,-312.47 247,-342.47 374,-342.47 374,-312.47 247,-312.47"/>
<text text-anchor="start" x="255" y="-330.47" font-family="Helvetica,sans-Serif" font-size="10.00">com.cliffc.aa.util.Ary.is</text>
<text text-anchor="middle" x="310.5" y="-319.47" font-family="Helvetica,sans-Serif" font-size="10.00">Empty</text>
</a>
</g>
</g>
<!-- Node1&#45;&gt;Node28 -->
<g id="edge45" class="edge">
<title>Node1&#45;&gt;Node28</title>
<path fill="none" stroke="midnightblue" d="M98.38,-457.35C117.65,-431.69 160.4,-379.76 209,-352.47 217.7,-347.59 227.35,-343.65 237.14,-340.47"/>
<polygon fill="midnightblue" stroke="midnightblue" points="238.35,-343.76 246.93,-337.54 236.35,-337.05 238.35,-343.76"/>
</g>
<!-- Node29 -->
<g id="node29" class="node">
<title>Node29</title>
<g id="a_node29"><a xlink:href="../../d6/d02/a01542.html#a1257c8fd935c9bc8235bd2903852dd45" target="_top" xlink:title=" ">
<polygon fill="none" stroke="black" points="242,-273.97 242,-292.97 379,-292.97 379,-273.97 242,-273.97"/>
<text text-anchor="middle" x="310.5" y="-280.97" font-family="Helvetica,sans-Serif" font-size="10.00">com.cliffc.aa.util.Ary.pop</text>
</a>
</g>
</g>
<!-- Node1&#45;&gt;Node29 -->
<g id="edge46" class="edge">
<title>Node1&#45;&gt;Node29</title>
<path fill="none" stroke="midnightblue" d="M93.67,-457.37C108.26,-423.74 148.23,-342.59 209,-303.47 216.1,-298.91 224.01,-295.35 232.2,-292.57"/>
<polygon fill="midnightblue" stroke="midnightblue" points="233.33,-295.89 241.91,-289.67 231.33,-289.18 233.33,-295.89"/>
</g>
<!-- Node30 -->
<g id="node30" class="node">
<title>Node30</title>
<g id="a_node30"><a xlink:href="../../d6/d02/a01542.html#a297ba4203dcf40a83e97c0cb53866fe7" target="_top" xlink:title="Add element in amortized constant time.">
<polygon fill="none" stroke="black" points="239.5,-235.97 239.5,-254.97 381.5,-254.97 381.5,-235.97 239.5,-235.97"/>
<text text-anchor="middle" x="310.5" y="-242.97" font-family="Helvetica,sans-Serif" font-size="10.00">com.cliffc.aa.util.Ary.push</text>
</a>
</g>
</g>
<!-- Node1&#45;&gt;Node30 -->
<g id="edge47" class="edge">
<title>Node1&#45;&gt;Node30</title>
<path fill="none" stroke="midnightblue" d="M91.54,-457.45C102.83,-418.56 138.61,-314.14 209,-264.47 215.18,-260.11 222.1,-256.67 229.32,-253.98"/>
<polygon fill="midnightblue" stroke="midnightblue" points="230.89,-257.15 239.33,-250.74 228.73,-250.49 230.89,-257.15"/>
</g>
<!-- Node31 -->
<g id="node31" class="node">
<title>Node31</title>
<g id="a_node31"><a xlink:href="../../d7/dd1/a01458.html#a7bd896b59601a8984622ba2676b9ad59" target="_top" xlink:title=" ">
<polygon fill="none" stroke="black" points="226,-197.97 226,-216.97 395,-216.97 395,-197.97 226,-197.97"/>
<text text-anchor="middle" x="310.5" y="-204.97" font-family="Helvetica,sans-Serif" font-size="10.00">com.cliffc.aa.type.TypeFld.setX</text>
</a>
</g>
</g>
<!-- Node1&#45;&gt;Node31 -->
<g id="edge49" class="edge">
<title>Node1&#45;&gt;Node31</title>
<path fill="none" stroke="midnightblue" d="M90.14,-457.36C98.61,-413.75 129.33,-286.97 209,-226.47 211.39,-224.66 213.9,-223.01 216.5,-221.49"/>
<polygon fill="midnightblue" stroke="midnightblue" points="218.31,-224.5 225.68,-216.89 215.18,-218.24 218.31,-224.5"/>
</g>
<!-- Node2&#45;&gt;Node3 -->
<g id="edge2" class="edge">
<title>Node2&#45;&gt;Node3</title>
<path fill="none" stroke="midnightblue" d="M388.47,-684.46C408.32,-680.58 429.82,-676.39 450.13,-672.43"/>
<polygon fill="midnightblue" stroke="midnightblue" points="450.85,-675.85 459.99,-670.5 449.51,-668.98 450.85,-675.85"/>
</g>
<!-- Node4 -->
<g id="node4" class="node">
<title>Node4</title>
<g id="a_node4"><a xlink:href="../../d0/de2/a01442.html#aa3715d8050c210fb8cc36ed83da6da13" target="_top" xlink:title=" ">
<polygon fill="none" stroke="black" points="677.5,-702.97 677.5,-721.97 835.5,-721.97 835.5,-702.97 677.5,-702.97"/>
<text text-anchor="middle" x="756.5" y="-709.97" font-family="Helvetica,sans-Serif" font-size="10.00">com.cliffc.aa.type.Type.clone</text>
</a>
</g>
</g>
<!-- Node2&#45;&gt;Node4 -->
<g id="edge12" class="edge">
<title>Node2&#45;&gt;Node4</title>
<path fill="none" stroke="midnightblue" d="M397.32,-709.63C414.1,-711.23 431.58,-712.64 448,-713.47 527.9,-717.56 548,-713.79 628,-713.47 640.7,-713.43 654.11,-713.35 667.28,-713.26"/>
<polygon fill="midnightblue" stroke="midnightblue" points="667.31,-716.76 677.28,-713.19 667.26,-709.76 667.31,-716.76"/>
</g>
<!-- Node2&#45;&gt;Node5 -->
<g id="edge13" class="edge">
<title>Node2&#45;&gt;Node5</title>
<path fill="none" stroke="midnightblue" d="M380.42,-714.54C402,-719.01 425.94,-723.71 448,-727.47 527.74,-741.08 619.72,-753.18 682.15,-760.85"/>
<polygon fill="midnightblue" stroke="midnightblue" points="681.95,-764.35 692.3,-762.09 682.8,-757.4 681.95,-764.35"/>
</g>
<!-- Node6 -->
<g id="node6" class="node">
<title>Node6</title>
<g id="a_node6"><a xlink:href="../../d0/de2/a01442.html#a76b9c90f542f193cf27e5b94f8cf9cbb" target="_top" xlink:title=" ">
<polygon fill="none" stroke="black" points="670,-652.97 670,-671.97 843,-671.97 843,-652.97 670,-652.97"/>
<text text-anchor="middle" x="756.5" y="-659.97" font-family="Helvetica,sans-Serif" font-size="10.00">com.cliffc.aa.type.Type.interned</text>
</a>
</g>
</g>
<!-- Node2&#45;&gt;Node6 -->
<g id="edge14" class="edge">
<title>Node2&#45;&gt;Node6</title>
<path fill="none" stroke="midnightblue" d="M397.29,-696.19C461.04,-693.3 550.09,-688.3 628,-680.47 646.58,-678.61 666.61,-676.04 685.16,-673.44"/>
<polygon fill="midnightblue" stroke="midnightblue" points="685.9,-676.87 695.3,-671.99 684.91,-669.94 685.9,-676.87"/>
</g>
<!-- Node2&#45;&gt;Node7 -->
<g id="edge15" class="edge">
<title>Node2&#45;&gt;Node7</title>
<path fill="none" stroke="midnightblue" d="M344.88,-714.51C372.18,-726.36 412.01,-742.64 448,-753.47 526.69,-777.17 619.23,-795.49 682.08,-806.55"/>
<polygon fill="midnightblue" stroke="midnightblue" points="681.84,-810.06 692.29,-808.33 683.04,-803.16 681.84,-810.06"/>
</g>
<!-- Node2&#45;&gt;Node9 -->
<g id="edge16" class="edge">
<title>Node2&#45;&gt;Node9</title>
<path fill="none" stroke="midnightblue" d="M337.37,-684.28C364.23,-669.06 407.88,-645.87 448,-631.47 527.42,-602.97 622.58,-583.07 685.79,-571.73"/>
<polygon fill="midnightblue" stroke="midnightblue" points="686.41,-575.18 695.65,-569.99 685.19,-568.28 686.41,-575.18"/>
</g>
<!-- Node3&#45;&gt;Node1 -->
<g id="edge3" class="edge">
<title>Node3&#45;&gt;Node1</title>
<path fill="none" stroke="midnightblue" d="M451.18,-641.47C383.66,-624.85 288.1,-595.59 209,-558.47 171.55,-540.9 131.69,-513.83 108.22,-494.47"/>
<polygon fill="midnightblue" stroke="midnightblue" points="110.22,-491.57 100.35,-487.72 105.66,-496.89 110.22,-491.57"/>
</g>
<!-- Node3&#45;&gt;Node4 -->
<g id="edge4" class="edge">
<title>Node3&#45;&gt;Node4</title>
<path fill="none" stroke="midnightblue" d="M596.17,-670.53C631.47,-679.82 676.19,-691.59 709.26,-700.3"/>
<polygon fill="midnightblue" stroke="midnightblue" points="708.56,-703.74 719.13,-702.9 710.35,-696.97 708.56,-703.74"/>
</g>
<!-- Node3&#45;&gt;Node5 -->
<g id="edge5" class="edge">
<title>Node3&#45;&gt;Node5</title>
<path fill="none" stroke="midnightblue" d="M561.44,-670.56C586.01,-686.73 626.86,-712.61 664,-731.47 677.33,-738.25 692.16,-744.8 705.93,-750.51"/>
<polygon fill="midnightblue" stroke="midnightblue" points="704.69,-753.78 715.27,-754.31 707.33,-747.3 704.69,-753.78"/>
</g>
<!-- Node3&#45;&gt;Node6 -->
<g id="edge6" class="edge">
<title>Node3&#45;&gt;Node6</title>
<path fill="none" stroke="midnightblue" d="M624.57,-658.24C636.08,-658.61 647.96,-659 659.64,-659.38"/>
<polygon fill="midnightblue" stroke="midnightblue" points="659.74,-662.88 669.85,-659.71 659.96,-655.88 659.74,-662.88"/>
</g>
<!-- Node3&#45;&gt;Node7 -->
<g id="edge7" class="edge">
<title>Node3&#45;&gt;Node7</title>
<path fill="none" stroke="midnightblue" d="M548.27,-670.66C566.63,-699.42 610.52,-761.87 664,-794.47 669.84,-798.04 676.2,-801.07 682.76,-803.66"/>
<polygon fill="midnightblue" stroke="midnightblue" points="681.89,-807.07 692.48,-807.15 684.25,-800.48 681.89,-807.07"/>
</g>
<!-- Node8 -->
<g id="node8" class="node">
<title>Node8</title>
<g id="a_node8"><a xlink:href="../../d4/d3c/a01418.html#a465d6b8071232dd55e5c39a056674488" target="_top" xlink:title=" ">
<polygon fill="none" stroke="black" points="683,-614.97 683,-633.97 830,-633.97 830,-614.97 683,-614.97"/>
<text text-anchor="middle" x="756.5" y="-621.97" font-family="Helvetica,sans-Serif" font-size="10.00">com.cliffc.aa.type.Bits.test</text>
</a>
</g>
</g>
<!-- Node3&#45;&gt;Node8 -->
<g id="edge8" class="edge">
<title>Node3&#45;&gt;Node8</title>
<path fill="none" stroke="midnightblue" d="M624.57,-643.22C642.45,-640.66 661.2,-637.98 678.74,-635.47"/>
<polygon fill="midnightblue" stroke="midnightblue" points="679.51,-638.89 688.91,-634.01 678.51,-631.96 679.51,-638.89"/>
</g>
<!-- Node3&#45;&gt;Node9 -->
<g id="edge9" class="edge">
<title>Node3&#45;&gt;Node9</title>
<path fill="none" stroke="midnightblue" d="M589.04,-640.39C601.91,-636.02 615.62,-630.95 628,-625.47 644.74,-618.08 647.78,-613.96 664,-605.47 684.51,-594.74 707.95,-583.23 725.96,-574.54"/>
<polygon fill="midnightblue" stroke="midnightblue" points="727.87,-577.51 735.36,-570.02 724.83,-571.2 727.87,-577.51"/>
</g>
<!-- Node10 -->
<g id="node10" class="node">
<title>Node10</title>
<g id="a_node10"><a xlink:href="../../d3/d30/a00370.html#ad1b6f2b7e61738dac4e3aa0ebc7f36a7" target="_top" xlink:title=" ">
<polygon fill="none" stroke="black" points="690.5,-443.97 690.5,-462.97 822.5,-462.97 822.5,-443.97 690.5,-443.97"/>
<text text-anchor="middle" x="756.5" y="-450.97" font-family="Helvetica,sans-Serif" font-size="10.00">com.cliffc.aa.AA.unimpl</text>
</a>
</g>
</g>
<!-- Node3&#45;&gt;Node10 -->
<g id="edge10" class="edge">
<title>Node3&#45;&gt;Node10</title>
<path fill="none" stroke="midnightblue" d="M555.27,-640.29C594.92,-603.3 696.26,-508.75 737.57,-470.21"/>
<polygon fill="midnightblue" stroke="midnightblue" points="740.07,-472.66 744.99,-463.28 735.29,-467.54 740.07,-472.66"/>
</g>
<!-- Node10&#45;&gt;Node10 -->
<g id="edge11" class="edge">
<title>Node10&#45;&gt;Node10</title>
<path fill="none" stroke="midnightblue" d="M723.17,-463.09C706.43,-471.94 717.54,-481.47 756.5,-481.47 785.11,-481.47 798.7,-476.33 797.27,-470.09"/>
<polygon fill="midnightblue" stroke="midnightblue" points="799.51,-467.39 789.83,-463.09 794.71,-472.49 799.51,-467.39"/>
</g>
<!-- Node11&#45;&gt;Node6 -->
<g id="edge25" class="edge">
<title>Node11&#45;&gt;Node6</title>
<path fill="none" stroke="midnightblue" d="M322.07,-419.05C362.73,-455.27 514.21,-584.81 664,-643.47 670.75,-646.12 677.93,-648.42 685.19,-650.41"/>
<polygon fill="midnightblue" stroke="midnightblue" points="684.54,-653.86 695.1,-652.95 686.28,-647.08 684.54,-653.86"/>
</g>
<!-- Node11&#45;&gt;Node9 -->
<g id="edge31" class="edge">
<title>Node11&#45;&gt;Node9</title>
<path fill="none" stroke="midnightblue" d="M327.34,-419.03C352.23,-433.68 402.37,-461.75 448,-478.47 525.23,-506.78 548.63,-499.88 628,-521.47 657.97,-529.63 691.55,-539.95 716.73,-547.93"/>
<polygon fill="midnightblue" stroke="midnightblue" points="715.69,-551.27 726.28,-550.97 717.81,-544.6 715.69,-551.27"/>
</g>
<!-- Node11&#45;&gt;Node10 -->
<g id="edge32" class="edge">
<title>Node11&#45;&gt;Node10</title>
<path fill="none" stroke="midnightblue" d="M412.29,-412.68C474.61,-415.45 556.16,-420.48 628,-429.47 652.53,-432.55 679.46,-437.4 702.23,-441.93"/>
<polygon fill="midnightblue" stroke="midnightblue" points="701.55,-445.37 712.04,-443.92 702.94,-438.51 701.55,-445.37"/>
</g>
<!-- Node12 -->
<g id="node12" class="node">
<title>Node12</title>
<g id="a_node12"><a xlink:href="../../d8/d7b/a01478.html#aa5be5182988a956798337282ec719f22" target="_top" xlink:title=" ">
<polygon fill="none" stroke="black" points="465,-438.47 465,-468.47 611,-468.47 611,-438.47 465,-438.47"/>
<text text-anchor="start" x="473" y="-456.47" font-family="Helvetica,sans-Serif" font-size="10.00">com.cliffc.aa.type.TypeFun</text>
<text text-anchor="middle" x="538" y="-445.47" font-family="Helvetica,sans-Serif" font-size="10.00">Ptr.ax_meet_nil</text>
</a>
</g>
</g>
<!-- Node11&#45;&gt;Node12 -->
<g id="edge19" class="edge">
<title>Node11&#45;&gt;Node12</title>
<path fill="none" stroke="midnightblue" d="M360.43,-419.02C387.9,-424.38 422.9,-431.21 454.49,-437.37"/>
<polygon fill="midnightblue" stroke="midnightblue" points="454.12,-440.87 464.61,-439.35 455.46,-434 454.12,-440.87"/>
</g>
<!-- Node13 -->
<g id="node13" class="node">
<title>Node13</title>
<g id="a_node13"><a xlink:href="../../d6/dc9/a01498.html#a1eeb360ad67f238bd5c9388a663d9fea" target="_top" xlink:title=" ">
<polygon fill="none" stroke="black" points="461,-169.47 461,-199.47 615,-199.47 615,-169.47 461,-169.47"/>
<text text-anchor="start" x="469" y="-187.47" font-family="Helvetica,sans-Serif" font-size="10.00">com.cliffc.aa.type.TypeMem</text>
<text text-anchor="middle" x="538" y="-176.47" font-family="Helvetica,sans-Serif" font-size="10.00">Ptr.ax_meet_nil</text>
</a>
</g>
</g>
<!-- Node11&#45;&gt;Node13 -->
<g id="edge21" class="edge">
<title>Node11&#45;&gt;Node13</title>
<path fill="none" stroke="midnightblue" d="M399.33,-399.96C403.94,-397.36 408.22,-394.22 412,-390.47 470.27,-332.75 392.29,-269.68 448,-209.47 449.39,-207.97 450.86,-206.56 452.4,-205.23"/>
<polygon fill="midnightblue" stroke="midnightblue" points="454.62,-207.94 460.65,-199.23 450.51,-202.28 454.62,-207.94"/>
</g>
<!-- Node16 -->
<g id="node16" class="node">
<title>Node16</title>
<g id="a_node16"><a xlink:href="../../d4/d3c/a01418.html#adf13a2e038fefa42a481fc7417d31a4b" target="_top" xlink:title=" ">
<polygon fill="none" stroke="black" points="679.5,-309.97 679.5,-328.97 833.5,-328.97 833.5,-309.97 679.5,-309.97"/>
<text text-anchor="middle" x="756.5" y="-316.97" font-family="Helvetica,sans-Serif" font-size="10.00">com.cliffc.aa.type.Bits.meet</text>
</a>
</g>
</g>
<!-- Node11&#45;&gt;Node16 -->
<g id="edge27" class="edge">
<title>Node11&#45;&gt;Node16</title>
<path fill="none" stroke="midnightblue" d="M372.15,-399.94C436.06,-389.57 539.51,-371.87 628,-352.47 656.07,-346.32 687.31,-338.26 711.84,-331.64"/>
<polygon fill="midnightblue" stroke="midnightblue" points="712.84,-335 721.57,-329 711.01,-328.24 712.84,-335"/>
</g>
<!-- Node17 -->
<g id="node17" class="node">
<title>Node17</title>
<g id="a_node17"><a xlink:href="../../da/da6/a01522.html#ac2104477ec8244374059301b91701d90" target="_top" xlink:title=" ">
<polygon fill="none" stroke="black" points="450,-323.97 450,-342.97 626,-342.97 626,-323.97 450,-323.97"/>
<text text-anchor="middle" x="538" y="-330.97" font-family="Helvetica,sans-Serif" font-size="10.00">com.cliffc.aa.type.TypeStruct.len</text>
</a>
</g>
</g>
<!-- Node11&#45;&gt;Node17 -->
<g id="edge26" class="edge">
<title>Node11&#45;&gt;Node17</title>
<path fill="none" stroke="midnightblue" d="M387.1,-399.94C395.74,-397.47 404.22,-394.37 412,-390.47 431.41,-380.75 428.98,-367.93 448,-357.47 456.43,-352.84 465.81,-349.06 475.23,-345.98"/>
<polygon fill="midnightblue" stroke="midnightblue" points="476.45,-349.27 485.02,-343.03 474.43,-342.57 476.45,-349.27"/>
</g>
<!-- Node18 -->
<g id="node18" class="node">
<title>Node18</title>
<g id="a_node18"><a xlink:href="../../d0/de2/a01442.html#a086b90d9d651ac00b80a9b5caa60eb09" target="_top" xlink:title=" ">
<polygon fill="none" stroke="black" points="459,-285.97 459,-304.97 617,-304.97 617,-285.97 459,-285.97"/>
<text text-anchor="middle" x="538" y="-292.97" font-family="Helvetica,sans-Serif" font-size="10.00">com.cliffc.aa.type.Type.meet</text>
</a>
</g>
</g>
<!-- Node11&#45;&gt;Node18 -->
<g id="edge28" class="edge">
<title>Node11&#45;&gt;Node18</title>
<path fill="none" stroke="midnightblue" d="M395.88,-399.94C401.63,-397.39 407.08,-394.27 412,-390.47 441.58,-367.63 418.69,-337.67 448,-314.47 450.11,-312.8 452.34,-311.27 454.66,-309.86"/>
<polygon fill="midnightblue" stroke="midnightblue" points="456.7,-312.74 463.98,-305.04 453.49,-306.52 456.7,-312.74"/>
</g>
<!-- Node19 -->
<g id="node19" class="node">
<title>Node19</title>
<g id="a_node19"><a xlink:href="../../d7/d1d/a01554.html#acbc3c2363ad9e2ce1b2db418cca51f3a" target="_top" xlink:title=" ">
<polygon fill="none" stroke="black" points="473,-218.47 473,-248.47 603,-248.47 603,-218.47 473,-218.47"/>
<text text-anchor="start" x="481" y="-236.47" font-family="Helvetica,sans-Serif" font-size="10.00">com.cliffc.aa.util.BitSet</text>
<text text-anchor="middle" x="538" y="-225.47" font-family="Helvetica,sans-Serif" font-size="10.00">Sparse.tset</text>
</a>
</g>
</g>
<!-- Node11&#45;&gt;Node19 -->
<g id="edge29" class="edge">
<title>Node11&#45;&gt;Node19</title>
<path fill="none" stroke="midnightblue" d="M397.92,-399.95C402.99,-397.37 407.75,-394.25 412,-390.47 451.74,-355.21 413.23,-316.65 448,-276.47 456.42,-266.75 467.54,-259.03 479.05,-252.98"/>
<polygon fill="midnightblue" stroke="midnightblue" points="480.86,-255.99 488.33,-248.48 477.8,-249.69 480.86,-255.99"/>
</g>
<!-- Node12&#45;&gt;Node10 -->
<g id="edge20" class="edge">
<title>Node12&#45;&gt;Node10</title>
<path fill="none" stroke="midnightblue" d="M611.09,-453.47C633.28,-453.47 657.76,-453.47 680.16,-453.47"/>
<polygon fill="midnightblue" stroke="midnightblue" points="680.29,-456.98 690.29,-453.47 680.29,-449.98 680.29,-456.98"/>
</g>
<!-- Node14 -->
<g id="node14" class="node">
<title>Node14</title>
<g id="a_node14"><a xlink:href="../../de/dc6/a01502.html#a45229600a2ea7a5cb2bf31100d208431" target="_top" xlink:title=" ">
<polygon fill="none" stroke="black" points="667,-169.47 667,-199.47 846,-199.47 846,-169.47 667,-169.47"/>
<text text-anchor="start" x="675" y="-187.47" font-family="Helvetica,sans-Serif" font-size="10.00">com.cliffc.aa.type.TypeObj.above</text>
<text text-anchor="middle" x="756.5" y="-176.47" font-family="Helvetica,sans-Serif" font-size="10.00">_center</text>
</a>
</g>
</g>
<!-- Node13&#45;&gt;Node14 -->
<g id="edge22" class="edge">
<title>Node13&#45;&gt;Node14</title>
<path fill="none" stroke="midnightblue" d="M615.03,-184.47C628.46,-184.47 642.62,-184.47 656.57,-184.47"/>
<polygon fill="midnightblue" stroke="midnightblue" points="656.68,-187.98 666.68,-184.47 656.68,-180.98 656.68,-187.98"/>
</g>
<!-- Node15 -->
<g id="node15" class="node">
<title>Node15</title>
<g id="a_node15"><a xlink:href="../../d4/d3c/a01418.html#ade7c75761a424cd9e92aad62e6dc0cd3" target="_top" xlink:title=" ">
<polygon fill="none" stroke="black" points="685,-218.97 685,-237.97 828,-237.97 828,-218.97 685,-218.97"/>
<text text-anchor="middle" x="756.5" y="-225.97" font-family="Helvetica,sans-Serif" font-size="10.00">com.cliffc.aa.type.Bits.isa</text>
</a>
</g>
</g>
<!-- Node13&#45;&gt;Node15 -->
<g id="edge23" class="edge">
<title>Node13&#45;&gt;Node15</title>
<path fill="none" stroke="midnightblue" d="M612.9,-199.49C640.91,-205.19 672.34,-211.57 698.55,-216.9"/>
<polygon fill="midnightblue" stroke="midnightblue" points="698.2,-220.4 708.69,-218.96 699.59,-213.54 698.2,-220.4"/>
</g>
<!-- Node13&#45;&gt;Node16 -->
<g id="edge24" class="edge">
<title>Node13&#45;&gt;Node16</title>
<path fill="none" stroke="midnightblue" d="M607.65,-199.64C614.76,-202.41 621.68,-205.66 628,-209.47 647.92,-221.5 646.81,-231.8 664,-247.47 686.69,-268.17 714.68,-289.66 733.68,-303.72"/>
<polygon fill="midnightblue" stroke="midnightblue" points="731.84,-306.71 741.98,-309.8 735.98,-301.06 731.84,-306.71"/>
</g>
<!-- Node19&#45;&gt;Node19 -->
<g id="edge30" class="edge">
<title>Node19&#45;&gt;Node19</title>
<path fill="none" stroke="midnightblue" d="M500.01,-248.63C490.85,-258.03 503.51,-266.97 538,-266.97 559.02,-266.97 571.93,-263.65 576.74,-258.93"/>
<polygon fill="midnightblue" stroke="midnightblue" points="580.2,-258.36 575.99,-248.63 573.22,-258.86 580.2,-258.36"/>
</g>
<!-- Node21 -->
<g id="node21" class="node">
<title>Node21</title>
<g id="a_node21"><a xlink:href="../../d5/d67/a01466.html#aa4690362ae6b60d7c29aaba6b6b41dfb" target="_top" xlink:title=" ">
<polygon fill="none" stroke="black" points="672.5,-69.97 672.5,-88.97 840.5,-88.97 840.5,-69.97 672.5,-69.97"/>
<text text-anchor="middle" x="756.5" y="-76.97" font-family="Helvetica,sans-Serif" font-size="10.00">com.cliffc.aa.type.TypeFlds.get</text>
</a>
</g>
</g>
<!-- Node20&#45;&gt;Node21 -->
<g id="edge34" class="edge">
<title>Node20&#45;&gt;Node21</title>
<path fill="none" stroke="midnightblue" d="M399.97,-361.88C404.36,-359.28 408.42,-356.17 412,-352.47 484.28,-277.83 373.84,-194.25 448,-121.47 463.22,-106.54 577.22,-94.01 662,-86.63"/>
<polygon fill="midnightblue" stroke="midnightblue" points="662.52,-90.1 672.18,-85.75 661.92,-83.12 662.52,-90.1"/>
</g>
<!-- Node22 -->
<g id="node22" class="node">
<title>Node22</title>
<g id="a_node22"><a xlink:href="../../d7/dd1/a01458.html#a8dc748b7e3bd44f091283928596aa9aa" target="_top" xlink:title=" ">
<polygon fill="none" stroke="black" points="448,-130.97 448,-149.97 628,-149.97 628,-130.97 448,-130.97"/>
<text text-anchor="middle" x="538" y="-137.97" font-family="Helvetica,sans-Serif" font-size="10.00">com.cliffc.aa.type.TypeFld.malloc</text>
</a>
</g>
</g>
<!-- Node20&#45;&gt;Node22 -->
<g id="edge35" class="edge">
<title>Node20&#45;&gt;Node22</title>
<path fill="none" stroke="midnightblue" d="M399.84,-361.75C404.26,-359.18 408.36,-356.12 412,-352.47 473.35,-291.04 387.71,-222.95 448,-160.47 449.65,-158.76 451.42,-157.18 453.28,-155.72"/>
<polygon fill="midnightblue" stroke="midnightblue" points="455.49,-158.46 461.97,-150.08 451.68,-152.59 455.49,-158.46"/>
</g>
<!-- Node25 -->
<g id="node25" class="node">
<title>Node25</title>
<g id="a_node25"><a xlink:href="../../d5/d67/a01466.html#a7635be6e4a0ff98f908dbdbe136a11d0" target="_top" xlink:title=" ">
<polygon fill="none" stroke="black" points="670.5,-21.97 670.5,-40.97 842.5,-40.97 842.5,-21.97 670.5,-21.97"/>
<text text-anchor="middle" x="756.5" y="-28.97" font-family="Helvetica,sans-Serif" font-size="10.00">com.cliffc.aa.type.TypeFlds.tary</text>
</a>
</g>
</g>
<!-- Node20&#45;&gt;Node25 -->
<g id="edge39" class="edge">
<title>Node20&#45;&gt;Node25</title>
<path fill="none" stroke="midnightblue" d="M400.14,-362.04C404.48,-359.4 408.49,-356.24 412,-352.47 505.68,-251.99 347.46,-139.1 448,-45.47 521.13,22.63 651.5,-1.29 716.46,-19.13"/>
<polygon fill="midnightblue" stroke="midnightblue" points="715.73,-22.57 726.31,-21.93 717.64,-15.83 715.73,-22.57"/>
</g>
<!-- Node27 -->
<g id="node27" class="node">
<title>Node27</title>
<g id="a_node27"><a xlink:href="../../d5/d67/a01466.html#aae9c15c127f99a9ce4687428f9150fa5" target="_top" xlink:title=" ">
<polygon fill="none" stroke="black" points="457.5,-54.97 457.5,-73.97 618.5,-73.97 618.5,-54.97 457.5,-54.97"/>
<text text-anchor="middle" x="538" y="-61.97" font-family="Helvetica,sans-Serif" font-size="10.00">com.cliffc.aa.type.TypeFlds.ts</text>
</a>
</g>
</g>
<!-- Node20&#45;&gt;Node27 -->
<g id="edge41" class="edge">
<title>Node20&#45;&gt;Node27</title>
<path fill="none" stroke="midnightblue" d="M400.06,-361.96C404.42,-359.34 408.45,-356.21 412,-352.47 493.56,-266.62 369.79,-177.39 448,-88.47 451.26,-84.77 455.03,-81.6 459.14,-78.9"/>
<polygon fill="midnightblue" stroke="midnightblue" points="460.94,-81.91 468,-74 457.55,-75.79 460.94,-81.91"/>
</g>
<!-- Node23 -->
<g id="node23" class="node">
<title>Node23</title>
<g id="a_node23"><a xlink:href="../../d7/dd1/a01458.html#aebf9db57988d0a21aaf004a9cf7dcd18" target="_top" xlink:title=" ">
<polygon fill="none" stroke="black" points="675,-112.97 675,-131.97 838,-131.97 838,-112.97 675,-112.97"/>
<text text-anchor="middle" x="756.5" y="-119.97" font-family="Helvetica,sans-Serif" font-size="10.00">com.cliffc.aa.type.TypeFld.init</text>
</a>
</g>
</g>
<!-- Node22&#45;&gt;Node23 -->
<g id="edge36" class="edge">
<title>Node22&#45;&gt;Node23</title>
<path fill="none" stroke="midnightblue" d="M628.31,-133.05C640.32,-132.05 652.65,-131.03 664.69,-130.02"/>
<polygon fill="midnightblue" stroke="midnightblue" points="665.04,-133.51 674.72,-129.19 664.46,-126.53 665.04,-133.51"/>
</g>
<!-- Node23&#45;&gt;Node23 -->
<g id="edge38" class="edge">
<title>Node23&#45;&gt;Node23</title>
<path fill="none" stroke="midnightblue" d="M723.17,-132.09C706.43,-140.94 717.54,-150.47 756.5,-150.47 785.11,-150.47 798.7,-145.33 797.27,-139.09"/>
<polygon fill="midnightblue" stroke="midnightblue" points="799.51,-136.39 789.83,-132.09 794.71,-141.49 799.51,-136.39"/>
</g>
<!-- Node24 -->
<g id="node24" class="node">
<title>Node24</title>
<g id="a_node24"><a xlink:href="../../d7/dd1/a01458.html#ac20a2ec618c7fe3b84875faae151ebd2" target="_top" xlink:title=" ">
<polygon fill="none" stroke="black" points="885,-112.97 885,-131.97 1103,-131.97 1103,-112.97 885,-112.97"/>
<text text-anchor="middle" x="994" y="-119.97" font-family="Helvetica,sans-Serif" font-size="10.00">com.cliffc.aa.type.TypeFld.compute_hash</text>
</a>
</g>
</g>
<!-- Node23&#45;&gt;Node24 -->
<g id="edge37" class="edge">
<title>Node23&#45;&gt;Node24</title>
<path fill="none" stroke="midnightblue" d="M838.22,-122.47C849.97,-122.47 862.27,-122.47 874.59,-122.47"/>
<polygon fill="midnightblue" stroke="midnightblue" points="874.92,-125.98 884.92,-122.47 874.92,-118.98 874.92,-125.98"/>
</g>
<!-- Node26 -->
<g id="node26" class="node">
<title>Node26</title>
<g id="a_node26"><a xlink:href="../../d5/d67/a01466.html#adb7e8e0bcb616710cc42cd7f670936e0" target="_top" xlink:title=" ">
<polygon fill="none" stroke="black" points="918,-16.47 918,-46.47 1070,-46.47 1070,-16.47 918,-16.47"/>
<text text-anchor="start" x="926" y="-34.47" font-family="Helvetica,sans-Serif" font-size="10.00">com.cliffc.aa.type.TypeFlds.</text>
<text text-anchor="middle" x="994" y="-23.47" font-family="Helvetica,sans-Serif" font-size="10.00">TypeFlds</text>
</a>
</g>
</g>
<!-- Node25&#45;&gt;Node26 -->
<g id="edge40" class="edge">
<title>Node25&#45;&gt;Node26</title>
<path fill="none" stroke="midnightblue" d="M842.52,-31.47C863.69,-31.47 886.4,-31.47 907.59,-31.47"/>
<polygon fill="midnightblue" stroke="midnightblue" points="907.86,-34.98 917.86,-31.47 907.86,-27.98 907.86,-34.98"/>
</g>
<!-- Node27&#45;&gt;Node21 -->
<g id="edge42" class="edge">
<title>Node27&#45;&gt;Node21</title>
<path fill="none" stroke="midnightblue" d="M618.69,-70C632.9,-70.98 647.81,-72.01 662.35,-73.02"/>
<polygon fill="midnightblue" stroke="midnightblue" points="662.13,-76.51 672.34,-73.71 662.61,-69.53 662.13,-76.51"/>
</g>
<!-- Node27&#45;&gt;Node25 -->
<g id="edge43" class="edge">
<title>Node27&#45;&gt;Node25</title>
<path fill="none" stroke="midnightblue" d="M601.33,-54.97C626.81,-51.09 656.45,-46.57 682.9,-42.54"/>
<polygon fill="midnightblue" stroke="midnightblue" points="683.5,-45.99 692.86,-41.02 682.45,-39.07 683.5,-45.99"/>
</g>
</g>
</svg>
