<?xml version="1.0" encoding="UTF-8" standalone="no"?>
<!DOCTYPE svg PUBLIC "-//W3C//DTD SVG 1.1//EN"
 "http://www.w3.org/Graphics/SVG/1.1/DTD/svg11.dtd">
<!-- Generated by graphviz version 2.43.0 (0)
 -->
<!-- Title: com.cliffc.aa.type.TypeStruct.meet_loop Pages: 1 -->
<!--zoomable 665 -->
<svg id="main" version="1.1" xmlns="http://www.w3.org/2000/svg" xmlns:xlink="http://www.w3.org/1999/xlink" xml:space="preserve" onload="init(evt)">
<style type="text/css"><![CDATA[
.edge:hover path { stroke: red; }
.edge:hover polygon { stroke: red; fill: red; }
]]></style>
<script type="text/javascript"><![CDATA[
var edges = document.getElementsByTagName('g');
if (edges && edges.length) {
  for (var i=0;i<edges.length;i++) {
    if (edges[i].id.substr(0,4)=='edge') {
      edges[i].setAttribute('class','edge');
    }
  }
}
]]></script>
        <defs>
                <circle id="rim" cx="0" cy="0" r="7"/>
                <circle id="rim2" cx="0" cy="0" r="3.5"/>
                <g id="zoomPlus">
                        <use xlink:href="#rim" fill="#404040">
                                <set attributeName="fill" to="#808080" begin="zoomplus.mouseover" end="zoomplus.mouseout"/>
                        </use>
                        <path d="M-4,0h8M0,-4v8" fill="none" stroke="white" stroke-width="1.5" pointer-events="none"/>
                </g>
                <g id="zoomMin">
                        <use xlink:href="#rim" fill="#404040">
                                <set attributeName="fill" to="#808080" begin="zoomminus.mouseover" end="zoomminus.mouseout"/>
                        </use>
                        <path d="M-4,0h8" fill="none" stroke="white" stroke-width="1.5" pointer-events="none"/>
                </g>
                <g id="dirArrow">
                        <path fill="none" stroke="white" stroke-width="1.5" d="M0,-3.0v7 M-2.5,-0.5L0,-3.0L2.5,-0.5"/>
                </g>
               <g id="resetDef">
                       <use xlink:href="#rim2" fill="#404040">
                               <set attributeName="fill" to="#808080" begin="reset.mouseover" end="reset.mouseout"/>
                       </use>
               </g>
        </defs>

<script type="text/javascript">
var viewWidth = 1993;
var viewHeight = 665;
var sectionId = 'dynsection-88';
</script>
<script xlink:href="../../svgpan.js"/>
<svg id="graph" class="graph">
<g id="viewport">
<title>com.cliffc.aa.type.TypeStruct.meet_loop</title>
<!-- Node1 -->
<g id="node1" class="node">
<title>Node1</title>
<g id="a_node1"><a xlink:title=" ">
<polygon fill="#bfbfbf" stroke="black" points="0,-309 0,-328 212,-328 212,-309 0,-309"/>
<text text-anchor="middle" x="106" y="-316" font-family="Helvetica,sans-Serif" font-size="10.00">com.cliffc.aa.type.TypeStruct.meet_loop</text>
</a>
</g>
</g>
<!-- Node2 -->
<g id="node2" class="node">
<title>Node2</title>
<g id="a_node2"><a xlink:href="../../da/da6/a01522.html#a94b36b8963e3344985c7d4ec3752dc53" target="_top" xlink:title=" ">
<polygon fill="none" stroke="black" points="248,-309 248,-328 446,-328 446,-309 248,-309"/>
<text text-anchor="middle" x="347" y="-316" font-family="Helvetica,sans-Serif" font-size="10.00">com.cliffc.aa.type.TypeStruct.xmeet1</text>
</a>
</g>
</g>
<!-- Node1&#45;&gt;Node2 -->
<g id="edge1" class="edge">
<title>Node1&#45;&gt;Node2</title>
<path fill="none" stroke="midnightblue" d="M212.18,-318.5C220.73,-318.5 229.38,-318.5 237.95,-318.5"/>
<polygon fill="midnightblue" stroke="midnightblue" points="237.96,-322 247.96,-318.5 237.96,-315 237.96,-322"/>
</g>
<!-- Node3 -->
<g id="node3" class="node">
<title>Node3</title>
<g id="a_node3"><a xlink:href="../../da/da6/a01522.html#af7ed4d2deaacbc98e71248cb459ad397" target="_top" xlink:title=" ">
<polygon fill="none" stroke="black" points="966.5,-290 966.5,-309 1144.5,-309 1144.5,-290 966.5,-290"/>
<text text-anchor="middle" x="1055.5" y="-297" font-family="Helvetica,sans-Serif" font-size="10.00">com.cliffc.aa.type.TypeStruct.flds</text>
</a>
</g>
</g>
<!-- Node2&#45;&gt;Node3 -->
<g id="edge2" class="edge">
<title>Node2&#45;&gt;Node3</title>
<path fill="none" stroke="midnightblue" d="M373.73,-308.9C400.38,-299.51 443.44,-285.86 482,-280.5 658.23,-256 867.76,-275.02 977.97,-288.7"/>
<polygon fill="midnightblue" stroke="midnightblue" points="977.64,-292.19 988,-289.97 978.51,-285.24 977.64,-292.19"/>
</g>
<!-- Node4 -->
<g id="node4" class="node">
<title>Node4</title>
<g id="a_node4"><a xlink:href="../../d5/d67/a01466.html#aa4690362ae6b60d7c29aaba6b6b41dfb" target="_top" xlink:title=" ">
<polygon fill="none" stroke="black" points="1627,-526 1627,-545 1795,-545 1795,-526 1627,-526"/>
<text text-anchor="middle" x="1711" y="-533" font-family="Helvetica,sans-Serif" font-size="10.00">com.cliffc.aa.type.TypeFlds.get</text>
</a>
</g>
</g>
<!-- Node2&#45;&gt;Node4 -->
<g id="edge3" class="edge">
<title>Node2&#45;&gt;Node4</title>
<path fill="none" stroke="midnightblue" d="M354.53,-328.25C392.49,-383.67 591.22,-656.5 824.5,-656.5 824.5,-656.5 824.5,-656.5 1282.5,-656.5 1437.99,-656.5 1613.68,-581.47 1681.34,-549.58"/>
<polygon fill="midnightblue" stroke="midnightblue" points="1683.01,-552.66 1690.53,-545.2 1679.99,-546.34 1683.01,-552.66"/>
</g>
<!-- Node5 -->
<g id="node5" class="node">
<title>Node5</title>
<g id="a_node5"><a xlink:href="../../da/da6/a01522.html#a9cbde0552e5f930dcd0e058c8a31b7aa" target="_top" xlink:title=" ">
<polygon fill="none" stroke="black" points="482,-391.5 482,-421.5 688,-421.5 688,-391.5 482,-391.5"/>
<text text-anchor="start" x="490" y="-409.5" font-family="Helvetica,sans-Serif" font-size="10.00">com.cliffc.aa.type.TypeStruct.hashcons</text>
<text text-anchor="middle" x="585" y="-398.5" font-family="Helvetica,sans-Serif" font-size="10.00">_freeS</text>
</a>
</g>
</g>
<!-- Node2&#45;&gt;Node5 -->
<g id="edge4" class="edge">
<title>Node2&#45;&gt;Node5</title>
<path fill="none" stroke="midnightblue" d="M373.71,-328.09C412.01,-342.37 484.81,-369.51 533.88,-387.81"/>
<polygon fill="midnightblue" stroke="midnightblue" points="532.76,-391.13 543.36,-391.34 535.21,-384.57 532.76,-391.13"/>
</g>
<!-- Node14 -->
<g id="node14" class="node">
<title>Node14</title>
<g id="a_node14"><a xlink:href="../../da/da6/a01522.html#ac2104477ec8244374059301b91701d90" target="_top" xlink:title=" ">
<polygon fill="none" stroke="black" points="497,-290 497,-309 673,-309 673,-290 497,-290"/>
<text text-anchor="middle" x="585" y="-297" font-family="Helvetica,sans-Serif" font-size="10.00">com.cliffc.aa.type.TypeStruct.len</text>
</a>
</g>
</g>
<!-- Node2&#45;&gt;Node14 -->
<g id="edge17" class="edge">
<title>Node2&#45;&gt;Node14</title>
<path fill="none" stroke="midnightblue" d="M446.03,-310.61C459.46,-309.53 473.23,-308.42 486.64,-307.34"/>
<polygon fill="midnightblue" stroke="midnightblue" points="487.13,-310.81 496.82,-306.52 486.57,-303.83 487.13,-310.81"/>
</g>
<!-- Node15 -->
<g id="node15" class="node">
<title>Node15</title>
<g id="a_node15"><a xlink:href="../../da/da6/a01522.html#ac831a9a3f5b64517297f55a1737309ec" target="_top" xlink:title=" ">
<polygon fill="none" stroke="black" points="488,-328 488,-347 682,-347 682,-328 488,-328"/>
<text text-anchor="middle" x="585" y="-335" font-family="Helvetica,sans-Serif" font-size="10.00">com.cliffc.aa.type.TypeStruct.malloc</text>
</a>
</g>
</g>
<!-- Node2&#45;&gt;Node15 -->
<g id="edge18" class="edge">
<title>Node2&#45;&gt;Node15</title>
<path fill="none" stroke="midnightblue" d="M446.03,-326.39C456.5,-327.23 467.17,-328.09 477.72,-328.94"/>
<polygon fill="midnightblue" stroke="midnightblue" points="477.54,-332.44 487.79,-329.75 478.1,-325.46 477.54,-332.44"/>
</g>
<!-- Node21 -->
<g id="node21" class="node">
<title>Node21</title>
<g id="a_node21"><a xlink:href="../../d7/dd1/a01458.html#ac383b2fefd1e60932acd4d7f6926a3d6" target="_top" xlink:title=" ">
<polygon fill="none" stroke="black" points="495.5,-126 495.5,-145 674.5,-145 674.5,-126 495.5,-126"/>
<text text-anchor="middle" x="585" y="-133" font-family="Helvetica,sans-Serif" font-size="10.00">com.cliffc.aa.type.TypeFld.xmeet</text>
</a>
</g>
</g>
<!-- Node2&#45;&gt;Node21 -->
<g id="edge31" class="edge">
<title>Node2&#45;&gt;Node21</title>
<path fill="none" stroke="midnightblue" d="M360.36,-308.92C398.66,-279.22 515.69,-188.47 563.41,-151.46"/>
<polygon fill="midnightblue" stroke="midnightblue" points="565.72,-154.1 571.48,-145.21 561.43,-148.57 565.72,-154.1"/>
</g>
<!-- Node6 -->
<g id="node6" class="node">
<title>Node6</title>
<g id="a_node6"><a xlink:href="../../d5/d67/a01466.html#a129115553daba52b57a9d40488d132bb" target="_top" xlink:title=" ">
<polygon fill="none" stroke="black" points="724,-422 724,-441 927,-441 927,-422 724,-422"/>
<text text-anchor="middle" x="825.5" y="-429" font-family="Helvetica,sans-Serif" font-size="10.00">com.cliffc.aa.type.TypeFlds.hash_cons</text>
</a>
</g>
</g>
<!-- Node5&#45;&gt;Node6 -->
<g id="edge5" class="edge">
<title>Node5&#45;&gt;Node6</title>
<path fill="none" stroke="midnightblue" d="M688.18,-417.21C699.92,-418.44 711.88,-419.69 723.59,-420.92"/>
<polygon fill="midnightblue" stroke="midnightblue" points="723.51,-424.43 733.82,-421.99 724.24,-417.47 723.51,-424.43"/>
</g>
<!-- Node7 -->
<g id="node7" class="node">
<title>Node7</title>
<g id="a_node7"><a xlink:href="../../d5/d67/a01466.html#afd4ab1c8bae82cb0cd94e747234484c7" target="_top" xlink:title=" ">
<polygon fill="none" stroke="black" points="967.5,-509.5 967.5,-539.5 1143.5,-539.5 1143.5,-509.5 967.5,-509.5"/>
<text text-anchor="start" x="975.5" y="-527.5" font-family="Helvetica,sans-Serif" font-size="10.00">com.cliffc.aa.type.TypeFlds.hash</text>
<text text-anchor="middle" x="1055.5" y="-516.5" font-family="Helvetica,sans-Serif" font-size="10.00">_cons_</text>
</a>
</g>
</g>
<!-- Node6&#45;&gt;Node7 -->
<g id="edge6" class="edge">
<title>Node6&#45;&gt;Node7</title>
<path fill="none" stroke="midnightblue" d="M850.04,-441.1C887.19,-456.26 960.11,-486 1008.06,-505.56"/>
<polygon fill="midnightblue" stroke="midnightblue" points="1007.02,-508.91 1017.6,-509.45 1009.66,-502.43 1007.02,-508.91"/>
</g>
<!-- Node10 -->
<g id="node10" class="node">
<title>Node10</title>
<g id="a_node10"><a xlink:href="../../d5/d67/a01466.html#aae9c15c127f99a9ce4687428f9150fa5" target="_top" xlink:title=" ">
<polygon fill="none" stroke="black" points="1421.5,-490 1421.5,-509 1582.5,-509 1582.5,-490 1421.5,-490"/>
<text text-anchor="middle" x="1502" y="-497" font-family="Helvetica,sans-Serif" font-size="10.00">com.cliffc.aa.type.TypeFlds.ts</text>
</a>
</g>
</g>
<!-- Node6&#45;&gt;Node10 -->
<g id="edge16" class="edge">
<title>Node6&#45;&gt;Node10</title>
<path fill="none" stroke="midnightblue" d="M927.03,-425.06C1038.7,-420.22 1223.73,-419.13 1379,-451.5 1412.68,-458.52 1449.13,-473.99 1473.33,-485.48"/>
<polygon fill="midnightblue" stroke="midnightblue" points="1472.07,-488.76 1482.59,-489.97 1475.12,-482.46 1472.07,-488.76"/>
</g>
<!-- Node11 -->
<g id="node11" class="node">
<title>Node11</title>
<g id="a_node11"><a xlink:href="../../d5/d67/a01466.html#a7635be6e4a0ff98f908dbdbe136a11d0" target="_top" xlink:title=" ">
<polygon fill="none" stroke="black" points="1625,-454 1625,-473 1797,-473 1797,-454 1625,-454"/>
<text text-anchor="middle" x="1711" y="-461" font-family="Helvetica,sans-Serif" font-size="10.00">com.cliffc.aa.type.TypeFlds.tary</text>
</a>
</g>
</g>
<!-- Node6&#45;&gt;Node11 -->
<g id="edge15" class="edge">
<title>Node6&#45;&gt;Node11</title>
<path fill="none" stroke="midnightblue" d="M913.43,-421.98C929.87,-420.53 946.95,-419.26 963,-418.5 1147.69,-409.73 1194.56,-409.52 1379,-422.5 1468.97,-428.83 1571.98,-442.64 1638.87,-452.48"/>
<polygon fill="midnightblue" stroke="midnightblue" points="1638.47,-455.96 1648.88,-453.96 1639.5,-449.03 1638.47,-455.96"/>
</g>
<!-- Node8 -->
<g id="node8" class="node">
<title>Node8</title>
<g id="a_node8"><a xlink:href="../../d9/df5/a01574.html#ac48b496d83326e6d52ae1ec4f3459e86" target="_top" xlink:title=" ">
<polygon fill="none" stroke="black" points="1217.5,-460.5 1217.5,-490.5 1345.5,-490.5 1345.5,-460.5 1217.5,-460.5"/>
<text text-anchor="start" x="1225.5" y="-478.5" font-family="Helvetica,sans-Serif" font-size="10.00">com.cliffc.aa.util.IHash</text>
<text text-anchor="middle" x="1281.5" y="-467.5" font-family="Helvetica,sans-Serif" font-size="10.00">Map.get</text>
</a>
</g>
</g>
<!-- Node7&#45;&gt;Node8 -->
<g id="edge7" class="edge">
<title>Node7&#45;&gt;Node8</title>
<path fill="none" stroke="midnightblue" d="M1125.23,-509.47C1151.23,-503.78 1180.91,-497.29 1207.3,-491.51"/>
<polygon fill="midnightblue" stroke="midnightblue" points="1208.22,-494.89 1217.24,-489.34 1206.73,-488.06 1208.22,-494.89"/>
</g>
<!-- Node9 -->
<g id="node9" class="node">
<title>Node9</title>
<g id="a_node9"><a xlink:href="../../d0/da4/a01470.html#a0750a35f6cf3724d55eb0e0574ea7d9d" target="_top" xlink:title=" ">
<polygon fill="none" stroke="black" points="1205.5,-597.5 1205.5,-627.5 1357.5,-627.5 1357.5,-597.5 1205.5,-597.5"/>
<text text-anchor="start" x="1213.5" y="-615.5" font-family="Helvetica,sans-Serif" font-size="10.00">com.cliffc.aa.type.TypeFlds.</text>
<text text-anchor="middle" x="1281.5" y="-604.5" font-family="Helvetica,sans-Serif" font-size="10.00">Key.hash</text>
</a>
</g>
</g>
<!-- Node7&#45;&gt;Node9 -->
<g id="edge8" class="edge">
<title>Node7&#45;&gt;Node9</title>
<path fill="none" stroke="midnightblue" d="M1086.7,-539.54C1112.25,-551.95 1150.03,-569.55 1184,-582.5 1195.01,-586.7 1206.89,-590.76 1218.43,-594.47"/>
<polygon fill="midnightblue" stroke="midnightblue" points="1217.42,-597.82 1228.01,-597.49 1219.52,-591.14 1217.42,-597.82"/>
</g>
<!-- Node7&#45;&gt;Node10 -->
<g id="edge14" class="edge">
<title>Node7&#45;&gt;Node10</title>
<path fill="none" stroke="midnightblue" d="M1120.43,-539.55C1185.93,-552.62 1290.43,-566.95 1379,-549.5 1413.54,-542.7 1450.62,-526.02 1474.71,-513.79"/>
<polygon fill="midnightblue" stroke="midnightblue" points="1476.63,-516.74 1483.89,-509.02 1473.4,-510.52 1476.63,-516.74"/>
</g>
<!-- Node13 -->
<g id="node13" class="node">
<title>Node13</title>
<g id="a_node13"><a xlink:href="../../d9/df5/a01574.html#a48318148c1c043cb02b70ff5a7be8eb0" target="_top" xlink:title=" ">
<polygon fill="none" stroke="black" points="1217.5,-509.5 1217.5,-539.5 1345.5,-539.5 1345.5,-509.5 1217.5,-509.5"/>
<text text-anchor="start" x="1225.5" y="-527.5" font-family="Helvetica,sans-Serif" font-size="10.00">com.cliffc.aa.util.IHash</text>
<text text-anchor="middle" x="1281.5" y="-516.5" font-family="Helvetica,sans-Serif" font-size="10.00">Map.put</text>
</a>
</g>
</g>
<!-- Node7&#45;&gt;Node13 -->
<g id="edge13" class="edge">
<title>Node7&#45;&gt;Node13</title>
<path fill="none" stroke="midnightblue" d="M1143.75,-524.5C1164.76,-524.5 1187.01,-524.5 1207.31,-524.5"/>
<polygon fill="midnightblue" stroke="midnightblue" points="1207.41,-528 1217.41,-524.5 1207.41,-521 1207.41,-528"/>
</g>
<!-- Node9&#45;&gt;Node10 -->
<g id="edge9" class="edge">
<title>Node9&#45;&gt;Node10</title>
<path fill="none" stroke="midnightblue" d="M1340.72,-597.45C1353.61,-593.29 1366.99,-588.29 1379,-582.5 1417.67,-563.85 1457.99,-534.05 1481.23,-515.69"/>
<polygon fill="midnightblue" stroke="midnightblue" points="1483.65,-518.24 1489.27,-509.26 1479.27,-512.77 1483.65,-518.24"/>
</g>
<!-- Node10&#45;&gt;Node4 -->
<g id="edge10" class="edge">
<title>Node10&#45;&gt;Node4</title>
<path fill="none" stroke="midnightblue" d="M1557.66,-509.01C1584.43,-513.66 1616.87,-519.3 1644.92,-524.18"/>
<polygon fill="midnightblue" stroke="midnightblue" points="1644.58,-527.68 1655.04,-525.94 1645.78,-520.78 1644.58,-527.68"/>
</g>
<!-- Node10&#45;&gt;Node11 -->
<g id="edge11" class="edge">
<title>Node10&#45;&gt;Node11</title>
<path fill="none" stroke="midnightblue" d="M1557.66,-489.99C1584.43,-485.34 1616.87,-479.7 1644.92,-474.82"/>
<polygon fill="midnightblue" stroke="midnightblue" points="1645.78,-478.22 1655.04,-473.06 1644.58,-471.32 1645.78,-478.22"/>
</g>
<!-- Node12 -->
<g id="node12" class="node">
<title>Node12</title>
<g id="a_node12"><a xlink:href="../../d5/d67/a01466.html#adb7e8e0bcb616710cc42cd7f670936e0" target="_top" xlink:title=" ">
<polygon fill="none" stroke="black" points="1833,-448.5 1833,-478.5 1985,-478.5 1985,-448.5 1833,-448.5"/>
<text text-anchor="start" x="1841" y="-466.5" font-family="Helvetica,sans-Serif" font-size="10.00">com.cliffc.aa.type.TypeFlds.</text>
<text text-anchor="middle" x="1909" y="-455.5" font-family="Helvetica,sans-Serif" font-size="10.00">TypeFlds</text>
</a>
</g>
</g>
<!-- Node11&#45;&gt;Node12 -->
<g id="edge12" class="edge">
<title>Node11&#45;&gt;Node12</title>
<path fill="none" stroke="midnightblue" d="M1797.11,-463.5C1805.56,-463.5 1814.14,-463.5 1822.59,-463.5"/>
<polygon fill="midnightblue" stroke="midnightblue" points="1822.81,-467 1832.81,-463.5 1822.81,-460 1822.81,-467"/>
</g>
<!-- Node15&#45;&gt;Node3 -->
<g id="edge19" class="edge">
<title>Node15&#45;&gt;Node3</title>
<path fill="none" stroke="midnightblue" d="M647.36,-327.99C671.23,-324.57 698.85,-320.95 724,-318.5 801.78,-310.92 890.18,-306.03 955.97,-303.12"/>
<polygon fill="midnightblue" stroke="midnightblue" points="956.49,-306.6 966.33,-302.66 956.18,-299.6 956.49,-306.6"/>
</g>
<!-- Node16 -->
<g id="node16" class="node">
<title>Node16</title>
<g id="a_node16"><a xlink:href="../../da/da6/a01522.html#a1fa964976b06483361074f2d455d5d98" target="_top" xlink:title=" ">
<polygon fill="none" stroke="black" points="737.5,-328 737.5,-347 913.5,-347 913.5,-328 737.5,-328"/>
<text text-anchor="middle" x="825.5" y="-335" font-family="Helvetica,sans-Serif" font-size="10.00">com.cliffc.aa.type.TypeStruct.init</text>
</a>
</g>
</g>
<!-- Node15&#45;&gt;Node16 -->
<g id="edge20" class="edge">
<title>Node15&#45;&gt;Node16</title>
<path fill="none" stroke="midnightblue" d="M682.32,-337.5C697.13,-337.5 712.43,-337.5 727.26,-337.5"/>
<polygon fill="midnightblue" stroke="midnightblue" points="727.44,-341 737.44,-337.5 727.44,-334 727.44,-341"/>
</g>
<!-- Node17 -->
<g id="node17" class="node">
<title>Node17</title>
<g id="a_node17"><a xlink:href="../../da/da6/a01522.html#ad7153135a70c477199288d2e0a219203" target="_top" xlink:title=" ">
<polygon fill="none" stroke="black" points="963,-328 963,-347 1148,-347 1148,-328 963,-328"/>
<text text-anchor="middle" x="1055.5" y="-335" font-family="Helvetica,sans-Serif" font-size="10.00">com.cliffc.aa.type.TypeStruct.open</text>
</a>
</g>
</g>
<!-- Node15&#45;&gt;Node17 -->
<g id="edge30" class="edge">
<title>Node15&#45;&gt;Node17</title>
<path fill="none" stroke="midnightblue" d="M613.06,-347.02C640.58,-356.16 684.65,-369.32 724,-374.5 813.45,-386.28 837.68,-387.2 927,-374.5 959.23,-369.92 994.71,-359.13 1020.04,-350.38"/>
<polygon fill="midnightblue" stroke="midnightblue" points="1021.3,-353.64 1029.56,-347.02 1018.97,-347.04 1021.3,-353.64"/>
</g>
<!-- Node16&#45;&gt;Node3 -->
<g id="edge21" class="edge">
<title>Node16&#45;&gt;Node3</title>
<path fill="none" stroke="midnightblue" d="M883.74,-327.96C915.18,-322.72 954.35,-316.19 987.25,-310.71"/>
<polygon fill="midnightblue" stroke="midnightblue" points="987.95,-314.14 997.24,-309.04 986.8,-307.24 987.95,-314.14"/>
</g>
<!-- Node16&#45;&gt;Node16 -->
<g id="edge22" class="edge">
<title>Node16&#45;&gt;Node16</title>
<path fill="none" stroke="midnightblue" d="M790.34,-347.11C772.68,-355.96 784.4,-365.5 825.5,-365.5 856.33,-365.5 870.63,-360.13 868.4,-353.72"/>
<polygon fill="midnightblue" stroke="midnightblue" points="870.54,-350.94 860.66,-347.11 865.99,-356.27 870.54,-350.94"/>
</g>
<!-- Node16&#45;&gt;Node17 -->
<g id="edge23" class="edge">
<title>Node16&#45;&gt;Node17</title>
<path fill="none" stroke="midnightblue" d="M913.67,-337.5C926.37,-337.5 939.54,-337.5 952.5,-337.5"/>
<polygon fill="midnightblue" stroke="midnightblue" points="952.83,-341 962.83,-337.5 952.83,-334 952.83,-341"/>
</g>
<!-- Node17&#45;&gt;Node10 -->
<g id="edge29" class="edge">
<title>Node17&#45;&gt;Node10</title>
<path fill="none" stroke="midnightblue" d="M1122.95,-347.03C1189.74,-358.18 1294.63,-380.08 1379,-417.5 1418.3,-434.93 1458.71,-464.93 1481.75,-483.41"/>
<polygon fill="midnightblue" stroke="midnightblue" points="1479.73,-486.28 1489.69,-489.88 1484.15,-480.85 1479.73,-486.28"/>
</g>
<!-- Node18 -->
<g id="node18" class="node">
<title>Node18</title>
<g id="a_node18"><a xlink:href="../../da/da6/a01522.html#a7f8e1f0000812b5468e8eaca07dd28f3" target="_top" xlink:title=" ">
<polygon fill="none" stroke="black" points="1187.5,-290 1187.5,-309 1375.5,-309 1375.5,-290 1187.5,-290"/>
<text text-anchor="middle" x="1281.5" y="-297" font-family="Helvetica,sans-Serif" font-size="10.00">com.cliffc.aa.type.TypeStruct.make</text>
</a>
</g>
</g>
<!-- Node17&#45;&gt;Node18 -->
<g id="edge24" class="edge">
<title>Node17&#45;&gt;Node18</title>
<path fill="none" stroke="midnightblue" d="M1112.74,-327.96C1143.49,-322.74 1181.78,-316.25 1214.01,-310.78"/>
<polygon fill="midnightblue" stroke="midnightblue" points="1214.97,-314.17 1224.24,-309.04 1213.8,-307.27 1214.97,-314.17"/>
</g>
<!-- Node19 -->
<g id="node19" class="node">
<title>Node19</title>
<g id="a_node19"><a xlink:href="../../d7/dd1/a01458.html#ae33cca2c9d7c59fe30da706c1c4d9bf2" target="_top" xlink:title=" ">
<polygon fill="none" stroke="black" points="1184,-252 1184,-271 1379,-271 1379,-252 1184,-252"/>
<text text-anchor="middle" x="1281.5" y="-259" font-family="Helvetica,sans-Serif" font-size="10.00">com.cliffc.aa.type.TypeFld.make_tup</text>
</a>
</g>
</g>
<!-- Node17&#45;&gt;Node19 -->
<g id="edge26" class="edge">
<title>Node17&#45;&gt;Node19</title>
<path fill="none" stroke="midnightblue" d="M1125.61,-327.91C1133.42,-325.46 1141.06,-322.37 1148,-318.5 1168.32,-307.17 1163.62,-291.72 1184,-280.5 1188.17,-278.2 1192.58,-276.18 1197.13,-274.4"/>
<polygon fill="midnightblue" stroke="midnightblue" points="1198.34,-277.68 1206.62,-271.07 1196.03,-271.08 1198.34,-277.68"/>
</g>
<!-- Node18&#45;&gt;Node18 -->
<g id="edge25" class="edge">
<title>Node18&#45;&gt;Node18</title>
<path fill="none" stroke="midnightblue" d="M1247.87,-309.11C1230.97,-317.96 1242.18,-327.5 1281.5,-327.5 1310.37,-327.5 1324.09,-322.36 1322.65,-316.12"/>
<polygon fill="midnightblue" stroke="midnightblue" points="1324.83,-313.37 1315.13,-309.11 1320.06,-318.49 1324.83,-313.37"/>
</g>
<!-- Node20 -->
<g id="node20" class="node">
<title>Node20</title>
<g id="a_node20"><a xlink:href="../../d7/dd1/a01458.html#a68cd98652ac4a01ee6b4dd90bb553dae" target="_top" xlink:title=" ">
<polygon fill="none" stroke="black" points="1415,-233 1415,-252 1589,-252 1589,-233 1415,-233"/>
<text text-anchor="middle" x="1502" y="-240" font-family="Helvetica,sans-Serif" font-size="10.00">com.cliffc.aa.type.TypeFld.make</text>
</a>
</g>
</g>
<!-- Node19&#45;&gt;Node20 -->
<g id="edge27" class="edge">
<title>Node19&#45;&gt;Node20</title>
<path fill="none" stroke="midnightblue" d="M1379.29,-253.08C1387.73,-252.35 1396.27,-251.61 1404.71,-250.87"/>
<polygon fill="midnightblue" stroke="midnightblue" points="1405.27,-254.34 1414.93,-249.98 1404.67,-247.36 1405.27,-254.34"/>
</g>
<!-- Node20&#45;&gt;Node20 -->
<g id="edge28" class="edge">
<title>Node20&#45;&gt;Node20</title>
<path fill="none" stroke="midnightblue" d="M1470.2,-252.11C1454.23,-260.96 1464.83,-270.5 1502,-270.5 1528.72,-270.5 1541.71,-265.57 1540.97,-259.51"/>
<polygon fill="midnightblue" stroke="midnightblue" points="1543.27,-256.86 1533.8,-252.11 1538.24,-261.73 1543.27,-256.86"/>
</g>
<!-- Node21&#45;&gt;Node20 -->
<g id="edge32" class="edge">
<title>Node21&#45;&gt;Node20</title>
<path fill="none" stroke="midnightblue" d="M600.53,-145.17C624.85,-160.78 675.92,-191.02 724,-203.5 849.84,-236.17 1225.82,-241.76 1404.56,-242.52"/>
<polygon fill="midnightblue" stroke="midnightblue" points="1404.73,-246.02 1414.74,-242.56 1404.76,-239.02 1404.73,-246.02"/>
</g>
<!-- Node22 -->
<g id="node22" class="node">
<title>Node22</title>
<g id="a_node22"><a xlink:href="../../de/d36/a01462.html#a9dc6cff20f5352144156c19e58a0d790" target="_top" xlink:title=" ">
<polygon fill="none" stroke="black" points="752,-164.5 752,-194.5 899,-194.5 899,-164.5 752,-164.5"/>
<text text-anchor="start" x="760" y="-182.5" font-family="Helvetica,sans-Serif" font-size="10.00">com.cliffc.aa.type.TypeFld.</text>
<text text-anchor="middle" x="825.5" y="-171.5" font-family="Helvetica,sans-Serif" font-size="10.00">Access.meet</text>
</a>
</g>
</g>
<!-- Node21&#45;&gt;Node22 -->
<g id="edge33" class="edge">
<title>Node21&#45;&gt;Node22</title>
<path fill="none" stroke="midnightblue" d="M637.75,-145.05C668.05,-150.64 707.02,-157.83 741.52,-164.19"/>
<polygon fill="midnightblue" stroke="midnightblue" points="741.12,-167.68 751.59,-166.05 742.39,-160.79 741.12,-167.68"/>
</g>
<!-- Node23 -->
<g id="node23" class="node">
<title>Node23</title>
<g id="a_node23"><a xlink:href="../../d0/de2/a01442.html#a086b90d9d651ac00b80a9b5caa60eb09" target="_top" xlink:title=" ">
<polygon fill="none" stroke="black" points="746.5,-126 746.5,-145 904.5,-145 904.5,-126 746.5,-126"/>
<text text-anchor="middle" x="825.5" y="-133" font-family="Helvetica,sans-Serif" font-size="10.00">com.cliffc.aa.type.Type.meet</text>
</a>
</g>
</g>
<!-- Node21&#45;&gt;Node23 -->
<g id="edge34" class="edge">
<title>Node21&#45;&gt;Node23</title>
<path fill="none" stroke="midnightblue" d="M674.81,-135.5C694.86,-135.5 716.15,-135.5 736.18,-135.5"/>
<polygon fill="midnightblue" stroke="midnightblue" points="736.22,-139 746.22,-135.5 736.22,-132 736.22,-139"/>
</g>
<!-- Node24 -->
<g id="node24" class="node">
<title>Node24</title>
<g id="a_node24"><a xlink:href="../../d7/dd1/a01458.html#a1b7e08551c6eb4803636948736fbf71f" target="_top" xlink:title=" ">
<polygon fill="none" stroke="black" points="736,-88 736,-107 915,-107 915,-88 736,-88"/>
<text text-anchor="middle" x="825.5" y="-95" font-family="Helvetica,sans-Serif" font-size="10.00">com.cliffc.aa.type.TypeFld.omeet</text>
</a>
</g>
</g>
<!-- Node21&#45;&gt;Node24 -->
<g id="edge35" class="edge">
<title>Node21&#45;&gt;Node24</title>
<path fill="none" stroke="midnightblue" d="M645.88,-125.96C678.91,-120.7 720.09,-114.13 754.59,-108.64"/>
<polygon fill="midnightblue" stroke="midnightblue" points="755.27,-112.07 764.6,-107.04 754.17,-105.16 755.27,-112.07"/>
</g>
<!-- Node25 -->
<g id="node25" class="node">
<title>Node25</title>
<g id="a_node25"><a xlink:href="../../d7/dd1/a01458.html#a3b8ed1cb701307463ad7c39b90ac3b0f" target="_top" xlink:title=" ">
<polygon fill="none" stroke="black" points="736.5,-50 736.5,-69 914.5,-69 914.5,-50 736.5,-50"/>
<text text-anchor="middle" x="825.5" y="-57" font-family="Helvetica,sans-Serif" font-size="10.00">com.cliffc.aa.type.TypeFld.smeet</text>
</a>
</g>
</g>
<!-- Node21&#45;&gt;Node25 -->
<g id="edge36" class="edge">
<title>Node21&#45;&gt;Node25</title>
<path fill="none" stroke="midnightblue" d="M605.65,-125.88C632,-113.32 680.52,-91.44 724,-78.5 733.38,-75.71 743.38,-73.24 753.3,-71.08"/>
<polygon fill="midnightblue" stroke="midnightblue" points="754.09,-74.49 763.17,-69.02 752.66,-67.64 754.09,-74.49"/>
</g>
<!-- Node27 -->
<g id="node27" class="node">
<title>Node27</title>
<g id="a_node27"><a xlink:href="../../d0/de2/a01442.html#ad38d3a909b43d5ddf1562871271f9e9d" target="_top" xlink:title=" ">
<polygon fill="none" stroke="black" points="761,-0.5 761,-30.5 890,-30.5 890,-0.5 761,-0.5"/>
<text text-anchor="start" x="769" y="-18.5" font-family="Helvetica,sans-Serif" font-size="10.00">com.cliffc.aa.type.Type</text>
<text text-anchor="middle" x="825.5" y="-7.5" font-family="Helvetica,sans-Serif" font-size="10.00">&lt; TypeFld &gt;::typerr</text>
</a>
</g>
</g>
<!-- Node21&#45;&gt;Node27 -->
<g id="edge38" class="edge">
<title>Node21&#45;&gt;Node27</title>
<path fill="none" stroke="midnightblue" d="M596.96,-125.86C619.29,-106.72 672.29,-63.8 724,-40.5 732.58,-36.64 741.85,-33.31 751.17,-30.45"/>
<polygon fill="midnightblue" stroke="midnightblue" points="752.23,-33.79 760.87,-27.65 750.29,-27.06 752.23,-33.79"/>
</g>
<!-- Node26 -->
<g id="node26" class="node">
<title>Node26</title>
<g id="a_node26"><a xlink:href="../../dd/d55/a01638.html#a3975ba7dca9fe2d6e4992b2b5558f882" target="_top" xlink:title=" ">
<polygon fill="none" stroke="black" points="989,-50 989,-69 1122,-69 1122,-50 989,-50"/>
<text text-anchor="middle" x="1055.5" y="-57" font-family="Helvetica,sans-Serif" font-size="10.00">com.cliffc.aa.util.Util.eq</text>
</a>
</g>
</g>
<!-- Node25&#45;&gt;Node26 -->
<g id="edge37" class="edge">
<title>Node25&#45;&gt;Node26</title>
<path fill="none" stroke="midnightblue" d="M914.65,-59.5C935.77,-59.5 958.14,-59.5 978.64,-59.5"/>
<polygon fill="midnightblue" stroke="midnightblue" points="978.86,-63 988.86,-59.5 978.86,-56 978.86,-63"/>
</g>
</g>
</svg>
        <g id="navigator" transform="translate(0 0)" fill="#404254">
                <rect fill="#f2f5e9" fill-opacity="0.5" stroke="#606060" stroke-width=".5" x="0" y="0" width="60" height="60"/>
                <use id="zoomplus" xlink:href="#zoomPlus" x="17" y="9" onmousedown="handleZoom(evt,'in')"/>
                <use id="zoomminus" xlink:href="#zoomMin" x="42" y="9" onmousedown="handleZoom(evt,'out')"/>
                <use id="reset" xlink:href="#resetDef" x="30" y="36" onmousedown="handleReset()"/>
                <g id="arrowUp" xlink:href="#dirArrow" transform="translate(30 24)" onmousedown="handlePan(0,-1)">
                  <use xlink:href="#rim" fill="#404040">
                        <set attributeName="fill" to="#808080" begin="arrowUp.mouseover" end="arrowUp.mouseout"/>
                  </use>
                  <path fill="none" stroke="white" stroke-width="1.5" d="M0,-3.0v7 M-2.5,-0.5L0,-3.0L2.5,-0.5"/>
                </g>
                <g id="arrowRight" xlink:href="#dirArrow" transform="rotate(90) translate(36 -43)" onmousedown="handlePan(1,0)">
                  <use xlink:href="#rim" fill="#404040">
                        <set attributeName="fill" to="#808080" begin="arrowRight.mouseover" end="arrowRight.mouseout"/>
                  </use>
                  <path fill="none" stroke="white" stroke-width="1.5" d="M0,-3.0v7 M-2.5,-0.5L0,-3.0L2.5,-0.5"/>
                </g>
                <g id="arrowDown" xlink:href="#dirArrow" transform="rotate(180) translate(-30 -48)" onmousedown="handlePan(0,1)">
                  <use xlink:href="#rim" fill="#404040">
                        <set attributeName="fill" to="#808080" begin="arrowDown.mouseover" end="arrowDown.mouseout"/>
                  </use>
                  <path fill="none" stroke="white" stroke-width="1.5" d="M0,-3.0v7 M-2.5,-0.5L0,-3.0L2.5,-0.5"/>
                </g>
                <g id="arrowLeft" xlink:href="#dirArrow" transform="rotate(270) translate(-36 17)" onmousedown="handlePan(-1,0)">
                  <use xlink:href="#rim" fill="#404040">
                        <set attributeName="fill" to="#808080" begin="arrowLeft.mouseover" end="arrowLeft.mouseout"/>
                  </use>
                  <path fill="none" stroke="white" stroke-width="1.5" d="M0,-3.0v7 M-2.5,-0.5L0,-3.0L2.5,-0.5"/>
                </g>
        </g>
        <svg viewBox="0 0 15 15" width="100%" height="30px" preserveAspectRatio="xMaxYMin meet">
         <g id="arrow_out" transform="scale(0.3 0.3)">
          <a xlink:href="a01522_aa6af35e937d8b44b8cad982a8a29082c_cgraph_org.svg" target="_base">
           <rect id="button" ry="5" rx="5" y="6" x="6" height="38" width="38"
                fill="#f2f5e9" fill-opacity="0.5" stroke="#606060" stroke-width="1.0"/>
           <path id="arrow"
             d="M 11.500037,31.436501 C 11.940474,20.09759 22.043105,11.32322 32.158766,21.979434 L 37.068811,17.246167 C 37.068811,17.246167 37.088388,32 37.088388,32 L 22.160133,31.978069 C 22.160133,31.978069 26.997745,27.140456 26.997745,27.140456 C 18.528582,18.264221 13.291696,25.230495 11.500037,31.436501 z"
             style="fill:#404040;"/>
          </a>
         </g>
        </svg>
</svg>
