<?xml version="1.0" encoding="UTF-8" standalone="no"?>
<!DOCTYPE svg PUBLIC "-//W3C//DTD SVG 1.1//EN"
 "http://www.w3.org/Graphics/SVG/1.1/DTD/svg11.dtd">
<!-- Generated by graphviz version 2.43.0 (0)
 -->
<!-- Title: com.cliffc.aa.type.TypeStruct._clone Pages: 1 -->
<svg width="1565pt" height="273pt"
 viewBox="0.00 0.00 1565.00 273.00" xmlns="http://www.w3.org/2000/svg" xmlns:xlink="http://www.w3.org/1999/xlink">
<g id="graph0" class="graph" transform="scale(1 1) rotate(0) translate(4 269)">
<title>com.cliffc.aa.type.TypeStruct._clone</title>
<!-- Node1 -->
<g id="node1" class="node">
<title>Node1</title>
<g id="a_node1"><a xlink:title=" ">
<polygon fill="#bfbfbf" stroke="black" points="0,-137 0,-167 161,-167 161,-137 0,-137"/>
<text text-anchor="start" x="8" y="-155" font-family="Helvetica,sans-Serif" font-size="10.00">com.cliffc.aa.type.TypeStruct.</text>
<text text-anchor="middle" x="80.5" y="-144" font-family="Helvetica,sans-Serif" font-size="10.00">_clone</text>
</a>
</g>
</g>
<!-- Node2 -->
<g id="node2" class="node">
<title>Node2</title>
<g id="a_node2"><a xlink:href="../../d5/d67/a01466.html#ac5fde295c2934c99a97e2833f45ed837" target="_top" xlink:title=" ">
<polygon fill="none" stroke="black" points="680,-189.5 680,-208.5 859,-208.5 859,-189.5 680,-189.5"/>
<text text-anchor="middle" x="769.5" y="-196.5" font-family="Helvetica,sans-Serif" font-size="10.00">com.cliffc.aa.type.TypeFlds.clone</text>
</a>
</g>
</g>
<!-- Node1&#45;&gt;Node2 -->
<g id="edge1" class="edge">
<title>Node1&#45;&gt;Node2</title>
<path fill="none" stroke="midnightblue" d="M117.72,-167.05C140.13,-175.57 169.73,-185.41 197,-190 360.85,-217.59 554.86,-212.94 669.48,-206.42"/>
<polygon fill="midnightblue" stroke="midnightblue" points="669.86,-209.9 679.63,-205.82 669.45,-202.91 669.86,-209.9"/>
</g>
<!-- Node10 -->
<g id="node10" class="node">
<title>Node10</title>
<g id="a_node10"><a xlink:href="../../da/da6/a01522.html#a1b42e8c9f265ed0066a153f3ec37dfaa" target="_top" xlink:title=" ">
<polygon fill="none" stroke="black" points="197,-161.5 197,-180.5 429,-180.5 429,-161.5 197,-161.5"/>
<text text-anchor="middle" x="313" y="-168.5" font-family="Helvetica,sans-Serif" font-size="10.00">com.cliffc.aa.type.TypeStruct.compute_hash</text>
</a>
</g>
</g>
<!-- Node1&#45;&gt;Node10 -->
<g id="edge12" class="edge">
<title>Node1&#45;&gt;Node10</title>
<path fill="none" stroke="midnightblue" d="M161.15,-158.57C169.47,-159.25 178.07,-159.96 186.75,-160.68"/>
<polygon fill="midnightblue" stroke="midnightblue" points="186.7,-164.18 196.95,-161.52 187.27,-157.21 186.7,-164.18"/>
</g>
<!-- Node12 -->
<g id="node12" class="node">
<title>Node12</title>
<g id="a_node12"><a xlink:href="../../da/da6/a01522.html#af7ed4d2deaacbc98e71248cb459ad397" target="_top" xlink:title=" ">
<polygon fill="none" stroke="black" points="680.5,-85.5 680.5,-104.5 858.5,-104.5 858.5,-85.5 680.5,-85.5"/>
<text text-anchor="middle" x="769.5" y="-92.5" font-family="Helvetica,sans-Serif" font-size="10.00">com.cliffc.aa.type.TypeStruct.flds</text>
</a>
</g>
</g>
<!-- Node1&#45;&gt;Node12 -->
<g id="edge14" class="edge">
<title>Node1&#45;&gt;Node12</title>
<path fill="none" stroke="midnightblue" d="M161.32,-145.38C287.65,-134.9 533.37,-114.51 670.31,-103.15"/>
<polygon fill="midnightblue" stroke="midnightblue" points="670.71,-106.63 680.38,-102.31 670.13,-99.65 670.71,-106.63"/>
</g>
<!-- Node13 -->
<g id="node13" class="node">
<title>Node13</title>
<g id="a_node13"><a xlink:href="../../da/da6/a01522.html#ac831a9a3f5b64517297f55a1737309ec" target="_top" xlink:title=" ">
<polygon fill="none" stroke="black" points="216,-57.5 216,-76.5 410,-76.5 410,-57.5 216,-57.5"/>
<text text-anchor="middle" x="313" y="-64.5" font-family="Helvetica,sans-Serif" font-size="10.00">com.cliffc.aa.type.TypeStruct.malloc</text>
</a>
</g>
</g>
<!-- Node1&#45;&gt;Node13 -->
<g id="edge15" class="edge">
<title>Node1&#45;&gt;Node13</title>
<path fill="none" stroke="midnightblue" d="M122.18,-137C165.97,-120.85 234.94,-95.42 276.58,-80.06"/>
<polygon fill="midnightblue" stroke="midnightblue" points="277.87,-83.32 286.04,-76.57 275.44,-76.75 277.87,-83.32"/>
</g>
<!-- Node3 -->
<g id="node3" class="node">
<title>Node3</title>
<g id="a_node3"><a xlink:href="../../d5/d67/a01466.html#aa4690362ae6b60d7c29aaba6b6b41dfb" target="_top" xlink:title=" ">
<polygon fill="none" stroke="black" points="1132,-170.5 1132,-189.5 1300,-189.5 1300,-170.5 1132,-170.5"/>
<text text-anchor="middle" x="1216" y="-177.5" font-family="Helvetica,sans-Serif" font-size="10.00">com.cliffc.aa.type.TypeFlds.get</text>
</a>
</g>
</g>
<!-- Node2&#45;&gt;Node3 -->
<g id="edge2" class="edge">
<title>Node2&#45;&gt;Node3</title>
<path fill="none" stroke="midnightblue" d="M859.12,-195.21C935.1,-191.96 1044.24,-187.3 1121.58,-183.99"/>
<polygon fill="midnightblue" stroke="midnightblue" points="1121.96,-187.48 1131.8,-183.56 1121.66,-180.49 1121.96,-187.48"/>
</g>
<!-- Node4 -->
<g id="node4" class="node">
<title>Node4</title>
<g id="a_node4"><a xlink:href="../../d7/dd1/a01458.html#a8dc748b7e3bd44f091283928596aa9aa" target="_top" xlink:title=" ">
<polygon fill="none" stroke="black" points="905.5,-227.5 905.5,-246.5 1085.5,-246.5 1085.5,-227.5 905.5,-227.5"/>
<text text-anchor="middle" x="995.5" y="-234.5" font-family="Helvetica,sans-Serif" font-size="10.00">com.cliffc.aa.type.TypeFld.malloc</text>
</a>
</g>
</g>
<!-- Node2&#45;&gt;Node4 -->
<g id="edge3" class="edge">
<title>Node2&#45;&gt;Node4</title>
<path fill="none" stroke="midnightblue" d="M826.74,-208.54C857.49,-213.76 895.78,-220.25 928.01,-225.72"/>
<polygon fill="midnightblue" stroke="midnightblue" points="927.8,-229.23 938.24,-227.46 928.97,-222.33 927.8,-229.23"/>
</g>
<!-- Node7 -->
<g id="node7" class="node">
<title>Node7</title>
<g id="a_node7"><a xlink:href="../../d5/d67/a01466.html#a7635be6e4a0ff98f908dbdbe136a11d0" target="_top" xlink:title=" ">
<polygon fill="none" stroke="black" points="1130,-122.5 1130,-141.5 1302,-141.5 1302,-122.5 1130,-122.5"/>
<text text-anchor="middle" x="1216" y="-129.5" font-family="Helvetica,sans-Serif" font-size="10.00">com.cliffc.aa.type.TypeFlds.tary</text>
</a>
</g>
</g>
<!-- Node2&#45;&gt;Node7 -->
<g id="edge7" class="edge">
<title>Node2&#45;&gt;Node7</title>
<path fill="none" stroke="midnightblue" d="M833.71,-189.47C914.98,-177.22 1055.84,-155.99 1141.71,-143.05"/>
<polygon fill="midnightblue" stroke="midnightblue" points="1142.28,-146.5 1151.64,-141.55 1141.23,-139.58 1142.28,-146.5"/>
</g>
<!-- Node9 -->
<g id="node9" class="node">
<title>Node9</title>
<g id="a_node9"><a xlink:href="../../d5/d67/a01466.html#aae9c15c127f99a9ce4687428f9150fa5" target="_top" xlink:title=" ">
<polygon fill="none" stroke="black" points="915,-113.5 915,-132.5 1076,-132.5 1076,-113.5 915,-113.5"/>
<text text-anchor="middle" x="995.5" y="-120.5" font-family="Helvetica,sans-Serif" font-size="10.00">com.cliffc.aa.type.TypeFlds.ts</text>
</a>
</g>
</g>
<!-- Node2&#45;&gt;Node9 -->
<g id="edge9" class="edge">
<title>Node2&#45;&gt;Node9</title>
<path fill="none" stroke="midnightblue" d="M791.36,-189.41C816.33,-178.18 859.59,-159.54 898,-147 911.6,-142.56 926.51,-138.48 940.46,-134.99"/>
<polygon fill="midnightblue" stroke="midnightblue" points="941.53,-138.33 950.41,-132.56 939.86,-131.53 941.53,-138.33"/>
</g>
<!-- Node5 -->
<g id="node5" class="node">
<title>Node5</title>
<g id="a_node5"><a xlink:href="../../d7/dd1/a01458.html#aebf9db57988d0a21aaf004a9cf7dcd18" target="_top" xlink:title=" ">
<polygon fill="none" stroke="black" points="1134.5,-227.5 1134.5,-246.5 1297.5,-246.5 1297.5,-227.5 1134.5,-227.5"/>
<text text-anchor="middle" x="1216" y="-234.5" font-family="Helvetica,sans-Serif" font-size="10.00">com.cliffc.aa.type.TypeFld.init</text>
</a>
</g>
</g>
<!-- Node4&#45;&gt;Node5 -->
<g id="edge4" class="edge">
<title>Node4&#45;&gt;Node5</title>
<path fill="none" stroke="midnightblue" d="M1085.69,-237C1098.35,-237 1111.39,-237 1124.08,-237"/>
<polygon fill="midnightblue" stroke="midnightblue" points="1124.18,-240.5 1134.18,-237 1124.18,-233.5 1124.18,-240.5"/>
</g>
<!-- Node5&#45;&gt;Node5 -->
<g id="edge6" class="edge">
<title>Node5&#45;&gt;Node5</title>
<path fill="none" stroke="midnightblue" d="M1182.37,-246.61C1165.47,-255.46 1176.68,-265 1216,-265 1244.87,-265 1258.59,-259.86 1257.15,-253.62"/>
<polygon fill="midnightblue" stroke="midnightblue" points="1259.33,-250.87 1249.63,-246.61 1254.56,-255.99 1259.33,-250.87"/>
</g>
<!-- Node6 -->
<g id="node6" class="node">
<title>Node6</title>
<g id="a_node6"><a xlink:href="../../d7/dd1/a01458.html#ac20a2ec618c7fe3b84875faae151ebd2" target="_top" xlink:title=" ">
<polygon fill="none" stroke="black" points="1339,-227.5 1339,-246.5 1557,-246.5 1557,-227.5 1339,-227.5"/>
<text text-anchor="middle" x="1448" y="-234.5" font-family="Helvetica,sans-Serif" font-size="10.00">com.cliffc.aa.type.TypeFld.compute_hash</text>
</a>
</g>
</g>
<!-- Node5&#45;&gt;Node6 -->
<g id="edge5" class="edge">
<title>Node5&#45;&gt;Node6</title>
<path fill="none" stroke="midnightblue" d="M1297.77,-237C1307.87,-237 1318.36,-237 1328.89,-237"/>
<polygon fill="midnightblue" stroke="midnightblue" points="1328.98,-240.5 1338.98,-237 1328.98,-233.5 1328.98,-240.5"/>
</g>
<!-- Node8 -->
<g id="node8" class="node">
<title>Node8</title>
<g id="a_node8"><a xlink:href="../../d5/d67/a01466.html#adb7e8e0bcb616710cc42cd7f670936e0" target="_top" xlink:title=" ">
<polygon fill="none" stroke="black" points="1372,-117 1372,-147 1524,-147 1524,-117 1372,-117"/>
<text text-anchor="start" x="1380" y="-135" font-family="Helvetica,sans-Serif" font-size="10.00">com.cliffc.aa.type.TypeFlds.</text>
<text text-anchor="middle" x="1448" y="-124" font-family="Helvetica,sans-Serif" font-size="10.00">TypeFlds</text>
</a>
</g>
</g>
<!-- Node7&#45;&gt;Node8 -->
<g id="edge8" class="edge">
<title>Node7&#45;&gt;Node8</title>
<path fill="none" stroke="midnightblue" d="M1302.32,-132C1321.69,-132 1342.28,-132 1361.66,-132"/>
<polygon fill="midnightblue" stroke="midnightblue" points="1361.67,-135.5 1371.67,-132 1361.67,-128.5 1361.67,-135.5"/>
</g>
<!-- Node9&#45;&gt;Node3 -->
<g id="edge10" class="edge">
<title>Node9&#45;&gt;Node3</title>
<path fill="none" stroke="midnightblue" d="M1033.07,-132.54C1070.25,-142.24 1127.99,-157.3 1168.43,-167.85"/>
<polygon fill="midnightblue" stroke="midnightblue" points="1167.75,-171.29 1178.31,-170.43 1169.52,-164.52 1167.75,-171.29"/>
</g>
<!-- Node9&#45;&gt;Node7 -->
<g id="edge11" class="edge">
<title>Node9&#45;&gt;Node7</title>
<path fill="none" stroke="midnightblue" d="M1076,-126.27C1090.18,-126.86 1105.08,-127.47 1119.65,-128.07"/>
<polygon fill="midnightblue" stroke="midnightblue" points="1119.53,-131.57 1129.66,-128.48 1119.82,-124.58 1119.53,-131.57"/>
</g>
<!-- Node11 -->
<g id="node11" class="node">
<title>Node11</title>
<g id="a_node11"><a xlink:href="../../da/da6/a01522.html#a0984a14a17ea738bf84cc9453fbf7147" target="_top" xlink:title=" ">
<polygon fill="none" stroke="black" points="466.5,-161.5 466.5,-180.5 639.5,-180.5 639.5,-161.5 466.5,-161.5"/>
<text text-anchor="middle" x="553" y="-168.5" font-family="Helvetica,sans-Serif" font-size="10.00">com.cliffc.aa.type.TypeStruct.fld</text>
</a>
</g>
</g>
<!-- Node10&#45;&gt;Node11 -->
<g id="edge13" class="edge">
<title>Node10&#45;&gt;Node11</title>
<path fill="none" stroke="midnightblue" d="M429.17,-171C438.12,-171 447.1,-171 455.91,-171"/>
<polygon fill="midnightblue" stroke="midnightblue" points="456.16,-174.5 466.16,-171 456.16,-167.5 456.16,-174.5"/>
</g>
<!-- Node13&#45;&gt;Node12 -->
<g id="edge16" class="edge">
<title>Node13&#45;&gt;Node12</title>
<path fill="none" stroke="midnightblue" d="M410.11,-72.92C486.52,-77.63 593.01,-84.19 670.04,-88.93"/>
<polygon fill="midnightblue" stroke="midnightblue" points="670.03,-92.44 680.23,-89.56 670.46,-85.45 670.03,-92.44"/>
</g>
<!-- Node14 -->
<g id="node14" class="node">
<title>Node14</title>
<g id="a_node14"><a xlink:href="../../da/da6/a01522.html#a1fa964976b06483361074f2d455d5d98" target="_top" xlink:title=" ">
<polygon fill="none" stroke="black" points="465,-29.5 465,-48.5 641,-48.5 641,-29.5 465,-29.5"/>
<text text-anchor="middle" x="553" y="-36.5" font-family="Helvetica,sans-Serif" font-size="10.00">com.cliffc.aa.type.TypeStruct.init</text>
</a>
</g>
</g>
<!-- Node13&#45;&gt;Node14 -->
<g id="edge17" class="edge">
<title>Node13&#45;&gt;Node14</title>
<path fill="none" stroke="midnightblue" d="M394.91,-57.48C416.08,-54.99 439.05,-52.29 460.72,-49.74"/>
<polygon fill="midnightblue" stroke="midnightblue" points="461.39,-53.18 470.91,-48.54 460.57,-46.23 461.39,-53.18"/>
</g>
<!-- Node15 -->
<g id="node15" class="node">
<title>Node15</title>
<g id="a_node15"><a xlink:href="../../da/da6/a01522.html#ad7153135a70c477199288d2e0a219203" target="_top" xlink:title=" ">
<polygon fill="none" stroke="black" points="677,-29.5 677,-48.5 862,-48.5 862,-29.5 677,-29.5"/>
<text text-anchor="middle" x="769.5" y="-36.5" font-family="Helvetica,sans-Serif" font-size="10.00">com.cliffc.aa.type.TypeStruct.open</text>
</a>
</g>
</g>
<!-- Node13&#45;&gt;Node15 -->
<g id="edge27" class="edge">
<title>Node13&#45;&gt;Node15</title>
<path fill="none" stroke="midnightblue" d="M337.02,-57.43C366.2,-45.87 418.31,-27.1 465,-20 549.17,-7.2 647.74,-18.07 709.16,-27.86"/>
<polygon fill="midnightblue" stroke="midnightblue" points="708.63,-31.32 719.07,-29.49 709.76,-24.42 708.63,-31.32"/>
</g>
<!-- Node14&#45;&gt;Node12 -->
<g id="edge18" class="edge">
<title>Node14&#45;&gt;Node12</title>
<path fill="none" stroke="midnightblue" d="M590.87,-48.63C627.24,-58.12 682.92,-72.66 722.24,-82.92"/>
<polygon fill="midnightblue" stroke="midnightblue" points="721.55,-86.36 732.11,-85.5 723.32,-79.59 721.55,-86.36"/>
</g>
<!-- Node14&#45;&gt;Node14 -->
<g id="edge19" class="edge">
<title>Node14&#45;&gt;Node14</title>
<path fill="none" stroke="midnightblue" d="M519.98,-48.61C503.39,-57.46 514.4,-67 553,-67 581.35,-67 594.81,-61.86 593.4,-55.62"/>
<polygon fill="midnightblue" stroke="midnightblue" points="595.68,-52.96 586.02,-48.61 590.86,-58.04 595.68,-52.96"/>
</g>
<!-- Node14&#45;&gt;Node15 -->
<g id="edge20" class="edge">
<title>Node14&#45;&gt;Node15</title>
<path fill="none" stroke="midnightblue" d="M641.25,-39C649.57,-39 658.07,-39 666.52,-39"/>
<polygon fill="midnightblue" stroke="midnightblue" points="666.79,-42.5 676.79,-39 666.79,-35.5 666.79,-42.5"/>
</g>
<!-- Node15&#45;&gt;Node9 -->
<g id="edge26" class="edge">
<title>Node15&#45;&gt;Node9</title>
<path fill="none" stroke="midnightblue" d="M796.2,-48.64C836.45,-63.73 914.45,-92.98 959.7,-109.95"/>
<polygon fill="midnightblue" stroke="midnightblue" points="958.51,-113.24 969.1,-113.48 960.97,-106.69 958.51,-113.24"/>
</g>
<!-- Node16 -->
<g id="node16" class="node">
<title>Node16</title>
<g id="a_node16"><a xlink:href="../../da/da6/a01522.html#a7f8e1f0000812b5468e8eaca07dd28f3" target="_top" xlink:title=" ">
<polygon fill="none" stroke="black" points="901.5,-38.5 901.5,-57.5 1089.5,-57.5 1089.5,-38.5 901.5,-38.5"/>
<text text-anchor="middle" x="995.5" y="-45.5" font-family="Helvetica,sans-Serif" font-size="10.00">com.cliffc.aa.type.TypeStruct.make</text>
</a>
</g>
</g>
<!-- Node15&#45;&gt;Node16 -->
<g id="edge21" class="edge">
<title>Node15&#45;&gt;Node16</title>
<path fill="none" stroke="midnightblue" d="M862.26,-42.69C871.85,-43.07 881.65,-43.47 891.36,-43.86"/>
<polygon fill="midnightblue" stroke="midnightblue" points="891.3,-47.36 901.44,-44.26 891.58,-40.36 891.3,-47.36"/>
</g>
<!-- Node17 -->
<g id="node17" class="node">
<title>Node17</title>
<g id="a_node17"><a xlink:href="../../d7/dd1/a01458.html#ae33cca2c9d7c59fe30da706c1c4d9bf2" target="_top" xlink:title=" ">
<polygon fill="none" stroke="black" points="898,-0.5 898,-19.5 1093,-19.5 1093,-0.5 898,-0.5"/>
<text text-anchor="middle" x="995.5" y="-7.5" font-family="Helvetica,sans-Serif" font-size="10.00">com.cliffc.aa.type.TypeFld.make_tup</text>
</a>
</g>
</g>
<!-- Node15&#45;&gt;Node17 -->
<g id="edge23" class="edge">
<title>Node15&#45;&gt;Node17</title>
<path fill="none" stroke="midnightblue" d="M844.16,-29.46C865.5,-26.7 888.95,-23.66 910.86,-20.83"/>
<polygon fill="midnightblue" stroke="midnightblue" points="911.33,-24.3 920.8,-19.54 910.43,-17.35 911.33,-24.3"/>
</g>
<!-- Node16&#45;&gt;Node16 -->
<g id="edge22" class="edge">
<title>Node16&#45;&gt;Node16</title>
<path fill="none" stroke="midnightblue" d="M961.87,-57.61C944.97,-66.46 956.18,-76 995.5,-76 1024.37,-76 1038.09,-70.86 1036.65,-64.62"/>
<polygon fill="midnightblue" stroke="midnightblue" points="1038.83,-61.87 1029.13,-57.61 1034.06,-66.99 1038.83,-61.87"/>
</g>
<!-- Node18 -->
<g id="node18" class="node">
<title>Node18</title>
<g id="a_node18"><a xlink:href="../../d7/dd1/a01458.html#a68cd98652ac4a01ee6b4dd90bb553dae" target="_top" xlink:title=" ">
<polygon fill="none" stroke="black" points="1129,-0.5 1129,-19.5 1303,-19.5 1303,-0.5 1129,-0.5"/>
<text text-anchor="middle" x="1216" y="-7.5" font-family="Helvetica,sans-Serif" font-size="10.00">com.cliffc.aa.type.TypeFld.make</text>
</a>
</g>
</g>
<!-- Node17&#45;&gt;Node18 -->
<g id="edge24" class="edge">
<title>Node17&#45;&gt;Node18</title>
<path fill="none" stroke="midnightblue" d="M1093.29,-10C1101.73,-10 1110.27,-10 1118.71,-10"/>
<polygon fill="midnightblue" stroke="midnightblue" points="1118.93,-13.5 1128.93,-10 1118.93,-6.5 1118.93,-13.5"/>
</g>
<!-- Node18&#45;&gt;Node18 -->
<g id="edge25" class="edge">
<title>Node18&#45;&gt;Node18</title>
<path fill="none" stroke="midnightblue" d="M1182.37,-19.61C1165.47,-28.46 1176.68,-38 1216,-38 1244.87,-38 1258.59,-32.86 1257.15,-26.62"/>
<polygon fill="midnightblue" stroke="midnightblue" points="1259.33,-23.87 1249.63,-19.61 1254.56,-28.99 1259.33,-23.87"/>
</g>
</g>
</svg>
