<?xml version="1.0" encoding="UTF-8" standalone="no"?>
<!DOCTYPE svg PUBLIC "-//W3C//DTD SVG 1.1//EN"
 "http://www.w3.org/Graphics/SVG/1.1/DTD/svg11.dtd">
<!-- Generated by graphviz version 2.43.0 (0)
 -->
<!-- Title: com.cliffc.aa.node.FunPtrNode.bind Pages: 1 -->
<svg width="748pt" height="100pt"
 viewBox="0.00 0.00 748.00 99.50" xmlns="http://www.w3.org/2000/svg" xmlns:xlink="http://www.w3.org/1999/xlink">
<g id="graph0" class="graph" transform="scale(1 1) rotate(0) translate(4 95.5)">
<title>com.cliffc.aa.node.FunPtrNode.bind</title>
<!-- Node1 -->
<g id="node1" class="node">
<title>Node1</title>
<g id="a_node1"><a xlink:title=" ">
<polygon fill="#bfbfbf" stroke="black" points="0,-44.5 0,-74.5 140,-74.5 140,-44.5 0,-44.5"/>
<text text-anchor="start" x="8" y="-62.5" font-family="Helvetica,sans-Serif" font-size="10.00">com.cliffc.aa.node.FunPtr</text>
<text text-anchor="middle" x="70" y="-51.5" font-family="Helvetica,sans-Serif" font-size="10.00">Node.bind</text>
</a>
</g>
</g>
<!-- Node2 -->
<g id="node2" class="node">
<title>Node2</title>
<g id="a_node2"><a xlink:href="../../d9/d8e/a01050.html#a831d51ec74dee7b2bddce93a814b78e4" target="_top" xlink:title=" ">
<polygon fill="none" stroke="black" points="176,-72 176,-91 352,-91 352,-72 176,-72"/>
<text text-anchor="middle" x="264" y="-79" font-family="Helvetica,sans-Serif" font-size="10.00">com.cliffc.aa.node.FunNode.bind</text>
</a>
</g>
</g>
<!-- Node1&#45;&gt;Node2 -->
<g id="edge1" class="edge">
<title>Node1&#45;&gt;Node2</title>
<path fill="none" stroke="midnightblue" d="M140.05,-67.41C149.72,-68.52 159.79,-69.67 169.83,-70.82"/>
<polygon fill="midnightblue" stroke="midnightblue" points="169.5,-74.31 179.83,-71.97 170.29,-67.35 169.5,-74.31"/>
</g>
<!-- Node3 -->
<g id="node3" class="node">
<title>Node3</title>
<g id="a_node3"><a xlink:href="../../dd/d57/a01054.html#a993fb4c1eec14c6c9958900157915a3b" target="_top" xlink:title=" ">
<polygon fill="none" stroke="black" points="194,-22.5 194,-52.5 334,-52.5 334,-22.5 194,-22.5"/>
<text text-anchor="start" x="202" y="-40.5" font-family="Helvetica,sans-Serif" font-size="10.00">com.cliffc.aa.node.FunPtr</text>
<text text-anchor="middle" x="264" y="-29.5" font-family="Helvetica,sans-Serif" font-size="10.00">Node.fun</text>
</a>
</g>
</g>
<!-- Node1&#45;&gt;Node3 -->
<g id="edge2" class="edge">
<title>Node1&#45;&gt;Node3</title>
<path fill="none" stroke="midnightblue" d="M140.05,-51.59C154.28,-49.96 169.38,-48.23 183.94,-46.56"/>
<polygon fill="midnightblue" stroke="midnightblue" points="184.39,-50.03 193.92,-45.42 183.59,-43.08 184.39,-50.03"/>
</g>
<!-- Node4 -->
<g id="node4" class="node">
<title>Node4</title>
<g id="a_node4"><a xlink:href="../../d7/dc4/a01354.html#ad45583d004cee7da674274ccf0afcc05" target="_top" xlink:title=" ">
<polygon fill="none" stroke="black" points="388,-50 388,-69 558,-69 558,-50 388,-50"/>
<text text-anchor="middle" x="473" y="-57" font-family="Helvetica,sans-Serif" font-size="10.00">com.cliffc.aa.node.RetNode.fun</text>
</a>
</g>
</g>
<!-- Node3&#45;&gt;Node4 -->
<g id="edge3" class="edge">
<title>Node3&#45;&gt;Node4</title>
<path fill="none" stroke="midnightblue" d="M334.22,-44.86C348.16,-46.34 363.04,-47.92 377.67,-49.47"/>
<polygon fill="midnightblue" stroke="midnightblue" points="377.43,-52.97 387.74,-50.55 378.17,-46.01 377.43,-52.97"/>
</g>
<!-- Node6 -->
<g id="node6" class="node">
<title>Node6</title>
<g id="a_node6"><a xlink:href="../../dd/d57/a01054.html#a67f4f00db790d95e243c47672ddaccb9" target="_top" xlink:title=" ">
<polygon fill="none" stroke="black" points="403,-0.5 403,-30.5 543,-30.5 543,-0.5 403,-0.5"/>
<text text-anchor="start" x="411" y="-18.5" font-family="Helvetica,sans-Serif" font-size="10.00">com.cliffc.aa.node.FunPtr</text>
<text text-anchor="middle" x="473" y="-7.5" font-family="Helvetica,sans-Serif" font-size="10.00">Node.ret</text>
</a>
</g>
</g>
<!-- Node3&#45;&gt;Node6 -->
<g id="edge5" class="edge">
<title>Node3&#45;&gt;Node6</title>
<path fill="none" stroke="midnightblue" d="M334.22,-30.14C353.03,-28.14 373.55,-25.96 392.87,-23.91"/>
<polygon fill="midnightblue" stroke="midnightblue" points="393.28,-27.39 402.85,-22.85 392.54,-20.43 393.28,-27.39"/>
</g>
<!-- Node5 -->
<g id="node5" class="node">
<title>Node5</title>
<g id="a_node5"><a xlink:href="../../df/db5/a01158.html#a9a46cea187559f94192aa6e09b91c60c" target="_top" xlink:title=" ">
<polygon fill="none" stroke="black" points="594,-28 594,-47 740,-47 740,-28 594,-28"/>
<text text-anchor="middle" x="667" y="-35" font-family="Helvetica,sans-Serif" font-size="10.00">com.cliffc.aa.node.Node.in</text>
</a>
</g>
</g>
<!-- Node4&#45;&gt;Node5 -->
<g id="edge4" class="edge">
<title>Node4&#45;&gt;Node5</title>
<path fill="none" stroke="midnightblue" d="M557.1,-49.98C566.01,-48.96 575.07,-47.92 583.97,-46.9"/>
<polygon fill="midnightblue" stroke="midnightblue" points="584.39,-50.37 593.92,-45.76 583.59,-43.42 584.39,-50.37"/>
</g>
<!-- Node6&#45;&gt;Node5 -->
<g id="edge6" class="edge">
<title>Node6&#45;&gt;Node5</title>
<path fill="none" stroke="midnightblue" d="M543.05,-23.41C556.15,-24.91 569.99,-26.5 583.47,-28.04"/>
<polygon fill="midnightblue" stroke="midnightblue" points="583.35,-31.55 593.68,-29.21 584.15,-24.6 583.35,-31.55"/>
</g>
</g>
</svg>
