<?xml version="1.0" encoding="UTF-8" standalone="no"?>
<!DOCTYPE svg PUBLIC "-//W3C//DTD SVG 1.1//EN"
 "http://www.w3.org/Graphics/SVG/1.1/DTD/svg11.dtd">
<!-- Generated by graphviz version 2.43.0 (0)
 -->
<!-- Title: com.cliffc.aa.node.FunPtrNode.is_pure_call Pages: 1 -->
<svg width="778pt" height="314pt"
 viewBox="0.00 0.00 778.00 313.78" xmlns="http://www.w3.org/2000/svg" xmlns:xlink="http://www.w3.org/1999/xlink">
<g id="graph0" class="graph" transform="scale(1 1) rotate(0) translate(4 309.78)">
<title>com.cliffc.aa.node.FunPtrNode.is_pure_call</title>
<!-- Node1 -->
<g id="node1" class="node">
<title>Node1</title>
<g id="a_node1"><a xlink:title=" ">
<polygon fill="#bfbfbf" stroke="black" points="0,-153.22 0,-183.22 140,-183.22 140,-153.22 0,-153.22"/>
<text text-anchor="start" x="8" y="-171.22" font-family="Helvetica,sans-Serif" font-size="10.00">com.cliffc.aa.node.FunPtr</text>
<text text-anchor="middle" x="70" y="-160.22" font-family="Helvetica,sans-Serif" font-size="10.00">Node.is_pure_call</text>
</a>
</g>
</g>
<!-- Node2 -->
<g id="node2" class="node">
<title>Node2</title>
<g id="a_node2"><a xlink:href="../../d7/dc4/a01354.html#ad45583d004cee7da674274ccf0afcc05" target="_top" xlink:title=" ">
<polygon fill="none" stroke="black" points="412,-235.72 412,-254.72 582,-254.72 582,-235.72 412,-235.72"/>
<text text-anchor="middle" x="497" y="-242.72" font-family="Helvetica,sans-Serif" font-size="10.00">com.cliffc.aa.node.RetNode.fun</text>
</a>
</g>
</g>
<!-- Node1&#45;&gt;Node2 -->
<g id="edge1" class="edge">
<title>Node1&#45;&gt;Node2</title>
<path fill="none" stroke="midnightblue" d="M87.64,-183.49C107.14,-200.29 141.23,-226.34 176,-237.22 252.9,-261.27 345.34,-260.65 411.05,-255.58"/>
<polygon fill="midnightblue" stroke="midnightblue" points="411.68,-259.04 421.36,-254.73 411.11,-252.06 411.68,-259.04"/>
</g>
<!-- Node3 -->
<g id="node3" class="node">
<title>Node3</title>
<g id="a_node3"><a xlink:href="../../df/db5/a01158.html#a9a46cea187559f94192aa6e09b91c60c" target="_top" xlink:title=" ">
<polygon fill="none" stroke="black" points="624,-191.72 624,-210.72 770,-210.72 770,-191.72 624,-191.72"/>
<text text-anchor="middle" x="697" y="-198.72" font-family="Helvetica,sans-Serif" font-size="10.00">com.cliffc.aa.node.Node.in</text>
</a>
</g>
</g>
<!-- Node1&#45;&gt;Node3 -->
<g id="edge7" class="edge">
<title>Node1&#45;&gt;Node3</title>
<path fill="none" stroke="midnightblue" d="M82.17,-183.39C99.42,-205.41 134.89,-245.32 176,-261.22 346.79,-327.25 411.23,-312.01 588,-264.22 621.74,-255.09 655.76,-232.53 676.36,-217.04"/>
<polygon fill="midnightblue" stroke="midnightblue" points="678.55,-219.77 684.33,-210.89 674.27,-214.23 678.55,-219.77"/>
</g>
<!-- Node4 -->
<g id="node4" class="node">
<title>Node4</title>
<g id="a_node4"><a xlink:href="../../dd/d57/a01054.html#a993fb4c1eec14c6c9958900157915a3b" target="_top" xlink:title=" ">
<polygon fill="none" stroke="black" points="203,-197.22 203,-227.22 343,-227.22 343,-197.22 203,-197.22"/>
<text text-anchor="start" x="211" y="-215.22" font-family="Helvetica,sans-Serif" font-size="10.00">com.cliffc.aa.node.FunPtr</text>
<text text-anchor="middle" x="273" y="-204.22" font-family="Helvetica,sans-Serif" font-size="10.00">Node.fun</text>
</a>
</g>
</g>
<!-- Node1&#45;&gt;Node4 -->
<g id="edge3" class="edge">
<title>Node1&#45;&gt;Node4</title>
<path fill="none" stroke="midnightblue" d="M139.61,-183.23C156.98,-187.04 175.76,-191.15 193.58,-195.05"/>
<polygon fill="midnightblue" stroke="midnightblue" points="192.84,-198.47 203.36,-197.19 194.34,-191.63 192.84,-198.47"/>
</g>
<!-- Node5 -->
<g id="node5" class="node">
<title>Node5</title>
<g id="a_node5"><a xlink:href="../../dd/d57/a01054.html#a67f4f00db790d95e243c47672ddaccb9" target="_top" xlink:title=" ">
<polygon fill="none" stroke="black" points="427,-186.22 427,-216.22 567,-216.22 567,-186.22 427,-186.22"/>
<text text-anchor="start" x="435" y="-204.22" font-family="Helvetica,sans-Serif" font-size="10.00">com.cliffc.aa.node.FunPtr</text>
<text text-anchor="middle" x="497" y="-193.22" font-family="Helvetica,sans-Serif" font-size="10.00">Node.ret</text>
</a>
</g>
</g>
<!-- Node1&#45;&gt;Node5 -->
<g id="edge17" class="edge">
<title>Node1&#45;&gt;Node5</title>
<path fill="none" stroke="midnightblue" d="M140.23,-172.14C200.87,-175.74 291.33,-181.53 370,-188.22 385.1,-189.5 401.2,-191.03 416.67,-192.59"/>
<polygon fill="midnightblue" stroke="midnightblue" points="416.42,-196.08 426.72,-193.61 417.13,-189.12 416.42,-196.08"/>
</g>
<!-- Node6 -->
<g id="node6" class="node">
<title>Node6</title>
<g id="a_node6"><a xlink:href="../../d7/dc4/a01354.html#a9569c0546d20fa114b52662ee9a6ebde" target="_top" xlink:title=" ">
<polygon fill="none" stroke="black" points="177.5,-120.72 177.5,-139.72 368.5,-139.72 368.5,-120.72 177.5,-120.72"/>
<text text-anchor="middle" x="273" y="-127.72" font-family="Helvetica,sans-Serif" font-size="10.00">com.cliffc.aa.node.RetNode.is_copy</text>
</a>
</g>
</g>
<!-- Node1&#45;&gt;Node6 -->
<g id="edge8" class="edge">
<title>Node1&#45;&gt;Node6</title>
<path fill="none" stroke="midnightblue" d="M140.17,-155.14C163.41,-150.74 189.14,-145.88 211.65,-141.63"/>
<polygon fill="midnightblue" stroke="midnightblue" points="212.57,-145.01 221.74,-139.72 211.26,-138.14 212.57,-145.01"/>
</g>
<!-- Node8 -->
<g id="node8" class="node">
<title>Node8</title>
<g id="a_node8"><a xlink:href="../../d7/dc4/a01354.html#aae8fa0bf17696839c976694cb6c726c3" target="_top" xlink:title=" ">
<polygon fill="none" stroke="black" points="183.5,-82.72 183.5,-101.72 362.5,-101.72 362.5,-82.72 183.5,-82.72"/>
<text text-anchor="middle" x="273" y="-89.72" font-family="Helvetica,sans-Serif" font-size="10.00">com.cliffc.aa.node.RetNode.mem</text>
</a>
</g>
</g>
<!-- Node1&#45;&gt;Node8 -->
<g id="edge11" class="edge">
<title>Node1&#45;&gt;Node8</title>
<path fill="none" stroke="midnightblue" d="M93.82,-153.19C114.47,-140.24 146.15,-121.99 176,-111.22 183.56,-108.49 191.59,-106.12 199.68,-104.07"/>
<polygon fill="midnightblue" stroke="midnightblue" points="200.62,-107.45 209.54,-101.73 199,-100.64 200.62,-107.45"/>
</g>
<!-- Node9 -->
<g id="node9" class="node">
<title>Node9</title>
<g id="a_node9"><a xlink:href="../../d9/d8e/a01050.html#afa5a1c8f4c13322c944fc8750ae17441" target="_top" xlink:title=" ">
<polygon fill="none" stroke="black" points="176,-35.72 176,-54.72 370,-54.72 370,-35.72 176,-35.72"/>
<text text-anchor="middle" x="273" y="-42.72" font-family="Helvetica,sans-Serif" font-size="10.00">com.cliffc.aa.node.FunNode.noinline</text>
</a>
</g>
</g>
<!-- Node1&#45;&gt;Node9 -->
<g id="edge13" class="edge">
<title>Node1&#45;&gt;Node9</title>
<path fill="none" stroke="midnightblue" d="M83.66,-153.08C101.96,-132.15 137.8,-94.56 176,-73.22 187.59,-66.74 200.83,-61.63 213.69,-57.65"/>
<polygon fill="midnightblue" stroke="midnightblue" points="214.8,-60.98 223.42,-54.83 212.85,-54.25 214.8,-60.98"/>
</g>
<!-- Node2&#45;&gt;Node3 -->
<g id="edge2" class="edge">
<title>Node2&#45;&gt;Node3</title>
<path fill="none" stroke="midnightblue" d="M544.29,-235.62C558.34,-232.66 573.81,-229.36 588,-226.22 606.95,-222.02 627.72,-217.26 645.95,-213.02"/>
<polygon fill="midnightblue" stroke="midnightblue" points="646.84,-216.4 655.78,-210.72 645.25,-209.58 646.84,-216.4"/>
</g>
<!-- Node4&#45;&gt;Node2 -->
<g id="edge4" class="edge">
<title>Node4&#45;&gt;Node2</title>
<path fill="none" stroke="midnightblue" d="M343.03,-222.48C368.08,-226.2 396.49,-230.42 421.96,-234.21"/>
<polygon fill="midnightblue" stroke="midnightblue" points="421.53,-237.68 431.94,-235.69 422.56,-230.76 421.53,-237.68"/>
</g>
<!-- Node4&#45;&gt;Node5 -->
<g id="edge5" class="edge">
<title>Node4&#45;&gt;Node5</title>
<path fill="none" stroke="midnightblue" d="M343.03,-208.8C366.3,-207.64 392.47,-206.35 416.49,-205.16"/>
<polygon fill="midnightblue" stroke="midnightblue" points="416.82,-208.64 426.64,-204.65 416.47,-201.65 416.82,-208.64"/>
</g>
<!-- Node5&#45;&gt;Node3 -->
<g id="edge6" class="edge">
<title>Node5&#45;&gt;Node3</title>
<path fill="none" stroke="midnightblue" d="M567.25,-201.22C582.25,-201.22 598.26,-201.22 613.71,-201.22"/>
<polygon fill="midnightblue" stroke="midnightblue" points="613.76,-204.72 623.76,-201.22 613.76,-197.72 613.76,-204.72"/>
</g>
<!-- Node7 -->
<g id="node7" class="node">
<title>Node7</title>
<g id="a_node7"><a xlink:href="../../d3/d30/a00370.html#ad1b6f2b7e61738dac4e3aa0ebc7f36a7" target="_top" xlink:title=" ">
<polygon fill="none" stroke="black" points="431,-129.72 431,-148.72 563,-148.72 563,-129.72 431,-129.72"/>
<text text-anchor="middle" x="497" y="-136.72" font-family="Helvetica,sans-Serif" font-size="10.00">com.cliffc.aa.AA.unimpl</text>
</a>
</g>
</g>
<!-- Node6&#45;&gt;Node7 -->
<g id="edge9" class="edge">
<title>Node6&#45;&gt;Node7</title>
<path fill="none" stroke="midnightblue" d="M368.79,-134.06C386.07,-134.76 403.88,-135.48 420.5,-136.15"/>
<polygon fill="midnightblue" stroke="midnightblue" points="420.55,-139.66 430.68,-136.57 420.83,-132.67 420.55,-139.66"/>
</g>
<!-- Node7&#45;&gt;Node7 -->
<g id="edge10" class="edge">
<title>Node7&#45;&gt;Node7</title>
<path fill="none" stroke="midnightblue" d="M466.17,-148.97C451.18,-157.78 461.45,-167.22 497,-167.22 521.99,-167.22 534.49,-162.55 534.5,-156.72"/>
<polygon fill="midnightblue" stroke="midnightblue" points="537,-154.26 527.83,-148.97 531.7,-158.83 537,-154.26"/>
</g>
<!-- Node8&#45;&gt;Node3 -->
<g id="edge12" class="edge">
<title>Node8&#45;&gt;Node3</title>
<path fill="none" stroke="midnightblue" d="M362.52,-87.37C427.07,-86.83 515.56,-92.44 588,-120.22 624.93,-134.38 660.1,-165.07 679.78,-184.34"/>
<polygon fill="midnightblue" stroke="midnightblue" points="677.46,-186.97 687,-191.58 682.42,-182.03 677.46,-186.97"/>
</g>
<!-- Node9&#45;&gt;Node3 -->
<g id="edge14" class="edge">
<title>Node9&#45;&gt;Node3</title>
<path fill="none" stroke="midnightblue" d="M297.57,-35.71C352.55,-15.16 491.9,27.4 588,-26.22 648.72,-60.1 679.56,-143.72 690.84,-181.79"/>
<polygon fill="midnightblue" stroke="midnightblue" points="687.54,-182.96 693.62,-191.64 694.27,-181.06 687.54,-182.96"/>
</g>
<!-- Node10 -->
<g id="node10" class="node">
<title>Node10</title>
<g id="a_node10"><a xlink:href="../../d9/d8e/a01050.html#a3b40a3568f3e006072d10980d7820de6" target="_top" xlink:title=" ">
<polygon fill="none" stroke="black" points="406,-35.72 406,-54.72 588,-54.72 588,-35.72 406,-35.72"/>
<text text-anchor="middle" x="497" y="-42.72" font-family="Helvetica,sans-Serif" font-size="10.00">com.cliffc.aa.node.FunNode.name</text>
</a>
</g>
</g>
<!-- Node9&#45;&gt;Node10 -->
<g id="edge15" class="edge">
<title>Node9&#45;&gt;Node10</title>
<path fill="none" stroke="midnightblue" d="M370.08,-45.22C378.5,-45.22 387.03,-45.22 395.48,-45.22"/>
<polygon fill="midnightblue" stroke="midnightblue" points="395.73,-48.72 405.73,-45.22 395.73,-41.72 395.73,-48.72"/>
</g>
<!-- Node10&#45;&gt;Node10 -->
<g id="edge16" class="edge">
<title>Node10&#45;&gt;Node10</title>
<path fill="none" stroke="midnightblue" d="M466.17,-54.97C451.18,-63.78 461.45,-73.22 497,-73.22 521.99,-73.22 534.49,-68.55 534.5,-62.72"/>
<polygon fill="midnightblue" stroke="midnightblue" points="537,-60.26 527.83,-54.97 531.7,-64.83 537,-60.26"/>
</g>
</g>
</svg>
