<?xml version="1.0" encoding="UTF-8" standalone="no"?>
<!DOCTYPE svg PUBLIC "-//W3C//DTD SVG 1.1//EN"
 "http://www.w3.org/Graphics/SVG/1.1/DTD/svg11.dtd">
<!-- Generated by graphviz version 2.43.0 (0)
 -->
<!-- Title: com.cliffc.aa.node.FunPtrNode.xfun Pages: 1 -->
<svg width="536pt" height="116pt"
 viewBox="0.00 0.00 536.00 115.50" xmlns="http://www.w3.org/2000/svg" xmlns:xlink="http://www.w3.org/1999/xlink">
<g id="graph0" class="graph" transform="scale(1 1) rotate(0) translate(4 111.5)">
<title>com.cliffc.aa.node.FunPtrNode.xfun</title>
<!-- Node1 -->
<g id="node1" class="node">
<title>Node1</title>
<g id="a_node1"><a xlink:title=" ">
<polygon fill="#bfbfbf" stroke="black" points="0,-44.5 0,-74.5 140,-74.5 140,-44.5 0,-44.5"/>
<text text-anchor="start" x="8" y="-62.5" font-family="Helvetica,sans-Serif" font-size="10.00">com.cliffc.aa.node.FunPtr</text>
<text text-anchor="middle" x="70" y="-51.5" font-family="Helvetica,sans-Serif" font-size="10.00">Node.xfun</text>
</a>
</g>
</g>
<!-- Node2 -->
<g id="node2" class="node">
<title>Node2</title>
<g id="a_node2"><a xlink:href="../../d7/dc4/a01354.html#ad45583d004cee7da674274ccf0afcc05" target="_top" xlink:title=" ">
<polygon fill="none" stroke="black" points="176,-88 176,-107 346,-107 346,-88 176,-88"/>
<text text-anchor="middle" x="261" y="-95" font-family="Helvetica,sans-Serif" font-size="10.00">com.cliffc.aa.node.RetNode.fun</text>
</a>
</g>
</g>
<!-- Node1&#45;&gt;Node2 -->
<g id="edge1" class="edge">
<title>Node1&#45;&gt;Node2</title>
<path fill="none" stroke="midnightblue" d="M140.04,-73.38C160.6,-77.51 182.9,-82 202.63,-85.97"/>
<polygon fill="midnightblue" stroke="midnightblue" points="202.2,-89.45 212.7,-87.99 203.58,-82.59 202.2,-89.45"/>
</g>
<!-- Node3 -->
<g id="node3" class="node">
<title>Node3</title>
<g id="a_node3"><a xlink:href="../../df/db5/a01158.html#a9a46cea187559f94192aa6e09b91c60c" target="_top" xlink:title=" ">
<polygon fill="none" stroke="black" points="382,-50 382,-69 528,-69 528,-50 382,-50"/>
<text text-anchor="middle" x="455" y="-57" font-family="Helvetica,sans-Serif" font-size="10.00">com.cliffc.aa.node.Node.in</text>
</a>
</g>
</g>
<!-- Node1&#45;&gt;Node3 -->
<g id="edge3" class="edge">
<title>Node1&#45;&gt;Node3</title>
<path fill="none" stroke="midnightblue" d="M140.36,-59.5C205.36,-59.5 302.57,-59.5 371.52,-59.5"/>
<polygon fill="midnightblue" stroke="midnightblue" points="371.91,-63 381.91,-59.5 371.91,-56 371.91,-63"/>
</g>
<!-- Node4 -->
<g id="node4" class="node">
<title>Node4</title>
<g id="a_node4"><a xlink:href="../../dd/d57/a01054.html#a67f4f00db790d95e243c47672ddaccb9" target="_top" xlink:title=" ">
<polygon fill="none" stroke="black" points="191,-0.5 191,-30.5 331,-30.5 331,-0.5 191,-0.5"/>
<text text-anchor="start" x="199" y="-18.5" font-family="Helvetica,sans-Serif" font-size="10.00">com.cliffc.aa.node.FunPtr</text>
<text text-anchor="middle" x="261" y="-7.5" font-family="Helvetica,sans-Serif" font-size="10.00">Node.ret</text>
</a>
</g>
</g>
<!-- Node1&#45;&gt;Node4 -->
<g id="edge4" class="edge">
<title>Node1&#45;&gt;Node4</title>
<path fill="none" stroke="midnightblue" d="M135.51,-44.48C151.54,-40.75 168.86,-36.72 185.33,-32.88"/>
<polygon fill="midnightblue" stroke="midnightblue" points="186.51,-36.2 195.46,-30.53 184.92,-29.38 186.51,-36.2"/>
</g>
<!-- Node2&#45;&gt;Node3 -->
<g id="edge2" class="edge">
<title>Node2&#45;&gt;Node3</title>
<path fill="none" stroke="midnightblue" d="M310.45,-87.91C336.47,-82.76 368.73,-76.38 396.07,-70.97"/>
<polygon fill="midnightblue" stroke="midnightblue" points="396.77,-74.4 405.9,-69.02 395.41,-67.53 396.77,-74.4"/>
</g>
<!-- Node4&#45;&gt;Node3 -->
<g id="edge5" class="edge">
<title>Node4&#45;&gt;Node3</title>
<path fill="none" stroke="midnightblue" d="M327.54,-30.52C352.05,-36.14 379.51,-42.43 402.57,-47.71"/>
<polygon fill="midnightblue" stroke="midnightblue" points="401.96,-51.17 412.49,-49.99 403.53,-44.34 401.96,-51.17"/>
</g>
</g>
</svg>
