<?xml version="1.0" encoding="UTF-8" standalone="no"?>
<!DOCTYPE svg PUBLIC "-//W3C//DTD SVG 1.1//EN"
 "http://www.w3.org/Graphics/SVG/1.1/DTD/svg11.dtd">
<!-- Generated by graphviz version 2.43.0 (0)
 -->
<!-- Title: com.cliffc.aa.type.TypeObj&lt; O extends TypeObj&lt; O &gt; Pages: 1 -->
<!--zoomable 186 -->
<svg id="main" version="1.1" xmlns="http://www.w3.org/2000/svg" xmlns:xlink="http://www.w3.org/1999/xlink" xml:space="preserve" onload="init(evt)">
<style type="text/css"><![CDATA[
.edge:hover path { stroke: red; }
.edge:hover polygon { stroke: red; fill: red; }
]]></style>
<script type="text/javascript"><![CDATA[
var edges = document.getElementsByTagName('g');
if (edges && edges.length) {
  for (var i=0;i<edges.length;i++) {
    if (edges[i].id.substr(0,4)=='edge') {
      edges[i].setAttribute('class','edge');
    }
  }
}
]]></script>
        <defs>
                <circle id="rim" cx="0" cy="0" r="7"/>
                <circle id="rim2" cx="0" cy="0" r="3.5"/>
                <g id="zoomPlus">
                        <use xlink:href="#rim" fill="#404040">
                                <set attributeName="fill" to="#808080" begin="zoomplus.mouseover" end="zoomplus.mouseout"/>
                        </use>
                        <path d="M-4,0h8M0,-4v8" fill="none" stroke="white" stroke-width="1.5" pointer-events="none"/>
                </g>
                <g id="zoomMin">
                        <use xlink:href="#rim" fill="#404040">
                                <set attributeName="fill" to="#808080" begin="zoomminus.mouseover" end="zoomminus.mouseout"/>
                        </use>
                        <path d="M-4,0h8" fill="none" stroke="white" stroke-width="1.5" pointer-events="none"/>
                </g>
                <g id="dirArrow">
                        <path fill="none" stroke="white" stroke-width="1.5" d="M0,-3.0v7 M-2.5,-0.5L0,-3.0L2.5,-0.5"/>
                </g>
               <g id="resetDef">
                       <use xlink:href="#rim2" fill="#404040">
                               <set attributeName="fill" to="#808080" begin="reset.mouseover" end="reset.mouseout"/>
                       </use>
               </g>
        </defs>

<script type="text/javascript">
var viewWidth = 1128;
var viewHeight = 186;
var sectionId = 'dynsection-0';
</script>
<script xlink:href="../../svgpan.js"/>
<svg id="graph" class="graph">
<g id="viewport">
<title>com.cliffc.aa.type.TypeObj&lt; O extends TypeObj&lt; O &gt;</title>
<!-- Node1 -->
<g id="node1" class="node">
<title>Node1</title>
<g id="a_node1"><a xlink:title=" ">
<polygon fill="#bfbfbf" stroke="black" points="517,-73.5 517,-103.5 666,-103.5 666,-73.5 517,-73.5"/>
<text text-anchor="start" x="525" y="-91.5" font-family="Helvetica,sans-Serif" font-size="10.00">com.cliffc.aa.type.TypeObj</text>
<text text-anchor="middle" x="591.5" y="-80.5" font-family="Helvetica,sans-Serif" font-size="10.00">&lt; O extends TypeObj&lt; O &gt;</text>
</a>
</g>
</g>
<!-- Node7 -->
<g id="node7" class="node">
<title>Node7</title>
<g id="a_node7"><a xlink:href="../../de/dc6/a01502.html" target="_top" xlink:title=" ">
<polygon fill="none" stroke="black" points="779,-147.5 779,-177.5 925,-177.5 925,-147.5 779,-147.5"/>
<text text-anchor="start" x="787" y="-165.5" font-family="Helvetica,sans-Serif" font-size="10.00">com.cliffc.aa.type.TypeObj</text>
<text text-anchor="middle" x="852" y="-154.5" font-family="Helvetica,sans-Serif" font-size="10.00">&lt; TypeLive &gt;</text>
</a>
</g>
</g>
<!-- Node1&#45;&gt;Node7 -->
<g id="edge6" class="edge">
<title>Node1&#45;&gt;Node7</title>
<path fill="none" stroke="orange" stroke-dasharray="5,2" d="M642.72,-106.98C656.06,-111.63 670.51,-116.45 684,-120.5 717.22,-130.46 754.62,-140.02 785.6,-147.49"/>
<polygon fill="orange" stroke="orange" points="643.83,-103.66 633.24,-103.63 641.5,-110.26 643.83,-103.66"/>
<text text-anchor="middle" x="722.5" y="-142.5" font-family="Helvetica,sans-Serif" font-size="10.00"> &lt; TypeLive &gt;</text>
</g>
<!-- Node9 -->
<g id="node9" class="node">
<title>Node9</title>
<g id="a_node9"><a xlink:href="../../de/dc6/a01502.html" target="_top" xlink:title=" ">
<polygon fill="none" stroke="black" points="779,-98.5 779,-128.5 925,-128.5 925,-98.5 779,-98.5"/>
<text text-anchor="start" x="787" y="-116.5" font-family="Helvetica,sans-Serif" font-size="10.00">com.cliffc.aa.type.TypeObj</text>
<text text-anchor="middle" x="852" y="-105.5" font-family="Helvetica,sans-Serif" font-size="10.00">&lt; TypeStr &gt;</text>
</a>
</g>
</g>
<!-- Node1&#45;&gt;Node9 -->
<g id="edge8" class="edge">
<title>Node1&#45;&gt;Node9</title>
<path fill="none" stroke="orange" stroke-dasharray="5,2" d="M676.35,-96.61C709.45,-99.81 747.11,-103.45 778.96,-106.53"/>
<polygon fill="orange" stroke="orange" points="676.52,-93.11 666.23,-95.63 675.85,-100.08 676.52,-93.11"/>
<text text-anchor="middle" x="722.5" y="-108.5" font-family="Helvetica,sans-Serif" font-size="10.00"> &lt; TypeStr &gt;</text>
</g>
<!-- Node11 -->
<g id="node11" class="node">
<title>Node11</title>
<g id="a_node11"><a xlink:href="../../de/dc6/a01502.html" target="_top" xlink:title=" ">
<polygon fill="none" stroke="black" points="779,-49.5 779,-79.5 925,-79.5 925,-49.5 779,-49.5"/>
<text text-anchor="start" x="787" y="-67.5" font-family="Helvetica,sans-Serif" font-size="10.00">com.cliffc.aa.type.TypeObj</text>
<text text-anchor="middle" x="852" y="-56.5" font-family="Helvetica,sans-Serif" font-size="10.00">&lt; TypeAry &gt;</text>
</a>
</g>
</g>
<!-- Node1&#45;&gt;Node11 -->
<g id="edge10" class="edge">
<title>Node1&#45;&gt;Node11</title>
<path fill="none" stroke="orange" stroke-dasharray="5,2" d="M676.37,-77.3C678.94,-77.02 681.49,-76.75 684,-76.5 715.09,-73.35 749.52,-70.73 778.99,-68.75"/>
<polygon fill="orange" stroke="orange" points="675.91,-73.83 666.37,-78.43 676.7,-80.79 675.91,-73.83"/>
<text text-anchor="middle" x="722.5" y="-79.5" font-family="Helvetica,sans-Serif" font-size="10.00"> &lt; TypeAry &gt;</text>
</g>
<!-- Node13 -->
<g id="node13" class="node">
<title>Node13</title>
<g id="a_node13"><a xlink:href="../../de/dc6/a01502.html" target="_top" xlink:title=" ">
<polygon fill="none" stroke="black" points="779,-0.5 779,-30.5 925,-30.5 925,-0.5 779,-0.5"/>
<text text-anchor="start" x="787" y="-18.5" font-family="Helvetica,sans-Serif" font-size="10.00">com.cliffc.aa.type.TypeObj</text>
<text text-anchor="middle" x="852" y="-7.5" font-family="Helvetica,sans-Serif" font-size="10.00">&lt; TypeStruct &gt;</text>
</a>
</g>
</g>
<!-- Node1&#45;&gt;Node13 -->
<g id="edge12" class="edge">
<title>Node1&#45;&gt;Node13</title>
<path fill="none" stroke="orange" stroke-dasharray="5,2" d="M641.12,-69.83C654.88,-64.86 669.94,-59.71 684,-55.5 715.42,-46.1 750.67,-37.4 780.66,-30.52"/>
<polygon fill="orange" stroke="orange" points="639.55,-66.68 631.37,-73.4 641.96,-73.25 639.55,-66.68"/>
<text text-anchor="middle" x="722.5" y="-58.5" font-family="Helvetica,sans-Serif" font-size="10.00"> &lt; TypeStruct &gt;</text>
</g>
<!-- Node2 -->
<g id="node2" class="node">
<title>Node2</title>
<g id="a_node2"><a xlink:href="../../d0/de2/a01442.html" target="_top" xlink:title=" ">
<polygon fill="none" stroke="black" points="311,-104 311,-123 470,-123 470,-104 311,-104"/>
<text text-anchor="middle" x="390.5" y="-111" font-family="Helvetica,sans-Serif" font-size="10.00">com.cliffc.aa.type.Type&lt; O &gt;</text>
</a>
</g>
</g>
<!-- Node2&#45;&gt;Node1 -->
<g id="edge1" class="edge">
<title>Node2&#45;&gt;Node1</title>
<path fill="none" stroke="midnightblue" d="M477.3,-102.72C490.48,-101.06 503.99,-99.37 516.88,-97.75"/>
<polygon fill="midnightblue" stroke="midnightblue" points="476.79,-99.26 467.3,-103.98 477.66,-106.2 476.79,-99.26"/>
</g>
<!-- Node3 -->
<g id="node3" class="node">
<title>Node3</title>
<g id="a_node3"><a xlink:href="../../d0/de2/a01442.html" target="_top" xlink:title="an implementation of language AA">
<polygon fill="none" stroke="black" points="111,-98.5 111,-128.5 241,-128.5 241,-98.5 111,-98.5"/>
<text text-anchor="start" x="119" y="-116.5" font-family="Helvetica,sans-Serif" font-size="10.00">com.cliffc.aa.type.Type</text>
<text text-anchor="middle" x="176" y="-105.5" font-family="Helvetica,sans-Serif" font-size="10.00">&lt; T extends Type&lt; T &gt;</text>
</a>
</g>
</g>
<!-- Node3&#45;&gt;Node2 -->
<g id="edge2" class="edge">
<title>Node3&#45;&gt;Node2</title>
<path fill="none" stroke="orange" stroke-dasharray="5,2" d="M251.28,-113.5C270.58,-113.5 291.43,-113.5 310.94,-113.5"/>
<polygon fill="orange" stroke="orange" points="251.05,-110 241.05,-113.5 251.05,-117 251.05,-110"/>
<text text-anchor="middle" x="276" y="-116.5" font-family="Helvetica,sans-Serif" font-size="10.00"> &lt; O &gt;</text>
</g>
<!-- Node4 -->
<g id="node4" class="node">
<title>Node4</title>
<g id="a_node4"><a xlink:href="../../d9/d76/a02526.html" target="_top" xlink:title=" ">
<polygon fill="none" stroke="black" points="0,-123 0,-142 65,-142 65,-123 0,-123"/>
<text text-anchor="middle" x="32.5" y="-130" font-family="Helvetica,sans-Serif" font-size="10.00">Cloneable</text>
</a>
</g>
</g>
<!-- Node4&#45;&gt;Node3 -->
<g id="edge3" class="edge">
<title>Node4&#45;&gt;Node3</title>
<path fill="none" stroke="midnightblue" d="M75.18,-126.9C86.39,-125.4 98.79,-123.73 110.91,-122.11"/>
<polygon fill="midnightblue" stroke="midnightblue" points="74.7,-123.44 65.26,-128.24 75.63,-130.37 74.7,-123.44"/>
</g>
<!-- Node5 -->
<g id="node5" class="node">
<title>Node5</title>
<g id="a_node5"><a xlink:href="../../d7/df2/a02322.html" target="_top" xlink:title=" ">
<polygon fill="none" stroke="black" points="4.5,-85 4.5,-104 60.5,-104 60.5,-85 4.5,-85"/>
<text text-anchor="middle" x="32.5" y="-92" font-family="Helvetica,sans-Serif" font-size="10.00">Type&lt; T</text>
</a>
</g>
</g>
<!-- Node5&#45;&gt;Node3 -->
<g id="edge4" class="edge">
<title>Node5&#45;&gt;Node3</title>
<path fill="none" stroke="orange" stroke-dasharray="5,2" d="M71.04,-99.54C83.28,-101.18 97.23,-103.06 110.85,-104.89"/>
<polygon fill="orange" stroke="orange" points="71.16,-96.03 60.78,-98.16 70.23,-102.96 71.16,-96.03"/>
<text text-anchor="middle" x="88" y="-105.5" font-family="Helvetica,sans-Serif" font-size="10.00"> T</text>
</g>
<!-- Node6 -->
<g id="node6" class="node">
<title>Node6</title>
<g id="a_node6"><a xlink:href="../../db/d34/a02118.html" target="_top" xlink:title=" ">
<polygon fill="none" stroke="black" points="353.5,-66 353.5,-85 427.5,-85 427.5,-66 353.5,-66"/>
<text text-anchor="middle" x="390.5" y="-73" font-family="Helvetica,sans-Serif" font-size="10.00">TypeObj&lt; O</text>
</a>
</g>
</g>
<!-- Node6&#45;&gt;Node1 -->
<g id="edge5" class="edge">
<title>Node6&#45;&gt;Node1</title>
<path fill="none" stroke="orange" stroke-dasharray="5,2" d="M437.98,-78.52C456.91,-79.75 479,-81.19 499,-82.5 504.72,-82.87 510.64,-83.26 516.59,-83.65"/>
<polygon fill="orange" stroke="orange" points="438.03,-75.02 427.82,-77.86 437.58,-82 438.03,-75.02"/>
<text text-anchor="middle" x="493.5" y="-85.5" font-family="Helvetica,sans-Serif" font-size="10.00"> O</text>
</g>
<!-- Node8 -->
<g id="node8" class="node">
<title>Node8</title>
<g id="a_node8"><a xlink:href="../../de/d3c/a01490.html" target="_top" xlink:title=" ">
<polygon fill="none" stroke="black" points="966.5,-153 966.5,-172 1115.5,-172 1115.5,-153 966.5,-153"/>
<text text-anchor="middle" x="1041" y="-160" font-family="Helvetica,sans-Serif" font-size="10.00">com.cliffc.aa.type.TypeLive</text>
</a>
</g>
</g>
<!-- Node7&#45;&gt;Node8 -->
<g id="edge7" class="edge">
<title>Node7&#45;&gt;Node8</title>
<path fill="none" stroke="midnightblue" d="M935.32,-162.5C945.69,-162.5 956.24,-162.5 966.46,-162.5"/>
<polygon fill="midnightblue" stroke="midnightblue" points="935.03,-159 925.03,-162.5 935.03,-166 935.03,-159"/>
</g>
<!-- Node10 -->
<g id="node10" class="node">
<title>Node10</title>
<g id="a_node10"><a xlink:href="../../d0/d1a/a01518.html" target="_top" xlink:title=" ">
<polygon fill="none" stroke="black" points="969.5,-104 969.5,-123 1112.5,-123 1112.5,-104 969.5,-104"/>
<text text-anchor="middle" x="1041" y="-111" font-family="Helvetica,sans-Serif" font-size="10.00">com.cliffc.aa.type.TypeStr</text>
</a>
</g>
</g>
<!-- Node9&#45;&gt;Node10 -->
<g id="edge9" class="edge">
<title>Node9&#45;&gt;Node10</title>
<path fill="none" stroke="midnightblue" d="M935.33,-113.5C946.64,-113.5 958.16,-113.5 969.24,-113.5"/>
<polygon fill="midnightblue" stroke="midnightblue" points="935.03,-110 925.03,-113.5 935.03,-117 935.03,-110"/>
</g>
<!-- Node12 -->
<g id="node12" class="node">
<title>Node12</title>
<g id="a_node12"><a xlink:href="../../da/df6/a01454.html" target="_top" xlink:title=" ">
<polygon fill="none" stroke="black" points="968,-55 968,-74 1114,-74 1114,-55 968,-55"/>
<text text-anchor="middle" x="1041" y="-62" font-family="Helvetica,sans-Serif" font-size="10.00">com.cliffc.aa.type.TypeAry</text>
</a>
</g>
</g>
<!-- Node11&#45;&gt;Node12 -->
<g id="edge11" class="edge">
<title>Node11&#45;&gt;Node12</title>
<path fill="none" stroke="midnightblue" d="M935.3,-64.5C946.09,-64.5 957.09,-64.5 967.7,-64.5"/>
<polygon fill="midnightblue" stroke="midnightblue" points="935.03,-61 925.03,-64.5 935.03,-68 935.03,-61"/>
</g>
<!-- Node14 -->
<g id="node14" class="node">
<title>Node14</title>
<g id="a_node14"><a xlink:href="../../da/da6/a01522.html" target="_top" xlink:title="A memory&#45;based collection of optionally named fields.">
<polygon fill="none" stroke="black" points="962,-6 962,-25 1120,-25 1120,-6 962,-6"/>
<text text-anchor="middle" x="1041" y="-13" font-family="Helvetica,sans-Serif" font-size="10.00">com.cliffc.aa.type.TypeStruct</text>
</a>
</g>
</g>
<!-- Node13&#45;&gt;Node14 -->
<g id="edge13" class="edge">
<title>Node13&#45;&gt;Node14</title>
<path fill="none" stroke="midnightblue" d="M935.29,-15.5C944.09,-15.5 953.04,-15.5 961.79,-15.5"/>
<polygon fill="midnightblue" stroke="midnightblue" points="935.03,-12 925.03,-15.5 935.03,-19 935.03,-12"/>
</g>
</g>
</svg>
        <g id="navigator" transform="translate(0 0)" fill="#404254">
                <rect fill="#f2f5e9" fill-opacity="0.5" stroke="#606060" stroke-width=".5" x="0" y="0" width="60" height="60"/>
                <use id="zoomplus" xlink:href="#zoomPlus" x="17" y="9" onmousedown="handleZoom(evt,'in')"/>
                <use id="zoomminus" xlink:href="#zoomMin" x="42" y="9" onmousedown="handleZoom(evt,'out')"/>
                <use id="reset" xlink:href="#resetDef" x="30" y="36" onmousedown="handleReset()"/>
                <g id="arrowUp" xlink:href="#dirArrow" transform="translate(30 24)" onmousedown="handlePan(0,-1)">
                  <use xlink:href="#rim" fill="#404040">
                        <set attributeName="fill" to="#808080" begin="arrowUp.mouseover" end="arrowUp.mouseout"/>
                  </use>
                  <path fill="none" stroke="white" stroke-width="1.5" d="M0,-3.0v7 M-2.5,-0.5L0,-3.0L2.5,-0.5"/>
                </g>
                <g id="arrowRight" xlink:href="#dirArrow" transform="rotate(90) translate(36 -43)" onmousedown="handlePan(1,0)">
                  <use xlink:href="#rim" fill="#404040">
                        <set attributeName="fill" to="#808080" begin="arrowRight.mouseover" end="arrowRight.mouseout"/>
                  </use>
                  <path fill="none" stroke="white" stroke-width="1.5" d="M0,-3.0v7 M-2.5,-0.5L0,-3.0L2.5,-0.5"/>
                </g>
                <g id="arrowDown" xlink:href="#dirArrow" transform="rotate(180) translate(-30 -48)" onmousedown="handlePan(0,1)">
                  <use xlink:href="#rim" fill="#404040">
                        <set attributeName="fill" to="#808080" begin="arrowDown.mouseover" end="arrowDown.mouseout"/>
                  </use>
                  <path fill="none" stroke="white" stroke-width="1.5" d="M0,-3.0v7 M-2.5,-0.5L0,-3.0L2.5,-0.5"/>
                </g>
                <g id="arrowLeft" xlink:href="#dirArrow" transform="rotate(270) translate(-36 17)" onmousedown="handlePan(-1,0)">
                  <use xlink:href="#rim" fill="#404040">
                        <set attributeName="fill" to="#808080" begin="arrowLeft.mouseover" end="arrowLeft.mouseout"/>
                  </use>
                  <path fill="none" stroke="white" stroke-width="1.5" d="M0,-3.0v7 M-2.5,-0.5L0,-3.0L2.5,-0.5"/>
                </g>
        </g>
        <svg viewBox="0 0 15 15" width="100%" height="30px" preserveAspectRatio="xMaxYMin meet">
         <g id="arrow_out" transform="scale(0.3 0.3)">
          <a xlink:href="a01501_org.svg" target="_base">
           <rect id="button" ry="5" rx="5" y="6" x="6" height="38" width="38"
                fill="#f2f5e9" fill-opacity="0.5" stroke="#606060" stroke-width="1.0"/>
           <path id="arrow"
             d="M 11.500037,31.436501 C 11.940474,20.09759 22.043105,11.32322 32.158766,21.979434 L 37.068811,17.246167 C 37.068811,17.246167 37.088388,32 37.088388,32 L 22.160133,31.978069 C 22.160133,31.978069 26.997745,27.140456 26.997745,27.140456 C 18.528582,18.264221 13.291696,25.230495 11.500037,31.436501 z"
             style="fill:#404040;"/>
          </a>
         </g>
        </svg>
</svg>
