<?xml version="1.0" encoding="UTF-8" standalone="no"?>
<!DOCTYPE svg PUBLIC "-//W3C//DTD SVG 1.1//EN"
 "http://www.w3.org/Graphics/SVG/1.1/DTD/svg11.dtd">
<!-- Generated by graphviz version 2.43.0 (0)
 -->
<!-- Title: com.cliffc.aa.HM.HM9.T2.union Pages: 1 -->
<svg width="1263pt" height="550pt"
 viewBox="0.00 0.00 1263.00 549.50" xmlns="http://www.w3.org/2000/svg" xmlns:xlink="http://www.w3.org/1999/xlink">
<g id="graph0" class="graph" transform="scale(1 1) rotate(0) translate(4 545.5)">
<title>com.cliffc.aa.HM.HM9.T2.union</title>
<!-- Node1 -->
<g id="node1" class="node">
<title>Node1</title>
<g id="a_node1"><a xlink:title=" ">
<polygon fill="#bfbfbf" stroke="black" points="0,-239.5 0,-258.5 169,-258.5 169,-239.5 0,-239.5"/>
<text text-anchor="middle" x="84.5" y="-246.5" font-family="Helvetica,sans-Serif" font-size="10.00">com.cliffc.aa.HM.HM9.T2.union</text>
</a>
</g>
</g>
<!-- Node2 -->
<g id="node2" class="node">
<title>Node2</title>
<g id="a_node2"><a xlink:href="../../d9/d9a/a00998.html#a2064b725b67a9daae4c665d80b972fed" target="_top" xlink:title=" ">
<polygon fill="none" stroke="black" points="219,-511 219,-541 384,-541 384,-511 219,-511"/>
<text text-anchor="start" x="227" y="-529" font-family="Helvetica,sans-Serif" font-size="10.00">com.cliffc.aa.HM.HM9.T2.base</text>
<text text-anchor="middle" x="301.5" y="-518" font-family="Helvetica,sans-Serif" font-size="10.00">_states</text>
</a>
</g>
</g>
<!-- Node1&#45;&gt;Node2 -->
<g id="edge1" class="edge">
<title>Node1&#45;&gt;Node2</title>
<path fill="none" stroke="midnightblue" d="M87.32,-258.71C94.72,-295.53 126.04,-427.82 205,-496 209.55,-499.93 214.61,-503.34 219.97,-506.31"/>
<polygon fill="midnightblue" stroke="midnightblue" points="218.71,-509.59 229.22,-510.9 221.82,-503.32 218.71,-509.59"/>
</g>
<!-- Node3 -->
<g id="node3" class="node">
<title>Node3</title>
<g id="a_node3"><a xlink:href="../../dd/d55/a01638.html#a3975ba7dca9fe2d6e4992b2b5558f882" target="_top" xlink:title=" ">
<polygon fill="none" stroke="black" points="881,-324.5 881,-343.5 1014,-343.5 1014,-324.5 881,-324.5"/>
<text text-anchor="middle" x="947.5" y="-331.5" font-family="Helvetica,sans-Serif" font-size="10.00">com.cliffc.aa.util.Util.eq</text>
</a>
</g>
</g>
<!-- Node1&#45;&gt;Node3 -->
<g id="edge2" class="edge">
<title>Node1&#45;&gt;Node3</title>
<path fill="none" stroke="midnightblue" d="M87.33,-258.64C94.59,-293.88 125,-416.04 205,-463 327.46,-534.88 776.43,-391.73 909.25,-346.86"/>
<polygon fill="midnightblue" stroke="midnightblue" points="910.63,-350.08 918.98,-343.55 908.38,-343.45 910.63,-350.08"/>
</g>
<!-- Node4 -->
<g id="node4" class="node">
<title>Node4</title>
<g id="a_node4"><a xlink:href="../../d0/de2/a01442.html#ad4b6fe2d948ba739fd3d5e0feac103e6" target="_top" xlink:title=" ">
<polygon fill="none" stroke="black" points="228.5,-434.5 228.5,-453.5 374.5,-453.5 374.5,-434.5 228.5,-434.5"/>
<text text-anchor="middle" x="301.5" y="-441.5" font-family="Helvetica,sans-Serif" font-size="10.00">com.cliffc.aa.type.Type.isa</text>
</a>
</g>
</g>
<!-- Node1&#45;&gt;Node4 -->
<g id="edge3" class="edge">
<title>Node1&#45;&gt;Node4</title>
<path fill="none" stroke="midnightblue" d="M88.93,-258.55C100.25,-288.56 139.43,-381.54 205,-425 209.29,-427.85 213.92,-430.28 218.73,-432.37"/>
<polygon fill="midnightblue" stroke="midnightblue" points="217.6,-435.68 228.19,-435.96 220.09,-429.14 217.6,-435.68"/>
</g>
<!-- Node5 -->
<g id="node5" class="node">
<title>Node5</title>
<g id="a_node5"><a xlink:href="../../d9/d9a/a00998.html#a482b7c5b5e228a07658fc019c28c847d" target="_top" xlink:title=" ">
<polygon fill="none" stroke="black" points="218,-385 218,-415 385,-415 385,-385 218,-385"/>
<text text-anchor="start" x="226" y="-403" font-family="Helvetica,sans-Serif" font-size="10.00">com.cliffc.aa.HM.HM9.T2.meet</text>
<text text-anchor="middle" x="301.5" y="-392" font-family="Helvetica,sans-Serif" font-size="10.00">_alias</text>
</a>
</g>
</g>
<!-- Node1&#45;&gt;Node5 -->
<g id="edge4" class="edge">
<title>Node1&#45;&gt;Node5</title>
<path fill="none" stroke="midnightblue" d="M91.74,-258.61C107.61,-282.27 152.06,-343.7 205,-375 208.65,-377.16 212.49,-379.13 216.44,-380.94"/>
<polygon fill="midnightblue" stroke="midnightblue" points="215.27,-384.24 225.85,-384.86 217.96,-377.78 215.27,-384.24"/>
</g>
<!-- Node7 -->
<g id="node7" class="node">
<title>Node7</title>
<g id="a_node7"><a xlink:href="../../d9/d9a/a00998.html#a9f91b296e9a2bf9087d92f9687bdfd55" target="_top" xlink:title=" ">
<polygon fill="none" stroke="black" points="208.5,-346.5 208.5,-365.5 394.5,-365.5 394.5,-346.5 208.5,-346.5"/>
<text text-anchor="middle" x="301.5" y="-353.5" font-family="Helvetica,sans-Serif" font-size="10.00">com.cliffc.aa.HM.HM9.T2.meet_err</text>
</a>
</g>
</g>
<!-- Node1&#45;&gt;Node7 -->
<g id="edge6" class="edge">
<title>Node1&#45;&gt;Node7</title>
<path fill="none" stroke="midnightblue" d="M95.38,-258.72C114.69,-277.1 159.51,-316.93 205,-337 210.79,-339.55 216.92,-341.77 223.18,-343.68"/>
<polygon fill="midnightblue" stroke="midnightblue" points="222.5,-347.13 233.08,-346.46 224.39,-340.39 222.5,-347.13"/>
</g>
<!-- Node8 -->
<g id="node8" class="node">
<title>Node8</title>
<g id="a_node8"><a xlink:href="../../d9/d9a/a00998.html#af5614f65089afc4ca8bea77a2afc4da8" target="_top" xlink:title=" ">
<polygon fill="none" stroke="black" points="218,-297 218,-327 385,-327 385,-297 218,-297"/>
<text text-anchor="start" x="226" y="-315" font-family="Helvetica,sans-Serif" font-size="10.00">com.cliffc.aa.HM.HM9.T2.meet</text>
<text text-anchor="middle" x="301.5" y="-304" font-family="Helvetica,sans-Serif" font-size="10.00">_fidxs</text>
</a>
</g>
</g>
<!-- Node1&#45;&gt;Node8 -->
<g id="edge7" class="edge">
<title>Node1&#45;&gt;Node8</title>
<path fill="none" stroke="midnightblue" d="M114.35,-258.64C138.47,-266.58 173.84,-277.97 205,-287 213.43,-289.44 222.31,-291.91 231.13,-294.29"/>
<polygon fill="midnightblue" stroke="midnightblue" points="230.45,-297.73 241.02,-296.94 232.26,-290.97 230.45,-297.73"/>
</g>
<!-- Node9 -->
<g id="node9" class="node">
<title>Node9</title>
<g id="a_node9"><a xlink:href="../../d9/d9a/a00998.html#aaca2805903502dc8e18813e07c3b941d" target="_top" xlink:title=" ">
<polygon fill="none" stroke="black" points="205,-258.5 205,-277.5 398,-277.5 398,-258.5 205,-258.5"/>
<text text-anchor="middle" x="301.5" y="-265.5" font-family="Helvetica,sans-Serif" font-size="10.00">com.cliffc.aa.HM.HM9.T2.meet_flow</text>
</a>
</g>
</g>
<!-- Node1&#45;&gt;Node9 -->
<g id="edge9" class="edge">
<title>Node1&#45;&gt;Node9</title>
<path fill="none" stroke="midnightblue" d="M169.24,-256.4C177.63,-257.14 186.22,-257.9 194.8,-258.66"/>
<polygon fill="midnightblue" stroke="midnightblue" points="194.58,-262.15 204.85,-259.55 195.2,-255.18 194.58,-262.15"/>
</g>
<!-- Node11 -->
<g id="node11" class="node">
<title>Node11</title>
<g id="a_node11"><a xlink:href="../../d9/d9a/a00998.html#aecc4f761a68d3fcb42e2ea554603cb3a" target="_top" xlink:title=" ">
<polygon fill="none" stroke="black" points="208,-220.5 208,-239.5 395,-239.5 395,-220.5 208,-220.5"/>
<text text-anchor="middle" x="301.5" y="-227.5" font-family="Helvetica,sans-Serif" font-size="10.00">com.cliffc.aa.HM.HM9.T2.meet_ids</text>
</a>
</g>
</g>
<!-- Node1&#45;&gt;Node11 -->
<g id="edge11" class="edge">
<title>Node1&#45;&gt;Node11</title>
<path fill="none" stroke="midnightblue" d="M169.24,-241.6C178.51,-240.78 188.02,-239.94 197.48,-239.1"/>
<polygon fill="midnightblue" stroke="midnightblue" points="198.07,-242.57 207.72,-238.2 197.45,-235.59 198.07,-242.57"/>
</g>
<!-- Node13 -->
<g id="node13" class="node">
<title>Node13</title>
<g id="a_node13"><a xlink:href="../../d9/d9a/a00998.html#aced0b116efd877b91d8e7c567fce99e6" target="_top" xlink:title=" ">
<polygon fill="none" stroke="black" points="218,-171 218,-201 385,-201 385,-171 218,-171"/>
<text text-anchor="start" x="226" y="-189" font-family="Helvetica,sans-Serif" font-size="10.00">com.cliffc.aa.HM.HM9.T2.meet</text>
<text text-anchor="middle" x="301.5" y="-178" font-family="Helvetica,sans-Serif" font-size="10.00">_opens</text>
</a>
</g>
</g>
<!-- Node1&#45;&gt;Node13 -->
<g id="edge13" class="edge">
<title>Node1&#45;&gt;Node13</title>
<path fill="none" stroke="midnightblue" d="M114.35,-239.36C138.47,-231.42 173.84,-220.03 205,-211 213.43,-208.56 222.31,-206.09 231.13,-203.71"/>
<polygon fill="midnightblue" stroke="midnightblue" points="232.26,-207.03 241.02,-201.06 230.45,-200.27 232.26,-207.03"/>
</g>
<!-- Node16 -->
<g id="node16" class="node">
<title>Node16</title>
<g id="a_node16"><a xlink:href="../../d9/d9a/a00998.html#a169dfbbe7e0413caed9c990bfb7c19ad" target="_top" xlink:title=" ">
<polygon fill="none" stroke="black" points="1083.5,-132.5 1083.5,-151.5 1252.5,-151.5 1252.5,-132.5 1083.5,-132.5"/>
<text text-anchor="middle" x="1168" y="-139.5" font-family="Helvetica,sans-Serif" font-size="10.00">com.cliffc.aa.HM.HM9.T2.no_uf</text>
</a>
</g>
</g>
<!-- Node1&#45;&gt;Node16 -->
<g id="edge17" class="edge">
<title>Node1&#45;&gt;Node16</title>
<path fill="none" stroke="midnightblue" d="M94.6,-239.42C113.23,-220.56 157.92,-178.96 205,-162 339.91,-113.42 383.61,-142 527,-142 527,-142 527,-142 737,-142 852.79,-142 986.13,-142 1073.23,-142"/>
<polygon fill="midnightblue" stroke="midnightblue" points="1073.36,-145.5 1083.36,-142 1073.36,-138.5 1073.36,-145.5"/>
</g>
<!-- Node17 -->
<g id="node17" class="node">
<title>Node17</title>
<g id="a_node17"><a xlink:href="../../d9/d9a/a00998.html#a00050309a99c857d6b765471f3912b09" target="_top" xlink:title=" ">
<polygon fill="none" stroke="black" points="227.5,-76.5 227.5,-95.5 375.5,-95.5 375.5,-76.5 227.5,-76.5"/>
<text text-anchor="middle" x="301.5" y="-83.5" font-family="Helvetica,sans-Serif" font-size="10.00">com.cliffc.aa.HM.HM9.T2.p</text>
</a>
</g>
</g>
<!-- Node1&#45;&gt;Node17 -->
<g id="edge18" class="edge">
<title>Node1&#45;&gt;Node17</title>
<path fill="none" stroke="midnightblue" d="M92.91,-239.3C110.33,-217.05 156.12,-161.65 205,-128 222.37,-116.04 243.7,-106.27 261.79,-99.17"/>
<polygon fill="midnightblue" stroke="midnightblue" points="263.35,-102.33 271.46,-95.51 260.87,-95.78 263.35,-102.33"/>
</g>
<!-- Node23 -->
<g id="node23" class="node">
<title>Node23</title>
<g id="a_node23"><a xlink:href="../../d9/d9a/a00998.html#a8a0561ebab42d023d597f78cffafa828" target="_top" xlink:title=" ">
<polygon fill="none" stroke="black" points="207.5,-38.5 207.5,-57.5 395.5,-57.5 395.5,-38.5 207.5,-38.5"/>
<text text-anchor="middle" x="301.5" y="-45.5" font-family="Helvetica,sans-Serif" font-size="10.00">com.cliffc.aa.HM.HM9.T2.union_err</text>
</a>
</g>
</g>
<!-- Node1&#45;&gt;Node23 -->
<g id="edge26" class="edge">
<title>Node1&#45;&gt;Node23</title>
<path fill="none" stroke="midnightblue" d="M87.71,-239.13C96.64,-207.68 132.75,-112.53 198.91,-62.49"/>
<polygon fill="midnightblue" stroke="midnightblue" points="201.03,-65.28 207.13,-56.62 196.96,-59.58 201.03,-65.28"/>
</g>
<!-- Node26 -->
<g id="node26" class="node">
<title>Node26</title>
<g id="a_node26"><a xlink:href="../../d0/de2/a01442.html#a15968efc921b38c6710053767a1e35dc" target="_top" xlink:title=" ">
<polygon fill="none" stroke="black" points="221,-0.5 221,-19.5 382,-19.5 382,-0.5 221,-0.5"/>
<text text-anchor="middle" x="301.5" y="-7.5" font-family="Helvetica,sans-Serif" font-size="10.00">com.cliffc.aa.type.Type.widen</text>
</a>
</g>
</g>
<!-- Node1&#45;&gt;Node26 -->
<g id="edge30" class="edge">
<title>Node1&#45;&gt;Node26</title>
<path fill="none" stroke="midnightblue" d="M87.69,-239.13C96,-204.12 129.05,-84.93 205,-29 207.51,-27.15 210.14,-25.48 212.88,-23.95"/>
<polygon fill="midnightblue" stroke="midnightblue" points="214.46,-27.08 221.94,-19.58 211.41,-20.78 214.46,-27.08"/>
</g>
<!-- Node6 -->
<g id="node6" class="node">
<title>Node6</title>
<g id="a_node6"><a xlink:href="../../d4/d3c/a01418.html#adf13a2e038fefa42a481fc7417d31a4b" target="_top" xlink:title=" ">
<polygon fill="none" stroke="black" points="451,-346.5 451,-365.5 605,-365.5 605,-346.5 451,-346.5"/>
<text text-anchor="middle" x="528" y="-353.5" font-family="Helvetica,sans-Serif" font-size="10.00">com.cliffc.aa.type.Bits.meet</text>
</a>
</g>
</g>
<!-- Node5&#45;&gt;Node6 -->
<g id="edge5" class="edge">
<title>Node5&#45;&gt;Node6</title>
<path fill="none" stroke="midnightblue" d="M379.13,-384.98C408.3,-379.26 441.06,-372.84 468.31,-367.5"/>
<polygon fill="midnightblue" stroke="midnightblue" points="469.32,-370.87 478.47,-365.51 467.98,-364 469.32,-370.87"/>
</g>
<!-- Node8&#45;&gt;Node6 -->
<g id="edge8" class="edge">
<title>Node8&#45;&gt;Node6</title>
<path fill="none" stroke="midnightblue" d="M379.13,-327.02C408.3,-332.74 441.06,-339.16 468.31,-344.5"/>
<polygon fill="midnightblue" stroke="midnightblue" points="467.98,-348 478.47,-346.49 469.32,-341.13 467.98,-348"/>
</g>
<!-- Node10 -->
<g id="node10" class="node">
<title>Node10</title>
<g id="a_node10"><a xlink:href="../../d0/de2/a01442.html#a086b90d9d651ac00b80a9b5caa60eb09" target="_top" xlink:title=" ">
<polygon fill="none" stroke="black" points="449,-258.5 449,-277.5 607,-277.5 607,-258.5 449,-258.5"/>
<text text-anchor="middle" x="528" y="-265.5" font-family="Helvetica,sans-Serif" font-size="10.00">com.cliffc.aa.type.Type.meet</text>
</a>
</g>
</g>
<!-- Node9&#45;&gt;Node10 -->
<g id="edge10" class="edge">
<title>Node9&#45;&gt;Node10</title>
<path fill="none" stroke="midnightblue" d="M398.03,-268C411.54,-268 425.37,-268 438.73,-268"/>
<polygon fill="midnightblue" stroke="midnightblue" points="438.84,-271.5 448.84,-268 438.84,-264.5 438.84,-271.5"/>
</g>
<!-- Node12 -->
<g id="node12" class="node">
<title>Node12</title>
<g id="a_node12"><a xlink:href="../../dd/d55/a01638.html#abb7b6e1b78b0932ca33088581f5f45c8" target="_top" xlink:title=" ">
<polygon fill="none" stroke="black" points="458.5,-220.5 458.5,-239.5 597.5,-239.5 597.5,-220.5 458.5,-220.5"/>
<text text-anchor="middle" x="528" y="-227.5" font-family="Helvetica,sans-Serif" font-size="10.00">com.cliffc.aa.util.Util.find</text>
</a>
</g>
</g>
<!-- Node11&#45;&gt;Node12 -->
<g id="edge12" class="edge">
<title>Node11&#45;&gt;Node12</title>
<path fill="none" stroke="midnightblue" d="M395.11,-230C412.61,-230 430.77,-230 447.82,-230"/>
<polygon fill="midnightblue" stroke="midnightblue" points="448.27,-233.5 458.27,-230 448.27,-226.5 448.27,-233.5"/>
</g>
<!-- Node14 -->
<g id="node14" class="node">
<title>Node14</title>
<g id="a_node14"><a xlink:href="../../d9/d9a/a00998.html#a5cae5b672f36d5264455696443a380c8" target="_top" xlink:title=" ">
<polygon fill="none" stroke="black" points="453,-171 453,-201 603,-201 603,-171 453,-171"/>
<text text-anchor="start" x="461" y="-189" font-family="Helvetica,sans-Serif" font-size="10.00">com.cliffc.aa.HM.HM9.T2.is</text>
<text text-anchor="middle" x="528" y="-178" font-family="Helvetica,sans-Serif" font-size="10.00">_struct</text>
</a>
</g>
</g>
<!-- Node13&#45;&gt;Node14 -->
<g id="edge14" class="edge">
<title>Node13&#45;&gt;Node14</title>
<path fill="none" stroke="midnightblue" d="M385.14,-186C403.9,-186 423.84,-186 442.67,-186"/>
<polygon fill="midnightblue" stroke="midnightblue" points="442.7,-189.5 452.7,-186 442.7,-182.5 442.7,-189.5"/>
</g>
<!-- Node15 -->
<g id="node15" class="node">
<title>Node15</title>
<g id="a_node15"><a xlink:href="../../d9/d9a/a00998.html#af9561ee32e4e780049740c4e968e6965" target="_top" xlink:title=" ">
<polygon fill="none" stroke="black" points="658,-305.5 658,-324.5 814,-324.5 814,-305.5 658,-305.5"/>
<text text-anchor="middle" x="736" y="-312.5" font-family="Helvetica,sans-Serif" font-size="10.00">com.cliffc.aa.HM.HM9.T2.isa</text>
</a>
</g>
</g>
<!-- Node14&#45;&gt;Node15 -->
<g id="edge15" class="edge">
<title>Node14&#45;&gt;Node15</title>
<path fill="none" stroke="midnightblue" d="M599.49,-201.03C607.31,-203.83 614.97,-207.13 622,-211 663.01,-233.58 700.92,-274.1 720.69,-297.34"/>
<polygon fill="midnightblue" stroke="midnightblue" points="718.26,-299.89 727.35,-305.32 723.63,-295.4 718.26,-299.89"/>
</g>
<!-- Node15&#45;&gt;Node3 -->
<g id="edge16" class="edge">
<title>Node15&#45;&gt;Node3</title>
<path fill="none" stroke="midnightblue" d="M814.12,-321.99C832.62,-323.67 852.37,-325.46 870.81,-327.14"/>
<polygon fill="midnightblue" stroke="midnightblue" points="870.63,-330.63 880.91,-328.05 871.26,-323.66 870.63,-330.63"/>
</g>
<!-- Node17&#45;&gt;Node17 -->
<g id="edge25" class="edge">
<title>Node17&#45;&gt;Node17</title>
<path fill="none" stroke="midnightblue" d="M268.48,-95.61C251.89,-104.46 262.9,-114 301.5,-114 329.85,-114 343.31,-108.86 341.9,-102.62"/>
<polygon fill="midnightblue" stroke="midnightblue" points="344.18,-99.96 334.52,-95.61 339.36,-105.04 344.18,-99.96"/>
</g>
<!-- Node18 -->
<g id="node18" class="node">
<title>Node18</title>
<g id="a_node18"><a xlink:href="../../d9/d9a/a00998.html#a3de42a52e16b45745dad76bdfb00023a" target="_top" xlink:title=" ">
<polygon fill="none" stroke="black" points="435,-77.5 435,-96.5 621,-96.5 621,-77.5 435,-77.5"/>
<text text-anchor="middle" x="528" y="-84.5" font-family="Helvetica,sans-Serif" font-size="10.00">com.cliffc.aa.HM.HM9.T2.get_dups</text>
</a>
</g>
</g>
<!-- Node17&#45;&gt;Node18 -->
<g id="edge19" class="edge">
<title>Node17&#45;&gt;Node18</title>
<path fill="none" stroke="midnightblue" d="M375.7,-86.33C391.28,-86.4 408,-86.47 424.44,-86.54"/>
<polygon fill="midnightblue" stroke="midnightblue" points="424.62,-90.04 434.63,-86.59 424.65,-83.04 424.62,-90.04"/>
</g>
<!-- Node19 -->
<g id="node19" class="node">
<title>Node19</title>
<g id="a_node19"><a xlink:href="../../d9/d9a/a00998.html#a9ffcec39b7222ce6fff1de9dae178446" target="_top" xlink:title=" ">
<polygon fill="none" stroke="black" points="665,-73 665,-103 807,-103 807,-73 665,-73"/>
<text text-anchor="start" x="673" y="-91" font-family="Helvetica,sans-Serif" font-size="10.00">com.cliffc.aa.HM.HM9.T2.</text>
<text text-anchor="middle" x="736" y="-80" font-family="Helvetica,sans-Serif" font-size="10.00">_get_dups</text>
</a>
</g>
</g>
<!-- Node18&#45;&gt;Node19 -->
<g id="edge20" class="edge">
<title>Node18&#45;&gt;Node19</title>
<path fill="none" stroke="midnightblue" d="M621.15,-87.45C632.39,-87.5 643.8,-87.56 654.84,-87.61"/>
<polygon fill="midnightblue" stroke="midnightblue" points="654.85,-91.11 664.86,-87.66 654.88,-84.11 654.85,-91.11"/>
</g>
<!-- Node20 -->
<g id="node20" class="node">
<title>Node20</title>
<g id="a_node20"><a xlink:href="../../d9/d9a/a00998.html#a54c20c24590ba86eeee97ff28589fe27" target="_top" xlink:title=" ">
<polygon fill="none" stroke="black" points="850,-94.5 850,-113.5 1045,-113.5 1045,-94.5 850,-94.5"/>
<text text-anchor="middle" x="947.5" y="-101.5" font-family="Helvetica,sans-Serif" font-size="10.00">com.cliffc.aa.HM.HM9.T2.debug_find</text>
</a>
</g>
</g>
<!-- Node19&#45;&gt;Node20 -->
<g id="edge21" class="edge">
<title>Node19&#45;&gt;Node20</title>
<path fill="none" stroke="midnightblue" d="M807.05,-93.35C817.53,-94.15 828.52,-94.99 839.55,-95.83"/>
<polygon fill="midnightblue" stroke="midnightblue" points="839.43,-99.33 849.67,-96.6 839.97,-92.35 839.43,-99.33"/>
</g>
<!-- Node22 -->
<g id="node22" class="node">
<title>Node22</title>
<g id="a_node22"><a xlink:href="../../df/dee/a01646.html#a88ad20daf92e92fe0e3925b23c4fecf0" target="_top" xlink:title=" ">
<polygon fill="none" stroke="black" points="868.5,-56.5 868.5,-75.5 1026.5,-75.5 1026.5,-56.5 868.5,-56.5"/>
<text text-anchor="middle" x="947.5" y="-63.5" font-family="Helvetica,sans-Serif" font-size="10.00">com.cliffc.aa.util.VBitSet.tset</text>
</a>
</g>
</g>
<!-- Node19&#45;&gt;Node22 -->
<g id="edge24" class="edge">
<title>Node19&#45;&gt;Node22</title>
<path fill="none" stroke="midnightblue" d="M807.05,-80.64C823.46,-78.92 841.15,-77.06 858.23,-75.27"/>
<polygon fill="midnightblue" stroke="midnightblue" points="858.63,-78.75 868.21,-74.22 857.9,-71.78 858.63,-78.75"/>
</g>
<!-- Node20&#45;&gt;Node16 -->
<g id="edge23" class="edge">
<title>Node20&#45;&gt;Node16</title>
<path fill="none" stroke="midnightblue" d="M1003.35,-113.54C1033.35,-118.76 1070.7,-125.25 1102.14,-130.72"/>
<polygon fill="midnightblue" stroke="midnightblue" points="1101.67,-134.19 1112.12,-132.46 1102.87,-127.29 1101.67,-134.19"/>
</g>
<!-- Node21 -->
<g id="node21" class="node">
<title>Node21</title>
<g id="a_node21"><a xlink:href="../../d9/d9a/a00998.html#ad75595c704109c7f0c8e4f6e9dbc35bc" target="_top" xlink:title=" ">
<polygon fill="none" stroke="black" points="1081,-94.5 1081,-113.5 1255,-113.5 1255,-94.5 1081,-94.5"/>
<text text-anchor="middle" x="1168" y="-101.5" font-family="Helvetica,sans-Serif" font-size="10.00">com.cliffc.aa.HM.HM9.T2.is_leaf</text>
</a>
</g>
</g>
<!-- Node20&#45;&gt;Node21 -->
<g id="edge22" class="edge">
<title>Node20&#45;&gt;Node21</title>
<path fill="none" stroke="midnightblue" d="M1045.29,-104C1053.73,-104 1062.27,-104 1070.71,-104"/>
<polygon fill="midnightblue" stroke="midnightblue" points="1070.93,-107.5 1080.93,-104 1070.93,-100.5 1070.93,-107.5"/>
</g>
<!-- Node23&#45;&gt;Node1 -->
<g id="edge29" class="edge">
<title>Node23&#45;&gt;Node1</title>
<path fill="none" stroke="midnightblue" d="M258.27,-57.55C240.58,-60.55 220.56,-65.51 205,-76 146.8,-115.23 110.16,-193.29 94.42,-229.79"/>
<polygon fill="midnightblue" stroke="midnightblue" points="91.07,-228.73 90.37,-239.3 97.51,-231.47 91.07,-228.73"/>
</g>
<!-- Node24 -->
<g id="node24" class="node">
<title>Node24</title>
<g id="a_node24"><a xlink:href="../../d9/d9a/a00998.html#ae23ca4ff475440fd3c22f34d6bc287d6" target="_top" xlink:title=" ">
<polygon fill="none" stroke="black" points="434,-36.5 434,-55.5 622,-55.5 622,-36.5 434,-36.5"/>
<text text-anchor="middle" x="528" y="-43.5" font-family="Helvetica,sans-Serif" font-size="10.00">com.cliffc.aa.HM.HM9.T2.make_err</text>
</a>
</g>
</g>
<!-- Node23&#45;&gt;Node24 -->
<g id="edge27" class="edge">
<title>Node23&#45;&gt;Node24</title>
<path fill="none" stroke="midnightblue" d="M395.76,-47.17C404.96,-47.09 414.34,-47 423.63,-46.92"/>
<polygon fill="midnightblue" stroke="midnightblue" points="423.7,-50.42 433.67,-46.83 423.64,-43.42 423.7,-50.42"/>
</g>
<!-- Node25 -->
<g id="node25" class="node">
<title>Node25</title>
<g id="a_node25"><a xlink:href="../../d9/d9a/a00998.html#a3ea532ff7c81aea6faf0793d5161b250" target="_top" xlink:title=" ">
<polygon fill="none" stroke="black" points="659,-34.5 659,-53.5 813,-53.5 813,-34.5 659,-34.5"/>
<text text-anchor="middle" x="736" y="-41.5" font-family="Helvetica,sans-Serif" font-size="10.00">com.cliffc.aa.HM.HM9.T2.T2</text>
</a>
</g>
</g>
<!-- Node24&#45;&gt;Node25 -->
<g id="edge28" class="edge">
<title>Node24&#45;&gt;Node25</title>
<path fill="none" stroke="midnightblue" d="M622.06,-45.1C630.87,-45.01 639.78,-44.92 648.53,-44.84"/>
<polygon fill="midnightblue" stroke="midnightblue" points="648.74,-48.34 658.71,-44.74 648.67,-41.34 648.74,-48.34"/>
</g>
</g>
</svg>
