<?xml version="1.0" encoding="UTF-8" standalone="no"?>
<!DOCTYPE svg PUBLIC "-//W3C//DTD SVG 1.1//EN"
 "http://www.w3.org/Graphics/SVG/1.1/DTD/svg11.dtd">
<!-- Generated by graphviz version 2.43.0 (0)
 -->
<!-- Title: com.cliffc.aa.HM.HM9.T2.add_deps_work_impl Pages: 1 -->
<!--zoomable 142 -->
<svg id="main" version="1.1" xmlns="http://www.w3.org/2000/svg" xmlns:xlink="http://www.w3.org/1999/xlink" xml:space="preserve" onload="init(evt)">
<style type="text/css"><![CDATA[
.edge:hover path { stroke: red; }
.edge:hover polygon { stroke: red; fill: red; }
]]></style>
<script type="text/javascript"><![CDATA[
var edges = document.getElementsByTagName('g');
if (edges && edges.length) {
  for (var i=0;i<edges.length;i++) {
    if (edges[i].id.substr(0,4)=='edge') {
      edges[i].setAttribute('class','edge');
    }
  }
}
]]></script>
        <defs>
                <circle id="rim" cx="0" cy="0" r="7"/>
                <circle id="rim2" cx="0" cy="0" r="3.5"/>
                <g id="zoomPlus">
                        <use xlink:href="#rim" fill="#404040">
                                <set attributeName="fill" to="#808080" begin="zoomplus.mouseover" end="zoomplus.mouseout"/>
                        </use>
                        <path d="M-4,0h8M0,-4v8" fill="none" stroke="white" stroke-width="1.5" pointer-events="none"/>
                </g>
                <g id="zoomMin">
                        <use xlink:href="#rim" fill="#404040">
                                <set attributeName="fill" to="#808080" begin="zoomminus.mouseover" end="zoomminus.mouseout"/>
                        </use>
                        <path d="M-4,0h8" fill="none" stroke="white" stroke-width="1.5" pointer-events="none"/>
                </g>
                <g id="dirArrow">
                        <path fill="none" stroke="white" stroke-width="1.5" d="M0,-3.0v7 M-2.5,-0.5L0,-3.0L2.5,-0.5"/>
                </g>
               <g id="resetDef">
                       <use xlink:href="#rim2" fill="#404040">
                               <set attributeName="fill" to="#808080" begin="reset.mouseover" end="reset.mouseout"/>
                       </use>
               </g>
        </defs>

<script type="text/javascript">
var viewWidth = 1074;
var viewHeight = 142;
var sectionId = 'dynsection-30';
</script>
<script xlink:href="../../svgpan.js"/>
<svg id="graph" class="graph">
<g id="viewport">
<title>com.cliffc.aa.HM.HM9.T2.add_deps_work_impl</title>
<!-- Node1 -->
<g id="node1" class="node">
<title>Node1</title>
<g id="a_node1"><a xlink:title=" ">
<polygon fill="#bfbfbf" stroke="black" points="0,-52 0,-82 160,-82 160,-52 0,-52"/>
<text text-anchor="start" x="8" y="-70" font-family="Helvetica,sans-Serif" font-size="10.00">com.cliffc.aa.HM.HM9.T2.add</text>
<text text-anchor="middle" x="80" y="-59" font-family="Helvetica,sans-Serif" font-size="10.00">_deps_work_impl</text>
</a>
</g>
</g>
<!-- Node1&#45;&gt;Node1 -->
<g id="edge1" class="edge">
<title>Node1&#45;&gt;Node1</title>
<path fill="none" stroke="midnightblue" d="M42.36,-82.16C33.28,-91.56 45.83,-100.5 80,-100.5 100.82,-100.5 113.62,-97.18 118.38,-92.46"/>
<polygon fill="midnightblue" stroke="midnightblue" points="121.85,-91.88 117.64,-82.16 114.87,-92.38 121.85,-91.88"/>
</g>
<!-- Node2 -->
<g id="node2" class="node">
<title>Node2</title>
<g id="a_node2"><a xlink:href="../../dc/dfa/a00894.html#aadca0c329de0b2550f7835f25bc89774" target="_top" xlink:title=" ">
<polygon fill="none" stroke="black" points="196,-114.5 196,-133.5 396,-133.5 396,-114.5 196,-114.5"/>
<text text-anchor="middle" x="296" y="-121.5" font-family="Helvetica,sans-Serif" font-size="10.00">com.cliffc.aa.HM.HM9.Worklist.addAll</text>
</a>
</g>
</g>
<!-- Node1&#45;&gt;Node2 -->
<g id="edge2" class="edge">
<title>Node1&#45;&gt;Node2</title>
<path fill="none" stroke="midnightblue" d="M122.13,-82.03C143.89,-89.61 171.17,-98.54 196,-105 206.44,-107.71 217.59,-110.22 228.51,-112.47"/>
<polygon fill="midnightblue" stroke="midnightblue" points="227.94,-115.92 238.44,-114.45 229.32,-109.06 227.94,-115.92"/>
</g>
<!-- Node4 -->
<g id="node4" class="node">
<title>Node4</title>
<g id="a_node4"><a xlink:href="../../d9/d9a/a00998.html#a32ab71f4fb099cea784a17455dc2a647" target="_top" xlink:title=" ">
<polygon fill="none" stroke="black" points="214.5,-76.5 214.5,-95.5 377.5,-95.5 377.5,-76.5 214.5,-76.5"/>
<text text-anchor="middle" x="296" y="-83.5" font-family="Helvetica,sans-Serif" font-size="10.00">com.cliffc.aa.HM.HM9.T2.args</text>
</a>
</g>
</g>
<!-- Node1&#45;&gt;Node4 -->
<g id="edge4" class="edge">
<title>Node1&#45;&gt;Node4</title>
<path fill="none" stroke="midnightblue" d="M160.08,-74.02C174.49,-75.3 189.63,-76.64 204.35,-77.95"/>
<polygon fill="midnightblue" stroke="midnightblue" points="204.19,-81.45 214.46,-78.85 204.81,-74.48 204.19,-81.45"/>
</g>
<!-- Node7 -->
<g id="node7" class="node">
<title>Node7</title>
<g id="a_node7"><a xlink:href="../../d9/d9a/a00998.html#ad75595c704109c7f0c8e4f6e9dbc35bc" target="_top" xlink:title=" ">
<polygon fill="none" stroke="black" points="892,-76.5 892,-95.5 1066,-95.5 1066,-76.5 892,-76.5"/>
<text text-anchor="middle" x="979" y="-83.5" font-family="Helvetica,sans-Serif" font-size="10.00">com.cliffc.aa.HM.HM9.T2.is_leaf</text>
</a>
</g>
</g>
<!-- Node1&#45;&gt;Node7 -->
<g id="edge10" class="edge">
<title>Node1&#45;&gt;Node7</title>
<path fill="none" stroke="midnightblue" d="M160.3,-65.67C266.24,-64.19 459.78,-62.56 625,-67 711.84,-69.34 810.56,-74.9 881.48,-79.4"/>
<polygon fill="midnightblue" stroke="midnightblue" points="881.53,-82.91 891.73,-80.06 881.98,-75.93 881.53,-82.91"/>
</g>
<!-- Node9 -->
<g id="node9" class="node">
<title>Node9</title>
<g id="a_node9"><a xlink:href="../../df/dee/a01646.html#a88ad20daf92e92fe0e3925b23c4fecf0" target="_top" xlink:title=" ">
<polygon fill="none" stroke="black" points="217,-0.5 217,-19.5 375,-19.5 375,-0.5 217,-0.5"/>
<text text-anchor="middle" x="296" y="-7.5" font-family="Helvetica,sans-Serif" font-size="10.00">com.cliffc.aa.util.VBitSet.tset</text>
</a>
</g>
</g>
<!-- Node1&#45;&gt;Node9 -->
<g id="edge11" class="edge">
<title>Node1&#45;&gt;Node9</title>
<path fill="none" stroke="midnightblue" d="M131.82,-51.92C151.78,-46.13 174.92,-39.58 196,-34 211.57,-29.88 228.59,-25.66 244.05,-21.92"/>
<polygon fill="midnightblue" stroke="midnightblue" points="245.05,-25.28 253.96,-19.54 243.42,-18.47 245.05,-25.28"/>
</g>
<!-- Node3 -->
<g id="node3" class="node">
<title>Node3</title>
<g id="a_node3"><a xlink:href="../../dc/dfa/a00894.html#aa3290b330eee25c8c1cc4b68ad91d643" target="_top" xlink:title=" ">
<polygon fill="none" stroke="black" points="432,-114.5 432,-133.5 625,-133.5 625,-114.5 432,-114.5"/>
<text text-anchor="middle" x="528.5" y="-121.5" font-family="Helvetica,sans-Serif" font-size="10.00">com.cliffc.aa.HM.HM9.Worklist.push</text>
</a>
</g>
</g>
<!-- Node2&#45;&gt;Node3 -->
<g id="edge3" class="edge">
<title>Node2&#45;&gt;Node3</title>
<path fill="none" stroke="midnightblue" d="M396.09,-124C404.6,-124 413.22,-124 421.78,-124"/>
<polygon fill="midnightblue" stroke="midnightblue" points="421.78,-127.5 431.78,-124 421.78,-120.5 421.78,-127.5"/>
</g>
<!-- Node5 -->
<g id="node5" class="node">
<title>Node5</title>
<g id="a_node5"><a xlink:href="../../d9/d9a/a00998.html#a7ea29d41da89e8425de2d5fc41827d0d" target="_top" xlink:title=" ">
<polygon fill="none" stroke="black" points="448.5,-76.5 448.5,-95.5 608.5,-95.5 608.5,-76.5 448.5,-76.5"/>
<text text-anchor="middle" x="528.5" y="-83.5" font-family="Helvetica,sans-Serif" font-size="10.00">com.cliffc.aa.HM.HM9.T2.find</text>
</a>
</g>
</g>
<!-- Node4&#45;&gt;Node5 -->
<g id="edge5" class="edge">
<title>Node4&#45;&gt;Node5</title>
<path fill="none" stroke="midnightblue" d="M377.62,-86C397.28,-86 418.41,-86 438.44,-86"/>
<polygon fill="midnightblue" stroke="midnightblue" points="438.48,-89.5 448.48,-86 438.48,-82.5 438.48,-89.5"/>
</g>
<!-- Node6 -->
<g id="node6" class="node">
<title>Node6</title>
<g id="a_node6"><a xlink:href="../../d9/d9a/a00998.html#a54c20c24590ba86eeee97ff28589fe27" target="_top" xlink:title=" ">
<polygon fill="none" stroke="black" points="661,-114.5 661,-133.5 856,-133.5 856,-114.5 661,-114.5"/>
<text text-anchor="middle" x="758.5" y="-121.5" font-family="Helvetica,sans-Serif" font-size="10.00">com.cliffc.aa.HM.HM9.T2.debug_find</text>
</a>
</g>
</g>
<!-- Node5&#45;&gt;Node6 -->
<g id="edge6" class="edge">
<title>Node5&#45;&gt;Node6</title>
<path fill="none" stroke="midnightblue" d="M586.74,-95.54C618.18,-100.78 657.35,-107.31 690.25,-112.79"/>
<polygon fill="midnightblue" stroke="midnightblue" points="689.8,-116.26 700.24,-114.46 690.95,-109.36 689.8,-116.26"/>
</g>
<!-- Node5&#45;&gt;Node7 -->
<g id="edge9" class="edge">
<title>Node5&#45;&gt;Node7</title>
<path fill="none" stroke="midnightblue" d="M608.65,-86C684.86,-86 800.24,-86 881.73,-86"/>
<polygon fill="midnightblue" stroke="midnightblue" points="882,-89.5 892,-86 882,-82.5 882,-89.5"/>
</g>
<!-- Node6&#45;&gt;Node7 -->
<g id="edge7" class="edge">
<title>Node6&#45;&gt;Node7</title>
<path fill="none" stroke="midnightblue" d="M814.35,-114.46C844.35,-109.24 881.7,-102.75 913.14,-97.28"/>
<polygon fill="midnightblue" stroke="midnightblue" points="913.87,-100.71 923.12,-95.54 912.67,-93.81 913.87,-100.71"/>
</g>
<!-- Node8 -->
<g id="node8" class="node">
<title>Node8</title>
<g id="a_node8"><a xlink:href="../../d9/d9a/a00998.html#a169dfbbe7e0413caed9c990bfb7c19ad" target="_top" xlink:title=" ">
<polygon fill="none" stroke="black" points="894.5,-114.5 894.5,-133.5 1063.5,-133.5 1063.5,-114.5 894.5,-114.5"/>
<text text-anchor="middle" x="979" y="-121.5" font-family="Helvetica,sans-Serif" font-size="10.00">com.cliffc.aa.HM.HM9.T2.no_uf</text>
</a>
</g>
</g>
<!-- Node6&#45;&gt;Node8 -->
<g id="edge8" class="edge">
<title>Node6&#45;&gt;Node8</title>
<path fill="none" stroke="midnightblue" d="M856.29,-124C865.5,-124 874.82,-124 884,-124"/>
<polygon fill="midnightblue" stroke="midnightblue" points="884.29,-127.5 894.29,-124 884.29,-120.5 884.29,-127.5"/>
</g>
</g>
</svg>
        <g id="navigator" transform="translate(0 0)" fill="#404254">
                <rect fill="#f2f5e9" fill-opacity="0.5" stroke="#606060" stroke-width=".5" x="0" y="0" width="60" height="60"/>
                <use id="zoomplus" xlink:href="#zoomPlus" x="17" y="9" onmousedown="handleZoom(evt,'in')"/>
                <use id="zoomminus" xlink:href="#zoomMin" x="42" y="9" onmousedown="handleZoom(evt,'out')"/>
                <use id="reset" xlink:href="#resetDef" x="30" y="36" onmousedown="handleReset()"/>
                <g id="arrowUp" xlink:href="#dirArrow" transform="translate(30 24)" onmousedown="handlePan(0,-1)">
                  <use xlink:href="#rim" fill="#404040">
                        <set attributeName="fill" to="#808080" begin="arrowUp.mouseover" end="arrowUp.mouseout"/>
                  </use>
                  <path fill="none" stroke="white" stroke-width="1.5" d="M0,-3.0v7 M-2.5,-0.5L0,-3.0L2.5,-0.5"/>
                </g>
                <g id="arrowRight" xlink:href="#dirArrow" transform="rotate(90) translate(36 -43)" onmousedown="handlePan(1,0)">
                  <use xlink:href="#rim" fill="#404040">
                        <set attributeName="fill" to="#808080" begin="arrowRight.mouseover" end="arrowRight.mouseout"/>
                  </use>
                  <path fill="none" stroke="white" stroke-width="1.5" d="M0,-3.0v7 M-2.5,-0.5L0,-3.0L2.5,-0.5"/>
                </g>
                <g id="arrowDown" xlink:href="#dirArrow" transform="rotate(180) translate(-30 -48)" onmousedown="handlePan(0,1)">
                  <use xlink:href="#rim" fill="#404040">
                        <set attributeName="fill" to="#808080" begin="arrowDown.mouseover" end="arrowDown.mouseout"/>
                  </use>
                  <path fill="none" stroke="white" stroke-width="1.5" d="M0,-3.0v7 M-2.5,-0.5L0,-3.0L2.5,-0.5"/>
                </g>
                <g id="arrowLeft" xlink:href="#dirArrow" transform="rotate(270) translate(-36 17)" onmousedown="handlePan(-1,0)">
                  <use xlink:href="#rim" fill="#404040">
                        <set attributeName="fill" to="#808080" begin="arrowLeft.mouseover" end="arrowLeft.mouseout"/>
                  </use>
                  <path fill="none" stroke="white" stroke-width="1.5" d="M0,-3.0v7 M-2.5,-0.5L0,-3.0L2.5,-0.5"/>
                </g>
        </g>
        <svg viewBox="0 0 15 15" width="100%" height="30px" preserveAspectRatio="xMaxYMin meet">
         <g id="arrow_out" transform="scale(0.3 0.3)">
          <a xlink:href="a00998_aa4478658e21b8df4429220058f40d3bf_cgraph_org.svg" target="_base">
           <rect id="button" ry="5" rx="5" y="6" x="6" height="38" width="38"
                fill="#f2f5e9" fill-opacity="0.5" stroke="#606060" stroke-width="1.0"/>
           <path id="arrow"
             d="M 11.500037,31.436501 C 11.940474,20.09759 22.043105,11.32322 32.158766,21.979434 L 37.068811,17.246167 C 37.068811,17.246167 37.088388,32 37.088388,32 L 22.160133,31.978069 C 22.160133,31.978069 26.997745,27.140456 26.997745,27.140456 C 18.528582,18.264221 13.291696,25.230495 11.500037,31.436501 z"
             style="fill:#404040;"/>
          </a>
         </g>
        </svg>
</svg>
