<?xml version="1.0" encoding="UTF-8" standalone="no"?>
<!DOCTYPE svg PUBLIC "-//W3C//DTD SVG 1.1//EN"
 "http://www.w3.org/Graphics/SVG/1.1/DTD/svg11.dtd">
<!-- Generated by graphviz version 2.43.0 (0)
 -->
<!-- Title: com.cliffc.aa.HM.HM9.T2.make_fun Pages: 1 -->
<svg width="1034pt" height="85pt"
 viewBox="0.00 0.00 1034.00 85.00" xmlns="http://www.w3.org/2000/svg" xmlns:xlink="http://www.w3.org/1999/xlink">
<g id="graph0" class="graph" transform="scale(1 1) rotate(0) translate(4 81)">
<title>com.cliffc.aa.HM.HM9.T2.make_fun</title>
<!-- Node1 -->
<g id="node1" class="node">
<title>Node1</title>
<g id="a_node1"><a xlink:title=" ">
<polygon fill="#bfbfbf" stroke="black" points="0,-19.5 0,-38.5 190,-38.5 190,-19.5 0,-19.5"/>
<text text-anchor="middle" x="95" y="-26.5" font-family="Helvetica,sans-Serif" font-size="10.00">com.cliffc.aa.HM.HM9.T2.make_fun</text>
</a>
</g>
</g>
<!-- Node2 -->
<g id="node2" class="node">
<title>Node2</title>
<g id="a_node2"><a xlink:href="../../d9/d9a/a00998.html#a32ab71f4fb099cea784a17455dc2a647" target="_top" xlink:title=" ">
<polygon fill="none" stroke="black" points="226,-38.5 226,-57.5 389,-57.5 389,-38.5 226,-38.5"/>
<text text-anchor="middle" x="307.5" y="-45.5" font-family="Helvetica,sans-Serif" font-size="10.00">com.cliffc.aa.HM.HM9.T2.args</text>
</a>
</g>
</g>
<!-- Node1&#45;&gt;Node2 -->
<g id="edge1" class="edge">
<title>Node1&#45;&gt;Node2</title>
<path fill="none" stroke="midnightblue" d="M190.17,-37.5C198.65,-38.27 207.23,-39.04 215.68,-39.8"/>
<polygon fill="midnightblue" stroke="midnightblue" points="215.64,-43.31 225.92,-40.73 216.27,-36.34 215.64,-43.31"/>
</g>
<!-- Node7 -->
<g id="node7" class="node">
<title>Node7</title>
<g id="a_node7"><a xlink:href="../../d9/d9a/a00998.html#a3ea532ff7c81aea6faf0793d5161b250" target="_top" xlink:title=" ">
<polygon fill="none" stroke="black" points="230.5,-0.5 230.5,-19.5 384.5,-19.5 384.5,-0.5 230.5,-0.5"/>
<text text-anchor="middle" x="307.5" y="-7.5" font-family="Helvetica,sans-Serif" font-size="10.00">com.cliffc.aa.HM.HM9.T2.T2</text>
</a>
</g>
</g>
<!-- Node1&#45;&gt;Node7 -->
<g id="edge7" class="edge">
<title>Node1&#45;&gt;Node7</title>
<path fill="none" stroke="midnightblue" d="M190.17,-20.5C200.16,-19.6 210.29,-18.68 220.19,-17.79"/>
<polygon fill="midnightblue" stroke="midnightblue" points="220.76,-21.25 230.4,-16.87 220.13,-14.28 220.76,-21.25"/>
</g>
<!-- Node3 -->
<g id="node3" class="node">
<title>Node3</title>
<g id="a_node3"><a xlink:href="../../d9/d9a/a00998.html#a7ea29d41da89e8425de2d5fc41827d0d" target="_top" xlink:title=" ">
<polygon fill="none" stroke="black" points="425,-38.5 425,-57.5 585,-57.5 585,-38.5 425,-38.5"/>
<text text-anchor="middle" x="505" y="-45.5" font-family="Helvetica,sans-Serif" font-size="10.00">com.cliffc.aa.HM.HM9.T2.find</text>
</a>
</g>
</g>
<!-- Node2&#45;&gt;Node3 -->
<g id="edge2" class="edge">
<title>Node2&#45;&gt;Node3</title>
<path fill="none" stroke="midnightblue" d="M389.15,-48C397.52,-48 406.07,-48 414.53,-48"/>
<polygon fill="midnightblue" stroke="midnightblue" points="414.8,-51.5 424.8,-48 414.8,-44.5 414.8,-51.5"/>
</g>
<!-- Node4 -->
<g id="node4" class="node">
<title>Node4</title>
<g id="a_node4"><a xlink:href="../../d9/d9a/a00998.html#a54c20c24590ba86eeee97ff28589fe27" target="_top" xlink:title=" ">
<polygon fill="none" stroke="black" points="621,-19.5 621,-38.5 816,-38.5 816,-19.5 621,-19.5"/>
<text text-anchor="middle" x="718.5" y="-26.5" font-family="Helvetica,sans-Serif" font-size="10.00">com.cliffc.aa.HM.HM9.T2.debug_find</text>
</a>
</g>
</g>
<!-- Node3&#45;&gt;Node4 -->
<g id="edge3" class="edge">
<title>Node3&#45;&gt;Node4</title>
<path fill="none" stroke="midnightblue" d="M585.06,-40.9C593.4,-40.15 601.99,-39.38 610.59,-38.6"/>
<polygon fill="midnightblue" stroke="midnightblue" points="611.02,-42.08 620.67,-37.7 610.4,-35.11 611.02,-42.08"/>
</g>
<!-- Node5 -->
<g id="node5" class="node">
<title>Node5</title>
<g id="a_node5"><a xlink:href="../../d9/d9a/a00998.html#ad75595c704109c7f0c8e4f6e9dbc35bc" target="_top" xlink:title=" ">
<polygon fill="none" stroke="black" points="852,-57.5 852,-76.5 1026,-76.5 1026,-57.5 852,-57.5"/>
<text text-anchor="middle" x="939" y="-64.5" font-family="Helvetica,sans-Serif" font-size="10.00">com.cliffc.aa.HM.HM9.T2.is_leaf</text>
</a>
</g>
</g>
<!-- Node3&#45;&gt;Node5 -->
<g id="edge6" class="edge">
<title>Node3&#45;&gt;Node5</title>
<path fill="none" stroke="midnightblue" d="M585.24,-51.48C657.5,-54.66 764.46,-59.37 841.65,-62.76"/>
<polygon fill="midnightblue" stroke="midnightblue" points="841.72,-66.27 851.86,-63.21 842.02,-59.28 841.72,-66.27"/>
</g>
<!-- Node4&#45;&gt;Node5 -->
<g id="edge4" class="edge">
<title>Node4&#45;&gt;Node5</title>
<path fill="none" stroke="midnightblue" d="M774.35,-38.54C804.35,-43.76 841.7,-50.25 873.14,-55.72"/>
<polygon fill="midnightblue" stroke="midnightblue" points="872.67,-59.19 883.12,-57.46 873.87,-52.29 872.67,-59.19"/>
</g>
<!-- Node6 -->
<g id="node6" class="node">
<title>Node6</title>
<g id="a_node6"><a xlink:href="../../d9/d9a/a00998.html#a169dfbbe7e0413caed9c990bfb7c19ad" target="_top" xlink:title=" ">
<polygon fill="none" stroke="black" points="854.5,-19.5 854.5,-38.5 1023.5,-38.5 1023.5,-19.5 854.5,-19.5"/>
<text text-anchor="middle" x="939" y="-26.5" font-family="Helvetica,sans-Serif" font-size="10.00">com.cliffc.aa.HM.HM9.T2.no_uf</text>
</a>
</g>
</g>
<!-- Node4&#45;&gt;Node6 -->
<g id="edge5" class="edge">
<title>Node4&#45;&gt;Node6</title>
<path fill="none" stroke="midnightblue" d="M816.29,-29C825.5,-29 834.82,-29 844,-29"/>
<polygon fill="midnightblue" stroke="midnightblue" points="844.29,-32.5 854.29,-29 844.29,-25.5 844.29,-32.5"/>
</g>
</g>
</svg>
