<?xml version="1.0" encoding="UTF-8" standalone="no"?>
<!DOCTYPE svg PUBLIC "-//W3C//DTD SVG 1.1//EN"
 "http://www.w3.org/Graphics/SVG/1.1/DTD/svg11.dtd">
<!-- Generated by graphviz version 2.43.0 (0)
 -->
<!-- Title: com.cliffc.aa.HM.HM9.T2.add_deps_work Pages: 1 -->
<svg width="1270pt" height="142pt"
 viewBox="0.00 0.00 1270.00 142.00" xmlns="http://www.w3.org/2000/svg" xmlns:xlink="http://www.w3.org/1999/xlink">
<g id="graph0" class="graph" transform="scale(1 1) rotate(0) translate(4 138)">
<title>com.cliffc.aa.HM.HM9.T2.add_deps_work</title>
<!-- Node1 -->
<g id="node1" class="node">
<title>Node1</title>
<g id="a_node1"><a xlink:title=" ">
<polygon fill="#bfbfbf" stroke="black" points="0,-52 0,-82 160,-82 160,-52 0,-52"/>
<text text-anchor="start" x="8" y="-70" font-family="Helvetica,sans-Serif" font-size="10.00">com.cliffc.aa.HM.HM9.T2.add</text>
<text text-anchor="middle" x="80" y="-59" font-family="Helvetica,sans-Serif" font-size="10.00">_deps_work</text>
</a>
</g>
</g>
<!-- Node2 -->
<g id="node2" class="node">
<title>Node2</title>
<g id="a_node2"><a xlink:href="../../d9/d9a/a00998.html#aa4478658e21b8df4429220058f40d3bf" target="_top" xlink:title=" ">
<polygon fill="none" stroke="black" points="196,-52 196,-82 356,-82 356,-52 196,-52"/>
<text text-anchor="start" x="204" y="-70" font-family="Helvetica,sans-Serif" font-size="10.00">com.cliffc.aa.HM.HM9.T2.add</text>
<text text-anchor="middle" x="276" y="-59" font-family="Helvetica,sans-Serif" font-size="10.00">_deps_work_impl</text>
</a>
</g>
</g>
<!-- Node1&#45;&gt;Node2 -->
<g id="edge1" class="edge">
<title>Node1&#45;&gt;Node2</title>
<path fill="none" stroke="midnightblue" d="M160.19,-67C168.53,-67 177.05,-67 185.5,-67"/>
<polygon fill="midnightblue" stroke="midnightblue" points="185.75,-70.5 195.75,-67 185.75,-63.5 185.75,-70.5"/>
</g>
<!-- Node2&#45;&gt;Node2 -->
<g id="edge2" class="edge">
<title>Node2&#45;&gt;Node2</title>
<path fill="none" stroke="midnightblue" d="M241.84,-82.16C233.61,-91.56 244.99,-100.5 276,-100.5 294.9,-100.5 306.5,-97.18 310.83,-92.46"/>
<polygon fill="midnightblue" stroke="midnightblue" points="314.3,-91.91 310.16,-82.16 307.31,-92.37 314.3,-91.91"/>
</g>
<!-- Node3 -->
<g id="node3" class="node">
<title>Node3</title>
<g id="a_node3"><a xlink:href="../../dc/dfa/a00894.html#aadca0c329de0b2550f7835f25bc89774" target="_top" xlink:title=" ">
<polygon fill="none" stroke="black" points="392,-114.5 392,-133.5 592,-133.5 592,-114.5 392,-114.5"/>
<text text-anchor="middle" x="492" y="-121.5" font-family="Helvetica,sans-Serif" font-size="10.00">com.cliffc.aa.HM.HM9.Worklist.addAll</text>
</a>
</g>
</g>
<!-- Node2&#45;&gt;Node3 -->
<g id="edge3" class="edge">
<title>Node2&#45;&gt;Node3</title>
<path fill="none" stroke="midnightblue" d="M318.13,-82.03C339.89,-89.61 367.17,-98.54 392,-105 402.44,-107.71 413.59,-110.22 424.51,-112.47"/>
<polygon fill="midnightblue" stroke="midnightblue" points="423.94,-115.92 434.44,-114.45 425.32,-109.06 423.94,-115.92"/>
</g>
<!-- Node5 -->
<g id="node5" class="node">
<title>Node5</title>
<g id="a_node5"><a xlink:href="../../d9/d9a/a00998.html#a32ab71f4fb099cea784a17455dc2a647" target="_top" xlink:title=" ">
<polygon fill="none" stroke="black" points="410.5,-76.5 410.5,-95.5 573.5,-95.5 573.5,-76.5 410.5,-76.5"/>
<text text-anchor="middle" x="492" y="-83.5" font-family="Helvetica,sans-Serif" font-size="10.00">com.cliffc.aa.HM.HM9.T2.args</text>
</a>
</g>
</g>
<!-- Node2&#45;&gt;Node5 -->
<g id="edge5" class="edge">
<title>Node2&#45;&gt;Node5</title>
<path fill="none" stroke="midnightblue" d="M356.08,-74.02C370.49,-75.3 385.63,-76.64 400.35,-77.95"/>
<polygon fill="midnightblue" stroke="midnightblue" points="400.19,-81.45 410.46,-78.85 400.81,-74.48 400.19,-81.45"/>
</g>
<!-- Node8 -->
<g id="node8" class="node">
<title>Node8</title>
<g id="a_node8"><a xlink:href="../../d9/d9a/a00998.html#ad75595c704109c7f0c8e4f6e9dbc35bc" target="_top" xlink:title=" ">
<polygon fill="none" stroke="black" points="1088,-76.5 1088,-95.5 1262,-95.5 1262,-76.5 1088,-76.5"/>
<text text-anchor="middle" x="1175" y="-83.5" font-family="Helvetica,sans-Serif" font-size="10.00">com.cliffc.aa.HM.HM9.T2.is_leaf</text>
</a>
</g>
</g>
<!-- Node2&#45;&gt;Node8 -->
<g id="edge11" class="edge">
<title>Node2&#45;&gt;Node8</title>
<path fill="none" stroke="midnightblue" d="M356.3,-65.67C462.24,-64.19 655.78,-62.56 821,-67 907.84,-69.34 1006.56,-74.9 1077.48,-79.4"/>
<polygon fill="midnightblue" stroke="midnightblue" points="1077.53,-82.91 1087.73,-80.06 1077.98,-75.93 1077.53,-82.91"/>
</g>
<!-- Node10 -->
<g id="node10" class="node">
<title>Node10</title>
<g id="a_node10"><a xlink:href="../../df/dee/a01646.html#a88ad20daf92e92fe0e3925b23c4fecf0" target="_top" xlink:title=" ">
<polygon fill="none" stroke="black" points="413,-0.5 413,-19.5 571,-19.5 571,-0.5 413,-0.5"/>
<text text-anchor="middle" x="492" y="-7.5" font-family="Helvetica,sans-Serif" font-size="10.00">com.cliffc.aa.util.VBitSet.tset</text>
</a>
</g>
</g>
<!-- Node2&#45;&gt;Node10 -->
<g id="edge12" class="edge">
<title>Node2&#45;&gt;Node10</title>
<path fill="none" stroke="midnightblue" d="M327.82,-51.92C347.78,-46.13 370.92,-39.58 392,-34 407.57,-29.88 424.59,-25.66 440.05,-21.92"/>
<polygon fill="midnightblue" stroke="midnightblue" points="441.05,-25.28 449.96,-19.54 439.42,-18.47 441.05,-25.28"/>
</g>
<!-- Node4 -->
<g id="node4" class="node">
<title>Node4</title>
<g id="a_node4"><a xlink:href="../../dc/dfa/a00894.html#aa3290b330eee25c8c1cc4b68ad91d643" target="_top" xlink:title=" ">
<polygon fill="none" stroke="black" points="628,-114.5 628,-133.5 821,-133.5 821,-114.5 628,-114.5"/>
<text text-anchor="middle" x="724.5" y="-121.5" font-family="Helvetica,sans-Serif" font-size="10.00">com.cliffc.aa.HM.HM9.Worklist.push</text>
</a>
</g>
</g>
<!-- Node3&#45;&gt;Node4 -->
<g id="edge4" class="edge">
<title>Node3&#45;&gt;Node4</title>
<path fill="none" stroke="midnightblue" d="M592.09,-124C600.6,-124 609.22,-124 617.78,-124"/>
<polygon fill="midnightblue" stroke="midnightblue" points="617.78,-127.5 627.78,-124 617.78,-120.5 617.78,-127.5"/>
</g>
<!-- Node6 -->
<g id="node6" class="node">
<title>Node6</title>
<g id="a_node6"><a xlink:href="../../d9/d9a/a00998.html#a7ea29d41da89e8425de2d5fc41827d0d" target="_top" xlink:title=" ">
<polygon fill="none" stroke="black" points="644.5,-76.5 644.5,-95.5 804.5,-95.5 804.5,-76.5 644.5,-76.5"/>
<text text-anchor="middle" x="724.5" y="-83.5" font-family="Helvetica,sans-Serif" font-size="10.00">com.cliffc.aa.HM.HM9.T2.find</text>
</a>
</g>
</g>
<!-- Node5&#45;&gt;Node6 -->
<g id="edge6" class="edge">
<title>Node5&#45;&gt;Node6</title>
<path fill="none" stroke="midnightblue" d="M573.62,-86C593.28,-86 614.41,-86 634.44,-86"/>
<polygon fill="midnightblue" stroke="midnightblue" points="634.48,-89.5 644.48,-86 634.48,-82.5 634.48,-89.5"/>
</g>
<!-- Node7 -->
<g id="node7" class="node">
<title>Node7</title>
<g id="a_node7"><a xlink:href="../../d9/d9a/a00998.html#a54c20c24590ba86eeee97ff28589fe27" target="_top" xlink:title=" ">
<polygon fill="none" stroke="black" points="857,-114.5 857,-133.5 1052,-133.5 1052,-114.5 857,-114.5"/>
<text text-anchor="middle" x="954.5" y="-121.5" font-family="Helvetica,sans-Serif" font-size="10.00">com.cliffc.aa.HM.HM9.T2.debug_find</text>
</a>
</g>
</g>
<!-- Node6&#45;&gt;Node7 -->
<g id="edge7" class="edge">
<title>Node6&#45;&gt;Node7</title>
<path fill="none" stroke="midnightblue" d="M782.74,-95.54C814.18,-100.78 853.35,-107.31 886.25,-112.79"/>
<polygon fill="midnightblue" stroke="midnightblue" points="885.8,-116.26 896.24,-114.46 886.95,-109.36 885.8,-116.26"/>
</g>
<!-- Node6&#45;&gt;Node8 -->
<g id="edge10" class="edge">
<title>Node6&#45;&gt;Node8</title>
<path fill="none" stroke="midnightblue" d="M804.65,-86C880.86,-86 996.24,-86 1077.73,-86"/>
<polygon fill="midnightblue" stroke="midnightblue" points="1078,-89.5 1088,-86 1078,-82.5 1078,-89.5"/>
</g>
<!-- Node7&#45;&gt;Node8 -->
<g id="edge8" class="edge">
<title>Node7&#45;&gt;Node8</title>
<path fill="none" stroke="midnightblue" d="M1010.35,-114.46C1040.35,-109.24 1077.7,-102.75 1109.14,-97.28"/>
<polygon fill="midnightblue" stroke="midnightblue" points="1109.87,-100.71 1119.12,-95.54 1108.67,-93.81 1109.87,-100.71"/>
</g>
<!-- Node9 -->
<g id="node9" class="node">
<title>Node9</title>
<g id="a_node9"><a xlink:href="../../d9/d9a/a00998.html#a169dfbbe7e0413caed9c990bfb7c19ad" target="_top" xlink:title=" ">
<polygon fill="none" stroke="black" points="1090.5,-114.5 1090.5,-133.5 1259.5,-133.5 1259.5,-114.5 1090.5,-114.5"/>
<text text-anchor="middle" x="1175" y="-121.5" font-family="Helvetica,sans-Serif" font-size="10.00">com.cliffc.aa.HM.HM9.T2.no_uf</text>
</a>
</g>
</g>
<!-- Node7&#45;&gt;Node9 -->
<g id="edge9" class="edge">
<title>Node7&#45;&gt;Node9</title>
<path fill="none" stroke="midnightblue" d="M1052.29,-124C1061.5,-124 1070.82,-124 1080,-124"/>
<polygon fill="midnightblue" stroke="midnightblue" points="1080.29,-127.5 1090.29,-124 1080.29,-120.5 1080.29,-127.5"/>
</g>
</g>
</svg>
