<?xml version="1.0" encoding="UTF-8" standalone="no"?>
<!DOCTYPE svg PUBLIC "-//W3C//DTD SVG 1.1//EN"
 "http://www.w3.org/Graphics/SVG/1.1/DTD/svg11.dtd">
<!-- Generated by graphviz version 2.43.0 (0)
 -->
<!-- Title: com.cliffc.aa.HM.HM9.T2._fresh Pages: 1 -->
<!--zoomable 322 -->
<svg id="main" version="1.1" xmlns="http://www.w3.org/2000/svg" xmlns:xlink="http://www.w3.org/1999/xlink" xml:space="preserve" onload="init(evt)">
<style type="text/css"><![CDATA[
.edge:hover path { stroke: red; }
.edge:hover polygon { stroke: red; fill: red; }
]]></style>
<script type="text/javascript"><![CDATA[
var edges = document.getElementsByTagName('g');
if (edges && edges.length) {
  for (var i=0;i<edges.length;i++) {
    if (edges[i].id.substr(0,4)=='edge') {
      edges[i].setAttribute('class','edge');
    }
  }
}
]]></script>
        <defs>
                <circle id="rim" cx="0" cy="0" r="7"/>
                <circle id="rim2" cx="0" cy="0" r="3.5"/>
                <g id="zoomPlus">
                        <use xlink:href="#rim" fill="#404040">
                                <set attributeName="fill" to="#808080" begin="zoomplus.mouseover" end="zoomplus.mouseout"/>
                        </use>
                        <path d="M-4,0h8M0,-4v8" fill="none" stroke="white" stroke-width="1.5" pointer-events="none"/>
                </g>
                <g id="zoomMin">
                        <use xlink:href="#rim" fill="#404040">
                                <set attributeName="fill" to="#808080" begin="zoomminus.mouseover" end="zoomminus.mouseout"/>
                        </use>
                        <path d="M-4,0h8" fill="none" stroke="white" stroke-width="1.5" pointer-events="none"/>
                </g>
                <g id="dirArrow">
                        <path fill="none" stroke="white" stroke-width="1.5" d="M0,-3.0v7 M-2.5,-0.5L0,-3.0L2.5,-0.5"/>
                </g>
               <g id="resetDef">
                       <use xlink:href="#rim2" fill="#404040">
                               <set attributeName="fill" to="#808080" begin="reset.mouseover" end="reset.mouseout"/>
                       </use>
               </g>
        </defs>

<script type="text/javascript">
var viewWidth = 1405;
var viewHeight = 322;
var sectionId = 'dynsection-12';
</script>
<script xlink:href="../../svgpan.js"/>
<svg id="graph" class="graph">
<g id="viewport">
<title>com.cliffc.aa.HM.HM9.T2._fresh</title>
<!-- Node1 -->
<g id="node1" class="node">
<title>Node1</title>
<g id="a_node1"><a xlink:title=" ">
<polygon fill="#bfbfbf" stroke="black" points="0,-109 0,-139 142,-139 142,-109 0,-109"/>
<text text-anchor="start" x="8" y="-127" font-family="Helvetica,sans-Serif" font-size="10.00">com.cliffc.aa.HM.HM9.T2.</text>
<text text-anchor="middle" x="71" y="-116" font-family="Helvetica,sans-Serif" font-size="10.00">_fresh</text>
</a>
</g>
</g>
<!-- Node1&#45;&gt;Node1 -->
<g id="edge1" class="edge">
<title>Node1&#45;&gt;Node1</title>
<path fill="none" stroke="midnightblue" d="M35.8,-139.16C27.31,-148.56 39.04,-157.5 71,-157.5 90.47,-157.5 102.44,-154.18 106.89,-149.46"/>
<polygon fill="midnightblue" stroke="midnightblue" points="110.36,-148.9 106.2,-139.16 103.38,-149.37 110.36,-148.9"/>
</g>
<!-- Node2 -->
<g id="node2" class="node">
<title>Node2</title>
<g id="a_node2"><a xlink:href="../../d9/d9a/a00998.html#a32ab71f4fb099cea784a17455dc2a647" target="_top" xlink:title=" ">
<polygon fill="none" stroke="black" points="597,-228.5 597,-247.5 760,-247.5 760,-228.5 597,-228.5"/>
<text text-anchor="middle" x="678.5" y="-235.5" font-family="Helvetica,sans-Serif" font-size="10.00">com.cliffc.aa.HM.HM9.T2.args</text>
</a>
</g>
</g>
<!-- Node1&#45;&gt;Node2 -->
<g id="edge2" class="edge">
<title>Node1&#45;&gt;Node2</title>
<path fill="none" stroke="midnightblue" d="M108.74,-139.15C128.89,-146.96 154.5,-156.06 178,-162 318.59,-197.54 485.91,-218.87 586.81,-229.53"/>
<polygon fill="midnightblue" stroke="midnightblue" points="586.65,-233.03 596.96,-230.59 587.38,-226.07 586.65,-233.03"/>
</g>
<!-- Node5 -->
<g id="node5" class="node">
<title>Node5</title>
<g id="a_node5"><a xlink:href="../../d9/d9a/a00998.html#ad75595c704109c7f0c8e4f6e9dbc35bc" target="_top" xlink:title=" ">
<polygon fill="none" stroke="black" points="1223,-247.5 1223,-266.5 1397,-266.5 1397,-247.5 1223,-247.5"/>
<text text-anchor="middle" x="1310" y="-254.5" font-family="Helvetica,sans-Serif" font-size="10.00">com.cliffc.aa.HM.HM9.T2.is_leaf</text>
</a>
</g>
</g>
<!-- Node1&#45;&gt;Node5 -->
<g id="edge10" class="edge">
<title>Node1&#45;&gt;Node5</title>
<path fill="none" stroke="midnightblue" d="M89.87,-139.23C144.67,-184.31 316.74,-314 483,-314 483,-314 483,-314 877,-314 1014.48,-314 1174.46,-285.28 1255.73,-268.61"/>
<polygon fill="midnightblue" stroke="midnightblue" points="1256.63,-272 1265.71,-266.54 1255.21,-265.14 1256.63,-272"/>
</g>
<!-- Node6 -->
<g id="node6" class="node">
<title>Node6</title>
<g id="a_node6"><a xlink:href="../../d9/d9a/a00998.html#a169dfbbe7e0413caed9c990bfb7c19ad" target="_top" xlink:title=" ">
<polygon fill="none" stroke="black" points="1225.5,-152.5 1225.5,-171.5 1394.5,-171.5 1394.5,-152.5 1225.5,-152.5"/>
<text text-anchor="middle" x="1310" y="-159.5" font-family="Helvetica,sans-Serif" font-size="10.00">com.cliffc.aa.HM.HM9.T2.no_uf</text>
</a>
</g>
</g>
<!-- Node1&#45;&gt;Node6 -->
<g id="edge13" class="edge">
<title>Node1&#45;&gt;Node6</title>
<path fill="none" stroke="midnightblue" d="M142.36,-113.52C224.06,-102.27 362.97,-86 483,-86 483,-86 483,-86 877,-86 1022.21,-86 1190.79,-128.17 1267.35,-149.68"/>
<polygon fill="midnightblue" stroke="midnightblue" points="1266.52,-153.09 1277.09,-152.45 1268.43,-146.35 1266.52,-153.09"/>
</g>
<!-- Node7 -->
<g id="node7" class="node">
<title>Node7</title>
<g id="a_node7"><a xlink:href="../../d9/d9a/a00998.html#a13ae9532e4a9dde1311742d9858eb4e1" target="_top" xlink:title=" ">
<polygon fill="none" stroke="black" points="192,-38.5 192,-57.5 357,-57.5 357,-38.5 192,-38.5"/>
<text text-anchor="middle" x="274.5" y="-45.5" font-family="Helvetica,sans-Serif" font-size="10.00">com.cliffc.aa.HM.HM9.T2.copy</text>
</a>
</g>
</g>
<!-- Node1&#45;&gt;Node7 -->
<g id="edge8" class="edge">
<title>Node1&#45;&gt;Node7</title>
<path fill="none" stroke="midnightblue" d="M98.76,-108.92C119.79,-97.55 150.09,-82.22 178,-72 190.54,-67.41 204.31,-63.38 217.4,-60.01"/>
<polygon fill="midnightblue" stroke="midnightblue" points="218.39,-63.37 227.25,-57.56 216.7,-56.58 218.39,-63.37"/>
</g>
<!-- Node9 -->
<g id="node9" class="node">
<title>Node9</title>
<g id="a_node9"><a xlink:href="../../d9/d9a/a00998.html#a5576d10d3d13a627c7890055bf207c40" target="_top" xlink:title=" ">
<polygon fill="none" stroke="black" points="178,-0.5 178,-19.5 371,-19.5 371,-0.5 178,-0.5"/>
<text text-anchor="middle" x="274.5" y="-7.5" font-family="Helvetica,sans-Serif" font-size="10.00">com.cliffc.aa.HM.HM9.T2.make_leaf</text>
</a>
</g>
</g>
<!-- Node1&#45;&gt;Node9 -->
<g id="edge11" class="edge">
<title>Node1&#45;&gt;Node9</title>
<path fill="none" stroke="midnightblue" d="M84.26,-108.75C102.37,-87.34 138.43,-48.78 178,-29 182.87,-26.57 188.02,-24.45 193.31,-22.6"/>
<polygon fill="midnightblue" stroke="midnightblue" points="194.47,-25.9 202.95,-19.55 192.36,-19.23 194.47,-25.9"/>
</g>
<!-- Node10 -->
<g id="node10" class="node">
<title>Node10</title>
<g id="a_node10"><a xlink:href="../../d9/d9a/a00998.html#a3546128d9853d8b4cea2a546f1f7ba93" target="_top" xlink:title=" ">
<polygon fill="none" stroke="black" points="178.5,-133.5 178.5,-152.5 370.5,-152.5 370.5,-133.5 178.5,-133.5"/>
<text text-anchor="middle" x="274.5" y="-140.5" font-family="Helvetica,sans-Serif" font-size="10.00">com.cliffc.aa.HM.HM9.T2.nongen_in</text>
</a>
</g>
</g>
<!-- Node1&#45;&gt;Node10 -->
<g id="edge14" class="edge">
<title>Node1&#45;&gt;Node10</title>
<path fill="none" stroke="midnightblue" d="M142.19,-130.62C150.69,-131.42 159.51,-132.25 168.38,-133.09"/>
<polygon fill="midnightblue" stroke="midnightblue" points="168.11,-136.58 178.39,-134.03 168.76,-129.61 168.11,-136.58"/>
</g>
<!-- Node3 -->
<g id="node3" class="node">
<title>Node3</title>
<g id="a_node3"><a xlink:href="../../d9/d9a/a00998.html#a7ea29d41da89e8425de2d5fc41827d0d" target="_top" xlink:title=" ">
<polygon fill="none" stroke="black" points="796,-228.5 796,-247.5 956,-247.5 956,-228.5 796,-228.5"/>
<text text-anchor="middle" x="876" y="-235.5" font-family="Helvetica,sans-Serif" font-size="10.00">com.cliffc.aa.HM.HM9.T2.find</text>
</a>
</g>
</g>
<!-- Node2&#45;&gt;Node3 -->
<g id="edge3" class="edge">
<title>Node2&#45;&gt;Node3</title>
<path fill="none" stroke="midnightblue" d="M760.15,-238C768.52,-238 777.07,-238 785.53,-238"/>
<polygon fill="midnightblue" stroke="midnightblue" points="785.8,-241.5 795.8,-238 785.8,-234.5 785.8,-241.5"/>
</g>
<!-- Node4 -->
<g id="node4" class="node">
<title>Node4</title>
<g id="a_node4"><a xlink:href="../../d9/d9a/a00998.html#a54c20c24590ba86eeee97ff28589fe27" target="_top" xlink:title=" ">
<polygon fill="none" stroke="black" points="992,-228.5 992,-247.5 1187,-247.5 1187,-228.5 992,-228.5"/>
<text text-anchor="middle" x="1089.5" y="-235.5" font-family="Helvetica,sans-Serif" font-size="10.00">com.cliffc.aa.HM.HM9.T2.debug_find</text>
</a>
</g>
</g>
<!-- Node3&#45;&gt;Node4 -->
<g id="edge4" class="edge">
<title>Node3&#45;&gt;Node4</title>
<path fill="none" stroke="midnightblue" d="M956.06,-238C964.4,-238 972.99,-238 981.59,-238"/>
<polygon fill="midnightblue" stroke="midnightblue" points="981.67,-241.5 991.67,-238 981.67,-234.5 981.67,-241.5"/>
</g>
<!-- Node3&#45;&gt;Node5 -->
<g id="edge7" class="edge">
<title>Node3&#45;&gt;Node5</title>
<path fill="none" stroke="midnightblue" d="M923.78,-247.51C944.58,-251.28 969.41,-255.15 992,-257 1065.78,-263.05 1149.55,-262.75 1212.43,-261.09"/>
<polygon fill="midnightblue" stroke="midnightblue" points="1212.84,-264.58 1222.74,-260.8 1212.64,-257.58 1212.84,-264.58"/>
</g>
<!-- Node4&#45;&gt;Node5 -->
<g id="edge5" class="edge">
<title>Node4&#45;&gt;Node5</title>
<path fill="none" stroke="midnightblue" d="M1187.29,-246.42C1195.73,-247.15 1204.27,-247.89 1212.71,-248.63"/>
<polygon fill="midnightblue" stroke="midnightblue" points="1212.67,-252.14 1222.93,-249.52 1213.27,-245.16 1212.67,-252.14"/>
</g>
<!-- Node4&#45;&gt;Node6 -->
<g id="edge6" class="edge">
<title>Node4&#45;&gt;Node6</title>
<path fill="none" stroke="midnightblue" d="M1118.17,-228.37C1157.17,-214.81 1228.37,-190.05 1271.91,-174.9"/>
<polygon fill="midnightblue" stroke="midnightblue" points="1273.26,-178.14 1281.55,-171.55 1270.96,-171.53 1273.26,-178.14"/>
</g>
<!-- Node8 -->
<g id="node8" class="node">
<title>Node8</title>
<g id="a_node8"><a xlink:href="../../d9/d9a/a00998.html#a3ea532ff7c81aea6faf0793d5161b250" target="_top" xlink:title=" ">
<polygon fill="none" stroke="black" points="407,-19.5 407,-38.5 561,-38.5 561,-19.5 407,-19.5"/>
<text text-anchor="middle" x="484" y="-26.5" font-family="Helvetica,sans-Serif" font-size="10.00">com.cliffc.aa.HM.HM9.T2.T2</text>
</a>
</g>
</g>
<!-- Node7&#45;&gt;Node8 -->
<g id="edge9" class="edge">
<title>Node7&#45;&gt;Node8</title>
<path fill="none" stroke="midnightblue" d="M357.21,-40.52C370.1,-39.34 383.46,-38.11 396.45,-36.92"/>
<polygon fill="midnightblue" stroke="midnightblue" points="397.14,-40.38 406.78,-35.98 396.5,-33.41 397.14,-40.38"/>
</g>
<!-- Node9&#45;&gt;Node8 -->
<g id="edge12" class="edge">
<title>Node9&#45;&gt;Node8</title>
<path fill="none" stroke="midnightblue" d="M371.05,-18.75C379.6,-19.53 388.22,-20.32 396.68,-21.1"/>
<polygon fill="midnightblue" stroke="midnightblue" points="396.62,-24.61 406.9,-22.03 397.26,-17.63 396.62,-24.61"/>
</g>
<!-- Node11 -->
<g id="node11" class="node">
<title>Node11</title>
<g id="a_node11"><a xlink:href="../../d9/d9a/a00998.html#ab6504f6a2e0ea67e7d832babb63f1c3c" target="_top" xlink:title=" ">
<polygon fill="none" stroke="black" points="413,-147 413,-177 555,-177 555,-147 413,-147"/>
<text text-anchor="start" x="421" y="-165" font-family="Helvetica,sans-Serif" font-size="10.00">com.cliffc.aa.HM.HM9.T2.</text>
<text text-anchor="middle" x="484" y="-154" font-family="Helvetica,sans-Serif" font-size="10.00">_occurs_in_type</text>
</a>
</g>
</g>
<!-- Node10&#45;&gt;Node11 -->
<g id="edge15" class="edge">
<title>Node10&#45;&gt;Node11</title>
<path fill="none" stroke="midnightblue" d="M370.75,-151.72C381.49,-152.7 392.35,-153.7 402.86,-154.66"/>
<polygon fill="midnightblue" stroke="midnightblue" points="402.55,-158.15 412.83,-155.57 403.19,-151.18 402.55,-158.15"/>
</g>
<!-- Node11&#45;&gt;Node2 -->
<g id="edge16" class="edge">
<title>Node11&#45;&gt;Node2</title>
<path fill="none" stroke="midnightblue" d="M514.44,-177.1C536.75,-188.18 568.33,-203.14 597,-214 608.08,-218.2 620.22,-222.15 631.65,-225.58"/>
<polygon fill="midnightblue" stroke="midnightblue" points="630.88,-229 641.46,-228.46 632.86,-222.29 630.88,-229"/>
</g>
<!-- Node11&#45;&gt;Node5 -->
<g id="edge17" class="edge">
<title>Node11&#45;&gt;Node5</title>
<path fill="none" stroke="midnightblue" d="M555.14,-171.33C569,-173.02 583.45,-174.66 597,-176 858.64,-201.87 928.68,-170.03 1187,-219 1217.27,-224.74 1250.6,-235.43 1274.76,-244.02"/>
<polygon fill="midnightblue" stroke="midnightblue" points="1273.6,-247.32 1284.19,-247.43 1275.98,-240.74 1273.6,-247.32"/>
</g>
<!-- Node11&#45;&gt;Node6 -->
<g id="edge18" class="edge">
<title>Node11&#45;&gt;Node6</title>
<path fill="none" stroke="midnightblue" d="M555.25,-162C703.45,-162 1048.11,-162 1215.05,-162"/>
<polygon fill="midnightblue" stroke="midnightblue" points="1215.3,-165.5 1225.3,-162 1215.3,-158.5 1215.3,-165.5"/>
</g>
<!-- Node12 -->
<g id="node12" class="node">
<title>Node12</title>
<g id="a_node12"><a xlink:href="../../df/dee/a01646.html#a88ad20daf92e92fe0e3925b23c4fecf0" target="_top" xlink:title=" ">
<polygon fill="none" stroke="black" points="599.5,-114.5 599.5,-133.5 757.5,-133.5 757.5,-114.5 599.5,-114.5"/>
<text text-anchor="middle" x="678.5" y="-121.5" font-family="Helvetica,sans-Serif" font-size="10.00">com.cliffc.aa.util.VBitSet.tset</text>
</a>
</g>
</g>
<!-- Node11&#45;&gt;Node12 -->
<g id="edge19" class="edge">
<title>Node11&#45;&gt;Node12</title>
<path fill="none" stroke="midnightblue" d="M555.04,-148.17C576.1,-144.02 598.97,-139.5 619.19,-135.51"/>
<polygon fill="midnightblue" stroke="midnightblue" points="620.05,-138.91 629.18,-133.54 618.69,-132.04 620.05,-138.91"/>
</g>
</g>
</svg>
        <g id="navigator" transform="translate(0 0)" fill="#404254">
                <rect fill="#f2f5e9" fill-opacity="0.5" stroke="#606060" stroke-width=".5" x="0" y="0" width="60" height="60"/>
                <use id="zoomplus" xlink:href="#zoomPlus" x="17" y="9" onmousedown="handleZoom(evt,'in')"/>
                <use id="zoomminus" xlink:href="#zoomMin" x="42" y="9" onmousedown="handleZoom(evt,'out')"/>
                <use id="reset" xlink:href="#resetDef" x="30" y="36" onmousedown="handleReset()"/>
                <g id="arrowUp" xlink:href="#dirArrow" transform="translate(30 24)" onmousedown="handlePan(0,-1)">
                  <use xlink:href="#rim" fill="#404040">
                        <set attributeName="fill" to="#808080" begin="arrowUp.mouseover" end="arrowUp.mouseout"/>
                  </use>
                  <path fill="none" stroke="white" stroke-width="1.5" d="M0,-3.0v7 M-2.5,-0.5L0,-3.0L2.5,-0.5"/>
                </g>
                <g id="arrowRight" xlink:href="#dirArrow" transform="rotate(90) translate(36 -43)" onmousedown="handlePan(1,0)">
                  <use xlink:href="#rim" fill="#404040">
                        <set attributeName="fill" to="#808080" begin="arrowRight.mouseover" end="arrowRight.mouseout"/>
                  </use>
                  <path fill="none" stroke="white" stroke-width="1.5" d="M0,-3.0v7 M-2.5,-0.5L0,-3.0L2.5,-0.5"/>
                </g>
                <g id="arrowDown" xlink:href="#dirArrow" transform="rotate(180) translate(-30 -48)" onmousedown="handlePan(0,1)">
                  <use xlink:href="#rim" fill="#404040">
                        <set attributeName="fill" to="#808080" begin="arrowDown.mouseover" end="arrowDown.mouseout"/>
                  </use>
                  <path fill="none" stroke="white" stroke-width="1.5" d="M0,-3.0v7 M-2.5,-0.5L0,-3.0L2.5,-0.5"/>
                </g>
                <g id="arrowLeft" xlink:href="#dirArrow" transform="rotate(270) translate(-36 17)" onmousedown="handlePan(-1,0)">
                  <use xlink:href="#rim" fill="#404040">
                        <set attributeName="fill" to="#808080" begin="arrowLeft.mouseover" end="arrowLeft.mouseout"/>
                  </use>
                  <path fill="none" stroke="white" stroke-width="1.5" d="M0,-3.0v7 M-2.5,-0.5L0,-3.0L2.5,-0.5"/>
                </g>
        </g>
        <svg viewBox="0 0 15 15" width="100%" height="30px" preserveAspectRatio="xMaxYMin meet">
         <g id="arrow_out" transform="scale(0.3 0.3)">
          <a xlink:href="a00998_ab2b96b5710ae3be76936576c4154147e_cgraph_org.svg" target="_base">
           <rect id="button" ry="5" rx="5" y="6" x="6" height="38" width="38"
                fill="#f2f5e9" fill-opacity="0.5" stroke="#606060" stroke-width="1.0"/>
           <path id="arrow"
             d="M 11.500037,31.436501 C 11.940474,20.09759 22.043105,11.32322 32.158766,21.979434 L 37.068811,17.246167 C 37.068811,17.246167 37.088388,32 37.088388,32 L 22.160133,31.978069 C 22.160133,31.978069 26.997745,27.140456 26.997745,27.140456 C 18.528582,18.264221 13.291696,25.230495 11.500037,31.436501 z"
             style="fill:#404040;"/>
          </a>
         </g>
        </svg>
</svg>
