<?xml version="1.0" encoding="UTF-8" standalone="no"?>
<!DOCTYPE svg PUBLIC "-//W3C//DTD SVG 1.1//EN"
 "http://www.w3.org/Graphics/SVG/1.1/DTD/svg11.dtd">
<!-- Generated by graphviz version 2.43.0 (0)
 -->
<!-- Title: com.cliffc.aa.HM.HM3.HMVar Pages: 1 -->
<!--zoomable 655 -->
<svg id="main" version="1.1" xmlns="http://www.w3.org/2000/svg" xmlns:xlink="http://www.w3.org/1999/xlink" xml:space="preserve" onload="init(evt)">
<style type="text/css"><![CDATA[
.edge:hover path { stroke: red; }
.edge:hover polygon { stroke: red; fill: red; }
]]></style>
<script type="text/javascript"><![CDATA[
var edges = document.getElementsByTagName('g');
if (edges && edges.length) {
  for (var i=0;i<edges.length;i++) {
    if (edges[i].id.substr(0,4)=='edge') {
      edges[i].setAttribute('class','edge');
    }
  }
}
]]></script>
        <defs>
                <circle id="rim" cx="0" cy="0" r="7"/>
                <circle id="rim2" cx="0" cy="0" r="3.5"/>
                <g id="zoomPlus">
                        <use xlink:href="#rim" fill="#404040">
                                <set attributeName="fill" to="#808080" begin="zoomplus.mouseover" end="zoomplus.mouseout"/>
                        </use>
                        <path d="M-4,0h8M0,-4v8" fill="none" stroke="white" stroke-width="1.5" pointer-events="none"/>
                </g>
                <g id="zoomMin">
                        <use xlink:href="#rim" fill="#404040">
                                <set attributeName="fill" to="#808080" begin="zoomminus.mouseover" end="zoomminus.mouseout"/>
                        </use>
                        <path d="M-4,0h8" fill="none" stroke="white" stroke-width="1.5" pointer-events="none"/>
                </g>
                <g id="dirArrow">
                        <path fill="none" stroke="white" stroke-width="1.5" d="M0,-3.0v7 M-2.5,-0.5L0,-3.0L2.5,-0.5"/>
                </g>
               <g id="resetDef">
                       <use xlink:href="#rim2" fill="#404040">
                               <set attributeName="fill" to="#808080" begin="reset.mouseover" end="reset.mouseout"/>
                       </use>
               </g>
        </defs>

<script type="text/javascript">
var viewWidth = 1124;
var viewHeight = 655;
var sectionId = 'dynsection-1';
</script>
<script xlink:href="../../svgpan.js"/>
<svg id="graph" class="graph">
<g id="viewport">
<title>com.cliffc.aa.HM.HM3.HMVar</title>
<!-- Node1 -->
<g id="node1" class="node">
<title>Node1</title>
<g id="a_node1"><a xlink:title=" ">
<polygon fill="#bfbfbf" stroke="black" points="957,-270.5 957,-289.5 1116,-289.5 1116,-270.5 957,-270.5"/>
<text text-anchor="middle" x="1036.5" y="-277.5" font-family="Helvetica,sans-Serif" font-size="10.00">com.cliffc.aa.HM.HM3.HMVar</text>
</a>
</g>
</g>
<!-- Node2 -->
<g id="node2" class="node">
<title>Node2</title>
<g id="a_node2"><a xlink:href="../../df/dcf/a00642.html" target="_top" xlink:title=" ">
<polygon fill="none" stroke="black" points="719,-499.5 719,-518.5 885,-518.5 885,-499.5 719,-499.5"/>
<text text-anchor="middle" x="802" y="-506.5" font-family="Helvetica,sans-Serif" font-size="10.00">com.cliffc.aa.HM.HM3.HMType</text>
</a>
</g>
</g>
<!-- Node2&#45;&gt;Node1 -->
<g id="edge1" class="edge">
<title>Node2&#45;&gt;Node1</title>
<path fill="none" stroke="midnightblue" d="M884.16,-496.66C903.67,-490.73 923.36,-481.97 939,-469 999.69,-418.67 1026.35,-320.41 1033.46,-289.53"/>
<polygon fill="midnightblue" stroke="midnightblue" points="882.99,-493.35 874.31,-499.42 884.88,-500.09 882.99,-493.35"/>
</g>
<!-- Node2&#45;&gt;Node2 -->
<g id="edge8" class="edge">
<title>Node2&#45;&gt;Node2</title>
<path fill="none" stroke="#9a32cd" stroke-dasharray="5,2" d="M780.05,-528.03C781.25,-533.13 788.56,-537 802,-537 822.97,-537 829.04,-527.57 820.19,-518.76"/>
<polygon fill="#9a32cd" stroke="#9a32cd" points="783.3,-529.34 783.81,-518.76 776.81,-526.71 783.3,-529.34"/>
<text text-anchor="middle" x="802" y="-540" font-family="Helvetica,sans-Serif" font-size="10.00"> _u</text>
</g>
<!-- Node3 -->
<g id="node3" class="node">
<title>Node3</title>
<g id="a_node3"><a xlink:href="../../d6/d02/a01542.html" target="_top" xlink:title=" ">
<polygon fill="none" stroke="black" points="444.5,-606 444.5,-636 618.5,-636 618.5,-606 444.5,-606"/>
<text text-anchor="start" x="452.5" y="-624" font-family="Helvetica,sans-Serif" font-size="10.00">com.cliffc.aa.util.Ary</text>
<text text-anchor="middle" x="531.5" y="-613" font-family="Helvetica,sans-Serif" font-size="10.00">&lt; com.cliffc.aa.HM.HM3.Ident &gt;</text>
</a>
</g>
</g>
<!-- Node3&#45;&gt;Node2 -->
<g id="edge2" class="edge">
<title>Node3&#45;&gt;Node2</title>
<path fill="none" stroke="#9a32cd" stroke-dasharray="5,2" d="M577.99,-602.02C635.87,-577.88 733.64,-537.1 777.95,-518.62"/>
<polygon fill="#9a32cd" stroke="#9a32cd" points="576.59,-598.82 568.71,-605.9 579.29,-605.28 576.59,-598.82"/>
<text text-anchor="middle" x="673" y="-575" font-family="Helvetica,sans-Serif" font-size="10.00"> _ids</text>
</g>
<!-- Node4 -->
<g id="node4" class="node">
<title>Node4</title>
<g id="a_node4"><a xlink:href="../../d6/d02/a01542.html" target="_top" xlink:title=" ">
<polygon fill="none" stroke="black" points="143,-586.5 143,-605.5 289,-605.5 289,-586.5 143,-586.5"/>
<text text-anchor="middle" x="216" y="-593.5" font-family="Helvetica,sans-Serif" font-size="10.00">com.cliffc.aa.util.Ary&lt; E &gt;</text>
</a>
</g>
</g>
<!-- Node4&#45;&gt;Node3 -->
<g id="edge3" class="edge">
<title>Node4&#45;&gt;Node3</title>
<path fill="none" stroke="orange" stroke-dasharray="5,2" d="M256.84,-608.38C272.33,-612.62 290.34,-616.83 307,-619 352.12,-624.88 402.79,-625.79 444.46,-625.06"/>
<polygon fill="orange" stroke="orange" points="257.63,-604.97 247.06,-605.62 255.73,-611.71 257.63,-604.97"/>
<text text-anchor="start" x="318" y="-639" font-family="Helvetica,sans-Serif" font-size="10.00"> &lt; com::cliffc::aa::</text>
<text text-anchor="middle" x="362.5" y="-628" font-family="Helvetica,sans-Serif" font-size="10.00">HM::HM3::Ident &gt;</text>
</g>
<!-- Node12 -->
<g id="node12" class="node">
<title>Node12</title>
<g id="a_node12"><a xlink:href="../../d6/d02/a01542.html" target="_top" xlink:title=" ">
<polygon fill="none" stroke="black" points="455.5,-425 455.5,-455 607.5,-455 607.5,-425 455.5,-425"/>
<text text-anchor="start" x="463.5" y="-443" font-family="Helvetica,sans-Serif" font-size="10.00">com.cliffc.aa.util.Ary</text>
<text text-anchor="middle" x="531.5" y="-432" font-family="Helvetica,sans-Serif" font-size="10.00">&lt; com.cliffc.aa.type.Type &gt;</text>
</a>
</g>
</g>
<!-- Node4&#45;&gt;Node12 -->
<g id="edge14" class="edge">
<title>Node4&#45;&gt;Node12</title>
<path fill="none" stroke="orange" stroke-dasharray="5,2" d="M299.35,-591.39C350.74,-587.76 408.83,-581.98 418,-574 442.56,-552.64 417.2,-529.58 436,-503 451.03,-481.75 475.68,-465.66 496.04,-455.07"/>
<polygon fill="orange" stroke="orange" points="298.91,-587.91 289.18,-592.09 299.39,-594.9 298.91,-587.91"/>
<text text-anchor="start" x="318" y="-604" font-family="Helvetica,sans-Serif" font-size="10.00"> &lt; com::cliffc::aa::</text>
<text text-anchor="middle" x="362.5" y="-593" font-family="Helvetica,sans-Serif" font-size="10.00">type::Type &gt;</text>
</g>
<!-- Node5 -->
<g id="node5" class="node">
<title>Node5</title>
<g id="a_node5"><a xlink:href="../../dd/df4/a02510.html" target="_top" xlink:title=" ">
<polygon fill="none" stroke="black" points="0,-567.5 0,-586.5 83,-586.5 83,-567.5 0,-567.5"/>
<text text-anchor="middle" x="41.5" y="-574.5" font-family="Helvetica,sans-Serif" font-size="10.00">Iterable&lt; E &gt;</text>
</a>
</g>
</g>
<!-- Node5&#45;&gt;Node4 -->
<g id="edge4" class="edge">
<title>Node5&#45;&gt;Node4</title>
<path fill="none" stroke="midnightblue" d="M93.7,-582.64C109.07,-584.33 126.22,-586.22 142.68,-588.03"/>
<polygon fill="midnightblue" stroke="midnightblue" points="93.7,-579.12 83.38,-581.5 92.94,-586.08 93.7,-579.12"/>
</g>
<!-- Node6 -->
<g id="node6" class="node">
<title>Node6</title>
<g id="a_node6"><a xlink:title=" ">
<polygon fill="none" stroke="#bfbfbf" points="26.5,-605.5 26.5,-624.5 56.5,-624.5 56.5,-605.5 26.5,-605.5"/>
<text text-anchor="middle" x="41.5" y="-612.5" font-family="Helvetica,sans-Serif" font-size="10.00">E[]</text>
</a>
</g>
</g>
<!-- Node6&#45;&gt;Node4 -->
<g id="edge5" class="edge">
<title>Node6&#45;&gt;Node4</title>
<path fill="none" stroke="#9a32cd" stroke-dasharray="5,2" d="M66.58,-612.35C86.37,-610.17 115.48,-606.96 142.69,-603.96"/>
<polygon fill="#9a32cd" stroke="#9a32cd" points="66.17,-608.87 56.62,-613.45 66.94,-615.83 66.17,-608.87"/>
<text text-anchor="middle" x="113" y="-611" font-family="Helvetica,sans-Serif" font-size="10.00"> _es</text>
</g>
<!-- Node7 -->
<g id="node7" class="node">
<title>Node7</title>
<g id="a_node7"><a xlink:title=" ">
<polygon fill="none" stroke="#bfbfbf" points="27,-306.5 27,-325.5 56,-325.5 56,-306.5 27,-306.5"/>
<text text-anchor="middle" x="41.5" y="-313.5" font-family="Helvetica,sans-Serif" font-size="10.00">int</text>
</a>
</g>
</g>
<!-- Node7&#45;&gt;Node2 -->
<g id="edge7" class="edge">
<title>Node7&#45;&gt;Node2</title>
<path fill="none" stroke="#9a32cd" stroke-dasharray="5,2" d="M65.3,-326.78C124.8,-354.42 290.28,-428.15 436,-464 531.48,-487.49 644.17,-499 718.81,-504.45"/>
<polygon fill="#9a32cd" stroke="#9a32cd" points="66.6,-323.53 56.06,-322.46 63.64,-329.87 66.6,-323.53"/>
<text text-anchor="middle" x="362.5" y="-473" font-family="Helvetica,sans-Serif" font-size="10.00"> _uid</text>
<text text-anchor="middle" x="362.5" y="-462" font-family="Helvetica,sans-Serif" font-size="10.00">CNT</text>
</g>
<!-- Node7&#45;&gt;Node4 -->
<g id="edge6" class="edge">
<title>Node7&#45;&gt;Node4</title>
<path fill="none" stroke="#9a32cd" stroke-dasharray="5,2" d="M46.23,-335.77C53.29,-370.31 70.71,-443.19 101,-498 115.04,-523.4 121.37,-528.64 143,-548 160.13,-563.33 182.5,-577.48 197.73,-586.39"/>
<polygon fill="#9a32cd" stroke="#9a32cd" points="49.59,-334.74 44.22,-325.61 42.72,-336.1 49.59,-334.74"/>
<text text-anchor="middle" x="113" y="-534" font-family="Helvetica,sans-Serif" font-size="10.00"> _len</text>
</g>
<!-- Node10 -->
<g id="node10" class="node">
<title>Node10</title>
<g id="a_node10"><a xlink:href="../../d0/de2/a01442.html" target="_top" xlink:title="an implementation of language AA">
<polygon fill="none" stroke="black" points="737,-200 737,-230 867,-230 867,-200 737,-200"/>
<text text-anchor="start" x="745" y="-218" font-family="Helvetica,sans-Serif" font-size="10.00">com.cliffc.aa.type.Type</text>
<text text-anchor="middle" x="802" y="-207" font-family="Helvetica,sans-Serif" font-size="10.00">&lt; T extends Type&lt; T &gt;</text>
</a>
</g>
</g>
<!-- Node7&#45;&gt;Node10 -->
<g id="edge23" class="edge">
<title>Node7&#45;&gt;Node10</title>
<path fill="none" stroke="#9a32cd" stroke-dasharray="5,2" d="M52.62,-297.74C68.36,-271.1 101.28,-221.95 143,-196 206.71,-156.38 232.51,-164.95 307,-156 481.06,-135.08 530.88,-132.63 701,-175 724.77,-180.92 750.4,-191.26 769.76,-199.94"/>
<polygon fill="#9a32cd" stroke="#9a32cd" points="49.56,-296.03 47.62,-306.45 55.63,-299.52 49.56,-296.03"/>
<text text-anchor="middle" x="362.5" y="-192" font-family="Helvetica,sans-Serif" font-size="10.00"> RECURSIVE_MEET</text>
<text text-anchor="middle" x="362.5" y="-181" font-family="Helvetica,sans-Serif" font-size="10.00">_uid</text>
<text text-anchor="middle" x="362.5" y="-170" font-family="Helvetica,sans-Serif" font-size="10.00">CNT</text>
<text text-anchor="middle" x="362.5" y="-159" font-family="Helvetica,sans-Serif" font-size="10.00">_hash</text>
</g>
<!-- Node14 -->
<g id="node14" class="node">
<title>Node14</title>
<g id="a_node14"><a xlink:href="../../d8/d22/a01446.html" target="_top" xlink:title=" ">
<polygon fill="none" stroke="black" points="959.5,-207 959.5,-237 1113.5,-237 1113.5,-207 959.5,-207"/>
<text text-anchor="start" x="967.5" y="-225" font-family="Helvetica,sans-Serif" font-size="10.00">com.cliffc.aa.type.Type</text>
<text text-anchor="middle" x="1036.5" y="-214" font-family="Helvetica,sans-Serif" font-size="10.00">&lt; T extends Type&lt; T &gt;.Pool</text>
</a>
</g>
</g>
<!-- Node7&#45;&gt;Node14 -->
<g id="edge18" class="edge">
<title>Node7&#45;&gt;Node14</title>
<path fill="none" stroke="#9a32cd" stroke-dasharray="5,2" d="M43.85,-296.16C49.75,-226.89 79.42,0 215,0 215,0 215,0 803,0 922.99,0 1005.43,-156.58 1028.75,-206.74"/>
<polygon fill="#9a32cd" stroke="#9a32cd" points="40.36,-295.96 43.08,-306.2 47.34,-296.5 40.36,-295.96"/>
<text text-anchor="middle" x="531.5" y="-36" font-family="Helvetica,sans-Serif" font-size="10.00"> _free</text>
<text text-anchor="middle" x="531.5" y="-25" font-family="Helvetica,sans-Serif" font-size="10.00">_pool</text>
<text text-anchor="middle" x="531.5" y="-14" font-family="Helvetica,sans-Serif" font-size="10.00">_malloc</text>
<text text-anchor="middle" x="531.5" y="-3" font-family="Helvetica,sans-Serif" font-size="10.00">_clone</text>
</g>
<!-- Node8 -->
<g id="node8" class="node">
<title>Node8</title>
<g id="a_node8"><a xlink:title=" ">
<polygon fill="none" stroke="#bfbfbf" points="436,-512.5 436,-553.5 627,-553.5 627,-512.5 436,-512.5"/>
<text text-anchor="start" x="444" y="-541.5" font-family="Helvetica,sans-Serif" font-size="10.00">HashMap&lt; com.cliffc.aa.HM.</text>
<text text-anchor="start" x="444" y="-530.5" font-family="Helvetica,sans-Serif" font-size="10.00">HM3.HMVar, com.cliffc.aa.HM.HM3.</text>
<text text-anchor="middle" x="531.5" y="-519.5" font-family="Helvetica,sans-Serif" font-size="10.00">HMVar &gt;</text>
</a>
</g>
</g>
<!-- Node8&#45;&gt;Node2 -->
<g id="edge9" class="edge">
<title>Node8&#45;&gt;Node2</title>
<path fill="none" stroke="#9a32cd" stroke-dasharray="5,2" d="M637.42,-523.62C664.43,-521.21 693.11,-518.64 718.78,-516.35"/>
<polygon fill="#9a32cd" stroke="#9a32cd" points="636.81,-520.16 627.16,-524.54 637.43,-527.13 636.81,-520.16"/>
<text text-anchor="middle" x="673" y="-526" font-family="Helvetica,sans-Serif" font-size="10.00"> EQS</text>
</g>
<!-- Node9 -->
<g id="node9" class="node">
<title>Node9</title>
<g id="a_node9"><a xlink:title=" ">
<polygon fill="none" stroke="#bfbfbf" points="185,-519.5 185,-538.5 247,-538.5 247,-519.5 185,-519.5"/>
<text text-anchor="middle" x="216" y="-526.5" font-family="Helvetica,sans-Serif" font-size="10.00">HashMap</text>
</a>
</g>
</g>
<!-- Node9&#45;&gt;Node8 -->
<g id="edge10" class="edge">
<title>Node9&#45;&gt;Node8</title>
<path fill="none" stroke="orange" stroke-dasharray="5,2" d="M257.35,-528.94C297.93,-528.95 362.31,-529.12 418,-530 423.86,-530.09 429.89,-530.2 435.98,-530.33"/>
<polygon fill="orange" stroke="orange" points="257.31,-525.44 247.31,-528.95 257.31,-532.44 257.31,-525.44"/>
<text text-anchor="start" x="307" y="-566" font-family="Helvetica,sans-Serif" font-size="10.00"> &lt; com::cliffc::aa::</text>
<text text-anchor="start" x="307" y="-555" font-family="Helvetica,sans-Serif" font-size="10.00">HM::HM3::HMVar, com</text>
<text text-anchor="start" x="307" y="-544" font-family="Helvetica,sans-Serif" font-size="10.00">::cliffc::aa::HM::HM3</text>
<text text-anchor="middle" x="362.5" y="-533" font-family="Helvetica,sans-Serif" font-size="10.00">::HMVar &gt;</text>
</g>
<!-- Node10&#45;&gt;Node1 -->
<g id="edge11" class="edge">
<title>Node10&#45;&gt;Node1</title>
<path fill="none" stroke="#9a32cd" stroke-dasharray="5,2" d="M866.56,-232.77C910.04,-244.93 966,-260.57 1001.32,-270.44"/>
<polygon fill="#9a32cd" stroke="#9a32cd" points="867.5,-229.4 856.92,-230.08 865.61,-236.14 867.5,-229.4"/>
<text text-anchor="middle" x="921" y="-255" font-family="Helvetica,sans-Serif" font-size="10.00"> _t</text>
</g>
<!-- Node10&#45;&gt;Node10 -->
<g id="edge24" class="edge">
<title>Node10&#45;&gt;Node10</title>
<path fill="none" stroke="#9a32cd" stroke-dasharray="5,2" d="M781.03,-240.46C783.64,-245.18 790.62,-248.5 802,-248.5 820.67,-248.5 827.52,-239.56 822.56,-230.16"/>
<polygon fill="#9a32cd" stroke="#9a32cd" points="784.54,-240.29 781.44,-230.16 777.55,-240.01 784.54,-240.29"/>
<text text-anchor="middle" x="802" y="-361.5" font-family="Helvetica,sans-Serif" font-size="10.00"> XREAL</text>
<text text-anchor="middle" x="802" y="-350.5" font-family="Helvetica,sans-Serif" font-size="10.00">TYPES</text>
<text text-anchor="middle" x="802" y="-339.5" font-family="Helvetica,sans-Serif" font-size="10.00">XNREAL</text>
<text text-anchor="middle" x="802" y="-328.5" font-family="Helvetica,sans-Serif" font-size="10.00">XSCALAR</text>
<text text-anchor="middle" x="802" y="-317.5" font-family="Helvetica,sans-Serif" font-size="10.00">NREAL</text>
<text text-anchor="middle" x="802" y="-306.5" font-family="Helvetica,sans-Serif" font-size="10.00">ANY</text>
<text text-anchor="middle" x="802" y="-295.5" font-family="Helvetica,sans-Serif" font-size="10.00">NSCALR</text>
<text text-anchor="middle" x="802" y="-284.5" font-family="Helvetica,sans-Serif" font-size="10.00">XNIL</text>
<text text-anchor="middle" x="802" y="-273.5" font-family="Helvetica,sans-Serif" font-size="10.00">CTRL</text>
<text text-anchor="middle" x="802" y="-262.5" font-family="Helvetica,sans-Serif" font-size="10.00">SCALAR</text>
<text text-anchor="middle" x="802" y="-251.5" font-family="Helvetica,sans-Serif" font-size="10.00">...</text>
</g>
<!-- Node10&#45;&gt;Node14 -->
<g id="edge19" class="edge">
<title>Node10&#45;&gt;Node14</title>
<path fill="none" stroke="#9a32cd" stroke-dasharray="5,2" d="M877.06,-204.36C897.16,-202.74 918.92,-202.14 939,-204 946.81,-204.72 954.92,-205.77 962.99,-206.99"/>
<polygon fill="#9a32cd" stroke="#9a32cd" points="876.67,-200.88 867.02,-205.26 877.3,-207.85 876.67,-200.88"/>
<text text-anchor="middle" x="921" y="-207" font-family="Helvetica,sans-Serif" font-size="10.00"> _gold</text>
</g>
<!-- Node11 -->
<g id="node11" class="node">
<title>Node11</title>
<g id="a_node11"><a xlink:href="../../d9/d76/a02526.html" target="_top" xlink:title=" ">
<polygon fill="none" stroke="black" points="499,-386.5 499,-405.5 564,-405.5 564,-386.5 499,-386.5"/>
<text text-anchor="middle" x="531.5" y="-393.5" font-family="Helvetica,sans-Serif" font-size="10.00">Cloneable</text>
</a>
</g>
</g>
<!-- Node11&#45;&gt;Node10 -->
<g id="edge12" class="edge">
<title>Node11&#45;&gt;Node10</title>
<path fill="none" stroke="midnightblue" d="M574.26,-402.59C610.52,-406.11 663.02,-405.66 701,-382 758.51,-346.18 787.28,-264.03 797.05,-230.09"/>
<polygon fill="midnightblue" stroke="midnightblue" points="574.35,-399.08 564.03,-401.46 573.58,-406.04 574.35,-399.08"/>
</g>
<!-- Node12&#45;&gt;Node10 -->
<g id="edge13" class="edge">
<title>Node12&#45;&gt;Node10</title>
<path fill="none" stroke="#9a32cd" stroke-dasharray="5,2" d="M617.75,-429.68C652.35,-424.1 687.37,-416.23 701,-406 761.92,-360.28 789.18,-266.55 797.79,-230.04"/>
<polygon fill="#9a32cd" stroke="#9a32cd" points="616.89,-426.27 607.54,-431.26 617.96,-433.19 616.89,-426.27"/>
<text text-anchor="middle" x="673" y="-428" font-family="Helvetica,sans-Serif" font-size="10.00"> ALL_TYPES</text>
</g>
<!-- Node12&#45;&gt;Node14 -->
<g id="edge17" class="edge">
<title>Node12&#45;&gt;Node14</title>
<path fill="none" stroke="#9a32cd" stroke-dasharray="5,2" d="M617.84,-446.65C695.55,-448.11 809.38,-438.17 885,-378 932.78,-339.99 911.92,-302.18 957,-261 967.79,-251.15 981.52,-243.2 994.48,-237.11"/>
<polygon fill="#9a32cd" stroke="#9a32cd" points="617.68,-443.15 607.6,-446.39 617.5,-450.14 617.68,-443.15"/>
<text text-anchor="middle" x="802" y="-444" font-family="Helvetica,sans-Serif" font-size="10.00"> _frees</text>
</g>
<!-- Node13 -->
<g id="node13" class="node">
<title>Node13</title>
<g id="a_node13"><a xlink:title=" ">
<polygon fill="none" stroke="#bfbfbf" points="509,-348.5 509,-367.5 554,-367.5 554,-348.5 509,-348.5"/>
<text text-anchor="middle" x="531.5" y="-355.5" font-family="Helvetica,sans-Serif" font-size="10.00">String</text>
</a>
</g>
</g>
<!-- Node13&#45;&gt;Node10 -->
<g id="edge15" class="edge">
<title>Node13&#45;&gt;Node10</title>
<path fill="none" stroke="#9a32cd" stroke-dasharray="5,2" d="M564.55,-360.81C600.13,-362.45 658.19,-360.61 701,-337 746.56,-311.87 779.58,-256.84 793.57,-230.13"/>
<polygon fill="#9a32cd" stroke="#9a32cd" points="564.45,-357.3 554.27,-360.21 564.05,-364.28 564.45,-357.3"/>
<text text-anchor="middle" x="673" y="-370" font-family="Helvetica,sans-Serif" font-size="10.00"> STRS</text>
<text text-anchor="middle" x="673" y="-359" font-family="Helvetica,sans-Serif" font-size="10.00">_name</text>
</g>
<!-- Node14&#45;&gt;Node10 -->
<g id="edge16" class="edge">
<title>Node14&#45;&gt;Node10</title>
<path fill="none" stroke="#9a32cd" stroke-dasharray="5,2" d="M948.92,-219.39C921.82,-218.58 892.41,-217.69 867.15,-216.93"/>
<polygon fill="#9a32cd" stroke="#9a32cd" points="949.08,-222.9 959.18,-219.7 949.29,-215.9 949.08,-222.9"/>
<text text-anchor="middle" x="921" y="-222" font-family="Helvetica,sans-Serif" font-size="10.00"> POOLS</text>
</g>
<!-- Node15 -->
<g id="node15" class="node">
<title>Node15</title>
<g id="a_node15"><a xlink:title=" ">
<polygon fill="none" stroke="#bfbfbf" points="512.5,-236.5 512.5,-255.5 550.5,-255.5 550.5,-236.5 512.5,-236.5"/>
<text text-anchor="middle" x="531.5" y="-243.5" font-family="Helvetica,sans-Serif" font-size="10.00">byte</text>
</a>
</g>
</g>
<!-- Node15&#45;&gt;Node10 -->
<g id="edge20" class="edge">
<title>Node15&#45;&gt;Node10</title>
<path fill="none" stroke="#9a32cd" stroke-dasharray="5,2" d="M560.72,-242.95C579.89,-240.26 605.57,-235.4 627,-227 635.73,-223.58 635.98,-218.57 645,-216 674.43,-207.62 708.28,-206.44 736.9,-207.74"/>
<polygon fill="#9a32cd" stroke="#9a32cd" points="560.26,-239.48 550.8,-244.24 561.16,-246.42 560.26,-239.48"/>
<text text-anchor="middle" x="673" y="-329" font-family="Helvetica,sans-Serif" font-size="10.00"> TMEM</text>
<text text-anchor="middle" x="673" y="-318" font-family="Helvetica,sans-Serif" font-size="10.00">TRPC</text>
<text text-anchor="middle" x="673" y="-307" font-family="Helvetica,sans-Serif" font-size="10.00">TSIMPLE</text>
<text text-anchor="middle" x="673" y="-296" font-family="Helvetica,sans-Serif" font-size="10.00">TXREAL</text>
<text text-anchor="middle" x="673" y="-285" font-family="Helvetica,sans-Serif" font-size="10.00">TSCALAR</text>
<text text-anchor="middle" x="673" y="-274" font-family="Helvetica,sans-Serif" font-size="10.00">TSTRUCT</text>
<text text-anchor="middle" x="673" y="-263" font-family="Helvetica,sans-Serif" font-size="10.00">TOBJ</text>
<text text-anchor="middle" x="673" y="-252" font-family="Helvetica,sans-Serif" font-size="10.00">_type</text>
<text text-anchor="middle" x="673" y="-241" font-family="Helvetica,sans-Serif" font-size="10.00">TARY</text>
<text text-anchor="middle" x="673" y="-230" font-family="Helvetica,sans-Serif" font-size="10.00">TTUPLE</text>
<text text-anchor="middle" x="673" y="-219" font-family="Helvetica,sans-Serif" font-size="10.00">...</text>
</g>
<!-- Node16 -->
<g id="node16" class="node">
<title>Node16</title>
<g id="a_node16"><a xlink:title=" ">
<polygon fill="none" stroke="#bfbfbf" points="460,-176.5 460,-217.5 603,-217.5 603,-176.5 460,-176.5"/>
<text text-anchor="start" x="468" y="-205.5" font-family="Helvetica,sans-Serif" font-size="10.00">ConcurrentHashMap&lt;</text>
<text text-anchor="start" x="468" y="-194.5" font-family="Helvetica,sans-Serif" font-size="10.00"> com.cliffc.aa.type.Type,</text>
<text text-anchor="middle" x="531.5" y="-183.5" font-family="Helvetica,sans-Serif" font-size="10.00"> com.cliffc.aa.type.Type &gt;</text>
</a>
</g>
</g>
<!-- Node16&#45;&gt;Node10 -->
<g id="edge21" class="edge">
<title>Node16&#45;&gt;Node10</title>
<path fill="none" stroke="#9a32cd" stroke-dasharray="5,2" d="M613.38,-181.69C641.25,-178.56 672.59,-177.43 701,-182 722.66,-185.48 745.99,-192.95 764.66,-199.9"/>
<polygon fill="#9a32cd" stroke="#9a32cd" points="612.78,-178.24 603.28,-182.93 613.63,-185.18 612.78,-178.24"/>
<text text-anchor="middle" x="673" y="-185" font-family="Helvetica,sans-Serif" font-size="10.00"> INTERN</text>
</g>
<!-- Node17 -->
<g id="node17" class="node">
<title>Node17</title>
<g id="a_node17"><a xlink:title=" ">
<polygon fill="none" stroke="#bfbfbf" points="158,-205.5 158,-224.5 274,-224.5 274,-205.5 158,-205.5"/>
<text text-anchor="middle" x="216" y="-212.5" font-family="Helvetica,sans-Serif" font-size="10.00">ConcurrentHashMap</text>
</a>
</g>
</g>
<!-- Node17&#45;&gt;Node16 -->
<g id="edge22" class="edge">
<title>Node17&#45;&gt;Node16</title>
<path fill="none" stroke="orange" stroke-dasharray="5,2" d="M284.2,-211.14C335.91,-208.17 407.17,-204.08 459.74,-201.06"/>
<polygon fill="orange" stroke="orange" points="283.92,-207.65 274.14,-211.72 284.32,-214.64 283.92,-207.65"/>
<text text-anchor="start" x="309" y="-235" font-family="Helvetica,sans-Serif" font-size="10.00"> &lt; com::cliffc::aa::</text>
<text text-anchor="start" x="309" y="-224" font-family="Helvetica,sans-Serif" font-size="10.00">type::Type, com::cliffc</text>
<text text-anchor="middle" x="362.5" y="-213" font-family="Helvetica,sans-Serif" font-size="10.00">::aa::type::Type &gt;</text>
</g>
<!-- Node18 -->
<g id="node18" class="node">
<title>Node18</title>
<g id="a_node18"><a xlink:title=" ">
<polygon fill="none" stroke="#bfbfbf" points="517,-100.5 517,-119.5 546,-119.5 546,-100.5 517,-100.5"/>
<text text-anchor="middle" x="531.5" y="-107.5" font-family="Helvetica,sans-Serif" font-size="10.00">T</text>
</a>
</g>
</g>
<!-- Node18&#45;&gt;Node10 -->
<g id="edge25" class="edge">
<title>Node18&#45;&gt;Node10</title>
<path fill="none" stroke="#9a32cd" stroke-dasharray="5,2" d="M556.62,-107.08C590.43,-104.02 653.14,-102.18 701,-123 739.94,-139.94 773.56,-178.54 790.09,-199.97"/>
<polygon fill="#9a32cd" stroke="#9a32cd" points="555.92,-103.63 546.33,-108.13 556.63,-110.59 555.92,-103.63"/>
<text text-anchor="middle" x="673" y="-126" font-family="Helvetica,sans-Serif" font-size="10.00"> _dual</text>
</g>
<!-- Node19 -->
<g id="node19" class="node">
<title>Node19</title>
<g id="a_node19"><a xlink:href="../../d7/df2/a02322.html" target="_top" xlink:title=" ">
<polygon fill="none" stroke="black" points="503.5,-62.5 503.5,-81.5 559.5,-81.5 559.5,-62.5 503.5,-62.5"/>
<text text-anchor="middle" x="531.5" y="-69.5" font-family="Helvetica,sans-Serif" font-size="10.00">Type&lt; T</text>
</a>
</g>
</g>
<!-- Node19&#45;&gt;Node10 -->
<g id="edge26" class="edge">
<title>Node19&#45;&gt;Node10</title>
<path fill="none" stroke="orange" stroke-dasharray="5,2" d="M569.8,-69.29C605.64,-68.36 660.23,-71.46 701,-94 746.08,-118.92 779.1,-173 793.3,-199.59"/>
<polygon fill="orange" stroke="orange" points="569.62,-65.79 559.76,-69.67 569.89,-72.79 569.62,-65.79"/>
<text text-anchor="middle" x="673" y="-97" font-family="Helvetica,sans-Serif" font-size="10.00"> T</text>
</g>
</g>
</svg>
        <g id="navigator" transform="translate(0 0)" fill="#404254">
                <rect fill="#f2f5e9" fill-opacity="0.5" stroke="#606060" stroke-width=".5" x="0" y="0" width="60" height="60"/>
                <use id="zoomplus" xlink:href="#zoomPlus" x="17" y="9" onmousedown="handleZoom(evt,'in')"/>
                <use id="zoomminus" xlink:href="#zoomMin" x="42" y="9" onmousedown="handleZoom(evt,'out')"/>
                <use id="reset" xlink:href="#resetDef" x="30" y="36" onmousedown="handleReset()"/>
                <g id="arrowUp" xlink:href="#dirArrow" transform="translate(30 24)" onmousedown="handlePan(0,-1)">
                  <use xlink:href="#rim" fill="#404040">
                        <set attributeName="fill" to="#808080" begin="arrowUp.mouseover" end="arrowUp.mouseout"/>
                  </use>
                  <path fill="none" stroke="white" stroke-width="1.5" d="M0,-3.0v7 M-2.5,-0.5L0,-3.0L2.5,-0.5"/>
                </g>
                <g id="arrowRight" xlink:href="#dirArrow" transform="rotate(90) translate(36 -43)" onmousedown="handlePan(1,0)">
                  <use xlink:href="#rim" fill="#404040">
                        <set attributeName="fill" to="#808080" begin="arrowRight.mouseover" end="arrowRight.mouseout"/>
                  </use>
                  <path fill="none" stroke="white" stroke-width="1.5" d="M0,-3.0v7 M-2.5,-0.5L0,-3.0L2.5,-0.5"/>
                </g>
                <g id="arrowDown" xlink:href="#dirArrow" transform="rotate(180) translate(-30 -48)" onmousedown="handlePan(0,1)">
                  <use xlink:href="#rim" fill="#404040">
                        <set attributeName="fill" to="#808080" begin="arrowDown.mouseover" end="arrowDown.mouseout"/>
                  </use>
                  <path fill="none" stroke="white" stroke-width="1.5" d="M0,-3.0v7 M-2.5,-0.5L0,-3.0L2.5,-0.5"/>
                </g>
                <g id="arrowLeft" xlink:href="#dirArrow" transform="rotate(270) translate(-36 17)" onmousedown="handlePan(-1,0)">
                  <use xlink:href="#rim" fill="#404040">
                        <set attributeName="fill" to="#808080" begin="arrowLeft.mouseover" end="arrowLeft.mouseout"/>
                  </use>
                  <path fill="none" stroke="white" stroke-width="1.5" d="M0,-3.0v7 M-2.5,-0.5L0,-3.0L2.5,-0.5"/>
                </g>
        </g>
        <svg viewBox="0 0 15 15" width="100%" height="30px" preserveAspectRatio="xMaxYMin meet">
         <g id="arrow_out" transform="scale(0.3 0.3)">
          <a xlink:href="a00644_org.svg" target="_base">
           <rect id="button" ry="5" rx="5" y="6" x="6" height="38" width="38"
                fill="#f2f5e9" fill-opacity="0.5" stroke="#606060" stroke-width="1.0"/>
           <path id="arrow"
             d="M 11.500037,31.436501 C 11.940474,20.09759 22.043105,11.32322 32.158766,21.979434 L 37.068811,17.246167 C 37.068811,17.246167 37.088388,32 37.088388,32 L 22.160133,31.978069 C 22.160133,31.978069 26.997745,27.140456 26.997745,27.140456 C 18.528582,18.264221 13.291696,25.230495 11.500037,31.436501 z"
             style="fill:#404040;"/>
          </a>
         </g>
        </svg>
</svg>
