<?xml version="1.0" encoding="UTF-8" standalone="no"?>
<!DOCTYPE svg PUBLIC "-//W3C//DTD SVG 1.1//EN"
 "http://www.w3.org/Graphics/SVG/1.1/DTD/svg11.dtd">
<!-- Generated by graphviz version 2.43.0 (0)
 -->
<!-- Title: com.cliffc.aa.HM.HM8.Lambda.targ Pages: 1 -->
<svg width="448pt" height="104pt"
 viewBox="0.00 0.00 448.00 104.00" xmlns="http://www.w3.org/2000/svg" xmlns:xlink="http://www.w3.org/1999/xlink">
<g id="graph0" class="graph" transform="scale(1 1) rotate(0) translate(4 100)">
<title>com.cliffc.aa.HM.HM8.Lambda.targ</title>
<!-- Node1 -->
<g id="node1" class="node">
<title>Node1</title>
<g id="a_node1"><a xlink:title=" ">
<polygon fill="#bfbfbf" stroke="black" points="252,-38.5 252,-57.5 440,-57.5 440,-38.5 252,-38.5"/>
<text text-anchor="middle" x="346" y="-45.5" font-family="Helvetica,sans-Serif" font-size="10.00">com.cliffc.aa.HM.HM8.Lambda.targ</text>
</a>
</g>
</g>
<!-- Node1&#45;&gt;Node1 -->
<g id="edge4" class="edge">
<title>Node1&#45;&gt;Node1</title>
<path fill="none" stroke="midnightblue" d="M390.39,-64.22C392.7,-70.63 377.9,-76 346,-76 303.47,-76 291.34,-66.46 309.61,-57.61"/>
<polygon fill="midnightblue" stroke="midnightblue" points="392.33,-61.28 382.39,-57.61 387.87,-66.68 392.33,-61.28"/>
</g>
<!-- Node2 -->
<g id="node2" class="node">
<title>Node2</title>
<g id="a_node2"><a xlink:href="../../dd/db2/a00866.html#acaf9a8d3f3ce4fc288cadb7efcc608a0" target="_top" xlink:title=" ">
<polygon fill="none" stroke="black" points="0,-76.5 0,-95.5 216,-95.5 216,-76.5 0,-76.5"/>
<text text-anchor="middle" x="108" y="-83.5" font-family="Helvetica,sans-Serif" font-size="10.00">com.cliffc.aa.HM.HM8.Lambda.add_work</text>
</a>
</g>
</g>
<!-- Node1&#45;&gt;Node2 -->
<g id="edge1" class="edge">
<title>Node1&#45;&gt;Node2</title>
<path fill="none" stroke="midnightblue" d="M275.85,-59.13C241.72,-64.63 200.96,-71.19 168.27,-76.46"/>
<polygon fill="midnightblue" stroke="midnightblue" points="276.44,-62.59 285.75,-57.54 275.32,-55.67 276.44,-62.59"/>
</g>
<!-- Node3 -->
<g id="node3" class="node">
<title>Node3</title>
<g id="a_node3"><a xlink:href="../../dd/db2/a00866.html#aa141b441782beb536aaf8338accc0e88" target="_top" xlink:title=" ">
<polygon fill="none" stroke="black" points="15.5,-38.5 15.5,-57.5 200.5,-57.5 200.5,-38.5 15.5,-38.5"/>
<text text-anchor="middle" x="108" y="-45.5" font-family="Helvetica,sans-Serif" font-size="10.00">com.cliffc.aa.HM.HM8.Lambda.hm</text>
</a>
</g>
</g>
<!-- Node1&#45;&gt;Node3 -->
<g id="edge2" class="edge">
<title>Node1&#45;&gt;Node3</title>
<path fill="none" stroke="midnightblue" d="M241.45,-48C227.92,-48 214.14,-48 200.82,-48"/>
<polygon fill="midnightblue" stroke="midnightblue" points="241.73,-51.5 251.73,-48 241.73,-44.5 241.73,-51.5"/>
</g>
<!-- Node4 -->
<g id="node4" class="node">
<title>Node4</title>
<g id="a_node4"><a xlink:href="../../dd/db2/a00866.html#a0eee5e83585053b27f947cd6651ad4f0" target="_top" xlink:title=" ">
<polygon fill="none" stroke="black" points="7.5,-0.5 7.5,-19.5 208.5,-19.5 208.5,-0.5 7.5,-0.5"/>
<text text-anchor="middle" x="108" y="-7.5" font-family="Helvetica,sans-Serif" font-size="10.00">com.cliffc.aa.HM.HM8.Lambda.lookup</text>
</a>
</g>
</g>
<!-- Node1&#45;&gt;Node4 -->
<g id="edge3" class="edge">
<title>Node1&#45;&gt;Node4</title>
<path fill="none" stroke="midnightblue" d="M275.85,-36.87C241.72,-31.37 200.96,-24.81 168.27,-19.54"/>
<polygon fill="midnightblue" stroke="midnightblue" points="275.32,-40.33 285.75,-38.46 276.44,-33.41 275.32,-40.33"/>
</g>
</g>
</svg>
