<?xml version="1.0" encoding="UTF-8" standalone="no"?>
<!DOCTYPE svg PUBLIC "-//W3C//DTD SVG 1.1//EN"
 "http://www.w3.org/Graphics/SVG/1.1/DTD/svg11.dtd">
<!-- Generated by graphviz version 2.43.0 (0)
 -->
<!-- Title: com.cliffc.aa.HM.HM8.Lambda.prep_lookup_deps Pages: 1 -->
<svg width="400pt" height="96pt"
 viewBox="0.00 0.00 400.00 95.50" xmlns="http://www.w3.org/2000/svg" xmlns:xlink="http://www.w3.org/1999/xlink">
<g id="graph0" class="graph" transform="scale(1 1) rotate(0) translate(4 91.5)">
<title>com.cliffc.aa.HM.HM8.Lambda.prep_lookup_deps</title>
<!-- Node1 -->
<g id="node1" class="node">
<title>Node1</title>
<g id="a_node1"><a xlink:title=" ">
<polygon fill="#bfbfbf" stroke="black" points="0,-31.5 0,-61.5 191,-61.5 191,-31.5 0,-31.5"/>
<text text-anchor="start" x="8" y="-49.5" font-family="Helvetica,sans-Serif" font-size="10.00">com.cliffc.aa.HM.HM8.Lambda.prep</text>
<text text-anchor="middle" x="95.5" y="-38.5" font-family="Helvetica,sans-Serif" font-size="10.00">_lookup_deps</text>
</a>
</g>
</g>
<!-- Node2 -->
<g id="node2" class="node">
<title>Node2</title>
<g id="a_node2"><a xlink:href="../../dd/d55/a01638.html#a3975ba7dca9fe2d6e4992b2b5558f882" target="_top" xlink:title=" ">
<polygon fill="none" stroke="black" points="243,-68 243,-87 376,-87 376,-68 243,-68"/>
<text text-anchor="middle" x="309.5" y="-75" font-family="Helvetica,sans-Serif" font-size="10.00">com.cliffc.aa.util.Util.eq</text>
</a>
</g>
</g>
<!-- Node1&#45;&gt;Node2 -->
<g id="edge1" class="edge">
<title>Node1&#45;&gt;Node2</title>
<path fill="none" stroke="midnightblue" d="M191.03,-60.32C205.11,-62.38 219.46,-64.48 233.07,-66.47"/>
<polygon fill="midnightblue" stroke="midnightblue" points="232.92,-69.99 243.33,-67.97 233.94,-63.06 232.92,-69.99"/>
</g>
<!-- Node3 -->
<g id="node3" class="node">
<title>Node3</title>
<g id="a_node3"><a xlink:href="../../d2/dab/a00886.html#a4eb1b4d113f8b9286117466168d1cf1d" target="_top" xlink:title=" ">
<polygon fill="none" stroke="black" points="227,-0.5 227,-30.5 392,-30.5 392,-0.5 227,-0.5"/>
<text text-anchor="start" x="235" y="-18.5" font-family="Helvetica,sans-Serif" font-size="10.00">com.cliffc.aa.HM.HM8.T2.push</text>
<text text-anchor="middle" x="309.5" y="-7.5" font-family="Helvetica,sans-Serif" font-size="10.00">_update</text>
</a>
</g>
</g>
<!-- Node1&#45;&gt;Node3 -->
<g id="edge2" class="edge">
<title>Node1&#45;&gt;Node3</title>
<path fill="none" stroke="midnightblue" d="M191.03,-32.68C199.6,-31.42 208.27,-30.16 216.82,-28.91"/>
<polygon fill="midnightblue" stroke="midnightblue" points="217.39,-32.36 226.78,-27.45 216.38,-25.43 217.39,-32.36"/>
</g>
<!-- Node3&#45;&gt;Node3 -->
<g id="edge3" class="edge">
<title>Node3&#45;&gt;Node3</title>
<path fill="none" stroke="midnightblue" d="M272.21,-30.66C263.21,-40.06 275.64,-49 309.5,-49 330.13,-49 342.81,-45.68 347.53,-40.96"/>
<polygon fill="midnightblue" stroke="midnightblue" points="350.99,-40.39 346.79,-30.66 344.01,-40.88 350.99,-40.39"/>
</g>
</g>
</svg>
