<?xml version="1.0" encoding="UTF-8" standalone="no"?>
<!DOCTYPE svg PUBLIC "-//W3C//DTD SVG 1.1//EN"
 "http://www.w3.org/Graphics/SVG/1.1/DTD/svg11.dtd">
<!-- Generated by graphviz version 2.43.0 (0)
 -->
<!-- Title: com.cliffc.aa.HM.HM8.Lambda.p2 Pages: 1 -->
<svg width="1584pt" height="564pt"
 viewBox="0.00 0.00 1584.00 564.00" xmlns="http://www.w3.org/2000/svg" xmlns:xlink="http://www.w3.org/1999/xlink">
<g id="graph0" class="graph" transform="scale(1 1) rotate(0) translate(4 560)">
<title>com.cliffc.aa.HM.HM8.Lambda.p2</title>
<!-- Node1 -->
<g id="node1" class="node">
<title>Node1</title>
<g id="a_node1"><a xlink:title=" ">
<polygon fill="#bfbfbf" stroke="black" points="0,-384.5 0,-403.5 181,-403.5 181,-384.5 0,-384.5"/>
<text text-anchor="middle" x="90.5" y="-391.5" font-family="Helvetica,sans-Serif" font-size="10.00">com.cliffc.aa.HM.HM8.Lambda.p2</text>
</a>
</g>
</g>
<!-- Node2 -->
<g id="node2" class="node">
<title>Node2</title>
<g id="a_node2"><a xlink:href="../../d6/d2f/a00854.html#a6964a8439e782f004cd2bfa28fada2fe" target="_top" xlink:title=" ">
<polygon fill="none" stroke="black" points="217,-384.5 217,-403.5 393,-403.5 393,-384.5 217,-384.5"/>
<text text-anchor="middle" x="305" y="-391.5" font-family="Helvetica,sans-Serif" font-size="10.00">com.cliffc.aa.HM.HM8.Syntax.p0</text>
</a>
</g>
</g>
<!-- Node1&#45;&gt;Node2 -->
<g id="edge1" class="edge">
<title>Node1&#45;&gt;Node2</title>
<path fill="none" stroke="midnightblue" d="M181,-394C189.56,-394 198.27,-394 206.9,-394"/>
<polygon fill="midnightblue" stroke="midnightblue" points="206.98,-397.5 216.98,-394 206.98,-390.5 206.98,-397.5"/>
</g>
<!-- Node3 -->
<g id="node3" class="node">
<title>Node3</title>
<g id="a_node3"><a xlink:href="../../d4/d99/a01634.html#abfac42eaf89db4481f58c14568dfb131" target="_top" xlink:title=" ">
<polygon fill="none" stroke="black" points="459.5,-498.5 459.5,-517.5 584.5,-517.5 584.5,-498.5 459.5,-498.5"/>
<text text-anchor="middle" x="522" y="-505.5" font-family="Helvetica,sans-Serif" font-size="10.00">com.cliffc.aa.util.SB.di</text>
</a>
</g>
</g>
<!-- Node2&#45;&gt;Node3 -->
<g id="edge2" class="edge">
<title>Node2&#45;&gt;Node3</title>
<path fill="none" stroke="midnightblue" d="M315.18,-403.57C334.37,-422.96 380.94,-466.92 429,-489 435.52,-492 442.52,-494.52 449.63,-496.65"/>
<polygon fill="midnightblue" stroke="midnightblue" points="448.81,-500.06 459.38,-499.32 450.66,-493.31 448.81,-500.06"/>
</g>
<!-- Node5 -->
<g id="node5" class="node">
<title>Node5</title>
<g id="a_node5"><a xlink:href="../../d2/dab/a00886.html#a27032417a3a7591a991de291c952b8c9" target="_top" xlink:title=" ">
<polygon fill="none" stroke="black" points="429,-308.5 429,-327.5 615,-327.5 615,-308.5 429,-308.5"/>
<text text-anchor="middle" x="522" y="-315.5" font-family="Helvetica,sans-Serif" font-size="10.00">com.cliffc.aa.HM.HM8.T2.get_dups</text>
</a>
</g>
</g>
<!-- Node2&#45;&gt;Node5 -->
<g id="edge5" class="edge">
<title>Node2&#45;&gt;Node5</title>
<path fill="none" stroke="midnightblue" d="M326.11,-384.43C350.18,-373.23 391.9,-354.61 429,-342 441.83,-337.64 455.89,-333.61 469.07,-330.14"/>
<polygon fill="midnightblue" stroke="midnightblue" points="470.13,-333.49 478.94,-327.61 468.39,-326.71 470.13,-333.49"/>
</g>
<!-- Node12 -->
<g id="node12" class="node">
<title>Node12</title>
<g id="a_node12"><a xlink:href="../../d4/d99/a01634.html#af4644d310d3f2b8504bb25573f9d528e" target="_top" xlink:title=" ">
<polygon fill="none" stroke="black" points="462.5,-460.5 462.5,-479.5 581.5,-479.5 581.5,-460.5 462.5,-460.5"/>
<text text-anchor="middle" x="522" y="-467.5" font-family="Helvetica,sans-Serif" font-size="10.00">com.cliffc.aa.util.SB.i</text>
</a>
</g>
</g>
<!-- Node2&#45;&gt;Node12 -->
<g id="edge12" class="edge">
<title>Node2&#45;&gt;Node12</title>
<path fill="none" stroke="midnightblue" d="M326.11,-403.57C350.18,-414.77 391.9,-433.39 429,-446 441.83,-450.36 455.89,-454.39 469.07,-457.86"/>
<polygon fill="midnightblue" stroke="midnightblue" points="468.39,-461.29 478.94,-460.39 470.13,-454.51 468.39,-461.29"/>
</g>
<!-- Node13 -->
<g id="node13" class="node">
<title>Node13</title>
<g id="a_node13"><a xlink:href="../../d4/d99/a01634.html#ac801338e82849a7fe2ae7a0feb80bb55" target="_top" xlink:title=" ">
<polygon fill="none" stroke="black" points="1063.5,-460.5 1063.5,-479.5 1185.5,-479.5 1185.5,-460.5 1063.5,-460.5"/>
<text text-anchor="middle" x="1124.5" y="-467.5" font-family="Helvetica,sans-Serif" font-size="10.00">com.cliffc.aa.util.SB.p</text>
</a>
</g>
</g>
<!-- Node2&#45;&gt;Node13 -->
<g id="edge20" class="edge">
<title>Node2&#45;&gt;Node13</title>
<path fill="none" stroke="midnightblue" d="M387.02,-403.5C401.01,-405.07 415.42,-406.62 429,-408 656.84,-431.13 927.21,-453.93 1052.82,-464.26"/>
<polygon fill="midnightblue" stroke="midnightblue" points="1052.82,-467.77 1063.07,-465.1 1053.39,-460.8 1052.82,-467.77"/>
</g>
<!-- Node15 -->
<g id="node15" class="node">
<title>Node15</title>
<g id="a_node15"><a xlink:href="../../d4/d99/a01634.html#a2f9dc83deb53447224a9cc6551253d8a" target="_top" xlink:title=" ">
<polygon fill="none" stroke="black" points="461,-536.5 461,-555.5 583,-555.5 583,-536.5 461,-536.5"/>
<text text-anchor="middle" x="522" y="-543.5" font-family="Helvetica,sans-Serif" font-size="10.00">com.cliffc.aa.util.SB.ii</text>
</a>
</g>
</g>
<!-- Node2&#45;&gt;Node15 -->
<g id="edge16" class="edge">
<title>Node2&#45;&gt;Node15</title>
<path fill="none" stroke="midnightblue" d="M311.79,-403.59C327.32,-428.44 372.58,-495.14 429,-527 435.79,-530.83 443.25,-533.9 450.9,-536.35"/>
<polygon fill="midnightblue" stroke="midnightblue" points="450.07,-539.75 460.65,-539.13 452,-533.02 450.07,-539.75"/>
</g>
<!-- Node16 -->
<g id="node16" class="node">
<title>Node16</title>
<g id="a_node16"><a xlink:href="../../d4/d99/a01634.html#af706c705e889040f6fc45486f508987e" target="_top" xlink:title=" ">
<polygon fill="none" stroke="black" points="659.5,-384.5 659.5,-403.5 784.5,-403.5 784.5,-384.5 659.5,-384.5"/>
<text text-anchor="middle" x="722" y="-391.5" font-family="Helvetica,sans-Serif" font-size="10.00">com.cliffc.aa.util.SB.nl</text>
</a>
</g>
</g>
<!-- Node2&#45;&gt;Node16 -->
<g id="edge18" class="edge">
<title>Node2&#45;&gt;Node16</title>
<path fill="none" stroke="midnightblue" d="M393.25,-394C469.27,-394 578.18,-394 649.24,-394"/>
<polygon fill="midnightblue" stroke="midnightblue" points="649.44,-397.5 659.44,-394 649.44,-390.5 649.44,-397.5"/>
</g>
<!-- Node17 -->
<g id="node17" class="node">
<title>Node17</title>
<g id="a_node17"><a xlink:href="../../d6/d2f/a00854.html#a31458684fa62ef2c7901d5799c3f8add" target="_top" xlink:title=" ">
<polygon fill="none" stroke="black" points="434,-270.5 434,-289.5 610,-289.5 610,-270.5 434,-270.5"/>
<text text-anchor="middle" x="522" y="-277.5" font-family="Helvetica,sans-Serif" font-size="10.00">com.cliffc.aa.HM.HM8.Syntax.p1</text>
</a>
</g>
</g>
<!-- Node2&#45;&gt;Node17 -->
<g id="edge21" class="edge">
<title>Node2&#45;&gt;Node17</title>
<path fill="none" stroke="midnightblue" d="M315.18,-384.43C334.37,-365.04 380.94,-321.08 429,-299 434.41,-296.51 440.15,-294.35 446.02,-292.47"/>
<polygon fill="midnightblue" stroke="midnightblue" points="447.35,-295.72 455.97,-289.56 445.38,-289.01 447.35,-295.72"/>
</g>
<!-- Node18 -->
<g id="node18" class="node">
<title>Node18</title>
<g id="a_node18"><a xlink:href="../../d6/d2f/a00854.html#a6c1b60ba7027d0b7ea1807d361ff7523" target="_top" xlink:title=" ">
<polygon fill="none" stroke="black" points="434,-232.5 434,-251.5 610,-251.5 610,-232.5 434,-232.5"/>
<text text-anchor="middle" x="522" y="-239.5" font-family="Helvetica,sans-Serif" font-size="10.00">com.cliffc.aa.HM.HM8.Syntax.p2</text>
</a>
</g>
</g>
<!-- Node2&#45;&gt;Node18 -->
<g id="edge22" class="edge">
<title>Node2&#45;&gt;Node18</title>
<path fill="none" stroke="midnightblue" d="M311.79,-384.41C327.32,-359.56 372.58,-292.86 429,-261 432.94,-258.77 437.11,-256.81 441.41,-255.07"/>
<polygon fill="midnightblue" stroke="midnightblue" points="442.77,-258.3 450.99,-251.62 440.4,-251.72 442.77,-258.3"/>
</g>
<!-- Node19 -->
<g id="node19" class="node">
<title>Node19</title>
<g id="a_node19"><a xlink:href="../../d2/dab/a00886.html#a6fdfdf40490fbf243976791d5f3b6f64" target="_top" xlink:title=" ">
<polygon fill="none" stroke="black" points="836,-264.5 836,-283.5 991,-283.5 991,-264.5 836,-264.5"/>
<text text-anchor="middle" x="913.5" y="-271.5" font-family="Helvetica,sans-Serif" font-size="10.00">com.cliffc.aa.HM.HM8.T2.str</text>
</a>
</g>
</g>
<!-- Node2&#45;&gt;Node19 -->
<g id="edge23" class="edge">
<title>Node2&#45;&gt;Node19</title>
<path fill="none" stroke="midnightblue" d="M359.95,-384.49C421.68,-373.51 525.77,-354.67 615,-337 700.67,-320.03 799.85,-298.68 859.31,-285.7"/>
<polygon fill="midnightblue" stroke="midnightblue" points="860.19,-289.09 869.22,-283.54 858.7,-282.25 860.19,-289.09"/>
</g>
<!-- Node4 -->
<g id="node4" class="node">
<title>Node4</title>
<g id="a_node4"><a xlink:href="../../d4/d99/a01634.html#a135574f0788f02889e20439dffa3d6a8" target="_top" xlink:title=" ">
<polygon fill="none" stroke="black" points="662.5,-498.5 662.5,-517.5 781.5,-517.5 781.5,-498.5 662.5,-498.5"/>
<text text-anchor="middle" x="722" y="-505.5" font-family="Helvetica,sans-Serif" font-size="10.00">com.cliffc.aa.util.SB.i</text>
</a>
</g>
</g>
<!-- Node3&#45;&gt;Node4 -->
<g id="edge3" class="edge">
<title>Node3&#45;&gt;Node4</title>
<path fill="none" stroke="midnightblue" d="M584.56,-508C605.93,-508 630.02,-508 651.95,-508"/>
<polygon fill="midnightblue" stroke="midnightblue" points="652.18,-511.5 662.18,-508 652.18,-504.5 652.18,-511.5"/>
</g>
<!-- Node4&#45;&gt;Node4 -->
<g id="edge4" class="edge">
<title>Node4&#45;&gt;Node4</title>
<path fill="none" stroke="midnightblue" d="M692.72,-517.76C678.47,-526.57 688.23,-536 722,-536 745.74,-536 757.62,-531.34 757.62,-525.5"/>
<polygon fill="midnightblue" stroke="midnightblue" points="760.33,-523.28 751.28,-517.76 754.91,-527.71 760.33,-523.28"/>
</g>
<!-- Node6 -->
<g id="node6" class="node">
<title>Node6</title>
<g id="a_node6"><a xlink:href="../../d2/dab/a00886.html#a098ca38aa59371b2918b39ad131e3d3f" target="_top" xlink:title=" ">
<polygon fill="none" stroke="black" points="651,-33 651,-63 793,-63 793,-33 651,-33"/>
<text text-anchor="start" x="659" y="-51" font-family="Helvetica,sans-Serif" font-size="10.00">com.cliffc.aa.HM.HM8.T2.</text>
<text text-anchor="middle" x="722" y="-40" font-family="Helvetica,sans-Serif" font-size="10.00">_get_dups</text>
</a>
</g>
</g>
<!-- Node5&#45;&gt;Node6 -->
<g id="edge6" class="edge">
<title>Node5&#45;&gt;Node6</title>
<path fill="none" stroke="midnightblue" d="M599.55,-308.48C605.1,-305.95 610.34,-302.83 615,-299 686.53,-240.27 710.64,-124.71 718.03,-73.48"/>
<polygon fill="midnightblue" stroke="midnightblue" points="721.54,-73.67 719.4,-63.29 714.6,-72.74 721.54,-73.67"/>
</g>
<!-- Node7 -->
<g id="node7" class="node">
<title>Node7</title>
<g id="a_node7"><a xlink:href="../../d2/dab/a00886.html#ab2e44d28229a2d3cbe52d8c70e7226b2" target="_top" xlink:title=" ">
<polygon fill="none" stroke="black" points="829,-0.5 829,-19.5 998,-19.5 998,-0.5 829,-0.5"/>
<text text-anchor="middle" x="913.5" y="-7.5" font-family="Helvetica,sans-Serif" font-size="10.00">com.cliffc.aa.HM.HM8.T2.no_uf</text>
</a>
</g>
</g>
<!-- Node6&#45;&gt;Node7 -->
<g id="edge7" class="edge">
<title>Node6&#45;&gt;Node7</title>
<path fill="none" stroke="midnightblue" d="M793.02,-33.96C813.41,-29.87 835.43,-25.46 854.95,-21.54"/>
<polygon fill="midnightblue" stroke="midnightblue" points="855.79,-24.94 864.9,-19.54 854.41,-18.08 855.79,-24.94"/>
</g>
<!-- Node11 -->
<g id="node11" class="node">
<title>Node11</title>
<g id="a_node11"><a xlink:href="../../df/dee/a01646.html#a88ad20daf92e92fe0e3925b23c4fecf0" target="_top" xlink:title=" ">
<polygon fill="none" stroke="black" points="1045.5,-38.5 1045.5,-57.5 1203.5,-57.5 1203.5,-38.5 1045.5,-38.5"/>
<text text-anchor="middle" x="1124.5" y="-45.5" font-family="Helvetica,sans-Serif" font-size="10.00">com.cliffc.aa.util.VBitSet.tset</text>
</a>
</g>
</g>
<!-- Node6&#45;&gt;Node11 -->
<g id="edge11" class="edge">
<title>Node6&#45;&gt;Node11</title>
<path fill="none" stroke="midnightblue" d="M793.22,-48C860.61,-48 962.6,-48 1035.4,-48"/>
<polygon fill="midnightblue" stroke="midnightblue" points="1035.48,-51.5 1045.48,-48 1035.48,-44.5 1035.48,-51.5"/>
</g>
<!-- Node8 -->
<g id="node8" class="node">
<title>Node8</title>
<g id="a_node8"><a xlink:href="../../d2/dab/a00886.html#a7e2bfdeff7e3e9e00d0e3cabdd3aa182" target="_top" xlink:title=" ">
<polygon fill="none" stroke="black" points="1037.5,-0.5 1037.5,-19.5 1211.5,-19.5 1211.5,-0.5 1037.5,-0.5"/>
<text text-anchor="middle" x="1124.5" y="-7.5" font-family="Helvetica,sans-Serif" font-size="10.00">com.cliffc.aa.HM.HM8.T2.is_leaf</text>
</a>
</g>
</g>
<!-- Node7&#45;&gt;Node8 -->
<g id="edge8" class="edge">
<title>Node7&#45;&gt;Node8</title>
<path fill="none" stroke="midnightblue" d="M998,-10C1007.62,-10 1017.49,-10 1027.26,-10"/>
<polygon fill="midnightblue" stroke="midnightblue" points="1027.39,-13.5 1037.39,-10 1027.39,-6.5 1027.39,-13.5"/>
</g>
<!-- Node9 -->
<g id="node9" class="node">
<title>Node9</title>
<g id="a_node9"><a xlink:href="../../d2/dab/a00886.html#a3e2b226c9b8b043480a2914cb5d27dc8" target="_top" xlink:title=" ">
<polygon fill="none" stroke="black" points="1251,-327.5 1251,-346.5 1407,-346.5 1407,-327.5 1251,-327.5"/>
<text text-anchor="middle" x="1329" y="-334.5" font-family="Helvetica,sans-Serif" font-size="10.00">com.cliffc.aa.HM.HM8.T2.isa</text>
</a>
</g>
</g>
<!-- Node8&#45;&gt;Node9 -->
<g id="edge9" class="edge">
<title>Node8&#45;&gt;Node9</title>
<path fill="none" stroke="midnightblue" d="M1200.61,-19.68C1205.8,-22.19 1210.68,-25.25 1215,-29 1304.8,-106.84 1323.29,-262.41 1327.05,-317.28"/>
<polygon fill="midnightblue" stroke="midnightblue" points="1323.56,-317.62 1327.65,-327.4 1330.55,-317.21 1323.56,-317.62"/>
</g>
<!-- Node10 -->
<g id="node10" class="node">
<title>Node10</title>
<g id="a_node10"><a xlink:href="../../dd/d55/a01638.html#a3975ba7dca9fe2d6e4992b2b5558f882" target="_top" xlink:title=" ">
<polygon fill="none" stroke="black" points="1443,-327.5 1443,-346.5 1576,-346.5 1576,-327.5 1443,-327.5"/>
<text text-anchor="middle" x="1509.5" y="-334.5" font-family="Helvetica,sans-Serif" font-size="10.00">com.cliffc.aa.util.Util.eq</text>
</a>
</g>
</g>
<!-- Node9&#45;&gt;Node10 -->
<g id="edge10" class="edge">
<title>Node9&#45;&gt;Node10</title>
<path fill="none" stroke="midnightblue" d="M1407.25,-337C1415.69,-337 1424.28,-337 1432.7,-337"/>
<polygon fill="midnightblue" stroke="midnightblue" points="1432.87,-340.5 1442.87,-337 1432.87,-333.5 1432.87,-340.5"/>
</g>
<!-- Node12&#45;&gt;Node4 -->
<g id="edge13" class="edge">
<title>Node12&#45;&gt;Node4</title>
<path fill="none" stroke="midnightblue" d="M572.71,-479.54C599.54,-484.69 632.86,-491.08 661.11,-496.51"/>
<polygon fill="midnightblue" stroke="midnightblue" points="660.79,-500.01 671.27,-498.46 662.11,-493.13 660.79,-500.01"/>
</g>
<!-- Node12&#45;&gt;Node13 -->
<g id="edge14" class="edge">
<title>Node12&#45;&gt;Node13</title>
<path fill="none" stroke="midnightblue" d="M581.67,-470C692.79,-470 933.51,-470 1053.11,-470"/>
<polygon fill="midnightblue" stroke="midnightblue" points="1053.25,-473.5 1063.25,-470 1053.25,-466.5 1053.25,-473.5"/>
</g>
<!-- Node14 -->
<g id="node14" class="node">
<title>Node14</title>
<g id="a_node14"><a xlink:href="../../d4/d99/a01634.html#abd1b8ac722e0fb0bf1e7b2ea0eaeb0b6" target="_top" xlink:title=" ">
<polygon fill="none" stroke="black" points="1268,-460.5 1268,-479.5 1390,-479.5 1390,-460.5 1268,-460.5"/>
<text text-anchor="middle" x="1329" y="-467.5" font-family="Helvetica,sans-Serif" font-size="10.00">com.cliffc.aa.util.SB.s</text>
</a>
</g>
</g>
<!-- Node13&#45;&gt;Node14 -->
<g id="edge15" class="edge">
<title>Node13&#45;&gt;Node14</title>
<path fill="none" stroke="midnightblue" d="M1185.71,-470C1208.25,-470 1234.07,-470 1257.46,-470"/>
<polygon fill="midnightblue" stroke="midnightblue" points="1257.67,-473.5 1267.67,-470 1257.67,-466.5 1257.67,-473.5"/>
</g>
<!-- Node15&#45;&gt;Node4 -->
<g id="edge17" class="edge">
<title>Node15&#45;&gt;Node4</title>
<path fill="none" stroke="midnightblue" d="M572.71,-536.46C599.54,-531.31 632.86,-524.92 661.11,-519.49"/>
<polygon fill="midnightblue" stroke="midnightblue" points="662.11,-522.87 671.27,-517.54 660.79,-515.99 662.11,-522.87"/>
</g>
<!-- Node16&#45;&gt;Node13 -->
<g id="edge19" class="edge">
<title>Node16&#45;&gt;Node13</title>
<path fill="none" stroke="midnightblue" d="M784.5,-388.36C842.14,-385.56 929.46,-387.84 998,-418 1017.87,-426.74 1014.7,-441.06 1034,-451 1040.07,-454.13 1046.63,-456.74 1053.34,-458.92"/>
<polygon fill="midnightblue" stroke="midnightblue" points="1052.66,-462.37 1063.24,-461.82 1054.62,-455.65 1052.66,-462.37"/>
</g>
<!-- Node19&#45;&gt;Node8 -->
<g id="edge31" class="edge">
<title>Node19&#45;&gt;Node8</title>
<path fill="none" stroke="midnightblue" d="M916.1,-264.38C922.8,-227.35 952.13,-92.94 1034,-29 1036.21,-27.27 1038.55,-25.69 1040.97,-24.25"/>
<polygon fill="midnightblue" stroke="midnightblue" points="1042.8,-27.25 1050.12,-19.59 1039.62,-21.01 1042.8,-27.25"/>
</g>
<!-- Node19&#45;&gt;Node11 -->
<g id="edge40" class="edge">
<title>Node19&#45;&gt;Node11</title>
<path fill="none" stroke="midnightblue" d="M917.03,-264.28C926.26,-230.83 961.48,-119.68 1034,-67 1036.55,-65.15 1039.25,-63.47 1042.05,-61.94"/>
<polygon fill="midnightblue" stroke="midnightblue" points="1043.74,-65.01 1051.3,-57.6 1040.76,-58.68 1043.74,-65.01"/>
</g>
<!-- Node19&#45;&gt;Node13 -->
<g id="edge36" class="edge">
<title>Node19&#45;&gt;Node13</title>
<path fill="none" stroke="midnightblue" d="M923.26,-283.74C939.29,-301.84 973.92,-342.29 998,-380 1017.04,-409.82 1005.95,-429.44 1034,-451 1039.89,-455.53 1046.61,-459.03 1053.66,-461.74"/>
<polygon fill="midnightblue" stroke="midnightblue" points="1052.85,-465.16 1063.45,-464.96 1055.04,-458.51 1052.85,-465.16"/>
</g>
<!-- Node19&#45;&gt;Node19 -->
<g id="edge38" class="edge">
<title>Node19&#45;&gt;Node19</title>
<path fill="none" stroke="midnightblue" d="M884.22,-283.76C869.97,-292.57 879.73,-302 913.5,-302 937.24,-302 949.12,-297.34 949.12,-291.5"/>
<polygon fill="midnightblue" stroke="midnightblue" points="951.83,-289.28 942.78,-283.76 946.41,-293.71 951.83,-289.28"/>
</g>
<!-- Node20 -->
<g id="node20" class="node">
<title>Node20</title>
<g id="a_node20"><a xlink:href="../../d0/de2/a01442.html#ade2059a7facf88e4f1e3c338d2b8fc5d" target="_top" xlink:title=" ">
<polygon fill="none" stroke="black" points="1044,-220.5 1044,-239.5 1205,-239.5 1205,-220.5 1044,-220.5"/>
<text text-anchor="middle" x="1124.5" y="-227.5" font-family="Helvetica,sans-Serif" font-size="10.00">com.cliffc.aa.type.Type.getstr</text>
</a>
</g>
</g>
<!-- Node19&#45;&gt;Node20 -->
<g id="edge24" class="edge">
<title>Node19&#45;&gt;Node20</title>
<path fill="none" stroke="midnightblue" d="M959.85,-264.45C991.62,-257.76 1034.27,-248.79 1068.06,-241.67"/>
<polygon fill="midnightblue" stroke="midnightblue" points="1069.17,-245.01 1078.24,-239.53 1067.73,-238.16 1069.17,-245.01"/>
</g>
<!-- Node21 -->
<g id="node21" class="node">
<title>Node21</title>
<g id="a_node21"><a xlink:href="../../d2/dab/a00886.html#aa3aef7cadb2d9405371f2bd4929bcc84" target="_top" xlink:title=" ">
<polygon fill="none" stroke="black" points="1035,-422.5 1035,-441.5 1214,-441.5 1214,-422.5 1035,-422.5"/>
<text text-anchor="middle" x="1124.5" y="-429.5" font-family="Helvetica,sans-Serif" font-size="10.00">com.cliffc.aa.HM.HM8.T2.is_base</text>
</a>
</g>
</g>
<!-- Node19&#45;&gt;Node21 -->
<g id="edge25" class="edge">
<title>Node19&#45;&gt;Node21</title>
<path fill="none" stroke="midnightblue" d="M921.6,-283.79C942.66,-312.55 1005.12,-395.88 1034,-413 1037.69,-415.19 1041.6,-417.12 1045.63,-418.84"/>
<polygon fill="midnightblue" stroke="midnightblue" points="1044.66,-422.21 1055.25,-422.45 1047.12,-415.66 1044.66,-422.21"/>
</g>
<!-- Node22 -->
<g id="node22" class="node">
<title>Node22</title>
<g id="a_node22"><a xlink:href="../../d2/dab/a00886.html#afcd21d016c362a2c538286c2af5eaef0" target="_top" xlink:title=" ">
<polygon fill="none" stroke="black" points="1040,-384.5 1040,-403.5 1209,-403.5 1209,-384.5 1040,-384.5"/>
<text text-anchor="middle" x="1124.5" y="-391.5" font-family="Helvetica,sans-Serif" font-size="10.00">com.cliffc.aa.HM.HM8.T2.is_err</text>
</a>
</g>
</g>
<!-- Node19&#45;&gt;Node22 -->
<g id="edge27" class="edge">
<title>Node19&#45;&gt;Node22</title>
<path fill="none" stroke="midnightblue" d="M922.68,-283.56C940.63,-303.86 985.7,-351.34 1034,-375 1038.99,-377.45 1044.29,-379.58 1049.72,-381.44"/>
<polygon fill="midnightblue" stroke="midnightblue" points="1049.01,-384.88 1059.6,-384.49 1051.08,-378.19 1049.01,-384.88"/>
</g>
<!-- Node23 -->
<g id="node23" class="node">
<title>Node23</title>
<g id="a_node23"><a xlink:href="../../d2/dab/a00886.html#adb24599c3efe6e485ad55ea76fdaafb3" target="_top" xlink:title=" ">
<polygon fill="none" stroke="black" points="1039,-346.5 1039,-365.5 1210,-365.5 1210,-346.5 1039,-346.5"/>
<text text-anchor="middle" x="1124.5" y="-353.5" font-family="Helvetica,sans-Serif" font-size="10.00">com.cliffc.aa.HM.HM8.T2.is_fun</text>
</a>
</g>
</g>
<!-- Node19&#45;&gt;Node23 -->
<g id="edge29" class="edge">
<title>Node19&#45;&gt;Node23</title>
<path fill="none" stroke="midnightblue" d="M929.35,-283.56C951.35,-297.33 994.3,-322.64 1034,-337 1041.35,-339.66 1049.18,-342 1057.04,-344.04"/>
<polygon fill="midnightblue" stroke="midnightblue" points="1056.43,-347.5 1066.97,-346.48 1058.09,-340.7 1056.43,-347.5"/>
</g>
<!-- Node24 -->
<g id="node24" class="node">
<title>Node24</title>
<g id="a_node24"><a xlink:href="../../d2/dab/a00886.html#a1a0e6fd4a9a7c36344768e7a258bca5b" target="_top" xlink:title=" ">
<polygon fill="none" stroke="black" points="1034,-308.5 1034,-327.5 1215,-327.5 1215,-308.5 1034,-308.5"/>
<text text-anchor="middle" x="1124.5" y="-315.5" font-family="Helvetica,sans-Serif" font-size="10.00">com.cliffc.aa.HM.HM8.T2.is_mem</text>
</a>
</g>
</g>
<!-- Node19&#45;&gt;Node24 -->
<g id="edge32" class="edge">
<title>Node19&#45;&gt;Node24</title>
<path fill="none" stroke="midnightblue" d="M959.85,-283.55C991.62,-290.24 1034.27,-299.21 1068.06,-306.33"/>
<polygon fill="midnightblue" stroke="midnightblue" points="1067.73,-309.84 1078.24,-308.47 1069.17,-302.99 1067.73,-309.84"/>
</g>
<!-- Node25 -->
<g id="node25" class="node">
<title>Node25</title>
<g id="a_node25"><a xlink:href="../../d2/dab/a00886.html#a323d5d9900f7acf223259bc2331bef21" target="_top" xlink:title=" ">
<polygon fill="none" stroke="black" points="1049.5,-259 1049.5,-289 1199.5,-289 1199.5,-259 1049.5,-259"/>
<text text-anchor="start" x="1057.5" y="-277" font-family="Helvetica,sans-Serif" font-size="10.00">com.cliffc.aa.HM.HM8.T2.is</text>
<text text-anchor="middle" x="1124.5" y="-266" font-family="Helvetica,sans-Serif" font-size="10.00">_struct</text>
</a>
</g>
</g>
<!-- Node19&#45;&gt;Node25 -->
<g id="edge34" class="edge">
<title>Node19&#45;&gt;Node25</title>
<path fill="none" stroke="midnightblue" d="M991.14,-274C1006.71,-274 1023.18,-274 1039.01,-274"/>
<polygon fill="midnightblue" stroke="midnightblue" points="1039.31,-277.5 1049.31,-274 1039.31,-270.5 1039.31,-277.5"/>
</g>
<!-- Node26 -->
<g id="node26" class="node">
<title>Node26</title>
<g id="a_node26"><a xlink:href="../../d4/d3c/a01418.html#afee0e9392fca89140c42b4e6fdc00e6b" target="_top" xlink:title=" ">
<polygon fill="none" stroke="black" points="1054,-182.5 1054,-201.5 1195,-201.5 1195,-182.5 1054,-182.5"/>
<text text-anchor="middle" x="1124.5" y="-189.5" font-family="Helvetica,sans-Serif" font-size="10.00">com.cliffc.aa.type.Bits.str</text>
</a>
</g>
</g>
<!-- Node19&#45;&gt;Node26 -->
<g id="edge37" class="edge">
<title>Node19&#45;&gt;Node26</title>
<path fill="none" stroke="midnightblue" d="M929.35,-264.44C951.35,-250.67 994.3,-225.36 1034,-211 1041.35,-208.34 1049.18,-206 1057.04,-203.96"/>
<polygon fill="midnightblue" stroke="midnightblue" points="1058.09,-207.3 1066.97,-201.52 1056.43,-200.5 1058.09,-207.3"/>
</g>
<!-- Node27 -->
<g id="node27" class="node">
<title>Node27</title>
<g id="a_node27"><a xlink:href="../../d0/de2/a01442.html#a07f49bb79ed4ff3f46f518a26793b2fe" target="_top" xlink:title=" ">
<polygon fill="none" stroke="black" points="1053.5,-133 1053.5,-163 1195.5,-163 1195.5,-133 1053.5,-133"/>
<text text-anchor="start" x="1061.5" y="-151" font-family="Helvetica,sans-Serif" font-size="10.00">com.cliffc.aa.type.Type.to</text>
<text text-anchor="middle" x="1124.5" y="-140" font-family="Helvetica,sans-Serif" font-size="10.00">String</text>
</a>
</g>
</g>
<!-- Node19&#45;&gt;Node27 -->
<g id="edge39" class="edge">
<title>Node19&#45;&gt;Node27</title>
<path fill="none" stroke="midnightblue" d="M923.08,-264.37C941.44,-244.35 986.71,-198.04 1034,-173 1038.32,-170.71 1042.87,-168.62 1047.53,-166.7"/>
<polygon fill="midnightblue" stroke="midnightblue" points="1049.13,-169.84 1057.23,-163.01 1046.64,-163.3 1049.13,-169.84"/>
</g>
<!-- Node28 -->
<g id="node28" class="node">
<title>Node28</title>
<g id="a_node28"><a xlink:href="../../d4/d99/a01634.html#a6536bbd3de1ca1c901e1cb9527dbf3db" target="_top" xlink:title=" ">
<polygon fill="none" stroke="black" points="1050,-76.5 1050,-95.5 1199,-95.5 1199,-76.5 1050,-76.5"/>
<text text-anchor="middle" x="1124.5" y="-83.5" font-family="Helvetica,sans-Serif" font-size="10.00">com.cliffc.aa.util.SB.unchar</text>
</a>
</g>
</g>
<!-- Node19&#45;&gt;Node28 -->
<g id="edge41" class="edge">
<title>Node19&#45;&gt;Node28</title>
<path fill="none" stroke="midnightblue" d="M919.67,-264.48C934.3,-238.4 978.5,-164.9 1034,-123 1047.43,-112.86 1064.04,-105 1079.29,-99.17"/>
<polygon fill="midnightblue" stroke="midnightblue" points="1080.85,-102.33 1089.06,-95.64 1078.47,-95.75 1080.85,-102.33"/>
</g>
<!-- Node21&#45;&gt;Node9 -->
<g id="edge26" class="edge">
<title>Node21&#45;&gt;Node9</title>
<path fill="none" stroke="midnightblue" d="M1186.17,-422.42C1196.01,-419.94 1205.93,-416.84 1215,-413 1250.97,-397.76 1287.58,-370.53 1309.02,-353.14"/>
<polygon fill="midnightblue" stroke="midnightblue" points="1311.5,-355.64 1316.98,-346.57 1307.04,-350.24 1311.5,-355.64"/>
</g>
<!-- Node22&#45;&gt;Node9 -->
<g id="edge28" class="edge">
<title>Node22&#45;&gt;Node9</title>
<path fill="none" stroke="midnightblue" d="M1175.45,-384.46C1188.4,-381.7 1202.28,-378.48 1215,-375 1241.32,-367.81 1270.49,-357.95 1292.6,-350.07"/>
<polygon fill="midnightblue" stroke="midnightblue" points="1294,-353.29 1302.23,-346.61 1291.64,-346.7 1294,-353.29"/>
</g>
<!-- Node23&#45;&gt;Node9 -->
<g id="edge30" class="edge">
<title>Node23&#45;&gt;Node9</title>
<path fill="none" stroke="midnightblue" d="M1210.2,-348.05C1220.28,-347.11 1230.59,-346.14 1240.7,-345.19"/>
<polygon fill="midnightblue" stroke="midnightblue" points="1241.11,-348.67 1250.74,-344.25 1240.46,-341.7 1241.11,-348.67"/>
</g>
<!-- Node24&#45;&gt;Node9 -->
<g id="edge33" class="edge">
<title>Node24&#45;&gt;Node9</title>
<path fill="none" stroke="midnightblue" d="M1215.2,-326.42C1223.63,-327.21 1232.16,-328.01 1240.56,-328.8"/>
<polygon fill="midnightblue" stroke="midnightblue" points="1240.45,-332.3 1250.73,-329.75 1241.1,-325.33 1240.45,-332.3"/>
</g>
<!-- Node25&#45;&gt;Node9 -->
<g id="edge35" class="edge">
<title>Node25&#45;&gt;Node9</title>
<path fill="none" stroke="midnightblue" d="M1181.01,-289.02C1192.29,-292.21 1204.05,-295.63 1215,-299 1240.56,-306.86 1269.11,-316.47 1291.11,-324.06"/>
<polygon fill="midnightblue" stroke="midnightblue" points="1290.13,-327.42 1300.73,-327.39 1292.42,-320.81 1290.13,-327.42"/>
</g>
<!-- Node28&#45;&gt;Node28 -->
<g id="edge42" class="edge">
<title>Node28&#45;&gt;Node28</title>
<path fill="none" stroke="midnightblue" d="M1093.06,-95.76C1077.76,-104.57 1088.24,-114 1124.5,-114 1150.56,-114 1163.3,-109.13 1162.73,-103.11"/>
<polygon fill="midnightblue" stroke="midnightblue" points="1165.3,-100.73 1155.94,-95.76 1160.15,-105.48 1165.3,-100.73"/>
</g>
</g>
</svg>
