<?xml version="1.0" encoding="UTF-8" standalone="no"?>
<!DOCTYPE svg PUBLIC "-//W3C//DTD SVG 1.1//EN"
 "http://www.w3.org/Graphics/SVG/1.1/DTD/svg11.dtd">
<!-- Generated by graphviz version 2.43.0 (0)
 -->
<!-- Title: com.cliffc.aa.node.Node.ErrMsg.forward_ref Pages: 1 -->
<svg width="2447pt" height="303pt"
 viewBox="0.00 0.00 2447.00 302.50" xmlns="http://www.w3.org/2000/svg" xmlns:xlink="http://www.w3.org/1999/xlink">
<g id="graph0" class="graph" transform="scale(1 1) rotate(0) translate(4 298.5)">
<title>com.cliffc.aa.node.Node.ErrMsg.forward_ref</title>
<!-- Node1 -->
<g id="node1" class="node">
<title>Node1</title>
<g id="a_node1"><a xlink:title=" ">
<polygon fill="#bfbfbf" stroke="black" points="2302,-51 2302,-81 2439,-81 2439,-51 2302,-51"/>
<text text-anchor="start" x="2310" y="-69" font-family="Helvetica,sans-Serif" font-size="10.00">com.cliffc.aa.node.Node.</text>
<text text-anchor="middle" x="2370.5" y="-58" font-family="Helvetica,sans-Serif" font-size="10.00">ErrMsg.forward_ref</text>
</a>
</g>
</g>
<!-- Node1&#45;&gt;Node1 -->
<g id="edge27" class="edge">
<title>Node1&#45;&gt;Node1</title>
<path fill="none" stroke="midnightblue" d="M2403.91,-91.46C2399.76,-96.18 2388.62,-99.5 2370.5,-99.5 2340.76,-99.5 2329.84,-90.56 2337.74,-81.16"/>
<polygon fill="midnightblue" stroke="midnightblue" points="2407.38,-90.92 2403.26,-81.16 2400.39,-91.36 2407.38,-90.92"/>
</g>
<!-- Node2 -->
<g id="node2" class="node">
<title>Node2</title>
<g id="a_node2"><a xlink:href="../../d0/d2b/a01010.html#a36a8626bf90bfda234be1168d92b67f3" target="_top" xlink:title=" ">
<polygon fill="none" stroke="black" points="2096,-154.5 2096,-173.5 2266,-173.5 2266,-154.5 2096,-154.5"/>
<text text-anchor="middle" x="2181" y="-161.5" font-family="Helvetica,sans-Serif" font-size="10.00">com.cliffc.aa.node.CallNode.err</text>
</a>
</g>
</g>
<!-- Node1&#45;&gt;Node2 -->
<g id="edge1" class="edge">
<title>Node1&#45;&gt;Node2</title>
<path fill="none" stroke="midnightblue" d="M2331.71,-85.75C2291.87,-106.57 2230.75,-138.52 2200.41,-154.38"/>
<polygon fill="midnightblue" stroke="midnightblue" points="2333.37,-88.83 2340.61,-81.1 2330.13,-82.63 2333.37,-88.83"/>
</g>
<!-- Node8 -->
<g id="node8" class="node">
<title>Node8</title>
<g id="a_node8"><a xlink:href="../../dd/d57/a01054.html#a840e9f6b69a6e1de3f58abbf576f887f" target="_top" xlink:title=" ">
<polygon fill="none" stroke="black" points="2111,-51 2111,-81 2251,-81 2251,-51 2111,-51"/>
<text text-anchor="start" x="2119" y="-69" font-family="Helvetica,sans-Serif" font-size="10.00">com.cliffc.aa.node.FunPtr</text>
<text text-anchor="middle" x="2181" y="-58" font-family="Helvetica,sans-Serif" font-size="10.00">Node.forward_ref</text>
</a>
</g>
</g>
<!-- Node1&#45;&gt;Node8 -->
<g id="edge8" class="edge">
<title>Node1&#45;&gt;Node8</title>
<path fill="none" stroke="midnightblue" d="M2291.65,-66C2278.22,-66 2264.35,-66 2251.17,-66"/>
<polygon fill="midnightblue" stroke="midnightblue" points="2291.81,-69.5 2301.81,-66 2291.81,-62.5 2291.81,-69.5"/>
</g>
<!-- Node21 -->
<g id="node21" class="node">
<title>Node21</title>
<g id="a_node21"><a xlink:href="../../da/de3/a01398.html#ac627d3aaaed60f3d4a68bc4431dba21e" target="_top" xlink:title=" ">
<polygon fill="none" stroke="black" points="1674.5,-12.5 1674.5,-31.5 1799.5,-31.5 1799.5,-12.5 1674.5,-12.5"/>
<text text-anchor="middle" x="1737" y="-19.5" font-family="Helvetica,sans-Serif" font-size="10.00">com.cliffc.aa.Parse.inc</text>
</a>
</g>
</g>
<!-- Node1&#45;&gt;Node21 -->
<g id="edge28" class="edge">
<title>Node1&#45;&gt;Node21</title>
<path fill="none" stroke="midnightblue" d="M2306.24,-48.59C2293.03,-45.56 2279.13,-42.8 2266,-41 2098.57,-18 1898.64,-18.27 1799.72,-20.22"/>
<polygon fill="midnightblue" stroke="midnightblue" points="2305.63,-52.05 2316.17,-50.95 2307.25,-45.24 2305.63,-52.05"/>
</g>
<!-- Node3 -->
<g id="node3" class="node">
<title>Node3</title>
<g id="a_node3"><a xlink:href="../../d0/d2b/a01010.html#a042f1a0b299eddc17b23da554e088150" target="_top" xlink:title=" ">
<polygon fill="none" stroke="black" points="1874.5,-264 1874.5,-294 2048.5,-294 2048.5,-264 1874.5,-264"/>
<text text-anchor="start" x="1882.5" y="-282" font-family="Helvetica,sans-Serif" font-size="10.00">com.cliffc.aa.node.CallNode.add</text>
<text text-anchor="middle" x="1961.5" y="-271" font-family="Helvetica,sans-Serif" font-size="10.00">_flow_extra</text>
</a>
</g>
</g>
<!-- Node2&#45;&gt;Node3 -->
<g id="edge2" class="edge">
<title>Node2&#45;&gt;Node3</title>
<path fill="none" stroke="midnightblue" d="M2162.84,-180.7C2140.82,-201.21 2100.6,-235.64 2060,-255 2052.84,-258.41 2045.15,-261.37 2037.33,-263.93"/>
<polygon fill="midnightblue" stroke="midnightblue" points="2165.5,-183 2170.35,-173.58 2160.68,-177.92 2165.5,-183"/>
</g>
<!-- Node4 -->
<g id="node4" class="node">
<title>Node4</title>
<g id="a_node4"><a xlink:href="../../d0/d2b/a01010.html#a9b26fb38a1bb993fff7dbc4250f2ad5d" target="_top" xlink:title=" ">
<polygon fill="none" stroke="black" points="1874.5,-215 1874.5,-245 2048.5,-245 2048.5,-215 1874.5,-215"/>
<text text-anchor="start" x="1882.5" y="-233" font-family="Helvetica,sans-Serif" font-size="10.00">com.cliffc.aa.node.CallNode.add</text>
<text text-anchor="middle" x="1961.5" y="-222" font-family="Helvetica,sans-Serif" font-size="10.00">_flow_use_extra</text>
</a>
</g>
</g>
<!-- Node2&#45;&gt;Node4 -->
<g id="edge3" class="edge">
<title>Node2&#45;&gt;Node4</title>
<path fill="none" stroke="midnightblue" d="M2138.69,-176.54C2102.74,-187.45 2050.54,-203.29 2012.28,-214.89"/>
<polygon fill="midnightblue" stroke="midnightblue" points="2139.82,-179.85 2148.37,-173.6 2137.79,-173.15 2139.82,-179.85"/>
</g>
<!-- Node5 -->
<g id="node5" class="node">
<title>Node5</title>
<g id="a_node5"><a xlink:href="../../d0/d2b/a01010.html#aef07a2283d73f9f60f0215af08389efb" target="_top" xlink:title=" ">
<polygon fill="none" stroke="black" points="1647,-193 1647,-223 1827,-223 1827,-193 1647,-193"/>
<text text-anchor="start" x="1655" y="-211" font-family="Helvetica,sans-Serif" font-size="10.00">com.cliffc.aa.node.CallNode.ideal</text>
<text text-anchor="middle" x="1737" y="-200" font-family="Helvetica,sans-Serif" font-size="10.00">_reduce</text>
</a>
</g>
</g>
<!-- Node2&#45;&gt;Node5 -->
<g id="edge6" class="edge">
<title>Node2&#45;&gt;Node5</title>
<path fill="none" stroke="midnightblue" d="M2085.71,-173.39C2009.25,-181 1902.23,-191.65 1827.17,-199.12"/>
<polygon fill="midnightblue" stroke="midnightblue" points="2086.22,-176.85 2095.82,-172.38 2085.53,-169.89 2086.22,-176.85"/>
</g>
<!-- Node6 -->
<g id="node6" class="node">
<title>Node6</title>
<g id="a_node6"><a xlink:href="../../dc/d81/a01006.html#a2fc8d45a36328634008e89d520cfb885" target="_top" xlink:title=" ">
<polygon fill="none" stroke="black" points="1890,-127 1890,-157 2033,-157 2033,-127 1890,-127"/>
<text text-anchor="start" x="1898" y="-145" font-family="Helvetica,sans-Serif" font-size="10.00">com.cliffc.aa.node.CallEpi</text>
<text text-anchor="middle" x="1961.5" y="-134" font-family="Helvetica,sans-Serif" font-size="10.00">Node.ideal_reduce</text>
</a>
</g>
</g>
<!-- Node2&#45;&gt;Node6 -->
<g id="edge5" class="edge">
<title>Node2&#45;&gt;Node6</title>
<path fill="none" stroke="midnightblue" d="M2085.64,-154.46C2068.08,-152.68 2050.01,-150.85 2033.31,-149.16"/>
<polygon fill="midnightblue" stroke="midnightblue" points="2085.61,-157.97 2095.91,-155.49 2086.31,-151.01 2085.61,-157.97"/>
</g>
<!-- Node7 -->
<g id="node7" class="node">
<title>Node7</title>
<g id="a_node7"><a xlink:href="../../d0/d2b/a01010.html#a21fa6d626c9b5de9200143339540c864" target="_top" xlink:title=" ">
<polygon fill="none" stroke="black" points="1863,-88.5 1863,-107.5 2060,-107.5 2060,-88.5 1863,-88.5"/>
<text text-anchor="middle" x="1961.5" y="-95.5" font-family="Helvetica,sans-Serif" font-size="10.00">com.cliffc.aa.node.CallNode.live_use</text>
</a>
</g>
</g>
<!-- Node2&#45;&gt;Node7 -->
<g id="edge7" class="edge">
<title>Node2&#45;&gt;Node7</title>
<path fill="none" stroke="midnightblue" d="M2148.97,-150.49C2125.02,-140.46 2090.87,-127.02 2060,-118 2046.23,-113.98 2031.14,-110.46 2017.04,-107.55"/>
<polygon fill="midnightblue" stroke="midnightblue" points="2147.68,-153.75 2158.25,-154.42 2150.41,-147.3 2147.68,-153.75"/>
</g>
<!-- Node4&#45;&gt;Node5 -->
<g id="edge4" class="edge">
<title>Node4&#45;&gt;Node5</title>
<path fill="none" stroke="midnightblue" d="M1864.2,-220.48C1851.88,-219.26 1839.31,-218.02 1827.11,-216.81"/>
<polygon fill="midnightblue" stroke="midnightblue" points="1864.18,-223.99 1874.48,-221.49 1864.87,-217.03 1864.18,-223.99"/>
</g>
<!-- Node9 -->
<g id="node9" class="node">
<title>Node9</title>
<g id="a_node9"><a xlink:href="../../da/de3/a01398.html#ab5f56822b1234ac422a988a689632a42" target="_top" xlink:title="Parse a factor, a leaf grammar token fact = num // number fact = &quot;string&quot; // string fact = (stmts) //...">
<polygon fill="none" stroke="black" points="1896.5,-50.5 1896.5,-69.5 2026.5,-69.5 2026.5,-50.5 1896.5,-50.5"/>
<text text-anchor="middle" x="1961.5" y="-57.5" font-family="Helvetica,sans-Serif" font-size="10.00">com.cliffc.aa.Parse.fact</text>
</a>
</g>
</g>
<!-- Node8&#45;&gt;Node9 -->
<g id="edge9" class="edge">
<title>Node8&#45;&gt;Node9</title>
<path fill="none" stroke="midnightblue" d="M2100.6,-63.81C2076.27,-63.14 2049.81,-62.41 2026.63,-61.77"/>
<polygon fill="midnightblue" stroke="midnightblue" points="2100.79,-67.32 2110.88,-64.09 2100.98,-60.32 2100.79,-67.32"/>
</g>
<!-- Node10 -->
<g id="node10" class="node">
<title>Node10</title>
<g id="a_node10"><a xlink:href="../../da/de3/a01398.html#a7056d9016c6762ee436ae04e04476d3b" target="_top" xlink:title="Parse an optionally typed factor tfact = fact[:type].">
<polygon fill="none" stroke="black" points="1670,-50.5 1670,-69.5 1804,-69.5 1804,-50.5 1670,-50.5"/>
<text text-anchor="middle" x="1737" y="-57.5" font-family="Helvetica,sans-Serif" font-size="10.00">com.cliffc.aa.Parse.tfact</text>
</a>
</g>
</g>
<!-- Node9&#45;&gt;Node10 -->
<g id="edge10" class="edge">
<title>Node9&#45;&gt;Node10</title>
<path fill="none" stroke="midnightblue" d="M1886.44,-60C1859.9,-60 1830.16,-60 1804.31,-60"/>
<polygon fill="midnightblue" stroke="midnightblue" points="1886.44,-63.5 1896.44,-60 1886.44,-56.5 1886.44,-63.5"/>
</g>
<!-- Node11 -->
<g id="node11" class="node">
<title>Node11</title>
<g id="a_node11"><a xlink:href="../../da/de3/a01398.html#ab502dae0cf2cae3c0ade2422e579fce2" target="_top" xlink:title="Any number field&#45;lookups or function applications, then an optional assignment term = id++ | id– term...">
<polygon fill="none" stroke="black" points="1477,-31.5 1477,-50.5 1611,-50.5 1611,-31.5 1477,-31.5"/>
<text text-anchor="middle" x="1544" y="-38.5" font-family="Helvetica,sans-Serif" font-size="10.00">com.cliffc.aa.Parse.term</text>
</a>
</g>
</g>
<!-- Node10&#45;&gt;Node11 -->
<g id="edge11" class="edge">
<title>Node10&#45;&gt;Node11</title>
<path fill="none" stroke="midnightblue" d="M1659.37,-52.38C1643.4,-50.79 1626.7,-49.13 1611.15,-47.58"/>
<polygon fill="midnightblue" stroke="midnightblue" points="1659.44,-55.9 1669.73,-53.41 1660.13,-48.94 1659.44,-55.9"/>
</g>
<!-- Node12 -->
<g id="node12" class="node">
<title>Node12</title>
<g id="a_node12"><a xlink:href="../../da/de3/a01398.html#a6397933ff168ada64e7209d9c82122de" target="_top" xlink:title=" ">
<polygon fill="none" stroke="black" points="1330,-93 1330,-123 1441,-123 1441,-93 1330,-93"/>
<text text-anchor="start" x="1338" y="-111" font-family="Helvetica,sans-Serif" font-size="10.00">com.cliffc.aa.Parse.</text>
<text text-anchor="middle" x="1385.5" y="-100" font-family="Helvetica,sans-Serif" font-size="10.00">_expr_higher</text>
</a>
</g>
</g>
<!-- Node11&#45;&gt;Node12 -->
<g id="edge12" class="edge">
<title>Node11&#45;&gt;Node12</title>
<path fill="none" stroke="midnightblue" d="M1511.18,-54.62C1485.17,-65.76 1448.44,-81.48 1421.59,-92.98"/>
<polygon fill="midnightblue" stroke="midnightblue" points="1512.76,-57.75 1520.58,-50.6 1510.01,-51.32 1512.76,-57.75"/>
</g>
<!-- Node13 -->
<g id="node13" class="node">
<title>Node13</title>
<g id="a_node13"><a xlink:href="../../da/de3/a01398.html#ac81c4d62901080f0883b0e984f7f0062" target="_top" xlink:title=" ">
<polygon fill="none" stroke="black" points="854,-78.5 854,-97.5 992,-97.5 992,-78.5 854,-78.5"/>
<text text-anchor="middle" x="923" y="-85.5" font-family="Helvetica,sans-Serif" font-size="10.00">com.cliffc.aa.Parse._expr</text>
</a>
</g>
</g>
<!-- Node12&#45;&gt;Node13 -->
<g id="edge13" class="edge">
<title>Node12&#45;&gt;Node13</title>
<path fill="none" stroke="midnightblue" d="M1319.56,-100.9C1278.18,-99.8 1223.43,-99.6 1175,-98 1109.58,-95.84 1093.25,-94.13 1028,-89 1016.43,-88.09 1004.14,-87.01 992.22,-86.04"/>
<polygon fill="midnightblue" stroke="midnightblue" points="1319.69,-104.41 1329.79,-101.2 1319.89,-97.41 1319.69,-104.41"/>
</g>
<!-- Node19 -->
<g id="node19" class="node">
<title>Node19</title>
<g id="a_node19"><a xlink:href="../../da/de3/a01398.html#a58b0dba4e9b60d9e9639eea530b6077b" target="_top" xlink:title=" ">
<polygon fill="none" stroke="black" points="1175,-67 1175,-97 1294,-97 1294,-67 1175,-67"/>
<text text-anchor="start" x="1183" y="-85" font-family="Helvetica,sans-Serif" font-size="10.00">com.cliffc.aa.Parse.</text>
<text text-anchor="middle" x="1234.5" y="-74" font-family="Helvetica,sans-Serif" font-size="10.00">_expr_higher_require</text>
</a>
</g>
</g>
<!-- Node12&#45;&gt;Node19 -->
<g id="edge23" class="edge">
<title>Node12&#45;&gt;Node19</title>
<path fill="none" stroke="midnightblue" d="M1319.92,-96.73C1311.35,-95.24 1302.6,-93.71 1294.14,-92.23"/>
<polygon fill="midnightblue" stroke="midnightblue" points="1319.41,-100.2 1329.86,-98.47 1320.61,-93.3 1319.41,-100.2"/>
</g>
<!-- Node13&#45;&gt;Node12 -->
<g id="edge14" class="edge">
<title>Node13&#45;&gt;Node12</title>
<path fill="none" stroke="midnightblue" d="M957.56,-99.34C977.92,-102.59 1004.44,-105.15 1028,-107 1093.25,-112.13 1109.58,-113.84 1175,-116 1227.53,-117.73 1287.51,-117.83 1329.79,-115.96"/>
<polygon fill="midnightblue" stroke="midnightblue" points="957.98,-95.86 947.52,-97.58 956.77,-102.75 957.98,-95.86"/>
</g>
<!-- Node14 -->
<g id="node14" class="node">
<title>Node14</title>
<g id="a_node14"><a xlink:href="../../da/de3/a01398.html#af41d3ed90c69faf4279701b6aa98bd3a" target="_top" xlink:title="Parse an expression, a series of terms separated by binary operators.">
<polygon fill="none" stroke="black" points="685,-72.5 685,-91.5 818,-91.5 818,-72.5 685,-72.5"/>
<text text-anchor="middle" x="751.5" y="-79.5" font-family="Helvetica,sans-Serif" font-size="10.00">com.cliffc.aa.Parse.expr</text>
</a>
</g>
</g>
<!-- Node13&#45;&gt;Node14 -->
<g id="edge15" class="edge">
<title>Node13&#45;&gt;Node14</title>
<path fill="none" stroke="midnightblue" d="M843.34,-85.22C834.93,-84.92 826.43,-84.62 818.19,-84.33"/>
<polygon fill="midnightblue" stroke="midnightblue" points="843.43,-88.72 853.55,-85.58 843.68,-81.73 843.43,-88.72"/>
</g>
<!-- Node15 -->
<g id="node15" class="node">
<title>Node15</title>
<g id="a_node15"><a xlink:href="../../da/de3/a01398.html#a6e92b63110e4ed2e5bf7533656730f3f" target="_top" xlink:title="Parse a lisp&#45;like function application.">
<polygon fill="none" stroke="black" points="511,-72.5 511,-91.5 649,-91.5 649,-72.5 511,-72.5"/>
<text text-anchor="middle" x="580" y="-79.5" font-family="Helvetica,sans-Serif" font-size="10.00">com.cliffc.aa.Parse.apply</text>
</a>
</g>
</g>
<!-- Node14&#45;&gt;Node15 -->
<g id="edge16" class="edge">
<title>Node14&#45;&gt;Node15</title>
<path fill="none" stroke="midnightblue" d="M674.96,-82C666.37,-82 657.65,-82 649.16,-82"/>
<polygon fill="midnightblue" stroke="midnightblue" points="674.97,-85.5 684.97,-82 674.97,-78.5 674.97,-85.5"/>
</g>
<!-- Node16 -->
<g id="node16" class="node">
<title>Node16</title>
<g id="a_node16"><a xlink:href="../../da/de3/a01398.html#a5e1b4411da5e7400c4fc45d4b3dbd795" target="_top" xlink:title="Parse an if&#45;expression, with lazy eval on the branches.">
<polygon fill="none" stroke="black" points="345,-34.5 345,-53.5 475,-53.5 475,-34.5 345,-34.5"/>
<text text-anchor="middle" x="410" y="-41.5" font-family="Helvetica,sans-Serif" font-size="10.00">com.cliffc.aa.Parse.ifex</text>
</a>
</g>
</g>
<!-- Node14&#45;&gt;Node16 -->
<g id="edge22" class="edge">
<title>Node14&#45;&gt;Node16</title>
<path fill="none" stroke="midnightblue" d="M695.09,-70.54C680.18,-67.75 664.02,-65 649,-63 590.35,-55.19 523.1,-50.18 475.09,-47.28"/>
<polygon fill="midnightblue" stroke="midnightblue" points="694.71,-74.03 705.19,-72.46 696.02,-67.15 694.71,-74.03"/>
</g>
<!-- Node15&#45;&gt;Node16 -->
<g id="edge17" class="edge">
<title>Node15&#45;&gt;Node16</title>
<path fill="none" stroke="midnightblue" d="M526.72,-70.18C503.04,-64.82 475.41,-58.57 453.09,-53.52"/>
<polygon fill="midnightblue" stroke="midnightblue" points="526.08,-73.62 536.61,-72.41 527.63,-66.79 526.08,-73.62"/>
</g>
<!-- Node17 -->
<g id="node17" class="node">
<title>Node17</title>
<g id="a_node17"><a xlink:href="../../da/de3/a01398.html#a2a5934e98ffa96d31e2135ab66c7e796" target="_top" xlink:title="A statement is a list of variables to final&#45;assign or re&#45;assign, and an ifex for the value.">
<polygon fill="none" stroke="black" points="175,-34.5 175,-53.5 309,-53.5 309,-34.5 175,-34.5"/>
<text text-anchor="middle" x="242" y="-41.5" font-family="Helvetica,sans-Serif" font-size="10.00">com.cliffc.aa.Parse.stmt</text>
</a>
</g>
</g>
<!-- Node16&#45;&gt;Node17 -->
<g id="edge18" class="edge">
<title>Node16&#45;&gt;Node17</title>
<path fill="none" stroke="midnightblue" d="M334.59,-37.28C326.13,-37.22 317.55,-37.25 309.2,-37.37"/>
<polygon fill="midnightblue" stroke="midnightblue" points="334.78,-40.78 344.82,-37.41 334.86,-33.79 334.78,-40.78"/>
</g>
<!-- Node17&#45;&gt;Node11 -->
<g id="edge21" class="edge">
<title>Node17&#45;&gt;Node11</title>
<path fill="none" stroke="midnightblue" d="M297.52,-32.42C363.76,-19.38 479.04,0 579,0 1235.5,0 1235.5,0 1235.5,0 1330.29,0 1440.09,-19.38 1499.45,-31.49"/>
<polygon fill="midnightblue" stroke="midnightblue" points="296.45,-29.06 287.33,-34.45 297.82,-35.93 296.45,-29.06"/>
</g>
<!-- Node17&#45;&gt;Node16 -->
<g id="edge19" class="edge">
<title>Node17&#45;&gt;Node16</title>
<path fill="none" stroke="midnightblue" d="M319.47,-50.73C327.95,-50.78 336.52,-50.73 344.82,-50.59"/>
<polygon fill="midnightblue" stroke="midnightblue" points="319.24,-47.23 309.2,-50.63 319.17,-54.23 319.24,-47.23"/>
</g>
<!-- Node18 -->
<g id="node18" class="node">
<title>Node18</title>
<g id="a_node18"><a xlink:href="../../da/de3/a01398.html#adf95c17fe0de5cfff574ee89b78f0d37" target="_top" xlink:title=" ">
<polygon fill="none" stroke="black" points="0,-34.5 0,-53.5 139,-53.5 139,-34.5 0,-34.5"/>
<text text-anchor="middle" x="69.5" y="-41.5" font-family="Helvetica,sans-Serif" font-size="10.00">com.cliffc.aa.Parse.stmts</text>
</a>
</g>
</g>
<!-- Node17&#45;&gt;Node18 -->
<g id="edge20" class="edge">
<title>Node17&#45;&gt;Node18</title>
<path fill="none" stroke="midnightblue" d="M164.44,-44C156.05,-44 147.54,-44 139.26,-44"/>
<polygon fill="midnightblue" stroke="midnightblue" points="164.59,-47.5 174.59,-44 164.59,-40.5 164.59,-47.5"/>
</g>
<!-- Node19&#45;&gt;Node13 -->
<g id="edge24" class="edge">
<title>Node19&#45;&gt;Node13</title>
<path fill="none" stroke="midnightblue" d="M1164.89,-83.33C1113.44,-84.33 1043.36,-85.69 992.04,-86.68"/>
<polygon fill="midnightblue" stroke="midnightblue" points="1164.99,-86.83 1174.92,-83.14 1164.86,-79.83 1164.99,-86.83"/>
</g>
<!-- Node20 -->
<g id="node20" class="node">
<title>Node20</title>
<g id="a_node20"><a xlink:href="../../da/de3/a01398.html#ade4bf32252a86275a1ec393dea94ed6f" target="_top" xlink:title=" ">
<polygon fill="none" stroke="black" points="1028,-29 1028,-59 1139,-59 1139,-29 1028,-29"/>
<text text-anchor="start" x="1036" y="-47" font-family="Helvetica,sans-Serif" font-size="10.00">com.cliffc.aa.Parse.</text>
<text text-anchor="middle" x="1083.5" y="-36" font-family="Helvetica,sans-Serif" font-size="10.00">_short_circuit_expr</text>
</a>
</g>
</g>
<!-- Node19&#45;&gt;Node20 -->
<g id="edge25" class="edge">
<title>Node19&#45;&gt;Node20</title>
<path fill="none" stroke="midnightblue" d="M1164.91,-64.51C1156.25,-62.3 1147.48,-60.06 1139.08,-57.92"/>
<polygon fill="midnightblue" stroke="midnightblue" points="1164.06,-67.9 1174.61,-66.98 1165.79,-61.12 1164.06,-67.9"/>
</g>
<!-- Node20&#45;&gt;Node13 -->
<g id="edge26" class="edge">
<title>Node20&#45;&gt;Node13</title>
<path fill="none" stroke="midnightblue" d="M1018.75,-61.7C998.17,-67.41 976.14,-73.53 958.5,-78.42"/>
<polygon fill="midnightblue" stroke="midnightblue" points="1019.7,-65.07 1028.4,-59.02 1017.82,-58.32 1019.7,-65.07"/>
</g>
<!-- Node21&#45;&gt;Node11 -->
<g id="edge29" class="edge">
<title>Node21&#45;&gt;Node11</title>
<path fill="none" stroke="midnightblue" d="M1664.16,-29.15C1646.77,-30.88 1628.26,-32.72 1611.15,-34.42"/>
<polygon fill="midnightblue" stroke="midnightblue" points="1664.65,-32.62 1674.25,-28.14 1663.95,-25.65 1664.65,-32.62"/>
</g>
</g>
</svg>
