<?xml version="1.0" encoding="UTF-8" standalone="no"?>
<!DOCTYPE svg PUBLIC "-//W3C//DTD SVG 1.1//EN"
 "http://www.w3.org/Graphics/SVG/1.1/DTD/svg11.dtd">
<!-- Generated by graphviz version 2.43.0 (0)
 -->
<!-- Title: com.cliffc.aa.node.CastNode.ideal_mono Pages: 1 -->
<!--zoomable 190 -->
<svg id="main" version="1.1" xmlns="http://www.w3.org/2000/svg" xmlns:xlink="http://www.w3.org/1999/xlink" xml:space="preserve" onload="init(evt)">
<style type="text/css"><![CDATA[
.edge:hover path { stroke: red; }
.edge:hover polygon { stroke: red; fill: red; }
]]></style>
<script type="text/javascript"><![CDATA[
var edges = document.getElementsByTagName('g');
if (edges && edges.length) {
  for (var i=0;i<edges.length;i++) {
    if (edges[i].id.substr(0,4)=='edge') {
      edges[i].setAttribute('class','edge');
    }
  }
}
]]></script>
        <defs>
                <circle id="rim" cx="0" cy="0" r="7"/>
                <circle id="rim2" cx="0" cy="0" r="3.5"/>
                <g id="zoomPlus">
                        <use xlink:href="#rim" fill="#404040">
                                <set attributeName="fill" to="#808080" begin="zoomplus.mouseover" end="zoomplus.mouseout"/>
                        </use>
                        <path d="M-4,0h8M0,-4v8" fill="none" stroke="white" stroke-width="1.5" pointer-events="none"/>
                </g>
                <g id="zoomMin">
                        <use xlink:href="#rim" fill="#404040">
                                <set attributeName="fill" to="#808080" begin="zoomminus.mouseover" end="zoomminus.mouseout"/>
                        </use>
                        <path d="M-4,0h8" fill="none" stroke="white" stroke-width="1.5" pointer-events="none"/>
                </g>
                <g id="dirArrow">
                        <path fill="none" stroke="white" stroke-width="1.5" d="M0,-3.0v7 M-2.5,-0.5L0,-3.0L2.5,-0.5"/>
                </g>
               <g id="resetDef">
                       <use xlink:href="#rim2" fill="#404040">
                               <set attributeName="fill" to="#808080" begin="reset.mouseover" end="reset.mouseout"/>
                       </use>
               </g>
        </defs>

<script type="text/javascript">
var viewWidth = 1699;
var viewHeight = 190;
var sectionId = 'dynsection-53';
</script>
<script xlink:href="../../svgpan.js"/>
<svg id="graph" class="graph">
<g id="viewport">
<title>com.cliffc.aa.node.CastNode.ideal_mono</title>
<!-- Node1 -->
<g id="node1" class="node">
<title>Node1</title>
<g id="a_node1"><a xlink:title=" ">
<polygon fill="#bfbfbf" stroke="black" points="0,-114.5 0,-133.5 216,-133.5 216,-114.5 0,-114.5"/>
<text text-anchor="middle" x="108" y="-121.5" font-family="Helvetica,sans-Serif" font-size="10.00">com.cliffc.aa.node.CastNode.ideal_mono</text>
</a>
</g>
</g>
<!-- Node2 -->
<g id="node2" class="node">
<title>Node2</title>
<g id="a_node2"><a xlink:href="../../d0/d56/a01014.html#afc3254ef1a5129458411e61bd7e55491" target="_top" xlink:title=" ">
<polygon fill="none" stroke="black" points="252,-145.5 252,-164.5 451,-164.5 451,-145.5 252,-145.5"/>
<text text-anchor="middle" x="351.5" y="-152.5" font-family="Helvetica,sans-Serif" font-size="10.00">com.cliffc.aa.node.CastNode.checked</text>
</a>
</g>
</g>
<!-- Node1&#45;&gt;Node2 -->
<g id="edge1" class="edge">
<title>Node1&#45;&gt;Node2</title>
<path fill="none" stroke="midnightblue" d="M183.1,-133.51C209.29,-136.87 238.93,-140.68 265.92,-144.14"/>
<polygon fill="midnightblue" stroke="midnightblue" points="265.76,-147.65 276.12,-145.45 266.65,-140.71 265.76,-147.65"/>
</g>
<!-- Node3 -->
<g id="node3" class="node">
<title>Node3</title>
<g id="a_node3"><a xlink:href="../../df/db5/a01158.html#a9a46cea187559f94192aa6e09b91c60c" target="_top" xlink:title=" ">
<polygon fill="none" stroke="black" points="497.5,-145.5 497.5,-164.5 643.5,-164.5 643.5,-145.5 497.5,-145.5"/>
<text text-anchor="middle" x="570.5" y="-152.5" font-family="Helvetica,sans-Serif" font-size="10.00">com.cliffc.aa.node.Node.in</text>
</a>
</g>
</g>
<!-- Node1&#45;&gt;Node3 -->
<g id="edge3" class="edge">
<title>Node1&#45;&gt;Node3</title>
<path fill="none" stroke="midnightblue" d="M129.26,-133.54C156.46,-145.76 206.62,-166.3 252,-174 342.05,-189.29 448.27,-176.89 512.18,-166.2"/>
<polygon fill="midnightblue" stroke="midnightblue" points="512.8,-169.64 522.07,-164.5 511.62,-162.74 512.8,-169.64"/>
</g>
<!-- Node4 -->
<g id="node4" class="node">
<title>Node4</title>
<g id="a_node4"><a xlink:href="../../df/db5/a01158.html#a76827313ea74c03a0d11a9cbf9e11c6e" target="_top" xlink:title=" ">
<polygon fill="none" stroke="black" points="265,-39.5 265,-58.5 438,-58.5 438,-39.5 265,-39.5"/>
<text text-anchor="middle" x="351.5" y="-46.5" font-family="Helvetica,sans-Serif" font-size="10.00">com.cliffc.aa.node.Node.set_def</text>
</a>
</g>
</g>
<!-- Node1&#45;&gt;Node4 -->
<g id="edge4" class="edge">
<title>Node1&#45;&gt;Node4</title>
<path fill="none" stroke="midnightblue" d="M130.42,-114.47C158.05,-102.47 207.82,-81.88 252,-69 262.75,-65.86 274.31,-63.04 285.59,-60.58"/>
<polygon fill="midnightblue" stroke="midnightblue" points="286.34,-63.99 295.4,-58.5 284.89,-57.15 286.34,-63.99"/>
</g>
<!-- Node16 -->
<g id="node16" class="node">
<title>Node16</title>
<g id="a_node16"><a xlink:href="../../df/db5/a01158.html#ade7fb2b2adefcb5c35996b4a1acc1ca4" target="_top" xlink:title=" ">
<polygon fill="none" stroke="black" points="271,-78 271,-108 432,-108 432,-78 271,-78"/>
<text text-anchor="start" x="279" y="-96" font-family="Helvetica,sans-Serif" font-size="10.00">com.cliffc.aa.node.Node.walk</text>
<text text-anchor="middle" x="351.5" y="-85" font-family="Helvetica,sans-Serif" font-size="10.00">_dom_last</text>
</a>
</g>
</g>
<!-- Node1&#45;&gt;Node16 -->
<g id="edge20" class="edge">
<title>Node1&#45;&gt;Node16</title>
<path fill="none" stroke="midnightblue" d="M183.1,-114.49C207.58,-111.35 235.08,-107.82 260.61,-104.54"/>
<polygon fill="midnightblue" stroke="midnightblue" points="261.19,-107.99 270.67,-103.25 260.3,-101.05 261.19,-107.99"/>
</g>
<!-- Node2&#45;&gt;Node3 -->
<g id="edge2" class="edge">
<title>Node2&#45;&gt;Node3</title>
<path fill="none" stroke="midnightblue" d="M451.16,-155C463.19,-155 475.39,-155 487.16,-155"/>
<polygon fill="midnightblue" stroke="midnightblue" points="487.37,-158.5 497.37,-155 487.37,-151.5 487.37,-158.5"/>
</g>
<!-- Node5 -->
<g id="node5" class="node">
<title>Node5</title>
<g id="a_node5"><a xlink:href="../../df/db5/a01158.html#abd1ef05754be5fb96db69e3bd0a0a8bd" target="_top" xlink:title=" ">
<polygon fill="none" stroke="black" points="690,-16.5 690,-35.5 866,-35.5 866,-16.5 690,-16.5"/>
<text text-anchor="middle" x="778" y="-23.5" font-family="Helvetica,sans-Serif" font-size="10.00">com.cliffc.aa.node.Node.unelock</text>
</a>
</g>
</g>
<!-- Node4&#45;&gt;Node5 -->
<g id="edge5" class="edge">
<title>Node4&#45;&gt;Node5</title>
<path fill="none" stroke="midnightblue" d="M438.15,-44.36C508,-40.57 606.69,-35.23 679.56,-31.28"/>
<polygon fill="midnightblue" stroke="midnightblue" points="679.87,-34.77 689.66,-30.73 679.49,-27.78 679.87,-34.77"/>
</g>
<!-- Node12 -->
<g id="node12" class="node">
<title>Node12</title>
<g id="a_node12"><a xlink:href="../../df/db5/a01158.html#a284c9a1217237d2f3eede517b6a33aa4" target="_top" xlink:title=" ">
<polygon fill="none" stroke="black" points="487,-60.5 487,-79.5 654,-79.5 654,-60.5 487,-60.5"/>
<text text-anchor="middle" x="570.5" y="-67.5" font-family="Helvetica,sans-Serif" font-size="10.00">com.cliffc.aa.node.Node.unuse</text>
</a>
</g>
</g>
<!-- Node4&#45;&gt;Node12 -->
<g id="edge13" class="edge">
<title>Node4&#45;&gt;Node12</title>
<path fill="none" stroke="midnightblue" d="M438.26,-57.3C450.88,-58.52 463.93,-59.78 476.69,-61.02"/>
<polygon fill="midnightblue" stroke="midnightblue" points="476.55,-64.52 486.84,-62 477.22,-57.55 476.55,-64.52"/>
</g>
<!-- Node6 -->
<g id="node6" class="node">
<title>Node6</title>
<g id="a_node6"><a xlink:href="../../d9/d0a/a00390.html#a195b2b7d0b8f0f1770422573c2cc22ff" target="_top" xlink:title=" ">
<polygon fill="none" stroke="black" points="911,-88.5 911,-107.5 1084,-107.5 1084,-88.5 911,-88.5"/>
<text text-anchor="middle" x="997.5" y="-95.5" font-family="Helvetica,sans-Serif" font-size="10.00">com.cliffc.aa.GVNGCM.add_flow</text>
</a>
</g>
</g>
<!-- Node5&#45;&gt;Node6 -->
<g id="edge6" class="edge">
<title>Node5&#45;&gt;Node6</title>
<path fill="none" stroke="midnightblue" d="M841.72,-35.51C850.13,-37.98 858.45,-41.08 866,-45 885.27,-54.99 882.7,-68.07 902,-78 907.58,-80.87 913.54,-83.33 919.66,-85.43"/>
<polygon fill="midnightblue" stroke="midnightblue" points="918.79,-88.83 929.38,-88.46 920.87,-82.14 918.79,-88.83"/>
</g>
<!-- Node10 -->
<g id="node10" class="node">
<title>Node10</title>
<g id="a_node10"><a xlink:href="../../d9/d0a/a00390.html#ad52b88a21b47c661e6f6a3bcfdbb3576" target="_top" xlink:title=" ">
<polygon fill="none" stroke="black" points="923.5,-39 923.5,-69 1071.5,-69 1071.5,-39 923.5,-39"/>
<text text-anchor="start" x="931.5" y="-57" font-family="Helvetica,sans-Serif" font-size="10.00">com.cliffc.aa.GVNGCM.add</text>
<text text-anchor="middle" x="997.5" y="-46" font-family="Helvetica,sans-Serif" font-size="10.00">_reduce</text>
</a>
</g>
</g>
<!-- Node5&#45;&gt;Node10 -->
<g id="edge10" class="edge">
<title>Node5&#45;&gt;Node10</title>
<path fill="none" stroke="midnightblue" d="M852.94,-35.52C872.32,-38.01 893.36,-40.72 913.2,-43.28"/>
<polygon fill="midnightblue" stroke="midnightblue" points="912.77,-46.75 923.13,-44.56 913.66,-39.81 912.77,-46.75"/>
</g>
<!-- Node11 -->
<g id="node11" class="node">
<title>Node11</title>
<g id="a_node11"><a xlink:href="../../df/db5/a01158.html#abcbaaf7e990f5a12a68e91a70af8fb7e" target="_top" xlink:title=" ">
<polygon fill="none" stroke="black" points="902,-0.5 902,-19.5 1093,-19.5 1093,-0.5 902,-0.5"/>
<text text-anchor="middle" x="997.5" y="-7.5" font-family="Helvetica,sans-Serif" font-size="10.00">com.cliffc.aa.node.Node.check_vals</text>
</a>
</g>
</g>
<!-- Node5&#45;&gt;Node11 -->
<g id="edge12" class="edge">
<title>Node5&#45;&gt;Node11</title>
<path fill="none" stroke="midnightblue" d="M866.21,-19.58C874.62,-18.97 883.21,-18.33 891.77,-17.7"/>
<polygon fill="midnightblue" stroke="midnightblue" points="892.06,-21.19 901.78,-16.97 891.55,-14.21 892.06,-21.19"/>
</g>
<!-- Node7 -->
<g id="node7" class="node">
<title>Node7</title>
<g id="a_node7"><a xlink:href="../../d9/d0a/a00390.html#a6074ca566ae10e746122ac8d09239d02" target="_top" xlink:title=" ">
<polygon fill="none" stroke="black" points="1129,-88.5 1129,-107.5 1306,-107.5 1306,-88.5 1129,-88.5"/>
<text text-anchor="middle" x="1217.5" y="-95.5" font-family="Helvetica,sans-Serif" font-size="10.00">com.cliffc.aa.GVNGCM.add_work</text>
</a>
</g>
</g>
<!-- Node6&#45;&gt;Node7 -->
<g id="edge7" class="edge">
<title>Node6&#45;&gt;Node7</title>
<path fill="none" stroke="midnightblue" d="M1084.03,-98C1095.38,-98 1107.09,-98 1118.62,-98"/>
<polygon fill="midnightblue" stroke="midnightblue" points="1118.7,-101.5 1128.7,-98 1118.7,-94.5 1118.7,-101.5"/>
</g>
<!-- Node8 -->
<g id="node8" class="node">
<title>Node8</title>
<g id="a_node8"><a xlink:href="../../d6/d2f/a01394.html#acc21c59313a6ce5c286431fd2d4fd891" target="_top" xlink:title=" ">
<polygon fill="none" stroke="black" points="1342,-88.5 1342,-107.5 1497,-107.5 1497,-88.5 1342,-88.5"/>
<text text-anchor="middle" x="1419.5" y="-95.5" font-family="Helvetica,sans-Serif" font-size="10.00">com.cliffc.aa.node.Work.add</text>
</a>
</g>
</g>
<!-- Node7&#45;&gt;Node8 -->
<g id="edge8" class="edge">
<title>Node7&#45;&gt;Node8</title>
<path fill="none" stroke="midnightblue" d="M1306.22,-98C1314.65,-98 1323.2,-98 1331.63,-98"/>
<polygon fill="midnightblue" stroke="midnightblue" points="1331.82,-101.5 1341.82,-98 1331.82,-94.5 1331.82,-101.5"/>
</g>
<!-- Node9 -->
<g id="node9" class="node">
<title>Node9</title>
<g id="a_node9"><a xlink:href="../../df/dee/a01646.html#a88ad20daf92e92fe0e3925b23c4fecf0" target="_top" xlink:title=" ">
<polygon fill="none" stroke="black" points="1533,-88.5 1533,-107.5 1691,-107.5 1691,-88.5 1533,-88.5"/>
<text text-anchor="middle" x="1612" y="-95.5" font-family="Helvetica,sans-Serif" font-size="10.00">com.cliffc.aa.util.VBitSet.tset</text>
</a>
</g>
</g>
<!-- Node8&#45;&gt;Node9 -->
<g id="edge9" class="edge">
<title>Node8&#45;&gt;Node9</title>
<path fill="none" stroke="midnightblue" d="M1497.16,-98C1505.63,-98 1514.31,-98 1522.9,-98"/>
<polygon fill="midnightblue" stroke="midnightblue" points="1522.94,-101.5 1532.94,-98 1522.94,-94.5 1522.94,-101.5"/>
</g>
<!-- Node10&#45;&gt;Node7 -->
<g id="edge11" class="edge">
<title>Node10&#45;&gt;Node7</title>
<path fill="none" stroke="midnightblue" d="M1071.7,-68.77C1100.21,-74.53 1132.41,-81.03 1159.19,-86.43"/>
<polygon fill="midnightblue" stroke="midnightblue" points="1158.67,-89.9 1169.17,-88.45 1160.06,-83.04 1158.67,-89.9"/>
</g>
<!-- Node13 -->
<g id="node13" class="node">
<title>Node13</title>
<g id="a_node13"><a xlink:href="../../df/db5/a01158.html#a4c43a2abe5004ef2cf98b07a01500a1f" target="_top" xlink:title=" ">
<polygon fill="none" stroke="black" points="700.5,-55 700.5,-85 855.5,-85 855.5,-55 700.5,-55"/>
<text text-anchor="start" x="708.5" y="-73" font-family="Helvetica,sans-Serif" font-size="10.00">com.cliffc.aa.node.Node.add</text>
<text text-anchor="middle" x="778" y="-62" font-family="Helvetica,sans-Serif" font-size="10.00">_flow_def_extra</text>
</a>
</g>
</g>
<!-- Node12&#45;&gt;Node13 -->
<g id="edge14" class="edge">
<title>Node12&#45;&gt;Node13</title>
<path fill="none" stroke="midnightblue" d="M654.2,-70C666.13,-70 678.45,-70 690.46,-70"/>
<polygon fill="midnightblue" stroke="midnightblue" points="690.46,-73.5 700.46,-70 690.46,-66.5 690.46,-73.5"/>
</g>
<!-- Node14 -->
<g id="node14" class="node">
<title>Node14</title>
<g id="a_node14"><a xlink:href="../../d9/d0a/a00390.html#a4a612bae4153eff084e4fe1d0049987c" target="_top" xlink:title=" ">
<polygon fill="none" stroke="black" points="704,-104 704,-134 852,-134 852,-104 704,-104"/>
<text text-anchor="start" x="712" y="-122" font-family="Helvetica,sans-Serif" font-size="10.00">com.cliffc.aa.GVNGCM.add</text>
<text text-anchor="middle" x="778" y="-111" font-family="Helvetica,sans-Serif" font-size="10.00">_unuse</text>
</a>
</g>
</g>
<!-- Node12&#45;&gt;Node14 -->
<g id="edge15" class="edge">
<title>Node12&#45;&gt;Node14</title>
<path fill="none" stroke="midnightblue" d="M611.61,-79.56C637.85,-85.82 672.92,-94.18 704,-101.59"/>
<polygon fill="midnightblue" stroke="midnightblue" points="703.4,-105.05 713.94,-103.96 705.02,-98.24 703.4,-105.05"/>
</g>
<!-- Node14&#45;&gt;Node6 -->
<g id="edge18" class="edge">
<title>Node14&#45;&gt;Node6</title>
<path fill="none" stroke="midnightblue" d="M852.03,-111.95C867.67,-110.44 884.41,-108.82 900.76,-107.24"/>
<polygon fill="midnightblue" stroke="midnightblue" points="901.25,-110.71 910.87,-106.27 900.58,-103.74 901.25,-110.71"/>
</g>
<!-- Node14&#45;&gt;Node10 -->
<g id="edge19" class="edge">
<title>Node14&#45;&gt;Node10</title>
<path fill="none" stroke="midnightblue" d="M838.34,-103.91C847.67,-101.17 857.15,-98.17 866,-95 882.49,-89.1 885.48,-84.81 902,-79 909.2,-76.46 916.79,-74.05 924.41,-71.79"/>
<polygon fill="midnightblue" stroke="midnightblue" points="925.41,-75.14 934.05,-69.01 923.48,-68.41 925.41,-75.14"/>
</g>
<!-- Node15 -->
<g id="node15" class="node">
<title>Node15</title>
<g id="a_node15"><a xlink:href="../../d9/d0a/a00390.html#af23b6c0debccdb7104dea273b231c716" target="_top" xlink:title=" ">
<polygon fill="none" stroke="black" points="909,-126.5 909,-145.5 1086,-145.5 1086,-126.5 909,-126.5"/>
<text text-anchor="middle" x="997.5" y="-133.5" font-family="Helvetica,sans-Serif" font-size="10.00">com.cliffc.aa.GVNGCM.add_dead</text>
</a>
</g>
</g>
<!-- Node14&#45;&gt;Node15 -->
<g id="edge16" class="edge">
<title>Node14&#45;&gt;Node15</title>
<path fill="none" stroke="midnightblue" d="M852.03,-124.71C867.01,-125.88 883.01,-127.13 898.71,-128.36"/>
<polygon fill="midnightblue" stroke="midnightblue" points="898.72,-131.87 908.96,-129.16 899.26,-124.89 898.72,-131.87"/>
</g>
<!-- Node15&#45;&gt;Node7 -->
<g id="edge17" class="edge">
<title>Node15&#45;&gt;Node7</title>
<path fill="none" stroke="midnightblue" d="M1053.23,-126.46C1083.16,-121.24 1120.42,-114.75 1151.79,-109.28"/>
<polygon fill="midnightblue" stroke="midnightblue" points="1152.5,-112.71 1161.75,-107.54 1151.3,-105.81 1152.5,-112.71"/>
</g>
<!-- Node16&#45;&gt;Node3 -->
<g id="edge21" class="edge">
<title>Node16&#45;&gt;Node3</title>
<path fill="none" stroke="midnightblue" d="M405.03,-108.01C442.13,-118.61 491.26,-132.65 526.14,-142.61"/>
<polygon fill="midnightblue" stroke="midnightblue" points="525.44,-146.05 536.02,-145.43 527.37,-139.32 525.44,-146.05"/>
</g>
<!-- Node16&#45;&gt;Node16 -->
<g id="edge22" class="edge">
<title>Node16&#45;&gt;Node16</title>
<path fill="none" stroke="midnightblue" d="M313.51,-108.16C304.35,-117.56 317.01,-126.5 351.5,-126.5 372.52,-126.5 385.43,-123.18 390.24,-118.46"/>
<polygon fill="midnightblue" stroke="midnightblue" points="393.7,-117.88 389.49,-108.16 386.72,-118.39 393.7,-117.88"/>
</g>
</g>
</svg>
        <g id="navigator" transform="translate(0 0)" fill="#404254">
                <rect fill="#f2f5e9" fill-opacity="0.5" stroke="#606060" stroke-width=".5" x="0" y="0" width="60" height="60"/>
                <use id="zoomplus" xlink:href="#zoomPlus" x="17" y="9" onmousedown="handleZoom(evt,'in')"/>
                <use id="zoomminus" xlink:href="#zoomMin" x="42" y="9" onmousedown="handleZoom(evt,'out')"/>
                <use id="reset" xlink:href="#resetDef" x="30" y="36" onmousedown="handleReset()"/>
                <g id="arrowUp" xlink:href="#dirArrow" transform="translate(30 24)" onmousedown="handlePan(0,-1)">
                  <use xlink:href="#rim" fill="#404040">
                        <set attributeName="fill" to="#808080" begin="arrowUp.mouseover" end="arrowUp.mouseout"/>
                  </use>
                  <path fill="none" stroke="white" stroke-width="1.5" d="M0,-3.0v7 M-2.5,-0.5L0,-3.0L2.5,-0.5"/>
                </g>
                <g id="arrowRight" xlink:href="#dirArrow" transform="rotate(90) translate(36 -43)" onmousedown="handlePan(1,0)">
                  <use xlink:href="#rim" fill="#404040">
                        <set attributeName="fill" to="#808080" begin="arrowRight.mouseover" end="arrowRight.mouseout"/>
                  </use>
                  <path fill="none" stroke="white" stroke-width="1.5" d="M0,-3.0v7 M-2.5,-0.5L0,-3.0L2.5,-0.5"/>
                </g>
                <g id="arrowDown" xlink:href="#dirArrow" transform="rotate(180) translate(-30 -48)" onmousedown="handlePan(0,1)">
                  <use xlink:href="#rim" fill="#404040">
                        <set attributeName="fill" to="#808080" begin="arrowDown.mouseover" end="arrowDown.mouseout"/>
                  </use>
                  <path fill="none" stroke="white" stroke-width="1.5" d="M0,-3.0v7 M-2.5,-0.5L0,-3.0L2.5,-0.5"/>
                </g>
                <g id="arrowLeft" xlink:href="#dirArrow" transform="rotate(270) translate(-36 17)" onmousedown="handlePan(-1,0)">
                  <use xlink:href="#rim" fill="#404040">
                        <set attributeName="fill" to="#808080" begin="arrowLeft.mouseover" end="arrowLeft.mouseout"/>
                  </use>
                  <path fill="none" stroke="white" stroke-width="1.5" d="M0,-3.0v7 M-2.5,-0.5L0,-3.0L2.5,-0.5"/>
                </g>
        </g>
        <svg viewBox="0 0 15 15" width="100%" height="30px" preserveAspectRatio="xMaxYMin meet">
         <g id="arrow_out" transform="scale(0.3 0.3)">
          <a xlink:href="a01014_a107021f1a99972c00f734b3729f878b0_cgraph_org.svg" target="_base">
           <rect id="button" ry="5" rx="5" y="6" x="6" height="38" width="38"
                fill="#f2f5e9" fill-opacity="0.5" stroke="#606060" stroke-width="1.0"/>
           <path id="arrow"
             d="M 11.500037,31.436501 C 11.940474,20.09759 22.043105,11.32322 32.158766,21.979434 L 37.068811,17.246167 C 37.068811,17.246167 37.088388,32 37.088388,32 L 22.160133,31.978069 C 22.160133,31.978069 26.997745,27.140456 26.997745,27.140456 C 18.528582,18.264221 13.291696,25.230495 11.500037,31.436501 z"
             style="fill:#404040;"/>
          </a>
         </g>
        </svg>
</svg>
