<?xml version="1.0" encoding="UTF-8" standalone="no"?>
<!DOCTYPE svg PUBLIC "-//W3C//DTD SVG 1.1//EN"
 "http://www.w3.org/Graphics/SVG/1.1/DTD/svg11.dtd">
<!-- Generated by graphviz version 2.43.0 (0)
 -->
<!-- Title: com.cliffc.aa.HM.HM6.Let.prep_lookup_deps Pages: 1 -->
<!--zoomable 170 -->
<svg id="main" version="1.1" xmlns="http://www.w3.org/2000/svg" xmlns:xlink="http://www.w3.org/1999/xlink" xml:space="preserve" onload="init(evt)">
<style type="text/css"><![CDATA[
.edge:hover path { stroke: red; }
.edge:hover polygon { stroke: red; fill: red; }
]]></style>
<script type="text/javascript"><![CDATA[
var edges = document.getElementsByTagName('g');
if (edges && edges.length) {
  for (var i=0;i<edges.length;i++) {
    if (edges[i].id.substr(0,4)=='edge') {
      edges[i].setAttribute('class','edge');
    }
  }
}
]]></script>
        <defs>
                <circle id="rim" cx="0" cy="0" r="7"/>
                <circle id="rim2" cx="0" cy="0" r="3.5"/>
                <g id="zoomPlus">
                        <use xlink:href="#rim" fill="#404040">
                                <set attributeName="fill" to="#808080" begin="zoomplus.mouseover" end="zoomplus.mouseout"/>
                        </use>
                        <path d="M-4,0h8M0,-4v8" fill="none" stroke="white" stroke-width="1.5" pointer-events="none"/>
                </g>
                <g id="zoomMin">
                        <use xlink:href="#rim" fill="#404040">
                                <set attributeName="fill" to="#808080" begin="zoomminus.mouseover" end="zoomminus.mouseout"/>
                        </use>
                        <path d="M-4,0h8" fill="none" stroke="white" stroke-width="1.5" pointer-events="none"/>
                </g>
                <g id="dirArrow">
                        <path fill="none" stroke="white" stroke-width="1.5" d="M0,-3.0v7 M-2.5,-0.5L0,-3.0L2.5,-0.5"/>
                </g>
               <g id="resetDef">
                       <use xlink:href="#rim2" fill="#404040">
                               <set attributeName="fill" to="#808080" begin="reset.mouseover" end="reset.mouseout"/>
                       </use>
               </g>
        </defs>

<script type="text/javascript">
var viewWidth = 1748;
var viewHeight = 170;
var sectionId = 'dynsection-19';
</script>
<script xlink:href="../../svgpan.js"/>
<svg id="graph" class="graph">
<g id="viewport">
<title>com.cliffc.aa.HM.HM6.Let.prep_lookup_deps</title>
<!-- Node1 -->
<g id="node1" class="node">
<title>Node1</title>
<g id="a_node1"><a xlink:title=" ">
<polygon fill="#bfbfbf" stroke="black" points="0,-109.44 0,-139.44 167,-139.44 167,-109.44 0,-109.44"/>
<text text-anchor="start" x="8" y="-127.44" font-family="Helvetica,sans-Serif" font-size="10.00">com.cliffc.aa.HM.HM6.Let.prep</text>
<text text-anchor="middle" x="83.5" y="-116.44" font-family="Helvetica,sans-Serif" font-size="10.00">_lookup_deps</text>
</a>
</g>
</g>
<!-- Node2 -->
<g id="node2" class="node">
<title>Node2</title>
<g id="a_node2"><a xlink:href="../../dd/d55/a01638.html#a3975ba7dca9fe2d6e4992b2b5558f882" target="_top" xlink:title=" ">
<polygon fill="none" stroke="black" points="1607,-95.94 1607,-114.94 1740,-114.94 1740,-95.94 1607,-95.94"/>
<text text-anchor="middle" x="1673.5" y="-102.94" font-family="Helvetica,sans-Serif" font-size="10.00">com.cliffc.aa.util.Util.eq</text>
</a>
</g>
</g>
<!-- Node1&#45;&gt;Node2 -->
<g id="edge1" class="edge">
<title>Node1&#45;&gt;Node2</title>
<path fill="none" stroke="midnightblue" d="M167.23,-136.89C248.16,-147.97 375.01,-162.44 485.5,-162.44 485.5,-162.44 485.5,-162.44 1293,-162.44 1413.34,-162.44 1552.78,-134.07 1624.46,-117.36"/>
<polygon fill="midnightblue" stroke="midnightblue" points="1625.61,-120.69 1634.54,-114.98 1624,-113.87 1625.61,-120.69"/>
</g>
<!-- Node3 -->
<g id="node3" class="node">
<title>Node3</title>
<g id="a_node3"><a xlink:href="../../da/d96/a00782.html#ae4ac652f707a013684ccf8d0a23bf9f4" target="_top" xlink:title=" ">
<polygon fill="none" stroke="black" points="203,-87.44 203,-117.44 368,-117.44 368,-87.44 203,-87.44"/>
<text text-anchor="start" x="211" y="-105.44" font-family="Helvetica,sans-Serif" font-size="10.00">com.cliffc.aa.HM.HM6.T2.push</text>
<text text-anchor="middle" x="285.5" y="-94.44" font-family="Helvetica,sans-Serif" font-size="10.00">_update</text>
</a>
</g>
</g>
<!-- Node1&#45;&gt;Node3 -->
<g id="edge2" class="edge">
<title>Node1&#45;&gt;Node3</title>
<path fill="none" stroke="midnightblue" d="M167,-115.37C175.51,-114.43 184.19,-113.48 192.79,-112.53"/>
<polygon fill="midnightblue" stroke="midnightblue" points="193.28,-116 202.83,-111.43 192.51,-109.04 193.28,-116"/>
</g>
<!-- Node4 -->
<g id="node4" class="node">
<title>Node4</title>
<g id="a_node4"><a xlink:href="../../da/d96/a00782.html#a3d5dc01f928cfd66c386bdb7c43f5588" target="_top" xlink:title=" ">
<polygon fill="none" stroke="black" points="404,-71.44 404,-101.44 569,-101.44 569,-71.44 404,-71.44"/>
<text text-anchor="start" x="412" y="-89.44" font-family="Helvetica,sans-Serif" font-size="10.00">com.cliffc.aa.HM.HM6.T2.push</text>
<text text-anchor="middle" x="486.5" y="-78.44" font-family="Helvetica,sans-Serif" font-size="10.00">_update_impl</text>
</a>
</g>
</g>
<!-- Node3&#45;&gt;Node4 -->
<g id="edge3" class="edge">
<title>Node3&#45;&gt;Node4</title>
<path fill="none" stroke="midnightblue" d="M368.02,-95.89C376.5,-95.21 385.17,-94.51 393.76,-93.82"/>
<polygon fill="midnightblue" stroke="midnightblue" points="394.1,-97.3 403.79,-93.01 393.54,-90.33 394.1,-97.3"/>
</g>
<!-- Node4&#45;&gt;Node4 -->
<g id="edge13" class="edge">
<title>Node4&#45;&gt;Node4</title>
<path fill="none" stroke="midnightblue" d="M451.65,-101.6C443.24,-111 454.86,-119.94 486.5,-119.94 505.78,-119.94 517.63,-116.62 522.04,-111.9"/>
<polygon fill="midnightblue" stroke="midnightblue" points="525.51,-111.35 521.35,-101.6 518.52,-111.81 525.51,-111.35"/>
</g>
<!-- Node5 -->
<g id="node5" class="node">
<title>Node5</title>
<g id="a_node5"><a xlink:href="../../da/d96/a00782.html#ae20be8067da51e6c21154960c7a16039" target="_top" xlink:title=" ">
<polygon fill="none" stroke="black" points="605,-38.94 605,-57.94 768,-57.94 768,-38.94 605,-38.94"/>
<text text-anchor="middle" x="686.5" y="-45.94" font-family="Helvetica,sans-Serif" font-size="10.00">com.cliffc.aa.HM.HM6.T2.args</text>
</a>
</g>
</g>
<!-- Node4&#45;&gt;Node5 -->
<g id="edge4" class="edge">
<title>Node4&#45;&gt;Node5</title>
<path fill="none" stroke="midnightblue" d="M565.75,-71.42C585.82,-67.57 607.08,-63.49 626.02,-59.86"/>
<polygon fill="midnightblue" stroke="midnightblue" points="626.83,-63.27 636,-57.94 625.51,-56.39 626.83,-63.27"/>
</g>
<!-- Node7 -->
<g id="node7" class="node">
<title>Node7</title>
<g id="a_node7"><a xlink:href="../../da/d96/a00782.html#a6484a76005f406bab8095a6ac41a9ddf" target="_top" xlink:title=" ">
<polygon fill="none" stroke="black" points="1205,-57.94 1205,-76.94 1379,-76.94 1379,-57.94 1205,-57.94"/>
<text text-anchor="middle" x="1292" y="-64.94" font-family="Helvetica,sans-Serif" font-size="10.00">com.cliffc.aa.HM.HM6.T2.is_leaf</text>
</a>
</g>
</g>
<!-- Node4&#45;&gt;Node7 -->
<g id="edge11" class="edge">
<title>Node4&#45;&gt;Node7</title>
<path fill="none" stroke="midnightblue" d="M569.08,-85.31C696.95,-83.4 952.39,-79.11 1169,-72.44 1177.3,-72.19 1185.92,-71.89 1194.56,-71.58"/>
<polygon fill="midnightblue" stroke="midnightblue" points="1194.83,-75.07 1204.7,-71.2 1194.57,-68.08 1194.83,-75.07"/>
</g>
<!-- Node9 -->
<g id="node9" class="node">
<title>Node9</title>
<g id="a_node9"><a xlink:href="../../da/d96/a00782.html#a330c1c6b805c3cb281c514586a5e971b" target="_top" xlink:title=" ">
<polygon fill="none" stroke="black" points="1000,-0.94 1000,-19.94 1169,-19.94 1169,-0.94 1000,-0.94"/>
<text text-anchor="middle" x="1084.5" y="-7.94" font-family="Helvetica,sans-Serif" font-size="10.00">com.cliffc.aa.HM.HM6.T2.no_uf</text>
</a>
</g>
</g>
<!-- Node4&#45;&gt;Node9 -->
<g id="edge12" class="edge">
<title>Node4&#45;&gt;Node9</title>
<path fill="none" stroke="midnightblue" d="M511.13,-71.35C534.1,-57.58 570.47,-38.1 605,-29.44 735.46,3.27 892.12,2.22 989.77,-2.98"/>
<polygon fill="midnightblue" stroke="midnightblue" points="989.73,-6.48 999.91,-3.54 990.12,0.51 989.73,-6.48"/>
</g>
<!-- Node10 -->
<g id="node10" class="node">
<title>Node10</title>
<g id="a_node10"><a xlink:href="../../df/dee/a01646.html#a88ad20daf92e92fe0e3925b23c4fecf0" target="_top" xlink:title=" ">
<polygon fill="none" stroke="black" points="607.5,-114.94 607.5,-133.94 765.5,-133.94 765.5,-114.94 607.5,-114.94"/>
<text text-anchor="middle" x="686.5" y="-121.94" font-family="Helvetica,sans-Serif" font-size="10.00">com.cliffc.aa.util.VBitSet.tset</text>
</a>
</g>
</g>
<!-- Node4&#45;&gt;Node10 -->
<g id="edge14" class="edge">
<title>Node4&#45;&gt;Node10</title>
<path fill="none" stroke="midnightblue" d="M565.75,-101.46C585.82,-105.31 607.08,-109.39 626.02,-113.03"/>
<polygon fill="midnightblue" stroke="midnightblue" points="625.51,-116.49 636,-114.94 626.83,-109.62 625.51,-116.49"/>
</g>
<!-- Node6 -->
<g id="node6" class="node">
<title>Node6</title>
<g id="a_node6"><a xlink:href="../../da/d96/a00782.html#ab2e83a7eade97aab395234bdc2fbdee5" target="_top" xlink:title=" ">
<polygon fill="none" stroke="black" points="804,-38.94 804,-57.94 964,-57.94 964,-38.94 804,-38.94"/>
<text text-anchor="middle" x="884" y="-45.94" font-family="Helvetica,sans-Serif" font-size="10.00">com.cliffc.aa.HM.HM6.T2.find</text>
</a>
</g>
</g>
<!-- Node5&#45;&gt;Node6 -->
<g id="edge5" class="edge">
<title>Node5&#45;&gt;Node6</title>
<path fill="none" stroke="midnightblue" d="M768.15,-48.44C776.52,-48.44 785.07,-48.44 793.53,-48.44"/>
<polygon fill="midnightblue" stroke="midnightblue" points="793.8,-51.94 803.8,-48.44 793.8,-44.94 793.8,-51.94"/>
</g>
<!-- Node6&#45;&gt;Node7 -->
<g id="edge6" class="edge">
<title>Node6&#45;&gt;Node7</title>
<path fill="none" stroke="midnightblue" d="M964.24,-52.15C1030.23,-55.24 1124.43,-59.65 1194.74,-62.94"/>
<polygon fill="midnightblue" stroke="midnightblue" points="1194.78,-66.44 1204.94,-63.42 1195.11,-59.45 1194.78,-66.44"/>
</g>
<!-- Node6&#45;&gt;Node9 -->
<g id="edge9" class="edge">
<title>Node6&#45;&gt;Node9</title>
<path fill="none" stroke="midnightblue" d="M934.83,-38.9C961.73,-33.75 995.14,-27.36 1023.46,-21.94"/>
<polygon fill="midnightblue" stroke="midnightblue" points="1024.48,-25.31 1033.65,-19.99 1023.17,-18.43 1024.48,-25.31"/>
</g>
<!-- Node8 -->
<g id="node8" class="node">
<title>Node8</title>
<g id="a_node8"><a xlink:href="../../da/d96/a00782.html#a84872ec3f243c8ad7557f8ca549b0fe7" target="_top" xlink:title=" ">
<polygon fill="none" stroke="black" points="1415,-76.94 1415,-95.94 1571,-95.94 1571,-76.94 1415,-76.94"/>
<text text-anchor="middle" x="1493" y="-83.94" font-family="Helvetica,sans-Serif" font-size="10.00">com.cliffc.aa.HM.HM6.T2.isa</text>
</a>
</g>
</g>
<!-- Node7&#45;&gt;Node8 -->
<g id="edge7" class="edge">
<title>Node7&#45;&gt;Node8</title>
<path fill="none" stroke="midnightblue" d="M1379.13,-75.67C1387.66,-76.48 1396.32,-77.31 1404.87,-78.12"/>
<polygon fill="midnightblue" stroke="midnightblue" points="1404.53,-81.61 1414.82,-79.07 1405.2,-74.64 1404.53,-81.61"/>
</g>
<!-- Node8&#45;&gt;Node2 -->
<g id="edge8" class="edge">
<title>Node8&#45;&gt;Node2</title>
<path fill="none" stroke="midnightblue" d="M1571.25,-94.67C1579.69,-95.57 1588.28,-96.48 1596.7,-97.38"/>
<polygon fill="midnightblue" stroke="midnightblue" points="1596.56,-100.88 1606.87,-98.46 1597.3,-93.92 1596.56,-100.88"/>
</g>
<!-- Node9&#45;&gt;Node7 -->
<g id="edge10" class="edge">
<title>Node9&#45;&gt;Node7</title>
<path fill="none" stroke="midnightblue" d="M1119.9,-19.98C1154.72,-29.64 1208.71,-44.62 1246.71,-55.16"/>
<polygon fill="midnightblue" stroke="midnightblue" points="1245.92,-58.57 1256.49,-57.87 1247.79,-51.83 1245.92,-58.57"/>
</g>
</g>
</svg>
        <g id="navigator" transform="translate(0 0)" fill="#404254">
                <rect fill="#f2f5e9" fill-opacity="0.5" stroke="#606060" stroke-width=".5" x="0" y="0" width="60" height="60"/>
                <use id="zoomplus" xlink:href="#zoomPlus" x="17" y="9" onmousedown="handleZoom(evt,'in')"/>
                <use id="zoomminus" xlink:href="#zoomMin" x="42" y="9" onmousedown="handleZoom(evt,'out')"/>
                <use id="reset" xlink:href="#resetDef" x="30" y="36" onmousedown="handleReset()"/>
                <g id="arrowUp" xlink:href="#dirArrow" transform="translate(30 24)" onmousedown="handlePan(0,-1)">
                  <use xlink:href="#rim" fill="#404040">
                        <set attributeName="fill" to="#808080" begin="arrowUp.mouseover" end="arrowUp.mouseout"/>
                  </use>
                  <path fill="none" stroke="white" stroke-width="1.5" d="M0,-3.0v7 M-2.5,-0.5L0,-3.0L2.5,-0.5"/>
                </g>
                <g id="arrowRight" xlink:href="#dirArrow" transform="rotate(90) translate(36 -43)" onmousedown="handlePan(1,0)">
                  <use xlink:href="#rim" fill="#404040">
                        <set attributeName="fill" to="#808080" begin="arrowRight.mouseover" end="arrowRight.mouseout"/>
                  </use>
                  <path fill="none" stroke="white" stroke-width="1.5" d="M0,-3.0v7 M-2.5,-0.5L0,-3.0L2.5,-0.5"/>
                </g>
                <g id="arrowDown" xlink:href="#dirArrow" transform="rotate(180) translate(-30 -48)" onmousedown="handlePan(0,1)">
                  <use xlink:href="#rim" fill="#404040">
                        <set attributeName="fill" to="#808080" begin="arrowDown.mouseover" end="arrowDown.mouseout"/>
                  </use>
                  <path fill="none" stroke="white" stroke-width="1.5" d="M0,-3.0v7 M-2.5,-0.5L0,-3.0L2.5,-0.5"/>
                </g>
                <g id="arrowLeft" xlink:href="#dirArrow" transform="rotate(270) translate(-36 17)" onmousedown="handlePan(-1,0)">
                  <use xlink:href="#rim" fill="#404040">
                        <set attributeName="fill" to="#808080" begin="arrowLeft.mouseover" end="arrowLeft.mouseout"/>
                  </use>
                  <path fill="none" stroke="white" stroke-width="1.5" d="M0,-3.0v7 M-2.5,-0.5L0,-3.0L2.5,-0.5"/>
                </g>
        </g>
        <svg viewBox="0 0 15 15" width="100%" height="30px" preserveAspectRatio="xMaxYMin meet">
         <g id="arrow_out" transform="scale(0.3 0.3)">
          <a xlink:href="a00774_afe1c6b243a4f36154e7dd96a22c4bbae_cgraph_org.svg" target="_base">
           <rect id="button" ry="5" rx="5" y="6" x="6" height="38" width="38"
                fill="#f2f5e9" fill-opacity="0.5" stroke="#606060" stroke-width="1.0"/>
           <path id="arrow"
             d="M 11.500037,31.436501 C 11.940474,20.09759 22.043105,11.32322 32.158766,21.979434 L 37.068811,17.246167 C 37.068811,17.246167 37.088388,32 37.088388,32 L 22.160133,31.978069 C 22.160133,31.978069 26.997745,27.140456 26.997745,27.140456 C 18.528582,18.264221 13.291696,25.230495 11.500037,31.436501 z"
             style="fill:#404040;"/>
          </a>
         </g>
        </svg>
</svg>
