<?xml version="1.0" encoding="UTF-8" standalone="no"?>
<!DOCTYPE svg PUBLIC "-//W3C//DTD SVG 1.1//EN"
 "http://www.w3.org/Graphics/SVG/1.1/DTD/svg11.dtd">
<!-- Generated by graphviz version 2.43.0 (0)
 -->
<!-- Title: com.cliffc.aa.HM.HM6.Let.hm Pages: 1 -->
<svg width="1831pt" height="370pt"
 viewBox="0.00 0.00 1831.00 370.00" xmlns="http://www.w3.org/2000/svg" xmlns:xlink="http://www.w3.org/1999/xlink">
<g id="graph0" class="graph" transform="scale(1 1) rotate(0) translate(4 366)">
<title>com.cliffc.aa.HM.HM6.Let.hm</title>
<!-- Node1 -->
<g id="node1" class="node">
<title>Node1</title>
<g id="a_node1"><a xlink:title=" ">
<polygon fill="#bfbfbf" stroke="black" points="0,-286.5 0,-305.5 161,-305.5 161,-286.5 0,-286.5"/>
<text text-anchor="middle" x="80.5" y="-293.5" font-family="Helvetica,sans-Serif" font-size="10.00">com.cliffc.aa.HM.HM6.Let.hm</text>
</a>
</g>
</g>
<!-- Node2 -->
<g id="node2" class="node">
<title>Node2</title>
<g id="a_node2"><a xlink:href="../../d8/d4e/a00754.html#a5715204e20b9ba2da4f3c355319a9806" target="_top" xlink:title=" ">
<polygon fill="none" stroke="black" points="399,-342.5 399,-361.5 581,-361.5 581,-342.5 399,-342.5"/>
<text text-anchor="middle" x="490" y="-349.5" font-family="Helvetica,sans-Serif" font-size="10.00">com.cliffc.aa.HM.HM6.Syntax.find</text>
</a>
</g>
</g>
<!-- Node1&#45;&gt;Node2 -->
<g id="edge1" class="edge">
<title>Node1&#45;&gt;Node2</title>
<path fill="none" stroke="midnightblue" d="M105.39,-305.56C128.44,-314.32 164.52,-326.84 197,-333 260.09,-344.97 332.07,-349.75 388.78,-351.53"/>
<polygon fill="midnightblue" stroke="midnightblue" points="388.73,-355.03 398.83,-351.81 388.93,-348.03 388.73,-355.03"/>
</g>
<!-- Node8 -->
<g id="node8" class="node">
<title>Node8</title>
<g id="a_node8"><a xlink:href="../../d3/dee/a00774.html#a10616578e86cbb388451ea25fd782fc9" target="_top" xlink:title=" ">
<polygon fill="none" stroke="black" points="198,-286.5 198,-305.5 362,-305.5 362,-286.5 198,-286.5"/>
<text text-anchor="middle" x="280" y="-293.5" font-family="Helvetica,sans-Serif" font-size="10.00">com.cliffc.aa.HM.HM6.Let.targ</text>
</a>
</g>
</g>
<!-- Node1&#45;&gt;Node8 -->
<g id="edge8" class="edge">
<title>Node1&#45;&gt;Node8</title>
<path fill="none" stroke="midnightblue" d="M161.26,-296C170.05,-296 179.05,-296 187.96,-296"/>
<polygon fill="midnightblue" stroke="midnightblue" points="187.98,-299.5 197.98,-296 187.98,-292.5 187.98,-299.5"/>
</g>
<!-- Node9 -->
<g id="node9" class="node">
<title>Node9</title>
<g id="a_node9"><a xlink:href="../../da/d96/a00782.html#a7ae143c48f9001c6842b4811384b8bc3" target="_top" xlink:title=" ">
<polygon fill="none" stroke="black" points="197,-200.5 197,-219.5 363,-219.5 363,-200.5 197,-200.5"/>
<text text-anchor="middle" x="280" y="-207.5" font-family="Helvetica,sans-Serif" font-size="10.00">com.cliffc.aa.HM.HM6.T2.unify</text>
</a>
</g>
</g>
<!-- Node1&#45;&gt;Node9 -->
<g id="edge11" class="edge">
<title>Node1&#45;&gt;Node9</title>
<path fill="none" stroke="midnightblue" d="M103.39,-286.47C138.46,-271.2 207.38,-241.18 247.67,-223.64"/>
<polygon fill="midnightblue" stroke="midnightblue" points="249.24,-226.78 257.01,-219.57 246.45,-220.36 249.24,-226.78"/>
</g>
<!-- Node3 -->
<g id="node3" class="node">
<title>Node3</title>
<g id="a_node3"><a xlink:href="../../da/d96/a00782.html#ab2e83a7eade97aab395234bdc2fbdee5" target="_top" xlink:title=" ">
<polygon fill="none" stroke="black" points="864.5,-266.5 864.5,-285.5 1024.5,-285.5 1024.5,-266.5 864.5,-266.5"/>
<text text-anchor="middle" x="944.5" y="-273.5" font-family="Helvetica,sans-Serif" font-size="10.00">com.cliffc.aa.HM.HM6.T2.find</text>
</a>
</g>
</g>
<!-- Node2&#45;&gt;Node3 -->
<g id="edge2" class="edge">
<title>Node2&#45;&gt;Node3</title>
<path fill="none" stroke="midnightblue" d="M581.04,-352.39C645.75,-350.95 734.69,-345.42 811,-328 848.17,-319.52 888.67,-302.37 914.98,-290.08"/>
<polygon fill="midnightblue" stroke="midnightblue" points="916.8,-293.09 924.33,-285.64 913.79,-286.77 916.8,-293.09"/>
</g>
<!-- Node4 -->
<g id="node4" class="node">
<title>Node4</title>
<g id="a_node4"><a xlink:href="../../da/d96/a00782.html#a6484a76005f406bab8095a6ac41a9ddf" target="_top" xlink:title=" ">
<polygon fill="none" stroke="black" points="1285.5,-190.5 1285.5,-209.5 1459.5,-209.5 1459.5,-190.5 1285.5,-190.5"/>
<text text-anchor="middle" x="1372.5" y="-197.5" font-family="Helvetica,sans-Serif" font-size="10.00">com.cliffc.aa.HM.HM6.T2.is_leaf</text>
</a>
</g>
</g>
<!-- Node3&#45;&gt;Node4 -->
<g id="edge3" class="edge">
<title>Node3&#45;&gt;Node4</title>
<path fill="none" stroke="midnightblue" d="M1024.79,-278.83C1086.31,-279.16 1173.24,-275.53 1247,-257 1283.43,-247.85 1322.33,-228.27 1346.76,-214.63"/>
<polygon fill="midnightblue" stroke="midnightblue" points="1348.73,-217.54 1355.69,-209.55 1345.26,-211.46 1348.73,-217.54"/>
</g>
<!-- Node7 -->
<g id="node7" class="node">
<title>Node7</title>
<g id="a_node7"><a xlink:href="../../da/d96/a00782.html#a330c1c6b805c3cb281c514586a5e971b" target="_top" xlink:title=" ">
<polygon fill="none" stroke="black" points="1078,-228.5 1078,-247.5 1247,-247.5 1247,-228.5 1078,-228.5"/>
<text text-anchor="middle" x="1162.5" y="-235.5" font-family="Helvetica,sans-Serif" font-size="10.00">com.cliffc.aa.HM.HM6.T2.no_uf</text>
</a>
</g>
</g>
<!-- Node3&#45;&gt;Node7 -->
<g id="edge6" class="edge">
<title>Node3&#45;&gt;Node7</title>
<path fill="none" stroke="midnightblue" d="M999.73,-266.46C1029.38,-261.24 1066.3,-254.75 1097.38,-249.28"/>
<polygon fill="midnightblue" stroke="midnightblue" points="1098.01,-252.72 1107.25,-247.54 1096.8,-245.83 1098.01,-252.72"/>
</g>
<!-- Node5 -->
<g id="node5" class="node">
<title>Node5</title>
<g id="a_node5"><a xlink:href="../../da/d96/a00782.html#a84872ec3f243c8ad7557f8ca549b0fe7" target="_top" xlink:title=" ">
<polygon fill="none" stroke="black" points="1498,-114.5 1498,-133.5 1654,-133.5 1654,-114.5 1498,-114.5"/>
<text text-anchor="middle" x="1576" y="-121.5" font-family="Helvetica,sans-Serif" font-size="10.00">com.cliffc.aa.HM.HM6.T2.isa</text>
</a>
</g>
</g>
<!-- Node4&#45;&gt;Node5 -->
<g id="edge4" class="edge">
<title>Node4&#45;&gt;Node5</title>
<path fill="none" stroke="midnightblue" d="M1399.02,-190.37C1434.83,-176.87 1500.09,-152.25 1540.29,-137.09"/>
<polygon fill="midnightblue" stroke="midnightblue" points="1541.57,-140.35 1549.69,-133.55 1539.1,-133.8 1541.57,-140.35"/>
</g>
<!-- Node6 -->
<g id="node6" class="node">
<title>Node6</title>
<g id="a_node6"><a xlink:href="../../dd/d55/a01638.html#a3975ba7dca9fe2d6e4992b2b5558f882" target="_top" xlink:title=" ">
<polygon fill="none" stroke="black" points="1690,-95.5 1690,-114.5 1823,-114.5 1823,-95.5 1690,-95.5"/>
<text text-anchor="middle" x="1756.5" y="-102.5" font-family="Helvetica,sans-Serif" font-size="10.00">com.cliffc.aa.util.Util.eq</text>
</a>
</g>
</g>
<!-- Node5&#45;&gt;Node6 -->
<g id="edge5" class="edge">
<title>Node5&#45;&gt;Node6</title>
<path fill="none" stroke="midnightblue" d="M1654.25,-115.78C1662.69,-114.88 1671.28,-113.96 1679.7,-113.07"/>
<polygon fill="midnightblue" stroke="midnightblue" points="1680.3,-116.52 1689.87,-111.99 1679.56,-109.56 1680.3,-116.52"/>
</g>
<!-- Node7&#45;&gt;Node4 -->
<g id="edge7" class="edge">
<title>Node7&#45;&gt;Node4</title>
<path fill="none" stroke="midnightblue" d="M1215.72,-228.46C1244.15,-223.27 1279.52,-216.8 1309.37,-211.35"/>
<polygon fill="midnightblue" stroke="midnightblue" points="1310.05,-214.78 1319.26,-209.54 1308.79,-207.9 1310.05,-214.78"/>
</g>
<!-- Node8&#45;&gt;Node3 -->
<g id="edge9" class="edge">
<title>Node8&#45;&gt;Node3</title>
<path fill="none" stroke="midnightblue" d="M362.39,-299.39C466.55,-302.91 652.46,-306.46 811,-295 833.31,-293.39 857.58,-290.3 879.17,-287.08"/>
<polygon fill="midnightblue" stroke="midnightblue" points="879.86,-290.51 889.21,-285.54 878.8,-283.59 879.86,-290.51"/>
</g>
<!-- Node8&#45;&gt;Node8 -->
<g id="edge10" class="edge">
<title>Node8&#45;&gt;Node8</title>
<path fill="none" stroke="midnightblue" d="M249.48,-305.76C234.64,-314.57 244.81,-324 280,-324 304.74,-324 317.12,-319.34 317.12,-313.5"/>
<polygon fill="midnightblue" stroke="midnightblue" points="319.67,-311.09 310.52,-305.76 314.34,-315.64 319.67,-311.09"/>
</g>
<!-- Node10 -->
<g id="node10" class="node">
<title>Node10</title>
<g id="a_node10"><a xlink:href="../../da/d96/a00782.html#a58390e6021d51041d8e3c9ccb76a1b76" target="_top" xlink:title=" ">
<polygon fill="none" stroke="black" points="419,-147 419,-177 561,-177 561,-147 419,-147"/>
<text text-anchor="start" x="427" y="-165" font-family="Helvetica,sans-Serif" font-size="10.00">com.cliffc.aa.HM.HM6.T2.</text>
<text text-anchor="middle" x="490" y="-154" font-family="Helvetica,sans-Serif" font-size="10.00">_unify</text>
</a>
</g>
</g>
<!-- Node9&#45;&gt;Node10 -->
<g id="edge12" class="edge">
<title>Node9&#45;&gt;Node10</title>
<path fill="none" stroke="midnightblue" d="M322.59,-200.4C348.69,-194.38 383.12,-186.43 413.88,-179.33"/>
<polygon fill="midnightblue" stroke="midnightblue" points="414.77,-182.72 423.73,-177.06 413.2,-175.9 414.77,-182.72"/>
</g>
<!-- Node10&#45;&gt;Node4 -->
<g id="edge20" class="edge">
<title>Node10&#45;&gt;Node4</title>
<path fill="none" stroke="midnightblue" d="M561.04,-163.9C665.72,-166.85 869.18,-173.04 1042,-181 1120.37,-184.61 1209.17,-189.79 1274.82,-193.84"/>
<polygon fill="midnightblue" stroke="midnightblue" points="1274.96,-197.35 1285.16,-194.47 1275.39,-190.36 1274.96,-197.35"/>
</g>
<!-- Node10&#45;&gt;Node6 -->
<g id="edge17" class="edge">
<title>Node10&#45;&gt;Node6</title>
<path fill="none" stroke="midnightblue" d="M544.84,-146.98C629.13,-124.84 797.72,-86 943.5,-86 943.5,-86 943.5,-86 1373.5,-86 1479.94,-86 1602.86,-93.45 1679.89,-99.02"/>
<polygon fill="midnightblue" stroke="midnightblue" points="1679.75,-102.52 1689.98,-99.76 1680.26,-95.54 1679.75,-102.52"/>
</g>
<!-- Node10&#45;&gt;Node7 -->
<g id="edge21" class="edge">
<title>Node10&#45;&gt;Node7</title>
<path fill="none" stroke="midnightblue" d="M536,-177.08C559.82,-184.49 589.72,-192.9 617,-198 773.15,-227.17 958.22,-235.29 1067.41,-237.42"/>
<polygon fill="midnightblue" stroke="midnightblue" points="1067.67,-240.93 1077.74,-237.61 1067.8,-233.93 1067.67,-240.93"/>
</g>
<!-- Node10&#45;&gt;Node10 -->
<g id="edge13" class="edge">
<title>Node10&#45;&gt;Node10</title>
<path fill="none" stroke="midnightblue" d="M453.4,-177.16C444.58,-186.56 456.78,-195.5 490,-195.5 510.25,-195.5 522.68,-192.18 527.31,-187.46"/>
<polygon fill="midnightblue" stroke="midnightblue" points="530.78,-186.89 526.6,-177.16 523.8,-187.38 530.78,-186.89"/>
</g>
<!-- Node11 -->
<g id="node11" class="node">
<title>Node11</title>
<g id="a_node11"><a xlink:href="../../da/d96/a00782.html#ae20be8067da51e6c21154960c7a16039" target="_top" xlink:title=" ">
<polygon fill="none" stroke="black" points="632.5,-266.5 632.5,-285.5 795.5,-285.5 795.5,-266.5 632.5,-266.5"/>
<text text-anchor="middle" x="714" y="-273.5" font-family="Helvetica,sans-Serif" font-size="10.00">com.cliffc.aa.HM.HM6.T2.args</text>
</a>
</g>
</g>
<!-- Node10&#45;&gt;Node11 -->
<g id="edge14" class="edge">
<title>Node10&#45;&gt;Node11</title>
<path fill="none" stroke="midnightblue" d="M507.64,-177.06C530.6,-197.06 574.05,-232.16 617,-252 627.25,-256.74 638.57,-260.62 649.73,-263.78"/>
<polygon fill="midnightblue" stroke="midnightblue" points="648.9,-267.18 659.47,-266.38 650.71,-260.42 648.9,-267.18"/>
</g>
<!-- Node12 -->
<g id="node12" class="node">
<title>Node12</title>
<g id="a_node12"><a xlink:href="../../da/d96/a00782.html#adcaa4cca357bb94ae3dcd1699527fa68" target="_top" xlink:title=" ">
<polygon fill="none" stroke="black" points="625.5,-38.5 625.5,-57.5 802.5,-57.5 802.5,-38.5 625.5,-38.5"/>
<text text-anchor="middle" x="714" y="-45.5" font-family="Helvetica,sans-Serif" font-size="10.00">com.cliffc.aa.HM.HM6.T2.dbl_uid</text>
</a>
</g>
</g>
<!-- Node10&#45;&gt;Node12 -->
<g id="edge16" class="edge">
<title>Node10&#45;&gt;Node12</title>
<path fill="none" stroke="midnightblue" d="M507.64,-146.94C530.6,-126.94 574.05,-91.84 617,-72 627.25,-67.26 638.57,-63.38 649.73,-60.22"/>
<polygon fill="midnightblue" stroke="midnightblue" points="650.71,-63.58 659.47,-57.62 648.9,-56.82 650.71,-63.58"/>
</g>
<!-- Node13 -->
<g id="node13" class="node">
<title>Node13</title>
<g id="a_node13"><a xlink:href="../../da/d96/a00782.html#a5da5ead5fac7da967025c5db588d2690" target="_top" xlink:title=" ">
<polygon fill="none" stroke="black" points="1283,-114.5 1283,-133.5 1462,-133.5 1462,-114.5 1283,-114.5"/>
<text text-anchor="middle" x="1372.5" y="-121.5" font-family="Helvetica,sans-Serif" font-size="10.00">com.cliffc.aa.HM.HM6.T2.is_base</text>
</a>
</g>
</g>
<!-- Node10&#45;&gt;Node13 -->
<g id="edge18" class="edge">
<title>Node10&#45;&gt;Node13</title>
<path fill="none" stroke="midnightblue" d="M561.22,-153.21C579.36,-151.21 598.89,-149.29 617,-148 851.73,-131.25 1128.38,-126.19 1272.66,-124.66"/>
<polygon fill="midnightblue" stroke="midnightblue" points="1272.85,-128.16 1282.82,-124.56 1272.78,-121.16 1272.85,-128.16"/>
</g>
<!-- Node14 -->
<g id="node14" class="node">
<title>Node14</title>
<g id="a_node14"><a xlink:href="../../da/d96/a00782.html#a87b91a472688e987686120a52d87bf31" target="_top" xlink:title=" ">
<polygon fill="none" stroke="black" points="617,-0.5 617,-19.5 811,-19.5 811,-0.5 617,-0.5"/>
<text text-anchor="middle" x="714" y="-7.5" font-family="Helvetica,sans-Serif" font-size="10.00">com.cliffc.aa.HM.HM6.T2.unify_base</text>
</a>
</g>
</g>
<!-- Node10&#45;&gt;Node14 -->
<g id="edge22" class="edge">
<title>Node10&#45;&gt;Node14</title>
<path fill="none" stroke="midnightblue" d="M500.66,-146.75C519.39,-118.56 563.52,-58.49 617,-29 621.2,-26.69 625.63,-24.65 630.21,-22.86"/>
<polygon fill="midnightblue" stroke="midnightblue" points="631.47,-26.13 639.75,-19.53 629.16,-19.52 631.47,-26.13"/>
</g>
<!-- Node17 -->
<g id="node17" class="node">
<title>Node17</title>
<g id="a_node17"><a xlink:href="../../da/d96/a00782.html#a2b9e32deb4ca307fc663d4c7ffc1769c" target="_top" xlink:title=" ">
<polygon fill="none" stroke="black" points="860,-190.5 860,-209.5 1029,-209.5 1029,-190.5 860,-190.5"/>
<text text-anchor="middle" x="944.5" y="-197.5" font-family="Helvetica,sans-Serif" font-size="10.00">com.cliffc.aa.HM.HM6.T2.union</text>
</a>
</g>
</g>
<!-- Node10&#45;&gt;Node17 -->
<g id="edge25" class="edge">
<title>Node10&#45;&gt;Node17</title>
<path fill="none" stroke="midnightblue" d="M561.26,-170.28C579.41,-172.28 598.92,-174.33 617,-176 695.3,-183.23 784.33,-189.65 849.62,-194.03"/>
<polygon fill="midnightblue" stroke="midnightblue" points="849.68,-197.54 859.89,-194.72 850.14,-190.56 849.68,-197.54"/>
</g>
<!-- Node11&#45;&gt;Node3 -->
<g id="edge15" class="edge">
<title>Node11&#45;&gt;Node3</title>
<path fill="none" stroke="midnightblue" d="M795.56,-276C814.6,-276 835.01,-276 854.4,-276"/>
<polygon fill="midnightblue" stroke="midnightblue" points="854.44,-279.5 864.44,-276 854.44,-272.5 854.44,-279.5"/>
</g>
<!-- Node13&#45;&gt;Node5 -->
<g id="edge19" class="edge">
<title>Node13&#45;&gt;Node5</title>
<path fill="none" stroke="midnightblue" d="M1462.17,-124C1470.66,-124 1479.25,-124 1487.72,-124"/>
<polygon fill="midnightblue" stroke="midnightblue" points="1487.97,-127.5 1497.97,-124 1487.97,-120.5 1487.97,-127.5"/>
</g>
<!-- Node15 -->
<g id="node15" class="node">
<title>Node15</title>
<g id="a_node15"><a xlink:href="../../da/d96/a00782.html#adf50b8f9f5bea19d28e2983239bff0c9" target="_top" xlink:title=" ">
<polygon fill="none" stroke="black" points="847,-0.5 847,-19.5 1042,-19.5 1042,-0.5 847,-0.5"/>
<text text-anchor="middle" x="944.5" y="-7.5" font-family="Helvetica,sans-Serif" font-size="10.00">com.cliffc.aa.HM.HM6.T2.fresh_base</text>
</a>
</g>
</g>
<!-- Node14&#45;&gt;Node15 -->
<g id="edge23" class="edge">
<title>Node14&#45;&gt;Node15</title>
<path fill="none" stroke="midnightblue" d="M811.24,-10C819.57,-10 828.02,-10 836.42,-10"/>
<polygon fill="midnightblue" stroke="midnightblue" points="836.64,-13.5 846.64,-10 836.64,-6.5 836.64,-13.5"/>
</g>
<!-- Node16 -->
<g id="node16" class="node">
<title>Node16</title>
<g id="a_node16"><a xlink:href="../../d0/de2/a01442.html#a086b90d9d651ac00b80a9b5caa60eb09" target="_top" xlink:title=" ">
<polygon fill="none" stroke="black" points="1083.5,-0.5 1083.5,-19.5 1241.5,-19.5 1241.5,-0.5 1083.5,-0.5"/>
<text text-anchor="middle" x="1162.5" y="-7.5" font-family="Helvetica,sans-Serif" font-size="10.00">com.cliffc.aa.type.Type.meet</text>
</a>
</g>
</g>
<!-- Node15&#45;&gt;Node16 -->
<g id="edge24" class="edge">
<title>Node15&#45;&gt;Node16</title>
<path fill="none" stroke="midnightblue" d="M1042.13,-10C1052.49,-10 1062.99,-10 1073.25,-10"/>
<polygon fill="midnightblue" stroke="midnightblue" points="1073.41,-13.5 1083.41,-10 1073.41,-6.5 1073.41,-13.5"/>
</g>
<!-- Node17&#45;&gt;Node4 -->
<g id="edge26" class="edge">
<title>Node17&#45;&gt;Node4</title>
<path fill="none" stroke="midnightblue" d="M1029.16,-200C1099.86,-200 1201.15,-200 1275.22,-200"/>
<polygon fill="midnightblue" stroke="midnightblue" points="1275.48,-203.5 1285.48,-200 1275.48,-196.5 1275.48,-203.5"/>
</g>
<!-- Node17&#45;&gt;Node7 -->
<g id="edge27" class="edge">
<title>Node17&#45;&gt;Node7</title>
<path fill="none" stroke="midnightblue" d="M999.73,-209.54C1029.38,-214.76 1066.3,-221.25 1097.38,-226.72"/>
<polygon fill="midnightblue" stroke="midnightblue" points="1096.8,-230.17 1107.25,-228.46 1098.01,-223.28 1096.8,-230.17"/>
</g>
</g>
</svg>
