<?xml version="1.0" encoding="UTF-8" standalone="no"?>
<!DOCTYPE svg PUBLIC "-//W3C//DTD SVG 1.1//EN"
 "http://www.w3.org/Graphics/SVG/1.1/DTD/svg11.dtd">
<!-- Generated by graphviz version 2.43.0 (0)
 -->
<!-- Title: com.cliffc.aa.node.UnresolvedNode.nargs Pages: 1 -->
<svg width="799pt" height="112pt"
 viewBox="0.00 0.00 799.00 112.00" xmlns="http://www.w3.org/2000/svg" xmlns:xlink="http://www.w3.org/1999/xlink">
<g id="graph0" class="graph" transform="scale(1 1) rotate(0) translate(4 108)">
<title>com.cliffc.aa.node.UnresolvedNode.nargs</title>
<!-- Node1 -->
<g id="node1" class="node">
<title>Node1</title>
<g id="a_node1"><a xlink:title=" ">
<polygon fill="#bfbfbf" stroke="black" points="627,-48.5 627,-78.5 791,-78.5 791,-48.5 627,-48.5"/>
<text text-anchor="start" x="635" y="-66.5" font-family="Helvetica,sans-Serif" font-size="10.00">com.cliffc.aa.node.Unresolved</text>
<text text-anchor="middle" x="709" y="-55.5" font-family="Helvetica,sans-Serif" font-size="10.00">Node.nargs</text>
</a>
</g>
</g>
<!-- Node2 -->
<g id="node2" class="node">
<title>Node2</title>
<g id="a_node2"><a xlink:href="../../d5/d8e/a01390.html#a712f2bff480cacaec1843289c14def8c" target="_top" xlink:title=" ">
<polygon fill="none" stroke="black" points="427,-73.5 427,-103.5 591,-103.5 591,-73.5 427,-73.5"/>
<text text-anchor="start" x="435" y="-91.5" font-family="Helvetica,sans-Serif" font-size="10.00">com.cliffc.aa.node.Unresolved</text>
<text text-anchor="middle" x="509" y="-80.5" font-family="Helvetica,sans-Serif" font-size="10.00">Node.filter</text>
</a>
</g>
</g>
<!-- Node1&#45;&gt;Node2 -->
<g id="edge1" class="edge">
<title>Node1&#45;&gt;Node2</title>
<path fill="none" stroke="midnightblue" d="M616.92,-75C608.37,-76.08 599.75,-77.17 591.3,-78.23"/>
<polygon fill="midnightblue" stroke="midnightblue" points="617.41,-78.47 626.89,-73.74 616.53,-71.52 617.41,-78.47"/>
</g>
<!-- Node3 -->
<g id="node3" class="node">
<title>Node3</title>
<g id="a_node3"><a xlink:href="../../d5/d8e/a01390.html#a3a7cc6da599b846bd866ed2aa64d9107" target="_top" xlink:title=" ">
<polygon fill="none" stroke="black" points="427,-24.5 427,-54.5 591,-54.5 591,-24.5 427,-24.5"/>
<text text-anchor="start" x="435" y="-42.5" font-family="Helvetica,sans-Serif" font-size="10.00">com.cliffc.aa.node.Unresolved</text>
<text text-anchor="middle" x="509" y="-31.5" font-family="Helvetica,sans-Serif" font-size="10.00">Node.value</text>
</a>
</g>
</g>
<!-- Node1&#45;&gt;Node3 -->
<g id="edge2" class="edge">
<title>Node1&#45;&gt;Node3</title>
<path fill="none" stroke="midnightblue" d="M616.92,-52.46C608.37,-51.42 599.75,-50.38 591.3,-49.35"/>
<polygon fill="midnightblue" stroke="midnightblue" points="616.55,-55.94 626.89,-53.67 617.39,-48.99 616.55,-55.94"/>
</g>
<!-- Node4 -->
<g id="node4" class="node">
<title>Node4</title>
<g id="a_node4"><a xlink:href="../../d9/d8e/a01050.html#a0ef60478ee30510481eb33dc87069b2a" target="_top" xlink:title=" ">
<polygon fill="none" stroke="black" points="215,-49.5 215,-79.5 391,-79.5 391,-49.5 215,-49.5"/>
<text text-anchor="start" x="223" y="-67.5" font-family="Helvetica,sans-Serif" font-size="10.00">com.cliffc.aa.node.FunNode.split</text>
<text text-anchor="middle" x="303" y="-56.5" font-family="Helvetica,sans-Serif" font-size="10.00">_callers</text>
</a>
</g>
</g>
<!-- Node3&#45;&gt;Node4 -->
<g id="edge3" class="edge">
<title>Node3&#45;&gt;Node4</title>
<path fill="none" stroke="midnightblue" d="M416.59,-50.7C408.18,-51.73 399.67,-52.78 391.3,-53.8"/>
<polygon fill="midnightblue" stroke="midnightblue" points="417.29,-54.14 426.79,-49.45 416.44,-47.19 417.29,-54.14"/>
</g>
<!-- Node6 -->
<g id="node6" class="node">
<title>Node6</title>
<g id="a_node6"><a xlink:href="../../d4/d8e/a01694.html#a1e7f91ab9c5adec1b185cbe61d7d130b" target="_top" xlink:title=" ">
<polygon fill="none" stroke="black" points="226,-0.5 226,-30.5 380,-30.5 380,-0.5 226,-0.5"/>
<text text-anchor="start" x="234" y="-18.5" font-family="Helvetica,sans-Serif" font-size="10.00">com.cliffc.aa.node.TestNode</text>
<text text-anchor="middle" x="303" y="-7.5" font-family="Helvetica,sans-Serif" font-size="10.00">Small.testUnresolvedAdd</text>
</a>
</g>
</g>
<!-- Node3&#45;&gt;Node6 -->
<g id="edge5" class="edge">
<title>Node3&#45;&gt;Node6</title>
<path fill="none" stroke="midnightblue" d="M416.65,-28.75C404.5,-27.32 392.15,-25.87 380.29,-24.48"/>
<polygon fill="midnightblue" stroke="midnightblue" points="416.45,-32.25 426.79,-29.95 417.27,-25.3 416.45,-32.25"/>
</g>
<!-- Node5 -->
<g id="node5" class="node">
<title>Node5</title>
<g id="a_node5"><a xlink:href="../../d9/d8e/a01050.html#a35a8d77a634141d969d902a346af2000" target="_top" xlink:title=" ">
<polygon fill="none" stroke="black" points="0,-49.5 0,-79.5 179,-79.5 179,-49.5 0,-49.5"/>
<text text-anchor="start" x="8" y="-67.5" font-family="Helvetica,sans-Serif" font-size="10.00">com.cliffc.aa.node.FunNode.ideal</text>
<text text-anchor="middle" x="89.5" y="-56.5" font-family="Helvetica,sans-Serif" font-size="10.00">_inline</text>
</a>
</g>
</g>
<!-- Node4&#45;&gt;Node5 -->
<g id="edge4" class="edge">
<title>Node4&#45;&gt;Node5</title>
<path fill="none" stroke="midnightblue" d="M204.53,-64.5C196.1,-64.5 187.6,-64.5 179.25,-64.5"/>
<polygon fill="midnightblue" stroke="midnightblue" points="204.75,-68 214.75,-64.5 204.75,-61 204.75,-68"/>
</g>
</g>
</svg>
