<?xml version="1.0" encoding="UTF-8" standalone="no"?>
<!DOCTYPE svg PUBLIC "-//W3C//DTD SVG 1.1//EN"
 "http://www.w3.org/Graphics/SVG/1.1/DTD/svg11.dtd">
<!-- Generated by graphviz version 2.43.0 (0)
 -->
<!-- Title: com.cliffc.aa.node.UnresolvedNode.ideal_reduce Pages: 1 -->
<!--zoomable 221 -->
<svg id="main" version="1.1" xmlns="http://www.w3.org/2000/svg" xmlns:xlink="http://www.w3.org/1999/xlink" xml:space="preserve" onload="init(evt)">
<style type="text/css"><![CDATA[
.edge:hover path { stroke: red; }
.edge:hover polygon { stroke: red; fill: red; }
]]></style>
<script type="text/javascript"><![CDATA[
var edges = document.getElementsByTagName('g');
if (edges && edges.length) {
  for (var i=0;i<edges.length;i++) {
    if (edges[i].id.substr(0,4)=='edge') {
      edges[i].setAttribute('class','edge');
    }
  }
}
]]></script>
        <defs>
                <circle id="rim" cx="0" cy="0" r="7"/>
                <circle id="rim2" cx="0" cy="0" r="3.5"/>
                <g id="zoomPlus">
                        <use xlink:href="#rim" fill="#404040">
                                <set attributeName="fill" to="#808080" begin="zoomplus.mouseover" end="zoomplus.mouseout"/>
                        </use>
                        <path d="M-4,0h8M0,-4v8" fill="none" stroke="white" stroke-width="1.5" pointer-events="none"/>
                </g>
                <g id="zoomMin">
                        <use xlink:href="#rim" fill="#404040">
                                <set attributeName="fill" to="#808080" begin="zoomminus.mouseover" end="zoomminus.mouseout"/>
                        </use>
                        <path d="M-4,0h8" fill="none" stroke="white" stroke-width="1.5" pointer-events="none"/>
                </g>
                <g id="dirArrow">
                        <path fill="none" stroke="white" stroke-width="1.5" d="M0,-3.0v7 M-2.5,-0.5L0,-3.0L2.5,-0.5"/>
                </g>
               <g id="resetDef">
                       <use xlink:href="#rim2" fill="#404040">
                               <set attributeName="fill" to="#808080" begin="reset.mouseover" end="reset.mouseout"/>
                       </use>
               </g>
        </defs>

<script type="text/javascript">
var viewWidth = 1634;
var viewHeight = 221;
var sectionId = 'dynsection-57';
</script>
<script xlink:href="../../svgpan.js"/>
<svg id="graph" class="graph">
<g id="viewport">
<title>com.cliffc.aa.node.UnresolvedNode.ideal_reduce</title>
<!-- Node1 -->
<g id="node1" class="node">
<title>Node1</title>
<g id="a_node1"><a xlink:title=" ">
<polygon fill="#bfbfbf" stroke="black" points="0,-89 0,-119 164,-119 164,-89 0,-89"/>
<text text-anchor="start" x="8" y="-107" font-family="Helvetica,sans-Serif" font-size="10.00">com.cliffc.aa.node.Unresolved</text>
<text text-anchor="middle" x="82" y="-96" font-family="Helvetica,sans-Serif" font-size="10.00">Node.ideal_reduce</text>
</a>
</g>
</g>
<!-- Node2 -->
<g id="node2" class="node">
<title>Node2</title>
<g id="a_node2"><a xlink:href="../../df/db5/a01158.html#a1ac8aa21e9dce06d822c6f4c4cf510da" target="_top" xlink:title=" ">
<polygon fill="none" stroke="black" points="200,-170.5 200,-189.5 376,-189.5 376,-170.5 200,-170.5"/>
<text text-anchor="middle" x="288" y="-177.5" font-family="Helvetica,sans-Serif" font-size="10.00">com.cliffc.aa.node.Node.add_def</text>
</a>
</g>
</g>
<!-- Node1&#45;&gt;Node2 -->
<g id="edge1" class="edge">
<title>Node1&#45;&gt;Node2</title>
<path fill="none" stroke="midnightblue" d="M109.18,-119C132.39,-131.75 167.56,-149.74 200,-161 207.58,-163.63 215.66,-165.98 223.73,-168.04"/>
<polygon fill="midnightblue" stroke="midnightblue" points="222.99,-171.47 233.53,-170.43 224.64,-164.66 222.99,-171.47"/>
</g>
<!-- Node10 -->
<g id="node10" class="node">
<title>Node10</title>
<g id="a_node10"><a xlink:href="../../df/db5/a01158.html#a9a46cea187559f94192aa6e09b91c60c" target="_top" xlink:title=" ">
<polygon fill="none" stroke="black" points="215,-56.5 215,-75.5 361,-75.5 361,-56.5 215,-56.5"/>
<text text-anchor="middle" x="288" y="-63.5" font-family="Helvetica,sans-Serif" font-size="10.00">com.cliffc.aa.node.Node.in</text>
</a>
</g>
</g>
<!-- Node1&#45;&gt;Node10 -->
<g id="edge10" class="edge">
<title>Node1&#45;&gt;Node10</title>
<path fill="none" stroke="midnightblue" d="M163.63,-88.98C184.4,-85.11 206.4,-81.01 225.99,-77.36"/>
<polygon fill="midnightblue" stroke="midnightblue" points="226.81,-80.77 236,-75.5 225.52,-73.89 226.81,-80.77"/>
</g>
<!-- Node11 -->
<g id="node11" class="node">
<title>Node11</title>
<g id="a_node11"><a xlink:href="../../df/db5/a01158.html#a70f55822a9f2a31318f46cebd6ec4599" target="_top" xlink:title=" ">
<polygon fill="none" stroke="black" points="210.5,-94.5 210.5,-113.5 365.5,-113.5 365.5,-94.5 210.5,-94.5"/>
<text text-anchor="middle" x="288" y="-101.5" font-family="Helvetica,sans-Serif" font-size="10.00">com.cliffc.aa.node.Node.pop</text>
</a>
</g>
</g>
<!-- Node1&#45;&gt;Node11 -->
<g id="edge11" class="edge">
<title>Node1&#45;&gt;Node11</title>
<path fill="none" stroke="midnightblue" d="M164.21,-104C175.99,-104 188.15,-104 200.03,-104"/>
<polygon fill="midnightblue" stroke="midnightblue" points="200.38,-107.5 210.38,-104 200.38,-100.5 200.38,-107.5"/>
</g>
<!-- Node16 -->
<g id="node16" class="node">
<title>Node16</title>
<g id="a_node16"><a xlink:href="../../df/db5/a01158.html#a76827313ea74c03a0d11a9cbf9e11c6e" target="_top" xlink:title=" ">
<polygon fill="none" stroke="black" points="201.5,-132.5 201.5,-151.5 374.5,-151.5 374.5,-132.5 201.5,-132.5"/>
<text text-anchor="middle" x="288" y="-139.5" font-family="Helvetica,sans-Serif" font-size="10.00">com.cliffc.aa.node.Node.set_def</text>
</a>
</g>
</g>
<!-- Node1&#45;&gt;Node16 -->
<g id="edge20" class="edge">
<title>Node1&#45;&gt;Node16</title>
<path fill="none" stroke="midnightblue" d="M163.63,-119.02C184.4,-122.89 206.4,-126.99 225.99,-130.64"/>
<polygon fill="midnightblue" stroke="midnightblue" points="225.52,-134.11 236,-132.5 226.81,-127.23 225.52,-134.11"/>
</g>
<!-- Node17 -->
<g id="node17" class="node">
<title>Node17</title>
<g id="a_node17"><a xlink:href="../../d3/d30/a00370.html#ad1b6f2b7e61738dac4e3aa0ebc7f36a7" target="_top" xlink:title=" ">
<polygon fill="none" stroke="black" points="222,-0.5 222,-19.5 354,-19.5 354,-0.5 222,-0.5"/>
<text text-anchor="middle" x="288" y="-7.5" font-family="Helvetica,sans-Serif" font-size="10.00">com.cliffc.aa.AA.unimpl</text>
</a>
</g>
</g>
<!-- Node1&#45;&gt;Node17 -->
<g id="edge23" class="edge">
<title>Node1&#45;&gt;Node17</title>
<path fill="none" stroke="midnightblue" d="M113.1,-88.81C136.61,-77.07 170.19,-60.59 200,-47 217.69,-38.94 237.63,-30.42 253.95,-23.59"/>
<polygon fill="midnightblue" stroke="midnightblue" points="255.71,-26.65 263.59,-19.57 253.02,-20.18 255.71,-26.65"/>
</g>
<!-- Node3 -->
<g id="node3" class="node">
<title>Node3</title>
<g id="a_node3"><a xlink:href="../../df/db5/a01158.html#abd1ef05754be5fb96db69e3bd0a0a8bd" target="_top" xlink:title=" ">
<polygon fill="none" stroke="black" points="412,-154.5 412,-173.5 588,-173.5 588,-154.5 412,-154.5"/>
<text text-anchor="middle" x="500" y="-161.5" font-family="Helvetica,sans-Serif" font-size="10.00">com.cliffc.aa.node.Node.unelock</text>
</a>
</g>
</g>
<!-- Node2&#45;&gt;Node3 -->
<g id="edge2" class="edge">
<title>Node2&#45;&gt;Node3</title>
<path fill="none" stroke="midnightblue" d="M376.23,-173.35C384.57,-172.72 393.05,-172.07 401.47,-171.43"/>
<polygon fill="midnightblue" stroke="midnightblue" points="401.99,-174.9 411.7,-170.65 401.46,-167.92 401.99,-174.9"/>
</g>
<!-- Node4 -->
<g id="node4" class="node">
<title>Node4</title>
<g id="a_node4"><a xlink:href="../../d9/d0a/a00390.html#a195b2b7d0b8f0f1770422573c2cc22ff" target="_top" xlink:title=" ">
<polygon fill="none" stroke="black" points="853,-182.5 853,-201.5 1026,-201.5 1026,-182.5 853,-182.5"/>
<text text-anchor="middle" x="939.5" y="-189.5" font-family="Helvetica,sans-Serif" font-size="10.00">com.cliffc.aa.GVNGCM.add_flow</text>
</a>
</g>
</g>
<!-- Node3&#45;&gt;Node4 -->
<g id="edge3" class="edge">
<title>Node3&#45;&gt;Node4</title>
<path fill="none" stroke="midnightblue" d="M522.68,-173.6C546.84,-183.74 587.34,-199.05 624,-205 707.59,-218.56 805.22,-210.94 869.26,-202.82"/>
<polygon fill="midnightblue" stroke="midnightblue" points="869.78,-206.28 879.24,-201.51 868.87,-199.34 869.78,-206.28"/>
</g>
<!-- Node8 -->
<g id="node8" class="node">
<title>Node8</title>
<g id="a_node8"><a xlink:href="../../d9/d0a/a00390.html#ad52b88a21b47c661e6f6a3bcfdbb3576" target="_top" xlink:title=" ">
<polygon fill="none" stroke="black" points="865.5,-133 865.5,-163 1013.5,-163 1013.5,-133 865.5,-133"/>
<text text-anchor="start" x="873.5" y="-151" font-family="Helvetica,sans-Serif" font-size="10.00">com.cliffc.aa.GVNGCM.add</text>
<text text-anchor="middle" x="939.5" y="-140" font-family="Helvetica,sans-Serif" font-size="10.00">_reduce</text>
</a>
</g>
</g>
<!-- Node3&#45;&gt;Node8 -->
<g id="edge7" class="edge">
<title>Node3&#45;&gt;Node8</title>
<path fill="none" stroke="midnightblue" d="M588.22,-160.81C665.87,-157.97 778.7,-153.84 855.16,-151.05"/>
<polygon fill="midnightblue" stroke="midnightblue" points="855.36,-154.54 865.23,-150.68 855.11,-147.55 855.36,-154.54"/>
</g>
<!-- Node9 -->
<g id="node9" class="node">
<title>Node9</title>
<g id="a_node9"><a xlink:href="../../df/db5/a01158.html#abcbaaf7e990f5a12a68e91a70af8fb7e" target="_top" xlink:title=" ">
<polygon fill="none" stroke="black" points="624,-176.5 624,-195.5 815,-195.5 815,-176.5 624,-176.5"/>
<text text-anchor="middle" x="719.5" y="-183.5" font-family="Helvetica,sans-Serif" font-size="10.00">com.cliffc.aa.node.Node.check_vals</text>
</a>
</g>
</g>
<!-- Node3&#45;&gt;Node9 -->
<g id="edge9" class="edge">
<title>Node3&#45;&gt;Node9</title>
<path fill="none" stroke="midnightblue" d="M588.21,-172.82C596.79,-173.69 605.56,-174.58 614.28,-175.46"/>
<polygon fill="midnightblue" stroke="midnightblue" points="614.2,-178.97 624.5,-176.49 614.9,-172 614.2,-178.97"/>
</g>
<!-- Node5 -->
<g id="node5" class="node">
<title>Node5</title>
<g id="a_node5"><a xlink:href="../../d9/d0a/a00390.html#a6074ca566ae10e746122ac8d09239d02" target="_top" xlink:title=" ">
<polygon fill="none" stroke="black" points="1064,-138.5 1064,-157.5 1241,-157.5 1241,-138.5 1064,-138.5"/>
<text text-anchor="middle" x="1152.5" y="-145.5" font-family="Helvetica,sans-Serif" font-size="10.00">com.cliffc.aa.GVNGCM.add_work</text>
</a>
</g>
</g>
<!-- Node4&#45;&gt;Node5 -->
<g id="edge4" class="edge">
<title>Node4&#45;&gt;Node5</title>
<path fill="none" stroke="midnightblue" d="M986.28,-182.45C1018.5,-175.74 1061.78,-166.71 1095.97,-159.58"/>
<polygon fill="midnightblue" stroke="midnightblue" points="1096.73,-163 1105.81,-157.53 1095.3,-156.14 1096.73,-163"/>
</g>
<!-- Node6 -->
<g id="node6" class="node">
<title>Node6</title>
<g id="a_node6"><a xlink:href="../../d6/d2f/a01394.html#acc21c59313a6ce5c286431fd2d4fd891" target="_top" xlink:title=" ">
<polygon fill="none" stroke="black" points="1277,-138.5 1277,-157.5 1432,-157.5 1432,-138.5 1277,-138.5"/>
<text text-anchor="middle" x="1354.5" y="-145.5" font-family="Helvetica,sans-Serif" font-size="10.00">com.cliffc.aa.node.Work.add</text>
</a>
</g>
</g>
<!-- Node5&#45;&gt;Node6 -->
<g id="edge5" class="edge">
<title>Node5&#45;&gt;Node6</title>
<path fill="none" stroke="midnightblue" d="M1241.22,-148C1249.65,-148 1258.2,-148 1266.63,-148"/>
<polygon fill="midnightblue" stroke="midnightblue" points="1266.82,-151.5 1276.82,-148 1266.82,-144.5 1266.82,-151.5"/>
</g>
<!-- Node7 -->
<g id="node7" class="node">
<title>Node7</title>
<g id="a_node7"><a xlink:href="../../df/dee/a01646.html#a88ad20daf92e92fe0e3925b23c4fecf0" target="_top" xlink:title=" ">
<polygon fill="none" stroke="black" points="1468,-138.5 1468,-157.5 1626,-157.5 1626,-138.5 1468,-138.5"/>
<text text-anchor="middle" x="1547" y="-145.5" font-family="Helvetica,sans-Serif" font-size="10.00">com.cliffc.aa.util.VBitSet.tset</text>
</a>
</g>
</g>
<!-- Node6&#45;&gt;Node7 -->
<g id="edge6" class="edge">
<title>Node6&#45;&gt;Node7</title>
<path fill="none" stroke="midnightblue" d="M1432.16,-148C1440.63,-148 1449.31,-148 1457.9,-148"/>
<polygon fill="midnightblue" stroke="midnightblue" points="1457.94,-151.5 1467.94,-148 1457.94,-144.5 1457.94,-151.5"/>
</g>
<!-- Node8&#45;&gt;Node5 -->
<g id="edge8" class="edge">
<title>Node8&#45;&gt;Node5</title>
<path fill="none" stroke="midnightblue" d="M1013.71,-148C1026.6,-148 1040.22,-148 1053.66,-148"/>
<polygon fill="midnightblue" stroke="midnightblue" points="1053.9,-151.5 1063.9,-148 1053.9,-144.5 1053.9,-151.5"/>
</g>
<!-- Node11&#45;&gt;Node3 -->
<g id="edge12" class="edge">
<title>Node11&#45;&gt;Node3</title>
<path fill="none" stroke="midnightblue" d="M337.09,-113.54C349.81,-116.33 363.48,-119.56 376,-123 405.76,-131.18 438.92,-142.36 463.31,-150.98"/>
<polygon fill="midnightblue" stroke="midnightblue" points="462.26,-154.32 472.86,-154.38 464.61,-147.73 462.26,-154.32"/>
</g>
<!-- Node12 -->
<g id="node12" class="node">
<title>Node12</title>
<g id="a_node12"><a xlink:href="../../df/db5/a01158.html#a284c9a1217237d2f3eede517b6a33aa4" target="_top" xlink:title=" ">
<polygon fill="none" stroke="black" points="416.5,-94.5 416.5,-113.5 583.5,-113.5 583.5,-94.5 416.5,-94.5"/>
<text text-anchor="middle" x="500" y="-101.5" font-family="Helvetica,sans-Serif" font-size="10.00">com.cliffc.aa.node.Node.unuse</text>
</a>
</g>
</g>
<!-- Node11&#45;&gt;Node12 -->
<g id="edge13" class="edge">
<title>Node11&#45;&gt;Node12</title>
<path fill="none" stroke="midnightblue" d="M365.71,-104C378.87,-104 392.68,-104 406.21,-104"/>
<polygon fill="midnightblue" stroke="midnightblue" points="406.49,-107.5 416.49,-104 406.49,-100.5 406.49,-107.5"/>
</g>
<!-- Node13 -->
<g id="node13" class="node">
<title>Node13</title>
<g id="a_node13"><a xlink:href="../../df/db5/a01158.html#a4c43a2abe5004ef2cf98b07a01500a1f" target="_top" xlink:title=" ">
<polygon fill="none" stroke="black" points="642,-40 642,-70 797,-70 797,-40 642,-40"/>
<text text-anchor="start" x="650" y="-58" font-family="Helvetica,sans-Serif" font-size="10.00">com.cliffc.aa.node.Node.add</text>
<text text-anchor="middle" x="719.5" y="-47" font-family="Helvetica,sans-Serif" font-size="10.00">_flow_def_extra</text>
</a>
</g>
</g>
<!-- Node12&#45;&gt;Node13 -->
<g id="edge14" class="edge">
<title>Node12&#45;&gt;Node13</title>
<path fill="none" stroke="midnightblue" d="M543.19,-94.49C571.07,-88.21 608.43,-79.8 641.49,-72.35"/>
<polygon fill="midnightblue" stroke="midnightblue" points="642.62,-75.68 651.6,-70.07 641.08,-68.85 642.62,-75.68"/>
</g>
<!-- Node14 -->
<g id="node14" class="node">
<title>Node14</title>
<g id="a_node14"><a xlink:href="../../d9/d0a/a00390.html#a4a612bae4153eff084e4fe1d0049987c" target="_top" xlink:title=" ">
<polygon fill="none" stroke="black" points="645.5,-89 645.5,-119 793.5,-119 793.5,-89 645.5,-89"/>
<text text-anchor="start" x="653.5" y="-107" font-family="Helvetica,sans-Serif" font-size="10.00">com.cliffc.aa.GVNGCM.add</text>
<text text-anchor="middle" x="719.5" y="-96" font-family="Helvetica,sans-Serif" font-size="10.00">_unuse</text>
</a>
</g>
</g>
<!-- Node12&#45;&gt;Node14 -->
<g id="edge15" class="edge">
<title>Node12&#45;&gt;Node14</title>
<path fill="none" stroke="midnightblue" d="M583.54,-104C600.36,-104 618.06,-104 634.92,-104"/>
<polygon fill="midnightblue" stroke="midnightblue" points="635.29,-107.5 645.29,-104 635.29,-100.5 635.29,-107.5"/>
</g>
<!-- Node14&#45;&gt;Node4 -->
<g id="edge18" class="edge">
<title>Node14&#45;&gt;Node4</title>
<path fill="none" stroke="midnightblue" d="M744.12,-119.03C769.58,-134.62 811.76,-158.67 851,-173 858.19,-175.62 865.84,-177.94 873.53,-179.97"/>
<polygon fill="midnightblue" stroke="midnightblue" points="872.69,-183.37 883.24,-182.4 874.38,-176.58 872.69,-183.37"/>
</g>
<!-- Node14&#45;&gt;Node8 -->
<g id="edge19" class="edge">
<title>Node14&#45;&gt;Node8</title>
<path fill="none" stroke="midnightblue" d="M793.7,-118.77C813.58,-122.79 835.24,-127.16 855.61,-131.27"/>
<polygon fill="midnightblue" stroke="midnightblue" points="855,-134.72 865.5,-133.27 856.39,-127.86 855,-134.72"/>
</g>
<!-- Node15 -->
<g id="node15" class="node">
<title>Node15</title>
<g id="a_node15"><a xlink:href="../../d9/d0a/a00390.html#af23b6c0debccdb7104dea273b231c716" target="_top" xlink:title=" ">
<polygon fill="none" stroke="black" points="851,-94.5 851,-113.5 1028,-113.5 1028,-94.5 851,-94.5"/>
<text text-anchor="middle" x="939.5" y="-101.5" font-family="Helvetica,sans-Serif" font-size="10.00">com.cliffc.aa.GVNGCM.add_dead</text>
</a>
</g>
</g>
<!-- Node14&#45;&gt;Node15 -->
<g id="edge16" class="edge">
<title>Node14&#45;&gt;Node15</title>
<path fill="none" stroke="midnightblue" d="M793.7,-104C808.71,-104 824.75,-104 840.48,-104"/>
<polygon fill="midnightblue" stroke="midnightblue" points="840.76,-107.5 850.76,-104 840.76,-100.5 840.76,-107.5"/>
</g>
<!-- Node15&#45;&gt;Node5 -->
<g id="edge17" class="edge">
<title>Node15&#45;&gt;Node5</title>
<path fill="none" stroke="midnightblue" d="M986.28,-113.55C1018.5,-120.26 1061.78,-129.29 1095.97,-136.42"/>
<polygon fill="midnightblue" stroke="midnightblue" points="1095.3,-139.86 1105.81,-138.47 1096.73,-133 1095.3,-139.86"/>
</g>
<!-- Node16&#45;&gt;Node3 -->
<g id="edge21" class="edge">
<title>Node16&#45;&gt;Node3</title>
<path fill="none" stroke="midnightblue" d="M374.72,-150.98C383.62,-151.91 392.71,-152.86 401.72,-153.81"/>
<polygon fill="midnightblue" stroke="midnightblue" points="401.54,-157.31 411.85,-154.87 402.27,-150.35 401.54,-157.31"/>
</g>
<!-- Node16&#45;&gt;Node12 -->
<g id="edge22" class="edge">
<title>Node16&#45;&gt;Node12</title>
<path fill="none" stroke="midnightblue" d="M341.72,-132.46C370.43,-127.27 406.14,-120.8 436.27,-115.35"/>
<polygon fill="midnightblue" stroke="midnightblue" points="437.04,-118.77 446.26,-113.54 435.79,-111.88 437.04,-118.77"/>
</g>
<!-- Node17&#45;&gt;Node17 -->
<g id="edge24" class="edge">
<title>Node17&#45;&gt;Node17</title>
<path fill="none" stroke="midnightblue" d="M256.25,-19.76C240.8,-28.57 251.39,-38 288,-38 314.32,-38 327.18,-33.13 326.61,-27.11"/>
<polygon fill="midnightblue" stroke="midnightblue" points="329.13,-24.69 319.75,-19.76 324.01,-29.46 329.13,-24.69"/>
</g>
</g>
</svg>
        <g id="navigator" transform="translate(0 0)" fill="#404254">
                <rect fill="#f2f5e9" fill-opacity="0.5" stroke="#606060" stroke-width=".5" x="0" y="0" width="60" height="60"/>
                <use id="zoomplus" xlink:href="#zoomPlus" x="17" y="9" onmousedown="handleZoom(evt,'in')"/>
                <use id="zoomminus" xlink:href="#zoomMin" x="42" y="9" onmousedown="handleZoom(evt,'out')"/>
                <use id="reset" xlink:href="#resetDef" x="30" y="36" onmousedown="handleReset()"/>
                <g id="arrowUp" xlink:href="#dirArrow" transform="translate(30 24)" onmousedown="handlePan(0,-1)">
                  <use xlink:href="#rim" fill="#404040">
                        <set attributeName="fill" to="#808080" begin="arrowUp.mouseover" end="arrowUp.mouseout"/>
                  </use>
                  <path fill="none" stroke="white" stroke-width="1.5" d="M0,-3.0v7 M-2.5,-0.5L0,-3.0L2.5,-0.5"/>
                </g>
                <g id="arrowRight" xlink:href="#dirArrow" transform="rotate(90) translate(36 -43)" onmousedown="handlePan(1,0)">
                  <use xlink:href="#rim" fill="#404040">
                        <set attributeName="fill" to="#808080" begin="arrowRight.mouseover" end="arrowRight.mouseout"/>
                  </use>
                  <path fill="none" stroke="white" stroke-width="1.5" d="M0,-3.0v7 M-2.5,-0.5L0,-3.0L2.5,-0.5"/>
                </g>
                <g id="arrowDown" xlink:href="#dirArrow" transform="rotate(180) translate(-30 -48)" onmousedown="handlePan(0,1)">
                  <use xlink:href="#rim" fill="#404040">
                        <set attributeName="fill" to="#808080" begin="arrowDown.mouseover" end="arrowDown.mouseout"/>
                  </use>
                  <path fill="none" stroke="white" stroke-width="1.5" d="M0,-3.0v7 M-2.5,-0.5L0,-3.0L2.5,-0.5"/>
                </g>
                <g id="arrowLeft" xlink:href="#dirArrow" transform="rotate(270) translate(-36 17)" onmousedown="handlePan(-1,0)">
                  <use xlink:href="#rim" fill="#404040">
                        <set attributeName="fill" to="#808080" begin="arrowLeft.mouseover" end="arrowLeft.mouseout"/>
                  </use>
                  <path fill="none" stroke="white" stroke-width="1.5" d="M0,-3.0v7 M-2.5,-0.5L0,-3.0L2.5,-0.5"/>
                </g>
        </g>
        <svg viewBox="0 0 15 15" width="100%" height="30px" preserveAspectRatio="xMaxYMin meet">
         <g id="arrow_out" transform="scale(0.3 0.3)">
          <a xlink:href="a01390_aa0adb478ea81d958dc75303046df203a_cgraph_org.svg" target="_base">
           <rect id="button" ry="5" rx="5" y="6" x="6" height="38" width="38"
                fill="#f2f5e9" fill-opacity="0.5" stroke="#606060" stroke-width="1.0"/>
           <path id="arrow"
             d="M 11.500037,31.436501 C 11.940474,20.09759 22.043105,11.32322 32.158766,21.979434 L 37.068811,17.246167 C 37.068811,17.246167 37.088388,32 37.088388,32 L 22.160133,31.978069 C 22.160133,31.978069 26.997745,27.140456 26.997745,27.140456 C 18.528582,18.264221 13.291696,25.230495 11.500037,31.436501 z"
             style="fill:#404040;"/>
          </a>
         </g>
        </svg>
</svg>
