<?xml version="1.0" encoding="UTF-8" standalone="no"?>
<!DOCTYPE svg PUBLIC "-//W3C//DTD SVG 1.1//EN"
 "http://www.w3.org/Graphics/SVG/1.1/DTD/svg11.dtd">
<!-- Generated by graphviz version 2.43.0 (0)
 -->
<!-- Title: com.cliffc.aa.node.UnresolvedNode.add_def_unresolved Pages: 1 -->
<!--zoomable 240 -->
<svg id="main" version="1.1" xmlns="http://www.w3.org/2000/svg" xmlns:xlink="http://www.w3.org/1999/xlink" xml:space="preserve" onload="init(evt)">
<style type="text/css"><![CDATA[
.edge:hover path { stroke: red; }
.edge:hover polygon { stroke: red; fill: red; }
]]></style>
<script type="text/javascript"><![CDATA[
var edges = document.getElementsByTagName('g');
if (edges && edges.length) {
  for (var i=0;i<edges.length;i++) {
    if (edges[i].id.substr(0,4)=='edge') {
      edges[i].setAttribute('class','edge');
    }
  }
}
]]></script>
        <defs>
                <circle id="rim" cx="0" cy="0" r="7"/>
                <circle id="rim2" cx="0" cy="0" r="3.5"/>
                <g id="zoomPlus">
                        <use xlink:href="#rim" fill="#404040">
                                <set attributeName="fill" to="#808080" begin="zoomplus.mouseover" end="zoomplus.mouseout"/>
                        </use>
                        <path d="M-4,0h8M0,-4v8" fill="none" stroke="white" stroke-width="1.5" pointer-events="none"/>
                </g>
                <g id="zoomMin">
                        <use xlink:href="#rim" fill="#404040">
                                <set attributeName="fill" to="#808080" begin="zoomminus.mouseover" end="zoomminus.mouseout"/>
                        </use>
                        <path d="M-4,0h8" fill="none" stroke="white" stroke-width="1.5" pointer-events="none"/>
                </g>
                <g id="dirArrow">
                        <path fill="none" stroke="white" stroke-width="1.5" d="M0,-3.0v7 M-2.5,-0.5L0,-3.0L2.5,-0.5"/>
                </g>
               <g id="resetDef">
                       <use xlink:href="#rim2" fill="#404040">
                               <set attributeName="fill" to="#808080" begin="reset.mouseover" end="reset.mouseout"/>
                       </use>
               </g>
        </defs>

<script type="text/javascript">
var viewWidth = 1421;
var viewHeight = 240;
var sectionId = 'dynsection-10';
</script>
<script xlink:href="../../svgpan.js"/>
<svg id="graph" class="graph">
<g id="viewport">
<title>com.cliffc.aa.node.UnresolvedNode.add_def_unresolved</title>
<!-- Node1 -->
<g id="node1" class="node">
<title>Node1</title>
<g id="a_node1"><a xlink:title=" ">
<polygon fill="#bfbfbf" stroke="black" points="0,-81.02 0,-111.02 164,-111.02 164,-81.02 0,-81.02"/>
<text text-anchor="start" x="8" y="-99.02" font-family="Helvetica,sans-Serif" font-size="10.00">com.cliffc.aa.node.Unresolved</text>
<text text-anchor="middle" x="82" y="-88.02" font-family="Helvetica,sans-Serif" font-size="10.00">Node.add_def_unresolved</text>
</a>
</g>
</g>
<!-- Node2 -->
<g id="node2" class="node">
<title>Node2</title>
<g id="a_node2"><a xlink:href="../../df/db5/a01158.html#a1ac8aa21e9dce06d822c6f4c4cf510da" target="_top" xlink:title=" ">
<polygon fill="none" stroke="black" points="200,-168.52 200,-187.52 376,-187.52 376,-168.52 200,-168.52"/>
<text text-anchor="middle" x="288" y="-175.52" font-family="Helvetica,sans-Serif" font-size="10.00">com.cliffc.aa.node.Node.add_def</text>
</a>
</g>
</g>
<!-- Node1&#45;&gt;Node2 -->
<g id="edge1" class="edge">
<title>Node1&#45;&gt;Node2</title>
<path fill="none" stroke="midnightblue" d="M106.28,-111.09C129.26,-125.34 165.82,-146.37 200,-159.02 207.06,-161.63 214.58,-163.94 222.12,-165.96"/>
<polygon fill="midnightblue" stroke="midnightblue" points="221.48,-169.41 232.03,-168.45 223.19,-162.62 221.48,-169.41"/>
</g>
<!-- Node10 -->
<g id="node10" class="node">
<title>Node10</title>
<g id="a_node10"><a xlink:href="../../dd/d55/a01638.html#a3975ba7dca9fe2d6e4992b2b5558f882" target="_top" xlink:title=" ">
<polygon fill="none" stroke="black" points="221.5,-130.52 221.5,-149.52 354.5,-149.52 354.5,-130.52 221.5,-130.52"/>
<text text-anchor="middle" x="288" y="-137.52" font-family="Helvetica,sans-Serif" font-size="10.00">com.cliffc.aa.util.Util.eq</text>
</a>
</g>
</g>
<!-- Node1&#45;&gt;Node10 -->
<g id="edge10" class="edge">
<title>Node1&#45;&gt;Node10</title>
<path fill="none" stroke="midnightblue" d="M152.63,-111.04C178.91,-116.71 208.38,-123.06 233.01,-128.38"/>
<polygon fill="midnightblue" stroke="midnightblue" points="232.38,-131.82 242.9,-130.51 233.86,-124.98 232.38,-131.82"/>
</g>
<!-- Node11 -->
<g id="node11" class="node">
<title>Node11</title>
<g id="a_node11"><a xlink:href="../../dd/d57/a01054.html#a993fb4c1eec14c6c9958900157915a3b" target="_top" xlink:title=" ">
<polygon fill="none" stroke="black" points="218,-81.02 218,-111.02 358,-111.02 358,-81.02 218,-81.02"/>
<text text-anchor="start" x="226" y="-99.02" font-family="Helvetica,sans-Serif" font-size="10.00">com.cliffc.aa.node.FunPtr</text>
<text text-anchor="middle" x="288" y="-88.02" font-family="Helvetica,sans-Serif" font-size="10.00">Node.fun</text>
</a>
</g>
</g>
<!-- Node1&#45;&gt;Node11 -->
<g id="edge11" class="edge">
<title>Node1&#45;&gt;Node11</title>
<path fill="none" stroke="midnightblue" d="M164.21,-96.02C178.52,-96.02 193.39,-96.02 207.65,-96.02"/>
<polygon fill="midnightblue" stroke="midnightblue" points="207.9,-99.52 217.9,-96.02 207.9,-92.52 207.9,-99.52"/>
</g>
<!-- Node13 -->
<g id="node13" class="node">
<title>Node13</title>
<g id="a_node13"><a xlink:href="../../df/db5/a01158.html#a9a46cea187559f94192aa6e09b91c60c" target="_top" xlink:title=" ">
<polygon fill="none" stroke="black" points="646.5,-39.52 646.5,-58.52 792.5,-58.52 792.5,-39.52 646.5,-39.52"/>
<text text-anchor="middle" x="719.5" y="-46.52" font-family="Helvetica,sans-Serif" font-size="10.00">com.cliffc.aa.node.Node.in</text>
</a>
</g>
</g>
<!-- Node1&#45;&gt;Node13 -->
<g id="edge16" class="edge">
<title>Node1&#45;&gt;Node13</title>
<path fill="none" stroke="midnightblue" d="M100.11,-80.95C121.66,-63.08 160.64,-34.29 200,-23.02 369.12,25.41 581.76,-15.12 673.25,-37.11"/>
<polygon fill="midnightblue" stroke="midnightblue" points="672.47,-40.53 683.02,-39.5 674.14,-33.73 672.47,-40.53"/>
</g>
<!-- Node15 -->
<g id="node15" class="node">
<title>Node15</title>
<g id="a_node15"><a xlink:href="../../dd/d57/a01054.html#aa8482e9d3e3305627c199762fdfd255a" target="_top" xlink:title=" ">
<polygon fill="none" stroke="black" points="218,-32.02 218,-62.02 358,-62.02 358,-32.02 218,-32.02"/>
<text text-anchor="start" x="226" y="-50.02" font-family="Helvetica,sans-Serif" font-size="10.00">com.cliffc.aa.node.FunPtr</text>
<text text-anchor="middle" x="288" y="-39.02" font-family="Helvetica,sans-Serif" font-size="10.00">Node.nargs</text>
</a>
</g>
</g>
<!-- Node1&#45;&gt;Node15 -->
<g id="edge17" class="edge">
<title>Node1&#45;&gt;Node15</title>
<path fill="none" stroke="midnightblue" d="M145.59,-80.99C167.43,-75.74 192.11,-69.81 214.67,-64.39"/>
<polygon fill="midnightblue" stroke="midnightblue" points="215.62,-67.77 224.53,-62.03 213.98,-60.96 215.62,-67.77"/>
</g>
<!-- Node3 -->
<g id="node3" class="node">
<title>Node3</title>
<g id="a_node3"><a xlink:href="../../df/db5/a01158.html#abd1ef05754be5fb96db69e3bd0a0a8bd" target="_top" xlink:title=" ">
<polygon fill="none" stroke="black" points="412,-168.52 412,-187.52 588,-187.52 588,-168.52 412,-168.52"/>
<text text-anchor="middle" x="500" y="-175.52" font-family="Helvetica,sans-Serif" font-size="10.00">com.cliffc.aa.node.Node.unelock</text>
</a>
</g>
</g>
<!-- Node2&#45;&gt;Node3 -->
<g id="edge2" class="edge">
<title>Node2&#45;&gt;Node3</title>
<path fill="none" stroke="midnightblue" d="M376.23,-178.02C384.57,-178.02 393.05,-178.02 401.47,-178.02"/>
<polygon fill="midnightblue" stroke="midnightblue" points="401.7,-181.52 411.7,-178.02 401.7,-174.52 401.7,-181.52"/>
</g>
<!-- Node4 -->
<g id="node4" class="node">
<title>Node4</title>
<g id="a_node4"><a xlink:href="../../d9/d0a/a00390.html#a195b2b7d0b8f0f1770422573c2cc22ff" target="_top" xlink:title=" ">
<polygon fill="none" stroke="black" points="633,-212.52 633,-231.52 806,-231.52 806,-212.52 633,-212.52"/>
<text text-anchor="middle" x="719.5" y="-219.52" font-family="Helvetica,sans-Serif" font-size="10.00">com.cliffc.aa.GVNGCM.add_flow</text>
</a>
</g>
</g>
<!-- Node3&#45;&gt;Node4 -->
<g id="edge3" class="edge">
<title>Node3&#45;&gt;Node4</title>
<path fill="none" stroke="midnightblue" d="M547.72,-187.54C570.69,-192.22 598.8,-197.93 624,-203.02 635.92,-205.43 648.68,-208 660.85,-210.45"/>
<polygon fill="midnightblue" stroke="midnightblue" points="660.41,-213.93 670.91,-212.47 661.79,-207.07 660.41,-213.93"/>
</g>
<!-- Node8 -->
<g id="node8" class="node">
<title>Node8</title>
<g id="a_node8"><a xlink:href="../../d9/d0a/a00390.html#ad52b88a21b47c661e6f6a3bcfdbb3576" target="_top" xlink:title=" ">
<polygon fill="none" stroke="black" points="645.5,-163.02 645.5,-193.02 793.5,-193.02 793.5,-163.02 645.5,-163.02"/>
<text text-anchor="start" x="653.5" y="-181.02" font-family="Helvetica,sans-Serif" font-size="10.00">com.cliffc.aa.GVNGCM.add</text>
<text text-anchor="middle" x="719.5" y="-170.02" font-family="Helvetica,sans-Serif" font-size="10.00">_reduce</text>
</a>
</g>
</g>
<!-- Node3&#45;&gt;Node8 -->
<g id="edge7" class="edge">
<title>Node3&#45;&gt;Node8</title>
<path fill="none" stroke="midnightblue" d="M588.21,-178.02C603.72,-178.02 619.84,-178.02 635.24,-178.02"/>
<polygon fill="midnightblue" stroke="midnightblue" points="635.24,-181.52 645.24,-178.02 635.24,-174.52 635.24,-181.52"/>
</g>
<!-- Node9 -->
<g id="node9" class="node">
<title>Node9</title>
<g id="a_node9"><a xlink:href="../../df/db5/a01158.html#abcbaaf7e990f5a12a68e91a70af8fb7e" target="_top" xlink:title=" ">
<polygon fill="none" stroke="black" points="624,-124.52 624,-143.52 815,-143.52 815,-124.52 624,-124.52"/>
<text text-anchor="middle" x="719.5" y="-131.52" font-family="Helvetica,sans-Serif" font-size="10.00">com.cliffc.aa.node.Node.check_vals</text>
</a>
</g>
</g>
<!-- Node3&#45;&gt;Node9 -->
<g id="edge9" class="edge">
<title>Node3&#45;&gt;Node9</title>
<path fill="none" stroke="midnightblue" d="M548.19,-168.47C581.4,-161.76 626.02,-152.73 661.26,-145.6"/>
<polygon fill="midnightblue" stroke="midnightblue" points="662.29,-148.96 671.4,-143.55 660.9,-142.1 662.29,-148.96"/>
</g>
<!-- Node5 -->
<g id="node5" class="node">
<title>Node5</title>
<g id="a_node5"><a xlink:href="../../d9/d0a/a00390.html#a6074ca566ae10e746122ac8d09239d02" target="_top" xlink:title=" ">
<polygon fill="none" stroke="black" points="851,-190.52 851,-209.52 1028,-209.52 1028,-190.52 851,-190.52"/>
<text text-anchor="middle" x="939.5" y="-197.52" font-family="Helvetica,sans-Serif" font-size="10.00">com.cliffc.aa.GVNGCM.add_work</text>
</a>
</g>
</g>
<!-- Node4&#45;&gt;Node5 -->
<g id="edge4" class="edge">
<title>Node4&#45;&gt;Node5</title>
<path fill="none" stroke="midnightblue" d="M806.03,-213.39C817.38,-212.24 829.09,-211.06 840.62,-209.9"/>
<polygon fill="midnightblue" stroke="midnightblue" points="841.11,-213.37 850.7,-208.88 840.4,-206.4 841.11,-213.37"/>
</g>
<!-- Node6 -->
<g id="node6" class="node">
<title>Node6</title>
<g id="a_node6"><a xlink:href="../../d6/d2f/a01394.html#acc21c59313a6ce5c286431fd2d4fd891" target="_top" xlink:title=" ">
<polygon fill="none" stroke="black" points="1064,-190.52 1064,-209.52 1219,-209.52 1219,-190.52 1064,-190.52"/>
<text text-anchor="middle" x="1141.5" y="-197.52" font-family="Helvetica,sans-Serif" font-size="10.00">com.cliffc.aa.node.Work.add</text>
</a>
</g>
</g>
<!-- Node5&#45;&gt;Node6 -->
<g id="edge5" class="edge">
<title>Node5&#45;&gt;Node6</title>
<path fill="none" stroke="midnightblue" d="M1028.22,-200.02C1036.65,-200.02 1045.2,-200.02 1053.63,-200.02"/>
<polygon fill="midnightblue" stroke="midnightblue" points="1053.82,-203.52 1063.82,-200.02 1053.82,-196.52 1053.82,-203.52"/>
</g>
<!-- Node7 -->
<g id="node7" class="node">
<title>Node7</title>
<g id="a_node7"><a xlink:href="../../df/dee/a01646.html#a88ad20daf92e92fe0e3925b23c4fecf0" target="_top" xlink:title=" ">
<polygon fill="none" stroke="black" points="1255,-190.52 1255,-209.52 1413,-209.52 1413,-190.52 1255,-190.52"/>
<text text-anchor="middle" x="1334" y="-197.52" font-family="Helvetica,sans-Serif" font-size="10.00">com.cliffc.aa.util.VBitSet.tset</text>
</a>
</g>
</g>
<!-- Node6&#45;&gt;Node7 -->
<g id="edge6" class="edge">
<title>Node6&#45;&gt;Node7</title>
<path fill="none" stroke="midnightblue" d="M1219.16,-200.02C1227.63,-200.02 1236.31,-200.02 1244.9,-200.02"/>
<polygon fill="midnightblue" stroke="midnightblue" points="1244.94,-203.52 1254.94,-200.02 1244.94,-196.52 1244.94,-203.52"/>
</g>
<!-- Node8&#45;&gt;Node5 -->
<g id="edge8" class="edge">
<title>Node8&#45;&gt;Node5</title>
<path fill="none" stroke="midnightblue" d="M793.7,-185.41C808.71,-186.92 824.75,-188.54 840.48,-190.13"/>
<polygon fill="midnightblue" stroke="midnightblue" points="840.46,-193.64 850.76,-191.17 841.16,-186.68 840.46,-193.64"/>
</g>
<!-- Node12 -->
<g id="node12" class="node">
<title>Node12</title>
<g id="a_node12"><a xlink:href="../../d7/dc4/a01354.html#ad45583d004cee7da674274ccf0afcc05" target="_top" xlink:title=" ">
<polygon fill="none" stroke="black" points="415,-84.52 415,-103.52 585,-103.52 585,-84.52 415,-84.52"/>
<text text-anchor="middle" x="500" y="-91.52" font-family="Helvetica,sans-Serif" font-size="10.00">com.cliffc.aa.node.RetNode.fun</text>
</a>
</g>
</g>
<!-- Node11&#45;&gt;Node12 -->
<g id="edge12" class="edge">
<title>Node11&#45;&gt;Node12</title>
<path fill="none" stroke="midnightblue" d="M358.05,-95.36C372.96,-95.22 388.96,-95.07 404.65,-94.92"/>
<polygon fill="midnightblue" stroke="midnightblue" points="404.93,-98.42 414.89,-94.82 404.86,-91.42 404.93,-98.42"/>
</g>
<!-- Node14 -->
<g id="node14" class="node">
<title>Node14</title>
<g id="a_node14"><a xlink:href="../../dd/d57/a01054.html#a67f4f00db790d95e243c47672ddaccb9" target="_top" xlink:title=" ">
<polygon fill="none" stroke="black" points="430,-34.02 430,-64.02 570,-64.02 570,-34.02 430,-34.02"/>
<text text-anchor="start" x="438" y="-52.02" font-family="Helvetica,sans-Serif" font-size="10.00">com.cliffc.aa.node.FunPtr</text>
<text text-anchor="middle" x="500" y="-41.02" font-family="Helvetica,sans-Serif" font-size="10.00">Node.ret</text>
</a>
</g>
</g>
<!-- Node11&#45;&gt;Node14 -->
<g id="edge14" class="edge">
<title>Node11&#45;&gt;Node14</title>
<path fill="none" stroke="midnightblue" d="M356.02,-81.02C377.05,-76.31 400.42,-71.08 422.08,-66.24"/>
<polygon fill="midnightblue" stroke="midnightblue" points="422.9,-69.64 431.89,-64.04 421.37,-62.81 422.9,-69.64"/>
</g>
<!-- Node12&#45;&gt;Node13 -->
<g id="edge13" class="edge">
<title>Node12&#45;&gt;Node13</title>
<path fill="none" stroke="midnightblue" d="M547.13,-84.48C580.86,-77.5 626.8,-67.99 662.62,-60.58"/>
<polygon fill="midnightblue" stroke="midnightblue" points="663.36,-64 672.44,-58.55 661.94,-57.15 663.36,-64"/>
</g>
<!-- Node14&#45;&gt;Node13 -->
<g id="edge15" class="edge">
<title>Node14&#45;&gt;Node13</title>
<path fill="none" stroke="midnightblue" d="M570.12,-49.02C591.06,-49.02 614.27,-49.02 635.99,-49.02"/>
<polygon fill="midnightblue" stroke="midnightblue" points="636.19,-52.52 646.19,-49.02 636.19,-45.52 636.19,-52.52"/>
</g>
<!-- Node15&#45;&gt;Node14 -->
<g id="edge18" class="edge">
<title>Node15&#45;&gt;Node14</title>
<path fill="none" stroke="midnightblue" d="M358.05,-47.68C377.79,-47.87 399.45,-48.07 419.75,-48.27"/>
<polygon fill="midnightblue" stroke="midnightblue" points="419.87,-51.77 429.91,-48.36 419.94,-44.77 419.87,-51.77"/>
</g>
</g>
</svg>
        <g id="navigator" transform="translate(0 0)" fill="#404254">
                <rect fill="#f2f5e9" fill-opacity="0.5" stroke="#606060" stroke-width=".5" x="0" y="0" width="60" height="60"/>
                <use id="zoomplus" xlink:href="#zoomPlus" x="17" y="9" onmousedown="handleZoom(evt,'in')"/>
                <use id="zoomminus" xlink:href="#zoomMin" x="42" y="9" onmousedown="handleZoom(evt,'out')"/>
                <use id="reset" xlink:href="#resetDef" x="30" y="36" onmousedown="handleReset()"/>
                <g id="arrowUp" xlink:href="#dirArrow" transform="translate(30 24)" onmousedown="handlePan(0,-1)">
                  <use xlink:href="#rim" fill="#404040">
                        <set attributeName="fill" to="#808080" begin="arrowUp.mouseover" end="arrowUp.mouseout"/>
                  </use>
                  <path fill="none" stroke="white" stroke-width="1.5" d="M0,-3.0v7 M-2.5,-0.5L0,-3.0L2.5,-0.5"/>
                </g>
                <g id="arrowRight" xlink:href="#dirArrow" transform="rotate(90) translate(36 -43)" onmousedown="handlePan(1,0)">
                  <use xlink:href="#rim" fill="#404040">
                        <set attributeName="fill" to="#808080" begin="arrowRight.mouseover" end="arrowRight.mouseout"/>
                  </use>
                  <path fill="none" stroke="white" stroke-width="1.5" d="M0,-3.0v7 M-2.5,-0.5L0,-3.0L2.5,-0.5"/>
                </g>
                <g id="arrowDown" xlink:href="#dirArrow" transform="rotate(180) translate(-30 -48)" onmousedown="handlePan(0,1)">
                  <use xlink:href="#rim" fill="#404040">
                        <set attributeName="fill" to="#808080" begin="arrowDown.mouseover" end="arrowDown.mouseout"/>
                  </use>
                  <path fill="none" stroke="white" stroke-width="1.5" d="M0,-3.0v7 M-2.5,-0.5L0,-3.0L2.5,-0.5"/>
                </g>
                <g id="arrowLeft" xlink:href="#dirArrow" transform="rotate(270) translate(-36 17)" onmousedown="handlePan(-1,0)">
                  <use xlink:href="#rim" fill="#404040">
                        <set attributeName="fill" to="#808080" begin="arrowLeft.mouseover" end="arrowLeft.mouseout"/>
                  </use>
                  <path fill="none" stroke="white" stroke-width="1.5" d="M0,-3.0v7 M-2.5,-0.5L0,-3.0L2.5,-0.5"/>
                </g>
        </g>
        <svg viewBox="0 0 15 15" width="100%" height="30px" preserveAspectRatio="xMaxYMin meet">
         <g id="arrow_out" transform="scale(0.3 0.3)">
          <a xlink:href="a01390_afd55e8180e62d595030989d781a7616c_cgraph_org.svg" target="_base">
           <rect id="button" ry="5" rx="5" y="6" x="6" height="38" width="38"
                fill="#f2f5e9" fill-opacity="0.5" stroke="#606060" stroke-width="1.0"/>
           <path id="arrow"
             d="M 11.500037,31.436501 C 11.940474,20.09759 22.043105,11.32322 32.158766,21.979434 L 37.068811,17.246167 C 37.068811,17.246167 37.088388,32 37.088388,32 L 22.160133,31.978069 C 22.160133,31.978069 26.997745,27.140456 26.997745,27.140456 C 18.528582,18.264221 13.291696,25.230495 11.500037,31.436501 z"
             style="fill:#404040;"/>
          </a>
         </g>
        </svg>
</svg>
