<?xml version="1.0" encoding="UTF-8" standalone="no"?>
<!DOCTYPE svg PUBLIC "-//W3C//DTD SVG 1.1//EN"
 "http://www.w3.org/Graphics/SVG/1.1/DTD/svg11.dtd">
<!-- Generated by graphviz version 2.43.0 (0)
 -->
<!-- Title: com.cliffc.aa.HM.HM4.Syntax.more_work Pages: 1 -->
<!--zoomable 1130 -->
<svg id="main" version="1.1" xmlns="http://www.w3.org/2000/svg" xmlns:xlink="http://www.w3.org/1999/xlink" xml:space="preserve" onload="init(evt)">
<style type="text/css"><![CDATA[
.edge:hover path { stroke: red; }
.edge:hover polygon { stroke: red; fill: red; }
]]></style>
<script type="text/javascript"><![CDATA[
var edges = document.getElementsByTagName('g');
if (edges && edges.length) {
  for (var i=0;i<edges.length;i++) {
    if (edges[i].id.substr(0,4)=='edge') {
      edges[i].setAttribute('class','edge');
    }
  }
}
]]></script>
        <defs>
                <circle id="rim" cx="0" cy="0" r="7"/>
                <circle id="rim2" cx="0" cy="0" r="3.5"/>
                <g id="zoomPlus">
                        <use xlink:href="#rim" fill="#404040">
                                <set attributeName="fill" to="#808080" begin="zoomplus.mouseover" end="zoomplus.mouseout"/>
                        </use>
                        <path d="M-4,0h8M0,-4v8" fill="none" stroke="white" stroke-width="1.5" pointer-events="none"/>
                </g>
                <g id="zoomMin">
                        <use xlink:href="#rim" fill="#404040">
                                <set attributeName="fill" to="#808080" begin="zoomminus.mouseover" end="zoomminus.mouseout"/>
                        </use>
                        <path d="M-4,0h8" fill="none" stroke="white" stroke-width="1.5" pointer-events="none"/>
                </g>
                <g id="dirArrow">
                        <path fill="none" stroke="white" stroke-width="1.5" d="M0,-3.0v7 M-2.5,-0.5L0,-3.0L2.5,-0.5"/>
                </g>
               <g id="resetDef">
                       <use xlink:href="#rim2" fill="#404040">
                               <set attributeName="fill" to="#808080" begin="reset.mouseover" end="reset.mouseout"/>
                       </use>
               </g>
        </defs>

<script type="text/javascript">
var viewWidth = 717;
var viewHeight = 1130;
var sectionId = 'dynsection-6';
</script>
<script xlink:href="../../svgpan.js"/>
<svg id="graph" class="graph">
<g id="viewport">
<title>com.cliffc.aa.HM.HM4.Syntax.more_work</title>
<!-- Node1 -->
<g id="node1" class="node">
<title>Node1</title>
<g id="a_node1"><a xlink:title=" ">
<polygon fill="#bfbfbf" stroke="black" points="491,-130.5 491,-149.5 709,-149.5 709,-130.5 491,-130.5"/>
<text text-anchor="middle" x="600" y="-137.5" font-family="Helvetica,sans-Serif" font-size="10.00">com.cliffc.aa.HM.HM4.Syntax.more_work</text>
</a>
</g>
</g>
<!-- Node2 -->
<g id="node2" class="node">
<title>Node2</title>
<g id="a_node2"><a xlink:href="../../d9/d2a/a00654.html#afd442fc92fbe5944a66e2027d1e347a4" target="_top" xlink:title=" ">
<polygon fill="none" stroke="black" points="289,-646.5 289,-665.5 432,-665.5 432,-646.5 289,-646.5"/>
<text text-anchor="middle" x="360.5" y="-653.5" font-family="Helvetica,sans-Serif" font-size="10.00">com.cliffc.aa.HM.HM4.hm</text>
</a>
</g>
</g>
<!-- Node1&#45;&gt;Node2 -->
<g id="edge1" class="edge">
<title>Node1&#45;&gt;Node2</title>
<path fill="none" stroke="midnightblue" d="M590.22,-159.08C551.2,-243.85 394.21,-584.94 365.89,-646.47"/>
<polygon fill="midnightblue" stroke="midnightblue" points="593.47,-160.39 594.47,-149.85 587.11,-157.47 593.47,-160.39"/>
</g>
<!-- Node27 -->
<g id="node27" class="node">
<title>Node27</title>
<g id="a_node27"><a xlink:href="../../d1/d97/a00670.html#ae1e745d4551e9930ae8b61933e68dc2f" target="_top" xlink:title=" ">
<polygon fill="none" stroke="black" points="3,-190.5 3,-209.5 227,-209.5 227,-190.5 3,-190.5"/>
<text text-anchor="middle" x="115" y="-197.5" font-family="Helvetica,sans-Serif" font-size="10.00">com.cliffc.aa.HM.HM4.Lambda.more_work</text>
</a>
</g>
</g>
<!-- Node1&#45;&gt;Node27 -->
<g id="edge26" class="edge">
<title>Node1&#45;&gt;Node27</title>
<path fill="none" stroke="midnightblue" d="M539.14,-151.34C513.32,-155.99 482.74,-161.17 455,-165 379.1,-175.49 293.24,-184.33 226.92,-190.49"/>
<polygon fill="midnightblue" stroke="midnightblue" points="539.94,-154.76 549.15,-149.53 538.69,-147.87 539.94,-154.76"/>
</g>
<!-- Node28 -->
<g id="node28" class="node">
<title>Node28</title>
<g id="a_node28"><a xlink:href="../../d8/d73/a00674.html#ab916b1662649738f0661d78b02c3a120" target="_top" xlink:title=" ">
<polygon fill="none" stroke="black" points="0,-152.5 0,-171.5 230,-171.5 230,-152.5 0,-152.5"/>
<text text-anchor="middle" x="115" y="-159.5" font-family="Helvetica,sans-Serif" font-size="10.00">com.cliffc.aa.HM.HM4.Lambda2.more_work</text>
</a>
</g>
</g>
<!-- Node1&#45;&gt;Node28 -->
<g id="edge27" class="edge">
<title>Node1&#45;&gt;Node28</title>
<path fill="none" stroke="midnightblue" d="M480.76,-145.39C404.4,-148.86 305.58,-153.37 230.06,-156.8"/>
<polygon fill="midnightblue" stroke="midnightblue" points="481.08,-148.88 490.91,-144.92 480.76,-141.88 481.08,-148.88"/>
</g>
<!-- Node29 -->
<g id="node29" class="node">
<title>Node29</title>
<g id="a_node29"><a xlink:href="../../da/d31/a00678.html#aa5ffccc5650541cb18f31d16792a05b2" target="_top" xlink:title=" ">
<polygon fill="none" stroke="black" points="15,-38.5 15,-57.5 215,-57.5 215,-38.5 15,-38.5"/>
<text text-anchor="middle" x="115" y="-45.5" font-family="Helvetica,sans-Serif" font-size="10.00">com.cliffc.aa.HM.HM4.Let.more_work</text>
</a>
</g>
</g>
<!-- Node1&#45;&gt;Node29 -->
<g id="edge28" class="edge">
<title>Node1&#45;&gt;Node29</title>
<path fill="none" stroke="midnightblue" d="M564.26,-127.02C535.38,-116.69 493.01,-102.58 455,-94 375.19,-75.98 283.12,-64.04 215.09,-56.84"/>
<polygon fill="midnightblue" stroke="midnightblue" points="563.28,-130.39 573.88,-130.5 565.67,-123.8 563.28,-130.39"/>
</g>
<!-- Node30 -->
<g id="node30" class="node">
<title>Node30</title>
<g id="a_node30"><a xlink:href="../../d7/dc3/a00682.html#a5bfaad6c019ea77df70ba668adcb127f" target="_top" xlink:title=" ">
<polygon fill="none" stroke="black" points="9.5,-0.5 9.5,-19.5 220.5,-19.5 220.5,-0.5 9.5,-0.5"/>
<text text-anchor="middle" x="115" y="-7.5" font-family="Helvetica,sans-Serif" font-size="10.00">com.cliffc.aa.HM.HM4.Apply.more_work</text>
</a>
</g>
</g>
<!-- Node1&#45;&gt;Node30 -->
<g id="edge29" class="edge">
<title>Node1&#45;&gt;Node30</title>
<path fill="none" stroke="midnightblue" d="M577.56,-124.56C550.43,-105.85 501.6,-74.86 455,-59 379,-33.14 288.88,-20.93 220.67,-15.16"/>
<polygon fill="midnightblue" stroke="midnightblue" points="575.7,-127.53 585.89,-130.4 579.71,-121.8 575.7,-127.53"/>
</g>
<!-- Node31 -->
<g id="node31" class="node">
<title>Node31</title>
<g id="a_node31"><a xlink:href="../../d9/db8/a00658.html#a29549fcbf5331bf0c02338914f944684" target="_top" xlink:title=" ">
<polygon fill="none" stroke="black" points="266,-103 266,-133 455,-133 455,-103 266,-103"/>
<text text-anchor="start" x="274" y="-121" font-family="Helvetica,sans-Serif" font-size="10.00">com.cliffc.aa.HM.HM4.Syntax.more</text>
<text text-anchor="middle" x="360.5" y="-110" font-family="Helvetica,sans-Serif" font-size="10.00">_work_impl</text>
</a>
</g>
</g>
<!-- Node1&#45;&gt;Node31 -->
<g id="edge30" class="edge">
<title>Node1&#45;&gt;Node31</title>
<path fill="none" stroke="midnightblue" d="M486.24,-129.56C475.81,-128.59 465.32,-127.62 455.1,-126.67"/>
<polygon fill="midnightblue" stroke="midnightblue" points="485.93,-133.04 496.21,-130.48 486.58,-126.07 485.93,-133.04"/>
</g>
<!-- Node3 -->
<g id="node3" class="node">
<title>Node3</title>
<g id="a_node3"><a xlink:href="../../d8/d75/a01666.html#a9a5d1ed6f7ab49047c80d42ef5a8dbac" target="_top" xlink:title=" ">
<polygon fill="none" stroke="black" points="26.5,-418.5 26.5,-437.5 203.5,-437.5 203.5,-418.5 26.5,-418.5"/>
<text text-anchor="middle" x="115" y="-425.5" font-family="Helvetica,sans-Serif" font-size="10.00">com.cliffc.aa.HM.TestHM4.test00</text>
</a>
</g>
</g>
<!-- Node2&#45;&gt;Node3 -->
<g id="edge2" class="edge">
<title>Node2&#45;&gt;Node3</title>
<path fill="none" stroke="midnightblue" d="M353.53,-636.38C339.55,-594.06 300.45,-494.23 230,-447 222,-441.64 212.99,-437.62 203.64,-434.62"/>
<polygon fill="midnightblue" stroke="midnightblue" points="350.24,-637.58 356.61,-646.05 356.91,-635.46 350.24,-637.58"/>
</g>
<!-- Node4 -->
<g id="node4" class="node">
<title>Node4</title>
<g id="a_node4"><a xlink:href="../../d8/d75/a01666.html#ae85a481d0403d71ceaccba56d1ef63fe" target="_top" xlink:title=" ">
<polygon fill="none" stroke="black" points="26.5,-380.5 26.5,-399.5 203.5,-399.5 203.5,-380.5 26.5,-380.5"/>
<text text-anchor="middle" x="115" y="-387.5" font-family="Helvetica,sans-Serif" font-size="10.00">com.cliffc.aa.HM.TestHM4.test01</text>
</a>
</g>
</g>
<!-- Node2&#45;&gt;Node4 -->
<g id="edge3" class="edge">
<title>Node2&#45;&gt;Node4</title>
<path fill="none" stroke="midnightblue" d="M355.49,-636.51C344.63,-588.98 309.88,-466.82 230,-409 222.12,-403.29 213.13,-399.07 203.74,-395.97"/>
<polygon fill="midnightblue" stroke="midnightblue" points="352.11,-637.4 357.66,-646.43 358.94,-635.91 352.11,-637.4"/>
</g>
<!-- Node5 -->
<g id="node5" class="node">
<title>Node5</title>
<g id="a_node5"><a xlink:href="../../d8/d75/a01666.html#ae3d58c142318d9822b80e2661f5cf317" target="_top" xlink:title=" ">
<polygon fill="none" stroke="black" points="26.5,-342.5 26.5,-361.5 203.5,-361.5 203.5,-342.5 26.5,-342.5"/>
<text text-anchor="middle" x="115" y="-349.5" font-family="Helvetica,sans-Serif" font-size="10.00">com.cliffc.aa.HM.TestHM4.test02</text>
</a>
</g>
</g>
<!-- Node2&#45;&gt;Node5 -->
<g id="edge4" class="edge">
<title>Node2&#45;&gt;Node5</title>
<path fill="none" stroke="midnightblue" d="M356.92,-636.42C348.91,-583.97 319.36,-439.6 230,-371 222.2,-365.01 213.21,-360.62 203.77,-357.44"/>
<polygon fill="midnightblue" stroke="midnightblue" points="353.47,-637.02 358.36,-646.42 360.4,-636.02 353.47,-637.02"/>
</g>
<!-- Node6 -->
<g id="node6" class="node">
<title>Node6</title>
<g id="a_node6"><a xlink:href="../../d8/d75/a01666.html#a56952493cfb8db8d7f66a0d2a4144300" target="_top" xlink:title=" ">
<polygon fill="none" stroke="black" points="26.5,-304.5 26.5,-323.5 203.5,-323.5 203.5,-304.5 26.5,-304.5"/>
<text text-anchor="middle" x="115" y="-311.5" font-family="Helvetica,sans-Serif" font-size="10.00">com.cliffc.aa.HM.TestHM4.test03</text>
</a>
</g>
</g>
<!-- Node2&#45;&gt;Node6 -->
<g id="edge5" class="edge">
<title>Node2&#45;&gt;Node6</title>
<path fill="none" stroke="midnightblue" d="M358.04,-636.19C352.68,-578.97 328.88,-412.52 230,-333 222.26,-326.78 213.25,-322.25 203.75,-318.99"/>
<polygon fill="midnightblue" stroke="midnightblue" points="354.57,-636.72 358.9,-646.39 361.55,-636.13 354.57,-636.72"/>
</g>
<!-- Node7 -->
<g id="node7" class="node">
<title>Node7</title>
<g id="a_node7"><a xlink:href="../../d8/d75/a01666.html#ae44571570e17e69ab2790bb133dfe571" target="_top" xlink:title=" ">
<polygon fill="none" stroke="black" points="26.5,-266.5 26.5,-285.5 203.5,-285.5 203.5,-266.5 26.5,-266.5"/>
<text text-anchor="middle" x="115" y="-273.5" font-family="Helvetica,sans-Serif" font-size="10.00">com.cliffc.aa.HM.TestHM4.test04</text>
</a>
</g>
</g>
<!-- Node2&#45;&gt;Node7 -->
<g id="edge6" class="edge">
<title>Node2&#45;&gt;Node7</title>
<path fill="none" stroke="midnightblue" d="M358.95,-635.97C356.11,-574.23 338.51,-385.61 230,-295 222.3,-288.57 213.26,-283.93 203.69,-280.62"/>
<polygon fill="midnightblue" stroke="midnightblue" points="355.47,-636.4 359.34,-646.26 362.46,-636.14 355.47,-636.4"/>
</g>
<!-- Node8 -->
<g id="node8" class="node">
<title>Node8</title>
<g id="a_node8"><a xlink:href="../../d8/d75/a01666.html#a863736375a22b61137ff808d862a803c" target="_top" xlink:title=" ">
<polygon fill="none" stroke="black" points="26.5,-228.5 26.5,-247.5 203.5,-247.5 203.5,-228.5 26.5,-228.5"/>
<text text-anchor="middle" x="115" y="-235.5" font-family="Helvetica,sans-Serif" font-size="10.00">com.cliffc.aa.HM.TestHM4.test05</text>
</a>
</g>
</g>
<!-- Node2&#45;&gt;Node8 -->
<g id="edge7" class="edge">
<title>Node2&#45;&gt;Node8</title>
<path fill="none" stroke="midnightblue" d="M359.73,-636.09C359.3,-570.4 348.42,-359.01 230,-257 222.32,-250.39 213.24,-245.64 203.6,-242.29"/>
<polygon fill="midnightblue" stroke="midnightblue" points="356.23,-636.28 359.71,-646.29 363.23,-636.29 356.23,-636.28"/>
</g>
<!-- Node9 -->
<g id="node9" class="node">
<title>Node9</title>
<g id="a_node9"><a xlink:href="../../d8/d75/a01666.html#a017834f97519a440d1d1827e515925cd" target="_top" xlink:title=" ">
<polygon fill="none" stroke="black" points="26.5,-1102.5 26.5,-1121.5 203.5,-1121.5 203.5,-1102.5 26.5,-1102.5"/>
<text text-anchor="middle" x="115" y="-1109.5" font-family="Helvetica,sans-Serif" font-size="10.00">com.cliffc.aa.HM.TestHM4.test06</text>
</a>
</g>
</g>
<!-- Node2&#45;&gt;Node9 -->
<g id="edge8" class="edge">
<title>Node2&#45;&gt;Node9</title>
<path fill="none" stroke="midnightblue" d="M356.44,-675.87C344.07,-753.55 295.27,-1035.3 230,-1093 222.41,-1099.71 213.38,-1104.51 203.77,-1107.9"/>
<polygon fill="midnightblue" stroke="midnightblue" points="359.96,-676 358.05,-665.57 353.05,-674.91 359.96,-676"/>
</g>
<!-- Node10 -->
<g id="node10" class="node">
<title>Node10</title>
<g id="a_node10"><a xlink:href="../../d8/d75/a01666.html#a4271d09cf1f574a152c280c148b5a028" target="_top" xlink:title=" ">
<polygon fill="none" stroke="black" points="26.5,-1064.5 26.5,-1083.5 203.5,-1083.5 203.5,-1064.5 26.5,-1064.5"/>
<text text-anchor="middle" x="115" y="-1071.5" font-family="Helvetica,sans-Serif" font-size="10.00">com.cliffc.aa.HM.TestHM4.test07</text>
</a>
</g>
</g>
<!-- Node2&#45;&gt;Node10 -->
<g id="edge9" class="edge">
<title>Node2&#45;&gt;Node10</title>
<path fill="none" stroke="midnightblue" d="M359.73,-675.91C359.3,-741.6 348.42,-952.99 230,-1055 222.32,-1061.61 213.24,-1066.36 203.6,-1069.71"/>
<polygon fill="midnightblue" stroke="midnightblue" points="363.23,-675.71 359.71,-665.71 356.23,-675.72 363.23,-675.71"/>
</g>
<!-- Node11 -->
<g id="node11" class="node">
<title>Node11</title>
<g id="a_node11"><a xlink:href="../../d8/d75/a01666.html#a0a238a6c568102642946f7915ddad825" target="_top" xlink:title=" ">
<polygon fill="none" stroke="black" points="26.5,-1026.5 26.5,-1045.5 203.5,-1045.5 203.5,-1026.5 26.5,-1026.5"/>
<text text-anchor="middle" x="115" y="-1033.5" font-family="Helvetica,sans-Serif" font-size="10.00">com.cliffc.aa.HM.TestHM4.test08</text>
</a>
</g>
</g>
<!-- Node2&#45;&gt;Node11 -->
<g id="edge10" class="edge">
<title>Node2&#45;&gt;Node11</title>
<path fill="none" stroke="midnightblue" d="M358.95,-676.03C356.11,-737.77 338.51,-926.39 230,-1017 222.3,-1023.43 213.26,-1028.07 203.69,-1031.38"/>
<polygon fill="midnightblue" stroke="midnightblue" points="362.46,-675.86 359.34,-665.74 355.47,-675.6 362.46,-675.86"/>
</g>
<!-- Node12 -->
<g id="node12" class="node">
<title>Node12</title>
<g id="a_node12"><a xlink:href="../../d8/d75/a01666.html#a32e17a6dc10629400d800ca29a090aa4" target="_top" xlink:title=" ">
<polygon fill="none" stroke="black" points="26.5,-988.5 26.5,-1007.5 203.5,-1007.5 203.5,-988.5 26.5,-988.5"/>
<text text-anchor="middle" x="115" y="-995.5" font-family="Helvetica,sans-Serif" font-size="10.00">com.cliffc.aa.HM.TestHM4.test09</text>
</a>
</g>
</g>
<!-- Node2&#45;&gt;Node12 -->
<g id="edge11" class="edge">
<title>Node2&#45;&gt;Node12</title>
<path fill="none" stroke="midnightblue" d="M358.04,-675.81C352.68,-733.03 328.88,-899.48 230,-979 222.26,-985.22 213.25,-989.75 203.75,-993.01"/>
<polygon fill="midnightblue" stroke="midnightblue" points="361.55,-675.87 358.9,-665.61 354.57,-675.28 361.55,-675.87"/>
</g>
<!-- Node13 -->
<g id="node13" class="node">
<title>Node13</title>
<g id="a_node13"><a xlink:href="../../d8/d75/a01666.html#a41d1516574e765a32fef0ab138b933cd" target="_top" xlink:title=" ">
<polygon fill="none" stroke="black" points="26.5,-950.5 26.5,-969.5 203.5,-969.5 203.5,-950.5 26.5,-950.5"/>
<text text-anchor="middle" x="115" y="-957.5" font-family="Helvetica,sans-Serif" font-size="10.00">com.cliffc.aa.HM.TestHM4.test10</text>
</a>
</g>
</g>
<!-- Node2&#45;&gt;Node13 -->
<g id="edge12" class="edge">
<title>Node2&#45;&gt;Node13</title>
<path fill="none" stroke="midnightblue" d="M356.92,-675.58C348.91,-728.03 319.36,-872.4 230,-941 222.2,-946.99 213.21,-951.38 203.77,-954.56"/>
<polygon fill="midnightblue" stroke="midnightblue" points="360.4,-675.98 358.36,-665.58 353.47,-674.98 360.4,-675.98"/>
</g>
<!-- Node14 -->
<g id="node14" class="node">
<title>Node14</title>
<g id="a_node14"><a xlink:href="../../d8/d75/a01666.html#ae76986e565f825f3e1c3e2e31e1dc3da" target="_top" xlink:title=" ">
<polygon fill="none" stroke="black" points="26.5,-912.5 26.5,-931.5 203.5,-931.5 203.5,-912.5 26.5,-912.5"/>
<text text-anchor="middle" x="115" y="-919.5" font-family="Helvetica,sans-Serif" font-size="10.00">com.cliffc.aa.HM.TestHM4.test11</text>
</a>
</g>
</g>
<!-- Node2&#45;&gt;Node14 -->
<g id="edge13" class="edge">
<title>Node2&#45;&gt;Node14</title>
<path fill="none" stroke="midnightblue" d="M355.49,-675.49C344.63,-723.02 309.88,-845.18 230,-903 222.12,-908.71 213.13,-912.93 203.74,-916.03"/>
<polygon fill="midnightblue" stroke="midnightblue" points="358.94,-676.09 357.66,-665.57 352.11,-674.6 358.94,-676.09"/>
</g>
<!-- Node15 -->
<g id="node15" class="node">
<title>Node15</title>
<g id="a_node15"><a xlink:href="../../d8/d75/a01666.html#adf7b56aca0424e6a469c4f0d4cf87e45" target="_top" xlink:title=" ">
<polygon fill="none" stroke="black" points="26.5,-874.5 26.5,-893.5 203.5,-893.5 203.5,-874.5 26.5,-874.5"/>
<text text-anchor="middle" x="115" y="-881.5" font-family="Helvetica,sans-Serif" font-size="10.00">com.cliffc.aa.HM.TestHM4.test12</text>
</a>
</g>
</g>
<!-- Node2&#45;&gt;Node15 -->
<g id="edge14" class="edge">
<title>Node2&#45;&gt;Node15</title>
<path fill="none" stroke="midnightblue" d="M353.53,-675.62C339.55,-717.94 300.45,-817.77 230,-865 222,-870.36 212.99,-874.38 203.64,-877.38"/>
<polygon fill="midnightblue" stroke="midnightblue" points="356.91,-676.54 356.61,-665.95 350.24,-674.42 356.91,-676.54"/>
</g>
<!-- Node16 -->
<g id="node16" class="node">
<title>Node16</title>
<g id="a_node16"><a xlink:href="../../d8/d75/a01666.html#a59c9b14c1d3f856a78c7648eb428b0a0" target="_top" xlink:title=" ">
<polygon fill="none" stroke="black" points="26.5,-836.5 26.5,-855.5 203.5,-855.5 203.5,-836.5 26.5,-836.5"/>
<text text-anchor="middle" x="115" y="-843.5" font-family="Helvetica,sans-Serif" font-size="10.00">com.cliffc.aa.HM.TestHM4.test13</text>
</a>
</g>
</g>
<!-- Node2&#45;&gt;Node16 -->
<g id="edge15" class="edge">
<title>Node2&#45;&gt;Node16</title>
<path fill="none" stroke="midnightblue" d="M350.99,-675.24C333.85,-711.54 291.49,-789.82 230,-827 221.93,-831.88 212.98,-835.61 203.75,-838.44"/>
<polygon fill="midnightblue" stroke="midnightblue" points="354.34,-676.35 355.33,-665.8 347.97,-673.43 354.34,-676.35"/>
</g>
<!-- Node17 -->
<g id="node17" class="node">
<title>Node17</title>
<g id="a_node17"><a xlink:href="../../d8/d75/a01666.html#a8ad10e9ad4e050a9dd3216c2a04c6c79" target="_top" xlink:title=" ">
<polygon fill="none" stroke="black" points="26.5,-798.5 26.5,-817.5 203.5,-817.5 203.5,-798.5 26.5,-798.5"/>
<text text-anchor="middle" x="115" y="-805.5" font-family="Helvetica,sans-Serif" font-size="10.00">com.cliffc.aa.HM.TestHM4.test14</text>
</a>
</g>
</g>
<!-- Node2&#45;&gt;Node17 -->
<g id="edge16" class="edge">
<title>Node2&#45;&gt;Node17</title>
<path fill="none" stroke="midnightblue" d="M347.62,-674.22C327.35,-703.67 283.08,-761.23 230,-789 221.82,-793.28 212.9,-796.63 203.77,-799.26"/>
<polygon fill="midnightblue" stroke="midnightblue" points="350.66,-675.97 353.34,-665.72 344.86,-672.06 350.66,-675.97"/>
</g>
<!-- Node18 -->
<g id="node18" class="node">
<title>Node18</title>
<g id="a_node18"><a xlink:href="../../d8/d75/a01666.html#a4fe28d14301ed43dfa5934a5062e1b5c" target="_top" xlink:title=" ">
<polygon fill="none" stroke="black" points="26.5,-760.5 26.5,-779.5 203.5,-779.5 203.5,-760.5 26.5,-760.5"/>
<text text-anchor="middle" x="115" y="-767.5" font-family="Helvetica,sans-Serif" font-size="10.00">com.cliffc.aa.HM.TestHM4.test15</text>
</a>
</g>
</g>
<!-- Node2&#45;&gt;Node18 -->
<g id="edge17" class="edge">
<title>Node2&#45;&gt;Node18</title>
<path fill="none" stroke="midnightblue" d="M342.45,-672.7C319.13,-694.47 275.05,-732.01 230,-751 220.76,-754.9 210.77,-758 200.7,-760.46"/>
<polygon fill="midnightblue" stroke="midnightblue" points="344.96,-675.14 349.79,-665.71 340.13,-670.07 344.96,-675.14"/>
</g>
<!-- Node19 -->
<g id="node19" class="node">
<title>Node19</title>
<g id="a_node19"><a xlink:href="../../d8/d75/a01666.html#a0798292fbc65e1f8f8fe899440a836a2" target="_top" xlink:title=" ">
<polygon fill="none" stroke="black" points="26.5,-722.5 26.5,-741.5 203.5,-741.5 203.5,-722.5 26.5,-722.5"/>
<text text-anchor="middle" x="115" y="-729.5" font-family="Helvetica,sans-Serif" font-size="10.00">com.cliffc.aa.HM.TestHM4.test16</text>
</a>
</g>
</g>
<!-- Node2&#45;&gt;Node19 -->
<g id="edge18" class="edge">
<title>Node2&#45;&gt;Node19</title>
<path fill="none" stroke="midnightblue" d="M332.5,-670.27C306.81,-683.26 266.74,-702.04 230,-713 217.21,-716.81 203.38,-719.93 189.9,-722.45"/>
<polygon fill="midnightblue" stroke="midnightblue" points="334.3,-673.28 341.6,-665.6 331.11,-667.05 334.3,-673.28"/>
</g>
<!-- Node20 -->
<g id="node20" class="node">
<title>Node20</title>
<g id="a_node20"><a xlink:href="../../d8/d75/a01666.html#a420aa06c484408e769d5c04a7db4ffb1" target="_top" xlink:title=" ">
<polygon fill="none" stroke="black" points="26.5,-684.5 26.5,-703.5 203.5,-703.5 203.5,-684.5 26.5,-684.5"/>
<text text-anchor="middle" x="115" y="-691.5" font-family="Helvetica,sans-Serif" font-size="10.00">com.cliffc.aa.HM.TestHM4.test17</text>
</a>
</g>
</g>
<!-- Node2&#45;&gt;Node20 -->
<g id="edge19" class="edge">
<title>Node2&#45;&gt;Node20</title>
<path fill="none" stroke="midnightblue" d="M288.15,-667.13C252.93,-672.63 210.88,-679.19 177.16,-684.46"/>
<polygon fill="midnightblue" stroke="midnightblue" points="289.03,-670.54 298.37,-665.54 287.95,-663.62 289.03,-670.54"/>
</g>
<!-- Node21 -->
<g id="node21" class="node">
<title>Node21</title>
<g id="a_node21"><a xlink:href="../../d8/d75/a01666.html#a69c151cb4e6397ae1f2ad45a48d1c71c" target="_top" xlink:title=" ">
<polygon fill="none" stroke="black" points="26.5,-646.5 26.5,-665.5 203.5,-665.5 203.5,-646.5 26.5,-646.5"/>
<text text-anchor="middle" x="115" y="-653.5" font-family="Helvetica,sans-Serif" font-size="10.00">com.cliffc.aa.HM.TestHM4.test18</text>
</a>
</g>
</g>
<!-- Node2&#45;&gt;Node21 -->
<g id="edge20" class="edge">
<title>Node2&#45;&gt;Node21</title>
<path fill="none" stroke="midnightblue" d="M278.62,-656C254.62,-656 228.23,-656 203.82,-656"/>
<polygon fill="midnightblue" stroke="midnightblue" points="278.74,-659.5 288.74,-656 278.74,-652.5 278.74,-659.5"/>
</g>
<!-- Node22 -->
<g id="node22" class="node">
<title>Node22</title>
<g id="a_node22"><a xlink:href="../../d8/d75/a01666.html#adde14a9032f04beb1f310e96b29dc7cb" target="_top" xlink:title=" ">
<polygon fill="none" stroke="black" points="26.5,-608.5 26.5,-627.5 203.5,-627.5 203.5,-608.5 26.5,-608.5"/>
<text text-anchor="middle" x="115" y="-615.5" font-family="Helvetica,sans-Serif" font-size="10.00">com.cliffc.aa.HM.TestHM4.test19</text>
</a>
</g>
</g>
<!-- Node2&#45;&gt;Node22 -->
<g id="edge21" class="edge">
<title>Node2&#45;&gt;Node22</title>
<path fill="none" stroke="midnightblue" d="M288.15,-644.87C252.93,-639.37 210.88,-632.81 177.16,-627.54"/>
<polygon fill="midnightblue" stroke="midnightblue" points="287.95,-648.38 298.37,-646.46 289.03,-641.46 287.95,-648.38"/>
</g>
<!-- Node23 -->
<g id="node23" class="node">
<title>Node23</title>
<g id="a_node23"><a xlink:href="../../d8/d75/a01666.html#aab155601571371335ce8a1bbf97b03df" target="_top" xlink:title=" ">
<polygon fill="none" stroke="black" points="26.5,-570.5 26.5,-589.5 203.5,-589.5 203.5,-570.5 26.5,-570.5"/>
<text text-anchor="middle" x="115" y="-577.5" font-family="Helvetica,sans-Serif" font-size="10.00">com.cliffc.aa.HM.TestHM4.test20</text>
</a>
</g>
</g>
<!-- Node2&#45;&gt;Node23 -->
<g id="edge22" class="edge">
<title>Node2&#45;&gt;Node23</title>
<path fill="none" stroke="midnightblue" d="M332.5,-641.73C306.81,-628.74 266.74,-609.96 230,-599 217.21,-595.19 203.38,-592.07 189.9,-589.55"/>
<polygon fill="midnightblue" stroke="midnightblue" points="331.11,-644.95 341.6,-646.4 334.3,-638.72 331.11,-644.95"/>
</g>
<!-- Node24 -->
<g id="node24" class="node">
<title>Node24</title>
<g id="a_node24"><a xlink:href="../../d8/d75/a01666.html#a35b608e91c2dc1d6804c67bb8dbe5dd0" target="_top" xlink:title=" ">
<polygon fill="none" stroke="black" points="26.5,-532.5 26.5,-551.5 203.5,-551.5 203.5,-532.5 26.5,-532.5"/>
<text text-anchor="middle" x="115" y="-539.5" font-family="Helvetica,sans-Serif" font-size="10.00">com.cliffc.aa.HM.TestHM4.test21</text>
</a>
</g>
</g>
<!-- Node2&#45;&gt;Node24 -->
<g id="edge23" class="edge">
<title>Node2&#45;&gt;Node24</title>
<path fill="none" stroke="midnightblue" d="M342.45,-639.3C319.13,-617.53 275.05,-579.99 230,-561 220.76,-557.1 210.77,-554 200.7,-551.54"/>
<polygon fill="midnightblue" stroke="midnightblue" points="340.13,-641.93 349.79,-646.29 344.96,-636.86 340.13,-641.93"/>
</g>
<!-- Node25 -->
<g id="node25" class="node">
<title>Node25</title>
<g id="a_node25"><a xlink:href="../../d8/d75/a01666.html#aa28cbe41410c532d39162b3cb9e44e3d" target="_top" xlink:title=" ">
<polygon fill="none" stroke="black" points="26.5,-494.5 26.5,-513.5 203.5,-513.5 203.5,-494.5 26.5,-494.5"/>
<text text-anchor="middle" x="115" y="-501.5" font-family="Helvetica,sans-Serif" font-size="10.00">com.cliffc.aa.HM.TestHM4.test22</text>
</a>
</g>
</g>
<!-- Node2&#45;&gt;Node25 -->
<g id="edge24" class="edge">
<title>Node2&#45;&gt;Node25</title>
<path fill="none" stroke="midnightblue" d="M347.62,-637.78C327.35,-608.33 283.08,-550.77 230,-523 221.82,-518.72 212.9,-515.37 203.77,-512.74"/>
<polygon fill="midnightblue" stroke="midnightblue" points="344.86,-639.94 353.34,-646.28 350.66,-636.03 344.86,-639.94"/>
</g>
<!-- Node26 -->
<g id="node26" class="node">
<title>Node26</title>
<g id="a_node26"><a xlink:href="../../d8/d75/a01666.html#a7accaa05966331e28f66466bcbf61e0c" target="_top" xlink:title=" ">
<polygon fill="none" stroke="black" points="26.5,-456.5 26.5,-475.5 203.5,-475.5 203.5,-456.5 26.5,-456.5"/>
<text text-anchor="middle" x="115" y="-463.5" font-family="Helvetica,sans-Serif" font-size="10.00">com.cliffc.aa.HM.TestHM4.test23</text>
</a>
</g>
</g>
<!-- Node2&#45;&gt;Node26 -->
<g id="edge25" class="edge">
<title>Node2&#45;&gt;Node26</title>
<path fill="none" stroke="midnightblue" d="M350.99,-636.76C333.85,-600.46 291.49,-522.18 230,-485 221.93,-480.12 212.98,-476.39 203.75,-473.56"/>
<polygon fill="midnightblue" stroke="midnightblue" points="347.97,-638.57 355.33,-646.2 354.34,-635.65 347.97,-638.57"/>
</g>
<!-- Node31&#45;&gt;Node27 -->
<g id="edge33" class="edge">
<title>Node31&#45;&gt;Node27</title>
<path fill="none" stroke="midnightblue" d="M325.24,-138.05C299.77,-152.1 263.73,-170.23 230,-181 217.86,-184.87 204.73,-188 191.85,-190.5"/>
<polygon fill="midnightblue" stroke="midnightblue" points="327.11,-141.01 334.12,-133.07 323.69,-134.9 327.11,-141.01"/>
</g>
<!-- Node31&#45;&gt;Node28 -->
<g id="edge34" class="edge">
<title>Node31&#45;&gt;Node28</title>
<path fill="none" stroke="midnightblue" d="M273.29,-134.96C258.85,-137.71 244.01,-140.48 230,-143 212.13,-146.21 192.65,-149.53 174.92,-152.47"/>
<polygon fill="midnightblue" stroke="midnightblue" points="274.04,-138.38 283.21,-133.06 272.73,-131.51 274.04,-138.38"/>
</g>
<!-- Node31&#45;&gt;Node29 -->
<g id="edge35" class="edge">
<title>Node31&#45;&gt;Node29</title>
<path fill="none" stroke="midnightblue" d="M310.18,-99.3C295.89,-93.8 280.3,-87.73 266,-82 249.91,-75.55 246.66,-71.79 230,-67 216.79,-63.2 202.49,-60.08 188.62,-57.53"/>
<polygon fill="midnightblue" stroke="midnightblue" points="309.24,-102.69 319.83,-103 311.74,-96.15 309.24,-102.69"/>
</g>
<!-- Node31&#45;&gt;Node30 -->
<g id="edge36" class="edge">
<title>Node31&#45;&gt;Node30</title>
<path fill="none" stroke="midnightblue" d="M335.15,-96.35C310.45,-75.64 270.23,-45.24 230,-29 220.32,-25.09 209.88,-21.99 199.37,-19.53"/>
<polygon fill="midnightblue" stroke="midnightblue" points="333.03,-99.14 342.91,-102.97 337.57,-93.82 333.03,-99.14"/>
</g>
<!-- Node32 -->
<g id="node32" class="node">
<title>Node32</title>
<g id="a_node32"><a xlink:href="../../dc/df1/a00662.html#a7f1bfd03bc414d4852808eaeeb0b05b9" target="_top" xlink:title=" ">
<polygon fill="none" stroke="black" points="13.5,-114.5 13.5,-133.5 216.5,-133.5 216.5,-114.5 13.5,-114.5"/>
<text text-anchor="middle" x="115" y="-121.5" font-family="Helvetica,sans-Serif" font-size="10.00">com.cliffc.aa.HM.HM4.Con.more_work</text>
</a>
</g>
</g>
<!-- Node31&#45;&gt;Node32 -->
<g id="edge31" class="edge">
<title>Node31&#45;&gt;Node32</title>
<path fill="none" stroke="midnightblue" d="M255.45,-120.56C242.58,-120.88 229.44,-121.2 216.62,-121.52"/>
<polygon fill="midnightblue" stroke="midnightblue" points="255.79,-124.06 265.7,-120.31 255.62,-117.06 255.79,-124.06"/>
</g>
<!-- Node33 -->
<g id="node33" class="node">
<title>Node33</title>
<g id="a_node33"><a xlink:href="../../d9/d41/a00666.html#ae68deb1a282286031d5912666db5c2b9" target="_top" xlink:title=" ">
<polygon fill="none" stroke="black" points="10.5,-76.5 10.5,-95.5 219.5,-95.5 219.5,-76.5 10.5,-76.5"/>
<text text-anchor="middle" x="115" y="-83.5" font-family="Helvetica,sans-Serif" font-size="10.00">com.cliffc.aa.HM.HM4.Ident.more_work</text>
</a>
</g>
</g>
<!-- Node31&#45;&gt;Node33 -->
<g id="edge32" class="edge">
<title>Node31&#45;&gt;Node33</title>
<path fill="none" stroke="midnightblue" d="M255.73,-104.36C233.12,-101.39 209.66,-98.31 188.57,-95.54"/>
<polygon fill="midnightblue" stroke="midnightblue" points="255.33,-107.84 265.7,-105.67 256.25,-100.9 255.33,-107.84"/>
</g>
</g>
</svg>
        <g id="navigator" transform="translate(0 0)" fill="#404254">
                <rect fill="#f2f5e9" fill-opacity="0.5" stroke="#606060" stroke-width=".5" x="0" y="0" width="60" height="60"/>
                <use id="zoomplus" xlink:href="#zoomPlus" x="17" y="9" onmousedown="handleZoom(evt,'in')"/>
                <use id="zoomminus" xlink:href="#zoomMin" x="42" y="9" onmousedown="handleZoom(evt,'out')"/>
                <use id="reset" xlink:href="#resetDef" x="30" y="36" onmousedown="handleReset()"/>
                <g id="arrowUp" xlink:href="#dirArrow" transform="translate(30 24)" onmousedown="handlePan(0,-1)">
                  <use xlink:href="#rim" fill="#404040">
                        <set attributeName="fill" to="#808080" begin="arrowUp.mouseover" end="arrowUp.mouseout"/>
                  </use>
                  <path fill="none" stroke="white" stroke-width="1.5" d="M0,-3.0v7 M-2.5,-0.5L0,-3.0L2.5,-0.5"/>
                </g>
                <g id="arrowRight" xlink:href="#dirArrow" transform="rotate(90) translate(36 -43)" onmousedown="handlePan(1,0)">
                  <use xlink:href="#rim" fill="#404040">
                        <set attributeName="fill" to="#808080" begin="arrowRight.mouseover" end="arrowRight.mouseout"/>
                  </use>
                  <path fill="none" stroke="white" stroke-width="1.5" d="M0,-3.0v7 M-2.5,-0.5L0,-3.0L2.5,-0.5"/>
                </g>
                <g id="arrowDown" xlink:href="#dirArrow" transform="rotate(180) translate(-30 -48)" onmousedown="handlePan(0,1)">
                  <use xlink:href="#rim" fill="#404040">
                        <set attributeName="fill" to="#808080" begin="arrowDown.mouseover" end="arrowDown.mouseout"/>
                  </use>
                  <path fill="none" stroke="white" stroke-width="1.5" d="M0,-3.0v7 M-2.5,-0.5L0,-3.0L2.5,-0.5"/>
                </g>
                <g id="arrowLeft" xlink:href="#dirArrow" transform="rotate(270) translate(-36 17)" onmousedown="handlePan(-1,0)">
                  <use xlink:href="#rim" fill="#404040">
                        <set attributeName="fill" to="#808080" begin="arrowLeft.mouseover" end="arrowLeft.mouseout"/>
                  </use>
                  <path fill="none" stroke="white" stroke-width="1.5" d="M0,-3.0v7 M-2.5,-0.5L0,-3.0L2.5,-0.5"/>
                </g>
        </g>
        <svg viewBox="0 0 15 15" width="100%" height="30px" preserveAspectRatio="xMaxYMin meet">
         <g id="arrow_out" transform="scale(0.3 0.3)">
          <a xlink:href="a00658_a721937799a63d9f1f32c1b7ec8f851c2_icgraph_org.svg" target="_base">
           <rect id="button" ry="5" rx="5" y="6" x="6" height="38" width="38"
                fill="#f2f5e9" fill-opacity="0.5" stroke="#606060" stroke-width="1.0"/>
           <path id="arrow"
             d="M 11.500037,31.436501 C 11.940474,20.09759 22.043105,11.32322 32.158766,21.979434 L 37.068811,17.246167 C 37.068811,17.246167 37.088388,32 37.088388,32 L 22.160133,31.978069 C 22.160133,31.978069 26.997745,27.140456 26.997745,27.140456 C 18.528582,18.264221 13.291696,25.230495 11.500037,31.436501 z"
             style="fill:#404040;"/>
          </a>
         </g>
        </svg>
</svg>
