<?xml version="1.0" encoding="UTF-8" standalone="no"?>
<!DOCTYPE svg PUBLIC "-//W3C//DTD SVG 1.1//EN"
 "http://www.w3.org/Graphics/SVG/1.1/DTD/svg11.dtd">
<!-- Generated by graphviz version 2.43.0 (0)
 -->
<!-- Title: com.cliffc.aa.type.TypeMemPtr.depth Pages: 1 -->
<svg width="1005pt" height="229pt"
 viewBox="0.00 0.00 1005.00 229.00" xmlns="http://www.w3.org/2000/svg" xmlns:xlink="http://www.w3.org/1999/xlink">
<g id="graph0" class="graph" transform="scale(1 1) rotate(0) translate(4 225)">
<title>com.cliffc.aa.type.TypeMemPtr.depth</title>
<!-- Node1 -->
<g id="node1" class="node">
<title>Node1</title>
<g id="a_node1"><a xlink:title=" ">
<polygon fill="#bfbfbf" stroke="black" points="0,-77 0,-107 154,-107 154,-77 0,-77"/>
<text text-anchor="start" x="8" y="-95" font-family="Helvetica,sans-Serif" font-size="10.00">com.cliffc.aa.type.TypeMem</text>
<text text-anchor="middle" x="77" y="-84" font-family="Helvetica,sans-Serif" font-size="10.00">Ptr.depth</text>
</a>
</g>
</g>
<!-- Node2 -->
<g id="node2" class="node">
<title>Node2</title>
<g id="a_node2"><a xlink:href="../../da/da6/a01522.html#a78cac35958d77be581cdbbe602741b8a" target="_top" xlink:title=" ">
<polygon fill="none" stroke="black" points="190,-164.5 190,-183.5 368,-183.5 368,-164.5 190,-164.5"/>
<text text-anchor="middle" x="279" y="-171.5" font-family="Helvetica,sans-Serif" font-size="10.00">com.cliffc.aa.type.TypeStruct.flds</text>
</a>
</g>
</g>
<!-- Node1&#45;&gt;Node2 -->
<g id="edge1" class="edge">
<title>Node1&#45;&gt;Node2</title>
<path fill="none" stroke="midnightblue" d="M100.18,-107.13C122.1,-121.43 157.04,-142.5 190,-155 196.83,-157.59 204.1,-159.87 211.43,-161.86"/>
<polygon fill="midnightblue" stroke="midnightblue" points="210.85,-165.33 221.41,-164.41 212.58,-158.55 210.85,-165.33"/>
</g>
<!-- Node9 -->
<g id="node9" class="node">
<title>Node9</title>
<g id="a_node9"><a xlink:href="../../d4/d3c/a01418.html#ac56e424c65fd8385bbf4fecea9b603ff" target="_top" xlink:title=" ">
<polygon fill="none" stroke="black" points="200.5,-126.5 200.5,-145.5 357.5,-145.5 357.5,-126.5 200.5,-126.5"/>
<text text-anchor="middle" x="279" y="-133.5" font-family="Helvetica,sans-Serif" font-size="10.00">com.cliffc.aa.type.Bits.getbit</text>
</a>
</g>
</g>
<!-- Node1&#45;&gt;Node9 -->
<g id="edge9" class="edge">
<title>Node1&#45;&gt;Node9</title>
<path fill="none" stroke="midnightblue" d="M146.27,-107.02C171.91,-112.66 200.67,-118.99 224.75,-124.28"/>
<polygon fill="midnightblue" stroke="midnightblue" points="224.24,-127.76 234.76,-126.49 225.75,-120.92 224.24,-127.76"/>
</g>
<!-- Node10 -->
<g id="node10" class="node">
<title>Node10</title>
<g id="a_node10"><a xlink:href="../../d6/d02/a01542.html#ad20d8e8c23d027edf235bd54f85d3ea8" target="_top" xlink:title=" ">
<polygon fill="none" stroke="black" points="215.5,-77 215.5,-107 342.5,-107 342.5,-77 215.5,-77"/>
<text text-anchor="start" x="223.5" y="-95" font-family="Helvetica,sans-Serif" font-size="10.00">com.cliffc.aa.util.Ary.is</text>
<text text-anchor="middle" x="279" y="-84" font-family="Helvetica,sans-Serif" font-size="10.00">Empty</text>
</a>
</g>
</g>
<!-- Node1&#45;&gt;Node10 -->
<g id="edge10" class="edge">
<title>Node1&#45;&gt;Node10</title>
<path fill="none" stroke="midnightblue" d="M154.18,-92C170.91,-92 188.58,-92 205.18,-92"/>
<polygon fill="midnightblue" stroke="midnightblue" points="205.35,-95.5 215.35,-92 205.35,-88.5 205.35,-95.5"/>
</g>
<!-- Node11 -->
<g id="node11" class="node">
<title>Node11</title>
<g id="a_node11"><a xlink:href="../../d6/d02/a01542.html#a1257c8fd935c9bc8235bd2903852dd45" target="_top" xlink:title=" ">
<polygon fill="none" stroke="black" points="210.5,-38.5 210.5,-57.5 347.5,-57.5 347.5,-38.5 210.5,-38.5"/>
<text text-anchor="middle" x="279" y="-45.5" font-family="Helvetica,sans-Serif" font-size="10.00">com.cliffc.aa.util.Ary.pop</text>
</a>
</g>
</g>
<!-- Node1&#45;&gt;Node11 -->
<g id="edge11" class="edge">
<title>Node1&#45;&gt;Node11</title>
<path fill="none" stroke="midnightblue" d="M144.91,-76.99C159.75,-73.68 175.41,-70.2 190,-67 200.87,-64.61 212.5,-62.08 223.63,-59.68"/>
<polygon fill="midnightblue" stroke="midnightblue" points="224.63,-63.04 233.67,-57.51 223.16,-56.2 224.63,-63.04"/>
</g>
<!-- Node12 -->
<g id="node12" class="node">
<title>Node12</title>
<g id="a_node12"><a xlink:href="../../d4/d3c/a01418.html#a465d6b8071232dd55e5c39a056674488" target="_top" xlink:title=" ">
<polygon fill="none" stroke="black" points="205.5,-0.5 205.5,-19.5 352.5,-19.5 352.5,-0.5 205.5,-0.5"/>
<text text-anchor="middle" x="279" y="-7.5" font-family="Helvetica,sans-Serif" font-size="10.00">com.cliffc.aa.type.Bits.test</text>
</a>
</g>
</g>
<!-- Node1&#45;&gt;Node12 -->
<g id="edge12" class="edge">
<title>Node1&#45;&gt;Node12</title>
<path fill="none" stroke="midnightblue" d="M100.18,-76.87C122.1,-62.57 157.04,-41.5 190,-29 196.83,-26.41 204.1,-24.13 211.43,-22.14"/>
<polygon fill="midnightblue" stroke="midnightblue" points="212.58,-25.45 221.41,-19.59 210.85,-18.67 212.58,-25.45"/>
</g>
<!-- Node3 -->
<g id="node3" class="node">
<title>Node3</title>
<g id="a_node3"><a xlink:href="../../d7/dd1/a01458.html#ad2e925fa654f08a044e0bc3fe5adb9ca" target="_top" xlink:title=" ">
<polygon fill="none" stroke="black" points="404,-183.5 404,-202.5 599,-202.5 599,-183.5 404,-183.5"/>
<text text-anchor="middle" x="501.5" y="-190.5" font-family="Helvetica,sans-Serif" font-size="10.00">com.cliffc.aa.type.TypeFld.make_arg</text>
</a>
</g>
</g>
<!-- Node2&#45;&gt;Node3 -->
<g id="edge2" class="edge">
<title>Node2&#45;&gt;Node3</title>
<path fill="none" stroke="midnightblue" d="M368.1,-181.59C376.55,-182.32 385.18,-183.06 393.78,-183.8"/>
<polygon fill="midnightblue" stroke="midnightblue" points="393.59,-187.3 403.85,-184.67 394.19,-180.33 393.59,-187.3"/>
</g>
<!-- Node5 -->
<g id="node5" class="node">
<title>Node5</title>
<g id="a_node5"><a xlink:href="../../d5/d67/a01466.html#aae9c15c127f99a9ce4687428f9150fa5" target="_top" xlink:title=" ">
<polygon fill="none" stroke="black" points="421,-145.5 421,-164.5 582,-164.5 582,-145.5 421,-145.5"/>
<text text-anchor="middle" x="501.5" y="-152.5" font-family="Helvetica,sans-Serif" font-size="10.00">com.cliffc.aa.type.TypeFlds.ts</text>
</a>
</g>
</g>
<!-- Node2&#45;&gt;Node5 -->
<g id="edge5" class="edge">
<title>Node2&#45;&gt;Node5</title>
<path fill="none" stroke="midnightblue" d="M368.1,-166.41C382.09,-165.2 396.59,-163.95 410.62,-162.74"/>
<polygon fill="midnightblue" stroke="midnightblue" points="411.09,-166.22 420.75,-161.87 410.49,-159.24 411.09,-166.22"/>
</g>
<!-- Node4 -->
<g id="node4" class="node">
<title>Node4</title>
<g id="a_node4"><a xlink:href="../../d7/dd1/a01458.html#a68cd98652ac4a01ee6b4dd90bb553dae" target="_top" xlink:title=" ">
<polygon fill="none" stroke="black" points="635,-183.5 635,-202.5 809,-202.5 809,-183.5 635,-183.5"/>
<text text-anchor="middle" x="722" y="-190.5" font-family="Helvetica,sans-Serif" font-size="10.00">com.cliffc.aa.type.TypeFld.make</text>
</a>
</g>
</g>
<!-- Node3&#45;&gt;Node4 -->
<g id="edge3" class="edge">
<title>Node3&#45;&gt;Node4</title>
<path fill="none" stroke="midnightblue" d="M599.29,-193C607.73,-193 616.27,-193 624.71,-193"/>
<polygon fill="midnightblue" stroke="midnightblue" points="624.93,-196.5 634.93,-193 624.93,-189.5 624.93,-196.5"/>
</g>
<!-- Node4&#45;&gt;Node4 -->
<g id="edge4" class="edge">
<title>Node4&#45;&gt;Node4</title>
<path fill="none" stroke="midnightblue" d="M691.48,-202.76C676.64,-211.57 686.81,-221 722,-221 746.74,-221 759.12,-216.34 759.12,-210.5"/>
<polygon fill="midnightblue" stroke="midnightblue" points="761.67,-208.09 752.52,-202.76 756.34,-212.64 761.67,-208.09"/>
</g>
<!-- Node6 -->
<g id="node6" class="node">
<title>Node6</title>
<g id="a_node6"><a xlink:href="../../d5/d67/a01466.html#aa4690362ae6b60d7c29aaba6b6b41dfb" target="_top" xlink:title=" ">
<polygon fill="none" stroke="black" points="638,-145.5 638,-164.5 806,-164.5 806,-145.5 638,-145.5"/>
<text text-anchor="middle" x="722" y="-152.5" font-family="Helvetica,sans-Serif" font-size="10.00">com.cliffc.aa.type.TypeFlds.get</text>
</a>
</g>
</g>
<!-- Node5&#45;&gt;Node6 -->
<g id="edge6" class="edge">
<title>Node5&#45;&gt;Node6</title>
<path fill="none" stroke="midnightblue" d="M582,-155C596.77,-155 612.33,-155 627.48,-155"/>
<polygon fill="midnightblue" stroke="midnightblue" points="627.88,-158.5 637.88,-155 627.88,-151.5 627.88,-158.5"/>
</g>
<!-- Node7 -->
<g id="node7" class="node">
<title>Node7</title>
<g id="a_node7"><a xlink:href="../../d5/d67/a01466.html#a7635be6e4a0ff98f908dbdbe136a11d0" target="_top" xlink:title=" ">
<polygon fill="none" stroke="black" points="636,-107.5 636,-126.5 808,-126.5 808,-107.5 636,-107.5"/>
<text text-anchor="middle" x="722" y="-114.5" font-family="Helvetica,sans-Serif" font-size="10.00">com.cliffc.aa.type.TypeFlds.tary</text>
</a>
</g>
</g>
<!-- Node5&#45;&gt;Node7 -->
<g id="edge7" class="edge">
<title>Node5&#45;&gt;Node7</title>
<path fill="none" stroke="midnightblue" d="M557.35,-145.46C587.35,-140.24 624.7,-133.75 656.14,-128.28"/>
<polygon fill="midnightblue" stroke="midnightblue" points="656.87,-131.71 666.12,-126.54 655.67,-124.81 656.87,-131.71"/>
</g>
<!-- Node8 -->
<g id="node8" class="node">
<title>Node8</title>
<g id="a_node8"><a xlink:href="../../d5/d67/a01466.html#adb7e8e0bcb616710cc42cd7f670936e0" target="_top" xlink:title=" ">
<polygon fill="none" stroke="black" points="845,-102 845,-132 997,-132 997,-102 845,-102"/>
<text text-anchor="start" x="853" y="-120" font-family="Helvetica,sans-Serif" font-size="10.00">com.cliffc.aa.type.TypeFlds.</text>
<text text-anchor="middle" x="921" y="-109" font-family="Helvetica,sans-Serif" font-size="10.00">TypeFlds</text>
</a>
</g>
</g>
<!-- Node7&#45;&gt;Node8 -->
<g id="edge8" class="edge">
<title>Node7&#45;&gt;Node8</title>
<path fill="none" stroke="midnightblue" d="M808.26,-117C817.01,-117 825.89,-117 834.64,-117"/>
<polygon fill="midnightblue" stroke="midnightblue" points="834.82,-120.5 844.82,-117 834.82,-113.5 834.82,-120.5"/>
</g>
</g>
</svg>
