<?xml version="1.0" encoding="UTF-8" standalone="no"?>
<!DOCTYPE svg PUBLIC "-//W3C//DTD SVG 1.1//EN"
 "http://www.w3.org/Graphics/SVG/1.1/DTD/svg11.dtd">
<!-- Generated by graphviz version 2.43.0 (0)
 -->
<!-- Title: com.cliffc.aa.type.TypeMemPtr.make_from Pages: 1 -->
<!--zoomable 189 -->
<svg id="main" version="1.1" xmlns="http://www.w3.org/2000/svg" xmlns:xlink="http://www.w3.org/1999/xlink" xml:space="preserve" onload="init(evt)">
<style type="text/css"><![CDATA[
.edge:hover path { stroke: red; }
.edge:hover polygon { stroke: red; fill: red; }
]]></style>
<script type="text/javascript"><![CDATA[
var edges = document.getElementsByTagName('g');
if (edges && edges.length) {
  for (var i=0;i<edges.length;i++) {
    if (edges[i].id.substr(0,4)=='edge') {
      edges[i].setAttribute('class','edge');
    }
  }
}
]]></script>
        <defs>
                <circle id="rim" cx="0" cy="0" r="7"/>
                <circle id="rim2" cx="0" cy="0" r="3.5"/>
                <g id="zoomPlus">
                        <use xlink:href="#rim" fill="#404040">
                                <set attributeName="fill" to="#808080" begin="zoomplus.mouseover" end="zoomplus.mouseout"/>
                        </use>
                        <path d="M-4,0h8M0,-4v8" fill="none" stroke="white" stroke-width="1.5" pointer-events="none"/>
                </g>
                <g id="zoomMin">
                        <use xlink:href="#rim" fill="#404040">
                                <set attributeName="fill" to="#808080" begin="zoomminus.mouseover" end="zoomminus.mouseout"/>
                        </use>
                        <path d="M-4,0h8" fill="none" stroke="white" stroke-width="1.5" pointer-events="none"/>
                </g>
                <g id="dirArrow">
                        <path fill="none" stroke="white" stroke-width="1.5" d="M0,-3.0v7 M-2.5,-0.5L0,-3.0L2.5,-0.5"/>
                </g>
               <g id="resetDef">
                       <use xlink:href="#rim2" fill="#404040">
                               <set attributeName="fill" to="#808080" begin="reset.mouseover" end="reset.mouseout"/>
                       </use>
               </g>
        </defs>

<script type="text/javascript">
var viewWidth = 1023;
var viewHeight = 189;
var sectionId = 'dynsection-24';
</script>
<script xlink:href="../../svgpan.js"/>
<svg id="graph" class="graph">
<g id="viewport">
<title>com.cliffc.aa.type.TypeMemPtr.make_from</title>
<!-- Node1 -->
<g id="node1" class="node">
<title>Node1</title>
<g id="a_node1"><a xlink:title=" ">
<polygon fill="#bfbfbf" stroke="black" points="0,-89.5 0,-119.5 154,-119.5 154,-89.5 0,-89.5"/>
<text text-anchor="start" x="8" y="-107.5" font-family="Helvetica,sans-Serif" font-size="10.00">com.cliffc.aa.type.TypeMem</text>
<text text-anchor="middle" x="77" y="-96.5" font-family="Helvetica,sans-Serif" font-size="10.00">Ptr.make_from</text>
</a>
</g>
</g>
<!-- Node2 -->
<g id="node2" class="node">
<title>Node2</title>
<g id="a_node2"><a xlink:href="../../d6/d51/a01494.html#a7009b97011ec6a44e45ca6e918f436fe" target="_top" xlink:title=" ">
<polygon fill="none" stroke="black" points="190,-155 190,-174 396,-174 396,-155 190,-155"/>
<text text-anchor="middle" x="293" y="-162" font-family="Helvetica,sans-Serif" font-size="10.00">com.cliffc.aa.type.TypeMem.alias2objs</text>
</a>
</g>
</g>
<!-- Node1&#45;&gt;Node2 -->
<g id="edge1" class="edge">
<title>Node1&#45;&gt;Node2</title>
<path fill="none" stroke="midnightblue" d="M114.32,-119.55C136,-128.08 164.24,-138.44 190,-145.5 200.07,-148.26 210.81,-150.75 221.4,-152.94"/>
<polygon fill="midnightblue" stroke="midnightblue" points="220.99,-156.42 231.48,-154.95 222.36,-149.56 220.99,-156.42"/>
</g>
<!-- Node3 -->
<g id="node3" class="node">
<title>Node3</title>
<g id="a_node3"><a xlink:href="../../d6/d51/a01494.html#ad3077bf21bc4e61636248c2f053d3102" target="_top" xlink:title=" ">
<polygon fill="none" stroke="black" points="210,-117 210,-136 376,-136 376,-117 210,-117"/>
<text text-anchor="middle" x="293" y="-124" font-family="Helvetica,sans-Serif" font-size="10.00">com.cliffc.aa.type.TypeMem.ld</text>
</a>
</g>
</g>
<!-- Node1&#45;&gt;Node3 -->
<g id="edge2" class="edge">
<title>Node1&#45;&gt;Node3</title>
<path fill="none" stroke="midnightblue" d="M154.05,-112.32C168.69,-113.82 184.18,-115.42 199.28,-116.97"/>
<polygon fill="midnightblue" stroke="midnightblue" points="199.35,-120.49 209.66,-118.04 200.07,-113.53 199.35,-120.49"/>
</g>
<!-- Node6 -->
<g id="node6" class="node">
<title>Node6</title>
<g id="a_node6"><a xlink:href="../../d6/dc9/a01498.html#a70196b43b714d1e23390c0b92259c846" target="_top" xlink:title=" ">
<polygon fill="none" stroke="black" points="216,-67.5 216,-97.5 370,-97.5 370,-67.5 216,-67.5"/>
<text text-anchor="start" x="224" y="-85.5" font-family="Helvetica,sans-Serif" font-size="10.00">com.cliffc.aa.type.TypeMem</text>
<text text-anchor="middle" x="293" y="-74.5" font-family="Helvetica,sans-Serif" font-size="10.00">Ptr.make_from</text>
</a>
</g>
</g>
<!-- Node1&#45;&gt;Node6 -->
<g id="edge5" class="edge">
<title>Node1&#45;&gt;Node6</title>
<path fill="none" stroke="midnightblue" d="M154.05,-96.68C170.82,-94.96 188.7,-93.12 205.84,-91.36"/>
<polygon fill="midnightblue" stroke="midnightblue" points="206.24,-94.83 215.83,-90.33 205.53,-87.87 206.24,-94.83"/>
</g>
<!-- Node11 -->
<g id="node11" class="node">
<title>Node11</title>
<g id="a_node11"><a xlink:href="../../d0/de2/a01442.html#aaad9a158d45bc14465701bbecb1f6e57" target="_top" xlink:title=" ">
<polygon fill="none" stroke="black" points="199,-29 199,-48 387,-48 387,-29 199,-29"/>
<text text-anchor="middle" x="293" y="-36" font-family="Helvetica,sans-Serif" font-size="10.00">com.cliffc.aa.type.Type.make_from</text>
</a>
</g>
</g>
<!-- Node1&#45;&gt;Node11 -->
<g id="edge12" class="edge">
<title>Node1&#45;&gt;Node11</title>
<path fill="none" stroke="midnightblue" d="M110.22,-89.29C132.28,-79.37 162.42,-66.78 190,-58.5 200.52,-55.34 211.8,-52.55 222.89,-50.14"/>
<polygon fill="midnightblue" stroke="midnightblue" points="223.92,-53.5 233,-48.03 222.49,-46.65 223.92,-53.5"/>
</g>
<!-- Node4 -->
<g id="node4" class="node">
<title>Node4</title>
<g id="a_node4"><a xlink:href="../../d4/d3c/a01418.html#ae0736bc1a334a231721b5480d07904cf" target="_top" xlink:title=" ">
<polygon fill="none" stroke="black" points="434.5,-161 434.5,-180 583.5,-180 583.5,-161 434.5,-161"/>
<text text-anchor="middle" x="509" y="-168" font-family="Helvetica,sans-Serif" font-size="10.00">com.cliffc.aa.type.Bits.dual</text>
</a>
</g>
</g>
<!-- Node3&#45;&gt;Node4 -->
<g id="edge3" class="edge">
<title>Node3&#45;&gt;Node4</title>
<path fill="none" stroke="midnightblue" d="M347.01,-136.01C362.8,-138.94 380.12,-142.25 396,-145.5 415.94,-149.58 437.79,-154.38 456.87,-158.69"/>
<polygon fill="midnightblue" stroke="midnightblue" points="456.32,-162.15 466.85,-160.95 457.87,-155.32 456.32,-162.15"/>
</g>
<!-- Node5 -->
<g id="node5" class="node">
<title>Node5</title>
<g id="a_node5"><a xlink:href="../../d0/de2/a01442.html#a388429cb6bea455104e3b9690d992854" target="_top" xlink:title=" ">
<polygon fill="none" stroke="black" points="444.5,-111.5 444.5,-141.5 573.5,-141.5 573.5,-111.5 444.5,-111.5"/>
<text text-anchor="start" x="452.5" y="-129.5" font-family="Helvetica,sans-Serif" font-size="10.00">com.cliffc.aa.type.Type</text>
<text text-anchor="middle" x="509" y="-118.5" font-family="Helvetica,sans-Serif" font-size="10.00">&lt; TypeMem &gt;::oob</text>
</a>
</g>
</g>
<!-- Node3&#45;&gt;Node5 -->
<g id="edge4" class="edge">
<title>Node3&#45;&gt;Node5</title>
<path fill="none" stroke="midnightblue" d="M376.13,-126.5C395.22,-126.5 415.43,-126.5 434.15,-126.5"/>
<polygon fill="midnightblue" stroke="midnightblue" points="434.37,-130 444.37,-126.5 434.37,-123 434.37,-130"/>
</g>
<!-- Node7 -->
<g id="node7" class="node">
<title>Node7</title>
<g id="a_node7"><a xlink:href="../../d6/dc9/a01498.html#adeddf1e33c774f9440baf7aac978c090" target="_top" xlink:title=" ">
<polygon fill="none" stroke="black" points="432,-62.5 432,-92.5 586,-92.5 586,-62.5 432,-62.5"/>
<text text-anchor="start" x="440" y="-80.5" font-family="Helvetica,sans-Serif" font-size="10.00">com.cliffc.aa.type.TypeMem</text>
<text text-anchor="middle" x="509" y="-69.5" font-family="Helvetica,sans-Serif" font-size="10.00">Ptr.make</text>
</a>
</g>
</g>
<!-- Node6&#45;&gt;Node7 -->
<g id="edge6" class="edge">
<title>Node6&#45;&gt;Node7</title>
<path fill="none" stroke="midnightblue" d="M370.05,-80.72C386.67,-80.33 404.37,-79.92 421.36,-79.52"/>
<polygon fill="midnightblue" stroke="midnightblue" points="421.92,-83.01 431.83,-79.28 421.75,-76.01 421.92,-83.01"/>
</g>
<!-- Node8 -->
<g id="node8" class="node">
<title>Node8</title>
<g id="a_node8"><a xlink:href="../../d6/dc9/a01498.html#a94802666db7385c4c783eb72318ab0f1" target="_top" xlink:title=" ">
<polygon fill="none" stroke="black" points="861,-50.5 861,-80.5 1015,-80.5 1015,-50.5 861,-50.5"/>
<text text-anchor="start" x="869" y="-68.5" font-family="Helvetica,sans-Serif" font-size="10.00">com.cliffc.aa.type.TypeMem</text>
<text text-anchor="middle" x="938" y="-57.5" font-family="Helvetica,sans-Serif" font-size="10.00">Ptr.aliases</text>
</a>
</g>
</g>
<!-- Node7&#45;&gt;Node8 -->
<g id="edge7" class="edge">
<title>Node7&#45;&gt;Node8</title>
<path fill="none" stroke="midnightblue" d="M586.3,-92.2C598.21,-93.99 610.4,-95.52 622,-96.5 711.9,-104.07 735.6,-108.64 825,-96.5 844.49,-93.85 865.37,-88.73 883.77,-83.39"/>
<polygon fill="midnightblue" stroke="midnightblue" points="884.84,-86.73 893.42,-80.51 882.84,-80.02 884.84,-86.73"/>
</g>
<!-- Node9 -->
<g id="node9" class="node">
<title>Node9</title>
<g id="a_node9"><a xlink:href="../../d0/de2/a01442.html#a8fe8d556e45e6b654f3ac87f118ac8de" target="_top" xlink:title=" ">
<polygon fill="none" stroke="black" points="622,-68 622,-87 825,-87 825,-68 622,-68"/>
<text text-anchor="middle" x="723.5" y="-75" font-family="Helvetica,sans-Serif" font-size="10.00">com.cliffc.aa.type.Type.hashcons_free</text>
</a>
</g>
</g>
<!-- Node7&#45;&gt;Node9 -->
<g id="edge8" class="edge">
<title>Node7&#45;&gt;Node9</title>
<path fill="none" stroke="midnightblue" d="M586.12,-77.5C594.42,-77.5 602.99,-77.5 611.6,-77.5"/>
<polygon fill="midnightblue" stroke="midnightblue" points="611.72,-81 621.72,-77.5 611.72,-74 611.72,-81"/>
</g>
<!-- Node10 -->
<g id="node10" class="node">
<title>Node10</title>
<g id="a_node10"><a xlink:href="../../d6/dc9/a01498.html#aa1396c13d18c04018679f2e0fa1ff76c" target="_top" xlink:title=" ">
<polygon fill="none" stroke="black" points="646.5,-0.5 646.5,-30.5 800.5,-30.5 800.5,-0.5 646.5,-0.5"/>
<text text-anchor="start" x="654.5" y="-18.5" font-family="Helvetica,sans-Serif" font-size="10.00">com.cliffc.aa.type.TypeMem</text>
<text text-anchor="middle" x="723.5" y="-7.5" font-family="Helvetica,sans-Serif" font-size="10.00">Ptr.init</text>
</a>
</g>
</g>
<!-- Node7&#45;&gt;Node10 -->
<g id="edge9" class="edge">
<title>Node7&#45;&gt;Node10</title>
<path fill="none" stroke="midnightblue" d="M561.44,-62.49C591.37,-53.76 629.28,-42.7 660.8,-33.5"/>
<polygon fill="midnightblue" stroke="midnightblue" points="662.18,-36.75 670.8,-30.59 660.22,-30.03 662.18,-36.75"/>
</g>
<!-- Node10&#45;&gt;Node8 -->
<g id="edge10" class="edge">
<title>Node10&#45;&gt;Node8</title>
<path fill="none" stroke="midnightblue" d="M788.26,-30.5C811.79,-36.04 838.65,-42.36 863.01,-48.09"/>
<polygon fill="midnightblue" stroke="midnightblue" points="862.39,-51.54 872.92,-50.42 863.99,-44.73 862.39,-51.54"/>
</g>
<!-- Node10&#45;&gt;Node10 -->
<g id="edge11" class="edge">
<title>Node10&#45;&gt;Node10</title>
<path fill="none" stroke="midnightblue" d="M686.21,-30.66C677.21,-40.06 689.64,-49 723.5,-49 744.13,-49 756.81,-45.68 761.53,-40.96"/>
<polygon fill="midnightblue" stroke="midnightblue" points="764.99,-40.39 760.79,-30.66 758.01,-40.88 764.99,-40.39"/>
</g>
</g>
</svg>
        <g id="navigator" transform="translate(0 0)" fill="#404254">
                <rect fill="#f2f5e9" fill-opacity="0.5" stroke="#606060" stroke-width=".5" x="0" y="0" width="60" height="60"/>
                <use id="zoomplus" xlink:href="#zoomPlus" x="17" y="9" onmousedown="handleZoom(evt,'in')"/>
                <use id="zoomminus" xlink:href="#zoomMin" x="42" y="9" onmousedown="handleZoom(evt,'out')"/>
                <use id="reset" xlink:href="#resetDef" x="30" y="36" onmousedown="handleReset()"/>
                <g id="arrowUp" xlink:href="#dirArrow" transform="translate(30 24)" onmousedown="handlePan(0,-1)">
                  <use xlink:href="#rim" fill="#404040">
                        <set attributeName="fill" to="#808080" begin="arrowUp.mouseover" end="arrowUp.mouseout"/>
                  </use>
                  <path fill="none" stroke="white" stroke-width="1.5" d="M0,-3.0v7 M-2.5,-0.5L0,-3.0L2.5,-0.5"/>
                </g>
                <g id="arrowRight" xlink:href="#dirArrow" transform="rotate(90) translate(36 -43)" onmousedown="handlePan(1,0)">
                  <use xlink:href="#rim" fill="#404040">
                        <set attributeName="fill" to="#808080" begin="arrowRight.mouseover" end="arrowRight.mouseout"/>
                  </use>
                  <path fill="none" stroke="white" stroke-width="1.5" d="M0,-3.0v7 M-2.5,-0.5L0,-3.0L2.5,-0.5"/>
                </g>
                <g id="arrowDown" xlink:href="#dirArrow" transform="rotate(180) translate(-30 -48)" onmousedown="handlePan(0,1)">
                  <use xlink:href="#rim" fill="#404040">
                        <set attributeName="fill" to="#808080" begin="arrowDown.mouseover" end="arrowDown.mouseout"/>
                  </use>
                  <path fill="none" stroke="white" stroke-width="1.5" d="M0,-3.0v7 M-2.5,-0.5L0,-3.0L2.5,-0.5"/>
                </g>
                <g id="arrowLeft" xlink:href="#dirArrow" transform="rotate(270) translate(-36 17)" onmousedown="handlePan(-1,0)">
                  <use xlink:href="#rim" fill="#404040">
                        <set attributeName="fill" to="#808080" begin="arrowLeft.mouseover" end="arrowLeft.mouseout"/>
                  </use>
                  <path fill="none" stroke="white" stroke-width="1.5" d="M0,-3.0v7 M-2.5,-0.5L0,-3.0L2.5,-0.5"/>
                </g>
        </g>
        <svg viewBox="0 0 15 15" width="100%" height="30px" preserveAspectRatio="xMaxYMin meet">
         <g id="arrow_out" transform="scale(0.3 0.3)">
          <a xlink:href="a01498_a71de69091f1f82284201aecf50553a7c_cgraph_org.svg" target="_base">
           <rect id="button" ry="5" rx="5" y="6" x="6" height="38" width="38"
                fill="#f2f5e9" fill-opacity="0.5" stroke="#606060" stroke-width="1.0"/>
           <path id="arrow"
             d="M 11.500037,31.436501 C 11.940474,20.09759 22.043105,11.32322 32.158766,21.979434 L 37.068811,17.246167 C 37.068811,17.246167 37.088388,32 37.088388,32 L 22.160133,31.978069 C 22.160133,31.978069 26.997745,27.140456 26.997745,27.140456 C 18.528582,18.264221 13.291696,25.230495 11.500037,31.436501 z"
             style="fill:#404040;"/>
          </a>
         </g>
        </svg>
</svg>
