<?xml version="1.0" encoding="UTF-8" standalone="no"?>
<!DOCTYPE svg PUBLIC "-//W3C//DTD SVG 1.1//EN"
 "http://www.w3.org/Graphics/SVG/1.1/DTD/svg11.dtd">
<!-- Generated by graphviz version 2.43.0 (0)
 -->
<!-- Title: com.cliffc.aa.type.TypeMemPtr.simple_ptr Pages: 1 -->
<svg width="1085pt" height="266pt"
 viewBox="0.00 0.00 1085.00 265.50" xmlns="http://www.w3.org/2000/svg" xmlns:xlink="http://www.w3.org/1999/xlink">
<g id="graph0" class="graph" transform="scale(1 1) rotate(0) translate(4 261.5)">
<title>com.cliffc.aa.type.TypeMemPtr.simple_ptr</title>
<!-- Node1 -->
<g id="node1" class="node">
<title>Node1</title>
<g id="a_node1"><a xlink:title=" ">
<polygon fill="#bfbfbf" stroke="black" points="923,-122.5 923,-152.5 1077,-152.5 1077,-122.5 923,-122.5"/>
<text text-anchor="start" x="931" y="-140.5" font-family="Helvetica,sans-Serif" font-size="10.00">com.cliffc.aa.type.TypeMem</text>
<text text-anchor="middle" x="1000" y="-129.5" font-family="Helvetica,sans-Serif" font-size="10.00">Ptr.simple_ptr</text>
</a>
</g>
</g>
<!-- Node2 -->
<g id="node2" class="node">
<title>Node2</title>
<g id="a_node2"><a xlink:href="../../d6/d51/a01494.html#a51b44578cd9dbeb3f2d28ea77ccf3e71" target="_top" xlink:title=" ">
<polygon fill="none" stroke="black" points="455,-216 455,-235 651,-235 651,-216 455,-216"/>
<text text-anchor="middle" x="553" y="-223" font-family="Helvetica,sans-Serif" font-size="10.00">com.cliffc.aa.type.TypeMem.sharpen</text>
</a>
</g>
</g>
<!-- Node1&#45;&gt;Node2 -->
<g id="edge1" class="edge">
<title>Node1&#45;&gt;Node2</title>
<path fill="none" stroke="midnightblue" d="M979.11,-160.12C958.55,-181.65 924.26,-212.61 887,-225.5 790.16,-258.99 667.78,-246.11 601.65,-235.01"/>
<polygon fill="midnightblue" stroke="midnightblue" points="981.8,-162.37 986.05,-152.67 976.68,-157.6 981.8,-162.37"/>
</g>
<!-- Node7 -->
<g id="node7" class="node">
<title>Node7</title>
<g id="a_node7"><a xlink:href="../../da/da6/a01522.html#a4bbd63c992371486c0953c125b3598f3" target="_top" xlink:title=" ">
<polygon fill="none" stroke="black" points="687,-197 687,-216 887,-216 887,-197 687,-197"/>
<text text-anchor="middle" x="787" y="-204" font-family="Helvetica,sans-Serif" font-size="10.00">com.cliffc.aa.type.TypeStruct.sharpen</text>
</a>
</g>
</g>
<!-- Node1&#45;&gt;Node7 -->
<g id="edge7" class="edge">
<title>Node1&#45;&gt;Node7</title>
<path fill="none" stroke="midnightblue" d="M959.95,-157.04C938.78,-166.99 911.92,-178.63 887,-186.5 873.87,-190.64 859.49,-194.13 845.85,-196.97"/>
<polygon fill="midnightblue" stroke="midnightblue" points="961.73,-160.06 969.25,-152.6 958.72,-153.75 961.73,-160.06"/>
</g>
<!-- Node8 -->
<g id="node8" class="node">
<title>Node8</title>
<g id="a_node8"><a xlink:href="../../db/d7f/a01718.html#a8a139f05733ab330be9b591f80c96bfb" target="_top" xlink:title=" ">
<polygon fill="none" stroke="black" points="696,-147.5 696,-177.5 878,-177.5 878,-147.5 696,-147.5"/>
<text text-anchor="start" x="704" y="-165.5" font-family="Helvetica,sans-Serif" font-size="10.00">com.cliffc.aa.type.TestApprox.test</text>
<text text-anchor="middle" x="787" y="-154.5" font-family="Helvetica,sans-Serif" font-size="10.00">Approx8</text>
</a>
</g>
</g>
<!-- Node1&#45;&gt;Node8 -->
<g id="edge9" class="edge">
<title>Node1&#45;&gt;Node8</title>
<path fill="none" stroke="midnightblue" d="M912.85,-147.71C901.38,-149.07 889.6,-150.46 878.08,-151.83"/>
<polygon fill="midnightblue" stroke="midnightblue" points="913.31,-151.18 922.82,-146.53 912.48,-144.23 913.31,-151.18"/>
</g>
<!-- Node9 -->
<g id="node9" class="node">
<title>Node9</title>
<g id="a_node9"><a xlink:href="../../d4/d8e/a01694.html#a748f31e379da5dfc94d28eafe1e5f18d" target="_top" xlink:title="Validate monotonicity of CallNode.resolve().">
<polygon fill="none" stroke="black" points="710,-98.5 710,-128.5 864,-128.5 864,-98.5 710,-98.5"/>
<text text-anchor="start" x="718" y="-116.5" font-family="Helvetica,sans-Serif" font-size="10.00">com.cliffc.aa.node.TestNode</text>
<text text-anchor="middle" x="787" y="-105.5" font-family="Helvetica,sans-Serif" font-size="10.00">Small.testCallNodeResolve</text>
</a>
</g>
</g>
<!-- Node1&#45;&gt;Node9 -->
<g id="edge10" class="edge">
<title>Node1&#45;&gt;Node9</title>
<path fill="none" stroke="midnightblue" d="M912.85,-127.7C896.69,-125.86 879.9,-123.95 864.06,-122.15"/>
<polygon fill="midnightblue" stroke="midnightblue" points="912.49,-131.18 922.82,-128.84 913.28,-124.23 912.49,-131.18"/>
</g>
<!-- Node10 -->
<g id="node10" class="node">
<title>Node10</title>
<g id="a_node10"><a xlink:href="../../d4/d8e/a01694.html#a5348bc687a77cb15570f88cd5a12dabe" target="_top" xlink:title=" ">
<polygon fill="none" stroke="black" points="709.5,-49.5 709.5,-79.5 864.5,-79.5 864.5,-49.5 709.5,-49.5"/>
<text text-anchor="start" x="717.5" y="-67.5" font-family="Helvetica,sans-Serif" font-size="10.00">com.cliffc.aa.node.TestNode</text>
<text text-anchor="middle" x="787" y="-56.5" font-family="Helvetica,sans-Serif" font-size="10.00">Small.testCallNodeResolve2</text>
</a>
</g>
</g>
<!-- Node1&#45;&gt;Node10 -->
<g id="edge11" class="edge">
<title>Node1&#45;&gt;Node10</title>
<path fill="none" stroke="midnightblue" d="M958.92,-117.93C937.86,-108.18 911.42,-96.73 887,-88.5 877.36,-85.25 867.06,-82.25 856.88,-79.55"/>
<polygon fill="midnightblue" stroke="midnightblue" points="957.66,-121.2 968.2,-122.28 960.63,-114.87 957.66,-121.2"/>
</g>
<!-- Node11 -->
<g id="node11" class="node">
<title>Node11</title>
<g id="a_node11"><a xlink:href="../../d4/d8e/a01694.html#acbdb74fbcbcaeb125e773a9efb441d41" target="_top" xlink:title=" ">
<polygon fill="none" stroke="black" points="710,-0.5 710,-30.5 864,-30.5 864,-0.5 710,-0.5"/>
<text text-anchor="start" x="718" y="-18.5" font-family="Helvetica,sans-Serif" font-size="10.00">com.cliffc.aa.node.TestNode</text>
<text text-anchor="middle" x="787" y="-7.5" font-family="Helvetica,sans-Serif" font-size="10.00">Small.testMemoryArgs</text>
</a>
</g>
</g>
<!-- Node1&#45;&gt;Node11 -->
<g id="edge12" class="edge">
<title>Node1&#45;&gt;Node11</title>
<path fill="none" stroke="midnightblue" d="M979.44,-114.95C958.71,-92.48 923.93,-58.65 887,-39.5 879.86,-35.8 872.12,-32.65 864.24,-29.98"/>
<polygon fill="midnightblue" stroke="midnightblue" points="976.86,-117.31 986.16,-122.38 982.05,-112.61 976.86,-117.31"/>
</g>
<!-- Node3 -->
<g id="node3" class="node">
<title>Node3</title>
<g id="a_node3"><a xlink:href="../../d6/d51/a01494.html#ae434c7b538095991a82c26e058b2bed3" target="_top" xlink:title=" ">
<polygon fill="none" stroke="black" points="228,-238 228,-257 419,-257 419,-238 228,-238"/>
<text text-anchor="middle" x="323.5" y="-245" font-family="Helvetica,sans-Serif" font-size="10.00">com.cliffc.aa.type.TypeMem.sharptr</text>
</a>
</g>
</g>
<!-- Node2&#45;&gt;Node3 -->
<g id="edge2" class="edge">
<title>Node2&#45;&gt;Node3</title>
<path fill="none" stroke="midnightblue" d="M444.83,-235.86C436.25,-236.69 427.63,-237.53 419.15,-238.35"/>
<polygon fill="midnightblue" stroke="midnightblue" points="445.24,-239.34 454.86,-234.89 444.57,-232.37 445.24,-239.34"/>
</g>
<!-- Node6 -->
<g id="node6" class="node">
<title>Node6</title>
<g id="a_node6"><a xlink:href="../../d6/d9a/a01710.html#a065e03a5090218b4a23e51ee69e99249" target="_top" xlink:title=" ">
<polygon fill="none" stroke="black" points="249,-188.5 249,-218.5 398,-218.5 398,-188.5 249,-188.5"/>
<text text-anchor="start" x="257" y="-206.5" font-family="Helvetica,sans-Serif" font-size="10.00">com.cliffc.aa.TestParse.test</text>
<text text-anchor="middle" x="323.5" y="-195.5" font-family="Helvetica,sans-Serif" font-size="10.00">Parse07</text>
</a>
</g>
</g>
<!-- Node2&#45;&gt;Node6 -->
<g id="edge6" class="edge">
<title>Node2&#45;&gt;Node6</title>
<path fill="none" stroke="midnightblue" d="M444.59,-215.11C428.91,-213.6 413.07,-212.06 398.26,-210.63"/>
<polygon fill="midnightblue" stroke="midnightblue" points="444.57,-218.63 454.86,-216.11 445.24,-211.66 444.57,-218.63"/>
</g>
<!-- Node4 -->
<g id="node4" class="node">
<title>Node4</title>
<g id="a_node4"><a xlink:href="../../d7/d90/a01530.html#acb83167a9887d8a9b8f47c6d965c0f6b" target="_top" xlink:title=" ">
<polygon fill="none" stroke="black" points="0,-238 0,-257 192,-257 192,-238 0,-238"/>
<text text-anchor="middle" x="96" y="-245" font-family="Helvetica,sans-Serif" font-size="10.00">com.cliffc.aa.type.TypeTuple.sharptr</text>
</a>
</g>
</g>
<!-- Node3&#45;&gt;Node4 -->
<g id="edge3" class="edge">
<title>Node3&#45;&gt;Node4</title>
<path fill="none" stroke="midnightblue" d="M217.83,-240.77C209.26,-240.73 200.63,-240.75 192.13,-240.82"/>
<polygon fill="midnightblue" stroke="midnightblue" points="217.83,-244.27 227.85,-240.83 217.87,-237.27 217.83,-244.27"/>
</g>
<!-- Node5 -->
<g id="node5" class="node">
<title>Node5</title>
<g id="a_node5"><a xlink:href="../../d0/de2/a01442.html#a73035500b9adc5f4821408e88177f1c7" target="_top" xlink:title=" ">
<polygon fill="none" stroke="black" points="31.5,-188.5 31.5,-218.5 160.5,-218.5 160.5,-188.5 31.5,-188.5"/>
<text text-anchor="start" x="39.5" y="-206.5" font-family="Helvetica,sans-Serif" font-size="10.00">com.cliffc.aa.type.Type</text>
<text text-anchor="middle" x="96" y="-195.5" font-family="Helvetica,sans-Serif" font-size="10.00">&lt; TypeFlt &gt;::sharptr</text>
</a>
</g>
</g>
<!-- Node3&#45;&gt;Node5 -->
<g id="edge5" class="edge">
<title>Node3&#45;&gt;Node5</title>
<path fill="none" stroke="midnightblue" d="M263.6,-236.01C232.04,-229.85 193.12,-222.25 160.83,-215.96"/>
<polygon fill="midnightblue" stroke="midnightblue" points="263.08,-239.47 273.57,-237.95 264.43,-232.6 263.08,-239.47"/>
</g>
<!-- Node4&#45;&gt;Node3 -->
<g id="edge4" class="edge">
<title>Node4&#45;&gt;Node3</title>
<path fill="none" stroke="midnightblue" d="M202.16,-254.24C210.73,-254.27 219.36,-254.25 227.85,-254.17"/>
<polygon fill="midnightblue" stroke="midnightblue" points="202.15,-250.74 192.13,-254.18 202.11,-257.74 202.15,-250.74"/>
</g>
<!-- Node7&#45;&gt;Node2 -->
<g id="edge8" class="edge">
<title>Node7&#45;&gt;Node2</title>
<path fill="none" stroke="midnightblue" d="M676.92,-215.43C668.35,-216.14 659.73,-216.84 651.25,-217.54"/>
<polygon fill="midnightblue" stroke="midnightblue" points="677.26,-218.92 686.94,-214.61 676.69,-211.94 677.26,-218.92"/>
</g>
</g>
</svg>
