<?xml version="1.0" encoding="UTF-8" standalone="no"?>
<!DOCTYPE svg PUBLIC "-//W3C//DTD SVG 1.1//EN"
 "http://www.w3.org/Graphics/SVG/1.1/DTD/svg11.dtd">
<!-- Generated by graphviz version 2.43.0 (0)
 -->
<!-- Title: com.cliffc.aa.type.TypeMemPtr.not_nil Pages: 1 -->
<!--zoomable 112 -->
<svg id="main" version="1.1" xmlns="http://www.w3.org/2000/svg" xmlns:xlink="http://www.w3.org/1999/xlink" xml:space="preserve" onload="init(evt)">
<style type="text/css"><![CDATA[
.edge:hover path { stroke: red; }
.edge:hover polygon { stroke: red; fill: red; }
]]></style>
<script type="text/javascript"><![CDATA[
var edges = document.getElementsByTagName('g');
if (edges && edges.length) {
  for (var i=0;i<edges.length;i++) {
    if (edges[i].id.substr(0,4)=='edge') {
      edges[i].setAttribute('class','edge');
    }
  }
}
]]></script>
        <defs>
                <circle id="rim" cx="0" cy="0" r="7"/>
                <circle id="rim2" cx="0" cy="0" r="3.5"/>
                <g id="zoomPlus">
                        <use xlink:href="#rim" fill="#404040">
                                <set attributeName="fill" to="#808080" begin="zoomplus.mouseover" end="zoomplus.mouseout"/>
                        </use>
                        <path d="M-4,0h8M0,-4v8" fill="none" stroke="white" stroke-width="1.5" pointer-events="none"/>
                </g>
                <g id="zoomMin">
                        <use xlink:href="#rim" fill="#404040">
                                <set attributeName="fill" to="#808080" begin="zoomminus.mouseover" end="zoomminus.mouseout"/>
                        </use>
                        <path d="M-4,0h8" fill="none" stroke="white" stroke-width="1.5" pointer-events="none"/>
                </g>
                <g id="dirArrow">
                        <path fill="none" stroke="white" stroke-width="1.5" d="M0,-3.0v7 M-2.5,-0.5L0,-3.0L2.5,-0.5"/>
                </g>
               <g id="resetDef">
                       <use xlink:href="#rim2" fill="#404040">
                               <set attributeName="fill" to="#808080" begin="reset.mouseover" end="reset.mouseout"/>
                       </use>
               </g>
        </defs>

<script type="text/javascript">
var viewWidth = 788;
var viewHeight = 112;
var sectionId = 'dynsection-36';
</script>
<script xlink:href="../../svgpan.js"/>
<svg id="graph" class="graph">
<g id="viewport">
<title>com.cliffc.aa.type.TypeMemPtr.not_nil</title>
<!-- Node1 -->
<g id="node1" class="node">
<title>Node1</title>
<g id="a_node1"><a xlink:title=" ">
<polygon fill="#bfbfbf" stroke="black" points="0,-40.5 0,-70.5 154,-70.5 154,-40.5 0,-40.5"/>
<text text-anchor="start" x="8" y="-58.5" font-family="Helvetica,sans-Serif" font-size="10.00">com.cliffc.aa.type.TypeMem</text>
<text text-anchor="middle" x="77" y="-47.5" font-family="Helvetica,sans-Serif" font-size="10.00">Ptr.not_nil</text>
</a>
</g>
</g>
<!-- Node2 -->
<g id="node2" class="node">
<title>Node2</title>
<g id="a_node2"><a xlink:href="../../d6/dc9/a01498.html#adeddf1e33c774f9440baf7aac978c090" target="_top" xlink:title=" ">
<polygon fill="none" stroke="black" points="193.5,-62.5 193.5,-92.5 347.5,-92.5 347.5,-62.5 193.5,-62.5"/>
<text text-anchor="start" x="201.5" y="-80.5" font-family="Helvetica,sans-Serif" font-size="10.00">com.cliffc.aa.type.TypeMem</text>
<text text-anchor="middle" x="270.5" y="-69.5" font-family="Helvetica,sans-Serif" font-size="10.00">Ptr.make</text>
</a>
</g>
</g>
<!-- Node1&#45;&gt;Node2 -->
<g id="edge1" class="edge">
<title>Node1&#45;&gt;Node2</title>
<path fill="none" stroke="midnightblue" d="M154.24,-64.26C163.76,-65.35 173.55,-66.48 183.21,-67.59"/>
<polygon fill="midnightblue" stroke="midnightblue" points="182.88,-71.07 193.21,-68.74 183.68,-64.12 182.88,-71.07"/>
</g>
<!-- Node6 -->
<g id="node6" class="node">
<title>Node6</title>
<g id="a_node6"><a xlink:href="../../d4/d3c/a01418.html#a8878ed5b6b183ccf8d2ff43b1584a8af" target="_top" xlink:title=" ">
<polygon fill="none" stroke="black" points="190,-24 190,-43 351,-43 351,-24 190,-24"/>
<text text-anchor="middle" x="270.5" y="-31" font-family="Helvetica,sans-Serif" font-size="10.00">com.cliffc.aa.type.Bits.not_nil</text>
</a>
</g>
</g>
<!-- Node1&#45;&gt;Node6 -->
<g id="edge7" class="edge">
<title>Node1&#45;&gt;Node6</title>
<path fill="none" stroke="midnightblue" d="M154.24,-46.74C162.63,-45.78 171.24,-44.79 179.78,-43.81"/>
<polygon fill="midnightblue" stroke="midnightblue" points="180.22,-47.28 189.76,-42.66 179.43,-40.33 180.22,-47.28"/>
</g>
<!-- Node3 -->
<g id="node3" class="node">
<title>Node3</title>
<g id="a_node3"><a xlink:href="../../d6/dc9/a01498.html#a94802666db7385c4c783eb72318ab0f1" target="_top" xlink:title=" ">
<polygon fill="none" stroke="black" points="626,-50.5 626,-80.5 780,-80.5 780,-50.5 626,-50.5"/>
<text text-anchor="start" x="634" y="-68.5" font-family="Helvetica,sans-Serif" font-size="10.00">com.cliffc.aa.type.TypeMem</text>
<text text-anchor="middle" x="703" y="-57.5" font-family="Helvetica,sans-Serif" font-size="10.00">Ptr.aliases</text>
</a>
</g>
</g>
<!-- Node2&#45;&gt;Node3 -->
<g id="edge2" class="edge">
<title>Node2&#45;&gt;Node3</title>
<path fill="none" stroke="midnightblue" d="M347.7,-91.84C360.77,-93.78 374.24,-95.46 387,-96.5 476.92,-103.85 500.6,-108.64 590,-96.5 609.49,-93.85 630.37,-88.73 648.77,-83.39"/>
<polygon fill="midnightblue" stroke="midnightblue" points="649.84,-86.73 658.42,-80.51 647.84,-80.02 649.84,-86.73"/>
</g>
<!-- Node4 -->
<g id="node4" class="node">
<title>Node4</title>
<g id="a_node4"><a xlink:href="../../d0/de2/a01442.html#a8fe8d556e45e6b654f3ac87f118ac8de" target="_top" xlink:title=" ">
<polygon fill="none" stroke="black" points="387,-68 387,-87 590,-87 590,-68 387,-68"/>
<text text-anchor="middle" x="488.5" y="-75" font-family="Helvetica,sans-Serif" font-size="10.00">com.cliffc.aa.type.Type.hashcons_free</text>
</a>
</g>
</g>
<!-- Node2&#45;&gt;Node4 -->
<g id="edge3" class="edge">
<title>Node2&#45;&gt;Node4</title>
<path fill="none" stroke="midnightblue" d="M347.65,-77.5C357.03,-77.5 366.76,-77.5 376.51,-77.5"/>
<polygon fill="midnightblue" stroke="midnightblue" points="376.68,-81 386.68,-77.5 376.68,-74 376.68,-81"/>
</g>
<!-- Node5 -->
<g id="node5" class="node">
<title>Node5</title>
<g id="a_node5"><a xlink:href="../../d6/dc9/a01498.html#aa1396c13d18c04018679f2e0fa1ff76c" target="_top" xlink:title=" ">
<polygon fill="none" stroke="black" points="411.5,-0.5 411.5,-30.5 565.5,-30.5 565.5,-0.5 411.5,-0.5"/>
<text text-anchor="start" x="419.5" y="-18.5" font-family="Helvetica,sans-Serif" font-size="10.00">com.cliffc.aa.type.TypeMem</text>
<text text-anchor="middle" x="488.5" y="-7.5" font-family="Helvetica,sans-Serif" font-size="10.00">Ptr.init</text>
</a>
</g>
</g>
<!-- Node2&#45;&gt;Node5 -->
<g id="edge4" class="edge">
<title>Node2&#45;&gt;Node5</title>
<path fill="none" stroke="midnightblue" d="M323.79,-62.49C354.34,-53.72 393.08,-42.6 425.2,-33.38"/>
<polygon fill="midnightblue" stroke="midnightblue" points="426.3,-36.71 434.95,-30.59 424.37,-29.98 426.3,-36.71"/>
</g>
<!-- Node5&#45;&gt;Node3 -->
<g id="edge5" class="edge">
<title>Node5&#45;&gt;Node3</title>
<path fill="none" stroke="midnightblue" d="M553.26,-30.5C576.79,-36.04 603.65,-42.36 628.01,-48.09"/>
<polygon fill="midnightblue" stroke="midnightblue" points="627.39,-51.54 637.92,-50.42 628.99,-44.73 627.39,-51.54"/>
</g>
<!-- Node5&#45;&gt;Node5 -->
<g id="edge6" class="edge">
<title>Node5&#45;&gt;Node5</title>
<path fill="none" stroke="midnightblue" d="M451.21,-30.66C442.21,-40.06 454.64,-49 488.5,-49 509.13,-49 521.81,-45.68 526.53,-40.96"/>
<polygon fill="midnightblue" stroke="midnightblue" points="529.99,-40.39 525.79,-30.66 523.01,-40.88 529.99,-40.39"/>
</g>
</g>
</svg>
        <g id="navigator" transform="translate(0 0)" fill="#404254">
                <rect fill="#f2f5e9" fill-opacity="0.5" stroke="#606060" stroke-width=".5" x="0" y="0" width="60" height="60"/>
                <use id="zoomplus" xlink:href="#zoomPlus" x="17" y="9" onmousedown="handleZoom(evt,'in')"/>
                <use id="zoomminus" xlink:href="#zoomMin" x="42" y="9" onmousedown="handleZoom(evt,'out')"/>
                <use id="reset" xlink:href="#resetDef" x="30" y="36" onmousedown="handleReset()"/>
                <g id="arrowUp" xlink:href="#dirArrow" transform="translate(30 24)" onmousedown="handlePan(0,-1)">
                  <use xlink:href="#rim" fill="#404040">
                        <set attributeName="fill" to="#808080" begin="arrowUp.mouseover" end="arrowUp.mouseout"/>
                  </use>
                  <path fill="none" stroke="white" stroke-width="1.5" d="M0,-3.0v7 M-2.5,-0.5L0,-3.0L2.5,-0.5"/>
                </g>
                <g id="arrowRight" xlink:href="#dirArrow" transform="rotate(90) translate(36 -43)" onmousedown="handlePan(1,0)">
                  <use xlink:href="#rim" fill="#404040">
                        <set attributeName="fill" to="#808080" begin="arrowRight.mouseover" end="arrowRight.mouseout"/>
                  </use>
                  <path fill="none" stroke="white" stroke-width="1.5" d="M0,-3.0v7 M-2.5,-0.5L0,-3.0L2.5,-0.5"/>
                </g>
                <g id="arrowDown" xlink:href="#dirArrow" transform="rotate(180) translate(-30 -48)" onmousedown="handlePan(0,1)">
                  <use xlink:href="#rim" fill="#404040">
                        <set attributeName="fill" to="#808080" begin="arrowDown.mouseover" end="arrowDown.mouseout"/>
                  </use>
                  <path fill="none" stroke="white" stroke-width="1.5" d="M0,-3.0v7 M-2.5,-0.5L0,-3.0L2.5,-0.5"/>
                </g>
                <g id="arrowLeft" xlink:href="#dirArrow" transform="rotate(270) translate(-36 17)" onmousedown="handlePan(-1,0)">
                  <use xlink:href="#rim" fill="#404040">
                        <set attributeName="fill" to="#808080" begin="arrowLeft.mouseover" end="arrowLeft.mouseout"/>
                  </use>
                  <path fill="none" stroke="white" stroke-width="1.5" d="M0,-3.0v7 M-2.5,-0.5L0,-3.0L2.5,-0.5"/>
                </g>
        </g>
        <svg viewBox="0 0 15 15" width="100%" height="30px" preserveAspectRatio="xMaxYMin meet">
         <g id="arrow_out" transform="scale(0.3 0.3)">
          <a xlink:href="a01498_ab17ac6202bc464d4d05f39b887da53c4_cgraph_org.svg" target="_base">
           <rect id="button" ry="5" rx="5" y="6" x="6" height="38" width="38"
                fill="#f2f5e9" fill-opacity="0.5" stroke="#606060" stroke-width="1.0"/>
           <path id="arrow"
             d="M 11.500037,31.436501 C 11.940474,20.09759 22.043105,11.32322 32.158766,21.979434 L 37.068811,17.246167 C 37.068811,17.246167 37.088388,32 37.088388,32 L 22.160133,31.978069 C 22.160133,31.978069 26.997745,27.140456 26.997745,27.140456 C 18.528582,18.264221 13.291696,25.230495 11.500037,31.436501 z"
             style="fill:#404040;"/>
          </a>
         </g>
        </svg>
</svg>
