<?xml version="1.0" encoding="UTF-8" standalone="no"?>
<!DOCTYPE svg PUBLIC "-//W3C//DTD SVG 1.1//EN"
 "http://www.w3.org/Graphics/SVG/1.1/DTD/svg11.dtd">
<!-- Generated by graphviz version 2.43.0 (0)
 -->
<!-- Title: com.cliffc.aa.type.TypeFld Pages: 1 -->
<svg width="152pt" height="241pt"
 viewBox="0.00 0.00 152.00 241.00" xmlns="http://www.w3.org/2000/svg" xmlns:xlink="http://www.w3.org/1999/xlink">
<g id="graph0" class="graph" transform="scale(1 1) rotate(0) translate(4 237)">
<title>com.cliffc.aa.type.TypeFld</title>
<!-- Node1 -->
<g id="node1" class="node">
<title>Node1</title>
<g id="a_node1"><a xlink:title=" ">
<polygon fill="#bfbfbf" stroke="black" points="0,-0.5 0,-19.5 144,-19.5 144,-0.5 0,-0.5"/>
<text text-anchor="middle" x="72" y="-7.5" font-family="Helvetica,sans-Serif" font-size="10.00">com.cliffc.aa.type.TypeFld</text>
</a>
</g>
</g>
<!-- Node2 -->
<g id="node2" class="node">
<title>Node2</title>
<g id="a_node2"><a xlink:href="../../d0/de2/a01442.html" target="_top" xlink:title=" ">
<polygon fill="none" stroke="black" points="7.5,-57.5 7.5,-87.5 136.5,-87.5 136.5,-57.5 7.5,-57.5"/>
<text text-anchor="start" x="15.5" y="-75.5" font-family="Helvetica,sans-Serif" font-size="10.00">com.cliffc.aa.type.Type</text>
<text text-anchor="middle" x="72" y="-64.5" font-family="Helvetica,sans-Serif" font-size="10.00">&lt; TypeFld &gt;</text>
</a>
</g>
</g>
<!-- Node2&#45;&gt;Node1 -->
<g id="edge1" class="edge">
<title>Node2&#45;&gt;Node1</title>
<path fill="none" stroke="midnightblue" d="M72,-47.35C72,-37.51 72,-26.78 72,-19.54"/>
<polygon fill="midnightblue" stroke="midnightblue" points="68.5,-47.47 72,-57.47 75.5,-47.47 68.5,-47.47"/>
</g>
<!-- Node3 -->
<g id="node3" class="node">
<title>Node3</title>
<g id="a_node3"><a xlink:href="../../d0/de2/a01442.html" target="_top" xlink:title="an implementation of language AA">
<polygon fill="none" stroke="black" points="7,-135.5 7,-165.5 137,-165.5 137,-135.5 7,-135.5"/>
<text text-anchor="start" x="15" y="-153.5" font-family="Helvetica,sans-Serif" font-size="10.00">com.cliffc.aa.type.Type</text>
<text text-anchor="middle" x="72" y="-142.5" font-family="Helvetica,sans-Serif" font-size="10.00">&lt; T extends Type&lt; T &gt;</text>
</a>
</g>
</g>
<!-- Node3&#45;&gt;Node2 -->
<g id="edge2" class="edge">
<title>Node3&#45;&gt;Node2</title>
<path fill="none" stroke="orange" stroke-dasharray="5,2" d="M72,-125.09C72,-112.76 72,-98.22 72,-87.73"/>
<polygon fill="orange" stroke="orange" points="68.5,-125.2 72,-135.2 75.5,-125.21 68.5,-125.2"/>
<text text-anchor="middle" x="104" y="-109" font-family="Helvetica,sans-Serif" font-size="10.00"> &lt; TypeFld &gt;</text>
</g>
<!-- Node4 -->
<g id="node4" class="node">
<title>Node4</title>
<g id="a_node4"><a xlink:href="../../d9/d76/a02526.html" target="_top" xlink:title=" ">
<polygon fill="none" stroke="black" points="0.5,-213.5 0.5,-232.5 65.5,-232.5 65.5,-213.5 0.5,-213.5"/>
<text text-anchor="middle" x="33" y="-220.5" font-family="Helvetica,sans-Serif" font-size="10.00">Cloneable</text>
</a>
</g>
</g>
<!-- Node4&#45;&gt;Node3 -->
<g id="edge3" class="edge">
<title>Node4&#45;&gt;Node3</title>
<path fill="none" stroke="midnightblue" d="M42.78,-204.32C49.41,-192.34 58.05,-176.72 64.21,-165.58"/>
<polygon fill="midnightblue" stroke="midnightblue" points="39.56,-202.91 37.78,-213.36 45.69,-206.3 39.56,-202.91"/>
</g>
<!-- Node5 -->
<g id="node5" class="node">
<title>Node5</title>
<g id="a_node5"><a xlink:href="../../d7/df2/a02322.html" target="_top" xlink:title=" ">
<polygon fill="none" stroke="black" points="84,-213.5 84,-232.5 140,-232.5 140,-213.5 84,-213.5"/>
<text text-anchor="middle" x="112" y="-220.5" font-family="Helvetica,sans-Serif" font-size="10.00">Type&lt; T</text>
</a>
</g>
</g>
<!-- Node5&#45;&gt;Node3 -->
<g id="edge4" class="edge">
<title>Node5&#45;&gt;Node3</title>
<path fill="none" stroke="orange" stroke-dasharray="5,2" d="M101.97,-204.32C95.17,-192.34 86.31,-176.72 79.99,-165.58"/>
<polygon fill="orange" stroke="orange" points="99.12,-206.38 107.1,-213.36 105.2,-202.93 99.12,-206.38"/>
<text text-anchor="middle" x="100" y="-187" font-family="Helvetica,sans-Serif" font-size="10.00"> T</text>
</g>
</g>
</svg>
