<?xml version="1.0" encoding="UTF-8" standalone="no"?>
<!DOCTYPE svg PUBLIC "-//W3C//DTD SVG 1.1//EN"
 "http://www.w3.org/Graphics/SVG/1.1/DTD/svg11.dtd">
<!-- Generated by graphviz version 2.43.0 (0)
 -->
<!-- Title: com.cliffc.aa.HM.HM8.T2.dbl_uid Pages: 1 -->
<svg width="1006pt" height="1624pt"
 viewBox="0.00 0.00 1006.00 1624.00" xmlns="http://www.w3.org/2000/svg" xmlns:xlink="http://www.w3.org/1999/xlink">
<g id="graph0" class="graph" transform="scale(1 1) rotate(0) translate(4 1620)">
<title>com.cliffc.aa.HM.HM8.T2.dbl_uid</title>
<!-- Node1 -->
<g id="node1" class="node">
<title>Node1</title>
<g id="a_node1"><a xlink:title=" ">
<polygon fill="#bfbfbf" stroke="black" points="821,-399.5 821,-418.5 998,-418.5 998,-399.5 821,-399.5"/>
<text text-anchor="middle" x="909.5" y="-406.5" font-family="Helvetica,sans-Serif" font-size="10.00">com.cliffc.aa.HM.HM8.T2.dbl_uid</text>
</a>
</g>
</g>
<!-- Node2 -->
<g id="node2" class="node">
<title>Node2</title>
<g id="a_node2"><a xlink:href="../../d2/dab/a00886.html#ab2a78fa8e3739bc6931baaf547d2af69" target="_top" xlink:title=" ">
<polygon fill="none" stroke="black" points="643,-394 643,-424 785,-424 785,-394 643,-394"/>
<text text-anchor="start" x="651" y="-412" font-family="Helvetica,sans-Serif" font-size="10.00">com.cliffc.aa.HM.HM8.T2.</text>
<text text-anchor="middle" x="714" y="-401" font-family="Helvetica,sans-Serif" font-size="10.00">_unify</text>
</a>
</g>
</g>
<!-- Node1&#45;&gt;Node2 -->
<g id="edge1" class="edge">
<title>Node1&#45;&gt;Node2</title>
<path fill="none" stroke="midnightblue" d="M810.74,-409C802.15,-409 793.58,-409 785.29,-409"/>
<polygon fill="midnightblue" stroke="midnightblue" points="810.81,-412.5 820.81,-409 810.81,-405.5 810.81,-412.5"/>
</g>
<!-- Node2&#45;&gt;Node2 -->
<g id="edge8" class="edge">
<title>Node2&#45;&gt;Node2</title>
<path fill="none" stroke="midnightblue" d="M747.76,-434.46C743.57,-439.18 732.32,-442.5 714,-442.5 683.94,-442.5 672.9,-433.56 680.89,-424.16"/>
<polygon fill="midnightblue" stroke="midnightblue" points="751.23,-433.92 747.11,-424.16 744.25,-434.36 751.23,-433.92"/>
</g>
<!-- Node3 -->
<g id="node3" class="node">
<title>Node3</title>
<g id="a_node3"><a xlink:href="../../d2/dab/a00886.html#a42d179359b73a92a91af99f4201dc266" target="_top" xlink:title=" ">
<polygon fill="none" stroke="black" points="453,-1238 453,-1268 595,-1268 595,-1238 453,-1238"/>
<text text-anchor="start" x="461" y="-1256" font-family="Helvetica,sans-Serif" font-size="10.00">com.cliffc.aa.HM.HM8.T2.</text>
<text text-anchor="middle" x="524" y="-1245" font-family="Helvetica,sans-Serif" font-size="10.00">_fresh_unify</text>
</a>
</g>
</g>
<!-- Node2&#45;&gt;Node3 -->
<g id="edge2" class="edge">
<title>Node2&#45;&gt;Node3</title>
<path fill="none" stroke="midnightblue" d="M707.43,-433.99C679.03,-561.48 550.76,-1137.36 528.35,-1237.98"/>
<polygon fill="midnightblue" stroke="midnightblue" points="710.9,-434.53 709.66,-424.01 704.07,-433.01 710.9,-434.53"/>
</g>
<!-- Node7 -->
<g id="node7" class="node">
<title>Node7</title>
<g id="a_node7"><a xlink:href="../../d2/dab/a00886.html#a0b34aa7a325386621bb26dc4b87d34d7" target="_top" xlink:title=" ">
<polygon fill="none" stroke="black" points="441,-399.5 441,-418.5 607,-418.5 607,-399.5 441,-399.5"/>
<text text-anchor="middle" x="524" y="-406.5" font-family="Helvetica,sans-Serif" font-size="10.00">com.cliffc.aa.HM.HM8.T2.unify</text>
</a>
</g>
</g>
<!-- Node2&#45;&gt;Node7 -->
<g id="edge9" class="edge">
<title>Node2&#45;&gt;Node7</title>
<path fill="none" stroke="midnightblue" d="M632.74,-409C624.26,-409 615.62,-409 607.12,-409"/>
<polygon fill="midnightblue" stroke="midnightblue" points="633,-412.5 643,-409 633,-405.5 633,-412.5"/>
</g>
<!-- Node3&#45;&gt;Node3 -->
<g id="edge3" class="edge">
<title>Node3&#45;&gt;Node3</title>
<path fill="none" stroke="midnightblue" d="M557.76,-1278.46C553.57,-1283.18 542.32,-1286.5 524,-1286.5 493.94,-1286.5 482.9,-1277.56 490.89,-1268.16"/>
<polygon fill="midnightblue" stroke="midnightblue" points="561.23,-1277.92 557.11,-1268.16 554.25,-1278.36 561.23,-1277.92"/>
</g>
<!-- Node4 -->
<g id="node4" class="node">
<title>Node4</title>
<g id="a_node4"><a xlink:href="../../d2/dab/a00886.html#a3760f58860b0750baa5b9692a595c3d3" target="_top" xlink:title=" ">
<polygon fill="none" stroke="black" points="241,-1263 241,-1293 383,-1293 383,-1263 241,-1263"/>
<text text-anchor="start" x="249" y="-1281" font-family="Helvetica,sans-Serif" font-size="10.00">com.cliffc.aa.HM.HM8.T2.</text>
<text text-anchor="middle" x="312" y="-1270" font-family="Helvetica,sans-Serif" font-size="10.00">_fresh_unify_struct</text>
</a>
</g>
</g>
<!-- Node3&#45;&gt;Node4 -->
<g id="edge4" class="edge">
<title>Node3&#45;&gt;Node4</title>
<path fill="none" stroke="midnightblue" d="M442.66,-1255.98C423.05,-1258.04 402.24,-1260.58 383.15,-1263.24"/>
<polygon fill="midnightblue" stroke="midnightblue" points="443.19,-1259.45 452.78,-1254.95 442.48,-1252.48 443.19,-1259.45"/>
</g>
<!-- Node5 -->
<g id="node5" class="node">
<title>Node5</title>
<g id="a_node5"><a xlink:href="../../d2/dab/a00886.html#a153785fa4177dddd26be94dec818f0d0" target="_top" xlink:title=" ">
<polygon fill="none" stroke="black" points="228.5,-1214 228.5,-1244 395.5,-1244 395.5,-1214 228.5,-1214"/>
<text text-anchor="start" x="236.5" y="-1232" font-family="Helvetica,sans-Serif" font-size="10.00">com.cliffc.aa.HM.HM8.T2.fresh</text>
<text text-anchor="middle" x="312" y="-1221" font-family="Helvetica,sans-Serif" font-size="10.00">_unify</text>
</a>
</g>
</g>
<!-- Node3&#45;&gt;Node5 -->
<g id="edge6" class="edge">
<title>Node3&#45;&gt;Node5</title>
<path fill="none" stroke="midnightblue" d="M442.74,-1243.83C427.28,-1242.06 411.05,-1240.21 395.52,-1238.43"/>
<polygon fill="midnightblue" stroke="midnightblue" points="442.45,-1247.32 452.78,-1244.97 443.24,-1240.36 442.45,-1247.32"/>
</g>
<!-- Node4&#45;&gt;Node3 -->
<g id="edge5" class="edge">
<title>Node4&#45;&gt;Node3</title>
<path fill="none" stroke="midnightblue" d="M393.28,-1275.02C412.87,-1272.96 433.69,-1270.43 452.78,-1267.77"/>
<polygon fill="midnightblue" stroke="midnightblue" points="392.75,-1271.56 383.15,-1276.06 393.46,-1278.52 392.75,-1271.56"/>
</g>
<!-- Node6 -->
<g id="node6" class="node">
<title>Node6</title>
<g id="a_node6"><a xlink:href="../../dc/d41/a00862.html#a54dc1f9763e231adc830fc4a89498072" target="_top" xlink:title=" ">
<polygon fill="none" stroke="black" points="6.5,-1596.5 6.5,-1615.5 176.5,-1615.5 176.5,-1596.5 6.5,-1596.5"/>
<text text-anchor="middle" x="91.5" y="-1603.5" font-family="Helvetica,sans-Serif" font-size="10.00">com.cliffc.aa.HM.HM8.Ident.hm</text>
</a>
</g>
</g>
<!-- Node5&#45;&gt;Node6 -->
<g id="edge7" class="edge">
<title>Node5&#45;&gt;Node6</title>
<path fill="none" stroke="midnightblue" d="M222.17,-1250.62C221.06,-1251.69 220.01,-1252.82 219,-1254 122.35,-1367.22 282.91,-1476.65 183,-1587 179.66,-1590.69 175.8,-1593.76 171.6,-1596.32"/>
<polygon fill="midnightblue" stroke="midnightblue" points="224.48,-1253.24 230.03,-1244.22 220.06,-1247.81 224.48,-1253.24"/>
</g>
<!-- Node8 -->
<g id="node8" class="node">
<title>Node8</title>
<g id="a_node8"><a xlink:href="../../d2/dc7/a00838.html#a8dae36cd95e1b3366f39bc73478546b5" target="_top" xlink:title=" ">
<polygon fill="none" stroke="black" points="240.5,-779.5 240.5,-798.5 383.5,-798.5 383.5,-779.5 240.5,-779.5"/>
<text text-anchor="middle" x="312" y="-786.5" font-family="Helvetica,sans-Serif" font-size="10.00">com.cliffc.aa.HM.HM8.hm</text>
</a>
</g>
</g>
<!-- Node7&#45;&gt;Node8 -->
<g id="edge10" class="edge">
<title>Node7&#45;&gt;Node8</title>
<path fill="none" stroke="midnightblue" d="M512.75,-427.54C475.27,-495.38 346.31,-728.73 318.37,-779.29"/>
<polygon fill="midnightblue" stroke="midnightblue" points="515.82,-429.22 517.6,-418.78 509.7,-425.83 515.82,-429.22"/>
</g>
<!-- Node50 -->
<g id="node50" class="node">
<title>Node50</title>
<g id="a_node50"><a xlink:href="../../dd/db2/a00866.html#aa141b441782beb536aaf8338accc0e88" target="_top" xlink:title=" ">
<polygon fill="none" stroke="black" points="219.5,-475.5 219.5,-494.5 404.5,-494.5 404.5,-475.5 219.5,-475.5"/>
<text text-anchor="middle" x="312" y="-482.5" font-family="Helvetica,sans-Serif" font-size="10.00">com.cliffc.aa.HM.HM8.Lambda.hm</text>
</a>
</g>
</g>
<!-- Node7&#45;&gt;Node50 -->
<g id="edge52" class="edge">
<title>Node7&#45;&gt;Node50</title>
<path fill="none" stroke="midnightblue" d="M497.45,-423.63C474.05,-436.46 438.14,-454.77 405,-466 394.03,-469.72 382.07,-472.83 370.51,-475.4"/>
<polygon fill="midnightblue" stroke="midnightblue" points="499.32,-426.59 506.36,-418.67 495.92,-420.47 499.32,-426.59"/>
</g>
<!-- Node51 -->
<g id="node51" class="node">
<title>Node51</title>
<g id="a_node51"><a xlink:href="../../da/d98/a00870.html#a8391288ddd1785c1c6f5f2f88b6c3d4a" target="_top" xlink:title=" ">
<polygon fill="none" stroke="black" points="231.5,-437.5 231.5,-456.5 392.5,-456.5 392.5,-437.5 231.5,-437.5"/>
<text text-anchor="middle" x="312" y="-444.5" font-family="Helvetica,sans-Serif" font-size="10.00">com.cliffc.aa.HM.HM8.Let.hm</text>
</a>
</g>
</g>
<!-- Node7&#45;&gt;Node51 -->
<g id="edge53" class="edge">
<title>Node7&#45;&gt;Node51</title>
<path fill="none" stroke="midnightblue" d="M460.29,-420.35C430.16,-425.8 394.45,-432.26 365.74,-437.46"/>
<polygon fill="midnightblue" stroke="midnightblue" points="461.06,-423.76 470.28,-418.54 459.82,-416.88 461.06,-423.76"/>
</g>
<!-- Node52 -->
<g id="node52" class="node">
<title>Node52</title>
<g id="a_node52"><a xlink:href="../../df/d2a/a00874.html#a4d1273321bdfd1b78aead0738159c826" target="_top" xlink:title=" ">
<polygon fill="none" stroke="black" points="226,-399.5 226,-418.5 398,-418.5 398,-399.5 226,-399.5"/>
<text text-anchor="middle" x="312" y="-406.5" font-family="Helvetica,sans-Serif" font-size="10.00">com.cliffc.aa.HM.HM8.Apply.hm</text>
</a>
</g>
</g>
<!-- Node7&#45;&gt;Node52 -->
<g id="edge54" class="edge">
<title>Node7&#45;&gt;Node52</title>
<path fill="none" stroke="midnightblue" d="M430.62,-409C419.82,-409 408.85,-409 398.15,-409"/>
<polygon fill="midnightblue" stroke="midnightblue" points="430.91,-412.5 440.91,-409 430.91,-405.5 430.91,-412.5"/>
</g>
<!-- Node53 -->
<g id="node53" class="node">
<title>Node53</title>
<g id="a_node53"><a xlink:href="../../d5/d69/a00878.html#a2d3430d26abf6fc606eeb261434fa317" target="_top" xlink:title=" ">
<polygon fill="none" stroke="black" points="4.5,-0.5 4.5,-19.5 178.5,-19.5 178.5,-0.5 4.5,-0.5"/>
<text text-anchor="middle" x="91.5" y="-7.5" font-family="Helvetica,sans-Serif" font-size="10.00">com.cliffc.aa.HM.HM8.Struct.hm</text>
</a>
</g>
</g>
<!-- Node7&#45;&gt;Node53 -->
<g id="edge55" class="edge">
<title>Node7&#45;&gt;Node53</title>
<path fill="none" stroke="midnightblue" d="M457.58,-397.73C369.46,-382.4 223.08,-356.39 219,-352 120.73,-246.14 280.12,-135.92 183,-29 179.65,-25.32 175.79,-22.25 171.59,-19.69"/>
<polygon fill="midnightblue" stroke="midnightblue" points="457.04,-401.19 467.5,-399.45 458.24,-394.29 457.04,-401.19"/>
</g>
<!-- Node54 -->
<g id="node54" class="node">
<title>Node54</title>
<g id="a_node54"><a xlink:href="../../d3/d50/a00882.html#ac0e3f965e4c188d05cba63dc50a47caa" target="_top" xlink:title=" ">
<polygon fill="none" stroke="black" points="227.5,-323.5 227.5,-342.5 396.5,-342.5 396.5,-323.5 227.5,-323.5"/>
<text text-anchor="middle" x="312" y="-330.5" font-family="Helvetica,sans-Serif" font-size="10.00">com.cliffc.aa.HM.HM8.Field.hm</text>
</a>
</g>
</g>
<!-- Node7&#45;&gt;Node54 -->
<g id="edge56" class="edge">
<title>Node7&#45;&gt;Node54</title>
<path fill="none" stroke="midnightblue" d="M494.68,-394.98C471.09,-383.69 436.4,-367.94 405,-357 389.1,-351.46 371.26,-346.53 355.56,-342.59"/>
<polygon fill="midnightblue" stroke="midnightblue" points="493.23,-398.17 503.76,-399.38 496.28,-391.87 493.23,-398.17"/>
</g>
<!-- Node55 -->
<g id="node55" class="node">
<title>Node55</title>
<g id="a_node55"><a xlink:href="../../d2/dab/a00886.html#aa8323c84048a695257e7b5b079d3e8e7" target="_top" xlink:title=" ">
<polygon fill="none" stroke="black" points="219,-285.5 219,-304.5 405,-304.5 405,-285.5 219,-285.5"/>
<text text-anchor="middle" x="312" y="-292.5" font-family="Helvetica,sans-Serif" font-size="10.00">com.cliffc.aa.HM.HM8.T2.unify_rec</text>
</a>
</g>
</g>
<!-- Node7&#45;&gt;Node55 -->
<g id="edge57" class="edge">
<title>Node7&#45;&gt;Node55</title>
<path fill="none" stroke="midnightblue" d="M501.08,-393.3C484.31,-381.08 460.78,-363.48 441,-347 424.32,-333.11 424.32,-323.88 405,-314 397.45,-310.14 389.17,-307.06 380.77,-304.61"/>
<polygon fill="midnightblue" stroke="midnightblue" points="499.49,-396.46 509.64,-399.49 503.59,-390.79 499.49,-396.46"/>
</g>
<!-- Node9 -->
<g id="node9" class="node">
<title>Node9</title>
<g id="a_node9"><a xlink:href="../../dd/d08/a01682.html#a329fb9971685d262835df96e4137aede" target="_top" xlink:title=" ">
<polygon fill="none" stroke="black" points="3,-1558.5 3,-1577.5 180,-1577.5 180,-1558.5 3,-1558.5"/>
<text text-anchor="middle" x="91.5" y="-1565.5" font-family="Helvetica,sans-Serif" font-size="10.00">com.cliffc.aa.HM.TestHM8.test00</text>
</a>
</g>
</g>
<!-- Node8&#45;&gt;Node9 -->
<g id="edge11" class="edge">
<title>Node8&#45;&gt;Node9</title>
<path fill="none" stroke="midnightblue" d="M305.87,-808.45C290.46,-867.58 244.06,-1050.67 219,-1205 206.68,-1280.87 234.49,-1491.93 183,-1549 179.67,-1552.7 175.81,-1555.77 171.61,-1558.33"/>
<polygon fill="midnightblue" stroke="midnightblue" points="309.3,-809.16 308.45,-798.6 302.53,-807.38 309.3,-809.16"/>
</g>
<!-- Node10 -->
<g id="node10" class="node">
<title>Node10</title>
<g id="a_node10"><a xlink:href="../../dd/d08/a01682.html#abe93f174e6f029c06f20ce506807856a" target="_top" xlink:title=" ">
<polygon fill="none" stroke="black" points="3,-1520.5 3,-1539.5 180,-1539.5 180,-1520.5 3,-1520.5"/>
<text text-anchor="middle" x="91.5" y="-1527.5" font-family="Helvetica,sans-Serif" font-size="10.00">com.cliffc.aa.HM.TestHM8.test01</text>
</a>
</g>
</g>
<!-- Node8&#45;&gt;Node10 -->
<g id="edge12" class="edge">
<title>Node8&#45;&gt;Node10</title>
<path fill="none" stroke="midnightblue" d="M305.96,-808.46C290.8,-867.64 245.05,-1050.84 219,-1205 207.59,-1272.51 229.19,-1460.46 183,-1511 179.64,-1514.67 175.77,-1517.74 171.56,-1520.28"/>
<polygon fill="midnightblue" stroke="midnightblue" points="309.4,-809.16 308.5,-798.6 302.62,-807.42 309.4,-809.16"/>
</g>
<!-- Node11 -->
<g id="node11" class="node">
<title>Node11</title>
<g id="a_node11"><a xlink:href="../../dd/d08/a01682.html#af675867f783eee5fbefee7f6695f7096" target="_top" xlink:title=" ">
<polygon fill="none" stroke="black" points="3,-1482.5 3,-1501.5 180,-1501.5 180,-1482.5 3,-1482.5"/>
<text text-anchor="middle" x="91.5" y="-1489.5" font-family="Helvetica,sans-Serif" font-size="10.00">com.cliffc.aa.HM.TestHM8.test02</text>
</a>
</g>
</g>
<!-- Node8&#45;&gt;Node11 -->
<g id="edge13" class="edge">
<title>Node8&#45;&gt;Node11</title>
<path fill="none" stroke="midnightblue" d="M306.08,-808.48C291.24,-867.72 246.31,-1051.05 219,-1205 208.5,-1264.17 223.9,-1428.98 183,-1473 179.5,-1476.76 175.47,-1479.88 171.08,-1482.46"/>
<polygon fill="midnightblue" stroke="midnightblue" points="309.51,-809.17 308.56,-798.61 302.73,-807.46 309.51,-809.17"/>
</g>
<!-- Node12 -->
<g id="node12" class="node">
<title>Node12</title>
<g id="a_node12"><a xlink:href="../../dd/d08/a01682.html#afdd9a64680f928d9977a2373223218a4" target="_top" xlink:title=" ">
<polygon fill="none" stroke="black" points="3,-1444.5 3,-1463.5 180,-1463.5 180,-1444.5 3,-1444.5"/>
<text text-anchor="middle" x="91.5" y="-1451.5" font-family="Helvetica,sans-Serif" font-size="10.00">com.cliffc.aa.HM.TestHM8.test03</text>
</a>
</g>
</g>
<!-- Node8&#45;&gt;Node12 -->
<g id="edge14" class="edge">
<title>Node8&#45;&gt;Node12</title>
<path fill="none" stroke="midnightblue" d="M306.23,-808.51C291.83,-867.82 247.98,-1051.36 219,-1205 209.41,-1255.84 218.62,-1397.49 183,-1435 179.46,-1438.73 175.4,-1441.82 170.99,-1444.37"/>
<polygon fill="midnightblue" stroke="midnightblue" points="309.67,-809.17 308.64,-798.63 302.87,-807.52 309.67,-809.17"/>
</g>
<!-- Node13 -->
<g id="node13" class="node">
<title>Node13</title>
<g id="a_node13"><a xlink:href="../../dd/d08/a01682.html#a8f2b8385d05945be50a67accc481aa71" target="_top" xlink:title=" ">
<polygon fill="none" stroke="black" points="3,-1406.5 3,-1425.5 180,-1425.5 180,-1406.5 3,-1406.5"/>
<text text-anchor="middle" x="91.5" y="-1413.5" font-family="Helvetica,sans-Serif" font-size="10.00">com.cliffc.aa.HM.TestHM8.test04</text>
</a>
</g>
</g>
<!-- Node8&#45;&gt;Node13 -->
<g id="edge15" class="edge">
<title>Node8&#45;&gt;Node13</title>
<path fill="none" stroke="midnightblue" d="M306.44,-808.55C292.63,-867.98 250.29,-1051.81 219,-1205 201.62,-1290.06 243.72,-1334.95 183,-1397 179.29,-1400.79 175.04,-1403.91 170.44,-1406.49"/>
<polygon fill="midnightblue" stroke="midnightblue" points="309.89,-809.18 308.74,-798.65 303.07,-807.6 309.89,-809.18"/>
</g>
<!-- Node14 -->
<g id="node14" class="node">
<title>Node14</title>
<g id="a_node14"><a xlink:href="../../dd/d08/a01682.html#aac2d6b7eeb7671f57443b4ac14274617" target="_top" xlink:title=" ">
<polygon fill="none" stroke="black" points="3,-1368.5 3,-1387.5 180,-1387.5 180,-1368.5 3,-1368.5"/>
<text text-anchor="middle" x="91.5" y="-1375.5" font-family="Helvetica,sans-Serif" font-size="10.00">com.cliffc.aa.HM.TestHM8.test05</text>
</a>
</g>
</g>
<!-- Node8&#45;&gt;Node14 -->
<g id="edge16" class="edge">
<title>Node8&#45;&gt;Node14</title>
<path fill="none" stroke="midnightblue" d="M306.61,-808.87C284.43,-909.3 185.56,-1356.47 183,-1359 179.23,-1362.72 174.92,-1365.8 170.29,-1368.33"/>
<polygon fill="midnightblue" stroke="midnightblue" points="310.09,-809.36 308.83,-798.85 303.25,-807.86 310.09,-809.36"/>
</g>
<!-- Node15 -->
<g id="node15" class="node">
<title>Node15</title>
<g id="a_node15"><a xlink:href="../../dd/d08/a01682.html#aa971b826f7bb61a70e22a354111b2c58" target="_top" xlink:title=" ">
<polygon fill="none" stroke="black" points="0,-1330.5 0,-1349.5 183,-1349.5 183,-1330.5 0,-1330.5"/>
<text text-anchor="middle" x="91.5" y="-1337.5" font-family="Helvetica,sans-Serif" font-size="10.00">com.cliffc.aa.HM.TestHM8.test05a</text>
</a>
</g>
</g>
<!-- Node8&#45;&gt;Node15 -->
<g id="edge17" class="edge">
<title>Node8&#45;&gt;Node15</title>
<path fill="none" stroke="midnightblue" d="M306.88,-808.66C287.13,-902.64 202.24,-1302.32 183,-1321 179.08,-1324.8 174.61,-1327.93 169.8,-1330.5"/>
<polygon fill="midnightblue" stroke="midnightblue" points="310.33,-809.27 308.96,-798.76 303.48,-807.83 310.33,-809.27"/>
</g>
<!-- Node16 -->
<g id="node16" class="node">
<title>Node16</title>
<g id="a_node16"><a xlink:href="../../dd/d08/a01682.html#a66db5f88cf972a2b662063509d0afca7" target="_top" xlink:title=" ">
<polygon fill="none" stroke="black" points="3,-1292.5 3,-1311.5 180,-1311.5 180,-1292.5 3,-1292.5"/>
<text text-anchor="middle" x="91.5" y="-1299.5" font-family="Helvetica,sans-Serif" font-size="10.00">com.cliffc.aa.HM.TestHM8.test06</text>
</a>
</g>
</g>
<!-- Node8&#45;&gt;Node16 -->
<g id="edge18" class="edge">
<title>Node8&#45;&gt;Node16</title>
<path fill="none" stroke="midnightblue" d="M307.22,-808.42C290.08,-895.67 218.92,-1248.72 183,-1283 179.05,-1286.77 174.56,-1289.87 169.73,-1292.42"/>
<polygon fill="midnightblue" stroke="midnightblue" points="310.67,-809.01 309.16,-798.53 303.8,-807.67 310.67,-809.01"/>
</g>
<!-- Node17 -->
<g id="node17" class="node">
<title>Node17</title>
<g id="a_node17"><a xlink:href="../../dd/d08/a01682.html#aaae2ea11b06aee2b387ddfab65d53434" target="_top" xlink:title=" ">
<polygon fill="none" stroke="black" points="3,-1254.5 3,-1273.5 180,-1273.5 180,-1254.5 3,-1254.5"/>
<text text-anchor="middle" x="91.5" y="-1261.5" font-family="Helvetica,sans-Serif" font-size="10.00">com.cliffc.aa.HM.TestHM8.test07</text>
</a>
</g>
</g>
<!-- Node8&#45;&gt;Node17 -->
<g id="edge19" class="edge">
<title>Node8&#45;&gt;Node17</title>
<path fill="none" stroke="midnightblue" d="M308.22,-808.62C296.59,-887.86 249.39,-1182.9 183,-1245 179.01,-1248.73 174.49,-1251.8 169.64,-1254.33"/>
<polygon fill="midnightblue" stroke="midnightblue" points="311.71,-808.95 309.67,-798.55 304.78,-807.95 311.71,-808.95"/>
</g>
<!-- Node18 -->
<g id="node18" class="node">
<title>Node18</title>
<g id="a_node18"><a xlink:href="../../dd/d08/a01682.html#ad39cda572f5da2e044d749c70b8094f8" target="_top" xlink:title=" ">
<polygon fill="none" stroke="black" points="3,-1216.5 3,-1235.5 180,-1235.5 180,-1216.5 3,-1216.5"/>
<text text-anchor="middle" x="91.5" y="-1223.5" font-family="Helvetica,sans-Serif" font-size="10.00">com.cliffc.aa.HM.TestHM8.test08</text>
</a>
</g>
</g>
<!-- Node8&#45;&gt;Node18 -->
<g id="edge20" class="edge">
<title>Node8&#45;&gt;Node18</title>
<path fill="none" stroke="midnightblue" d="M311.47,-808.76C311.91,-875.83 303.77,-1096.67 183,-1207 178.85,-1210.79 174.15,-1213.9 169.11,-1216.44"/>
<polygon fill="midnightblue" stroke="midnightblue" points="314.97,-808.67 311.33,-798.72 307.97,-808.77 314.97,-808.67"/>
</g>
<!-- Node19 -->
<g id="node19" class="node">
<title>Node19</title>
<g id="a_node19"><a xlink:href="../../dd/d08/a01682.html#a0f8330ab4748a5fcda0f8a6e7c5a0bec" target="_top" xlink:title=" ">
<polygon fill="none" stroke="black" points="3,-1178.5 3,-1197.5 180,-1197.5 180,-1178.5 3,-1178.5"/>
<text text-anchor="middle" x="91.5" y="-1185.5" font-family="Helvetica,sans-Serif" font-size="10.00">com.cliffc.aa.HM.TestHM8.test09</text>
</a>
</g>
</g>
<!-- Node8&#45;&gt;Node19 -->
<g id="edge21" class="edge">
<title>Node8&#45;&gt;Node19</title>
<path fill="none" stroke="midnightblue" d="M310.77,-809.02C308.88,-872.43 293.97,-1070.41 183,-1169 178.8,-1172.73 174.06,-1175.8 169,-1178.31"/>
<polygon fill="midnightblue" stroke="midnightblue" points="314.27,-808.88 310.99,-798.8 307.27,-808.73 314.27,-808.88"/>
</g>
<!-- Node20 -->
<g id="node20" class="node">
<title>Node20</title>
<g id="a_node20"><a xlink:href="../../dd/d08/a01682.html#adc69f4f182e9bdead620227e34b425fa" target="_top" xlink:title=" ">
<polygon fill="none" stroke="black" points="3,-1140.5 3,-1159.5 180,-1159.5 180,-1140.5 3,-1140.5"/>
<text text-anchor="middle" x="91.5" y="-1147.5" font-family="Helvetica,sans-Serif" font-size="10.00">com.cliffc.aa.HM.TestHM8.test10</text>
</a>
</g>
</g>
<!-- Node8&#45;&gt;Node20 -->
<g id="edge22" class="edge">
<title>Node8&#45;&gt;Node20</title>
<path fill="none" stroke="midnightblue" d="M309.93,-808.96C305.61,-868.12 284.43,-1043.85 183,-1131 178.62,-1134.77 173.68,-1137.85 168.42,-1140.37"/>
<polygon fill="midnightblue" stroke="midnightblue" points="313.43,-808.94 310.58,-798.74 306.45,-808.5 313.43,-808.94"/>
</g>
<!-- Node21 -->
<g id="node21" class="node">
<title>Node21</title>
<g id="a_node21"><a xlink:href="../../dd/d08/a01682.html#adc931aea669c23730e486e6db4201434" target="_top" xlink:title=" ">
<polygon fill="none" stroke="black" points="3,-1102.5 3,-1121.5 180,-1121.5 180,-1102.5 3,-1102.5"/>
<text text-anchor="middle" x="91.5" y="-1109.5" font-family="Helvetica,sans-Serif" font-size="10.00">com.cliffc.aa.HM.TestHM8.test11</text>
</a>
</g>
</g>
<!-- Node8&#45;&gt;Node21 -->
<g id="edge23" class="edge">
<title>Node8&#45;&gt;Node21</title>
<path fill="none" stroke="midnightblue" d="M308.94,-808.54C302.13,-862.92 275.19,-1016.98 183,-1093 178.42,-1096.78 173.27,-1099.86 167.81,-1102.37"/>
<polygon fill="midnightblue" stroke="midnightblue" points="312.43,-808.85 310.11,-798.52 305.48,-808.05 312.43,-808.85"/>
</g>
<!-- Node22 -->
<g id="node22" class="node">
<title>Node22</title>
<g id="a_node22"><a xlink:href="../../dd/d08/a01682.html#a62568efdbaa40ddeb4e14b1b5f788686" target="_top" xlink:title=" ">
<polygon fill="none" stroke="black" points="3,-1064.5 3,-1083.5 180,-1083.5 180,-1064.5 3,-1064.5"/>
<text text-anchor="middle" x="91.5" y="-1071.5" font-family="Helvetica,sans-Serif" font-size="10.00">com.cliffc.aa.HM.TestHM8.test12</text>
</a>
</g>
</g>
<!-- Node8&#45;&gt;Node22 -->
<g id="edge24" class="edge">
<title>Node8&#45;&gt;Node22</title>
<path fill="none" stroke="midnightblue" d="M307.63,-808.73C298.04,-858.57 265.71,-990.19 183,-1055 178.2,-1058.76 172.83,-1061.83 167.16,-1064.32"/>
<polygon fill="midnightblue" stroke="midnightblue" points="311.12,-809.11 309.48,-798.64 304.24,-807.85 311.12,-809.11"/>
</g>
<!-- Node23 -->
<g id="node23" class="node">
<title>Node23</title>
<g id="a_node23"><a xlink:href="../../dd/d08/a01682.html#a8382ee8cd25d7c8fc288bfc5f7736d1b" target="_top" xlink:title=" ">
<polygon fill="none" stroke="black" points="3,-1026.5 3,-1045.5 180,-1045.5 180,-1026.5 3,-1026.5"/>
<text text-anchor="middle" x="91.5" y="-1033.5" font-family="Helvetica,sans-Serif" font-size="10.00">com.cliffc.aa.HM.TestHM8.test13</text>
</a>
</g>
</g>
<!-- Node8&#45;&gt;Node23 -->
<g id="edge25" class="edge">
<title>Node8&#45;&gt;Node23</title>
<path fill="none" stroke="midnightblue" d="M305.99,-808.6C293.5,-853.28 256.55,-963.03 183,-1017 177.82,-1020.8 172.05,-1023.88 166,-1026.36"/>
<polygon fill="midnightblue" stroke="midnightblue" points="309.44,-809.28 308.65,-798.71 302.68,-807.46 309.44,-809.28"/>
</g>
<!-- Node24 -->
<g id="node24" class="node">
<title>Node24</title>
<g id="a_node24"><a xlink:href="../../dd/d08/a01682.html#a34a5f3497f7ce108ebdd383538f297b7" target="_top" xlink:title=" ">
<polygon fill="none" stroke="black" points="3,-988.5 3,-1007.5 180,-1007.5 180,-988.5 3,-988.5"/>
<text text-anchor="middle" x="91.5" y="-995.5" font-family="Helvetica,sans-Serif" font-size="10.00">com.cliffc.aa.HM.TestHM8.test14</text>
</a>
</g>
</g>
<!-- Node8&#45;&gt;Node24 -->
<g id="edge26" class="edge">
<title>Node8&#45;&gt;Node24</title>
<path fill="none" stroke="midnightblue" d="M303.77,-808.48C288.18,-847.57 247.54,-935.56 183,-979 177.27,-982.85 170.92,-985.95 164.3,-988.43"/>
<polygon fill="midnightblue" stroke="midnightblue" points="307.16,-809.42 307.5,-798.83 300.63,-806.89 307.16,-809.42"/>
</g>
<!-- Node25 -->
<g id="node25" class="node">
<title>Node25</title>
<g id="a_node25"><a xlink:href="../../dd/d08/a01682.html#a21978fd539714b2f20066ca43f48fb5b" target="_top" xlink:title=" ">
<polygon fill="none" stroke="black" points="3,-950.5 3,-969.5 180,-969.5 180,-950.5 3,-950.5"/>
<text text-anchor="middle" x="91.5" y="-957.5" font-family="Helvetica,sans-Serif" font-size="10.00">com.cliffc.aa.HM.TestHM8.test15</text>
</a>
</g>
</g>
<!-- Node8&#45;&gt;Node25 -->
<g id="edge27" class="edge">
<title>Node8&#45;&gt;Node25</title>
<path fill="none" stroke="midnightblue" d="M300.91,-807.7C282.25,-840.35 239.08,-907.46 183,-941 176.52,-944.87 169.38,-947.96 162.02,-950.43"/>
<polygon fill="midnightblue" stroke="midnightblue" points="304.08,-809.19 305.9,-798.75 297.97,-805.78 304.08,-809.19"/>
</g>
<!-- Node26 -->
<g id="node26" class="node">
<title>Node26</title>
<g id="a_node26"><a xlink:href="../../dd/d08/a01682.html#a4cf6c9003c054d9cca3990ade2c7a822" target="_top" xlink:title=" ">
<polygon fill="none" stroke="black" points="3,-912.5 3,-931.5 180,-931.5 180,-912.5 3,-912.5"/>
<text text-anchor="middle" x="91.5" y="-919.5" font-family="Helvetica,sans-Serif" font-size="10.00">com.cliffc.aa.HM.TestHM8.test16</text>
</a>
</g>
</g>
<!-- Node8&#45;&gt;Node26 -->
<g id="edge28" class="edge">
<title>Node8&#45;&gt;Node26</title>
<path fill="none" stroke="midnightblue" d="M296.71,-806.55C274.96,-832.01 230.98,-878.79 183,-903 175.26,-906.91 166.76,-910.01 158.16,-912.47"/>
<polygon fill="midnightblue" stroke="midnightblue" points="299.47,-808.71 303.21,-798.79 294.1,-804.21 299.47,-808.71"/>
</g>
<!-- Node27 -->
<g id="node27" class="node">
<title>Node27</title>
<g id="a_node27"><a xlink:href="../../dd/d08/a01682.html#a4aa66d7e990365f6fd3df746f88731b9" target="_top" xlink:title=" ">
<polygon fill="none" stroke="black" points="3,-874.5 3,-893.5 180,-893.5 180,-874.5 3,-874.5"/>
<text text-anchor="middle" x="91.5" y="-881.5" font-family="Helvetica,sans-Serif" font-size="10.00">com.cliffc.aa.HM.TestHM8.test17</text>
</a>
</g>
</g>
<!-- Node8&#45;&gt;Node27 -->
<g id="edge29" class="edge">
<title>Node8&#45;&gt;Node27</title>
<path fill="none" stroke="midnightblue" d="M290.12,-804.36C265.66,-821.62 223.32,-849.3 183,-865 173.13,-868.85 162.33,-871.97 151.74,-874.49"/>
<polygon fill="midnightblue" stroke="midnightblue" points="292.2,-807.17 298.29,-798.51 288.12,-801.48 292.2,-807.17"/>
</g>
<!-- Node28 -->
<g id="node28" class="node">
<title>Node28</title>
<g id="a_node28"><a xlink:href="../../dd/d08/a01682.html#aabc6de9af3ca990ce57f4faab06dc9ef" target="_top" xlink:title=" ">
<polygon fill="none" stroke="black" points="3,-836.5 3,-855.5 180,-855.5 180,-836.5 3,-836.5"/>
<text text-anchor="middle" x="91.5" y="-843.5" font-family="Helvetica,sans-Serif" font-size="10.00">com.cliffc.aa.HM.TestHM8.test18</text>
</a>
</g>
</g>
<!-- Node8&#45;&gt;Node28 -->
<g id="edge30" class="edge">
<title>Node8&#45;&gt;Node28</title>
<path fill="none" stroke="midnightblue" d="M271.87,-801.52C246.64,-809.37 213.06,-819.4 183,-827 169.61,-830.39 155.01,-833.64 141.51,-836.47"/>
<polygon fill="midnightblue" stroke="midnightblue" points="272.95,-804.85 281.45,-798.52 270.86,-798.17 272.95,-804.85"/>
</g>
<!-- Node29 -->
<g id="node29" class="node">
<title>Node29</title>
<g id="a_node29"><a xlink:href="../../dd/d08/a01682.html#a8bd7ac6049625325f6cebd46f70d93a8" target="_top" xlink:title=" ">
<polygon fill="none" stroke="black" points="3,-798.5 3,-817.5 180,-817.5 180,-798.5 3,-798.5"/>
<text text-anchor="middle" x="91.5" y="-805.5" font-family="Helvetica,sans-Serif" font-size="10.00">com.cliffc.aa.HM.TestHM8.test19</text>
</a>
</g>
</g>
<!-- Node8&#45;&gt;Node29 -->
<g id="edge31" class="edge">
<title>Node8&#45;&gt;Node29</title>
<path fill="none" stroke="midnightblue" d="M230.31,-796.02C213.96,-797.44 196.69,-798.94 180.11,-800.38"/>
<polygon fill="midnightblue" stroke="midnightblue" points="230.7,-799.5 240.36,-795.14 230.1,-792.52 230.7,-799.5"/>
</g>
<!-- Node30 -->
<g id="node30" class="node">
<title>Node30</title>
<g id="a_node30"><a xlink:href="../../dd/d08/a01682.html#a6505a9454a5650ee22f57cc7ac62329d" target="_top" xlink:title=" ">
<polygon fill="none" stroke="black" points="3,-760.5 3,-779.5 180,-779.5 180,-760.5 3,-760.5"/>
<text text-anchor="middle" x="91.5" y="-767.5" font-family="Helvetica,sans-Serif" font-size="10.00">com.cliffc.aa.HM.TestHM8.test20</text>
</a>
</g>
</g>
<!-- Node8&#45;&gt;Node30 -->
<g id="edge32" class="edge">
<title>Node8&#45;&gt;Node30</title>
<path fill="none" stroke="midnightblue" d="M230.31,-781.98C213.96,-780.56 196.69,-779.06 180.11,-777.62"/>
<polygon fill="midnightblue" stroke="midnightblue" points="230.1,-785.48 240.36,-782.86 230.7,-778.5 230.1,-785.48"/>
</g>
<!-- Node31 -->
<g id="node31" class="node">
<title>Node31</title>
<g id="a_node31"><a xlink:href="../../dd/d08/a01682.html#a32b13e0e7b013eb36f0ebd501b57e750" target="_top" xlink:title=" ">
<polygon fill="none" stroke="black" points="3,-722.5 3,-741.5 180,-741.5 180,-722.5 3,-722.5"/>
<text text-anchor="middle" x="91.5" y="-729.5" font-family="Helvetica,sans-Serif" font-size="10.00">com.cliffc.aa.HM.TestHM8.test21</text>
</a>
</g>
</g>
<!-- Node8&#45;&gt;Node31 -->
<g id="edge33" class="edge">
<title>Node8&#45;&gt;Node31</title>
<path fill="none" stroke="midnightblue" d="M271.87,-776.48C246.64,-768.63 213.06,-758.6 183,-751 169.61,-747.61 155.01,-744.36 141.51,-741.53"/>
<polygon fill="midnightblue" stroke="midnightblue" points="270.86,-779.83 281.45,-779.48 272.95,-773.15 270.86,-779.83"/>
</g>
<!-- Node32 -->
<g id="node32" class="node">
<title>Node32</title>
<g id="a_node32"><a xlink:href="../../dd/d08/a01682.html#ac612d63a65565fab351b1044240ca275" target="_top" xlink:title=" ">
<polygon fill="none" stroke="black" points="3,-684.5 3,-703.5 180,-703.5 180,-684.5 3,-684.5"/>
<text text-anchor="middle" x="91.5" y="-691.5" font-family="Helvetica,sans-Serif" font-size="10.00">com.cliffc.aa.HM.TestHM8.test22</text>
</a>
</g>
</g>
<!-- Node8&#45;&gt;Node32 -->
<g id="edge34" class="edge">
<title>Node8&#45;&gt;Node32</title>
<path fill="none" stroke="midnightblue" d="M290.12,-773.64C265.66,-756.38 223.32,-728.7 183,-713 173.13,-709.15 162.33,-706.03 151.74,-703.51"/>
<polygon fill="midnightblue" stroke="midnightblue" points="288.12,-776.52 298.29,-779.49 292.2,-770.83 288.12,-776.52"/>
</g>
<!-- Node33 -->
<g id="node33" class="node">
<title>Node33</title>
<g id="a_node33"><a xlink:href="../../dd/d08/a01682.html#a6576ee4b53e9c17b404d553226da2ffb" target="_top" xlink:title=" ">
<polygon fill="none" stroke="black" points="3,-646.5 3,-665.5 180,-665.5 180,-646.5 3,-646.5"/>
<text text-anchor="middle" x="91.5" y="-653.5" font-family="Helvetica,sans-Serif" font-size="10.00">com.cliffc.aa.HM.TestHM8.test23</text>
</a>
</g>
</g>
<!-- Node8&#45;&gt;Node33 -->
<g id="edge35" class="edge">
<title>Node8&#45;&gt;Node33</title>
<path fill="none" stroke="midnightblue" d="M296.71,-771.45C274.96,-745.99 230.98,-699.21 183,-675 175.26,-671.09 166.76,-667.99 158.16,-665.53"/>
<polygon fill="midnightblue" stroke="midnightblue" points="294.1,-773.79 303.21,-779.21 299.47,-769.29 294.1,-773.79"/>
</g>
<!-- Node34 -->
<g id="node34" class="node">
<title>Node34</title>
<g id="a_node34"><a xlink:href="../../dd/d08/a01682.html#a28e288e18f3e0a1c2467f93310634cb9" target="_top" xlink:title=" ">
<polygon fill="none" stroke="black" points="3,-608.5 3,-627.5 180,-627.5 180,-608.5 3,-608.5"/>
<text text-anchor="middle" x="91.5" y="-615.5" font-family="Helvetica,sans-Serif" font-size="10.00">com.cliffc.aa.HM.TestHM8.test24</text>
</a>
</g>
</g>
<!-- Node8&#45;&gt;Node34 -->
<g id="edge36" class="edge">
<title>Node8&#45;&gt;Node34</title>
<path fill="none" stroke="midnightblue" d="M300.91,-770.3C282.25,-737.65 239.08,-670.54 183,-637 176.52,-633.13 169.38,-630.04 162.02,-627.57"/>
<polygon fill="midnightblue" stroke="midnightblue" points="297.97,-772.22 305.9,-779.25 304.08,-768.81 297.97,-772.22"/>
</g>
<!-- Node35 -->
<g id="node35" class="node">
<title>Node35</title>
<g id="a_node35"><a xlink:href="../../dd/d08/a01682.html#ae3b7393572325df36255aa0eea6891b0" target="_top" xlink:title=" ">
<polygon fill="none" stroke="black" points="3,-570.5 3,-589.5 180,-589.5 180,-570.5 3,-570.5"/>
<text text-anchor="middle" x="91.5" y="-577.5" font-family="Helvetica,sans-Serif" font-size="10.00">com.cliffc.aa.HM.TestHM8.test25</text>
</a>
</g>
</g>
<!-- Node8&#45;&gt;Node35 -->
<g id="edge37" class="edge">
<title>Node8&#45;&gt;Node35</title>
<path fill="none" stroke="midnightblue" d="M303.77,-769.52C288.18,-730.43 247.54,-642.44 183,-599 177.27,-595.15 170.92,-592.05 164.3,-589.57"/>
<polygon fill="midnightblue" stroke="midnightblue" points="300.63,-771.11 307.5,-779.17 307.16,-768.58 300.63,-771.11"/>
</g>
<!-- Node36 -->
<g id="node36" class="node">
<title>Node36</title>
<g id="a_node36"><a xlink:href="../../dd/d08/a01682.html#a5d047d86cf87938f5212d8787f72da6d" target="_top" xlink:title=" ">
<polygon fill="none" stroke="black" points="0,-532.5 0,-551.5 183,-551.5 183,-532.5 0,-532.5"/>
<text text-anchor="middle" x="91.5" y="-539.5" font-family="Helvetica,sans-Serif" font-size="10.00">com.cliffc.aa.HM.TestHM8.test25a</text>
</a>
</g>
</g>
<!-- Node8&#45;&gt;Node36 -->
<g id="edge38" class="edge">
<title>Node8&#45;&gt;Node36</title>
<path fill="none" stroke="midnightblue" d="M305.99,-769.4C293.5,-724.72 256.55,-614.97 183,-561 177.82,-557.2 172.05,-554.12 166,-551.64"/>
<polygon fill="midnightblue" stroke="midnightblue" points="302.68,-770.54 308.65,-779.29 309.44,-768.72 302.68,-770.54"/>
</g>
<!-- Node37 -->
<g id="node37" class="node">
<title>Node37</title>
<g id="a_node37"><a xlink:href="../../dd/d08/a01682.html#ad6c880a3a52c3097983fbd4d89ef50b2" target="_top" xlink:title=" ">
<polygon fill="none" stroke="black" points="0,-494.5 0,-513.5 183,-513.5 183,-494.5 0,-494.5"/>
<text text-anchor="middle" x="91.5" y="-501.5" font-family="Helvetica,sans-Serif" font-size="10.00">com.cliffc.aa.HM.TestHM8.test25b</text>
</a>
</g>
</g>
<!-- Node8&#45;&gt;Node37 -->
<g id="edge39" class="edge">
<title>Node8&#45;&gt;Node37</title>
<path fill="none" stroke="midnightblue" d="M307.63,-769.27C298.04,-719.43 265.71,-587.81 183,-523 178.2,-519.24 172.83,-516.17 167.16,-513.68"/>
<polygon fill="midnightblue" stroke="midnightblue" points="304.24,-770.15 309.48,-779.36 311.12,-768.89 304.24,-770.15"/>
</g>
<!-- Node38 -->
<g id="node38" class="node">
<title>Node38</title>
<g id="a_node38"><a xlink:href="../../dd/d08/a01682.html#a328c386139071a15424e0c05479d7fad" target="_top" xlink:title=" ">
<polygon fill="none" stroke="black" points="3,-456.5 3,-475.5 180,-475.5 180,-456.5 3,-456.5"/>
<text text-anchor="middle" x="91.5" y="-463.5" font-family="Helvetica,sans-Serif" font-size="10.00">com.cliffc.aa.HM.TestHM8.test26</text>
</a>
</g>
</g>
<!-- Node8&#45;&gt;Node38 -->
<g id="edge40" class="edge">
<title>Node8&#45;&gt;Node38</title>
<path fill="none" stroke="midnightblue" d="M308.94,-769.46C302.13,-715.08 275.19,-561.02 183,-485 178.42,-481.22 173.27,-478.14 167.81,-475.63"/>
<polygon fill="midnightblue" stroke="midnightblue" points="305.48,-769.95 310.11,-779.48 312.43,-769.15 305.48,-769.95"/>
</g>
<!-- Node39 -->
<g id="node39" class="node">
<title>Node39</title>
<g id="a_node39"><a xlink:href="../../dd/d08/a01682.html#ab53ca6600b56ba5c1f4ab1d397e4c790" target="_top" xlink:title=" ">
<polygon fill="none" stroke="black" points="3,-418.5 3,-437.5 180,-437.5 180,-418.5 3,-418.5"/>
<text text-anchor="middle" x="91.5" y="-425.5" font-family="Helvetica,sans-Serif" font-size="10.00">com.cliffc.aa.HM.TestHM8.test27</text>
</a>
</g>
</g>
<!-- Node8&#45;&gt;Node39 -->
<g id="edge41" class="edge">
<title>Node8&#45;&gt;Node39</title>
<path fill="none" stroke="midnightblue" d="M304.92,-769.52C283.17,-700.35 209.13,-469.45 183,-447 178.62,-443.23 173.68,-440.15 168.42,-437.63"/>
<polygon fill="midnightblue" stroke="midnightblue" points="301.62,-770.68 307.95,-779.18 308.3,-768.59 301.62,-770.68"/>
</g>
<!-- Node40 -->
<g id="node40" class="node">
<title>Node40</title>
<g id="a_node40"><a xlink:href="../../dd/d08/a01682.html#ad51f804370488a8d07fe2b2eab88d2f5" target="_top" xlink:title=" ">
<polygon fill="none" stroke="black" points="3,-380.5 3,-399.5 180,-399.5 180,-380.5 3,-380.5"/>
<text text-anchor="middle" x="91.5" y="-387.5" font-family="Helvetica,sans-Serif" font-size="10.00">com.cliffc.aa.HM.TestHM8.test28</text>
</a>
</g>
</g>
<!-- Node8&#45;&gt;Node40 -->
<g id="edge42" class="edge">
<title>Node8&#45;&gt;Node40</title>
<path fill="none" stroke="midnightblue" d="M304.76,-769.63C280.07,-693.06 190.18,-415.38 183,-409 178.8,-405.27 174.06,-402.2 169,-399.69"/>
<polygon fill="midnightblue" stroke="midnightblue" points="301.52,-770.96 307.91,-779.41 308.18,-768.82 301.52,-770.96"/>
</g>
<!-- Node41 -->
<g id="node41" class="node">
<title>Node41</title>
<g id="a_node41"><a xlink:href="../../dd/d08/a01682.html#a6da65b928f2fb589314fad2fcea61b06" target="_top" xlink:title=" ">
<polygon fill="none" stroke="black" points="3,-342.5 3,-361.5 180,-361.5 180,-342.5 3,-342.5"/>
<text text-anchor="middle" x="91.5" y="-349.5" font-family="Helvetica,sans-Serif" font-size="10.00">com.cliffc.aa.HM.TestHM8.test29</text>
</a>
</g>
</g>
<!-- Node8&#45;&gt;Node41 -->
<g id="edge43" class="edge">
<title>Node8&#45;&gt;Node41</title>
<path fill="none" stroke="midnightblue" d="M304.39,-769.63C288.81,-723.71 248.83,-604.6 219,-504 201.59,-445.29 227.53,-413.04 183,-371 179.03,-367.25 174.52,-364.17 169.68,-361.63"/>
<polygon fill="midnightblue" stroke="midnightblue" points="301.12,-770.87 307.65,-779.21 307.74,-768.61 301.12,-770.87"/>
</g>
<!-- Node42 -->
<g id="node42" class="node">
<title>Node42</title>
<g id="a_node42"><a xlink:href="../../dd/d08/a01682.html#a842e37f51363a8d95732ba837d687d43" target="_top" xlink:title=" ">
<polygon fill="none" stroke="black" points="3,-304.5 3,-323.5 180,-323.5 180,-304.5 3,-304.5"/>
<text text-anchor="middle" x="91.5" y="-311.5" font-family="Helvetica,sans-Serif" font-size="10.00">com.cliffc.aa.HM.TestHM8.test30</text>
</a>
</g>
</g>
<!-- Node8&#45;&gt;Node42 -->
<g id="edge44" class="edge">
<title>Node8&#45;&gt;Node42</title>
<path fill="none" stroke="midnightblue" d="M304.01,-769.73C287.59,-724.06 245.96,-605.41 219,-504 199.04,-428.94 237.93,-387.9 183,-333 179.25,-329.25 174.97,-326.16 170.35,-323.61"/>
<polygon fill="midnightblue" stroke="midnightblue" points="300.76,-771.05 307.45,-779.27 307.34,-768.67 300.76,-771.05"/>
</g>
<!-- Node43 -->
<g id="node43" class="node">
<title>Node43</title>
<g id="a_node43"><a xlink:href="../../dd/d08/a01682.html#a4b99bade835db86dc221b7be203a4b6a" target="_top" xlink:title=" ">
<polygon fill="none" stroke="black" points="0,-266.5 0,-285.5 183,-285.5 183,-266.5 0,-266.5"/>
<text text-anchor="middle" x="91.5" y="-273.5" font-family="Helvetica,sans-Serif" font-size="10.00">com.cliffc.aa.HM.TestHM8.test30a</text>
</a>
</g>
</g>
<!-- Node8&#45;&gt;Node43 -->
<g id="edge45" class="edge">
<title>Node8&#45;&gt;Node43</title>
<path fill="none" stroke="midnightblue" d="M303.75,-769.8C286.8,-724.26 244.09,-605.89 219,-504 196.47,-412.48 248.43,-362.85 183,-295 179.43,-291.3 175.35,-288.23 170.92,-285.69"/>
<polygon fill="midnightblue" stroke="midnightblue" points="300.53,-771.16 307.31,-779.3 307.08,-768.71 300.53,-771.16"/>
</g>
<!-- Node44 -->
<g id="node44" class="node">
<title>Node44</title>
<g id="a_node44"><a xlink:href="../../dd/d08/a01682.html#aa5bc72f64b2006f477fa225c7a5db28f" target="_top" xlink:title=" ">
<polygon fill="none" stroke="black" points="3,-228.5 3,-247.5 180,-247.5 180,-228.5 3,-228.5"/>
<text text-anchor="middle" x="91.5" y="-235.5" font-family="Helvetica,sans-Serif" font-size="10.00">com.cliffc.aa.HM.TestHM8.test31</text>
</a>
</g>
</g>
<!-- Node8&#45;&gt;Node44 -->
<g id="edge46" class="edge">
<title>Node8&#45;&gt;Node44</title>
<path fill="none" stroke="midnightblue" d="M303.58,-769.84C286.24,-724.39 242.77,-606.21 219,-504 206.44,-449.97 220.98,-297.42 183,-257 179.48,-253.26 175.43,-250.15 171.03,-247.58"/>
<polygon fill="midnightblue" stroke="midnightblue" points="300.36,-771.24 307.22,-779.32 306.9,-768.73 300.36,-771.24"/>
</g>
<!-- Node45 -->
<g id="node45" class="node">
<title>Node45</title>
<g id="a_node45"><a xlink:href="../../dd/d08/a01682.html#a86f44895e620e8ac125f356f88fd87c0" target="_top" xlink:title=" ">
<polygon fill="none" stroke="black" points="3,-190.5 3,-209.5 180,-209.5 180,-190.5 3,-190.5"/>
<text text-anchor="middle" x="91.5" y="-197.5" font-family="Helvetica,sans-Serif" font-size="10.00">com.cliffc.aa.HM.TestHM8.test32</text>
</a>
</g>
</g>
<!-- Node8&#45;&gt;Node45 -->
<g id="edge47" class="edge">
<title>Node8&#45;&gt;Node45</title>
<path fill="none" stroke="midnightblue" d="M303.44,-769.87C285.83,-724.49 241.79,-606.43 219,-504 205.13,-441.69 226.27,-265.94 183,-219 179.52,-215.22 175.49,-212.09 171.11,-209.51"/>
<polygon fill="midnightblue" stroke="midnightblue" points="300.25,-771.3 307.15,-779.34 306.76,-768.75 300.25,-771.3"/>
</g>
<!-- Node46 -->
<g id="node46" class="node">
<title>Node46</title>
<g id="a_node46"><a xlink:href="../../dd/d08/a01682.html#a4a6b6eec7ae13afa2a641cd781b69b45" target="_top" xlink:title=" ">
<polygon fill="none" stroke="black" points="3,-152.5 3,-171.5 180,-171.5 180,-152.5 3,-152.5"/>
<text text-anchor="middle" x="91.5" y="-159.5" font-family="Helvetica,sans-Serif" font-size="10.00">com.cliffc.aa.HM.TestHM8.test33</text>
</a>
</g>
</g>
<!-- Node8&#45;&gt;Node46 -->
<g id="edge48" class="edge">
<title>Node8&#45;&gt;Node46</title>
<path fill="none" stroke="midnightblue" d="M303.34,-769.89C285.51,-724.56 241.04,-606.59 219,-504 203.83,-433.39 231.56,-234.46 183,-181 179.65,-177.32 175.79,-174.25 171.59,-171.69"/>
<polygon fill="midnightblue" stroke="midnightblue" points="300.15,-771.35 307.09,-779.35 306.66,-768.76 300.15,-771.35"/>
</g>
<!-- Node47 -->
<g id="node47" class="node">
<title>Node47</title>
<g id="a_node47"><a xlink:href="../../dd/d08/a01682.html#a7a12ce333178c46308ba7c3ef0fd0917" target="_top" xlink:title=" ">
<polygon fill="none" stroke="black" points="3,-114.5 3,-133.5 180,-133.5 180,-114.5 3,-114.5"/>
<text text-anchor="middle" x="91.5" y="-121.5" font-family="Helvetica,sans-Serif" font-size="10.00">com.cliffc.aa.HM.TestHM8.test34</text>
</a>
</g>
</g>
<!-- Node8&#45;&gt;Node47 -->
<g id="edge49" class="edge">
<title>Node8&#45;&gt;Node47</title>
<path fill="none" stroke="midnightblue" d="M303.26,-769.91C285.26,-724.61 240.45,-606.72 219,-504 202.52,-425.08 236.86,-202.99 183,-143 179.68,-139.3 175.83,-136.21 171.63,-133.65"/>
<polygon fill="midnightblue" stroke="midnightblue" points="300.08,-771.38 307.05,-779.36 306.58,-768.78 300.08,-771.38"/>
</g>
<!-- Node48 -->
<g id="node48" class="node">
<title>Node48</title>
<g id="a_node48"><a xlink:href="../../dd/d08/a01682.html#ad692c8dc570242deb096cf4199b7a372" target="_top" xlink:title=" ">
<polygon fill="none" stroke="black" points="3,-76.5 3,-95.5 180,-95.5 180,-76.5 3,-76.5"/>
<text text-anchor="middle" x="91.5" y="-83.5" font-family="Helvetica,sans-Serif" font-size="10.00">com.cliffc.aa.HM.TestHM8.test35</text>
</a>
</g>
</g>
<!-- Node8&#45;&gt;Node48 -->
<g id="edge50" class="edge">
<title>Node8&#45;&gt;Node48</title>
<path fill="none" stroke="midnightblue" d="M303.2,-769.92C285.05,-724.65 239.96,-606.82 219,-504 201.22,-416.77 242.16,-171.52 183,-105 179.69,-101.28 175.86,-98.18 171.68,-95.61"/>
<polygon fill="midnightblue" stroke="midnightblue" points="300.02,-771.41 307.02,-779.37 306.51,-768.78 300.02,-771.41"/>
</g>
<!-- Node49 -->
<g id="node49" class="node">
<title>Node49</title>
<g id="a_node49"><a xlink:href="../../dd/d08/a01682.html#aed504b4095971e8df76dc6a9f81e7b52" target="_top" xlink:title=" ">
<polygon fill="none" stroke="black" points="3,-38.5 3,-57.5 180,-57.5 180,-38.5 3,-38.5"/>
<text text-anchor="middle" x="91.5" y="-45.5" font-family="Helvetica,sans-Serif" font-size="10.00">com.cliffc.aa.HM.TestHM8.test36</text>
</a>
</g>
</g>
<!-- Node8&#45;&gt;Node49 -->
<g id="edge51" class="edge">
<title>Node8&#45;&gt;Node49</title>
<path fill="none" stroke="midnightblue" d="M303.14,-769.93C284.88,-724.69 239.56,-606.9 219,-504 199.91,-408.45 247.47,-140.06 183,-67 179.71,-63.27 175.88,-60.16 171.71,-57.58"/>
<polygon fill="midnightblue" stroke="midnightblue" points="299.98,-771.43 306.99,-779.37 306.46,-768.79 299.98,-771.43"/>
</g>
<!-- Node55&#45;&gt;Node2 -->
<g id="edge58" class="edge">
<title>Node55&#45;&gt;Node2</title>
<path fill="none" stroke="midnightblue" d="M373.73,-306.69C384.2,-308.94 394.94,-311.42 405,-314 500.12,-338.43 609.57,-374.01 669,-393.97"/>
<polygon fill="midnightblue" stroke="midnightblue" points="374.32,-303.23 363.81,-304.59 372.88,-310.08 374.32,-303.23"/>
</g>
<!-- Node55&#45;&gt;Node53 -->
<g id="edge59" class="edge">
<title>Node55&#45;&gt;Node53</title>
<path fill="none" stroke="midnightblue" d="M307.63,-275.27C298.04,-225.43 265.71,-93.81 183,-29 178.2,-25.24 172.83,-22.17 167.16,-19.68"/>
<polygon fill="midnightblue" stroke="midnightblue" points="304.24,-276.15 309.48,-285.36 311.12,-274.89 304.24,-276.15"/>
</g>
</g>
</svg>
