<?xml version="1.0" encoding="UTF-8" standalone="no"?>
<!DOCTYPE svg PUBLIC "-//W3C//DTD SVG 1.1//EN"
 "http://www.w3.org/Graphics/SVG/1.1/DTD/svg11.dtd">
<!-- Generated by graphviz version 2.43.0 (0)
 -->
<!-- Title: com.cliffc.aa.HM.HM8.T2.push_update Pages: 1 -->
<svg width="1776pt" height="121pt"
 viewBox="0.00 0.00 1776.00 121.33" xmlns="http://www.w3.org/2000/svg" xmlns:xlink="http://www.w3.org/1999/xlink">
<g id="graph0" class="graph" transform="scale(1 1) rotate(0) translate(4 117.33)">
<title>com.cliffc.aa.HM.HM8.T2.push_update</title>
<!-- Node1 -->
<g id="node1" class="node">
<title>Node1</title>
<g id="a_node1"><a xlink:title=" ">
<polygon fill="#bfbfbf" stroke="black" points="0,-33 0,-63 165,-63 165,-33 0,-33"/>
<text text-anchor="start" x="8" y="-51" font-family="Helvetica,sans-Serif" font-size="10.00">com.cliffc.aa.HM.HM8.T2.push</text>
<text text-anchor="middle" x="82.5" y="-40" font-family="Helvetica,sans-Serif" font-size="10.00">_update</text>
</a>
</g>
</g>
<!-- Node2 -->
<g id="node2" class="node">
<title>Node2</title>
<g id="a_node2"><a xlink:href="../../d2/dab/a00886.html#aa582771599f3c01e3b78b9cefefd2f49" target="_top" xlink:title=" ">
<polygon fill="none" stroke="black" points="201,-33 201,-63 366,-63 366,-33 201,-33"/>
<text text-anchor="start" x="209" y="-51" font-family="Helvetica,sans-Serif" font-size="10.00">com.cliffc.aa.HM.HM8.T2.push</text>
<text text-anchor="middle" x="283.5" y="-40" font-family="Helvetica,sans-Serif" font-size="10.00">_update_impl</text>
</a>
</g>
</g>
<!-- Node1&#45;&gt;Node2 -->
<g id="edge1" class="edge">
<title>Node1&#45;&gt;Node2</title>
<path fill="none" stroke="midnightblue" d="M165.02,-48C173.5,-48 182.17,-48 190.76,-48"/>
<polygon fill="midnightblue" stroke="midnightblue" points="190.79,-51.5 200.79,-48 190.79,-44.5 190.79,-51.5"/>
</g>
<!-- Node2&#45;&gt;Node2 -->
<g id="edge12" class="edge">
<title>Node2&#45;&gt;Node2</title>
<path fill="none" stroke="midnightblue" d="M248.65,-63.16C240.24,-72.56 251.86,-81.5 283.5,-81.5 302.78,-81.5 314.63,-78.18 319.04,-73.46"/>
<polygon fill="midnightblue" stroke="midnightblue" points="322.51,-72.91 318.35,-63.16 315.52,-73.37 322.51,-72.91"/>
</g>
<!-- Node3 -->
<g id="node3" class="node">
<title>Node3</title>
<g id="a_node3"><a xlink:href="../../d2/dab/a00886.html#abde112b309e2447d0d4012ad2f0b2361" target="_top" xlink:title=" ">
<polygon fill="none" stroke="black" points="402,-76.5 402,-95.5 565,-95.5 565,-76.5 402,-76.5"/>
<text text-anchor="middle" x="483.5" y="-83.5" font-family="Helvetica,sans-Serif" font-size="10.00">com.cliffc.aa.HM.HM8.T2.args</text>
</a>
</g>
</g>
<!-- Node2&#45;&gt;Node3 -->
<g id="edge2" class="edge">
<title>Node2&#45;&gt;Node3</title>
<path fill="none" stroke="midnightblue" d="M362.75,-63.02C382.82,-66.87 404.08,-70.95 423.02,-74.59"/>
<polygon fill="midnightblue" stroke="midnightblue" points="422.51,-78.05 433,-76.5 423.83,-71.18 422.51,-78.05"/>
</g>
<!-- Node9 -->
<g id="node9" class="node">
<title>Node9</title>
<g id="a_node9"><a xlink:href="../../d2/dab/a00886.html#ab2e44d28229a2d3cbe52d8c70e7226b2" target="_top" xlink:title=" ">
<polygon fill="none" stroke="black" points="1028,-38.5 1028,-57.5 1197,-57.5 1197,-38.5 1028,-38.5"/>
<text text-anchor="middle" x="1112.5" y="-45.5" font-family="Helvetica,sans-Serif" font-size="10.00">com.cliffc.aa.HM.HM8.T2.no_uf</text>
</a>
</g>
</g>
<!-- Node2&#45;&gt;Node9 -->
<g id="edge11" class="edge">
<title>Node2&#45;&gt;Node9</title>
<path fill="none" stroke="midnightblue" d="M366.06,-48C520.43,-48 854.44,-48 1017.76,-48"/>
<polygon fill="midnightblue" stroke="midnightblue" points="1017.79,-51.5 1027.79,-48 1017.79,-44.5 1017.79,-51.5"/>
</g>
<!-- Node10 -->
<g id="node10" class="node">
<title>Node10</title>
<g id="a_node10"><a xlink:href="../../df/dee/a01646.html#a88ad20daf92e92fe0e3925b23c4fecf0" target="_top" xlink:title=" ">
<polygon fill="none" stroke="black" points="404.5,-0.5 404.5,-19.5 562.5,-19.5 562.5,-0.5 404.5,-0.5"/>
<text text-anchor="middle" x="483.5" y="-7.5" font-family="Helvetica,sans-Serif" font-size="10.00">com.cliffc.aa.util.VBitSet.tset</text>
</a>
</g>
</g>
<!-- Node2&#45;&gt;Node10 -->
<g id="edge13" class="edge">
<title>Node2&#45;&gt;Node10</title>
<path fill="none" stroke="midnightblue" d="M362.75,-32.98C382.82,-29.13 404.08,-25.05 423.02,-21.41"/>
<polygon fill="midnightblue" stroke="midnightblue" points="423.83,-24.82 433,-19.5 422.51,-17.95 423.83,-24.82"/>
</g>
<!-- Node4 -->
<g id="node4" class="node">
<title>Node4</title>
<g id="a_node4"><a xlink:href="../../d2/dab/a00886.html#a1763346127b9a8beea93517ce5cc4777" target="_top" xlink:title=" ">
<polygon fill="none" stroke="black" points="601,-76.5 601,-95.5 761,-95.5 761,-76.5 601,-76.5"/>
<text text-anchor="middle" x="681" y="-83.5" font-family="Helvetica,sans-Serif" font-size="10.00">com.cliffc.aa.HM.HM8.T2.find</text>
</a>
</g>
</g>
<!-- Node3&#45;&gt;Node4 -->
<g id="edge3" class="edge">
<title>Node3&#45;&gt;Node4</title>
<path fill="none" stroke="midnightblue" d="M565.15,-86C573.52,-86 582.07,-86 590.53,-86"/>
<polygon fill="midnightblue" stroke="midnightblue" points="590.8,-89.5 600.8,-86 590.8,-82.5 590.8,-89.5"/>
</g>
<!-- Node5 -->
<g id="node5" class="node">
<title>Node5</title>
<g id="a_node5"><a xlink:href="../../d2/dab/a00886.html#a7078e3d719664d1f13ad63f47cd10741" target="_top" xlink:title=" ">
<polygon fill="none" stroke="black" points="797,-76.5 797,-95.5 992,-95.5 992,-76.5 797,-76.5"/>
<text text-anchor="middle" x="894.5" y="-83.5" font-family="Helvetica,sans-Serif" font-size="10.00">com.cliffc.aa.HM.HM8.T2.debug_find</text>
</a>
</g>
</g>
<!-- Node4&#45;&gt;Node5 -->
<g id="edge4" class="edge">
<title>Node4&#45;&gt;Node5</title>
<path fill="none" stroke="midnightblue" d="M761.06,-86C769.4,-86 777.99,-86 786.59,-86"/>
<polygon fill="midnightblue" stroke="midnightblue" points="786.67,-89.5 796.67,-86 786.67,-82.5 786.67,-89.5"/>
</g>
<!-- Node6 -->
<g id="node6" class="node">
<title>Node6</title>
<g id="a_node6"><a xlink:href="../../d2/dab/a00886.html#a7e2bfdeff7e3e9e00d0e3cabdd3aa182" target="_top" xlink:title=" ">
<polygon fill="none" stroke="black" points="1233,-76.5 1233,-95.5 1407,-95.5 1407,-76.5 1233,-76.5"/>
<text text-anchor="middle" x="1320" y="-83.5" font-family="Helvetica,sans-Serif" font-size="10.00">com.cliffc.aa.HM.HM8.T2.is_leaf</text>
</a>
</g>
</g>
<!-- Node4&#45;&gt;Node6 -->
<g id="edge10" class="edge">
<title>Node4&#45;&gt;Node6</title>
<path fill="none" stroke="midnightblue" d="M728.78,-95.51C749.58,-99.28 774.41,-103.15 797,-105 974.2,-119.54 1019.64,-112.31 1197,-100 1209.42,-99.14 1222.52,-97.94 1235.34,-96.61"/>
<polygon fill="midnightblue" stroke="midnightblue" points="1235.98,-100.06 1245.55,-95.51 1235.24,-93.1 1235.98,-100.06"/>
</g>
<!-- Node5&#45;&gt;Node6 -->
<g id="edge5" class="edge">
<title>Node5&#45;&gt;Node6</title>
<path fill="none" stroke="midnightblue" d="M992.13,-86C1061.23,-86 1153.84,-86 1222.84,-86"/>
<polygon fill="midnightblue" stroke="midnightblue" points="1222.85,-89.5 1232.85,-86 1222.85,-82.5 1222.85,-89.5"/>
</g>
<!-- Node5&#45;&gt;Node9 -->
<g id="edge8" class="edge">
<title>Node5&#45;&gt;Node9</title>
<path fill="none" stroke="midnightblue" d="M949.73,-76.46C979.38,-71.24 1016.3,-64.75 1047.38,-59.28"/>
<polygon fill="midnightblue" stroke="midnightblue" points="1048.01,-62.72 1057.25,-57.54 1046.8,-55.83 1048.01,-62.72"/>
</g>
<!-- Node7 -->
<g id="node7" class="node">
<title>Node7</title>
<g id="a_node7"><a xlink:href="../../d2/dab/a00886.html#a3e2b226c9b8b043480a2914cb5d27dc8" target="_top" xlink:title=" ">
<polygon fill="none" stroke="black" points="1443,-76.5 1443,-95.5 1599,-95.5 1599,-76.5 1443,-76.5"/>
<text text-anchor="middle" x="1521" y="-83.5" font-family="Helvetica,sans-Serif" font-size="10.00">com.cliffc.aa.HM.HM8.T2.isa</text>
</a>
</g>
</g>
<!-- Node6&#45;&gt;Node7 -->
<g id="edge6" class="edge">
<title>Node6&#45;&gt;Node7</title>
<path fill="none" stroke="midnightblue" d="M1407.13,-86C1415.57,-86 1424.14,-86 1432.59,-86"/>
<polygon fill="midnightblue" stroke="midnightblue" points="1432.82,-89.5 1442.82,-86 1432.82,-82.5 1432.82,-89.5"/>
</g>
<!-- Node8 -->
<g id="node8" class="node">
<title>Node8</title>
<g id="a_node8"><a xlink:href="../../dd/d55/a01638.html#a3975ba7dca9fe2d6e4992b2b5558f882" target="_top" xlink:title=" ">
<polygon fill="none" stroke="black" points="1635,-76.5 1635,-95.5 1768,-95.5 1768,-76.5 1635,-76.5"/>
<text text-anchor="middle" x="1701.5" y="-83.5" font-family="Helvetica,sans-Serif" font-size="10.00">com.cliffc.aa.util.Util.eq</text>
</a>
</g>
</g>
<!-- Node7&#45;&gt;Node8 -->
<g id="edge7" class="edge">
<title>Node7&#45;&gt;Node8</title>
<path fill="none" stroke="midnightblue" d="M1599.25,-86C1607.69,-86 1616.28,-86 1624.7,-86"/>
<polygon fill="midnightblue" stroke="midnightblue" points="1624.87,-89.5 1634.87,-86 1624.87,-82.5 1624.87,-89.5"/>
</g>
<!-- Node9&#45;&gt;Node6 -->
<g id="edge9" class="edge">
<title>Node9&#45;&gt;Node6</title>
<path fill="none" stroke="midnightblue" d="M1165.09,-57.54C1193.06,-62.71 1227.82,-69.14 1257.23,-74.58"/>
<polygon fill="midnightblue" stroke="midnightblue" points="1256.92,-78.08 1267.39,-76.46 1258.19,-71.2 1256.92,-78.08"/>
</g>
</g>
</svg>
