<?xml version="1.0" encoding="UTF-8" standalone="no"?>
<!DOCTYPE svg PUBLIC "-//W3C//DTD SVG 1.1//EN"
 "http://www.w3.org/Graphics/SVG/1.1/DTD/svg11.dtd">
<!-- Generated by graphviz version 2.43.0 (0)
 -->
<!-- Title: com.cliffc.aa.HM.HM8.T2._fresh Pages: 1 -->
<!--zoomable 285 -->
<svg id="main" version="1.1" xmlns="http://www.w3.org/2000/svg" xmlns:xlink="http://www.w3.org/1999/xlink" xml:space="preserve" onload="init(evt)">
<style type="text/css"><![CDATA[
.edge:hover path { stroke: red; }
.edge:hover polygon { stroke: red; fill: red; }
]]></style>
<script type="text/javascript"><![CDATA[
var edges = document.getElementsByTagName('g');
if (edges && edges.length) {
  for (var i=0;i<edges.length;i++) {
    if (edges[i].id.substr(0,4)=='edge') {
      edges[i].setAttribute('class','edge');
    }
  }
}
]]></script>
        <defs>
                <circle id="rim" cx="0" cy="0" r="7"/>
                <circle id="rim2" cx="0" cy="0" r="3.5"/>
                <g id="zoomPlus">
                        <use xlink:href="#rim" fill="#404040">
                                <set attributeName="fill" to="#808080" begin="zoomplus.mouseover" end="zoomplus.mouseout"/>
                        </use>
                        <path d="M-4,0h8M0,-4v8" fill="none" stroke="white" stroke-width="1.5" pointer-events="none"/>
                </g>
                <g id="zoomMin">
                        <use xlink:href="#rim" fill="#404040">
                                <set attributeName="fill" to="#808080" begin="zoomminus.mouseover" end="zoomminus.mouseout"/>
                        </use>
                        <path d="M-4,0h8" fill="none" stroke="white" stroke-width="1.5" pointer-events="none"/>
                </g>
                <g id="dirArrow">
                        <path fill="none" stroke="white" stroke-width="1.5" d="M0,-3.0v7 M-2.5,-0.5L0,-3.0L2.5,-0.5"/>
                </g>
               <g id="resetDef">
                       <use xlink:href="#rim2" fill="#404040">
                               <set attributeName="fill" to="#808080" begin="reset.mouseover" end="reset.mouseout"/>
                       </use>
               </g>
        </defs>

<script type="text/javascript">
var viewWidth = 2149;
var viewHeight = 285;
var sectionId = 'dynsection-7';
</script>
<script xlink:href="../../svgpan.js"/>
<svg id="graph" class="graph">
<g id="viewport">
<title>com.cliffc.aa.HM.HM8.T2._fresh</title>
<!-- Node1 -->
<g id="node1" class="node">
<title>Node1</title>
<g id="a_node1"><a xlink:title=" ">
<polygon fill="#bfbfbf" stroke="black" points="0,-159.16 0,-189.16 142,-189.16 142,-159.16 0,-159.16"/>
<text text-anchor="start" x="8" y="-177.16" font-family="Helvetica,sans-Serif" font-size="10.00">com.cliffc.aa.HM.HM8.T2.</text>
<text text-anchor="middle" x="71" y="-166.16" font-family="Helvetica,sans-Serif" font-size="10.00">_fresh</text>
</a>
</g>
</g>
<!-- Node1&#45;&gt;Node1 -->
<g id="edge1" class="edge">
<title>Node1&#45;&gt;Node1</title>
<path fill="none" stroke="midnightblue" d="M35.8,-189.32C27.31,-198.72 39.04,-207.66 71,-207.66 90.47,-207.66 102.44,-204.34 106.89,-199.62"/>
<polygon fill="midnightblue" stroke="midnightblue" points="110.36,-199.06 106.2,-189.32 103.38,-199.53 110.36,-199.06"/>
</g>
<!-- Node2 -->
<g id="node2" class="node">
<title>Node2</title>
<g id="a_node2"><a xlink:href="../../d2/dab/a00886.html#abde112b309e2447d0d4012ad2f0b2361" target="_top" xlink:title=" ">
<polygon fill="none" stroke="black" points="775,-145.66 775,-164.66 938,-164.66 938,-145.66 775,-145.66"/>
<text text-anchor="middle" x="856.5" y="-152.66" font-family="Helvetica,sans-Serif" font-size="10.00">com.cliffc.aa.HM.HM8.T2.args</text>
</a>
</g>
</g>
<!-- Node1&#45;&gt;Node2 -->
<g id="edge2" class="edge">
<title>Node1&#45;&gt;Node2</title>
<path fill="none" stroke="midnightblue" d="M142.22,-172.46C284.46,-169.01 606.48,-161.2 764.54,-157.37"/>
<polygon fill="midnightblue" stroke="midnightblue" points="764.79,-160.86 774.71,-157.12 764.63,-153.86 764.79,-160.86"/>
</g>
<!-- Node5 -->
<g id="node5" class="node">
<title>Node5</title>
<g id="a_node5"><a xlink:href="../../d2/dab/a00886.html#a7e2bfdeff7e3e9e00d0e3cabdd3aa182" target="_top" xlink:title=" ">
<polygon fill="none" stroke="black" points="1606,-145.66 1606,-164.66 1780,-164.66 1780,-145.66 1606,-145.66"/>
<text text-anchor="middle" x="1693" y="-152.66" font-family="Helvetica,sans-Serif" font-size="10.00">com.cliffc.aa.HM.HM8.T2.is_leaf</text>
</a>
</g>
</g>
<!-- Node1&#45;&gt;Node5 -->
<g id="edge14" class="edge">
<title>Node1&#45;&gt;Node5</title>
<path fill="none" stroke="midnightblue" d="M87.23,-189.44C106.48,-207.62 141.52,-237.17 178,-250.16 305.95,-295.73 347.18,-269.16 483,-269.16 483,-269.16 483,-269.16 1268.5,-269.16 1421.26,-269.16 1594.7,-199.14 1662.58,-168.85"/>
<polygon fill="midnightblue" stroke="midnightblue" points="1664.14,-171.99 1671.81,-164.68 1661.26,-165.61 1664.14,-171.99"/>
</g>
<!-- Node8 -->
<g id="node8" class="node">
<title>Node8</title>
<g id="a_node8"><a xlink:href="../../d2/dab/a00886.html#ab2e44d28229a2d3cbe52d8c70e7226b2" target="_top" xlink:title=" ">
<polygon fill="none" stroke="black" points="1401,-107.66 1401,-126.66 1570,-126.66 1570,-107.66 1401,-107.66"/>
<text text-anchor="middle" x="1485.5" y="-114.66" font-family="Helvetica,sans-Serif" font-size="10.00">com.cliffc.aa.HM.HM8.T2.no_uf</text>
</a>
</g>
</g>
<!-- Node1&#45;&gt;Node8 -->
<g id="edge17" class="edge">
<title>Node1&#45;&gt;Node8</title>
<path fill="none" stroke="midnightblue" d="M138.88,-159.11C219.89,-142.22 360.72,-117.16 483,-117.16 483,-117.16 483,-117.16 1055,-117.16 1170.66,-117.16 1303.84,-117.16 1390.84,-117.16"/>
<polygon fill="midnightblue" stroke="midnightblue" points="1390.96,-120.66 1400.96,-117.16 1390.96,-113.66 1390.96,-120.66"/>
</g>
<!-- Node9 -->
<g id="node9" class="node">
<title>Node9</title>
<g id="a_node9"><a xlink:href="../../d2/dab/a00886.html#a5675357a3acfa7788c201cac0b8370b4" target="_top" xlink:title=" ">
<polygon fill="none" stroke="black" points="192,-183.66 192,-202.66 357,-202.66 357,-183.66 192,-183.66"/>
<text text-anchor="middle" x="274.5" y="-190.66" font-family="Helvetica,sans-Serif" font-size="10.00">com.cliffc.aa.HM.HM8.T2.copy</text>
</a>
</g>
</g>
<!-- Node1&#45;&gt;Node9 -->
<g id="edge11" class="edge">
<title>Node1&#45;&gt;Node9</title>
<path fill="none" stroke="midnightblue" d="M142.19,-180.78C154.95,-181.98 168.44,-183.25 181.71,-184.5"/>
<polygon fill="midnightblue" stroke="midnightblue" points="181.52,-188 191.81,-185.46 182.18,-181.03 181.52,-188"/>
</g>
<!-- Node11 -->
<g id="node11" class="node">
<title>Node11</title>
<g id="a_node11"><a xlink:href="../../d2/dab/a00886.html#ab7e47d38a21bfa70b5fee3ba7ff4a26f" target="_top" xlink:title=" ">
<polygon fill="none" stroke="black" points="178,-221.66 178,-240.66 371,-240.66 371,-221.66 178,-221.66"/>
<text text-anchor="middle" x="274.5" y="-228.66" font-family="Helvetica,sans-Serif" font-size="10.00">com.cliffc.aa.HM.HM8.T2.make_leaf</text>
</a>
</g>
</g>
<!-- Node1&#45;&gt;Node11 -->
<g id="edge15" class="edge">
<title>Node1&#45;&gt;Node11</title>
<path fill="none" stroke="midnightblue" d="M109.83,-189.26C129.86,-196.86 155.02,-205.79 178,-212.16 187.71,-214.85 198.08,-217.32 208.28,-219.52"/>
<polygon fill="midnightblue" stroke="midnightblue" points="207.87,-223.01 218.38,-221.64 209.31,-216.16 207.87,-223.01"/>
</g>
<!-- Node12 -->
<g id="node12" class="node">
<title>Node12</title>
<g id="a_node12"><a xlink:href="../../d2/dab/a00886.html#ae09c5d13e834bcd915f908ceb7f867f6" target="_top" xlink:title=" ">
<polygon fill="none" stroke="black" points="178.5,-66.66 178.5,-85.66 370.5,-85.66 370.5,-66.66 178.5,-66.66"/>
<text text-anchor="middle" x="274.5" y="-73.66" font-family="Helvetica,sans-Serif" font-size="10.00">com.cliffc.aa.HM.HM8.T2.nongen_in</text>
</a>
</g>
</g>
<!-- Node1&#45;&gt;Node12 -->
<g id="edge18" class="edge">
<title>Node1&#45;&gt;Node12</title>
<path fill="none" stroke="midnightblue" d="M90.45,-159.15C110.8,-143.25 145.02,-118.4 178,-103.16 190.84,-97.23 205.26,-92.32 218.93,-88.4"/>
<polygon fill="midnightblue" stroke="midnightblue" points="220,-91.73 228.72,-85.71 218.15,-84.98 220,-91.73"/>
</g>
<!-- Node3 -->
<g id="node3" class="node">
<title>Node3</title>
<g id="a_node3"><a xlink:href="../../d2/dab/a00886.html#a1763346127b9a8beea93517ce5cc4777" target="_top" xlink:title=" ">
<polygon fill="none" stroke="black" points="974,-145.66 974,-164.66 1134,-164.66 1134,-145.66 974,-145.66"/>
<text text-anchor="middle" x="1054" y="-152.66" font-family="Helvetica,sans-Serif" font-size="10.00">com.cliffc.aa.HM.HM8.T2.find</text>
</a>
</g>
</g>
<!-- Node2&#45;&gt;Node3 -->
<g id="edge3" class="edge">
<title>Node2&#45;&gt;Node3</title>
<path fill="none" stroke="midnightblue" d="M938.15,-155.16C946.52,-155.16 955.07,-155.16 963.53,-155.16"/>
<polygon fill="midnightblue" stroke="midnightblue" points="963.8,-158.66 973.8,-155.16 963.8,-151.66 963.8,-158.66"/>
</g>
<!-- Node4 -->
<g id="node4" class="node">
<title>Node4</title>
<g id="a_node4"><a xlink:href="../../d2/dab/a00886.html#a7078e3d719664d1f13ad63f47cd10741" target="_top" xlink:title=" ">
<polygon fill="none" stroke="black" points="1170,-145.66 1170,-164.66 1365,-164.66 1365,-145.66 1170,-145.66"/>
<text text-anchor="middle" x="1267.5" y="-152.66" font-family="Helvetica,sans-Serif" font-size="10.00">com.cliffc.aa.HM.HM8.T2.debug_find</text>
</a>
</g>
</g>
<!-- Node3&#45;&gt;Node4 -->
<g id="edge4" class="edge">
<title>Node3&#45;&gt;Node4</title>
<path fill="none" stroke="midnightblue" d="M1134.06,-155.16C1142.4,-155.16 1150.99,-155.16 1159.59,-155.16"/>
<polygon fill="midnightblue" stroke="midnightblue" points="1159.67,-158.66 1169.67,-155.16 1159.67,-151.66 1159.67,-158.66"/>
</g>
<!-- Node3&#45;&gt;Node5 -->
<g id="edge10" class="edge">
<title>Node3&#45;&gt;Node5</title>
<path fill="none" stroke="midnightblue" d="M1101.78,-164.67C1122.58,-168.44 1147.41,-172.31 1170,-174.16 1347.2,-188.7 1392.64,-181.47 1570,-169.16 1582.42,-168.3 1595.52,-167.1 1608.34,-165.77"/>
<polygon fill="midnightblue" stroke="midnightblue" points="1608.98,-169.22 1618.55,-164.67 1608.24,-162.26 1608.98,-169.22"/>
</g>
<!-- Node4&#45;&gt;Node5 -->
<g id="edge5" class="edge">
<title>Node4&#45;&gt;Node5</title>
<path fill="none" stroke="midnightblue" d="M1365.13,-155.16C1434.23,-155.16 1526.84,-155.16 1595.84,-155.16"/>
<polygon fill="midnightblue" stroke="midnightblue" points="1595.85,-158.66 1605.85,-155.16 1595.85,-151.66 1595.85,-158.66"/>
</g>
<!-- Node4&#45;&gt;Node8 -->
<g id="edge8" class="edge">
<title>Node4&#45;&gt;Node8</title>
<path fill="none" stroke="midnightblue" d="M1322.73,-145.62C1352.38,-140.4 1389.3,-133.91 1420.38,-128.44"/>
<polygon fill="midnightblue" stroke="midnightblue" points="1421.01,-131.88 1430.25,-126.7 1419.8,-124.99 1421.01,-131.88"/>
</g>
<!-- Node6 -->
<g id="node6" class="node">
<title>Node6</title>
<g id="a_node6"><a xlink:href="../../d2/dab/a00886.html#a3e2b226c9b8b043480a2914cb5d27dc8" target="_top" xlink:title=" ">
<polygon fill="none" stroke="black" points="1816,-145.66 1816,-164.66 1972,-164.66 1972,-145.66 1816,-145.66"/>
<text text-anchor="middle" x="1894" y="-152.66" font-family="Helvetica,sans-Serif" font-size="10.00">com.cliffc.aa.HM.HM8.T2.isa</text>
</a>
</g>
</g>
<!-- Node5&#45;&gt;Node6 -->
<g id="edge6" class="edge">
<title>Node5&#45;&gt;Node6</title>
<path fill="none" stroke="midnightblue" d="M1780.13,-155.16C1788.57,-155.16 1797.14,-155.16 1805.59,-155.16"/>
<polygon fill="midnightblue" stroke="midnightblue" points="1805.82,-158.66 1815.82,-155.16 1805.82,-151.66 1805.82,-158.66"/>
</g>
<!-- Node7 -->
<g id="node7" class="node">
<title>Node7</title>
<g id="a_node7"><a xlink:href="../../dd/d55/a01638.html#a3975ba7dca9fe2d6e4992b2b5558f882" target="_top" xlink:title=" ">
<polygon fill="none" stroke="black" points="2008,-145.66 2008,-164.66 2141,-164.66 2141,-145.66 2008,-145.66"/>
<text text-anchor="middle" x="2074.5" y="-152.66" font-family="Helvetica,sans-Serif" font-size="10.00">com.cliffc.aa.util.Util.eq</text>
</a>
</g>
</g>
<!-- Node6&#45;&gt;Node7 -->
<g id="edge7" class="edge">
<title>Node6&#45;&gt;Node7</title>
<path fill="none" stroke="midnightblue" d="M1972.25,-155.16C1980.69,-155.16 1989.28,-155.16 1997.7,-155.16"/>
<polygon fill="midnightblue" stroke="midnightblue" points="1997.87,-158.66 2007.87,-155.16 1997.87,-151.66 1997.87,-158.66"/>
</g>
<!-- Node8&#45;&gt;Node5 -->
<g id="edge9" class="edge">
<title>Node8&#45;&gt;Node5</title>
<path fill="none" stroke="midnightblue" d="M1538.09,-126.7C1566.06,-131.87 1600.82,-138.3 1630.23,-143.74"/>
<polygon fill="midnightblue" stroke="midnightblue" points="1629.92,-147.24 1640.39,-145.62 1631.19,-140.36 1629.92,-147.24"/>
</g>
<!-- Node10 -->
<g id="node10" class="node">
<title>Node10</title>
<g id="a_node10"><a xlink:href="../../d2/dab/a00886.html#a0a77b74c73f90fb3045d35e43a73db92" target="_top" xlink:title=" ">
<polygon fill="none" stroke="black" points="407,-183.66 407,-202.66 561,-202.66 561,-183.66 407,-183.66"/>
<text text-anchor="middle" x="484" y="-190.66" font-family="Helvetica,sans-Serif" font-size="10.00">com.cliffc.aa.HM.HM8.T2.T2</text>
</a>
</g>
</g>
<!-- Node9&#45;&gt;Node10 -->
<g id="edge12" class="edge">
<title>Node9&#45;&gt;Node10</title>
<path fill="none" stroke="midnightblue" d="M357.21,-193.16C370.1,-193.16 383.46,-193.16 396.45,-193.16"/>
<polygon fill="midnightblue" stroke="midnightblue" points="396.78,-196.66 406.78,-193.16 396.77,-189.66 396.78,-196.66"/>
</g>
<!-- Node10&#45;&gt;Node2 -->
<g id="edge13" class="edge">
<title>Node10&#45;&gt;Node2</title>
<path fill="none" stroke="midnightblue" d="M561.19,-186.47C611.66,-181.91 679.32,-175.56 739,-169.16 748.65,-168.12 758.74,-166.99 768.77,-165.83"/>
<polygon fill="midnightblue" stroke="midnightblue" points="769.24,-169.3 778.77,-164.66 768.43,-162.35 769.24,-169.3"/>
</g>
<!-- Node11&#45;&gt;Node10 -->
<g id="edge16" class="edge">
<title>Node11&#45;&gt;Node10</title>
<path fill="none" stroke="midnightblue" d="M327.59,-221.62C355.96,-216.42 391.24,-209.96 421.02,-204.51"/>
<polygon fill="midnightblue" stroke="midnightblue" points="421.68,-207.95 430.89,-202.7 420.42,-201.06 421.68,-207.95"/>
</g>
<!-- Node13 -->
<g id="node13" class="node">
<title>Node13</title>
<g id="a_node13"><a xlink:href="../../d2/dab/a00886.html#aca39ec91037fce95921e84bdbdedb896" target="_top" xlink:title=" ">
<polygon fill="none" stroke="black" points="413,-58.16 413,-88.16 555,-88.16 555,-58.16 413,-58.16"/>
<text text-anchor="start" x="421" y="-76.16" font-family="Helvetica,sans-Serif" font-size="10.00">com.cliffc.aa.HM.HM8.T2.</text>
<text text-anchor="middle" x="484" y="-65.16" font-family="Helvetica,sans-Serif" font-size="10.00">_nongen_in</text>
</a>
</g>
</g>
<!-- Node12&#45;&gt;Node13 -->
<g id="edge19" class="edge">
<title>Node12&#45;&gt;Node13</title>
<path fill="none" stroke="midnightblue" d="M370.75,-74.78C381.38,-74.63 392.12,-74.47 402.54,-74.32"/>
<polygon fill="midnightblue" stroke="midnightblue" points="402.88,-77.82 412.83,-74.17 402.78,-70.82 402.88,-77.82"/>
</g>
<!-- Node14 -->
<g id="node14" class="node">
<title>Node14</title>
<g id="a_node14"><a xlink:href="../../d2/dab/a00886.html#a3be4e7b7b03ceeb154073a850a957d5e" target="_top" xlink:title=" ">
<polygon fill="none" stroke="black" points="597,-58.16 597,-88.16 739,-88.16 739,-58.16 597,-58.16"/>
<text text-anchor="start" x="605" y="-76.16" font-family="Helvetica,sans-Serif" font-size="10.00">com.cliffc.aa.HM.HM8.T2.</text>
<text text-anchor="middle" x="668" y="-65.16" font-family="Helvetica,sans-Serif" font-size="10.00">_occurs_in_type</text>
</a>
</g>
</g>
<!-- Node13&#45;&gt;Node14 -->
<g id="edge20" class="edge">
<title>Node13&#45;&gt;Node14</title>
<path fill="none" stroke="midnightblue" d="M555.11,-73.16C565.5,-73.16 576.28,-73.16 586.86,-73.16"/>
<polygon fill="midnightblue" stroke="midnightblue" points="586.93,-76.66 596.93,-73.16 586.93,-69.66 586.93,-76.66"/>
</g>
<!-- Node14&#45;&gt;Node2 -->
<g id="edge21" class="edge">
<title>Node14&#45;&gt;Node2</title>
<path fill="none" stroke="midnightblue" d="M703.21,-88.2C737.85,-103.43 790.97,-126.79 824.45,-141.51"/>
<polygon fill="midnightblue" stroke="midnightblue" points="823.18,-144.77 833.75,-145.6 826,-138.37 823.18,-144.77"/>
</g>
<!-- Node14&#45;&gt;Node5 -->
<g id="edge22" class="edge">
<title>Node14&#45;&gt;Node5</title>
<path fill="none" stroke="midnightblue" d="M693.66,-57.95C714.5,-45.93 745.58,-29.93 775,-22.16 894.73,9.48 929.16,-3.16 1053,-3.16 1053,-3.16 1053,-3.16 1268.5,-3.16 1429.74,-3.16 1606.28,-101.97 1668.63,-140.26"/>
<polygon fill="midnightblue" stroke="midnightblue" points="1666.97,-143.35 1677.31,-145.65 1670.66,-137.4 1666.97,-143.35"/>
</g>
<!-- Node14&#45;&gt;Node8 -->
<g id="edge23" class="edge">
<title>Node14&#45;&gt;Node8</title>
<path fill="none" stroke="midnightblue" d="M739.25,-74.48C864.94,-77.22 1136.54,-84.88 1365,-103.16 1376.55,-104.08 1388.7,-105.26 1400.66,-106.55"/>
<polygon fill="midnightblue" stroke="midnightblue" points="1400.32,-110.03 1410.64,-107.65 1401.08,-103.07 1400.32,-110.03"/>
</g>
<!-- Node15 -->
<g id="node15" class="node">
<title>Node15</title>
<g id="a_node15"><a xlink:href="../../df/dee/a01646.html#a88ad20daf92e92fe0e3925b23c4fecf0" target="_top" xlink:title=" ">
<polygon fill="none" stroke="black" points="777.5,-31.66 777.5,-50.66 935.5,-50.66 935.5,-31.66 777.5,-31.66"/>
<text text-anchor="middle" x="856.5" y="-38.66" font-family="Helvetica,sans-Serif" font-size="10.00">com.cliffc.aa.util.VBitSet.tset</text>
</a>
</g>
</g>
<!-- Node14&#45;&gt;Node15 -->
<g id="edge24" class="edge">
<title>Node14&#45;&gt;Node15</title>
<path fill="none" stroke="midnightblue" d="M739.24,-61.11C755.83,-58.26 773.46,-55.24 789.83,-52.43"/>
<polygon fill="midnightblue" stroke="midnightblue" points="790.58,-55.85 799.85,-50.71 789.4,-48.95 790.58,-55.85"/>
</g>
</g>
</svg>
        <g id="navigator" transform="translate(0 0)" fill="#404254">
                <rect fill="#f2f5e9" fill-opacity="0.5" stroke="#606060" stroke-width=".5" x="0" y="0" width="60" height="60"/>
                <use id="zoomplus" xlink:href="#zoomPlus" x="17" y="9" onmousedown="handleZoom(evt,'in')"/>
                <use id="zoomminus" xlink:href="#zoomMin" x="42" y="9" onmousedown="handleZoom(evt,'out')"/>
                <use id="reset" xlink:href="#resetDef" x="30" y="36" onmousedown="handleReset()"/>
                <g id="arrowUp" xlink:href="#dirArrow" transform="translate(30 24)" onmousedown="handlePan(0,-1)">
                  <use xlink:href="#rim" fill="#404040">
                        <set attributeName="fill" to="#808080" begin="arrowUp.mouseover" end="arrowUp.mouseout"/>
                  </use>
                  <path fill="none" stroke="white" stroke-width="1.5" d="M0,-3.0v7 M-2.5,-0.5L0,-3.0L2.5,-0.5"/>
                </g>
                <g id="arrowRight" xlink:href="#dirArrow" transform="rotate(90) translate(36 -43)" onmousedown="handlePan(1,0)">
                  <use xlink:href="#rim" fill="#404040">
                        <set attributeName="fill" to="#808080" begin="arrowRight.mouseover" end="arrowRight.mouseout"/>
                  </use>
                  <path fill="none" stroke="white" stroke-width="1.5" d="M0,-3.0v7 M-2.5,-0.5L0,-3.0L2.5,-0.5"/>
                </g>
                <g id="arrowDown" xlink:href="#dirArrow" transform="rotate(180) translate(-30 -48)" onmousedown="handlePan(0,1)">
                  <use xlink:href="#rim" fill="#404040">
                        <set attributeName="fill" to="#808080" begin="arrowDown.mouseover" end="arrowDown.mouseout"/>
                  </use>
                  <path fill="none" stroke="white" stroke-width="1.5" d="M0,-3.0v7 M-2.5,-0.5L0,-3.0L2.5,-0.5"/>
                </g>
                <g id="arrowLeft" xlink:href="#dirArrow" transform="rotate(270) translate(-36 17)" onmousedown="handlePan(-1,0)">
                  <use xlink:href="#rim" fill="#404040">
                        <set attributeName="fill" to="#808080" begin="arrowLeft.mouseover" end="arrowLeft.mouseout"/>
                  </use>
                  <path fill="none" stroke="white" stroke-width="1.5" d="M0,-3.0v7 M-2.5,-0.5L0,-3.0L2.5,-0.5"/>
                </g>
        </g>
        <svg viewBox="0 0 15 15" width="100%" height="30px" preserveAspectRatio="xMaxYMin meet">
         <g id="arrow_out" transform="scale(0.3 0.3)">
          <a xlink:href="a00886_a1a84b2c03b56e0a0c88d28debfdb24c1_cgraph_org.svg" target="_base">
           <rect id="button" ry="5" rx="5" y="6" x="6" height="38" width="38"
                fill="#f2f5e9" fill-opacity="0.5" stroke="#606060" stroke-width="1.0"/>
           <path id="arrow"
             d="M 11.500037,31.436501 C 11.940474,20.09759 22.043105,11.32322 32.158766,21.979434 L 37.068811,17.246167 C 37.068811,17.246167 37.088388,32 37.088388,32 L 22.160133,31.978069 C 22.160133,31.978069 26.997745,27.140456 26.997745,27.140456 C 18.528582,18.264221 13.291696,25.230495 11.500037,31.436501 z"
             style="fill:#404040;"/>
          </a>
         </g>
        </svg>
</svg>
