<?xml version="1.0" encoding="UTF-8" standalone="no"?>
<!DOCTYPE svg PUBLIC "-//W3C//DTD SVG 1.1//EN"
 "http://www.w3.org/Graphics/SVG/1.1/DTD/svg11.dtd">
<!-- Generated by graphviz version 2.43.0 (0)
 -->
<!-- Title: com.cliffc.aa.HM.HM8.T2._nongen_in Pages: 1 -->
<!--zoomable 159 -->
<svg id="main" version="1.1" xmlns="http://www.w3.org/2000/svg" xmlns:xlink="http://www.w3.org/1999/xlink" xml:space="preserve" onload="init(evt)">
<style type="text/css"><![CDATA[
.edge:hover path { stroke: red; }
.edge:hover polygon { stroke: red; fill: red; }
]]></style>
<script type="text/javascript"><![CDATA[
var edges = document.getElementsByTagName('g');
if (edges && edges.length) {
  for (var i=0;i<edges.length;i++) {
    if (edges[i].id.substr(0,4)=='edge') {
      edges[i].setAttribute('class','edge');
    }
  }
}
]]></script>
        <defs>
                <circle id="rim" cx="0" cy="0" r="7"/>
                <circle id="rim2" cx="0" cy="0" r="3.5"/>
                <g id="zoomPlus">
                        <use xlink:href="#rim" fill="#404040">
                                <set attributeName="fill" to="#808080" begin="zoomplus.mouseover" end="zoomplus.mouseout"/>
                        </use>
                        <path d="M-4,0h8M0,-4v8" fill="none" stroke="white" stroke-width="1.5" pointer-events="none"/>
                </g>
                <g id="zoomMin">
                        <use xlink:href="#rim" fill="#404040">
                                <set attributeName="fill" to="#808080" begin="zoomminus.mouseover" end="zoomminus.mouseout"/>
                        </use>
                        <path d="M-4,0h8" fill="none" stroke="white" stroke-width="1.5" pointer-events="none"/>
                </g>
                <g id="dirArrow">
                        <path fill="none" stroke="white" stroke-width="1.5" d="M0,-3.0v7 M-2.5,-0.5L0,-3.0L2.5,-0.5"/>
                </g>
               <g id="resetDef">
                       <use xlink:href="#rim2" fill="#404040">
                               <set attributeName="fill" to="#808080" begin="reset.mouseover" end="reset.mouseout"/>
                       </use>
               </g>
        </defs>

<script type="text/javascript">
var viewWidth = 1730;
var viewHeight = 159;
var sectionId = 'dynsection-15';
</script>
<script xlink:href="../../svgpan.js"/>
<svg id="graph" class="graph">
<g id="viewport">
<title>com.cliffc.aa.HM.HM8.T2._nongen_in</title>
<!-- Node1 -->
<g id="node1" class="node">
<title>Node1</title>
<g id="a_node1"><a xlink:title=" ">
<polygon fill="#bfbfbf" stroke="black" points="0,-52 0,-82 142,-82 142,-52 0,-52"/>
<text text-anchor="start" x="8" y="-70" font-family="Helvetica,sans-Serif" font-size="10.00">com.cliffc.aa.HM.HM8.T2.</text>
<text text-anchor="middle" x="71" y="-59" font-family="Helvetica,sans-Serif" font-size="10.00">_nongen_in</text>
</a>
</g>
</g>
<!-- Node2 -->
<g id="node2" class="node">
<title>Node2</title>
<g id="a_node2"><a xlink:href="../../d2/dab/a00886.html#a3be4e7b7b03ceeb154073a850a957d5e" target="_top" xlink:title=" ">
<polygon fill="none" stroke="black" points="178,-52 178,-82 320,-82 320,-52 178,-52"/>
<text text-anchor="start" x="186" y="-70" font-family="Helvetica,sans-Serif" font-size="10.00">com.cliffc.aa.HM.HM8.T2.</text>
<text text-anchor="middle" x="249" y="-59" font-family="Helvetica,sans-Serif" font-size="10.00">_occurs_in_type</text>
</a>
</g>
</g>
<!-- Node1&#45;&gt;Node2 -->
<g id="edge1" class="edge">
<title>Node1&#45;&gt;Node2</title>
<path fill="none" stroke="midnightblue" d="M142.07,-67C150.54,-67 159.25,-67 167.85,-67"/>
<polygon fill="midnightblue" stroke="midnightblue" points="167.89,-70.5 177.89,-67 167.89,-63.5 167.89,-70.5"/>
</g>
<!-- Node3 -->
<g id="node3" class="node">
<title>Node3</title>
<g id="a_node3"><a xlink:href="../../d2/dab/a00886.html#abde112b309e2447d0d4012ad2f0b2361" target="_top" xlink:title=" ">
<polygon fill="none" stroke="black" points="356,-114.5 356,-133.5 519,-133.5 519,-114.5 356,-114.5"/>
<text text-anchor="middle" x="437.5" y="-121.5" font-family="Helvetica,sans-Serif" font-size="10.00">com.cliffc.aa.HM.HM8.T2.args</text>
</a>
</g>
</g>
<!-- Node2&#45;&gt;Node3 -->
<g id="edge2" class="edge">
<title>Node2&#45;&gt;Node3</title>
<path fill="none" stroke="midnightblue" d="M297.98,-82.07C316.14,-87.74 337.01,-94.21 356,-100 368.44,-103.79 381.98,-107.85 394.34,-111.54"/>
<polygon fill="midnightblue" stroke="midnightblue" points="393.38,-114.9 403.96,-114.4 395.38,-108.19 393.38,-114.9"/>
</g>
<!-- Node6 -->
<g id="node6" class="node">
<title>Node6</title>
<g id="a_node6"><a xlink:href="../../d2/dab/a00886.html#a7e2bfdeff7e3e9e00d0e3cabdd3aa182" target="_top" xlink:title=" ">
<polygon fill="none" stroke="black" points="1187,-95.5 1187,-114.5 1361,-114.5 1361,-95.5 1187,-95.5"/>
<text text-anchor="middle" x="1274" y="-102.5" font-family="Helvetica,sans-Serif" font-size="10.00">com.cliffc.aa.HM.HM8.T2.is_leaf</text>
</a>
</g>
</g>
<!-- Node2&#45;&gt;Node6 -->
<g id="edge11" class="edge">
<title>Node2&#45;&gt;Node6</title>
<path fill="none" stroke="midnightblue" d="M320.02,-61.45C396.95,-55.85 524.2,-48 634,-48 634,-48 634,-48 849.5,-48 983.77,-48 1018.96,-42.64 1151,-67 1181.3,-72.59 1214.62,-83.3 1238.78,-91.92"/>
<polygon fill="midnightblue" stroke="midnightblue" points="1237.61,-95.23 1248.21,-95.35 1240,-88.65 1237.61,-95.23"/>
</g>
<!-- Node9 -->
<g id="node9" class="node">
<title>Node9</title>
<g id="a_node9"><a xlink:href="../../d2/dab/a00886.html#ab2e44d28229a2d3cbe52d8c70e7226b2" target="_top" xlink:title=" ">
<polygon fill="none" stroke="black" points="982,-76.5 982,-95.5 1151,-95.5 1151,-76.5 982,-76.5"/>
<text text-anchor="middle" x="1066.5" y="-83.5" font-family="Helvetica,sans-Serif" font-size="10.00">com.cliffc.aa.HM.HM8.T2.no_uf</text>
</a>
</g>
</g>
<!-- Node2&#45;&gt;Node9 -->
<g id="edge12" class="edge">
<title>Node2&#45;&gt;Node9</title>
<path fill="none" stroke="midnightblue" d="M320.23,-68.64C467.06,-72.06 806.54,-79.97 971.77,-83.82"/>
<polygon fill="midnightblue" stroke="midnightblue" points="971.83,-87.32 981.91,-84.05 972,-80.32 971.83,-87.32"/>
</g>
<!-- Node10 -->
<g id="node10" class="node">
<title>Node10</title>
<g id="a_node10"><a xlink:href="../../df/dee/a01646.html#a88ad20daf92e92fe0e3925b23c4fecf0" target="_top" xlink:title=" ">
<polygon fill="none" stroke="black" points="358.5,-0.5 358.5,-19.5 516.5,-19.5 516.5,-0.5 358.5,-0.5"/>
<text text-anchor="middle" x="437.5" y="-7.5" font-family="Helvetica,sans-Serif" font-size="10.00">com.cliffc.aa.util.VBitSet.tset</text>
</a>
</g>
</g>
<!-- Node2&#45;&gt;Node10 -->
<g id="edge13" class="edge">
<title>Node2&#45;&gt;Node10</title>
<path fill="none" stroke="midnightblue" d="M297.98,-51.93C316.14,-46.26 337.01,-39.79 356,-34 368.44,-30.21 381.98,-26.15 394.34,-22.46"/>
<polygon fill="midnightblue" stroke="midnightblue" points="395.38,-25.81 403.96,-19.6 393.38,-19.1 395.38,-25.81"/>
</g>
<!-- Node4 -->
<g id="node4" class="node">
<title>Node4</title>
<g id="a_node4"><a xlink:href="../../d2/dab/a00886.html#a1763346127b9a8beea93517ce5cc4777" target="_top" xlink:title=" ">
<polygon fill="none" stroke="black" points="555,-114.5 555,-133.5 715,-133.5 715,-114.5 555,-114.5"/>
<text text-anchor="middle" x="635" y="-121.5" font-family="Helvetica,sans-Serif" font-size="10.00">com.cliffc.aa.HM.HM8.T2.find</text>
</a>
</g>
</g>
<!-- Node3&#45;&gt;Node4 -->
<g id="edge3" class="edge">
<title>Node3&#45;&gt;Node4</title>
<path fill="none" stroke="midnightblue" d="M519.15,-124C527.52,-124 536.07,-124 544.53,-124"/>
<polygon fill="midnightblue" stroke="midnightblue" points="544.8,-127.5 554.8,-124 544.8,-120.5 544.8,-127.5"/>
</g>
<!-- Node5 -->
<g id="node5" class="node">
<title>Node5</title>
<g id="a_node5"><a xlink:href="../../d2/dab/a00886.html#a7078e3d719664d1f13ad63f47cd10741" target="_top" xlink:title=" ">
<polygon fill="none" stroke="black" points="751,-114.5 751,-133.5 946,-133.5 946,-114.5 751,-114.5"/>
<text text-anchor="middle" x="848.5" y="-121.5" font-family="Helvetica,sans-Serif" font-size="10.00">com.cliffc.aa.HM.HM8.T2.debug_find</text>
</a>
</g>
</g>
<!-- Node4&#45;&gt;Node5 -->
<g id="edge4" class="edge">
<title>Node4&#45;&gt;Node5</title>
<path fill="none" stroke="midnightblue" d="M715.06,-124C723.4,-124 731.99,-124 740.59,-124"/>
<polygon fill="midnightblue" stroke="midnightblue" points="740.67,-127.5 750.67,-124 740.67,-120.5 740.67,-127.5"/>
</g>
<!-- Node4&#45;&gt;Node6 -->
<g id="edge10" class="edge">
<title>Node4&#45;&gt;Node6</title>
<path fill="none" stroke="midnightblue" d="M682.78,-133.51C703.58,-137.28 728.41,-141.15 751,-143 928.31,-157.55 974.59,-151.01 1151,-128 1173.41,-125.08 1197.92,-120.69 1219.06,-116.53"/>
<polygon fill="midnightblue" stroke="midnightblue" points="1220.03,-119.91 1229.15,-114.51 1218.65,-113.04 1220.03,-119.91"/>
</g>
<!-- Node5&#45;&gt;Node6 -->
<g id="edge5" class="edge">
<title>Node5&#45;&gt;Node6</title>
<path fill="none" stroke="midnightblue" d="M946.13,-119.66C1015.23,-116.56 1107.84,-112.41 1176.84,-109.31"/>
<polygon fill="midnightblue" stroke="midnightblue" points="1177.01,-112.81 1186.85,-108.87 1176.7,-105.82 1177.01,-112.81"/>
</g>
<!-- Node5&#45;&gt;Node9 -->
<g id="edge8" class="edge">
<title>Node5&#45;&gt;Node9</title>
<path fill="none" stroke="midnightblue" d="M903.73,-114.46C933.38,-109.24 970.3,-102.75 1001.38,-97.28"/>
<polygon fill="midnightblue" stroke="midnightblue" points="1002.01,-100.72 1011.25,-95.54 1000.8,-93.83 1002.01,-100.72"/>
</g>
<!-- Node7 -->
<g id="node7" class="node">
<title>Node7</title>
<g id="a_node7"><a xlink:href="../../d2/dab/a00886.html#a3e2b226c9b8b043480a2914cb5d27dc8" target="_top" xlink:title=" ">
<polygon fill="none" stroke="black" points="1397,-95.5 1397,-114.5 1553,-114.5 1553,-95.5 1397,-95.5"/>
<text text-anchor="middle" x="1475" y="-102.5" font-family="Helvetica,sans-Serif" font-size="10.00">com.cliffc.aa.HM.HM8.T2.isa</text>
</a>
</g>
</g>
<!-- Node6&#45;&gt;Node7 -->
<g id="edge6" class="edge">
<title>Node6&#45;&gt;Node7</title>
<path fill="none" stroke="midnightblue" d="M1361.13,-105C1369.57,-105 1378.14,-105 1386.59,-105"/>
<polygon fill="midnightblue" stroke="midnightblue" points="1386.82,-108.5 1396.82,-105 1386.82,-101.5 1386.82,-108.5"/>
</g>
<!-- Node8 -->
<g id="node8" class="node">
<title>Node8</title>
<g id="a_node8"><a xlink:href="../../dd/d55/a01638.html#a3975ba7dca9fe2d6e4992b2b5558f882" target="_top" xlink:title=" ">
<polygon fill="none" stroke="black" points="1589,-95.5 1589,-114.5 1722,-114.5 1722,-95.5 1589,-95.5"/>
<text text-anchor="middle" x="1655.5" y="-102.5" font-family="Helvetica,sans-Serif" font-size="10.00">com.cliffc.aa.util.Util.eq</text>
</a>
</g>
</g>
<!-- Node7&#45;&gt;Node8 -->
<g id="edge7" class="edge">
<title>Node7&#45;&gt;Node8</title>
<path fill="none" stroke="midnightblue" d="M1553.25,-105C1561.69,-105 1570.28,-105 1578.7,-105"/>
<polygon fill="midnightblue" stroke="midnightblue" points="1578.87,-108.5 1588.87,-105 1578.87,-101.5 1578.87,-108.5"/>
</g>
<!-- Node9&#45;&gt;Node6 -->
<g id="edge9" class="edge">
<title>Node9&#45;&gt;Node6</title>
<path fill="none" stroke="midnightblue" d="M1151.08,-93.73C1159.55,-94.51 1168.2,-95.31 1176.78,-96.1"/>
<polygon fill="midnightblue" stroke="midnightblue" points="1176.54,-99.6 1186.82,-97.03 1177.18,-92.63 1176.54,-99.6"/>
</g>
</g>
</svg>
        <g id="navigator" transform="translate(0 0)" fill="#404254">
                <rect fill="#f2f5e9" fill-opacity="0.5" stroke="#606060" stroke-width=".5" x="0" y="0" width="60" height="60"/>
                <use id="zoomplus" xlink:href="#zoomPlus" x="17" y="9" onmousedown="handleZoom(evt,'in')"/>
                <use id="zoomminus" xlink:href="#zoomMin" x="42" y="9" onmousedown="handleZoom(evt,'out')"/>
                <use id="reset" xlink:href="#resetDef" x="30" y="36" onmousedown="handleReset()"/>
                <g id="arrowUp" xlink:href="#dirArrow" transform="translate(30 24)" onmousedown="handlePan(0,-1)">
                  <use xlink:href="#rim" fill="#404040">
                        <set attributeName="fill" to="#808080" begin="arrowUp.mouseover" end="arrowUp.mouseout"/>
                  </use>
                  <path fill="none" stroke="white" stroke-width="1.5" d="M0,-3.0v7 M-2.5,-0.5L0,-3.0L2.5,-0.5"/>
                </g>
                <g id="arrowRight" xlink:href="#dirArrow" transform="rotate(90) translate(36 -43)" onmousedown="handlePan(1,0)">
                  <use xlink:href="#rim" fill="#404040">
                        <set attributeName="fill" to="#808080" begin="arrowRight.mouseover" end="arrowRight.mouseout"/>
                  </use>
                  <path fill="none" stroke="white" stroke-width="1.5" d="M0,-3.0v7 M-2.5,-0.5L0,-3.0L2.5,-0.5"/>
                </g>
                <g id="arrowDown" xlink:href="#dirArrow" transform="rotate(180) translate(-30 -48)" onmousedown="handlePan(0,1)">
                  <use xlink:href="#rim" fill="#404040">
                        <set attributeName="fill" to="#808080" begin="arrowDown.mouseover" end="arrowDown.mouseout"/>
                  </use>
                  <path fill="none" stroke="white" stroke-width="1.5" d="M0,-3.0v7 M-2.5,-0.5L0,-3.0L2.5,-0.5"/>
                </g>
                <g id="arrowLeft" xlink:href="#dirArrow" transform="rotate(270) translate(-36 17)" onmousedown="handlePan(-1,0)">
                  <use xlink:href="#rim" fill="#404040">
                        <set attributeName="fill" to="#808080" begin="arrowLeft.mouseover" end="arrowLeft.mouseout"/>
                  </use>
                  <path fill="none" stroke="white" stroke-width="1.5" d="M0,-3.0v7 M-2.5,-0.5L0,-3.0L2.5,-0.5"/>
                </g>
        </g>
        <svg viewBox="0 0 15 15" width="100%" height="30px" preserveAspectRatio="xMaxYMin meet">
         <g id="arrow_out" transform="scale(0.3 0.3)">
          <a xlink:href="a00886_aca39ec91037fce95921e84bdbdedb896_cgraph_org.svg" target="_base">
           <rect id="button" ry="5" rx="5" y="6" x="6" height="38" width="38"
                fill="#f2f5e9" fill-opacity="0.5" stroke="#606060" stroke-width="1.0"/>
           <path id="arrow"
             d="M 11.500037,31.436501 C 11.940474,20.09759 22.043105,11.32322 32.158766,21.979434 L 37.068811,17.246167 C 37.068811,17.246167 37.088388,32 37.088388,32 L 22.160133,31.978069 C 22.160133,31.978069 26.997745,27.140456 26.997745,27.140456 C 18.528582,18.264221 13.291696,25.230495 11.500037,31.436501 z"
             style="fill:#404040;"/>
          </a>
         </g>
        </svg>
</svg>
