<?xml version="1.0" encoding="UTF-8" standalone="no"?>
<!DOCTYPE svg PUBLIC "-//W3C//DTD SVG 1.1//EN"
 "http://www.w3.org/Graphics/SVG/1.1/DTD/svg11.dtd">
<!-- Generated by graphviz version 2.43.0 (0)
 -->
<!-- Title: com.cliffc.aa.HM.HM8.T2._cycle_equals_struct Pages: 1 -->
<svg width="1749pt" height="198pt"
 viewBox="0.00 0.00 1749.00 198.00" xmlns="http://www.w3.org/2000/svg" xmlns:xlink="http://www.w3.org/1999/xlink">
<g id="graph0" class="graph" transform="scale(1 1) rotate(0) translate(4 194)">
<title>com.cliffc.aa.HM.HM8.T2._cycle_equals_struct</title>
<!-- Node1 -->
<g id="node1" class="node">
<title>Node1</title>
<g id="a_node1"><a xlink:title=" ">
<polygon fill="#bfbfbf" stroke="black" points="0,-61 0,-91 142,-91 142,-61 0,-61"/>
<text text-anchor="start" x="8" y="-79" font-family="Helvetica,sans-Serif" font-size="10.00">com.cliffc.aa.HM.HM8.T2.</text>
<text text-anchor="middle" x="71" y="-68" font-family="Helvetica,sans-Serif" font-size="10.00">_cycle_equals_struct</text>
</a>
</g>
</g>
<!-- Node2 -->
<g id="node2" class="node">
<title>Node2</title>
<g id="a_node2"><a xlink:href="../../d2/dab/a00886.html#a0dbe2945cba57e5ec41f2a0befd766c5" target="_top" xlink:title=" ">
<polygon fill="none" stroke="black" points="178,-61 178,-91 320,-91 320,-61 178,-61"/>
<text text-anchor="start" x="186" y="-79" font-family="Helvetica,sans-Serif" font-size="10.00">com.cliffc.aa.HM.HM8.T2.</text>
<text text-anchor="middle" x="249" y="-68" font-family="Helvetica,sans-Serif" font-size="10.00">_cycle_equals</text>
</a>
</g>
</g>
<!-- Node1&#45;&gt;Node2 -->
<g id="edge1" class="edge">
<title>Node1&#45;&gt;Node2</title>
<path fill="none" stroke="midnightblue" d="M142.07,-69.38C150.54,-69.26 159.25,-69.22 167.85,-69.27"/>
<polygon fill="midnightblue" stroke="midnightblue" points="167.85,-72.77 177.89,-69.38 167.92,-65.77 167.85,-72.77"/>
</g>
<!-- Node3 -->
<g id="node3" class="node">
<title>Node3</title>
<g id="a_node3"><a xlink:href="../../d2/dab/a00886.html#abde112b309e2447d0d4012ad2f0b2361" target="_top" xlink:title=" ">
<polygon fill="none" stroke="black" points="356,-104.5 356,-123.5 519,-123.5 519,-104.5 356,-104.5"/>
<text text-anchor="middle" x="437.5" y="-111.5" font-family="Helvetica,sans-Serif" font-size="10.00">com.cliffc.aa.HM.HM8.T2.args</text>
</a>
</g>
</g>
<!-- Node1&#45;&gt;Node3 -->
<g id="edge18" class="edge">
<title>Node1&#45;&gt;Node3</title>
<path fill="none" stroke="midnightblue" d="M127.2,-91.02C143.45,-94.89 161.34,-98.64 178,-101 233.36,-108.85 295.97,-112.14 345.71,-113.45"/>
<polygon fill="midnightblue" stroke="midnightblue" points="345.72,-116.95 355.8,-113.69 345.89,-109.95 345.72,-116.95"/>
</g>
<!-- Node11 -->
<g id="node11" class="node">
<title>Node11</title>
<g id="a_node11"><a xlink:href="../../d2/dab/a00886.html#a323d5d9900f7acf223259bc2331bef21" target="_top" xlink:title=" ">
<polygon fill="none" stroke="black" points="362.5,-143 362.5,-173 512.5,-173 512.5,-143 362.5,-143"/>
<text text-anchor="start" x="370.5" y="-161" font-family="Helvetica,sans-Serif" font-size="10.00">com.cliffc.aa.HM.HM8.T2.is</text>
<text text-anchor="middle" x="437.5" y="-150" font-family="Helvetica,sans-Serif" font-size="10.00">_struct</text>
</a>
</g>
</g>
<!-- Node1&#45;&gt;Node11 -->
<g id="edge20" class="edge">
<title>Node1&#45;&gt;Node11</title>
<path fill="none" stroke="midnightblue" d="M102.82,-91.18C123.6,-100.81 151.88,-112.78 178,-120 235.08,-135.78 301.16,-145.35 352.23,-150.93"/>
<polygon fill="midnightblue" stroke="midnightblue" points="351.92,-154.42 362.23,-152 352.66,-147.46 351.92,-154.42"/>
</g>
<!-- Node12 -->
<g id="node12" class="node">
<title>Node12</title>
<g id="a_node12"><a xlink:href="../../dd/d55/a01638.html#abb7b6e1b78b0932ca33088581f5f45c8" target="_top" xlink:title=" ">
<polygon fill="none" stroke="black" points="179.5,-22.5 179.5,-41.5 318.5,-41.5 318.5,-22.5 179.5,-22.5"/>
<text text-anchor="middle" x="249" y="-29.5" font-family="Helvetica,sans-Serif" font-size="10.00">com.cliffc.aa.util.Util.find</text>
</a>
</g>
</g>
<!-- Node1&#45;&gt;Node12 -->
<g id="edge19" class="edge">
<title>Node1&#45;&gt;Node12</title>
<path fill="none" stroke="midnightblue" d="M132.08,-60.98C154.24,-55.44 179.04,-49.24 200,-44"/>
<polygon fill="midnightblue" stroke="midnightblue" points="201.1,-47.33 209.95,-41.51 199.4,-40.54 201.1,-47.33"/>
</g>
<!-- Node2&#45;&gt;Node1 -->
<g id="edge2" class="edge">
<title>Node2&#45;&gt;Node1</title>
<path fill="none" stroke="midnightblue" d="M177.89,-82.62C169.41,-82.74 160.71,-82.78 152.1,-82.73"/>
<polygon fill="midnightblue" stroke="midnightblue" points="152.1,-79.23 142.07,-82.62 152.03,-86.23 152.1,-79.23"/>
</g>
<!-- Node2&#45;&gt;Node3 -->
<g id="edge3" class="edge">
<title>Node2&#45;&gt;Node3</title>
<path fill="none" stroke="midnightblue" d="M320.24,-90.31C339.94,-94.32 361.09,-98.63 379.88,-102.46"/>
<polygon fill="midnightblue" stroke="midnightblue" points="379.27,-105.91 389.76,-104.48 380.66,-99.05 379.27,-105.91"/>
</g>
<!-- Node8 -->
<g id="node8" class="node">
<title>Node8</title>
<g id="a_node8"><a xlink:href="../../dd/d55/a01638.html#a3975ba7dca9fe2d6e4992b2b5558f882" target="_top" xlink:title=" ">
<polygon fill="none" stroke="black" points="1608,-9.5 1608,-28.5 1741,-28.5 1741,-9.5 1608,-9.5"/>
<text text-anchor="middle" x="1674.5" y="-16.5" font-family="Helvetica,sans-Serif" font-size="10.00">com.cliffc.aa.util.Util.eq</text>
</a>
</g>
</g>
<!-- Node2&#45;&gt;Node8 -->
<g id="edge12" class="edge">
<title>Node2&#45;&gt;Node8</title>
<path fill="none" stroke="midnightblue" d="M294.76,-60.96C313.52,-55.05 335.66,-48.6 356,-44 482.08,-15.47 514.23,0 643.5,0 643.5,0 643.5,0 1294,0 1399.43,0 1521.14,-7.41 1597.7,-12.97"/>
<polygon fill="midnightblue" stroke="midnightblue" points="1597.5,-16.46 1607.73,-13.71 1598.02,-9.48 1597.5,-16.46"/>
</g>
<!-- Node9 -->
<g id="node9" class="node">
<title>Node9</title>
<g id="a_node9"><a xlink:href="../../d2/dab/a00886.html#ab2e44d28229a2d3cbe52d8c70e7226b2" target="_top" xlink:title=" ">
<polygon fill="none" stroke="black" points="1001,-66.5 1001,-85.5 1170,-85.5 1170,-66.5 1001,-66.5"/>
<text text-anchor="middle" x="1085.5" y="-73.5" font-family="Helvetica,sans-Serif" font-size="10.00">com.cliffc.aa.HM.HM8.T2.no_uf</text>
</a>
</g>
</g>
<!-- Node2&#45;&gt;Node9 -->
<g id="edge17" class="edge">
<title>Node2&#45;&gt;Node9</title>
<path fill="none" stroke="midnightblue" d="M320.07,-76C469.92,-76 821.61,-76 990.6,-76"/>
<polygon fill="midnightblue" stroke="midnightblue" points="990.72,-79.5 1000.72,-76 990.72,-72.5 990.72,-79.5"/>
</g>
<!-- Node10 -->
<g id="node10" class="node">
<title>Node10</title>
<g id="a_node10"><a xlink:href="../../d2/dab/a00886.html#aa3aef7cadb2d9405371f2bd4929bcc84" target="_top" xlink:title=" ">
<polygon fill="none" stroke="black" points="555,-28.5 555,-47.5 734,-47.5 734,-28.5 555,-28.5"/>
<text text-anchor="middle" x="644.5" y="-35.5" font-family="Helvetica,sans-Serif" font-size="10.00">com.cliffc.aa.HM.HM8.T2.is_base</text>
</a>
</g>
</g>
<!-- Node2&#45;&gt;Node10 -->
<g id="edge13" class="edge">
<title>Node2&#45;&gt;Node10</title>
<path fill="none" stroke="midnightblue" d="M320.08,-66.26C332.05,-64.74 344.37,-63.25 356,-62 418.7,-55.25 489.28,-49.33 544.81,-45.06"/>
<polygon fill="midnightblue" stroke="midnightblue" points="545.29,-48.53 555,-44.28 544.76,-41.56 545.29,-48.53"/>
</g>
<!-- Node2&#45;&gt;Node11 -->
<g id="edge15" class="edge">
<title>Node2&#45;&gt;Node11</title>
<path fill="none" stroke="midnightblue" d="M275.03,-91.24C296.09,-103.62 327.29,-120.96 356,-133 361.45,-135.29 367.18,-137.47 372.96,-139.53"/>
<polygon fill="midnightblue" stroke="midnightblue" points="372.13,-142.95 382.72,-142.88 374.4,-136.32 372.13,-142.95"/>
</g>
<!-- Node4 -->
<g id="node4" class="node">
<title>Node4</title>
<g id="a_node4"><a xlink:href="../../d2/dab/a00886.html#a1763346127b9a8beea93517ce5cc4777" target="_top" xlink:title=" ">
<polygon fill="none" stroke="black" points="564.5,-104.5 564.5,-123.5 724.5,-123.5 724.5,-104.5 564.5,-104.5"/>
<text text-anchor="middle" x="644.5" y="-111.5" font-family="Helvetica,sans-Serif" font-size="10.00">com.cliffc.aa.HM.HM8.T2.find</text>
</a>
</g>
</g>
<!-- Node3&#45;&gt;Node4 -->
<g id="edge4" class="edge">
<title>Node3&#45;&gt;Node4</title>
<path fill="none" stroke="midnightblue" d="M519.23,-114C530.67,-114 542.48,-114 554.08,-114"/>
<polygon fill="midnightblue" stroke="midnightblue" points="554.19,-117.5 564.19,-114 554.19,-110.5 554.19,-117.5"/>
</g>
<!-- Node5 -->
<g id="node5" class="node">
<title>Node5</title>
<g id="a_node5"><a xlink:href="../../d2/dab/a00886.html#a7078e3d719664d1f13ad63f47cd10741" target="_top" xlink:title=" ">
<polygon fill="none" stroke="black" points="770,-104.5 770,-123.5 965,-123.5 965,-104.5 770,-104.5"/>
<text text-anchor="middle" x="867.5" y="-111.5" font-family="Helvetica,sans-Serif" font-size="10.00">com.cliffc.aa.HM.HM8.T2.debug_find</text>
</a>
</g>
</g>
<!-- Node4&#45;&gt;Node5 -->
<g id="edge5" class="edge">
<title>Node4&#45;&gt;Node5</title>
<path fill="none" stroke="midnightblue" d="M724.66,-114C735.97,-114 747.75,-114 759.47,-114"/>
<polygon fill="midnightblue" stroke="midnightblue" points="759.75,-117.5 769.75,-114 759.75,-110.5 759.75,-117.5"/>
</g>
<!-- Node6 -->
<g id="node6" class="node">
<title>Node6</title>
<g id="a_node6"><a xlink:href="../../d2/dab/a00886.html#a7e2bfdeff7e3e9e00d0e3cabdd3aa182" target="_top" xlink:title=" ">
<polygon fill="none" stroke="black" points="1206,-85.5 1206,-104.5 1380,-104.5 1380,-85.5 1206,-85.5"/>
<text text-anchor="middle" x="1293" y="-92.5" font-family="Helvetica,sans-Serif" font-size="10.00">com.cliffc.aa.HM.HM8.T2.is_leaf</text>
</a>
</g>
</g>
<!-- Node4&#45;&gt;Node6 -->
<g id="edge11" class="edge">
<title>Node4&#45;&gt;Node6</title>
<path fill="none" stroke="midnightblue" d="M696.18,-123.51C718.7,-127.28 745.58,-131.15 770,-133 947.39,-146.46 993.59,-141.01 1170,-118 1192.41,-115.08 1216.92,-110.69 1238.06,-106.53"/>
<polygon fill="midnightblue" stroke="midnightblue" points="1239.03,-109.91 1248.15,-104.51 1237.65,-103.04 1239.03,-109.91"/>
</g>
<!-- Node5&#45;&gt;Node6 -->
<g id="edge6" class="edge">
<title>Node5&#45;&gt;Node6</title>
<path fill="none" stroke="midnightblue" d="M965.13,-109.66C1034.23,-106.56 1126.84,-102.41 1195.84,-99.31"/>
<polygon fill="midnightblue" stroke="midnightblue" points="1196.01,-102.81 1205.85,-98.87 1195.7,-95.82 1196.01,-102.81"/>
</g>
<!-- Node5&#45;&gt;Node9 -->
<g id="edge9" class="edge">
<title>Node5&#45;&gt;Node9</title>
<path fill="none" stroke="midnightblue" d="M922.73,-104.46C952.38,-99.24 989.3,-92.75 1020.38,-87.28"/>
<polygon fill="midnightblue" stroke="midnightblue" points="1021.01,-90.72 1030.25,-85.54 1019.8,-83.83 1021.01,-90.72"/>
</g>
<!-- Node7 -->
<g id="node7" class="node">
<title>Node7</title>
<g id="a_node7"><a xlink:href="../../d2/dab/a00886.html#a3e2b226c9b8b043480a2914cb5d27dc8" target="_top" xlink:title=" ">
<polygon fill="none" stroke="black" points="1416,-66.5 1416,-85.5 1572,-85.5 1572,-66.5 1416,-66.5"/>
<text text-anchor="middle" x="1494" y="-73.5" font-family="Helvetica,sans-Serif" font-size="10.00">com.cliffc.aa.HM.HM8.T2.isa</text>
</a>
</g>
</g>
<!-- Node6&#45;&gt;Node7 -->
<g id="edge7" class="edge">
<title>Node6&#45;&gt;Node7</title>
<path fill="none" stroke="midnightblue" d="M1380.13,-86.78C1388.66,-85.96 1397.32,-85.13 1405.87,-84.32"/>
<polygon fill="midnightblue" stroke="midnightblue" points="1406.2,-87.8 1415.82,-83.37 1405.53,-80.84 1406.2,-87.8"/>
</g>
<!-- Node7&#45;&gt;Node8 -->
<g id="edge8" class="edge">
<title>Node7&#45;&gt;Node8</title>
<path fill="none" stroke="midnightblue" d="M1524.88,-66.46C1554.74,-56.92 1600.83,-42.21 1633.76,-31.69"/>
<polygon fill="midnightblue" stroke="midnightblue" points="1635.06,-34.95 1643.53,-28.57 1632.93,-28.28 1635.06,-34.95"/>
</g>
<!-- Node9&#45;&gt;Node6 -->
<g id="edge10" class="edge">
<title>Node9&#45;&gt;Node6</title>
<path fill="none" stroke="midnightblue" d="M1170.08,-83.73C1178.55,-84.51 1187.2,-85.31 1195.78,-86.1"/>
<polygon fill="midnightblue" stroke="midnightblue" points="1195.54,-89.6 1205.82,-87.03 1196.18,-82.63 1195.54,-89.6"/>
</g>
<!-- Node10&#45;&gt;Node7 -->
<g id="edge14" class="edge">
<title>Node10&#45;&gt;Node7</title>
<path fill="none" stroke="midnightblue" d="M734.15,-40.6C838.46,-43.8 1016.87,-49.72 1170,-57 1249.76,-60.79 1340.53,-66.23 1405.49,-70.32"/>
<polygon fill="midnightblue" stroke="midnightblue" points="1405.49,-73.82 1415.69,-70.96 1405.93,-66.84 1405.49,-73.82"/>
</g>
<!-- Node11&#45;&gt;Node7 -->
<g id="edge16" class="edge">
<title>Node11&#45;&gt;Node7</title>
<path fill="none" stroke="midnightblue" d="M512.6,-166.91C597.84,-176.38 742.06,-190 866.5,-190 866.5,-190 866.5,-190 1086.5,-190 1233.25,-190 1399.11,-120.27 1464.42,-89.88"/>
<polygon fill="midnightblue" stroke="midnightblue" points="1466.11,-92.95 1473.66,-85.52 1463.12,-86.62 1466.11,-92.95"/>
</g>
</g>
</svg>
