<?xml version="1.0" encoding="UTF-8" standalone="no"?>
<!DOCTYPE svg PUBLIC "-//W3C//DTD SVG 1.1//EN"
 "http://www.w3.org/Graphics/SVG/1.1/DTD/svg11.dtd">
<!-- Generated by graphviz version 2.43.0 (0)
 -->
<!-- Title: com.cliffc.aa.HM.HM8.T2.copy Pages: 1 -->
<svg width="1765pt" height="60pt"
 viewBox="0.00 0.00 1765.00 60.23" xmlns="http://www.w3.org/2000/svg" xmlns:xlink="http://www.w3.org/1999/xlink">
<g id="graph0" class="graph" transform="scale(1 1) rotate(0) translate(4 56.23)">
<title>com.cliffc.aa.HM.HM8.T2.copy</title>
<!-- Node1 -->
<g id="node1" class="node">
<title>Node1</title>
<g id="a_node1"><a xlink:title=" ">
<polygon fill="#bfbfbf" stroke="black" points="0,-0.5 0,-19.5 165,-19.5 165,-0.5 0,-0.5"/>
<text text-anchor="middle" x="82.5" y="-7.5" font-family="Helvetica,sans-Serif" font-size="10.00">com.cliffc.aa.HM.HM8.T2.copy</text>
</a>
</g>
</g>
<!-- Node2 -->
<g id="node2" class="node">
<title>Node2</title>
<g id="a_node2"><a xlink:href="../../d2/dab/a00886.html#a0a77b74c73f90fb3045d35e43a73db92" target="_top" xlink:title=" ">
<polygon fill="none" stroke="black" points="201,-0.5 201,-19.5 355,-19.5 355,-0.5 201,-0.5"/>
<text text-anchor="middle" x="278" y="-7.5" font-family="Helvetica,sans-Serif" font-size="10.00">com.cliffc.aa.HM.HM8.T2.T2</text>
</a>
</g>
</g>
<!-- Node1&#45;&gt;Node2 -->
<g id="edge1" class="edge">
<title>Node1&#45;&gt;Node2</title>
<path fill="none" stroke="midnightblue" d="M165,-10C173.54,-10 182.24,-10 190.82,-10"/>
<polygon fill="midnightblue" stroke="midnightblue" points="190.84,-13.5 200.84,-10 190.84,-6.5 190.84,-13.5"/>
</g>
<!-- Node3 -->
<g id="node3" class="node">
<title>Node3</title>
<g id="a_node3"><a xlink:href="../../d2/dab/a00886.html#abde112b309e2447d0d4012ad2f0b2361" target="_top" xlink:title=" ">
<polygon fill="none" stroke="black" points="391,-0.5 391,-19.5 554,-19.5 554,-0.5 391,-0.5"/>
<text text-anchor="middle" x="472.5" y="-7.5" font-family="Helvetica,sans-Serif" font-size="10.00">com.cliffc.aa.HM.HM8.T2.args</text>
</a>
</g>
</g>
<!-- Node2&#45;&gt;Node3 -->
<g id="edge2" class="edge">
<title>Node2&#45;&gt;Node3</title>
<path fill="none" stroke="midnightblue" d="M355.08,-10C363.54,-10 372.22,-10 380.84,-10"/>
<polygon fill="midnightblue" stroke="midnightblue" points="380.91,-13.5 390.91,-10 380.91,-6.5 380.91,-13.5"/>
</g>
<!-- Node4 -->
<g id="node4" class="node">
<title>Node4</title>
<g id="a_node4"><a xlink:href="../../d2/dab/a00886.html#a1763346127b9a8beea93517ce5cc4777" target="_top" xlink:title=" ">
<polygon fill="none" stroke="black" points="590,-0.5 590,-19.5 750,-19.5 750,-0.5 590,-0.5"/>
<text text-anchor="middle" x="670" y="-7.5" font-family="Helvetica,sans-Serif" font-size="10.00">com.cliffc.aa.HM.HM8.T2.find</text>
</a>
</g>
</g>
<!-- Node3&#45;&gt;Node4 -->
<g id="edge3" class="edge">
<title>Node3&#45;&gt;Node4</title>
<path fill="none" stroke="midnightblue" d="M554.15,-10C562.52,-10 571.07,-10 579.53,-10"/>
<polygon fill="midnightblue" stroke="midnightblue" points="579.8,-13.5 589.8,-10 579.8,-6.5 579.8,-13.5"/>
</g>
<!-- Node5 -->
<g id="node5" class="node">
<title>Node5</title>
<g id="a_node5"><a xlink:href="../../d2/dab/a00886.html#a7078e3d719664d1f13ad63f47cd10741" target="_top" xlink:title=" ">
<polygon fill="none" stroke="black" points="786,-19.5 786,-38.5 981,-38.5 981,-19.5 786,-19.5"/>
<text text-anchor="middle" x="883.5" y="-26.5" font-family="Helvetica,sans-Serif" font-size="10.00">com.cliffc.aa.HM.HM8.T2.debug_find</text>
</a>
</g>
</g>
<!-- Node4&#45;&gt;Node5 -->
<g id="edge4" class="edge">
<title>Node4&#45;&gt;Node5</title>
<path fill="none" stroke="midnightblue" d="M750.06,-17.1C758.4,-17.85 766.99,-18.62 775.59,-19.4"/>
<polygon fill="midnightblue" stroke="midnightblue" points="775.4,-22.89 785.67,-20.3 776.02,-15.92 775.4,-22.89"/>
</g>
<!-- Node6 -->
<g id="node6" class="node">
<title>Node6</title>
<g id="a_node6"><a xlink:href="../../d2/dab/a00886.html#a7e2bfdeff7e3e9e00d0e3cabdd3aa182" target="_top" xlink:title=" ">
<polygon fill="none" stroke="black" points="1222,-19.5 1222,-38.5 1396,-38.5 1396,-19.5 1222,-19.5"/>
<text text-anchor="middle" x="1309" y="-26.5" font-family="Helvetica,sans-Serif" font-size="10.00">com.cliffc.aa.HM.HM8.T2.is_leaf</text>
</a>
</g>
</g>
<!-- Node4&#45;&gt;Node6 -->
<g id="edge10" class="edge">
<title>Node4&#45;&gt;Node6</title>
<path fill="none" stroke="midnightblue" d="M750.11,-6.22C851.33,-2.25 1032.01,1.92 1186,-10 1206.38,-11.58 1228.51,-14.62 1248.26,-17.81"/>
<polygon fill="midnightblue" stroke="midnightblue" points="1247.9,-21.3 1258.34,-19.49 1249.05,-14.39 1247.9,-21.3"/>
</g>
<!-- Node5&#45;&gt;Node6 -->
<g id="edge5" class="edge">
<title>Node5&#45;&gt;Node6</title>
<path fill="none" stroke="midnightblue" d="M938.46,-38.51C962.43,-42.28 991.04,-46.15 1017,-48 1091.92,-53.34 1111.11,-53.8 1186,-48 1206.38,-46.42 1228.51,-43.38 1248.26,-40.19"/>
<polygon fill="midnightblue" stroke="midnightblue" points="1249.05,-43.61 1258.34,-38.51 1247.9,-36.7 1249.05,-43.61"/>
</g>
<!-- Node9 -->
<g id="node9" class="node">
<title>Node9</title>
<g id="a_node9"><a xlink:href="../../d2/dab/a00886.html#ab2e44d28229a2d3cbe52d8c70e7226b2" target="_top" xlink:title=" ">
<polygon fill="none" stroke="black" points="1017,-19.5 1017,-38.5 1186,-38.5 1186,-19.5 1017,-19.5"/>
<text text-anchor="middle" x="1101.5" y="-26.5" font-family="Helvetica,sans-Serif" font-size="10.00">com.cliffc.aa.HM.HM8.T2.no_uf</text>
</a>
</g>
</g>
<!-- Node5&#45;&gt;Node9 -->
<g id="edge8" class="edge">
<title>Node5&#45;&gt;Node9</title>
<path fill="none" stroke="midnightblue" d="M981.13,-29C989.59,-29 998.15,-29 1006.59,-29"/>
<polygon fill="midnightblue" stroke="midnightblue" points="1006.82,-32.5 1016.82,-29 1006.82,-25.5 1006.82,-32.5"/>
</g>
<!-- Node7 -->
<g id="node7" class="node">
<title>Node7</title>
<g id="a_node7"><a xlink:href="../../d2/dab/a00886.html#a3e2b226c9b8b043480a2914cb5d27dc8" target="_top" xlink:title=" ">
<polygon fill="none" stroke="black" points="1432,-19.5 1432,-38.5 1588,-38.5 1588,-19.5 1432,-19.5"/>
<text text-anchor="middle" x="1510" y="-26.5" font-family="Helvetica,sans-Serif" font-size="10.00">com.cliffc.aa.HM.HM8.T2.isa</text>
</a>
</g>
</g>
<!-- Node6&#45;&gt;Node7 -->
<g id="edge6" class="edge">
<title>Node6&#45;&gt;Node7</title>
<path fill="none" stroke="midnightblue" d="M1396.13,-29C1404.57,-29 1413.14,-29 1421.59,-29"/>
<polygon fill="midnightblue" stroke="midnightblue" points="1421.82,-32.5 1431.82,-29 1421.82,-25.5 1421.82,-32.5"/>
</g>
<!-- Node8 -->
<g id="node8" class="node">
<title>Node8</title>
<g id="a_node8"><a xlink:href="../../dd/d55/a01638.html#a3975ba7dca9fe2d6e4992b2b5558f882" target="_top" xlink:title=" ">
<polygon fill="none" stroke="black" points="1624,-19.5 1624,-38.5 1757,-38.5 1757,-19.5 1624,-19.5"/>
<text text-anchor="middle" x="1690.5" y="-26.5" font-family="Helvetica,sans-Serif" font-size="10.00">com.cliffc.aa.util.Util.eq</text>
</a>
</g>
</g>
<!-- Node7&#45;&gt;Node8 -->
<g id="edge7" class="edge">
<title>Node7&#45;&gt;Node8</title>
<path fill="none" stroke="midnightblue" d="M1588.25,-29C1596.69,-29 1605.28,-29 1613.7,-29"/>
<polygon fill="midnightblue" stroke="midnightblue" points="1613.87,-32.5 1623.87,-29 1613.87,-25.5 1613.87,-32.5"/>
</g>
<!-- Node9&#45;&gt;Node6 -->
<g id="edge9" class="edge">
<title>Node9&#45;&gt;Node6</title>
<path fill="none" stroke="midnightblue" d="M1186.08,-29C1194.55,-29 1203.2,-29 1211.78,-29"/>
<polygon fill="midnightblue" stroke="midnightblue" points="1211.82,-32.5 1221.82,-29 1211.82,-25.5 1211.82,-32.5"/>
</g>
</g>
</svg>
