<?xml version="1.0" encoding="UTF-8" standalone="no"?>
<!DOCTYPE svg PUBLIC "-//W3C//DTD SVG 1.1//EN"
 "http://www.w3.org/Graphics/SVG/1.1/DTD/svg11.dtd">
<!-- Generated by graphviz version 2.43.0 (0)
 -->
<!-- Title: com.cliffc.aa.HM.HM8.T2.union Pages: 1 -->
<svg width="953pt" height="28pt"
 viewBox="0.00 0.00 953.00 28.00" xmlns="http://www.w3.org/2000/svg" xmlns:xlink="http://www.w3.org/1999/xlink">
<g id="graph0" class="graph" transform="scale(1 1) rotate(0) translate(4 24)">
<title>com.cliffc.aa.HM.HM8.T2.union</title>
<!-- Node1 -->
<g id="node1" class="node">
<title>Node1</title>
<g id="a_node1"><a xlink:title=" ">
<polygon fill="#bfbfbf" stroke="black" points="0,-0.5 0,-19.5 169,-19.5 169,-0.5 0,-0.5"/>
<text text-anchor="middle" x="84.5" y="-7.5" font-family="Helvetica,sans-Serif" font-size="10.00">com.cliffc.aa.HM.HM8.T2.union</text>
</a>
</g>
</g>
<!-- Node2 -->
<g id="node2" class="node">
<title>Node2</title>
<g id="a_node2"><a xlink:href="../../d2/dab/a00886.html#ab2e44d28229a2d3cbe52d8c70e7226b2" target="_top" xlink:title=" ">
<polygon fill="none" stroke="black" points="205,-0.5 205,-19.5 374,-19.5 374,-0.5 205,-0.5"/>
<text text-anchor="middle" x="289.5" y="-7.5" font-family="Helvetica,sans-Serif" font-size="10.00">com.cliffc.aa.HM.HM8.T2.no_uf</text>
</a>
</g>
</g>
<!-- Node1&#45;&gt;Node2 -->
<g id="edge1" class="edge">
<title>Node1&#45;&gt;Node2</title>
<path fill="none" stroke="midnightblue" d="M169.24,-10C177.72,-10 186.37,-10 194.94,-10"/>
<polygon fill="midnightblue" stroke="midnightblue" points="194.95,-13.5 204.95,-10 194.95,-6.5 194.95,-13.5"/>
</g>
<!-- Node3 -->
<g id="node3" class="node">
<title>Node3</title>
<g id="a_node3"><a xlink:href="../../d2/dab/a00886.html#a7e2bfdeff7e3e9e00d0e3cabdd3aa182" target="_top" xlink:title=" ">
<polygon fill="none" stroke="black" points="410,-0.5 410,-19.5 584,-19.5 584,-0.5 410,-0.5"/>
<text text-anchor="middle" x="497" y="-7.5" font-family="Helvetica,sans-Serif" font-size="10.00">com.cliffc.aa.HM.HM8.T2.is_leaf</text>
</a>
</g>
</g>
<!-- Node2&#45;&gt;Node3 -->
<g id="edge2" class="edge">
<title>Node2&#45;&gt;Node3</title>
<path fill="none" stroke="midnightblue" d="M374.08,-10C382.55,-10 391.2,-10 399.78,-10"/>
<polygon fill="midnightblue" stroke="midnightblue" points="399.82,-13.5 409.82,-10 399.82,-6.5 399.82,-13.5"/>
</g>
<!-- Node4 -->
<g id="node4" class="node">
<title>Node4</title>
<g id="a_node4"><a xlink:href="../../d2/dab/a00886.html#a3e2b226c9b8b043480a2914cb5d27dc8" target="_top" xlink:title=" ">
<polygon fill="none" stroke="black" points="620,-0.5 620,-19.5 776,-19.5 776,-0.5 620,-0.5"/>
<text text-anchor="middle" x="698" y="-7.5" font-family="Helvetica,sans-Serif" font-size="10.00">com.cliffc.aa.HM.HM8.T2.isa</text>
</a>
</g>
</g>
<!-- Node3&#45;&gt;Node4 -->
<g id="edge3" class="edge">
<title>Node3&#45;&gt;Node4</title>
<path fill="none" stroke="midnightblue" d="M584.13,-10C592.57,-10 601.14,-10 609.59,-10"/>
<polygon fill="midnightblue" stroke="midnightblue" points="609.82,-13.5 619.82,-10 609.82,-6.5 609.82,-13.5"/>
</g>
<!-- Node5 -->
<g id="node5" class="node">
<title>Node5</title>
<g id="a_node5"><a xlink:href="../../dd/d55/a01638.html#a3975ba7dca9fe2d6e4992b2b5558f882" target="_top" xlink:title=" ">
<polygon fill="none" stroke="black" points="812,-0.5 812,-19.5 945,-19.5 945,-0.5 812,-0.5"/>
<text text-anchor="middle" x="878.5" y="-7.5" font-family="Helvetica,sans-Serif" font-size="10.00">com.cliffc.aa.util.Util.eq</text>
</a>
</g>
</g>
<!-- Node4&#45;&gt;Node5 -->
<g id="edge4" class="edge">
<title>Node4&#45;&gt;Node5</title>
<path fill="none" stroke="midnightblue" d="M776.25,-10C784.69,-10 793.28,-10 801.7,-10"/>
<polygon fill="midnightblue" stroke="midnightblue" points="801.87,-13.5 811.87,-10 801.87,-6.5 801.87,-13.5"/>
</g>
</g>
</svg>
