<?xml version="1.0" encoding="UTF-8" standalone="no"?>
<!DOCTYPE svg PUBLIC "-//W3C//DTD SVG 1.1//EN"
 "http://www.w3.org/Graphics/SVG/1.1/DTD/svg11.dtd">
<!-- Generated by graphviz version 2.43.0 (0)
 -->
<!-- Title: com.cliffc.aa.type.TypeInt.init Pages: 1 -->
<svg width="814pt" height="66pt"
 viewBox="0.00 0.00 814.00 66.00" xmlns="http://www.w3.org/2000/svg" xmlns:xlink="http://www.w3.org/1999/xlink">
<g id="graph0" class="graph" transform="scale(1 1) rotate(0) translate(4 62)">
<title>com.cliffc.aa.type.TypeInt.init</title>
<!-- Node1 -->
<g id="node1" class="node">
<title>Node1</title>
<g id="a_node1"><a xlink:title=" ">
<polygon fill="#bfbfbf" stroke="black" points="0,-19.5 0,-38.5 161,-38.5 161,-19.5 0,-19.5"/>
<text text-anchor="middle" x="80.5" y="-26.5" font-family="Helvetica,sans-Serif" font-size="10.00">com.cliffc.aa.type.TypeInt.init</text>
</a>
</g>
</g>
<!-- Node1&#45;&gt;Node1 -->
<g id="edge8" class="edge">
<title>Node1&#45;&gt;Node1</title>
<path fill="none" stroke="midnightblue" d="M50.29,-38.76C35.59,-47.57 45.66,-57 80.5,-57 104.99,-57 117.24,-52.34 117.25,-46.5"/>
<polygon fill="midnightblue" stroke="midnightblue" points="119.83,-44.14 110.71,-38.76 114.49,-48.66 119.83,-44.14"/>
</g>
<!-- Node2 -->
<g id="node2" class="node">
<title>Node2</title>
<g id="a_node2"><a xlink:href="../../d0/d34/a01486.html#a8589b1d0eb95905bc8373a2a6d5d5038" target="_top" xlink:title=" ">
<polygon fill="none" stroke="black" points="197,-38.5 197,-57.5 359,-57.5 359,-38.5 197,-38.5"/>
<text text-anchor="middle" x="278" y="-45.5" font-family="Helvetica,sans-Serif" font-size="10.00">com.cliffc.aa.type.TypeInt.con</text>
</a>
</g>
</g>
<!-- Node1&#45;&gt;Node2 -->
<g id="edge1" class="edge">
<title>Node1&#45;&gt;Node2</title>
<path fill="none" stroke="midnightblue" d="M161.02,-36.73C169.53,-37.56 178.23,-38.4 186.85,-39.24"/>
<polygon fill="midnightblue" stroke="midnightblue" points="186.63,-42.73 196.92,-40.22 187.3,-35.77 186.63,-42.73"/>
</g>
<!-- Node3 -->
<g id="node3" class="node">
<title>Node3</title>
<g id="a_node3"><a xlink:href="../../d0/d34/a01486.html#a32057191cb36ba421014799319c36f44" target="_top" xlink:title=" ">
<polygon fill="none" stroke="black" points="401,-38.5 401,-57.5 561,-57.5 561,-38.5 401,-38.5"/>
<text text-anchor="middle" x="481" y="-45.5" font-family="Helvetica,sans-Serif" font-size="10.00">com.cliffc.aa.type.TypeInt.log</text>
</a>
</g>
</g>
<!-- Node2&#45;&gt;Node3 -->
<g id="edge2" class="edge">
<title>Node2&#45;&gt;Node3</title>
<path fill="none" stroke="midnightblue" d="M359.02,-41.38C369.47,-41.25 380.23,-41.22 390.83,-41.29"/>
<polygon fill="midnightblue" stroke="midnightblue" points="390.88,-44.79 400.91,-41.39 390.95,-37.79 390.88,-44.79"/>
</g>
<!-- Node4 -->
<g id="node4" class="node">
<title>Node4</title>
<g id="a_node4"><a xlink:href="../../d0/d34/a01486.html#a06777eb51a5bf16ede6505e80c1d523d" target="_top" xlink:title=" ">
<polygon fill="none" stroke="black" points="395,-0.5 395,-19.5 567,-19.5 567,-0.5 395,-0.5"/>
<text text-anchor="middle" x="481" y="-7.5" font-family="Helvetica,sans-Serif" font-size="10.00">com.cliffc.aa.type.TypeInt.make</text>
</a>
</g>
</g>
<!-- Node2&#45;&gt;Node4 -->
<g id="edge4" class="edge">
<title>Node2&#45;&gt;Node4</title>
<path fill="none" stroke="midnightblue" d="M304.87,-38.41C325.35,-33.09 355.3,-26.74 384.67,-21.28"/>
<polygon fill="midnightblue" stroke="midnightblue" points="385.38,-24.71 394.59,-19.47 384.12,-17.82 385.38,-24.71"/>
</g>
<!-- Node3&#45;&gt;Node2 -->
<g id="edge3" class="edge">
<title>Node3&#45;&gt;Node2</title>
<path fill="none" stroke="midnightblue" d="M400.91,-54.61C390.48,-54.75 379.72,-54.78 369.12,-54.72"/>
<polygon fill="midnightblue" stroke="midnightblue" points="369.05,-51.22 359.02,-54.62 368.99,-58.22 369.05,-51.22"/>
</g>
<!-- Node4&#45;&gt;Node1 -->
<g id="edge7" class="edge">
<title>Node4&#45;&gt;Node1</title>
<path fill="none" stroke="midnightblue" d="M394.94,-14.06C329.15,-17.19 238.27,-21.53 171.3,-24.72"/>
<polygon fill="midnightblue" stroke="midnightblue" points="171.01,-21.23 161.18,-25.2 171.34,-28.22 171.01,-21.23"/>
</g>
<!-- Node4&#45;&gt;Node2 -->
<g id="edge5" class="edge">
<title>Node4&#45;&gt;Node2</title>
<path fill="none" stroke="midnightblue" d="M454.21,-19.57C432.5,-25.22 400.09,-32.02 369.04,-37.7"/>
<polygon fill="midnightblue" stroke="midnightblue" points="368.24,-34.28 359.02,-39.5 369.48,-41.17 368.24,-34.28"/>
</g>
<!-- Node5 -->
<g id="node5" class="node">
<title>Node5</title>
<g id="a_node5"><a xlink:href="../../d0/de2/a01442.html#a8fe8d556e45e6b654f3ac87f118ac8de" target="_top" xlink:title=" ">
<polygon fill="none" stroke="black" points="603,-0.5 603,-19.5 806,-19.5 806,-0.5 603,-0.5"/>
<text text-anchor="middle" x="704.5" y="-7.5" font-family="Helvetica,sans-Serif" font-size="10.00">com.cliffc.aa.type.Type.hashcons_free</text>
</a>
</g>
</g>
<!-- Node4&#45;&gt;Node5 -->
<g id="edge6" class="edge">
<title>Node4&#45;&gt;Node5</title>
<path fill="none" stroke="midnightblue" d="M567,-10C575.42,-10 584.05,-10 592.68,-10"/>
<polygon fill="midnightblue" stroke="midnightblue" points="592.8,-13.5 602.8,-10 592.8,-6.5 592.8,-13.5"/>
</g>
</g>
</svg>
