<?xml version="1.0" encoding="UTF-8" standalone="no"?>
<!DOCTYPE svg PUBLIC "-//W3C//DTD SVG 1.1//EN"
 "http://www.w3.org/Graphics/SVG/1.1/DTD/svg11.dtd">
<!-- Generated by graphviz version 2.43.0 (0)
 -->
<!-- Title: com.cliffc.aa.HM.HM8.Field.add_work Pages: 1 -->
<svg width="455pt" height="66pt"
 viewBox="0.00 0.00 455.00 66.00" xmlns="http://www.w3.org/2000/svg" xmlns:xlink="http://www.w3.org/1999/xlink">
<g id="graph0" class="graph" transform="scale(1 1) rotate(0) translate(4 62)">
<title>com.cliffc.aa.HM.HM8.Field.add_work</title>
<!-- Node1 -->
<g id="node1" class="node">
<title>Node1</title>
<g id="a_node1"><a xlink:title=" ">
<polygon fill="#bfbfbf" stroke="black" points="0,-19.5 0,-38.5 200,-38.5 200,-19.5 0,-19.5"/>
<text text-anchor="middle" x="100" y="-26.5" font-family="Helvetica,sans-Serif" font-size="10.00">com.cliffc.aa.HM.HM8.Field.add_work</text>
</a>
</g>
</g>
<!-- Node2 -->
<g id="node2" class="node">
<title>Node2</title>
<g id="a_node2"><a xlink:href="../../d6/d2f/a00854.html#a657a057c66d3aee6253dd168de75e460" target="_top" xlink:title=" ">
<polygon fill="none" stroke="black" points="236,-38.5 236,-57.5 447,-57.5 447,-38.5 236,-38.5"/>
<text text-anchor="middle" x="341.5" y="-45.5" font-family="Helvetica,sans-Serif" font-size="10.00">com.cliffc.aa.HM.HM8.Syntax.add_work</text>
</a>
</g>
</g>
<!-- Node1&#45;&gt;Node2 -->
<g id="edge1" class="edge">
<title>Node1&#45;&gt;Node2</title>
<path fill="none" stroke="midnightblue" d="M200.14,-36.87C208.56,-37.53 217.12,-38.21 225.64,-38.89"/>
<polygon fill="midnightblue" stroke="midnightblue" points="225.38,-42.38 235.62,-39.68 225.93,-35.4 225.38,-42.38"/>
</g>
<!-- Node3 -->
<g id="node3" class="node">
<title>Node3</title>
<g id="a_node3"><a xlink:href="../../d0/d11/a00842.html#a5bdda8dcc66d2bc3ea2b8364cfd88ca8" target="_top" xlink:title=" ">
<polygon fill="none" stroke="black" points="245,-0.5 245,-19.5 438,-19.5 438,-0.5 245,-0.5"/>
<text text-anchor="middle" x="341.5" y="-7.5" font-family="Helvetica,sans-Serif" font-size="10.00">com.cliffc.aa.HM.HM8.Worklist.push</text>
</a>
</g>
</g>
<!-- Node1&#45;&gt;Node3 -->
<g id="edge2" class="edge">
<title>Node1&#45;&gt;Node3</title>
<path fill="none" stroke="midnightblue" d="M200.14,-21.13C211.59,-20.23 223.29,-19.3 234.82,-18.38"/>
<polygon fill="midnightblue" stroke="midnightblue" points="235.21,-21.86 244.9,-17.58 234.65,-14.89 235.21,-21.86"/>
</g>
</g>
</svg>
