<?xml version="1.0" encoding="UTF-8" standalone="no"?>
<!DOCTYPE svg PUBLIC "-//W3C//DTD SVG 1.1//EN"
 "http://www.w3.org/Graphics/SVG/1.1/DTD/svg11.dtd">
<!-- Generated by graphviz version 2.43.0 (0)
 -->
<!-- Title: Graphical Class Hierarchy Pages: 1 -->
<svg width="377pt" height="218pt"
 viewBox="0.00 0.00 377.00 218.00" xmlns="http://www.w3.org/2000/svg" xmlns:xlink="http://www.w3.org/1999/xlink">
<g id="graph0" class="graph" transform="scale(1 1) rotate(0) translate(4 214)">
<title>Graphical Class Hierarchy</title>
<!-- Node0 -->
<g id="node1" class="node">
<title>Node0</title>
<g id="a_node1"><a xlink:href="d9/db8/a00658.html" target="_top" xlink:title=" ">
<polygon fill="none" stroke="black" points="0,-95.5 0,-114.5 161,-114.5 161,-95.5 0,-95.5"/>
<text text-anchor="middle" x="80.5" y="-102.5" font-family="Helvetica,sans-Serif" font-size="10.00">com.cliffc.aa.HM.HM4.Syntax</text>
</a>
</g>
</g>
<!-- Node1 -->
<g id="node2" class="node">
<title>Node1</title>
<g id="a_node2"><a xlink:href="d7/dc3/a00682.html" target="_top" xlink:title=" ">
<polygon fill="none" stroke="black" points="205.5,-190.5 205.5,-209.5 360.5,-209.5 360.5,-190.5 205.5,-190.5"/>
<text text-anchor="middle" x="283" y="-197.5" font-family="Helvetica,sans-Serif" font-size="10.00">com.cliffc.aa.HM.HM4.Apply</text>
</a>
</g>
</g>
<!-- Node0&#45;&gt;Node1 -->
<g id="edge1" class="edge">
<title>Node0&#45;&gt;Node1</title>
<path fill="none" stroke="midnightblue" d="M100.7,-120.82C122.65,-138.12 160.32,-165.45 197,-181 206.05,-184.84 215.98,-187.95 225.77,-190.46"/>
<polygon fill="midnightblue" stroke="midnightblue" points="102.82,-118.03 92.82,-114.51 98.44,-123.49 102.82,-118.03"/>
</g>
<!-- Node2 -->
<g id="node3" class="node">
<title>Node2</title>
<g id="a_node3"><a xlink:href="dc/df1/a00662.html" target="_top" xlink:title=" ">
<polygon fill="none" stroke="black" points="210,-152.5 210,-171.5 356,-171.5 356,-152.5 210,-152.5"/>
<text text-anchor="middle" x="283" y="-159.5" font-family="Helvetica,sans-Serif" font-size="10.00">com.cliffc.aa.HM.HM4.Con</text>
</a>
</g>
</g>
<!-- Node0&#45;&gt;Node2 -->
<g id="edge2" class="edge">
<title>Node0&#45;&gt;Node2</title>
<path fill="none" stroke="midnightblue" d="M117.88,-117.98C140.48,-125.8 170.23,-135.62 197,-143 209.39,-146.41 222.92,-149.66 235.48,-152.46"/>
<polygon fill="midnightblue" stroke="midnightblue" points="118.94,-114.65 108.34,-114.66 116.63,-121.26 118.94,-114.65"/>
</g>
<!-- Node3 -->
<g id="node4" class="node">
<title>Node3</title>
<g id="a_node4"><a xlink:href="d9/d41/a00666.html" target="_top" xlink:title=" ">
<polygon fill="none" stroke="black" points="207,-114.5 207,-133.5 359,-133.5 359,-114.5 207,-114.5"/>
<text text-anchor="middle" x="283" y="-121.5" font-family="Helvetica,sans-Serif" font-size="10.00">com.cliffc.aa.HM.HM4.Ident</text>
</a>
</g>
</g>
<!-- Node0&#45;&gt;Node3 -->
<g id="edge3" class="edge">
<title>Node0&#45;&gt;Node3</title>
<path fill="none" stroke="midnightblue" d="M171.01,-113.48C182.97,-114.62 195.13,-115.77 206.81,-116.87"/>
<polygon fill="midnightblue" stroke="midnightblue" points="171.32,-110 161.03,-112.54 170.66,-116.96 171.32,-110"/>
</g>
<!-- Node4 -->
<g id="node5" class="node">
<title>Node4</title>
<g id="a_node5"><a xlink:href="d1/d97/a00670.html" target="_top" xlink:title=" ">
<polygon fill="none" stroke="black" points="200,-76.5 200,-95.5 366,-95.5 366,-76.5 200,-76.5"/>
<text text-anchor="middle" x="283" y="-83.5" font-family="Helvetica,sans-Serif" font-size="10.00">com.cliffc.aa.HM.HM4.Lambda</text>
</a>
</g>
</g>
<!-- Node0&#45;&gt;Node4 -->
<g id="edge4" class="edge">
<title>Node0&#45;&gt;Node4</title>
<path fill="none" stroke="midnightblue" d="M171,-96.52C180.63,-95.61 190.4,-94.68 199.94,-93.78"/>
<polygon fill="midnightblue" stroke="midnightblue" points="170.66,-93.04 161.03,-97.46 171.32,-100 170.66,-93.04"/>
</g>
<!-- Node5 -->
<g id="node6" class="node">
<title>Node5</title>
<g id="a_node6"><a xlink:href="d8/d73/a00674.html" target="_top" xlink:title=" ">
<polygon fill="none" stroke="black" points="197,-38.5 197,-57.5 369,-57.5 369,-38.5 197,-38.5"/>
<text text-anchor="middle" x="283" y="-45.5" font-family="Helvetica,sans-Serif" font-size="10.00">com.cliffc.aa.HM.HM4.Lambda2</text>
</a>
</g>
</g>
<!-- Node0&#45;&gt;Node5 -->
<g id="edge5" class="edge">
<title>Node0&#45;&gt;Node5</title>
<path fill="none" stroke="midnightblue" d="M117.88,-92.02C140.48,-84.2 170.23,-74.38 197,-67 209.39,-63.59 222.92,-60.34 235.48,-57.54"/>
<polygon fill="midnightblue" stroke="midnightblue" points="116.63,-88.74 108.34,-95.34 118.94,-95.35 116.63,-88.74"/>
</g>
<!-- Node6 -->
<g id="node7" class="node">
<title>Node6</title>
<g id="a_node7"><a xlink:href="da/d31/a00678.html" target="_top" xlink:title=" ">
<polygon fill="none" stroke="black" points="212,-0.5 212,-19.5 354,-19.5 354,-0.5 212,-0.5"/>
<text text-anchor="middle" x="283" y="-7.5" font-family="Helvetica,sans-Serif" font-size="10.00">com.cliffc.aa.HM.HM4.Let</text>
</a>
</g>
</g>
<!-- Node0&#45;&gt;Node6 -->
<g id="edge6" class="edge">
<title>Node0&#45;&gt;Node6</title>
<path fill="none" stroke="midnightblue" d="M100.7,-89.18C122.65,-71.88 160.32,-44.55 197,-29 206.05,-25.16 215.98,-22.05 225.77,-19.54"/>
<polygon fill="midnightblue" stroke="midnightblue" points="98.44,-86.51 92.82,-95.49 102.82,-91.97 98.44,-86.51"/>
</g>
</g>
</svg>
