<?xml version="1.0" encoding="UTF-8" standalone="no"?>
<!DOCTYPE svg PUBLIC "-//W3C//DTD SVG 1.1//EN"
 "http://www.w3.org/Graphics/SVG/1.1/DTD/svg11.dtd">
<!-- Generated by graphviz version 2.43.0 (0)
 -->
<!-- Title: com.cliffc.aa.TestParse.test_ptr Pages: 1 -->
<svg width="361pt" height="431pt"
 viewBox="0.00 0.00 361.00 431.00" xmlns="http://www.w3.org/2000/svg" xmlns:xlink="http://www.w3.org/1999/xlink">
<g id="graph0" class="graph" transform="scale(1 1) rotate(0) translate(4 427)">
<title>com.cliffc.aa.TestParse.test_ptr</title>
<!-- Node1 -->
<g id="node1" class="node">
<title>Node1</title>
<g id="a_node1"><a xlink:title=" ">
<polygon fill="#bfbfbf" stroke="black" points="185,-202 185,-221 353,-221 353,-202 185,-202"/>
<text text-anchor="middle" x="269" y="-209" font-family="Helvetica,sans-Serif" font-size="10.00">com.cliffc.aa.TestParse.test_ptr</text>
</a>
</g>
</g>
<!-- Node2 -->
<g id="node2" class="node">
<title>Node2</title>
<g id="a_node2"><a xlink:href="../../d6/d9a/a01710.html#aa243b891be959791de0e3673b95a8bf5" target="_top" xlink:title=" ">
<polygon fill="none" stroke="black" points="0,-392.5 0,-422.5 149,-422.5 149,-392.5 0,-392.5"/>
<text text-anchor="start" x="8" y="-410.5" font-family="Helvetica,sans-Serif" font-size="10.00">com.cliffc.aa.TestParse.test</text>
<text text-anchor="middle" x="74.5" y="-399.5" font-family="Helvetica,sans-Serif" font-size="10.00">Parse</text>
</a>
</g>
</g>
<!-- Node1&#45;&gt;Node2 -->
<g id="edge1" class="edge">
<title>Node1&#45;&gt;Node2</title>
<path fill="none" stroke="midnightblue" d="M259.9,-230.54C243.9,-265.88 204.91,-341.82 149,-383.5 144.37,-386.95 139.23,-389.92 133.86,-392.47"/>
<polygon fill="midnightblue" stroke="midnightblue" points="263.13,-231.89 263.96,-221.33 256.72,-229.07 263.13,-231.89"/>
</g>
<!-- Node3 -->
<g id="node3" class="node">
<title>Node3</title>
<g id="a_node3"><a xlink:href="../../d6/d9a/a01710.html#acb84cd2d7dbb4f03ea500bd0c2f08bcc" target="_top" xlink:title=" ">
<polygon fill="none" stroke="black" points="0,-343.5 0,-373.5 149,-373.5 149,-343.5 0,-343.5"/>
<text text-anchor="start" x="8" y="-361.5" font-family="Helvetica,sans-Serif" font-size="10.00">com.cliffc.aa.TestParse.test</text>
<text text-anchor="middle" x="74.5" y="-350.5" font-family="Helvetica,sans-Serif" font-size="10.00">Parse03</text>
</a>
</g>
</g>
<!-- Node1&#45;&gt;Node3 -->
<g id="edge2" class="edge">
<title>Node1&#45;&gt;Node3</title>
<path fill="none" stroke="midnightblue" d="M255.28,-229.38C235.47,-255.98 194.75,-305.9 149,-334.5 143.54,-337.92 137.54,-340.89 131.4,-343.48"/>
<polygon fill="midnightblue" stroke="midnightblue" points="258.31,-231.16 261.39,-221.02 252.66,-227.03 258.31,-231.16"/>
</g>
<!-- Node4 -->
<g id="node4" class="node">
<title>Node4</title>
<g id="a_node4"><a xlink:href="../../d6/d9a/a01710.html#a543d0a56b9fcd390f76916e568f24dcb" target="_top" xlink:title=" ">
<polygon fill="none" stroke="black" points="0,-294.5 0,-324.5 149,-324.5 149,-294.5 0,-294.5"/>
<text text-anchor="start" x="8" y="-312.5" font-family="Helvetica,sans-Serif" font-size="10.00">com.cliffc.aa.TestParse.test</text>
<text text-anchor="middle" x="74.5" y="-301.5" font-family="Helvetica,sans-Serif" font-size="10.00">Parse04</text>
</a>
</g>
</g>
<!-- Node1&#45;&gt;Node4 -->
<g id="edge3" class="edge">
<title>Node1&#45;&gt;Node4</title>
<path fill="none" stroke="midnightblue" d="M246.66,-226.98C223.51,-243.23 185.02,-268.72 149,-285.5 142.06,-288.73 134.57,-291.71 127.12,-294.4"/>
<polygon fill="midnightblue" stroke="midnightblue" points="248.91,-229.68 255.03,-221.03 244.85,-223.97 248.91,-229.68"/>
</g>
<!-- Node5 -->
<g id="node5" class="node">
<title>Node5</title>
<g id="a_node5"><a xlink:href="../../d6/d9a/a01710.html#aabf6d2a11df411ff766c1ece1895c690" target="_top" xlink:title=" ">
<polygon fill="none" stroke="black" points="0,-245.5 0,-275.5 149,-275.5 149,-245.5 0,-245.5"/>
<text text-anchor="start" x="8" y="-263.5" font-family="Helvetica,sans-Serif" font-size="10.00">com.cliffc.aa.TestParse.test</text>
<text text-anchor="middle" x="74.5" y="-252.5" font-family="Helvetica,sans-Serif" font-size="10.00">Parse06</text>
</a>
</g>
</g>
<!-- Node1&#45;&gt;Node5 -->
<g id="edge4" class="edge">
<title>Node1&#45;&gt;Node5</title>
<path fill="none" stroke="midnightblue" d="M220.46,-223.6C194.5,-230.21 162.14,-238.45 134.57,-245.46"/>
<polygon fill="midnightblue" stroke="midnightblue" points="221.6,-226.92 230.43,-221.06 219.87,-220.14 221.6,-226.92"/>
</g>
<!-- Node6 -->
<g id="node6" class="node">
<title>Node6</title>
<g id="a_node6"><a xlink:href="../../d6/d9a/a01710.html#a065e03a5090218b4a23e51ee69e99249" target="_top" xlink:title=" ">
<polygon fill="none" stroke="black" points="0,-196.5 0,-226.5 149,-226.5 149,-196.5 0,-196.5"/>
<text text-anchor="start" x="8" y="-214.5" font-family="Helvetica,sans-Serif" font-size="10.00">com.cliffc.aa.TestParse.test</text>
<text text-anchor="middle" x="74.5" y="-203.5" font-family="Helvetica,sans-Serif" font-size="10.00">Parse07</text>
</a>
</g>
</g>
<!-- Node1&#45;&gt;Node6 -->
<g id="edge5" class="edge">
<title>Node1&#45;&gt;Node6</title>
<path fill="none" stroke="midnightblue" d="M174.87,-211.5C166.25,-211.5 157.59,-211.5 149.17,-211.5"/>
<polygon fill="midnightblue" stroke="midnightblue" points="174.97,-215 184.97,-211.5 174.97,-208 174.97,-215"/>
</g>
<!-- Node7 -->
<g id="node7" class="node">
<title>Node7</title>
<g id="a_node7"><a xlink:href="../../d6/d9a/a01710.html#a10ef49fd3e4fe1308e539f3ea8630e24" target="_top" xlink:title=" ">
<polygon fill="none" stroke="black" points="0,-147.5 0,-177.5 149,-177.5 149,-147.5 0,-147.5"/>
<text text-anchor="start" x="8" y="-165.5" font-family="Helvetica,sans-Serif" font-size="10.00">com.cliffc.aa.TestParse.test</text>
<text text-anchor="middle" x="74.5" y="-154.5" font-family="Helvetica,sans-Serif" font-size="10.00">Parse08</text>
</a>
</g>
</g>
<!-- Node1&#45;&gt;Node7 -->
<g id="edge6" class="edge">
<title>Node1&#45;&gt;Node7</title>
<path fill="none" stroke="midnightblue" d="M220.46,-199.4C194.5,-192.79 162.14,-184.55 134.57,-177.54"/>
<polygon fill="midnightblue" stroke="midnightblue" points="219.87,-202.86 230.43,-201.94 221.6,-196.08 219.87,-202.86"/>
</g>
<!-- Node8 -->
<g id="node8" class="node">
<title>Node8</title>
<g id="a_node8"><a xlink:href="../../d6/d9a/a01710.html#a341eb120d0a38b18810ac7683c5c8f4a" target="_top" xlink:title=" ">
<polygon fill="none" stroke="black" points="0,-98.5 0,-128.5 149,-128.5 149,-98.5 0,-98.5"/>
<text text-anchor="start" x="8" y="-116.5" font-family="Helvetica,sans-Serif" font-size="10.00">com.cliffc.aa.TestParse.test</text>
<text text-anchor="middle" x="74.5" y="-105.5" font-family="Helvetica,sans-Serif" font-size="10.00">Parse10</text>
</a>
</g>
</g>
<!-- Node1&#45;&gt;Node8 -->
<g id="edge7" class="edge">
<title>Node1&#45;&gt;Node8</title>
<path fill="none" stroke="midnightblue" d="M246.21,-196.08C222.96,-180.12 184.64,-155.24 149,-138.5 141.31,-134.89 132.96,-131.54 124.73,-128.55"/>
<polygon fill="midnightblue" stroke="midnightblue" points="244.42,-199.1 254.63,-201.92 248.41,-193.35 244.42,-199.1"/>
</g>
<!-- Node9 -->
<g id="node9" class="node">
<title>Node9</title>
<g id="a_node9"><a xlink:href="../../d6/d9a/a01710.html#a0a69c838a27bee1b5f8858b56489238e" target="_top" xlink:title=" ">
<polygon fill="none" stroke="black" points="0,-49.5 0,-79.5 149,-79.5 149,-49.5 0,-49.5"/>
<text text-anchor="start" x="8" y="-67.5" font-family="Helvetica,sans-Serif" font-size="10.00">com.cliffc.aa.TestParse.test</text>
<text text-anchor="middle" x="74.5" y="-56.5" font-family="Helvetica,sans-Serif" font-size="10.00">Parse14</text>
</a>
</g>
</g>
<!-- Node1&#45;&gt;Node9 -->
<g id="edge8" class="edge">
<title>Node1&#45;&gt;Node9</title>
<path fill="none" stroke="midnightblue" d="M254.9,-193.45C234.89,-167.07 194.22,-118.03 149,-89.5 142.96,-85.69 136.27,-82.38 129.46,-79.54"/>
<polygon fill="midnightblue" stroke="midnightblue" points="252.32,-195.83 261.1,-201.76 257.93,-191.65 252.32,-195.83"/>
</g>
<!-- Node10 -->
<g id="node10" class="node">
<title>Node10</title>
<g id="a_node10"><a xlink:href="../../d6/d9a/a01710.html#a8fdd95f9dcaaf0d8ace5d5ece4767af5" target="_top" xlink:title=" ">
<polygon fill="none" stroke="black" points="0,-0.5 0,-30.5 149,-30.5 149,-0.5 0,-0.5"/>
<text text-anchor="start" x="8" y="-18.5" font-family="Helvetica,sans-Serif" font-size="10.00">com.cliffc.aa.TestParse.test</text>
<text text-anchor="middle" x="74.5" y="-7.5" font-family="Helvetica,sans-Serif" font-size="10.00">Parse15</text>
</a>
</g>
</g>
<!-- Node1&#45;&gt;Node10 -->
<g id="edge9" class="edge">
<title>Node1&#45;&gt;Node10</title>
<path fill="none" stroke="midnightblue" d="M259.82,-192.64C243.69,-157.61 204.49,-82.28 149,-40.5 143.94,-36.69 138.26,-33.44 132.36,-30.66"/>
<polygon fill="midnightblue" stroke="midnightblue" points="256.63,-194.07 263.91,-201.76 263.01,-191.2 256.63,-194.07"/>
</g>
</g>
</svg>
