<?xml version="1.0" encoding="UTF-8" standalone="no"?>
<!DOCTYPE svg PUBLIC "-//W3C//DTD SVG 1.1//EN"
 "http://www.w3.org/Graphics/SVG/1.1/DTD/svg11.dtd">
<!-- Generated by graphviz version 2.43.0 (0)
 -->
<!-- Title: com.cliffc.aa.node.NewObjNode.create Pages: 1 -->
<svg width="1145pt" height="127pt"
 viewBox="0.00 0.00 1145.00 126.50" xmlns="http://www.w3.org/2000/svg" xmlns:xlink="http://www.w3.org/1999/xlink">
<g id="graph0" class="graph" transform="scale(1 1) rotate(0) translate(4 122.5)">
<title>com.cliffc.aa.node.NewObjNode.create</title>
<!-- Node1 -->
<g id="node1" class="node">
<title>Node1</title>
<g id="a_node1"><a xlink:title=" ">
<polygon fill="#bfbfbf" stroke="black" points="0,-27.5 0,-57.5 147,-57.5 147,-27.5 0,-27.5"/>
<text text-anchor="start" x="8" y="-45.5" font-family="Helvetica,sans-Serif" font-size="10.00">com.cliffc.aa.node.NewObj</text>
<text text-anchor="middle" x="73.5" y="-34.5" font-family="Helvetica,sans-Serif" font-size="10.00">Node.create</text>
</a>
</g>
</g>
<!-- Node2 -->
<g id="node2" class="node">
<title>Node2</title>
<g id="a_node2"><a xlink:href="../../dd/de2/a01134.html#ac708967c3d171fd813493c0948b3b4f1" target="_top" xlink:title=" ">
<polygon fill="none" stroke="black" points="183,-49.5 183,-79.5 330,-79.5 330,-49.5 183,-49.5"/>
<text text-anchor="start" x="191" y="-67.5" font-family="Helvetica,sans-Serif" font-size="10.00">com.cliffc.aa.node.NewObj</text>
<text text-anchor="middle" x="256.5" y="-56.5" font-family="Helvetica,sans-Serif" font-size="10.00">Node.create_active</text>
</a>
</g>
</g>
<!-- Node1&#45;&gt;Node2 -->
<g id="edge1" class="edge">
<title>Node1&#45;&gt;Node2</title>
<path fill="none" stroke="midnightblue" d="M147.08,-51.32C155.56,-52.35 164.26,-53.41 172.87,-54.46"/>
<polygon fill="midnightblue" stroke="midnightblue" points="172.56,-57.94 182.91,-55.68 173.4,-51 172.56,-57.94"/>
</g>
<!-- Node9 -->
<g id="node9" class="node">
<title>Node9</title>
<g id="a_node9"><a xlink:href="../../dd/d55/a01638.html#a3975ba7dca9fe2d6e4992b2b5558f882" target="_top" xlink:title=" ">
<polygon fill="none" stroke="black" points="190,-11 190,-30 323,-30 323,-11 190,-11"/>
<text text-anchor="middle" x="256.5" y="-18" font-family="Helvetica,sans-Serif" font-size="10.00">com.cliffc.aa.util.Util.eq</text>
</a>
</g>
</g>
<!-- Node1&#45;&gt;Node9 -->
<g id="edge8" class="edge">
<title>Node1&#45;&gt;Node9</title>
<path fill="none" stroke="midnightblue" d="M147.08,-33.68C157.81,-32.37 168.89,-31.03 179.69,-29.71"/>
<polygon fill="midnightblue" stroke="midnightblue" points="180.43,-33.15 189.93,-28.47 179.58,-26.2 180.43,-33.15"/>
</g>
<!-- Node3 -->
<g id="node3" class="node">
<title>Node3</title>
<g id="a_node3"><a xlink:href="../../d9/d0a/a00390.html#a195b2b7d0b8f0f1770422573c2cc22ff" target="_top" xlink:title=" ">
<polygon fill="none" stroke="black" points="366,-99 366,-118 539,-118 539,-99 366,-99"/>
<text text-anchor="middle" x="452.5" y="-106" font-family="Helvetica,sans-Serif" font-size="10.00">com.cliffc.aa.GVNGCM.add_flow</text>
</a>
</g>
</g>
<!-- Node2&#45;&gt;Node3 -->
<g id="edge2" class="edge">
<title>Node2&#45;&gt;Node3</title>
<path fill="none" stroke="midnightblue" d="M322.31,-79.52C336.69,-82.83 351.86,-86.3 366,-89.5 376.45,-91.87 387.63,-94.37 398.34,-96.75"/>
<polygon fill="midnightblue" stroke="midnightblue" points="397.91,-100.24 408.43,-99 399.43,-93.41 397.91,-100.24"/>
</g>
<!-- Node7 -->
<g id="node7" class="node">
<title>Node7</title>
<g id="a_node7"><a xlink:href="../../db/d1e/a01126.html#abfa2ad0822153a48e29d17c01e7ed74c" target="_top" xlink:title=" ">
<polygon fill="none" stroke="black" points="374.5,-49.5 374.5,-79.5 530.5,-79.5 530.5,-49.5 374.5,-49.5"/>
<text text-anchor="start" x="382.5" y="-67.5" font-family="Helvetica,sans-Serif" font-size="10.00">com.cliffc.aa.node.NewNode</text>
<text text-anchor="middle" x="452.5" y="-56.5" font-family="Helvetica,sans-Serif" font-size="10.00">&lt; TypeStruct &gt;::def_idx</text>
</a>
</g>
</g>
<!-- Node2&#45;&gt;Node7 -->
<g id="edge6" class="edge">
<title>Node2&#45;&gt;Node7</title>
<path fill="none" stroke="midnightblue" d="M330.01,-64.5C341.06,-64.5 352.55,-64.5 363.87,-64.5"/>
<polygon fill="midnightblue" stroke="midnightblue" points="364.2,-68 374.2,-64.5 364.2,-61 364.2,-68"/>
</g>
<!-- Node8 -->
<g id="node8" class="node">
<title>Node8</title>
<g id="a_node8"><a xlink:href="../../db/d1e/a01126.html#a4669b24e380cd534fab6667d635fcd1f" target="_top" xlink:title=" ">
<polygon fill="none" stroke="black" points="374.5,-0.5 374.5,-30.5 530.5,-30.5 530.5,-0.5 374.5,-0.5"/>
<text text-anchor="start" x="382.5" y="-18.5" font-family="Helvetica,sans-Serif" font-size="10.00">com.cliffc.aa.node.NewNode</text>
<text text-anchor="middle" x="452.5" y="-7.5" font-family="Helvetica,sans-Serif" font-size="10.00">&lt; TypeStruct &gt;::setsm</text>
</a>
</g>
</g>
<!-- Node2&#45;&gt;Node8 -->
<g id="edge7" class="edge">
<title>Node2&#45;&gt;Node8</title>
<path fill="none" stroke="midnightblue" d="M317.02,-49.47C337.6,-44.27 360.84,-38.4 382.13,-33.02"/>
<polygon fill="midnightblue" stroke="midnightblue" points="383.25,-36.35 392.09,-30.51 381.54,-29.56 383.25,-36.35"/>
</g>
<!-- Node4 -->
<g id="node4" class="node">
<title>Node4</title>
<g id="a_node4"><a xlink:href="../../d9/d0a/a00390.html#a6074ca566ae10e746122ac8d09239d02" target="_top" xlink:title=" ">
<polygon fill="none" stroke="black" points="575,-99 575,-118 752,-118 752,-99 575,-99"/>
<text text-anchor="middle" x="663.5" y="-106" font-family="Helvetica,sans-Serif" font-size="10.00">com.cliffc.aa.GVNGCM.add_work</text>
</a>
</g>
</g>
<!-- Node3&#45;&gt;Node4 -->
<g id="edge3" class="edge">
<title>Node3&#45;&gt;Node4</title>
<path fill="none" stroke="midnightblue" d="M539.11,-108.5C547.62,-108.5 556.3,-108.5 564.92,-108.5"/>
<polygon fill="midnightblue" stroke="midnightblue" points="564.99,-112 574.99,-108.5 564.99,-105 564.99,-112"/>
</g>
<!-- Node5 -->
<g id="node5" class="node">
<title>Node5</title>
<g id="a_node5"><a xlink:href="../../d6/d2f/a01394.html#acc21c59313a6ce5c286431fd2d4fd891" target="_top" xlink:title=" ">
<polygon fill="none" stroke="black" points="788,-99 788,-118 943,-118 943,-99 788,-99"/>
<text text-anchor="middle" x="865.5" y="-106" font-family="Helvetica,sans-Serif" font-size="10.00">com.cliffc.aa.node.Work.add</text>
</a>
</g>
</g>
<!-- Node4&#45;&gt;Node5 -->
<g id="edge4" class="edge">
<title>Node4&#45;&gt;Node5</title>
<path fill="none" stroke="midnightblue" d="M752.22,-108.5C760.65,-108.5 769.2,-108.5 777.63,-108.5"/>
<polygon fill="midnightblue" stroke="midnightblue" points="777.82,-112 787.82,-108.5 777.82,-105 777.82,-112"/>
</g>
<!-- Node6 -->
<g id="node6" class="node">
<title>Node6</title>
<g id="a_node6"><a xlink:href="../../df/dee/a01646.html#a88ad20daf92e92fe0e3925b23c4fecf0" target="_top" xlink:title=" ">
<polygon fill="none" stroke="black" points="979,-99 979,-118 1137,-118 1137,-99 979,-99"/>
<text text-anchor="middle" x="1058" y="-106" font-family="Helvetica,sans-Serif" font-size="10.00">com.cliffc.aa.util.VBitSet.tset</text>
</a>
</g>
</g>
<!-- Node5&#45;&gt;Node6 -->
<g id="edge5" class="edge">
<title>Node5&#45;&gt;Node6</title>
<path fill="none" stroke="midnightblue" d="M943.16,-108.5C951.63,-108.5 960.31,-108.5 968.9,-108.5"/>
<polygon fill="midnightblue" stroke="midnightblue" points="968.94,-112 978.94,-108.5 968.94,-105 968.94,-112"/>
</g>
</g>
</svg>
