<?xml version="1.0" encoding="UTF-8" standalone="no"?>
<!DOCTYPE svg PUBLIC "-//W3C//DTD SVG 1.1//EN"
 "http://www.w3.org/Graphics/SVG/1.1/DTD/svg11.dtd">
<!-- Generated by graphviz version 2.43.0 (0)
 -->
<!-- Title: com.cliffc.aa.HM.HM4.Let.prep_tree_lookup Pages: 1 -->
<svg width="568pt" height="88pt"
 viewBox="0.00 0.00 568.00 88.00" xmlns="http://www.w3.org/2000/svg" xmlns:xlink="http://www.w3.org/1999/xlink">
<g id="graph0" class="graph" transform="scale(1 1) rotate(0) translate(4 84)">
<title>com.cliffc.aa.HM.HM4.Let.prep_tree_lookup</title>
<!-- Node1 -->
<g id="node1" class="node">
<title>Node1</title>
<g id="a_node1"><a xlink:title=" ">
<polygon fill="#bfbfbf" stroke="black" points="0,-36 0,-66 167,-66 167,-36 0,-36"/>
<text text-anchor="start" x="8" y="-54" font-family="Helvetica,sans-Serif" font-size="10.00">com.cliffc.aa.HM.HM4.Let.prep</text>
<text text-anchor="middle" x="83.5" y="-43" font-family="Helvetica,sans-Serif" font-size="10.00">_tree_lookup</text>
</a>
</g>
</g>
<!-- Node2 -->
<g id="node2" class="node">
<title>Node2</title>
<g id="a_node2"><a xlink:href="../../dd/d55/a01638.html#a3975ba7dca9fe2d6e4992b2b5558f882" target="_top" xlink:title=" ">
<polygon fill="none" stroke="black" points="220,-60.5 220,-79.5 353,-79.5 353,-60.5 220,-60.5"/>
<text text-anchor="middle" x="286.5" y="-67.5" font-family="Helvetica,sans-Serif" font-size="10.00">com.cliffc.aa.util.Util.eq</text>
</a>
</g>
</g>
<!-- Node1&#45;&gt;Node2 -->
<g id="edge1" class="edge">
<title>Node1&#45;&gt;Node2</title>
<path fill="none" stroke="midnightblue" d="M167.12,-58.81C181.24,-60.14 195.84,-61.52 209.77,-62.84"/>
<polygon fill="midnightblue" stroke="midnightblue" points="209.48,-66.33 219.77,-63.79 210.14,-59.36 209.48,-66.33"/>
</g>
<!-- Node3 -->
<g id="node3" class="node">
<title>Node3</title>
<g id="a_node3"><a xlink:href="../../df/d9e/a00686.html#a62a13b67e6f1d4f26a51f3055315372f" target="_top" xlink:title=" ">
<polygon fill="none" stroke="black" points="203,-22.5 203,-41.5 370,-41.5 370,-22.5 203,-22.5"/>
<text text-anchor="middle" x="286.5" y="-29.5" font-family="Helvetica,sans-Serif" font-size="10.00">com.cliffc.aa.HM.HM4.T2.fresh</text>
</a>
</g>
</g>
<!-- Node1&#45;&gt;Node3 -->
<g id="edge2" class="edge">
<title>Node1&#45;&gt;Node3</title>
<path fill="none" stroke="midnightblue" d="M167.12,-43.19C175.61,-42.39 184.27,-41.57 192.85,-40.76"/>
<polygon fill="midnightblue" stroke="midnightblue" points="193.25,-44.24 202.87,-39.81 192.59,-37.27 193.25,-44.24"/>
</g>
<!-- Node4 -->
<g id="node4" class="node">
<title>Node4</title>
<g id="a_node4"><a xlink:href="../../df/d9e/a00686.html#a59001ede07de8e1ed5fe6e18d7b6ec5d" target="_top" xlink:title=" ">
<polygon fill="none" stroke="black" points="408,-39 408,-69 558,-69 558,-39 408,-39"/>
<text text-anchor="start" x="416" y="-57" font-family="Helvetica,sans-Serif" font-size="10.00">com.cliffc.aa.HM.HM4.T2.is</text>
<text text-anchor="middle" x="483" y="-46" font-family="Helvetica,sans-Serif" font-size="10.00">_fresh</text>
</a>
</g>
</g>
<!-- Node3&#45;&gt;Node4 -->
<g id="edge3" class="edge">
<title>Node3&#45;&gt;Node4</title>
<path fill="none" stroke="midnightblue" d="M370.27,-41.36C379.36,-42.39 388.62,-43.44 397.73,-44.47"/>
<polygon fill="midnightblue" stroke="midnightblue" points="397.6,-47.98 407.93,-45.62 398.38,-41.02 397.6,-47.98"/>
</g>
<!-- Node5 -->
<g id="node5" class="node">
<title>Node5</title>
<g id="a_node5"><a xlink:href="../../df/d9e/a00686.html#aabdf74cfdeefb79633b05011d50ce690" target="_top" xlink:title=" ">
<polygon fill="none" stroke="black" points="406,-0.5 406,-19.5 560,-19.5 560,-0.5 406,-0.5"/>
<text text-anchor="middle" x="483" y="-7.5" font-family="Helvetica,sans-Serif" font-size="10.00">com.cliffc.aa.HM.HM4.T2.T2</text>
</a>
</g>
</g>
<!-- Node3&#45;&gt;Node5 -->
<g id="edge4" class="edge">
<title>Node3&#45;&gt;Node5</title>
<path fill="none" stroke="midnightblue" d="M370.27,-22.64C378.65,-21.69 387.17,-20.73 395.59,-19.77"/>
<polygon fill="midnightblue" stroke="midnightblue" points="396.24,-23.22 405.79,-18.62 395.46,-16.27 396.24,-23.22"/>
</g>
</g>
</svg>
