<?xml version="1.0" encoding="UTF-8" standalone="no"?>
<!DOCTYPE svg PUBLIC "-//W3C//DTD SVG 1.1//EN"
 "http://www.w3.org/Graphics/SVG/1.1/DTD/svg11.dtd">
<!-- Generated by graphviz version 2.43.0 (0)
 -->
<!-- Title: com.cliffc.aa.type.BitsAlias.make_impl Pages: 1 -->
<svg width="394pt" height="78pt"
 viewBox="0.00 0.00 394.00 77.50" xmlns="http://www.w3.org/2000/svg" xmlns:xlink="http://www.w3.org/1999/xlink">
<g id="graph0" class="graph" transform="scale(1 1) rotate(0) translate(4 73.5)">
<title>com.cliffc.aa.type.BitsAlias.make_impl</title>
<!-- Node1 -->
<g id="node1" class="node">
<title>Node1</title>
<g id="a_node1"><a xlink:title=" ">
<polygon fill="#bfbfbf" stroke="black" points="0,-22.5 0,-41.5 206,-41.5 206,-22.5 0,-22.5"/>
<text text-anchor="middle" x="103" y="-29.5" font-family="Helvetica,sans-Serif" font-size="10.00">com.cliffc.aa.type.BitsAlias.make_impl</text>
</a>
</g>
</g>
<!-- Node2 -->
<g id="node2" class="node">
<title>Node2</title>
<g id="a_node2"><a xlink:href="../../d4/d3c/a01418.html#a7f11b23f944c2131ac82e79055c9181a" target="_top" xlink:title=" ">
<polygon fill="none" stroke="black" points="251.5,-39 251.5,-69 376.5,-69 376.5,-39 251.5,-39"/>
<text text-anchor="start" x="259.5" y="-57" font-family="Helvetica,sans-Serif" font-size="10.00">com.cliffc.aa.type.Bits</text>
<text text-anchor="middle" x="314" y="-46" font-family="Helvetica,sans-Serif" font-size="10.00">&lt; BitsAlias &gt;::bits</text>
</a>
</g>
</g>
<!-- Node1&#45;&gt;Node2 -->
<g id="edge1" class="edge">
<title>Node1&#45;&gt;Node2</title>
<path fill="none" stroke="midnightblue" d="M194.45,-41.52C210.05,-43.16 226.07,-44.85 241.1,-46.43"/>
<polygon fill="midnightblue" stroke="midnightblue" points="241.01,-49.94 251.32,-47.51 241.74,-42.98 241.01,-49.94"/>
</g>
<!-- Node3 -->
<g id="node3" class="node">
<title>Node3</title>
<g id="a_node3"><a xlink:href="../../d4/d3c/a01418.html#a1fb8142f754b84f43244a38fd2b3b174" target="_top" xlink:title=" ">
<polygon fill="none" stroke="black" points="242,-0.5 242,-19.5 386,-19.5 386,-0.5 242,-0.5"/>
<text text-anchor="middle" x="314" y="-7.5" font-family="Helvetica,sans-Serif" font-size="10.00">com.cliffc.aa.type.Bits.init</text>
</a>
</g>
</g>
<!-- Node1&#45;&gt;Node3 -->
<g id="edge2" class="edge">
<title>Node1&#45;&gt;Node3</title>
<path fill="none" stroke="midnightblue" d="M194.45,-22.48C206.87,-21.17 219.55,-19.84 231.78,-18.55"/>
<polygon fill="midnightblue" stroke="midnightblue" points="232.35,-22.01 241.93,-17.48 231.62,-15.05 232.35,-22.01"/>
</g>
</g>
</svg>
