<?xml version="1.0" encoding="UTF-8" standalone="no"?>
<!DOCTYPE svg PUBLIC "-//W3C//DTD SVG 1.1//EN"
 "http://www.w3.org/Graphics/SVG/1.1/DTD/svg11.dtd">
<!-- Generated by graphviz version 2.43.0 (0)
 -->
<!-- Title: com.cliffc.aa.HM.HM1.HMType.occurs_in Pages: 1 -->
<svg width="710pt" height="104pt"
 viewBox="0.00 0.00 710.00 104.00" xmlns="http://www.w3.org/2000/svg" xmlns:xlink="http://www.w3.org/1999/xlink">
<g id="graph0" class="graph" transform="scale(1 1) rotate(0) translate(4 100)">
<title>com.cliffc.aa.HM.HM1.HMType.occurs_in</title>
<!-- Node1 -->
<g id="node1" class="node">
<title>Node1</title>
<g id="a_node1"><a xlink:title=" ">
<polygon fill="#bfbfbf" stroke="black" points="0,-19.5 0,-38.5 215,-38.5 215,-19.5 0,-19.5"/>
<text text-anchor="middle" x="107.5" y="-26.5" font-family="Helvetica,sans-Serif" font-size="10.00">com.cliffc.aa.HM.HM1.HMType.occurs_in</text>
</a>
</g>
</g>
<!-- Node2 -->
<g id="node2" class="node">
<title>Node2</title>
<g id="a_node2"><a xlink:href="../../de/de7/a00550.html#abdc447bc2053d2c35df4471b8f3d0cd7" target="_top" xlink:title=" ">
<polygon fill="none" stroke="black" points="251,-14 251,-44 451,-44 451,-14 251,-14"/>
<text text-anchor="start" x="259" y="-32" font-family="Helvetica,sans-Serif" font-size="10.00">com.cliffc.aa.HM.HM1.HMType.occurs</text>
<text text-anchor="middle" x="351" y="-21" font-family="Helvetica,sans-Serif" font-size="10.00">_in_type</text>
</a>
</g>
</g>
<!-- Node1&#45;&gt;Node2 -->
<g id="edge1" class="edge">
<title>Node1&#45;&gt;Node2</title>
<path fill="none" stroke="midnightblue" d="M215.13,-29C223.57,-29 232.11,-29 240.57,-29"/>
<polygon fill="midnightblue" stroke="midnightblue" points="240.85,-32.5 250.85,-29 240.85,-25.5 240.85,-32.5"/>
</g>
<!-- Node3 -->
<g id="node3" class="node">
<title>Node3</title>
<g id="a_node3"><a xlink:href="../../de/de7/a00550.html#ab7fc971e10019db9b20e0673e8af5dbe" target="_top" xlink:title=" ">
<polygon fill="none" stroke="black" points="501,-76.5 501,-95.5 688,-95.5 688,-76.5 501,-76.5"/>
<text text-anchor="middle" x="594.5" y="-83.5" font-family="Helvetica,sans-Serif" font-size="10.00">com.cliffc.aa.HM.HM1.HMType.find</text>
</a>
</g>
</g>
<!-- Node2&#45;&gt;Node3 -->
<g id="edge2" class="edge">
<title>Node2&#45;&gt;Node3</title>
<path fill="none" stroke="midnightblue" d="M401.07,-44.06C426.55,-51.56 458.28,-60.41 487,-67 498.99,-69.75 511.81,-72.34 524.26,-74.66"/>
<polygon fill="midnightblue" stroke="midnightblue" points="523.68,-78.11 534.14,-76.47 524.94,-71.23 523.68,-78.11"/>
</g>
<!-- Node4 -->
<g id="node4" class="node">
<title>Node4</title>
<g id="a_node4"><a xlink:href="../../de/de7/a00550.html#aee929ac1ca2d3c9ddf06649503acb289" target="_top" xlink:title=" ">
<polygon fill="none" stroke="black" points="495.5,-38.5 495.5,-57.5 693.5,-57.5 693.5,-38.5 495.5,-38.5"/>
<text text-anchor="middle" x="594.5" y="-45.5" font-family="Helvetica,sans-Serif" font-size="10.00">com.cliffc.aa.HM.HM1.HMType.is_top</text>
</a>
</g>
</g>
<!-- Node2&#45;&gt;Node4 -->
<g id="edge3" class="edge">
<title>Node2&#45;&gt;Node4</title>
<path fill="none" stroke="midnightblue" d="M451.27,-36.81C462.43,-37.69 473.84,-38.59 485.1,-39.47"/>
<polygon fill="midnightblue" stroke="midnightblue" points="485.15,-42.99 495.39,-40.28 485.7,-36.01 485.15,-42.99"/>
</g>
<!-- Node5 -->
<g id="node5" class="node">
<title>Node5</title>
<g id="a_node5"><a xlink:href="../../de/de7/a00550.html#ab6c09fcdc5e955d56e2c796458467ae6" target="_top" xlink:title=" ">
<polygon fill="none" stroke="black" points="487,-0.5 487,-19.5 702,-19.5 702,-0.5 487,-0.5"/>
<text text-anchor="middle" x="594.5" y="-7.5" font-family="Helvetica,sans-Serif" font-size="10.00">com.cliffc.aa.HM.HM1.HMType.occurs_in</text>
</a>
</g>
</g>
<!-- Node2&#45;&gt;Node5 -->
<g id="edge4" class="edge">
<title>Node2&#45;&gt;Node5</title>
<path fill="none" stroke="midnightblue" d="M451.27,-14.54C459.69,-13.8 468.25,-13.09 476.78,-12.44"/>
<polygon fill="midnightblue" stroke="midnightblue" points="477.06,-15.92 486.77,-11.69 476.54,-8.94 477.06,-15.92"/>
</g>
<!-- Node5&#45;&gt;Node2 -->
<g id="edge5" class="edge">
<title>Node5&#45;&gt;Node2</title>
<path fill="none" stroke="midnightblue" d="M543.48,-19.53C519.62,-22.29 490.06,-25 461.37,-27.12"/>
<polygon fill="midnightblue" stroke="midnightblue" points="461,-23.64 451.27,-27.84 461.5,-30.62 461,-23.64"/>
</g>
</g>
</svg>
