<?xml version="1.0" encoding="UTF-8" standalone="no"?>
<!DOCTYPE svg PUBLIC "-//W3C//DTD SVG 1.1//EN"
 "http://www.w3.org/Graphics/SVG/1.1/DTD/svg11.dtd">
<!-- Generated by graphviz version 2.43.0 (0)
 -->
<!-- Title: com.cliffc.aa.type.TypeTuple.make_from_arg Pages: 1 -->
<!--zoomable 314 -->
<svg id="main" version="1.1" xmlns="http://www.w3.org/2000/svg" xmlns:xlink="http://www.w3.org/1999/xlink" xml:space="preserve" onload="init(evt)">
<style type="text/css"><![CDATA[
.edge:hover path { stroke: red; }
.edge:hover polygon { stroke: red; fill: red; }
]]></style>
<script type="text/javascript"><![CDATA[
var edges = document.getElementsByTagName('g');
if (edges && edges.length) {
  for (var i=0;i<edges.length;i++) {
    if (edges[i].id.substr(0,4)=='edge') {
      edges[i].setAttribute('class','edge');
    }
  }
}
]]></script>
        <defs>
                <circle id="rim" cx="0" cy="0" r="7"/>
                <circle id="rim2" cx="0" cy="0" r="3.5"/>
                <g id="zoomPlus">
                        <use xlink:href="#rim" fill="#404040">
                                <set attributeName="fill" to="#808080" begin="zoomplus.mouseover" end="zoomplus.mouseout"/>
                        </use>
                        <path d="M-4,0h8M0,-4v8" fill="none" stroke="white" stroke-width="1.5" pointer-events="none"/>
                </g>
                <g id="zoomMin">
                        <use xlink:href="#rim" fill="#404040">
                                <set attributeName="fill" to="#808080" begin="zoomminus.mouseover" end="zoomminus.mouseout"/>
                        </use>
                        <path d="M-4,0h8" fill="none" stroke="white" stroke-width="1.5" pointer-events="none"/>
                </g>
                <g id="dirArrow">
                        <path fill="none" stroke="white" stroke-width="1.5" d="M0,-3.0v7 M-2.5,-0.5L0,-3.0L2.5,-0.5"/>
                </g>
               <g id="resetDef">
                       <use xlink:href="#rim2" fill="#404040">
                               <set attributeName="fill" to="#808080" begin="reset.mouseover" end="reset.mouseout"/>
                       </use>
               </g>
        </defs>

<script type="text/javascript">
var viewWidth = 1632;
var viewHeight = 314;
var sectionId = 'dynsection-31';
</script>
<script xlink:href="../../svgpan.js"/>
<svg id="graph" class="graph">
<g id="viewport">
<title>com.cliffc.aa.type.TypeTuple.make_from_arg</title>
<!-- Node1 -->
<g id="node1" class="node">
<title>Node1</title>
<g id="a_node1"><a xlink:title=" ">
<polygon fill="#bfbfbf" stroke="black" points="0,-0.5 0,-30.5 185,-30.5 185,-0.5 0,-0.5"/>
<text text-anchor="start" x="8" y="-18.5" font-family="Helvetica,sans-Serif" font-size="10.00">com.cliffc.aa.type.TypeTuple.make</text>
<text text-anchor="middle" x="92.5" y="-7.5" font-family="Helvetica,sans-Serif" font-size="10.00">_from_arg</text>
</a>
</g>
</g>
<!-- Node2 -->
<g id="node2" class="node">
<title>Node2</title>
<g id="a_node2"><a xlink:href="../../dc/d47/a01510.html#a32afa8e2041f9a7e23aaa00de0e0f57f" target="_top" xlink:title=" ">
<polygon fill="none" stroke="black" points="869,-25 869,-44 1033,-44 1033,-25 869,-25"/>
<text text-anchor="middle" x="951" y="-32" font-family="Helvetica,sans-Serif" font-size="10.00">com.cliffc.aa.type.Types.clone</text>
</a>
</g>
</g>
<!-- Node1&#45;&gt;Node2 -->
<g id="edge1" class="edge">
<title>Node1&#45;&gt;Node2</title>
<path fill="none" stroke="midnightblue" d="M185.16,-17.53C349.91,-21.19 694.19,-28.83 858.68,-32.47"/>
<polygon fill="midnightblue" stroke="midnightblue" points="858.7,-35.98 868.78,-32.7 858.86,-28.98 858.7,-35.98"/>
</g>
<!-- Node9 -->
<g id="node9" class="node">
<title>Node9</title>
<g id="a_node9"><a xlink:href="../../d7/d90/a01530.html#a81ed2204609a5aec7317ef0a06ce8429" target="_top" xlink:title=" ">
<polygon fill="none" stroke="black" points="221,-123 221,-142 412,-142 412,-123 221,-123"/>
<text text-anchor="middle" x="316.5" y="-130" font-family="Helvetica,sans-Serif" font-size="10.00">com.cliffc.aa.type.TypeTuple.make0</text>
</a>
</g>
</g>
<!-- Node1&#45;&gt;Node9 -->
<g id="edge11" class="edge">
<title>Node1&#45;&gt;Node9</title>
<path fill="none" stroke="midnightblue" d="M122.07,-30.56C165.18,-53.28 246.31,-96.03 288.48,-118.26"/>
<polygon fill="midnightblue" stroke="midnightblue" points="286.87,-121.37 297.35,-122.94 290.14,-115.18 286.87,-121.37"/>
</g>
<!-- Node3 -->
<g id="node3" class="node">
<title>Node3</title>
<g id="a_node3"><a xlink:href="../../dc/d47/a01510.html#ae85b20de55899d48bb869a55a8e3d753" target="_top" xlink:title=" ">
<polygon fill="none" stroke="black" points="1251,-120 1251,-139 1417,-139 1417,-120 1251,-120"/>
<text text-anchor="middle" x="1334" y="-127" font-family="Helvetica,sans-Serif" font-size="10.00">com.cliffc.aa.type.Types.check</text>
</a>
</g>
</g>
<!-- Node2&#45;&gt;Node3 -->
<g id="edge2" class="edge">
<title>Node2&#45;&gt;Node3</title>
<path fill="none" stroke="midnightblue" d="M994.95,-44.05C1047.13,-55.79 1137.77,-76.61 1215,-96.5 1240.1,-102.97 1268.04,-110.75 1290.42,-117.14"/>
<polygon fill="midnightblue" stroke="midnightblue" points="1289.71,-120.57 1300.29,-119.96 1291.64,-113.84 1289.71,-120.57"/>
</g>
<!-- Node5 -->
<g id="node5" class="node">
<title>Node5</title>
<g id="a_node5"><a xlink:href="../../dc/d47/a01510.html#a59ae02bf35b3fe500c1d1093e941b082" target="_top" xlink:title=" ">
<polygon fill="none" stroke="black" points="1257.5,-158 1257.5,-177 1410.5,-177 1410.5,-158 1257.5,-158"/>
<text text-anchor="middle" x="1334" y="-165" font-family="Helvetica,sans-Serif" font-size="10.00">com.cliffc.aa.type.Types.get</text>
</a>
</g>
</g>
<!-- Node2&#45;&gt;Node5 -->
<g id="edge4" class="edge">
<title>Node2&#45;&gt;Node5</title>
<path fill="none" stroke="midnightblue" d="M998.16,-44.01C1009.99,-47.55 1022.37,-52.28 1033,-58.5 1052.26,-69.78 1049.49,-82.67 1069,-93.5 1127.44,-125.92 1152.54,-105.73 1215,-129.5 1231.91,-135.94 1234.05,-142.18 1251,-148.5 1257.95,-151.09 1265.37,-153.4 1272.8,-155.44"/>
<polygon fill="midnightblue" stroke="midnightblue" points="1271.97,-158.84 1282.53,-157.96 1273.72,-152.06 1271.97,-158.84"/>
</g>
<!-- Node6 -->
<g id="node6" class="node">
<title>Node6</title>
<g id="a_node6"><a xlink:href="../../dc/d47/a01510.html#af601d8f31e72d4f191068352752b4d43" target="_top" xlink:title=" ">
<polygon fill="none" stroke="black" points="1255.5,-25 1255.5,-44 1412.5,-44 1412.5,-25 1255.5,-25"/>
<text text-anchor="middle" x="1334" y="-32" font-family="Helvetica,sans-Serif" font-size="10.00">com.cliffc.aa.type.Types.tary</text>
</a>
</g>
</g>
<!-- Node2&#45;&gt;Node6 -->
<g id="edge5" class="edge">
<title>Node2&#45;&gt;Node6</title>
<path fill="none" stroke="midnightblue" d="M1033.27,-34.5C1095.6,-34.5 1181.51,-34.5 1245.38,-34.5"/>
<polygon fill="midnightblue" stroke="midnightblue" points="1245.44,-38 1255.44,-34.5 1245.44,-31 1245.44,-38"/>
</g>
<!-- Node8 -->
<g id="node8" class="node">
<title>Node8</title>
<g id="a_node8"><a xlink:href="../../dc/d47/a01510.html#aa115d584cb2586147c60f206d002d611" target="_top" xlink:title=" ">
<polygon fill="none" stroke="black" points="1069,-139 1069,-158 1215,-158 1215,-139 1069,-139"/>
<text text-anchor="middle" x="1142" y="-146" font-family="Helvetica,sans-Serif" font-size="10.00">com.cliffc.aa.type.Types.ts</text>
</a>
</g>
</g>
<!-- Node2&#45;&gt;Node8 -->
<g id="edge7" class="edge">
<title>Node2&#45;&gt;Node8</title>
<path fill="none" stroke="midnightblue" d="M1005.92,-44.03C1015.62,-47.46 1025.13,-52.14 1033,-58.5 1058.99,-79.5 1043.37,-103.06 1069,-124.5 1073.97,-128.66 1079.7,-132.11 1085.7,-134.96"/>
<polygon fill="midnightblue" stroke="midnightblue" points="1084.71,-138.35 1095.29,-138.98 1087.41,-131.89 1084.71,-138.35"/>
</g>
<!-- Node4 -->
<g id="node4" class="node">
<title>Node4</title>
<g id="a_node4"><a xlink:href="../../dc/d47/a01510.html#a8315cf29307cc36137f05d9629f5ed52" target="_top" xlink:title=" ">
<polygon fill="none" stroke="black" points="1453,-120 1453,-139 1624,-139 1624,-120 1453,-120"/>
<text text-anchor="middle" x="1538.5" y="-127" font-family="Helvetica,sans-Serif" font-size="10.00">com.cliffc.aa.type.Types.check_</text>
</a>
</g>
</g>
<!-- Node3&#45;&gt;Node4 -->
<g id="edge3" class="edge">
<title>Node3&#45;&gt;Node4</title>
<path fill="none" stroke="midnightblue" d="M1417.07,-129.5C1425.41,-129.5 1433.93,-129.5 1442.4,-129.5"/>
<polygon fill="midnightblue" stroke="midnightblue" points="1442.67,-133 1452.67,-129.5 1442.67,-126 1442.67,-133"/>
</g>
<!-- Node7 -->
<g id="node7" class="node">
<title>Node7</title>
<g id="a_node7"><a xlink:href="../../dc/d47/a01510.html#a59a89150cac8ee6302775579cb5977c8" target="_top" xlink:title=" ">
<polygon fill="none" stroke="black" points="1470,-19.5 1470,-49.5 1607,-49.5 1607,-19.5 1470,-19.5"/>
<text text-anchor="start" x="1478" y="-37.5" font-family="Helvetica,sans-Serif" font-size="10.00">com.cliffc.aa.type.Types.</text>
<text text-anchor="middle" x="1538.5" y="-26.5" font-family="Helvetica,sans-Serif" font-size="10.00">Types</text>
</a>
</g>
</g>
<!-- Node6&#45;&gt;Node7 -->
<g id="edge6" class="edge">
<title>Node6&#45;&gt;Node7</title>
<path fill="none" stroke="midnightblue" d="M1412.71,-34.5C1428.18,-34.5 1444.41,-34.5 1459.87,-34.5"/>
<polygon fill="midnightblue" stroke="midnightblue" points="1459.9,-38 1469.9,-34.5 1459.9,-31 1459.9,-38"/>
</g>
<!-- Node8&#45;&gt;Node3 -->
<g id="edge8" class="edge">
<title>Node8&#45;&gt;Node3</title>
<path fill="none" stroke="midnightblue" d="M1215.1,-141.29C1223.48,-140.45 1232.11,-139.59 1240.7,-138.73"/>
<polygon fill="midnightblue" stroke="midnightblue" points="1241.16,-142.2 1250.77,-137.72 1240.47,-135.24 1241.16,-142.2"/>
</g>
<!-- Node8&#45;&gt;Node5 -->
<g id="edge9" class="edge">
<title>Node8&#45;&gt;Node5</title>
<path fill="none" stroke="midnightblue" d="M1215.1,-155.71C1225.6,-156.76 1236.5,-157.85 1247.24,-158.92"/>
<polygon fill="midnightblue" stroke="midnightblue" points="1247.17,-162.43 1257.47,-159.95 1247.87,-155.47 1247.17,-162.43"/>
</g>
<!-- Node8&#45;&gt;Node6 -->
<g id="edge10" class="edge">
<title>Node8&#45;&gt;Node6</title>
<path fill="none" stroke="midnightblue" d="M1158.87,-138.98C1191.98,-119.11 1268.62,-73.13 1308.26,-49.34"/>
<polygon fill="midnightblue" stroke="midnightblue" points="1310.26,-52.22 1317.04,-44.08 1306.66,-46.22 1310.26,-52.22"/>
</g>
<!-- Node10 -->
<g id="node10" class="node">
<title>Node10</title>
<g id="a_node10"><a xlink:href="../../dc/d47/a01510.html#aeb95b59869f5978b8c19ba7f371f2502" target="_top" xlink:title=" ">
<polygon fill="none" stroke="black" points="448,-104 448,-123 636,-123 636,-104 448,-104"/>
<text text-anchor="middle" x="542" y="-111" font-family="Helvetica,sans-Serif" font-size="10.00">com.cliffc.aa.type.Types.hash_cons</text>
</a>
</g>
</g>
<!-- Node9&#45;&gt;Node10 -->
<g id="edge12" class="edge">
<title>Node9&#45;&gt;Node10</title>
<path fill="none" stroke="midnightblue" d="M412.28,-124.44C420.75,-123.72 429.35,-122.99 437.88,-122.27"/>
<polygon fill="midnightblue" stroke="midnightblue" points="438.18,-125.75 447.85,-121.42 437.59,-118.78 438.18,-125.75"/>
</g>
<!-- Node15 -->
<g id="node15" class="node">
<title>Node15</title>
<g id="a_node15"><a xlink:href="../../d7/d90/a01530.html#a4e94486f858a347a30f5a30966292479" target="_top" xlink:title=" ">
<polygon fill="none" stroke="black" points="449.5,-142 449.5,-161 634.5,-161 634.5,-142 449.5,-142"/>
<text text-anchor="middle" x="542" y="-149" font-family="Helvetica,sans-Serif" font-size="10.00">com.cliffc.aa.type.TypeTuple.make</text>
</a>
</g>
</g>
<!-- Node9&#45;&gt;Node15 -->
<g id="edge22" class="edge">
<title>Node9&#45;&gt;Node15</title>
<path fill="none" stroke="midnightblue" d="M412.28,-133.88C436.93,-135.77 462.71,-138.2 484.67,-140.76"/>
<polygon fill="midnightblue" stroke="midnightblue" points="484.44,-144.26 494.79,-141.98 485.28,-137.31 484.44,-144.26"/>
</g>
<!-- Node10&#45;&gt;Node3 -->
<g id="edge13" class="edge">
<title>Node10&#45;&gt;Node3</title>
<path fill="none" stroke="midnightblue" d="M616.06,-123.09C623.07,-125.57 629.85,-128.65 636,-132.5 658.3,-146.46 651.7,-162.76 672,-179.5 747.46,-241.7 773.8,-255.13 869,-277.5 939.96,-294.17 962.7,-296.74 1033,-277.5 1087.29,-262.64 1198.75,-169.43 1251,-148.5 1257.29,-145.98 1263.99,-143.75 1270.75,-141.79"/>
<polygon fill="midnightblue" stroke="midnightblue" points="1271.91,-145.1 1280.64,-139.1 1270.08,-138.34 1271.91,-145.1"/>
</g>
<!-- Node10&#45;&gt;Node6 -->
<g id="edge20" class="edge">
<title>Node10&#45;&gt;Node6</title>
<path fill="none" stroke="midnightblue" d="M566.19,-103.95C618.86,-82.84 752.06,-32.7 869,-15.5 1007.77,4.91 1172.23,-11.2 1263.36,-23.61"/>
<polygon fill="midnightblue" stroke="midnightblue" points="1262.91,-27.08 1273.3,-24.99 1263.88,-20.15 1262.91,-27.08"/>
</g>
<!-- Node10&#45;&gt;Node8 -->
<g id="edge21" class="edge">
<title>Node10&#45;&gt;Node8</title>
<path fill="none" stroke="midnightblue" d="M636.06,-108.25C734.99,-104.2 895.78,-102 1033,-120.5 1056.32,-123.64 1081.83,-130.11 1102.19,-136.03"/>
<polygon fill="midnightblue" stroke="midnightblue" points="1101.46,-139.47 1112.04,-138.97 1103.46,-132.76 1101.46,-139.47"/>
</g>
<!-- Node11 -->
<g id="node11" class="node">
<title>Node11</title>
<g id="a_node11"><a xlink:href="../../dc/d47/a01510.html#a6aa41fc18dbf7ed9b38b68240bc797ed" target="_top" xlink:title=" ">
<polygon fill="none" stroke="black" points="672,-139.5 672,-169.5 833,-169.5 833,-139.5 672,-139.5"/>
<text text-anchor="start" x="680" y="-157.5" font-family="Helvetica,sans-Serif" font-size="10.00">com.cliffc.aa.type.Types.hash</text>
<text text-anchor="middle" x="752.5" y="-146.5" font-family="Helvetica,sans-Serif" font-size="10.00">_cons_</text>
</a>
</g>
</g>
<!-- Node10&#45;&gt;Node11 -->
<g id="edge14" class="edge">
<title>Node10&#45;&gt;Node11</title>
<path fill="none" stroke="midnightblue" d="M591.36,-123.01C613.24,-127.31 639.78,-132.53 664.91,-137.47"/>
<polygon fill="midnightblue" stroke="midnightblue" points="664.34,-140.93 674.82,-139.42 665.69,-134.06 664.34,-140.93"/>
</g>
<!-- Node11&#45;&gt;Node8 -->
<g id="edge19" class="edge">
<title>Node11&#45;&gt;Node8</title>
<path fill="none" stroke="midnightblue" d="M814.28,-139.44C831.82,-135.75 851.07,-132.34 869,-130.5 941.51,-123.05 960.36,-124.49 1033,-130.5 1049.71,-131.88 1067.72,-134.45 1084.16,-137.22"/>
<polygon fill="midnightblue" stroke="midnightblue" points="1083.71,-140.69 1094.16,-138.96 1084.91,-133.8 1083.71,-140.69"/>
</g>
<!-- Node12 -->
<g id="node12" class="node">
<title>Node12</title>
<g id="a_node12"><a xlink:href="../../d9/df5/a01574.html#ac48b496d83326e6d52ae1ec4f3459e86" target="_top" xlink:title=" ">
<polygon fill="none" stroke="black" points="887,-237.5 887,-267.5 1015,-267.5 1015,-237.5 887,-237.5"/>
<text text-anchor="start" x="895" y="-255.5" font-family="Helvetica,sans-Serif" font-size="10.00">com.cliffc.aa.util.IHash</text>
<text text-anchor="middle" x="951" y="-244.5" font-family="Helvetica,sans-Serif" font-size="10.00">Map.get</text>
</a>
</g>
</g>
<!-- Node11&#45;&gt;Node12 -->
<g id="edge15" class="edge">
<title>Node11&#45;&gt;Node12</title>
<path fill="none" stroke="midnightblue" d="M773.36,-169.71C795.61,-186.14 833.27,-212.16 869,-228.5 873.28,-230.46 877.75,-232.3 882.31,-234.02"/>
<polygon fill="midnightblue" stroke="midnightblue" points="881.15,-237.33 891.75,-237.41 883.51,-230.74 881.15,-237.33"/>
</g>
<!-- Node13 -->
<g id="node13" class="node">
<title>Node13</title>
<g id="a_node13"><a xlink:href="../../d7/d22/a01514.html#aafe283d43283761a4753805b70c4b07a" target="_top" xlink:title=" ">
<polygon fill="none" stroke="black" points="882.5,-188.5 882.5,-218.5 1019.5,-218.5 1019.5,-188.5 882.5,-188.5"/>
<text text-anchor="start" x="890.5" y="-206.5" font-family="Helvetica,sans-Serif" font-size="10.00">com.cliffc.aa.type.Types.</text>
<text text-anchor="middle" x="951" y="-195.5" font-family="Helvetica,sans-Serif" font-size="10.00">Key.hash</text>
</a>
</g>
</g>
<!-- Node11&#45;&gt;Node13 -->
<g id="edge16" class="edge">
<title>Node11&#45;&gt;Node13</title>
<path fill="none" stroke="midnightblue" d="M813.79,-169.53C834.73,-174.76 858.38,-180.65 880.03,-186.05"/>
<polygon fill="midnightblue" stroke="midnightblue" points="879.27,-189.47 889.82,-188.49 880.97,-182.68 879.27,-189.47"/>
</g>
<!-- Node14 -->
<g id="node14" class="node">
<title>Node14</title>
<g id="a_node14"><a xlink:href="../../d9/df5/a01574.html#a48318148c1c043cb02b70ff5a7be8eb0" target="_top" xlink:title=" ">
<polygon fill="none" stroke="black" points="887,-139.5 887,-169.5 1015,-169.5 1015,-139.5 887,-139.5"/>
<text text-anchor="start" x="895" y="-157.5" font-family="Helvetica,sans-Serif" font-size="10.00">com.cliffc.aa.util.IHash</text>
<text text-anchor="middle" x="951" y="-146.5" font-family="Helvetica,sans-Serif" font-size="10.00">Map.put</text>
</a>
</g>
</g>
<!-- Node11&#45;&gt;Node14 -->
<g id="edge18" class="edge">
<title>Node11&#45;&gt;Node14</title>
<path fill="none" stroke="midnightblue" d="M833.14,-154.5C847.52,-154.5 862.46,-154.5 876.65,-154.5"/>
<polygon fill="midnightblue" stroke="midnightblue" points="876.83,-158 886.83,-154.5 876.83,-151 876.83,-158"/>
</g>
<!-- Node13&#45;&gt;Node8 -->
<g id="edge17" class="edge">
<title>Node13&#45;&gt;Node8</title>
<path fill="none" stroke="midnightblue" d="M1003.65,-188.47C1033.33,-179.83 1070.18,-169.11 1098.24,-160.94"/>
<polygon fill="midnightblue" stroke="midnightblue" points="1099.52,-164.22 1108.15,-158.06 1097.57,-157.49 1099.52,-164.22"/>
</g>
<!-- Node15&#45;&gt;Node5 -->
<g id="edge23" class="edge">
<title>Node15&#45;&gt;Node5</title>
<path fill="none" stroke="midnightblue" d="M554.74,-161.07C576.59,-178.46 625.53,-215.52 672,-237.5 754.74,-276.64 778.47,-284.02 869,-297.5 1024.1,-320.59 1071.81,-292.4 1215,-228.5 1247.39,-214.04 1283.46,-194.94 1307.09,-181.99"/>
<polygon fill="midnightblue" stroke="midnightblue" points="1309.04,-184.91 1316.1,-177.02 1305.66,-178.78 1309.04,-184.91"/>
</g>
<!-- Node15&#45;&gt;Node9 -->
<g id="edge24" class="edge">
<title>Node15&#45;&gt;Node9</title>
<path fill="none" stroke="midnightblue" d="M449.1,-150.34C423.64,-148.42 396.75,-145.91 373.97,-143.26"/>
<polygon fill="midnightblue" stroke="midnightblue" points="374.16,-139.75 363.81,-142.03 373.32,-146.7 374.16,-139.75"/>
</g>
</g>
</svg>
        <g id="navigator" transform="translate(0 0)" fill="#404254">
                <rect fill="#f2f5e9" fill-opacity="0.5" stroke="#606060" stroke-width=".5" x="0" y="0" width="60" height="60"/>
                <use id="zoomplus" xlink:href="#zoomPlus" x="17" y="9" onmousedown="handleZoom(evt,'in')"/>
                <use id="zoomminus" xlink:href="#zoomMin" x="42" y="9" onmousedown="handleZoom(evt,'out')"/>
                <use id="reset" xlink:href="#resetDef" x="30" y="36" onmousedown="handleReset()"/>
                <g id="arrowUp" xlink:href="#dirArrow" transform="translate(30 24)" onmousedown="handlePan(0,-1)">
                  <use xlink:href="#rim" fill="#404040">
                        <set attributeName="fill" to="#808080" begin="arrowUp.mouseover" end="arrowUp.mouseout"/>
                  </use>
                  <path fill="none" stroke="white" stroke-width="1.5" d="M0,-3.0v7 M-2.5,-0.5L0,-3.0L2.5,-0.5"/>
                </g>
                <g id="arrowRight" xlink:href="#dirArrow" transform="rotate(90) translate(36 -43)" onmousedown="handlePan(1,0)">
                  <use xlink:href="#rim" fill="#404040">
                        <set attributeName="fill" to="#808080" begin="arrowRight.mouseover" end="arrowRight.mouseout"/>
                  </use>
                  <path fill="none" stroke="white" stroke-width="1.5" d="M0,-3.0v7 M-2.5,-0.5L0,-3.0L2.5,-0.5"/>
                </g>
                <g id="arrowDown" xlink:href="#dirArrow" transform="rotate(180) translate(-30 -48)" onmousedown="handlePan(0,1)">
                  <use xlink:href="#rim" fill="#404040">
                        <set attributeName="fill" to="#808080" begin="arrowDown.mouseover" end="arrowDown.mouseout"/>
                  </use>
                  <path fill="none" stroke="white" stroke-width="1.5" d="M0,-3.0v7 M-2.5,-0.5L0,-3.0L2.5,-0.5"/>
                </g>
                <g id="arrowLeft" xlink:href="#dirArrow" transform="rotate(270) translate(-36 17)" onmousedown="handlePan(-1,0)">
                  <use xlink:href="#rim" fill="#404040">
                        <set attributeName="fill" to="#808080" begin="arrowLeft.mouseover" end="arrowLeft.mouseout"/>
                  </use>
                  <path fill="none" stroke="white" stroke-width="1.5" d="M0,-3.0v7 M-2.5,-0.5L0,-3.0L2.5,-0.5"/>
                </g>
        </g>
        <svg viewBox="0 0 15 15" width="100%" height="30px" preserveAspectRatio="xMaxYMin meet">
         <g id="arrow_out" transform="scale(0.3 0.3)">
          <a xlink:href="a01530_aa115d1c70c99d5cdae85cdd15192f3fc_cgraph_org.svg" target="_base">
           <rect id="button" ry="5" rx="5" y="6" x="6" height="38" width="38"
                fill="#f2f5e9" fill-opacity="0.5" stroke="#606060" stroke-width="1.0"/>
           <path id="arrow"
             d="M 11.500037,31.436501 C 11.940474,20.09759 22.043105,11.32322 32.158766,21.979434 L 37.068811,17.246167 C 37.068811,17.246167 37.088388,32 37.088388,32 L 22.160133,31.978069 C 22.160133,31.978069 26.997745,27.140456 26.997745,27.140456 C 18.528582,18.264221 13.291696,25.230495 11.500037,31.436501 z"
             style="fill:#404040;"/>
          </a>
         </g>
        </svg>
</svg>
