<?xml version="1.0" encoding="UTF-8" standalone="no"?>
<!DOCTYPE svg PUBLIC "-//W3C//DTD SVG 1.1//EN"
 "http://www.w3.org/Graphics/SVG/1.1/DTD/svg11.dtd">
<!-- Generated by graphviz version 2.43.0 (0)
 -->
<!-- Title: com.cliffc.aa.type.TypeTuple.cycle_equals Pages: 1 -->
<svg width="602pt" height="39pt"
 viewBox="0.00 0.00 602.00 39.00" xmlns="http://www.w3.org/2000/svg" xmlns:xlink="http://www.w3.org/1999/xlink">
<g id="graph0" class="graph" transform="scale(1 1) rotate(0) translate(4 35)">
<title>com.cliffc.aa.type.TypeTuple.cycle_equals</title>
<!-- Node1 -->
<g id="node1" class="node">
<title>Node1</title>
<g id="a_node1"><a xlink:title=" ">
<polygon fill="#bfbfbf" stroke="black" points="0,-0.5 0,-30.5 183,-30.5 183,-0.5 0,-0.5"/>
<text text-anchor="start" x="8" y="-18.5" font-family="Helvetica,sans-Serif" font-size="10.00">com.cliffc.aa.type.TypeTuple.cycle</text>
<text text-anchor="middle" x="91.5" y="-7.5" font-family="Helvetica,sans-Serif" font-size="10.00">_equals</text>
</a>
</g>
</g>
<!-- Node2 -->
<g id="node2" class="node">
<title>Node2</title>
<g id="a_node2"><a xlink:href="../../d7/d90/a01530.html#a521994a5c81dac41d3d1947187ba2981" target="_top" xlink:title=" ">
<polygon fill="none" stroke="black" points="219,-6 219,-25 409,-25 409,-6 219,-6"/>
<text text-anchor="middle" x="314" y="-13" font-family="Helvetica,sans-Serif" font-size="10.00">com.cliffc.aa.type.TypeTuple.equals</text>
</a>
</g>
</g>
<!-- Node1&#45;&gt;Node2 -->
<g id="edge1" class="edge">
<title>Node1&#45;&gt;Node2</title>
<path fill="none" stroke="midnightblue" d="M183.14,-15.5C191.59,-15.5 200.2,-15.5 208.77,-15.5"/>
<polygon fill="midnightblue" stroke="midnightblue" points="208.78,-19 218.78,-15.5 208.78,-12 208.78,-19"/>
</g>
<!-- Node3 -->
<g id="node3" class="node">
<title>Node3</title>
<g id="a_node3"><a xlink:href="../../dc/d47/a01510.html#afd61d867ee3523e193a21a0c4e1a9056" target="_top" xlink:title=" ">
<polygon fill="none" stroke="black" points="445,-6 445,-25 594,-25 594,-6 445,-6"/>
<text text-anchor="middle" x="519.5" y="-13" font-family="Helvetica,sans-Serif" font-size="10.00">com.cliffc.aa.type.Types.eq</text>
</a>
</g>
</g>
<!-- Node2&#45;&gt;Node3 -->
<g id="edge2" class="edge">
<title>Node2&#45;&gt;Node3</title>
<path fill="none" stroke="midnightblue" d="M409.01,-15.5C417.52,-15.5 426.11,-15.5 434.53,-15.5"/>
<polygon fill="midnightblue" stroke="midnightblue" points="434.7,-19 444.7,-15.5 434.7,-12 434.7,-19"/>
</g>
</g>
</svg>
