<?xml version="1.0" encoding="UTF-8" standalone="no"?>
<!DOCTYPE svg PUBLIC "-//W3C//DTD SVG 1.1//EN"
 "http://www.w3.org/Graphics/SVG/1.1/DTD/svg11.dtd">
<!-- Generated by graphviz version 2.43.0 (0)
 -->
<!-- Title: com.cliffc.aa.type.TypeStruct.TPair.equals Pages: 1 -->
<svg width="1036pt" height="165pt"
 viewBox="0.00 0.00 1036.00 165.00" xmlns="http://www.w3.org/2000/svg" xmlns:xlink="http://www.w3.org/1999/xlink">
<g id="graph0" class="graph" transform="scale(1 1) rotate(0) translate(4 161)">
<title>com.cliffc.aa.type.TypeStruct.TPair.equals</title>
<!-- Node1 -->
<g id="node1" class="node">
<title>Node1</title>
<g id="a_node1"><a xlink:title=" ">
<polygon fill="#bfbfbf" stroke="black" points="0,-110 0,-140 161,-140 161,-110 0,-110"/>
<text text-anchor="start" x="8" y="-128" font-family="Helvetica,sans-Serif" font-size="10.00">com.cliffc.aa.type.TypeStruct.</text>
<text text-anchor="middle" x="80.5" y="-117" font-family="Helvetica,sans-Serif" font-size="10.00">TPair.equals</text>
</a>
</g>
</g>
<!-- Node2 -->
<g id="node2" class="node">
<title>Node2</title>
<g id="a_node2"><a xlink:href="../../da/da6/a01522.html#a49675f7fbc9f7c33c7d3668a937c0495" target="_top" xlink:title=" ">
<polygon fill="none" stroke="black" points="197,-115.5 197,-134.5 390,-134.5 390,-115.5 197,-115.5"/>
<text text-anchor="middle" x="293.5" y="-122.5" font-family="Helvetica,sans-Serif" font-size="10.00">com.cliffc.aa.type.TypeStruct.equals</text>
</a>
</g>
</g>
<!-- Node1&#45;&gt;Node2 -->
<g id="edge1" class="edge">
<title>Node1&#45;&gt;Node2</title>
<path fill="none" stroke="midnightblue" d="M161.27,-125C169.57,-125 178.1,-125 186.64,-125"/>
<polygon fill="midnightblue" stroke="midnightblue" points="186.64,-128.5 196.64,-125 186.64,-121.5 186.64,-128.5"/>
</g>
<!-- Node3 -->
<g id="node3" class="node">
<title>Node3</title>
<g id="a_node3"><a xlink:href="../../da/da6/a01522.html#a5a61b83f23fb201884894481b01d3326" target="_top" xlink:title=" ">
<polygon fill="none" stroke="black" points="650,-137.5 650,-156.5 832,-156.5 832,-137.5 650,-137.5"/>
<text text-anchor="middle" x="741" y="-144.5" font-family="Helvetica,sans-Serif" font-size="10.00">com.cliffc.aa.type.TypeStruct.cmp</text>
</a>
</g>
</g>
<!-- Node2&#45;&gt;Node3 -->
<g id="edge2" class="edge">
<title>Node2&#45;&gt;Node3</title>
<path fill="none" stroke="midnightblue" d="M390.07,-129.72C463.57,-133.35 564.85,-138.35 639.55,-142.04"/>
<polygon fill="midnightblue" stroke="midnightblue" points="639.74,-145.55 649.9,-142.55 640.09,-138.56 639.74,-145.55"/>
</g>
<!-- Node5 -->
<g id="node5" class="node">
<title>Node5</title>
<g id="a_node5"><a xlink:href="../../da/da6/a01522.html#afd761832bd26b85246498104e7a3839e" target="_top" xlink:title=" ">
<polygon fill="none" stroke="black" points="426,-88 426,-118 612,-118 612,-88 426,-88"/>
<text text-anchor="start" x="434" y="-106" font-family="Helvetica,sans-Serif" font-size="10.00">com.cliffc.aa.type.TypeStruct.cycle</text>
<text text-anchor="middle" x="519" y="-95" font-family="Helvetica,sans-Serif" font-size="10.00">_equals</text>
</a>
</g>
</g>
<!-- Node2&#45;&gt;Node5 -->
<g id="edge4" class="edge">
<title>Node2&#45;&gt;Node5</title>
<path fill="none" stroke="midnightblue" d="M390.26,-115.57C398.77,-114.74 407.41,-113.89 415.98,-113.04"/>
<polygon fill="midnightblue" stroke="midnightblue" points="416.38,-116.52 425.99,-112.06 415.69,-109.55 416.38,-116.52"/>
</g>
<!-- Node4 -->
<g id="node4" class="node">
<title>Node4</title>
<g id="a_node4"><a xlink:href="../../dd/d55/a01638.html#a3975ba7dca9fe2d6e4992b2b5558f882" target="_top" xlink:title=" ">
<polygon fill="none" stroke="black" points="882.5,-137.5 882.5,-156.5 1015.5,-156.5 1015.5,-137.5 882.5,-137.5"/>
<text text-anchor="middle" x="949" y="-144.5" font-family="Helvetica,sans-Serif" font-size="10.00">com.cliffc.aa.util.Util.eq</text>
</a>
</g>
</g>
<!-- Node3&#45;&gt;Node4 -->
<g id="edge3" class="edge">
<title>Node3&#45;&gt;Node4</title>
<path fill="none" stroke="midnightblue" d="M832.05,-147C845.38,-147 859,-147 872,-147"/>
<polygon fill="midnightblue" stroke="midnightblue" points="872.28,-150.5 882.28,-147 872.28,-143.5 872.28,-150.5"/>
</g>
<!-- Node5&#45;&gt;Node3 -->
<g id="edge5" class="edge">
<title>Node5&#45;&gt;Node3</title>
<path fill="none" stroke="midnightblue" d="M595.1,-118.02C623.68,-123.74 655.78,-130.16 682.49,-135.5"/>
<polygon fill="midnightblue" stroke="midnightblue" points="681.95,-138.96 692.44,-137.49 683.32,-132.09 681.95,-138.96"/>
</g>
<!-- Node6 -->
<g id="node6" class="node">
<title>Node6</title>
<g id="a_node6"><a xlink:href="../../da/da6/a01522.html#a065646ac533196e92be0c53f25383911" target="_top" xlink:title=" ">
<polygon fill="none" stroke="black" points="648,-88 648,-118 834,-118 834,-88 648,-88"/>
<text text-anchor="start" x="656" y="-106" font-family="Helvetica,sans-Serif" font-size="10.00">com.cliffc.aa.type.TypeStruct.cycle</text>
<text text-anchor="middle" x="741" y="-95" font-family="Helvetica,sans-Serif" font-size="10.00">_equals0</text>
</a>
</g>
</g>
<!-- Node5&#45;&gt;Node6 -->
<g id="edge6" class="edge">
<title>Node5&#45;&gt;Node6</title>
<path fill="none" stroke="midnightblue" d="M612.03,-103C620.57,-103 629.27,-103 637.9,-103"/>
<polygon fill="midnightblue" stroke="midnightblue" points="637.99,-106.5 647.99,-103 637.99,-99.5 637.99,-106.5"/>
</g>
<!-- Node8 -->
<g id="node8" class="node">
<title>Node8</title>
<g id="a_node8"><a xlink:href="../../da/da6/a01522.html#ab860d965308c5a6bb5fbb70ecf03b234" target="_top" xlink:title=" ">
<polygon fill="none" stroke="black" points="651.5,-39 651.5,-69 830.5,-69 830.5,-39 651.5,-39"/>
<text text-anchor="start" x="659.5" y="-57" font-family="Helvetica,sans-Serif" font-size="10.00">com.cliffc.aa.type.TypeStruct.find</text>
<text text-anchor="middle" x="741" y="-46" font-family="Helvetica,sans-Serif" font-size="10.00">_other</text>
</a>
</g>
</g>
<!-- Node5&#45;&gt;Node8 -->
<g id="edge8" class="edge">
<title>Node5&#45;&gt;Node8</title>
<path fill="none" stroke="midnightblue" d="M587.5,-87.97C611.26,-82.67 638.14,-76.69 662.65,-71.23"/>
<polygon fill="midnightblue" stroke="midnightblue" points="663.63,-74.6 672.63,-69.01 662.1,-67.76 663.63,-74.6"/>
</g>
<!-- Node9 -->
<g id="node9" class="node">
<title>Node9</title>
<g id="a_node9"><a xlink:href="../../da/da6/a01522.html#ac2104477ec8244374059301b91701d90" target="_top" xlink:title=" ">
<polygon fill="none" stroke="black" points="653,-0.5 653,-19.5 829,-19.5 829,-0.5 653,-0.5"/>
<text text-anchor="middle" x="741" y="-7.5" font-family="Helvetica,sans-Serif" font-size="10.00">com.cliffc.aa.type.TypeStruct.len</text>
</a>
</g>
</g>
<!-- Node5&#45;&gt;Node9 -->
<g id="edge9" class="edge">
<title>Node5&#45;&gt;Node9</title>
<path fill="none" stroke="midnightblue" d="M541.64,-87.91C566.3,-71.39 608.35,-45.21 648,-30 655.9,-26.97 664.36,-24.35 672.84,-22.09"/>
<polygon fill="midnightblue" stroke="midnightblue" points="673.92,-25.43 682.77,-19.61 672.22,-18.64 673.92,-25.43"/>
</g>
<!-- Node7 -->
<g id="node7" class="node">
<title>Node7</title>
<g id="a_node7"><a xlink:href="../../d0/de2/a01442.html#a259ebcac926b2f1b2f1002af0c7a7a6b" target="_top" xlink:title=" ">
<polygon fill="none" stroke="black" points="870,-88 870,-118 1028,-118 1028,-88 870,-88"/>
<text text-anchor="start" x="878" y="-106" font-family="Helvetica,sans-Serif" font-size="10.00">com.cliffc.aa.type.Type.cycle</text>
<text text-anchor="middle" x="949" y="-95" font-family="Helvetica,sans-Serif" font-size="10.00">_equals</text>
</a>
</g>
</g>
<!-- Node6&#45;&gt;Node7 -->
<g id="edge7" class="edge">
<title>Node6&#45;&gt;Node7</title>
<path fill="none" stroke="midnightblue" d="M834.15,-103C842.61,-103 851.16,-103 859.58,-103"/>
<polygon fill="midnightblue" stroke="midnightblue" points="859.77,-106.5 869.77,-103 859.77,-99.5 859.77,-106.5"/>
</g>
</g>
</svg>
