<?xml version="1.0" encoding="UTF-8" standalone="no"?>
<!DOCTYPE svg PUBLIC "-//W3C//DTD SVG 1.1//EN"
 "http://www.w3.org/Graphics/SVG/1.1/DTD/svg11.dtd">
<!-- Generated by graphviz version 2.43.0 (0)
 -->
<!-- Title: com.cliffc.aa.tvar.TV2.find_dups Pages: 1 -->
<svg width="539pt" height="127pt"
 viewBox="0.00 0.00 539.00 127.00" xmlns="http://www.w3.org/2000/svg" xmlns:xlink="http://www.w3.org/1999/xlink">
<g id="graph0" class="graph" transform="scale(1 1) rotate(0) translate(4 123)">
<title>com.cliffc.aa.tvar.TV2.find_dups</title>
<!-- Node1 -->
<g id="node1" class="node">
<title>Node1</title>
<g id="a_node1"><a xlink:title=" ">
<polygon fill="#bfbfbf" stroke="black" points="359,-50 359,-69 531,-69 531,-50 359,-50"/>
<text text-anchor="middle" x="445" y="-57" font-family="Helvetica,sans-Serif" font-size="10.00">com.cliffc.aa.tvar.TV2.find_dups</text>
</a>
</g>
</g>
<!-- Node1&#45;&gt;Node1 -->
<g id="edge1" class="edge">
<title>Node1&#45;&gt;Node1</title>
<path fill="none" stroke="midnightblue" d="M480.62,-77C480.62,-82.84 468.74,-87.5 445,-87.5 411.23,-87.5 401.47,-78.07 415.72,-69.26"/>
<polygon fill="midnightblue" stroke="midnightblue" points="483.33,-74.78 474.28,-69.26 477.91,-79.21 483.33,-74.78"/>
</g>
<!-- Node2 -->
<g id="node2" class="node">
<title>Node2</title>
<g id="a_node2"><a xlink:href="../../dc/d25/a01406.html#a07a6aa0c37c0691f110695fad38bcee6" target="_top" xlink:title=" ">
<polygon fill="none" stroke="black" points="185,-50 185,-69 323,-69 323,-50 185,-50"/>
<text text-anchor="middle" x="254" y="-57" font-family="Helvetica,sans-Serif" font-size="10.00">com.cliffc.aa.tvar.TV2.str</text>
</a>
</g>
</g>
<!-- Node1&#45;&gt;Node2 -->
<g id="edge2" class="edge">
<title>Node1&#45;&gt;Node2</title>
<path fill="none" stroke="midnightblue" d="M348.78,-59.5C340.15,-59.5 331.53,-59.5 323.21,-59.5"/>
<polygon fill="midnightblue" stroke="midnightblue" points="348.9,-63 358.9,-59.5 348.9,-56 348.9,-63"/>
</g>
<!-- Node4 -->
<g id="node4" class="node">
<title>Node4</title>
<g id="a_node4"><a xlink:href="../../d3/d45/a00382.html#a898f0e62afb941318ef1443f199e47ae" target="_top" xlink:title=" ">
<polygon fill="none" stroke="black" points="0,-88.5 0,-118.5 149,-118.5 149,-88.5 0,-88.5"/>
<text text-anchor="start" x="8" y="-106.5" font-family="Helvetica,sans-Serif" font-size="10.00">com.cliffc.aa.Env.VStack.to</text>
<text text-anchor="middle" x="74.5" y="-95.5" font-family="Helvetica,sans-Serif" font-size="10.00">String</text>
</a>
</g>
</g>
<!-- Node1&#45;&gt;Node4 -->
<g id="edge6" class="edge">
<title>Node1&#45;&gt;Node4</title>
<path fill="none" stroke="midnightblue" d="M377.27,-70.65C359.65,-73.41 340.63,-76.23 323,-78.5 264.75,-86.01 198.54,-92.6 149.26,-97.12"/>
<polygon fill="midnightblue" stroke="midnightblue" points="378.13,-74.06 387.46,-69.04 377.03,-67.15 378.13,-74.06"/>
</g>
<!-- Node5 -->
<g id="node5" class="node">
<title>Node5</title>
<g id="a_node5"><a xlink:href="../../dc/d25/a01406.html#a09757419fe496417dc275c05ee6f5077" target="_top" xlink:title=" ">
<polygon fill="none" stroke="black" points="7,-0.5 7,-30.5 142,-30.5 142,-0.5 7,-0.5"/>
<text text-anchor="start" x="15" y="-18.5" font-family="Helvetica,sans-Serif" font-size="10.00">com.cliffc.aa.tvar.TV2.to</text>
<text text-anchor="middle" x="74.5" y="-7.5" font-family="Helvetica,sans-Serif" font-size="10.00">String</text>
</a>
</g>
</g>
<!-- Node1&#45;&gt;Node5 -->
<g id="edge7" class="edge">
<title>Node1&#45;&gt;Node5</title>
<path fill="none" stroke="midnightblue" d="M377.27,-48.35C359.65,-45.59 340.63,-42.77 323,-40.5 261.86,-32.62 191.94,-25.75 142.06,-21.22"/>
<polygon fill="midnightblue" stroke="midnightblue" points="377.03,-51.85 387.46,-49.96 378.13,-44.94 377.03,-51.85"/>
</g>
<!-- Node3 -->
<g id="node3" class="node">
<title>Node3</title>
<g id="a_node3"><a xlink:href="../../dc/d25/a01406.html#aefacfe68d3a38285907c27ad863932db" target="_top" xlink:title=" ">
<polygon fill="none" stroke="black" points="5.5,-50 5.5,-69 143.5,-69 143.5,-50 5.5,-50"/>
<text text-anchor="middle" x="74.5" y="-57" font-family="Helvetica,sans-Serif" font-size="10.00">com.cliffc.aa.tvar.TV2.str</text>
</a>
</g>
</g>
<!-- Node2&#45;&gt;Node3 -->
<g id="edge3" class="edge">
<title>Node2&#45;&gt;Node3</title>
<path fill="none" stroke="midnightblue" d="M174.66,-59.5C164.35,-59.5 153.85,-59.5 143.73,-59.5"/>
<polygon fill="midnightblue" stroke="midnightblue" points="174.88,-63 184.88,-59.5 174.88,-56 174.88,-63"/>
</g>
<!-- Node2&#45;&gt;Node4 -->
<g id="edge4" class="edge">
<title>Node2&#45;&gt;Node4</title>
<path fill="none" stroke="midnightblue" d="M204.77,-71.46C183.66,-76.69 158.65,-82.89 136.28,-88.43"/>
<polygon fill="midnightblue" stroke="midnightblue" points="205.62,-74.85 214.49,-69.05 203.94,-68.06 205.62,-74.85"/>
</g>
<!-- Node2&#45;&gt;Node5 -->
<g id="edge5" class="edge">
<title>Node2&#45;&gt;Node5</title>
<path fill="none" stroke="midnightblue" d="M204.77,-47.54C183.66,-42.31 158.65,-36.11 136.28,-30.57"/>
<polygon fill="midnightblue" stroke="midnightblue" points="203.94,-50.94 214.49,-49.95 205.62,-44.15 203.94,-50.94"/>
</g>
</g>
</svg>
