<?xml version="1.0" encoding="UTF-8" standalone="no"?>
<!DOCTYPE svg PUBLIC "-//W3C//DTD SVG 1.1//EN"
 "http://www.w3.org/Graphics/SVG/1.1/DTD/svg11.dtd">
<!-- Generated by graphviz version 2.43.0 (0)
 -->
<!-- Title: com.cliffc.aa.tvar.TV2.str Pages: 1 -->
<svg width="1098pt" height="606pt"
 viewBox="0.00 0.00 1098.00 605.50" xmlns="http://www.w3.org/2000/svg" xmlns:xlink="http://www.w3.org/1999/xlink">
<g id="graph0" class="graph" transform="scale(1 1) rotate(0) translate(4 601.5)">
<title>com.cliffc.aa.tvar.TV2.str</title>
<!-- Node1 -->
<g id="node1" class="node">
<title>Node1</title>
<g id="a_node1"><a xlink:title=" ">
<polygon fill="#bfbfbf" stroke="black" points="0,-224 0,-243 138,-243 138,-224 0,-224"/>
<text text-anchor="middle" x="69" y="-231" font-family="Helvetica,sans-Serif" font-size="10.00">com.cliffc.aa.tvar.TV2.str</text>
</a>
</g>
</g>
<!-- Node2 -->
<g id="node2" class="node">
<title>Node2</title>
<g id="a_node2"><a xlink:href="../../d0/de2/a01442.html#ade2059a7facf88e4f1e3c338d2b8fc5d" target="_top" xlink:title=" ">
<polygon fill="none" stroke="black" points="174.5,-578 174.5,-597 335.5,-597 335.5,-578 174.5,-578"/>
<text text-anchor="middle" x="255" y="-585" font-family="Helvetica,sans-Serif" font-size="10.00">com.cliffc.aa.type.Type.getstr</text>
</a>
</g>
</g>
<!-- Node1&#45;&gt;Node2 -->
<g id="edge1" class="edge">
<title>Node1&#45;&gt;Node2</title>
<path fill="none" stroke="midnightblue" d="M69.98,-243.25C70.42,-287.22 78.2,-469.02 174,-563.5 178,-567.45 182.62,-570.75 187.59,-573.51"/>
<polygon fill="midnightblue" stroke="midnightblue" points="186.3,-576.77 196.83,-577.92 189.31,-570.45 186.3,-576.77"/>
</g>
<!-- Node3 -->
<g id="node3" class="node">
<title>Node3</title>
<g id="a_node3"><a xlink:href="../../dc/d25/a01406.html#a278ec8d9b9c40d681176974542fee2eb" target="_top" xlink:title=" ">
<polygon fill="none" stroke="black" points="580.5,-502 580.5,-521 742.5,-521 742.5,-502 580.5,-502"/>
<text text-anchor="middle" x="661.5" y="-509" font-family="Helvetica,sans-Serif" font-size="10.00">com.cliffc.aa.tvar.TV2.is_base</text>
</a>
</g>
</g>
<!-- Node1&#45;&gt;Node3 -->
<g id="edge2" class="edge">
<title>Node1&#45;&gt;Node3</title>
<path fill="none" stroke="midnightblue" d="M78.28,-243.07C94.83,-261.7 133.86,-303.22 174,-328.5 338.67,-432.21 394.54,-433.53 580,-492.5 587.97,-495.03 596.47,-497.4 604.86,-499.54"/>
<polygon fill="midnightblue" stroke="midnightblue" points="604.07,-502.95 614.62,-501.94 605.75,-496.15 604.07,-502.95"/>
</g>
<!-- Node4 -->
<g id="node4" class="node">
<title>Node4</title>
<g id="a_node4"><a xlink:href="../../dc/d25/a01406.html#a4648c36530ad943bcfe943b14dc33c36" target="_top" xlink:title=" ">
<polygon fill="none" stroke="black" points="956,-335.5 956,-365.5 1090,-365.5 1090,-335.5 956,-335.5"/>
<text text-anchor="start" x="964" y="-353.5" font-family="Helvetica,sans-Serif" font-size="10.00">com.cliffc.aa.tvar.TV2.is</text>
<text text-anchor="middle" x="1023" y="-342.5" font-family="Helvetica,sans-Serif" font-size="10.00">_unified</text>
</a>
</g>
</g>
<!-- Node1&#45;&gt;Node4 -->
<g id="edge18" class="edge">
<title>Node1&#45;&gt;Node4</title>
<path fill="none" stroke="midnightblue" d="M74.66,-243.05C87.51,-268.62 125.69,-339.69 174,-384.5 280.75,-483.5 311.41,-549.5 457,-549.5 457,-549.5 457,-549.5 662.5,-549.5 717.93,-549.5 895.94,-492.72 920,-476.5 959.63,-449.78 991.56,-403.07 1008.57,-374.65"/>
<polygon fill="midnightblue" stroke="midnightblue" points="1011.74,-376.16 1013.76,-365.76 1005.7,-372.63 1011.74,-376.16"/>
</g>
<!-- Node7 -->
<g id="node7" class="node">
<title>Node7</title>
<g id="a_node7"><a xlink:href="../../dc/d25/a01406.html#a87dfb7406a83eb8d86b5784a65efb673" target="_top" xlink:title=" ">
<polygon fill="none" stroke="black" points="580,-212 580,-231 743,-231 743,-212 580,-212"/>
<text text-anchor="middle" x="661.5" y="-219" font-family="Helvetica,sans-Serif" font-size="10.00">com.cliffc.aa.tvar.TV2.is_dead</text>
</a>
</g>
</g>
<!-- Node1&#45;&gt;Node7 -->
<g id="edge7" class="edge">
<title>Node1&#45;&gt;Node7</title>
<path fill="none" stroke="midnightblue" d="M138.03,-232.12C244.4,-229.96 450.26,-225.77 569.35,-223.35"/>
<polygon fill="midnightblue" stroke="midnightblue" points="569.61,-226.85 579.54,-223.15 569.47,-219.85 569.61,-226.85"/>
</g>
<!-- Node8 -->
<g id="node8" class="node">
<title>Node8</title>
<g id="a_node8"><a xlink:href="../../dc/d25/a01406.html#a1f3c3136338fb7f55cd183c9f849bde3" target="_top" xlink:title=" ">
<polygon fill="none" stroke="black" points="585.5,-136 585.5,-155 737.5,-155 737.5,-136 585.5,-136"/>
<text text-anchor="middle" x="661.5" y="-143" font-family="Helvetica,sans-Serif" font-size="10.00">com.cliffc.aa.tvar.TV2.is_err</text>
</a>
</g>
</g>
<!-- Node1&#45;&gt;Node8 -->
<g id="edge10" class="edge">
<title>Node1&#45;&gt;Node8</title>
<path fill="none" stroke="midnightblue" d="M133.75,-224C244.02,-207.57 469.71,-173.93 586.62,-156.51"/>
<polygon fill="midnightblue" stroke="midnightblue" points="587.19,-159.96 596.56,-155.03 586.16,-153.04 587.19,-159.96"/>
</g>
<!-- Node9 -->
<g id="node9" class="node">
<title>Node9</title>
<g id="a_node9"><a xlink:href="../../dc/d25/a01406.html#a885e314e8b9639068936cd70e8530376" target="_top" xlink:title=" ">
<polygon fill="none" stroke="black" points="586,-250 586,-269 737,-269 737,-250 586,-250"/>
<text text-anchor="middle" x="661.5" y="-257" font-family="Helvetica,sans-Serif" font-size="10.00">com.cliffc.aa.tvar.TV2.is_nil</text>
</a>
</g>
</g>
<!-- Node1&#45;&gt;Node9 -->
<g id="edge13" class="edge">
<title>Node1&#45;&gt;Node9</title>
<path fill="none" stroke="midnightblue" d="M138.2,-240.68C150.12,-241.75 162.42,-242.75 174,-243.5 314.7,-252.57 478.65,-256.61 575.78,-258.33"/>
<polygon fill="midnightblue" stroke="midnightblue" points="575.78,-261.83 585.84,-258.5 575.9,-254.83 575.78,-261.83"/>
</g>
<!-- Node10 -->
<g id="node10" class="node">
<title>Node10</title>
<g id="a_node10"><a xlink:href="../../dc/d25/a01406.html#a5dde549e0fc6c1a2f46976e5d79873ee" target="_top" xlink:title=" ">
<polygon fill="none" stroke="black" points="581,-174 581,-193 742,-193 742,-174 581,-174"/>
<text text-anchor="middle" x="661.5" y="-181" font-family="Helvetica,sans-Serif" font-size="10.00">com.cliffc.aa.tvar.TV2.is_prim</text>
</a>
</g>
</g>
<!-- Node1&#45;&gt;Node10 -->
<g id="edge16" class="edge">
<title>Node1&#45;&gt;Node10</title>
<path fill="none" stroke="midnightblue" d="M138.24,-226.8C150.16,-225.67 162.44,-224.53 174,-223.5 312.39,-211.16 473.06,-198.22 570.71,-190.51"/>
<polygon fill="midnightblue" stroke="midnightblue" points="571.14,-193.99 580.84,-189.71 570.59,-187.01 571.14,-193.99"/>
</g>
<!-- Node11 -->
<g id="node11" class="node">
<title>Node11</title>
<g id="a_node11"><a xlink:href="../../d3/d2d/a01606.html#ac862bee73e146376b7a2b6a724f65d1f" target="_top" xlink:title="Returns the number of key&#45;value mappings in this map.">
<polygon fill="none" stroke="black" points="174,-98.5 174,-128.5 336,-128.5 336,-98.5 174,-98.5"/>
<text text-anchor="start" x="182" y="-116.5" font-family="Helvetica,sans-Serif" font-size="10.00">com.cliffc.aa.util.NonBlocking</text>
<text text-anchor="middle" x="255" y="-105.5" font-family="Helvetica,sans-Serif" font-size="10.00">HashMapLong.size</text>
</a>
</g>
</g>
<!-- Node1&#45;&gt;Node11 -->
<g id="edge19" class="edge">
<title>Node1&#45;&gt;Node11</title>
<path fill="none" stroke="midnightblue" d="M78.86,-223.83C95.79,-205.83 134.59,-166.92 174,-143.5 180.89,-139.41 188.44,-135.7 196.05,-132.41"/>
<polygon fill="midnightblue" stroke="midnightblue" points="197.42,-135.63 205.34,-128.6 194.76,-129.16 197.42,-135.63"/>
</g>
<!-- Node12 -->
<g id="node12" class="node">
<title>Node12</title>
<g id="a_node12"><a xlink:href="../../d6/d02/a01542.html#a65898ac2a48fc5bdf4b3de6d962ff008" target="_top" xlink:title="Sorts in&#45;place.">
<polygon fill="none" stroke="black" points="186.5,-49.5 186.5,-79.5 323.5,-79.5 323.5,-49.5 186.5,-49.5"/>
<text text-anchor="start" x="194.5" y="-67.5" font-family="Helvetica,sans-Serif" font-size="10.00">com.cliffc.aa.util.Ary.sort</text>
<text text-anchor="middle" x="255" y="-56.5" font-family="Helvetica,sans-Serif" font-size="10.00">_update</text>
</a>
</g>
</g>
<!-- Node1&#45;&gt;Node12 -->
<g id="edge20" class="edge">
<title>Node1&#45;&gt;Node12</title>
<path fill="none" stroke="midnightblue" d="M74.24,-223.69C86.02,-197.57 121.81,-125.76 174,-88.5 176.12,-86.99 178.33,-85.57 180.62,-84.24"/>
<polygon fill="midnightblue" stroke="midnightblue" points="182.45,-87.23 189.74,-79.54 179.24,-81.01 182.45,-87.23"/>
</g>
<!-- Node13 -->
<g id="node13" class="node">
<title>Node13</title>
<g id="a_node13"><a xlink:href="../../dc/d25/a01406.html#a07a6aa0c37c0691f110695fad38bcee6" target="_top" xlink:title=" ">
<polygon fill="none" stroke="black" points="186,-300 186,-319 324,-319 324,-300 186,-300"/>
<text text-anchor="middle" x="255" y="-307" font-family="Helvetica,sans-Serif" font-size="10.00">com.cliffc.aa.tvar.TV2.str</text>
</a>
</g>
</g>
<!-- Node1&#45;&gt;Node13 -->
<g id="edge21" class="edge">
<title>Node1&#45;&gt;Node13</title>
<path fill="none" stroke="midnightblue" d="M86.88,-243.08C107.12,-254.29 142.29,-272.92 174,-285.5 184.74,-289.76 196.54,-293.69 207.7,-297.09"/>
<polygon fill="midnightblue" stroke="midnightblue" points="206.73,-300.45 217.31,-299.93 208.71,-293.74 206.73,-300.45"/>
</g>
<!-- Node20 -->
<g id="node20" class="node">
<title>Node20</title>
<g id="a_node20"><a xlink:href="../../d3/d2d/a01606.html#a7dabc238f566bd1039cc62b63af734ed" target="_top" xlink:title="Returns a Collection view of the values contained in this map.">
<polygon fill="none" stroke="black" points="174,-0.5 174,-30.5 336,-30.5 336,-0.5 174,-0.5"/>
<text text-anchor="start" x="182" y="-18.5" font-family="Helvetica,sans-Serif" font-size="10.00">com.cliffc.aa.util.NonBlocking</text>
<text text-anchor="middle" x="255" y="-7.5" font-family="Helvetica,sans-Serif" font-size="10.00">HashMapLong.values</text>
</a>
</g>
</g>
<!-- Node1&#45;&gt;Node20 -->
<g id="edge34" class="edge">
<title>Node1&#45;&gt;Node20</title>
<path fill="none" stroke="midnightblue" d="M72.37,-223.73C80.55,-192.04 110.67,-91.25 174,-39.5 175.56,-38.23 177.18,-37.02 178.86,-35.88"/>
<polygon fill="midnightblue" stroke="midnightblue" points="180.82,-38.79 187.65,-30.69 177.26,-32.76 180.82,-38.79"/>
</g>
<!-- Node3&#45;&gt;Node4 -->
<g id="edge3" class="edge">
<title>Node3&#45;&gt;Node4</title>
<path fill="none" stroke="midnightblue" d="M723.21,-501.99C777.35,-491.7 857.47,-471.96 920,-437.5 951.31,-420.24 981.77,-392.37 1001.13,-372.84"/>
<polygon fill="midnightblue" stroke="midnightblue" points="1003.76,-375.15 1008.23,-365.54 998.74,-370.27 1003.76,-375.15"/>
</g>
<!-- Node5 -->
<g id="node5" class="node">
<title>Node5</title>
<g id="a_node5"><a xlink:href="../../dc/d25/a01406.html#a4c6344d5b696661ebc8894c4d6d5d83d" target="_top" xlink:title=" ">
<polygon fill="none" stroke="black" points="779.5,-214 779.5,-233 919.5,-233 919.5,-214 779.5,-214"/>
<text text-anchor="middle" x="849.5" y="-221" font-family="Helvetica,sans-Serif" font-size="10.00">com.cliffc.aa.tvar.TV2.isa</text>
</a>
</g>
</g>
<!-- Node3&#45;&gt;Node5 -->
<g id="edge4" class="edge">
<title>Node3&#45;&gt;Node5</title>
<path fill="none" stroke="midnightblue" d="M729.74,-501.96C734.6,-499.44 739.11,-496.33 743,-492.5 789.42,-446.84 755.18,-411.09 779,-350.5 794.99,-309.82 821.33,-265.8 836.58,-241.75"/>
<polygon fill="midnightblue" stroke="midnightblue" points="839.56,-243.59 842.01,-233.28 833.67,-239.81 839.56,-243.59"/>
</g>
<!-- Node5&#45;&gt;Node4 -->
<g id="edge6" class="edge">
<title>Node5&#45;&gt;Node4</title>
<path fill="none" stroke="midnightblue" d="M867.48,-233.14C881.81,-241.47 902.7,-254.11 920,-266.5 947.38,-286.11 976.89,-310.84 997.09,-328.38"/>
<polygon fill="midnightblue" stroke="midnightblue" points="995.05,-331.24 1004.88,-335.19 999.65,-325.97 995.05,-331.24"/>
</g>
<!-- Node6 -->
<g id="node6" class="node">
<title>Node6</title>
<g id="a_node6"><a xlink:href="../../dd/d55/a01638.html#a3975ba7dca9fe2d6e4992b2b5558f882" target="_top" xlink:title=" ">
<polygon fill="none" stroke="black" points="956.5,-214 956.5,-233 1089.5,-233 1089.5,-214 956.5,-214"/>
<text text-anchor="middle" x="1023" y="-221" font-family="Helvetica,sans-Serif" font-size="10.00">com.cliffc.aa.util.Util.eq</text>
</a>
</g>
</g>
<!-- Node5&#45;&gt;Node6 -->
<g id="edge5" class="edge">
<title>Node5&#45;&gt;Node6</title>
<path fill="none" stroke="midnightblue" d="M919.76,-223.5C928.45,-223.5 937.37,-223.5 946.15,-223.5"/>
<polygon fill="midnightblue" stroke="midnightblue" points="946.37,-227 956.37,-223.5 946.37,-220 946.37,-227"/>
</g>
<!-- Node7&#45;&gt;Node4 -->
<g id="edge8" class="edge">
<title>Node7&#45;&gt;Node4</title>
<path fill="none" stroke="midnightblue" d="M705.24,-231.05C717.48,-233.93 730.8,-237.2 743,-240.5 822.4,-261.96 844.22,-262.54 920,-294.5 943.94,-304.6 969.58,-318.69 989.16,-330.21"/>
<polygon fill="midnightblue" stroke="midnightblue" points="987.59,-333.35 997.97,-335.46 991.17,-327.33 987.59,-333.35"/>
</g>
<!-- Node7&#45;&gt;Node5 -->
<g id="edge9" class="edge">
<title>Node7&#45;&gt;Node5</title>
<path fill="none" stroke="midnightblue" d="M743,-222.37C751.68,-222.46 760.51,-222.55 769.17,-222.65"/>
<polygon fill="midnightblue" stroke="midnightblue" points="769.22,-226.15 779.25,-222.76 769.29,-219.15 769.22,-226.15"/>
</g>
<!-- Node8&#45;&gt;Node4 -->
<g id="edge11" class="edge">
<title>Node8&#45;&gt;Node4</title>
<path fill="none" stroke="midnightblue" d="M737.51,-148.47C792.16,-153.83 865.81,-167.97 920,-204.5 943.64,-220.43 986.13,-289.15 1008.07,-326.35"/>
<polygon fill="midnightblue" stroke="midnightblue" points="1005.1,-328.22 1013.17,-335.08 1011.14,-324.68 1005.1,-328.22"/>
</g>
<!-- Node8&#45;&gt;Node5 -->
<g id="edge12" class="edge">
<title>Node8&#45;&gt;Node5</title>
<path fill="none" stroke="midnightblue" d="M712.54,-155.03C722.78,-157.61 733.36,-160.75 743,-164.5 773.16,-176.23 805.26,-195.23 826.02,-208.49"/>
<polygon fill="midnightblue" stroke="midnightblue" points="824.16,-211.45 834.45,-213.96 827.97,-205.58 824.16,-211.45"/>
</g>
<!-- Node9&#45;&gt;Node4 -->
<g id="edge14" class="edge">
<title>Node9&#45;&gt;Node4</title>
<path fill="none" stroke="midnightblue" d="M705.87,-269C718,-272 731.1,-275.57 743,-279.5 759.46,-284.94 762.5,-289.2 779,-294.5 833.94,-312.14 897.53,-326.59 945.88,-336.39"/>
<polygon fill="midnightblue" stroke="midnightblue" points="945.46,-339.88 955.96,-338.41 946.84,-333.01 945.46,-339.88"/>
</g>
<!-- Node9&#45;&gt;Node5 -->
<g id="edge15" class="edge">
<title>Node9&#45;&gt;Node5</title>
<path fill="none" stroke="midnightblue" d="M711.86,-249.95C735.6,-245.35 764.25,-239.81 789.17,-234.98"/>
<polygon fill="midnightblue" stroke="midnightblue" points="790.08,-238.37 799.24,-233.03 788.75,-231.5 790.08,-238.37"/>
</g>
<!-- Node10&#45;&gt;Node5 -->
<g id="edge17" class="edge">
<title>Node10&#45;&gt;Node5</title>
<path fill="none" stroke="midnightblue" d="M707.05,-193.08C733.28,-198.72 766.64,-205.9 794.37,-211.86"/>
<polygon fill="midnightblue" stroke="midnightblue" points="793.8,-215.32 804.31,-214 795.27,-208.47 793.8,-215.32"/>
</g>
<!-- Node14 -->
<g id="node14" class="node">
<title>Node14</title>
<g id="a_node14"><a xlink:href="../../df/dee/a01646.html#a832a026adcca9a4e1ad14a2621bf0185" target="_top" xlink:title=" ">
<polygon fill="none" stroke="black" points="382,-300 382,-319 534,-319 534,-300 382,-300"/>
<text text-anchor="middle" x="458" y="-307" font-family="Helvetica,sans-Serif" font-size="10.00">com.cliffc.aa.util.VBitSet.clr</text>
</a>
</g>
</g>
<!-- Node13&#45;&gt;Node14 -->
<g id="edge22" class="edge">
<title>Node13&#45;&gt;Node14</title>
<path fill="none" stroke="midnightblue" d="M324.05,-309.5C339.28,-309.5 355.62,-309.5 371.45,-309.5"/>
<polygon fill="midnightblue" stroke="midnightblue" points="371.77,-313 381.77,-309.5 371.77,-306 371.77,-313"/>
</g>
<!-- Node15 -->
<g id="node15" class="node">
<title>Node15</title>
<g id="a_node15"><a xlink:href="../../dc/d25/a01406.html#aab01004b5728ce0109daff3f4fb48b4b" target="_top" xlink:title=" ">
<polygon fill="none" stroke="black" points="372,-338 372,-357 544,-357 544,-338 372,-338"/>
<text text-anchor="middle" x="458" y="-345" font-family="Helvetica,sans-Serif" font-size="10.00">com.cliffc.aa.tvar.TV2.find_dups</text>
</a>
</g>
</g>
<!-- Node13&#45;&gt;Node15 -->
<g id="edge23" class="edge">
<title>Node13&#45;&gt;Node15</title>
<path fill="none" stroke="midnightblue" d="M306.46,-319.04C333.82,-324.21 367.82,-330.64 396.58,-336.08"/>
<polygon fill="midnightblue" stroke="midnightblue" points="396.04,-339.54 406.52,-337.96 397.34,-332.66 396.04,-339.54"/>
</g>
<!-- Node15&#45;&gt;Node4 -->
<g id="edge31" class="edge">
<title>Node15&#45;&gt;Node4</title>
<path fill="none" stroke="midnightblue" d="M485.52,-357.14C509.77,-365.53 546.82,-377.3 580,-383.5 728.71,-411.28 772.5,-433.09 920,-399.5 944.64,-393.89 970.27,-381.55 989.67,-370.65"/>
<polygon fill="midnightblue" stroke="midnightblue" points="991.48,-373.65 998.4,-365.62 987.99,-367.59 991.48,-373.65"/>
</g>
<!-- Node15&#45;&gt;Node7 -->
<g id="edge28" class="edge">
<title>Node15&#45;&gt;Node7</title>
<path fill="none" stroke="midnightblue" d="M528.97,-337.89C534.39,-335.39 539.49,-332.3 544,-328.5 576.29,-301.24 547.87,-267.95 580,-240.5 581.96,-238.83 584.04,-237.29 586.21,-235.89"/>
<polygon fill="midnightblue" stroke="midnightblue" points="587.9,-238.96 595,-231.1 584.55,-232.81 587.9,-238.96"/>
</g>
<!-- Node15&#45;&gt;Node9 -->
<g id="edge29" class="edge">
<title>Node15&#45;&gt;Node9</title>
<path fill="none" stroke="midnightblue" d="M524.56,-337.96C531.42,-335.49 538.05,-332.39 544,-328.5 566.63,-313.72 557.55,-294.54 580,-279.5 583.73,-277 587.76,-274.81 591.94,-272.89"/>
<polygon fill="midnightblue" stroke="midnightblue" points="593.33,-276.1 601.3,-269.12 590.72,-269.61 593.33,-276.1"/>
</g>
<!-- Node15&#45;&gt;Node10 -->
<g id="edge30" class="edge">
<title>Node15&#45;&gt;Node10</title>
<path fill="none" stroke="midnightblue" d="M530.66,-337.8C535.51,-335.3 540.04,-332.24 544,-328.5 586.37,-288.54 537.87,-242.71 580,-202.5 581.48,-201.09 583.05,-199.77 584.68,-198.55"/>
<polygon fill="midnightblue" stroke="midnightblue" points="586.72,-201.41 593.38,-193.17 583.04,-195.45 586.72,-201.41"/>
</g>
<!-- Node15&#45;&gt;Node15 -->
<g id="edge25" class="edge">
<title>Node15&#45;&gt;Node15</title>
<path fill="none" stroke="midnightblue" d="M426.87,-357.26C411.72,-366.07 422.1,-375.5 458,-375.5 483.24,-375.5 495.87,-370.84 495.87,-365"/>
<polygon fill="midnightblue" stroke="midnightblue" points="498.34,-362.5 489.13,-357.26 493.06,-367.1 498.34,-362.5"/>
</g>
<!-- Node16 -->
<g id="node16" class="node">
<title>Node16</title>
<g id="a_node16"><a xlink:href="../../d3/d2d/a01606.html#a81efe0f95acedf68bddb8ebd7b45b26f" target="_top" xlink:title="Tests if the key in the table.">
<polygon fill="none" stroke="black" points="580.5,-288.5 580.5,-318.5 742.5,-318.5 742.5,-288.5 580.5,-288.5"/>
<text text-anchor="start" x="588.5" y="-306.5" font-family="Helvetica,sans-Serif" font-size="10.00">com.cliffc.aa.util.NonBlocking</text>
<text text-anchor="middle" x="661.5" y="-295.5" font-family="Helvetica,sans-Serif" font-size="10.00">HashMapLong.containsKey</text>
</a>
</g>
</g>
<!-- Node15&#45;&gt;Node16 -->
<g id="edge24" class="edge">
<title>Node15&#45;&gt;Node16</title>
<path fill="none" stroke="midnightblue" d="M502.72,-337.95C525.81,-332.91 554.87,-326.57 581.73,-320.7"/>
<polygon fill="midnightblue" stroke="midnightblue" points="582.48,-324.12 591.51,-318.57 580.99,-317.28 582.48,-324.12"/>
</g>
<!-- Node17 -->
<g id="node17" class="node">
<title>Node17</title>
<g id="a_node17"><a xlink:href="../../dc/d25/a01406.html#a83d255f4df21f8b775f0a71b4fbb9e01" target="_top" xlink:title=" ">
<polygon fill="none" stroke="black" points="779,-359.5 779,-389.5 920,-389.5 920,-359.5 779,-359.5"/>
<text text-anchor="start" x="787" y="-377.5" font-family="Helvetica,sans-Serif" font-size="10.00">com.cliffc.aa.tvar.TV2.get</text>
<text text-anchor="middle" x="849.5" y="-366.5" font-family="Helvetica,sans-Serif" font-size="10.00">_unified</text>
</a>
</g>
</g>
<!-- Node15&#45;&gt;Node17 -->
<g id="edge26" class="edge">
<title>Node15&#45;&gt;Node17</title>
<path fill="none" stroke="midnightblue" d="M510.34,-357.03C531.79,-360.62 557.03,-364.36 580,-366.5 643.25,-372.38 715.22,-374.27 768.71,-374.75"/>
<polygon fill="midnightblue" stroke="midnightblue" points="768.79,-378.25 778.81,-374.83 768.84,-371.25 768.79,-378.25"/>
</g>
<!-- Node18 -->
<g id="node18" class="node">
<title>Node18</title>
<g id="a_node18"><a xlink:href="../../d3/d2d/a01606.html#a5a55b6990f90cebab60051b6a03c5e3b" target="_top" xlink:title="Maps the specified key to the specified value in the table.">
<polygon fill="none" stroke="black" points="580.5,-452.5 580.5,-482.5 742.5,-482.5 742.5,-452.5 580.5,-452.5"/>
<text text-anchor="start" x="588.5" y="-470.5" font-family="Helvetica,sans-Serif" font-size="10.00">com.cliffc.aa.util.NonBlocking</text>
<text text-anchor="middle" x="661.5" y="-459.5" font-family="Helvetica,sans-Serif" font-size="10.00">HashMapLong.put</text>
</a>
</g>
</g>
<!-- Node15&#45;&gt;Node18 -->
<g id="edge32" class="edge">
<title>Node15&#45;&gt;Node18</title>
<path fill="none" stroke="midnightblue" d="M469.63,-357.06C489.86,-374.87 535.84,-413.48 580,-437.5 587.44,-441.55 595.54,-445.27 603.64,-448.62"/>
<polygon fill="midnightblue" stroke="midnightblue" points="602.53,-451.95 613.11,-452.38 605.11,-445.44 602.53,-451.95"/>
</g>
<!-- Node19 -->
<g id="node19" class="node">
<title>Node19</title>
<g id="a_node19"><a xlink:href="../../df/dee/a01646.html#a88ad20daf92e92fe0e3925b23c4fecf0" target="_top" xlink:title=" ">
<polygon fill="none" stroke="black" points="582.5,-338 582.5,-357 740.5,-357 740.5,-338 582.5,-338"/>
<text text-anchor="middle" x="661.5" y="-345" font-family="Helvetica,sans-Serif" font-size="10.00">com.cliffc.aa.util.VBitSet.tset</text>
</a>
</g>
</g>
<!-- Node15&#45;&gt;Node19 -->
<g id="edge33" class="edge">
<title>Node15&#45;&gt;Node19</title>
<path fill="none" stroke="midnightblue" d="M544.16,-347.5C553.47,-347.5 562.96,-347.5 572.3,-347.5"/>
<polygon fill="midnightblue" stroke="midnightblue" points="572.37,-351 582.37,-347.5 572.37,-344 572.37,-351"/>
</g>
<!-- Node17&#45;&gt;Node4 -->
<g id="edge27" class="edge">
<title>Node17&#45;&gt;Node4</title>
<path fill="none" stroke="midnightblue" d="M920.26,-364.74C928.72,-363.55 937.4,-362.34 945.95,-361.14"/>
<polygon fill="midnightblue" stroke="midnightblue" points="946.49,-364.6 955.91,-359.75 945.52,-357.67 946.49,-364.6"/>
</g>
</g>
</svg>
