<?xml version="1.0" encoding="UTF-8" standalone="no"?>
<!DOCTYPE svg PUBLIC "-//W3C//DTD SVG 1.1//EN"
 "http://www.w3.org/Graphics/SVG/1.1/DTD/svg11.dtd">
<!-- Generated by graphviz version 2.43.0 (0)
 -->
<!-- Title: com.cliffc.aa.tvar.TV2.unify_at Pages: 1 -->
<!--zoomable 410 -->
<svg id="main" version="1.1" xmlns="http://www.w3.org/2000/svg" xmlns:xlink="http://www.w3.org/1999/xlink" xml:space="preserve" onload="init(evt)">
<style type="text/css"><![CDATA[
.edge:hover path { stroke: red; }
.edge:hover polygon { stroke: red; fill: red; }
]]></style>
<script type="text/javascript"><![CDATA[
var edges = document.getElementsByTagName('g');
if (edges && edges.length) {
  for (var i=0;i<edges.length;i++) {
    if (edges[i].id.substr(0,4)=='edge') {
      edges[i].setAttribute('class','edge');
    }
  }
}
]]></script>
        <defs>
                <circle id="rim" cx="0" cy="0" r="7"/>
                <circle id="rim2" cx="0" cy="0" r="3.5"/>
                <g id="zoomPlus">
                        <use xlink:href="#rim" fill="#404040">
                                <set attributeName="fill" to="#808080" begin="zoomplus.mouseover" end="zoomplus.mouseout"/>
                        </use>
                        <path d="M-4,0h8M0,-4v8" fill="none" stroke="white" stroke-width="1.5" pointer-events="none"/>
                </g>
                <g id="zoomMin">
                        <use xlink:href="#rim" fill="#404040">
                                <set attributeName="fill" to="#808080" begin="zoomminus.mouseover" end="zoomminus.mouseout"/>
                        </use>
                        <path d="M-4,0h8" fill="none" stroke="white" stroke-width="1.5" pointer-events="none"/>
                </g>
                <g id="dirArrow">
                        <path fill="none" stroke="white" stroke-width="1.5" d="M0,-3.0v7 M-2.5,-0.5L0,-3.0L2.5,-0.5"/>
                </g>
               <g id="resetDef">
                       <use xlink:href="#rim2" fill="#404040">
                               <set attributeName="fill" to="#808080" begin="reset.mouseover" end="reset.mouseout"/>
                       </use>
               </g>
        </defs>

<script type="text/javascript">
var viewWidth = 1474;
var viewHeight = 410;
var sectionId = 'dynsection-97';
</script>
<script xlink:href="../../svgpan.js"/>
<svg id="graph" class="graph">
<g id="viewport">
<title>com.cliffc.aa.tvar.TV2.unify_at</title>
<!-- Node1 -->
<g id="node1" class="node">
<title>Node1</title>
<g id="a_node1"><a xlink:title=" ">
<polygon fill="#bfbfbf" stroke="black" points="0,-95.5 0,-114.5 164,-114.5 164,-95.5 0,-95.5"/>
<text text-anchor="middle" x="82" y="-102.5" font-family="Helvetica,sans-Serif" font-size="10.00">com.cliffc.aa.tvar.TV2.unify_at</text>
</a>
</g>
</g>
<!-- Node2 -->
<g id="node2" class="node">
<title>Node2</title>
<g id="a_node2"><a xlink:href="../../d9/d0a/a00390.html#a195b2b7d0b8f0f1770422573c2cc22ff" target="_top" xlink:title=" ">
<polygon fill="none" stroke="black" points="200,-190.5 200,-209.5 373,-209.5 373,-190.5 200,-190.5"/>
<text text-anchor="middle" x="286.5" y="-197.5" font-family="Helvetica,sans-Serif" font-size="10.00">com.cliffc.aa.GVNGCM.add_flow</text>
</a>
</g>
</g>
<!-- Node1&#45;&gt;Node2 -->
<g id="edge1" class="edge">
<title>Node1&#45;&gt;Node2</title>
<path fill="none" stroke="midnightblue" d="M94.49,-114.51C114.59,-130.65 158.01,-163.38 200,-181 206.12,-183.57 212.65,-185.82 219.25,-187.77"/>
<polygon fill="midnightblue" stroke="midnightblue" points="218.39,-191.17 228.96,-190.44 220.24,-184.42 218.39,-191.17"/>
</g>
<!-- Node6 -->
<g id="node6" class="node">
<title>Node6</title>
<g id="a_node6"><a xlink:href="../../dc/d25/a01406.html#a377695e89e0f4d49d74ecfdde4e432a7" target="_top" xlink:title=" ">
<polygon fill="none" stroke="black" points="203,-152.5 203,-171.5 370,-171.5 370,-152.5 203,-152.5"/>
<text text-anchor="middle" x="286.5" y="-159.5" font-family="Helvetica,sans-Serif" font-size="10.00">com.cliffc.aa.tvar.TV2.args_put</text>
</a>
</g>
</g>
<!-- Node1&#45;&gt;Node6 -->
<g id="edge5" class="edge">
<title>Node1&#45;&gt;Node6</title>
<path fill="none" stroke="midnightblue" d="M116.79,-114.54C140.16,-121.14 171.96,-130.11 200,-138 213.48,-141.79 228.16,-145.92 241.49,-149.66"/>
<polygon fill="midnightblue" stroke="midnightblue" points="240.81,-153.1 251.38,-152.43 242.7,-146.36 240.81,-153.1"/>
</g>
<!-- Node19 -->
<g id="node19" class="node">
<title>Node19</title>
<g id="a_node19"><a xlink:href="../../dc/d25/a01406.html#a4648c36530ad943bcfe943b14dc33c36" target="_top" xlink:title=" ">
<polygon fill="none" stroke="black" points="872.5,-71 872.5,-101 1006.5,-101 1006.5,-71 872.5,-71"/>
<text text-anchor="start" x="880.5" y="-89" font-family="Helvetica,sans-Serif" font-size="10.00">com.cliffc.aa.tvar.TV2.is</text>
<text text-anchor="middle" x="939.5" y="-78" font-family="Helvetica,sans-Serif" font-size="10.00">_unified</text>
</a>
</g>
</g>
<!-- Node1&#45;&gt;Node19 -->
<g id="edge25" class="edge">
<title>Node1&#45;&gt;Node19</title>
<path fill="none" stroke="midnightblue" d="M164.25,-103.2C329.24,-99.53 701.43,-91.27 862.19,-87.69"/>
<polygon fill="midnightblue" stroke="midnightblue" points="862.54,-91.19 872.46,-87.47 862.39,-84.19 862.54,-91.19"/>
</g>
<!-- Node20 -->
<g id="node20" class="node">
<title>Node20</title>
<g id="a_node20"><a xlink:href="../../dc/d25/a01406.html#a87dfb7406a83eb8d86b5784a65efb673" target="_top" xlink:title=" ">
<polygon fill="none" stroke="black" points="420,-114.5 420,-133.5 583,-133.5 583,-114.5 420,-114.5"/>
<text text-anchor="middle" x="501.5" y="-121.5" font-family="Helvetica,sans-Serif" font-size="10.00">com.cliffc.aa.tvar.TV2.is_dead</text>
</a>
</g>
</g>
<!-- Node1&#45;&gt;Node20 -->
<g id="edge20" class="edge">
<title>Node1&#45;&gt;Node20</title>
<path fill="none" stroke="midnightblue" d="M164.49,-108.71C234.98,-111.92 336.77,-116.55 409.82,-119.87"/>
<polygon fill="midnightblue" stroke="midnightblue" points="409.78,-123.37 419.93,-120.33 410.1,-116.38 409.78,-123.37"/>
</g>
<!-- Node21 -->
<g id="node21" class="node">
<title>Node21</title>
<g id="a_node21"><a xlink:href="../../dc/d25/a01406.html#a29d8787303bd1c47c3250141c67fcae6" target="_top" xlink:title=" ">
<polygon fill="none" stroke="black" points="422.5,-38.5 422.5,-57.5 580.5,-57.5 580.5,-38.5 422.5,-38.5"/>
<text text-anchor="middle" x="501.5" y="-45.5" font-family="Helvetica,sans-Serif" font-size="10.00">com.cliffc.aa.tvar.TV2.is_tvar</text>
</a>
</g>
</g>
<!-- Node1&#45;&gt;Node21 -->
<g id="edge23" class="edge">
<title>Node1&#45;&gt;Node21</title>
<path fill="none" stroke="midnightblue" d="M111.01,-95.43C134.49,-87.82 169.05,-77.55 200,-72 270.73,-59.33 352.04,-53.34 412.22,-50.52"/>
<polygon fill="midnightblue" stroke="midnightblue" points="412.62,-54.01 422.45,-50.06 412.31,-47.01 412.62,-54.01"/>
</g>
<!-- Node22 -->
<g id="node22" class="node">
<title>Node22</title>
<g id="a_node22"><a xlink:href="../../dc/d25/a01406.html#a8c549020b422e3d5c4dc123913024215" target="_top" xlink:title=" ">
<polygon fill="none" stroke="black" points="212,-0.5 212,-19.5 361,-19.5 361,-0.5 212,-0.5"/>
<text text-anchor="middle" x="286.5" y="-7.5" font-family="Helvetica,sans-Serif" font-size="10.00">com.cliffc.aa.tvar.TV2.unify</text>
</a>
</g>
</g>
<!-- Node1&#45;&gt;Node22 -->
<g id="edge26" class="edge">
<title>Node1&#45;&gt;Node22</title>
<path fill="none" stroke="midnightblue" d="M96.04,-95.44C117,-80.47 159.9,-51.41 200,-34 210.29,-29.53 221.63,-25.67 232.6,-22.42"/>
<polygon fill="midnightblue" stroke="midnightblue" points="233.86,-25.71 242.53,-19.62 231.95,-18.97 233.86,-25.71"/>
</g>
<!-- Node3 -->
<g id="node3" class="node">
<title>Node3</title>
<g id="a_node3"><a xlink:href="../../d9/d0a/a00390.html#a6074ca566ae10e746122ac8d09239d02" target="_top" xlink:title=" ">
<polygon fill="none" stroke="black" points="413,-190.5 413,-209.5 590,-209.5 590,-190.5 413,-190.5"/>
<text text-anchor="middle" x="501.5" y="-197.5" font-family="Helvetica,sans-Serif" font-size="10.00">com.cliffc.aa.GVNGCM.add_work</text>
</a>
</g>
</g>
<!-- Node2&#45;&gt;Node3 -->
<g id="edge2" class="edge">
<title>Node2&#45;&gt;Node3</title>
<path fill="none" stroke="midnightblue" d="M373.21,-200C382.91,-200 392.84,-200 402.68,-200"/>
<polygon fill="midnightblue" stroke="midnightblue" points="402.88,-203.5 412.88,-200 402.88,-196.5 402.88,-203.5"/>
</g>
<!-- Node4 -->
<g id="node4" class="node">
<title>Node4</title>
<g id="a_node4"><a xlink:href="../../d6/d2f/a01394.html#acc21c59313a6ce5c286431fd2d4fd891" target="_top" xlink:title=" ">
<polygon fill="none" stroke="black" points="644,-323.5 644,-342.5 799,-342.5 799,-323.5 644,-323.5"/>
<text text-anchor="middle" x="721.5" y="-330.5" font-family="Helvetica,sans-Serif" font-size="10.00">com.cliffc.aa.node.Work.add</text>
</a>
</g>
</g>
<!-- Node3&#45;&gt;Node4 -->
<g id="edge3" class="edge">
<title>Node3&#45;&gt;Node4</title>
<path fill="none" stroke="midnightblue" d="M518.18,-209.57C555.72,-232.47 650.98,-290.59 696.1,-318.11"/>
<polygon fill="midnightblue" stroke="midnightblue" points="694.31,-321.12 704.67,-323.34 697.96,-315.15 694.31,-321.12"/>
</g>
<!-- Node5 -->
<g id="node5" class="node">
<title>Node5</title>
<g id="a_node5"><a xlink:href="../../df/dee/a01646.html#a88ad20daf92e92fe0e3925b23c4fecf0" target="_top" xlink:title=" ">
<polygon fill="none" stroke="black" points="860.5,-382.5 860.5,-401.5 1018.5,-401.5 1018.5,-382.5 860.5,-382.5"/>
<text text-anchor="middle" x="939.5" y="-389.5" font-family="Helvetica,sans-Serif" font-size="10.00">com.cliffc.aa.util.VBitSet.tset</text>
</a>
</g>
</g>
<!-- Node4&#45;&gt;Node5 -->
<g id="edge4" class="edge">
<title>Node4&#45;&gt;Node5</title>
<path fill="none" stroke="midnightblue" d="M756.57,-342.51C782.02,-349.59 817.67,-359.47 849,-368 863.24,-371.88 878.77,-376.06 892.83,-379.83"/>
<polygon fill="midnightblue" stroke="midnightblue" points="892.21,-383.28 902.77,-382.49 894.01,-376.52 892.21,-383.28"/>
</g>
<!-- Node7 -->
<g id="node7" class="node">
<title>Node7</title>
<g id="a_node7"><a xlink:href="../../dc/d25/a01406.html#a421ae75e116a6fb426743a25228966d5" target="_top" xlink:title=" ">
<polygon fill="none" stroke="black" points="409,-152.5 409,-171.5 594,-171.5 594,-152.5 409,-152.5"/>
<text text-anchor="middle" x="501.5" y="-159.5" font-family="Helvetica,sans-Serif" font-size="10.00">com.cliffc.aa.tvar.TV2.merge_deps</text>
</a>
</g>
</g>
<!-- Node6&#45;&gt;Node7 -->
<g id="edge6" class="edge">
<title>Node6&#45;&gt;Node7</title>
<path fill="none" stroke="midnightblue" d="M370.16,-162C379.43,-162 388.96,-162 398.44,-162"/>
<polygon fill="midnightblue" stroke="midnightblue" points="398.7,-165.5 408.7,-162 398.7,-158.5 398.7,-165.5"/>
</g>
<!-- Node8 -->
<g id="node8" class="node">
<title>Node8</title>
<g id="a_node8"><a xlink:href="../../d8/df1/a01414.html#a307da1f173cb93565f32125d90d7f2cb" target="_top" xlink:title=" ">
<polygon fill="none" stroke="black" points="630,-226.5 630,-245.5 813,-245.5 813,-226.5 630,-226.5"/>
<text text-anchor="middle" x="721.5" y="-233.5" font-family="Helvetica,sans-Serif" font-size="10.00">com.cliffc.aa.tvar.UQNodes.addAll</text>
</a>
</g>
</g>
<!-- Node7&#45;&gt;Node8 -->
<g id="edge7" class="edge">
<title>Node7&#45;&gt;Node8</title>
<path fill="none" stroke="midnightblue" d="M557.65,-171.54C569.75,-174.16 582.4,-177.32 594,-181 629.01,-192.12 667.49,-209.66 692.7,-221.94"/>
<polygon fill="midnightblue" stroke="midnightblue" points="691.17,-225.08 701.68,-226.36 694.26,-218.8 691.17,-225.08"/>
</g>
<!-- Node17 -->
<g id="node17" class="node">
<title>Node17</title>
<g id="a_node17"><a xlink:href="../../dc/d25/a01406.html#a4c6344d5b696661ebc8894c4d6d5d83d" target="_top" xlink:title=" ">
<polygon fill="none" stroke="black" points="651.5,-152.5 651.5,-171.5 791.5,-171.5 791.5,-152.5 651.5,-152.5"/>
<text text-anchor="middle" x="721.5" y="-159.5" font-family="Helvetica,sans-Serif" font-size="10.00">com.cliffc.aa.tvar.TV2.isa</text>
</a>
</g>
</g>
<!-- Node7&#45;&gt;Node17 -->
<g id="edge17" class="edge">
<title>Node7&#45;&gt;Node17</title>
<path fill="none" stroke="midnightblue" d="M594,-162C609.62,-162 625.74,-162 641.01,-162"/>
<polygon fill="midnightblue" stroke="midnightblue" points="641.44,-165.5 651.44,-162 641.44,-158.5 641.44,-165.5"/>
</g>
<!-- Node9 -->
<g id="node9" class="node">
<title>Node9</title>
<g id="a_node9"><a xlink:href="../../d3/d2d/a01606.html#ac30117742c9a7c0573e631930ecc22d1" target="_top" xlink:title="Returns the value to which the specified key is mapped, or.">
<polygon fill="none" stroke="black" points="858.5,-197 858.5,-227 1020.5,-227 1020.5,-197 858.5,-197"/>
<text text-anchor="start" x="866.5" y="-215" font-family="Helvetica,sans-Serif" font-size="10.00">com.cliffc.aa.util.NonBlocking</text>
<text text-anchor="middle" x="939.5" y="-204" font-family="Helvetica,sans-Serif" font-size="10.00">HashMapLong.get</text>
</a>
</g>
</g>
<!-- Node8&#45;&gt;Node9 -->
<g id="edge8" class="edge">
<title>Node8&#45;&gt;Node9</title>
<path fill="none" stroke="midnightblue" d="M808.18,-226.48C821.32,-225.02 834.92,-223.51 848.16,-222.04"/>
<polygon fill="midnightblue" stroke="midnightblue" points="848.64,-225.51 858.2,-220.92 847.87,-218.55 848.64,-225.51"/>
</g>
<!-- Node10 -->
<g id="node10" class="node">
<title>Node10</title>
<g id="a_node10"><a xlink:href="../../d8/df1/a01414.html#afb5d3642632092c0588bb37cc2d58a87" target="_top" xlink:title=" ">
<polygon fill="none" stroke="black" points="849,-158.5 849,-177.5 1030,-177.5 1030,-158.5 849,-158.5"/>
<text text-anchor="middle" x="939.5" y="-165.5" font-family="Helvetica,sans-Serif" font-size="10.00">com.cliffc.aa.tvar.UQNodes.intern</text>
</a>
</g>
</g>
<!-- Node8&#45;&gt;Node10 -->
<g id="edge9" class="edge">
<title>Node8&#45;&gt;Node10</title>
<path fill="none" stroke="midnightblue" d="M745.02,-226.34C770.06,-215.85 811.87,-199.13 849,-188 858.94,-185.02 869.62,-182.26 880.02,-179.8"/>
<polygon fill="midnightblue" stroke="midnightblue" points="880.9,-183.19 889.87,-177.54 879.34,-176.37 880.9,-183.19"/>
</g>
<!-- Node14 -->
<g id="node14" class="node">
<title>Node14</title>
<g id="a_node14"><a xlink:href="../../d3/d2d/a01606.html#a7dabc238f566bd1039cc62b63af734ed" target="_top" xlink:title="Returns a Collection view of the values contained in this map.">
<polygon fill="none" stroke="black" points="1294,-270 1294,-300 1466,-300 1466,-270 1294,-270"/>
<text text-anchor="start" x="1302" y="-288" font-family="Helvetica,sans-Serif" font-size="10.00">com.cliffc.aa.util.NonBlocking</text>
<text text-anchor="middle" x="1380" y="-277" font-family="Helvetica,sans-Serif" font-size="10.00">HashMapLong&lt; Node &gt;::values</text>
</a>
</g>
</g>
<!-- Node8&#45;&gt;Node14 -->
<g id="edge16" class="edge">
<title>Node8&#45;&gt;Node14</title>
<path fill="none" stroke="midnightblue" d="M733.08,-245.79C758.38,-268.93 822.24,-325.77 849,-335 1017.35,-393.05 1232.53,-335.39 1328.67,-303.32"/>
<polygon fill="midnightblue" stroke="midnightblue" points="1330.07,-306.54 1338.42,-300.01 1327.82,-299.91 1330.07,-306.54"/>
</g>
<!-- Node15 -->
<g id="node15" class="node">
<title>Node15</title>
<g id="a_node15"><a xlink:href="../../d3/d2d/a01606.html#a5a55b6990f90cebab60051b6a03c5e3b" target="_top" xlink:title="Maps the specified key to the specified value in the table.">
<polygon fill="none" stroke="black" points="858.5,-295 858.5,-325 1020.5,-325 1020.5,-295 858.5,-295"/>
<text text-anchor="start" x="866.5" y="-313" font-family="Helvetica,sans-Serif" font-size="10.00">com.cliffc.aa.util.NonBlocking</text>
<text text-anchor="middle" x="939.5" y="-302" font-family="Helvetica,sans-Serif" font-size="10.00">HashMapLong.put</text>
</a>
</g>
</g>
<!-- Node8&#45;&gt;Node15 -->
<g id="edge14" class="edge">
<title>Node8&#45;&gt;Node15</title>
<path fill="none" stroke="midnightblue" d="M744.61,-245.63C769.64,-256.33 811.78,-273.7 849,-286 855.36,-288.1 862.02,-290.16 868.72,-292.12"/>
<polygon fill="midnightblue" stroke="midnightblue" points="867.94,-295.54 878.52,-294.93 869.87,-288.81 867.94,-295.54"/>
</g>
<!-- Node16 -->
<g id="node16" class="node">
<title>Node16</title>
<g id="a_node16"><a xlink:href="../../d3/d2d/a01606.html#ac862bee73e146376b7a2b6a724f65d1f" target="_top" xlink:title="Returns the number of key&#45;value mappings in this map.">
<polygon fill="none" stroke="black" points="858.5,-246 858.5,-276 1020.5,-276 1020.5,-246 858.5,-246"/>
<text text-anchor="start" x="866.5" y="-264" font-family="Helvetica,sans-Serif" font-size="10.00">com.cliffc.aa.util.NonBlocking</text>
<text text-anchor="middle" x="939.5" y="-253" font-family="Helvetica,sans-Serif" font-size="10.00">HashMapLong.size</text>
</a>
</g>
</g>
<!-- Node8&#45;&gt;Node16 -->
<g id="edge15" class="edge">
<title>Node8&#45;&gt;Node16</title>
<path fill="none" stroke="midnightblue" d="M804.78,-245.52C818.88,-247.15 833.6,-248.86 847.91,-250.51"/>
<polygon fill="midnightblue" stroke="midnightblue" points="847.9,-254.04 858.24,-251.71 848.71,-247.08 847.9,-254.04"/>
</g>
<!-- Node11 -->
<g id="node11" class="node">
<title>Node11</title>
<g id="a_node11"><a xlink:href="../../d3/d2d/a01606.html#aa68ea3508b91e708e371a02e473b5f3b" target="_top" xlink:title="Removes all of the mappings from this map.">
<polygon fill="none" stroke="black" points="1081,-197 1081,-227 1243,-227 1243,-197 1081,-197"/>
<text text-anchor="start" x="1089" y="-215" font-family="Helvetica,sans-Serif" font-size="10.00">com.cliffc.aa.util.NonBlocking</text>
<text text-anchor="middle" x="1162" y="-204" font-family="Helvetica,sans-Serif" font-size="10.00">HashMapLong.clear</text>
</a>
</g>
</g>
<!-- Node10&#45;&gt;Node11 -->
<g id="edge10" class="edge">
<title>Node10&#45;&gt;Node11</title>
<path fill="none" stroke="midnightblue" d="M988.35,-177.55C1013.84,-182.63 1045.96,-189.04 1075.57,-194.95"/>
<polygon fill="midnightblue" stroke="midnightblue" points="1075.01,-198.41 1085.5,-196.93 1076.38,-191.55 1075.01,-198.41"/>
</g>
<!-- Node12 -->
<g id="node12" class="node">
<title>Node12</title>
<g id="a_node12"><a xlink:href="../../d8/df1/a01414.html#a1a32bbfa753d3a048dad3af52e6e04f2" target="_top" xlink:title=" ">
<polygon fill="none" stroke="black" points="1066,-158.5 1066,-177.5 1258,-177.5 1258,-158.5 1066,-158.5"/>
<text text-anchor="middle" x="1162" y="-165.5" font-family="Helvetica,sans-Serif" font-size="10.00">com.cliffc.aa.tvar.UQNodes.setHash</text>
</a>
</g>
</g>
<!-- Node10&#45;&gt;Node12 -->
<g id="edge11" class="edge">
<title>Node10&#45;&gt;Node12</title>
<path fill="none" stroke="midnightblue" d="M1030.19,-168C1038.49,-168 1046.96,-168 1055.39,-168"/>
<polygon fill="midnightblue" stroke="midnightblue" points="1055.65,-171.5 1065.65,-168 1055.65,-164.5 1055.65,-171.5"/>
</g>
<!-- Node13 -->
<g id="node13" class="node">
<title>Node13</title>
<g id="a_node13"><a xlink:href="../../d3/d2d/a01606.html#a2242d40c2091176c7aec66a1c1f1b107" target="_top" xlink:title=" ">
<polygon fill="none" stroke="black" points="1298.5,-153 1298.5,-183 1461.5,-183 1461.5,-153 1298.5,-153"/>
<text text-anchor="start" x="1306.5" y="-171" font-family="Helvetica,sans-Serif" font-size="10.00">com.cliffc.aa.util.NonBlocking</text>
<text text-anchor="middle" x="1380" y="-160" font-family="Helvetica,sans-Serif" font-size="10.00">HashMapLong&lt; Node &gt;::hash</text>
</a>
</g>
</g>
<!-- Node12&#45;&gt;Node13 -->
<g id="edge12" class="edge">
<title>Node12&#45;&gt;Node13</title>
<path fill="none" stroke="midnightblue" d="M1258.06,-168C1268.05,-168 1278.2,-168 1288.15,-168"/>
<polygon fill="midnightblue" stroke="midnightblue" points="1288.43,-171.5 1298.43,-168 1288.42,-164.5 1288.43,-171.5"/>
</g>
<!-- Node12&#45;&gt;Node14 -->
<g id="edge13" class="edge">
<title>Node12&#45;&gt;Node14</title>
<path fill="none" stroke="midnightblue" d="M1228.46,-177.55C1238.61,-180.23 1248.78,-183.64 1258,-188 1297.36,-206.61 1335.28,-240.42 1357.87,-262.79"/>
<polygon fill="midnightblue" stroke="midnightblue" points="1355.4,-265.27 1364.92,-269.91 1360.37,-260.34 1355.4,-265.27"/>
</g>
<!-- Node18 -->
<g id="node18" class="node">
<title>Node18</title>
<g id="a_node18"><a xlink:href="../../dd/d55/a01638.html#a3975ba7dca9fe2d6e4992b2b5558f882" target="_top" xlink:title=" ">
<polygon fill="none" stroke="black" points="873,-120.5 873,-139.5 1006,-139.5 1006,-120.5 873,-120.5"/>
<text text-anchor="middle" x="939.5" y="-127.5" font-family="Helvetica,sans-Serif" font-size="10.00">com.cliffc.aa.util.Util.eq</text>
</a>
</g>
</g>
<!-- Node17&#45;&gt;Node18 -->
<g id="edge18" class="edge">
<title>Node17&#45;&gt;Node18</title>
<path fill="none" stroke="midnightblue" d="M786.72,-152.49C810.99,-148.89 838.8,-144.77 863.93,-141.05"/>
<polygon fill="midnightblue" stroke="midnightblue" points="864.77,-144.46 874.15,-139.53 863.75,-137.54 864.77,-144.46"/>
</g>
<!-- Node17&#45;&gt;Node19 -->
<g id="edge19" class="edge">
<title>Node17&#45;&gt;Node19</title>
<path fill="none" stroke="midnightblue" d="M772.11,-152.5C785.75,-148.92 800.27,-144.17 813,-138 831,-129.28 831.06,-119.84 849,-111 853.67,-108.7 858.59,-106.58 863.62,-104.63"/>
<polygon fill="midnightblue" stroke="midnightblue" points="865.17,-107.79 873.39,-101.1 862.79,-101.21 865.17,-107.79"/>
</g>
<!-- Node20&#45;&gt;Node17 -->
<g id="edge22" class="edge">
<title>Node20&#45;&gt;Node17</title>
<path fill="none" stroke="midnightblue" d="M557.23,-133.54C587.16,-138.76 624.42,-145.25 655.79,-150.72"/>
<polygon fill="midnightblue" stroke="midnightblue" points="655.3,-154.19 665.75,-152.46 656.5,-147.29 655.3,-154.19"/>
</g>
<!-- Node20&#45;&gt;Node19 -->
<g id="edge21" class="edge">
<title>Node20&#45;&gt;Node19</title>
<path fill="none" stroke="midnightblue" d="M583.31,-118.51C646.01,-114.07 735.08,-107.35 813,-100 829,-98.49 846.12,-96.7 862.41,-94.91"/>
<polygon fill="midnightblue" stroke="midnightblue" points="862.88,-98.38 872.43,-93.8 862.11,-91.42 862.88,-98.38"/>
</g>
<!-- Node21&#45;&gt;Node19 -->
<g id="edge24" class="edge">
<title>Node21&#45;&gt;Node19</title>
<path fill="none" stroke="midnightblue" d="M580.72,-53.31C643.55,-57.75 734.01,-64.54 813,-72 829,-73.51 846.12,-75.3 862.41,-77.09"/>
<polygon fill="midnightblue" stroke="midnightblue" points="862.11,-80.58 872.43,-78.2 862.88,-73.62 862.11,-80.58"/>
</g>
</g>
</svg>
        <g id="navigator" transform="translate(0 0)" fill="#404254">
                <rect fill="#f2f5e9" fill-opacity="0.5" stroke="#606060" stroke-width=".5" x="0" y="0" width="60" height="60"/>
                <use id="zoomplus" xlink:href="#zoomPlus" x="17" y="9" onmousedown="handleZoom(evt,'in')"/>
                <use id="zoomminus" xlink:href="#zoomMin" x="42" y="9" onmousedown="handleZoom(evt,'out')"/>
                <use id="reset" xlink:href="#resetDef" x="30" y="36" onmousedown="handleReset()"/>
                <g id="arrowUp" xlink:href="#dirArrow" transform="translate(30 24)" onmousedown="handlePan(0,-1)">
                  <use xlink:href="#rim" fill="#404040">
                        <set attributeName="fill" to="#808080" begin="arrowUp.mouseover" end="arrowUp.mouseout"/>
                  </use>
                  <path fill="none" stroke="white" stroke-width="1.5" d="M0,-3.0v7 M-2.5,-0.5L0,-3.0L2.5,-0.5"/>
                </g>
                <g id="arrowRight" xlink:href="#dirArrow" transform="rotate(90) translate(36 -43)" onmousedown="handlePan(1,0)">
                  <use xlink:href="#rim" fill="#404040">
                        <set attributeName="fill" to="#808080" begin="arrowRight.mouseover" end="arrowRight.mouseout"/>
                  </use>
                  <path fill="none" stroke="white" stroke-width="1.5" d="M0,-3.0v7 M-2.5,-0.5L0,-3.0L2.5,-0.5"/>
                </g>
                <g id="arrowDown" xlink:href="#dirArrow" transform="rotate(180) translate(-30 -48)" onmousedown="handlePan(0,1)">
                  <use xlink:href="#rim" fill="#404040">
                        <set attributeName="fill" to="#808080" begin="arrowDown.mouseover" end="arrowDown.mouseout"/>
                  </use>
                  <path fill="none" stroke="white" stroke-width="1.5" d="M0,-3.0v7 M-2.5,-0.5L0,-3.0L2.5,-0.5"/>
                </g>
                <g id="arrowLeft" xlink:href="#dirArrow" transform="rotate(270) translate(-36 17)" onmousedown="handlePan(-1,0)">
                  <use xlink:href="#rim" fill="#404040">
                        <set attributeName="fill" to="#808080" begin="arrowLeft.mouseover" end="arrowLeft.mouseout"/>
                  </use>
                  <path fill="none" stroke="white" stroke-width="1.5" d="M0,-3.0v7 M-2.5,-0.5L0,-3.0L2.5,-0.5"/>
                </g>
        </g>
        <svg viewBox="0 0 15 15" width="100%" height="30px" preserveAspectRatio="xMaxYMin meet">
         <g id="arrow_out" transform="scale(0.3 0.3)">
          <a xlink:href="a01406_ac393d2954fea05a334ccd88b12234a17_cgraph_org.svg" target="_base">
           <rect id="button" ry="5" rx="5" y="6" x="6" height="38" width="38"
                fill="#f2f5e9" fill-opacity="0.5" stroke="#606060" stroke-width="1.0"/>
           <path id="arrow"
             d="M 11.500037,31.436501 C 11.940474,20.09759 22.043105,11.32322 32.158766,21.979434 L 37.068811,17.246167 C 37.068811,17.246167 37.088388,32 37.088388,32 L 22.160133,31.978069 C 22.160133,31.978069 26.997745,27.140456 26.997745,27.140456 C 18.528582,18.264221 13.291696,25.230495 11.500037,31.436501 z"
             style="fill:#404040;"/>
          </a>
         </g>
        </svg>
</svg>
