<?xml version="1.0" encoding="UTF-8" standalone="no"?>
<!DOCTYPE svg PUBLIC "-//W3C//DTD SVG 1.1//EN"
 "http://www.w3.org/Graphics/SVG/1.1/DTD/svg11.dtd">
<!-- Generated by graphviz version 2.43.0 (0)
 -->
<!-- Title: com.cliffc.aa.tvar.TV2.merge_ns Pages: 1 -->
<svg width="1053pt" height="302pt"
 viewBox="0.00 0.00 1053.00 302.00" xmlns="http://www.w3.org/2000/svg" xmlns:xlink="http://www.w3.org/1999/xlink">
<g id="graph0" class="graph" transform="scale(1 1) rotate(0) translate(4 298)">
<title>com.cliffc.aa.tvar.TV2.merge_ns</title>
<!-- Node1 -->
<g id="node1" class="node">
<title>Node1</title>
<g id="a_node1"><a xlink:title=" ">
<polygon fill="#bfbfbf" stroke="black" points="0,-96 0,-115 173,-115 173,-96 0,-96"/>
<text text-anchor="middle" x="86.5" y="-103" font-family="Helvetica,sans-Serif" font-size="10.00">com.cliffc.aa.tvar.TV2.merge_ns</text>
</a>
</g>
</g>
<!-- Node2 -->
<g id="node2" class="node">
<title>Node2</title>
<g id="a_node2"><a xlink:href="../../d8/df1/a01414.html#a307da1f173cb93565f32125d90d7f2cb" target="_top" xlink:title=" ">
<polygon fill="none" stroke="black" points="209,-165 209,-184 392,-184 392,-165 209,-165"/>
<text text-anchor="middle" x="300.5" y="-172" font-family="Helvetica,sans-Serif" font-size="10.00">com.cliffc.aa.tvar.UQNodes.addAll</text>
</a>
</g>
</g>
<!-- Node1&#45;&gt;Node2 -->
<g id="edge1" class="edge">
<title>Node1&#45;&gt;Node2</title>
<path fill="none" stroke="midnightblue" d="M116.98,-115.09C154.4,-127.27 219.05,-148.32 260.52,-161.81"/>
<polygon fill="midnightblue" stroke="midnightblue" points="259.68,-165.22 270.27,-164.99 261.85,-158.56 259.68,-165.22"/>
</g>
<!-- Node11 -->
<g id="node11" class="node">
<title>Node11</title>
<g id="a_node11"><a xlink:href="../../dc/d25/a01406.html#a4c6344d5b696661ebc8894c4d6d5d83d" target="_top" xlink:title=" ">
<polygon fill="none" stroke="black" points="230.5,-50 230.5,-69 370.5,-69 370.5,-50 230.5,-50"/>
<text text-anchor="middle" x="300.5" y="-57" font-family="Helvetica,sans-Serif" font-size="10.00">com.cliffc.aa.tvar.TV2.isa</text>
</a>
</g>
</g>
<!-- Node1&#45;&gt;Node11 -->
<g id="edge11" class="edge">
<title>Node1&#45;&gt;Node11</title>
<path fill="none" stroke="midnightblue" d="M131.43,-95.97C164.54,-88.78 210.14,-78.89 245.48,-71.22"/>
<polygon fill="midnightblue" stroke="midnightblue" points="246.6,-74.56 255.63,-69.02 245.11,-67.72 246.6,-74.56"/>
</g>
<!-- Node3 -->
<g id="node3" class="node">
<title>Node3</title>
<g id="a_node3"><a xlink:href="../../d3/d2d/a01606.html#ac30117742c9a7c0573e631930ecc22d1" target="_top" xlink:title="Returns the value to which the specified key is mapped, or.">
<polygon fill="none" stroke="black" points="437.5,-263.5 437.5,-293.5 599.5,-293.5 599.5,-263.5 437.5,-263.5"/>
<text text-anchor="start" x="445.5" y="-281.5" font-family="Helvetica,sans-Serif" font-size="10.00">com.cliffc.aa.util.NonBlocking</text>
<text text-anchor="middle" x="518.5" y="-270.5" font-family="Helvetica,sans-Serif" font-size="10.00">HashMapLong.get</text>
</a>
</g>
</g>
<!-- Node2&#45;&gt;Node3 -->
<g id="edge2" class="edge">
<title>Node2&#45;&gt;Node3</title>
<path fill="none" stroke="midnightblue" d="M314.11,-184.1C336.12,-200.46 383.46,-233.86 428,-253.5 433.39,-255.88 439.06,-258.08 444.83,-260.12"/>
<polygon fill="midnightblue" stroke="midnightblue" points="443.99,-263.53 454.59,-263.39 446.22,-256.9 443.99,-263.53"/>
</g>
<!-- Node4 -->
<g id="node4" class="node">
<title>Node4</title>
<g id="a_node4"><a xlink:href="../../d8/df1/a01414.html#afb5d3642632092c0588bb37cc2d58a87" target="_top" xlink:title=" ">
<polygon fill="none" stroke="black" points="428,-225 428,-244 609,-244 609,-225 428,-225"/>
<text text-anchor="middle" x="518.5" y="-232" font-family="Helvetica,sans-Serif" font-size="10.00">com.cliffc.aa.tvar.UQNodes.intern</text>
</a>
</g>
</g>
<!-- Node2&#45;&gt;Node4 -->
<g id="edge3" class="edge">
<title>Node2&#45;&gt;Node4</title>
<path fill="none" stroke="midnightblue" d="M334.49,-184.04C359.99,-191.37 396.2,-201.71 428,-210.5 442.1,-214.4 457.47,-218.55 471.44,-222.29"/>
<polygon fill="midnightblue" stroke="midnightblue" points="470.76,-225.73 481.32,-224.93 472.56,-218.97 470.76,-225.73"/>
</g>
<!-- Node8 -->
<g id="node8" class="node">
<title>Node8</title>
<g id="a_node8"><a xlink:href="../../d3/d2d/a01606.html#a7dabc238f566bd1039cc62b63af734ed" target="_top" xlink:title="Returns a Collection view of the values contained in this map.">
<polygon fill="none" stroke="black" points="873,-181.5 873,-211.5 1045,-211.5 1045,-181.5 873,-181.5"/>
<text text-anchor="start" x="881" y="-199.5" font-family="Helvetica,sans-Serif" font-size="10.00">com.cliffc.aa.util.NonBlocking</text>
<text text-anchor="middle" x="959" y="-188.5" font-family="Helvetica,sans-Serif" font-size="10.00">HashMapLong&lt; Node &gt;::values</text>
</a>
</g>
</g>
<!-- Node2&#45;&gt;Node8 -->
<g id="edge10" class="edge">
<title>Node2&#45;&gt;Node8</title>
<path fill="none" stroke="midnightblue" d="M392.09,-177.54C515.81,-181.68 736.61,-189.08 862.73,-193.31"/>
<polygon fill="midnightblue" stroke="midnightblue" points="862.65,-196.81 872.76,-193.64 862.88,-189.81 862.65,-196.81"/>
</g>
<!-- Node9 -->
<g id="node9" class="node">
<title>Node9</title>
<g id="a_node9"><a xlink:href="../../d3/d2d/a01606.html#a5a55b6990f90cebab60051b6a03c5e3b" target="_top" xlink:title="Maps the specified key to the specified value in the table.">
<polygon fill="none" stroke="black" points="437.5,-137.5 437.5,-167.5 599.5,-167.5 599.5,-137.5 437.5,-137.5"/>
<text text-anchor="start" x="445.5" y="-155.5" font-family="Helvetica,sans-Serif" font-size="10.00">com.cliffc.aa.util.NonBlocking</text>
<text text-anchor="middle" x="518.5" y="-144.5" font-family="Helvetica,sans-Serif" font-size="10.00">HashMapLong.put</text>
</a>
</g>
</g>
<!-- Node2&#45;&gt;Node9 -->
<g id="edge8" class="edge">
<title>Node2&#45;&gt;Node9</title>
<path fill="none" stroke="midnightblue" d="M392.16,-165.27C403.77,-164.08 415.66,-162.87 427.26,-161.69"/>
<polygon fill="midnightblue" stroke="midnightblue" points="427.77,-165.16 437.37,-160.66 427.06,-158.19 427.77,-165.16"/>
</g>
<!-- Node10 -->
<g id="node10" class="node">
<title>Node10</title>
<g id="a_node10"><a xlink:href="../../d3/d2d/a01606.html#ac862bee73e146376b7a2b6a724f65d1f" target="_top" xlink:title="Returns the number of key&#45;value mappings in this map.">
<polygon fill="none" stroke="black" points="437.5,-88.5 437.5,-118.5 599.5,-118.5 599.5,-88.5 437.5,-88.5"/>
<text text-anchor="start" x="445.5" y="-106.5" font-family="Helvetica,sans-Serif" font-size="10.00">com.cliffc.aa.util.NonBlocking</text>
<text text-anchor="middle" x="518.5" y="-95.5" font-family="Helvetica,sans-Serif" font-size="10.00">HashMapLong.size</text>
</a>
</g>
</g>
<!-- Node2&#45;&gt;Node10 -->
<g id="edge9" class="edge">
<title>Node2&#45;&gt;Node10</title>
<path fill="none" stroke="midnightblue" d="M325.05,-164.99C350.28,-154.99 391.62,-139.11 428,-127.5 434.49,-125.43 441.28,-123.39 448.09,-121.42"/>
<polygon fill="midnightblue" stroke="midnightblue" points="449.39,-124.69 458.06,-118.6 447.48,-117.96 449.39,-124.69"/>
</g>
<!-- Node5 -->
<g id="node5" class="node">
<title>Node5</title>
<g id="a_node5"><a xlink:href="../../d3/d2d/a01606.html#aa68ea3508b91e708e371a02e473b5f3b" target="_top" xlink:title="Removes all of the mappings from this map.">
<polygon fill="none" stroke="black" points="660,-263.5 660,-293.5 822,-293.5 822,-263.5 660,-263.5"/>
<text text-anchor="start" x="668" y="-281.5" font-family="Helvetica,sans-Serif" font-size="10.00">com.cliffc.aa.util.NonBlocking</text>
<text text-anchor="middle" x="741" y="-270.5" font-family="Helvetica,sans-Serif" font-size="10.00">HashMapLong.clear</text>
</a>
</g>
</g>
<!-- Node4&#45;&gt;Node5 -->
<g id="edge4" class="edge">
<title>Node4&#45;&gt;Node5</title>
<path fill="none" stroke="midnightblue" d="M567.35,-244.05C592.84,-249.13 624.96,-255.54 654.57,-261.45"/>
<polygon fill="midnightblue" stroke="midnightblue" points="654.01,-264.91 664.5,-263.43 655.38,-258.05 654.01,-264.91"/>
</g>
<!-- Node6 -->
<g id="node6" class="node">
<title>Node6</title>
<g id="a_node6"><a xlink:href="../../d8/df1/a01414.html#a1a32bbfa753d3a048dad3af52e6e04f2" target="_top" xlink:title=" ">
<polygon fill="none" stroke="black" points="645,-225 645,-244 837,-244 837,-225 645,-225"/>
<text text-anchor="middle" x="741" y="-232" font-family="Helvetica,sans-Serif" font-size="10.00">com.cliffc.aa.tvar.UQNodes.setHash</text>
</a>
</g>
</g>
<!-- Node4&#45;&gt;Node6 -->
<g id="edge5" class="edge">
<title>Node4&#45;&gt;Node6</title>
<path fill="none" stroke="midnightblue" d="M609.19,-234.5C617.49,-234.5 625.96,-234.5 634.39,-234.5"/>
<polygon fill="midnightblue" stroke="midnightblue" points="634.65,-238 644.65,-234.5 634.65,-231 634.65,-238"/>
</g>
<!-- Node7 -->
<g id="node7" class="node">
<title>Node7</title>
<g id="a_node7"><a xlink:href="../../d3/d2d/a01606.html#a2242d40c2091176c7aec66a1c1f1b107" target="_top" xlink:title=" ">
<polygon fill="none" stroke="black" points="877.5,-230.5 877.5,-260.5 1040.5,-260.5 1040.5,-230.5 877.5,-230.5"/>
<text text-anchor="start" x="885.5" y="-248.5" font-family="Helvetica,sans-Serif" font-size="10.00">com.cliffc.aa.util.NonBlocking</text>
<text text-anchor="middle" x="959" y="-237.5" font-family="Helvetica,sans-Serif" font-size="10.00">HashMapLong&lt; Node &gt;::hash</text>
</a>
</g>
</g>
<!-- Node6&#45;&gt;Node7 -->
<g id="edge6" class="edge">
<title>Node6&#45;&gt;Node7</title>
<path fill="none" stroke="midnightblue" d="M837.06,-239.34C847.05,-239.85 857.2,-240.37 867.15,-240.87"/>
<polygon fill="midnightblue" stroke="midnightblue" points="867.26,-244.38 877.43,-241.4 867.62,-237.39 867.26,-244.38"/>
</g>
<!-- Node6&#45;&gt;Node8 -->
<g id="edge7" class="edge">
<title>Node6&#45;&gt;Node8</title>
<path fill="none" stroke="midnightblue" d="M796.23,-224.96C816.37,-221.42 839.85,-217.28 862.59,-213.29"/>
<polygon fill="midnightblue" stroke="midnightblue" points="863.37,-216.7 872.62,-211.52 862.16,-209.81 863.37,-216.7"/>
</g>
<!-- Node12 -->
<g id="node12" class="node">
<title>Node12</title>
<g id="a_node12"><a xlink:href="../../dd/d55/a01638.html#a3975ba7dca9fe2d6e4992b2b5558f882" target="_top" xlink:title=" ">
<polygon fill="none" stroke="black" points="452,-50 452,-69 585,-69 585,-50 452,-50"/>
<text text-anchor="middle" x="518.5" y="-57" font-family="Helvetica,sans-Serif" font-size="10.00">com.cliffc.aa.util.Util.eq</text>
</a>
</g>
</g>
<!-- Node11&#45;&gt;Node12 -->
<g id="edge12" class="edge">
<title>Node11&#45;&gt;Node12</title>
<path fill="none" stroke="midnightblue" d="M370.74,-59.5C393.42,-59.5 418.73,-59.5 441.85,-59.5"/>
<polygon fill="midnightblue" stroke="midnightblue" points="441.96,-63 451.96,-59.5 441.96,-56 441.96,-63"/>
</g>
<!-- Node13 -->
<g id="node13" class="node">
<title>Node13</title>
<g id="a_node13"><a xlink:href="../../dc/d25/a01406.html#a4648c36530ad943bcfe943b14dc33c36" target="_top" xlink:title=" ">
<polygon fill="none" stroke="black" points="451.5,-0.5 451.5,-30.5 585.5,-30.5 585.5,-0.5 451.5,-0.5"/>
<text text-anchor="start" x="459.5" y="-18.5" font-family="Helvetica,sans-Serif" font-size="10.00">com.cliffc.aa.tvar.TV2.is</text>
<text text-anchor="middle" x="518.5" y="-7.5" font-family="Helvetica,sans-Serif" font-size="10.00">_unified</text>
</a>
</g>
</g>
<!-- Node11&#45;&gt;Node13 -->
<g id="edge13" class="edge">
<title>Node11&#45;&gt;Node13</title>
<path fill="none" stroke="midnightblue" d="M348.37,-49.95C375.58,-44.41 410.5,-37.3 441.54,-30.97"/>
<polygon fill="midnightblue" stroke="midnightblue" points="442.37,-34.38 451.47,-28.95 440.97,-27.52 442.37,-34.38"/>
</g>
</g>
</svg>
