<?xml version="1.0" encoding="UTF-8" standalone="no"?>
<!DOCTYPE svg PUBLIC "-//W3C//DTD SVG 1.1//EN"
 "http://www.w3.org/Graphics/SVG/1.1/DTD/svg11.dtd">
<!-- Generated by graphviz version 2.43.0 (0)
 -->
<!-- Title: com.cliffc.aa.tvar.TV2.push_dep Pages: 1 -->
<svg width="1209pt" height="261pt"
 viewBox="0.00 0.00 1209.00 260.51" xmlns="http://www.w3.org/2000/svg" xmlns:xlink="http://www.w3.org/1999/xlink">
<g id="graph0" class="graph" transform="scale(1 1) rotate(0) translate(4 256.51)">
<title>com.cliffc.aa.tvar.TV2.push_dep</title>
<!-- Node1 -->
<g id="node1" class="node">
<title>Node1</title>
<g id="a_node1"><a xlink:title=" ">
<polygon fill="#bfbfbf" stroke="black" points="0,-98.5 0,-117.5 172,-117.5 172,-98.5 0,-98.5"/>
<text text-anchor="middle" x="86" y="-105.5" font-family="Helvetica,sans-Serif" font-size="10.00">com.cliffc.aa.tvar.TV2.push_dep</text>
</a>
</g>
</g>
<!-- Node2 -->
<g id="node2" class="node">
<title>Node2</title>
<g id="a_node2"><a xlink:href="../../dc/d25/a01406.html#a3c332f2ea005200c9b35129df3e591a2" target="_top" xlink:title=" ">
<polygon fill="none" stroke="black" points="208,-93 208,-123 333,-123 333,-93 208,-93"/>
<text text-anchor="start" x="216" y="-111" font-family="Helvetica,sans-Serif" font-size="10.00">com.cliffc.aa.tvar.TV2.</text>
<text text-anchor="middle" x="270.5" y="-100" font-family="Helvetica,sans-Serif" font-size="10.00">_push_update</text>
</a>
</g>
</g>
<!-- Node1&#45;&gt;Node2 -->
<g id="edge1" class="edge">
<title>Node1&#45;&gt;Node2</title>
<path fill="none" stroke="midnightblue" d="M172.11,-108C180.69,-108 189.36,-108 197.78,-108"/>
<polygon fill="midnightblue" stroke="midnightblue" points="197.93,-111.5 207.93,-108 197.93,-104.5 197.93,-111.5"/>
</g>
<!-- Node3 -->
<g id="node3" class="node">
<title>Node3</title>
<g id="a_node3"><a xlink:href="../../d8/df1/a01414.html#a4ef173761f50fd5b2886d3636b4d6c6e" target="_top" xlink:title=" ">
<polygon fill="none" stroke="black" points="373.5,-202.5 373.5,-221.5 543.5,-221.5 543.5,-202.5 373.5,-202.5"/>
<text text-anchor="middle" x="458.5" y="-209.5" font-family="Helvetica,sans-Serif" font-size="10.00">com.cliffc.aa.tvar.UQNodes.add</text>
</a>
</g>
</g>
<!-- Node2&#45;&gt;Node3 -->
<g id="edge2" class="edge">
<title>Node2&#45;&gt;Node3</title>
<path fill="none" stroke="midnightblue" d="M284.35,-123.19C301.57,-142.52 334.06,-175.5 369,-193 373.83,-195.42 378.96,-197.53 384.22,-199.37"/>
<polygon fill="midnightblue" stroke="midnightblue" points="383.2,-202.72 393.79,-202.41 385.32,-196.05 383.2,-202.72"/>
</g>
<!-- Node11 -->
<g id="node11" class="node">
<title>Node11</title>
<g id="a_node11"><a xlink:href="../../d3/d2d/a01606.html#ac30117742c9a7c0573e631930ecc22d1" target="_top" xlink:title="Returns the value to which the specified key is mapped, or.">
<polygon fill="none" stroke="black" points="377.5,-115 377.5,-145 539.5,-145 539.5,-115 377.5,-115"/>
<text text-anchor="start" x="385.5" y="-133" font-family="Helvetica,sans-Serif" font-size="10.00">com.cliffc.aa.util.NonBlocking</text>
<text text-anchor="middle" x="458.5" y="-122" font-family="Helvetica,sans-Serif" font-size="10.00">HashMapLong.get</text>
</a>
</g>
</g>
<!-- Node2&#45;&gt;Node11 -->
<g id="edge11" class="edge">
<title>Node2&#45;&gt;Node11</title>
<path fill="none" stroke="midnightblue" d="M333.18,-115.3C344.14,-116.59 355.75,-117.97 367.31,-119.33"/>
<polygon fill="midnightblue" stroke="midnightblue" points="367.1,-122.83 377.44,-120.53 367.92,-115.88 367.1,-122.83"/>
</g>
<!-- Node12 -->
<g id="node12" class="node">
<title>Node12</title>
<g id="a_node12"><a xlink:href="../../dc/d25/a01406.html#a4648c36530ad943bcfe943b14dc33c36" target="_top" xlink:title=" ">
<polygon fill="none" stroke="black" points="607.5,-71 607.5,-101 741.5,-101 741.5,-71 607.5,-71"/>
<text text-anchor="start" x="615.5" y="-89" font-family="Helvetica,sans-Serif" font-size="10.00">com.cliffc.aa.tvar.TV2.is</text>
<text text-anchor="middle" x="674.5" y="-78" font-family="Helvetica,sans-Serif" font-size="10.00">_unified</text>
</a>
</g>
</g>
<!-- Node2&#45;&gt;Node12 -->
<g id="edge12" class="edge">
<title>Node2&#45;&gt;Node12</title>
<path fill="none" stroke="midnightblue" d="M333.43,-104.61C404.46,-100.72 520.95,-94.35 597.43,-90.16"/>
<polygon fill="midnightblue" stroke="midnightblue" points="597.69,-93.65 607.49,-89.61 597.31,-86.66 597.69,-93.65"/>
</g>
<!-- Node13 -->
<g id="node13" class="node">
<title>Node13</title>
<g id="a_node13"><a xlink:href="../../dc/d25/a01406.html#a4c6344d5b696661ebc8894c4d6d5d83d" target="_top" xlink:title=" ">
<polygon fill="none" stroke="black" points="388.5,-38.5 388.5,-57.5 528.5,-57.5 528.5,-38.5 388.5,-38.5"/>
<text text-anchor="middle" x="458.5" y="-45.5" font-family="Helvetica,sans-Serif" font-size="10.00">com.cliffc.aa.tvar.TV2.isa</text>
</a>
</g>
</g>
<!-- Node2&#45;&gt;Node13 -->
<g id="edge13" class="edge">
<title>Node2&#45;&gt;Node13</title>
<path fill="none" stroke="midnightblue" d="M310.13,-92.84C327.93,-86.08 349.41,-78.26 369,-72 382.05,-67.83 396.33,-63.75 409.53,-60.17"/>
<polygon fill="midnightblue" stroke="midnightblue" points="410.63,-63.5 419.38,-57.54 408.82,-56.74 410.63,-63.5"/>
</g>
<!-- Node15 -->
<g id="node15" class="node">
<title>Node15</title>
<g id="a_node15"><a xlink:href="../../d8/df1/a01414.html#a56817ac6db518b86fd24f5db8f5f4206" target="_top" xlink:title=" ">
<polygon fill="none" stroke="black" points="369,-164.5 369,-183.5 548,-183.5 548,-164.5 369,-164.5"/>
<text text-anchor="middle" x="458.5" y="-171.5" font-family="Helvetica,sans-Serif" font-size="10.00">com.cliffc.aa.tvar.UQNodes.make</text>
</a>
</g>
</g>
<!-- Node2&#45;&gt;Node15 -->
<g id="edge16" class="edge">
<title>Node2&#45;&gt;Node15</title>
<path fill="none" stroke="midnightblue" d="M298.5,-123.17C317.67,-133.4 344.29,-146.53 369,-155 376.71,-157.65 384.94,-160 393.15,-162.07"/>
<polygon fill="midnightblue" stroke="midnightblue" points="392.58,-165.53 403.12,-164.46 394.21,-158.73 392.58,-165.53"/>
</g>
<!-- Node16 -->
<g id="node16" class="node">
<title>Node16</title>
<g id="a_node16"><a xlink:href="../../df/dee/a01646.html#a88ad20daf92e92fe0e3925b23c4fecf0" target="_top" xlink:title=" ">
<polygon fill="none" stroke="black" points="379.5,-0.5 379.5,-19.5 537.5,-19.5 537.5,-0.5 379.5,-0.5"/>
<text text-anchor="middle" x="458.5" y="-7.5" font-family="Helvetica,sans-Serif" font-size="10.00">com.cliffc.aa.util.VBitSet.tset</text>
</a>
</g>
</g>
<!-- Node2&#45;&gt;Node16 -->
<g id="edge20" class="edge">
<title>Node2&#45;&gt;Node16</title>
<path fill="none" stroke="midnightblue" d="M285.49,-92.97C303.18,-74.92 335.39,-45.08 369,-29 374.05,-26.58 379.41,-24.47 384.89,-22.63"/>
<polygon fill="midnightblue" stroke="midnightblue" points="386.31,-25.85 394.86,-19.59 384.27,-19.16 386.31,-25.85"/>
</g>
<!-- Node4 -->
<g id="node4" class="node">
<title>Node4</title>
<g id="a_node4"><a xlink:href="../../d8/df1/a01414.html#afb5d3642632092c0588bb37cc2d58a87" target="_top" xlink:title=" ">
<polygon fill="none" stroke="black" points="584,-126.5 584,-145.5 765,-145.5 765,-126.5 584,-126.5"/>
<text text-anchor="middle" x="674.5" y="-133.5" font-family="Helvetica,sans-Serif" font-size="10.00">com.cliffc.aa.tvar.UQNodes.intern</text>
</a>
</g>
</g>
<!-- Node3&#45;&gt;Node4 -->
<g id="edge3" class="edge">
<title>Node3&#45;&gt;Node4</title>
<path fill="none" stroke="midnightblue" d="M525.88,-202.37C533.6,-199.92 541.15,-196.85 548,-193 568.28,-181.6 563.71,-166.37 584,-155 588.01,-152.76 592.25,-150.78 596.62,-149.03"/>
<polygon fill="midnightblue" stroke="midnightblue" points="598.12,-152.21 606.37,-145.57 595.77,-145.62 598.12,-152.21"/>
</g>
<!-- Node8 -->
<g id="node8" class="node">
<title>Node8</title>
<g id="a_node8"><a xlink:href="../../d3/d2d/a01606.html#a7dabc238f566bd1039cc62b63af734ed" target="_top" xlink:title="Returns a Collection view of the values contained in this map.">
<polygon fill="none" stroke="black" points="1029,-208 1029,-238 1201,-238 1201,-208 1029,-208"/>
<text text-anchor="start" x="1037" y="-226" font-family="Helvetica,sans-Serif" font-size="10.00">com.cliffc.aa.util.NonBlocking</text>
<text text-anchor="middle" x="1115" y="-215" font-family="Helvetica,sans-Serif" font-size="10.00">HashMapLong&lt; Node &gt;::values</text>
</a>
</g>
</g>
<!-- Node3&#45;&gt;Node8 -->
<g id="edge10" class="edge">
<title>Node3&#45;&gt;Node8</title>
<path fill="none" stroke="midnightblue" d="M489.05,-221.53C514.04,-229.06 550.95,-238.95 584,-243 735.18,-261.54 912.27,-247.77 1018.67,-235.7"/>
<polygon fill="midnightblue" stroke="midnightblue" points="1019.21,-239.17 1028.74,-234.54 1018.4,-232.21 1019.21,-239.17"/>
</g>
<!-- Node9 -->
<g id="node9" class="node">
<title>Node9</title>
<g id="a_node9"><a xlink:href="../../df/db5/a01158.html#ab7694c22a9c7542842726bcfb0eb5922" target="_top" xlink:title=" ">
<polygon fill="none" stroke="black" points="587,-164.5 587,-183.5 762,-183.5 762,-164.5 587,-164.5"/>
<text text-anchor="middle" x="674.5" y="-171.5" font-family="Helvetica,sans-Serif" font-size="10.00">com.cliffc.aa.node.Node.is_dead</text>
</a>
</g>
</g>
<!-- Node3&#45;&gt;Node9 -->
<g id="edge8" class="edge">
<title>Node3&#45;&gt;Node9</title>
<path fill="none" stroke="midnightblue" d="M513.23,-202.46C542.48,-197.27 578.87,-190.8 609.58,-185.35"/>
<polygon fill="midnightblue" stroke="midnightblue" points="610.52,-188.74 619.75,-183.54 609.29,-181.85 610.52,-188.74"/>
</g>
<!-- Node10 -->
<g id="node10" class="node">
<title>Node10</title>
<g id="a_node10"><a xlink:href="../../d3/d2d/a01606.html#a5a55b6990f90cebab60051b6a03c5e3b" target="_top" xlink:title="Maps the specified key to the specified value in the table.">
<polygon fill="none" stroke="black" points="593.5,-203 593.5,-233 755.5,-233 755.5,-203 593.5,-203"/>
<text text-anchor="start" x="601.5" y="-221" font-family="Helvetica,sans-Serif" font-size="10.00">com.cliffc.aa.util.NonBlocking</text>
<text text-anchor="middle" x="674.5" y="-210" font-family="Helvetica,sans-Serif" font-size="10.00">HashMapLong.put</text>
</a>
</g>
</g>
<!-- Node3&#45;&gt;Node10 -->
<g id="edge9" class="edge">
<title>Node3&#45;&gt;Node10</title>
<path fill="none" stroke="midnightblue" d="M543.77,-214.36C556.69,-214.73 570.08,-215.1 583.12,-215.47"/>
<polygon fill="midnightblue" stroke="midnightblue" points="583.4,-218.98 593.5,-215.76 583.6,-211.98 583.4,-218.98"/>
</g>
<!-- Node5 -->
<g id="node5" class="node">
<title>Node5</title>
<g id="a_node5"><a xlink:href="../../d3/d2d/a01606.html#aa68ea3508b91e708e371a02e473b5f3b" target="_top" xlink:title="Removes all of the mappings from this map.">
<polygon fill="none" stroke="black" points="816,-165 816,-195 978,-195 978,-165 816,-165"/>
<text text-anchor="start" x="824" y="-183" font-family="Helvetica,sans-Serif" font-size="10.00">com.cliffc.aa.util.NonBlocking</text>
<text text-anchor="middle" x="897" y="-172" font-family="Helvetica,sans-Serif" font-size="10.00">HashMapLong.clear</text>
</a>
</g>
</g>
<!-- Node4&#45;&gt;Node5 -->
<g id="edge4" class="edge">
<title>Node4&#45;&gt;Node5</title>
<path fill="none" stroke="midnightblue" d="M723.35,-145.55C748.84,-150.63 780.96,-157.04 810.57,-162.95"/>
<polygon fill="midnightblue" stroke="midnightblue" points="810.01,-166.41 820.5,-164.93 811.38,-159.55 810.01,-166.41"/>
</g>
<!-- Node6 -->
<g id="node6" class="node">
<title>Node6</title>
<g id="a_node6"><a xlink:href="../../d8/df1/a01414.html#a1a32bbfa753d3a048dad3af52e6e04f2" target="_top" xlink:title=" ">
<polygon fill="none" stroke="black" points="801,-126.5 801,-145.5 993,-145.5 993,-126.5 801,-126.5"/>
<text text-anchor="middle" x="897" y="-133.5" font-family="Helvetica,sans-Serif" font-size="10.00">com.cliffc.aa.tvar.UQNodes.setHash</text>
</a>
</g>
</g>
<!-- Node4&#45;&gt;Node6 -->
<g id="edge5" class="edge">
<title>Node4&#45;&gt;Node6</title>
<path fill="none" stroke="midnightblue" d="M765.19,-136C773.49,-136 781.96,-136 790.39,-136"/>
<polygon fill="midnightblue" stroke="midnightblue" points="790.65,-139.5 800.65,-136 790.65,-132.5 790.65,-139.5"/>
</g>
<!-- Node7 -->
<g id="node7" class="node">
<title>Node7</title>
<g id="a_node7"><a xlink:href="../../d3/d2d/a01606.html#a2242d40c2091176c7aec66a1c1f1b107" target="_top" xlink:title=" ">
<polygon fill="none" stroke="black" points="1033.5,-121 1033.5,-151 1196.5,-151 1196.5,-121 1033.5,-121"/>
<text text-anchor="start" x="1041.5" y="-139" font-family="Helvetica,sans-Serif" font-size="10.00">com.cliffc.aa.util.NonBlocking</text>
<text text-anchor="middle" x="1115" y="-128" font-family="Helvetica,sans-Serif" font-size="10.00">HashMapLong&lt; Node &gt;::hash</text>
</a>
</g>
</g>
<!-- Node6&#45;&gt;Node7 -->
<g id="edge6" class="edge">
<title>Node6&#45;&gt;Node7</title>
<path fill="none" stroke="midnightblue" d="M993.06,-136C1003.05,-136 1013.2,-136 1023.15,-136"/>
<polygon fill="midnightblue" stroke="midnightblue" points="1023.43,-139.5 1033.43,-136 1023.42,-132.5 1023.43,-139.5"/>
</g>
<!-- Node6&#45;&gt;Node8 -->
<g id="edge7" class="edge">
<title>Node6&#45;&gt;Node8</title>
<path fill="none" stroke="midnightblue" d="M956.81,-145.52C968.96,-148.28 981.55,-151.73 993,-156 1025.12,-167.97 1059.05,-187.42 1082.78,-202.29"/>
<polygon fill="midnightblue" stroke="midnightblue" points="1081.03,-205.33 1091.34,-207.74 1084.79,-199.42 1081.03,-205.33"/>
</g>
<!-- Node13&#45;&gt;Node12 -->
<g id="edge15" class="edge">
<title>Node13&#45;&gt;Node12</title>
<path fill="none" stroke="midnightblue" d="M513.23,-57.54C538.59,-62.04 569.31,-67.5 597.04,-72.42"/>
<polygon fill="midnightblue" stroke="midnightblue" points="596.65,-75.91 607.11,-74.21 597.88,-69.02 596.65,-75.91"/>
</g>
<!-- Node14 -->
<g id="node14" class="node">
<title>Node14</title>
<g id="a_node14"><a xlink:href="../../dd/d55/a01638.html#a3975ba7dca9fe2d6e4992b2b5558f882" target="_top" xlink:title=" ">
<polygon fill="none" stroke="black" points="608,-32.5 608,-51.5 741,-51.5 741,-32.5 608,-32.5"/>
<text text-anchor="middle" x="674.5" y="-39.5" font-family="Helvetica,sans-Serif" font-size="10.00">com.cliffc.aa.util.Util.eq</text>
</a>
</g>
</g>
<!-- Node13&#45;&gt;Node14 -->
<g id="edge14" class="edge">
<title>Node13&#45;&gt;Node14</title>
<path fill="none" stroke="midnightblue" d="M528.68,-46.06C550.71,-45.44 575.19,-44.76 597.66,-44.13"/>
<polygon fill="midnightblue" stroke="midnightblue" points="597.93,-47.62 607.83,-43.84 597.74,-40.62 597.93,-47.62"/>
</g>
<!-- Node15&#45;&gt;Node4 -->
<g id="edge17" class="edge">
<title>Node15&#45;&gt;Node4</title>
<path fill="none" stroke="midnightblue" d="M513.23,-164.46C542.48,-159.27 578.87,-152.8 609.58,-147.35"/>
<polygon fill="midnightblue" stroke="midnightblue" points="610.52,-150.74 619.75,-145.54 609.29,-143.85 610.52,-150.74"/>
</g>
<!-- Node15&#45;&gt;Node9 -->
<g id="edge18" class="edge">
<title>Node15&#45;&gt;Node9</title>
<path fill="none" stroke="midnightblue" d="M548.09,-174C557.46,-174 567.03,-174 576.49,-174"/>
<polygon fill="midnightblue" stroke="midnightblue" points="576.7,-177.5 586.7,-174 576.7,-170.5 576.7,-177.5"/>
</g>
<!-- Node15&#45;&gt;Node10 -->
<g id="edge19" class="edge">
<title>Node15&#45;&gt;Node10</title>
<path fill="none" stroke="midnightblue" d="M505.93,-183.55C530.57,-188.61 561.58,-194.99 590.21,-200.88"/>
<polygon fill="midnightblue" stroke="midnightblue" points="589.73,-204.35 600.23,-202.93 591.14,-197.49 589.73,-204.35"/>
</g>
</g>
</svg>
