<?xml version="1.0" encoding="UTF-8" standalone="no"?>
<!DOCTYPE svg PUBLIC "-//W3C//DTD SVG 1.1//EN"
 "http://www.w3.org/Graphics/SVG/1.1/DTD/svg11.dtd">
<!-- Generated by graphviz version 2.43.0 (0)
 -->
<!-- Title: com.cliffc.aa.tvar.TV2._cycle_equals Pages: 1 -->
<svg width="1783pt" height="526pt"
 viewBox="0.00 0.00 1783.00 525.96" xmlns="http://www.w3.org/2000/svg" xmlns:xlink="http://www.w3.org/1999/xlink">
<g id="graph0" class="graph" transform="scale(1 1) rotate(0) translate(4 521.96)">
<title>com.cliffc.aa.tvar.TV2._cycle_equals</title>
<!-- Node1 -->
<g id="node1" class="node">
<title>Node1</title>
<g id="a_node1"><a xlink:title=" ">
<polygon fill="#bfbfbf" stroke="black" points="0,-134.46 0,-164.46 125,-164.46 125,-134.46 0,-134.46"/>
<text text-anchor="start" x="8" y="-152.46" font-family="Helvetica,sans-Serif" font-size="10.00">com.cliffc.aa.tvar.TV2.</text>
<text text-anchor="middle" x="62.5" y="-141.46" font-family="Helvetica,sans-Serif" font-size="10.00">_cycle_equals</text>
</a>
</g>
</g>
<!-- Node1&#45;&gt;Node1 -->
<g id="edge1" class="edge">
<title>Node1&#45;&gt;Node1</title>
<path fill="none" stroke="midnightblue" d="M33.22,-164.62C26.16,-174.02 35.92,-182.96 62.5,-182.96 78.7,-182.96 88.65,-179.64 92.35,-174.92"/>
<polygon fill="midnightblue" stroke="midnightblue" points="95.83,-174.41 91.78,-164.62 88.84,-174.8 95.83,-174.41"/>
</g>
<!-- Node2 -->
<g id="node2" class="node">
<title>Node2</title>
<g id="a_node2"><a xlink:href="../../dd/d55/a01638.html#a3975ba7dca9fe2d6e4992b2b5558f882" target="_top" xlink:title=" ">
<polygon fill="none" stroke="black" points="1182,-224.96 1182,-243.96 1315,-243.96 1315,-224.96 1182,-224.96"/>
<text text-anchor="middle" x="1248.5" y="-231.96" font-family="Helvetica,sans-Serif" font-size="10.00">com.cliffc.aa.util.Util.eq</text>
</a>
</g>
</g>
<!-- Node1&#45;&gt;Node2 -->
<g id="edge2" class="edge">
<title>Node1&#45;&gt;Node2</title>
<path fill="none" stroke="midnightblue" d="M81.89,-164.61C132.5,-204.69 279.42,-310.46 420.5,-310.46 420.5,-310.46 420.5,-310.46 811.5,-310.46 885.51,-310.46 1095.01,-267.43 1194.19,-246.13"/>
<polygon fill="midnightblue" stroke="midnightblue" points="1194.97,-249.54 1204.01,-244.01 1193.49,-242.7 1194.97,-249.54"/>
</g>
<!-- Node3 -->
<g id="node3" class="node">
<title>Node3</title>
<g id="a_node3"><a xlink:href="../../dc/d25/a01406.html#aaeebb1bfefc71053cce5aa5514da824a" target="_top" xlink:title=" ">
<polygon fill="none" stroke="black" points="161,-139.96 161,-158.96 302,-158.96 302,-139.96 161,-139.96"/>
<text text-anchor="middle" x="231.5" y="-146.96" font-family="Helvetica,sans-Serif" font-size="10.00">com.cliffc.aa.tvar.TV2.get</text>
</a>
</g>
</g>
<!-- Node1&#45;&gt;Node3 -->
<g id="edge3" class="edge">
<title>Node1&#45;&gt;Node3</title>
<path fill="none" stroke="midnightblue" d="M125.21,-149.46C133.56,-149.46 142.22,-149.46 150.82,-149.46"/>
<polygon fill="midnightblue" stroke="midnightblue" points="150.88,-152.96 160.88,-149.46 150.88,-145.96 150.88,-152.96"/>
</g>
<!-- Node16 -->
<g id="node16" class="node">
<title>Node16</title>
<g id="a_node16"><a xlink:href="../../dc/d25/a01406.html#a4648c36530ad943bcfe943b14dc33c36" target="_top" xlink:title=" ">
<polygon fill="none" stroke="black" points="1181.5,-105.46 1181.5,-135.46 1315.5,-135.46 1315.5,-105.46 1181.5,-105.46"/>
<text text-anchor="start" x="1189.5" y="-123.46" font-family="Helvetica,sans-Serif" font-size="10.00">com.cliffc.aa.tvar.TV2.is</text>
<text text-anchor="middle" x="1248.5" y="-112.46" font-family="Helvetica,sans-Serif" font-size="10.00">_unified</text>
</a>
</g>
</g>
<!-- Node1&#45;&gt;Node16 -->
<g id="edge35" class="edge">
<title>Node1&#45;&gt;Node16</title>
<path fill="none" stroke="midnightblue" d="M83.58,-134.36C136,-96.48 282.48,-0.46 420.5,-0.46 420.5,-0.46 420.5,-0.46 811.5,-0.46 950.64,-0.46 991.19,6.96 1122,-40.46 1159.37,-54.01 1197.16,-80.17 1221.36,-98.89"/>
<polygon fill="midnightblue" stroke="midnightblue" points="1219.3,-101.73 1229.33,-105.17 1223.64,-96.23 1219.3,-101.73"/>
</g>
<!-- Node21 -->
<g id="node21" class="node">
<title>Node21</title>
<g id="a_node21"><a xlink:href="../../dc/d25/a01406.html#a278ec8d9b9c40d681176974542fee2eb" target="_top" xlink:title=" ">
<polygon fill="none" stroke="black" points="729.5,-186.96 729.5,-205.96 891.5,-205.96 891.5,-186.96 729.5,-186.96"/>
<text text-anchor="middle" x="810.5" y="-193.96" font-family="Helvetica,sans-Serif" font-size="10.00">com.cliffc.aa.tvar.TV2.is_base</text>
</a>
</g>
</g>
<!-- Node1&#45;&gt;Node21 -->
<g id="edge29" class="edge">
<title>Node1&#45;&gt;Node21</title>
<path fill="none" stroke="midnightblue" d="M125.01,-162.17C136.92,-164.43 149.33,-166.64 161,-168.46 328.28,-194.65 371.71,-192.65 541,-195.46 600.32,-196.45 667.01,-196.7 719.09,-196.71"/>
<polygon fill="midnightblue" stroke="midnightblue" points="719.31,-200.21 729.31,-196.71 719.31,-193.21 719.31,-200.21"/>
</g>
<!-- Node22 -->
<g id="node22" class="node">
<title>Node22</title>
<g id="a_node22"><a xlink:href="../../dc/d25/a01406.html#ae7020c1fe937698dcc459b53362a916c" target="_top" xlink:title=" ">
<polygon fill="none" stroke="black" points="731.5,-110.96 731.5,-129.96 889.5,-129.96 889.5,-110.96 731.5,-110.96"/>
<text text-anchor="middle" x="810.5" y="-117.96" font-family="Helvetica,sans-Serif" font-size="10.00">com.cliffc.aa.tvar.TV2.is_leaf</text>
</a>
</g>
</g>
<!-- Node1&#45;&gt;Node22 -->
<g id="edge32" class="edge">
<title>Node1&#45;&gt;Node22</title>
<path fill="none" stroke="midnightblue" d="M125,-136.7C136.92,-134.45 149.32,-132.26 161,-130.46 239.25,-118.44 258.96,-114.92 338,-110.46 412.1,-106.29 430.79,-109.25 505,-110.46 577.74,-111.66 660.22,-114.46 720.97,-116.79"/>
<polygon fill="midnightblue" stroke="midnightblue" points="721.16,-120.3 731.29,-117.19 721.43,-113.3 721.16,-120.3"/>
</g>
<!-- Node4 -->
<g id="node4" class="node">
<title>Node4</title>
<g id="a_node4"><a xlink:href="../../dc/d25/a01406.html#a377695e89e0f4d49d74ecfdde4e432a7" target="_top" xlink:title=" ">
<polygon fill="none" stroke="black" points="338,-160.96 338,-179.96 505,-179.96 505,-160.96 338,-160.96"/>
<text text-anchor="middle" x="421.5" y="-167.96" font-family="Helvetica,sans-Serif" font-size="10.00">com.cliffc.aa.tvar.TV2.args_put</text>
</a>
</g>
</g>
<!-- Node3&#45;&gt;Node4 -->
<g id="edge4" class="edge">
<title>Node3&#45;&gt;Node4</title>
<path fill="none" stroke="midnightblue" d="M302.24,-157.25C310.57,-158.19 319.18,-159.15 327.78,-160.11"/>
<polygon fill="midnightblue" stroke="midnightblue" points="327.52,-163.6 337.85,-161.23 328.3,-156.64 327.52,-163.6"/>
</g>
<!-- Node17 -->
<g id="node17" class="node">
<title>Node17</title>
<g id="a_node17"><a xlink:href="../../dc/d25/a01406.html#a3c3e29b611b40fe33a0aaf85b67309b9" target="_top" xlink:title=" ">
<polygon fill="none" stroke="black" points="350,-119.96 350,-138.96 493,-138.96 493,-119.96 350,-119.96"/>
<text text-anchor="middle" x="421.5" y="-126.96" font-family="Helvetica,sans-Serif" font-size="10.00">com.cliffc.aa.tvar.TV2.find</text>
</a>
</g>
</g>
<!-- Node3&#45;&gt;Node17 -->
<g id="edge19" class="edge">
<title>Node3&#45;&gt;Node17</title>
<path fill="none" stroke="midnightblue" d="M302.24,-142.05C314.52,-140.74 327.4,-139.37 339.95,-138.03"/>
<polygon fill="midnightblue" stroke="midnightblue" points="340.36,-141.51 349.93,-136.97 339.62,-134.55 340.36,-141.51"/>
</g>
<!-- Node5 -->
<g id="node5" class="node">
<title>Node5</title>
<g id="a_node5"><a xlink:href="../../dc/d25/a01406.html#a421ae75e116a6fb426743a25228966d5" target="_top" xlink:title=" ">
<polygon fill="none" stroke="black" points="718,-262.96 718,-281.96 903,-281.96 903,-262.96 718,-262.96"/>
<text text-anchor="middle" x="810.5" y="-269.96" font-family="Helvetica,sans-Serif" font-size="10.00">com.cliffc.aa.tvar.TV2.merge_deps</text>
</a>
</g>
</g>
<!-- Node4&#45;&gt;Node5 -->
<g id="edge5" class="edge">
<title>Node4&#45;&gt;Node5</title>
<path fill="none" stroke="midnightblue" d="M453.8,-180.03C507.54,-196.27 620.93,-229.78 718,-253.46 728.5,-256.03 739.73,-258.54 750.6,-260.86"/>
<polygon fill="midnightblue" stroke="midnightblue" points="749.94,-264.3 760.45,-262.93 751.38,-257.45 749.94,-264.3"/>
</g>
<!-- Node6 -->
<g id="node6" class="node">
<title>Node6</title>
<g id="a_node6"><a xlink:href="../../d8/df1/a01414.html#a307da1f173cb93565f32125d90d7f2cb" target="_top" xlink:title=" ">
<polygon fill="none" stroke="black" points="939,-338.96 939,-357.96 1122,-357.96 1122,-338.96 939,-338.96"/>
<text text-anchor="middle" x="1030.5" y="-345.96" font-family="Helvetica,sans-Serif" font-size="10.00">com.cliffc.aa.tvar.UQNodes.addAll</text>
</a>
</g>
</g>
<!-- Node5&#45;&gt;Node6 -->
<g id="edge6" class="edge">
<title>Node5&#45;&gt;Node6</title>
<path fill="none" stroke="midnightblue" d="M839.11,-282.09C878.01,-295.65 949.05,-320.42 992.49,-335.56"/>
<polygon fill="midnightblue" stroke="midnightblue" points="991.52,-338.93 1002.11,-338.92 993.82,-332.32 991.52,-338.93"/>
</g>
<!-- Node15 -->
<g id="node15" class="node">
<title>Node15</title>
<g id="a_node15"><a xlink:href="../../dc/d25/a01406.html#a4c6344d5b696661ebc8894c4d6d5d83d" target="_top" xlink:title=" ">
<polygon fill="none" stroke="black" points="960.5,-224.96 960.5,-243.96 1100.5,-243.96 1100.5,-224.96 960.5,-224.96"/>
<text text-anchor="middle" x="1030.5" y="-231.96" font-family="Helvetica,sans-Serif" font-size="10.00">com.cliffc.aa.tvar.TV2.isa</text>
</a>
</g>
</g>
<!-- Node5&#45;&gt;Node15 -->
<g id="edge16" class="edge">
<title>Node5&#45;&gt;Node15</title>
<path fill="none" stroke="midnightblue" d="M866.23,-262.92C896.16,-257.71 933.42,-251.21 964.79,-245.74"/>
<polygon fill="midnightblue" stroke="midnightblue" points="965.5,-249.17 974.75,-244.01 964.3,-242.28 965.5,-249.17"/>
</g>
<!-- Node7 -->
<g id="node7" class="node">
<title>Node7</title>
<g id="a_node7"><a xlink:href="../../d3/d2d/a01606.html#ac30117742c9a7c0573e631930ecc22d1" target="_top" xlink:title="Returns the value to which the specified key is mapped, or.">
<polygon fill="none" stroke="black" points="1167.5,-263.46 1167.5,-293.46 1329.5,-293.46 1329.5,-263.46 1167.5,-263.46"/>
<text text-anchor="start" x="1175.5" y="-281.46" font-family="Helvetica,sans-Serif" font-size="10.00">com.cliffc.aa.util.NonBlocking</text>
<text text-anchor="middle" x="1248.5" y="-270.46" font-family="Helvetica,sans-Serif" font-size="10.00">HashMapLong.get</text>
</a>
</g>
</g>
<!-- Node6&#45;&gt;Node7 -->
<g id="edge7" class="edge">
<title>Node6&#45;&gt;Node7</title>
<path fill="none" stroke="midnightblue" d="M1076.94,-338.95C1091.6,-335.22 1107.74,-330.39 1122,-324.46 1139.11,-317.36 1140.94,-310.68 1158,-303.46 1163.75,-301.03 1169.81,-298.76 1175.96,-296.66"/>
<polygon fill="midnightblue" stroke="midnightblue" points="1177.22,-299.93 1185.64,-293.5 1175.05,-293.27 1177.22,-299.93"/>
</g>
<!-- Node8 -->
<g id="node8" class="node">
<title>Node8</title>
<g id="a_node8"><a xlink:href="../../d8/df1/a01414.html#afb5d3642632092c0588bb37cc2d58a87" target="_top" xlink:title=" ">
<polygon fill="none" stroke="black" points="1158,-448.96 1158,-467.96 1339,-467.96 1339,-448.96 1158,-448.96"/>
<text text-anchor="middle" x="1248.5" y="-455.96" font-family="Helvetica,sans-Serif" font-size="10.00">com.cliffc.aa.tvar.UQNodes.intern</text>
</a>
</g>
</g>
<!-- Node6&#45;&gt;Node8 -->
<g id="edge8" class="edge">
<title>Node6&#45;&gt;Node8</title>
<path fill="none" stroke="midnightblue" d="M1042.91,-358.2C1064.17,-375.87 1111.88,-413.34 1158,-434.46 1168.08,-439.08 1179.22,-442.95 1190.11,-446.14"/>
<polygon fill="midnightblue" stroke="midnightblue" points="1189.44,-449.59 1200.01,-448.88 1191.31,-442.84 1189.44,-449.59"/>
</g>
<!-- Node12 -->
<g id="node12" class="node">
<title>Node12</title>
<g id="a_node12"><a xlink:href="../../d3/d2d/a01606.html#a7dabc238f566bd1039cc62b63af734ed" target="_top" xlink:title="Returns a Collection view of the values contained in this map.">
<polygon fill="none" stroke="black" points="1603,-405.46 1603,-435.46 1775,-435.46 1775,-405.46 1603,-405.46"/>
<text text-anchor="start" x="1611" y="-423.46" font-family="Helvetica,sans-Serif" font-size="10.00">com.cliffc.aa.util.NonBlocking</text>
<text text-anchor="middle" x="1689" y="-412.46" font-family="Helvetica,sans-Serif" font-size="10.00">HashMapLong&lt; Node &gt;::values</text>
</a>
</g>
</g>
<!-- Node6&#45;&gt;Node12 -->
<g id="edge15" class="edge">
<title>Node6&#45;&gt;Node12</title>
<path fill="none" stroke="midnightblue" d="M1048.85,-358.12C1072.63,-370.79 1117.07,-392.47 1158,-401.46 1307.19,-434.25 1485.59,-432.52 1592.7,-427.24"/>
<polygon fill="midnightblue" stroke="midnightblue" points="1593.03,-430.73 1602.83,-426.72 1592.67,-423.74 1593.03,-430.73"/>
</g>
<!-- Node13 -->
<g id="node13" class="node">
<title>Node13</title>
<g id="a_node13"><a xlink:href="../../d3/d2d/a01606.html#a5a55b6990f90cebab60051b6a03c5e3b" target="_top" xlink:title="Maps the specified key to the specified value in the table.">
<polygon fill="none" stroke="black" points="1167.5,-361.46 1167.5,-391.46 1329.5,-391.46 1329.5,-361.46 1167.5,-361.46"/>
<text text-anchor="start" x="1175.5" y="-379.46" font-family="Helvetica,sans-Serif" font-size="10.00">com.cliffc.aa.util.NonBlocking</text>
<text text-anchor="middle" x="1248.5" y="-368.46" font-family="Helvetica,sans-Serif" font-size="10.00">HashMapLong.put</text>
</a>
</g>
</g>
<!-- Node6&#45;&gt;Node13 -->
<g id="edge13" class="edge">
<title>Node6&#45;&gt;Node13</title>
<path fill="none" stroke="midnightblue" d="M1104.93,-357.98C1121.7,-360.16 1139.71,-362.49 1157.09,-364.74"/>
<polygon fill="midnightblue" stroke="midnightblue" points="1156.87,-368.25 1167.24,-366.06 1157.77,-361.3 1156.87,-368.25"/>
</g>
<!-- Node14 -->
<g id="node14" class="node">
<title>Node14</title>
<g id="a_node14"><a xlink:href="../../d3/d2d/a01606.html#ac862bee73e146376b7a2b6a724f65d1f" target="_top" xlink:title="Returns the number of key&#45;value mappings in this map.">
<polygon fill="none" stroke="black" points="1167.5,-312.46 1167.5,-342.46 1329.5,-342.46 1329.5,-312.46 1167.5,-312.46"/>
<text text-anchor="start" x="1175.5" y="-330.46" font-family="Helvetica,sans-Serif" font-size="10.00">com.cliffc.aa.util.NonBlocking</text>
<text text-anchor="middle" x="1248.5" y="-319.46" font-family="Helvetica,sans-Serif" font-size="10.00">HashMapLong.size</text>
</a>
</g>
</g>
<!-- Node6&#45;&gt;Node14 -->
<g id="edge14" class="edge">
<title>Node6&#45;&gt;Node14</title>
<path fill="none" stroke="midnightblue" d="M1122.16,-339.65C1133.77,-338.52 1145.66,-337.37 1157.26,-336.24"/>
<polygon fill="midnightblue" stroke="midnightblue" points="1157.75,-339.71 1167.37,-335.25 1157.07,-332.74 1157.75,-339.71"/>
</g>
<!-- Node9 -->
<g id="node9" class="node">
<title>Node9</title>
<g id="a_node9"><a xlink:href="../../d3/d2d/a01606.html#aa68ea3508b91e708e371a02e473b5f3b" target="_top" xlink:title="Removes all of the mappings from this map.">
<polygon fill="none" stroke="black" points="1390,-487.46 1390,-517.46 1552,-517.46 1552,-487.46 1390,-487.46"/>
<text text-anchor="start" x="1398" y="-505.46" font-family="Helvetica,sans-Serif" font-size="10.00">com.cliffc.aa.util.NonBlocking</text>
<text text-anchor="middle" x="1471" y="-494.46" font-family="Helvetica,sans-Serif" font-size="10.00">HashMapLong.clear</text>
</a>
</g>
</g>
<!-- Node8&#45;&gt;Node9 -->
<g id="edge9" class="edge">
<title>Node8&#45;&gt;Node9</title>
<path fill="none" stroke="midnightblue" d="M1297.35,-468.01C1322.84,-473.1 1354.96,-479.51 1384.57,-485.42"/>
<polygon fill="midnightblue" stroke="midnightblue" points="1384.01,-488.87 1394.5,-487.4 1385.38,-482.01 1384.01,-488.87"/>
</g>
<!-- Node10 -->
<g id="node10" class="node">
<title>Node10</title>
<g id="a_node10"><a xlink:href="../../d8/df1/a01414.html#a1a32bbfa753d3a048dad3af52e6e04f2" target="_top" xlink:title=" ">
<polygon fill="none" stroke="black" points="1375,-448.96 1375,-467.96 1567,-467.96 1567,-448.96 1375,-448.96"/>
<text text-anchor="middle" x="1471" y="-455.96" font-family="Helvetica,sans-Serif" font-size="10.00">com.cliffc.aa.tvar.UQNodes.setHash</text>
</a>
</g>
</g>
<!-- Node8&#45;&gt;Node10 -->
<g id="edge10" class="edge">
<title>Node8&#45;&gt;Node10</title>
<path fill="none" stroke="midnightblue" d="M1339.19,-458.46C1347.49,-458.46 1355.96,-458.46 1364.39,-458.46"/>
<polygon fill="midnightblue" stroke="midnightblue" points="1364.65,-461.96 1374.65,-458.46 1364.65,-454.96 1364.65,-461.96"/>
</g>
<!-- Node11 -->
<g id="node11" class="node">
<title>Node11</title>
<g id="a_node11"><a xlink:href="../../d3/d2d/a01606.html#a2242d40c2091176c7aec66a1c1f1b107" target="_top" xlink:title=" ">
<polygon fill="none" stroke="black" points="1607.5,-454.46 1607.5,-484.46 1770.5,-484.46 1770.5,-454.46 1607.5,-454.46"/>
<text text-anchor="start" x="1615.5" y="-472.46" font-family="Helvetica,sans-Serif" font-size="10.00">com.cliffc.aa.util.NonBlocking</text>
<text text-anchor="middle" x="1689" y="-461.46" font-family="Helvetica,sans-Serif" font-size="10.00">HashMapLong&lt; Node &gt;::hash</text>
</a>
</g>
</g>
<!-- Node10&#45;&gt;Node11 -->
<g id="edge11" class="edge">
<title>Node10&#45;&gt;Node11</title>
<path fill="none" stroke="midnightblue" d="M1567.06,-463.3C1577.05,-463.81 1587.2,-464.33 1597.15,-464.84"/>
<polygon fill="midnightblue" stroke="midnightblue" points="1597.26,-468.35 1607.43,-465.36 1597.62,-461.36 1597.26,-468.35"/>
</g>
<!-- Node10&#45;&gt;Node12 -->
<g id="edge12" class="edge">
<title>Node10&#45;&gt;Node12</title>
<path fill="none" stroke="midnightblue" d="M1526.23,-448.92C1546.37,-445.38 1569.85,-441.25 1592.59,-437.25"/>
<polygon fill="midnightblue" stroke="midnightblue" points="1593.37,-440.66 1602.62,-435.49 1592.16,-433.77 1593.37,-440.66"/>
</g>
<!-- Node15&#45;&gt;Node2 -->
<g id="edge17" class="edge">
<title>Node15&#45;&gt;Node2</title>
<path fill="none" stroke="midnightblue" d="M1100.74,-234.46C1123.42,-234.46 1148.73,-234.46 1171.85,-234.46"/>
<polygon fill="midnightblue" stroke="midnightblue" points="1171.96,-237.96 1181.96,-234.46 1171.96,-230.96 1171.96,-237.96"/>
</g>
<!-- Node15&#45;&gt;Node16 -->
<g id="edge18" class="edge">
<title>Node15&#45;&gt;Node16</title>
<path fill="none" stroke="midnightblue" d="M1080.56,-224.91C1094.33,-221.31 1109.06,-216.57 1122,-210.46 1160.13,-192.48 1198.76,-162.64 1222.9,-142.29"/>
<polygon fill="midnightblue" stroke="midnightblue" points="1225.18,-144.94 1230.5,-135.78 1220.63,-139.62 1225.18,-144.94"/>
</g>
<!-- Node17&#45;&gt;Node16 -->
<g id="edge28" class="edge">
<title>Node17&#45;&gt;Node16</title>
<path fill="none" stroke="midnightblue" d="M493.12,-120.88C552.9,-114.07 640.92,-105.11 718,-101.46 879.39,-93.83 1068.59,-105.62 1171.46,-113.77"/>
<polygon fill="midnightblue" stroke="midnightblue" points="1171.19,-117.26 1181.44,-114.57 1171.75,-110.28 1171.19,-117.26"/>
</g>
<!-- Node18 -->
<g id="node18" class="node">
<title>Node18</title>
<g id="a_node18"><a xlink:href="../../dc/d25/a01406.html#a2e250028349773e18a0ae5eae010e11b" target="_top" xlink:title=" ">
<polygon fill="none" stroke="black" points="549,-155.46 549,-185.46 674,-185.46 674,-155.46 549,-155.46"/>
<text text-anchor="start" x="557" y="-173.46" font-family="Helvetica,sans-Serif" font-size="10.00">com.cliffc.aa.tvar.TV2.</text>
<text text-anchor="middle" x="611.5" y="-162.46" font-family="Helvetica,sans-Serif" font-size="10.00">_union</text>
</a>
</g>
</g>
<!-- Node17&#45;&gt;Node18 -->
<g id="edge20" class="edge">
<title>Node17&#45;&gt;Node18</title>
<path fill="none" stroke="midnightblue" d="M466.1,-138.97C487.74,-143.69 514.45,-149.52 538.98,-154.87"/>
<polygon fill="midnightblue" stroke="midnightblue" points="538.46,-158.33 548.97,-157.05 539.95,-151.5 538.46,-158.33"/>
</g>
<!-- Node20 -->
<g id="node20" class="node">
<title>Node20</title>
<g id="a_node20"><a xlink:href="../../dc/d25/a01406.html#a83d255f4df21f8b775f0a71b4fbb9e01" target="_top" xlink:title=" ">
<polygon fill="none" stroke="black" points="541,-29.46 541,-59.46 682,-59.46 682,-29.46 541,-29.46"/>
<text text-anchor="start" x="549" y="-47.46" font-family="Helvetica,sans-Serif" font-size="10.00">com.cliffc.aa.tvar.TV2.get</text>
<text text-anchor="middle" x="611.5" y="-36.46" font-family="Helvetica,sans-Serif" font-size="10.00">_unified</text>
</a>
</g>
</g>
<!-- Node17&#45;&gt;Node20 -->
<g id="edge26" class="edge">
<title>Node17&#45;&gt;Node20</title>
<path fill="none" stroke="midnightblue" d="M443.7,-119.88C473.62,-106.35 528.9,-81.36 567.59,-63.86"/>
<polygon fill="midnightblue" stroke="midnightblue" points="569.38,-66.9 577.05,-59.59 566.49,-60.52 569.38,-66.9"/>
</g>
<!-- Node18&#45;&gt;Node5 -->
<g id="edge22" class="edge">
<title>Node18&#45;&gt;Node5</title>
<path fill="none" stroke="midnightblue" d="M627.05,-185.62C646.12,-204.53 681.45,-236.45 718,-253.46 723.37,-255.96 729.07,-258.14 734.9,-260.03"/>
<polygon fill="midnightblue" stroke="midnightblue" points="734.21,-263.47 744.79,-262.95 736.19,-256.76 734.21,-263.47"/>
</g>
<!-- Node18&#45;&gt;Node16 -->
<g id="edge21" class="edge">
<title>Node18&#45;&gt;Node16</title>
<path fill="none" stroke="midnightblue" d="M674.13,-166.92C770,-161.22 960.61,-149.16 1122,-134.46 1138,-133.01 1155.13,-131.24 1171.42,-129.45"/>
<polygon fill="midnightblue" stroke="midnightblue" points="1171.89,-132.92 1181.44,-128.34 1171.12,-125.96 1171.89,-132.92"/>
</g>
<!-- Node19 -->
<g id="node19" class="node">
<title>Node19</title>
<g id="a_node19"><a xlink:href="../../dc/d25/a01406.html#a9ba175cfa593fd3d5b1857442e6565a3" target="_top" xlink:title=" ">
<polygon fill="none" stroke="black" points="724,-224.96 724,-243.96 897,-243.96 897,-224.96 724,-224.96"/>
<text text-anchor="middle" x="810.5" y="-231.96" font-family="Helvetica,sans-Serif" font-size="10.00">com.cliffc.aa.tvar.TV2.merge_ns</text>
</a>
</g>
</g>
<!-- Node18&#45;&gt;Node19 -->
<g id="edge23" class="edge">
<title>Node18&#45;&gt;Node19</title>
<path fill="none" stroke="midnightblue" d="M643.28,-185.51C664,-195.17 692.16,-207.36 718,-215.46 726.44,-218.11 735.43,-220.49 744.35,-222.6"/>
<polygon fill="midnightblue" stroke="midnightblue" points="743.85,-226.07 754.37,-224.86 745.39,-219.24 743.85,-226.07"/>
</g>
<!-- Node19&#45;&gt;Node6 -->
<g id="edge24" class="edge">
<title>Node19&#45;&gt;Node6</title>
<path fill="none" stroke="midnightblue" d="M875.65,-244.03C885.04,-246.49 894.42,-249.59 903,-253.46 946.69,-273.21 989.62,-310.2 1012.5,-331.73"/>
<polygon fill="midnightblue" stroke="midnightblue" points="1010.35,-334.52 1019.99,-338.91 1015.19,-329.46 1010.35,-334.52"/>
</g>
<!-- Node19&#45;&gt;Node15 -->
<g id="edge25" class="edge">
<title>Node19&#45;&gt;Node15</title>
<path fill="none" stroke="midnightblue" d="M897.03,-234.46C914.58,-234.46 932.99,-234.46 950.3,-234.46"/>
<polygon fill="midnightblue" stroke="midnightblue" points="950.36,-237.96 960.35,-234.46 950.35,-230.96 950.36,-237.96"/>
</g>
<!-- Node20&#45;&gt;Node16 -->
<g id="edge27" class="edge">
<title>Node20&#45;&gt;Node16</title>
<path fill="none" stroke="midnightblue" d="M682.32,-40.23C781.42,-35.91 967.96,-34.03 1122,-68.46 1152.68,-75.32 1185.44,-89.14 1209.79,-100.81"/>
<polygon fill="midnightblue" stroke="midnightblue" points="1208.5,-104.07 1219.02,-105.32 1211.57,-97.78 1208.5,-104.07"/>
</g>
<!-- Node21&#45;&gt;Node15 -->
<g id="edge31" class="edge">
<title>Node21&#45;&gt;Node15</title>
<path fill="none" stroke="midnightblue" d="M866.23,-206C896.16,-211.22 933.42,-217.72 964.79,-223.18"/>
<polygon fill="midnightblue" stroke="midnightblue" points="964.3,-226.65 974.75,-224.92 965.5,-219.75 964.3,-226.65"/>
</g>
<!-- Node21&#45;&gt;Node16 -->
<g id="edge30" class="edge">
<title>Node21&#45;&gt;Node16</title>
<path fill="none" stroke="midnightblue" d="M891.7,-197.16C955.03,-196.06 1045.23,-190.84 1122,-172.46 1152.37,-165.19 1184.9,-151.53 1209.23,-140.03"/>
<polygon fill="midnightblue" stroke="midnightblue" points="1210.97,-143.08 1218.46,-135.59 1207.94,-136.77 1210.97,-143.08"/>
</g>
<!-- Node22&#45;&gt;Node15 -->
<g id="edge34" class="edge">
<title>Node22&#45;&gt;Node15</title>
<path fill="none" stroke="midnightblue" d="M829.71,-129.99C868.02,-150.02 957.12,-196.62 1002.26,-220.22"/>
<polygon fill="midnightblue" stroke="midnightblue" points="1000.7,-223.35 1011.19,-224.89 1003.95,-217.15 1000.7,-223.35"/>
</g>
<!-- Node22&#45;&gt;Node16 -->
<g id="edge33" class="edge">
<title>Node22&#45;&gt;Node16</title>
<path fill="none" stroke="midnightblue" d="M889.7,-120.46C969.32,-120.46 1091.98,-120.46 1170.99,-120.46"/>
<polygon fill="midnightblue" stroke="midnightblue" points="1171.36,-123.96 1181.36,-120.46 1171.36,-116.96 1171.36,-123.96"/>
</g>
</g>
</svg>
