<?xml version="1.0" encoding="UTF-8" standalone="no"?>
<!DOCTYPE svg PUBLIC "-//W3C//DTD SVG 1.1//EN"
 "http://www.w3.org/Graphics/SVG/1.1/DTD/svg11.dtd">
<!-- Generated by graphviz version 2.43.0 (0)
 -->
<!-- Title: com.cliffc.aa.tvar.TV2.is_prim Pages: 1 -->
<svg width="736pt" height="135pt"
 viewBox="0.00 0.00 736.00 134.50" xmlns="http://www.w3.org/2000/svg" xmlns:xlink="http://www.w3.org/1999/xlink">
<g id="graph0" class="graph" transform="scale(1 1) rotate(0) translate(4 130.5)">
<title>com.cliffc.aa.tvar.TV2.is_prim</title>
<!-- Node1 -->
<g id="node1" class="node">
<title>Node1</title>
<g id="a_node1"><a xlink:title=" ">
<polygon fill="#bfbfbf" stroke="black" points="567,-72 567,-91 728,-91 728,-72 567,-72"/>
<text text-anchor="middle" x="647.5" y="-79" font-family="Helvetica,sans-Serif" font-size="10.00">com.cliffc.aa.tvar.TV2.is_prim</text>
</a>
</g>
</g>
<!-- Node2 -->
<g id="node2" class="node">
<title>Node2</title>
<g id="a_node2"><a xlink:href="../../dc/d25/a01406.html#aab01004b5728ce0109daff3f4fb48b4b" target="_top" xlink:title=" ">
<polygon fill="none" stroke="black" points="359,-44 359,-63 531,-63 531,-44 359,-44"/>
<text text-anchor="middle" x="445" y="-51" font-family="Helvetica,sans-Serif" font-size="10.00">com.cliffc.aa.tvar.TV2.find_dups</text>
</a>
</g>
</g>
<!-- Node1&#45;&gt;Node2 -->
<g id="edge1" class="edge">
<title>Node1&#45;&gt;Node2</title>
<path fill="none" stroke="midnightblue" d="M568.02,-70.54C550.29,-68.06 531.59,-65.45 514.31,-63.04"/>
<polygon fill="midnightblue" stroke="midnightblue" points="567.95,-74.06 578.34,-71.98 568.92,-67.13 567.95,-74.06"/>
</g>
<!-- Node4 -->
<g id="node4" class="node">
<title>Node4</title>
<g id="a_node4"><a xlink:href="../../dc/d25/a01406.html#aefacfe68d3a38285907c27ad863932db" target="_top" xlink:title=" ">
<polygon fill="none" stroke="black" points="5.5,-107 5.5,-126 143.5,-126 143.5,-107 5.5,-107"/>
<text text-anchor="middle" x="74.5" y="-114" font-family="Helvetica,sans-Serif" font-size="10.00">com.cliffc.aa.tvar.TV2.str</text>
</a>
</g>
</g>
<!-- Node1&#45;&gt;Node4 -->
<g id="edge9" class="edge">
<title>Node1&#45;&gt;Node4</title>
<path fill="none" stroke="midnightblue" d="M556.78,-88.67C548.07,-89.32 539.37,-89.94 531,-90.5 393.69,-99.77 232.94,-108.43 143.82,-113.04"/>
<polygon fill="midnightblue" stroke="midnightblue" points="557.28,-92.15 566.99,-87.91 556.75,-85.17 557.28,-92.15"/>
</g>
<!-- Node2&#45;&gt;Node2 -->
<g id="edge2" class="edge">
<title>Node2&#45;&gt;Node2</title>
<path fill="none" stroke="midnightblue" d="M480.62,-71C480.62,-76.84 468.74,-81.5 445,-81.5 411.23,-81.5 401.47,-72.07 415.72,-63.26"/>
<polygon fill="midnightblue" stroke="midnightblue" points="483.33,-68.78 474.28,-63.26 477.91,-73.21 483.33,-68.78"/>
</g>
<!-- Node3 -->
<g id="node3" class="node">
<title>Node3</title>
<g id="a_node3"><a xlink:href="../../dc/d25/a01406.html#a07a6aa0c37c0691f110695fad38bcee6" target="_top" xlink:title=" ">
<polygon fill="none" stroke="black" points="185,-34 185,-53 323,-53 323,-34 185,-34"/>
<text text-anchor="middle" x="254" y="-41" font-family="Helvetica,sans-Serif" font-size="10.00">com.cliffc.aa.tvar.TV2.str</text>
</a>
</g>
</g>
<!-- Node2&#45;&gt;Node3 -->
<g id="edge3" class="edge">
<title>Node2&#45;&gt;Node3</title>
<path fill="none" stroke="midnightblue" d="M348.78,-48.46C340.15,-48.01 331.53,-47.55 323.21,-47.11"/>
<polygon fill="midnightblue" stroke="midnightblue" points="348.73,-51.96 358.9,-49 349.1,-44.97 348.73,-51.96"/>
</g>
<!-- Node5 -->
<g id="node5" class="node">
<title>Node5</title>
<g id="a_node5"><a xlink:href="../../d3/d45/a00382.html#a898f0e62afb941318ef1443f199e47ae" target="_top" xlink:title=" ">
<polygon fill="none" stroke="black" points="0,-0.5 0,-30.5 149,-30.5 149,-0.5 0,-0.5"/>
<text text-anchor="start" x="8" y="-18.5" font-family="Helvetica,sans-Serif" font-size="10.00">com.cliffc.aa.Env.VStack.to</text>
<text text-anchor="middle" x="74.5" y="-7.5" font-family="Helvetica,sans-Serif" font-size="10.00">String</text>
</a>
</g>
</g>
<!-- Node2&#45;&gt;Node5 -->
<g id="edge7" class="edge">
<title>Node2&#45;&gt;Node5</title>
<path fill="none" stroke="midnightblue" d="M402.15,-41.3C379.02,-35.11 349.66,-28.14 323,-24.5 264.96,-16.57 198.59,-14.53 149.2,-14.36"/>
<polygon fill="midnightblue" stroke="midnightblue" points="401.41,-44.72 411.98,-43.98 403.25,-37.97 401.41,-44.72"/>
</g>
<!-- Node6 -->
<g id="node6" class="node">
<title>Node6</title>
<g id="a_node6"><a xlink:href="../../dc/d25/a01406.html#a09757419fe496417dc275c05ee6f5077" target="_top" xlink:title=" ">
<polygon fill="none" stroke="black" points="7,-54.5 7,-84.5 142,-84.5 142,-54.5 7,-54.5"/>
<text text-anchor="start" x="15" y="-72.5" font-family="Helvetica,sans-Serif" font-size="10.00">com.cliffc.aa.tvar.TV2.to</text>
<text text-anchor="middle" x="74.5" y="-61.5" font-family="Helvetica,sans-Serif" font-size="10.00">String</text>
</a>
</g>
</g>
<!-- Node2&#45;&gt;Node6 -->
<g id="edge8" class="edge">
<title>Node2&#45;&gt;Node6</title>
<path fill="none" stroke="midnightblue" d="M348.6,-61.01C339.95,-61.56 331.32,-62.07 323,-62.5 261.83,-65.64 192.07,-67.45 142.24,-68.44"/>
<polygon fill="midnightblue" stroke="midnightblue" points="349.01,-64.49 358.75,-60.33 348.54,-57.5 349.01,-64.49"/>
</g>
<!-- Node3&#45;&gt;Node4 -->
<g id="edge4" class="edge">
<title>Node3&#45;&gt;Node4</title>
<path fill="none" stroke="midnightblue" d="M226.91,-57.8C206.19,-68.77 176.28,-83.81 149,-94.5 137.09,-99.16 123.78,-103.42 111.79,-106.93"/>
<polygon fill="midnightblue" stroke="midnightblue" points="228.57,-60.87 235.73,-53.07 225.26,-54.7 228.57,-60.87"/>
</g>
<!-- Node3&#45;&gt;Node5 -->
<g id="edge5" class="edge">
<title>Node3&#45;&gt;Node5</title>
<path fill="none" stroke="midnightblue" d="M182.45,-32.37C171.45,-30.64 160.07,-28.84 149.01,-27.1"/>
<polygon fill="midnightblue" stroke="midnightblue" points="181.99,-35.84 192.41,-33.94 183.08,-28.93 181.99,-35.84"/>
</g>
<!-- Node3&#45;&gt;Node6 -->
<g id="edge6" class="edge">
<title>Node3&#45;&gt;Node6</title>
<path fill="none" stroke="midnightblue" d="M177.99,-54.49C166.06,-56.24 153.79,-58.03 142.07,-59.75"/>
<polygon fill="midnightblue" stroke="midnightblue" points="178.53,-57.95 187.91,-53.03 177.51,-51.02 178.53,-57.95"/>
</g>
</g>
</svg>
