<?xml version="1.0" encoding="UTF-8" standalone="no"?>
<!DOCTYPE svg PUBLIC "-//W3C//DTD SVG 1.1//EN"
 "http://www.w3.org/Graphics/SVG/1.1/DTD/svg11.dtd">
<!-- Generated by graphviz version 2.43.0 (0)
 -->
<!-- Title: com.cliffc.aa.tvar.TV2.is_prim Pages: 1 -->
<svg width="515pt" height="78pt"
 viewBox="0.00 0.00 515.00 77.50" xmlns="http://www.w3.org/2000/svg" xmlns:xlink="http://www.w3.org/1999/xlink">
<g id="graph0" class="graph" transform="scale(1 1) rotate(0) translate(4 73.5)">
<title>com.cliffc.aa.tvar.TV2.is_prim</title>
<!-- Node1 -->
<g id="node1" class="node">
<title>Node1</title>
<g id="a_node1"><a xlink:title=" ">
<polygon fill="#bfbfbf" stroke="black" points="0,-28 0,-47 161,-47 161,-28 0,-28"/>
<text text-anchor="middle" x="80.5" y="-35" font-family="Helvetica,sans-Serif" font-size="10.00">com.cliffc.aa.tvar.TV2.is_prim</text>
</a>
</g>
</g>
<!-- Node2 -->
<g id="node2" class="node">
<title>Node2</title>
<g id="a_node2"><a xlink:href="../../dc/d25/a01406.html#a4c6344d5b696661ebc8894c4d6d5d83d" target="_top" xlink:title=" ">
<polygon fill="none" stroke="black" points="197,-28 197,-47 337,-47 337,-28 197,-28"/>
<text text-anchor="middle" x="267" y="-35" font-family="Helvetica,sans-Serif" font-size="10.00">com.cliffc.aa.tvar.TV2.isa</text>
</a>
</g>
</g>
<!-- Node1&#45;&gt;Node2 -->
<g id="edge1" class="edge">
<title>Node1&#45;&gt;Node2</title>
<path fill="none" stroke="midnightblue" d="M161.08,-37.5C169.54,-37.5 178.15,-37.5 186.6,-37.5"/>
<polygon fill="midnightblue" stroke="midnightblue" points="186.83,-41 196.83,-37.5 186.83,-34 186.83,-41"/>
</g>
<!-- Node3 -->
<g id="node3" class="node">
<title>Node3</title>
<g id="a_node3"><a xlink:href="../../dd/d55/a01638.html#a3975ba7dca9fe2d6e4992b2b5558f882" target="_top" xlink:title=" ">
<polygon fill="none" stroke="black" points="373.5,-50 373.5,-69 506.5,-69 506.5,-50 373.5,-50"/>
<text text-anchor="middle" x="440" y="-57" font-family="Helvetica,sans-Serif" font-size="10.00">com.cliffc.aa.util.Util.eq</text>
</a>
</g>
</g>
<!-- Node2&#45;&gt;Node3 -->
<g id="edge2" class="edge">
<title>Node2&#45;&gt;Node3</title>
<path fill="none" stroke="midnightblue" d="M337.06,-46.38C345.65,-47.49 354.48,-48.63 363.17,-49.74"/>
<polygon fill="midnightblue" stroke="midnightblue" points="362.92,-53.24 373.29,-51.05 363.81,-46.3 362.92,-53.24"/>
</g>
<!-- Node4 -->
<g id="node4" class="node">
<title>Node4</title>
<g id="a_node4"><a xlink:href="../../dc/d25/a01406.html#a4648c36530ad943bcfe943b14dc33c36" target="_top" xlink:title=" ">
<polygon fill="none" stroke="black" points="373,-0.5 373,-30.5 507,-30.5 507,-0.5 373,-0.5"/>
<text text-anchor="start" x="381" y="-18.5" font-family="Helvetica,sans-Serif" font-size="10.00">com.cliffc.aa.tvar.TV2.is</text>
<text text-anchor="middle" x="440" y="-7.5" font-family="Helvetica,sans-Serif" font-size="10.00">_unified</text>
</a>
</g>
</g>
<!-- Node2&#45;&gt;Node4 -->
<g id="edge3" class="edge">
<title>Node2&#45;&gt;Node4</title>
<path fill="none" stroke="midnightblue" d="M337.06,-28.62C345.52,-27.53 354.2,-26.41 362.76,-25.31"/>
<polygon fill="midnightblue" stroke="midnightblue" points="363.26,-28.77 372.73,-24.03 362.37,-21.83 363.26,-28.77"/>
</g>
</g>
</svg>
