<?xml version="1.0" encoding="UTF-8" standalone="no"?>
<!DOCTYPE svg PUBLIC "-//W3C//DTD SVG 1.1//EN"
 "http://www.w3.org/Graphics/SVG/1.1/DTD/svg11.dtd">
<!-- Generated by graphviz version 2.43.0 (0)
 -->
<!-- Title: com.cliffc.aa.HM.HM7.Field.p2 Pages: 1 -->
<svg width="1579pt" height="444pt"
 viewBox="0.00 0.00 1579.00 444.00" xmlns="http://www.w3.org/2000/svg" xmlns:xlink="http://www.w3.org/1999/xlink">
<g id="graph0" class="graph" transform="scale(1 1) rotate(0) translate(4 440)">
<title>com.cliffc.aa.HM.HM7.Field.p2</title>
<!-- Node1 -->
<g id="node1" class="node">
<title>Node1</title>
<g id="a_node1"><a xlink:title=" ">
<polygon fill="#bfbfbf" stroke="black" points="0,-264.5 0,-283.5 165,-283.5 165,-264.5 0,-264.5"/>
<text text-anchor="middle" x="82.5" y="-271.5" font-family="Helvetica,sans-Serif" font-size="10.00">com.cliffc.aa.HM.HM7.Field.p2</text>
</a>
</g>
</g>
<!-- Node2 -->
<g id="node2" class="node">
<title>Node2</title>
<g id="a_node2"><a xlink:href="../../d5/dcd/a00802.html#afb5b615a1c5e1d4e89fd09997dc3e497" target="_top" xlink:title=" ">
<polygon fill="none" stroke="black" points="201,-264.5 201,-283.5 377,-283.5 377,-264.5 201,-264.5"/>
<text text-anchor="middle" x="289" y="-271.5" font-family="Helvetica,sans-Serif" font-size="10.00">com.cliffc.aa.HM.HM7.Syntax.p0</text>
</a>
</g>
</g>
<!-- Node1&#45;&gt;Node2 -->
<g id="edge1" class="edge">
<title>Node1&#45;&gt;Node2</title>
<path fill="none" stroke="midnightblue" d="M165.21,-274C173.51,-274 182,-274 190.45,-274"/>
<polygon fill="midnightblue" stroke="midnightblue" points="190.73,-277.5 200.73,-274 190.72,-270.5 190.73,-277.5"/>
</g>
<!-- Node3 -->
<g id="node3" class="node">
<title>Node3</title>
<g id="a_node3"><a xlink:href="../../d4/d99/a01634.html#abfac42eaf89db4481f58c14568dfb131" target="_top" xlink:title=" ">
<polygon fill="none" stroke="black" points="443.5,-378.5 443.5,-397.5 568.5,-397.5 568.5,-378.5 443.5,-378.5"/>
<text text-anchor="middle" x="506" y="-385.5" font-family="Helvetica,sans-Serif" font-size="10.00">com.cliffc.aa.util.SB.di</text>
</a>
</g>
</g>
<!-- Node2&#45;&gt;Node3 -->
<g id="edge2" class="edge">
<title>Node2&#45;&gt;Node3</title>
<path fill="none" stroke="midnightblue" d="M299.18,-283.57C318.37,-302.96 364.94,-346.92 413,-369 419.52,-372 426.52,-374.52 433.63,-376.65"/>
<polygon fill="midnightblue" stroke="midnightblue" points="432.81,-380.06 443.38,-379.32 434.66,-373.31 432.81,-380.06"/>
</g>
<!-- Node5 -->
<g id="node5" class="node">
<title>Node5</title>
<g id="a_node5"><a xlink:href="../../d9/d02/a00834.html#a4dc5a99213d7877ebaf22d055042355b" target="_top" xlink:title=" ">
<polygon fill="none" stroke="black" points="413,-78.5 413,-97.5 599,-97.5 599,-78.5 413,-78.5"/>
<text text-anchor="middle" x="506" y="-85.5" font-family="Helvetica,sans-Serif" font-size="10.00">com.cliffc.aa.HM.HM7.T2.get_dups</text>
</a>
</g>
</g>
<!-- Node2&#45;&gt;Node5 -->
<g id="edge5" class="edge">
<title>Node2&#45;&gt;Node5</title>
<path fill="none" stroke="midnightblue" d="M297.22,-264.38C314.99,-241.12 363.1,-180.82 413,-141 432.35,-125.56 456.72,-111.73 475.52,-102.07"/>
<polygon fill="midnightblue" stroke="midnightblue" points="477.15,-105.17 484.51,-97.55 474.01,-98.91 477.15,-105.17"/>
</g>
<!-- Node12 -->
<g id="node12" class="node">
<title>Node12</title>
<g id="a_node12"><a xlink:href="../../d4/d99/a01634.html#af4644d310d3f2b8504bb25573f9d528e" target="_top" xlink:title=" ">
<polygon fill="none" stroke="black" points="446.5,-340.5 446.5,-359.5 565.5,-359.5 565.5,-340.5 446.5,-340.5"/>
<text text-anchor="middle" x="506" y="-347.5" font-family="Helvetica,sans-Serif" font-size="10.00">com.cliffc.aa.util.SB.i</text>
</a>
</g>
</g>
<!-- Node2&#45;&gt;Node12 -->
<g id="edge12" class="edge">
<title>Node2&#45;&gt;Node12</title>
<path fill="none" stroke="midnightblue" d="M310.11,-283.57C334.18,-294.77 375.9,-313.39 413,-326 425.83,-330.36 439.89,-334.39 453.07,-337.86"/>
<polygon fill="midnightblue" stroke="midnightblue" points="452.39,-341.29 462.94,-340.39 454.13,-334.51 452.39,-341.29"/>
</g>
<!-- Node13 -->
<g id="node13" class="node">
<title>Node13</title>
<g id="a_node13"><a xlink:href="../../d4/d99/a01634.html#ac801338e82849a7fe2ae7a0feb80bb55" target="_top" xlink:title=" ">
<polygon fill="none" stroke="black" points="849.5,-334.5 849.5,-353.5 971.5,-353.5 971.5,-334.5 849.5,-334.5"/>
<text text-anchor="middle" x="910.5" y="-341.5" font-family="Helvetica,sans-Serif" font-size="10.00">com.cliffc.aa.util.SB.p</text>
</a>
</g>
</g>
<!-- Node2&#45;&gt;Node13 -->
<g id="edge20" class="edge">
<title>Node2&#45;&gt;Node13</title>
<path fill="none" stroke="midnightblue" d="M373.36,-283.5C386.62,-285.01 400.19,-286.55 413,-288 564.77,-305.2 742.66,-325.23 838.93,-336.06"/>
<polygon fill="midnightblue" stroke="midnightblue" points="838.79,-339.57 849.12,-337.21 839.57,-332.61 838.79,-339.57"/>
</g>
<!-- Node15 -->
<g id="node15" class="node">
<title>Node15</title>
<g id="a_node15"><a xlink:href="../../d4/d99/a01634.html#a2f9dc83deb53447224a9cc6551253d8a" target="_top" xlink:title=" ">
<polygon fill="none" stroke="black" points="445,-416.5 445,-435.5 567,-435.5 567,-416.5 445,-416.5"/>
<text text-anchor="middle" x="506" y="-423.5" font-family="Helvetica,sans-Serif" font-size="10.00">com.cliffc.aa.util.SB.ii</text>
</a>
</g>
</g>
<!-- Node2&#45;&gt;Node15 -->
<g id="edge16" class="edge">
<title>Node2&#45;&gt;Node15</title>
<path fill="none" stroke="midnightblue" d="M295.79,-283.59C311.32,-308.44 356.58,-375.14 413,-407 419.79,-410.83 427.25,-413.9 434.9,-416.35"/>
<polygon fill="midnightblue" stroke="midnightblue" points="434.07,-419.75 444.65,-419.13 436,-413.02 434.07,-419.75"/>
</g>
<!-- Node16 -->
<g id="node16" class="node">
<title>Node16</title>
<g id="a_node16"><a xlink:href="../../d4/d99/a01634.html#af706c705e889040f6fc45486f508987e" target="_top" xlink:title=" ">
<polygon fill="none" stroke="black" points="650,-264.5 650,-283.5 775,-283.5 775,-264.5 650,-264.5"/>
<text text-anchor="middle" x="712.5" y="-271.5" font-family="Helvetica,sans-Serif" font-size="10.00">com.cliffc.aa.util.SB.nl</text>
</a>
</g>
</g>
<!-- Node2&#45;&gt;Node16 -->
<g id="edge18" class="edge">
<title>Node2&#45;&gt;Node16</title>
<path fill="none" stroke="midnightblue" d="M377.08,-274C454.62,-274 566.74,-274 639.37,-274"/>
<polygon fill="midnightblue" stroke="midnightblue" points="639.79,-277.5 649.79,-274 639.79,-270.5 639.79,-277.5"/>
</g>
<!-- Node17 -->
<g id="node17" class="node">
<title>Node17</title>
<g id="a_node17"><a xlink:href="../../d5/dcd/a00802.html#a8cd2d0cdb0272eef4b762681547d18e4" target="_top" xlink:title=" ">
<polygon fill="none" stroke="black" points="418,-188.5 418,-207.5 594,-207.5 594,-188.5 418,-188.5"/>
<text text-anchor="middle" x="506" y="-195.5" font-family="Helvetica,sans-Serif" font-size="10.00">com.cliffc.aa.HM.HM7.Syntax.p1</text>
</a>
</g>
</g>
<!-- Node2&#45;&gt;Node17 -->
<g id="edge21" class="edge">
<title>Node2&#45;&gt;Node17</title>
<path fill="none" stroke="midnightblue" d="M310.11,-264.43C334.18,-253.23 375.9,-234.61 413,-222 425.83,-217.64 439.89,-213.61 453.07,-210.14"/>
<polygon fill="midnightblue" stroke="midnightblue" points="454.13,-213.49 462.94,-207.61 452.39,-206.71 454.13,-213.49"/>
</g>
<!-- Node18 -->
<g id="node18" class="node">
<title>Node18</title>
<g id="a_node18"><a xlink:href="../../d5/dcd/a00802.html#aeca2662bd8462a9a7af687416a5918ab" target="_top" xlink:title=" ">
<polygon fill="none" stroke="black" points="418,-150.5 418,-169.5 594,-169.5 594,-150.5 418,-150.5"/>
<text text-anchor="middle" x="506" y="-157.5" font-family="Helvetica,sans-Serif" font-size="10.00">com.cliffc.aa.HM.HM7.Syntax.p2</text>
</a>
</g>
</g>
<!-- Node2&#45;&gt;Node18 -->
<g id="edge22" class="edge">
<title>Node2&#45;&gt;Node18</title>
<path fill="none" stroke="midnightblue" d="M299.18,-264.43C318.37,-245.04 364.94,-201.08 413,-179 418.41,-176.51 424.15,-174.35 430.02,-172.47"/>
<polygon fill="midnightblue" stroke="midnightblue" points="431.35,-175.72 439.97,-169.56 429.38,-169.01 431.35,-175.72"/>
</g>
<!-- Node19 -->
<g id="node19" class="node">
<title>Node19</title>
<g id="a_node19"><a xlink:href="../../d9/d02/a00834.html#abfdc645d28a6124cb4e5b2926dfe0739" target="_top" xlink:title=" ">
<polygon fill="none" stroke="black" points="635,-208.5 635,-227.5 790,-227.5 790,-208.5 635,-208.5"/>
<text text-anchor="middle" x="712.5" y="-215.5" font-family="Helvetica,sans-Serif" font-size="10.00">com.cliffc.aa.HM.HM7.T2.str</text>
</a>
</g>
</g>
<!-- Node2&#45;&gt;Node19 -->
<g id="edge23" class="edge">
<title>Node2&#45;&gt;Node19</title>
<path fill="none" stroke="midnightblue" d="M361.98,-264.44C436.24,-254.57 551.87,-239.21 629.59,-228.88"/>
<polygon fill="midnightblue" stroke="midnightblue" points="630.37,-232.31 639.82,-227.52 629.44,-225.37 630.37,-232.31"/>
</g>
<!-- Node4 -->
<g id="node4" class="node">
<title>Node4</title>
<g id="a_node4"><a xlink:href="../../d4/d99/a01634.html#a135574f0788f02889e20439dffa3d6a8" target="_top" xlink:title=" ">
<polygon fill="none" stroke="black" points="653,-378.5 653,-397.5 772,-397.5 772,-378.5 653,-378.5"/>
<text text-anchor="middle" x="712.5" y="-385.5" font-family="Helvetica,sans-Serif" font-size="10.00">com.cliffc.aa.util.SB.i</text>
</a>
</g>
</g>
<!-- Node3&#45;&gt;Node4 -->
<g id="edge3" class="edge">
<title>Node3&#45;&gt;Node4</title>
<path fill="none" stroke="midnightblue" d="M568.63,-388C591.99,-388 618.73,-388 642.71,-388"/>
<polygon fill="midnightblue" stroke="midnightblue" points="642.8,-391.5 652.8,-388 642.8,-384.5 642.8,-391.5"/>
</g>
<!-- Node4&#45;&gt;Node4 -->
<g id="edge4" class="edge">
<title>Node4&#45;&gt;Node4</title>
<path fill="none" stroke="midnightblue" d="M681.98,-397.76C667.14,-406.57 677.31,-416 712.5,-416 737.24,-416 749.62,-411.34 749.62,-405.5"/>
<polygon fill="midnightblue" stroke="midnightblue" points="752.17,-403.09 743.02,-397.76 746.84,-407.64 752.17,-403.09"/>
</g>
<!-- Node6 -->
<g id="node6" class="node">
<title>Node6</title>
<g id="a_node6"><a xlink:href="../../d9/d02/a00834.html#a29a8410922791c33f6ff5f488730587d" target="_top" xlink:title=" ">
<polygon fill="none" stroke="black" points="641.5,-33 641.5,-63 783.5,-63 783.5,-33 641.5,-33"/>
<text text-anchor="start" x="649.5" y="-51" font-family="Helvetica,sans-Serif" font-size="10.00">com.cliffc.aa.HM.HM7.T2.</text>
<text text-anchor="middle" x="712.5" y="-40" font-family="Helvetica,sans-Serif" font-size="10.00">_get_dups</text>
</a>
</g>
</g>
<!-- Node5&#45;&gt;Node6 -->
<g id="edge6" class="edge">
<title>Node5&#45;&gt;Node6</title>
<path fill="none" stroke="midnightblue" d="M555.72,-78.47C578.35,-74.04 605.86,-68.66 631.42,-63.66"/>
<polygon fill="midnightblue" stroke="midnightblue" points="632.34,-67.05 641.48,-61.7 631,-60.18 632.34,-67.05"/>
</g>
<!-- Node7 -->
<g id="node7" class="node">
<title>Node7</title>
<g id="a_node7"><a xlink:href="../../d9/d02/a00834.html#a11a0879ef2674dd9fb3f9a1be59d3084" target="_top" xlink:title=" ">
<polygon fill="none" stroke="black" points="826,-0.5 826,-19.5 995,-19.5 995,-0.5 826,-0.5"/>
<text text-anchor="middle" x="910.5" y="-7.5" font-family="Helvetica,sans-Serif" font-size="10.00">com.cliffc.aa.HM.HM7.T2.no_uf</text>
</a>
</g>
</g>
<!-- Node6&#45;&gt;Node7 -->
<g id="edge7" class="edge">
<title>Node6&#45;&gt;Node7</title>
<path fill="none" stroke="midnightblue" d="M783.71,-34.39C805.51,-30.16 829.32,-25.55 850.3,-21.48"/>
<polygon fill="midnightblue" stroke="midnightblue" points="851.2,-24.87 860.35,-19.53 849.86,-18 851.2,-24.87"/>
</g>
<!-- Node11 -->
<g id="node11" class="node">
<title>Node11</title>
<g id="a_node11"><a xlink:href="../../df/dee/a01646.html#a88ad20daf92e92fe0e3925b23c4fecf0" target="_top" xlink:title=" ">
<polygon fill="none" stroke="black" points="831.5,-38.5 831.5,-57.5 989.5,-57.5 989.5,-38.5 831.5,-38.5"/>
<text text-anchor="middle" x="910.5" y="-45.5" font-family="Helvetica,sans-Serif" font-size="10.00">com.cliffc.aa.util.VBitSet.tset</text>
</a>
</g>
</g>
<!-- Node6&#45;&gt;Node11 -->
<g id="edge11" class="edge">
<title>Node6&#45;&gt;Node11</title>
<path fill="none" stroke="midnightblue" d="M783.71,-48C795.93,-48 808.78,-48 821.41,-48"/>
<polygon fill="midnightblue" stroke="midnightblue" points="821.47,-51.5 831.47,-48 821.47,-44.5 821.47,-51.5"/>
</g>
<!-- Node8 -->
<g id="node8" class="node">
<title>Node8</title>
<g id="a_node8"><a xlink:href="../../d9/d02/a00834.html#aebfcad4f2e406516eef7fd39a6803752" target="_top" xlink:title=" ">
<polygon fill="none" stroke="black" points="1033.5,-76.5 1033.5,-95.5 1207.5,-95.5 1207.5,-76.5 1033.5,-76.5"/>
<text text-anchor="middle" x="1120.5" y="-83.5" font-family="Helvetica,sans-Serif" font-size="10.00">com.cliffc.aa.HM.HM7.T2.is_leaf</text>
</a>
</g>
</g>
<!-- Node7&#45;&gt;Node8 -->
<g id="edge8" class="edge">
<title>Node7&#45;&gt;Node8</title>
<path fill="none" stroke="midnightblue" d="M961.42,-19.6C972.59,-22.23 984.3,-25.38 995,-29 1029.79,-40.78 1067.93,-59.1 1092.71,-71.78"/>
<polygon fill="midnightblue" stroke="midnightblue" points="1091.34,-75.01 1101.83,-76.5 1094.56,-68.79 1091.34,-75.01"/>
</g>
<!-- Node9 -->
<g id="node9" class="node">
<title>Node9</title>
<g id="a_node9"><a xlink:href="../../d9/d02/a00834.html#a1646dbd4ae347d254550074fb9dd89ac" target="_top" xlink:title=" ">
<polygon fill="none" stroke="black" points="1246,-148.5 1246,-167.5 1402,-167.5 1402,-148.5 1246,-148.5"/>
<text text-anchor="middle" x="1324" y="-155.5" font-family="Helvetica,sans-Serif" font-size="10.00">com.cliffc.aa.HM.HM7.T2.isa</text>
</a>
</g>
</g>
<!-- Node8&#45;&gt;Node9 -->
<g id="edge9" class="edge">
<title>Node8&#45;&gt;Node9</title>
<path fill="none" stroke="midnightblue" d="M1149.03,-95.56C1166.51,-101.65 1189.61,-109.73 1210,-117 1235.91,-126.24 1265.1,-136.83 1287.32,-144.94"/>
<polygon fill="midnightblue" stroke="midnightblue" points="1286.4,-148.33 1297,-148.47 1288.8,-141.76 1286.4,-148.33"/>
</g>
<!-- Node10 -->
<g id="node10" class="node">
<title>Node10</title>
<g id="a_node10"><a xlink:href="../../dd/d55/a01638.html#a3975ba7dca9fe2d6e4992b2b5558f882" target="_top" xlink:title=" ">
<polygon fill="none" stroke="black" points="1438,-148.5 1438,-167.5 1571,-167.5 1571,-148.5 1438,-148.5"/>
<text text-anchor="middle" x="1504.5" y="-155.5" font-family="Helvetica,sans-Serif" font-size="10.00">com.cliffc.aa.util.Util.eq</text>
</a>
</g>
</g>
<!-- Node9&#45;&gt;Node10 -->
<g id="edge10" class="edge">
<title>Node9&#45;&gt;Node10</title>
<path fill="none" stroke="midnightblue" d="M1402.25,-158C1410.69,-158 1419.28,-158 1427.7,-158"/>
<polygon fill="midnightblue" stroke="midnightblue" points="1427.87,-161.5 1437.87,-158 1427.87,-154.5 1427.87,-161.5"/>
</g>
<!-- Node12&#45;&gt;Node4 -->
<g id="edge13" class="edge">
<title>Node12&#45;&gt;Node4</title>
<path fill="none" stroke="midnightblue" d="M558.34,-359.54C586.17,-364.71 620.77,-371.14 650.03,-376.58"/>
<polygon fill="midnightblue" stroke="midnightblue" points="649.67,-380.07 660.14,-378.46 650.95,-373.19 649.67,-380.07"/>
</g>
<!-- Node12&#45;&gt;Node13 -->
<g id="edge14" class="edge">
<title>Node12&#45;&gt;Node13</title>
<path fill="none" stroke="midnightblue" d="M565.53,-349.13C638.04,-348.05 761.48,-346.21 839.09,-345.05"/>
<polygon fill="midnightblue" stroke="midnightblue" points="839.31,-348.55 849.26,-344.9 839.21,-341.55 839.31,-348.55"/>
</g>
<!-- Node14 -->
<g id="node14" class="node">
<title>Node14</title>
<g id="a_node14"><a xlink:href="../../d4/d99/a01634.html#abd1b8ac722e0fb0bf1e7b2ea0eaeb0b6" target="_top" xlink:title=" ">
<polygon fill="none" stroke="black" points="1059.5,-334.5 1059.5,-353.5 1181.5,-353.5 1181.5,-334.5 1059.5,-334.5"/>
<text text-anchor="middle" x="1120.5" y="-341.5" font-family="Helvetica,sans-Serif" font-size="10.00">com.cliffc.aa.util.SB.s</text>
</a>
</g>
</g>
<!-- Node13&#45;&gt;Node14 -->
<g id="edge15" class="edge">
<title>Node13&#45;&gt;Node14</title>
<path fill="none" stroke="midnightblue" d="M971.66,-344C995.92,-344 1024.06,-344 1049.25,-344"/>
<polygon fill="midnightblue" stroke="midnightblue" points="1049.47,-347.5 1059.47,-344 1049.47,-340.5 1049.47,-347.5"/>
</g>
<!-- Node15&#45;&gt;Node4 -->
<g id="edge17" class="edge">
<title>Node15&#45;&gt;Node4</title>
<path fill="none" stroke="midnightblue" d="M558.34,-416.46C586.17,-411.29 620.77,-404.86 650.03,-399.42"/>
<polygon fill="midnightblue" stroke="midnightblue" points="650.95,-402.81 660.14,-397.54 649.67,-395.93 650.95,-402.81"/>
</g>
<!-- Node16&#45;&gt;Node13 -->
<g id="edge19" class="edge">
<title>Node16&#45;&gt;Node13</title>
<path fill="none" stroke="midnightblue" d="M750.37,-283.58C763.17,-287.42 777.45,-292.3 790,-298 807.07,-305.75 808.83,-312.45 826,-320 836.15,-324.46 847.35,-328.34 858.17,-331.6"/>
<polygon fill="midnightblue" stroke="midnightblue" points="857.38,-335.02 867.95,-334.42 859.32,-328.29 857.38,-335.02"/>
</g>
<!-- Node19&#45;&gt;Node8 -->
<g id="edge28" class="edge">
<title>Node19&#45;&gt;Node8</title>
<path fill="none" stroke="midnightblue" d="M720.98,-208.38C737.44,-188.01 779.09,-140.72 826,-120 887.99,-92.62 964.16,-84.44 1023.37,-82.94"/>
<polygon fill="midnightblue" stroke="midnightblue" points="1023.53,-86.44 1033.46,-82.75 1023.4,-79.44 1023.53,-86.44"/>
</g>
<!-- Node19&#45;&gt;Node11 -->
<g id="edge34" class="edge">
<title>Node19&#45;&gt;Node11</title>
<path fill="none" stroke="midnightblue" d="M718.08,-208.47C731.09,-182.42 770.96,-109.42 826,-72 832.49,-67.59 839.79,-63.98 847.31,-61.03"/>
<polygon fill="midnightblue" stroke="midnightblue" points="848.64,-64.27 856.89,-57.63 846.3,-57.67 848.64,-64.27"/>
</g>
<!-- Node19&#45;&gt;Node13 -->
<g id="edge31" class="edge">
<title>Node19&#45;&gt;Node13</title>
<path fill="none" stroke="midnightblue" d="M743.69,-227.63C758.94,-233.65 776.93,-242.63 790,-255 813.99,-277.7 800.17,-299.43 826,-320 831.31,-324.23 837.34,-327.71 843.66,-330.58"/>
<polygon fill="midnightblue" stroke="midnightblue" points="842.51,-333.89 853.09,-334.36 845.11,-327.39 842.51,-333.89"/>
</g>
<!-- Node19&#45;&gt;Node19 -->
<g id="edge32" class="edge">
<title>Node19&#45;&gt;Node19</title>
<path fill="none" stroke="midnightblue" d="M681.98,-227.76C667.14,-236.57 677.31,-246 712.5,-246 737.24,-246 749.62,-241.34 749.62,-235.5"/>
<polygon fill="midnightblue" stroke="midnightblue" points="752.17,-233.09 743.02,-227.76 746.84,-237.64 752.17,-233.09"/>
</g>
<!-- Node20 -->
<g id="node20" class="node">
<title>Node20</title>
<g id="a_node20"><a xlink:href="../../d9/d02/a00834.html#a991a5eeda04840eb73281c0e2bf79ad4" target="_top" xlink:title=" ">
<polygon fill="none" stroke="black" points="1031,-126.5 1031,-145.5 1210,-145.5 1210,-126.5 1031,-126.5"/>
<text text-anchor="middle" x="1120.5" y="-133.5" font-family="Helvetica,sans-Serif" font-size="10.00">com.cliffc.aa.HM.HM7.T2.is_base</text>
</a>
</g>
</g>
<!-- Node19&#45;&gt;Node20 -->
<g id="edge24" class="edge">
<title>Node19&#45;&gt;Node20</title>
<path fill="none" stroke="midnightblue" d="M723.6,-208.29C742.1,-191.24 783.47,-156.43 826,-143 893.65,-121.63 974.51,-121.43 1034.21,-125.7"/>
<polygon fill="midnightblue" stroke="midnightblue" points="1034.11,-129.2 1044.35,-126.48 1034.65,-122.22 1034.11,-129.2"/>
</g>
<!-- Node21 -->
<g id="node21" class="node">
<title>Node21</title>
<g id="a_node21"><a xlink:href="../../d9/d02/a00834.html#af57e3b0e1e22104b5c8aa1381575594d" target="_top" xlink:title=" ">
<polygon fill="none" stroke="black" points="1035,-284.5 1035,-303.5 1206,-303.5 1206,-284.5 1035,-284.5"/>
<text text-anchor="middle" x="1120.5" y="-291.5" font-family="Helvetica,sans-Serif" font-size="10.00">com.cliffc.aa.HM.HM7.T2.is_fun</text>
</a>
</g>
</g>
<!-- Node19&#45;&gt;Node21 -->
<g id="edge26" class="edge">
<title>Node19&#45;&gt;Node21</title>
<path fill="none" stroke="midnightblue" d="M731.21,-227.6C752.88,-238.85 791.02,-257.1 826,-266 891.05,-282.55 966.46,-289.5 1024.56,-292.33"/>
<polygon fill="midnightblue" stroke="midnightblue" points="1024.68,-295.84 1034.83,-292.8 1025,-288.85 1024.68,-295.84"/>
</g>
<!-- Node22 -->
<g id="node22" class="node">
<title>Node22</title>
<g id="a_node22"><a xlink:href="../../d9/d02/a00834.html#a7cefeb8d78c5b6ee7d47e3d0edf780d9" target="_top" xlink:title=" ">
<polygon fill="none" stroke="black" points="1045.5,-212 1045.5,-242 1195.5,-242 1195.5,-212 1045.5,-212"/>
<text text-anchor="start" x="1053.5" y="-230" font-family="Helvetica,sans-Serif" font-size="10.00">com.cliffc.aa.HM.HM7.T2.is</text>
<text text-anchor="middle" x="1120.5" y="-219" font-family="Helvetica,sans-Serif" font-size="10.00">_struct</text>
</a>
</g>
</g>
<!-- Node19&#45;&gt;Node22 -->
<g id="edge29" class="edge">
<title>Node19&#45;&gt;Node22</title>
<path fill="none" stroke="midnightblue" d="M740.35,-227.6C762.88,-235.12 796.09,-244.95 826,-249 900.43,-259.07 920.18,-255.56 995,-249 1008.64,-247.8 1023.02,-245.89 1036.97,-243.67"/>
<polygon fill="midnightblue" stroke="midnightblue" points="1037.74,-247.09 1047.04,-242.01 1036.6,-240.18 1037.74,-247.09"/>
</g>
<!-- Node23 -->
<g id="node23" class="node">
<title>Node23</title>
<g id="a_node23"><a xlink:href="../../d0/de2/a01442.html#a07f49bb79ed4ff3f46f518a26793b2fe" target="_top" xlink:title=" ">
<polygon fill="none" stroke="black" points="839.5,-209 839.5,-239 981.5,-239 981.5,-209 839.5,-209"/>
<text text-anchor="start" x="847.5" y="-227" font-family="Helvetica,sans-Serif" font-size="10.00">com.cliffc.aa.type.Type.to</text>
<text text-anchor="middle" x="910.5" y="-216" font-family="Helvetica,sans-Serif" font-size="10.00">String</text>
</a>
</g>
</g>
<!-- Node19&#45;&gt;Node23 -->
<g id="edge33" class="edge">
<title>Node19&#45;&gt;Node23</title>
<path fill="none" stroke="midnightblue" d="M790.12,-220.35C802.91,-220.74 816.22,-221.14 829.1,-221.54"/>
<polygon fill="midnightblue" stroke="midnightblue" points="829.22,-225.04 839.33,-221.85 829.44,-218.05 829.22,-225.04"/>
</g>
<!-- Node24 -->
<g id="node24" class="node">
<title>Node24</title>
<g id="a_node24"><a xlink:href="../../d4/d99/a01634.html#a6536bbd3de1ca1c901e1cb9527dbf3db" target="_top" xlink:title=" ">
<polygon fill="none" stroke="black" points="836,-152.5 836,-171.5 985,-171.5 985,-152.5 836,-152.5"/>
<text text-anchor="middle" x="910.5" y="-159.5" font-family="Helvetica,sans-Serif" font-size="10.00">com.cliffc.aa.util.SB.unchar</text>
</a>
</g>
</g>
<!-- Node19&#45;&gt;Node24 -->
<g id="edge35" class="edge">
<title>Node19&#45;&gt;Node24</title>
<path fill="none" stroke="midnightblue" d="M747.19,-208.37C780.21,-198.94 830.66,-184.53 866.54,-174.27"/>
<polygon fill="midnightblue" stroke="midnightblue" points="867.59,-177.61 876.25,-171.5 865.67,-170.88 867.59,-177.61"/>
</g>
<!-- Node20&#45;&gt;Node9 -->
<g id="edge25" class="edge">
<title>Node20&#45;&gt;Node9</title>
<path fill="none" stroke="midnightblue" d="M1208.71,-145.52C1217.67,-146.5 1226.78,-147.49 1235.75,-148.47"/>
<polygon fill="midnightblue" stroke="midnightblue" points="1235.47,-151.96 1245.79,-149.57 1236.23,-145.01 1235.47,-151.96"/>
</g>
<!-- Node21&#45;&gt;Node9 -->
<g id="edge27" class="edge">
<title>Node21&#45;&gt;Node9</title>
<path fill="none" stroke="midnightblue" d="M1145.65,-284.49C1163.94,-276.83 1189.36,-265.18 1210,-252 1246.61,-228.61 1284.5,-194.76 1305.78,-174.7"/>
<polygon fill="midnightblue" stroke="midnightblue" points="1308.26,-177.17 1313.09,-167.74 1303.43,-172.11 1308.26,-177.17"/>
</g>
<!-- Node22&#45;&gt;Node9 -->
<g id="edge30" class="edge">
<title>Node22&#45;&gt;Node9</title>
<path fill="none" stroke="midnightblue" d="M1165.72,-211.86C1201.57,-199.58 1251.54,-182.47 1285.46,-170.85"/>
<polygon fill="midnightblue" stroke="midnightblue" points="1286.69,-174.13 1295.01,-167.58 1284.42,-167.51 1286.69,-174.13"/>
</g>
<!-- Node24&#45;&gt;Node24 -->
<g id="edge36" class="edge">
<title>Node24&#45;&gt;Node24</title>
<path fill="none" stroke="midnightblue" d="M879.98,-171.76C865.14,-180.57 875.31,-190 910.5,-190 935.24,-190 947.62,-185.34 947.62,-179.5"/>
<polygon fill="midnightblue" stroke="midnightblue" points="950.17,-177.09 941.02,-171.76 944.84,-181.64 950.17,-177.09"/>
</g>
</g>
</svg>
