<?xml version="1.0" encoding="UTF-8" standalone="no"?>
<!DOCTYPE svg PUBLIC "-//W3C//DTD SVG 1.1//EN"
 "http://www.w3.org/Graphics/SVG/1.1/DTD/svg11.dtd">
<!-- Generated by graphviz version 2.43.0 (0)
 -->
<!-- Title: com.cliffc.aa.HM.HM7.Field.hm Pages: 1 -->
<!--zoomable 240 -->
<svg id="main" version="1.1" xmlns="http://www.w3.org/2000/svg" xmlns:xlink="http://www.w3.org/1999/xlink" xml:space="preserve" onload="init(evt)">
<style type="text/css"><![CDATA[
.edge:hover path { stroke: red; }
.edge:hover polygon { stroke: red; fill: red; }
]]></style>
<script type="text/javascript"><![CDATA[
var edges = document.getElementsByTagName('g');
if (edges && edges.length) {
  for (var i=0;i<edges.length;i++) {
    if (edges[i].id.substr(0,4)=='edge') {
      edges[i].setAttribute('class','edge');
    }
  }
}
]]></script>
        <defs>
                <circle id="rim" cx="0" cy="0" r="7"/>
                <circle id="rim2" cx="0" cy="0" r="3.5"/>
                <g id="zoomPlus">
                        <use xlink:href="#rim" fill="#404040">
                                <set attributeName="fill" to="#808080" begin="zoomplus.mouseover" end="zoomplus.mouseout"/>
                        </use>
                        <path d="M-4,0h8M0,-4v8" fill="none" stroke="white" stroke-width="1.5" pointer-events="none"/>
                </g>
                <g id="zoomMin">
                        <use xlink:href="#rim" fill="#404040">
                                <set attributeName="fill" to="#808080" begin="zoomminus.mouseover" end="zoomminus.mouseout"/>
                        </use>
                        <path d="M-4,0h8" fill="none" stroke="white" stroke-width="1.5" pointer-events="none"/>
                </g>
                <g id="dirArrow">
                        <path fill="none" stroke="white" stroke-width="1.5" d="M0,-3.0v7 M-2.5,-0.5L0,-3.0L2.5,-0.5"/>
                </g>
               <g id="resetDef">
                       <use xlink:href="#rim2" fill="#404040">
                               <set attributeName="fill" to="#808080" begin="reset.mouseover" end="reset.mouseout"/>
                       </use>
               </g>
        </defs>

<script type="text/javascript">
var viewWidth = 1784;
var viewHeight = 240;
var sectionId = 'dynsection-9';
</script>
<script xlink:href="../../svgpan.js"/>
<svg id="graph" class="graph">
<g id="viewport">
<title>com.cliffc.aa.HM.HM7.Field.hm</title>
<!-- Node1 -->
<g id="node1" class="node">
<title>Node1</title>
<g id="a_node1"><a xlink:title=" ">
<polygon fill="#bfbfbf" stroke="black" points="0,-130.5 0,-149.5 169,-149.5 169,-130.5 0,-130.5"/>
<text text-anchor="middle" x="84.5" y="-137.5" font-family="Helvetica,sans-Serif" font-size="10.00">com.cliffc.aa.HM.HM7.Field.hm</text>
</a>
</g>
</g>
<!-- Node2 -->
<g id="node2" class="node">
<title>Node2</title>
<g id="a_node2"><a xlink:href="../../dd/d55/a01638.html#abb7b6e1b78b0932ca33088581f5f45c8" target="_top" xlink:title=" ">
<polygon fill="none" stroke="black" points="220,-212.5 220,-231.5 359,-231.5 359,-212.5 220,-212.5"/>
<text text-anchor="middle" x="289.5" y="-219.5" font-family="Helvetica,sans-Serif" font-size="10.00">com.cliffc.aa.util.Util.find</text>
</a>
</g>
</g>
<!-- Node1&#45;&gt;Node2 -->
<g id="edge1" class="edge">
<title>Node1&#45;&gt;Node2</title>
<path fill="none" stroke="midnightblue" d="M102.89,-149.62C125.79,-162.01 167.53,-183.64 205,-198 216.33,-202.34 228.79,-206.33 240.55,-209.75"/>
<polygon fill="midnightblue" stroke="midnightblue" points="239.64,-213.13 250.22,-212.49 241.55,-206.39 239.64,-213.13"/>
</g>
<!-- Node3 -->
<g id="node3" class="node">
<title>Node3</title>
<g id="a_node3"><a xlink:href="../../d5/dcd/a00802.html#a93a40c6cf09f0d9f09ec42470cb7003b" target="_top" xlink:title=" ">
<polygon fill="none" stroke="black" points="622,-173.5 622,-192.5 804,-192.5 804,-173.5 622,-173.5"/>
<text text-anchor="middle" x="713" y="-180.5" font-family="Helvetica,sans-Serif" font-size="10.00">com.cliffc.aa.HM.HM7.Syntax.find</text>
</a>
</g>
</g>
<!-- Node1&#45;&gt;Node3 -->
<g id="edge2" class="edge">
<title>Node1&#45;&gt;Node3</title>
<path fill="none" stroke="midnightblue" d="M122.9,-149.54C146.32,-155.09 177.23,-161.63 205,-165 345.46,-182.06 509.29,-184.8 611.85,-184.47"/>
<polygon fill="midnightblue" stroke="midnightblue" points="611.9,-187.97 621.89,-184.43 611.87,-180.97 611.9,-187.97"/>
</g>
<!-- Node9 -->
<g id="node9" class="node">
<title>Node9</title>
<g id="a_node9"><a xlink:href="../../d9/d02/a00834.html#ad103af7bf6818f8280207dcabee4a044" target="_top" xlink:title=" ">
<polygon fill="none" stroke="black" points="205,-125 205,-155 374,-155 374,-125 205,-125"/>
<text text-anchor="start" x="213" y="-143" font-family="Helvetica,sans-Serif" font-size="10.00">com.cliffc.aa.HM.HM7.T2.make</text>
<text text-anchor="middle" x="289.5" y="-132" font-family="Helvetica,sans-Serif" font-size="10.00">_struct</text>
</a>
</g>
</g>
<!-- Node1&#45;&gt;Node9 -->
<g id="edge9" class="edge">
<title>Node1&#45;&gt;Node9</title>
<path fill="none" stroke="midnightblue" d="M169.24,-140C177.72,-140 186.37,-140 194.94,-140"/>
<polygon fill="midnightblue" stroke="midnightblue" points="194.95,-143.5 204.95,-140 194.95,-136.5 194.95,-143.5"/>
</g>
<!-- Node12 -->
<g id="node12" class="node">
<title>Node12</title>
<g id="a_node12"><a xlink:href="../../d9/d02/a00834.html#a58936e33450687cf37464ac88af0254a" target="_top" xlink:title=" ">
<polygon fill="none" stroke="black" points="207,-58 207,-88 372,-88 372,-58 207,-58"/>
<text text-anchor="start" x="215" y="-76" font-family="Helvetica,sans-Serif" font-size="10.00">com.cliffc.aa.HM.HM7.T2.push</text>
<text text-anchor="middle" x="289.5" y="-65" font-family="Helvetica,sans-Serif" font-size="10.00">_update</text>
</a>
</g>
</g>
<!-- Node1&#45;&gt;Node12 -->
<g id="edge13" class="edge">
<title>Node1&#45;&gt;Node12</title>
<path fill="none" stroke="midnightblue" d="M114.58,-130.4C145.38,-120.24 194.73,-103.95 233.01,-91.31"/>
<polygon fill="midnightblue" stroke="midnightblue" points="234.59,-94.48 242.99,-88.02 232.39,-87.83 234.59,-94.48"/>
</g>
<!-- Node13 -->
<g id="node13" class="node">
<title>Node13</title>
<g id="a_node13"><a xlink:href="../../d9/daf/a00830.html#a2ac3762562aa258ad844c0ccb56fa72b" target="_top" xlink:title=" ">
<polygon fill="none" stroke="black" points="206.5,-19.5 206.5,-38.5 372.5,-38.5 372.5,-19.5 206.5,-19.5"/>
<text text-anchor="middle" x="289.5" y="-26.5" font-family="Helvetica,sans-Serif" font-size="10.00">com.cliffc.aa.HM.HM7.Field.str</text>
</a>
</g>
</g>
<!-- Node1&#45;&gt;Node13 -->
<g id="edge15" class="edge">
<title>Node1&#45;&gt;Node13</title>
<path fill="none" stroke="midnightblue" d="M95.09,-130.39C114.23,-111.76 159.29,-70.68 205,-49 211.06,-46.12 217.58,-43.64 224.19,-41.5"/>
<polygon fill="midnightblue" stroke="midnightblue" points="225.33,-44.81 233.92,-38.61 223.34,-38.1 225.33,-44.81"/>
</g>
<!-- Node4 -->
<g id="node4" class="node">
<title>Node4</title>
<g id="a_node4"><a xlink:href="../../d9/d02/a00834.html#ae2138b8d9d5860eda7513092126ba601" target="_top" xlink:title=" ">
<polygon fill="none" stroke="black" points="840,-152.5 840,-171.5 1000,-171.5 1000,-152.5 840,-152.5"/>
<text text-anchor="middle" x="920" y="-159.5" font-family="Helvetica,sans-Serif" font-size="10.00">com.cliffc.aa.HM.HM7.T2.find</text>
</a>
</g>
</g>
<!-- Node3&#45;&gt;Node4 -->
<g id="edge3" class="edge">
<title>Node3&#45;&gt;Node4</title>
<path fill="none" stroke="midnightblue" d="M804.21,-173.76C812.61,-172.9 821.13,-172.03 829.52,-171.17"/>
<polygon fill="midnightblue" stroke="midnightblue" points="830.09,-174.63 839.69,-170.12 829.38,-167.66 830.09,-174.63"/>
</g>
<!-- Node5 -->
<g id="node5" class="node">
<title>Node5</title>
<g id="a_node5"><a xlink:href="../../d9/d02/a00834.html#aebfcad4f2e406516eef7fd39a6803752" target="_top" xlink:title=" ">
<polygon fill="none" stroke="black" points="1241,-152.5 1241,-171.5 1415,-171.5 1415,-152.5 1241,-152.5"/>
<text text-anchor="middle" x="1328" y="-159.5" font-family="Helvetica,sans-Serif" font-size="10.00">com.cliffc.aa.HM.HM7.T2.is_leaf</text>
</a>
</g>
</g>
<!-- Node4&#45;&gt;Node5 -->
<g id="edge4" class="edge">
<title>Node4&#45;&gt;Node5</title>
<path fill="none" stroke="midnightblue" d="M1000.24,-162C1066.23,-162 1160.43,-162 1230.74,-162"/>
<polygon fill="midnightblue" stroke="midnightblue" points="1230.94,-165.5 1240.94,-162 1230.94,-158.5 1230.94,-165.5"/>
</g>
<!-- Node8 -->
<g id="node8" class="node">
<title>Node8</title>
<g id="a_node8"><a xlink:href="../../d9/d02/a00834.html#a11a0879ef2674dd9fb3f9a1be59d3084" target="_top" xlink:title=" ">
<polygon fill="none" stroke="black" points="1036,-133.5 1036,-152.5 1205,-152.5 1205,-133.5 1036,-133.5"/>
<text text-anchor="middle" x="1120.5" y="-140.5" font-family="Helvetica,sans-Serif" font-size="10.00">com.cliffc.aa.HM.HM7.T2.no_uf</text>
</a>
</g>
</g>
<!-- Node4&#45;&gt;Node8 -->
<g id="edge7" class="edge">
<title>Node4&#45;&gt;Node8</title>
<path fill="none" stroke="midnightblue" d="M1000.02,-154.44C1008.49,-153.63 1017.17,-152.79 1025.79,-151.97"/>
<polygon fill="midnightblue" stroke="midnightblue" points="1026.24,-155.44 1035.87,-151.01 1025.58,-148.47 1026.24,-155.44"/>
</g>
<!-- Node6 -->
<g id="node6" class="node">
<title>Node6</title>
<g id="a_node6"><a xlink:href="../../d9/d02/a00834.html#a1646dbd4ae347d254550074fb9dd89ac" target="_top" xlink:title=" ">
<polygon fill="none" stroke="black" points="1451,-152.5 1451,-171.5 1607,-171.5 1607,-152.5 1451,-152.5"/>
<text text-anchor="middle" x="1529" y="-159.5" font-family="Helvetica,sans-Serif" font-size="10.00">com.cliffc.aa.HM.HM7.T2.isa</text>
</a>
</g>
</g>
<!-- Node5&#45;&gt;Node6 -->
<g id="edge5" class="edge">
<title>Node5&#45;&gt;Node6</title>
<path fill="none" stroke="midnightblue" d="M1415.13,-162C1423.57,-162 1432.14,-162 1440.59,-162"/>
<polygon fill="midnightblue" stroke="midnightblue" points="1440.82,-165.5 1450.82,-162 1440.82,-158.5 1440.82,-165.5"/>
</g>
<!-- Node7 -->
<g id="node7" class="node">
<title>Node7</title>
<g id="a_node7"><a xlink:href="../../dd/d55/a01638.html#a3975ba7dca9fe2d6e4992b2b5558f882" target="_top" xlink:title=" ">
<polygon fill="none" stroke="black" points="1643,-152.5 1643,-171.5 1776,-171.5 1776,-152.5 1643,-152.5"/>
<text text-anchor="middle" x="1709.5" y="-159.5" font-family="Helvetica,sans-Serif" font-size="10.00">com.cliffc.aa.util.Util.eq</text>
</a>
</g>
</g>
<!-- Node6&#45;&gt;Node7 -->
<g id="edge6" class="edge">
<title>Node6&#45;&gt;Node7</title>
<path fill="none" stroke="midnightblue" d="M1607.25,-162C1615.69,-162 1624.28,-162 1632.7,-162"/>
<polygon fill="midnightblue" stroke="midnightblue" points="1632.87,-165.5 1642.87,-162 1632.87,-158.5 1632.87,-165.5"/>
</g>
<!-- Node8&#45;&gt;Node5 -->
<g id="edge8" class="edge">
<title>Node8&#45;&gt;Node5</title>
<path fill="none" stroke="midnightblue" d="M1205.08,-150.73C1213.55,-151.51 1222.2,-152.31 1230.78,-153.1"/>
<polygon fill="midnightblue" stroke="midnightblue" points="1230.54,-156.6 1240.82,-154.03 1231.18,-149.63 1230.54,-156.6"/>
</g>
<!-- Node10 -->
<g id="node10" class="node">
<title>Node10</title>
<g id="a_node10"><a xlink:href="../../d9/d02/a00834.html#aa8faebe928582db560473e1ed0b4c9b5" target="_top" xlink:title=" ">
<polygon fill="none" stroke="black" points="421,-131.5 421,-150.5 575,-150.5 575,-131.5 421,-131.5"/>
<text text-anchor="middle" x="498" y="-138.5" font-family="Helvetica,sans-Serif" font-size="10.00">com.cliffc.aa.HM.HM7.T2.T2</text>
</a>
</g>
</g>
<!-- Node9&#45;&gt;Node10 -->
<g id="edge10" class="edge">
<title>Node9&#45;&gt;Node10</title>
<path fill="none" stroke="midnightblue" d="M374.19,-140.41C386.25,-140.46 398.67,-140.52 410.77,-140.58"/>
<polygon fill="midnightblue" stroke="midnightblue" points="410.83,-144.08 420.85,-140.63 410.86,-137.08 410.83,-144.08"/>
</g>
<!-- Node11 -->
<g id="node11" class="node">
<title>Node11</title>
<g id="a_node11"><a xlink:href="../../d9/d02/a00834.html#ace8c0dea9eacc0627930c0d35d865712" target="_top" xlink:title=" ">
<polygon fill="none" stroke="black" points="631.5,-132.5 631.5,-151.5 794.5,-151.5 794.5,-132.5 631.5,-132.5"/>
<text text-anchor="middle" x="713" y="-139.5" font-family="Helvetica,sans-Serif" font-size="10.00">com.cliffc.aa.HM.HM7.T2.args</text>
</a>
</g>
</g>
<!-- Node10&#45;&gt;Node11 -->
<g id="edge11" class="edge">
<title>Node10&#45;&gt;Node11</title>
<path fill="none" stroke="midnightblue" d="M575.3,-141.36C590.04,-141.43 605.62,-141.5 620.78,-141.57"/>
<polygon fill="midnightblue" stroke="midnightblue" points="621.18,-145.07 631.2,-141.62 621.22,-138.07 621.18,-145.07"/>
</g>
<!-- Node11&#45;&gt;Node4 -->
<g id="edge12" class="edge">
<title>Node11&#45;&gt;Node4</title>
<path fill="none" stroke="midnightblue" d="M794.73,-149.88C806.17,-150.99 817.98,-152.14 829.58,-153.28"/>
<polygon fill="midnightblue" stroke="midnightblue" points="829.4,-156.77 839.69,-154.26 830.08,-149.81 829.4,-156.77"/>
</g>
<!-- Node12&#45;&gt;Node12 -->
<g id="edge14" class="edge">
<title>Node12&#45;&gt;Node12</title>
<path fill="none" stroke="midnightblue" d="M253.95,-88.16C245.38,-97.56 257.23,-106.5 289.5,-106.5 309.17,-106.5 321.25,-103.18 325.75,-98.46"/>
<polygon fill="midnightblue" stroke="midnightblue" points="329.22,-97.9 325.05,-88.16 322.23,-98.37 329.22,-97.9"/>
</g>
<!-- Node14 -->
<g id="node14" class="node">
<title>Node14</title>
<g id="a_node14"><a xlink:href="../../d4/d99/a01634.html#ac801338e82849a7fe2ae7a0feb80bb55" target="_top" xlink:title=" ">
<polygon fill="none" stroke="black" points="437,-38.5 437,-57.5 559,-57.5 559,-38.5 437,-38.5"/>
<text text-anchor="middle" x="498" y="-45.5" font-family="Helvetica,sans-Serif" font-size="10.00">com.cliffc.aa.util.SB.p</text>
</a>
</g>
</g>
<!-- Node13&#45;&gt;Node14 -->
<g id="edge16" class="edge">
<title>Node13&#45;&gt;Node14</title>
<path fill="none" stroke="midnightblue" d="M372.71,-36.56C390.57,-38.21 409.31,-39.93 426.67,-41.53"/>
<polygon fill="midnightblue" stroke="midnightblue" points="426.43,-45.02 436.71,-42.45 427.07,-38.05 426.43,-45.02"/>
</g>
<!-- Node16 -->
<g id="node16" class="node">
<title>Node16</title>
<g id="a_node16"><a xlink:href="../../d5/dcd/a00802.html#aa4983b86b0315e5bb281d55a3dd89c2b" target="_top" xlink:title=" ">
<polygon fill="none" stroke="black" points="410,-0.5 410,-19.5 586,-19.5 586,-0.5 410,-0.5"/>
<text text-anchor="middle" x="498" y="-7.5" font-family="Helvetica,sans-Serif" font-size="10.00">com.cliffc.aa.HM.HM7.Syntax.str</text>
</a>
</g>
</g>
<!-- Node13&#45;&gt;Node16 -->
<g id="edge18" class="edge">
<title>Node13&#45;&gt;Node16</title>
<path fill="none" stroke="midnightblue" d="M372.71,-21.44C381.61,-20.62 390.74,-19.78 399.8,-18.94"/>
<polygon fill="midnightblue" stroke="midnightblue" points="400.36,-22.41 409.99,-18.01 399.72,-15.44 400.36,-22.41"/>
</g>
<!-- Node15 -->
<g id="node15" class="node">
<title>Node15</title>
<g id="a_node15"><a xlink:href="../../d4/d99/a01634.html#abd1b8ac722e0fb0bf1e7b2ea0eaeb0b6" target="_top" xlink:title=" ">
<polygon fill="none" stroke="black" points="652,-38.5 652,-57.5 774,-57.5 774,-38.5 652,-38.5"/>
<text text-anchor="middle" x="713" y="-45.5" font-family="Helvetica,sans-Serif" font-size="10.00">com.cliffc.aa.util.SB.s</text>
</a>
</g>
</g>
<!-- Node14&#45;&gt;Node15 -->
<g id="edge17" class="edge">
<title>Node14&#45;&gt;Node15</title>
<path fill="none" stroke="midnightblue" d="M559.18,-48C584.93,-48 615.16,-48 641.9,-48"/>
<polygon fill="midnightblue" stroke="midnightblue" points="641.97,-51.5 651.97,-48 641.97,-44.5 641.97,-51.5"/>
</g>
</g>
</svg>
        <g id="navigator" transform="translate(0 0)" fill="#404254">
                <rect fill="#f2f5e9" fill-opacity="0.5" stroke="#606060" stroke-width=".5" x="0" y="0" width="60" height="60"/>
                <use id="zoomplus" xlink:href="#zoomPlus" x="17" y="9" onmousedown="handleZoom(evt,'in')"/>
                <use id="zoomminus" xlink:href="#zoomMin" x="42" y="9" onmousedown="handleZoom(evt,'out')"/>
                <use id="reset" xlink:href="#resetDef" x="30" y="36" onmousedown="handleReset()"/>
                <g id="arrowUp" xlink:href="#dirArrow" transform="translate(30 24)" onmousedown="handlePan(0,-1)">
                  <use xlink:href="#rim" fill="#404040">
                        <set attributeName="fill" to="#808080" begin="arrowUp.mouseover" end="arrowUp.mouseout"/>
                  </use>
                  <path fill="none" stroke="white" stroke-width="1.5" d="M0,-3.0v7 M-2.5,-0.5L0,-3.0L2.5,-0.5"/>
                </g>
                <g id="arrowRight" xlink:href="#dirArrow" transform="rotate(90) translate(36 -43)" onmousedown="handlePan(1,0)">
                  <use xlink:href="#rim" fill="#404040">
                        <set attributeName="fill" to="#808080" begin="arrowRight.mouseover" end="arrowRight.mouseout"/>
                  </use>
                  <path fill="none" stroke="white" stroke-width="1.5" d="M0,-3.0v7 M-2.5,-0.5L0,-3.0L2.5,-0.5"/>
                </g>
                <g id="arrowDown" xlink:href="#dirArrow" transform="rotate(180) translate(-30 -48)" onmousedown="handlePan(0,1)">
                  <use xlink:href="#rim" fill="#404040">
                        <set attributeName="fill" to="#808080" begin="arrowDown.mouseover" end="arrowDown.mouseout"/>
                  </use>
                  <path fill="none" stroke="white" stroke-width="1.5" d="M0,-3.0v7 M-2.5,-0.5L0,-3.0L2.5,-0.5"/>
                </g>
                <g id="arrowLeft" xlink:href="#dirArrow" transform="rotate(270) translate(-36 17)" onmousedown="handlePan(-1,0)">
                  <use xlink:href="#rim" fill="#404040">
                        <set attributeName="fill" to="#808080" begin="arrowLeft.mouseover" end="arrowLeft.mouseout"/>
                  </use>
                  <path fill="none" stroke="white" stroke-width="1.5" d="M0,-3.0v7 M-2.5,-0.5L0,-3.0L2.5,-0.5"/>
                </g>
        </g>
        <svg viewBox="0 0 15 15" width="100%" height="30px" preserveAspectRatio="xMaxYMin meet">
         <g id="arrow_out" transform="scale(0.3 0.3)">
          <a xlink:href="a00830_ae85fbf19e33bc55d594f756fc73fdb1e_cgraph_org.svg" target="_base">
           <rect id="button" ry="5" rx="5" y="6" x="6" height="38" width="38"
                fill="#f2f5e9" fill-opacity="0.5" stroke="#606060" stroke-width="1.0"/>
           <path id="arrow"
             d="M 11.500037,31.436501 C 11.940474,20.09759 22.043105,11.32322 32.158766,21.979434 L 37.068811,17.246167 C 37.068811,17.246167 37.088388,32 37.088388,32 L 22.160133,31.978069 C 22.160133,31.978069 26.997745,27.140456 26.997745,27.140456 C 18.528582,18.264221 13.291696,25.230495 11.500037,31.436501 z"
             style="fill:#404040;"/>
          </a>
         </g>
        </svg>
</svg>
