<?xml version="1.0" encoding="UTF-8" standalone="no"?>
<!DOCTYPE svg PUBLIC "-//W3C//DTD SVG 1.1//EN"
 "http://www.w3.org/Graphics/SVG/1.1/DTD/svg11.dtd">
<!-- Generated by graphviz version 2.43.0 (0)
 -->
<!-- Title: com.cliffc.aa.HM.HM6.Con Pages: 1 -->
<!--zoomable 738 -->
<svg id="main" version="1.1" xmlns="http://www.w3.org/2000/svg" xmlns:xlink="http://www.w3.org/1999/xlink" xml:space="preserve" onload="init(evt)">
<style type="text/css"><![CDATA[
.edge:hover path { stroke: red; }
.edge:hover polygon { stroke: red; fill: red; }
]]></style>
<script type="text/javascript"><![CDATA[
var edges = document.getElementsByTagName('g');
if (edges && edges.length) {
  for (var i=0;i<edges.length;i++) {
    if (edges[i].id.substr(0,4)=='edge') {
      edges[i].setAttribute('class','edge');
    }
  }
}
]]></script>
        <defs>
                <circle id="rim" cx="0" cy="0" r="7"/>
                <circle id="rim2" cx="0" cy="0" r="3.5"/>
                <g id="zoomPlus">
                        <use xlink:href="#rim" fill="#404040">
                                <set attributeName="fill" to="#808080" begin="zoomplus.mouseover" end="zoomplus.mouseout"/>
                        </use>
                        <path d="M-4,0h8M0,-4v8" fill="none" stroke="white" stroke-width="1.5" pointer-events="none"/>
                </g>
                <g id="zoomMin">
                        <use xlink:href="#rim" fill="#404040">
                                <set attributeName="fill" to="#808080" begin="zoomminus.mouseover" end="zoomminus.mouseout"/>
                        </use>
                        <path d="M-4,0h8" fill="none" stroke="white" stroke-width="1.5" pointer-events="none"/>
                </g>
                <g id="dirArrow">
                        <path fill="none" stroke="white" stroke-width="1.5" d="M0,-3.0v7 M-2.5,-0.5L0,-3.0L2.5,-0.5"/>
                </g>
               <g id="resetDef">
                       <use xlink:href="#rim2" fill="#404040">
                               <set attributeName="fill" to="#808080" begin="reset.mouseover" end="reset.mouseout"/>
                       </use>
               </g>
        </defs>

<script type="text/javascript">
var viewWidth = 1926;
var viewHeight = 738;
var sectionId = 'dynsection-1';
</script>
<script xlink:href="../../svgpan.js"/>
<svg id="graph" class="graph">
<g id="viewport">
<title>com.cliffc.aa.HM.HM6.Con</title>
<!-- Node1 -->
<g id="node1" class="node">
<title>Node1</title>
<g id="a_node1"><a xlink:title=" ">
<polygon fill="#bfbfbf" stroke="black" points="1772,-110.5 1772,-129.5 1918,-129.5 1918,-110.5 1772,-110.5"/>
<text text-anchor="middle" x="1845" y="-117.5" font-family="Helvetica,sans-Serif" font-size="10.00">com.cliffc.aa.HM.HM6.Con</text>
</a>
</g>
</g>
<!-- Node2 -->
<g id="node2" class="node">
<title>Node2</title>
<g id="a_node2"><a xlink:href="../../d8/d4e/a00754.html" target="_top" xlink:title=" ">
<polygon fill="none" stroke="black" points="1574,-463.5 1574,-482.5 1735,-482.5 1735,-463.5 1574,-463.5"/>
<text text-anchor="middle" x="1654.5" y="-470.5" font-family="Helvetica,sans-Serif" font-size="10.00">com.cliffc.aa.HM.HM6.Syntax</text>
</a>
</g>
</g>
<!-- Node2&#45;&gt;Node1 -->
<g id="edge1" class="edge">
<title>Node2&#45;&gt;Node1</title>
<path fill="none" stroke="midnightblue" d="M1665.59,-454.1C1700.21,-389.27 1813.4,-177.31 1838.88,-129.6"/>
<polygon fill="midnightblue" stroke="midnightblue" points="1662.36,-452.72 1660.74,-463.19 1668.54,-456.02 1662.36,-452.72"/>
</g>
<!-- Node2&#45;&gt;Node2 -->
<g id="edge36" class="edge">
<title>Node2&#45;&gt;Node2</title>
<path fill="none" stroke="#9a32cd" stroke-dasharray="5,2" d="M1636.35,-492.4C1637.56,-497.31 1643.61,-501 1654.5,-501 1671.92,-501 1676.95,-491.57 1669.6,-482.76"/>
<polygon fill="#9a32cd" stroke="#9a32cd" points="1639.72,-493.35 1639.4,-482.76 1633.05,-491.24 1639.72,-493.35"/>
<text text-anchor="middle" x="1654.5" y="-504" font-family="Helvetica,sans-Serif" font-size="10.00"> _par</text>
</g>
<!-- Node3 -->
<g id="node3" class="node">
<title>Node3</title>
<g id="a_node3"><a xlink:href="../../d4/dfa/a00746.html" target="_top" xlink:title=" ">
<polygon fill="none" stroke="black" points="1332,-463.5 1332,-482.5 1493,-482.5 1493,-463.5 1332,-463.5"/>
<text text-anchor="middle" x="1412.5" y="-470.5" font-family="Helvetica,sans-Serif" font-size="10.00">com.cliffc.aa.HM.HM6.VStack</text>
</a>
</g>
</g>
<!-- Node3&#45;&gt;Node2 -->
<g id="edge2" class="edge">
<title>Node3&#45;&gt;Node2</title>
<path fill="none" stroke="#9a32cd" stroke-dasharray="5,2" d="M1503.24,-473C1526.38,-473 1551.13,-473 1573.72,-473"/>
<polygon fill="#9a32cd" stroke="#9a32cd" points="1503.08,-469.5 1493.08,-473 1503.08,-476.5 1503.08,-469.5"/>
<text text-anchor="middle" x="1533.5" y="-476" font-family="Helvetica,sans-Serif" font-size="10.00"> _nongen</text>
</g>
<!-- Node3&#45;&gt;Node3 -->
<g id="edge4" class="edge">
<title>Node3&#45;&gt;Node3</title>
<path fill="none" stroke="#9a32cd" stroke-dasharray="5,2" d="M1390.18,-492.03C1391.4,-497.13 1398.84,-501 1412.5,-501 1433.83,-501 1439.99,-491.57 1431,-482.76"/>
<polygon fill="#9a32cd" stroke="#9a32cd" points="1393.43,-493.34 1394,-482.76 1386.95,-490.67 1393.43,-493.34"/>
<text text-anchor="middle" x="1412.5" y="-504" font-family="Helvetica,sans-Serif" font-size="10.00"> _par</text>
</g>
<!-- Node4 -->
<g id="node4" class="node">
<title>Node4</title>
<g id="a_node4"><a xlink:href="../../dd/df4/a02510.html" target="_top" xlink:title=" ">
<polygon fill="none" stroke="black" points="1129.5,-463.5 1129.5,-482.5 1218.5,-482.5 1218.5,-463.5 1129.5,-463.5"/>
<text text-anchor="middle" x="1174" y="-470.5" font-family="Helvetica,sans-Serif" font-size="10.00">Iterable&lt; T2 &gt;</text>
</a>
</g>
</g>
<!-- Node4&#45;&gt;Node3 -->
<g id="edge3" class="edge">
<title>Node4&#45;&gt;Node3</title>
<path fill="none" stroke="midnightblue" d="M1229.04,-473C1259.43,-473 1297.94,-473 1331.74,-473"/>
<polygon fill="midnightblue" stroke="midnightblue" points="1228.65,-469.5 1218.65,-473 1228.65,-476.5 1228.65,-469.5"/>
</g>
<!-- Node5 -->
<g id="node5" class="node">
<title>Node5</title>
<g id="a_node5"><a xlink:href="../../da/d96/a00782.html" target="_top" xlink:title=" ">
<polygon fill="none" stroke="black" points="1104.5,-538.5 1104.5,-557.5 1243.5,-557.5 1243.5,-538.5 1104.5,-538.5"/>
<text text-anchor="middle" x="1174" y="-545.5" font-family="Helvetica,sans-Serif" font-size="10.00">com.cliffc.aa.HM.HM6.T2</text>
</a>
</g>
</g>
<!-- Node5&#45;&gt;Node2 -->
<g id="edge37" class="edge">
<title>Node5&#45;&gt;Node2</title>
<path fill="none" stroke="#9a32cd" stroke-dasharray="5,2" d="M1253.92,-545.81C1318.64,-542.94 1412.39,-536.31 1493,-521 1541.43,-511.8 1596.09,-493.74 1627.5,-482.59"/>
<polygon fill="#9a32cd" stroke="#9a32cd" points="1253.63,-542.32 1243.79,-546.24 1253.93,-549.31 1253.63,-542.32"/>
<text text-anchor="middle" x="1412.5" y="-544" font-family="Helvetica,sans-Serif" font-size="10.00"> _t</text>
</g>
<!-- Node5&#45;&gt;Node3 -->
<g id="edge5" class="edge">
<title>Node5&#45;&gt;Node3</title>
<path fill="none" stroke="#9a32cd" stroke-dasharray="5,2" d="M1214.98,-535.32C1261.96,-520.42 1338.85,-496.04 1381.18,-482.61"/>
<polygon fill="#9a32cd" stroke="#9a32cd" points="1213.91,-531.99 1205.43,-538.35 1216.02,-538.66 1213.91,-531.99"/>
<text text-anchor="middle" x="1291.5" y="-521" font-family="Helvetica,sans-Serif" font-size="10.00"> _nongen</text>
</g>
<!-- Node5&#45;&gt;Node5 -->
<g id="edge19" class="edge">
<title>Node5&#45;&gt;Node5</title>
<path fill="none" stroke="#9a32cd" stroke-dasharray="5,2" d="M1152.52,-567.4C1153.95,-572.31 1161.11,-576 1174,-576 1194.62,-576 1200.58,-566.57 1191.88,-557.76"/>
<polygon fill="#9a32cd" stroke="#9a32cd" points="1155.9,-568.35 1156.12,-557.76 1149.34,-565.9 1155.9,-568.35"/>
<text text-anchor="middle" x="1174" y="-579" font-family="Helvetica,sans-Serif" font-size="10.00"> _args</text>
</g>
<!-- Node6 -->
<g id="node6" class="node">
<title>Node6</title>
<g id="a_node6"><a xlink:title=" ">
<polygon fill="none" stroke="#bfbfbf" points="485.5,-472.5 485.5,-491.5 530.5,-491.5 530.5,-472.5 485.5,-472.5"/>
<text text-anchor="middle" x="508" y="-479.5" font-family="Helvetica,sans-Serif" font-size="10.00">String</text>
</a>
</g>
</g>
<!-- Node6&#45;&gt;Node5 -->
<g id="edge6" class="edge">
<title>Node6&#45;&gt;Node5</title>
<path fill="none" stroke="#9a32cd" stroke-dasharray="5,2" d="M540.96,-482.74C617.99,-484.68 819.97,-490.83 988,-505 1028.59,-508.42 1039.28,-506.94 1079,-516 1103.54,-521.6 1130.66,-531.22 1149.44,-538.45"/>
<polygon fill="#9a32cd" stroke="#9a32cd" points="540.6,-479.23 530.52,-482.48 540.43,-486.22 540.6,-479.23"/>
<text text-anchor="middle" x="891" y="-508" font-family="Helvetica,sans-Serif" font-size="10.00"> _name</text>
</g>
<!-- Node17 -->
<g id="node17" class="node">
<title>Node17</title>
<g id="a_node17"><a xlink:href="../../d0/de2/a01442.html" target="_top" xlink:title="an implementation of language AA">
<polygon fill="none" stroke="black" points="826,-206 826,-236 956,-236 956,-206 826,-206"/>
<text text-anchor="start" x="834" y="-224" font-family="Helvetica,sans-Serif" font-size="10.00">com.cliffc.aa.type.Type</text>
<text text-anchor="middle" x="891" y="-213" font-family="Helvetica,sans-Serif" font-size="10.00">&lt; T extends Type&lt; T &gt;</text>
</a>
</g>
</g>
<!-- Node6&#45;&gt;Node17 -->
<g id="edge24" class="edge">
<title>Node6&#45;&gt;Node17</title>
<path fill="none" stroke="#9a32cd" stroke-dasharray="5,2" d="M540.33,-474.47C553.86,-471 569.81,-466.64 584,-462 592.16,-459.33 593.85,-457.7 602,-455 678.15,-429.76 711.9,-455.23 776,-407 837.13,-361 872.77,-271.79 885.08,-236.2"/>
<polygon fill="#9a32cd" stroke="#9a32cd" points="539.37,-471.1 530.52,-476.93 541.07,-477.89 539.37,-471.1"/>
<text text-anchor="middle" x="689" y="-469" font-family="Helvetica,sans-Serif" font-size="10.00"> STRS</text>
<text text-anchor="middle" x="689" y="-458" font-family="Helvetica,sans-Serif" font-size="10.00">_name</text>
</g>
<!-- Node7 -->
<g id="node7" class="node">
<title>Node7</title>
<g id="a_node7"><a xlink:href="../../df/dee/a01646.html" target="_top" xlink:title=" ">
<polygon fill="none" stroke="black" points="822.5,-558.5 822.5,-577.5 959.5,-577.5 959.5,-558.5 822.5,-558.5"/>
<text text-anchor="middle" x="891" y="-565.5" font-family="Helvetica,sans-Serif" font-size="10.00">com.cliffc.aa.util.VBitSet</text>
</a>
</g>
</g>
<!-- Node7&#45;&gt;Node5 -->
<g id="edge7" class="edge">
<title>Node7&#45;&gt;Node5</title>
<path fill="none" stroke="#9a32cd" stroke-dasharray="5,2" d="M969.9,-562.46C1012.11,-559.45 1063.79,-555.77 1104.46,-552.88"/>
<polygon fill="#9a32cd" stroke="#9a32cd" points="969.39,-558.98 959.66,-563.18 969.89,-565.97 969.39,-558.98"/>
<text text-anchor="middle" x="1042.5" y="-574" font-family="Helvetica,sans-Serif" font-size="10.00"> UPDATE_VISIT</text>
<text text-anchor="middle" x="1042.5" y="-563" font-family="Helvetica,sans-Serif" font-size="10.00">ODUPS</text>
</g>
<!-- Node8 -->
<g id="node8" class="node">
<title>Node8</title>
<g id="a_node8"><a xlink:title=" ">
<polygon fill="none" stroke="#bfbfbf" points="485,-568.5 485,-587.5 531,-587.5 531,-568.5 485,-568.5"/>
<text text-anchor="middle" x="508" y="-575.5" font-family="Helvetica,sans-Serif" font-size="10.00">BitSet</text>
</a>
</g>
</g>
<!-- Node8&#45;&gt;Node7 -->
<g id="edge8" class="edge">
<title>Node8&#45;&gt;Node7</title>
<path fill="none" stroke="midnightblue" d="M541.46,-577.15C603.44,-575.52 739.81,-571.94 822.4,-569.77"/>
<polygon fill="midnightblue" stroke="midnightblue" points="541.04,-573.66 531.13,-577.42 541.22,-580.66 541.04,-573.66"/>
</g>
<!-- Node9 -->
<g id="node9" class="node">
<title>Node9</title>
<g id="a_node9"><a xlink:title=" ">
<polygon fill="none" stroke="#bfbfbf" points="794,-644 794,-674 988,-674 988,-644 794,-644"/>
<text text-anchor="start" x="802" y="-662" font-family="Helvetica,sans-Serif" font-size="10.00">HashMap&lt; com.cliffc.aa.HM.</text>
<text text-anchor="middle" x="891" y="-651" font-family="Helvetica,sans-Serif" font-size="10.00">HM6.T2, com.cliffc.aa.HM.HM6.T2 &gt;</text>
</a>
</g>
</g>
<!-- Node9&#45;&gt;Node5 -->
<g id="edge9" class="edge">
<title>Node9&#45;&gt;Node5</title>
<path fill="none" stroke="#9a32cd" stroke-dasharray="5,2" d="M998.13,-651.54C1025.37,-646.93 1054.01,-639.6 1079,-628 1116.12,-610.76 1150.18,-574.71 1165.08,-557.52"/>
<polygon fill="#9a32cd" stroke="#9a32cd" points="997.5,-648.1 988.17,-653.12 998.6,-655.01 997.5,-648.1"/>
<text text-anchor="middle" x="1042.5" y="-664" font-family="Helvetica,sans-Serif" font-size="10.00"> CDUPS</text>
<text text-anchor="middle" x="1042.5" y="-653" font-family="Helvetica,sans-Serif" font-size="10.00">VARS</text>
</g>
<!-- Node10 -->
<g id="node10" class="node">
<title>Node10</title>
<g id="a_node10"><a xlink:title=" ">
<polygon fill="none" stroke="#bfbfbf" points="477,-645.5 477,-664.5 539,-664.5 539,-645.5 477,-645.5"/>
<text text-anchor="middle" x="508" y="-652.5" font-family="Helvetica,sans-Serif" font-size="10.00">HashMap</text>
</a>
</g>
</g>
<!-- Node10&#45;&gt;Node9 -->
<g id="edge10" class="edge">
<title>Node10&#45;&gt;Node9</title>
<path fill="none" stroke="orange" stroke-dasharray="5,2" d="M549.22,-654.87C601.48,-654.76 695.56,-654.79 776,-656 781.84,-656.09 787.85,-656.2 793.91,-656.32"/>
<polygon fill="orange" stroke="orange" points="549.03,-651.37 539.03,-654.89 549.04,-658.37 549.03,-651.37"/>
<text text-anchor="start" x="629" y="-681" font-family="Helvetica,sans-Serif" font-size="10.00"> &lt; com::cliffc::aa::</text>
<text text-anchor="start" x="629" y="-670" font-family="Helvetica,sans-Serif" font-size="10.00">HM::HM6::T2, com::cliffc</text>
<text text-anchor="middle" x="689" y="-659" font-family="Helvetica,sans-Serif" font-size="10.00">::aa::HM::HM6::T2 &gt;</text>
</g>
<!-- Node16 -->
<g id="node16" class="node">
<title>Node16</title>
<g id="a_node16"><a xlink:title=" ">
<polygon fill="none" stroke="#bfbfbf" points="807,-693 807,-723 975,-723 975,-693 807,-693"/>
<text text-anchor="start" x="815" y="-711" font-family="Helvetica,sans-Serif" font-size="10.00">HashMap&lt; Long, com.cliffc.aa.</text>
<text text-anchor="middle" x="891" y="-700" font-family="Helvetica,sans-Serif" font-size="10.00">HM.HM6.T2 &gt;</text>
</a>
</g>
</g>
<!-- Node10&#45;&gt;Node16 -->
<g id="edge18" class="edge">
<title>Node10&#45;&gt;Node16</title>
<path fill="none" stroke="orange" stroke-dasharray="5,2" d="M539.25,-668.55C557.13,-675.92 580.43,-684.44 602,-689 670.02,-703.37 748.91,-707.74 806.91,-708.74"/>
<polygon fill="orange" stroke="orange" points="540.49,-665.27 529.92,-664.6 537.76,-671.72 540.49,-665.27"/>
<text text-anchor="start" x="639.5" y="-722" font-family="Helvetica,sans-Serif" font-size="10.00"> &lt; Long, com::cliffc</text>
<text text-anchor="middle" x="689" y="-711" font-family="Helvetica,sans-Serif" font-size="10.00">::aa::HM::HM6::T2 &gt;</text>
</g>
<!-- Node11 -->
<g id="node11" class="node">
<title>Node11</title>
<g id="a_node11"><a xlink:href="../../d6/d02/a01542.html" target="_top" xlink:title=" ">
<polygon fill="none" stroke="black" points="602,-600 602,-630 776,-630 776,-600 602,-600"/>
<text text-anchor="start" x="610" y="-618" font-family="Helvetica,sans-Serif" font-size="10.00">com.cliffc.aa.util.Ary</text>
<text text-anchor="middle" x="689" y="-607" font-family="Helvetica,sans-Serif" font-size="10.00">&lt; com.cliffc.aa.HM.HM6.Ident &gt;</text>
</a>
</g>
</g>
<!-- Node11&#45;&gt;Node5 -->
<g id="edge11" class="edge">
<title>Node11&#45;&gt;Node5</title>
<path fill="none" stroke="#9a32cd" stroke-dasharray="5,2" d="M786.62,-616.04C866.1,-614.94 981.17,-608.83 1079,-586 1106.08,-579.68 1135.54,-566.69 1154.13,-557.66"/>
<polygon fill="#9a32cd" stroke="#9a32cd" points="786.1,-612.55 776.14,-616.16 786.18,-619.55 786.1,-612.55"/>
<text text-anchor="middle" x="891" y="-619" font-family="Helvetica,sans-Serif" font-size="10.00"> _deps</text>
</g>
<!-- Node12 -->
<g id="node12" class="node">
<title>Node12</title>
<g id="a_node12"><a xlink:href="../../d6/d02/a01542.html" target="_top" xlink:title=" ">
<polygon fill="none" stroke="black" points="143,-577.5 143,-596.5 289,-596.5 289,-577.5 143,-577.5"/>
<text text-anchor="middle" x="216" y="-584.5" font-family="Helvetica,sans-Serif" font-size="10.00">com.cliffc.aa.util.Ary&lt; E &gt;</text>
</a>
</g>
</g>
<!-- Node12&#45;&gt;Node11 -->
<g id="edge12" class="edge">
<title>Node12&#45;&gt;Node11</title>
<path fill="none" stroke="orange" stroke-dasharray="5,2" d="M299.15,-591.88C383.97,-596.93 515.76,-604.76 601.97,-609.89"/>
<polygon fill="orange" stroke="orange" points="299.24,-588.38 289.05,-591.28 298.82,-595.37 299.24,-588.38"/>
<text text-anchor="start" x="316" y="-613" font-family="Helvetica,sans-Serif" font-size="10.00"> &lt; com::cliffc::aa::</text>
<text text-anchor="middle" x="360.5" y="-602" font-family="Helvetica,sans-Serif" font-size="10.00">HM::HM6::Ident &gt;</text>
</g>
<!-- Node19 -->
<g id="node19" class="node">
<title>Node19</title>
<g id="a_node19"><a xlink:href="../../d6/d02/a01542.html" target="_top" xlink:title=" ">
<polygon fill="none" stroke="black" points="432,-423 432,-453 584,-453 584,-423 432,-423"/>
<text text-anchor="start" x="440" y="-441" font-family="Helvetica,sans-Serif" font-size="10.00">com.cliffc.aa.util.Ary</text>
<text text-anchor="middle" x="508" y="-430" font-family="Helvetica,sans-Serif" font-size="10.00">&lt; com.cliffc.aa.type.Type &gt;</text>
</a>
</g>
</g>
<!-- Node12&#45;&gt;Node19 -->
<g id="edge23" class="edge">
<title>Node12&#45;&gt;Node19</title>
<path fill="none" stroke="orange" stroke-dasharray="5,2" d="M239.7,-571.85C278.06,-546.73 358.69,-495.96 432,-463 440.01,-459.4 448.71,-456.04 457.24,-453.02"/>
<polygon fill="orange" stroke="orange" points="237.74,-568.95 231.32,-577.37 241.59,-574.79 237.74,-568.95"/>
<text text-anchor="start" x="316" y="-544" font-family="Helvetica,sans-Serif" font-size="10.00"> &lt; com::cliffc::aa::</text>
<text text-anchor="middle" x="360.5" y="-533" font-family="Helvetica,sans-Serif" font-size="10.00">type::Type &gt;</text>
</g>
<!-- Node13 -->
<g id="node13" class="node">
<title>Node13</title>
<g id="a_node13"><a xlink:href="../../dd/df4/a02510.html" target="_top" xlink:title=" ">
<polygon fill="none" stroke="black" points="0,-577.5 0,-596.5 83,-596.5 83,-577.5 0,-577.5"/>
<text text-anchor="middle" x="41.5" y="-584.5" font-family="Helvetica,sans-Serif" font-size="10.00">Iterable&lt; E &gt;</text>
</a>
</g>
</g>
<!-- Node13&#45;&gt;Node12 -->
<g id="edge13" class="edge">
<title>Node13&#45;&gt;Node12</title>
<path fill="none" stroke="midnightblue" d="M93.7,-587C109.07,-587 126.22,-587 142.68,-587"/>
<polygon fill="midnightblue" stroke="midnightblue" points="93.38,-583.5 83.38,-587 93.38,-590.5 93.38,-583.5"/>
</g>
<!-- Node14 -->
<g id="node14" class="node">
<title>Node14</title>
<g id="a_node14"><a xlink:title=" ">
<polygon fill="none" stroke="#bfbfbf" points="26.5,-615.5 26.5,-634.5 56.5,-634.5 56.5,-615.5 26.5,-615.5"/>
<text text-anchor="middle" x="41.5" y="-622.5" font-family="Helvetica,sans-Serif" font-size="10.00">E[]</text>
</a>
</g>
</g>
<!-- Node14&#45;&gt;Node12 -->
<g id="edge14" class="edge">
<title>Node14&#45;&gt;Node12</title>
<path fill="none" stroke="#9a32cd" stroke-dasharray="5,2" d="M66.43,-619.73C93.59,-613.75 138.45,-603.86 171.78,-596.52"/>
<polygon fill="#9a32cd" stroke="#9a32cd" points="65.63,-616.32 56.62,-621.89 67.14,-623.16 65.63,-616.32"/>
<text text-anchor="middle" x="113" y="-615" font-family="Helvetica,sans-Serif" font-size="10.00"> _es</text>
</g>
<!-- Node15 -->
<g id="node15" class="node">
<title>Node15</title>
<g id="a_node15"><a xlink:title=" ">
<polygon fill="none" stroke="#bfbfbf" points="27,-423.5 27,-442.5 56,-442.5 56,-423.5 27,-423.5"/>
<text text-anchor="middle" x="41.5" y="-430.5" font-family="Helvetica,sans-Serif" font-size="10.00">int</text>
</a>
</g>
</g>
<!-- Node15&#45;&gt;Node5 -->
<g id="edge16" class="edge">
<title>Node15&#45;&gt;Node5</title>
<path fill="none" stroke="#9a32cd" stroke-dasharray="5,2" d="M65.76,-442.36C111.22,-460.15 215.41,-498.45 307,-514 459.79,-539.95 927.44,-546.15 1104.28,-547.58"/>
<polygon fill="#9a32cd" stroke="#9a32cd" points="66.83,-439.02 56.24,-438.6 64.26,-445.53 66.83,-439.02"/>
<text text-anchor="middle" x="508" y="-550" font-family="Helvetica,sans-Serif" font-size="10.00"> _uid</text>
<text text-anchor="middle" x="508" y="-539" font-family="Helvetica,sans-Serif" font-size="10.00">CNT</text>
</g>
<!-- Node15&#45;&gt;Node12 -->
<g id="edge15" class="edge">
<title>Node15&#45;&gt;Node12</title>
<path fill="none" stroke="#9a32cd" stroke-dasharray="5,2" d="M48.62,-452.06C57.01,-475.42 74.17,-514.86 101,-539 122.08,-557.96 151.73,-570.13 175.51,-577.47"/>
<polygon fill="#9a32cd" stroke="#9a32cd" points="51.93,-450.9 45.38,-442.57 45.3,-453.17 51.93,-450.9"/>
<text text-anchor="middle" x="113" y="-558" font-family="Helvetica,sans-Serif" font-size="10.00"> _len</text>
</g>
<!-- Node15&#45;&gt;Node17 -->
<g id="edge32" class="edge">
<title>Node15&#45;&gt;Node17</title>
<path fill="none" stroke="#9a32cd" stroke-dasharray="5,2" d="M66.29,-427.44C126.92,-413.45 292.35,-376.45 432,-356 507.98,-344.87 705.65,-353.81 776,-323 820.76,-303.4 860.07,-259.28 878.64,-236.01"/>
<polygon fill="#9a32cd" stroke="#9a32cd" points="65.16,-424.1 56.21,-429.77 66.75,-430.92 65.16,-424.1"/>
<text text-anchor="middle" x="360.5" y="-413" font-family="Helvetica,sans-Serif" font-size="10.00"> RECURSIVE_MEET</text>
<text text-anchor="middle" x="360.5" y="-402" font-family="Helvetica,sans-Serif" font-size="10.00">_uid</text>
<text text-anchor="middle" x="360.5" y="-391" font-family="Helvetica,sans-Serif" font-size="10.00">CNT</text>
<text text-anchor="middle" x="360.5" y="-380" font-family="Helvetica,sans-Serif" font-size="10.00">_hash</text>
</g>
<!-- Node20 -->
<g id="node20" class="node">
<title>Node20</title>
<g id="a_node20"><a xlink:href="../../d8/d22/a01446.html" target="_top" xlink:title=" ">
<polygon fill="none" stroke="black" points="1097,-206 1097,-236 1251,-236 1251,-206 1097,-206"/>
<text text-anchor="start" x="1105" y="-224" font-family="Helvetica,sans-Serif" font-size="10.00">com.cliffc.aa.type.Type</text>
<text text-anchor="middle" x="1174" y="-213" font-family="Helvetica,sans-Serif" font-size="10.00">&lt; T extends Type&lt; T &gt;.Pool</text>
</a>
</g>
</g>
<!-- Node15&#45;&gt;Node20 -->
<g id="edge27" class="edge">
<title>Node15&#45;&gt;Node20</title>
<path fill="none" stroke="#9a32cd" stroke-dasharray="5,2" d="M41.78,-412.88C39.94,-330.72 44.58,-25 215,-25 215,-25 215,-25 892,-25 1018.39,-25 1128.57,-160.05 1162.37,-205.95"/>
<polygon fill="#9a32cd" stroke="#9a32cd" points="38.29,-413.42 42.07,-423.32 45.29,-413.22 38.29,-413.42"/>
<text text-anchor="middle" x="508" y="-61" font-family="Helvetica,sans-Serif" font-size="10.00"> _free</text>
<text text-anchor="middle" x="508" y="-50" font-family="Helvetica,sans-Serif" font-size="10.00">_pool</text>
<text text-anchor="middle" x="508" y="-39" font-family="Helvetica,sans-Serif" font-size="10.00">_malloc</text>
<text text-anchor="middle" x="508" y="-28" font-family="Helvetica,sans-Serif" font-size="10.00">_clone</text>
</g>
<!-- Node16&#45;&gt;Node5 -->
<g id="edge17" class="edge">
<title>Node16&#45;&gt;Node5</title>
<path fill="none" stroke="#9a32cd" stroke-dasharray="5,2" d="M985.18,-706.03C1016.83,-701.85 1051.19,-693.18 1079,-676 1127.08,-646.29 1158.44,-582.08 1169.02,-557.68"/>
<polygon fill="#9a32cd" stroke="#9a32cd" points="984.54,-702.58 975.02,-707.23 985.36,-709.53 984.54,-702.58"/>
<text text-anchor="middle" x="1042.5" y="-706" font-family="Helvetica,sans-Serif" font-size="10.00"> DUPS</text>
</g>
<!-- Node17&#45;&gt;Node1 -->
<g id="edge38" class="edge">
<title>Node17&#45;&gt;Node1</title>
<path fill="none" stroke="#9a32cd" stroke-dasharray="5,2" d="M906.58,-197.07C943.47,-139.87 1046.6,0 1173,0 1173,0 1173,0 1655.5,0 1737.36,0 1812.33,-81.52 1836.16,-110.18"/>
<polygon fill="#9a32cd" stroke="#9a32cd" points="903.44,-195.49 901.05,-205.81 909.35,-199.23 903.44,-195.49"/>
<text text-anchor="middle" x="1412.5" y="-3" font-family="Helvetica,sans-Serif" font-size="10.00"> _con</text>
</g>
<!-- Node17&#45;&gt;Node5 -->
<g id="edge20" class="edge">
<title>Node17&#45;&gt;Node5</title>
<path fill="none" stroke="#9a32cd" stroke-dasharray="5,2" d="M909.56,-244.4C958.21,-309.2 1091.51,-486.58 1097,-492 1115.89,-510.66 1141.31,-528.13 1157.43,-538.44"/>
<polygon fill="#9a32cd" stroke="#9a32cd" points="912.34,-242.27 903.54,-236.38 906.74,-246.48 912.34,-242.27"/>
<text text-anchor="middle" x="1042.5" y="-470" font-family="Helvetica,sans-Serif" font-size="10.00"> _con</text>
</g>
<!-- Node17&#45;&gt;Node17 -->
<g id="edge33" class="edge">
<title>Node17&#45;&gt;Node17</title>
<path fill="none" stroke="#9a32cd" stroke-dasharray="5,2" d="M864.35,-246.46C867.65,-251.18 876.54,-254.5 891,-254.5 914.73,-254.5 923.44,-245.56 917.14,-236.16"/>
<polygon fill="#9a32cd" stroke="#9a32cd" points="867.86,-246.32 864.86,-236.16 860.87,-245.97 867.86,-246.32"/>
<text text-anchor="middle" x="891" y="-367.5" font-family="Helvetica,sans-Serif" font-size="10.00"> XREAL</text>
<text text-anchor="middle" x="891" y="-356.5" font-family="Helvetica,sans-Serif" font-size="10.00">TYPES</text>
<text text-anchor="middle" x="891" y="-345.5" font-family="Helvetica,sans-Serif" font-size="10.00">XNREAL</text>
<text text-anchor="middle" x="891" y="-334.5" font-family="Helvetica,sans-Serif" font-size="10.00">XSCALAR</text>
<text text-anchor="middle" x="891" y="-323.5" font-family="Helvetica,sans-Serif" font-size="10.00">NREAL</text>
<text text-anchor="middle" x="891" y="-312.5" font-family="Helvetica,sans-Serif" font-size="10.00">ANY</text>
<text text-anchor="middle" x="891" y="-301.5" font-family="Helvetica,sans-Serif" font-size="10.00">NSCALR</text>
<text text-anchor="middle" x="891" y="-290.5" font-family="Helvetica,sans-Serif" font-size="10.00">XNIL</text>
<text text-anchor="middle" x="891" y="-279.5" font-family="Helvetica,sans-Serif" font-size="10.00">CTRL</text>
<text text-anchor="middle" x="891" y="-268.5" font-family="Helvetica,sans-Serif" font-size="10.00">SCALAR</text>
<text text-anchor="middle" x="891" y="-257.5" font-family="Helvetica,sans-Serif" font-size="10.00">...</text>
</g>
<!-- Node17&#45;&gt;Node20 -->
<g id="edge28" class="edge">
<title>Node17&#45;&gt;Node20</title>
<path fill="none" stroke="#9a32cd" stroke-dasharray="5,2" d="M966.1,-209.82C979.35,-208.23 993.06,-206.85 1006,-206 1038.38,-203.88 1046.66,-203.44 1079,-206 1084.85,-206.46 1090.88,-207.09 1096.94,-207.82"/>
<polygon fill="#9a32cd" stroke="#9a32cd" points="965.55,-206.36 956.06,-211.08 966.42,-213.31 965.55,-206.36"/>
<text text-anchor="middle" x="1042.5" y="-209" font-family="Helvetica,sans-Serif" font-size="10.00"> _gold</text>
</g>
<!-- Node18 -->
<g id="node18" class="node">
<title>Node18</title>
<g id="a_node18"><a xlink:href="../../d9/d76/a02526.html" target="_top" xlink:title=" ">
<polygon fill="none" stroke="black" points="475.5,-365.5 475.5,-384.5 540.5,-384.5 540.5,-365.5 475.5,-365.5"/>
<text text-anchor="middle" x="508" y="-372.5" font-family="Helvetica,sans-Serif" font-size="10.00">Cloneable</text>
</a>
</g>
</g>
<!-- Node18&#45;&gt;Node17 -->
<g id="edge21" class="edge">
<title>Node18&#45;&gt;Node17</title>
<path fill="none" stroke="midnightblue" d="M551.15,-374.41C616.25,-372.88 737.73,-367.44 776,-348 826.72,-322.23 865.48,-263.68 881.7,-236.01"/>
<polygon fill="midnightblue" stroke="midnightblue" points="550.75,-370.91 540.83,-374.63 550.9,-377.91 550.75,-370.91"/>
</g>
<!-- Node19&#45;&gt;Node17 -->
<g id="edge22" class="edge">
<title>Node19&#45;&gt;Node17</title>
<path fill="none" stroke="#9a32cd" stroke-dasharray="5,2" d="M546.05,-418.25C562.73,-410.16 582.92,-401.44 602,-396 677.02,-374.61 708.67,-412.39 776,-373 832.09,-340.19 869.36,-267.86 883.56,-236.27"/>
<polygon fill="#9a32cd" stroke="#9a32cd" points="544.08,-415.33 536.68,-422.91 547.19,-421.59 544.08,-415.33"/>
<text text-anchor="middle" x="689" y="-399" font-family="Helvetica,sans-Serif" font-size="10.00"> ALL_TYPES</text>
</g>
<!-- Node19&#45;&gt;Node20 -->
<g id="edge26" class="edge">
<title>Node19&#45;&gt;Node20</title>
<path fill="none" stroke="#9a32cd" stroke-dasharray="5,2" d="M594.21,-451.34C596.83,-451.59 599.44,-451.81 602,-452 775.71,-465 836.51,-470 988,-384 1061.34,-342.37 1131.36,-268.29 1159.74,-236.35"/>
<polygon fill="#9a32cd" stroke="#9a32cd" points="594.32,-447.83 584.01,-450.28 593.6,-454.8 594.32,-447.83"/>
<text text-anchor="middle" x="891" y="-460" font-family="Helvetica,sans-Serif" font-size="10.00"> _frees</text>
</g>
<!-- Node20&#45;&gt;Node17 -->
<g id="edge25" class="edge">
<title>Node20&#45;&gt;Node17</title>
<path fill="none" stroke="#9a32cd" stroke-dasharray="5,2" d="M1086.69,-221C1044.58,-221 994.8,-221 956.11,-221"/>
<polygon fill="#9a32cd" stroke="#9a32cd" points="1086.94,-224.5 1096.94,-221 1086.94,-217.5 1086.94,-224.5"/>
<text text-anchor="middle" x="1042.5" y="-224" font-family="Helvetica,sans-Serif" font-size="10.00"> POOLS</text>
</g>
<!-- Node21 -->
<g id="node21" class="node">
<title>Node21</title>
<g id="a_node21"><a xlink:title=" ">
<polygon fill="none" stroke="#bfbfbf" points="489,-223.5 489,-242.5 527,-242.5 527,-223.5 489,-223.5"/>
<text text-anchor="middle" x="508" y="-230.5" font-family="Helvetica,sans-Serif" font-size="10.00">byte</text>
</a>
</g>
</g>
<!-- Node21&#45;&gt;Node17 -->
<g id="edge29" class="edge">
<title>Node21&#45;&gt;Node17</title>
<path fill="none" stroke="#9a32cd" stroke-dasharray="5,2" d="M537,-228.26C551.43,-225.24 569.08,-220.63 584,-214 592.79,-210.1 592.8,-204.79 602,-202 680.29,-178.29 775.85,-192.55 834.81,-205.99"/>
<polygon fill="#9a32cd" stroke="#9a32cd" points="536.29,-224.84 527.15,-230.19 537.63,-231.71 536.29,-224.84"/>
<text text-anchor="middle" x="689" y="-315" font-family="Helvetica,sans-Serif" font-size="10.00"> TMEM</text>
<text text-anchor="middle" x="689" y="-304" font-family="Helvetica,sans-Serif" font-size="10.00">TRPC</text>
<text text-anchor="middle" x="689" y="-293" font-family="Helvetica,sans-Serif" font-size="10.00">TSIMPLE</text>
<text text-anchor="middle" x="689" y="-282" font-family="Helvetica,sans-Serif" font-size="10.00">TXREAL</text>
<text text-anchor="middle" x="689" y="-271" font-family="Helvetica,sans-Serif" font-size="10.00">TSCALAR</text>
<text text-anchor="middle" x="689" y="-260" font-family="Helvetica,sans-Serif" font-size="10.00">TSTRUCT</text>
<text text-anchor="middle" x="689" y="-249" font-family="Helvetica,sans-Serif" font-size="10.00">TOBJ</text>
<text text-anchor="middle" x="689" y="-238" font-family="Helvetica,sans-Serif" font-size="10.00">_type</text>
<text text-anchor="middle" x="689" y="-227" font-family="Helvetica,sans-Serif" font-size="10.00">TARY</text>
<text text-anchor="middle" x="689" y="-216" font-family="Helvetica,sans-Serif" font-size="10.00">TTUPLE</text>
<text text-anchor="middle" x="689" y="-205" font-family="Helvetica,sans-Serif" font-size="10.00">...</text>
</g>
<!-- Node22 -->
<g id="node22" class="node">
<title>Node22</title>
<g id="a_node22"><a xlink:title=" ">
<polygon fill="none" stroke="#bfbfbf" points="436.5,-163.5 436.5,-204.5 579.5,-204.5 579.5,-163.5 436.5,-163.5"/>
<text text-anchor="start" x="444.5" y="-192.5" font-family="Helvetica,sans-Serif" font-size="10.00">ConcurrentHashMap&lt;</text>
<text text-anchor="start" x="444.5" y="-181.5" font-family="Helvetica,sans-Serif" font-size="10.00"> com.cliffc.aa.type.Type,</text>
<text text-anchor="middle" x="508" y="-170.5" font-family="Helvetica,sans-Serif" font-size="10.00"> com.cliffc.aa.type.Type &gt;</text>
</a>
</g>
</g>
<!-- Node22&#45;&gt;Node17 -->
<g id="edge30" class="edge">
<title>Node22&#45;&gt;Node17</title>
<path fill="none" stroke="#9a32cd" stroke-dasharray="5,2" d="M589.75,-171.94C643.1,-166.25 714.3,-163.02 776,-175 806.38,-180.9 838.92,-194.87 861.42,-205.88"/>
<polygon fill="#9a32cd" stroke="#9a32cd" points="589.22,-168.47 579.67,-173.06 590,-175.43 589.22,-168.47"/>
<text text-anchor="middle" x="689" y="-178" font-family="Helvetica,sans-Serif" font-size="10.00"> INTERN</text>
</g>
<!-- Node23 -->
<g id="node23" class="node">
<title>Node23</title>
<g id="a_node23"><a xlink:title=" ">
<polygon fill="none" stroke="#bfbfbf" points="158,-174.5 158,-193.5 274,-193.5 274,-174.5 158,-174.5"/>
<text text-anchor="middle" x="216" y="-181.5" font-family="Helvetica,sans-Serif" font-size="10.00">ConcurrentHashMap</text>
</a>
</g>
</g>
<!-- Node23&#45;&gt;Node22 -->
<g id="edge31" class="edge">
<title>Node23&#45;&gt;Node22</title>
<path fill="none" stroke="orange" stroke-dasharray="5,2" d="M284.39,-184C330.03,-184 390.21,-184 436.49,-184"/>
<polygon fill="orange" stroke="orange" points="284.29,-180.5 274.29,-184 284.29,-187.5 284.29,-180.5"/>
<text text-anchor="start" x="307" y="-209" font-family="Helvetica,sans-Serif" font-size="10.00"> &lt; com::cliffc::aa::</text>
<text text-anchor="start" x="307" y="-198" font-family="Helvetica,sans-Serif" font-size="10.00">type::Type, com::cliffc</text>
<text text-anchor="middle" x="360.5" y="-187" font-family="Helvetica,sans-Serif" font-size="10.00">::aa::type::Type &gt;</text>
</g>
<!-- Node24 -->
<g id="node24" class="node">
<title>Node24</title>
<g id="a_node24"><a xlink:title=" ">
<polygon fill="none" stroke="#bfbfbf" points="493.5,-125.5 493.5,-144.5 522.5,-144.5 522.5,-125.5 493.5,-125.5"/>
<text text-anchor="middle" x="508" y="-132.5" font-family="Helvetica,sans-Serif" font-size="10.00">T</text>
</a>
</g>
</g>
<!-- Node24&#45;&gt;Node17 -->
<g id="edge34" class="edge">
<title>Node24&#45;&gt;Node17</title>
<path fill="none" stroke="#9a32cd" stroke-dasharray="5,2" d="M532.96,-132.79C580.56,-129.19 689.84,-124.98 776,-152 812.86,-163.56 850.15,-189.4 871.61,-205.97"/>
<polygon fill="#9a32cd" stroke="#9a32cd" points="532.43,-129.32 522.75,-133.62 533,-136.29 532.43,-129.32"/>
<text text-anchor="middle" x="689" y="-155" font-family="Helvetica,sans-Serif" font-size="10.00"> _dual</text>
</g>
<!-- Node25 -->
<g id="node25" class="node">
<title>Node25</title>
<g id="a_node25"><a xlink:href="../../d7/df2/a02322.html" target="_top" xlink:title=" ">
<polygon fill="none" stroke="black" points="480,-87.5 480,-106.5 536,-106.5 536,-87.5 480,-87.5"/>
<text text-anchor="middle" x="508" y="-94.5" font-family="Helvetica,sans-Serif" font-size="10.00">Type&lt; T</text>
</a>
</g>
</g>
<!-- Node25&#45;&gt;Node17 -->
<g id="edge35" class="edge">
<title>Node25&#45;&gt;Node17</title>
<path fill="none" stroke="orange" stroke-dasharray="5,2" d="M546.15,-92.18C599.45,-86.87 699.61,-83.01 776,-116 821.7,-135.74 860.88,-181.78 879.1,-205.8"/>
<polygon fill="orange" stroke="orange" points="545.71,-88.7 536.14,-93.25 546.45,-95.66 545.71,-88.7"/>
<text text-anchor="middle" x="689" y="-119" font-family="Helvetica,sans-Serif" font-size="10.00"> T</text>
</g>
</g>
</svg>
        <g id="navigator" transform="translate(0 0)" fill="#404254">
                <rect fill="#f2f5e9" fill-opacity="0.5" stroke="#606060" stroke-width=".5" x="0" y="0" width="60" height="60"/>
                <use id="zoomplus" xlink:href="#zoomPlus" x="17" y="9" onmousedown="handleZoom(evt,'in')"/>
                <use id="zoomminus" xlink:href="#zoomMin" x="42" y="9" onmousedown="handleZoom(evt,'out')"/>
                <use id="reset" xlink:href="#resetDef" x="30" y="36" onmousedown="handleReset()"/>
                <g id="arrowUp" xlink:href="#dirArrow" transform="translate(30 24)" onmousedown="handlePan(0,-1)">
                  <use xlink:href="#rim" fill="#404040">
                        <set attributeName="fill" to="#808080" begin="arrowUp.mouseover" end="arrowUp.mouseout"/>
                  </use>
                  <path fill="none" stroke="white" stroke-width="1.5" d="M0,-3.0v7 M-2.5,-0.5L0,-3.0L2.5,-0.5"/>
                </g>
                <g id="arrowRight" xlink:href="#dirArrow" transform="rotate(90) translate(36 -43)" onmousedown="handlePan(1,0)">
                  <use xlink:href="#rim" fill="#404040">
                        <set attributeName="fill" to="#808080" begin="arrowRight.mouseover" end="arrowRight.mouseout"/>
                  </use>
                  <path fill="none" stroke="white" stroke-width="1.5" d="M0,-3.0v7 M-2.5,-0.5L0,-3.0L2.5,-0.5"/>
                </g>
                <g id="arrowDown" xlink:href="#dirArrow" transform="rotate(180) translate(-30 -48)" onmousedown="handlePan(0,1)">
                  <use xlink:href="#rim" fill="#404040">
                        <set attributeName="fill" to="#808080" begin="arrowDown.mouseover" end="arrowDown.mouseout"/>
                  </use>
                  <path fill="none" stroke="white" stroke-width="1.5" d="M0,-3.0v7 M-2.5,-0.5L0,-3.0L2.5,-0.5"/>
                </g>
                <g id="arrowLeft" xlink:href="#dirArrow" transform="rotate(270) translate(-36 17)" onmousedown="handlePan(-1,0)">
                  <use xlink:href="#rim" fill="#404040">
                        <set attributeName="fill" to="#808080" begin="arrowLeft.mouseover" end="arrowLeft.mouseout"/>
                  </use>
                  <path fill="none" stroke="white" stroke-width="1.5" d="M0,-3.0v7 M-2.5,-0.5L0,-3.0L2.5,-0.5"/>
                </g>
        </g>
        <svg viewBox="0 0 15 15" width="100%" height="30px" preserveAspectRatio="xMaxYMin meet">
         <g id="arrow_out" transform="scale(0.3 0.3)">
          <a xlink:href="a00756_org.svg" target="_base">
           <rect id="button" ry="5" rx="5" y="6" x="6" height="38" width="38"
                fill="#f2f5e9" fill-opacity="0.5" stroke="#606060" stroke-width="1.0"/>
           <path id="arrow"
             d="M 11.500037,31.436501 C 11.940474,20.09759 22.043105,11.32322 32.158766,21.979434 L 37.068811,17.246167 C 37.068811,17.246167 37.088388,32 37.088388,32 L 22.160133,31.978069 C 22.160133,31.978069 26.997745,27.140456 26.997745,27.140456 C 18.528582,18.264221 13.291696,25.230495 11.500037,31.436501 z"
             style="fill:#404040;"/>
          </a>
         </g>
        </svg>
</svg>
