<?xml version="1.0" encoding="UTF-8" standalone="no"?>
<!DOCTYPE svg PUBLIC "-//W3C//DTD SVG 1.1//EN"
 "http://www.w3.org/Graphics/SVG/1.1/DTD/svg11.dtd">
<!-- Generated by graphviz version 2.43.0 (0)
 -->
<!-- Title: com.cliffc.aa.HM.HM6.Syntax.str Pages: 1 -->
<svg width="408pt" height="192pt"
 viewBox="0.00 0.00 408.00 191.50" xmlns="http://www.w3.org/2000/svg" xmlns:xlink="http://www.w3.org/1999/xlink">
<g id="graph0" class="graph" transform="scale(1 1) rotate(0) translate(4 187.5)">
<title>com.cliffc.aa.HM.HM6.Syntax.str</title>
<!-- Node1 -->
<g id="node1" class="node">
<title>Node1</title>
<g id="a_node1"><a xlink:title=" ">
<polygon fill="#bfbfbf" stroke="black" points="224,-88 224,-107 400,-107 400,-88 224,-88"/>
<text text-anchor="middle" x="312" y="-95" font-family="Helvetica,sans-Serif" font-size="10.00">com.cliffc.aa.HM.HM6.Syntax.str</text>
</a>
</g>
</g>
<!-- Node2 -->
<g id="node2" class="node">
<title>Node2</title>
<g id="a_node2"><a xlink:href="../../d4/d13/a00766.html#a33c930d037b5b4804af2248baba780bc" target="_top" xlink:title=" ">
<polygon fill="none" stroke="black" points="3,-164 3,-183 185,-183 185,-164 3,-164"/>
<text text-anchor="middle" x="94" y="-171" font-family="Helvetica,sans-Serif" font-size="10.00">com.cliffc.aa.HM.HM6.Lambda.str</text>
</a>
</g>
</g>
<!-- Node1&#45;&gt;Node2 -->
<g id="edge1" class="edge">
<title>Node1&#45;&gt;Node2</title>
<path fill="none" stroke="midnightblue" d="M284.61,-111.92C260.19,-124.73 222.54,-143.14 188,-154.5 176.73,-158.21 164.44,-161.33 152.6,-163.91"/>
<polygon fill="midnightblue" stroke="midnightblue" points="286.41,-114.93 293.6,-107.14 283.13,-108.75 286.41,-114.93"/>
</g>
<!-- Node3 -->
<g id="node3" class="node">
<title>Node3</title>
<g id="a_node3"><a xlink:href="../../d0/d7e/a00770.html#af71b732c7a6542df8d62eeb9518e4803" target="_top" xlink:title=" ">
<polygon fill="none" stroke="black" points="0,-126 0,-145 188,-145 188,-126 0,-126"/>
<text text-anchor="middle" x="94" y="-133" font-family="Helvetica,sans-Serif" font-size="10.00">com.cliffc.aa.HM.HM6.Lambda2.str</text>
</a>
</g>
</g>
<!-- Node1&#45;&gt;Node3 -->
<g id="edge2" class="edge">
<title>Node1&#45;&gt;Node3</title>
<path fill="none" stroke="midnightblue" d="M246.91,-108.78C215.83,-114.24 178.91,-120.74 149.25,-125.96"/>
<polygon fill="midnightblue" stroke="midnightblue" points="247.53,-112.22 256.77,-107.04 246.32,-105.33 247.53,-112.22"/>
</g>
<!-- Node4 -->
<g id="node4" class="node">
<title>Node4</title>
<g id="a_node4"><a xlink:href="../../d3/dee/a00774.html#ac389e2d8f91a0116bb2bbc584cdba855" target="_top" xlink:title=" ">
<polygon fill="none" stroke="black" points="15,-88 15,-107 173,-107 173,-88 15,-88"/>
<text text-anchor="middle" x="94" y="-95" font-family="Helvetica,sans-Serif" font-size="10.00">com.cliffc.aa.HM.HM6.Let.str</text>
</a>
</g>
</g>
<!-- Node1&#45;&gt;Node4 -->
<g id="edge3" class="edge">
<title>Node1&#45;&gt;Node4</title>
<path fill="none" stroke="midnightblue" d="M213.49,-97.5C199.98,-97.5 186.25,-97.5 173.15,-97.5"/>
<polygon fill="midnightblue" stroke="midnightblue" points="213.77,-101 223.77,-97.5 213.77,-94 213.77,-101"/>
</g>
<!-- Node5 -->
<g id="node5" class="node">
<title>Node5</title>
<g id="a_node5"><a xlink:href="../../d6/d17/a00778.html#a820f02af32b3f18ec0927b7a8fd62de6" target="_top" xlink:title=" ">
<polygon fill="none" stroke="black" points="9.5,-50 9.5,-69 178.5,-69 178.5,-50 9.5,-50"/>
<text text-anchor="middle" x="94" y="-57" font-family="Helvetica,sans-Serif" font-size="10.00">com.cliffc.aa.HM.HM6.Apply.str</text>
</a>
</g>
</g>
<!-- Node1&#45;&gt;Node5 -->
<g id="edge4" class="edge">
<title>Node1&#45;&gt;Node5</title>
<path fill="none" stroke="midnightblue" d="M246.91,-86.22C215.83,-80.76 178.91,-74.26 149.25,-69.04"/>
<polygon fill="midnightblue" stroke="midnightblue" points="246.32,-89.67 256.77,-87.96 247.53,-82.78 246.32,-89.67"/>
</g>
<!-- Node6 -->
<g id="node6" class="node">
<title>Node6</title>
<g id="a_node6"><a xlink:href="../../d8/d4e/a00754.html#a589fc67b2639c76a9a992b58039d7b78" target="_top" xlink:title=" ">
<polygon fill="none" stroke="black" points="7.5,-0.5 7.5,-30.5 180.5,-30.5 180.5,-0.5 7.5,-0.5"/>
<text text-anchor="start" x="15.5" y="-18.5" font-family="Helvetica,sans-Serif" font-size="10.00">com.cliffc.aa.HM.HM6.Syntax.to</text>
<text text-anchor="middle" x="94" y="-7.5" font-family="Helvetica,sans-Serif" font-size="10.00">String</text>
</a>
</g>
</g>
<!-- Node1&#45;&gt;Node6 -->
<g id="edge5" class="edge">
<title>Node1&#45;&gt;Node6</title>
<path fill="none" stroke="midnightblue" d="M283.59,-83.14C259.04,-70.68 221.79,-52.77 188,-40.5 178.1,-36.91 167.44,-33.57 156.99,-30.57"/>
<polygon fill="midnightblue" stroke="midnightblue" points="282.17,-86.35 292.66,-87.79 285.36,-80.12 282.17,-86.35"/>
</g>
</g>
</svg>
