<?xml version="1.0" encoding="UTF-8" standalone="no"?>
<!DOCTYPE svg PUBLIC "-//W3C//DTD SVG 1.1//EN"
 "http://www.w3.org/Graphics/SVG/1.1/DTD/svg11.dtd">
<!-- Generated by graphviz version 2.43.0 (0)
 -->
<!-- Title: com.cliffc.aa.HM.HM6.Syntax.lookup Pages: 1 -->
<svg width="447pt" height="230pt"
 viewBox="0.00 0.00 447.00 229.50" xmlns="http://www.w3.org/2000/svg" xmlns:xlink="http://www.w3.org/1999/xlink">
<g id="graph0" class="graph" transform="scale(1 1) rotate(0) translate(4 225.5)">
<title>com.cliffc.aa.HM.HM6.Syntax.lookup</title>
<!-- Node1 -->
<g id="node1" class="node">
<title>Node1</title>
<g id="a_node1"><a xlink:title=" ">
<polygon fill="#bfbfbf" stroke="black" points="243,-95.5 243,-114.5 439,-114.5 439,-95.5 243,-95.5"/>
<text text-anchor="middle" x="341" y="-102.5" font-family="Helvetica,sans-Serif" font-size="10.00">com.cliffc.aa.HM.HM6.Syntax.lookup</text>
</a>
</g>
</g>
<!-- Node2 -->
<g id="node2" class="node">
<title>Node2</title>
<g id="a_node2"><a xlink:href="../../df/d5f/a00762.html#a5dea8fa719bc01bbad8fa865e7f33b8f" target="_top" xlink:title=" ">
<polygon fill="none" stroke="black" points="17,-191 17,-221 190,-221 190,-191 17,-191"/>
<text text-anchor="start" x="25" y="-209" font-family="Helvetica,sans-Serif" font-size="10.00">com.cliffc.aa.HM.HM6.Ident.add</text>
<text text-anchor="middle" x="103.5" y="-198" font-family="Helvetica,sans-Serif" font-size="10.00">_occurs</text>
</a>
</g>
</g>
<!-- Node1&#45;&gt;Node2 -->
<g id="edge1" class="edge">
<title>Node1&#45;&gt;Node2</title>
<path fill="none" stroke="midnightblue" d="M317.7,-120.35C292.05,-137.38 248.15,-164.6 207,-181 197.56,-184.76 187.39,-188.07 177.26,-190.94"/>
<polygon fill="midnightblue" stroke="midnightblue" points="319.94,-123.06 326.29,-114.58 316.04,-117.25 319.94,-123.06"/>
</g>
<!-- Node3 -->
<g id="node3" class="node">
<title>Node3</title>
<g id="a_node3"><a xlink:href="../../df/d5f/a00762.html#a5cf630fe4c6290f20c962976b8ff920b" target="_top" xlink:title=" ">
<polygon fill="none" stroke="black" points="18.5,-152.5 18.5,-171.5 188.5,-171.5 188.5,-152.5 18.5,-152.5"/>
<text text-anchor="middle" x="103.5" y="-159.5" font-family="Helvetica,sans-Serif" font-size="10.00">com.cliffc.aa.HM.HM6.Ident.hm</text>
</a>
</g>
</g>
<!-- Node1&#45;&gt;Node3 -->
<g id="edge2" class="edge">
<title>Node1&#45;&gt;Node3</title>
<path fill="none" stroke="midnightblue" d="M300.23,-117.43C273.94,-125.39 238.61,-135.57 207,-143 192.29,-146.46 176.27,-149.68 161.36,-152.45"/>
<polygon fill="midnightblue" stroke="midnightblue" points="301.3,-120.77 309.84,-114.5 299.26,-114.07 301.3,-120.77"/>
</g>
<!-- Node4 -->
<g id="node4" class="node">
<title>Node4</title>
<g id="a_node4"><a xlink:href="../../d4/d13/a00766.html#a5117a7c2c987227443348dbf3b61c2a8" target="_top" xlink:title=" ">
<polygon fill="none" stroke="black" points="3,-114.5 3,-133.5 204,-133.5 204,-114.5 3,-114.5"/>
<text text-anchor="middle" x="103.5" y="-121.5" font-family="Helvetica,sans-Serif" font-size="10.00">com.cliffc.aa.HM.HM6.Lambda.lookup</text>
</a>
</g>
</g>
<!-- Node1&#45;&gt;Node4 -->
<g id="edge3" class="edge">
<title>Node1&#45;&gt;Node4</title>
<path fill="none" stroke="midnightblue" d="M232.6,-113.67C223.1,-114.43 213.51,-115.2 204.09,-115.97"/>
<polygon fill="midnightblue" stroke="midnightblue" points="233.17,-117.13 242.85,-112.84 232.6,-110.15 233.17,-117.13"/>
</g>
<!-- Node5 -->
<g id="node5" class="node">
<title>Node5</title>
<g id="a_node5"><a xlink:href="../../d0/d7e/a00770.html#ae981dc60e6495fe01ba6cbe1e952ec35" target="_top" xlink:title=" ">
<polygon fill="none" stroke="black" points="0,-76.5 0,-95.5 207,-95.5 207,-76.5 0,-76.5"/>
<text text-anchor="middle" x="103.5" y="-83.5" font-family="Helvetica,sans-Serif" font-size="10.00">com.cliffc.aa.HM.HM6.Lambda2.lookup</text>
</a>
</g>
</g>
<!-- Node1&#45;&gt;Node5 -->
<g id="edge4" class="edge">
<title>Node1&#45;&gt;Node5</title>
<path fill="none" stroke="midnightblue" d="M232.85,-96.36C224.3,-95.67 215.67,-94.97 207.14,-94.28"/>
<polygon fill="midnightblue" stroke="midnightblue" points="232.6,-99.85 242.85,-97.16 233.17,-92.87 232.6,-99.85"/>
</g>
<!-- Node6 -->
<g id="node6" class="node">
<title>Node6</title>
<g id="a_node6"><a xlink:href="../../d3/dee/a00774.html#adabecf04710196d515e5f6170d2265f0" target="_top" xlink:title=" ">
<polygon fill="none" stroke="black" points="15,-38.5 15,-57.5 192,-57.5 192,-38.5 15,-38.5"/>
<text text-anchor="middle" x="103.5" y="-45.5" font-family="Helvetica,sans-Serif" font-size="10.00">com.cliffc.aa.HM.HM6.Let.lookup</text>
</a>
</g>
</g>
<!-- Node1&#45;&gt;Node6 -->
<g id="edge5" class="edge">
<title>Node1&#45;&gt;Node6</title>
<path fill="none" stroke="midnightblue" d="M300.23,-92.57C273.94,-84.61 238.61,-74.43 207,-67 192.29,-63.54 176.27,-60.32 161.36,-57.55"/>
<polygon fill="midnightblue" stroke="midnightblue" points="299.26,-95.93 309.84,-95.5 301.3,-89.23 299.26,-95.93"/>
</g>
<!-- Node7 -->
<g id="node7" class="node">
<title>Node7</title>
<g id="a_node7"><a xlink:href="../../d6/d17/a00778.html#ad4593b9b8bcb7bb9c7565fe6ddabdaf5" target="_top" xlink:title=" ">
<polygon fill="none" stroke="black" points="9.5,-0.5 9.5,-19.5 197.5,-19.5 197.5,-0.5 9.5,-0.5"/>
<text text-anchor="middle" x="103.5" y="-7.5" font-family="Helvetica,sans-Serif" font-size="10.00">com.cliffc.aa.HM.HM6.Apply.lookup</text>
</a>
</g>
</g>
<!-- Node1&#45;&gt;Node7 -->
<g id="edge6" class="edge">
<title>Node1&#45;&gt;Node7</title>
<path fill="none" stroke="midnightblue" d="M318.27,-89.51C292.82,-72.11 248.81,-44.32 207,-29 196.46,-25.14 185.02,-22.03 173.72,-19.55"/>
<polygon fill="midnightblue" stroke="midnightblue" points="316.56,-92.58 326.77,-95.4 320.55,-86.83 316.56,-92.58"/>
</g>
</g>
</svg>
