<?xml version="1.0" encoding="UTF-8" standalone="no"?>
<!DOCTYPE svg PUBLIC "-//W3C//DTD SVG 1.1//EN"
 "http://www.w3.org/Graphics/SVG/1.1/DTD/svg11.dtd">
<!-- Generated by graphviz version 2.43.0 (0)
 -->
<!-- Title: com.cliffc.aa.node.CProjNode.live_use Pages: 1 -->
<svg width="384pt" height="66pt"
 viewBox="0.00 0.00 384.00 66.00" xmlns="http://www.w3.org/2000/svg" xmlns:xlink="http://www.w3.org/1999/xlink">
<g id="graph0" class="graph" transform="scale(1 1) rotate(0) translate(4 62)">
<title>com.cliffc.aa.node.CProjNode.live_use</title>
<!-- Node1 -->
<g id="node1" class="node">
<title>Node1</title>
<g id="a_node1"><a xlink:title=" ">
<polygon fill="#bfbfbf" stroke="black" points="0,-14 0,-44 134,-44 134,-14 0,-14"/>
<text text-anchor="start" x="8" y="-32" font-family="Helvetica,sans-Serif" font-size="10.00">com.cliffc.aa.node.CProj</text>
<text text-anchor="middle" x="67" y="-21" font-family="Helvetica,sans-Serif" font-size="10.00">Node.live_use</text>
</a>
</g>
</g>
<!-- Node2 -->
<g id="node2" class="node">
<title>Node2</title>
<g id="a_node2"><a xlink:href="../../df/db5/a01158.html#a260ab95c10fcb1ccf5f4845aedbb929f" target="_top" xlink:title=" ">
<polygon fill="none" stroke="black" points="186.5,-38.5 186.5,-57.5 359.5,-57.5 359.5,-38.5 186.5,-38.5"/>
<text text-anchor="middle" x="273" y="-45.5" font-family="Helvetica,sans-Serif" font-size="10.00">com.cliffc.aa.node.Node.all_live</text>
</a>
</g>
</g>
<!-- Node1&#45;&gt;Node2 -->
<g id="edge1" class="edge">
<title>Node1&#45;&gt;Node2</title>
<path fill="none" stroke="midnightblue" d="M134.23,-35.17C147.62,-36.42 161.95,-37.75 176.12,-39.07"/>
<polygon fill="midnightblue" stroke="midnightblue" points="176.11,-42.58 186.39,-40.03 176.76,-35.61 176.11,-42.58"/>
</g>
<!-- Node3 -->
<g id="node3" class="node">
<title>Node3</title>
<g id="a_node3"><a xlink:href="../../d6/d51/a01494.html#aedca9fa727944cdfe2b208fd4e260c4d" target="_top" xlink:title=" ">
<polygon fill="none" stroke="black" points="170,-0.5 170,-19.5 376,-19.5 376,-0.5 170,-0.5"/>
<text text-anchor="middle" x="273" y="-7.5" font-family="Helvetica,sans-Serif" font-size="10.00">com.cliffc.aa.type.TypeMem.basic_live</text>
</a>
</g>
</g>
<!-- Node1&#45;&gt;Node3 -->
<g id="edge2" class="edge">
<title>Node1&#45;&gt;Node3</title>
<path fill="none" stroke="midnightblue" d="M134.23,-22.83C142.43,-22.07 150.98,-21.27 159.62,-20.47"/>
<polygon fill="midnightblue" stroke="midnightblue" points="160.17,-23.93 169.81,-19.52 159.52,-16.96 160.17,-23.93"/>
</g>
</g>
</svg>
