<?xml version="1.0" encoding="UTF-8" standalone="no"?>
<!DOCTYPE svg PUBLIC "-//W3C//DTD SVG 1.1//EN"
 "http://www.w3.org/Graphics/SVG/1.1/DTD/svg11.dtd">
<!-- Generated by graphviz version 2.43.0 (0)
 -->
<!-- Title: com.cliffc.aa.util.NonBlockingHashMap.chm Pages: 1 -->
<!--zoomable 717 -->
<svg id="main" version="1.1" xmlns="http://www.w3.org/2000/svg" xmlns:xlink="http://www.w3.org/1999/xlink" xml:space="preserve" onload="init(evt)">
<style type="text/css"><![CDATA[
.edge:hover path { stroke: red; }
.edge:hover polygon { stroke: red; fill: red; }
]]></style>
<script type="text/javascript"><![CDATA[
var edges = document.getElementsByTagName('g');
if (edges && edges.length) {
  for (var i=0;i<edges.length;i++) {
    if (edges[i].id.substr(0,4)=='edge') {
      edges[i].setAttribute('class','edge');
    }
  }
}
]]></script>
        <defs>
                <circle id="rim" cx="0" cy="0" r="7"/>
                <circle id="rim2" cx="0" cy="0" r="3.5"/>
                <g id="zoomPlus">
                        <use xlink:href="#rim" fill="#404040">
                                <set attributeName="fill" to="#808080" begin="zoomplus.mouseover" end="zoomplus.mouseout"/>
                        </use>
                        <path d="M-4,0h8M0,-4v8" fill="none" stroke="white" stroke-width="1.5" pointer-events="none"/>
                </g>
                <g id="zoomMin">
                        <use xlink:href="#rim" fill="#404040">
                                <set attributeName="fill" to="#808080" begin="zoomminus.mouseover" end="zoomminus.mouseout"/>
                        </use>
                        <path d="M-4,0h8" fill="none" stroke="white" stroke-width="1.5" pointer-events="none"/>
                </g>
                <g id="dirArrow">
                        <path fill="none" stroke="white" stroke-width="1.5" d="M0,-3.0v7 M-2.5,-0.5L0,-3.0L2.5,-0.5"/>
                </g>
               <g id="resetDef">
                       <use xlink:href="#rim2" fill="#404040">
                               <set attributeName="fill" to="#808080" begin="reset.mouseover" end="reset.mouseout"/>
                       </use>
               </g>
        </defs>

<script type="text/javascript">
var viewWidth = 815;
var viewHeight = 717;
var sectionId = 'dynsection-7';
</script>
<script xlink:href="../../svgpan.js"/>
<svg id="graph" class="graph">
<g id="viewport">
<title>com.cliffc.aa.util.NonBlockingHashMap.chm</title>
<!-- Node1 -->
<g id="node1" class="node">
<title>Node1</title>
<g id="a_node1"><a xlink:title=" ">
<polygon fill="#bfbfbf" stroke="black" points="645,-388.5 645,-418.5 807,-418.5 807,-388.5 645,-388.5"/>
<text text-anchor="start" x="653" y="-406.5" font-family="Helvetica,sans-Serif" font-size="10.00">com.cliffc.aa.util.NonBlocking</text>
<text text-anchor="middle" x="726" y="-395.5" font-family="Helvetica,sans-Serif" font-size="10.00">HashMap.chm</text>
</a>
</g>
</g>
<!-- Node2 -->
<g id="node2" class="node">
<title>Node2</title>
<g id="a_node2"><a xlink:href="../../d1/d88/a01578.html#a21c3e2311c668431c60603113a2ea36f" target="_top" xlink:title=" ">
<polygon fill="none" stroke="black" points="442,-656.5 442,-708.5 604,-708.5 604,-656.5 442,-656.5"/>
<text text-anchor="start" x="450" y="-696.5" font-family="Helvetica,sans-Serif" font-size="10.00">com.cliffc.aa.util.NonBlocking</text>
<text text-anchor="start" x="450" y="-685.5" font-family="Helvetica,sans-Serif" font-size="10.00">HashMap&lt; com::cliffc::aa</text>
<text text-anchor="start" x="450" y="-674.5" font-family="Helvetica,sans-Serif" font-size="10.00">::type::Type::Key, com::cliffc</text>
<text text-anchor="middle" x="523" y="-663.5" font-family="Helvetica,sans-Serif" font-size="10.00">::aa::type::Type &gt;::_getKey</text>
</a>
</g>
</g>
<!-- Node1&#45;&gt;Node2 -->
<g id="edge1" class="edge">
<title>Node1&#45;&gt;Node2</title>
<path fill="none" stroke="midnightblue" d="M718.78,-428.34C705.84,-475.51 671.83,-578.93 609,-641.5 603.43,-647.05 596.96,-651.96 590.12,-656.27"/>
<polygon fill="midnightblue" stroke="midnightblue" points="722.18,-429.21 721.36,-418.64 715.41,-427.41 722.18,-429.21"/>
</g>
<!-- Node3 -->
<g id="node3" class="node">
<title>Node3</title>
<g id="a_node3"><a xlink:href="../../d2/d2f/a01586.html#a06c8a3a20b51acada744e571b85ad91a" target="_top" xlink:title=" ">
<polygon fill="none" stroke="black" points="437,-432 437,-473 609,-473 609,-432 437,-432"/>
<text text-anchor="start" x="445" y="-461" font-family="Helvetica,sans-Serif" font-size="10.00">com.cliffc.aa.util.NonBlocking</text>
<text text-anchor="start" x="445" y="-450" font-family="Helvetica,sans-Serif" font-size="10.00">HashMap.CHM.copy_check_and</text>
<text text-anchor="middle" x="523" y="-439" font-family="Helvetica,sans-Serif" font-size="10.00">_promote</text>
</a>
</g>
</g>
<!-- Node1&#45;&gt;Node3 -->
<g id="edge2" class="edge">
<title>Node1&#45;&gt;Node3</title>
<path fill="none" stroke="midnightblue" d="M653.35,-420.97C638.7,-424.54 623.17,-428.33 608.13,-431.99"/>
<polygon fill="midnightblue" stroke="midnightblue" points="654.44,-424.3 663.33,-418.53 652.78,-417.5 654.44,-424.3"/>
</g>
<!-- Node4 -->
<g id="node4" class="node">
<title>Node4</title>
<g id="a_node4"><a xlink:href="../../d2/d2f/a01586.html#a3a59a61ee44b01b1fc7a39e9c7e5659b" target="_top" xlink:title=" ">
<polygon fill="none" stroke="black" points="206,-568.5 206,-598.5 401,-598.5 401,-568.5 206,-568.5"/>
<text text-anchor="start" x="214" y="-586.5" font-family="Helvetica,sans-Serif" font-size="10.00">com.cliffc.aa.util.NonBlocking</text>
<text text-anchor="middle" x="303.5" y="-575.5" font-family="Helvetica,sans-Serif" font-size="10.00">HashMap.CHM.copy_slot_and_check</text>
</a>
</g>
</g>
<!-- Node1&#45;&gt;Node4 -->
<g id="edge8" class="edge">
<title>Node1&#45;&gt;Node4</title>
<path fill="none" stroke="midnightblue" d="M713.91,-428.13C696.85,-462.79 660.65,-524.92 609,-553.5 545.9,-588.41 464.1,-594.73 401.17,-592.97"/>
<polygon fill="midnightblue" stroke="midnightblue" points="717.25,-429.26 718.4,-418.73 710.93,-426.24 717.25,-429.26"/>
</g>
<!-- Node5 -->
<g id="node5" class="node">
<title>Node5</title>
<g id="a_node5"><a xlink:href="../../d1/d88/a01578.html#a3bab2e9a84a115e693c549ceca1ec335" target="_top" xlink:title=" ">
<polygon fill="none" stroke="black" points="4,-592.5 4,-644.5 166,-644.5 166,-592.5 4,-592.5"/>
<text text-anchor="start" x="12" y="-632.5" font-family="Helvetica,sans-Serif" font-size="10.00">com.cliffc.aa.util.NonBlocking</text>
<text text-anchor="start" x="12" y="-621.5" font-family="Helvetica,sans-Serif" font-size="10.00">HashMap&lt; com::cliffc::aa</text>
<text text-anchor="start" x="12" y="-610.5" font-family="Helvetica,sans-Serif" font-size="10.00">::type::Type::Key, com::cliffc</text>
<text text-anchor="middle" x="85" y="-599.5" font-family="Helvetica,sans-Serif" font-size="10.00">::aa::type::Type &gt;::get_impl</text>
</a>
</g>
</g>
<!-- Node1&#45;&gt;Node5 -->
<g id="edge9" class="edge">
<title>Node1&#45;&gt;Node5</title>
<path fill="none" stroke="midnightblue" d="M717.23,-428.3C703.02,-469.07 668.68,-549.45 609,-586.5 472.4,-671.31 275.11,-654.26 166.06,-635.58"/>
<polygon fill="midnightblue" stroke="midnightblue" points="720.62,-429.2 720.48,-418.6 713.98,-426.97 720.62,-429.2"/>
</g>
<!-- Node6 -->
<g id="node6" class="node">
<title>Node6</title>
<g id="a_node6"><a xlink:href="../../d1/d88/a01578.html#a5de08e8f6ee1fa095943fae0dda60b7a" target="_top" xlink:title=" ">
<polygon fill="none" stroke="black" points="4,-513.5 4,-565.5 166,-565.5 166,-513.5 4,-513.5"/>
<text text-anchor="start" x="12" y="-553.5" font-family="Helvetica,sans-Serif" font-size="10.00">com.cliffc.aa.util.NonBlocking</text>
<text text-anchor="start" x="12" y="-542.5" font-family="Helvetica,sans-Serif" font-size="10.00">HashMap&lt; com::cliffc::aa</text>
<text text-anchor="start" x="12" y="-531.5" font-family="Helvetica,sans-Serif" font-size="10.00">::type::Type::Key, com::cliffc</text>
<text text-anchor="middle" x="85" y="-520.5" font-family="Helvetica,sans-Serif" font-size="10.00">::aa::type::Type &gt;::putIfMatch</text>
</a>
</g>
</g>
<!-- Node1&#45;&gt;Node6 -->
<g id="edge15" class="edge">
<title>Node1&#45;&gt;Node6</title>
<path fill="none" stroke="midnightblue" d="M707.5,-426.5C686.99,-451.48 650.47,-490.13 609,-507.5 462.38,-568.92 272.23,-561.4 166.3,-550.44"/>
<polygon fill="midnightblue" stroke="midnightblue" points="710.31,-428.59 713.83,-418.6 704.85,-424.21 710.31,-428.59"/>
</g>
<!-- Node7 -->
<g id="node7" class="node">
<title>Node7</title>
<g id="a_node7"><a xlink:href="../../d2/d2f/a01586.html#a73e0c5ac08432006230f0252afae721c" target="_top" xlink:title=" ">
<polygon fill="none" stroke="black" points="219.5,-394.5 219.5,-424.5 387.5,-424.5 387.5,-394.5 219.5,-394.5"/>
<text text-anchor="start" x="227.5" y="-412.5" font-family="Helvetica,sans-Serif" font-size="10.00">com.cliffc.aa.util.NonBlocking</text>
<text text-anchor="middle" x="303.5" y="-401.5" font-family="Helvetica,sans-Serif" font-size="10.00">HashMap.CHM.help_copy_impl</text>
</a>
</g>
</g>
<!-- Node1&#45;&gt;Node7 -->
<g id="edge12" class="edge">
<title>Node1&#45;&gt;Node7</title>
<path fill="none" stroke="midnightblue" d="M634.77,-404.79C561.44,-405.83 458.83,-407.3 387.52,-408.32"/>
<polygon fill="midnightblue" stroke="midnightblue" points="634.97,-408.29 644.92,-404.64 634.87,-401.29 634.97,-408.29"/>
</g>
<!-- Node8 -->
<g id="node8" class="node">
<title>Node8</title>
<g id="a_node8"><a xlink:href="../../d4/d49/a01590.html#a66d46ddd72ae0152bc455e2e4d91a974" target="_top" xlink:title=" ">
<polygon fill="none" stroke="black" points="0,-372.5 0,-402.5 170,-402.5 170,-372.5 0,-372.5"/>
<text text-anchor="start" x="8" y="-390.5" font-family="Helvetica,sans-Serif" font-size="10.00">com.cliffc.aa.util.NonBlocking</text>
<text text-anchor="middle" x="85" y="-379.5" font-family="Helvetica,sans-Serif" font-size="10.00">HashMap.SnapshotV.SnapshotV</text>
</a>
</g>
</g>
<!-- Node1&#45;&gt;Node8 -->
<g id="edge19" class="edge">
<title>Node1&#45;&gt;Node8</title>
<path fill="none" stroke="midnightblue" d="M634.62,-397.13C569.67,-392.88 479.98,-387.69 401,-385.5 314.37,-383.1 292.66,-384.78 206,-385.5 194.44,-385.6 182.25,-385.74 170.25,-385.92"/>
<polygon fill="midnightblue" stroke="midnightblue" points="634.62,-400.64 644.83,-397.81 635.08,-393.65 634.62,-400.64"/>
</g>
<!-- Node9 -->
<g id="node9" class="node">
<title>Node9</title>
<g id="a_node9"><a xlink:href="../../d1/d88/a01578.html#a279ff4e8be63d9a354b52cc0e708eee6" target="_top" xlink:title=" ">
<polygon fill="none" stroke="black" points="442,-284.5 442,-336.5 604,-336.5 604,-284.5 442,-284.5"/>
<text text-anchor="start" x="450" y="-324.5" font-family="Helvetica,sans-Serif" font-size="10.00">com.cliffc.aa.util.NonBlocking</text>
<text text-anchor="start" x="450" y="-313.5" font-family="Helvetica,sans-Serif" font-size="10.00">HashMap&lt; com::cliffc::aa</text>
<text text-anchor="start" x="450" y="-302.5" font-family="Helvetica,sans-Serif" font-size="10.00">::type::Type::Key, com::cliffc</text>
<text text-anchor="middle" x="523" y="-291.5" font-family="Helvetica,sans-Serif" font-size="10.00">::aa::type::Type &gt;::getk_impl</text>
</a>
</g>
</g>
<!-- Node1&#45;&gt;Node9 -->
<g id="edge10" class="edge">
<title>Node1&#45;&gt;Node9</title>
<path fill="none" stroke="midnightblue" d="M682.98,-384.06C653.19,-370.27 612.88,-351.62 580.31,-336.55"/>
<polygon fill="midnightblue" stroke="midnightblue" points="681.71,-387.33 692.26,-388.35 684.65,-380.98 681.71,-387.33"/>
</g>
<!-- Node10 -->
<g id="node10" class="node">
<title>Node10</title>
<g id="a_node10"><a xlink:href="../../d1/d88/a01578.html#aee9ed5c1410821a369a111421023deec" target="_top" xlink:title=" ">
<polygon fill="none" stroke="black" points="442,-213.5 442,-265.5 604,-265.5 604,-213.5 442,-213.5"/>
<text text-anchor="start" x="450" y="-253.5" font-family="Helvetica,sans-Serif" font-size="10.00">com.cliffc.aa.util.NonBlocking</text>
<text text-anchor="start" x="450" y="-242.5" font-family="Helvetica,sans-Serif" font-size="10.00">HashMap&lt; com::cliffc::aa</text>
<text text-anchor="start" x="450" y="-231.5" font-family="Helvetica,sans-Serif" font-size="10.00">::type::Type::Key, com::cliffc</text>
<text text-anchor="middle" x="523" y="-220.5" font-family="Helvetica,sans-Serif" font-size="10.00">::aa::type::Type &gt;::help_copy</text>
</a>
</g>
</g>
<!-- Node1&#45;&gt;Node10 -->
<g id="edge11" class="edge">
<title>Node1&#45;&gt;Node10</title>
<path fill="none" stroke="midnightblue" d="M708.88,-379.87C688.5,-351.52 650.97,-304.12 609,-274.5 604.44,-271.28 599.53,-268.29 594.46,-265.52"/>
<polygon fill="midnightblue" stroke="midnightblue" points="706.25,-382.21 714.88,-388.36 711.97,-378.17 706.25,-382.21"/>
</g>
<!-- Node11 -->
<g id="node11" class="node">
<title>Node11</title>
<g id="a_node11"><a xlink:href="../../d1/d88/a01578.html#a82f909d380f1f7cfef951b7ac8329d94" target="_top" xlink:title=" ">
<polygon fill="none" stroke="black" points="442,-142.5 442,-194.5 604,-194.5 604,-142.5 442,-142.5"/>
<text text-anchor="start" x="450" y="-182.5" font-family="Helvetica,sans-Serif" font-size="10.00">com.cliffc.aa.util.NonBlocking</text>
<text text-anchor="start" x="450" y="-171.5" font-family="Helvetica,sans-Serif" font-size="10.00">HashMap&lt; com::cliffc::aa</text>
<text text-anchor="start" x="450" y="-160.5" font-family="Helvetica,sans-Serif" font-size="10.00">::type::Type::Key, com::cliffc</text>
<text text-anchor="middle" x="523" y="-149.5" font-family="Helvetica,sans-Serif" font-size="10.00">::aa::type::Type &gt;::print</text>
</a>
</g>
</g>
<!-- Node1&#45;&gt;Node11 -->
<g id="edge13" class="edge">
<title>Node1&#45;&gt;Node11</title>
<path fill="none" stroke="midnightblue" d="M716.73,-378.91C701.6,-337.37 665.72,-253.04 609,-203.5 605.27,-200.25 601.2,-197.27 596.93,-194.54"/>
<polygon fill="midnightblue" stroke="midnightblue" points="713.49,-380.24 720.13,-388.5 720.09,-377.9 713.49,-380.24"/>
</g>
<!-- Node12 -->
<g id="node12" class="node">
<title>Node12</title>
<g id="a_node12"><a xlink:href="../../d1/d88/a01578.html#aba29b0d8df543f7a59129d27f5826c9a" target="_top" xlink:title=" ">
<polygon fill="none" stroke="black" points="442,-71.5 442,-123.5 604,-123.5 604,-71.5 442,-71.5"/>
<text text-anchor="start" x="450" y="-111.5" font-family="Helvetica,sans-Serif" font-size="10.00">com.cliffc.aa.util.NonBlocking</text>
<text text-anchor="start" x="450" y="-100.5" font-family="Helvetica,sans-Serif" font-size="10.00">HashMap&lt; com::cliffc::aa</text>
<text text-anchor="start" x="450" y="-89.5" font-family="Helvetica,sans-Serif" font-size="10.00">::type::Type::Key, com::cliffc</text>
<text text-anchor="middle" x="523" y="-78.5" font-family="Helvetica,sans-Serif" font-size="10.00">::aa::type::Type &gt;::print2</text>
</a>
</g>
</g>
<!-- Node1&#45;&gt;Node12 -->
<g id="edge14" class="edge">
<title>Node1&#45;&gt;Node12</title>
<path fill="none" stroke="midnightblue" d="M720.79,-378.22C710.78,-325.6 680.78,-203.29 609,-132.5 605.7,-129.25 602.07,-126.29 598.2,-123.59"/>
<polygon fill="midnightblue" stroke="midnightblue" points="717.4,-379.14 722.63,-388.35 724.29,-377.89 717.4,-379.14"/>
</g>
<!-- Node13 -->
<g id="node13" class="node">
<title>Node13</title>
<g id="a_node13"><a xlink:href="../../d2/d2f/a01586.html#addb4e95343345696d085ca6f75a990cf" target="_top" xlink:title=" ">
<polygon fill="none" stroke="black" points="222.5,-480.5 222.5,-510.5 384.5,-510.5 384.5,-480.5 222.5,-480.5"/>
<text text-anchor="start" x="230.5" y="-498.5" font-family="Helvetica,sans-Serif" font-size="10.00">com.cliffc.aa.util.NonBlocking</text>
<text text-anchor="middle" x="303.5" y="-487.5" font-family="Helvetica,sans-Serif" font-size="10.00">HashMap.CHM.resize</text>
</a>
</g>
</g>
<!-- Node1&#45;&gt;Node13 -->
<g id="edge16" class="edge">
<title>Node1&#45;&gt;Node13</title>
<path fill="none" stroke="midnightblue" d="M701.8,-425.15C679.8,-444.17 644.84,-470.61 609,-482.5 535.8,-506.78 447.25,-507.63 384.56,-503.85"/>
<polygon fill="midnightblue" stroke="midnightblue" points="704.13,-427.76 709.31,-418.52 699.5,-422.52 704.13,-427.76"/>
</g>
<!-- Node14 -->
<g id="node14" class="node">
<title>Node14</title>
<g id="a_node14"><a xlink:href="../../d1/d88/a01578.html#aca05011f2b72616c600a56f312d321ef" target="_top" xlink:title="Returns the number of key&#45;value mappings in this map.">
<polygon fill="none" stroke="black" points="442,-0.5 442,-52.5 604,-52.5 604,-0.5 442,-0.5"/>
<text text-anchor="start" x="450" y="-40.5" font-family="Helvetica,sans-Serif" font-size="10.00">com.cliffc.aa.util.NonBlocking</text>
<text text-anchor="start" x="450" y="-29.5" font-family="Helvetica,sans-Serif" font-size="10.00">HashMap&lt; com::cliffc::aa</text>
<text text-anchor="start" x="450" y="-18.5" font-family="Helvetica,sans-Serif" font-size="10.00">::type::Type::Key, com::cliffc</text>
<text text-anchor="middle" x="523" y="-7.5" font-family="Helvetica,sans-Serif" font-size="10.00">::aa::type::Type &gt;::size</text>
</a>
</g>
</g>
<!-- Node1&#45;&gt;Node14 -->
<g id="edge18" class="edge">
<title>Node1&#45;&gt;Node14</title>
<path fill="none" stroke="midnightblue" d="M723.4,-378.23C718.17,-316.19 696.42,-154.66 609,-61.5 605.94,-58.24 602.54,-55.28 598.9,-52.58"/>
<polygon fill="midnightblue" stroke="midnightblue" points="719.92,-378.59 724.18,-388.29 726.9,-378.05 719.92,-378.59"/>
</g>
<!-- Node3&#45;&gt;Node4 -->
<g id="edge3" class="edge">
<title>Node3&#45;&gt;Node4</title>
<path fill="none" stroke="midnightblue" d="M478.95,-478.43C434.34,-505.3 366.16,-546.36 329.65,-568.35"/>
<polygon fill="midnightblue" stroke="midnightblue" points="480.78,-481.42 487.54,-473.26 477.16,-475.42 480.78,-481.42"/>
</g>
<!-- Node3&#45;&gt;Node7 -->
<g id="edge6" class="edge">
<title>Node3&#45;&gt;Node7</title>
<path fill="none" stroke="midnightblue" d="M426.87,-433.69C411.4,-430.63 395.56,-427.5 380.62,-424.55"/>
<polygon fill="midnightblue" stroke="midnightblue" points="426.49,-437.18 436.97,-435.69 427.84,-430.32 426.49,-437.18"/>
</g>
<!-- Node4&#45;&gt;Node5 -->
<g id="edge4" class="edge">
<title>Node4&#45;&gt;Node5</title>
<path fill="none" stroke="midnightblue" d="M199.23,-600.2C188.08,-602 176.87,-603.81 166.06,-605.56"/>
<polygon fill="midnightblue" stroke="midnightblue" points="200.11,-603.6 209.43,-598.55 199,-596.69 200.11,-603.6"/>
</g>
<!-- Node4&#45;&gt;Node6 -->
<g id="edge5" class="edge">
<title>Node4&#45;&gt;Node6</title>
<path fill="none" stroke="midnightblue" d="M218.58,-566.45C201.38,-562.95 183.31,-559.28 166.24,-555.81"/>
<polygon fill="midnightblue" stroke="midnightblue" points="218.1,-569.92 228.6,-568.48 219.5,-563.06 218.1,-569.92"/>
</g>
<!-- Node7&#45;&gt;Node8 -->
<g id="edge7" class="edge">
<title>Node7&#45;&gt;Node8</title>
<path fill="none" stroke="midnightblue" d="M209.14,-400.01C196.23,-398.7 183.03,-397.36 170.3,-396.07"/>
<polygon fill="midnightblue" stroke="midnightblue" points="209.11,-403.53 219.41,-401.06 209.82,-396.56 209.11,-403.53"/>
</g>
<!-- Node13&#45;&gt;Node6 -->
<g id="edge17" class="edge">
<title>Node13&#45;&gt;Node6</title>
<path fill="none" stroke="midnightblue" d="M218.58,-512.55C201.38,-516.05 183.31,-519.72 166.24,-523.19"/>
<polygon fill="midnightblue" stroke="midnightblue" points="219.5,-515.94 228.6,-510.52 218.1,-509.08 219.5,-515.94"/>
</g>
</g>
</svg>
        <g id="navigator" transform="translate(0 0)" fill="#404254">
                <rect fill="#f2f5e9" fill-opacity="0.5" stroke="#606060" stroke-width=".5" x="0" y="0" width="60" height="60"/>
                <use id="zoomplus" xlink:href="#zoomPlus" x="17" y="9" onmousedown="handleZoom(evt,'in')"/>
                <use id="zoomminus" xlink:href="#zoomMin" x="42" y="9" onmousedown="handleZoom(evt,'out')"/>
                <use id="reset" xlink:href="#resetDef" x="30" y="36" onmousedown="handleReset()"/>
                <g id="arrowUp" xlink:href="#dirArrow" transform="translate(30 24)" onmousedown="handlePan(0,-1)">
                  <use xlink:href="#rim" fill="#404040">
                        <set attributeName="fill" to="#808080" begin="arrowUp.mouseover" end="arrowUp.mouseout"/>
                  </use>
                  <path fill="none" stroke="white" stroke-width="1.5" d="M0,-3.0v7 M-2.5,-0.5L0,-3.0L2.5,-0.5"/>
                </g>
                <g id="arrowRight" xlink:href="#dirArrow" transform="rotate(90) translate(36 -43)" onmousedown="handlePan(1,0)">
                  <use xlink:href="#rim" fill="#404040">
                        <set attributeName="fill" to="#808080" begin="arrowRight.mouseover" end="arrowRight.mouseout"/>
                  </use>
                  <path fill="none" stroke="white" stroke-width="1.5" d="M0,-3.0v7 M-2.5,-0.5L0,-3.0L2.5,-0.5"/>
                </g>
                <g id="arrowDown" xlink:href="#dirArrow" transform="rotate(180) translate(-30 -48)" onmousedown="handlePan(0,1)">
                  <use xlink:href="#rim" fill="#404040">
                        <set attributeName="fill" to="#808080" begin="arrowDown.mouseover" end="arrowDown.mouseout"/>
                  </use>
                  <path fill="none" stroke="white" stroke-width="1.5" d="M0,-3.0v7 M-2.5,-0.5L0,-3.0L2.5,-0.5"/>
                </g>
                <g id="arrowLeft" xlink:href="#dirArrow" transform="rotate(270) translate(-36 17)" onmousedown="handlePan(-1,0)">
                  <use xlink:href="#rim" fill="#404040">
                        <set attributeName="fill" to="#808080" begin="arrowLeft.mouseover" end="arrowLeft.mouseout"/>
                  </use>
                  <path fill="none" stroke="white" stroke-width="1.5" d="M0,-3.0v7 M-2.5,-0.5L0,-3.0L2.5,-0.5"/>
                </g>
        </g>
        <svg viewBox="0 0 15 15" width="100%" height="30px" preserveAspectRatio="xMaxYMin meet">
         <g id="arrow_out" transform="scale(0.3 0.3)">
          <a xlink:href="a01578_a115294c7aac1ca8f3439ce725c0b025d_icgraph_org.svg" target="_base">
           <rect id="button" ry="5" rx="5" y="6" x="6" height="38" width="38"
                fill="#f2f5e9" fill-opacity="0.5" stroke="#606060" stroke-width="1.0"/>
           <path id="arrow"
             d="M 11.500037,31.436501 C 11.940474,20.09759 22.043105,11.32322 32.158766,21.979434 L 37.068811,17.246167 C 37.068811,17.246167 37.088388,32 37.088388,32 L 22.160133,31.978069 C 22.160133,31.978069 26.997745,27.140456 26.997745,27.140456 C 18.528582,18.264221 13.291696,25.230495 11.500037,31.436501 z"
             style="fill:#404040;"/>
          </a>
         </g>
        </svg>
</svg>
