<?xml version="1.0" encoding="UTF-8" standalone="no"?>
<!DOCTYPE svg PUBLIC "-//W3C//DTD SVG 1.1//EN"
 "http://www.w3.org/Graphics/SVG/1.1/DTD/svg11.dtd">
<!-- Generated by graphviz version 2.43.0 (0)
 -->
<!-- Title: com.cliffc.aa.util.NonBlockingHashMap.containsValue Pages: 1 -->
<svg width="368pt" height="132pt"
 viewBox="0.00 0.00 368.00 132.00" xmlns="http://www.w3.org/2000/svg" xmlns:xlink="http://www.w3.org/1999/xlink">
<g id="graph0" class="graph" transform="scale(1 1) rotate(0) translate(4 128)">
<title>com.cliffc.aa.util.NonBlockingHashMap.containsValue</title>
<!-- Node1 -->
<g id="node1" class="node">
<title>Node1</title>
<g id="a_node1"><a xlink:title="Returns true if this Map maps one or more keys to the specified value.">
<polygon fill="#bfbfbf" stroke="black" points="198,-46.5 198,-76.5 360,-76.5 360,-46.5 198,-46.5"/>
<text text-anchor="start" x="206" y="-64.5" font-family="Helvetica,sans-Serif" font-size="10.00">com.cliffc.aa.util.NonBlocking</text>
<text text-anchor="middle" x="279" y="-53.5" font-family="Helvetica,sans-Serif" font-size="10.00">HashMap.containsValue</text>
</a>
</g>
</g>
<!-- Node2 -->
<g id="node2" class="node">
<title>Node2</title>
<g id="a_node2"><a xlink:href="../../d1/d88/a01578.html#a67e50dd4a2bb1a50cc21427052074825" target="_top" xlink:title="Legacy method testing if some key maps into the specified value in this table.">
<polygon fill="none" stroke="black" points="0,-71.5 0,-123.5 162,-123.5 162,-71.5 0,-71.5"/>
<text text-anchor="start" x="8" y="-111.5" font-family="Helvetica,sans-Serif" font-size="10.00">com.cliffc.aa.util.NonBlocking</text>
<text text-anchor="start" x="8" y="-100.5" font-family="Helvetica,sans-Serif" font-size="10.00">HashMap&lt; com::cliffc::aa</text>
<text text-anchor="start" x="8" y="-89.5" font-family="Helvetica,sans-Serif" font-size="10.00">::type::Type::Key, com::cliffc</text>
<text text-anchor="middle" x="81" y="-78.5" font-family="Helvetica,sans-Serif" font-size="10.00">::aa::type::Type &gt;::contains</text>
</a>
</g>
</g>
<!-- Node1&#45;&gt;Node2 -->
<g id="edge1" class="edge">
<title>Node1&#45;&gt;Node2</title>
<path fill="none" stroke="midnightblue" d="M187.92,-78.04C179.3,-79.63 170.59,-81.23 162.07,-82.79"/>
<polygon fill="midnightblue" stroke="midnightblue" points="188.79,-81.44 198,-76.19 187.53,-74.56 188.79,-81.44"/>
</g>
<!-- Node3 -->
<g id="node3" class="node">
<title>Node3</title>
<g id="a_node3"><a xlink:href="../../d1/d88/a01578.html#a1ea275e426eccf899ad2f0e03f64728b" target="_top" xlink:title="Returns a Collection view of the values contained in this map.">
<polygon fill="none" stroke="black" points="0,-0.5 0,-52.5 162,-52.5 162,-0.5 0,-0.5"/>
<text text-anchor="start" x="8" y="-40.5" font-family="Helvetica,sans-Serif" font-size="10.00">com.cliffc.aa.util.NonBlocking</text>
<text text-anchor="start" x="8" y="-29.5" font-family="Helvetica,sans-Serif" font-size="10.00">HashMap&lt; com::cliffc::aa</text>
<text text-anchor="start" x="8" y="-18.5" font-family="Helvetica,sans-Serif" font-size="10.00">::type::Type::Key, com::cliffc</text>
<text text-anchor="middle" x="81" y="-7.5" font-family="Helvetica,sans-Serif" font-size="10.00">::aa::type::Type &gt;::values</text>
</a>
</g>
</g>
<!-- Node1&#45;&gt;Node3 -->
<g id="edge2" class="edge">
<title>Node1&#45;&gt;Node3</title>
<path fill="none" stroke="midnightblue" d="M187.92,-45.41C179.3,-43.87 170.59,-42.32 162.07,-40.8"/>
<polygon fill="midnightblue" stroke="midnightblue" points="187.54,-48.9 198,-47.21 188.77,-42.01 187.54,-48.9"/>
</g>
</g>
</svg>
