<?xml version="1.0" encoding="UTF-8" standalone="no"?>
<!DOCTYPE svg PUBLIC "-//W3C//DTD SVG 1.1//EN"
 "http://www.w3.org/Graphics/SVG/1.1/DTD/svg11.dtd">
<!-- Generated by graphviz version 2.43.0 (0)
 -->
<!-- Title: com.cliffc.aa.util.NonBlockingHashMap.len Pages: 1 -->
<!--zoomable 706 -->
<svg id="main" version="1.1" xmlns="http://www.w3.org/2000/svg" xmlns:xlink="http://www.w3.org/1999/xlink" xml:space="preserve" onload="init(evt)">
<style type="text/css"><![CDATA[
.edge:hover path { stroke: red; }
.edge:hover polygon { stroke: red; fill: red; }
]]></style>
<script type="text/javascript"><![CDATA[
var edges = document.getElementsByTagName('g');
if (edges && edges.length) {
  for (var i=0;i<edges.length;i++) {
    if (edges[i].id.substr(0,4)=='edge') {
      edges[i].setAttribute('class','edge');
    }
  }
}
]]></script>
        <defs>
                <circle id="rim" cx="0" cy="0" r="7"/>
                <circle id="rim2" cx="0" cy="0" r="3.5"/>
                <g id="zoomPlus">
                        <use xlink:href="#rim" fill="#404040">
                                <set attributeName="fill" to="#808080" begin="zoomplus.mouseover" end="zoomplus.mouseout"/>
                        </use>
                        <path d="M-4,0h8M0,-4v8" fill="none" stroke="white" stroke-width="1.5" pointer-events="none"/>
                </g>
                <g id="zoomMin">
                        <use xlink:href="#rim" fill="#404040">
                                <set attributeName="fill" to="#808080" begin="zoomminus.mouseover" end="zoomminus.mouseout"/>
                        </use>
                        <path d="M-4,0h8" fill="none" stroke="white" stroke-width="1.5" pointer-events="none"/>
                </g>
                <g id="dirArrow">
                        <path fill="none" stroke="white" stroke-width="1.5" d="M0,-3.0v7 M-2.5,-0.5L0,-3.0L2.5,-0.5"/>
                </g>
               <g id="resetDef">
                       <use xlink:href="#rim2" fill="#404040">
                               <set attributeName="fill" to="#808080" begin="reset.mouseover" end="reset.mouseout"/>
                       </use>
               </g>
        </defs>

<script type="text/javascript">
var viewWidth = 827;
var viewHeight = 706;
var sectionId = 'dynsection-23';
</script>
<script xlink:href="../../svgpan.js"/>
<svg id="graph" class="graph">
<g id="viewport">
<title>com.cliffc.aa.util.NonBlockingHashMap.len</title>
<!-- Node1 -->
<g id="node1" class="node">
<title>Node1</title>
<g id="a_node1"><a xlink:title=" ">
<polygon fill="#bfbfbf" stroke="black" points="657,-352.5 657,-382.5 819,-382.5 819,-352.5 657,-352.5"/>
<text text-anchor="start" x="665" y="-370.5" font-family="Helvetica,sans-Serif" font-size="10.00">com.cliffc.aa.util.NonBlocking</text>
<text text-anchor="middle" x="738" y="-359.5" font-family="Helvetica,sans-Serif" font-size="10.00">HashMap.len</text>
</a>
</g>
</g>
<!-- Node2 -->
<g id="node2" class="node">
<title>Node2</title>
<g id="a_node2"><a xlink:href="../../d1/d88/a01578.html#a21c3e2311c668431c60603113a2ea36f" target="_top" xlink:title=" ">
<polygon fill="none" stroke="black" points="453.5,-645.5 453.5,-697.5 615.5,-697.5 615.5,-645.5 453.5,-645.5"/>
<text text-anchor="start" x="461.5" y="-685.5" font-family="Helvetica,sans-Serif" font-size="10.00">com.cliffc.aa.util.NonBlocking</text>
<text text-anchor="start" x="461.5" y="-674.5" font-family="Helvetica,sans-Serif" font-size="10.00">HashMap&lt; com::cliffc::aa</text>
<text text-anchor="start" x="461.5" y="-663.5" font-family="Helvetica,sans-Serif" font-size="10.00">::type::Type::Key, com::cliffc</text>
<text text-anchor="middle" x="534.5" y="-652.5" font-family="Helvetica,sans-Serif" font-size="10.00">::aa::type::Type &gt;::_getKey</text>
</a>
</g>
</g>
<!-- Node1&#45;&gt;Node2 -->
<g id="edge1" class="edge">
<title>Node1&#45;&gt;Node2</title>
<path fill="none" stroke="midnightblue" d="M732.1,-392.45C720.92,-443.34 689.08,-560.23 621,-630.5 615.62,-636.06 609.33,-640.96 602.65,-645.25"/>
<polygon fill="midnightblue" stroke="midnightblue" points="735.53,-393.14 734.17,-382.63 728.68,-391.69 735.53,-393.14"/>
</g>
<!-- Node3 -->
<g id="node3" class="node">
<title>Node3</title>
<g id="a_node3"><a xlink:href="../../d2/d2f/a01586.html#a06c8a3a20b51acada744e571b85ad91a" target="_top" xlink:title=" ">
<polygon fill="none" stroke="black" points="448.5,-372 448.5,-413 620.5,-413 620.5,-372 448.5,-372"/>
<text text-anchor="start" x="456.5" y="-401" font-family="Helvetica,sans-Serif" font-size="10.00">com.cliffc.aa.util.NonBlocking</text>
<text text-anchor="start" x="456.5" y="-390" font-family="Helvetica,sans-Serif" font-size="10.00">HashMap.CHM.copy_check_and</text>
<text text-anchor="middle" x="534.5" y="-379" font-family="Helvetica,sans-Serif" font-size="10.00">_promote</text>
</a>
</g>
</g>
<!-- Node1&#45;&gt;Node3 -->
<g id="edge2" class="edge">
<title>Node1&#45;&gt;Node3</title>
<path fill="none" stroke="midnightblue" d="M646.7,-378.7C638.06,-379.78 629.32,-380.86 620.73,-381.93"/>
<polygon fill="midnightblue" stroke="midnightblue" points="647.29,-382.16 656.78,-377.45 646.43,-375.21 647.29,-382.16"/>
</g>
<!-- Node5 -->
<g id="node5" class="node">
<title>Node5</title>
<g id="a_node5"><a xlink:href="../../d1/d88/a01578.html#a3bab2e9a84a115e693c549ceca1ec335" target="_top" xlink:title=" ">
<polygon fill="none" stroke="black" points="9.5,-557.5 9.5,-609.5 171.5,-609.5 171.5,-557.5 9.5,-557.5"/>
<text text-anchor="start" x="17.5" y="-597.5" font-family="Helvetica,sans-Serif" font-size="10.00">com.cliffc.aa.util.NonBlocking</text>
<text text-anchor="start" x="17.5" y="-586.5" font-family="Helvetica,sans-Serif" font-size="10.00">HashMap&lt; com::cliffc::aa</text>
<text text-anchor="start" x="17.5" y="-575.5" font-family="Helvetica,sans-Serif" font-size="10.00">::type::Type::Key, com::cliffc</text>
<text text-anchor="middle" x="90.5" y="-564.5" font-family="Helvetica,sans-Serif" font-size="10.00">::aa::type::Type &gt;::get_impl</text>
</a>
</g>
</g>
<!-- Node1&#45;&gt;Node5 -->
<g id="edge8" class="edge">
<title>Node1&#45;&gt;Node5</title>
<path fill="none" stroke="midnightblue" d="M726.83,-392.14C710.24,-429.28 673.81,-499.34 621,-537.5 487.88,-633.71 283.89,-618.36 171.94,-600.08"/>
<polygon fill="midnightblue" stroke="midnightblue" points="730.21,-393.15 730.99,-382.59 723.79,-390.36 730.21,-393.15"/>
</g>
<!-- Node6 -->
<g id="node6" class="node">
<title>Node6</title>
<g id="a_node6"><a xlink:href="../../d1/d88/a01578.html#a5de08e8f6ee1fa095943fae0dda60b7a" target="_top" xlink:title=" ">
<polygon fill="none" stroke="black" points="9.5,-475.5 9.5,-527.5 171.5,-527.5 171.5,-475.5 9.5,-475.5"/>
<text text-anchor="start" x="17.5" y="-515.5" font-family="Helvetica,sans-Serif" font-size="10.00">com.cliffc.aa.util.NonBlocking</text>
<text text-anchor="start" x="17.5" y="-504.5" font-family="Helvetica,sans-Serif" font-size="10.00">HashMap&lt; com::cliffc::aa</text>
<text text-anchor="start" x="17.5" y="-493.5" font-family="Helvetica,sans-Serif" font-size="10.00">::type::Type::Key, com::cliffc</text>
<text text-anchor="middle" x="90.5" y="-482.5" font-family="Helvetica,sans-Serif" font-size="10.00">::aa::type::Type &gt;::putIfMatch</text>
</a>
</g>
</g>
<!-- Node1&#45;&gt;Node6 -->
<g id="edge19" class="edge">
<title>Node1&#45;&gt;Node6</title>
<path fill="none" stroke="midnightblue" d="M712.51,-389.23C690.3,-407.59 655.79,-432.85 621,-445.5 540.42,-474.79 298.6,-491.04 171.52,-497.76"/>
<polygon fill="midnightblue" stroke="midnightblue" points="715.01,-391.7 720.4,-382.58 710.5,-386.35 715.01,-391.7"/>
</g>
<!-- Node7 -->
<g id="node7" class="node">
<title>Node7</title>
<g id="a_node7"><a xlink:href="../../d2/d2f/a01586.html#a73e0c5ac08432006230f0252afae721c" target="_top" xlink:title=" ">
<polygon fill="none" stroke="black" points="230.5,-352.5 230.5,-382.5 398.5,-382.5 398.5,-352.5 230.5,-352.5"/>
<text text-anchor="start" x="238.5" y="-370.5" font-family="Helvetica,sans-Serif" font-size="10.00">com.cliffc.aa.util.NonBlocking</text>
<text text-anchor="middle" x="314.5" y="-359.5" font-family="Helvetica,sans-Serif" font-size="10.00">HashMap.CHM.help_copy_impl</text>
</a>
</g>
</g>
<!-- Node1&#45;&gt;Node7 -->
<g id="edge10" class="edge">
<title>Node1&#45;&gt;Node7</title>
<path fill="none" stroke="midnightblue" d="M646.66,-363.23C637.99,-362.93 629.33,-362.68 621,-362.5 544.13,-360.84 524.88,-361.05 448,-362.5 432,-362.8 414.93,-363.31 398.54,-363.89"/>
<polygon fill="midnightblue" stroke="midnightblue" points="646.71,-366.73 656.83,-363.59 646.96,-359.74 646.71,-366.73"/>
</g>
<!-- Node9 -->
<g id="node9" class="node">
<title>Node9</title>
<g id="a_node9"><a xlink:href="../../d1/d88/a01578.html#a279ff4e8be63d9a354b52cc0e708eee6" target="_top" xlink:title=" ">
<polygon fill="none" stroke="black" points="453.5,-213.5 453.5,-265.5 615.5,-265.5 615.5,-213.5 453.5,-213.5"/>
<text text-anchor="start" x="461.5" y="-253.5" font-family="Helvetica,sans-Serif" font-size="10.00">com.cliffc.aa.util.NonBlocking</text>
<text text-anchor="start" x="461.5" y="-242.5" font-family="Helvetica,sans-Serif" font-size="10.00">HashMap&lt; com::cliffc::aa</text>
<text text-anchor="start" x="461.5" y="-231.5" font-family="Helvetica,sans-Serif" font-size="10.00">::type::Type::Key, com::cliffc</text>
<text text-anchor="middle" x="534.5" y="-220.5" font-family="Helvetica,sans-Serif" font-size="10.00">::aa::type::Type &gt;::getk_impl</text>
</a>
</g>
</g>
<!-- Node1&#45;&gt;Node9 -->
<g id="edge9" class="edge">
<title>Node1&#45;&gt;Node9</title>
<path fill="none" stroke="midnightblue" d="M713.55,-345.31C691.12,-324.94 655.67,-294.91 621,-274.5 615.75,-271.41 610.17,-268.46 604.48,-265.69"/>
<polygon fill="midnightblue" stroke="midnightblue" points="711.47,-348.15 721.2,-352.34 716.21,-343 711.47,-348.15"/>
</g>
<!-- Node10 -->
<g id="node10" class="node">
<title>Node10</title>
<g id="a_node10"><a xlink:href="../../d4/d49/a01590.html#aaa1f9ba5e17c5ee93a48ab088c1758a4" target="_top" xlink:title=" ">
<polygon fill="none" stroke="black" points="453.5,-284.5 453.5,-314.5 615.5,-314.5 615.5,-284.5 453.5,-284.5"/>
<text text-anchor="start" x="461.5" y="-302.5" font-family="Helvetica,sans-Serif" font-size="10.00">com.cliffc.aa.util.NonBlocking</text>
<text text-anchor="middle" x="534.5" y="-291.5" font-family="Helvetica,sans-Serif" font-size="10.00">HashMap.SnapshotV.length</text>
</a>
</g>
</g>
<!-- Node1&#45;&gt;Node10 -->
<g id="edge11" class="edge">
<title>Node1&#45;&gt;Node10</title>
<path fill="none" stroke="midnightblue" d="M682.59,-349.14C650.48,-338.3 610.33,-324.75 580.09,-314.55"/>
<polygon fill="midnightblue" stroke="midnightblue" points="681.69,-352.53 692.28,-352.41 683.92,-345.89 681.69,-352.53"/>
</g>
<!-- Node15 -->
<g id="node15" class="node">
<title>Node15</title>
<g id="a_node15"><a xlink:href="../../d1/d88/a01578.html#a82f909d380f1f7cfef951b7ac8329d94" target="_top" xlink:title=" ">
<polygon fill="none" stroke="black" points="453.5,-142.5 453.5,-194.5 615.5,-194.5 615.5,-142.5 453.5,-142.5"/>
<text text-anchor="start" x="461.5" y="-182.5" font-family="Helvetica,sans-Serif" font-size="10.00">com.cliffc.aa.util.NonBlocking</text>
<text text-anchor="start" x="461.5" y="-171.5" font-family="Helvetica,sans-Serif" font-size="10.00">HashMap&lt; com::cliffc::aa</text>
<text text-anchor="start" x="461.5" y="-160.5" font-family="Helvetica,sans-Serif" font-size="10.00">::type::Type::Key, com::cliffc</text>
<text text-anchor="middle" x="534.5" y="-149.5" font-family="Helvetica,sans-Serif" font-size="10.00">::aa::type::Type &gt;::print</text>
</a>
</g>
</g>
<!-- Node1&#45;&gt;Node15 -->
<g id="edge17" class="edge">
<title>Node1&#45;&gt;Node15</title>
<path fill="none" stroke="midnightblue" d="M725.41,-343.09C707.55,-307.83 670.15,-242.59 621,-203.5 616.98,-200.31 612.63,-197.36 608.1,-194.66"/>
<polygon fill="midnightblue" stroke="midnightblue" points="722.35,-344.79 729.92,-352.2 728.62,-341.68 722.35,-344.79"/>
</g>
<!-- Node16 -->
<g id="node16" class="node">
<title>Node16</title>
<g id="a_node16"><a xlink:href="../../d1/d88/a01578.html#aba29b0d8df543f7a59129d27f5826c9a" target="_top" xlink:title=" ">
<polygon fill="none" stroke="black" points="453.5,-71.5 453.5,-123.5 615.5,-123.5 615.5,-71.5 453.5,-71.5"/>
<text text-anchor="start" x="461.5" y="-111.5" font-family="Helvetica,sans-Serif" font-size="10.00">com.cliffc.aa.util.NonBlocking</text>
<text text-anchor="start" x="461.5" y="-100.5" font-family="Helvetica,sans-Serif" font-size="10.00">HashMap&lt; com::cliffc::aa</text>
<text text-anchor="start" x="461.5" y="-89.5" font-family="Helvetica,sans-Serif" font-size="10.00">::type::Type::Key, com::cliffc</text>
<text text-anchor="middle" x="534.5" y="-78.5" font-family="Helvetica,sans-Serif" font-size="10.00">::aa::type::Type &gt;::print2</text>
</a>
</g>
</g>
<!-- Node1&#45;&gt;Node16 -->
<g id="edge18" class="edge">
<title>Node1&#45;&gt;Node16</title>
<path fill="none" stroke="midnightblue" d="M731.03,-342.62C718.51,-295.45 685.2,-192.35 621,-132.5 617.6,-129.33 613.87,-126.43 609.93,-123.77"/>
<polygon fill="midnightblue" stroke="midnightblue" points="727.65,-343.51 733.52,-352.32 734.43,-341.77 727.65,-343.51"/>
</g>
<!-- Node17 -->
<g id="node17" class="node">
<title>Node17</title>
<g id="a_node17"><a xlink:href="../../d1/d88/a01578.html#ad36952c53870f9307338b1c5a4bf9258" target="_top" xlink:title=" ">
<polygon fill="none" stroke="black" points="448,-0.5 448,-52.5 621,-52.5 621,-0.5 448,-0.5"/>
<text text-anchor="start" x="456" y="-40.5" font-family="Helvetica,sans-Serif" font-size="10.00">com.cliffc.aa.util.NonBlocking</text>
<text text-anchor="start" x="456" y="-29.5" font-family="Helvetica,sans-Serif" font-size="10.00">HashMap&lt; com::cliffc::aa</text>
<text text-anchor="start" x="456" y="-18.5" font-family="Helvetica,sans-Serif" font-size="10.00">::type::Type::Key, com::cliffc</text>
<text text-anchor="middle" x="534.5" y="-7.5" font-family="Helvetica,sans-Serif" font-size="10.00">::aa::type::Type &gt;::reprobe_limit</text>
</a>
</g>
</g>
<!-- Node1&#45;&gt;Node17 -->
<g id="edge20" class="edge">
<title>Node1&#45;&gt;Node17</title>
<path fill="none" stroke="midnightblue" d="M734.22,-342.16C726.64,-284.69 700.52,-143.13 621,-61.5 617.87,-58.28 614.4,-55.35 610.7,-52.68"/>
<polygon fill="midnightblue" stroke="midnightblue" points="730.76,-342.69 735.47,-352.18 737.71,-341.83 730.76,-342.69"/>
</g>
<!-- Node18 -->
<g id="node18" class="node">
<title>Node18</title>
<g id="a_node18"><a xlink:href="../../d2/d2f/a01586.html#addb4e95343345696d085ca6f75a990cf" target="_top" xlink:title=" ">
<polygon fill="none" stroke="black" points="233.5,-420.5 233.5,-450.5 395.5,-450.5 395.5,-420.5 233.5,-420.5"/>
<text text-anchor="start" x="241.5" y="-438.5" font-family="Helvetica,sans-Serif" font-size="10.00">com.cliffc.aa.util.NonBlocking</text>
<text text-anchor="middle" x="314.5" y="-427.5" font-family="Helvetica,sans-Serif" font-size="10.00">HashMap.CHM.resize</text>
</a>
</g>
</g>
<!-- Node1&#45;&gt;Node18 -->
<g id="edge21" class="edge">
<title>Node1&#45;&gt;Node18</title>
<path fill="none" stroke="midnightblue" d="M703.94,-387.56C681.43,-400.1 650.47,-415.2 621,-422.5 546.15,-441.03 457.89,-442.71 395.53,-440.71"/>
<polygon fill="midnightblue" stroke="midnightblue" points="705.78,-390.54 712.74,-382.55 702.32,-384.46 705.78,-390.54"/>
</g>
<!-- Node19 -->
<g id="node19" class="node">
<title>Node19</title>
<g id="a_node19"><a xlink:href="../../d2/d2f/a01586.html#addfa938dafe9243e09aa6d5268980bed" target="_top" xlink:title=" ">
<polygon fill="none" stroke="black" points="233.5,-557.5 233.5,-587.5 395.5,-587.5 395.5,-557.5 233.5,-557.5"/>
<text text-anchor="start" x="241.5" y="-575.5" font-family="Helvetica,sans-Serif" font-size="10.00">com.cliffc.aa.util.NonBlocking</text>
<text text-anchor="middle" x="314.5" y="-564.5" font-family="Helvetica,sans-Serif" font-size="10.00">HashMap.CHM.tableFull</text>
</a>
</g>
</g>
<!-- Node1&#45;&gt;Node19 -->
<g id="edge23" class="edge">
<title>Node1&#45;&gt;Node19</title>
<path fill="none" stroke="midnightblue" d="M721.37,-391.5C701.48,-420.12 664.44,-467.34 621,-493.5 551.54,-535.33 460.29,-555.19 395.65,-564.51"/>
<polygon fill="midnightblue" stroke="midnightblue" points="724.48,-393.15 727.21,-382.92 718.7,-389.22 724.48,-393.15"/>
</g>
<!-- Node4 -->
<g id="node4" class="node">
<title>Node4</title>
<g id="a_node4"><a xlink:href="../../d2/d2f/a01586.html#a3a59a61ee44b01b1fc7a39e9c7e5659b" target="_top" xlink:title=" ">
<polygon fill="none" stroke="black" points="217,-508.5 217,-538.5 412,-538.5 412,-508.5 217,-508.5"/>
<text text-anchor="start" x="225" y="-526.5" font-family="Helvetica,sans-Serif" font-size="10.00">com.cliffc.aa.util.NonBlocking</text>
<text text-anchor="middle" x="314.5" y="-515.5" font-family="Helvetica,sans-Serif" font-size="10.00">HashMap.CHM.copy_slot_and_check</text>
</a>
</g>
</g>
<!-- Node3&#45;&gt;Node4 -->
<g id="edge3" class="edge">
<title>Node3&#45;&gt;Node4</title>
<path fill="none" stroke="midnightblue" d="M490.35,-418.43C445.64,-445.3 377.3,-486.36 340.71,-508.35"/>
<polygon fill="midnightblue" stroke="midnightblue" points="492.19,-421.41 498.96,-413.26 488.58,-415.41 492.19,-421.41"/>
</g>
<!-- Node3&#45;&gt;Node7 -->
<g id="edge6" class="edge">
<title>Node3&#45;&gt;Node7</title>
<path fill="none" stroke="midnightblue" d="M438.23,-381.57C425,-380.06 411.5,-378.51 398.52,-377.02"/>
<polygon fill="midnightblue" stroke="midnightblue" points="437.95,-385.06 448.28,-382.73 438.74,-378.11 437.95,-385.06"/>
</g>
<!-- Node4&#45;&gt;Node5 -->
<g id="edge4" class="edge">
<title>Node4&#45;&gt;Node5</title>
<path fill="none" stroke="midnightblue" d="M245.02,-541.07C235.6,-543.54 226.05,-546.06 217,-548.5 202.36,-552.44 186.79,-556.71 171.78,-560.87"/>
<polygon fill="midnightblue" stroke="midnightblue" points="245.98,-544.44 254.77,-538.53 244.21,-537.67 245.98,-544.44"/>
</g>
<!-- Node4&#45;&gt;Node6 -->
<g id="edge5" class="edge">
<title>Node4&#45;&gt;Node6</title>
<path fill="none" stroke="midnightblue" d="M206.49,-512.9C194.75,-511.73 182.95,-510.56 171.62,-509.44"/>
<polygon fill="midnightblue" stroke="midnightblue" points="206.48,-516.41 216.77,-513.91 207.17,-509.45 206.48,-516.41"/>
</g>
<!-- Node8 -->
<g id="node8" class="node">
<title>Node8</title>
<g id="a_node8"><a xlink:href="../../d4/d49/a01590.html#a66d46ddd72ae0152bc455e2e4d91a974" target="_top" xlink:title=" ">
<polygon fill="none" stroke="black" points="5.5,-352.5 5.5,-382.5 175.5,-382.5 175.5,-352.5 5.5,-352.5"/>
<text text-anchor="start" x="13.5" y="-370.5" font-family="Helvetica,sans-Serif" font-size="10.00">com.cliffc.aa.util.NonBlocking</text>
<text text-anchor="middle" x="90.5" y="-359.5" font-family="Helvetica,sans-Serif" font-size="10.00">HashMap.SnapshotV.SnapshotV</text>
</a>
</g>
</g>
<!-- Node7&#45;&gt;Node8 -->
<g id="edge7" class="edge">
<title>Node7&#45;&gt;Node8</title>
<path fill="none" stroke="midnightblue" d="M220.07,-367.5C205.33,-367.5 190.15,-367.5 175.63,-367.5"/>
<polygon fill="midnightblue" stroke="midnightblue" points="220.2,-371 230.2,-367.5 220.2,-364 220.2,-371"/>
</g>
<!-- Node11 -->
<g id="node11" class="node">
<title>Node11</title>
<g id="a_node11"><a xlink:href="../../d4/d49/a01590.html#ac0ba11b255e33757a1355aa6906620c3" target="_top" xlink:title=" ">
<polygon fill="none" stroke="black" points="233.5,-284.5 233.5,-314.5 395.5,-314.5 395.5,-284.5 233.5,-284.5"/>
<text text-anchor="start" x="241.5" y="-302.5" font-family="Helvetica,sans-Serif" font-size="10.00">com.cliffc.aa.util.NonBlocking</text>
<text text-anchor="middle" x="314.5" y="-291.5" font-family="Helvetica,sans-Serif" font-size="10.00">HashMap.SnapshotV.next</text>
</a>
</g>
</g>
<!-- Node10&#45;&gt;Node11 -->
<g id="edge12" class="edge">
<title>Node10&#45;&gt;Node11</title>
<path fill="none" stroke="midnightblue" d="M443,-299.5C427.27,-299.5 411.01,-299.5 395.58,-299.5"/>
<polygon fill="midnightblue" stroke="midnightblue" points="443.25,-303 453.25,-299.5 443.25,-296 443.25,-303"/>
</g>
<!-- Node11&#45;&gt;Node8 -->
<g id="edge16" class="edge">
<title>Node11&#45;&gt;Node8</title>
<path fill="none" stroke="midnightblue" d="M260.74,-317.81C236.55,-326 207.43,-335.58 181,-343.5 170.98,-346.5 160.28,-349.53 149.89,-352.37"/>
<polygon fill="midnightblue" stroke="midnightblue" points="262.1,-321.04 270.44,-314.51 259.84,-314.42 262.1,-321.04"/>
</g>
<!-- Node12 -->
<g id="node12" class="node">
<title>Node12</title>
<g id="a_node12"><a xlink:href="../../dc/def/a01594.html#a021eb2bbc68b0c1fc1b3f2f89ae80bea" target="_top" xlink:title=" ">
<polygon fill="none" stroke="black" points="9.5,-303.5 9.5,-333.5 171.5,-333.5 171.5,-303.5 9.5,-303.5"/>
<text text-anchor="start" x="17.5" y="-321.5" font-family="Helvetica,sans-Serif" font-size="10.00">com.cliffc.aa.util.NonBlocking</text>
<text text-anchor="middle" x="90.5" y="-310.5" font-family="Helvetica,sans-Serif" font-size="10.00">HashMap.SnapshotK.next</text>
</a>
</g>
</g>
<!-- Node11&#45;&gt;Node12 -->
<g id="edge13" class="edge">
<title>Node11&#45;&gt;Node12</title>
<path fill="none" stroke="midnightblue" d="M223.34,-307.22C206.19,-308.68 188.34,-310.21 171.53,-311.65"/>
<polygon fill="midnightblue" stroke="midnightblue" points="223.69,-310.7 233.35,-306.36 223.09,-303.73 223.69,-310.7"/>
</g>
<!-- Node13 -->
<g id="node13" class="node">
<title>Node13</title>
<g id="a_node13"><a xlink:href="../../d5/dcf/a01602.html#a13893184e97d609ab1c3ca123c3d1ccf" target="_top" xlink:title=" ">
<polygon fill="none" stroke="black" points="9.5,-254.5 9.5,-284.5 171.5,-284.5 171.5,-254.5 9.5,-254.5"/>
<text text-anchor="start" x="17.5" y="-272.5" font-family="Helvetica,sans-Serif" font-size="10.00">com.cliffc.aa.util.NonBlocking</text>
<text text-anchor="middle" x="90.5" y="-261.5" font-family="Helvetica,sans-Serif" font-size="10.00">HashMap.SnapshotE.next</text>
</a>
</g>
</g>
<!-- Node11&#45;&gt;Node13 -->
<g id="edge14" class="edge">
<title>Node11&#45;&gt;Node13</title>
<path fill="none" stroke="midnightblue" d="M223.34,-287.32C206.19,-285 188.34,-282.59 171.53,-280.31"/>
<polygon fill="midnightblue" stroke="midnightblue" points="222.97,-290.8 233.35,-288.67 223.91,-283.86 222.97,-290.8"/>
</g>
<!-- Node14 -->
<g id="node14" class="node">
<title>Node14</title>
<g id="a_node14"><a xlink:href="../../d4/d49/a01590.html#aa9b0c89ee89f249e2695c7ea502a3277" target="_top" xlink:title=" ">
<polygon fill="none" stroke="black" points="0,-205.5 0,-235.5 181,-235.5 181,-205.5 0,-205.5"/>
<text text-anchor="start" x="8" y="-223.5" font-family="Helvetica,sans-Serif" font-size="10.00">com.cliffc.aa.util.NonBlocking</text>
<text text-anchor="middle" x="90.5" y="-212.5" font-family="Helvetica,sans-Serif" font-size="10.00">HashMap.SnapshotV.nextElement</text>
</a>
</g>
</g>
<!-- Node11&#45;&gt;Node14 -->
<g id="edge15" class="edge">
<title>Node11&#45;&gt;Node14</title>
<path fill="none" stroke="midnightblue" d="M271.29,-280.31C245.52,-269.02 211.74,-254.95 181,-244.5 171.71,-241.34 161.76,-238.33 152,-235.56"/>
<polygon fill="midnightblue" stroke="midnightblue" points="270.18,-283.65 280.75,-284.49 273.01,-277.24 270.18,-283.65"/>
</g>
<!-- Node18&#45;&gt;Node6 -->
<g id="edge22" class="edge">
<title>Node18&#45;&gt;Node6</title>
<path fill="none" stroke="midnightblue" d="M253.09,-453.46C227.96,-460.93 198.43,-469.71 171.53,-477.71"/>
<polygon fill="midnightblue" stroke="midnightblue" points="254.26,-456.76 262.85,-450.56 252.26,-450.05 254.26,-456.76"/>
</g>
<!-- Node19&#45;&gt;Node6 -->
<g id="edge24" class="edge">
<title>Node19&#45;&gt;Node6</title>
<path fill="none" stroke="midnightblue" d="M238.6,-554.77C231.27,-552.77 223.97,-550.66 217,-548.5 197.22,-542.36 176.03,-534.81 156.79,-527.57"/>
<polygon fill="midnightblue" stroke="midnightblue" points="238.03,-558.24 248.59,-557.44 239.83,-551.48 238.03,-558.24"/>
</g>
</g>
</svg>
        <g id="navigator" transform="translate(0 0)" fill="#404254">
                <rect fill="#f2f5e9" fill-opacity="0.5" stroke="#606060" stroke-width=".5" x="0" y="0" width="60" height="60"/>
                <use id="zoomplus" xlink:href="#zoomPlus" x="17" y="9" onmousedown="handleZoom(evt,'in')"/>
                <use id="zoomminus" xlink:href="#zoomMin" x="42" y="9" onmousedown="handleZoom(evt,'out')"/>
                <use id="reset" xlink:href="#resetDef" x="30" y="36" onmousedown="handleReset()"/>
                <g id="arrowUp" xlink:href="#dirArrow" transform="translate(30 24)" onmousedown="handlePan(0,-1)">
                  <use xlink:href="#rim" fill="#404040">
                        <set attributeName="fill" to="#808080" begin="arrowUp.mouseover" end="arrowUp.mouseout"/>
                  </use>
                  <path fill="none" stroke="white" stroke-width="1.5" d="M0,-3.0v7 M-2.5,-0.5L0,-3.0L2.5,-0.5"/>
                </g>
                <g id="arrowRight" xlink:href="#dirArrow" transform="rotate(90) translate(36 -43)" onmousedown="handlePan(1,0)">
                  <use xlink:href="#rim" fill="#404040">
                        <set attributeName="fill" to="#808080" begin="arrowRight.mouseover" end="arrowRight.mouseout"/>
                  </use>
                  <path fill="none" stroke="white" stroke-width="1.5" d="M0,-3.0v7 M-2.5,-0.5L0,-3.0L2.5,-0.5"/>
                </g>
                <g id="arrowDown" xlink:href="#dirArrow" transform="rotate(180) translate(-30 -48)" onmousedown="handlePan(0,1)">
                  <use xlink:href="#rim" fill="#404040">
                        <set attributeName="fill" to="#808080" begin="arrowDown.mouseover" end="arrowDown.mouseout"/>
                  </use>
                  <path fill="none" stroke="white" stroke-width="1.5" d="M0,-3.0v7 M-2.5,-0.5L0,-3.0L2.5,-0.5"/>
                </g>
                <g id="arrowLeft" xlink:href="#dirArrow" transform="rotate(270) translate(-36 17)" onmousedown="handlePan(-1,0)">
                  <use xlink:href="#rim" fill="#404040">
                        <set attributeName="fill" to="#808080" begin="arrowLeft.mouseover" end="arrowLeft.mouseout"/>
                  </use>
                  <path fill="none" stroke="white" stroke-width="1.5" d="M0,-3.0v7 M-2.5,-0.5L0,-3.0L2.5,-0.5"/>
                </g>
        </g>
        <svg viewBox="0 0 15 15" width="100%" height="30px" preserveAspectRatio="xMaxYMin meet">
         <g id="arrow_out" transform="scale(0.3 0.3)">
          <a xlink:href="a01578_a6e1835db75a57079b5194e312f8de3d3_icgraph_org.svg" target="_base">
           <rect id="button" ry="5" rx="5" y="6" x="6" height="38" width="38"
                fill="#f2f5e9" fill-opacity="0.5" stroke="#606060" stroke-width="1.0"/>
           <path id="arrow"
             d="M 11.500037,31.436501 C 11.940474,20.09759 22.043105,11.32322 32.158766,21.979434 L 37.068811,17.246167 C 37.068811,17.246167 37.088388,32 37.088388,32 L 22.160133,31.978069 C 22.160133,31.978069 26.997745,27.140456 26.997745,27.140456 C 18.528582,18.264221 13.291696,25.230495 11.500037,31.436501 z"
             style="fill:#404040;"/>
          </a>
         </g>
        </svg>
</svg>
