<?xml version="1.0" encoding="UTF-8" standalone="no"?>
<!DOCTYPE svg PUBLIC "-//W3C//DTD SVG 1.1//EN"
 "http://www.w3.org/Graphics/SVG/1.1/DTD/svg11.dtd">
<!-- Generated by graphviz version 2.43.0 (0)
 -->
<!-- Title: com.cliffc.aa.util.NonBlockingHashMap.get_impl Pages: 1 -->
<svg width="368pt" height="68pt"
 viewBox="0.00 0.00 368.00 68.00" xmlns="http://www.w3.org/2000/svg" xmlns:xlink="http://www.w3.org/1999/xlink">
<g id="graph0" class="graph" transform="scale(1 1) rotate(0) translate(4 64)">
<title>com.cliffc.aa.util.NonBlockingHashMap.get_impl</title>
<!-- Node1 -->
<g id="node1" class="node">
<title>Node1</title>
<g id="a_node1"><a xlink:title=" ">
<polygon fill="#bfbfbf" stroke="black" points="198,-11.5 198,-41.5 360,-41.5 360,-11.5 198,-11.5"/>
<text text-anchor="start" x="206" y="-29.5" font-family="Helvetica,sans-Serif" font-size="10.00">com.cliffc.aa.util.NonBlocking</text>
<text text-anchor="middle" x="279" y="-18.5" font-family="Helvetica,sans-Serif" font-size="10.00">HashMap.get_impl</text>
</a>
</g>
</g>
<!-- Node1&#45;&gt;Node1 -->
<g id="edge2" class="edge">
<title>Node1&#45;&gt;Node1</title>
<path fill="none" stroke="midnightblue" d="M314.18,-51.96C309.82,-56.68 298.09,-60 279,-60 247.68,-60 236.17,-51.06 244.49,-41.66"/>
<polygon fill="midnightblue" stroke="midnightblue" points="317.65,-51.41 313.51,-41.66 310.67,-51.87 317.65,-51.41"/>
</g>
<!-- Node2 -->
<g id="node2" class="node">
<title>Node2</title>
<g id="a_node2"><a xlink:href="../../d1/d88/a01578.html#a2a826f06d155e8bb331a58ac3b65b4ba" target="_top" xlink:title="Returns the value to which the specified key is mapped, or.">
<polygon fill="none" stroke="black" points="0,-0.5 0,-52.5 162,-52.5 162,-0.5 0,-0.5"/>
<text text-anchor="start" x="8" y="-40.5" font-family="Helvetica,sans-Serif" font-size="10.00">com.cliffc.aa.util.NonBlocking</text>
<text text-anchor="start" x="8" y="-29.5" font-family="Helvetica,sans-Serif" font-size="10.00">HashMap&lt; com::cliffc::aa</text>
<text text-anchor="start" x="8" y="-18.5" font-family="Helvetica,sans-Serif" font-size="10.00">::type::Type::Key, com::cliffc</text>
<text text-anchor="middle" x="81" y="-7.5" font-family="Helvetica,sans-Serif" font-size="10.00">::aa::type::Type &gt;::get</text>
</a>
</g>
</g>
<!-- Node1&#45;&gt;Node2 -->
<g id="edge1" class="edge">
<title>Node1&#45;&gt;Node2</title>
<path fill="none" stroke="midnightblue" d="M187.92,-26.5C179.3,-26.5 170.59,-26.5 162.07,-26.5"/>
<polygon fill="midnightblue" stroke="midnightblue" points="188,-30 198,-26.5 188,-23 188,-30"/>
</g>
</g>
</svg>
