<?xml version="1.0" encoding="UTF-8" standalone="no"?>
<!DOCTYPE svg PUBLIC "-//W3C//DTD SVG 1.1//EN"
 "http://www.w3.org/Graphics/SVG/1.1/DTD/svg11.dtd">
<!-- Generated by graphviz version 2.43.0 (0)
 -->
<!-- Title: com.cliffc.aa.HM.HM9.EQ.apply Pages: 1 -->
<svg width="377pt" height="116pt"
 viewBox="0.00 0.00 377.00 115.50" xmlns="http://www.w3.org/2000/svg" xmlns:xlink="http://www.w3.org/1999/xlink">
<g id="graph0" class="graph" transform="scale(1 1) rotate(0) translate(4 111.5)">
<title>com.cliffc.aa.HM.HM9.EQ.apply</title>
<!-- Node1 -->
<g id="node1" class="node">
<title>Node1</title>
<g id="a_node1"><a xlink:title=" ">
<polygon fill="#bfbfbf" stroke="black" points="0,-38.5 0,-57.5 170,-57.5 170,-38.5 0,-38.5"/>
<text text-anchor="middle" x="85" y="-45.5" font-family="Helvetica,sans-Serif" font-size="10.00">com.cliffc.aa.HM.HM9.EQ.apply</text>
</a>
</g>
</g>
<!-- Node2 -->
<g id="node2" class="node">
<title>Node2</title>
<g id="a_node2"><a xlink:href="../../d0/de2/a01442.html#aa714dfa13a9224150753af2d8efde48d" target="_top" xlink:title=" ">
<polygon fill="none" stroke="black" points="206.5,-77 206.5,-107 368.5,-107 368.5,-77 206.5,-77"/>
<text text-anchor="start" x="214.5" y="-95" font-family="Helvetica,sans-Serif" font-size="10.00">com.cliffc.aa.type.Type.above</text>
<text text-anchor="middle" x="287.5" y="-84" font-family="Helvetica,sans-Serif" font-size="10.00">_center</text>
</a>
</g>
</g>
<!-- Node1&#45;&gt;Node2 -->
<g id="edge1" class="edge">
<title>Node1&#45;&gt;Node2</title>
<path fill="none" stroke="midnightblue" d="M129.51,-57.55C152.38,-62.57 181.14,-68.88 207.76,-74.72"/>
<polygon fill="midnightblue" stroke="midnightblue" points="207.33,-78.21 217.85,-76.93 208.83,-71.37 207.33,-78.21"/>
</g>
<!-- Node3 -->
<g id="node3" class="node">
<title>Node3</title>
<g id="a_node3"><a xlink:href="../../d0/de2/a01442.html#a7ae10ba7415e2d2f5a11770c7812a54a" target="_top" xlink:title=" ">
<polygon fill="none" stroke="black" points="211,-38.5 211,-57.5 364,-57.5 364,-38.5 211,-38.5"/>
<text text-anchor="middle" x="287.5" y="-45.5" font-family="Helvetica,sans-Serif" font-size="10.00">com.cliffc.aa.type.Type.dual</text>
</a>
</g>
</g>
<!-- Node1&#45;&gt;Node3 -->
<g id="edge2" class="edge">
<title>Node1&#45;&gt;Node3</title>
<path fill="none" stroke="midnightblue" d="M170.16,-48C180.29,-48 190.64,-48 200.79,-48"/>
<polygon fill="midnightblue" stroke="midnightblue" points="200.85,-51.5 210.85,-48 200.85,-44.5 200.85,-51.5"/>
</g>
<!-- Node4 -->
<g id="node4" class="node">
<title>Node4</title>
<g id="a_node4"><a xlink:href="../../d0/de2/a01442.html#a2d1a737fc331611b5996126d31da26fd" target="_top" xlink:title=" ">
<polygon fill="none" stroke="black" points="206,-0.5 206,-19.5 369,-19.5 369,-0.5 206,-0.5"/>
<text text-anchor="middle" x="287.5" y="-7.5" font-family="Helvetica,sans-Serif" font-size="10.00">com.cliffc.aa.type.Type.is_con</text>
</a>
</g>
</g>
<!-- Node1&#45;&gt;Node4 -->
<g id="edge3" class="edge">
<title>Node1&#45;&gt;Node4</title>
<path fill="none" stroke="midnightblue" d="M136.34,-38.46C163.63,-33.29 197.54,-26.86 226.23,-21.42"/>
<polygon fill="midnightblue" stroke="midnightblue" points="226.97,-24.84 236.14,-19.54 225.67,-17.97 226.97,-24.84"/>
</g>
</g>
</svg>
