<?xml version="1.0" encoding="UTF-8" standalone="no"?>
<!DOCTYPE svg PUBLIC "-//W3C//DTD SVG 1.1//EN"
 "http://www.w3.org/Graphics/SVG/1.1/DTD/svg11.dtd">
<!-- Generated by graphviz version 2.43.0 (0)
 -->
<!-- Title: com.cliffc.aa.type.TypeFlt Pages: 1 -->
<svg width="151pt" height="241pt"
 viewBox="0.00 0.00 150.50 241.00" xmlns="http://www.w3.org/2000/svg" xmlns:xlink="http://www.w3.org/1999/xlink">
<g id="graph0" class="graph" transform="scale(1 1) rotate(0) translate(4 237)">
<title>com.cliffc.aa.type.TypeFlt</title>
<!-- Node1 -->
<g id="node1" class="node">
<title>Node1</title>
<g id="a_node1"><a xlink:title=" ">
<polygon fill="#bfbfbf" stroke="black" points="0.5,-0.5 0.5,-19.5 142.5,-19.5 142.5,-0.5 0.5,-0.5"/>
<text text-anchor="middle" x="71.5" y="-7.5" font-family="Helvetica,sans-Serif" font-size="10.00">com.cliffc.aa.type.TypeFlt</text>
</a>
</g>
</g>
<!-- Node2 -->
<g id="node2" class="node">
<title>Node2</title>
<g id="a_node2"><a xlink:href="../../d0/de2/a01442.html" target="_top" xlink:title=" ">
<polygon fill="none" stroke="black" points="7,-57.5 7,-87.5 136,-87.5 136,-57.5 7,-57.5"/>
<text text-anchor="start" x="15" y="-75.5" font-family="Helvetica,sans-Serif" font-size="10.00">com.cliffc.aa.type.Type</text>
<text text-anchor="middle" x="71.5" y="-64.5" font-family="Helvetica,sans-Serif" font-size="10.00">&lt; TypeFlt &gt;</text>
</a>
</g>
</g>
<!-- Node2&#45;&gt;Node1 -->
<g id="edge1" class="edge">
<title>Node2&#45;&gt;Node1</title>
<path fill="none" stroke="midnightblue" d="M71.5,-47.35C71.5,-37.51 71.5,-26.78 71.5,-19.54"/>
<polygon fill="midnightblue" stroke="midnightblue" points="68,-47.47 71.5,-57.47 75,-47.47 68,-47.47"/>
</g>
<!-- Node3 -->
<g id="node3" class="node">
<title>Node3</title>
<g id="a_node3"><a xlink:href="../../d0/de2/a01442.html" target="_top" xlink:title="an implementation of language AA">
<polygon fill="none" stroke="black" points="6.5,-135.5 6.5,-165.5 136.5,-165.5 136.5,-135.5 6.5,-135.5"/>
<text text-anchor="start" x="14.5" y="-153.5" font-family="Helvetica,sans-Serif" font-size="10.00">com.cliffc.aa.type.Type</text>
<text text-anchor="middle" x="71.5" y="-142.5" font-family="Helvetica,sans-Serif" font-size="10.00">&lt; T extends Type&lt; T &gt;</text>
</a>
</g>
</g>
<!-- Node3&#45;&gt;Node2 -->
<g id="edge2" class="edge">
<title>Node3&#45;&gt;Node2</title>
<path fill="none" stroke="orange" stroke-dasharray="5,2" d="M71.5,-125.09C71.5,-112.76 71.5,-98.22 71.5,-87.73"/>
<polygon fill="orange" stroke="orange" points="68,-125.2 71.5,-135.2 75,-125.21 68,-125.2"/>
<text text-anchor="middle" x="102" y="-109" font-family="Helvetica,sans-Serif" font-size="10.00"> &lt; TypeFlt &gt;</text>
</g>
<!-- Node4 -->
<g id="node4" class="node">
<title>Node4</title>
<g id="a_node4"><a xlink:href="../../d9/d76/a02526.html" target="_top" xlink:title=" ">
<polygon fill="none" stroke="black" points="0,-213.5 0,-232.5 65,-232.5 65,-213.5 0,-213.5"/>
<text text-anchor="middle" x="32.5" y="-220.5" font-family="Helvetica,sans-Serif" font-size="10.00">Cloneable</text>
</a>
</g>
</g>
<!-- Node4&#45;&gt;Node3 -->
<g id="edge3" class="edge">
<title>Node4&#45;&gt;Node3</title>
<path fill="none" stroke="midnightblue" d="M42.28,-204.32C48.91,-192.34 57.55,-176.72 63.71,-165.58"/>
<polygon fill="midnightblue" stroke="midnightblue" points="39.06,-202.91 37.28,-213.36 45.19,-206.3 39.06,-202.91"/>
</g>
<!-- Node5 -->
<g id="node5" class="node">
<title>Node5</title>
<g id="a_node5"><a xlink:href="../../d7/df2/a02322.html" target="_top" xlink:title=" ">
<polygon fill="none" stroke="black" points="83.5,-213.5 83.5,-232.5 139.5,-232.5 139.5,-213.5 83.5,-213.5"/>
<text text-anchor="middle" x="111.5" y="-220.5" font-family="Helvetica,sans-Serif" font-size="10.00">Type&lt; T</text>
</a>
</g>
</g>
<!-- Node5&#45;&gt;Node3 -->
<g id="edge4" class="edge">
<title>Node5&#45;&gt;Node3</title>
<path fill="none" stroke="orange" stroke-dasharray="5,2" d="M101.47,-204.32C94.67,-192.34 85.81,-176.72 79.49,-165.58"/>
<polygon fill="orange" stroke="orange" points="98.62,-206.38 106.6,-213.36 104.7,-202.93 98.62,-206.38"/>
<text text-anchor="middle" x="99.5" y="-187" font-family="Helvetica,sans-Serif" font-size="10.00"> T</text>
</g>
</g>
</svg>
