<?xml version="1.0" encoding="UTF-8" standalone="no"?>
<!DOCTYPE svg PUBLIC "-//W3C//DTD SVG 1.1//EN"
 "http://www.w3.org/Graphics/SVG/1.1/DTD/svg11.dtd">
<!-- Generated by graphviz version 2.43.0 (0)
 -->
<!-- Title: com.cliffc.aa.type.BitsFun.is_parent Pages: 1 -->
<!--zoomable 257 -->
<svg id="main" version="1.1" xmlns="http://www.w3.org/2000/svg" xmlns:xlink="http://www.w3.org/1999/xlink" xml:space="preserve" onload="init(evt)">
<style type="text/css"><![CDATA[
.edge:hover path { stroke: red; }
.edge:hover polygon { stroke: red; fill: red; }
]]></style>
<script type="text/javascript"><![CDATA[
var edges = document.getElementsByTagName('g');
if (edges && edges.length) {
  for (var i=0;i<edges.length;i++) {
    if (edges[i].id.substr(0,4)=='edge') {
      edges[i].setAttribute('class','edge');
    }
  }
}
]]></script>
        <defs>
                <circle id="rim" cx="0" cy="0" r="7"/>
                <circle id="rim2" cx="0" cy="0" r="3.5"/>
                <g id="zoomPlus">
                        <use xlink:href="#rim" fill="#404040">
                                <set attributeName="fill" to="#808080" begin="zoomplus.mouseover" end="zoomplus.mouseout"/>
                        </use>
                        <path d="M-4,0h8M0,-4v8" fill="none" stroke="white" stroke-width="1.5" pointer-events="none"/>
                </g>
                <g id="zoomMin">
                        <use xlink:href="#rim" fill="#404040">
                                <set attributeName="fill" to="#808080" begin="zoomminus.mouseover" end="zoomminus.mouseout"/>
                        </use>
                        <path d="M-4,0h8" fill="none" stroke="white" stroke-width="1.5" pointer-events="none"/>
                </g>
                <g id="dirArrow">
                        <path fill="none" stroke="white" stroke-width="1.5" d="M0,-3.0v7 M-2.5,-0.5L0,-3.0L2.5,-0.5"/>
                </g>
               <g id="resetDef">
                       <use xlink:href="#rim2" fill="#404040">
                               <set attributeName="fill" to="#808080" begin="reset.mouseover" end="reset.mouseout"/>
                       </use>
               </g>
        </defs>

<script type="text/javascript">
var viewWidth = 1010;
var viewHeight = 257;
var sectionId = 'dynsection-8';
</script>
<script xlink:href="../../svgpan.js"/>
<svg id="graph" class="graph">
<g id="viewport">
<title>com.cliffc.aa.type.BitsFun.is_parent</title>
<!-- Node1 -->
<g id="node1" class="node">
<title>Node1</title>
<g id="a_node1"><a xlink:title=" ">
<polygon fill="#bfbfbf" stroke="black" points="848,-82.5 848,-112.5 1002,-112.5 1002,-82.5 848,-82.5"/>
<text text-anchor="start" x="856" y="-100.5" font-family="Helvetica,sans-Serif" font-size="10.00">com.cliffc.aa.type.BitsFun.is</text>
<text text-anchor="middle" x="925" y="-89.5" font-family="Helvetica,sans-Serif" font-size="10.00">_parent</text>
</a>
</g>
</g>
<!-- Node2 -->
<g id="node2" class="node">
<title>Node2</title>
<g id="a_node2"><a xlink:href="../../dc/d81/a01006.html#ae25482952b8921d40650ad9fa679b19b" target="_top" xlink:title=" ">
<polygon fill="none" stroke="black" points="637.5,-128.5 637.5,-158.5 780.5,-158.5 780.5,-128.5 637.5,-128.5"/>
<text text-anchor="start" x="645.5" y="-146.5" font-family="Helvetica,sans-Serif" font-size="10.00">com.cliffc.aa.node.CallEpi</text>
<text text-anchor="middle" x="709" y="-135.5" font-family="Helvetica,sans-Serif" font-size="10.00">Node.check_and_wire</text>
</a>
</g>
</g>
<!-- Node1&#45;&gt;Node2 -->
<g id="edge1" class="edge">
<title>Node1&#45;&gt;Node2</title>
<path fill="none" stroke="midnightblue" d="M844.04,-114.69C822.95,-119.22 800.37,-124.07 779.86,-128.48"/>
<polygon fill="midnightblue" stroke="midnightblue" points="844.89,-118.09 853.93,-112.56 843.42,-111.24 844.89,-118.09"/>
</g>
<!-- Node7 -->
<g id="node7" class="node">
<title>Node7</title>
<g id="a_node7"><a xlink:href="../../dc/d81/a01006.html#a2fc8d45a36328634008e89d520cfb885" target="_top" xlink:title=" ">
<polygon fill="none" stroke="black" points="400,-81.5 400,-111.5 543,-111.5 543,-81.5 400,-81.5"/>
<text text-anchor="start" x="408" y="-99.5" font-family="Helvetica,sans-Serif" font-size="10.00">com.cliffc.aa.node.CallEpi</text>
<text text-anchor="middle" x="471.5" y="-88.5" font-family="Helvetica,sans-Serif" font-size="10.00">Node.ideal_reduce</text>
</a>
</g>
</g>
<!-- Node1&#45;&gt;Node7 -->
<g id="edge8" class="edge">
<title>Node1&#45;&gt;Node7</title>
<path fill="none" stroke="midnightblue" d="M837.72,-97.31C752.25,-97.12 622.93,-96.83 543.31,-96.66"/>
<polygon fill="midnightblue" stroke="midnightblue" points="837.91,-100.81 847.92,-97.33 837.93,-93.81 837.91,-100.81"/>
</g>
<!-- Node9 -->
<g id="node9" class="node">
<title>Node9</title>
<g id="a_node9"><a xlink:href="../../d0/d2b/a01010.html#af3823c1ad423250a4e349a729ce31503" target="_top" xlink:title=" ">
<polygon fill="none" stroke="black" points="606,-185 606,-204 812,-204 812,-185 606,-185"/>
<text text-anchor="middle" x="709" y="-192" font-family="Helvetica,sans-Serif" font-size="10.00">com.cliffc.aa.node.CallNode.least_cost</text>
</a>
</g>
</g>
<!-- Node1&#45;&gt;Node9 -->
<g id="edge9" class="edge">
<title>Node1&#45;&gt;Node9</title>
<path fill="none" stroke="midnightblue" d="M896.28,-118.58C874.42,-134.32 842.61,-155.3 812,-168.5 795.72,-175.52 777.14,-180.96 760.33,-185"/>
<polygon fill="midnightblue" stroke="midnightblue" points="898.43,-121.35 904.43,-112.62 894.3,-115.7 898.43,-121.35"/>
</g>
<!-- Node11 -->
<g id="node11" class="node">
<title>Node11</title>
<g id="a_node11"><a xlink:href="../../d9/d8e/a01050.html#adf7e908e6a0109e3d1c176cce2f0de50" target="_top" xlink:title=" ">
<polygon fill="none" stroke="black" points="609,-50 609,-69 809,-69 809,-50 609,-50"/>
<text text-anchor="middle" x="709" y="-57" font-family="Helvetica,sans-Serif" font-size="10.00">com.cliffc.aa.node.FunNode.split_size</text>
</a>
</g>
</g>
<!-- Node1&#45;&gt;Node11 -->
<g id="edge13" class="edge">
<title>Node1&#45;&gt;Node11</title>
<path fill="none" stroke="midnightblue" d="M838.04,-82.24C812.9,-77.77 786.15,-73.02 763.64,-69.02"/>
<polygon fill="midnightblue" stroke="midnightblue" points="837.49,-85.69 847.95,-84 838.72,-78.8 837.49,-85.69"/>
</g>
<!-- Node13 -->
<g id="node13" class="node">
<title>Node13</title>
<g id="a_node13"><a xlink:href="../../dc/d81/a01006.html#abb422a6e7ca1e2d4c40517cc0197a237" target="_top" xlink:title=" ">
<polygon fill="none" stroke="black" points="637.5,-0.5 637.5,-30.5 780.5,-30.5 780.5,-0.5 637.5,-0.5"/>
<text text-anchor="start" x="645.5" y="-18.5" font-family="Helvetica,sans-Serif" font-size="10.00">com.cliffc.aa.node.CallEpi</text>
<text text-anchor="middle" x="709" y="-7.5" font-family="Helvetica,sans-Serif" font-size="10.00">Node.value</text>
</a>
</g>
</g>
<!-- Node1&#45;&gt;Node13 -->
<g id="edge15" class="edge">
<title>Node1&#45;&gt;Node13</title>
<path fill="none" stroke="midnightblue" d="M889.69,-77.43C867.99,-65.39 839.02,-50.54 812,-40.5 802,-36.79 791.25,-33.47 780.6,-30.55"/>
<polygon fill="midnightblue" stroke="midnightblue" points="888.09,-80.54 898.52,-82.39 891.51,-74.44 888.09,-80.54"/>
</g>
<!-- Node3 -->
<g id="node3" class="node">
<title>Node3</title>
<g id="a_node3"><a xlink:href="../../d9/d0a/a00390.html#adef511925a7d3a3ec9b8441a8e2c298c" target="_top" xlink:title=" ">
<polygon fill="none" stroke="black" points="392.5,-130.5 392.5,-160.5 550.5,-160.5 550.5,-130.5 392.5,-130.5"/>
<text text-anchor="start" x="400.5" y="-148.5" font-family="Helvetica,sans-Serif" font-size="10.00">com.cliffc.aa.GVNGCM.check</text>
<text text-anchor="middle" x="471.5" y="-137.5" font-family="Helvetica,sans-Serif" font-size="10.00">_and_wire</text>
</a>
</g>
</g>
<!-- Node2&#45;&gt;Node3 -->
<g id="edge2" class="edge">
<title>Node2&#45;&gt;Node3</title>
<path fill="none" stroke="midnightblue" d="M627.23,-144.19C602.41,-144.4 575.15,-144.63 550.51,-144.84"/>
<polygon fill="midnightblue" stroke="midnightblue" points="627.37,-147.68 637.34,-144.1 627.31,-140.69 627.37,-147.68"/>
</g>
<!-- Node2&#45;&gt;Node7 -->
<g id="edge6" class="edge">
<title>Node2&#45;&gt;Node7</title>
<path fill="none" stroke="midnightblue" d="M627.4,-127.41C600.02,-121.95 569.65,-115.89 543.11,-110.59"/>
<polygon fill="midnightblue" stroke="midnightblue" points="626.85,-130.87 637.34,-129.4 628.22,-124.01 626.85,-130.87"/>
</g>
<!-- Node8 -->
<g id="node8" class="node">
<title>Node8</title>
<g id="a_node8"><a xlink:href="../../d0/d2b/a01010.html#aef07a2283d73f9f60f0215af08389efb" target="_top" xlink:title=" ">
<polygon fill="none" stroke="black" points="381.5,-179.5 381.5,-209.5 561.5,-209.5 561.5,-179.5 381.5,-179.5"/>
<text text-anchor="start" x="389.5" y="-197.5" font-family="Helvetica,sans-Serif" font-size="10.00">com.cliffc.aa.node.CallNode.ideal</text>
<text text-anchor="middle" x="471.5" y="-186.5" font-family="Helvetica,sans-Serif" font-size="10.00">_reduce</text>
</a>
</g>
</g>
<!-- Node2&#45;&gt;Node8 -->
<g id="edge7" class="edge">
<title>Node2&#45;&gt;Node8</title>
<path fill="none" stroke="midnightblue" d="M628.79,-160.65C600.6,-166.76 569.09,-173.58 541.79,-179.49"/>
<polygon fill="midnightblue" stroke="midnightblue" points="629.58,-164.06 638.62,-158.53 628.1,-157.22 629.58,-164.06"/>
</g>
<!-- Node4 -->
<g id="node4" class="node">
<title>Node4</title>
<g id="a_node4"><a xlink:href="../../d9/d0a/a00390.html#a30adb7d17b631cd35a2e994feaa511f1" target="_top" xlink:title=" ">
<polygon fill="none" stroke="black" points="190,-182 190,-201 337,-201 337,-182 190,-182"/>
<text text-anchor="middle" x="263.5" y="-189" font-family="Helvetica,sans-Serif" font-size="10.00">com.cliffc.aa.GVNGCM.gcp</text>
</a>
</g>
</g>
<!-- Node3&#45;&gt;Node4 -->
<g id="edge3" class="edge">
<title>Node3&#45;&gt;Node4</title>
<path fill="none" stroke="midnightblue" d="M393.29,-162.74C364.13,-169.25 332.03,-176.42 307.17,-181.97"/>
<polygon fill="midnightblue" stroke="midnightblue" points="394.05,-166.16 403.05,-160.56 392.53,-159.33 394.05,-166.16"/>
</g>
<!-- Node5 -->
<g id="node5" class="node">
<title>Node5</title>
<g id="a_node5"><a xlink:href="../../da/de3/a01398.html#a7b1a6eaad3b721625612e7475ca9bf3b" target="_top" xlink:title=" ">
<polygon fill="none" stroke="black" points="15.5,-204 15.5,-223 138.5,-223 138.5,-204 15.5,-204"/>
<text text-anchor="middle" x="77" y="-211" font-family="Helvetica,sans-Serif" font-size="10.00">com.cliffc.aa.Parse.go</text>
</a>
</g>
</g>
<!-- Node4&#45;&gt;Node5 -->
<g id="edge4" class="edge">
<title>Node4&#45;&gt;Node5</title>
<path fill="none" stroke="midnightblue" d="M179.83,-201.36C165.98,-203.01 151.84,-204.69 138.68,-206.26"/>
<polygon fill="midnightblue" stroke="midnightblue" points="180.33,-204.82 189.85,-200.16 179.5,-197.87 180.33,-204.82"/>
</g>
<!-- Node6 -->
<g id="node6" class="node">
<title>Node6</title>
<g id="a_node6"><a xlink:href="../../d4/d8e/a01694.html#a0047bc5cd2ee14b1d3822a5969bc0502" target="_top" xlink:title=" ">
<polygon fill="none" stroke="black" points="0,-154.5 0,-184.5 154,-184.5 154,-154.5 0,-154.5"/>
<text text-anchor="start" x="8" y="-172.5" font-family="Helvetica,sans-Serif" font-size="10.00">com.cliffc.aa.node.TestNode</text>
<text text-anchor="middle" x="77" y="-161.5" font-family="Helvetica,sans-Serif" font-size="10.00">Small.testRecursiveDisplay</text>
</a>
</g>
</g>
<!-- Node4&#45;&gt;Node6 -->
<g id="edge5" class="edge">
<title>Node4&#45;&gt;Node6</title>
<path fill="none" stroke="midnightblue" d="M179.89,-181.65C171.35,-180.63 162.7,-179.6 154.23,-178.59"/>
<polygon fill="midnightblue" stroke="midnightblue" points="179.5,-185.13 189.85,-182.84 180.33,-178.18 179.5,-185.13"/>
</g>
<!-- Node9&#45;&gt;Node8 -->
<g id="edge10" class="edge">
<title>Node9&#45;&gt;Node8</title>
<path fill="none" stroke="midnightblue" d="M595.39,-194.5C584.1,-194.5 572.75,-194.5 561.74,-194.5"/>
<polygon fill="midnightblue" stroke="midnightblue" points="595.73,-198 605.73,-194.5 595.73,-191 595.73,-198"/>
</g>
<!-- Node10 -->
<g id="node10" class="node">
<title>Node10</title>
<g id="a_node10"><a xlink:href="../../d9/d0a/a00390.html#ab85c346d74bdd88e680340d124225c40" target="_top" xlink:title=" ">
<polygon fill="none" stroke="black" points="373,-229 373,-248 570,-248 570,-229 373,-229"/>
<text text-anchor="middle" x="471.5" y="-236" font-family="Helvetica,sans-Serif" font-size="10.00">com.cliffc.aa.GVNGCM.remove_ambi</text>
</a>
</g>
</g>
<!-- Node9&#45;&gt;Node10 -->
<g id="edge11" class="edge">
<title>Node9&#45;&gt;Node10</title>
<path fill="none" stroke="midnightblue" d="M646.89,-205.92C608.57,-213.08 559.74,-222.2 523.5,-228.97"/>
<polygon fill="midnightblue" stroke="midnightblue" points="647.71,-209.32 656.9,-204.05 646.43,-202.44 647.71,-209.32"/>
</g>
<!-- Node10&#45;&gt;Node4 -->
<g id="edge12" class="edge">
<title>Node10&#45;&gt;Node4</title>
<path fill="none" stroke="midnightblue" d="M408.68,-227.03C396.81,-224.67 384.5,-222.1 373,-219.5 348.33,-213.92 320.74,-206.79 299.55,-201.12"/>
<polygon fill="midnightblue" stroke="midnightblue" points="408.03,-230.47 418.51,-228.97 409.38,-223.6 408.03,-230.47"/>
</g>
<!-- Node12 -->
<g id="node12" class="node">
<title>Node12</title>
<g id="a_node12"><a xlink:href="../../d9/d8e/a01050.html#a35a8d77a634141d969d902a346af2000" target="_top" xlink:title=" ">
<polygon fill="none" stroke="black" points="382,-32.5 382,-62.5 561,-62.5 561,-32.5 382,-32.5"/>
<text text-anchor="start" x="390" y="-50.5" font-family="Helvetica,sans-Serif" font-size="10.00">com.cliffc.aa.node.FunNode.ideal</text>
<text text-anchor="middle" x="471.5" y="-39.5" font-family="Helvetica,sans-Serif" font-size="10.00">_inline</text>
</a>
</g>
</g>
<!-- Node11&#45;&gt;Node12 -->
<g id="edge14" class="edge">
<title>Node11&#45;&gt;Node12</title>
<path fill="none" stroke="midnightblue" d="M598.74,-53.93C586.13,-53.29 573.39,-52.64 561.1,-52.01"/>
<polygon fill="midnightblue" stroke="midnightblue" points="598.64,-57.43 608.81,-54.45 599,-50.44 598.64,-57.43"/>
</g>
</g>
</svg>
        <g id="navigator" transform="translate(0 0)" fill="#404254">
                <rect fill="#f2f5e9" fill-opacity="0.5" stroke="#606060" stroke-width=".5" x="0" y="0" width="60" height="60"/>
                <use id="zoomplus" xlink:href="#zoomPlus" x="17" y="9" onmousedown="handleZoom(evt,'in')"/>
                <use id="zoomminus" xlink:href="#zoomMin" x="42" y="9" onmousedown="handleZoom(evt,'out')"/>
                <use id="reset" xlink:href="#resetDef" x="30" y="36" onmousedown="handleReset()"/>
                <g id="arrowUp" xlink:href="#dirArrow" transform="translate(30 24)" onmousedown="handlePan(0,-1)">
                  <use xlink:href="#rim" fill="#404040">
                        <set attributeName="fill" to="#808080" begin="arrowUp.mouseover" end="arrowUp.mouseout"/>
                  </use>
                  <path fill="none" stroke="white" stroke-width="1.5" d="M0,-3.0v7 M-2.5,-0.5L0,-3.0L2.5,-0.5"/>
                </g>
                <g id="arrowRight" xlink:href="#dirArrow" transform="rotate(90) translate(36 -43)" onmousedown="handlePan(1,0)">
                  <use xlink:href="#rim" fill="#404040">
                        <set attributeName="fill" to="#808080" begin="arrowRight.mouseover" end="arrowRight.mouseout"/>
                  </use>
                  <path fill="none" stroke="white" stroke-width="1.5" d="M0,-3.0v7 M-2.5,-0.5L0,-3.0L2.5,-0.5"/>
                </g>
                <g id="arrowDown" xlink:href="#dirArrow" transform="rotate(180) translate(-30 -48)" onmousedown="handlePan(0,1)">
                  <use xlink:href="#rim" fill="#404040">
                        <set attributeName="fill" to="#808080" begin="arrowDown.mouseover" end="arrowDown.mouseout"/>
                  </use>
                  <path fill="none" stroke="white" stroke-width="1.5" d="M0,-3.0v7 M-2.5,-0.5L0,-3.0L2.5,-0.5"/>
                </g>
                <g id="arrowLeft" xlink:href="#dirArrow" transform="rotate(270) translate(-36 17)" onmousedown="handlePan(-1,0)">
                  <use xlink:href="#rim" fill="#404040">
                        <set attributeName="fill" to="#808080" begin="arrowLeft.mouseover" end="arrowLeft.mouseout"/>
                  </use>
                  <path fill="none" stroke="white" stroke-width="1.5" d="M0,-3.0v7 M-2.5,-0.5L0,-3.0L2.5,-0.5"/>
                </g>
        </g>
        <svg viewBox="0 0 15 15" width="100%" height="30px" preserveAspectRatio="xMaxYMin meet">
         <g id="arrow_out" transform="scale(0.3 0.3)">
          <a xlink:href="a01434_aa3372f4ae7e0fff6f24f450f4515212b_icgraph_org.svg" target="_base">
           <rect id="button" ry="5" rx="5" y="6" x="6" height="38" width="38"
                fill="#f2f5e9" fill-opacity="0.5" stroke="#606060" stroke-width="1.0"/>
           <path id="arrow"
             d="M 11.500037,31.436501 C 11.940474,20.09759 22.043105,11.32322 32.158766,21.979434 L 37.068811,17.246167 C 37.068811,17.246167 37.088388,32 37.088388,32 L 22.160133,31.978069 C 22.160133,31.978069 26.997745,27.140456 26.997745,27.140456 C 18.528582,18.264221 13.291696,25.230495 11.500037,31.436501 z"
             style="fill:#404040;"/>
          </a>
         </g>
        </svg>
</svg>
