<?xml version="1.0" encoding="UTF-8" standalone="no"?>
<!DOCTYPE svg PUBLIC "-//W3C//DTD SVG 1.1//EN"
 "http://www.w3.org/Graphics/SVG/1.1/DTD/svg11.dtd">
<!-- Generated by graphviz version 2.43.0 (0)
 -->
<!-- Title: com.cliffc.aa.type.BitsFun.tree Pages: 1 -->
<svg width="832pt" height="215pt"
 viewBox="0.00 0.00 832.00 214.50" xmlns="http://www.w3.org/2000/svg" xmlns:xlink="http://www.w3.org/1999/xlink">
<g id="graph0" class="graph" transform="scale(1 1) rotate(0) translate(4 210.5)">
<title>com.cliffc.aa.type.BitsFun.tree</title>
<!-- Node1 -->
<g id="node1" class="node">
<title>Node1</title>
<g id="a_node1"><a xlink:title=" ">
<polygon fill="#bfbfbf" stroke="black" points="659,-69.5 659,-88.5 824,-88.5 824,-69.5 659,-69.5"/>
<text text-anchor="middle" x="741.5" y="-76.5" font-family="Helvetica,sans-Serif" font-size="10.00">com.cliffc.aa.type.BitsFun.tree</text>
</a>
</g>
</g>
<!-- Node2 -->
<g id="node2" class="node">
<title>Node2</title>
<g id="a_node2"><a xlink:href="../../d0/d2b/a01010.html#a36a8626bf90bfda234be1168d92b67f3" target="_top" xlink:title=" ">
<polygon fill="none" stroke="black" points="451,-88.5 451,-107.5 621,-107.5 621,-88.5 451,-88.5"/>
<text text-anchor="middle" x="536" y="-95.5" font-family="Helvetica,sans-Serif" font-size="10.00">com.cliffc.aa.node.CallNode.err</text>
</a>
</g>
</g>
<!-- Node1&#45;&gt;Node2 -->
<g id="edge1" class="edge">
<title>Node1&#45;&gt;Node2</title>
<path fill="none" stroke="midnightblue" d="M648.66,-87.57C639.54,-88.43 630.32,-89.29 621.28,-90.13"/>
<polygon fill="midnightblue" stroke="midnightblue" points="649.27,-91.03 658.9,-86.62 648.62,-84.06 649.27,-91.03"/>
</g>
<!-- Node8 -->
<g id="node8" class="node">
<title>Node8</title>
<g id="a_node8"><a xlink:href="../../d0/d2b/a01010.html#a7c920c19865ae58d49197eb07b39350c" target="_top" xlink:title=" ">
<polygon fill="none" stroke="black" points="449,-50.5 449,-69.5 623,-69.5 623,-50.5 449,-50.5"/>
<text text-anchor="middle" x="536" y="-57.5" font-family="Helvetica,sans-Serif" font-size="10.00">com.cliffc.aa.node.CallNode.live</text>
</a>
</g>
</g>
<!-- Node1&#45;&gt;Node8 -->
<g id="edge8" class="edge">
<title>Node1&#45;&gt;Node8</title>
<path fill="none" stroke="midnightblue" d="M648.94,-70.45C640.4,-69.65 631.77,-68.85 623.28,-68.06"/>
<polygon fill="midnightblue" stroke="midnightblue" points="648.62,-73.94 658.9,-71.38 649.27,-66.97 648.62,-73.94"/>
</g>
<!-- Node3 -->
<g id="node3" class="node">
<title>Node3</title>
<g id="a_node3"><a xlink:href="../../d0/d2b/a01010.html#a042f1a0b299eddc17b23da554e088150" target="_top" xlink:title=" ">
<polygon fill="none" stroke="black" points="227.5,-176 227.5,-206 401.5,-206 401.5,-176 227.5,-176"/>
<text text-anchor="start" x="235.5" y="-194" font-family="Helvetica,sans-Serif" font-size="10.00">com.cliffc.aa.node.CallNode.add</text>
<text text-anchor="middle" x="314.5" y="-183" font-family="Helvetica,sans-Serif" font-size="10.00">_flow_extra</text>
</a>
</g>
</g>
<!-- Node2&#45;&gt;Node3 -->
<g id="edge2" class="edge">
<title>Node2&#45;&gt;Node3</title>
<path fill="none" stroke="midnightblue" d="M512.36,-113.32C488.55,-128.81 449.54,-152.49 413,-167 404.58,-170.35 395.55,-173.32 386.52,-175.94"/>
<polygon fill="midnightblue" stroke="midnightblue" points="514.57,-116.05 520.99,-107.62 510.72,-110.21 514.57,-116.05"/>
</g>
<!-- Node4 -->
<g id="node4" class="node">
<title>Node4</title>
<g id="a_node4"><a xlink:href="../../d0/d2b/a01010.html#a9b26fb38a1bb993fff7dbc4250f2ad5d" target="_top" xlink:title=" ">
<polygon fill="none" stroke="black" points="227.5,-127 227.5,-157 401.5,-157 401.5,-127 227.5,-127"/>
<text text-anchor="start" x="235.5" y="-145" font-family="Helvetica,sans-Serif" font-size="10.00">com.cliffc.aa.node.CallNode.add</text>
<text text-anchor="middle" x="314.5" y="-134" font-family="Helvetica,sans-Serif" font-size="10.00">_flow_use_extra</text>
</a>
</g>
</g>
<!-- Node2&#45;&gt;Node4 -->
<g id="edge3" class="edge">
<title>Node2&#45;&gt;Node4</title>
<path fill="none" stroke="midnightblue" d="M477.48,-109.53C450.93,-114.85 419.07,-121.24 390.66,-126.93"/>
<polygon fill="midnightblue" stroke="midnightblue" points="478.25,-112.94 487.37,-107.55 476.88,-106.08 478.25,-112.94"/>
</g>
<!-- Node5 -->
<g id="node5" class="node">
<title>Node5</title>
<g id="a_node5"><a xlink:href="../../d0/d2b/a01010.html#aef07a2283d73f9f60f0215af08389efb" target="_top" xlink:title=" ">
<polygon fill="none" stroke="black" points="0,-105 0,-135 180,-135 180,-105 0,-105"/>
<text text-anchor="start" x="8" y="-123" font-family="Helvetica,sans-Serif" font-size="10.00">com.cliffc.aa.node.CallNode.ideal</text>
<text text-anchor="middle" x="90" y="-112" font-family="Helvetica,sans-Serif" font-size="10.00">_reduce</text>
</a>
</g>
</g>
<!-- Node2&#45;&gt;Node5 -->
<g id="edge6" class="edge">
<title>Node2&#45;&gt;Node5</title>
<path fill="none" stroke="midnightblue" d="M440.78,-102.67C363.75,-106.49 255.6,-111.84 180.02,-115.59"/>
<polygon fill="midnightblue" stroke="midnightblue" points="441.15,-106.15 450.97,-102.16 440.8,-99.16 441.15,-106.15"/>
</g>
<!-- Node6 -->
<g id="node6" class="node">
<title>Node6</title>
<g id="a_node6"><a xlink:href="../../dc/d81/a01006.html#a2fc8d45a36328634008e89d520cfb885" target="_top" xlink:title=" ">
<polygon fill="none" stroke="black" points="243,-39 243,-69 386,-69 386,-39 243,-39"/>
<text text-anchor="start" x="251" y="-57" font-family="Helvetica,sans-Serif" font-size="10.00">com.cliffc.aa.node.CallEpi</text>
<text text-anchor="middle" x="314.5" y="-46" font-family="Helvetica,sans-Serif" font-size="10.00">Node.ideal_reduce</text>
</a>
</g>
</g>
<!-- Node2&#45;&gt;Node6 -->
<g id="edge5" class="edge">
<title>Node2&#45;&gt;Node6</title>
<path fill="none" stroke="midnightblue" d="M477.39,-86.45C449.52,-80.87 415.82,-74.11 386.39,-68.21"/>
<polygon fill="midnightblue" stroke="midnightblue" points="476.88,-89.92 487.37,-88.45 478.25,-83.06 476.88,-89.92"/>
</g>
<!-- Node7 -->
<g id="node7" class="node">
<title>Node7</title>
<g id="a_node7"><a xlink:href="../../d0/d2b/a01010.html#a21fa6d626c9b5de9200143339540c864" target="_top" xlink:title=" ">
<polygon fill="none" stroke="black" points="216,-0.5 216,-19.5 413,-19.5 413,-0.5 216,-0.5"/>
<text text-anchor="middle" x="314.5" y="-7.5" font-family="Helvetica,sans-Serif" font-size="10.00">com.cliffc.aa.node.CallNode.live_use</text>
</a>
</g>
</g>
<!-- Node2&#45;&gt;Node7 -->
<g id="edge7" class="edge">
<title>Node2&#45;&gt;Node7</title>
<path fill="none" stroke="midnightblue" d="M458.89,-84.49C455.45,-82.86 452.13,-81.04 449,-79 426.36,-64.25 435.75,-44.58 413,-30 406.23,-25.67 398.71,-22.25 390.92,-19.55"/>
<polygon fill="midnightblue" stroke="midnightblue" points="457.65,-87.77 468.23,-88.37 460.34,-81.3 457.65,-87.77"/>
</g>
<!-- Node4&#45;&gt;Node5 -->
<g id="edge4" class="edge">
<title>Node4&#45;&gt;Node5</title>
<path fill="none" stroke="midnightblue" d="M217.2,-132.48C204.88,-131.26 192.31,-130.02 180.11,-128.81"/>
<polygon fill="midnightblue" stroke="midnightblue" points="217.18,-135.99 227.48,-133.49 217.87,-129.03 217.18,-135.99"/>
</g>
</g>
</svg>
