<?xml version="1.0" encoding="UTF-8" standalone="no"?>
<!DOCTYPE svg PUBLIC "-//W3C//DTD SVG 1.1//EN"
 "http://www.w3.org/Graphics/SVG/1.1/DTD/svg11.dtd">
<!-- Generated by graphviz version 2.43.0 (0)
 -->
<!-- Title: com.cliffc.aa.HM.HM3.VStack.str Pages: 1 -->
<svg width="780pt" height="142pt"
 viewBox="0.00 0.00 780.00 142.00" xmlns="http://www.w3.org/2000/svg" xmlns:xlink="http://www.w3.org/1999/xlink">
<g id="graph0" class="graph" transform="scale(1 1) rotate(0) translate(4 138)">
<title>com.cliffc.aa.HM.HM3.VStack.str</title>
<!-- Node1 -->
<g id="node1" class="node">
<title>Node1</title>
<g id="a_node1"><a xlink:title=" ">
<polygon fill="#bfbfbf" stroke="black" points="0,-95.5 0,-114.5 176,-114.5 176,-95.5 0,-95.5"/>
<text text-anchor="middle" x="88" y="-102.5" font-family="Helvetica,sans-Serif" font-size="10.00">com.cliffc.aa.HM.HM3.VStack.str</text>
</a>
</g>
</g>
<!-- Node1&#45;&gt;Node1 -->
<g id="edge8" class="edge">
<title>Node1&#45;&gt;Node1</title>
<path fill="none" stroke="midnightblue" d="M55.59,-114.61C39.31,-123.46 50.11,-133 88,-133 115.82,-133 129.04,-127.86 127.65,-121.62"/>
<polygon fill="midnightblue" stroke="midnightblue" points="130.03,-119.05 120.41,-114.61 125.16,-124.08 130.03,-119.05"/>
</g>
<!-- Node2 -->
<g id="node2" class="node">
<title>Node2</title>
<g id="a_node2"><a xlink:href="../../d6/d08/a00646.html#a05bd57fcac55ac29b443ec91b61ea4be" target="_top" xlink:title=" ">
<polygon fill="none" stroke="black" points="212,-76.5 212,-95.5 391,-95.5 391,-76.5 212,-76.5"/>
<text text-anchor="middle" x="301.5" y="-83.5" font-family="Helvetica,sans-Serif" font-size="10.00">com.cliffc.aa.HM.HM3.HMVar._str</text>
</a>
</g>
</g>
<!-- Node1&#45;&gt;Node2 -->
<g id="edge1" class="edge">
<title>Node1&#45;&gt;Node2</title>
<path fill="none" stroke="midnightblue" d="M176.25,-97.16C184.67,-96.41 193.26,-95.63 201.78,-94.87"/>
<polygon fill="midnightblue" stroke="midnightblue" points="202.1,-98.35 211.75,-93.97 201.47,-91.38 202.1,-98.35"/>
</g>
<!-- Node4 -->
<g id="node4" class="node">
<title>Node4</title>
<g id="a_node4"><a xlink:href="../../d4/d99/a01634.html#ac801338e82849a7fe2ae7a0feb80bb55" target="_top" xlink:title=" ">
<polygon fill="none" stroke="black" points="459.5,-114.5 459.5,-133.5 581.5,-133.5 581.5,-114.5 459.5,-114.5"/>
<text text-anchor="middle" x="520.5" y="-121.5" font-family="Helvetica,sans-Serif" font-size="10.00">com.cliffc.aa.util.SB.p</text>
</a>
</g>
</g>
<!-- Node1&#45;&gt;Node4 -->
<g id="edge7" class="edge">
<title>Node1&#45;&gt;Node4</title>
<path fill="none" stroke="midnightblue" d="M176.12,-108.84C256.49,-112.39 374.33,-117.59 448.95,-120.89"/>
<polygon fill="midnightblue" stroke="midnightblue" points="449.04,-124.39 459.18,-121.34 449.35,-117.4 449.04,-124.39"/>
</g>
<!-- Node3 -->
<g id="node3" class="node">
<title>Node3</title>
<g id="a_node3"><a xlink:href="../../df/dcf/a00642.html#ae3aff2e47c090669f6f1c9b44b231243" target="_top" xlink:title=" ">
<polygon fill="none" stroke="black" points="427,-76.5 427,-95.5 614,-95.5 614,-76.5 427,-76.5"/>
<text text-anchor="middle" x="520.5" y="-83.5" font-family="Helvetica,sans-Serif" font-size="10.00">com.cliffc.aa.HM.HM3.HMType._str</text>
</a>
</g>
</g>
<!-- Node2&#45;&gt;Node3 -->
<g id="edge2" class="edge">
<title>Node2&#45;&gt;Node3</title>
<path fill="none" stroke="midnightblue" d="M391.08,-86C399.58,-86 408.26,-86 416.89,-86"/>
<polygon fill="midnightblue" stroke="midnightblue" points="416.98,-89.5 426.98,-86 416.98,-82.5 416.98,-89.5"/>
</g>
<!-- Node2&#45;&gt;Node4 -->
<g id="edge3" class="edge">
<title>Node2&#45;&gt;Node4</title>
<path fill="none" stroke="midnightblue" d="M356.98,-95.54C386.77,-100.76 423.86,-107.25 455.09,-112.72"/>
<polygon fill="midnightblue" stroke="midnightblue" points="454.55,-116.18 465,-114.46 455.75,-109.28 454.55,-116.18"/>
</g>
<!-- Node6 -->
<g id="node6" class="node">
<title>Node6</title>
<g id="a_node6"><a xlink:href="../../d0/de2/a01442.html#aa85e71041555eba377310225778642bf" target="_top" xlink:title=" ">
<polygon fill="none" stroke="black" points="448,-38.5 448,-57.5 593,-57.5 593,-38.5 448,-38.5"/>
<text text-anchor="middle" x="520.5" y="-45.5" font-family="Helvetica,sans-Serif" font-size="10.00">com.cliffc.aa.type.Type.str</text>
</a>
</g>
</g>
<!-- Node2&#45;&gt;Node6 -->
<g id="edge5" class="edge">
<title>Node2&#45;&gt;Node6</title>
<path fill="none" stroke="midnightblue" d="M356.98,-76.46C386.77,-71.24 423.86,-64.75 455.09,-59.28"/>
<polygon fill="midnightblue" stroke="midnightblue" points="455.75,-62.72 465,-57.54 454.55,-55.82 455.75,-62.72"/>
</g>
<!-- Node7 -->
<g id="node7" class="node">
<title>Node7</title>
<g id="a_node7"><a xlink:href="../../df/dee/a01646.html#a88ad20daf92e92fe0e3925b23c4fecf0" target="_top" xlink:title=" ">
<polygon fill="none" stroke="black" points="441.5,-0.5 441.5,-19.5 599.5,-19.5 599.5,-0.5 441.5,-0.5"/>
<text text-anchor="middle" x="520.5" y="-7.5" font-family="Helvetica,sans-Serif" font-size="10.00">com.cliffc.aa.util.VBitSet.tset</text>
</a>
</g>
</g>
<!-- Node2&#45;&gt;Node7 -->
<g id="edge6" class="edge">
<title>Node2&#45;&gt;Node7</title>
<path fill="none" stroke="midnightblue" d="M320.13,-76.37C343.8,-63.82 387.46,-41.93 427,-29 435.26,-26.3 444.08,-23.9 452.85,-21.8"/>
<polygon fill="midnightblue" stroke="midnightblue" points="453.74,-25.18 462.71,-19.55 452.19,-18.36 453.74,-25.18"/>
</g>
<!-- Node5 -->
<g id="node5" class="node">
<title>Node5</title>
<g id="a_node5"><a xlink:href="../../d4/d99/a01634.html#abd1b8ac722e0fb0bf1e7b2ea0eaeb0b6" target="_top" xlink:title=" ">
<polygon fill="none" stroke="black" points="650,-114.5 650,-133.5 772,-133.5 772,-114.5 650,-114.5"/>
<text text-anchor="middle" x="711" y="-121.5" font-family="Helvetica,sans-Serif" font-size="10.00">com.cliffc.aa.util.SB.s</text>
</a>
</g>
</g>
<!-- Node4&#45;&gt;Node5 -->
<g id="edge4" class="edge">
<title>Node4&#45;&gt;Node5</title>
<path fill="none" stroke="midnightblue" d="M581.66,-124C600.11,-124 620.57,-124 639.64,-124"/>
<polygon fill="midnightblue" stroke="midnightblue" points="639.76,-127.5 649.76,-124 639.76,-120.5 639.76,-127.5"/>
</g>
</g>
</svg>
