<?xml version="1.0" encoding="UTF-8" standalone="no"?>
<!DOCTYPE svg PUBLIC "-//W3C//DTD SVG 1.1//EN"
 "http://www.w3.org/Graphics/SVG/1.1/DTD/svg11.dtd">
<!-- Generated by graphviz version 2.43.0 (0)
 -->
<!-- Title: com.cliffc.aa.HM.HM3.Oper Pages: 1 -->
<svg width="1083pt" height="202pt"
 viewBox="0.00 0.00 1083.00 202.00" xmlns="http://www.w3.org/2000/svg" xmlns:xlink="http://www.w3.org/1999/xlink">
<g id="graph0" class="graph" transform="scale(1 1) rotate(0) translate(4 198)">
<title>com.cliffc.aa.HM.HM3.Oper</title>
<!-- Node1 -->
<g id="node1" class="node">
<title>Node1</title>
<g id="a_node1"><a xlink:title=" ">
<polygon fill="#bfbfbf" stroke="black" points="925,-54.5 925,-73.5 1075,-73.5 1075,-54.5 925,-54.5"/>
<text text-anchor="middle" x="1000" y="-61.5" font-family="Helvetica,sans-Serif" font-size="10.00">com.cliffc.aa.HM.HM3.Oper</text>
</a>
</g>
</g>
<!-- Node2 -->
<g id="node2" class="node">
<title>Node2</title>
<g id="a_node2"><a xlink:href="../../df/dcf/a00642.html" target="_top" xlink:title=" ">
<polygon fill="none" stroke="black" points="686,-69.5 686,-88.5 852,-88.5 852,-69.5 686,-69.5"/>
<text text-anchor="middle" x="769" y="-76.5" font-family="Helvetica,sans-Serif" font-size="10.00">com.cliffc.aa.HM.HM3.HMType</text>
</a>
</g>
</g>
<!-- Node2&#45;&gt;Node1 -->
<g id="edge1" class="edge">
<title>Node2&#45;&gt;Node1</title>
<path fill="none" stroke="midnightblue" d="M862.53,-78.33C877.41,-77.83 892.64,-77.09 907,-76 915.35,-75.37 924.11,-74.49 932.76,-73.51"/>
<polygon fill="midnightblue" stroke="midnightblue" points="862.19,-74.84 852.29,-78.64 862.4,-81.84 862.19,-74.84"/>
</g>
<!-- Node2&#45;&gt;Node1 -->
<g id="edge12" class="edge">
<title>Node2&#45;&gt;Node1</title>
<path fill="none" stroke="#9a32cd" stroke-dasharray="5,2" d="M829.62,-67.87C842.86,-65.85 856.87,-64.04 870,-63 886.39,-61.7 890.56,-62.91 907,-63 912.75,-63.03 918.7,-63.07 924.69,-63.12"/>
<polygon fill="#9a32cd" stroke="#9a32cd" points="828.99,-64.43 819.66,-69.46 830.09,-71.34 828.99,-64.43"/>
<text text-anchor="middle" x="888.5" y="-66" font-family="Helvetica,sans-Serif" font-size="10.00"> _args</text>
</g>
<!-- Node2&#45;&gt;Node2 -->
<g id="edge8" class="edge">
<title>Node2&#45;&gt;Node2</title>
<path fill="none" stroke="#9a32cd" stroke-dasharray="5,2" d="M748.26,-98.4C749.65,-103.31 756.56,-107 769,-107 788.91,-107 794.66,-97.57 786.26,-88.76"/>
<polygon fill="#9a32cd" stroke="#9a32cd" points="751.64,-99.35 751.74,-88.76 745.05,-96.98 751.64,-99.35"/>
<text text-anchor="middle" x="769" y="-110" font-family="Helvetica,sans-Serif" font-size="10.00"> _u</text>
</g>
<!-- Node3 -->
<g id="node3" class="node">
<title>Node3</title>
<g id="a_node3"><a xlink:href="../../d6/d02/a01542.html" target="_top" xlink:title=" ">
<polygon fill="none" stroke="black" points="444.5,-119 444.5,-149 618.5,-149 618.5,-119 444.5,-119"/>
<text text-anchor="start" x="452.5" y="-137" font-family="Helvetica,sans-Serif" font-size="10.00">com.cliffc.aa.util.Ary</text>
<text text-anchor="middle" x="531.5" y="-126" font-family="Helvetica,sans-Serif" font-size="10.00">&lt; com.cliffc.aa.HM.HM3.Ident &gt;</text>
</a>
</g>
</g>
<!-- Node3&#45;&gt;Node2 -->
<g id="edge2" class="edge">
<title>Node3&#45;&gt;Node2</title>
<path fill="none" stroke="#9a32cd" stroke-dasharray="5,2" d="M606.78,-116.65C646.53,-107.37 693.98,-96.29 727.06,-88.56"/>
<polygon fill="#9a32cd" stroke="#9a32cd" points="605.79,-113.29 596.85,-118.97 607.39,-120.1 605.79,-113.29"/>
<text text-anchor="middle" x="656.5" y="-109" font-family="Helvetica,sans-Serif" font-size="10.00"> _ids</text>
</g>
<!-- Node4 -->
<g id="node4" class="node">
<title>Node4</title>
<g id="a_node4"><a xlink:href="../../d6/d02/a01542.html" target="_top" xlink:title=" ">
<polygon fill="none" stroke="black" points="143,-133.5 143,-152.5 289,-152.5 289,-133.5 143,-133.5"/>
<text text-anchor="middle" x="216" y="-140.5" font-family="Helvetica,sans-Serif" font-size="10.00">com.cliffc.aa.util.Ary&lt; E &gt;</text>
</a>
</g>
</g>
<!-- Node4&#45;&gt;Node3 -->
<g id="edge3" class="edge">
<title>Node4&#45;&gt;Node3</title>
<path fill="none" stroke="orange" stroke-dasharray="5,2" d="M299.54,-140.63C344.15,-139.35 399.19,-137.77 444.34,-136.47"/>
<polygon fill="orange" stroke="orange" points="299.21,-137.14 289.32,-140.92 299.41,-144.14 299.21,-137.14"/>
<text text-anchor="start" x="318" y="-154" font-family="Helvetica,sans-Serif" font-size="10.00"> &lt; com::cliffc::aa::</text>
<text text-anchor="middle" x="362.5" y="-143" font-family="Helvetica,sans-Serif" font-size="10.00">HM::HM3::Ident &gt;</text>
</g>
<!-- Node5 -->
<g id="node5" class="node">
<title>Node5</title>
<g id="a_node5"><a xlink:href="../../dd/df4/a02510.html" target="_top" xlink:title=" ">
<polygon fill="none" stroke="black" points="0,-174.5 0,-193.5 83,-193.5 83,-174.5 0,-174.5"/>
<text text-anchor="middle" x="41.5" y="-181.5" font-family="Helvetica,sans-Serif" font-size="10.00">Iterable&lt; E &gt;</text>
</a>
</g>
</g>
<!-- Node5&#45;&gt;Node4 -->
<g id="edge4" class="edge">
<title>Node5&#45;&gt;Node4</title>
<path fill="none" stroke="midnightblue" d="M92.27,-172.17C118.51,-165.93 150.27,-158.38 174.91,-152.53"/>
<polygon fill="midnightblue" stroke="midnightblue" points="91.43,-168.77 82.51,-174.49 93.05,-175.58 91.43,-168.77"/>
</g>
<!-- Node6 -->
<g id="node6" class="node">
<title>Node6</title>
<g id="a_node6"><a xlink:title=" ">
<polygon fill="none" stroke="#bfbfbf" points="26.5,-136.5 26.5,-155.5 56.5,-155.5 56.5,-136.5 26.5,-136.5"/>
<text text-anchor="middle" x="41.5" y="-143.5" font-family="Helvetica,sans-Serif" font-size="10.00">E[]</text>
</a>
</g>
</g>
<!-- Node6&#45;&gt;Node4 -->
<g id="edge5" class="edge">
<title>Node6&#45;&gt;Node4</title>
<path fill="none" stroke="#9a32cd" stroke-dasharray="5,2" d="M66.86,-145.58C86.64,-145.23 115.61,-144.73 142.69,-144.26"/>
<polygon fill="#9a32cd" stroke="#9a32cd" points="66.55,-142.08 56.62,-145.75 66.68,-149.08 66.55,-142.08"/>
<text text-anchor="middle" x="113" y="-147" font-family="Helvetica,sans-Serif" font-size="10.00"> _es</text>
</g>
<!-- Node7 -->
<g id="node7" class="node">
<title>Node7</title>
<g id="a_node7"><a xlink:title=" ">
<polygon fill="none" stroke="#bfbfbf" points="27,-84.5 27,-103.5 56,-103.5 56,-84.5 27,-84.5"/>
<text text-anchor="middle" x="41.5" y="-91.5" font-family="Helvetica,sans-Serif" font-size="10.00">int</text>
</a>
</g>
</g>
<!-- Node7&#45;&gt;Node2 -->
<g id="edge7" class="edge">
<title>Node7&#45;&gt;Node2</title>
<path fill="none" stroke="#9a32cd" stroke-dasharray="5,2" d="M66.09,-93.51C161.53,-91.54 521.78,-84.09 685.78,-80.7"/>
<polygon fill="#9a32cd" stroke="#9a32cd" points="65.95,-90.01 56.03,-93.72 66.1,-97.01 65.95,-90.01"/>
<text text-anchor="middle" x="362.5" y="-102" font-family="Helvetica,sans-Serif" font-size="10.00"> _uid</text>
<text text-anchor="middle" x="362.5" y="-91" font-family="Helvetica,sans-Serif" font-size="10.00">CNT</text>
</g>
<!-- Node7&#45;&gt;Node4 -->
<g id="edge6" class="edge">
<title>Node7&#45;&gt;Node4</title>
<path fill="none" stroke="#9a32cd" stroke-dasharray="5,2" d="M65.95,-100.66C95.75,-109.13 147.38,-123.79 181.36,-133.45"/>
<polygon fill="#9a32cd" stroke="#9a32cd" points="66.61,-97.21 56.04,-97.84 64.7,-103.94 66.61,-97.21"/>
<text text-anchor="middle" x="113" y="-120" font-family="Helvetica,sans-Serif" font-size="10.00"> _len</text>
</g>
<!-- Node8 -->
<g id="node8" class="node">
<title>Node8</title>
<g id="a_node8"><a xlink:title=" ">
<polygon fill="none" stroke="#bfbfbf" points="436,-0.5 436,-41.5 627,-41.5 627,-0.5 436,-0.5"/>
<text text-anchor="start" x="444" y="-29.5" font-family="Helvetica,sans-Serif" font-size="10.00">HashMap&lt; com.cliffc.aa.HM.</text>
<text text-anchor="start" x="444" y="-18.5" font-family="Helvetica,sans-Serif" font-size="10.00">HM3.HMVar, com.cliffc.aa.HM.HM3.</text>
<text text-anchor="middle" x="531.5" y="-7.5" font-family="Helvetica,sans-Serif" font-size="10.00">HMVar &gt;</text>
</a>
</g>
</g>
<!-- Node8&#45;&gt;Node2 -->
<g id="edge9" class="edge">
<title>Node8&#45;&gt;Node2</title>
<path fill="none" stroke="#9a32cd" stroke-dasharray="5,2" d="M627.04,-43.95C640.78,-47.31 654.76,-50.73 668,-54 688.5,-59.06 711.35,-64.77 730.03,-69.45"/>
<polygon fill="#9a32cd" stroke="#9a32cd" points="627.63,-40.49 617.09,-41.52 625.97,-47.29 627.63,-40.49"/>
<text text-anchor="middle" x="656.5" y="-57" font-family="Helvetica,sans-Serif" font-size="10.00"> EQS</text>
</g>
<!-- Node9 -->
<g id="node9" class="node">
<title>Node9</title>
<g id="a_node9"><a xlink:title=" ">
<polygon fill="none" stroke="#bfbfbf" points="185,-2.5 185,-21.5 247,-21.5 247,-2.5 185,-2.5"/>
<text text-anchor="middle" x="216" y="-9.5" font-family="Helvetica,sans-Serif" font-size="10.00">HashMap</text>
</a>
</g>
</g>
<!-- Node9&#45;&gt;Node8 -->
<g id="edge10" class="edge">
<title>Node9&#45;&gt;Node8</title>
<path fill="none" stroke="orange" stroke-dasharray="5,2" d="M257.36,-11.42C297.96,-11.02 362.34,-10.88 418,-13 423.87,-13.22 429.91,-13.5 436,-13.83"/>
<polygon fill="orange" stroke="orange" points="257.28,-7.92 247.32,-11.53 257.36,-14.92 257.28,-7.92"/>
<text text-anchor="start" x="307" y="-49" font-family="Helvetica,sans-Serif" font-size="10.00"> &lt; com::cliffc::aa::</text>
<text text-anchor="start" x="307" y="-38" font-family="Helvetica,sans-Serif" font-size="10.00">HM::HM3::HMVar, com</text>
<text text-anchor="start" x="307" y="-27" font-family="Helvetica,sans-Serif" font-size="10.00">::cliffc::aa::HM::HM3</text>
<text text-anchor="middle" x="362.5" y="-16" font-family="Helvetica,sans-Serif" font-size="10.00">::HMVar &gt;</text>
</g>
<!-- Node10 -->
<g id="node10" class="node">
<title>Node10</title>
<g id="a_node10"><a xlink:title=" ">
<polygon fill="none" stroke="#bfbfbf" points="746.5,-20.5 746.5,-39.5 791.5,-39.5 791.5,-20.5 746.5,-20.5"/>
<text text-anchor="middle" x="769" y="-27.5" font-family="Helvetica,sans-Serif" font-size="10.00">String</text>
</a>
</g>
</g>
<!-- Node10&#45;&gt;Node1 -->
<g id="edge11" class="edge">
<title>Node10&#45;&gt;Node1</title>
<path fill="none" stroke="#9a32cd" stroke-dasharray="5,2" d="M801.84,-33.41C829.65,-36.52 871.08,-41.46 907,-47 921.13,-49.18 936.41,-51.87 950.39,-54.46"/>
<polygon fill="#9a32cd" stroke="#9a32cd" points="802.21,-29.93 791.88,-32.31 801.44,-36.89 802.21,-29.93"/>
<text text-anchor="middle" x="888.5" y="-50" font-family="Helvetica,sans-Serif" font-size="10.00"> _name</text>
</g>
</g>
</svg>
