<?xml version="1.0" encoding="UTF-8" standalone="no"?>
<!DOCTYPE svg PUBLIC "-//W3C//DTD SVG 1.1//EN"
 "http://www.w3.org/Graphics/SVG/1.1/DTD/svg11.dtd">
<!-- Generated by graphviz version 2.43.0 (0)
 -->
<!-- Title: com.cliffc.aa.node.ThretNode.ThretNode Pages: 1 -->
<svg width="512pt" height="176pt"
 viewBox="0.00 0.00 512.00 175.50" xmlns="http://www.w3.org/2000/svg" xmlns:xlink="http://www.w3.org/1999/xlink">
<g id="graph0" class="graph" transform="scale(1 1) rotate(0) translate(4 171.5)">
<title>com.cliffc.aa.node.ThretNode.ThretNode</title>
<!-- Node1 -->
<g id="node1" class="node">
<title>Node1</title>
<g id="a_node1"><a xlink:title=" ">
<polygon fill="#bfbfbf" stroke="black" points="0,-63 0,-93 134,-93 134,-63 0,-63"/>
<text text-anchor="start" x="8" y="-81" font-family="Helvetica,sans-Serif" font-size="10.00">com.cliffc.aa.node.Thret</text>
<text text-anchor="middle" x="67" y="-70" font-family="Helvetica,sans-Serif" font-size="10.00">Node.ThretNode</text>
</a>
</g>
</g>
<!-- Node2 -->
<g id="node2" class="node">
<title>Node2</title>
<g id="a_node2"><a xlink:href="../../db/d74/a01378.html#a8b197bfb143f2c68e82c0729fe4d8d7c" target="_top" xlink:title=" ">
<polygon fill="none" stroke="black" points="179,-137 179,-167 313,-167 313,-137 179,-137"/>
<text text-anchor="start" x="187" y="-155" font-family="Helvetica,sans-Serif" font-size="10.00">com.cliffc.aa.node.Thret</text>
<text text-anchor="middle" x="246" y="-144" font-family="Helvetica,sans-Serif" font-size="10.00">Node.ctrl</text>
</a>
</g>
</g>
<!-- Node1&#45;&gt;Node2 -->
<g id="edge1" class="edge">
<title>Node1&#45;&gt;Node2</title>
<path fill="none" stroke="midnightblue" d="M96.07,-93.14C116.28,-103.7 144.39,-117.69 170,-128 174.79,-129.93 179.8,-131.81 184.86,-133.62"/>
<polygon fill="midnightblue" stroke="midnightblue" points="184.02,-137.03 194.61,-136.99 186.31,-130.42 184.02,-137.03"/>
</g>
<!-- Node4 -->
<g id="node4" class="node">
<title>Node4</title>
<g id="a_node4"><a xlink:href="../../db/d74/a01378.html#a8f011e9794f1e56be6cdcdabf25433dc" target="_top" xlink:title=" ">
<polygon fill="none" stroke="black" points="179,-88 179,-118 313,-118 313,-88 179,-88"/>
<text text-anchor="start" x="187" y="-106" font-family="Helvetica,sans-Serif" font-size="10.00">com.cliffc.aa.node.Thret</text>
<text text-anchor="middle" x="246" y="-95" font-family="Helvetica,sans-Serif" font-size="10.00">Node.mem</text>
</a>
</g>
</g>
<!-- Node1&#45;&gt;Node4 -->
<g id="edge3" class="edge">
<title>Node1&#45;&gt;Node4</title>
<path fill="none" stroke="midnightblue" d="M134.16,-87.34C145.48,-88.94 157.31,-90.61 168.86,-92.25"/>
<polygon fill="midnightblue" stroke="midnightblue" points="168.53,-95.73 178.92,-93.67 169.51,-88.8 168.53,-95.73"/>
</g>
<!-- Node5 -->
<g id="node5" class="node">
<title>Node5</title>
<g id="a_node5"><a xlink:href="../../db/d74/a01378.html#a5ca80583f0299bafd22c91efceddb322" target="_top" xlink:title=" ">
<polygon fill="none" stroke="black" points="179,-39 179,-69 313,-69 313,-39 179,-39"/>
<text text-anchor="start" x="187" y="-57" font-family="Helvetica,sans-Serif" font-size="10.00">com.cliffc.aa.node.Thret</text>
<text text-anchor="middle" x="246" y="-46" font-family="Helvetica,sans-Serif" font-size="10.00">Node.thunk</text>
</a>
</g>
</g>
<!-- Node1&#45;&gt;Node5 -->
<g id="edge5" class="edge">
<title>Node1&#45;&gt;Node5</title>
<path fill="none" stroke="midnightblue" d="M134.16,-69.03C145.48,-67.49 157.31,-65.89 168.86,-64.32"/>
<polygon fill="midnightblue" stroke="midnightblue" points="169.48,-67.77 178.92,-62.96 168.54,-60.84 169.48,-67.77"/>
</g>
<!-- Node6 -->
<g id="node6" class="node">
<title>Node6</title>
<g id="a_node6"><a xlink:href="../../df/db5/a01158.html#a836e60a9058e50764b67efa7bf911fd4" target="_top" xlink:title=" ">
<polygon fill="none" stroke="black" points="170,-0.5 170,-19.5 322,-19.5 322,-0.5 170,-0.5"/>
<text text-anchor="middle" x="246" y="-7.5" font-family="Helvetica,sans-Serif" font-size="10.00">com.cliffc.aa.node.Node.val</text>
</a>
</g>
</g>
<!-- Node1&#45;&gt;Node6 -->
<g id="edge7" class="edge">
<title>Node1&#45;&gt;Node6</title>
<path fill="none" stroke="midnightblue" d="M96.43,-62.94C116.57,-52.68 144.45,-39.33 170,-30 177.65,-27.21 185.87,-24.62 193.96,-22.29"/>
<polygon fill="midnightblue" stroke="midnightblue" points="195.01,-25.63 203.72,-19.59 193.14,-18.88 195.01,-25.63"/>
</g>
<!-- Node3 -->
<g id="node3" class="node">
<title>Node3</title>
<g id="a_node3"><a xlink:href="../../df/db5/a01158.html#a9a46cea187559f94192aa6e09b91c60c" target="_top" xlink:title=" ">
<polygon fill="none" stroke="black" points="358,-68.5 358,-87.5 504,-87.5 504,-68.5 358,-68.5"/>
<text text-anchor="middle" x="431" y="-75.5" font-family="Helvetica,sans-Serif" font-size="10.00">com.cliffc.aa.node.Node.in</text>
</a>
</g>
</g>
<!-- Node2&#45;&gt;Node3 -->
<g id="edge2" class="edge">
<title>Node2&#45;&gt;Node3</title>
<path fill="none" stroke="midnightblue" d="M296.93,-136.98C305.36,-134.17 313.98,-131.13 322,-128 349.71,-117.2 380.41,-102.73 401.97,-92.14"/>
<polygon fill="midnightblue" stroke="midnightblue" points="403.78,-95.15 411.19,-87.58 400.68,-88.88 403.78,-95.15"/>
</g>
<!-- Node4&#45;&gt;Node3 -->
<g id="edge4" class="edge">
<title>Node4&#45;&gt;Node3</title>
<path fill="none" stroke="midnightblue" d="M313.07,-93.97C325.18,-92.32 337.95,-90.58 350.41,-88.87"/>
<polygon fill="midnightblue" stroke="midnightblue" points="350.89,-92.34 360.33,-87.52 349.94,-85.4 350.89,-92.34"/>
</g>
<!-- Node5&#45;&gt;Node3 -->
<g id="edge6" class="edge">
<title>Node5&#45;&gt;Node3</title>
<path fill="none" stroke="midnightblue" d="M313.07,-62.66C324.31,-64.14 336.11,-65.69 347.71,-67.21"/>
<polygon fill="midnightblue" stroke="midnightblue" points="347.47,-70.71 357.84,-68.54 348.38,-63.77 347.47,-70.71"/>
</g>
<!-- Node6&#45;&gt;Node3 -->
<g id="edge8" class="edge">
<title>Node6&#45;&gt;Node3</title>
<path fill="none" stroke="midnightblue" d="M287.45,-19.54C298.74,-22.54 310.94,-26.1 322,-30 349.68,-39.77 380.16,-53.62 401.66,-63.93"/>
<polygon fill="midnightblue" stroke="midnightblue" points="400.34,-67.18 410.86,-68.39 403.39,-60.88 400.34,-67.18"/>
</g>
</g>
</svg>
