<?xml version="1.0" encoding="UTF-8" standalone="no"?>
<!DOCTYPE svg PUBLIC "-//W3C//DTD SVG 1.1//EN"
 "http://www.w3.org/Graphics/SVG/1.1/DTD/svg11.dtd">
<!-- Generated by graphviz version 2.43.0 (0)
 -->
<!-- Title: com.cliffc.aa.node.PhiNode.value Pages: 1 -->
<svg width="589pt" height="165pt"
 viewBox="0.00 0.00 589.00 165.05" xmlns="http://www.w3.org/2000/svg" xmlns:xlink="http://www.w3.org/1999/xlink">
<g id="graph0" class="graph" transform="scale(1 1) rotate(0) translate(4 161.05)">
<title>com.cliffc.aa.node.PhiNode.value</title>
<!-- Node1 -->
<g id="node1" class="node">
<title>Node1</title>
<g id="a_node1"><a xlink:title=" ">
<polygon fill="#bfbfbf" stroke="black" points="0,-76.5 0,-95.5 179,-95.5 179,-76.5 0,-76.5"/>
<text text-anchor="middle" x="89.5" y="-83.5" font-family="Helvetica,sans-Serif" font-size="10.00">com.cliffc.aa.node.PhiNode.value</text>
</a>
</g>
</g>
<!-- Node2 -->
<g id="node2" class="node">
<title>Node2</title>
<g id="a_node2"><a xlink:href="../../df/db5/a01158.html#a9a46cea187559f94192aa6e09b91c60c" target="_top" xlink:title=" ">
<polygon fill="none" stroke="black" points="435,-76.5 435,-95.5 581,-95.5 581,-76.5 435,-76.5"/>
<text text-anchor="middle" x="508" y="-83.5" font-family="Helvetica,sans-Serif" font-size="10.00">com.cliffc.aa.node.Node.in</text>
</a>
</g>
</g>
<!-- Node1&#45;&gt;Node2 -->
<g id="edge1" class="edge">
<title>Node1&#45;&gt;Node2</title>
<path fill="none" stroke="midnightblue" d="M105.85,-95.68C128.63,-109.41 173.19,-133.88 215,-143 294.9,-160.42 319.62,-162.66 399,-143 431.27,-135.01 464.52,-115.42 485.45,-101.44"/>
<polygon fill="midnightblue" stroke="midnightblue" points="487.62,-104.2 493.89,-95.66 483.66,-98.43 487.62,-104.2"/>
</g>
<!-- Node3 -->
<g id="node3" class="node">
<title>Node3</title>
<g id="a_node3"><a xlink:href="../../d0/de2/a01442.html#a086b90d9d651ac00b80a9b5caa60eb09" target="_top" xlink:title=" ">
<polygon fill="none" stroke="black" points="228,-114.5 228,-133.5 386,-133.5 386,-114.5 228,-114.5"/>
<text text-anchor="middle" x="307" y="-121.5" font-family="Helvetica,sans-Serif" font-size="10.00">com.cliffc.aa.type.Type.meet</text>
</a>
</g>
</g>
<!-- Node1&#45;&gt;Node3 -->
<g id="edge2" class="edge">
<title>Node1&#45;&gt;Node3</title>
<path fill="none" stroke="midnightblue" d="M144.6,-95.54C174.06,-100.73 210.71,-107.2 241.63,-112.65"/>
<polygon fill="midnightblue" stroke="midnightblue" points="241.42,-116.17 251.88,-114.46 242.64,-109.27 241.42,-116.17"/>
</g>
<!-- Node4 -->
<g id="node4" class="node">
<title>Node4</title>
<g id="a_node4"><a xlink:href="../../d0/de2/a01442.html#ac2f6f55b9f59994754c84565d18187c0" target="_top" xlink:title=" ">
<polygon fill="none" stroke="black" points="215,-76.5 215,-95.5 399,-95.5 399,-76.5 215,-76.5"/>
<text text-anchor="middle" x="307" y="-83.5" font-family="Helvetica,sans-Serif" font-size="10.00">com.cliffc.aa.type.Type.meet_loop</text>
</a>
</g>
</g>
<!-- Node1&#45;&gt;Node4 -->
<g id="edge3" class="edge">
<title>Node1&#45;&gt;Node4</title>
<path fill="none" stroke="midnightblue" d="M179.09,-86C187.6,-86 196.27,-86 204.89,-86"/>
<polygon fill="midnightblue" stroke="midnightblue" points="204.97,-89.5 214.97,-86 204.97,-82.5 204.97,-89.5"/>
</g>
<!-- Node5 -->
<g id="node5" class="node">
<title>Node5</title>
<g id="a_node5"><a xlink:href="../../d0/de2/a01442.html#a388429cb6bea455104e3b9690d992854" target="_top" xlink:title=" ">
<polygon fill="none" stroke="black" points="232,-38.5 232,-57.5 382,-57.5 382,-38.5 232,-38.5"/>
<text text-anchor="middle" x="307" y="-45.5" font-family="Helvetica,sans-Serif" font-size="10.00">com.cliffc.aa.type.Type.oob</text>
</a>
</g>
</g>
<!-- Node1&#45;&gt;Node5 -->
<g id="edge4" class="edge">
<title>Node1&#45;&gt;Node5</title>
<path fill="none" stroke="midnightblue" d="M144.6,-76.46C174.06,-71.27 210.71,-64.8 241.63,-59.35"/>
<polygon fill="midnightblue" stroke="midnightblue" points="242.64,-62.73 251.88,-57.54 241.42,-55.83 242.64,-62.73"/>
</g>
<!-- Node6 -->
<g id="node6" class="node">
<title>Node6</title>
<g id="a_node6"><a xlink:href="../../df/db5/a01158.html#a836e60a9058e50764b67efa7bf911fd4" target="_top" xlink:title=" ">
<polygon fill="none" stroke="black" points="231,-0.5 231,-19.5 383,-19.5 383,-0.5 231,-0.5"/>
<text text-anchor="middle" x="307" y="-7.5" font-family="Helvetica,sans-Serif" font-size="10.00">com.cliffc.aa.node.Node.val</text>
</a>
</g>
</g>
<!-- Node1&#45;&gt;Node6 -->
<g id="edge5" class="edge">
<title>Node1&#45;&gt;Node6</title>
<path fill="none" stroke="midnightblue" d="M108.14,-76.39C131.81,-63.86 175.48,-41.99 215,-29 223.04,-26.36 231.61,-24 240.16,-21.92"/>
<polygon fill="midnightblue" stroke="midnightblue" points="241.18,-25.27 250.14,-19.61 239.6,-18.45 241.18,-25.27"/>
</g>
<!-- Node6&#45;&gt;Node2 -->
<g id="edge6" class="edge">
<title>Node6&#45;&gt;Node2</title>
<path fill="none" stroke="midnightblue" d="M365.96,-19.56C377.08,-22.11 388.52,-25.23 399,-29 429.58,-40.02 462.27,-58.28 483.57,-71.16"/>
<polygon fill="midnightblue" stroke="midnightblue" points="481.88,-74.23 492.24,-76.48 485.55,-68.27 481.88,-74.23"/>
</g>
</g>
</svg>
