<?xml version="1.0" encoding="UTF-8" standalone="no"?>
<!DOCTYPE svg PUBLIC "-//W3C//DTD SVG 1.1//EN"
 "http://www.w3.org/Graphics/SVG/1.1/DTD/svg11.dtd">
<!-- Generated by graphviz version 2.43.0 (0)
 -->
<!-- Title: com.cliffc.aa.node.PhiNode.err Pages: 1 -->
<svg width="807pt" height="154pt"
 viewBox="0.00 0.00 807.00 153.50" xmlns="http://www.w3.org/2000/svg" xmlns:xlink="http://www.w3.org/1999/xlink">
<g id="graph0" class="graph" transform="scale(1 1) rotate(0) translate(4 149.5)">
<title>com.cliffc.aa.node.PhiNode.err</title>
<!-- Node1 -->
<g id="node1" class="node">
<title>Node1</title>
<g id="a_node1"><a xlink:title=" ">
<polygon fill="#bfbfbf" stroke="black" points="0,-57.5 0,-76.5 166,-76.5 166,-57.5 0,-57.5"/>
<text text-anchor="middle" x="83" y="-64.5" font-family="Helvetica,sans-Serif" font-size="10.00">com.cliffc.aa.node.PhiNode.err</text>
</a>
</g>
</g>
<!-- Node2 -->
<g id="node2" class="node">
<title>Node2</title>
<g id="a_node2"><a xlink:href="../../dc/dee/a01166.html#a27f9762cf2c16f6a6f47b61cb6ce4920" target="_top" xlink:title=" ">
<polygon fill="none" stroke="black" points="226,-115 226,-145 363,-145 363,-115 226,-115"/>
<text text-anchor="start" x="234" y="-133" font-family="Helvetica,sans-Serif" font-size="10.00">com.cliffc.aa.node.Node.</text>
<text text-anchor="middle" x="294.5" y="-122" font-family="Helvetica,sans-Serif" font-size="10.00">ErrMsg.badGC</text>
</a>
</g>
</g>
<!-- Node1&#45;&gt;Node2 -->
<g id="edge1" class="edge">
<title>Node1&#45;&gt;Node2</title>
<path fill="none" stroke="midnightblue" d="M112.5,-76.57C136.33,-84.48 171.26,-95.86 202,-105 210.05,-107.4 218.53,-109.83 226.95,-112.19"/>
<polygon fill="midnightblue" stroke="midnightblue" points="226.2,-115.62 236.77,-114.93 228.07,-108.87 226.2,-115.62"/>
</g>
<!-- Node4 -->
<g id="node4" class="node">
<title>Node4</title>
<g id="a_node4"><a xlink:href="../../d0/de2/a01442.html#a640f024d213a20230703bff135686337" target="_top" xlink:title=" ">
<polygon fill="none" stroke="black" points="208,-76.5 208,-95.5 381,-95.5 381,-76.5 208,-76.5"/>
<text text-anchor="middle" x="294.5" y="-83.5" font-family="Helvetica,sans-Serif" font-size="10.00">com.cliffc.aa.type.Type.contains</text>
</a>
</g>
</g>
<!-- Node1&#45;&gt;Node4 -->
<g id="edge3" class="edge">
<title>Node1&#45;&gt;Node4</title>
<path fill="none" stroke="midnightblue" d="M166.2,-74.45C176.54,-75.39 187.18,-76.36 197.71,-77.31"/>
<polygon fill="midnightblue" stroke="midnightblue" points="197.47,-80.81 207.74,-78.22 198.1,-73.83 197.47,-80.81"/>
</g>
<!-- Node5 -->
<g id="node5" class="node">
<title>Node5</title>
<g id="a_node5"><a xlink:href="../../da/dfb/a01174.html#a3768364f4f015ac1b2abad1f6f108958" target="_top" xlink:title=" ">
<polygon fill="none" stroke="black" points="202,-38.5 202,-57.5 387,-57.5 387,-38.5 202,-38.5"/>
<text text-anchor="middle" x="294.5" y="-45.5" font-family="Helvetica,sans-Serif" font-size="10.00">com.cliffc.aa.node.PhiNode.equals</text>
</a>
</g>
</g>
<!-- Node1&#45;&gt;Node5 -->
<g id="edge4" class="edge">
<title>Node1&#45;&gt;Node5</title>
<path fill="none" stroke="midnightblue" d="M166.2,-59.55C174.6,-58.78 183.21,-58 191.79,-57.22"/>
<polygon fill="midnightblue" stroke="midnightblue" points="192.19,-60.7 201.84,-56.31 191.56,-53.73 192.19,-60.7"/>
</g>
<!-- Node8 -->
<g id="node8" class="node">
<title>Node8</title>
<g id="a_node8"><a xlink:href="../../df/db5/a01158.html#a9a46cea187559f94192aa6e09b91c60c" target="_top" xlink:title=" ">
<polygon fill="none" stroke="black" points="221.5,-0.5 221.5,-19.5 367.5,-19.5 367.5,-0.5 221.5,-0.5"/>
<text text-anchor="middle" x="294.5" y="-7.5" font-family="Helvetica,sans-Serif" font-size="10.00">com.cliffc.aa.node.Node.in</text>
</a>
</g>
</g>
<!-- Node1&#45;&gt;Node8 -->
<g id="edge7" class="edge">
<title>Node1&#45;&gt;Node8</title>
<path fill="none" stroke="midnightblue" d="M110.94,-57.42C134.7,-49.18 170.37,-37.35 202,-29 211.76,-26.42 222.19,-23.97 232.38,-21.75"/>
<polygon fill="midnightblue" stroke="midnightblue" points="233.41,-25.11 242.46,-19.59 231.95,-18.26 233.41,-25.11"/>
</g>
<!-- Node3 -->
<g id="node3" class="node">
<title>Node3</title>
<g id="a_node3"><a xlink:href="../../dc/dee/a01166.html#a02c185f9d57847aa3414ee3b72c59c12" target="_top" xlink:title=" ">
<polygon fill="none" stroke="black" points="430.5,-115 430.5,-145 567.5,-145 567.5,-115 430.5,-115"/>
<text text-anchor="start" x="438.5" y="-133" font-family="Helvetica,sans-Serif" font-size="10.00">com.cliffc.aa.node.Node.</text>
<text text-anchor="middle" x="499" y="-122" font-family="Helvetica,sans-Serif" font-size="10.00">ErrMsg.ErrMsg</text>
</a>
</g>
</g>
<!-- Node2&#45;&gt;Node3 -->
<g id="edge2" class="edge">
<title>Node2&#45;&gt;Node3</title>
<path fill="none" stroke="midnightblue" d="M363.21,-130C381.53,-130 401.51,-130 420.33,-130"/>
<polygon fill="midnightblue" stroke="midnightblue" points="420.35,-133.5 430.35,-130 420.35,-126.5 420.35,-133.5"/>
</g>
<!-- Node6 -->
<g id="node6" class="node">
<title>Node6</title>
<g id="a_node6"><a xlink:href="../../da/dfb/a01174.html#ae8f391a0ef1a536832fd3c37ccf4b86f" target="_top" xlink:title=" ">
<polygon fill="none" stroke="black" points="423,-33 423,-63 575,-63 575,-33 423,-33"/>
<text text-anchor="start" x="431" y="-51" font-family="Helvetica,sans-Serif" font-size="10.00">com.cliffc.aa.node.PhiNode.</text>
<text text-anchor="middle" x="499" y="-40" font-family="Helvetica,sans-Serif" font-size="10.00">PhiNode</text>
</a>
</g>
</g>
<!-- Node5&#45;&gt;Node6 -->
<g id="edge5" class="edge">
<title>Node5&#45;&gt;Node6</title>
<path fill="none" stroke="midnightblue" d="M387.27,-48C395.75,-48 404.32,-48 412.74,-48"/>
<polygon fill="midnightblue" stroke="midnightblue" points="412.92,-51.5 422.92,-48 412.92,-44.5 412.92,-51.5"/>
</g>
<!-- Node7 -->
<g id="node7" class="node">
<title>Node7</title>
<g id="a_node7"><a xlink:href="../../da/dfb/a01174.html#a02d08284cc3a1c3b028fb0ca20c4f816" target="_top" xlink:title=" ">
<polygon fill="none" stroke="black" points="611,-38.5 611,-57.5 799,-57.5 799,-38.5 611,-38.5"/>
<text text-anchor="middle" x="705" y="-45.5" font-family="Helvetica,sans-Serif" font-size="10.00">com.cliffc.aa.node.PhiNode.all_live</text>
</a>
</g>
</g>
<!-- Node6&#45;&gt;Node7 -->
<g id="edge6" class="edge">
<title>Node6&#45;&gt;Node7</title>
<path fill="none" stroke="midnightblue" d="M575.09,-48C583.42,-48 592.01,-48 600.61,-48"/>
<polygon fill="midnightblue" stroke="midnightblue" points="600.7,-51.5 610.7,-48 600.7,-44.5 600.7,-51.5"/>
</g>
</g>
</svg>
