<?xml version="1.0" encoding="UTF-8" standalone="no"?>
<!DOCTYPE svg PUBLIC "-//W3C//DTD SVG 1.1//EN"
 "http://www.w3.org/Graphics/SVG/1.1/DTD/svg11.dtd">
<!-- Generated by graphviz version 2.43.0 (0)
 -->
<!-- Title: com.cliffc.aa.HM.HM9.Let.add_hm_work Pages: 1 -->
<svg width="1077pt" height="123pt"
 viewBox="0.00 0.00 1077.00 123.00" xmlns="http://www.w3.org/2000/svg" xmlns:xlink="http://www.w3.org/1999/xlink">
<g id="graph0" class="graph" transform="scale(1 1) rotate(0) translate(4 119)">
<title>com.cliffc.aa.HM.HM9.Let.add_hm_work</title>
<!-- Node1 -->
<g id="node1" class="node">
<title>Node1</title>
<g id="a_node1"><a xlink:title=" ">
<polygon fill="#bfbfbf" stroke="black" points="0,-52 0,-82 163,-82 163,-52 0,-52"/>
<text text-anchor="start" x="8" y="-70" font-family="Helvetica,sans-Serif" font-size="10.00">com.cliffc.aa.HM.HM9.Let.add</text>
<text text-anchor="middle" x="81.5" y="-59" font-family="Helvetica,sans-Serif" font-size="10.00">_hm_work</text>
</a>
</g>
</g>
<!-- Node2 -->
<g id="node2" class="node">
<title>Node2</title>
<g id="a_node2"><a xlink:href="../../dc/dfa/a00894.html#aadca0c329de0b2550f7835f25bc89774" target="_top" xlink:title=" ">
<polygon fill="none" stroke="black" points="199,-95.5 199,-114.5 399,-114.5 399,-95.5 199,-95.5"/>
<text text-anchor="middle" x="299" y="-102.5" font-family="Helvetica,sans-Serif" font-size="10.00">com.cliffc.aa.HM.HM9.Worklist.addAll</text>
</a>
</g>
</g>
<!-- Node1&#45;&gt;Node2 -->
<g id="edge1" class="edge">
<title>Node1&#45;&gt;Node2</title>
<path fill="none" stroke="midnightblue" d="M163.05,-81.2C186.48,-85.34 211.75,-89.79 234.01,-93.72"/>
<polygon fill="midnightblue" stroke="midnightblue" points="233.55,-97.19 244.01,-95.48 234.77,-90.3 233.55,-97.19"/>
</g>
<!-- Node3 -->
<g id="node3" class="node">
<title>Node3</title>
<g id="a_node3"><a xlink:href="../../dc/dfa/a00894.html#aa3290b330eee25c8c1cc4b68ad91d643" target="_top" xlink:title=" ">
<polygon fill="none" stroke="black" points="435,-76.5 435,-95.5 628,-95.5 628,-76.5 435,-76.5"/>
<text text-anchor="middle" x="531.5" y="-83.5" font-family="Helvetica,sans-Serif" font-size="10.00">com.cliffc.aa.HM.HM9.Worklist.push</text>
</a>
</g>
</g>
<!-- Node1&#45;&gt;Node3 -->
<g id="edge9" class="edge">
<title>Node1&#45;&gt;Node3</title>
<path fill="none" stroke="midnightblue" d="M163.11,-70.42C236.31,-73.52 344.76,-78.12 424.86,-81.52"/>
<polygon fill="midnightblue" stroke="midnightblue" points="424.84,-85.02 434.98,-81.95 425.14,-78.03 424.84,-85.02"/>
</g>
<!-- Node4 -->
<g id="node4" class="node">
<title>Node4</title>
<g id="a_node4"><a xlink:href="../../da/dd8/a00906.html#ae99ae58abbce533b884b41567e0548e4" target="_top" xlink:title=" ">
<polygon fill="none" stroke="black" points="208,-19.5 208,-38.5 390,-38.5 390,-19.5 208,-19.5"/>
<text text-anchor="middle" x="299" y="-26.5" font-family="Helvetica,sans-Serif" font-size="10.00">com.cliffc.aa.HM.HM9.Syntax.find</text>
</a>
</g>
</g>
<!-- Node1&#45;&gt;Node4 -->
<g id="edge3" class="edge">
<title>Node1&#45;&gt;Node4</title>
<path fill="none" stroke="midnightblue" d="M163.05,-52.8C186.48,-48.66 211.75,-44.21 234.01,-40.28"/>
<polygon fill="midnightblue" stroke="midnightblue" points="234.77,-43.7 244.01,-38.52 233.55,-36.81 234.77,-43.7"/>
</g>
<!-- Node2&#45;&gt;Node3 -->
<g id="edge2" class="edge">
<title>Node2&#45;&gt;Node3</title>
<path fill="none" stroke="midnightblue" d="M399.09,-96.83C407.6,-96.13 416.22,-95.42 424.78,-94.71"/>
<polygon fill="midnightblue" stroke="midnightblue" points="425.1,-98.2 434.78,-93.89 424.53,-91.22 425.1,-98.2"/>
</g>
<!-- Node5 -->
<g id="node5" class="node">
<title>Node5</title>
<g id="a_node5"><a xlink:href="../../d9/d9a/a00998.html#a7ea29d41da89e8425de2d5fc41827d0d" target="_top" xlink:title=" ">
<polygon fill="none" stroke="black" points="451.5,-19.5 451.5,-38.5 611.5,-38.5 611.5,-19.5 451.5,-19.5"/>
<text text-anchor="middle" x="531.5" y="-26.5" font-family="Helvetica,sans-Serif" font-size="10.00">com.cliffc.aa.HM.HM9.T2.find</text>
</a>
</g>
</g>
<!-- Node4&#45;&gt;Node5 -->
<g id="edge4" class="edge">
<title>Node4&#45;&gt;Node5</title>
<path fill="none" stroke="midnightblue" d="M390.11,-29C406.84,-29 424.31,-29 441.02,-29"/>
<polygon fill="midnightblue" stroke="midnightblue" points="441.32,-32.5 451.32,-29 441.32,-25.5 441.32,-32.5"/>
</g>
<!-- Node6 -->
<g id="node6" class="node">
<title>Node6</title>
<g id="a_node6"><a xlink:href="../../d9/d9a/a00998.html#a54c20c24590ba86eeee97ff28589fe27" target="_top" xlink:title=" ">
<polygon fill="none" stroke="black" points="664,-0.5 664,-19.5 859,-19.5 859,-0.5 664,-0.5"/>
<text text-anchor="middle" x="761.5" y="-7.5" font-family="Helvetica,sans-Serif" font-size="10.00">com.cliffc.aa.HM.HM9.T2.debug_find</text>
</a>
</g>
</g>
<!-- Node5&#45;&gt;Node6 -->
<g id="edge5" class="edge">
<title>Node5&#45;&gt;Node6</title>
<path fill="none" stroke="midnightblue" d="M611.6,-22.41C625.16,-21.28 639.45,-20.09 653.59,-18.91"/>
<polygon fill="midnightblue" stroke="midnightblue" points="654.17,-22.37 663.85,-18.05 653.59,-15.4 654.17,-22.37"/>
</g>
<!-- Node7 -->
<g id="node7" class="node">
<title>Node7</title>
<g id="a_node7"><a xlink:href="../../d9/d9a/a00998.html#ad75595c704109c7f0c8e4f6e9dbc35bc" target="_top" xlink:title=" ">
<polygon fill="none" stroke="black" points="895,-38.5 895,-57.5 1069,-57.5 1069,-38.5 895,-38.5"/>
<text text-anchor="middle" x="982" y="-45.5" font-family="Helvetica,sans-Serif" font-size="10.00">com.cliffc.aa.HM.HM9.T2.is_leaf</text>
</a>
</g>
</g>
<!-- Node5&#45;&gt;Node7 -->
<g id="edge8" class="edge">
<title>Node5&#45;&gt;Node7</title>
<path fill="none" stroke="midnightblue" d="M611.65,-32.35C687.86,-35.58 803.24,-40.47 884.73,-43.92"/>
<polygon fill="midnightblue" stroke="midnightblue" points="884.86,-47.43 895,-44.36 885.15,-40.44 884.86,-47.43"/>
</g>
<!-- Node6&#45;&gt;Node7 -->
<g id="edge6" class="edge">
<title>Node6&#45;&gt;Node7</title>
<path fill="none" stroke="midnightblue" d="M817.35,-19.54C847.35,-24.76 884.7,-31.25 916.14,-36.72"/>
<polygon fill="midnightblue" stroke="midnightblue" points="915.67,-40.19 926.12,-38.46 916.87,-33.29 915.67,-40.19"/>
</g>
<!-- Node8 -->
<g id="node8" class="node">
<title>Node8</title>
<g id="a_node8"><a xlink:href="../../d9/d9a/a00998.html#a169dfbbe7e0413caed9c990bfb7c19ad" target="_top" xlink:title=" ">
<polygon fill="none" stroke="black" points="897.5,-0.5 897.5,-19.5 1066.5,-19.5 1066.5,-0.5 897.5,-0.5"/>
<text text-anchor="middle" x="982" y="-7.5" font-family="Helvetica,sans-Serif" font-size="10.00">com.cliffc.aa.HM.HM9.T2.no_uf</text>
</a>
</g>
</g>
<!-- Node6&#45;&gt;Node8 -->
<g id="edge7" class="edge">
<title>Node6&#45;&gt;Node8</title>
<path fill="none" stroke="midnightblue" d="M859.29,-10C868.5,-10 877.82,-10 887,-10"/>
<polygon fill="midnightblue" stroke="midnightblue" points="887.29,-13.5 897.29,-10 887.29,-6.5 887.29,-13.5"/>
</g>
</g>
</svg>
