<?xml version="1.0" encoding="UTF-8" standalone="no"?>
<!DOCTYPE svg PUBLIC "-//W3C//DTD SVG 1.1//EN"
 "http://www.w3.org/Graphics/SVG/1.1/DTD/svg11.dtd">
<!-- Generated by graphviz version 2.43.0 (0)
 -->
<!-- Title: com.cliffc.aa.HM.HM7.Apply Pages: 1 -->
<svg width="1970pt" height="808pt"
 viewBox="0.00 0.00 1970.00 807.74" xmlns="http://www.w3.org/2000/svg" xmlns:xlink="http://www.w3.org/1999/xlink">
<g id="graph0" class="graph" transform="scale(1 1) rotate(0) translate(4 803.74)">
<title>com.cliffc.aa.HM.HM7.Apply</title>
<!-- Node1 -->
<g id="node1" class="node">
<title>Node1</title>
<g id="a_node1"><a xlink:title=" ">
<polygon fill="#bfbfbf" stroke="black" points="1807,-610.24 1807,-629.24 1962,-629.24 1962,-610.24 1807,-610.24"/>
<text text-anchor="middle" x="1884.5" y="-617.24" font-family="Helvetica,sans-Serif" font-size="10.00">com.cliffc.aa.HM.HM7.Apply</text>
</a>
</g>
</g>
<!-- Node2 -->
<g id="node2" class="node">
<title>Node2</title>
<g id="a_node2"><a xlink:href="../../d5/dcd/a00802.html" target="_top" xlink:title=" ">
<polygon fill="none" stroke="black" points="1583,-610.24 1583,-629.24 1744,-629.24 1744,-610.24 1583,-610.24"/>
<text text-anchor="middle" x="1663.5" y="-617.24" font-family="Helvetica,sans-Serif" font-size="10.00">com.cliffc.aa.HM.HM7.Syntax</text>
</a>
</g>
</g>
<!-- Node2&#45;&gt;Node1 -->
<g id="edge1" class="edge">
<title>Node2&#45;&gt;Node1</title>
<path fill="none" stroke="midnightblue" d="M1754.38,-624.78C1766.02,-625.01 1777.79,-625.04 1789,-624.74 1794.83,-624.59 1800.86,-624.38 1806.92,-624.14"/>
<polygon fill="midnightblue" stroke="midnightblue" points="1754.27,-621.27 1744.19,-624.52 1754.1,-628.27 1754.27,-621.27"/>
</g>
<!-- Node2&#45;&gt;Node1 -->
<g id="edge40" class="edge">
<title>Node2&#45;&gt;Node1</title>
<path fill="none" stroke="#9a32cd" stroke-dasharray="5,2" d="M1703.52,-607.53C1727.98,-601.28 1760.21,-595.58 1789,-598.74 1809.21,-600.96 1831.43,-605.78 1849.24,-610.24"/>
<polygon fill="#9a32cd" stroke="#9a32cd" points="1702.29,-604.24 1693.55,-610.22 1704.11,-611 1702.29,-604.24"/>
<text text-anchor="middle" x="1775.5" y="-612.74" font-family="Helvetica,sans-Serif" font-size="10.00"> _fun</text>
<text text-anchor="middle" x="1775.5" y="-601.74" font-family="Helvetica,sans-Serif" font-size="10.00">_args</text>
</g>
<!-- Node2&#45;&gt;Node2 -->
<g id="edge39" class="edge">
<title>Node2&#45;&gt;Node2</title>
<path fill="none" stroke="#9a32cd" stroke-dasharray="5,2" d="M1642.76,-639.14C1644.15,-644.06 1651.06,-647.74 1663.5,-647.74 1683.41,-647.74 1689.16,-638.31 1680.76,-629.5"/>
<polygon fill="#9a32cd" stroke="#9a32cd" points="1646.14,-640.1 1646.24,-629.5 1639.55,-637.72 1646.14,-640.1"/>
<text text-anchor="middle" x="1663.5" y="-650.74" font-family="Helvetica,sans-Serif" font-size="10.00"> _par</text>
</g>
<!-- Node3 -->
<g id="node3" class="node">
<title>Node3</title>
<g id="a_node3"><a xlink:href="../../d5/d12/a00794.html" target="_top" xlink:title=" ">
<polygon fill="none" stroke="black" points="1341,-631.24 1341,-650.24 1502,-650.24 1502,-631.24 1341,-631.24"/>
<text text-anchor="middle" x="1421.5" y="-638.24" font-family="Helvetica,sans-Serif" font-size="10.00">com.cliffc.aa.HM.HM7.VStack</text>
</a>
</g>
</g>
<!-- Node3&#45;&gt;Node2 -->
<g id="edge2" class="edge">
<title>Node3&#45;&gt;Node2</title>
<path fill="none" stroke="#9a32cd" stroke-dasharray="5,2" d="M1512.24,-632.89C1535.38,-630.87 1560.13,-628.7 1582.72,-626.73"/>
<polygon fill="#9a32cd" stroke="#9a32cd" points="1511.74,-629.42 1502.08,-633.78 1512.35,-636.4 1511.74,-629.42"/>
<text text-anchor="middle" x="1542.5" y="-635.74" font-family="Helvetica,sans-Serif" font-size="10.00"> _nongen</text>
</g>
<!-- Node3&#45;&gt;Node3 -->
<g id="edge4" class="edge">
<title>Node3&#45;&gt;Node3</title>
<path fill="none" stroke="#9a32cd" stroke-dasharray="5,2" d="M1399.18,-659.77C1400.4,-664.87 1407.84,-668.74 1421.5,-668.74 1442.83,-668.74 1448.99,-659.31 1440,-650.5"/>
<polygon fill="#9a32cd" stroke="#9a32cd" points="1402.43,-661.08 1403,-650.5 1395.95,-658.41 1402.43,-661.08"/>
<text text-anchor="middle" x="1421.5" y="-671.74" font-family="Helvetica,sans-Serif" font-size="10.00"> _par</text>
</g>
<!-- Node4 -->
<g id="node4" class="node">
<title>Node4</title>
<g id="a_node4"><a xlink:href="../../dd/df4/a02510.html" target="_top" xlink:title=" ">
<polygon fill="none" stroke="black" points="1138.5,-659.24 1138.5,-678.24 1227.5,-678.24 1227.5,-659.24 1138.5,-659.24"/>
<text text-anchor="middle" x="1183" y="-666.24" font-family="Helvetica,sans-Serif" font-size="10.00">Iterable&lt; T2 &gt;</text>
</a>
</g>
</g>
<!-- Node4&#45;&gt;Node3 -->
<g id="edge3" class="edge">
<title>Node4&#45;&gt;Node3</title>
<path fill="none" stroke="midnightblue" d="M1237.49,-662.69C1263.33,-659.73 1294.79,-656.1 1323,-652.74 1329.69,-651.95 1336.64,-651.11 1343.6,-650.27"/>
<polygon fill="midnightblue" stroke="midnightblue" points="1237.06,-659.21 1227.52,-663.82 1237.85,-666.17 1237.06,-659.21"/>
</g>
<!-- Node5 -->
<g id="node5" class="node">
<title>Node5</title>
<g id="a_node5"><a xlink:href="../../d9/d02/a00834.html" target="_top" xlink:title=" ">
<polygon fill="none" stroke="black" points="1113.5,-592.24 1113.5,-611.24 1252.5,-611.24 1252.5,-592.24 1113.5,-592.24"/>
<text text-anchor="middle" x="1183" y="-599.24" font-family="Helvetica,sans-Serif" font-size="10.00">com.cliffc.aa.HM.HM7.T2</text>
</a>
</g>
</g>
<!-- Node5&#45;&gt;Node2 -->
<g id="edge38" class="edge">
<title>Node5&#45;&gt;Node2</title>
<path fill="none" stroke="#9a32cd" stroke-dasharray="5,2" d="M1262.64,-603.36C1327.01,-604.84 1420.42,-607.3 1502,-610.74 1528.35,-611.86 1557.12,-613.37 1582.93,-614.85"/>
<polygon fill="#9a32cd" stroke="#9a32cd" points="1262.64,-599.86 1252.56,-603.14 1262.48,-606.86 1262.64,-599.86"/>
<text text-anchor="middle" x="1421.5" y="-613.74" font-family="Helvetica,sans-Serif" font-size="10.00"> _t</text>
</g>
<!-- Node5&#45;&gt;Node3 -->
<g id="edge5" class="edge">
<title>Node5&#45;&gt;Node3</title>
<path fill="none" stroke="#9a32cd" stroke-dasharray="5,2" d="M1252.01,-612.96C1287.08,-618.74 1329.39,-625.72 1362.83,-631.24"/>
<polygon fill="#9a32cd" stroke="#9a32cd" points="1252.29,-609.46 1241.85,-611.29 1251.15,-616.37 1252.29,-609.46"/>
<text text-anchor="middle" x="1300.5" y="-626.74" font-family="Helvetica,sans-Serif" font-size="10.00"> _nongen</text>
</g>
<!-- Node5&#45;&gt;Node5 -->
<g id="edge17" class="edge">
<title>Node5&#45;&gt;Node5</title>
<path fill="none" stroke="#9a32cd" stroke-dasharray="5,2" d="M1161.52,-621.14C1162.95,-626.06 1170.11,-629.74 1183,-629.74 1203.62,-629.74 1209.58,-620.31 1200.88,-611.5"/>
<polygon fill="#9a32cd" stroke="#9a32cd" points="1164.9,-622.09 1165.12,-611.5 1158.34,-619.65 1164.9,-622.09"/>
<text text-anchor="middle" x="1183" y="-632.74" font-family="Helvetica,sans-Serif" font-size="10.00"> _args</text>
</g>
<!-- Node6 -->
<g id="node6" class="node">
<title>Node6</title>
<g id="a_node6"><a xlink:title=" ">
<polygon fill="none" stroke="#bfbfbf" points="485.5,-476.24 485.5,-495.24 530.5,-495.24 530.5,-476.24 485.5,-476.24"/>
<text text-anchor="middle" x="508" y="-483.24" font-family="Helvetica,sans-Serif" font-size="10.00">String</text>
</a>
</g>
</g>
<!-- Node6&#45;&gt;Node5 -->
<g id="edge6" class="edge">
<title>Node6&#45;&gt;Node5</title>
<path fill="none" stroke="#9a32cd" stroke-dasharray="5,2" d="M541.08,-483.07C620,-477.39 829.39,-467.77 997,-508.74 1066.14,-525.65 1139,-572.04 1168.46,-592.19"/>
<polygon fill="#9a32cd" stroke="#9a32cd" points="540.54,-479.6 530.83,-483.84 541.06,-486.58 540.54,-479.6"/>
<text text-anchor="middle" x="900" y="-522.74" font-family="Helvetica,sans-Serif" font-size="10.00"> _name</text>
<text text-anchor="middle" x="900" y="-511.74" font-family="Helvetica,sans-Serif" font-size="10.00">_ids</text>
</g>
<!-- Node18 -->
<g id="node18" class="node">
<title>Node18</title>
<g id="a_node18"><a xlink:href="../../d0/de2/a01442.html" target="_top" xlink:title="an implementation of language AA">
<polygon fill="none" stroke="black" points="835,-215.74 835,-245.74 965,-245.74 965,-215.74 835,-215.74"/>
<text text-anchor="start" x="843" y="-233.74" font-family="Helvetica,sans-Serif" font-size="10.00">com.cliffc.aa.type.Type</text>
<text text-anchor="middle" x="900" y="-222.74" font-family="Helvetica,sans-Serif" font-size="10.00">&lt; T extends Type&lt; T &gt;</text>
</a>
</g>
</g>
<!-- Node6&#45;&gt;Node18 -->
<g id="edge26" class="edge">
<title>Node6&#45;&gt;Node18</title>
<path fill="none" stroke="#9a32cd" stroke-dasharray="5,2" d="M540.8,-478.24C554.53,-474.33 570.51,-468.86 584,-461.74 592.96,-457.02 593.12,-452.64 602,-447.74 677.73,-406.02 715.4,-433.04 785,-381.74 836.56,-343.74 875.72,-276.02 891.45,-245.91"/>
<polygon fill="#9a32cd" stroke="#9a32cd" points="539.56,-474.95 530.81,-480.93 541.38,-481.71 539.56,-474.95"/>
<text text-anchor="middle" x="693.5" y="-461.74" font-family="Helvetica,sans-Serif" font-size="10.00"> STRS</text>
<text text-anchor="middle" x="693.5" y="-450.74" font-family="Helvetica,sans-Serif" font-size="10.00">_name</text>
</g>
<!-- Node7 -->
<g id="node7" class="node">
<title>Node7</title>
<g id="a_node7"><a xlink:href="../../df/dee/a01646.html" target="_top" xlink:title=" ">
<polygon fill="none" stroke="black" points="831.5,-571.24 831.5,-590.24 968.5,-590.24 968.5,-571.24 831.5,-571.24"/>
<text text-anchor="middle" x="900" y="-578.24" font-family="Helvetica,sans-Serif" font-size="10.00">com.cliffc.aa.util.VBitSet</text>
</a>
</g>
</g>
<!-- Node7&#45;&gt;Node5 -->
<g id="edge7" class="edge">
<title>Node7&#45;&gt;Node5</title>
<path fill="none" stroke="#9a32cd" stroke-dasharray="5,2" d="M978.94,-576.93C1012.58,-576.27 1052.32,-576.81 1088,-580.74 1108.11,-582.96 1130.21,-587.78 1147.93,-592.24"/>
<polygon fill="#9a32cd" stroke="#9a32cd" points="978.62,-573.44 968.71,-577.17 978.79,-580.44 978.62,-573.44"/>
<text text-anchor="middle" x="1051.5" y="-594.74" font-family="Helvetica,sans-Serif" font-size="10.00"> UPDATE_VISIT</text>
<text text-anchor="middle" x="1051.5" y="-583.74" font-family="Helvetica,sans-Serif" font-size="10.00">ODUPS</text>
</g>
<!-- Node8 -->
<g id="node8" class="node">
<title>Node8</title>
<g id="a_node8"><a xlink:title=" ">
<polygon fill="none" stroke="#bfbfbf" points="485,-571.24 485,-590.24 531,-590.24 531,-571.24 485,-571.24"/>
<text text-anchor="middle" x="508" y="-578.24" font-family="Helvetica,sans-Serif" font-size="10.00">BitSet</text>
</a>
</g>
</g>
<!-- Node8&#45;&gt;Node7 -->
<g id="edge8" class="edge">
<title>Node8&#45;&gt;Node7</title>
<path fill="none" stroke="midnightblue" d="M541.27,-580.74C604.67,-580.74 746.64,-580.74 831.43,-580.74"/>
<polygon fill="midnightblue" stroke="midnightblue" points="541.09,-577.24 531.09,-580.74 541.09,-584.24 541.09,-577.24"/>
</g>
<!-- Node9 -->
<g id="node9" class="node">
<title>Node9</title>
<g id="a_node9"><a xlink:href="../../d6/d02/a01542.html" target="_top" xlink:title=" ">
<polygon fill="none" stroke="black" points="602,-517.74 602,-547.74 785,-547.74 785,-517.74 602,-517.74"/>
<text text-anchor="start" x="610" y="-535.74" font-family="Helvetica,sans-Serif" font-size="10.00">com.cliffc.aa.util.Ary</text>
<text text-anchor="middle" x="693.5" y="-524.74" font-family="Helvetica,sans-Serif" font-size="10.00">&lt; com.cliffc.aa.HM.HM7.Syntax &gt;</text>
</a>
</g>
</g>
<!-- Node9&#45;&gt;Node5 -->
<g id="edge9" class="edge">
<title>Node9&#45;&gt;Node5</title>
<path fill="none" stroke="#9a32cd" stroke-dasharray="5,2" d="M795.39,-534.01C854.44,-535.93 930.28,-540.42 997,-550.74 1038.23,-557.12 1047.78,-562.68 1088,-573.74 1109.18,-579.57 1132.88,-586.64 1151.19,-592.21"/>
<polygon fill="#9a32cd" stroke="#9a32cd" points="795.41,-530.51 785.31,-533.7 795.2,-537.5 795.41,-530.51"/>
<text text-anchor="middle" x="900" y="-553.74" font-family="Helvetica,sans-Serif" font-size="10.00"> _deps</text>
</g>
<!-- Node10 -->
<g id="node10" class="node">
<title>Node10</title>
<g id="a_node10"><a xlink:href="../../d6/d02/a01542.html" target="_top" xlink:title=" ">
<polygon fill="none" stroke="black" points="143,-264.24 143,-283.24 289,-283.24 289,-264.24 143,-264.24"/>
<text text-anchor="middle" x="216" y="-271.24" font-family="Helvetica,sans-Serif" font-size="10.00">com.cliffc.aa.util.Ary&lt; E &gt;</text>
</a>
</g>
</g>
<!-- Node10&#45;&gt;Node9 -->
<g id="edge10" class="edge">
<title>Node10&#45;&gt;Node9</title>
<path fill="none" stroke="orange" stroke-dasharray="5,2" d="M285.21,-289.03C286.55,-290.18 287.81,-291.42 289,-292.74 325,-332.9 279.15,-366.56 307,-412.74 342.62,-471.82 367.71,-479.75 432,-504.74 485.84,-525.68 550.37,-532.73 601.74,-534.53"/>
<polygon fill="orange" stroke="orange" points="287.12,-286.09 276.9,-283.27 283.13,-291.85 287.12,-286.09"/>
<text text-anchor="start" x="312" y="-511.74" font-family="Helvetica,sans-Serif" font-size="10.00"> &lt; com::cliffc::aa::</text>
<text text-anchor="middle" x="360.5" y="-500.74" font-family="Helvetica,sans-Serif" font-size="10.00">HM::HM7::Syntax &gt;</text>
</g>
<!-- Node20 -->
<g id="node20" class="node">
<title>Node20</title>
<g id="a_node20"><a xlink:href="../../d6/d02/a01542.html" target="_top" xlink:title=" ">
<polygon fill="none" stroke="black" points="432,-5.74 432,-35.74 584,-35.74 584,-5.74 432,-5.74"/>
<text text-anchor="start" x="440" y="-23.74" font-family="Helvetica,sans-Serif" font-size="10.00">com.cliffc.aa.util.Ary</text>
<text text-anchor="middle" x="508" y="-12.74" font-family="Helvetica,sans-Serif" font-size="10.00">&lt; com.cliffc.aa.type.Type &gt;</text>
</a>
</g>
</g>
<!-- Node10&#45;&gt;Node20 -->
<g id="edge25" class="edge">
<title>Node10&#45;&gt;Node20</title>
<path fill="none" stroke="orange" stroke-dasharray="5,2" d="M229.23,-255.59C258.93,-212.83 339.29,-104.94 432,-45.74 438.02,-41.9 444.68,-38.59 451.49,-35.75"/>
<polygon fill="orange" stroke="orange" points="226.29,-253.68 223.52,-263.91 232.06,-257.64 226.29,-253.68"/>
<text text-anchor="start" x="316" y="-166.74" font-family="Helvetica,sans-Serif" font-size="10.00"> &lt; com::cliffc::aa::</text>
<text text-anchor="middle" x="360.5" y="-155.74" font-family="Helvetica,sans-Serif" font-size="10.00">type::Type &gt;</text>
</g>
<!-- Node11 -->
<g id="node11" class="node">
<title>Node11</title>
<g id="a_node11"><a xlink:href="../../dd/df4/a02510.html" target="_top" xlink:title=" ">
<polygon fill="none" stroke="black" points="0,-273.24 0,-292.24 83,-292.24 83,-273.24 0,-273.24"/>
<text text-anchor="middle" x="41.5" y="-280.24" font-family="Helvetica,sans-Serif" font-size="10.00">Iterable&lt; E &gt;</text>
</a>
</g>
</g>
<!-- Node11&#45;&gt;Node10 -->
<g id="edge11" class="edge">
<title>Node11&#45;&gt;Node10</title>
<path fill="none" stroke="midnightblue" d="M93.7,-280.07C109.07,-279.27 126.22,-278.38 142.68,-277.52"/>
<polygon fill="midnightblue" stroke="midnightblue" points="93.18,-276.6 83.38,-280.61 93.55,-283.59 93.18,-276.6"/>
</g>
<!-- Node12 -->
<g id="node12" class="node">
<title>Node12</title>
<g id="a_node12"><a xlink:title=" ">
<polygon fill="none" stroke="#bfbfbf" points="26.5,-235.24 26.5,-254.24 56.5,-254.24 56.5,-235.24 26.5,-235.24"/>
<text text-anchor="middle" x="41.5" y="-242.24" font-family="Helvetica,sans-Serif" font-size="10.00">E[]</text>
</a>
</g>
</g>
<!-- Node12&#45;&gt;Node10 -->
<g id="edge12" class="edge">
<title>Node12&#45;&gt;Node10</title>
<path fill="none" stroke="#9a32cd" stroke-dasharray="5,2" d="M66.48,-248.78C90.16,-252.76 127.25,-258.99 158.44,-264.24"/>
<polygon fill="#9a32cd" stroke="#9a32cd" points="67.06,-245.32 56.62,-247.12 65.9,-252.23 67.06,-245.32"/>
<text text-anchor="middle" x="113" y="-261.74" font-family="Helvetica,sans-Serif" font-size="10.00"> _es</text>
</g>
<!-- Node13 -->
<g id="node13" class="node">
<title>Node13</title>
<g id="a_node13"><a xlink:title=" ">
<polygon fill="none" stroke="#bfbfbf" points="27,-410.24 27,-429.24 56,-429.24 56,-410.24 27,-410.24"/>
<text text-anchor="middle" x="41.5" y="-417.24" font-family="Helvetica,sans-Serif" font-size="10.00">int</text>
</a>
</g>
</g>
<!-- Node13&#45;&gt;Node5 -->
<g id="edge16" class="edge">
<title>Node13&#45;&gt;Node5</title>
<path fill="none" stroke="#9a32cd" stroke-dasharray="5,2" d="M43.04,-439.6C46.21,-513.28 67.8,-766.74 215,-766.74 215,-766.74 215,-766.74 901,-766.74 986.59,-766.74 1028.39,-782.17 1088,-720.74 1110.67,-697.38 1086.88,-676.09 1106,-649.74 1118.93,-631.94 1140.67,-619.18 1157.59,-611.32"/>
<polygon fill="#9a32cd" stroke="#9a32cd" points="46.53,-439.26 42.68,-429.39 39.54,-439.51 46.53,-439.26"/>
<text text-anchor="middle" x="508" y="-791.74" font-family="Helvetica,sans-Serif" font-size="10.00"> _uid</text>
<text text-anchor="middle" x="508" y="-780.74" font-family="Helvetica,sans-Serif" font-size="10.00">VCNT</text>
<text text-anchor="middle" x="508" y="-769.74" font-family="Helvetica,sans-Serif" font-size="10.00">CNT</text>
</g>
<!-- Node13&#45;&gt;Node10 -->
<g id="edge13" class="edge">
<title>Node13&#45;&gt;Node10</title>
<path fill="none" stroke="#9a32cd" stroke-dasharray="5,2" d="M52.08,-400.77C67.33,-372.6 99.86,-320.1 143,-292.74 149.11,-288.87 156,-285.78 163.02,-283.32"/>
<polygon fill="#9a32cd" stroke="#9a32cd" points="48.81,-399.47 47.26,-409.96 55.01,-402.73 48.81,-399.47"/>
<text text-anchor="middle" x="113" y="-330.74" font-family="Helvetica,sans-Serif" font-size="10.00"> _len</text>
</g>
<!-- Node13&#45;&gt;Node18 -->
<g id="edge34" class="edge">
<title>Node13&#45;&gt;Node18</title>
<path fill="none" stroke="#9a32cd" stroke-dasharray="5,2" d="M66.02,-413.63C111.96,-401.97 217.03,-376.63 307,-364.74 518.31,-336.83 589.04,-409.6 785,-325.74 827.63,-307.5 866.67,-267.95 886.1,-246.07"/>
<polygon fill="#9a32cd" stroke="#9a32cd" points="64.96,-410.29 56.15,-416.16 66.7,-417.07 64.96,-410.29"/>
<text text-anchor="middle" x="360.5" y="-400.74" font-family="Helvetica,sans-Serif" font-size="10.00"> RECURSIVE_MEET</text>
<text text-anchor="middle" x="360.5" y="-389.74" font-family="Helvetica,sans-Serif" font-size="10.00">_uid</text>
<text text-anchor="middle" x="360.5" y="-378.74" font-family="Helvetica,sans-Serif" font-size="10.00">CNT</text>
<text text-anchor="middle" x="360.5" y="-367.74" font-family="Helvetica,sans-Serif" font-size="10.00">_hash</text>
</g>
<!-- Node21 -->
<g id="node21" class="node">
<title>Node21</title>
<g id="a_node21"><a xlink:href="../../d8/d22/a01446.html" target="_top" xlink:title=" ">
<polygon fill="none" stroke="black" points="1106,-215.74 1106,-245.74 1260,-245.74 1260,-215.74 1106,-215.74"/>
<text text-anchor="start" x="1114" y="-233.74" font-family="Helvetica,sans-Serif" font-size="10.00">com.cliffc.aa.type.Type</text>
<text text-anchor="middle" x="1183" y="-222.74" font-family="Helvetica,sans-Serif" font-size="10.00">&lt; T extends Type&lt; T &gt;.Pool</text>
</a>
</g>
</g>
<!-- Node13&#45;&gt;Node21 -->
<g id="edge29" class="edge">
<title>Node13&#45;&gt;Node21</title>
<path fill="none" stroke="#9a32cd" stroke-dasharray="5,2" d="M66.1,-424.29C112.18,-432.91 217.47,-451.35 307,-457.74 354.43,-461.13 373.41,-482.52 414,-457.74 428.93,-448.63 417.23,-432.12 432,-422.74 555.17,-344.59 963.58,-475.88 1088,-399.74 1145.56,-364.52 1170.68,-280.43 1178.82,-245.92"/>
<polygon fill="#9a32cd" stroke="#9a32cd" points="66.67,-420.84 56.19,-422.42 65.37,-427.72 66.67,-420.84"/>
<text text-anchor="middle" x="508" y="-458.74" font-family="Helvetica,sans-Serif" font-size="10.00"> _free</text>
<text text-anchor="middle" x="508" y="-447.74" font-family="Helvetica,sans-Serif" font-size="10.00">_pool</text>
<text text-anchor="middle" x="508" y="-436.74" font-family="Helvetica,sans-Serif" font-size="10.00">_malloc</text>
<text text-anchor="middle" x="508" y="-425.74" font-family="Helvetica,sans-Serif" font-size="10.00">_clone</text>
</g>
<!-- Node14 -->
<g id="node14" class="node">
<title>Node14</title>
<g id="a_node14"><a xlink:title=" ">
<polygon fill="none" stroke="#bfbfbf" points="816,-707.74 816,-737.74 984,-737.74 984,-707.74 816,-707.74"/>
<text text-anchor="start" x="824" y="-725.74" font-family="Helvetica,sans-Serif" font-size="10.00">HashMap&lt; Long, com.cliffc.aa.</text>
<text text-anchor="middle" x="900" y="-714.74" font-family="Helvetica,sans-Serif" font-size="10.00">HM.HM7.T2 &gt;</text>
</a>
</g>
</g>
<!-- Node14&#45;&gt;Node5 -->
<g id="edge14" class="edge">
<title>Node14&#45;&gt;Node5</title>
<path fill="none" stroke="#9a32cd" stroke-dasharray="5,2" d="M994.39,-711.06C1026.05,-703.89 1060.37,-692.35 1088,-673.74 1099.06,-666.3 1096.2,-658.79 1106,-649.74 1123.32,-633.76 1146.65,-619.94 1162.87,-611.28"/>
<polygon fill="#9a32cd" stroke="#9a32cd" points="993.26,-707.72 984.21,-713.23 994.72,-714.56 993.26,-707.72"/>
<text text-anchor="middle" x="1051.5" y="-708.74" font-family="Helvetica,sans-Serif" font-size="10.00"> DUPS</text>
</g>
<!-- Node15 -->
<g id="node15" class="node">
<title>Node15</title>
<g id="a_node15"><a xlink:title=" ">
<polygon fill="none" stroke="#bfbfbf" points="477,-668.24 477,-687.24 539,-687.24 539,-668.24 477,-668.24"/>
<text text-anchor="middle" x="508" y="-675.24" font-family="Helvetica,sans-Serif" font-size="10.00">HashMap</text>
</a>
</g>
</g>
<!-- Node15&#45;&gt;Node14 -->
<g id="edge15" class="edge">
<title>Node15&#45;&gt;Node14</title>
<path fill="none" stroke="orange" stroke-dasharray="5,2" d="M549.06,-689.22C565.36,-693.48 584.45,-697.95 602,-700.74 673.74,-712.19 756.19,-717.7 815.99,-720.34"/>
<polygon fill="orange" stroke="orange" points="549.88,-685.82 539.31,-686.61 548.07,-692.58 549.88,-685.82"/>
<text text-anchor="start" x="644" y="-732.74" font-family="Helvetica,sans-Serif" font-size="10.00"> &lt; Long, com::cliffc</text>
<text text-anchor="middle" x="693.5" y="-721.74" font-family="Helvetica,sans-Serif" font-size="10.00">::aa::HM::HM7::T2 &gt;</text>
</g>
<!-- Node16 -->
<g id="node16" class="node">
<title>Node16</title>
<g id="a_node16"><a xlink:title=" ">
<polygon fill="none" stroke="#bfbfbf" points="821,-658.74 821,-688.74 979,-688.74 979,-658.74 821,-658.74"/>
<text text-anchor="start" x="829" y="-676.74" font-family="Helvetica,sans-Serif" font-size="10.00">HashMap&lt; com.cliffc.aa.HM.</text>
<text text-anchor="middle" x="900" y="-665.74" font-family="Helvetica,sans-Serif" font-size="10.00">HM7.T2, Integer &gt;</text>
</a>
</g>
</g>
<!-- Node15&#45;&gt;Node16 -->
<g id="edge19" class="edge">
<title>Node15&#45;&gt;Node16</title>
<path fill="none" stroke="orange" stroke-dasharray="5,2" d="M549.36,-677.33C613.27,-676.68 738.89,-675.39 820.86,-674.55"/>
<polygon fill="orange" stroke="orange" points="549.24,-673.83 539.28,-677.43 549.31,-680.83 549.24,-673.83"/>
<text text-anchor="start" x="636" y="-691.74" font-family="Helvetica,sans-Serif" font-size="10.00"> &lt; com::cliffc::aa::</text>
<text text-anchor="middle" x="693.5" y="-680.74" font-family="Helvetica,sans-Serif" font-size="10.00">HM::HM7::T2, Integer &gt;</text>
</g>
<!-- Node17 -->
<g id="node17" class="node">
<title>Node17</title>
<g id="a_node17"><a xlink:title=" ">
<polygon fill="none" stroke="#bfbfbf" points="803,-609.74 803,-639.74 997,-639.74 997,-609.74 803,-609.74"/>
<text text-anchor="start" x="811" y="-627.74" font-family="Helvetica,sans-Serif" font-size="10.00">HashMap&lt; com.cliffc.aa.HM.</text>
<text text-anchor="middle" x="900" y="-616.74" font-family="Helvetica,sans-Serif" font-size="10.00">HM7.T2, com.cliffc.aa.HM.HM7.T2 &gt;</text>
</a>
</g>
</g>
<!-- Node15&#45;&gt;Node17 -->
<g id="edge21" class="edge">
<title>Node15&#45;&gt;Node17</title>
<path fill="none" stroke="orange" stroke-dasharray="5,2" d="M535.9,-663.5C554.04,-654.64 578.8,-643.98 602,-638.74 667.96,-623.85 744.19,-620.53 802.9,-620.84"/>
<polygon fill="orange" stroke="orange" points="533.93,-660.57 526.56,-668.18 537.06,-666.83 533.93,-660.57"/>
<text text-anchor="start" x="633.5" y="-663.74" font-family="Helvetica,sans-Serif" font-size="10.00"> &lt; com::cliffc::aa::</text>
<text text-anchor="start" x="633.5" y="-652.74" font-family="Helvetica,sans-Serif" font-size="10.00">HM::HM7::T2, com::cliffc</text>
<text text-anchor="middle" x="693.5" y="-641.74" font-family="Helvetica,sans-Serif" font-size="10.00">::aa::HM::HM7::T2 &gt;</text>
</g>
<!-- Node16&#45;&gt;Node5 -->
<g id="edge18" class="edge">
<title>Node16&#45;&gt;Node5</title>
<path fill="none" stroke="#9a32cd" stroke-dasharray="5,2" d="M989.34,-662.95C1020.84,-657.97 1056.35,-651.05 1088,-641.74 1114.88,-633.84 1144.39,-620.46 1163.04,-611.37"/>
<polygon fill="#9a32cd" stroke="#9a32cd" points="988.61,-659.52 979.26,-664.5 989.67,-666.44 988.61,-659.52"/>
<text text-anchor="middle" x="1051.5" y="-661.74" font-family="Helvetica,sans-Serif" font-size="10.00"> VNAMES</text>
</g>
<!-- Node17&#45;&gt;Node5 -->
<g id="edge20" class="edge">
<title>Node17&#45;&gt;Node5</title>
<path fill="none" stroke="#9a32cd" stroke-dasharray="5,2" d="M1007.7,-616.01C1043.1,-613.11 1081.54,-609.97 1113.29,-607.37"/>
<polygon fill="#9a32cd" stroke="#9a32cd" points="1006.99,-612.56 997.31,-616.86 1007.56,-619.53 1006.99,-612.56"/>
<text text-anchor="middle" x="1051.5" y="-629.74" font-family="Helvetica,sans-Serif" font-size="10.00"> CDUPS</text>
<text text-anchor="middle" x="1051.5" y="-618.74" font-family="Helvetica,sans-Serif" font-size="10.00">VARS</text>
</g>
<!-- Node18&#45;&gt;Node5 -->
<g id="edge22" class="edge">
<title>Node18&#45;&gt;Node5</title>
<path fill="none" stroke="#9a32cd" stroke-dasharray="5,2" d="M920.95,-253.42C956.08,-293.69 1030.67,-380.81 1088,-458.74 1123.74,-507.33 1161.9,-568.78 1176.18,-592.14"/>
<polygon fill="#9a32cd" stroke="#9a32cd" points="923.49,-251 914.27,-245.78 918.22,-255.61 923.49,-251"/>
<text text-anchor="middle" x="1051.5" y="-461.74" font-family="Helvetica,sans-Serif" font-size="10.00"> _con</text>
</g>
<!-- Node18&#45;&gt;Node18 -->
<g id="edge35" class="edge">
<title>Node18&#45;&gt;Node18</title>
<path fill="none" stroke="#9a32cd" stroke-dasharray="5,2" d="M873.35,-256.2C876.65,-260.92 885.54,-264.24 900,-264.24 923.73,-264.24 932.44,-255.3 926.14,-245.9"/>
<polygon fill="#9a32cd" stroke="#9a32cd" points="876.86,-256.07 873.86,-245.9 869.87,-255.72 876.86,-256.07"/>
<text text-anchor="middle" x="900" y="-377.24" font-family="Helvetica,sans-Serif" font-size="10.00"> XREAL</text>
<text text-anchor="middle" x="900" y="-366.24" font-family="Helvetica,sans-Serif" font-size="10.00">TYPES</text>
<text text-anchor="middle" x="900" y="-355.24" font-family="Helvetica,sans-Serif" font-size="10.00">XNREAL</text>
<text text-anchor="middle" x="900" y="-344.24" font-family="Helvetica,sans-Serif" font-size="10.00">XSCALAR</text>
<text text-anchor="middle" x="900" y="-333.24" font-family="Helvetica,sans-Serif" font-size="10.00">NREAL</text>
<text text-anchor="middle" x="900" y="-322.24" font-family="Helvetica,sans-Serif" font-size="10.00">ANY</text>
<text text-anchor="middle" x="900" y="-311.24" font-family="Helvetica,sans-Serif" font-size="10.00">NSCALR</text>
<text text-anchor="middle" x="900" y="-300.24" font-family="Helvetica,sans-Serif" font-size="10.00">XNIL</text>
<text text-anchor="middle" x="900" y="-289.24" font-family="Helvetica,sans-Serif" font-size="10.00">CTRL</text>
<text text-anchor="middle" x="900" y="-278.24" font-family="Helvetica,sans-Serif" font-size="10.00">SCALAR</text>
<text text-anchor="middle" x="900" y="-267.24" font-family="Helvetica,sans-Serif" font-size="10.00">...</text>
</g>
<!-- Node18&#45;&gt;Node21 -->
<g id="edge30" class="edge">
<title>Node18&#45;&gt;Node21</title>
<path fill="none" stroke="#9a32cd" stroke-dasharray="5,2" d="M975.16,-230.74C1015.5,-230.74 1065.31,-230.74 1105.94,-230.74"/>
<polygon fill="#9a32cd" stroke="#9a32cd" points="975.11,-227.24 965.11,-230.74 975.11,-234.24 975.11,-227.24"/>
<text text-anchor="middle" x="1051.5" y="-233.74" font-family="Helvetica,sans-Serif" font-size="10.00"> _gold</text>
</g>
<!-- Node19 -->
<g id="node19" class="node">
<title>Node19</title>
<g id="a_node19"><a xlink:href="../../d9/d76/a02526.html" target="_top" xlink:title=" ">
<polygon fill="none" stroke="black" points="475.5,-222.24 475.5,-241.24 540.5,-241.24 540.5,-222.24 475.5,-222.24"/>
<text text-anchor="middle" x="508" y="-229.24" font-family="Helvetica,sans-Serif" font-size="10.00">Cloneable</text>
</a>
</g>
</g>
<!-- Node19&#45;&gt;Node18 -->
<g id="edge23" class="edge">
<title>Node19&#45;&gt;Node18</title>
<path fill="none" stroke="midnightblue" d="M550.94,-231.64C619.16,-231.46 754.6,-231.12 834.93,-230.91"/>
<polygon fill="midnightblue" stroke="midnightblue" points="550.58,-228.14 540.58,-231.66 550.59,-235.14 550.58,-228.14"/>
</g>
<!-- Node20&#45;&gt;Node18 -->
<g id="edge24" class="edge">
<title>Node20&#45;&gt;Node18</title>
<path fill="none" stroke="#9a32cd" stroke-dasharray="5,2" d="M594.16,-15.67C663.22,-13.14 753.99,-13.91 785,-32.74 854.66,-75.07 885.94,-177.03 895.57,-215.61"/>
<polygon fill="#9a32cd" stroke="#9a32cd" points="594,-12.18 584.14,-16.07 594.27,-19.17 594,-12.18"/>
<text text-anchor="middle" x="693.5" y="-35.74" font-family="Helvetica,sans-Serif" font-size="10.00"> ALL_TYPES</text>
</g>
<!-- Node20&#45;&gt;Node21 -->
<g id="edge28" class="edge">
<title>Node20&#45;&gt;Node21</title>
<path fill="none" stroke="#9a32cd" stroke-dasharray="5,2" d="M594.15,-5.74C649.41,1.03 722.5,4.35 785,-11.74 944.32,-52.77 1108.11,-172.78 1162.88,-215.46"/>
<polygon fill="#9a32cd" stroke="#9a32cd" points="593.52,-2.29 584.05,-7.04 594.41,-9.23 593.52,-2.29"/>
<text text-anchor="middle" x="900" y="-103.74" font-family="Helvetica,sans-Serif" font-size="10.00"> _frees</text>
</g>
<!-- Node21&#45;&gt;Node18 -->
<g id="edge27" class="edge">
<title>Node21&#45;&gt;Node18</title>
<path fill="none" stroke="#9a32cd" stroke-dasharray="5,2" d="M1095.78,-215.49C1093.16,-215.21 1090.56,-214.96 1088,-214.74 1055.67,-212.01 1047.37,-212.48 1015,-214.74 998.75,-215.88 981.29,-217.91 965.05,-220.16"/>
<polygon fill="#9a32cd" stroke="#9a32cd" points="1095.61,-218.99 1105.95,-216.68 1096.43,-212.04 1095.61,-218.99"/>
<text text-anchor="middle" x="1051.5" y="-217.74" font-family="Helvetica,sans-Serif" font-size="10.00"> POOLS</text>
</g>
<!-- Node22 -->
<g id="node22" class="node">
<title>Node22</title>
<g id="a_node22"><a xlink:title=" ">
<polygon fill="none" stroke="#bfbfbf" points="489,-55.24 489,-74.24 527,-74.24 527,-55.24 489,-55.24"/>
<text text-anchor="middle" x="508" y="-62.24" font-family="Helvetica,sans-Serif" font-size="10.00">byte</text>
</a>
</g>
</g>
<!-- Node22&#45;&gt;Node18 -->
<g id="edge31" class="edge">
<title>Node22&#45;&gt;Node18</title>
<path fill="none" stroke="#9a32cd" stroke-dasharray="5,2" d="M537.05,-58.48C589.35,-48.35 703.77,-33.58 785,-76.74 843.16,-107.66 879.55,-182.87 893.05,-215.37"/>
<polygon fill="#9a32cd" stroke="#9a32cd" points="536.26,-55.07 527.16,-60.49 537.66,-61.93 536.26,-55.07"/>
<text text-anchor="middle" x="693.5" y="-189.74" font-family="Helvetica,sans-Serif" font-size="10.00"> TMEM</text>
<text text-anchor="middle" x="693.5" y="-178.74" font-family="Helvetica,sans-Serif" font-size="10.00">TRPC</text>
<text text-anchor="middle" x="693.5" y="-167.74" font-family="Helvetica,sans-Serif" font-size="10.00">TSIMPLE</text>
<text text-anchor="middle" x="693.5" y="-156.74" font-family="Helvetica,sans-Serif" font-size="10.00">TXREAL</text>
<text text-anchor="middle" x="693.5" y="-145.74" font-family="Helvetica,sans-Serif" font-size="10.00">TSCALAR</text>
<text text-anchor="middle" x="693.5" y="-134.74" font-family="Helvetica,sans-Serif" font-size="10.00">TSTRUCT</text>
<text text-anchor="middle" x="693.5" y="-123.74" font-family="Helvetica,sans-Serif" font-size="10.00">TOBJ</text>
<text text-anchor="middle" x="693.5" y="-112.74" font-family="Helvetica,sans-Serif" font-size="10.00">_type</text>
<text text-anchor="middle" x="693.5" y="-101.74" font-family="Helvetica,sans-Serif" font-size="10.00">TARY</text>
<text text-anchor="middle" x="693.5" y="-90.74" font-family="Helvetica,sans-Serif" font-size="10.00">TTUPLE</text>
<text text-anchor="middle" x="693.5" y="-79.74" font-family="Helvetica,sans-Serif" font-size="10.00">...</text>
</g>
<!-- Node23 -->
<g id="node23" class="node">
<title>Node23</title>
<g id="a_node23"><a xlink:title=" ">
<polygon fill="none" stroke="#bfbfbf" points="436.5,-298.24 436.5,-339.24 579.5,-339.24 579.5,-298.24 436.5,-298.24"/>
<text text-anchor="start" x="444.5" y="-327.24" font-family="Helvetica,sans-Serif" font-size="10.00">ConcurrentHashMap&lt;</text>
<text text-anchor="start" x="444.5" y="-316.24" font-family="Helvetica,sans-Serif" font-size="10.00"> com.cliffc.aa.type.Type,</text>
<text text-anchor="middle" x="508" y="-305.24" font-family="Helvetica,sans-Serif" font-size="10.00"> com.cliffc.aa.type.Type &gt;</text>
</a>
</g>
</g>
<!-- Node23&#45;&gt;Node18 -->
<g id="edge32" class="edge">
<title>Node23&#45;&gt;Node18</title>
<path fill="none" stroke="#9a32cd" stroke-dasharray="5,2" d="M589.89,-311.97C645.48,-306.04 720.6,-295.52 785,-277.74 814.1,-269.72 845.73,-256.27 868.27,-245.82"/>
<polygon fill="#9a32cd" stroke="#9a32cd" points="589.33,-308.51 579.74,-313.02 590.05,-315.47 589.33,-308.51"/>
<text text-anchor="middle" x="693.5" y="-313.74" font-family="Helvetica,sans-Serif" font-size="10.00"> INTERN</text>
</g>
<!-- Node24 -->
<g id="node24" class="node">
<title>Node24</title>
<g id="a_node24"><a xlink:title=" ">
<polygon fill="none" stroke="#bfbfbf" points="158,-302.24 158,-321.24 274,-321.24 274,-302.24 158,-302.24"/>
<text text-anchor="middle" x="216" y="-309.24" font-family="Helvetica,sans-Serif" font-size="10.00">ConcurrentHashMap</text>
</a>
</g>
</g>
<!-- Node24&#45;&gt;Node23 -->
<g id="edge33" class="edge">
<title>Node24&#45;&gt;Node23</title>
<path fill="none" stroke="orange" stroke-dasharray="5,2" d="M284.78,-311.1C322.78,-310.98 371.04,-311.25 414,-312.74 421.28,-313 428.87,-313.35 436.44,-313.75"/>
<polygon fill="orange" stroke="orange" points="284.33,-307.6 274.34,-311.14 284.36,-314.6 284.33,-307.6"/>
<text text-anchor="start" x="307" y="-337.74" font-family="Helvetica,sans-Serif" font-size="10.00"> &lt; com::cliffc::aa::</text>
<text text-anchor="start" x="307" y="-326.74" font-family="Helvetica,sans-Serif" font-size="10.00">type::Type, com::cliffc</text>
<text text-anchor="middle" x="360.5" y="-315.74" font-family="Helvetica,sans-Serif" font-size="10.00">::aa::type::Type &gt;</text>
</g>
<!-- Node25 -->
<g id="node25" class="node">
<title>Node25</title>
<g id="a_node25"><a xlink:title=" ">
<polygon fill="none" stroke="#bfbfbf" points="493.5,-260.24 493.5,-279.24 522.5,-279.24 522.5,-260.24 493.5,-260.24"/>
<text text-anchor="middle" x="508" y="-267.24" font-family="Helvetica,sans-Serif" font-size="10.00">T</text>
</a>
</g>
</g>
<!-- Node25&#45;&gt;Node18 -->
<g id="edge36" class="edge">
<title>Node25&#45;&gt;Node18</title>
<path fill="none" stroke="#9a32cd" stroke-dasharray="5,2" d="M532.75,-268.03C580.57,-264.51 691.82,-255.92 785,-245.74 801.17,-243.98 818.6,-241.82 834.85,-239.69"/>
<polygon fill="#9a32cd" stroke="#9a32cd" points="532.24,-264.56 522.52,-268.78 532.75,-271.54 532.24,-264.56"/>
<text text-anchor="middle" x="693.5" y="-265.74" font-family="Helvetica,sans-Serif" font-size="10.00"> _dual</text>
</g>
<!-- Node26 -->
<g id="node26" class="node">
<title>Node26</title>
<g id="a_node26"><a xlink:href="../../d7/df2/a02322.html" target="_top" xlink:title=" ">
<polygon fill="none" stroke="black" points="480,-184.24 480,-203.24 536,-203.24 536,-184.24 480,-184.24"/>
<text text-anchor="middle" x="508" y="-191.24" font-family="Helvetica,sans-Serif" font-size="10.00">Type&lt; T</text>
</a>
</g>
</g>
<!-- Node26&#45;&gt;Node18 -->
<g id="edge37" class="edge">
<title>Node26&#45;&gt;Node18</title>
<path fill="none" stroke="orange" stroke-dasharray="5,2" d="M546.34,-196.39C599.44,-200.26 699.76,-207.96 785,-216.74 801.17,-218.41 818.59,-220.43 834.84,-222.42"/>
<polygon fill="orange" stroke="orange" points="546.29,-192.88 536.06,-195.65 545.79,-199.86 546.29,-192.88"/>
<text text-anchor="middle" x="693.5" y="-219.74" font-family="Helvetica,sans-Serif" font-size="10.00"> T</text>
</g>
</g>
</svg>
