<?xml version="1.0" encoding="UTF-8" standalone="no"?>
<!DOCTYPE svg PUBLIC "-//W3C//DTD SVG 1.1//EN"
 "http://www.w3.org/Graphics/SVG/1.1/DTD/svg11.dtd">
<!-- Generated by graphviz version 2.43.0 (0)
 -->
<!-- Title: com.cliffc.aa.node.Node.Node Pages: 1 -->
<svg width="1469pt" height="255pt"
 viewBox="0.00 0.00 1469.00 254.50" xmlns="http://www.w3.org/2000/svg" xmlns:xlink="http://www.w3.org/1999/xlink">
<g id="graph0" class="graph" transform="scale(1 1) rotate(0) translate(4 250.5)">
<title>com.cliffc.aa.node.Node.Node</title>
<!-- Node1 -->
<g id="node1" class="node">
<title>Node1</title>
<g id="a_node1"><a xlink:title=" ">
<polygon fill="#bfbfbf" stroke="black" points="0,-88.5 0,-107.5 163,-107.5 163,-88.5 0,-88.5"/>
<text text-anchor="middle" x="81.5" y="-95.5" font-family="Helvetica,sans-Serif" font-size="10.00">com.cliffc.aa.node.Node.Node</text>
</a>
</g>
</g>
<!-- Node2 -->
<g id="node2" class="node">
<title>Node2</title>
<g id="a_node2"><a xlink:href="../../df/db5/a01158.html#a260ab95c10fcb1ccf5f4845aedbb929f" target="_top" xlink:title=" ">
<polygon fill="none" stroke="black" points="203.5,-126.5 203.5,-145.5 376.5,-145.5 376.5,-126.5 203.5,-126.5"/>
<text text-anchor="middle" x="290" y="-133.5" font-family="Helvetica,sans-Serif" font-size="10.00">com.cliffc.aa.node.Node.all_live</text>
</a>
</g>
</g>
<!-- Node1&#45;&gt;Node2 -->
<g id="edge1" class="edge">
<title>Node1&#45;&gt;Node2</title>
<path fill="none" stroke="midnightblue" d="M134.34,-107.54C162.45,-112.71 197.38,-119.14 226.93,-124.58"/>
<polygon fill="midnightblue" stroke="midnightblue" points="226.67,-128.09 237.14,-126.46 227.94,-121.2 226.67,-128.09"/>
</g>
<!-- Node3 -->
<g id="node3" class="node">
<title>Node3</title>
<g id="a_node3"><a xlink:href="../../df/db5/a01158.html#a9e1120a3037091ac794f155555d249c5" target="_top" xlink:title=" ">
<polygon fill="none" stroke="black" points="199,-88.5 199,-107.5 381,-107.5 381,-88.5 199,-88.5"/>
<text text-anchor="middle" x="290" y="-95.5" font-family="Helvetica,sans-Serif" font-size="10.00">com.cliffc.aa.node.Node.new_tvar</text>
</a>
</g>
</g>
<!-- Node1&#45;&gt;Node3 -->
<g id="edge2" class="edge">
<title>Node1&#45;&gt;Node3</title>
<path fill="none" stroke="midnightblue" d="M163.23,-98C171.6,-98 180.18,-98 188.74,-98"/>
<polygon fill="midnightblue" stroke="midnightblue" points="188.75,-101.5 198.75,-98 188.75,-94.5 188.75,-101.5"/>
</g>
<!-- Node21 -->
<g id="node21" class="node">
<title>Node21</title>
<g id="a_node21"><a xlink:href="../../df/db5/a01158.html#a0f4fe9a5f0bc16a50d28f4f98f0d68fe" target="_top" xlink:title=" ">
<polygon fill="none" stroke="black" points="203.5,-50.5 203.5,-69.5 376.5,-69.5 376.5,-50.5 203.5,-50.5"/>
<text text-anchor="middle" x="290" y="-57.5" font-family="Helvetica,sans-Serif" font-size="10.00">com.cliffc.aa.node.Node.newuid</text>
</a>
</g>
</g>
<!-- Node1&#45;&gt;Node21 -->
<g id="edge23" class="edge">
<title>Node1&#45;&gt;Node21</title>
<path fill="none" stroke="midnightblue" d="M134.34,-88.46C162.45,-83.29 197.38,-76.86 226.93,-71.42"/>
<polygon fill="midnightblue" stroke="midnightblue" points="227.94,-74.8 237.14,-69.54 226.67,-67.91 227.94,-74.8"/>
</g>
<!-- Node4 -->
<g id="node4" class="node">
<title>Node4</title>
<g id="a_node4"><a xlink:href="../../dc/d25/a01406.html#a40fbdc3d7df0c7432ff5ac0561b5a13e" target="_top" xlink:title=" ">
<polygon fill="none" stroke="black" points="417,-88.5 417,-107.5 593,-107.5 593,-88.5 417,-88.5"/>
<text text-anchor="middle" x="505" y="-95.5" font-family="Helvetica,sans-Serif" font-size="10.00">com.cliffc.aa.tvar.TV2.make_leaf</text>
</a>
</g>
</g>
<!-- Node3&#45;&gt;Node4 -->
<g id="edge3" class="edge">
<title>Node3&#45;&gt;Node4</title>
<path fill="none" stroke="midnightblue" d="M381.02,-98C389.42,-98 397.95,-98 406.41,-98"/>
<polygon fill="midnightblue" stroke="midnightblue" points="406.68,-101.5 416.68,-98 406.68,-94.5 406.68,-101.5"/>
</g>
<!-- Node5 -->
<g id="node5" class="node">
<title>Node5</title>
<g id="a_node5"><a xlink:href="../../d8/df1/a01414.html#a56817ac6db518b86fd24f5db8f5f4206" target="_top" xlink:title=" ">
<polygon fill="none" stroke="black" points="629,-129.5 629,-148.5 808,-148.5 808,-129.5 629,-129.5"/>
<text text-anchor="middle" x="718.5" y="-136.5" font-family="Helvetica,sans-Serif" font-size="10.00">com.cliffc.aa.tvar.UQNodes.make</text>
</a>
</g>
</g>
<!-- Node4&#45;&gt;Node5 -->
<g id="edge4" class="edge">
<title>Node4&#45;&gt;Node5</title>
<path fill="none" stroke="midnightblue" d="M555.05,-107.51C585.91,-113.49 625.91,-121.24 658.49,-127.56"/>
<polygon fill="midnightblue" stroke="midnightblue" points="657.86,-131 668.35,-129.47 659.2,-124.13 657.86,-131"/>
</g>
<!-- Node13 -->
<g id="node13" class="node">
<title>Node13</title>
<g id="a_node13"><a xlink:href="../../dc/d25/a01406.html#a60bdc3571827136bffe84bddd53e8201" target="_top" xlink:title=" ">
<polygon fill="none" stroke="black" points="642.5,-61 642.5,-91 794.5,-91 794.5,-61 642.5,-61"/>
<text text-anchor="start" x="650.5" y="-79" font-family="Helvetica,sans-Serif" font-size="10.00">com.cliffc.aa.tvar.TV2.make</text>
<text text-anchor="middle" x="718.5" y="-68" font-family="Helvetica,sans-Serif" font-size="10.00">_leaf_ns</text>
</a>
</g>
</g>
<!-- Node4&#45;&gt;Node13 -->
<g id="edge12" class="edge">
<title>Node4&#45;&gt;Node13</title>
<path fill="none" stroke="midnightblue" d="M593.25,-88.92C606.09,-87.59 619.3,-86.21 632.1,-84.88"/>
<polygon fill="midnightblue" stroke="midnightblue" points="632.68,-88.34 642.27,-83.83 631.96,-81.38 632.68,-88.34"/>
</g>
<!-- Node6 -->
<g id="node6" class="node">
<title>Node6</title>
<g id="a_node6"><a xlink:href="../../d8/df1/a01414.html#afb5d3642632092c0588bb37cc2d58a87" target="_top" xlink:title=" ">
<polygon fill="none" stroke="black" points="844,-202.5 844,-221.5 1025,-221.5 1025,-202.5 844,-202.5"/>
<text text-anchor="middle" x="934.5" y="-209.5" font-family="Helvetica,sans-Serif" font-size="10.00">com.cliffc.aa.tvar.UQNodes.intern</text>
</a>
</g>
</g>
<!-- Node5&#45;&gt;Node6 -->
<g id="edge5" class="edge">
<title>Node5&#45;&gt;Node6</title>
<path fill="none" stroke="midnightblue" d="M738.45,-148.64C762.47,-160.53 805.4,-180.67 844,-193 852.36,-195.67 861.27,-198.07 870.11,-200.2"/>
<polygon fill="midnightblue" stroke="midnightblue" points="869.51,-203.65 880.04,-202.48 871.08,-196.83 869.51,-203.65"/>
</g>
<!-- Node11 -->
<g id="node11" class="node">
<title>Node11</title>
<g id="a_node11"><a xlink:href="../../df/db5/a01158.html#ab7694c22a9c7542842726bcfb0eb5922" target="_top" xlink:title=" ">
<polygon fill="none" stroke="black" points="847,-164.5 847,-183.5 1022,-183.5 1022,-164.5 847,-164.5"/>
<text text-anchor="middle" x="934.5" y="-171.5" font-family="Helvetica,sans-Serif" font-size="10.00">com.cliffc.aa.node.Node.is_dead</text>
</a>
</g>
</g>
<!-- Node5&#45;&gt;Node11 -->
<g id="edge10" class="edge">
<title>Node5&#45;&gt;Node11</title>
<path fill="none" stroke="midnightblue" d="M777.69,-148.52C804.7,-152.93 836.99,-158.22 865.15,-162.82"/>
<polygon fill="midnightblue" stroke="midnightblue" points="864.88,-166.32 875.32,-164.48 866.01,-159.42 864.88,-166.32"/>
</g>
<!-- Node12 -->
<g id="node12" class="node">
<title>Node12</title>
<g id="a_node12"><a xlink:href="../../d3/d2d/a01606.html#a5a55b6990f90cebab60051b6a03c5e3b" target="_top" xlink:title="Maps the specified key to the specified value in the table.">
<polygon fill="none" stroke="black" points="853.5,-115 853.5,-145 1015.5,-145 1015.5,-115 853.5,-115"/>
<text text-anchor="start" x="861.5" y="-133" font-family="Helvetica,sans-Serif" font-size="10.00">com.cliffc.aa.util.NonBlocking</text>
<text text-anchor="middle" x="934.5" y="-122" font-family="Helvetica,sans-Serif" font-size="10.00">HashMapLong.put</text>
</a>
</g>
</g>
<!-- Node5&#45;&gt;Node12 -->
<g id="edge11" class="edge">
<title>Node5&#45;&gt;Node12</title>
<path fill="none" stroke="midnightblue" d="M808.09,-135.27C819.65,-134.79 831.51,-134.29 843.1,-133.8"/>
<polygon fill="midnightblue" stroke="midnightblue" points="843.36,-137.29 853.2,-133.38 843.06,-130.3 843.36,-137.29"/>
</g>
<!-- Node7 -->
<g id="node7" class="node">
<title>Node7</title>
<g id="a_node7"><a xlink:href="../../d3/d2d/a01606.html#aa68ea3508b91e708e371a02e473b5f3b" target="_top" xlink:title="Removes all of the mappings from this map.">
<polygon fill="none" stroke="black" points="1076,-216 1076,-246 1238,-246 1238,-216 1076,-216"/>
<text text-anchor="start" x="1084" y="-234" font-family="Helvetica,sans-Serif" font-size="10.00">com.cliffc.aa.util.NonBlocking</text>
<text text-anchor="middle" x="1157" y="-223" font-family="Helvetica,sans-Serif" font-size="10.00">HashMapLong.clear</text>
</a>
</g>
</g>
<!-- Node6&#45;&gt;Node7 -->
<g id="edge6" class="edge">
<title>Node6&#45;&gt;Node7</title>
<path fill="none" stroke="midnightblue" d="M1025.19,-219.73C1038.58,-220.88 1052.4,-222.07 1065.81,-223.23"/>
<polygon fill="midnightblue" stroke="midnightblue" points="1065.7,-226.73 1075.97,-224.1 1066.3,-219.76 1065.7,-226.73"/>
</g>
<!-- Node8 -->
<g id="node8" class="node">
<title>Node8</title>
<g id="a_node8"><a xlink:href="../../d8/df1/a01414.html#a1a32bbfa753d3a048dad3af52e6e04f2" target="_top" xlink:title=" ">
<polygon fill="none" stroke="black" points="1061,-177.5 1061,-196.5 1253,-196.5 1253,-177.5 1061,-177.5"/>
<text text-anchor="middle" x="1157" y="-184.5" font-family="Helvetica,sans-Serif" font-size="10.00">com.cliffc.aa.tvar.UQNodes.setHash</text>
</a>
</g>
</g>
<!-- Node6&#45;&gt;Node8 -->
<g id="edge7" class="edge">
<title>Node6&#45;&gt;Node8</title>
<path fill="none" stroke="midnightblue" d="M1019.49,-202.48C1033.3,-200.91 1047.69,-199.28 1061.73,-197.69"/>
<polygon fill="midnightblue" stroke="midnightblue" points="1062.34,-201.14 1071.88,-196.54 1061.55,-194.19 1062.34,-201.14"/>
</g>
<!-- Node9 -->
<g id="node9" class="node">
<title>Node9</title>
<g id="a_node9"><a xlink:href="../../d3/d2d/a01606.html#a2242d40c2091176c7aec66a1c1f1b107" target="_top" xlink:title=" ">
<polygon fill="none" stroke="black" points="1293.5,-190 1293.5,-220 1456.5,-220 1456.5,-190 1293.5,-190"/>
<text text-anchor="start" x="1301.5" y="-208" font-family="Helvetica,sans-Serif" font-size="10.00">com.cliffc.aa.util.NonBlocking</text>
<text text-anchor="middle" x="1375" y="-197" font-family="Helvetica,sans-Serif" font-size="10.00">HashMapLong&lt; Node &gt;::hash</text>
</a>
</g>
</g>
<!-- Node8&#45;&gt;Node9 -->
<g id="edge8" class="edge">
<title>Node8&#45;&gt;Node9</title>
<path fill="none" stroke="midnightblue" d="M1253.06,-194.92C1263.16,-195.76 1273.41,-196.62 1283.46,-197.45"/>
<polygon fill="midnightblue" stroke="midnightblue" points="1283.17,-200.94 1293.43,-198.29 1283.75,-193.97 1283.17,-200.94"/>
</g>
<!-- Node10 -->
<g id="node10" class="node">
<title>Node10</title>
<g id="a_node10"><a xlink:href="../../d3/d2d/a01606.html#a7dabc238f566bd1039cc62b63af734ed" target="_top" xlink:title="Returns a Collection view of the values contained in this map.">
<polygon fill="none" stroke="black" points="1289,-141 1289,-171 1461,-171 1461,-141 1289,-141"/>
<text text-anchor="start" x="1297" y="-159" font-family="Helvetica,sans-Serif" font-size="10.00">com.cliffc.aa.util.NonBlocking</text>
<text text-anchor="middle" x="1375" y="-148" font-family="Helvetica,sans-Serif" font-size="10.00">HashMapLong&lt; Node &gt;::values</text>
</a>
</g>
</g>
<!-- Node8&#45;&gt;Node10 -->
<g id="edge9" class="edge">
<title>Node8&#45;&gt;Node10</title>
<path fill="none" stroke="midnightblue" d="M1224.28,-177.49C1241.44,-175.03 1260.26,-172.32 1278.59,-169.69"/>
<polygon fill="midnightblue" stroke="midnightblue" points="1279.3,-173.13 1288.71,-168.24 1278.31,-166.2 1279.3,-173.13"/>
</g>
<!-- Node14 -->
<g id="node14" class="node">
<title>Node14</title>
<g id="a_node14"><a xlink:href="../../dc/d25/a01406.html#a278ec8d9b9c40d681176974542fee2eb" target="_top" xlink:title=" ">
<polygon fill="none" stroke="black" points="853.5,-38.5 853.5,-57.5 1015.5,-57.5 1015.5,-38.5 853.5,-38.5"/>
<text text-anchor="middle" x="934.5" y="-45.5" font-family="Helvetica,sans-Serif" font-size="10.00">com.cliffc.aa.tvar.TV2.is_base</text>
</a>
</g>
</g>
<!-- Node13&#45;&gt;Node14 -->
<g id="edge13" class="edge">
<title>Node13&#45;&gt;Node14</title>
<path fill="none" stroke="midnightblue" d="M794.65,-66.17C812.74,-63.8 832.16,-61.26 850.58,-58.85"/>
<polygon fill="midnightblue" stroke="midnightblue" points="851.23,-62.29 860.69,-57.53 850.32,-55.35 851.23,-62.29"/>
</g>
<!-- Node18 -->
<g id="node18" class="node">
<title>Node18</title>
<g id="a_node18"><a xlink:href="../../dc/d25/a01406.html#ae7020c1fe937698dcc459b53362a916c" target="_top" xlink:title=" ">
<polygon fill="none" stroke="black" points="855.5,-76.5 855.5,-95.5 1013.5,-95.5 1013.5,-76.5 855.5,-76.5"/>
<text text-anchor="middle" x="934.5" y="-83.5" font-family="Helvetica,sans-Serif" font-size="10.00">com.cliffc.aa.tvar.TV2.is_leaf</text>
</a>
</g>
</g>
<!-- Node13&#45;&gt;Node18 -->
<g id="edge18" class="edge">
<title>Node13&#45;&gt;Node18</title>
<path fill="none" stroke="midnightblue" d="M794.65,-79.51C810.9,-80.27 828.24,-81.08 844.96,-81.86"/>
<polygon fill="midnightblue" stroke="midnightblue" points="845.12,-85.37 855.27,-82.34 845.44,-78.38 845.12,-85.37"/>
</g>
<!-- Node19 -->
<g id="node19" class="node">
<title>Node19</title>
<g id="a_node19"><a xlink:href="../../dc/d25/a01406.html#a62d673448fbff0f21927cc782b436582" target="_top" xlink:title=" ">
<polygon fill="none" stroke="black" points="862.5,-0.5 862.5,-19.5 1006.5,-19.5 1006.5,-0.5 862.5,-0.5"/>
<text text-anchor="middle" x="934.5" y="-7.5" font-family="Helvetica,sans-Serif" font-size="10.00">com.cliffc.aa.tvar.TV2.TV2</text>
</a>
</g>
</g>
<!-- Node13&#45;&gt;Node19 -->
<g id="edge21" class="edge">
<title>Node13&#45;&gt;Node19</title>
<path fill="none" stroke="midnightblue" d="M754.97,-60.96C779.62,-50.92 813.4,-37.97 844,-29 853.05,-26.35 862.72,-23.9 872.23,-21.71"/>
<polygon fill="midnightblue" stroke="midnightblue" points="873.05,-25.12 882.05,-19.53 871.53,-18.28 873.05,-25.12"/>
</g>
<!-- Node15 -->
<g id="node15" class="node">
<title>Node15</title>
<g id="a_node15"><a xlink:href="../../dc/d25/a01406.html#a4648c36530ad943bcfe943b14dc33c36" target="_top" xlink:title=" ">
<polygon fill="none" stroke="black" points="1308,-46 1308,-76 1442,-76 1442,-46 1308,-46"/>
<text text-anchor="start" x="1316" y="-64" font-family="Helvetica,sans-Serif" font-size="10.00">com.cliffc.aa.tvar.TV2.is</text>
<text text-anchor="middle" x="1375" y="-53" font-family="Helvetica,sans-Serif" font-size="10.00">_unified</text>
</a>
</g>
</g>
<!-- Node14&#45;&gt;Node15 -->
<g id="edge14" class="edge">
<title>Node14&#45;&gt;Node15</title>
<path fill="none" stroke="midnightblue" d="M1015.67,-50.38C1095.97,-52.76 1218.66,-56.39 1297.6,-58.73"/>
<polygon fill="midnightblue" stroke="midnightblue" points="1297.86,-62.24 1307.96,-59.04 1298.07,-55.25 1297.86,-62.24"/>
</g>
<!-- Node16 -->
<g id="node16" class="node">
<title>Node16</title>
<g id="a_node16"><a xlink:href="../../dc/d25/a01406.html#a4c6344d5b696661ebc8894c4d6d5d83d" target="_top" xlink:title=" ">
<polygon fill="none" stroke="black" points="1087,-76.5 1087,-95.5 1227,-95.5 1227,-76.5 1087,-76.5"/>
<text text-anchor="middle" x="1157" y="-83.5" font-family="Helvetica,sans-Serif" font-size="10.00">com.cliffc.aa.tvar.TV2.isa</text>
</a>
</g>
</g>
<!-- Node14&#45;&gt;Node16 -->
<g id="edge15" class="edge">
<title>Node14&#45;&gt;Node16</title>
<path fill="none" stroke="midnightblue" d="M990.86,-57.54C1021.13,-62.76 1058.82,-69.25 1090.55,-74.72"/>
<polygon fill="midnightblue" stroke="midnightblue" points="1090.17,-78.21 1100.62,-76.46 1091.36,-71.31 1090.17,-78.21"/>
</g>
<!-- Node16&#45;&gt;Node15 -->
<g id="edge17" class="edge">
<title>Node16&#45;&gt;Node15</title>
<path fill="none" stroke="midnightblue" d="M1227.24,-77.99C1249.7,-75.39 1274.75,-72.49 1297.7,-69.83"/>
<polygon fill="midnightblue" stroke="midnightblue" points="1298.2,-73.3 1307.73,-68.67 1297.4,-66.34 1298.2,-73.3"/>
</g>
<!-- Node17 -->
<g id="node17" class="node">
<title>Node17</title>
<g id="a_node17"><a xlink:href="../../dd/d55/a01638.html#a3975ba7dca9fe2d6e4992b2b5558f882" target="_top" xlink:title=" ">
<polygon fill="none" stroke="black" points="1308.5,-95.5 1308.5,-114.5 1441.5,-114.5 1441.5,-95.5 1308.5,-95.5"/>
<text text-anchor="middle" x="1375" y="-102.5" font-family="Helvetica,sans-Serif" font-size="10.00">com.cliffc.aa.util.Util.eq</text>
</a>
</g>
</g>
<!-- Node16&#45;&gt;Node17 -->
<g id="edge16" class="edge">
<title>Node16&#45;&gt;Node17</title>
<path fill="none" stroke="midnightblue" d="M1227.24,-92.09C1249.92,-94.09 1275.23,-96.31 1298.35,-98.35"/>
<polygon fill="midnightblue" stroke="midnightblue" points="1298.2,-101.85 1308.46,-99.24 1298.81,-94.87 1298.2,-101.85"/>
</g>
<!-- Node18&#45;&gt;Node15 -->
<g id="edge19" class="edge">
<title>Node18&#45;&gt;Node15</title>
<path fill="none" stroke="midnightblue" d="M973.81,-95.57C1034.16,-109.04 1154.64,-129.36 1253,-105 1270.56,-100.65 1272.24,-92.81 1289,-86 1294.8,-83.64 1300.9,-81.41 1307.06,-79.31"/>
<polygon fill="midnightblue" stroke="midnightblue" points="1308.35,-82.57 1316.76,-76.13 1306.17,-75.92 1308.35,-82.57"/>
</g>
<!-- Node18&#45;&gt;Node16 -->
<g id="edge20" class="edge">
<title>Node18&#45;&gt;Node16</title>
<path fill="none" stroke="midnightblue" d="M1013.55,-86C1034.01,-86 1056.08,-86 1076.6,-86"/>
<polygon fill="midnightblue" stroke="midnightblue" points="1076.86,-89.5 1086.86,-86 1076.86,-82.5 1076.86,-89.5"/>
</g>
<!-- Node20 -->
<g id="node20" class="node">
<title>Node20</title>
<g id="a_node20"><a xlink:href="../../dc/d25/a01406.html#a3de376591ecb21dcf80dfe01df9c7dae" target="_top" xlink:title=" ">
<polygon fill="none" stroke="black" points="1080.5,-0.5 1080.5,-19.5 1233.5,-19.5 1233.5,-0.5 1080.5,-0.5"/>
<text text-anchor="middle" x="1157" y="-7.5" font-family="Helvetica,sans-Serif" font-size="10.00">com.cliffc.aa.tvar.TV2.name</text>
</a>
</g>
</g>
<!-- Node19&#45;&gt;Node20 -->
<g id="edge22" class="edge">
<title>Node19&#45;&gt;Node20</title>
<path fill="none" stroke="midnightblue" d="M1006.79,-10C1027.01,-10 1049.23,-10 1070.22,-10"/>
<polygon fill="midnightblue" stroke="midnightblue" points="1070.4,-13.5 1080.4,-10 1070.4,-6.5 1070.4,-13.5"/>
</g>
</g>
</svg>
