<?xml version="1.0" encoding="UTF-8" standalone="no"?>
<!DOCTYPE svg PUBLIC "-//W3C//DTD SVG 1.1//EN"
 "http://www.w3.org/Graphics/SVG/1.1/DTD/svg11.dtd">
<!-- Generated by graphviz version 2.43.0 (0)
 -->
<!-- Title: com.cliffc.aa.node.Node.toString Pages: 1 -->
<svg width="565pt" height="52pt"
 viewBox="0.00 0.00 565.00 51.50" xmlns="http://www.w3.org/2000/svg" xmlns:xlink="http://www.w3.org/1999/xlink">
<g id="graph0" class="graph" transform="scale(1 1) rotate(0) translate(4 47.5)">
<title>com.cliffc.aa.node.Node.toString</title>
<!-- Node1 -->
<g id="node1" class="node">
<title>Node1</title>
<g id="a_node1"><a xlink:title=" ">
<polygon fill="#bfbfbf" stroke="black" points="0,-0.5 0,-30.5 147,-30.5 147,-0.5 0,-0.5"/>
<text text-anchor="start" x="8" y="-18.5" font-family="Helvetica,sans-Serif" font-size="10.00">com.cliffc.aa.node.Node.to</text>
<text text-anchor="middle" x="73.5" y="-7.5" font-family="Helvetica,sans-Serif" font-size="10.00">String</text>
</a>
</g>
</g>
<!-- Node2 -->
<g id="node2" class="node">
<title>Node2</title>
<g id="a_node2"><a xlink:href="../../df/db5/a01158.html#a7e1a61828c0c95c2036c0d455288cfe0" target="_top" xlink:title=" ">
<polygon fill="none" stroke="black" points="183,-6 183,-25 348,-25 348,-6 183,-6"/>
<text text-anchor="middle" x="265.5" y="-13" font-family="Helvetica,sans-Serif" font-size="10.00">com.cliffc.aa.node.Node.dump</text>
</a>
</g>
</g>
<!-- Node1&#45;&gt;Node2 -->
<g id="edge1" class="edge">
<title>Node1&#45;&gt;Node2</title>
<path fill="none" stroke="midnightblue" d="M147.14,-15.5C155.5,-15.5 164.1,-15.5 172.67,-15.5"/>
<polygon fill="midnightblue" stroke="midnightblue" points="172.7,-19 182.7,-15.5 172.7,-12 172.7,-19"/>
</g>
<!-- Node2&#45;&gt;Node2 -->
<g id="edge2" class="edge">
<title>Node2&#45;&gt;Node2</title>
<path fill="none" stroke="midnightblue" d="M235.91,-25.26C221.51,-34.07 231.38,-43.5 265.5,-43.5 289.49,-43.5 301.49,-38.84 301.5,-33"/>
<polygon fill="midnightblue" stroke="midnightblue" points="304.16,-30.73 295.09,-25.26 298.77,-35.19 304.16,-30.73"/>
</g>
<!-- Node3 -->
<g id="node3" class="node">
<title>Node3</title>
<g id="a_node3"><a xlink:href="../../df/db5/a01158.html#a1885051050eecedbe3143d9cdbcc7118" target="_top" xlink:title=" ">
<polygon fill="none" stroke="black" points="384,-6 384,-25 557,-25 557,-6 384,-6"/>
<text text-anchor="middle" x="470.5" y="-13" font-family="Helvetica,sans-Serif" font-size="10.00">com.cliffc.aa.node.Node.is_prim</text>
</a>
</g>
</g>
<!-- Node2&#45;&gt;Node3 -->
<g id="edge3" class="edge">
<title>Node2&#45;&gt;Node3</title>
<path fill="none" stroke="midnightblue" d="M348.19,-15.5C356.66,-15.5 365.33,-15.5 373.94,-15.5"/>
<polygon fill="midnightblue" stroke="midnightblue" points="374,-19 384,-15.5 374,-12 374,-19"/>
</g>
</g>
</svg>
