<?xml version="1.0" encoding="UTF-8" standalone="no"?>
<!DOCTYPE svg PUBLIC "-//W3C//DTD SVG 1.1//EN"
 "http://www.w3.org/Graphics/SVG/1.1/DTD/svg11.dtd">
<!-- Generated by graphviz version 2.43.0 (0)
 -->
<!-- Title: com.cliffc.aa.node.Node.do_grow Pages: 1 -->
<!--zoomable 192 -->
<svg id="main" version="1.1" xmlns="http://www.w3.org/2000/svg" xmlns:xlink="http://www.w3.org/1999/xlink" xml:space="preserve" onload="init(evt)">
<style type="text/css"><![CDATA[
.edge:hover path { stroke: red; }
.edge:hover polygon { stroke: red; fill: red; }
]]></style>
<script type="text/javascript"><![CDATA[
var edges = document.getElementsByTagName('g');
if (edges && edges.length) {
  for (var i=0;i<edges.length;i++) {
    if (edges[i].id.substr(0,4)=='edge') {
      edges[i].setAttribute('class','edge');
    }
  }
}
]]></script>
        <defs>
                <circle id="rim" cx="0" cy="0" r="7"/>
                <circle id="rim2" cx="0" cy="0" r="3.5"/>
                <g id="zoomPlus">
                        <use xlink:href="#rim" fill="#404040">
                                <set attributeName="fill" to="#808080" begin="zoomplus.mouseover" end="zoomplus.mouseout"/>
                        </use>
                        <path d="M-4,0h8M0,-4v8" fill="none" stroke="white" stroke-width="1.5" pointer-events="none"/>
                </g>
                <g id="zoomMin">
                        <use xlink:href="#rim" fill="#404040">
                                <set attributeName="fill" to="#808080" begin="zoomminus.mouseover" end="zoomminus.mouseout"/>
                        </use>
                        <path d="M-4,0h8" fill="none" stroke="white" stroke-width="1.5" pointer-events="none"/>
                </g>
                <g id="dirArrow">
                        <path fill="none" stroke="white" stroke-width="1.5" d="M0,-3.0v7 M-2.5,-0.5L0,-3.0L2.5,-0.5"/>
                </g>
               <g id="resetDef">
                       <use xlink:href="#rim2" fill="#404040">
                               <set attributeName="fill" to="#808080" begin="reset.mouseover" end="reset.mouseout"/>
                       </use>
               </g>
        </defs>

<script type="text/javascript">
var viewWidth = 1012;
var viewHeight = 192;
var sectionId = 'dynsection-31';
</script>
<script xlink:href="../../svgpan.js"/>
<svg id="graph" class="graph">
<g id="viewport">
<title>com.cliffc.aa.node.Node.do_grow</title>
<!-- Node1 -->
<g id="node1" class="node">
<title>Node1</title>
<g id="a_node1"><a xlink:title=" ">
<polygon fill="#bfbfbf" stroke="black" points="0,-82.5 0,-101.5 179,-101.5 179,-82.5 0,-82.5"/>
<text text-anchor="middle" x="89.5" y="-89.5" font-family="Helvetica,sans-Serif" font-size="10.00">com.cliffc.aa.node.Node.do_grow</text>
</a>
</g>
</g>
<!-- Node2 -->
<g id="node2" class="node">
<title>Node2</title>
<g id="a_node2"><a xlink:href="../../d9/d0a/a00390.html#af23b6c0debccdb7104dea273b231c716" target="_top" xlink:title=" ">
<polygon fill="none" stroke="black" points="222,-164.5 222,-183.5 399,-183.5 399,-164.5 222,-164.5"/>
<text text-anchor="middle" x="310.5" y="-171.5" font-family="Helvetica,sans-Serif" font-size="10.00">com.cliffc.aa.GVNGCM.add_dead</text>
</a>
</g>
</g>
<!-- Node1&#45;&gt;Node2 -->
<g id="edge1" class="edge">
<title>Node1&#45;&gt;Node2</title>
<path fill="none" stroke="midnightblue" d="M106.01,-101.59C128.99,-115.38 173.8,-140.73 215,-155 222.84,-157.72 231.19,-160.09 239.56,-162.16"/>
<polygon fill="midnightblue" stroke="midnightblue" points="238.83,-165.58 249.36,-164.45 240.42,-158.77 238.83,-165.58"/>
</g>
<!-- Node6 -->
<g id="node6" class="node">
<title>Node6</title>
<g id="a_node6"><a xlink:href="../../d9/d0a/a00390.html#a195b2b7d0b8f0f1770422573c2cc22ff" target="_top" xlink:title=" ">
<polygon fill="none" stroke="black" points="224,-126.5 224,-145.5 397,-145.5 397,-126.5 224,-126.5"/>
<text text-anchor="middle" x="310.5" y="-133.5" font-family="Helvetica,sans-Serif" font-size="10.00">com.cliffc.aa.GVNGCM.add_flow</text>
</a>
</g>
</g>
<!-- Node1&#45;&gt;Node6 -->
<g id="edge5" class="edge">
<title>Node1&#45;&gt;Node6</title>
<path fill="none" stroke="midnightblue" d="M138.02,-101.55C171.45,-108.26 216.38,-117.29 251.86,-124.42"/>
<polygon fill="midnightblue" stroke="midnightblue" points="251.58,-127.93 262.07,-126.47 252.96,-121.07 251.58,-127.93"/>
</g>
<!-- Node7 -->
<g id="node7" class="node">
<title>Node7</title>
<g id="a_node7"><a xlink:href="../../d9/d0a/a00390.html#ad52b88a21b47c661e6f6a3bcfdbb3576" target="_top" xlink:title=" ">
<polygon fill="none" stroke="black" points="236.5,-77 236.5,-107 384.5,-107 384.5,-77 236.5,-77"/>
<text text-anchor="start" x="244.5" y="-95" font-family="Helvetica,sans-Serif" font-size="10.00">com.cliffc.aa.GVNGCM.add</text>
<text text-anchor="middle" x="310.5" y="-84" font-family="Helvetica,sans-Serif" font-size="10.00">_reduce</text>
</a>
</g>
</g>
<!-- Node1&#45;&gt;Node7 -->
<g id="edge7" class="edge">
<title>Node1&#45;&gt;Node7</title>
<path fill="none" stroke="midnightblue" d="M179.26,-92C194.82,-92 210.96,-92 226.37,-92"/>
<polygon fill="midnightblue" stroke="midnightblue" points="226.37,-95.5 236.37,-92 226.37,-88.5 226.37,-95.5"/>
</g>
<!-- Node8 -->
<g id="node8" class="node">
<title>Node8</title>
<g id="a_node8"><a xlink:href="../../df/db5/a01158.html#a85d0889bc8372963b91a4cc69bad5415" target="_top" xlink:title=" ">
<polygon fill="none" stroke="black" points="215,-38.5 215,-57.5 406,-57.5 406,-38.5 215,-38.5"/>
<text text-anchor="middle" x="310.5" y="-45.5" font-family="Helvetica,sans-Serif" font-size="10.00">com.cliffc.aa.node.Node.ideal_grow</text>
</a>
</g>
</g>
<!-- Node1&#45;&gt;Node8 -->
<g id="edge9" class="edge">
<title>Node1&#45;&gt;Node8</title>
<path fill="none" stroke="midnightblue" d="M138.02,-82.45C171.45,-75.74 216.38,-66.71 251.86,-59.58"/>
<polygon fill="midnightblue" stroke="midnightblue" points="252.96,-62.93 262.07,-57.53 251.58,-56.07 252.96,-62.93"/>
</g>
<!-- Node9 -->
<g id="node9" class="node">
<title>Node9</title>
<g id="a_node9"><a xlink:href="../../df/db5/a01158.html#ab7694c22a9c7542842726bcfb0eb5922" target="_top" xlink:title=" ">
<polygon fill="none" stroke="black" points="223,-0.5 223,-19.5 398,-19.5 398,-0.5 223,-0.5"/>
<text text-anchor="middle" x="310.5" y="-7.5" font-family="Helvetica,sans-Serif" font-size="10.00">com.cliffc.aa.node.Node.is_dead</text>
</a>
</g>
</g>
<!-- Node1&#45;&gt;Node9 -->
<g id="edge10" class="edge">
<title>Node1&#45;&gt;Node9</title>
<path fill="none" stroke="midnightblue" d="M106.01,-82.41C128.99,-68.62 173.8,-43.27 215,-29 222.84,-26.28 231.19,-23.91 239.56,-21.84"/>
<polygon fill="midnightblue" stroke="midnightblue" points="240.42,-25.23 249.36,-19.55 238.83,-18.42 240.42,-25.23"/>
</g>
<!-- Node3 -->
<g id="node3" class="node">
<title>Node3</title>
<g id="a_node3"><a xlink:href="../../d9/d0a/a00390.html#a6074ca566ae10e746122ac8d09239d02" target="_top" xlink:title=" ">
<polygon fill="none" stroke="black" points="442,-126.5 442,-145.5 619,-145.5 619,-126.5 442,-126.5"/>
<text text-anchor="middle" x="530.5" y="-133.5" font-family="Helvetica,sans-Serif" font-size="10.00">com.cliffc.aa.GVNGCM.add_work</text>
</a>
</g>
</g>
<!-- Node2&#45;&gt;Node3 -->
<g id="edge2" class="edge">
<title>Node2&#45;&gt;Node3</title>
<path fill="none" stroke="midnightblue" d="M366.23,-164.46C396.16,-159.24 433.42,-152.75 464.79,-147.28"/>
<polygon fill="midnightblue" stroke="midnightblue" points="465.5,-150.71 474.75,-145.54 464.3,-143.81 465.5,-150.71"/>
</g>
<!-- Node4 -->
<g id="node4" class="node">
<title>Node4</title>
<g id="a_node4"><a xlink:href="../../d6/d2f/a01394.html#acc21c59313a6ce5c286431fd2d4fd891" target="_top" xlink:title=" ">
<polygon fill="none" stroke="black" points="655,-126.5 655,-145.5 810,-145.5 810,-126.5 655,-126.5"/>
<text text-anchor="middle" x="732.5" y="-133.5" font-family="Helvetica,sans-Serif" font-size="10.00">com.cliffc.aa.node.Work.add</text>
</a>
</g>
</g>
<!-- Node3&#45;&gt;Node4 -->
<g id="edge3" class="edge">
<title>Node3&#45;&gt;Node4</title>
<path fill="none" stroke="midnightblue" d="M619.22,-136C627.65,-136 636.2,-136 644.63,-136"/>
<polygon fill="midnightblue" stroke="midnightblue" points="644.82,-139.5 654.82,-136 644.82,-132.5 644.82,-139.5"/>
</g>
<!-- Node5 -->
<g id="node5" class="node">
<title>Node5</title>
<g id="a_node5"><a xlink:href="../../df/dee/a01646.html#a88ad20daf92e92fe0e3925b23c4fecf0" target="_top" xlink:title=" ">
<polygon fill="none" stroke="black" points="846,-126.5 846,-145.5 1004,-145.5 1004,-126.5 846,-126.5"/>
<text text-anchor="middle" x="925" y="-133.5" font-family="Helvetica,sans-Serif" font-size="10.00">com.cliffc.aa.util.VBitSet.tset</text>
</a>
</g>
</g>
<!-- Node4&#45;&gt;Node5 -->
<g id="edge4" class="edge">
<title>Node4&#45;&gt;Node5</title>
<path fill="none" stroke="midnightblue" d="M810.16,-136C818.63,-136 827.31,-136 835.9,-136"/>
<polygon fill="midnightblue" stroke="midnightblue" points="835.94,-139.5 845.94,-136 835.94,-132.5 835.94,-139.5"/>
</g>
<!-- Node6&#45;&gt;Node3 -->
<g id="edge6" class="edge">
<title>Node6&#45;&gt;Node3</title>
<path fill="none" stroke="midnightblue" d="M397.03,-136C408.38,-136 420.09,-136 431.62,-136"/>
<polygon fill="midnightblue" stroke="midnightblue" points="431.7,-139.5 441.7,-136 431.7,-132.5 431.7,-139.5"/>
</g>
<!-- Node7&#45;&gt;Node3 -->
<g id="edge8" class="edge">
<title>Node7&#45;&gt;Node3</title>
<path fill="none" stroke="midnightblue" d="M384.7,-106.77C413.21,-112.53 445.41,-119.03 472.19,-124.43"/>
<polygon fill="midnightblue" stroke="midnightblue" points="471.67,-127.9 482.17,-126.45 473.06,-121.04 471.67,-127.9"/>
</g>
</g>
</svg>
        <g id="navigator" transform="translate(0 0)" fill="#404254">
                <rect fill="#f2f5e9" fill-opacity="0.5" stroke="#606060" stroke-width=".5" x="0" y="0" width="60" height="60"/>
                <use id="zoomplus" xlink:href="#zoomPlus" x="17" y="9" onmousedown="handleZoom(evt,'in')"/>
                <use id="zoomminus" xlink:href="#zoomMin" x="42" y="9" onmousedown="handleZoom(evt,'out')"/>
                <use id="reset" xlink:href="#resetDef" x="30" y="36" onmousedown="handleReset()"/>
                <g id="arrowUp" xlink:href="#dirArrow" transform="translate(30 24)" onmousedown="handlePan(0,-1)">
                  <use xlink:href="#rim" fill="#404040">
                        <set attributeName="fill" to="#808080" begin="arrowUp.mouseover" end="arrowUp.mouseout"/>
                  </use>
                  <path fill="none" stroke="white" stroke-width="1.5" d="M0,-3.0v7 M-2.5,-0.5L0,-3.0L2.5,-0.5"/>
                </g>
                <g id="arrowRight" xlink:href="#dirArrow" transform="rotate(90) translate(36 -43)" onmousedown="handlePan(1,0)">
                  <use xlink:href="#rim" fill="#404040">
                        <set attributeName="fill" to="#808080" begin="arrowRight.mouseover" end="arrowRight.mouseout"/>
                  </use>
                  <path fill="none" stroke="white" stroke-width="1.5" d="M0,-3.0v7 M-2.5,-0.5L0,-3.0L2.5,-0.5"/>
                </g>
                <g id="arrowDown" xlink:href="#dirArrow" transform="rotate(180) translate(-30 -48)" onmousedown="handlePan(0,1)">
                  <use xlink:href="#rim" fill="#404040">
                        <set attributeName="fill" to="#808080" begin="arrowDown.mouseover" end="arrowDown.mouseout"/>
                  </use>
                  <path fill="none" stroke="white" stroke-width="1.5" d="M0,-3.0v7 M-2.5,-0.5L0,-3.0L2.5,-0.5"/>
                </g>
                <g id="arrowLeft" xlink:href="#dirArrow" transform="rotate(270) translate(-36 17)" onmousedown="handlePan(-1,0)">
                  <use xlink:href="#rim" fill="#404040">
                        <set attributeName="fill" to="#808080" begin="arrowLeft.mouseover" end="arrowLeft.mouseout"/>
                  </use>
                  <path fill="none" stroke="white" stroke-width="1.5" d="M0,-3.0v7 M-2.5,-0.5L0,-3.0L2.5,-0.5"/>
                </g>
        </g>
        <svg viewBox="0 0 15 15" width="100%" height="30px" preserveAspectRatio="xMaxYMin meet">
         <g id="arrow_out" transform="scale(0.3 0.3)">
          <a xlink:href="a01158_aebd760218533a875e835b3f0a3075399_cgraph_org.svg" target="_base">
           <rect id="button" ry="5" rx="5" y="6" x="6" height="38" width="38"
                fill="#f2f5e9" fill-opacity="0.5" stroke="#606060" stroke-width="1.0"/>
           <path id="arrow"
             d="M 11.500037,31.436501 C 11.940474,20.09759 22.043105,11.32322 32.158766,21.979434 L 37.068811,17.246167 C 37.068811,17.246167 37.088388,32 37.088388,32 L 22.160133,31.978069 C 22.160133,31.978069 26.997745,27.140456 26.997745,27.140456 C 18.528582,18.264221 13.291696,25.230495 11.500037,31.436501 z"
             style="fill:#404040;"/>
          </a>
         </g>
        </svg>
</svg>
