<?xml version="1.0" encoding="UTF-8" standalone="no"?>
<!DOCTYPE svg PUBLIC "-//W3C//DTD SVG 1.1//EN"
 "http://www.w3.org/Graphics/SVG/1.1/DTD/svg11.dtd">
<!-- Generated by graphviz version 2.43.0 (0)
 -->
<!-- Title: com.cliffc.aa.node.Node.is_multi_head Pages: 1 -->
<!--zoomable 166 -->
<svg id="main" version="1.1" xmlns="http://www.w3.org/2000/svg" xmlns:xlink="http://www.w3.org/1999/xlink" xml:space="preserve" onload="init(evt)">
<style type="text/css"><![CDATA[
.edge:hover path { stroke: red; }
.edge:hover polygon { stroke: red; fill: red; }
]]></style>
<script type="text/javascript"><![CDATA[
var edges = document.getElementsByTagName('g');
if (edges && edges.length) {
  for (var i=0;i<edges.length;i++) {
    if (edges[i].id.substr(0,4)=='edge') {
      edges[i].setAttribute('class','edge');
    }
  }
}
]]></script>
        <defs>
                <circle id="rim" cx="0" cy="0" r="7"/>
                <circle id="rim2" cx="0" cy="0" r="3.5"/>
                <g id="zoomPlus">
                        <use xlink:href="#rim" fill="#404040">
                                <set attributeName="fill" to="#808080" begin="zoomplus.mouseover" end="zoomplus.mouseout"/>
                        </use>
                        <path d="M-4,0h8M0,-4v8" fill="none" stroke="white" stroke-width="1.5" pointer-events="none"/>
                </g>
                <g id="zoomMin">
                        <use xlink:href="#rim" fill="#404040">
                                <set attributeName="fill" to="#808080" begin="zoomminus.mouseover" end="zoomminus.mouseout"/>
                        </use>
                        <path d="M-4,0h8" fill="none" stroke="white" stroke-width="1.5" pointer-events="none"/>
                </g>
                <g id="dirArrow">
                        <path fill="none" stroke="white" stroke-width="1.5" d="M0,-3.0v7 M-2.5,-0.5L0,-3.0L2.5,-0.5"/>
                </g>
               <g id="resetDef">
                       <use xlink:href="#rim2" fill="#404040">
                               <set attributeName="fill" to="#808080" begin="reset.mouseover" end="reset.mouseout"/>
                       </use>
               </g>
        </defs>

<script type="text/javascript">
var viewWidth = 800;
var viewHeight = 166;
var sectionId = 'dynsection-69';
</script>
<script xlink:href="../../svgpan.js"/>
<svg id="graph" class="graph">
<g id="viewport">
<title>com.cliffc.aa.node.Node.is_multi_head</title>
<!-- Node1 -->
<g id="node1" class="node">
<title>Node1</title>
<g id="a_node1"><a xlink:title=" ">
<polygon fill="#bfbfbf" stroke="black" points="646,-66.5 646,-96.5 792,-96.5 792,-66.5 646,-66.5"/>
<text text-anchor="start" x="654" y="-84.5" font-family="Helvetica,sans-Serif" font-size="10.00">com.cliffc.aa.node.Node.is</text>
<text text-anchor="middle" x="719" y="-73.5" font-family="Helvetica,sans-Serif" font-size="10.00">_multi_head</text>
</a>
</g>
</g>
<!-- Node2 -->
<g id="node2" class="node">
<title>Node2</title>
<g id="a_node2"><a xlink:href="../../df/db5/a01158.html#a09e005492c6e4be3c6e9aff446298f22" target="_top" xlink:title=" ">
<polygon fill="none" stroke="black" points="426.5,-138 426.5,-157 591.5,-157 591.5,-138 426.5,-138"/>
<text text-anchor="middle" x="509" y="-145" font-family="Helvetica,sans-Serif" font-size="10.00">com.cliffc.aa.node.Node.dump</text>
</a>
</g>
</g>
<!-- Node1&#45;&gt;Node2 -->
<g id="edge1" class="edge">
<title>Node1&#45;&gt;Node2</title>
<path fill="none" stroke="midnightblue" d="M673.48,-100.38C654.18,-108.15 631.19,-116.87 610,-123.5 592.36,-129.02 572.64,-134 555.41,-137.97"/>
<polygon fill="midnightblue" stroke="midnightblue" points="674.98,-103.55 682.92,-96.53 672.34,-97.06 674.98,-103.55"/>
</g>
<!-- Node3 -->
<g id="node3" class="node">
<title>Node3</title>
<g id="a_node3"><a xlink:href="../../df/db5/a01158.html#abd2c4dd527b2269e98a9b16a23f74d78" target="_top" xlink:title=" ">
<polygon fill="none" stroke="black" points="191,-75 191,-94 372,-94 372,-75 191,-75"/>
<text text-anchor="middle" x="281.5" y="-82" font-family="Helvetica,sans-Serif" font-size="10.00">com.cliffc.aa.node.Node.dumprpo</text>
</a>
</g>
</g>
<!-- Node1&#45;&gt;Node3 -->
<g id="edge2" class="edge">
<title>Node1&#45;&gt;Node3</title>
<path fill="none" stroke="midnightblue" d="M635.61,-89.08C626.97,-89.66 618.31,-90.15 610,-90.5 520.3,-94.23 497.75,-92.64 408,-90.5 396.44,-90.22 384.29,-89.8 372.29,-89.31"/>
<polygon fill="midnightblue" stroke="midnightblue" points="636,-92.56 645.73,-88.36 635.5,-85.58 636,-92.56"/>
</g>
<!-- Node5 -->
<g id="node5" class="node">
<title>Node5</title>
<g id="a_node5"><a xlink:href="../../d9/d8e/a01050.html#ac44a1aea6567cf56824950cf1323e964" target="_top" xlink:title=" ">
<polygon fill="none" stroke="black" points="408,-6 408,-25 610,-25 610,-6 408,-6"/>
<text text-anchor="middle" x="509" y="-13" font-family="Helvetica,sans-Serif" font-size="10.00">com.cliffc.aa.node.FunNode.find_body</text>
</a>
</g>
</g>
<!-- Node1&#45;&gt;Node5 -->
<g id="edge4" class="edge">
<title>Node1&#45;&gt;Node5</title>
<path fill="none" stroke="midnightblue" d="M679.23,-62.12C659.01,-52.66 633.62,-41.78 610,-34.5 597.84,-30.75 584.61,-27.61 571.88,-25.03"/>
<polygon fill="midnightblue" stroke="midnightblue" points="677.89,-65.36 688.42,-66.49 680.89,-59.04 677.89,-65.36"/>
</g>
<!-- Node7 -->
<g id="node7" class="node">
<title>Node7</title>
<g id="a_node7"><a xlink:href="../../df/db5/a01158.html#ab3bbbf7b3af18c79f5b7c2bc430b9032" target="_top" xlink:title=" ">
<polygon fill="none" stroke="black" points="417,-44 417,-63 601,-63 601,-44 417,-44"/>
<text text-anchor="middle" x="509" y="-51" font-family="Helvetica,sans-Serif" font-size="10.00">com.cliffc.aa.node.Node.postorder</text>
</a>
</g>
</g>
<!-- Node1&#45;&gt;Node7 -->
<g id="edge6" class="edge">
<title>Node1&#45;&gt;Node7</title>
<path fill="none" stroke="midnightblue" d="M635.81,-70.44C617.56,-67.98 598.37,-65.4 580.63,-63.01"/>
<polygon fill="midnightblue" stroke="midnightblue" points="635.46,-73.92 645.84,-71.79 636.39,-66.98 635.46,-73.92"/>
</g>
<!-- Node4 -->
<g id="node4" class="node">
<title>Node4</title>
<g id="a_node4"><a xlink:href="../../da/de3/a01398.html#af3523a5eae79462d511cf046ba65dcff" target="_top" xlink:title=" ">
<polygon fill="none" stroke="black" points="0,-75 0,-94 155,-94 155,-75 0,-75"/>
<text text-anchor="middle" x="77.5" y="-82" font-family="Helvetica,sans-Serif" font-size="10.00">com.cliffc.aa.Parse.dumprpo</text>
</a>
</g>
</g>
<!-- Node3&#45;&gt;Node4 -->
<g id="edge3" class="edge">
<title>Node3&#45;&gt;Node4</title>
<path fill="none" stroke="midnightblue" d="M180.64,-84.5C172.04,-84.5 163.42,-84.5 155.04,-84.5"/>
<polygon fill="midnightblue" stroke="midnightblue" points="180.72,-88 190.72,-84.5 180.72,-81 180.72,-88"/>
</g>
<!-- Node6 -->
<g id="node6" class="node">
<title>Node6</title>
<g id="a_node6"><a xlink:href="../../d9/d8e/a01050.html#a35a8d77a634141d969d902a346af2000" target="_top" xlink:title=" ">
<polygon fill="none" stroke="black" points="192,-0.5 192,-30.5 371,-30.5 371,-0.5 192,-0.5"/>
<text text-anchor="start" x="200" y="-18.5" font-family="Helvetica,sans-Serif" font-size="10.00">com.cliffc.aa.node.FunNode.ideal</text>
<text text-anchor="middle" x="281.5" y="-7.5" font-family="Helvetica,sans-Serif" font-size="10.00">_inline</text>
</a>
</g>
</g>
<!-- Node5&#45;&gt;Node6 -->
<g id="edge5" class="edge">
<title>Node5&#45;&gt;Node6</title>
<path fill="none" stroke="midnightblue" d="M397.71,-15.5C388.78,-15.5 379.82,-15.5 371.07,-15.5"/>
<polygon fill="midnightblue" stroke="midnightblue" points="397.78,-19 407.78,-15.5 397.78,-12 397.78,-19"/>
</g>
<!-- Node7&#45;&gt;Node3 -->
<g id="edge7" class="edge">
<title>Node7&#45;&gt;Node3</title>
<path fill="none" stroke="midnightblue" d="M428.63,-64.41C403.62,-67.85 376.21,-71.62 351.95,-74.95"/>
<polygon fill="midnightblue" stroke="midnightblue" points="429.38,-67.84 438.81,-63.01 428.43,-60.91 429.38,-67.84"/>
</g>
<!-- Node7&#45;&gt;Node7 -->
<g id="edge8" class="edge">
<title>Node7&#45;&gt;Node7</title>
<path fill="none" stroke="midnightblue" d="M548.28,-70.12C549.65,-76.36 536.56,-81.5 509,-81.5 471.47,-81.5 460.77,-71.96 476.89,-63.11"/>
<polygon fill="midnightblue" stroke="midnightblue" points="550.7,-67.6 541.11,-63.11 545.81,-72.6 550.7,-67.6"/>
</g>
</g>
</svg>
        <g id="navigator" transform="translate(0 0)" fill="#404254">
                <rect fill="#f2f5e9" fill-opacity="0.5" stroke="#606060" stroke-width=".5" x="0" y="0" width="60" height="60"/>
                <use id="zoomplus" xlink:href="#zoomPlus" x="17" y="9" onmousedown="handleZoom(evt,'in')"/>
                <use id="zoomminus" xlink:href="#zoomMin" x="42" y="9" onmousedown="handleZoom(evt,'out')"/>
                <use id="reset" xlink:href="#resetDef" x="30" y="36" onmousedown="handleReset()"/>
                <g id="arrowUp" xlink:href="#dirArrow" transform="translate(30 24)" onmousedown="handlePan(0,-1)">
                  <use xlink:href="#rim" fill="#404040">
                        <set attributeName="fill" to="#808080" begin="arrowUp.mouseover" end="arrowUp.mouseout"/>
                  </use>
                  <path fill="none" stroke="white" stroke-width="1.5" d="M0,-3.0v7 M-2.5,-0.5L0,-3.0L2.5,-0.5"/>
                </g>
                <g id="arrowRight" xlink:href="#dirArrow" transform="rotate(90) translate(36 -43)" onmousedown="handlePan(1,0)">
                  <use xlink:href="#rim" fill="#404040">
                        <set attributeName="fill" to="#808080" begin="arrowRight.mouseover" end="arrowRight.mouseout"/>
                  </use>
                  <path fill="none" stroke="white" stroke-width="1.5" d="M0,-3.0v7 M-2.5,-0.5L0,-3.0L2.5,-0.5"/>
                </g>
                <g id="arrowDown" xlink:href="#dirArrow" transform="rotate(180) translate(-30 -48)" onmousedown="handlePan(0,1)">
                  <use xlink:href="#rim" fill="#404040">
                        <set attributeName="fill" to="#808080" begin="arrowDown.mouseover" end="arrowDown.mouseout"/>
                  </use>
                  <path fill="none" stroke="white" stroke-width="1.5" d="M0,-3.0v7 M-2.5,-0.5L0,-3.0L2.5,-0.5"/>
                </g>
                <g id="arrowLeft" xlink:href="#dirArrow" transform="rotate(270) translate(-36 17)" onmousedown="handlePan(-1,0)">
                  <use xlink:href="#rim" fill="#404040">
                        <set attributeName="fill" to="#808080" begin="arrowLeft.mouseover" end="arrowLeft.mouseout"/>
                  </use>
                  <path fill="none" stroke="white" stroke-width="1.5" d="M0,-3.0v7 M-2.5,-0.5L0,-3.0L2.5,-0.5"/>
                </g>
        </g>
        <svg viewBox="0 0 15 15" width="100%" height="30px" preserveAspectRatio="xMaxYMin meet">
         <g id="arrow_out" transform="scale(0.3 0.3)">
          <a xlink:href="a01158_ab02c49e0856329080127363a5b0b70e0_icgraph_org.svg" target="_base">
           <rect id="button" ry="5" rx="5" y="6" x="6" height="38" width="38"
                fill="#f2f5e9" fill-opacity="0.5" stroke="#606060" stroke-width="1.0"/>
           <path id="arrow"
             d="M 11.500037,31.436501 C 11.940474,20.09759 22.043105,11.32322 32.158766,21.979434 L 37.068811,17.246167 C 37.068811,17.246167 37.088388,32 37.088388,32 L 22.160133,31.978069 C 22.160133,31.978069 26.997745,27.140456 26.997745,27.140456 C 18.528582,18.264221 13.291696,25.230495 11.500037,31.436501 z"
             style="fill:#404040;"/>
          </a>
         </g>
        </svg>
</svg>
