<?xml version="1.0" encoding="UTF-8" standalone="no"?>
<!DOCTYPE svg PUBLIC "-//W3C//DTD SVG 1.1//EN"
 "http://www.w3.org/Graphics/SVG/1.1/DTD/svg11.dtd">
<!-- Generated by graphviz version 2.43.0 (0)
 -->
<!-- Title: com.cliffc.aa.node.Node.sharptr Pages: 1 -->
<svg width="2524pt" height="616pt"
 viewBox="0.00 0.00 2524.00 615.50" xmlns="http://www.w3.org/2000/svg" xmlns:xlink="http://www.w3.org/1999/xlink">
<g id="graph0" class="graph" transform="scale(1 1) rotate(0) translate(4 611.5)">
<title>com.cliffc.aa.node.Node.sharptr</title>
<!-- Node1 -->
<g id="node1" class="node">
<title>Node1</title>
<g id="a_node1"><a xlink:title=" ">
<polygon fill="#bfbfbf" stroke="black" points="2344,-205 2344,-224 2516,-224 2516,-205 2344,-205"/>
<text text-anchor="middle" x="2430" y="-212" font-family="Helvetica,sans-Serif" font-size="10.00">com.cliffc.aa.node.Node.sharptr</text>
</a>
</g>
</g>
<!-- Node2 -->
<g id="node2" class="node">
<title>Node2</title>
<g id="a_node2"><a xlink:href="../../d3/dc7/a01170.html#a2064728d0ff661c5f5e922990dc8fc1d" target="_top" xlink:title=" ">
<polygon fill="none" stroke="black" points="2114,-489 2114,-508 2290,-508 2290,-489 2114,-489"/>
<text text-anchor="middle" x="2202" y="-496" font-family="Helvetica,sans-Serif" font-size="10.00">com.cliffc.aa.node.ParmNode.err</text>
</a>
</g>
</g>
<!-- Node1&#45;&gt;Node2 -->
<g id="edge1" class="edge">
<title>Node1&#45;&gt;Node2</title>
<path fill="none" stroke="midnightblue" d="M2426.26,-234.26C2418.22,-284.18 2389.87,-415.86 2308,-479.5 2302.59,-483.71 2296.55,-487.09 2290.17,-489.81"/>
<polygon fill="midnightblue" stroke="midnightblue" points="2429.75,-234.57 2427.78,-224.16 2422.83,-233.52 2429.75,-234.57"/>
</g>
<!-- Node3 -->
<g id="node3" class="node">
<title>Node3</title>
<g id="a_node3"><a xlink:href="../../d0/d2b/a01010.html#a36a8626bf90bfda234be1168d92b67f3" target="_top" xlink:title=" ">
<polygon fill="none" stroke="black" points="2117,-451 2117,-470 2287,-470 2287,-451 2117,-451"/>
<text text-anchor="middle" x="2202" y="-458" font-family="Helvetica,sans-Serif" font-size="10.00">com.cliffc.aa.node.CallNode.err</text>
</a>
</g>
</g>
<!-- Node1&#45;&gt;Node3 -->
<g id="edge2" class="edge">
<title>Node1&#45;&gt;Node3</title>
<path fill="none" stroke="midnightblue" d="M2414.57,-231.95C2392.25,-258.77 2347.77,-311.52 2308,-354.5 2274.22,-391 2232.05,-432.38 2213.07,-450.78"/>
<polygon fill="midnightblue" stroke="midnightblue" points="2417.31,-234.13 2421,-224.2 2411.92,-229.66 2417.31,-234.13"/>
</g>
<!-- Node9 -->
<g id="node9" class="node">
<title>Node9</title>
<g id="a_node9"><a xlink:href="../../da/de3/a01398.html#a41b27cb2a246284f113c118d37e45093" target="_top" xlink:title=" ">
<polygon fill="none" stroke="black" points="2138.5,-314.5 2138.5,-344.5 2265.5,-344.5 2265.5,-314.5 2138.5,-314.5"/>
<text text-anchor="start" x="2146.5" y="-332.5" font-family="Helvetica,sans-Serif" font-size="10.00">com.cliffc.aa.Parse.get</text>
<text text-anchor="middle" x="2202" y="-321.5" font-family="Helvetica,sans-Serif" font-size="10.00">_display_ptr</text>
</a>
</g>
</g>
<!-- Node1&#45;&gt;Node9 -->
<g id="edge9" class="edge">
<title>Node1&#45;&gt;Node9</title>
<path fill="none" stroke="midnightblue" d="M2410.83,-231.16C2388.32,-250.95 2348.01,-283.65 2308,-302.5 2294.8,-308.72 2279.97,-313.64 2265.71,-317.49"/>
<polygon fill="midnightblue" stroke="midnightblue" points="2413.43,-233.54 2418.55,-224.26 2408.76,-228.32 2413.43,-233.54"/>
</g>
<!-- Node23 -->
<g id="node23" class="node">
<title>Node23</title>
<g id="a_node23"><a xlink:href="../../d2/dd5/a01002.html#a8240cd6392c9cb50f2bdd046f7fef434" target="_top" xlink:title=" ">
<polygon fill="none" stroke="black" points="2132,-262.5 2132,-292.5 2272,-292.5 2272,-262.5 2132,-262.5"/>
<text text-anchor="start" x="2140" y="-280.5" font-family="Helvetica,sans-Serif" font-size="10.00">com.cliffc.aa.node.Assert</text>
<text text-anchor="middle" x="2202" y="-269.5" font-family="Helvetica,sans-Serif" font-size="10.00">Node.ideal_reduce</text>
</a>
</g>
</g>
<!-- Node1&#45;&gt;Node23 -->
<g id="edge31" class="edge">
<title>Node1&#45;&gt;Node23</title>
<path fill="none" stroke="midnightblue" d="M2390.65,-227.3C2366.96,-235.03 2335.86,-244.82 2308,-252.5 2295.54,-255.94 2282.16,-259.34 2269.28,-262.47"/>
<polygon fill="midnightblue" stroke="midnightblue" points="2391.91,-230.58 2400.32,-224.13 2389.73,-223.92 2391.91,-230.58"/>
</g>
<!-- Node25 -->
<g id="node25" class="node">
<title>Node25</title>
<g id="a_node25"><a xlink:href="../../d9/d8e/a01050.html#adf7e908e6a0109e3d1c176cce2f0de50" target="_top" xlink:title=" ">
<polygon fill="none" stroke="black" points="2102,-224 2102,-243 2302,-243 2302,-224 2102,-224"/>
<text text-anchor="middle" x="2202" y="-231" font-family="Helvetica,sans-Serif" font-size="10.00">com.cliffc.aa.node.FunNode.split_size</text>
</a>
</g>
</g>
<!-- Node1&#45;&gt;Node25 -->
<g id="edge33" class="edge">
<title>Node1&#45;&gt;Node25</title>
<path fill="none" stroke="midnightblue" d="M2333.88,-222.5C2323.37,-223.38 2312.65,-224.28 2302.1,-225.17"/>
<polygon fill="midnightblue" stroke="midnightblue" points="2334.21,-225.98 2343.88,-221.66 2333.62,-219.01 2334.21,-225.98"/>
</g>
<!-- Node27 -->
<g id="node27" class="node">
<title>Node27</title>
<g id="a_node27"><a xlink:href="../../d3/dc7/a01170.html#a0e2a0061cedc4d12fe668366132aaa30" target="_top" xlink:title=" ">
<polygon fill="none" stroke="black" points="2096,-186 2096,-205 2308,-205 2308,-186 2096,-186"/>
<text text-anchor="middle" x="2202" y="-193" font-family="Helvetica,sans-Serif" font-size="10.00">com.cliffc.aa.node.ParmNode.valid_args</text>
</a>
</g>
</g>
<!-- Node1&#45;&gt;Node27 -->
<g id="edge35" class="edge">
<title>Node1&#45;&gt;Node27</title>
<path fill="none" stroke="midnightblue" d="M2333.7,-206.49C2325.28,-205.78 2316.74,-205.06 2308.25,-204.35"/>
<polygon fill="midnightblue" stroke="midnightblue" points="2333.62,-209.99 2343.88,-207.34 2334.21,-203.02 2333.62,-209.99"/>
</g>
<!-- Node28 -->
<g id="node28" class="node">
<title>Node28</title>
<g id="a_node28"><a xlink:href="../../d3/dc7/a01170.html#a3cceb726dadce8fe5331bb4dda33fd49" target="_top" xlink:title=" ">
<polygon fill="none" stroke="black" points="2107.5,-148 2107.5,-167 2296.5,-167 2296.5,-148 2107.5,-148"/>
<text text-anchor="middle" x="2202" y="-155" font-family="Helvetica,sans-Serif" font-size="10.00">com.cliffc.aa.node.ParmNode.value</text>
</a>
</g>
</g>
<!-- Node1&#45;&gt;Node28 -->
<g id="edge36" class="edge">
<title>Node1&#45;&gt;Node28</title>
<path fill="none" stroke="midnightblue" d="M2392.2,-201.62C2368.4,-193.62 2336.62,-183.55 2308,-176.5 2293.52,-172.93 2277.76,-169.73 2262.97,-167.01"/>
<polygon fill="midnightblue" stroke="midnightblue" points="2391.29,-205.01 2401.88,-204.91 2393.54,-198.38 2391.29,-205.01"/>
</g>
<!-- Node31 -->
<g id="node31" class="node">
<title>Node31</title>
<g id="a_node31"><a xlink:href="../../d9/df5/a01086.html#ae915b8f8ec4e85b929b5f4b7aa153923" target="_top" xlink:title=" ">
<polygon fill="none" stroke="black" points="2124,-98.5 2124,-128.5 2280,-128.5 2280,-98.5 2124,-98.5"/>
<text text-anchor="start" x="2132" y="-116.5" font-family="Helvetica,sans-Serif" font-size="10.00">com.cliffc.aa.node.MemPrim</text>
<text text-anchor="middle" x="2202" y="-105.5" font-family="Helvetica,sans-Serif" font-size="10.00">Node.LValueLength.value</text>
</a>
</g>
</g>
<!-- Node1&#45;&gt;Node31 -->
<g id="edge39" class="edge">
<title>Node1&#45;&gt;Node31</title>
<path fill="none" stroke="midnightblue" d="M2408.65,-198.78C2385.49,-181.6 2345.93,-154.42 2308,-138.5 2298.93,-134.69 2289.16,-131.4 2279.37,-128.56"/>
<polygon fill="midnightblue" stroke="midnightblue" points="2406.6,-201.61 2416.69,-204.82 2410.8,-196.01 2406.6,-201.61"/>
</g>
<!-- Node32 -->
<g id="node32" class="node">
<title>Node32</title>
<g id="a_node32"><a xlink:href="../../d2/dd5/a01002.html#ace60c438771fd5f9684cb0952ad22652" target="_top" xlink:title=" ">
<polygon fill="none" stroke="black" points="2132,-49.5 2132,-79.5 2272,-79.5 2272,-49.5 2132,-49.5"/>
<text text-anchor="start" x="2140" y="-67.5" font-family="Helvetica,sans-Serif" font-size="10.00">com.cliffc.aa.node.Assert</text>
<text text-anchor="middle" x="2202" y="-56.5" font-family="Helvetica,sans-Serif" font-size="10.00">Node.value</text>
</a>
</g>
</g>
<!-- Node1&#45;&gt;Node32 -->
<g id="edge40" class="edge">
<title>Node1&#45;&gt;Node32</title>
<path fill="none" stroke="midnightblue" d="M2416.97,-196.4C2397.5,-168.64 2356.37,-115.89 2308,-88.5 2297.02,-82.28 2284.52,-77.67 2272.08,-74.26"/>
<polygon fill="midnightblue" stroke="midnightblue" points="2414.17,-198.52 2422.72,-204.79 2419.95,-194.56 2414.17,-198.52"/>
</g>
<!-- Node33 -->
<g id="node33" class="node">
<title>Node33</title>
<g id="a_node33"><a xlink:href="../../da/d73/a01090.html#ac1b949e330e7b7c8b6373356e35fbdd6" target="_top" xlink:title=" ">
<polygon fill="none" stroke="black" points="2124,-0.5 2124,-30.5 2280,-30.5 2280,-0.5 2124,-0.5"/>
<text text-anchor="start" x="2132" y="-18.5" font-family="Helvetica,sans-Serif" font-size="10.00">com.cliffc.aa.node.MemPrim</text>
<text text-anchor="middle" x="2202" y="-7.5" font-family="Helvetica,sans-Serif" font-size="10.00">Node.LValueRead.value</text>
</a>
</g>
</g>
<!-- Node1&#45;&gt;Node33 -->
<g id="edge41" class="edge">
<title>Node1&#45;&gt;Node33</title>
<path fill="none" stroke="midnightblue" d="M2421.34,-195.16C2405.81,-158.6 2367.01,-79.46 2308,-39.5 2299.56,-33.79 2289.96,-29.42 2280.07,-26.08"/>
<polygon fill="midnightblue" stroke="midnightblue" points="2418.21,-196.75 2425.25,-204.66 2424.68,-194.08 2418.21,-196.75"/>
</g>
<!-- Node4 -->
<g id="node4" class="node">
<title>Node4</title>
<g id="a_node4"><a xlink:href="../../d0/d2b/a01010.html#a042f1a0b299eddc17b23da554e088150" target="_top" xlink:title=" ">
<polygon fill="none" stroke="black" points="1874.5,-538.5 1874.5,-568.5 2048.5,-568.5 2048.5,-538.5 1874.5,-538.5"/>
<text text-anchor="start" x="1882.5" y="-556.5" font-family="Helvetica,sans-Serif" font-size="10.00">com.cliffc.aa.node.CallNode.add</text>
<text text-anchor="middle" x="1961.5" y="-545.5" font-family="Helvetica,sans-Serif" font-size="10.00">_flow_extra</text>
</a>
</g>
</g>
<!-- Node3&#45;&gt;Node4 -->
<g id="edge3" class="edge">
<title>Node3&#45;&gt;Node4</title>
<path fill="none" stroke="midnightblue" d="M2107.38,-473.4C2103.43,-475.2 2099.61,-477.22 2096,-479.5 2072.84,-494.11 2082.69,-514.17 2060,-529.5 2054.94,-532.92 2049.45,-535.85 2043.73,-538.36"/>
<polygon fill="midnightblue" stroke="midnightblue" points="2108.83,-476.59 2116.81,-469.62 2106.23,-470.09 2108.83,-476.59"/>
</g>
<!-- Node5 -->
<g id="node5" class="node">
<title>Node5</title>
<g id="a_node5"><a xlink:href="../../d0/d2b/a01010.html#a9b26fb38a1bb993fff7dbc4250f2ad5d" target="_top" xlink:title=" ">
<polygon fill="none" stroke="black" points="1874.5,-489.5 1874.5,-519.5 2048.5,-519.5 2048.5,-489.5 1874.5,-489.5"/>
<text text-anchor="start" x="1882.5" y="-507.5" font-family="Helvetica,sans-Serif" font-size="10.00">com.cliffc.aa.node.CallNode.add</text>
<text text-anchor="middle" x="1961.5" y="-496.5" font-family="Helvetica,sans-Serif" font-size="10.00">_flow_use_extra</text>
</a>
</g>
</g>
<!-- Node3&#45;&gt;Node5 -->
<g id="edge4" class="edge">
<title>Node3&#45;&gt;Node5</title>
<path fill="none" stroke="midnightblue" d="M2138.16,-471.81C2124.27,-474.32 2109.63,-476.99 2096,-479.5 2078.61,-482.7 2059.95,-486.17 2042.26,-489.48"/>
<polygon fill="midnightblue" stroke="midnightblue" points="2138.89,-475.23 2148.11,-470.01 2137.65,-468.34 2138.89,-475.23"/>
</g>
<!-- Node6 -->
<g id="node6" class="node">
<title>Node6</title>
<g id="a_node6"><a xlink:href="../../d0/d2b/a01010.html#aef07a2283d73f9f60f0215af08389efb" target="_top" xlink:title=" ">
<polygon fill="none" stroke="black" points="1647,-467.5 1647,-497.5 1827,-497.5 1827,-467.5 1647,-467.5"/>
<text text-anchor="start" x="1655" y="-485.5" font-family="Helvetica,sans-Serif" font-size="10.00">com.cliffc.aa.node.CallNode.ideal</text>
<text text-anchor="middle" x="1737" y="-474.5" font-family="Helvetica,sans-Serif" font-size="10.00">_reduce</text>
</a>
</g>
</g>
<!-- Node3&#45;&gt;Node6 -->
<g id="edge7" class="edge">
<title>Node3&#45;&gt;Node6</title>
<path fill="none" stroke="midnightblue" d="M2106.84,-464.97C2025.01,-468.86 1907.32,-474.45 1827.04,-478.27"/>
<polygon fill="midnightblue" stroke="midnightblue" points="2107.06,-468.47 2116.89,-464.5 2106.73,-461.48 2107.06,-468.47"/>
</g>
<!-- Node7 -->
<g id="node7" class="node">
<title>Node7</title>
<g id="a_node7"><a xlink:href="../../dc/d81/a01006.html#a2fc8d45a36328634008e89d520cfb885" target="_top" xlink:title=" ">
<polygon fill="none" stroke="black" points="1890,-401.5 1890,-431.5 2033,-431.5 2033,-401.5 1890,-401.5"/>
<text text-anchor="start" x="1898" y="-419.5" font-family="Helvetica,sans-Serif" font-size="10.00">com.cliffc.aa.node.CallEpi</text>
<text text-anchor="middle" x="1961.5" y="-408.5" font-family="Helvetica,sans-Serif" font-size="10.00">Node.ideal_reduce</text>
</a>
</g>
</g>
<!-- Node3&#45;&gt;Node7 -->
<g id="edge6" class="edge">
<title>Node3&#45;&gt;Node7</title>
<path fill="none" stroke="midnightblue" d="M2139,-449.06C2106.58,-443.08 2066.76,-435.73 2033.15,-429.53"/>
<polygon fill="midnightblue" stroke="midnightblue" points="2138.78,-452.58 2149.25,-450.95 2140.05,-445.7 2138.78,-452.58"/>
</g>
<!-- Node8 -->
<g id="node8" class="node">
<title>Node8</title>
<g id="a_node8"><a xlink:href="../../d0/d2b/a01010.html#a21fa6d626c9b5de9200143339540c864" target="_top" xlink:title=" ">
<polygon fill="none" stroke="black" points="1863,-588 1863,-607 2060,-607 2060,-588 1863,-588"/>
<text text-anchor="middle" x="1961.5" y="-595" font-family="Helvetica,sans-Serif" font-size="10.00">com.cliffc.aa.node.CallNode.live_use</text>
</a>
</g>
</g>
<!-- Node3&#45;&gt;Node8 -->
<g id="edge8" class="edge">
<title>Node3&#45;&gt;Node8</title>
<path fill="none" stroke="midnightblue" d="M2107.53,-471.66C2103.44,-473.9 2099.56,-476.5 2096,-479.5 2060.21,-509.68 2095.59,-548.08 2060,-578.5 2055.67,-582.2 2050.84,-585.26 2045.71,-587.78"/>
<polygon fill="midnightblue" stroke="midnightblue" points="2109.24,-474.72 2116.8,-467.3 2106.26,-468.39 2109.24,-474.72"/>
</g>
<!-- Node5&#45;&gt;Node6 -->
<g id="edge5" class="edge">
<title>Node5&#45;&gt;Node6</title>
<path fill="none" stroke="midnightblue" d="M1864.2,-494.98C1851.88,-493.76 1839.31,-492.52 1827.11,-491.31"/>
<polygon fill="midnightblue" stroke="midnightblue" points="1864.18,-498.49 1874.48,-495.99 1864.87,-491.53 1864.18,-498.49"/>
</g>
<!-- Node10 -->
<g id="node10" class="node">
<title>Node10</title>
<g id="a_node10"><a xlink:href="../../da/de3/a01398.html#ab5f56822b1234ac422a988a689632a42" target="_top" xlink:title="Parse a factor, a leaf grammar token fact = num // number fact = &quot;string&quot; // string fact = (stmts) //...">
<polygon fill="none" stroke="black" points="1896.5,-287 1896.5,-306 2026.5,-306 2026.5,-287 1896.5,-287"/>
<text text-anchor="middle" x="1961.5" y="-294" font-family="Helvetica,sans-Serif" font-size="10.00">com.cliffc.aa.Parse.fact</text>
</a>
</g>
</g>
<!-- Node9&#45;&gt;Node10 -->
<g id="edge10" class="edge">
<title>Node9&#45;&gt;Node10</title>
<path fill="none" stroke="midnightblue" d="M2128.05,-319.41C2095.74,-314.94 2058.06,-309.72 2026.82,-305.4"/>
<polygon fill="midnightblue" stroke="midnightblue" points="2127.95,-322.93 2138.34,-320.83 2128.91,-315.99 2127.95,-322.93"/>
</g>
<!-- Node18 -->
<g id="node18" class="node">
<title>Node18</title>
<g id="a_node18"><a xlink:href="../../da/de3/a01398.html#a2a5934e98ffa96d31e2135ab66c7e796" target="_top" xlink:title="A statement is a list of variables to final&#45;assign or re&#45;assign, and an ifex for the value.">
<polygon fill="none" stroke="black" points="175,-223 175,-242 309,-242 309,-223 175,-223"/>
<text text-anchor="middle" x="242" y="-230" font-family="Helvetica,sans-Serif" font-size="10.00">com.cliffc.aa.Parse.stmt</text>
</a>
</g>
</g>
<!-- Node9&#45;&gt;Node18 -->
<g id="edge30" class="edge">
<title>Node9&#45;&gt;Node18</title>
<path fill="none" stroke="midnightblue" d="M2128.33,-340.45C2037.32,-353.19 1876.5,-372.5 1738,-372.5 1738,-372.5 1738,-372.5 579,-372.5 443.13,-372.5 298.49,-273.75 255.64,-242.12"/>
<polygon fill="midnightblue" stroke="midnightblue" points="2128.85,-343.91 2138.27,-339.04 2127.87,-336.98 2128.85,-343.91"/>
</g>
<!-- Node22 -->
<g id="node22" class="node">
<title>Node22</title>
<g id="a_node22"><a xlink:href="../../da/de3/a01398.html#ac627d3aaaed60f3d4a68bc4431dba21e" target="_top" xlink:title=" ">
<polygon fill="none" stroke="black" points="1674.5,-296 1674.5,-315 1799.5,-315 1799.5,-296 1674.5,-296"/>
<text text-anchor="middle" x="1737" y="-303" font-family="Helvetica,sans-Serif" font-size="10.00">com.cliffc.aa.Parse.inc</text>
</a>
</g>
</g>
<!-- Node9&#45;&gt;Node22 -->
<g id="edge28" class="edge">
<title>Node9&#45;&gt;Node22</title>
<path fill="none" stroke="midnightblue" d="M2128.11,-327.29C2059.63,-325.02 1954.31,-321.04 1863,-315.5 1842.36,-314.25 1819.82,-312.55 1799.64,-310.9"/>
<polygon fill="midnightblue" stroke="midnightblue" points="2128.25,-330.8 2138.36,-327.63 2128.48,-323.8 2128.25,-330.8"/>
</g>
<!-- Node11 -->
<g id="node11" class="node">
<title>Node11</title>
<g id="a_node11"><a xlink:href="../../da/de3/a01398.html#a7056d9016c6762ee436ae04e04476d3b" target="_top" xlink:title="Parse an optionally typed factor tfact = fact[:type].">
<polygon fill="none" stroke="black" points="1670,-254 1670,-273 1804,-273 1804,-254 1670,-254"/>
<text text-anchor="middle" x="1737" y="-261" font-family="Helvetica,sans-Serif" font-size="10.00">com.cliffc.aa.Parse.tfact</text>
</a>
</g>
</g>
<!-- Node10&#45;&gt;Node11 -->
<g id="edge11" class="edge">
<title>Node10&#45;&gt;Node11</title>
<path fill="none" stroke="midnightblue" d="M1886.21,-285.48C1859.06,-281.46 1828.59,-276.94 1802.38,-273.05"/>
<polygon fill="midnightblue" stroke="midnightblue" points="1886.04,-288.99 1896.44,-287 1887.06,-282.07 1886.04,-288.99"/>
</g>
<!-- Node12 -->
<g id="node12" class="node">
<title>Node12</title>
<g id="a_node12"><a xlink:href="../../da/de3/a01398.html#ab502dae0cf2cae3c0ade2422e579fce2" target="_top" xlink:title="Any number field&#45;lookups or function applications, then an optional assignment term = id++ | id– term...">
<polygon fill="none" stroke="black" points="1477,-247 1477,-266 1611,-266 1611,-247 1477,-247"/>
<text text-anchor="middle" x="1544" y="-254" font-family="Helvetica,sans-Serif" font-size="10.00">com.cliffc.aa.Parse.term</text>
</a>
</g>
</g>
<!-- Node11&#45;&gt;Node12 -->
<g id="edge12" class="edge">
<title>Node11&#45;&gt;Node12</title>
<path fill="none" stroke="midnightblue" d="M1659.37,-260.69C1643.4,-260.11 1626.7,-259.49 1611.15,-258.92"/>
<polygon fill="midnightblue" stroke="midnightblue" points="1659.61,-264.2 1669.73,-261.07 1659.87,-257.21 1659.61,-264.2"/>
</g>
<!-- Node13 -->
<g id="node13" class="node">
<title>Node13</title>
<g id="a_node13"><a xlink:href="../../da/de3/a01398.html#a6397933ff168ada64e7209d9c82122de" target="_top" xlink:title=" ">
<polygon fill="none" stroke="black" points="1330,-226.5 1330,-256.5 1441,-256.5 1441,-226.5 1330,-226.5"/>
<text text-anchor="start" x="1338" y="-244.5" font-family="Helvetica,sans-Serif" font-size="10.00">com.cliffc.aa.Parse.</text>
<text text-anchor="middle" x="1385.5" y="-233.5" font-family="Helvetica,sans-Serif" font-size="10.00">_expr_higher</text>
</a>
</g>
</g>
<!-- Node12&#45;&gt;Node13 -->
<g id="edge13" class="edge">
<title>Node12&#45;&gt;Node13</title>
<path fill="none" stroke="midnightblue" d="M1466.59,-249.18C1458,-248.35 1449.38,-247.53 1441.14,-246.74"/>
<polygon fill="midnightblue" stroke="midnightblue" points="1466.34,-252.67 1476.63,-250.14 1467.01,-245.7 1466.34,-252.67"/>
</g>
<!-- Node14 -->
<g id="node14" class="node">
<title>Node14</title>
<g id="a_node14"><a xlink:href="../../da/de3/a01398.html#ac81c4d62901080f0883b0e984f7f0062" target="_top" xlink:title=" ">
<polygon fill="none" stroke="black" points="854,-243 854,-262 992,-262 992,-243 854,-243"/>
<text text-anchor="middle" x="923" y="-250" font-family="Helvetica,sans-Serif" font-size="10.00">com.cliffc.aa.Parse._expr</text>
</a>
</g>
</g>
<!-- Node13&#45;&gt;Node14 -->
<g id="edge14" class="edge">
<title>Node13&#45;&gt;Node14</title>
<path fill="none" stroke="midnightblue" d="M1319.64,-238.18C1233,-237.77 1080.21,-241.39 992,-245.92"/>
<polygon fill="midnightblue" stroke="midnightblue" points="1319.84,-241.68 1329.87,-238.25 1319.89,-234.68 1319.84,-241.68"/>
</g>
<!-- Node20 -->
<g id="node20" class="node">
<title>Node20</title>
<g id="a_node20"><a xlink:href="../../da/de3/a01398.html#a58b0dba4e9b60d9e9639eea530b6077b" target="_top" xlink:title=" ">
<polygon fill="none" stroke="black" points="1175,-275.5 1175,-305.5 1294,-305.5 1294,-275.5 1175,-275.5"/>
<text text-anchor="start" x="1183" y="-293.5" font-family="Helvetica,sans-Serif" font-size="10.00">com.cliffc.aa.Parse.</text>
<text text-anchor="middle" x="1234.5" y="-282.5" font-family="Helvetica,sans-Serif" font-size="10.00">_expr_higher_require</text>
</a>
</g>
</g>
<!-- Node13&#45;&gt;Node20 -->
<g id="edge24" class="edge">
<title>Node13&#45;&gt;Node20</title>
<path fill="none" stroke="midnightblue" d="M1328.98,-259.76C1313.26,-264.93 1296.34,-270.49 1281.27,-275.45"/>
<polygon fill="midnightblue" stroke="midnightblue" points="1330.17,-263.05 1338.58,-256.6 1327.99,-256.4 1330.17,-263.05"/>
</g>
<!-- Node14&#45;&gt;Node13 -->
<g id="edge15" class="edge">
<title>Node14&#45;&gt;Node13</title>
<path fill="none" stroke="midnightblue" d="M1002.22,-255.85C1095.38,-255.87 1248.57,-251.99 1329.87,-247.36"/>
<polygon fill="midnightblue" stroke="midnightblue" points="1002.01,-252.35 992,-255.83 1002,-259.35 1002.01,-252.35"/>
</g>
<!-- Node15 -->
<g id="node15" class="node">
<title>Node15</title>
<g id="a_node15"><a xlink:href="../../da/de3/a01398.html#af41d3ed90c69faf4279701b6aa98bd3a" target="_top" xlink:title="Parse an expression, a series of terms separated by binary operators.">
<polygon fill="none" stroke="black" points="685,-243 685,-262 818,-262 818,-243 685,-243"/>
<text text-anchor="middle" x="751.5" y="-250" font-family="Helvetica,sans-Serif" font-size="10.00">com.cliffc.aa.Parse.expr</text>
</a>
</g>
</g>
<!-- Node14&#45;&gt;Node15 -->
<g id="edge16" class="edge">
<title>Node14&#45;&gt;Node15</title>
<path fill="none" stroke="midnightblue" d="M843.34,-252.5C834.93,-252.5 826.43,-252.5 818.19,-252.5"/>
<polygon fill="midnightblue" stroke="midnightblue" points="843.55,-256 853.55,-252.5 843.55,-249 843.55,-256"/>
</g>
<!-- Node16 -->
<g id="node16" class="node">
<title>Node16</title>
<g id="a_node16"><a xlink:href="../../da/de3/a01398.html#a6e92b63110e4ed2e5bf7533656730f3f" target="_top" xlink:title="Parse a lisp&#45;like function application.">
<polygon fill="none" stroke="black" points="511,-221 511,-240 649,-240 649,-221 511,-221"/>
<text text-anchor="middle" x="580" y="-228" font-family="Helvetica,sans-Serif" font-size="10.00">com.cliffc.aa.Parse.apply</text>
</a>
</g>
</g>
<!-- Node15&#45;&gt;Node16 -->
<g id="edge17" class="edge">
<title>Node15&#45;&gt;Node16</title>
<path fill="none" stroke="midnightblue" d="M674.96,-242.7C666.37,-241.58 657.65,-240.45 649.16,-239.35"/>
<polygon fill="midnightblue" stroke="midnightblue" points="674.6,-246.18 684.97,-243.99 675.5,-239.24 674.6,-246.18"/>
</g>
<!-- Node17 -->
<g id="node17" class="node">
<title>Node17</title>
<g id="a_node17"><a xlink:href="../../da/de3/a01398.html#a5e1b4411da5e7400c4fc45d4b3dbd795" target="_top" xlink:title="Parse an if&#45;expression, with lazy eval on the branches.">
<polygon fill="none" stroke="black" points="345,-223 345,-242 475,-242 475,-223 345,-223"/>
<text text-anchor="middle" x="410" y="-230" font-family="Helvetica,sans-Serif" font-size="10.00">com.cliffc.aa.Parse.ifex</text>
</a>
</g>
</g>
<!-- Node15&#45;&gt;Node17 -->
<g id="edge23" class="edge">
<title>Node15&#45;&gt;Node17</title>
<path fill="none" stroke="midnightblue" d="M674.65,-254.56C627.47,-255.1 565.59,-254.45 511,-249.5 493.55,-247.92 474.56,-245 457.86,-242.02"/>
<polygon fill="midnightblue" stroke="midnightblue" points="674.84,-258.06 684.79,-254.43 674.75,-251.06 674.84,-258.06"/>
</g>
<!-- Node16&#45;&gt;Node17 -->
<g id="edge18" class="edge">
<title>Node16&#45;&gt;Node17</title>
<path fill="none" stroke="midnightblue" d="M500.42,-231.44C491.98,-231.54 483.45,-231.64 475.2,-231.74"/>
<polygon fill="midnightblue" stroke="midnightblue" points="500.71,-234.93 510.67,-231.31 500.63,-227.93 500.71,-234.93"/>
</g>
<!-- Node17&#45;&gt;Node18 -->
<g id="edge19" class="edge">
<title>Node17&#45;&gt;Node18</title>
<path fill="none" stroke="midnightblue" d="M334.59,-225.78C326.13,-225.72 317.55,-225.75 309.2,-225.87"/>
<polygon fill="midnightblue" stroke="midnightblue" points="334.78,-229.28 344.82,-225.91 334.86,-222.29 334.78,-229.28"/>
</g>
<!-- Node18&#45;&gt;Node12 -->
<g id="edge22" class="edge">
<title>Node18&#45;&gt;Node12</title>
<path fill="none" stroke="midnightblue" d="M299.38,-221.1C365.91,-208.66 480.03,-190.5 579,-190.5 1235.5,-190.5 1235.5,-190.5 1235.5,-190.5 1327.62,-190.5 1351.7,-194.9 1441,-217.5 1470.04,-224.85 1502.09,-237.98 1522.37,-246.96"/>
<polygon fill="midnightblue" stroke="midnightblue" points="298.69,-217.67 289.52,-222.97 299.99,-224.55 298.69,-217.67"/>
</g>
<!-- Node18&#45;&gt;Node17 -->
<g id="edge20" class="edge">
<title>Node18&#45;&gt;Node17</title>
<path fill="none" stroke="midnightblue" d="M319.47,-239.23C327.95,-239.28 336.52,-239.23 344.82,-239.09"/>
<polygon fill="midnightblue" stroke="midnightblue" points="319.24,-235.73 309.2,-239.13 319.17,-242.73 319.24,-235.73"/>
</g>
<!-- Node19 -->
<g id="node19" class="node">
<title>Node19</title>
<g id="a_node19"><a xlink:href="../../da/de3/a01398.html#adf95c17fe0de5cfff574ee89b78f0d37" target="_top" xlink:title=" ">
<polygon fill="none" stroke="black" points="0,-223 0,-242 139,-242 139,-223 0,-223"/>
<text text-anchor="middle" x="69.5" y="-230" font-family="Helvetica,sans-Serif" font-size="10.00">com.cliffc.aa.Parse.stmts</text>
</a>
</g>
</g>
<!-- Node18&#45;&gt;Node19 -->
<g id="edge21" class="edge">
<title>Node18&#45;&gt;Node19</title>
<path fill="none" stroke="midnightblue" d="M164.44,-232.5C156.05,-232.5 147.54,-232.5 139.26,-232.5"/>
<polygon fill="midnightblue" stroke="midnightblue" points="164.59,-236 174.59,-232.5 164.59,-229 164.59,-236"/>
</g>
<!-- Node20&#45;&gt;Node14 -->
<g id="edge25" class="edge">
<title>Node20&#45;&gt;Node14</title>
<path fill="none" stroke="midnightblue" d="M1180.11,-308.24C1138.12,-319.52 1078.47,-329.6 1028,-315.5 990.59,-305.05 953.23,-277.08 935.17,-262.17"/>
<polygon fill="midnightblue" stroke="midnightblue" points="1181.17,-311.58 1189.86,-305.52 1179.28,-304.84 1181.17,-311.58"/>
</g>
<!-- Node21 -->
<g id="node21" class="node">
<title>Node21</title>
<g id="a_node21"><a xlink:href="../../da/de3/a01398.html#ade4bf32252a86275a1ec393dea94ed6f" target="_top" xlink:title=" ">
<polygon fill="none" stroke="black" points="1028,-275.5 1028,-305.5 1139,-305.5 1139,-275.5 1028,-275.5"/>
<text text-anchor="start" x="1036" y="-293.5" font-family="Helvetica,sans-Serif" font-size="10.00">com.cliffc.aa.Parse.</text>
<text text-anchor="middle" x="1083.5" y="-282.5" font-family="Helvetica,sans-Serif" font-size="10.00">_short_circuit_expr</text>
</a>
</g>
</g>
<!-- Node20&#45;&gt;Node21 -->
<g id="edge26" class="edge">
<title>Node20&#45;&gt;Node21</title>
<path fill="none" stroke="midnightblue" d="M1164.35,-290.5C1155.87,-290.5 1147.3,-290.5 1139.08,-290.5"/>
<polygon fill="midnightblue" stroke="midnightblue" points="1164.61,-294 1174.61,-290.5 1164.61,-287 1164.61,-294"/>
</g>
<!-- Node21&#45;&gt;Node14 -->
<g id="edge27" class="edge">
<title>Node21&#45;&gt;Node14</title>
<path fill="none" stroke="midnightblue" d="M1018.14,-275.07C999.69,-270.65 980.12,-265.95 963.63,-262"/>
<polygon fill="midnightblue" stroke="midnightblue" points="1017.41,-278.49 1027.95,-277.42 1019.04,-271.69 1017.41,-278.49"/>
</g>
<!-- Node22&#45;&gt;Node12 -->
<g id="edge29" class="edge">
<title>Node22&#45;&gt;Node12</title>
<path fill="none" stroke="midnightblue" d="M1688.87,-293.41C1655.97,-284.97 1612.66,-273.86 1582.19,-266.04"/>
<polygon fill="midnightblue" stroke="midnightblue" points="1688.16,-296.84 1698.72,-295.94 1689.9,-290.06 1688.16,-296.84"/>
</g>
<!-- Node24 -->
<g id="node24" class="node">
<title>Node24</title>
<g id="a_node24"><a xlink:href="../../d2/dd5/a01002.html#ac75f893ce8060f0af578dc11a36bc752" target="_top" xlink:title=" ">
<polygon fill="none" stroke="black" points="1890.5,-237.5 1890.5,-267.5 2032.5,-267.5 2032.5,-237.5 1890.5,-237.5"/>
<text text-anchor="start" x="1898.5" y="-255.5" font-family="Helvetica,sans-Serif" font-size="10.00">com.cliffc.aa.node.Assert</text>
<text text-anchor="middle" x="1961.5" y="-244.5" font-family="Helvetica,sans-Serif" font-size="10.00">Node.add_flow_use_extra</text>
</a>
</g>
</g>
<!-- Node23&#45;&gt;Node24 -->
<g id="edge32" class="edge">
<title>Node23&#45;&gt;Node24</title>
<path fill="none" stroke="midnightblue" d="M2121.69,-269.19C2092.95,-266.17 2060.71,-262.79 2032.8,-259.87"/>
<polygon fill="midnightblue" stroke="midnightblue" points="2121.39,-272.67 2131.7,-270.24 2122.11,-265.71 2121.39,-272.67"/>
</g>
<!-- Node26 -->
<g id="node26" class="node">
<title>Node26</title>
<g id="a_node26"><a xlink:href="../../d9/d8e/a01050.html#a35a8d77a634141d969d902a346af2000" target="_top" xlink:title=" ">
<polygon fill="none" stroke="black" points="1872,-188.5 1872,-218.5 2051,-218.5 2051,-188.5 1872,-188.5"/>
<text text-anchor="start" x="1880" y="-206.5" font-family="Helvetica,sans-Serif" font-size="10.00">com.cliffc.aa.node.FunNode.ideal</text>
<text text-anchor="middle" x="1961.5" y="-195.5" font-family="Helvetica,sans-Serif" font-size="10.00">_inline</text>
</a>
</g>
</g>
<!-- Node25&#45;&gt;Node26 -->
<g id="edge34" class="edge">
<title>Node25&#45;&gt;Node26</title>
<path fill="none" stroke="midnightblue" d="M2115.17,-222.7C2094.45,-220.1 2072.28,-217.31 2051.42,-214.69"/>
<polygon fill="midnightblue" stroke="midnightblue" points="2114.85,-226.19 2125.21,-223.97 2115.72,-219.25 2114.85,-226.19"/>
</g>
<!-- Node29 -->
<g id="node29" class="node">
<title>Node29</title>
<g id="a_node29"><a xlink:href="../../d4/d8e/a01694.html#afbcb0c4f96772e2088bb558a8bc43c09" target="_top" xlink:title=" ">
<polygon fill="none" stroke="black" points="1884.5,-139.5 1884.5,-169.5 2038.5,-169.5 2038.5,-139.5 1884.5,-139.5"/>
<text text-anchor="start" x="1892.5" y="-157.5" font-family="Helvetica,sans-Serif" font-size="10.00">com.cliffc.aa.node.TestNode</text>
<text text-anchor="middle" x="1961.5" y="-146.5" font-family="Helvetica,sans-Serif" font-size="10.00">Small.check</text>
</a>
</g>
</g>
<!-- Node28&#45;&gt;Node29 -->
<g id="edge37" class="edge">
<title>Node28&#45;&gt;Node29</title>
<path fill="none" stroke="midnightblue" d="M2097.18,-156.19C2077.46,-155.95 2057.18,-155.69 2038.52,-155.46"/>
<polygon fill="midnightblue" stroke="midnightblue" points="2097.38,-159.7 2107.42,-156.32 2097.47,-152.7 2097.38,-159.7"/>
</g>
<!-- Node30 -->
<g id="node30" class="node">
<title>Node30</title>
<g id="a_node30"><a xlink:href="../../d4/d8e/a01694.html#acbdb74fbcbcaeb125e773a9efb441d41" target="_top" xlink:title=" ">
<polygon fill="none" stroke="black" points="1660,-139.5 1660,-169.5 1814,-169.5 1814,-139.5 1660,-139.5"/>
<text text-anchor="start" x="1668" y="-157.5" font-family="Helvetica,sans-Serif" font-size="10.00">com.cliffc.aa.node.TestNode</text>
<text text-anchor="middle" x="1737" y="-146.5" font-family="Helvetica,sans-Serif" font-size="10.00">Small.testMemoryArgs</text>
</a>
</g>
</g>
<!-- Node29&#45;&gt;Node30 -->
<g id="edge38" class="edge">
<title>Node29&#45;&gt;Node30</title>
<path fill="none" stroke="midnightblue" d="M1874.03,-154.5C1854.28,-154.5 1833.44,-154.5 1814.16,-154.5"/>
<polygon fill="midnightblue" stroke="midnightblue" points="1874.24,-158 1884.24,-154.5 1874.24,-151 1874.24,-158"/>
</g>
</g>
</svg>
