<?xml version="1.0" encoding="UTF-8" standalone="no"?>
<!DOCTYPE svg PUBLIC "-//W3C//DTD SVG 1.1//EN"
 "http://www.w3.org/Graphics/SVG/1.1/DTD/svg11.dtd">
<!-- Generated by graphviz version 2.43.0 (0)
 -->
<!-- Title: com.cliffc.aa.node.Node.do_reduce Pages: 1 -->
<svg width="2064pt" height="684pt"
 viewBox="0.00 0.00 2064.00 684.20" xmlns="http://www.w3.org/2000/svg" xmlns:xlink="http://www.w3.org/1999/xlink">
<g id="graph0" class="graph" transform="scale(1 1) rotate(0) translate(4 680.2)">
<title>com.cliffc.aa.node.Node.do_reduce</title>
<!-- Node1 -->
<g id="node1" class="node">
<title>Node1</title>
<g id="a_node1"><a xlink:title=" ">
<polygon fill="#bfbfbf" stroke="black" points="0,-338.57 0,-368.57 149,-368.57 149,-338.57 0,-338.57"/>
<text text-anchor="start" x="8" y="-356.57" font-family="Helvetica,sans-Serif" font-size="10.00">com.cliffc.aa.node.Node.do</text>
<text text-anchor="middle" x="74.5" y="-345.57" font-family="Helvetica,sans-Serif" font-size="10.00">_reduce</text>
</a>
</g>
</g>
<!-- Node2 -->
<g id="node2" class="node">
<title>Node2</title>
<g id="a_node2"><a xlink:href="../../df/db5/a01158.html#a24cc76ab5c7b3463a4db50ceb9dbbe50" target="_top" xlink:title=" ">
<polygon fill="none" stroke="black" points="194,-338.57 194,-368.57 331,-368.57 331,-338.57 194,-338.57"/>
<text text-anchor="start" x="202" y="-356.57" font-family="Helvetica,sans-Serif" font-size="10.00">com.cliffc.aa.node.Node.</text>
<text text-anchor="middle" x="262.5" y="-345.57" font-family="Helvetica,sans-Serif" font-size="10.00">_do_reduce</text>
</a>
</g>
</g>
<!-- Node1&#45;&gt;Node2 -->
<g id="edge1" class="edge">
<title>Node1&#45;&gt;Node2</title>
<path fill="none" stroke="midnightblue" d="M149.01,-353.57C160.48,-353.57 172.36,-353.57 183.91,-353.57"/>
<polygon fill="midnightblue" stroke="midnightblue" points="183.96,-357.07 193.96,-353.57 183.96,-350.07 183.96,-357.07"/>
</g>
<!-- Node17 -->
<g id="node17" class="node">
<title>Node17</title>
<g id="a_node17"><a xlink:href="../../d9/d0a/a00390.html#ad52b88a21b47c661e6f6a3bcfdbb3576" target="_top" xlink:title=" ">
<polygon fill="none" stroke="black" points="1295.5,-534.57 1295.5,-564.57 1443.5,-564.57 1443.5,-534.57 1295.5,-534.57"/>
<text text-anchor="start" x="1303.5" y="-552.57" font-family="Helvetica,sans-Serif" font-size="10.00">com.cliffc.aa.GVNGCM.add</text>
<text text-anchor="middle" x="1369.5" y="-541.57" font-family="Helvetica,sans-Serif" font-size="10.00">_reduce</text>
</a>
</g>
</g>
<!-- Node1&#45;&gt;Node17 -->
<g id="edge36" class="edge">
<title>Node1&#45;&gt;Node17</title>
<path fill="none" stroke="midnightblue" d="M79.66,-368.73C90.67,-406.14 123.95,-503.89 185,-559.57 285.86,-651.56 334.49,-671.57 471,-671.57 471,-671.57 471,-671.57 928,-671.57 1069.52,-671.57 1112.92,-692.39 1245,-641.57 1285.13,-626.13 1323.58,-593.78 1346.62,-571.86"/>
<polygon fill="midnightblue" stroke="midnightblue" points="1349.09,-574.35 1353.82,-564.87 1344.21,-569.32 1349.09,-574.35"/>
</g>
<!-- Node28 -->
<g id="node28" class="node">
<title>Node28</title>
<g id="a_node28"><a xlink:href="../../df/db5/a01158.html#a511e153b1b7807a3395f07002d4f1741" target="_top" xlink:title=" ">
<polygon fill="none" stroke="black" points="185,-240.57 185,-270.57 340,-270.57 340,-240.57 185,-240.57"/>
<text text-anchor="start" x="193" y="-258.57" font-family="Helvetica,sans-Serif" font-size="10.00">com.cliffc.aa.node.Node.add</text>
<text text-anchor="middle" x="262.5" y="-247.57" font-family="Helvetica,sans-Serif" font-size="10.00">_flow_use_extra</text>
</a>
</g>
</g>
<!-- Node1&#45;&gt;Node28 -->
<g id="edge32" class="edge">
<title>Node1&#45;&gt;Node28</title>
<path fill="none" stroke="midnightblue" d="M94.7,-338.4C115.83,-322.29 151.29,-296.93 185,-280.57 189.6,-278.34 194.44,-276.24 199.37,-274.27"/>
<polygon fill="midnightblue" stroke="midnightblue" points="200.79,-277.47 208.9,-270.66 198.31,-270.93 200.79,-277.47"/>
</g>
<!-- Node29 -->
<g id="node29" class="node">
<title>Node29</title>
<g id="a_node29"><a xlink:href="../../d9/d0a/a00390.html#af9419887ce8c6743e7281422d35c698e" target="_top" xlink:title=" ">
<polygon fill="none" stroke="black" points="188.5,-289.57 188.5,-319.57 336.5,-319.57 336.5,-289.57 188.5,-289.57"/>
<text text-anchor="start" x="196.5" y="-307.57" font-family="Helvetica,sans-Serif" font-size="10.00">com.cliffc.aa.GVNGCM.add</text>
<text text-anchor="middle" x="262.5" y="-296.57" font-family="Helvetica,sans-Serif" font-size="10.00">_flow_uses</text>
</a>
</g>
</g>
<!-- Node1&#45;&gt;Node29 -->
<g id="edge33" class="edge">
<title>Node1&#45;&gt;Node29</title>
<path fill="none" stroke="midnightblue" d="M132.57,-338.54C152.21,-333.36 174.37,-327.52 194.72,-322.16"/>
<polygon fill="midnightblue" stroke="midnightblue" points="195.76,-325.51 204.54,-319.58 193.98,-318.74 195.76,-325.51"/>
</g>
<!-- Node31 -->
<g id="node31" class="node">
<title>Node31</title>
<g id="a_node31"><a xlink:href="../../df/db5/a01158.html#aa2bd16b6f89ba5111613e01779271d7e" target="_top" xlink:title=" ">
<polygon fill="none" stroke="black" points="185,-191.57 185,-221.57 340,-221.57 340,-191.57 185,-191.57"/>
<text text-anchor="start" x="193" y="-209.57" font-family="Helvetica,sans-Serif" font-size="10.00">com.cliffc.aa.node.Node.add</text>
<text text-anchor="middle" x="262.5" y="-198.57" font-family="Helvetica,sans-Serif" font-size="10.00">_reduce_extra</text>
</a>
</g>
</g>
<!-- Node1&#45;&gt;Node31 -->
<g id="edge37" class="edge">
<title>Node1&#45;&gt;Node31</title>
<path fill="none" stroke="midnightblue" d="M85.09,-338.5C102.13,-312.89 140.17,-260.79 185,-231.57 188.11,-229.54 191.4,-227.67 194.79,-225.94"/>
<polygon fill="midnightblue" stroke="midnightblue" points="196.39,-229.06 203.98,-221.67 193.44,-222.71 196.39,-229.06"/>
</g>
<!-- Node32 -->
<g id="node32" class="node">
<title>Node32</title>
<g id="a_node32"><a xlink:href="../../df/db5/a01158.html#abcbaaf7e990f5a12a68e91a70af8fb7e" target="_top" xlink:title=" ">
<polygon fill="none" stroke="black" points="1054,-613.07 1054,-632.07 1245,-632.07 1245,-613.07 1054,-613.07"/>
<text text-anchor="middle" x="1149.5" y="-620.07" font-family="Helvetica,sans-Serif" font-size="10.00">com.cliffc.aa.node.Node.check_vals</text>
</a>
</g>
</g>
<!-- Node1&#45;&gt;Node32 -->
<g id="edge38" class="edge">
<title>Node1&#45;&gt;Node32</title>
<path fill="none" stroke="midnightblue" d="M85.78,-368.63C126.86,-426.78 285.92,-633.57 471,-633.57 471,-633.57 471,-633.57 703,-633.57 819.59,-633.57 953.28,-629.76 1043.55,-626.62"/>
<polygon fill="midnightblue" stroke="midnightblue" points="1043.92,-630.11 1053.79,-626.26 1043.67,-623.12 1043.92,-630.11"/>
</g>
<!-- Node33 -->
<g id="node33" class="node">
<title>Node33</title>
<g id="a_node33"><a xlink:href="../../df/db5/a01158.html#a9cd712480ff41f38388ad8bfd7a75983" target="_top" xlink:title=" ">
<polygon fill="none" stroke="black" points="381,-458.07 381,-477.07 563,-477.07 563,-458.07 381,-458.07"/>
<text text-anchor="middle" x="472" y="-465.07" font-family="Helvetica,sans-Serif" font-size="10.00">com.cliffc.aa.node.Node.subsume</text>
</a>
</g>
</g>
<!-- Node1&#45;&gt;Node33 -->
<g id="edge39" class="edge">
<title>Node1&#45;&gt;Node33</title>
<path fill="none" stroke="midnightblue" d="M127.61,-368.59C206.54,-391.34 354.94,-434.12 428.06,-455.19"/>
<polygon fill="midnightblue" stroke="midnightblue" points="427.28,-458.61 437.86,-458.02 429.22,-451.89 427.28,-458.61"/>
</g>
<!-- Node3 -->
<g id="node3" class="node">
<title>Node3</title>
<g id="a_node3"><a xlink:href="../../df/db5/a01158.html#a5d6762d5a0f17ecc32cfe7cdb89e3ccb" target="_top" xlink:title=" ">
<polygon fill="none" stroke="black" points="394.5,-322.07 394.5,-341.07 549.5,-341.07 549.5,-322.07 394.5,-322.07"/>
<text text-anchor="middle" x="472" y="-329.07" font-family="Helvetica,sans-Serif" font-size="10.00">com.cliffc.aa.node.Node.con</text>
</a>
</g>
</g>
<!-- Node2&#45;&gt;Node3 -->
<g id="edge2" class="edge">
<title>Node2&#45;&gt;Node3</title>
<path fill="none" stroke="midnightblue" d="M331.16,-346.4C348.06,-344.61 366.43,-342.66 384.12,-340.78"/>
<polygon fill="midnightblue" stroke="midnightblue" points="384.87,-344.22 394.45,-339.69 384.13,-337.26 384.87,-344.22"/>
</g>
<!-- Node20 -->
<g id="node20" class="node">
<title>Node20</title>
<g id="a_node20"><a xlink:href="../../df/db5/a01158.html#a755857c2812aa10e8d0805a30b5549c7" target="_top" xlink:title=" ">
<polygon fill="none" stroke="black" points="391.5,-360.57 391.5,-390.57 552.5,-390.57 552.5,-360.57 391.5,-360.57"/>
<text text-anchor="start" x="399.5" y="-378.57" font-family="Helvetica,sans-Serif" font-size="10.00">com.cliffc.aa.node.Node.ideal</text>
<text text-anchor="middle" x="472" y="-367.57" font-family="Helvetica,sans-Serif" font-size="10.00">_reduce</text>
</a>
</g>
</g>
<!-- Node2&#45;&gt;Node20 -->
<g id="edge23" class="edge">
<title>Node2&#45;&gt;Node20</title>
<path fill="none" stroke="midnightblue" d="M331.16,-360.74C347.02,-362.43 364.18,-364.25 380.85,-366.01"/>
<polygon fill="midnightblue" stroke="midnightblue" points="380.84,-369.53 391.16,-367.11 381.58,-362.57 380.84,-369.53"/>
</g>
<!-- Node21 -->
<g id="node21" class="node">
<title>Node21</title>
<g id="a_node21"><a xlink:href="../../df/db5/a01158.html#a10792dfe5e85a2d68b7d3c131644b9c1" target="_top" xlink:title=" ">
<polygon fill="none" stroke="black" points="387.5,-208.07 387.5,-227.07 556.5,-227.07 556.5,-208.07 387.5,-208.07"/>
<text text-anchor="middle" x="472" y="-215.07" font-family="Helvetica,sans-Serif" font-size="10.00">com.cliffc.aa.node.Node.merge</text>
</a>
</g>
</g>
<!-- Node2&#45;&gt;Node21 -->
<g id="edge24" class="edge">
<title>Node2&#45;&gt;Node21</title>
<path fill="none" stroke="midnightblue" d="M320.56,-338.51C327.28,-335.91 333.91,-332.94 340,-329.57 387.04,-303.53 432.58,-258.86 455.56,-234.55"/>
<polygon fill="midnightblue" stroke="midnightblue" points="458.2,-236.85 462.45,-227.14 453.08,-232.08 458.2,-236.85"/>
</g>
<!-- Node23 -->
<g id="node23" class="node">
<title>Node23</title>
<g id="a_node23"><a xlink:href="../../df/db5/a01158.html#a19d217bfb5de942cae41c2fafa309344" target="_top" xlink:title=" ">
<polygon fill="none" stroke="black" points="376,-94.07 376,-113.07 568,-113.07 568,-94.07 376,-94.07"/>
<text text-anchor="middle" x="472" y="-101.07" font-family="Helvetica,sans-Serif" font-size="10.00">com.cliffc.aa.node.Node.should_con</text>
</a>
</g>
</g>
<!-- Node2&#45;&gt;Node23 -->
<g id="edge27" class="edge">
<title>Node2&#45;&gt;Node23</title>
<path fill="none" stroke="midnightblue" d="M328.9,-338.41C332.95,-335.9 336.71,-332.98 340,-329.57 381.92,-286.12 345.64,-250.77 376,-198.57 395.05,-165.82 428.17,-136.38 449.84,-119.24"/>
<polygon fill="midnightblue" stroke="midnightblue" points="452.03,-121.97 457.8,-113.08 447.75,-116.43 452.03,-121.97"/>
</g>
<!-- Node4 -->
<g id="node4" class="node">
<title>Node4</title>
<g id="a_node4"><a xlink:href="../../d9/d0a/a00390.html#a195b2b7d0b8f0f1770422573c2cc22ff" target="_top" xlink:title=" ">
<polygon fill="none" stroke="black" points="1283,-410.07 1283,-429.07 1456,-429.07 1456,-410.07 1283,-410.07"/>
<text text-anchor="middle" x="1369.5" y="-417.07" font-family="Helvetica,sans-Serif" font-size="10.00">com.cliffc.aa.GVNGCM.add_flow</text>
</a>
</g>
</g>
<!-- Node3&#45;&gt;Node4 -->
<g id="edge3" class="edge">
<title>Node3&#45;&gt;Node4</title>
<path fill="none" stroke="midnightblue" d="M549.72,-328.97C718.19,-324.01 1115.76,-316.55 1245,-351.57 1284.17,-362.19 1324.41,-387.58 1347.9,-404.15"/>
<polygon fill="midnightblue" stroke="midnightblue" points="1345.89,-407.02 1356.05,-410.02 1349.98,-401.34 1345.89,-407.02"/>
</g>
<!-- Node8 -->
<g id="node8" class="node">
<title>Node8</title>
<g id="a_node8"><a xlink:href="../../d9/d8e/a01050.html#ab4961bc35536f36f59e5c3b1188fecce" target="_top" xlink:title=" ">
<polygon fill="none" stroke="black" points="604,-246.07 604,-265.07 800,-265.07 800,-246.07 604,-246.07"/>
<text text-anchor="middle" x="702" y="-253.07" font-family="Helvetica,sans-Serif" font-size="10.00">com.cliffc.aa.node.FunNode.find_fidx</text>
</a>
</g>
</g>
<!-- Node3&#45;&gt;Node8 -->
<g id="edge7" class="edge">
<title>Node3&#45;&gt;Node8</title>
<path fill="none" stroke="midnightblue" d="M491.6,-321.94C516.56,-309.37 562.56,-287.48 604,-274.57 612.78,-271.84 622.14,-269.41 631.45,-267.29"/>
<polygon fill="midnightblue" stroke="midnightblue" points="632.47,-270.65 641.5,-265.11 630.98,-263.81 632.47,-270.65"/>
</g>
<!-- Node10 -->
<g id="node10" class="node">
<title>Node10</title>
<g id="a_node10"><a xlink:href="../../df/db5/a01158.html#aa9c660843e6f3a9321da631f4a5f60a9" target="_top" xlink:title=" ">
<polygon fill="none" stroke="black" points="626,-360.07 626,-379.07 778,-379.07 778,-360.07 626,-360.07"/>
<text text-anchor="middle" x="702" y="-367.07" font-family="Helvetica,sans-Serif" font-size="10.00">com.cliffc.aa.node.Node.kill</text>
</a>
</g>
</g>
<!-- Node3&#45;&gt;Node10 -->
<g id="edge9" class="edge">
<title>Node3&#45;&gt;Node10</title>
<path fill="none" stroke="midnightblue" d="M530.24,-341.11C561.68,-346.35 600.85,-352.88 633.75,-358.36"/>
<polygon fill="midnightblue" stroke="midnightblue" points="633.3,-361.84 643.74,-360.03 634.45,-354.93 633.3,-361.84"/>
</g>
<!-- Node18 -->
<g id="node18" class="node">
<title>Node18</title>
<g id="a_node18"><a xlink:href="../../d9/d8e/a01050.html#a5eed491acee17dc7246ca2dcca36ac77" target="_top" xlink:title=" ">
<polygon fill="none" stroke="black" points="618,-398.07 618,-417.07 786,-417.07 786,-398.07 618,-398.07"/>
<text text-anchor="middle" x="702" y="-405.07" font-family="Helvetica,sans-Serif" font-size="10.00">com.cliffc.aa.node.FunNode.ret</text>
</a>
</g>
</g>
<!-- Node3&#45;&gt;Node18 -->
<g id="edge20" class="edge">
<title>Node3&#45;&gt;Node18</title>
<path fill="none" stroke="midnightblue" d="M542.21,-341.08C551.19,-343.75 560.03,-347.18 568,-351.57 588.1,-362.64 583.82,-377.65 604,-388.57 608.26,-390.88 612.75,-392.9 617.38,-394.69"/>
<polygon fill="midnightblue" stroke="midnightblue" points="616.45,-398.07 627.04,-398.01 618.73,-391.45 616.45,-398.07"/>
</g>
<!-- Node19 -->
<g id="node19" class="node">
<title>Node19</title>
<g id="a_node19"><a xlink:href="../../d0/de2/a01442.html#a49cf704ca702d28671c638848165a20c" target="_top" xlink:title=" ">
<polygon fill="none" stroke="black" points="610,-284.07 610,-303.07 794,-303.07 794,-284.07 610,-284.07"/>
<text text-anchor="middle" x="702" y="-291.07" font-family="Helvetica,sans-Serif" font-size="10.00">com.cliffc.aa.type.Type.simple_ptr</text>
</a>
</g>
</g>
<!-- Node3&#45;&gt;Node19 -->
<g id="edge22" class="edge">
<title>Node3&#45;&gt;Node19</title>
<path fill="none" stroke="midnightblue" d="M530.24,-322.03C561.68,-316.79 600.85,-310.26 633.75,-304.78"/>
<polygon fill="midnightblue" stroke="midnightblue" points="634.45,-308.21 643.74,-303.12 633.3,-301.31 634.45,-308.21"/>
</g>
<!-- Node5 -->
<g id="node5" class="node">
<title>Node5</title>
<g id="a_node5"><a xlink:href="../../d9/d0a/a00390.html#a6074ca566ae10e746122ac8d09239d02" target="_top" xlink:title=" ">
<polygon fill="none" stroke="black" points="1494,-429.07 1494,-448.07 1671,-448.07 1671,-429.07 1494,-429.07"/>
<text text-anchor="middle" x="1582.5" y="-436.07" font-family="Helvetica,sans-Serif" font-size="10.00">com.cliffc.aa.GVNGCM.add_work</text>
</a>
</g>
</g>
<!-- Node4&#45;&gt;Node5 -->
<g id="edge4" class="edge">
<title>Node4&#45;&gt;Node5</title>
<path fill="none" stroke="midnightblue" d="M1456.02,-427.27C1465.16,-428.1 1474.51,-428.94 1483.79,-429.77"/>
<polygon fill="midnightblue" stroke="midnightblue" points="1483.53,-433.26 1493.8,-430.67 1484.15,-426.29 1483.53,-433.26"/>
</g>
<!-- Node6 -->
<g id="node6" class="node">
<title>Node6</title>
<g id="a_node6"><a xlink:href="../../d6/d2f/a01394.html#acc21c59313a6ce5c286431fd2d4fd891" target="_top" xlink:title=" ">
<polygon fill="none" stroke="black" points="1707,-429.07 1707,-448.07 1862,-448.07 1862,-429.07 1707,-429.07"/>
<text text-anchor="middle" x="1784.5" y="-436.07" font-family="Helvetica,sans-Serif" font-size="10.00">com.cliffc.aa.node.Work.add</text>
</a>
</g>
</g>
<!-- Node5&#45;&gt;Node6 -->
<g id="edge5" class="edge">
<title>Node5&#45;&gt;Node6</title>
<path fill="none" stroke="midnightblue" d="M1671.22,-438.57C1679.65,-438.57 1688.2,-438.57 1696.63,-438.57"/>
<polygon fill="midnightblue" stroke="midnightblue" points="1696.82,-442.07 1706.82,-438.57 1696.82,-435.07 1696.82,-442.07"/>
</g>
<!-- Node7 -->
<g id="node7" class="node">
<title>Node7</title>
<g id="a_node7"><a xlink:href="../../df/dee/a01646.html#a88ad20daf92e92fe0e3925b23c4fecf0" target="_top" xlink:title=" ">
<polygon fill="none" stroke="black" points="1898,-429.07 1898,-448.07 2056,-448.07 2056,-429.07 1898,-429.07"/>
<text text-anchor="middle" x="1977" y="-436.07" font-family="Helvetica,sans-Serif" font-size="10.00">com.cliffc.aa.util.VBitSet.tset</text>
</a>
</g>
</g>
<!-- Node6&#45;&gt;Node7 -->
<g id="edge6" class="edge">
<title>Node6&#45;&gt;Node7</title>
<path fill="none" stroke="midnightblue" d="M1862.16,-438.57C1870.63,-438.57 1879.31,-438.57 1887.9,-438.57"/>
<polygon fill="midnightblue" stroke="midnightblue" points="1887.94,-442.07 1897.94,-438.57 1887.94,-435.07 1887.94,-442.07"/>
</g>
<!-- Node9 -->
<g id="node9" class="node">
<title>Node9</title>
<g id="a_node9"><a xlink:href="../../d9/d8e/a01050.html#aeb1dc87cc22f3ec59fb06a5bfcaae1a4" target="_top" xlink:title=" ">
<polygon fill="none" stroke="black" points="840.5,-246.07 840.5,-265.07 1013.5,-265.07 1013.5,-246.07 840.5,-246.07"/>
<text text-anchor="middle" x="927" y="-253.07" font-family="Helvetica,sans-Serif" font-size="10.00">com.cliffc.aa.node.FunNode.fidx</text>
</a>
</g>
</g>
<!-- Node8&#45;&gt;Node9 -->
<g id="edge8" class="edge">
<title>Node8&#45;&gt;Node9</title>
<path fill="none" stroke="midnightblue" d="M800.16,-255.57C810.09,-255.57 820.18,-255.57 830.1,-255.57"/>
<polygon fill="midnightblue" stroke="midnightblue" points="830.36,-259.07 840.36,-255.57 830.36,-252.07 830.36,-259.07"/>
</g>
<!-- Node11 -->
<g id="node11" class="node">
<title>Node11</title>
<g id="a_node11"><a xlink:href="../../df/db5/a01158.html#ab7694c22a9c7542842726bcfb0eb5922" target="_top" xlink:title=" ">
<polygon fill="none" stroke="black" points="839.5,-436.07 839.5,-455.07 1014.5,-455.07 1014.5,-436.07 839.5,-436.07"/>
<text text-anchor="middle" x="927" y="-443.07" font-family="Helvetica,sans-Serif" font-size="10.00">com.cliffc.aa.node.Node.is_dead</text>
</a>
</g>
</g>
<!-- Node10&#45;&gt;Node11 -->
<g id="edge10" class="edge">
<title>Node10&#45;&gt;Node11</title>
<path fill="none" stroke="midnightblue" d="M777.26,-379.11C785.19,-381.58 792.93,-384.68 800,-388.57 820.38,-399.78 815.7,-415.21 836,-426.57 840.14,-428.89 844.52,-430.92 849.05,-432.71"/>
<polygon fill="midnightblue" stroke="midnightblue" points="847.9,-436.01 858.49,-436.04 850.23,-429.41 847.9,-436.01"/>
</g>
<!-- Node12 -->
<g id="node12" class="node">
<title>Node12</title>
<g id="a_node12"><a xlink:href="../../df/db5/a01158.html#a640c76253f06fdd4e546cf53eca76b2e" target="_top" xlink:title=" ">
<polygon fill="none" stroke="black" points="836,-398.07 836,-417.07 1018,-417.07 1018,-398.07 836,-398.07"/>
<text text-anchor="middle" x="927" y="-405.07" font-family="Helvetica,sans-Serif" font-size="10.00">com.cliffc.aa.node.Node.set_dead</text>
</a>
</g>
</g>
<!-- Node10&#45;&gt;Node12 -->
<g id="edge11" class="edge">
<title>Node10&#45;&gt;Node12</title>
<path fill="none" stroke="midnightblue" d="M758.98,-379.11C789.6,-384.33 827.72,-390.82 859.8,-396.29"/>
<polygon fill="midnightblue" stroke="midnightblue" points="859.55,-399.8 869.99,-398.03 860.72,-392.9 859.55,-399.8"/>
</g>
<!-- Node13 -->
<g id="node13" class="node">
<title>Node13</title>
<g id="a_node13"><a xlink:href="../../df/db5/a01158.html#a284c9a1217237d2f3eede517b6a33aa4" target="_top" xlink:title=" ">
<polygon fill="none" stroke="black" points="843.5,-360.07 843.5,-379.07 1010.5,-379.07 1010.5,-360.07 843.5,-360.07"/>
<text text-anchor="middle" x="927" y="-367.07" font-family="Helvetica,sans-Serif" font-size="10.00">com.cliffc.aa.node.Node.unuse</text>
</a>
</g>
</g>
<!-- Node10&#45;&gt;Node13 -->
<g id="edge12" class="edge">
<title>Node10&#45;&gt;Node13</title>
<path fill="none" stroke="midnightblue" d="M778.19,-369.57C795.9,-369.57 814.98,-369.57 833.36,-369.57"/>
<polygon fill="midnightblue" stroke="midnightblue" points="833.48,-373.07 843.48,-369.57 833.48,-366.07 833.48,-373.07"/>
</g>
<!-- Node14 -->
<g id="node14" class="node">
<title>Node14</title>
<g id="a_node14"><a xlink:href="../../df/db5/a01158.html#a4c43a2abe5004ef2cf98b07a01500a1f" target="_top" xlink:title=" ">
<polygon fill="none" stroke="black" points="1072,-360.57 1072,-390.57 1227,-390.57 1227,-360.57 1072,-360.57"/>
<text text-anchor="start" x="1080" y="-378.57" font-family="Helvetica,sans-Serif" font-size="10.00">com.cliffc.aa.node.Node.add</text>
<text text-anchor="middle" x="1149.5" y="-367.57" font-family="Helvetica,sans-Serif" font-size="10.00">_flow_def_extra</text>
</a>
</g>
</g>
<!-- Node13&#45;&gt;Node14 -->
<g id="edge13" class="edge">
<title>Node13&#45;&gt;Node14</title>
<path fill="none" stroke="midnightblue" d="M1010.73,-371.82C1027.33,-372.27 1044.82,-372.75 1061.55,-373.21"/>
<polygon fill="midnightblue" stroke="midnightblue" points="1061.77,-376.71 1071.86,-373.49 1061.96,-369.72 1061.77,-376.71"/>
</g>
<!-- Node15 -->
<g id="node15" class="node">
<title>Node15</title>
<g id="a_node15"><a xlink:href="../../d9/d0a/a00390.html#a4a612bae4153eff084e4fe1d0049987c" target="_top" xlink:title=" ">
<polygon fill="none" stroke="black" points="1075.5,-448.57 1075.5,-478.57 1223.5,-478.57 1223.5,-448.57 1075.5,-448.57"/>
<text text-anchor="start" x="1083.5" y="-466.57" font-family="Helvetica,sans-Serif" font-size="10.00">com.cliffc.aa.GVNGCM.add</text>
<text text-anchor="middle" x="1149.5" y="-455.57" font-family="Helvetica,sans-Serif" font-size="10.00">_unuse</text>
</a>
</g>
</g>
<!-- Node13&#45;&gt;Node15 -->
<g id="edge14" class="edge">
<title>Node13&#45;&gt;Node15</title>
<path fill="none" stroke="midnightblue" d="M986.39,-379.11C997.08,-381.63 1008,-384.75 1018,-388.57 1054.47,-402.5 1092.81,-425.71 1118.43,-442.63"/>
<polygon fill="midnightblue" stroke="midnightblue" points="1116.67,-445.67 1126.93,-448.33 1120.57,-439.85 1116.67,-445.67"/>
</g>
<!-- Node15&#45;&gt;Node4 -->
<g id="edge17" class="edge">
<title>Node15&#45;&gt;Node4</title>
<path fill="none" stroke="midnightblue" d="M1223.7,-448.8C1252.21,-443.04 1284.41,-436.54 1311.19,-431.14"/>
<polygon fill="midnightblue" stroke="midnightblue" points="1312.06,-434.53 1321.17,-429.12 1310.67,-427.67 1312.06,-434.53"/>
</g>
<!-- Node16 -->
<g id="node16" class="node">
<title>Node16</title>
<g id="a_node16"><a xlink:href="../../d9/d0a/a00390.html#af23b6c0debccdb7104dea273b231c716" target="_top" xlink:title=" ">
<polygon fill="none" stroke="black" points="1281,-451.07 1281,-470.07 1458,-470.07 1458,-451.07 1281,-451.07"/>
<text text-anchor="middle" x="1369.5" y="-458.07" font-family="Helvetica,sans-Serif" font-size="10.00">com.cliffc.aa.GVNGCM.add_dead</text>
</a>
</g>
</g>
<!-- Node15&#45;&gt;Node16 -->
<g id="edge15" class="edge">
<title>Node15&#45;&gt;Node16</title>
<path fill="none" stroke="midnightblue" d="M1223.7,-462.56C1238.71,-462.36 1254.75,-462.14 1270.48,-461.92"/>
<polygon fill="midnightblue" stroke="midnightblue" points="1270.81,-465.42 1280.76,-461.78 1270.71,-458.42 1270.81,-465.42"/>
</g>
<!-- Node15&#45;&gt;Node17 -->
<g id="edge18" class="edge">
<title>Node15&#45;&gt;Node17</title>
<path fill="none" stroke="midnightblue" d="M1188.72,-478.65C1225.5,-493.16 1281.21,-515.14 1320.86,-530.78"/>
<polygon fill="midnightblue" stroke="midnightblue" points="1319.73,-534.1 1330.32,-534.51 1322.3,-527.58 1319.73,-534.1"/>
</g>
<!-- Node16&#45;&gt;Node5 -->
<g id="edge16" class="edge">
<title>Node16&#45;&gt;Node5</title>
<path fill="none" stroke="midnightblue" d="M1458.15,-451.43C1466.61,-450.55 1475.24,-449.65 1483.79,-448.76"/>
<polygon fill="midnightblue" stroke="midnightblue" points="1484.2,-452.24 1493.78,-447.72 1483.47,-445.27 1484.2,-452.24"/>
</g>
<!-- Node17&#45;&gt;Node5 -->
<g id="edge19" class="edge">
<title>Node17&#45;&gt;Node5</title>
<path fill="none" stroke="midnightblue" d="M1399.4,-534.37C1440.25,-512.88 1514.36,-473.89 1554.28,-452.89"/>
<polygon fill="midnightblue" stroke="midnightblue" points="1555.97,-455.96 1563.19,-448.2 1552.71,-449.76 1555.97,-455.96"/>
</g>
<!-- Node18&#45;&gt;Node11 -->
<g id="edge21" class="edge">
<title>Node18&#45;&gt;Node11</title>
<path fill="none" stroke="midnightblue" d="M758.98,-417.11C789.6,-422.33 827.72,-428.82 859.8,-434.29"/>
<polygon fill="midnightblue" stroke="midnightblue" points="859.55,-437.8 869.99,-436.03 860.72,-430.9 859.55,-437.8"/>
</g>
<!-- Node21&#45;&gt;Node4 -->
<g id="edge25" class="edge">
<title>Node21&#45;&gt;Node4</title>
<path fill="none" stroke="midnightblue" d="M556.67,-211.81C664.55,-206.36 857.38,-203.3 1018,-236.57 1124.11,-258.55 1150.54,-272.47 1245,-325.57 1285.37,-348.27 1327.21,-382.86 1350.34,-403.15"/>
<polygon fill="midnightblue" stroke="midnightblue" points="1348.18,-405.91 1357.98,-409.92 1352.82,-400.67 1348.18,-405.91"/>
</g>
<!-- Node22 -->
<g id="node22" class="node">
<title>Node22</title>
<g id="a_node22"><a xlink:href="../../d0/de2/a01442.html#a086b90d9d651ac00b80a9b5caa60eb09" target="_top" xlink:title=" ">
<polygon fill="none" stroke="black" points="623,-170.07 623,-189.07 781,-189.07 781,-170.07 623,-170.07"/>
<text text-anchor="middle" x="702" y="-177.07" font-family="Helvetica,sans-Serif" font-size="10.00">com.cliffc.aa.type.Type.meet</text>
</a>
</g>
</g>
<!-- Node21&#45;&gt;Node22 -->
<g id="edge26" class="edge">
<title>Node21&#45;&gt;Node22</title>
<path fill="none" stroke="midnightblue" d="M530.24,-208.03C561.68,-202.79 600.85,-196.26 633.75,-190.78"/>
<polygon fill="midnightblue" stroke="midnightblue" points="634.45,-194.21 643.74,-189.12 633.3,-187.31 634.45,-194.21"/>
</g>
<!-- Node24 -->
<g id="node24" class="node">
<title>Node24</title>
<g id="a_node24"><a xlink:href="../../df/db5/a01158.html#a830e33efb6eef89f16e030cfdf22aaa1" target="_top" xlink:title=" ">
<polygon fill="none" stroke="black" points="626.5,-132.07 626.5,-151.07 777.5,-151.07 777.5,-132.07 626.5,-132.07"/>
<text text-anchor="middle" x="702" y="-139.07" font-family="Helvetica,sans-Serif" font-size="10.00">com.cliffc.aa.node.Node.err</text>
</a>
</g>
</g>
<!-- Node23&#45;&gt;Node24 -->
<g id="edge28" class="edge">
<title>Node23&#45;&gt;Node24</title>
<path fill="none" stroke="midnightblue" d="M530.24,-113.11C561.68,-118.35 600.85,-124.88 633.75,-130.36"/>
<polygon fill="midnightblue" stroke="midnightblue" points="633.3,-133.84 643.74,-132.03 634.45,-126.93 633.3,-133.84"/>
</g>
<!-- Node25 -->
<g id="node25" class="node">
<title>Node25</title>
<g id="a_node25"><a xlink:href="../../df/db5/a01158.html#a9a46cea187559f94192aa6e09b91c60c" target="_top" xlink:title=" ">
<polygon fill="none" stroke="black" points="629,-94.07 629,-113.07 775,-113.07 775,-94.07 629,-94.07"/>
<text text-anchor="middle" x="702" y="-101.07" font-family="Helvetica,sans-Serif" font-size="10.00">com.cliffc.aa.node.Node.in</text>
</a>
</g>
</g>
<!-- Node23&#45;&gt;Node25 -->
<g id="edge29" class="edge">
<title>Node23&#45;&gt;Node25</title>
<path fill="none" stroke="midnightblue" d="M568.04,-103.57C584.84,-103.57 602.2,-103.57 618.61,-103.57"/>
<polygon fill="midnightblue" stroke="midnightblue" points="618.7,-107.07 628.7,-103.57 618.7,-100.07 618.7,-107.07"/>
</g>
<!-- Node26 -->
<g id="node26" class="node">
<title>Node26</title>
<g id="a_node26"><a xlink:href="../../d0/de2/a01442.html#a2d1a737fc331611b5996126d31da26fd" target="_top" xlink:title=" ">
<polygon fill="none" stroke="black" points="620.5,-56.07 620.5,-75.07 783.5,-75.07 783.5,-56.07 620.5,-56.07"/>
<text text-anchor="middle" x="702" y="-63.07" font-family="Helvetica,sans-Serif" font-size="10.00">com.cliffc.aa.type.Type.is_con</text>
</a>
</g>
</g>
<!-- Node23&#45;&gt;Node26 -->
<g id="edge30" class="edge">
<title>Node23&#45;&gt;Node26</title>
<path fill="none" stroke="midnightblue" d="M530.24,-94.03C561.68,-88.79 600.85,-82.26 633.75,-76.78"/>
<polygon fill="midnightblue" stroke="midnightblue" points="634.45,-80.21 643.74,-75.12 633.3,-73.31 634.45,-80.21"/>
</g>
<!-- Node27 -->
<g id="node27" class="node">
<title>Node27</title>
<g id="a_node27"><a xlink:href="../../df/db5/a01158.html#a1885051050eecedbe3143d9cdbcc7118" target="_top" xlink:title=" ">
<polygon fill="none" stroke="black" points="615.5,-18.07 615.5,-37.07 788.5,-37.07 788.5,-18.07 615.5,-18.07"/>
<text text-anchor="middle" x="702" y="-25.07" font-family="Helvetica,sans-Serif" font-size="10.00">com.cliffc.aa.node.Node.is_prim</text>
</a>
</g>
</g>
<!-- Node23&#45;&gt;Node27 -->
<g id="edge31" class="edge">
<title>Node23&#45;&gt;Node27</title>
<path fill="none" stroke="midnightblue" d="M491.6,-93.94C516.56,-81.37 562.56,-59.48 604,-46.57 612.78,-43.84 622.14,-41.41 631.45,-39.29"/>
<polygon fill="midnightblue" stroke="midnightblue" points="632.47,-42.65 641.5,-37.11 630.98,-35.81 632.47,-42.65"/>
</g>
<!-- Node30 -->
<g id="node30" class="node">
<title>Node30</title>
<g id="a_node30"><a xlink:href="../../d9/d0a/a00390.html#aa4af00d73c9e87a3a5723f8dca5a4415" target="_top" xlink:title=" ">
<polygon fill="none" stroke="black" points="1075.5,-66.57 1075.5,-96.57 1223.5,-96.57 1223.5,-66.57 1075.5,-66.57"/>
<text text-anchor="start" x="1083.5" y="-84.57" font-family="Helvetica,sans-Serif" font-size="10.00">com.cliffc.aa.GVNGCM.add</text>
<text text-anchor="middle" x="1149.5" y="-73.57" font-family="Helvetica,sans-Serif" font-size="10.00">_work_uses</text>
</a>
</g>
</g>
<!-- Node29&#45;&gt;Node30 -->
<g id="edge34" class="edge">
<title>Node29&#45;&gt;Node30</title>
<path fill="none" stroke="midnightblue" d="M329.59,-289.5C333.43,-286.96 336.96,-284.01 340,-280.57 398.68,-214.23 317.91,-151.43 376,-84.57 446.06,-3.94 498.56,-25.68 604,-8.57 782.4,20.38 995.03,-33.53 1093.47,-63.49"/>
<polygon fill="midnightblue" stroke="midnightblue" points="1092.61,-66.89 1103.2,-66.49 1094.67,-60.2 1092.61,-66.89"/>
</g>
<!-- Node30&#45;&gt;Node5 -->
<g id="edge35" class="edge">
<title>Node30&#45;&gt;Node5</title>
<path fill="none" stroke="midnightblue" d="M1168.74,-96.68C1238.8,-154.71 1490.21,-362.95 1562.14,-422.54"/>
<polygon fill="midnightblue" stroke="midnightblue" points="1560.07,-425.36 1570,-429.05 1564.53,-419.97 1560.07,-425.36"/>
</g>
<!-- Node33&#45;&gt;Node10 -->
<g id="edge48" class="edge">
<title>Node33&#45;&gt;Node10</title>
<path fill="none" stroke="midnightblue" d="M485.6,-457.88C508.08,-441.08 557.17,-406.63 604,-388.57 610.96,-385.89 618.35,-383.57 625.83,-381.57"/>
<polygon fill="midnightblue" stroke="midnightblue" points="626.82,-384.93 635.67,-379.11 625.12,-378.13 626.82,-384.93"/>
</g>
<!-- Node33&#45;&gt;Node11 -->
<g id="edge45" class="edge">
<title>Node33&#45;&gt;Node11</title>
<path fill="none" stroke="midnightblue" d="M563.04,-463.2C639.84,-459.47 750,-454.12 828.79,-450.29"/>
<polygon fill="midnightblue" stroke="midnightblue" points="829.39,-453.77 839.21,-449.79 829.05,-446.78 829.39,-453.77"/>
</g>
<!-- Node34 -->
<g id="node34" class="node">
<title>Node34</title>
<g id="a_node34"><a xlink:href="../../df/db5/a01158.html#a655b9cd6940b27b6df92c555c8d0ed90" target="_top" xlink:title=" ">
<polygon fill="none" stroke="black" points="619.5,-586.07 619.5,-605.07 784.5,-605.07 784.5,-586.07 619.5,-586.07"/>
<text text-anchor="middle" x="702" y="-593.07" font-family="Helvetica,sans-Serif" font-size="10.00">com.cliffc.aa.node.Node.insert</text>
</a>
</g>
</g>
<!-- Node33&#45;&gt;Node34 -->
<g id="edge40" class="edge">
<title>Node33&#45;&gt;Node34</title>
<path fill="none" stroke="midnightblue" d="M481.39,-477.29C500.66,-498.93 550.56,-551.17 604,-576.57 609.26,-579.07 614.83,-581.24 620.54,-583.13"/>
<polygon fill="midnightblue" stroke="midnightblue" points="619.66,-586.52 630.25,-586.04 621.67,-579.82 619.66,-586.52"/>
</g>
<!-- Node36 -->
<g id="node36" class="node">
<title>Node36</title>
<g id="a_node36"><a xlink:href="../../df/db5/a01158.html#a648703cd19ad7c2bc0de3bb3d98b5fc2" target="_top" xlink:title=" ">
<polygon fill="none" stroke="black" points="621.5,-530.07 621.5,-549.07 782.5,-549.07 782.5,-530.07 621.5,-530.07"/>
<text text-anchor="middle" x="702" y="-537.07" font-family="Helvetica,sans-Serif" font-size="10.00">com.cliffc.aa.node.Node.keep</text>
</a>
</g>
</g>
<!-- Node33&#45;&gt;Node36 -->
<g id="edge46" class="edge">
<title>Node33&#45;&gt;Node36</title>
<path fill="none" stroke="midnightblue" d="M493.44,-477.27C518.85,-488.99 563.79,-508.62 604,-520.57 613.22,-523.31 623.05,-525.76 632.78,-527.92"/>
<polygon fill="midnightblue" stroke="midnightblue" points="632.35,-531.41 642.86,-530.06 633.8,-524.56 632.35,-531.41"/>
</g>
<!-- Node37 -->
<g id="node37" class="node">
<title>Node37</title>
<g id="a_node37"><a xlink:href="../../df/db5/a01158.html#a7d5c85ec867849430a484f9a03665668" target="_top" xlink:title=" ">
<polygon fill="none" stroke="black" points="615.5,-474.07 615.5,-493.07 788.5,-493.07 788.5,-474.07 615.5,-474.07"/>
<text text-anchor="middle" x="702" y="-481.07" font-family="Helvetica,sans-Serif" font-size="10.00">com.cliffc.aa.node.Node.unkeep</text>
</a>
</g>
</g>
<!-- Node33&#45;&gt;Node37 -->
<g id="edge49" class="edge">
<title>Node33&#45;&gt;Node37</title>
<path fill="none" stroke="midnightblue" d="M563.11,-473.89C576.93,-474.86 591.25,-475.87 605.19,-476.85"/>
<polygon fill="midnightblue" stroke="midnightblue" points="605.04,-480.35 615.26,-477.55 605.53,-473.36 605.04,-480.35"/>
</g>
<!-- Node35 -->
<g id="node35" class="node">
<title>Node35</title>
<g id="a_node35"><a xlink:href="../../df/db5/a01158.html#abd1ef05754be5fb96db69e3bd0a0a8bd" target="_top" xlink:title=" ">
<polygon fill="none" stroke="black" points="839,-586.07 839,-605.07 1015,-605.07 1015,-586.07 839,-586.07"/>
<text text-anchor="middle" x="927" y="-593.07" font-family="Helvetica,sans-Serif" font-size="10.00">com.cliffc.aa.node.Node.unelock</text>
</a>
</g>
</g>
<!-- Node34&#45;&gt;Node35 -->
<g id="edge41" class="edge">
<title>Node34&#45;&gt;Node35</title>
<path fill="none" stroke="midnightblue" d="M784.77,-595.57C799.11,-595.57 814.16,-595.57 828.87,-595.57"/>
<polygon fill="midnightblue" stroke="midnightblue" points="828.99,-599.07 838.99,-595.57 828.99,-592.07 828.99,-599.07"/>
</g>
<!-- Node35&#45;&gt;Node4 -->
<g id="edge42" class="edge">
<title>Node35&#45;&gt;Node4</title>
<path fill="none" stroke="midnightblue" d="M932.26,-585.93C945.47,-557.41 988.76,-473.33 1054,-439.57 1131.65,-399.4 1234.9,-401.58 1301.54,-408.9"/>
<polygon fill="midnightblue" stroke="midnightblue" points="1301.16,-412.38 1311.5,-410.06 1301.97,-405.43 1301.16,-412.38"/>
</g>
<!-- Node35&#45;&gt;Node17 -->
<g id="edge43" class="edge">
<title>Node35&#45;&gt;Node17</title>
<path fill="none" stroke="midnightblue" d="M1015.03,-586.48C1093.38,-578.3 1207.75,-566.36 1284.99,-558.29"/>
<polygon fill="midnightblue" stroke="midnightblue" points="1285.58,-561.75 1295.16,-557.23 1284.85,-554.79 1285.58,-561.75"/>
</g>
<!-- Node35&#45;&gt;Node32 -->
<g id="edge44" class="edge">
<title>Node35&#45;&gt;Node32</title>
<path fill="none" stroke="midnightblue" d="M1005.74,-605.09C1023.52,-607.27 1042.55,-609.6 1060.72,-611.82"/>
<polygon fill="midnightblue" stroke="midnightblue" points="1060.37,-615.31 1070.72,-613.05 1061.22,-608.36 1060.37,-615.31"/>
</g>
<!-- Node36&#45;&gt;Node36 -->
<g id="edge47" class="edge">
<title>Node36&#45;&gt;Node36</title>
<path fill="none" stroke="midnightblue" d="M667.75,-549.18C650.55,-558.03 661.97,-567.57 702,-567.57 732.02,-567.57 745.95,-562.21 743.78,-555.79"/>
<polygon fill="midnightblue" stroke="midnightblue" points="746.07,-553.14 736.25,-549.18 741.46,-558.41 746.07,-553.14"/>
</g>
<!-- Node37&#45;&gt;Node37 -->
<g id="edge50" class="edge">
<title>Node37&#45;&gt;Node37</title>
<path fill="none" stroke="midnightblue" d="M667.75,-493.18C650.55,-502.03 661.97,-511.57 702,-511.57 732.02,-511.57 745.95,-506.21 743.78,-499.79"/>
<polygon fill="midnightblue" stroke="midnightblue" points="746.07,-497.14 736.25,-493.18 741.46,-502.41 746.07,-497.14"/>
</g>
</g>
</svg>
