<?xml version="1.0" encoding="UTF-8" standalone="no"?>
<!DOCTYPE svg PUBLIC "-//W3C//DTD SVG 1.1//EN"
 "http://www.w3.org/Graphics/SVG/1.1/DTD/svg11.dtd">
<!-- Generated by graphviz version 2.43.0 (0)
 -->
<!-- Title: com.cliffc.aa.node.Node.kill Pages: 1 -->
<svg width="1380pt" height="178pt"
 viewBox="0.00 0.00 1380.00 177.50" xmlns="http://www.w3.org/2000/svg" xmlns:xlink="http://www.w3.org/1999/xlink">
<g id="graph0" class="graph" transform="scale(1 1) rotate(0) translate(4 173.5)">
<title>com.cliffc.aa.node.Node.kill</title>
<!-- Node1 -->
<g id="node1" class="node">
<title>Node1</title>
<g id="a_node1"><a xlink:title=" ">
<polygon fill="#bfbfbf" stroke="black" points="0,-112 0,-131 152,-131 152,-112 0,-112"/>
<text text-anchor="middle" x="76" y="-119" font-family="Helvetica,sans-Serif" font-size="10.00">com.cliffc.aa.node.Node.kill</text>
</a>
</g>
</g>
<!-- Node2 -->
<g id="node2" class="node">
<title>Node2</title>
<g id="a_node2"><a xlink:href="../../df/db5/a01158.html#ab7694c22a9c7542842726bcfb0eb5922" target="_top" xlink:title=" ">
<polygon fill="none" stroke="black" points="191.5,-150 191.5,-169 366.5,-169 366.5,-150 191.5,-150"/>
<text text-anchor="middle" x="279" y="-157" font-family="Helvetica,sans-Serif" font-size="10.00">com.cliffc.aa.node.Node.is_dead</text>
</a>
</g>
</g>
<!-- Node1&#45;&gt;Node2 -->
<g id="edge1" class="edge">
<title>Node1&#45;&gt;Node2</title>
<path fill="none" stroke="midnightblue" d="M127.46,-131.04C154.82,-136.21 188.82,-142.64 217.58,-148.08"/>
<polygon fill="midnightblue" stroke="midnightblue" points="217.04,-151.54 227.52,-149.96 218.34,-144.66 217.04,-151.54"/>
</g>
<!-- Node3 -->
<g id="node3" class="node">
<title>Node3</title>
<g id="a_node3"><a xlink:href="../../df/db5/a01158.html#a640c76253f06fdd4e546cf53eca76b2e" target="_top" xlink:title=" ">
<polygon fill="none" stroke="black" points="188,-112 188,-131 370,-131 370,-112 188,-112"/>
<text text-anchor="middle" x="279" y="-119" font-family="Helvetica,sans-Serif" font-size="10.00">com.cliffc.aa.node.Node.set_dead</text>
</a>
</g>
</g>
<!-- Node1&#45;&gt;Node3 -->
<g id="edge2" class="edge">
<title>Node1&#45;&gt;Node3</title>
<path fill="none" stroke="midnightblue" d="M152.13,-121.5C160.47,-121.5 169.05,-121.5 177.63,-121.5"/>
<polygon fill="midnightblue" stroke="midnightblue" points="177.69,-125 187.69,-121.5 177.69,-118 177.69,-125"/>
</g>
<!-- Node4 -->
<g id="node4" class="node">
<title>Node4</title>
<g id="a_node4"><a xlink:href="../../df/db5/a01158.html#a284c9a1217237d2f3eede517b6a33aa4" target="_top" xlink:title=" ">
<polygon fill="none" stroke="black" points="195.5,-74 195.5,-93 362.5,-93 362.5,-74 195.5,-74"/>
<text text-anchor="middle" x="279" y="-81" font-family="Helvetica,sans-Serif" font-size="10.00">com.cliffc.aa.node.Node.unuse</text>
</a>
</g>
</g>
<!-- Node1&#45;&gt;Node4 -->
<g id="edge3" class="edge">
<title>Node1&#45;&gt;Node4</title>
<path fill="none" stroke="midnightblue" d="M127.46,-111.96C154.82,-106.79 188.82,-100.36 217.58,-94.92"/>
<polygon fill="midnightblue" stroke="midnightblue" points="218.34,-98.34 227.52,-93.04 217.04,-91.46 218.34,-98.34"/>
</g>
<!-- Node5 -->
<g id="node5" class="node">
<title>Node5</title>
<g id="a_node5"><a xlink:href="../../df/db5/a01158.html#a4c43a2abe5004ef2cf98b07a01500a1f" target="_top" xlink:title=" ">
<polygon fill="none" stroke="black" points="406,-93.5 406,-123.5 561,-123.5 561,-93.5 406,-93.5"/>
<text text-anchor="start" x="414" y="-111.5" font-family="Helvetica,sans-Serif" font-size="10.00">com.cliffc.aa.node.Node.add</text>
<text text-anchor="middle" x="483.5" y="-100.5" font-family="Helvetica,sans-Serif" font-size="10.00">_flow_def_extra</text>
</a>
</g>
</g>
<!-- Node4&#45;&gt;Node5 -->
<g id="edge4" class="edge">
<title>Node4&#45;&gt;Node5</title>
<path fill="none" stroke="midnightblue" d="M357.13,-93.02C369.75,-94.58 382.89,-96.2 395.71,-97.79"/>
<polygon fill="midnightblue" stroke="midnightblue" points="395.56,-101.29 405.92,-99.05 396.42,-94.35 395.56,-101.29"/>
</g>
<!-- Node6 -->
<g id="node6" class="node">
<title>Node6</title>
<g id="a_node6"><a xlink:href="../../d9/d0a/a00390.html#a4a612bae4153eff084e4fe1d0049987c" target="_top" xlink:title=" ">
<polygon fill="none" stroke="black" points="409.5,-44.5 409.5,-74.5 557.5,-74.5 557.5,-44.5 409.5,-44.5"/>
<text text-anchor="start" x="417.5" y="-62.5" font-family="Helvetica,sans-Serif" font-size="10.00">com.cliffc.aa.GVNGCM.add</text>
<text text-anchor="middle" x="483.5" y="-51.5" font-family="Helvetica,sans-Serif" font-size="10.00">_unuse</text>
</a>
</g>
</g>
<!-- Node4&#45;&gt;Node6 -->
<g id="edge5" class="edge">
<title>Node4&#45;&gt;Node6</title>
<path fill="none" stroke="midnightblue" d="M360.32,-73.98C373.05,-72.47 386.23,-70.91 399.02,-69.39"/>
<polygon fill="midnightblue" stroke="midnightblue" points="399.66,-72.84 409.18,-68.19 398.83,-65.89 399.66,-72.84"/>
</g>
<!-- Node7 -->
<g id="node7" class="node">
<title>Node7</title>
<g id="a_node7"><a xlink:href="../../d9/d0a/a00390.html#af23b6c0debccdb7104dea273b231c716" target="_top" xlink:title=" ">
<polygon fill="none" stroke="black" points="597,-88 597,-107 774,-107 774,-88 597,-88"/>
<text text-anchor="middle" x="685.5" y="-95" font-family="Helvetica,sans-Serif" font-size="10.00">com.cliffc.aa.GVNGCM.add_dead</text>
</a>
</g>
</g>
<!-- Node6&#45;&gt;Node7 -->
<g id="edge6" class="edge">
<title>Node6&#45;&gt;Node7</title>
<path fill="none" stroke="midnightblue" d="M557.55,-73.38C579.51,-77.55 603.35,-82.08 624.37,-86.08"/>
<polygon fill="midnightblue" stroke="midnightblue" points="623.97,-89.56 634.44,-87.99 625.27,-82.68 623.97,-89.56"/>
</g>
<!-- Node11 -->
<g id="node11" class="node">
<title>Node11</title>
<g id="a_node11"><a xlink:href="../../d9/d0a/a00390.html#a195b2b7d0b8f0f1770422573c2cc22ff" target="_top" xlink:title=" ">
<polygon fill="none" stroke="black" points="599,-50 599,-69 772,-69 772,-50 599,-50"/>
<text text-anchor="middle" x="685.5" y="-57" font-family="Helvetica,sans-Serif" font-size="10.00">com.cliffc.aa.GVNGCM.add_flow</text>
</a>
</g>
</g>
<!-- Node6&#45;&gt;Node11 -->
<g id="edge10" class="edge">
<title>Node6&#45;&gt;Node11</title>
<path fill="none" stroke="midnightblue" d="M557.55,-59.5C567.7,-59.5 578.25,-59.5 588.73,-59.5"/>
<polygon fill="midnightblue" stroke="midnightblue" points="588.75,-63 598.75,-59.5 588.75,-56 588.75,-63"/>
</g>
<!-- Node12 -->
<g id="node12" class="node">
<title>Node12</title>
<g id="a_node12"><a xlink:href="../../d9/d0a/a00390.html#ad52b88a21b47c661e6f6a3bcfdbb3576" target="_top" xlink:title=" ">
<polygon fill="none" stroke="black" points="611.5,-0.5 611.5,-30.5 759.5,-30.5 759.5,-0.5 611.5,-0.5"/>
<text text-anchor="start" x="619.5" y="-18.5" font-family="Helvetica,sans-Serif" font-size="10.00">com.cliffc.aa.GVNGCM.add</text>
<text text-anchor="middle" x="685.5" y="-7.5" font-family="Helvetica,sans-Serif" font-size="10.00">_reduce</text>
</a>
</g>
</g>
<!-- Node6&#45;&gt;Node12 -->
<g id="edge12" class="edge">
<title>Node6&#45;&gt;Node12</title>
<path fill="none" stroke="midnightblue" d="M552.77,-44.48C569.89,-40.71 588.4,-36.64 605.97,-32.78"/>
<polygon fill="midnightblue" stroke="midnightblue" points="607.18,-36.09 616.2,-30.53 605.68,-29.26 607.18,-36.09"/>
</g>
<!-- Node8 -->
<g id="node8" class="node">
<title>Node8</title>
<g id="a_node8"><a xlink:href="../../d9/d0a/a00390.html#a6074ca566ae10e746122ac8d09239d02" target="_top" xlink:title=" ">
<polygon fill="none" stroke="black" points="810,-50 810,-69 987,-69 987,-50 810,-50"/>
<text text-anchor="middle" x="898.5" y="-57" font-family="Helvetica,sans-Serif" font-size="10.00">com.cliffc.aa.GVNGCM.add_work</text>
</a>
</g>
</g>
<!-- Node7&#45;&gt;Node8 -->
<g id="edge7" class="edge">
<title>Node7&#45;&gt;Node8</title>
<path fill="none" stroke="midnightblue" d="M739.47,-87.96C768.32,-82.77 804.2,-76.3 834.47,-70.85"/>
<polygon fill="midnightblue" stroke="midnightblue" points="835.29,-74.26 844.51,-69.04 834.04,-67.37 835.29,-74.26"/>
</g>
<!-- Node9 -->
<g id="node9" class="node">
<title>Node9</title>
<g id="a_node9"><a xlink:href="../../d6/d2f/a01394.html#acc21c59313a6ce5c286431fd2d4fd891" target="_top" xlink:title=" ">
<polygon fill="none" stroke="black" points="1023,-50 1023,-69 1178,-69 1178,-50 1023,-50"/>
<text text-anchor="middle" x="1100.5" y="-57" font-family="Helvetica,sans-Serif" font-size="10.00">com.cliffc.aa.node.Work.add</text>
</a>
</g>
</g>
<!-- Node8&#45;&gt;Node9 -->
<g id="edge8" class="edge">
<title>Node8&#45;&gt;Node9</title>
<path fill="none" stroke="midnightblue" d="M987.22,-59.5C995.65,-59.5 1004.2,-59.5 1012.63,-59.5"/>
<polygon fill="midnightblue" stroke="midnightblue" points="1012.82,-63 1022.82,-59.5 1012.82,-56 1012.82,-63"/>
</g>
<!-- Node10 -->
<g id="node10" class="node">
<title>Node10</title>
<g id="a_node10"><a xlink:href="../../df/dee/a01646.html#a88ad20daf92e92fe0e3925b23c4fecf0" target="_top" xlink:title=" ">
<polygon fill="none" stroke="black" points="1214,-50 1214,-69 1372,-69 1372,-50 1214,-50"/>
<text text-anchor="middle" x="1293" y="-57" font-family="Helvetica,sans-Serif" font-size="10.00">com.cliffc.aa.util.VBitSet.tset</text>
</a>
</g>
</g>
<!-- Node9&#45;&gt;Node10 -->
<g id="edge9" class="edge">
<title>Node9&#45;&gt;Node10</title>
<path fill="none" stroke="midnightblue" d="M1178.16,-59.5C1186.63,-59.5 1195.31,-59.5 1203.9,-59.5"/>
<polygon fill="midnightblue" stroke="midnightblue" points="1203.94,-63 1213.94,-59.5 1203.94,-56 1203.94,-63"/>
</g>
<!-- Node11&#45;&gt;Node8 -->
<g id="edge11" class="edge">
<title>Node11&#45;&gt;Node8</title>
<path fill="none" stroke="midnightblue" d="M772.02,-59.5C781.16,-59.5 790.51,-59.5 799.79,-59.5"/>
<polygon fill="midnightblue" stroke="midnightblue" points="799.8,-63 809.8,-59.5 799.8,-56 799.8,-63"/>
</g>
<!-- Node12&#45;&gt;Node8 -->
<g id="edge13" class="edge">
<title>Node12&#45;&gt;Node8</title>
<path fill="none" stroke="midnightblue" d="M758.52,-30.52C785.82,-36.21 816.45,-42.6 842,-47.93"/>
<polygon fill="midnightblue" stroke="midnightblue" points="841.38,-51.37 851.88,-49.99 842.81,-44.52 841.38,-51.37"/>
</g>
</g>
</svg>
