<?xml version="1.0" encoding="UTF-8" standalone="no"?>
<!DOCTYPE svg PUBLIC "-//W3C//DTD SVG 1.1//EN"
 "http://www.w3.org/Graphics/SVG/1.1/DTD/svg11.dtd">
<!-- Generated by graphviz version 2.43.0 (0)
 -->
<!-- Title: com.cliffc.aa.node.Node.init1 Pages: 1 -->
<!--zoomable 186 -->
<svg id="main" version="1.1" xmlns="http://www.w3.org/2000/svg" xmlns:xlink="http://www.w3.org/1999/xlink" xml:space="preserve" onload="init(evt)">
<style type="text/css"><![CDATA[
.edge:hover path { stroke: red; }
.edge:hover polygon { stroke: red; fill: red; }
]]></style>
<script type="text/javascript"><![CDATA[
var edges = document.getElementsByTagName('g');
if (edges && edges.length) {
  for (var i=0;i<edges.length;i++) {
    if (edges[i].id.substr(0,4)=='edge') {
      edges[i].setAttribute('class','edge');
    }
  }
}
]]></script>
        <defs>
                <circle id="rim" cx="0" cy="0" r="7"/>
                <circle id="rim2" cx="0" cy="0" r="3.5"/>
                <g id="zoomPlus">
                        <use xlink:href="#rim" fill="#404040">
                                <set attributeName="fill" to="#808080" begin="zoomplus.mouseover" end="zoomplus.mouseout"/>
                        </use>
                        <path d="M-4,0h8M0,-4v8" fill="none" stroke="white" stroke-width="1.5" pointer-events="none"/>
                </g>
                <g id="zoomMin">
                        <use xlink:href="#rim" fill="#404040">
                                <set attributeName="fill" to="#808080" begin="zoomminus.mouseover" end="zoomminus.mouseout"/>
                        </use>
                        <path d="M-4,0h8" fill="none" stroke="white" stroke-width="1.5" pointer-events="none"/>
                </g>
                <g id="dirArrow">
                        <path fill="none" stroke="white" stroke-width="1.5" d="M0,-3.0v7 M-2.5,-0.5L0,-3.0L2.5,-0.5"/>
                </g>
               <g id="resetDef">
                       <use xlink:href="#rim2" fill="#404040">
                               <set attributeName="fill" to="#808080" begin="reset.mouseover" end="reset.mouseout"/>
                       </use>
               </g>
        </defs>

<script type="text/javascript">
var viewWidth = 1326;
var viewHeight = 186;
var sectionId = 'dynsection-60';
</script>
<script xlink:href="../../svgpan.js"/>
<svg id="graph" class="graph">
<g id="viewport">
<title>com.cliffc.aa.node.Node.init1</title>
<!-- Node1 -->
<g id="node1" class="node">
<title>Node1</title>
<g id="a_node1"><a xlink:title=" ">
<polygon fill="#bfbfbf" stroke="black" points="1159,-79 1159,-98 1318,-98 1318,-79 1159,-79"/>
<text text-anchor="middle" x="1238.5" y="-86" font-family="Helvetica,sans-Serif" font-size="10.00">com.cliffc.aa.node.Node.init1</text>
</a>
</g>
</g>
<!-- Node2 -->
<g id="node2" class="node">
<title>Node2</title>
<g id="a_node2"><a xlink:href="../../dc/d81/a01006.html#a7d965c58e9eedf74f677e00025c75848" target="_top" xlink:title=" ">
<polygon fill="none" stroke="black" points="980,-73.5 980,-103.5 1123,-103.5 1123,-73.5 980,-73.5"/>
<text text-anchor="start" x="988" y="-91.5" font-family="Helvetica,sans-Serif" font-size="10.00">com.cliffc.aa.node.CallEpi</text>
<text text-anchor="middle" x="1051.5" y="-80.5" font-family="Helvetica,sans-Serif" font-size="10.00">Node.wire0</text>
</a>
</g>
</g>
<!-- Node1&#45;&gt;Node2 -->
<g id="edge1" class="edge">
<title>Node1&#45;&gt;Node2</title>
<path fill="none" stroke="midnightblue" d="M1148.76,-88.5C1140.2,-88.5 1131.6,-88.5 1123.24,-88.5"/>
<polygon fill="midnightblue" stroke="midnightblue" points="1148.78,-92 1158.78,-88.5 1148.78,-85 1148.78,-92"/>
</g>
<!-- Node3 -->
<g id="node3" class="node">
<title>Node3</title>
<g id="a_node3"><a xlink:href="../../d9/d8e/a01050.html#a0ef60478ee30510481eb33dc87069b2a" target="_top" xlink:title=" ">
<polygon fill="none" stroke="black" points="589,-98.5 589,-128.5 765,-128.5 765,-98.5 589,-98.5"/>
<text text-anchor="start" x="597" y="-116.5" font-family="Helvetica,sans-Serif" font-size="10.00">com.cliffc.aa.node.FunNode.split</text>
<text text-anchor="middle" x="677" y="-105.5" font-family="Helvetica,sans-Serif" font-size="10.00">_callers</text>
</a>
</g>
</g>
<!-- Node2&#45;&gt;Node3 -->
<g id="edge2" class="edge">
<title>Node2&#45;&gt;Node3</title>
<path fill="none" stroke="midnightblue" d="M969.76,-93.92C909.45,-97.97 827.1,-103.49 765.27,-107.64"/>
<polygon fill="midnightblue" stroke="midnightblue" points="970.25,-97.39 980,-93.23 969.79,-90.41 970.25,-97.39"/>
</g>
<!-- Node5 -->
<g id="node5" class="node">
<title>Node5</title>
<g id="a_node5"><a xlink:href="../../dc/d81/a01006.html#abbb590cbe58c421c6b0aec661f7262f9" target="_top" xlink:title=" ">
<polygon fill="none" stroke="black" points="801,-51.5 801,-81.5 944,-81.5 944,-51.5 801,-51.5"/>
<text text-anchor="start" x="809" y="-69.5" font-family="Helvetica,sans-Serif" font-size="10.00">com.cliffc.aa.node.CallEpi</text>
<text text-anchor="middle" x="872.5" y="-58.5" font-family="Helvetica,sans-Serif" font-size="10.00">Node.wire1</text>
</a>
</g>
</g>
<!-- Node2&#45;&gt;Node5 -->
<g id="edge4" class="edge">
<title>Node2&#45;&gt;Node5</title>
<path fill="none" stroke="midnightblue" d="M969.79,-78.47C961.22,-77.4 952.55,-76.33 944.11,-75.28"/>
<polygon fill="midnightblue" stroke="midnightblue" points="969.43,-81.95 979.78,-79.71 970.29,-75 969.43,-81.95"/>
</g>
<!-- Node4 -->
<g id="node4" class="node">
<title>Node4</title>
<g id="a_node4"><a xlink:href="../../d9/d8e/a01050.html#a35a8d77a634141d969d902a346af2000" target="_top" xlink:title=" ">
<polygon fill="none" stroke="black" points="373.5,-147.5 373.5,-177.5 552.5,-177.5 552.5,-147.5 373.5,-147.5"/>
<text text-anchor="start" x="381.5" y="-165.5" font-family="Helvetica,sans-Serif" font-size="10.00">com.cliffc.aa.node.FunNode.ideal</text>
<text text-anchor="middle" x="463" y="-154.5" font-family="Helvetica,sans-Serif" font-size="10.00">_inline</text>
</a>
</g>
</g>
<!-- Node3&#45;&gt;Node4 -->
<g id="edge3" class="edge">
<title>Node3&#45;&gt;Node4</title>
<path fill="none" stroke="midnightblue" d="M601.02,-130.83C577.48,-136.27 551.71,-142.23 528.92,-147.49"/>
<polygon fill="midnightblue" stroke="midnightblue" points="602,-134.2 610.95,-128.53 600.42,-127.38 602,-134.2"/>
</g>
<!-- Node5&#45;&gt;Node3 -->
<g id="edge13" class="edge">
<title>Node5&#45;&gt;Node3</title>
<path fill="none" stroke="midnightblue" d="M799.89,-83.89C780.17,-88.68 758.95,-93.84 739.83,-98.48"/>
<polygon fill="midnightblue" stroke="midnightblue" points="800.85,-87.26 809.74,-81.5 799.2,-80.46 800.85,-87.26"/>
</g>
<!-- Node6 -->
<g id="node6" class="node">
<title>Node6</title>
<g id="a_node6"><a xlink:href="../../dc/d81/a01006.html#ae25482952b8921d40650ad9fa679b19b" target="_top" xlink:title=" ">
<polygon fill="none" stroke="black" points="605.5,-49.5 605.5,-79.5 748.5,-79.5 748.5,-49.5 605.5,-49.5"/>
<text text-anchor="start" x="613.5" y="-67.5" font-family="Helvetica,sans-Serif" font-size="10.00">com.cliffc.aa.node.CallEpi</text>
<text text-anchor="middle" x="677" y="-56.5" font-family="Helvetica,sans-Serif" font-size="10.00">Node.check_and_wire</text>
</a>
</g>
</g>
<!-- Node5&#45;&gt;Node6 -->
<g id="edge5" class="edge">
<title>Node5&#45;&gt;Node6</title>
<path fill="none" stroke="midnightblue" d="M790.77,-65.67C776.84,-65.52 762.46,-65.37 748.81,-65.23"/>
<polygon fill="midnightblue" stroke="midnightblue" points="790.79,-69.17 800.82,-65.77 790.86,-62.17 790.79,-69.17"/>
</g>
<!-- Node11 -->
<g id="node11" class="node">
<title>Node11</title>
<g id="a_node11"><a xlink:href="../../dc/d81/a01006.html#a2fc8d45a36328634008e89d520cfb885" target="_top" xlink:title=" ">
<polygon fill="none" stroke="black" points="391.5,-0.5 391.5,-30.5 534.5,-30.5 534.5,-0.5 391.5,-0.5"/>
<text text-anchor="start" x="399.5" y="-18.5" font-family="Helvetica,sans-Serif" font-size="10.00">com.cliffc.aa.node.CallEpi</text>
<text text-anchor="middle" x="463" y="-7.5" font-family="Helvetica,sans-Serif" font-size="10.00">Node.ideal_reduce</text>
</a>
</g>
</g>
<!-- Node5&#45;&gt;Node11 -->
<g id="edge12" class="edge">
<title>Node5&#45;&gt;Node11</title>
<path fill="none" stroke="midnightblue" d="M809.7,-48.96C795.14,-45.35 779.6,-41.92 765,-39.5 686.77,-26.56 595.91,-20.53 534.65,-17.77"/>
<polygon fill="midnightblue" stroke="midnightblue" points="809.04,-52.4 819.6,-51.47 810.77,-45.62 809.04,-52.4"/>
</g>
<!-- Node7 -->
<g id="node7" class="node">
<title>Node7</title>
<g id="a_node7"><a xlink:href="../../d9/d0a/a00390.html#adef511925a7d3a3ec9b8441a8e2c298c" target="_top" xlink:title=" ">
<polygon fill="none" stroke="black" points="384,-98.5 384,-128.5 542,-128.5 542,-98.5 384,-98.5"/>
<text text-anchor="start" x="392" y="-116.5" font-family="Helvetica,sans-Serif" font-size="10.00">com.cliffc.aa.GVNGCM.check</text>
<text text-anchor="middle" x="463" y="-105.5" font-family="Helvetica,sans-Serif" font-size="10.00">_and_wire</text>
</a>
</g>
</g>
<!-- Node6&#45;&gt;Node7 -->
<g id="edge6" class="edge">
<title>Node6&#45;&gt;Node7</title>
<path fill="none" stroke="midnightblue" d="M601.02,-81.83C577.48,-87.27 551.71,-93.23 528.92,-98.49"/>
<polygon fill="midnightblue" stroke="midnightblue" points="602,-85.2 610.95,-79.53 600.42,-78.38 602,-85.2"/>
</g>
<!-- Node6&#45;&gt;Node11 -->
<g id="edge10" class="edge">
<title>Node6&#45;&gt;Node11</title>
<path fill="none" stroke="midnightblue" d="M601.02,-47.17C577.48,-41.73 551.71,-35.77 528.92,-30.51"/>
<polygon fill="midnightblue" stroke="midnightblue" points="600.42,-50.62 610.95,-49.47 602,-43.8 600.42,-50.62"/>
</g>
<!-- Node12 -->
<g id="node12" class="node">
<title>Node12</title>
<g id="a_node12"><a xlink:href="../../d0/d2b/a01010.html#aef07a2283d73f9f60f0215af08389efb" target="_top" xlink:title=" ">
<polygon fill="none" stroke="black" points="373,-49.5 373,-79.5 553,-79.5 553,-49.5 373,-49.5"/>
<text text-anchor="start" x="381" y="-67.5" font-family="Helvetica,sans-Serif" font-size="10.00">com.cliffc.aa.node.CallNode.ideal</text>
<text text-anchor="middle" x="463" y="-56.5" font-family="Helvetica,sans-Serif" font-size="10.00">_reduce</text>
</a>
</g>
</g>
<!-- Node6&#45;&gt;Node12 -->
<g id="edge11" class="edge">
<title>Node6&#45;&gt;Node12</title>
<path fill="none" stroke="midnightblue" d="M595.06,-64.5C581.35,-64.5 567.05,-64.5 553.14,-64.5"/>
<polygon fill="midnightblue" stroke="midnightblue" points="595.41,-68 605.41,-64.5 595.41,-61 595.41,-68"/>
</g>
<!-- Node8 -->
<g id="node8" class="node">
<title>Node8</title>
<g id="a_node8"><a xlink:href="../../d9/d0a/a00390.html#a30adb7d17b631cd35a2e994feaa511f1" target="_top" xlink:title=" ">
<polygon fill="none" stroke="black" points="190,-104 190,-123 337,-123 337,-104 190,-104"/>
<text text-anchor="middle" x="263.5" y="-111" font-family="Helvetica,sans-Serif" font-size="10.00">com.cliffc.aa.GVNGCM.gcp</text>
</a>
</g>
</g>
<!-- Node7&#45;&gt;Node8 -->
<g id="edge7" class="edge">
<title>Node7&#45;&gt;Node8</title>
<path fill="none" stroke="midnightblue" d="M373.74,-113.5C361.51,-113.5 349.07,-113.5 337.17,-113.5"/>
<polygon fill="midnightblue" stroke="midnightblue" points="373.94,-117 383.94,-113.5 373.94,-110 373.94,-117"/>
</g>
<!-- Node9 -->
<g id="node9" class="node">
<title>Node9</title>
<g id="a_node9"><a xlink:href="../../da/de3/a01398.html#a7b1a6eaad3b721625612e7475ca9bf3b" target="_top" xlink:title=" ">
<polygon fill="none" stroke="black" points="15.5,-126 15.5,-145 138.5,-145 138.5,-126 15.5,-126"/>
<text text-anchor="middle" x="77" y="-133" font-family="Helvetica,sans-Serif" font-size="10.00">com.cliffc.aa.Parse.go</text>
</a>
</g>
</g>
<!-- Node8&#45;&gt;Node9 -->
<g id="edge8" class="edge">
<title>Node8&#45;&gt;Node9</title>
<path fill="none" stroke="midnightblue" d="M179.83,-123.36C165.98,-125.01 151.84,-126.69 138.68,-128.26"/>
<polygon fill="midnightblue" stroke="midnightblue" points="180.33,-126.82 189.85,-122.16 179.5,-119.87 180.33,-126.82"/>
</g>
<!-- Node10 -->
<g id="node10" class="node">
<title>Node10</title>
<g id="a_node10"><a xlink:href="../../d4/d8e/a01694.html#a0047bc5cd2ee14b1d3822a5969bc0502" target="_top" xlink:title=" ">
<polygon fill="none" stroke="black" points="0,-76.5 0,-106.5 154,-106.5 154,-76.5 0,-76.5"/>
<text text-anchor="start" x="8" y="-94.5" font-family="Helvetica,sans-Serif" font-size="10.00">com.cliffc.aa.node.TestNode</text>
<text text-anchor="middle" x="77" y="-83.5" font-family="Helvetica,sans-Serif" font-size="10.00">Small.testRecursiveDisplay</text>
</a>
</g>
</g>
<!-- Node8&#45;&gt;Node10 -->
<g id="edge9" class="edge">
<title>Node8&#45;&gt;Node10</title>
<path fill="none" stroke="midnightblue" d="M179.89,-103.65C171.35,-102.63 162.7,-101.6 154.23,-100.59"/>
<polygon fill="midnightblue" stroke="midnightblue" points="179.5,-107.13 189.85,-104.84 180.33,-100.18 179.5,-107.13"/>
</g>
</g>
</svg>
        <g id="navigator" transform="translate(0 0)" fill="#404254">
                <rect fill="#f2f5e9" fill-opacity="0.5" stroke="#606060" stroke-width=".5" x="0" y="0" width="60" height="60"/>
                <use id="zoomplus" xlink:href="#zoomPlus" x="17" y="9" onmousedown="handleZoom(evt,'in')"/>
                <use id="zoomminus" xlink:href="#zoomMin" x="42" y="9" onmousedown="handleZoom(evt,'out')"/>
                <use id="reset" xlink:href="#resetDef" x="30" y="36" onmousedown="handleReset()"/>
                <g id="arrowUp" xlink:href="#dirArrow" transform="translate(30 24)" onmousedown="handlePan(0,-1)">
                  <use xlink:href="#rim" fill="#404040">
                        <set attributeName="fill" to="#808080" begin="arrowUp.mouseover" end="arrowUp.mouseout"/>
                  </use>
                  <path fill="none" stroke="white" stroke-width="1.5" d="M0,-3.0v7 M-2.5,-0.5L0,-3.0L2.5,-0.5"/>
                </g>
                <g id="arrowRight" xlink:href="#dirArrow" transform="rotate(90) translate(36 -43)" onmousedown="handlePan(1,0)">
                  <use xlink:href="#rim" fill="#404040">
                        <set attributeName="fill" to="#808080" begin="arrowRight.mouseover" end="arrowRight.mouseout"/>
                  </use>
                  <path fill="none" stroke="white" stroke-width="1.5" d="M0,-3.0v7 M-2.5,-0.5L0,-3.0L2.5,-0.5"/>
                </g>
                <g id="arrowDown" xlink:href="#dirArrow" transform="rotate(180) translate(-30 -48)" onmousedown="handlePan(0,1)">
                  <use xlink:href="#rim" fill="#404040">
                        <set attributeName="fill" to="#808080" begin="arrowDown.mouseover" end="arrowDown.mouseout"/>
                  </use>
                  <path fill="none" stroke="white" stroke-width="1.5" d="M0,-3.0v7 M-2.5,-0.5L0,-3.0L2.5,-0.5"/>
                </g>
                <g id="arrowLeft" xlink:href="#dirArrow" transform="rotate(270) translate(-36 17)" onmousedown="handlePan(-1,0)">
                  <use xlink:href="#rim" fill="#404040">
                        <set attributeName="fill" to="#808080" begin="arrowLeft.mouseover" end="arrowLeft.mouseout"/>
                  </use>
                  <path fill="none" stroke="white" stroke-width="1.5" d="M0,-3.0v7 M-2.5,-0.5L0,-3.0L2.5,-0.5"/>
                </g>
        </g>
        <svg viewBox="0 0 15 15" width="100%" height="30px" preserveAspectRatio="xMaxYMin meet">
         <g id="arrow_out" transform="scale(0.3 0.3)">
          <a xlink:href="a01158_a04cc1788c73ae95b72bedd3125dd3951_icgraph_org.svg" target="_base">
           <rect id="button" ry="5" rx="5" y="6" x="6" height="38" width="38"
                fill="#f2f5e9" fill-opacity="0.5" stroke="#606060" stroke-width="1.0"/>
           <path id="arrow"
             d="M 11.500037,31.436501 C 11.940474,20.09759 22.043105,11.32322 32.158766,21.979434 L 37.068811,17.246167 C 37.068811,17.246167 37.088388,32 37.088388,32 L 22.160133,31.978069 C 22.160133,31.978069 26.997745,27.140456 26.997745,27.140456 C 18.528582,18.264221 13.291696,25.230495 11.500037,31.436501 z"
             style="fill:#404040;"/>
          </a>
         </g>
        </svg>
</svg>
