<?xml version="1.0" encoding="UTF-8" standalone="no"?>
<!DOCTYPE svg PUBLIC "-//W3C//DTD SVG 1.1//EN"
 "http://www.w3.org/Graphics/SVG/1.1/DTD/svg11.dtd">
<!-- Generated by graphviz version 2.43.0 (0)
 -->
<!-- Title: com.cliffc.aa.node.Node.init1 Pages: 1 -->
<svg width="1592pt" height="204pt"
 viewBox="0.00 0.00 1592.00 203.81" xmlns="http://www.w3.org/2000/svg" xmlns:xlink="http://www.w3.org/1999/xlink">
<g id="graph0" class="graph" transform="scale(1 1) rotate(0) translate(4 199.81)">
<title>com.cliffc.aa.node.Node.init1</title>
<!-- Node1 -->
<g id="node1" class="node">
<title>Node1</title>
<g id="a_node1"><a xlink:title=" ">
<polygon fill="#bfbfbf" stroke="black" points="0,-81.5 0,-100.5 159,-100.5 159,-81.5 0,-81.5"/>
<text text-anchor="middle" x="79.5" y="-88.5" font-family="Helvetica,sans-Serif" font-size="10.00">com.cliffc.aa.node.Node.init1</text>
</a>
</g>
</g>
<!-- Node2 -->
<g id="node2" class="node">
<title>Node2</title>
<g id="a_node2"><a xlink:href="../../d9/d0a/a00390.html#a7604d1a7a8281ef87e4af6c1939b0c85" target="_top" xlink:title=" ">
<polygon fill="none" stroke="black" points="205.5,-147 205.5,-177 353.5,-177 353.5,-147 205.5,-147"/>
<text text-anchor="start" x="213.5" y="-165" font-family="Helvetica,sans-Serif" font-size="10.00">com.cliffc.aa.GVNGCM.add</text>
<text text-anchor="middle" x="279.5" y="-154" font-family="Helvetica,sans-Serif" font-size="10.00">_work_all</text>
</a>
</g>
</g>
<!-- Node1&#45;&gt;Node2 -->
<g id="edge1" class="edge">
<title>Node1&#45;&gt;Node2</title>
<path fill="none" stroke="midnightblue" d="M107.2,-100.58C137.76,-111.53 188.52,-129.73 226.87,-143.49"/>
<polygon fill="midnightblue" stroke="midnightblue" points="225.74,-146.8 236.33,-146.88 228.1,-140.21 225.74,-146.8"/>
</g>
<!-- Node7 -->
<g id="node7" class="node">
<title>Node7</title>
<g id="a_node7"><a xlink:href="../../df/db5/a01158.html#aa9c660843e6f3a9321da631f4a5f60a9" target="_top" xlink:title=" ">
<polygon fill="none" stroke="black" points="203.5,-92.5 203.5,-111.5 355.5,-111.5 355.5,-92.5 203.5,-92.5"/>
<text text-anchor="middle" x="279.5" y="-99.5" font-family="Helvetica,sans-Serif" font-size="10.00">com.cliffc.aa.node.Node.kill</text>
</a>
</g>
</g>
<!-- Node1&#45;&gt;Node7 -->
<g id="edge6" class="edge">
<title>Node1&#45;&gt;Node7</title>
<path fill="none" stroke="midnightblue" d="M159.04,-95.36C170.2,-95.98 181.72,-96.62 193.01,-97.25"/>
<polygon fill="midnightblue" stroke="midnightblue" points="193.1,-100.76 203.28,-97.82 193.49,-93.77 193.1,-100.76"/>
</g>
<!-- Node15 -->
<g id="node15" class="node">
<title>Node15</title>
<g id="a_node15"><a xlink:href="../../df/db5/a01158.html#a10792dfe5e85a2d68b7d3c131644b9c1" target="_top" xlink:title=" ">
<polygon fill="none" stroke="black" points="195,-46.5 195,-65.5 364,-65.5 364,-46.5 195,-46.5"/>
<text text-anchor="middle" x="279.5" y="-53.5" font-family="Helvetica,sans-Serif" font-size="10.00">com.cliffc.aa.node.Node.merge</text>
</a>
</g>
</g>
<!-- Node1&#45;&gt;Node15 -->
<g id="edge18" class="edge">
<title>Node1&#45;&gt;Node15</title>
<path fill="none" stroke="midnightblue" d="M134.34,-81.48C159.11,-77.1 188.68,-71.88 214.57,-67.3"/>
<polygon fill="midnightblue" stroke="midnightblue" points="215.43,-70.7 224.67,-65.52 214.21,-63.81 215.43,-70.7"/>
</g>
<!-- Node17 -->
<g id="node17" class="node">
<title>Node17</title>
<g id="a_node17"><a xlink:href="../../df/db5/a01158.html#a05828b3784b2a2ac2314784214f662fd" target="_top" xlink:title=" ">
<polygon fill="none" stroke="black" points="197.5,-8.5 197.5,-27.5 361.5,-27.5 361.5,-8.5 197.5,-8.5"/>
<text text-anchor="middle" x="279.5" y="-15.5" font-family="Helvetica,sans-Serif" font-size="10.00">com.cliffc.aa.node.Node.value</text>
</a>
</g>
</g>
<!-- Node1&#45;&gt;Node17 -->
<g id="edge21" class="edge">
<title>Node1&#45;&gt;Node17</title>
<path fill="none" stroke="midnightblue" d="M97.85,-81.36C119.86,-69.47 159.26,-49.33 195,-37 202.59,-34.38 210.7,-32.02 218.77,-29.93"/>
<polygon fill="midnightblue" stroke="midnightblue" points="219.68,-33.31 228.55,-27.51 218,-26.51 219.68,-33.31"/>
</g>
<!-- Node3 -->
<g id="node3" class="node">
<title>Node3</title>
<g id="a_node3"><a xlink:href="../../d9/d0a/a00390.html#a6074ca566ae10e746122ac8d09239d02" target="_top" xlink:title=" ">
<polygon fill="none" stroke="black" points="1022,-104.5 1022,-123.5 1199,-123.5 1199,-104.5 1022,-104.5"/>
<text text-anchor="middle" x="1110.5" y="-111.5" font-family="Helvetica,sans-Serif" font-size="10.00">com.cliffc.aa.GVNGCM.add_work</text>
</a>
</g>
</g>
<!-- Node2&#45;&gt;Node3 -->
<g id="edge2" class="edge">
<title>Node2&#45;&gt;Node3</title>
<path fill="none" stroke="midnightblue" d="M353.59,-175.49C368.87,-177.78 384.92,-179.81 400,-181 659.89,-201.53 730.11,-204.85 986,-155 1017.77,-148.81 1052.66,-136.71 1077.22,-127.25"/>
<polygon fill="midnightblue" stroke="midnightblue" points="1078.72,-130.42 1086.76,-123.51 1076.17,-123.9 1078.72,-130.42"/>
</g>
<!-- Node6 -->
<g id="node6" class="node">
<title>Node6</title>
<g id="a_node6"><a xlink:href="../../df/db5/a01158.html#ab7694c22a9c7542842726bcfb0eb5922" target="_top" xlink:title=" ">
<polygon fill="none" stroke="black" points="403.5,-152.5 403.5,-171.5 578.5,-171.5 578.5,-152.5 403.5,-152.5"/>
<text text-anchor="middle" x="491" y="-159.5" font-family="Helvetica,sans-Serif" font-size="10.00">com.cliffc.aa.node.Node.is_dead</text>
</a>
</g>
</g>
<!-- Node2&#45;&gt;Node6 -->
<g id="edge5" class="edge">
<title>Node2&#45;&gt;Node6</title>
<path fill="none" stroke="midnightblue" d="M353.77,-162C366.56,-162 380.04,-162 393.34,-162"/>
<polygon fill="midnightblue" stroke="midnightblue" points="393.47,-165.5 403.47,-162 393.47,-158.5 393.47,-165.5"/>
</g>
<!-- Node4 -->
<g id="node4" class="node">
<title>Node4</title>
<g id="a_node4"><a xlink:href="../../d6/d2f/a01394.html#acc21c59313a6ce5c286431fd2d4fd891" target="_top" xlink:title=" ">
<polygon fill="none" stroke="black" points="1235,-104.5 1235,-123.5 1390,-123.5 1390,-104.5 1235,-104.5"/>
<text text-anchor="middle" x="1312.5" y="-111.5" font-family="Helvetica,sans-Serif" font-size="10.00">com.cliffc.aa.node.Work.add</text>
</a>
</g>
</g>
<!-- Node3&#45;&gt;Node4 -->
<g id="edge3" class="edge">
<title>Node3&#45;&gt;Node4</title>
<path fill="none" stroke="midnightblue" d="M1199.22,-114C1207.65,-114 1216.2,-114 1224.63,-114"/>
<polygon fill="midnightblue" stroke="midnightblue" points="1224.82,-117.5 1234.82,-114 1224.82,-110.5 1224.82,-117.5"/>
</g>
<!-- Node5 -->
<g id="node5" class="node">
<title>Node5</title>
<g id="a_node5"><a xlink:href="../../df/dee/a01646.html#a88ad20daf92e92fe0e3925b23c4fecf0" target="_top" xlink:title=" ">
<polygon fill="none" stroke="black" points="1426,-104.5 1426,-123.5 1584,-123.5 1584,-104.5 1426,-104.5"/>
<text text-anchor="middle" x="1505" y="-111.5" font-family="Helvetica,sans-Serif" font-size="10.00">com.cliffc.aa.util.VBitSet.tset</text>
</a>
</g>
</g>
<!-- Node4&#45;&gt;Node5 -->
<g id="edge4" class="edge">
<title>Node4&#45;&gt;Node5</title>
<path fill="none" stroke="midnightblue" d="M1390.16,-114C1398.63,-114 1407.31,-114 1415.9,-114"/>
<polygon fill="midnightblue" stroke="midnightblue" points="1415.94,-117.5 1425.94,-114 1415.94,-110.5 1415.94,-117.5"/>
</g>
<!-- Node7&#45;&gt;Node6 -->
<g id="edge7" class="edge">
<title>Node7&#45;&gt;Node6</title>
<path fill="none" stroke="midnightblue" d="M305.4,-111.54C329.38,-120.49 366.81,-133.84 400,-143 409.47,-145.61 419.58,-148.07 429.48,-150.29"/>
<polygon fill="midnightblue" stroke="midnightblue" points="428.76,-153.71 439.28,-152.43 430.26,-146.87 428.76,-153.71"/>
</g>
<!-- Node8 -->
<g id="node8" class="node">
<title>Node8</title>
<g id="a_node8"><a xlink:href="../../df/db5/a01158.html#a640c76253f06fdd4e546cf53eca76b2e" target="_top" xlink:title=" ">
<polygon fill="none" stroke="black" points="400,-114.5 400,-133.5 582,-133.5 582,-114.5 400,-114.5"/>
<text text-anchor="middle" x="491" y="-121.5" font-family="Helvetica,sans-Serif" font-size="10.00">com.cliffc.aa.node.Node.set_dead</text>
</a>
</g>
</g>
<!-- Node7&#45;&gt;Node8 -->
<g id="edge8" class="edge">
<title>Node7&#45;&gt;Node8</title>
<path fill="none" stroke="midnightblue" d="M355.54,-109.88C366.62,-111.04 378.18,-112.26 389.67,-113.46"/>
<polygon fill="midnightblue" stroke="midnightblue" points="389.43,-116.96 399.74,-114.52 390.16,-110 389.43,-116.96"/>
</g>
<!-- Node9 -->
<g id="node9" class="node">
<title>Node9</title>
<g id="a_node9"><a xlink:href="../../df/db5/a01158.html#a284c9a1217237d2f3eede517b6a33aa4" target="_top" xlink:title=" ">
<polygon fill="none" stroke="black" points="407.5,-76.5 407.5,-95.5 574.5,-95.5 574.5,-76.5 407.5,-76.5"/>
<text text-anchor="middle" x="491" y="-83.5" font-family="Helvetica,sans-Serif" font-size="10.00">com.cliffc.aa.node.Node.unuse</text>
</a>
</g>
</g>
<!-- Node7&#45;&gt;Node9 -->
<g id="edge9" class="edge">
<title>Node7&#45;&gt;Node9</title>
<path fill="none" stroke="midnightblue" d="M355.54,-96.27C369.05,-95.24 383.28,-94.15 397.22,-93.09"/>
<polygon fill="midnightblue" stroke="midnightblue" points="397.61,-96.57 407.31,-92.32 397.07,-89.59 397.61,-96.57"/>
</g>
<!-- Node10 -->
<g id="node10" class="node">
<title>Node10</title>
<g id="a_node10"><a xlink:href="../../df/db5/a01158.html#a4c43a2abe5004ef2cf98b07a01500a1f" target="_top" xlink:title=" ">
<polygon fill="none" stroke="black" points="618,-126 618,-156 773,-156 773,-126 618,-126"/>
<text text-anchor="start" x="626" y="-144" font-family="Helvetica,sans-Serif" font-size="10.00">com.cliffc.aa.node.Node.add</text>
<text text-anchor="middle" x="695.5" y="-133" font-family="Helvetica,sans-Serif" font-size="10.00">_flow_def_extra</text>
</a>
</g>
</g>
<!-- Node9&#45;&gt;Node10 -->
<g id="edge10" class="edge">
<title>Node9&#45;&gt;Node10</title>
<path fill="none" stroke="midnightblue" d="M542.23,-95.55C555.25,-98.31 569.21,-101.53 582,-105 598.28,-109.42 601.95,-111.81 618,-117 623.91,-118.91 630.08,-120.89 636.25,-122.84"/>
<polygon fill="midnightblue" stroke="midnightblue" points="635.31,-126.22 645.9,-125.89 637.42,-119.54 635.31,-126.22"/>
</g>
<!-- Node11 -->
<g id="node11" class="node">
<title>Node11</title>
<g id="a_node11"><a xlink:href="../../d9/d0a/a00390.html#a4a612bae4153eff084e4fe1d0049987c" target="_top" xlink:title=" ">
<polygon fill="none" stroke="black" points="621.5,-77 621.5,-107 769.5,-107 769.5,-77 621.5,-77"/>
<text text-anchor="start" x="629.5" y="-95" font-family="Helvetica,sans-Serif" font-size="10.00">com.cliffc.aa.GVNGCM.add</text>
<text text-anchor="middle" x="695.5" y="-84" font-family="Helvetica,sans-Serif" font-size="10.00">_unuse</text>
</a>
</g>
</g>
<!-- Node9&#45;&gt;Node11 -->
<g id="edge11" class="edge">
<title>Node9&#45;&gt;Node11</title>
<path fill="none" stroke="midnightblue" d="M574.66,-88.45C586.7,-88.81 599.11,-89.17 611.17,-89.53"/>
<polygon fill="midnightblue" stroke="midnightblue" points="611.11,-93.03 621.21,-89.83 611.31,-86.03 611.11,-93.03"/>
</g>
<!-- Node12 -->
<g id="node12" class="node">
<title>Node12</title>
<g id="a_node12"><a xlink:href="../../d9/d0a/a00390.html#af23b6c0debccdb7104dea273b231c716" target="_top" xlink:title=" ">
<polygon fill="none" stroke="black" points="809,-126.5 809,-145.5 986,-145.5 986,-126.5 809,-126.5"/>
<text text-anchor="middle" x="897.5" y="-133.5" font-family="Helvetica,sans-Serif" font-size="10.00">com.cliffc.aa.GVNGCM.add_dead</text>
</a>
</g>
</g>
<!-- Node11&#45;&gt;Node12 -->
<g id="edge12" class="edge">
<title>Node11&#45;&gt;Node12</title>
<path fill="none" stroke="midnightblue" d="M764.01,-107.06C778.83,-110.35 794.44,-113.8 809,-117 819.81,-119.37 831.38,-121.9 842.44,-124.3"/>
<polygon fill="midnightblue" stroke="midnightblue" points="841.91,-127.77 852.43,-126.47 843.4,-120.93 841.91,-127.77"/>
</g>
<!-- Node13 -->
<g id="node13" class="node">
<title>Node13</title>
<g id="a_node13"><a xlink:href="../../d9/d0a/a00390.html#a195b2b7d0b8f0f1770422573c2cc22ff" target="_top" xlink:title=" ">
<polygon fill="none" stroke="black" points="811,-38.5 811,-57.5 984,-57.5 984,-38.5 811,-38.5"/>
<text text-anchor="middle" x="897.5" y="-45.5" font-family="Helvetica,sans-Serif" font-size="10.00">com.cliffc.aa.GVNGCM.add_flow</text>
</a>
</g>
</g>
<!-- Node11&#45;&gt;Node13 -->
<g id="edge14" class="edge">
<title>Node11&#45;&gt;Node13</title>
<path fill="none" stroke="midnightblue" d="M764.01,-76.94C778.83,-73.65 794.44,-70.2 809,-67 819.81,-64.63 831.38,-62.1 842.44,-59.7"/>
<polygon fill="midnightblue" stroke="midnightblue" points="843.4,-63.07 852.43,-57.53 841.91,-56.23 843.4,-63.07"/>
</g>
<!-- Node14 -->
<g id="node14" class="node">
<title>Node14</title>
<g id="a_node14"><a xlink:href="../../d9/d0a/a00390.html#ad52b88a21b47c661e6f6a3bcfdbb3576" target="_top" xlink:title=" ">
<polygon fill="none" stroke="black" points="823.5,-77 823.5,-107 971.5,-107 971.5,-77 823.5,-77"/>
<text text-anchor="start" x="831.5" y="-95" font-family="Helvetica,sans-Serif" font-size="10.00">com.cliffc.aa.GVNGCM.add</text>
<text text-anchor="middle" x="897.5" y="-84" font-family="Helvetica,sans-Serif" font-size="10.00">_reduce</text>
</a>
</g>
</g>
<!-- Node11&#45;&gt;Node14 -->
<g id="edge16" class="edge">
<title>Node11&#45;&gt;Node14</title>
<path fill="none" stroke="midnightblue" d="M769.55,-92C783.65,-92 798.52,-92 812.92,-92"/>
<polygon fill="midnightblue" stroke="midnightblue" points="813.31,-95.5 823.31,-92 813.31,-88.5 813.31,-95.5"/>
</g>
<!-- Node12&#45;&gt;Node3 -->
<g id="edge13" class="edge">
<title>Node12&#45;&gt;Node3</title>
<path fill="none" stroke="midnightblue" d="M986.15,-126.86C994.61,-125.98 1003.24,-125.08 1011.79,-124.19"/>
<polygon fill="midnightblue" stroke="midnightblue" points="1012.2,-127.66 1021.78,-123.15 1011.47,-120.7 1012.2,-127.66"/>
</g>
<!-- Node13&#45;&gt;Node3 -->
<g id="edge15" class="edge">
<title>Node13&#45;&gt;Node3</title>
<path fill="none" stroke="midnightblue" d="M948.8,-57.57C961.06,-60.28 974.08,-63.46 986,-67 1018.03,-76.52 1053.6,-90.42 1078.3,-100.64"/>
<polygon fill="midnightblue" stroke="midnightblue" points="1076.96,-103.87 1087.53,-104.49 1079.66,-97.41 1076.96,-103.87"/>
</g>
<!-- Node14&#45;&gt;Node3 -->
<g id="edge17" class="edge">
<title>Node14&#45;&gt;Node3</title>
<path fill="none" stroke="midnightblue" d="M971.71,-99.63C984.6,-100.98 998.22,-102.4 1011.66,-103.8"/>
<polygon fill="midnightblue" stroke="midnightblue" points="1011.59,-107.31 1021.9,-104.87 1012.31,-100.35 1011.59,-107.31"/>
</g>
<!-- Node15&#45;&gt;Node13 -->
<g id="edge19" class="edge">
<title>Node15&#45;&gt;Node13</title>
<path fill="none" stroke="midnightblue" d="M364.22,-54.91C478.01,-53.43 681.01,-50.8 800.73,-49.24"/>
<polygon fill="midnightblue" stroke="midnightblue" points="801.03,-52.74 810.98,-49.11 800.94,-45.74 801.03,-52.74"/>
</g>
<!-- Node16 -->
<g id="node16" class="node">
<title>Node16</title>
<g id="a_node16"><a xlink:href="../../d0/de2/a01442.html#a086b90d9d651ac00b80a9b5caa60eb09" target="_top" xlink:title=" ">
<polygon fill="none" stroke="black" points="412,-0.5 412,-19.5 570,-19.5 570,-0.5 412,-0.5"/>
<text text-anchor="middle" x="491" y="-7.5" font-family="Helvetica,sans-Serif" font-size="10.00">com.cliffc.aa.type.Type.meet</text>
</a>
</g>
</g>
<!-- Node15&#45;&gt;Node16 -->
<g id="edge20" class="edge">
<title>Node15&#45;&gt;Node16</title>
<path fill="none" stroke="midnightblue" d="M323.91,-46.47C356.63,-39.28 401.69,-29.39 436.62,-21.72"/>
<polygon fill="midnightblue" stroke="midnightblue" points="437.63,-25.08 446.65,-19.52 436.13,-18.25 437.63,-25.08"/>
</g>
</g>
</svg>
