<?xml version="1.0" encoding="UTF-8" standalone="no"?>
<!DOCTYPE svg PUBLIC "-//W3C//DTD SVG 1.1//EN"
 "http://www.w3.org/Graphics/SVG/1.1/DTD/svg11.dtd">
<!-- Generated by graphviz version 2.43.0 (0)
 -->
<!-- Title: com.cliffc.aa.node.Node.walkerr_def Pages: 1 -->
<svg width="598pt" height="154pt"
 viewBox="0.00 0.00 598.00 154.00" xmlns="http://www.w3.org/2000/svg" xmlns:xlink="http://www.w3.org/1999/xlink">
<g id="graph0" class="graph" transform="scale(1 1) rotate(0) translate(4 150)">
<title>com.cliffc.aa.node.Node.walkerr_def</title>
<!-- Node1 -->
<g id="node1" class="node">
<title>Node1</title>
<g id="a_node1"><a xlink:title=" ">
<polygon fill="#bfbfbf" stroke="black" points="0,-60.5 0,-79.5 194,-79.5 194,-60.5 0,-60.5"/>
<text text-anchor="middle" x="97" y="-67.5" font-family="Helvetica,sans-Serif" font-size="10.00">com.cliffc.aa.node.Node.walkerr_def</text>
</a>
</g>
</g>
<!-- Node1&#45;&gt;Node1 -->
<g id="edge6" class="edge">
<title>Node1&#45;&gt;Node1</title>
<path fill="none" stroke="midnightblue" d="M63.67,-79.61C46.93,-88.46 58.04,-98 97,-98 125.61,-98 139.2,-92.86 137.77,-86.62"/>
<polygon fill="midnightblue" stroke="midnightblue" points="140.01,-83.92 130.33,-79.61 135.21,-89.01 140.01,-83.92"/>
</g>
<!-- Node2 -->
<g id="node2" class="node">
<title>Node2</title>
<g id="a_node2"><a xlink:href="../../df/db5/a01158.html#af8cef31e7e15ca2c1b912728ccb85dee" target="_top" xlink:title=" ">
<polygon fill="none" stroke="black" points="232,-126.5 232,-145.5 401,-145.5 401,-126.5 232,-126.5"/>
<text text-anchor="middle" x="316.5" y="-133.5" font-family="Helvetica,sans-Serif" font-size="10.00">com.cliffc.aa.node.Node.adderr</text>
</a>
</g>
</g>
<!-- Node1&#45;&gt;Node2 -->
<g id="edge1" class="edge">
<title>Node1&#45;&gt;Node2</title>
<path fill="none" stroke="midnightblue" d="M122.04,-79.57C148.27,-89.78 191.66,-105.96 230,-117 238.91,-119.56 248.42,-121.99 257.74,-124.18"/>
<polygon fill="midnightblue" stroke="midnightblue" points="257.22,-127.66 267.75,-126.48 258.79,-120.83 257.22,-127.66"/>
</g>
<!-- Node4 -->
<g id="node4" class="node">
<title>Node4</title>
<g id="a_node4"><a xlink:href="../../df/db5/a01158.html#a97d0187c871a8c81de4696742a9684cb" target="_top" xlink:title=" ">
<polygon fill="none" stroke="black" points="243.5,-77 243.5,-107 389.5,-107 389.5,-77 243.5,-77"/>
<text text-anchor="start" x="251.5" y="-95" font-family="Helvetica,sans-Serif" font-size="10.00">com.cliffc.aa.node.Node.is</text>
<text text-anchor="middle" x="316.5" y="-84" font-family="Helvetica,sans-Serif" font-size="10.00">_forward_ref</text>
</a>
</g>
</g>
<!-- Node1&#45;&gt;Node4 -->
<g id="edge3" class="edge">
<title>Node1&#45;&gt;Node4</title>
<path fill="none" stroke="midnightblue" d="M192.13,-79.52C205.77,-80.9 219.71,-82.31 233.09,-83.66"/>
<polygon fill="midnightblue" stroke="midnightblue" points="232.89,-87.16 243.19,-84.69 233.6,-80.2 232.89,-87.16"/>
</g>
<!-- Node5 -->
<g id="node5" class="node">
<title>Node5</title>
<g id="a_node5"><a xlink:href="../../df/db5/a01158.html#a1885051050eecedbe3143d9cdbcc7118" target="_top" xlink:title=" ">
<polygon fill="none" stroke="black" points="230,-38.5 230,-57.5 403,-57.5 403,-38.5 230,-38.5"/>
<text text-anchor="middle" x="316.5" y="-45.5" font-family="Helvetica,sans-Serif" font-size="10.00">com.cliffc.aa.node.Node.is_prim</text>
</a>
</g>
</g>
<!-- Node1&#45;&gt;Node5 -->
<g id="edge4" class="edge">
<title>Node1&#45;&gt;Node5</title>
<path fill="none" stroke="midnightblue" d="M192.13,-60.48C201.23,-59.56 210.46,-58.63 219.57,-57.7"/>
<polygon fill="midnightblue" stroke="midnightblue" points="220.19,-61.16 229.79,-56.67 219.48,-54.19 220.19,-61.16"/>
</g>
<!-- Node6 -->
<g id="node6" class="node">
<title>Node6</title>
<g id="a_node6"><a xlink:href="../../df/dee/a01646.html#a88ad20daf92e92fe0e3925b23c4fecf0" target="_top" xlink:title=" ">
<polygon fill="none" stroke="black" points="237.5,-0.5 237.5,-19.5 395.5,-19.5 395.5,-0.5 237.5,-0.5"/>
<text text-anchor="middle" x="316.5" y="-7.5" font-family="Helvetica,sans-Serif" font-size="10.00">com.cliffc.aa.util.VBitSet.tset</text>
</a>
</g>
</g>
<!-- Node1&#45;&gt;Node6 -->
<g id="edge5" class="edge">
<title>Node1&#45;&gt;Node6</title>
<path fill="none" stroke="midnightblue" d="M126.38,-60.44C152.98,-51.66 193.94,-38.59 230,-29 239.38,-26.51 249.4,-24.07 259.15,-21.83"/>
<polygon fill="midnightblue" stroke="midnightblue" points="260.2,-25.18 269.18,-19.56 258.66,-18.35 260.2,-25.18"/>
</g>
<!-- Node3 -->
<g id="node3" class="node">
<title>Node3</title>
<g id="a_node3"><a xlink:href="../../df/db5/a01158.html#a830e33efb6eef89f16e030cfdf22aaa1" target="_top" xlink:title=" ">
<polygon fill="none" stroke="black" points="439,-126.5 439,-145.5 590,-145.5 590,-126.5 439,-126.5"/>
<text text-anchor="middle" x="514.5" y="-133.5" font-family="Helvetica,sans-Serif" font-size="10.00">com.cliffc.aa.node.Node.err</text>
</a>
</g>
</g>
<!-- Node2&#45;&gt;Node3 -->
<g id="edge2" class="edge">
<title>Node2&#45;&gt;Node3</title>
<path fill="none" stroke="midnightblue" d="M401.19,-136C410.26,-136 419.5,-136 428.59,-136"/>
<polygon fill="midnightblue" stroke="midnightblue" points="428.76,-139.5 438.76,-136 428.76,-132.5 428.76,-139.5"/>
</g>
</g>
</svg>
