<?xml version="1.0" encoding="UTF-8" standalone="no"?>
<!DOCTYPE svg PUBLIC "-//W3C//DTD SVG 1.1//EN"
 "http://www.w3.org/Graphics/SVG/1.1/DTD/svg11.dtd">
<!-- Generated by graphviz version 2.43.0 (0)
 -->
<!-- Title: com.cliffc.aa.node.Node.xval Pages: 1 -->
<svg width="1148pt" height="78pt"
 viewBox="0.00 0.00 1148.00 77.50" xmlns="http://www.w3.org/2000/svg" xmlns:xlink="http://www.w3.org/1999/xlink">
<g id="graph0" class="graph" transform="scale(1 1) rotate(0) translate(4 73.5)">
<title>com.cliffc.aa.node.Node.xval</title>
<!-- Node1 -->
<g id="node1" class="node">
<title>Node1</title>
<g id="a_node1"><a xlink:title=" ">
<polygon fill="#bfbfbf" stroke="black" points="0,-22.5 0,-41.5 158,-41.5 158,-22.5 0,-22.5"/>
<text text-anchor="middle" x="79" y="-29.5" font-family="Helvetica,sans-Serif" font-size="10.00">com.cliffc.aa.node.Node.xval</text>
</a>
</g>
</g>
<!-- Node2 -->
<g id="node2" class="node">
<title>Node2</title>
<g id="a_node2"><a xlink:href="../../d9/d0a/a00390.html#af9419887ce8c6743e7281422d35c698e" target="_top" xlink:title=" ">
<polygon fill="none" stroke="black" points="202,-39 202,-69 350,-69 350,-39 202,-39"/>
<text text-anchor="start" x="210" y="-57" font-family="Helvetica,sans-Serif" font-size="10.00">com.cliffc.aa.GVNGCM.add</text>
<text text-anchor="middle" x="276" y="-46" font-family="Helvetica,sans-Serif" font-size="10.00">_flow_uses</text>
</a>
</g>
</g>
<!-- Node1&#45;&gt;Node2 -->
<g id="edge1" class="edge">
<title>Node1&#45;&gt;Node2</title>
<path fill="none" stroke="midnightblue" d="M158.19,-40.82C169.22,-42.07 180.6,-43.35 191.72,-44.6"/>
<polygon fill="midnightblue" stroke="midnightblue" points="191.52,-48.1 201.85,-45.75 192.31,-41.15 191.52,-48.1"/>
</g>
<!-- Node7 -->
<g id="node7" class="node">
<title>Node7</title>
<g id="a_node7"><a xlink:href="../../df/db5/a01158.html#a05828b3784b2a2ac2314784214f662fd" target="_top" xlink:title=" ">
<polygon fill="none" stroke="black" points="194,-0.5 194,-19.5 358,-19.5 358,-0.5 194,-0.5"/>
<text text-anchor="middle" x="276" y="-7.5" font-family="Helvetica,sans-Serif" font-size="10.00">com.cliffc.aa.node.Node.value</text>
</a>
</g>
</g>
<!-- Node1&#45;&gt;Node7 -->
<g id="edge6" class="edge">
<title>Node1&#45;&gt;Node7</title>
<path fill="none" stroke="midnightblue" d="M158.19,-23.18C166.64,-22.22 175.3,-21.25 183.89,-20.28"/>
<polygon fill="midnightblue" stroke="midnightblue" points="184.38,-23.75 193.92,-19.15 183.59,-16.79 184.38,-23.75"/>
</g>
<!-- Node3 -->
<g id="node3" class="node">
<title>Node3</title>
<g id="a_node3"><a xlink:href="../../d9/d0a/a00390.html#aa4af00d73c9e87a3a5723f8dca5a4415" target="_top" xlink:title=" ">
<polygon fill="none" stroke="black" points="394,-39 394,-69 542,-69 542,-39 394,-39"/>
<text text-anchor="start" x="402" y="-57" font-family="Helvetica,sans-Serif" font-size="10.00">com.cliffc.aa.GVNGCM.add</text>
<text text-anchor="middle" x="468" y="-46" font-family="Helvetica,sans-Serif" font-size="10.00">_work_uses</text>
</a>
</g>
</g>
<!-- Node2&#45;&gt;Node3 -->
<g id="edge2" class="edge">
<title>Node2&#45;&gt;Node3</title>
<path fill="none" stroke="midnightblue" d="M350.19,-54C361.15,-54 372.53,-54 383.68,-54"/>
<polygon fill="midnightblue" stroke="midnightblue" points="383.85,-57.5 393.85,-54 383.85,-50.5 383.85,-57.5"/>
</g>
<!-- Node4 -->
<g id="node4" class="node">
<title>Node4</title>
<g id="a_node4"><a xlink:href="../../d9/d0a/a00390.html#a6074ca566ae10e746122ac8d09239d02" target="_top" xlink:title=" ">
<polygon fill="none" stroke="black" points="578,-44.5 578,-63.5 755,-63.5 755,-44.5 578,-44.5"/>
<text text-anchor="middle" x="666.5" y="-51.5" font-family="Helvetica,sans-Serif" font-size="10.00">com.cliffc.aa.GVNGCM.add_work</text>
</a>
</g>
</g>
<!-- Node3&#45;&gt;Node4 -->
<g id="edge3" class="edge">
<title>Node3&#45;&gt;Node4</title>
<path fill="none" stroke="midnightblue" d="M542.17,-54C550.56,-54 559.21,-54 567.86,-54"/>
<polygon fill="midnightblue" stroke="midnightblue" points="567.99,-57.5 577.99,-54 567.99,-50.5 567.99,-57.5"/>
</g>
<!-- Node5 -->
<g id="node5" class="node">
<title>Node5</title>
<g id="a_node5"><a xlink:href="../../d6/d2f/a01394.html#acc21c59313a6ce5c286431fd2d4fd891" target="_top" xlink:title=" ">
<polygon fill="none" stroke="black" points="791,-44.5 791,-63.5 946,-63.5 946,-44.5 791,-44.5"/>
<text text-anchor="middle" x="868.5" y="-51.5" font-family="Helvetica,sans-Serif" font-size="10.00">com.cliffc.aa.node.Work.add</text>
</a>
</g>
</g>
<!-- Node4&#45;&gt;Node5 -->
<g id="edge4" class="edge">
<title>Node4&#45;&gt;Node5</title>
<path fill="none" stroke="midnightblue" d="M755.22,-54C763.65,-54 772.2,-54 780.63,-54"/>
<polygon fill="midnightblue" stroke="midnightblue" points="780.82,-57.5 790.82,-54 780.82,-50.5 780.82,-57.5"/>
</g>
<!-- Node6 -->
<g id="node6" class="node">
<title>Node6</title>
<g id="a_node6"><a xlink:href="../../df/dee/a01646.html#a88ad20daf92e92fe0e3925b23c4fecf0" target="_top" xlink:title=" ">
<polygon fill="none" stroke="black" points="982,-44.5 982,-63.5 1140,-63.5 1140,-44.5 982,-44.5"/>
<text text-anchor="middle" x="1061" y="-51.5" font-family="Helvetica,sans-Serif" font-size="10.00">com.cliffc.aa.util.VBitSet.tset</text>
</a>
</g>
</g>
<!-- Node5&#45;&gt;Node6 -->
<g id="edge5" class="edge">
<title>Node5&#45;&gt;Node6</title>
<path fill="none" stroke="midnightblue" d="M946.16,-54C954.63,-54 963.31,-54 971.9,-54"/>
<polygon fill="midnightblue" stroke="midnightblue" points="971.94,-57.5 981.94,-54 971.94,-50.5 971.94,-57.5"/>
</g>
</g>
</svg>
