<?xml version="1.0" encoding="UTF-8" standalone="no"?>
<!DOCTYPE svg PUBLIC "-//W3C//DTD SVG 1.1//EN"
 "http://www.w3.org/Graphics/SVG/1.1/DTD/svg11.dtd">
<!-- Generated by graphviz version 2.43.0 (0)
 -->
<!-- Title: com.cliffc.aa.node.Node.is_copy Pages: 1 -->
<!--zoomable 719 -->
<svg id="main" version="1.1" xmlns="http://www.w3.org/2000/svg" xmlns:xlink="http://www.w3.org/1999/xlink" xml:space="preserve" onload="init(evt)">
<style type="text/css"><![CDATA[
.edge:hover path { stroke: red; }
.edge:hover polygon { stroke: red; fill: red; }
]]></style>
<script type="text/javascript"><![CDATA[
var edges = document.getElementsByTagName('g');
if (edges && edges.length) {
  for (var i=0;i<edges.length;i++) {
    if (edges[i].id.substr(0,4)=='edge') {
      edges[i].setAttribute('class','edge');
    }
  }
}
]]></script>
        <defs>
                <circle id="rim" cx="0" cy="0" r="7"/>
                <circle id="rim2" cx="0" cy="0" r="3.5"/>
                <g id="zoomPlus">
                        <use xlink:href="#rim" fill="#404040">
                                <set attributeName="fill" to="#808080" begin="zoomplus.mouseover" end="zoomplus.mouseout"/>
                        </use>
                        <path d="M-4,0h8M0,-4v8" fill="none" stroke="white" stroke-width="1.5" pointer-events="none"/>
                </g>
                <g id="zoomMin">
                        <use xlink:href="#rim" fill="#404040">
                                <set attributeName="fill" to="#808080" begin="zoomminus.mouseover" end="zoomminus.mouseout"/>
                        </use>
                        <path d="M-4,0h8" fill="none" stroke="white" stroke-width="1.5" pointer-events="none"/>
                </g>
                <g id="dirArrow">
                        <path fill="none" stroke="white" stroke-width="1.5" d="M0,-3.0v7 M-2.5,-0.5L0,-3.0L2.5,-0.5"/>
                </g>
               <g id="resetDef">
                       <use xlink:href="#rim2" fill="#404040">
                               <set attributeName="fill" to="#808080" begin="reset.mouseover" end="reset.mouseout"/>
                       </use>
               </g>
        </defs>

<script type="text/javascript">
var viewWidth = 2063;
var viewHeight = 719;
var sectionId = 'dynsection-65';
</script>
<script xlink:href="../../svgpan.js"/>
<svg id="graph" class="graph">
<g id="viewport">
<title>com.cliffc.aa.node.Node.is_copy</title>
<!-- Node1 -->
<g id="node1" class="node">
<title>Node1</title>
<g id="a_node1"><a xlink:title=" ">
<polygon fill="#bfbfbf" stroke="black" points="1881,-202 1881,-221 2055,-221 2055,-202 1881,-202"/>
<text text-anchor="middle" x="1968" y="-209" font-family="Helvetica,sans-Serif" font-size="10.00">com.cliffc.aa.node.Node.is_copy</text>
</a>
</g>
</g>
<!-- Node2 -->
<g id="node2" class="node">
<title>Node2</title>
<g id="a_node2"><a xlink:href="../../da/de3/a01398.html#aa40dcde3dd2de1189f636cf5e5e865c7" target="_top" xlink:title=" ">
<polygon fill="none" stroke="black" points="1690.5,-392.5 1690.5,-422.5 1813.5,-422.5 1813.5,-392.5 1690.5,-392.5"/>
<text text-anchor="start" x="1698.5" y="-410.5" font-family="Helvetica,sans-Serif" font-size="10.00">com.cliffc.aa.Parse.do</text>
<text text-anchor="middle" x="1752" y="-399.5" font-family="Helvetica,sans-Serif" font-size="10.00">_call0</text>
</a>
</g>
</g>
<!-- Node1&#45;&gt;Node2 -->
<g id="edge1" class="edge">
<title>Node1&#45;&gt;Node2</title>
<path fill="none" stroke="midnightblue" d="M1958.95,-230.19C1942.75,-265.55 1902.75,-342.29 1845,-382.5 1835.63,-389.03 1824.62,-393.85 1813.55,-397.42"/>
<polygon fill="midnightblue" stroke="midnightblue" points="1962.17,-231.56 1963.05,-221 1955.78,-228.71 1962.17,-231.56"/>
</g>
<!-- Node18 -->
<g id="node18" class="node">
<title>Node18</title>
<g id="a_node18"><a xlink:href="../../da/d61/a01350.html#a40fc717d3b8f792d9b91d09337ba742b" target="_top" xlink:title=" ">
<polygon fill="none" stroke="black" points="1680.5,-343.5 1680.5,-373.5 1823.5,-373.5 1823.5,-343.5 1680.5,-343.5"/>
<text text-anchor="start" x="1688.5" y="-361.5" font-family="Helvetica,sans-Serif" font-size="10.00">com.cliffc.aa.node.Region</text>
<text text-anchor="middle" x="1752" y="-350.5" font-family="Helvetica,sans-Serif" font-size="10.00">Node.ideal_reduce</text>
</a>
</g>
</g>
<!-- Node1&#45;&gt;Node18 -->
<g id="edge29" class="edge">
<title>Node1&#45;&gt;Node18</title>
<path fill="none" stroke="midnightblue" d="M1954.26,-229.17C1934.11,-255.82 1892.26,-306.1 1845,-333.5 1838.41,-337.32 1831.22,-340.57 1823.86,-343.34"/>
<polygon fill="midnightblue" stroke="midnightblue" points="1957.1,-231.22 1960.24,-221.1 1951.47,-227.05 1957.1,-231.22"/>
</g>
<!-- Node19 -->
<g id="node19" class="node">
<title>Node19</title>
<g id="a_node19"><a xlink:href="../../da/d17/a01046.html#a57a15ff483bf3f1ad491b071462cdc8a" target="_top" xlink:title=" ">
<polygon fill="none" stroke="black" points="1684.5,-294.5 1684.5,-324.5 1819.5,-324.5 1819.5,-294.5 1684.5,-294.5"/>
<text text-anchor="start" x="1692.5" y="-312.5" font-family="Helvetica,sans-Serif" font-size="10.00">com.cliffc.aa.node.Fresh</text>
<text text-anchor="middle" x="1752" y="-301.5" font-family="Helvetica,sans-Serif" font-size="10.00">Node.ideal_reduce</text>
</a>
</g>
</g>
<!-- Node1&#45;&gt;Node19 -->
<g id="edge30" class="edge">
<title>Node1&#45;&gt;Node19</title>
<path fill="none" stroke="midnightblue" d="M1945.51,-226.85C1921.86,-243.14 1882.26,-268.65 1845,-284.5 1836.32,-288.19 1826.94,-291.48 1817.61,-294.36"/>
<polygon fill="midnightblue" stroke="midnightblue" points="1947.55,-229.7 1953.75,-221.11 1943.54,-223.96 1947.55,-229.7"/>
</g>
<!-- Node20 -->
<g id="node20" class="node">
<title>Node20</title>
<g id="a_node20"><a xlink:href="../../d0/d56/a01014.html#a2988b77ec1c93df6d0d1d3c557397dbe" target="_top" xlink:title=" ">
<polygon fill="none" stroke="black" points="1660.5,-245.5 1660.5,-275.5 1843.5,-275.5 1843.5,-245.5 1660.5,-245.5"/>
<text text-anchor="start" x="1668.5" y="-263.5" font-family="Helvetica,sans-Serif" font-size="10.00">com.cliffc.aa.node.CastNode.ideal</text>
<text text-anchor="middle" x="1752" y="-252.5" font-family="Helvetica,sans-Serif" font-size="10.00">_reduce</text>
</a>
</g>
</g>
<!-- Node1&#45;&gt;Node20 -->
<g id="edge31" class="edge">
<title>Node1&#45;&gt;Node20</title>
<path fill="none" stroke="midnightblue" d="M1915.55,-223.28C1886.52,-229.93 1849.93,-238.31 1818.82,-245.43"/>
<polygon fill="midnightblue" stroke="midnightblue" points="1916.52,-226.65 1925.48,-221.01 1914.96,-219.83 1916.52,-226.65"/>
</g>
<!-- Node21 -->
<g id="node21" class="node">
<title>Node21</title>
<g id="a_node21"><a xlink:href="../../d9/de4/a01346.html#aead3fb3f0e68852ca53041cc31c5b233" target="_top" xlink:title=" ">
<polygon fill="none" stroke="black" points="1662,-196.5 1662,-226.5 1842,-226.5 1842,-196.5 1662,-196.5"/>
<text text-anchor="start" x="1670" y="-214.5" font-family="Helvetica,sans-Serif" font-size="10.00">com.cliffc.aa.node.ProjNode.ideal</text>
<text text-anchor="middle" x="1752" y="-203.5" font-family="Helvetica,sans-Serif" font-size="10.00">_reduce</text>
</a>
</g>
</g>
<!-- Node1&#45;&gt;Node21 -->
<g id="edge32" class="edge">
<title>Node1&#45;&gt;Node21</title>
<path fill="none" stroke="midnightblue" d="M1870.63,-211.5C1861.13,-211.5 1851.51,-211.5 1842.08,-211.5"/>
<polygon fill="midnightblue" stroke="midnightblue" points="1870.88,-215 1880.88,-211.5 1870.88,-208 1870.88,-215"/>
</g>
<!-- Node22 -->
<g id="node22" class="node">
<title>Node22</title>
<g id="a_node22"><a xlink:href="../../d4/dbc/a01038.html#a3dcb3257c4c0fa6568dd26a5dcdd38c3" target="_top" xlink:title=" ">
<polygon fill="none" stroke="black" points="1664.5,-147.5 1664.5,-177.5 1839.5,-177.5 1839.5,-147.5 1664.5,-147.5"/>
<text text-anchor="start" x="1672.5" y="-165.5" font-family="Helvetica,sans-Serif" font-size="10.00">com.cliffc.aa.node.ErrNode.ideal</text>
<text text-anchor="middle" x="1752" y="-154.5" font-family="Helvetica,sans-Serif" font-size="10.00">_reduce</text>
</a>
</g>
</g>
<!-- Node1&#45;&gt;Node22 -->
<g id="edge33" class="edge">
<title>Node1&#45;&gt;Node22</title>
<path fill="none" stroke="midnightblue" d="M1915.55,-199.72C1886.52,-193.07 1849.93,-184.69 1818.82,-177.57"/>
<polygon fill="midnightblue" stroke="midnightblue" points="1914.96,-203.17 1925.48,-201.99 1916.52,-196.35 1914.96,-203.17"/>
</g>
<!-- Node23 -->
<g id="node23" class="node">
<title>Node23</title>
<g id="a_node23"><a xlink:href="../../d3/dc7/a01170.html#adf192eb33451d04f45ba43f20147ffcd" target="_top" xlink:title=" ">
<polygon fill="none" stroke="black" points="1659,-98.5 1659,-128.5 1845,-128.5 1845,-98.5 1659,-98.5"/>
<text text-anchor="start" x="1667" y="-116.5" font-family="Helvetica,sans-Serif" font-size="10.00">com.cliffc.aa.node.ParmNode.ideal</text>
<text text-anchor="middle" x="1752" y="-105.5" font-family="Helvetica,sans-Serif" font-size="10.00">_reduce</text>
</a>
</g>
</g>
<!-- Node1&#45;&gt;Node23 -->
<g id="edge34" class="edge">
<title>Node1&#45;&gt;Node23</title>
<path fill="none" stroke="midnightblue" d="M1945.95,-196.11C1922.41,-179.54 1882.63,-153.42 1845,-137.5 1837.09,-134.16 1828.61,-131.18 1820.09,-128.56"/>
<polygon fill="midnightblue" stroke="midnightblue" points="1943.97,-199 1954.14,-201.95 1948.03,-193.3 1943.97,-199"/>
</g>
<!-- Node24 -->
<g id="node24" class="node">
<title>Node24</title>
<g id="a_node24"><a xlink:href="../../de/d5c/a01358.html#a7836d89732c1e9da7c8a6ff336d07910" target="_top" xlink:title=" ">
<polygon fill="none" stroke="black" points="1683,-49.5 1683,-79.5 1821,-79.5 1821,-49.5 1683,-49.5"/>
<text text-anchor="start" x="1691" y="-67.5" font-family="Helvetica,sans-Serif" font-size="10.00">com.cliffc.aa.node.Scope</text>
<text text-anchor="middle" x="1752" y="-56.5" font-family="Helvetica,sans-Serif" font-size="10.00">Node.ideal_reduce</text>
</a>
</g>
</g>
<!-- Node1&#45;&gt;Node24 -->
<g id="edge35" class="edge">
<title>Node1&#45;&gt;Node24</title>
<path fill="none" stroke="midnightblue" d="M1954.33,-193.62C1934.26,-166.67 1892.54,-115.87 1845,-88.5 1837.7,-84.3 1829.66,-80.82 1821.47,-77.94"/>
<polygon fill="midnightblue" stroke="midnightblue" points="1951.56,-195.77 1960.28,-201.78 1957.22,-191.64 1951.56,-195.77"/>
</g>
<!-- Node25 -->
<g id="node25" class="node">
<title>Node25</title>
<g id="a_node25"><a xlink:href="../../d0/d2b/a01010.html#aef07a2283d73f9f60f0215af08389efb" target="_top" xlink:title=" ">
<polygon fill="none" stroke="black" points="1662,-0.5 1662,-30.5 1842,-30.5 1842,-0.5 1662,-0.5"/>
<text text-anchor="start" x="1670" y="-18.5" font-family="Helvetica,sans-Serif" font-size="10.00">com.cliffc.aa.node.CallNode.ideal</text>
<text text-anchor="middle" x="1752" y="-7.5" font-family="Helvetica,sans-Serif" font-size="10.00">_reduce</text>
</a>
</g>
</g>
<!-- Node1&#45;&gt;Node25 -->
<g id="edge36" class="edge">
<title>Node1&#45;&gt;Node25</title>
<path fill="none" stroke="midnightblue" d="M1959.02,-192.65C1942.94,-156.99 1903.12,-79.65 1845,-39.5 1839.97,-36.03 1834.48,-33.06 1828.76,-30.52"/>
<polygon fill="midnightblue" stroke="midnightblue" points="1955.86,-194.16 1963.09,-201.91 1962.27,-191.35 1955.86,-194.16"/>
</g>
<!-- Node3 -->
<g id="node3" class="node">
<title>Node3</title>
<g id="a_node3"><a xlink:href="../../da/de3/a01398.html#a4a886c4ada30f2e32e70151037fd7118" target="_top" xlink:title=" ">
<polygon fill="none" stroke="black" points="1477,-455 1477,-474 1623,-474 1623,-455 1477,-455"/>
<text text-anchor="middle" x="1550" y="-462" font-family="Helvetica,sans-Serif" font-size="10.00">com.cliffc.aa.Parse.do_call</text>
</a>
</g>
</g>
<!-- Node2&#45;&gt;Node3 -->
<g id="edge2" class="edge">
<title>Node2&#45;&gt;Node3</title>
<path fill="none" stroke="midnightblue" d="M1688.25,-425.38C1653.96,-435.16 1612.84,-446.88 1584.6,-454.92"/>
<polygon fill="midnightblue" stroke="midnightblue" points="1689.53,-428.66 1698.19,-422.55 1687.61,-421.93 1689.53,-428.66"/>
</g>
<!-- Node13 -->
<g id="node13" class="node">
<title>Node13</title>
<g id="a_node13"><a xlink:href="../../da/de3/a01398.html#ab502dae0cf2cae3c0ade2422e579fce2" target="_top" xlink:title="Any number field&#45;lookups or function applications, then an optional assignment term = id++ | id– term...">
<polygon fill="none" stroke="black" points="451.5,-436 451.5,-455 585.5,-455 585.5,-436 451.5,-436"/>
<text text-anchor="middle" x="518.5" y="-443" font-family="Helvetica,sans-Serif" font-size="10.00">com.cliffc.aa.Parse.term</text>
</a>
</g>
</g>
<!-- Node2&#45;&gt;Node13 -->
<g id="edge28" class="edge">
<title>Node2&#45;&gt;Node13</title>
<path fill="none" stroke="midnightblue" d="M1680.33,-390.38C1604.74,-373.59 1481.13,-350.5 1373,-350.5 1373,-350.5 1373,-350.5 858,-350.5 753.66,-350.5 721.84,-333.24 624,-369.5 584.03,-384.31 545.83,-419 528.79,-435.9"/>
<polygon fill="midnightblue" stroke="midnightblue" points="1679.69,-393.82 1690.21,-392.6 1681.22,-386.99 1679.69,-393.82"/>
</g>
<!-- Node4 -->
<g id="node4" class="node">
<title>Node4</title>
<g id="a_node4"><a xlink:href="../../da/de3/a01398.html#ac81c4d62901080f0883b0e984f7f0062" target="_top" xlink:title=" ">
<polygon fill="none" stroke="black" points="1303,-593 1303,-612 1441,-612 1441,-593 1303,-593"/>
<text text-anchor="middle" x="1372" y="-600" font-family="Helvetica,sans-Serif" font-size="10.00">com.cliffc.aa.Parse._expr</text>
</a>
</g>
</g>
<!-- Node3&#45;&gt;Node4 -->
<g id="edge3" class="edge">
<title>Node3&#45;&gt;Node4</title>
<path fill="none" stroke="midnightblue" d="M1530.24,-480.91C1508.99,-499.32 1473.13,-529.83 1441,-554.5 1422.89,-568.4 1401.23,-583.43 1387.3,-592.9"/>
<polygon fill="midnightblue" stroke="midnightblue" points="1532.64,-483.47 1537.89,-474.26 1528.05,-478.18 1532.64,-483.47"/>
</g>
<!-- Node7 -->
<g id="node7" class="node">
<title>Node7</title>
<g id="a_node7"><a xlink:href="../../da/de3/a01398.html#ade4bf32252a86275a1ec393dea94ed6f" target="_top" xlink:title=" ">
<polygon fill="none" stroke="black" points="0,-630.5 0,-660.5 111,-660.5 111,-630.5 0,-630.5"/>
<text text-anchor="start" x="8" y="-648.5" font-family="Helvetica,sans-Serif" font-size="10.00">com.cliffc.aa.Parse.</text>
<text text-anchor="middle" x="55.5" y="-637.5" font-family="Helvetica,sans-Serif" font-size="10.00">_short_circuit_expr</text>
</a>
</g>
</g>
<!-- Node3&#45;&gt;Node7 -->
<g id="edge19" class="edge">
<title>Node3&#45;&gt;Node7</title>
<path fill="none" stroke="midnightblue" d="M1540.71,-483.45C1525.53,-516.1 1490.21,-583.15 1441,-621.5 1351.43,-691.3 1315.06,-710.5 1201.5,-710.5 1201.5,-710.5 1201.5,-710.5 356.5,-710.5 262.71,-710.5 156.08,-679.78 98.6,-660.58"/>
<polygon fill="midnightblue" stroke="midnightblue" points="1544,-484.69 1544.93,-474.13 1537.62,-481.8 1544,-484.69"/>
</g>
<!-- Node9 -->
<g id="node9" class="node">
<title>Node9</title>
<g id="a_node9"><a xlink:href="../../da/de3/a01398.html#a6e92b63110e4ed2e5bf7533656730f3f" target="_top" xlink:title="Parse a lisp&#45;like function application.">
<polygon fill="none" stroke="black" points="960,-531 960,-550 1098,-550 1098,-531 960,-531"/>
<text text-anchor="middle" x="1029" y="-538" font-family="Helvetica,sans-Serif" font-size="10.00">com.cliffc.aa.Parse.apply</text>
</a>
</g>
</g>
<!-- Node3&#45;&gt;Node9 -->
<g id="edge20" class="edge">
<title>Node3&#45;&gt;Node9</title>
<path fill="none" stroke="midnightblue" d="M1474.14,-475.46C1372.24,-490.38 1191.53,-516.85 1095.01,-530.98"/>
<polygon fill="midnightblue" stroke="midnightblue" points="1474.67,-478.92 1484.06,-474.01 1473.65,-472 1474.67,-478.92"/>
</g>
<!-- Node3&#45;&gt;Node13 -->
<g id="edge27" class="edge">
<title>Node3&#45;&gt;Node13</title>
<path fill="none" stroke="midnightblue" d="M1485.4,-453.34C1415.9,-442.13 1301.14,-426.5 1201.5,-426.5 1201.5,-426.5 1201.5,-426.5 858,-426.5 763.24,-426.5 653.78,-434.01 585.6,-439.59"/>
<polygon fill="midnightblue" stroke="midnightblue" points="1484.89,-456.8 1495.32,-454.96 1486.02,-449.89 1484.89,-456.8"/>
</g>
<!-- Node14 -->
<g id="node14" class="node">
<title>Node14</title>
<g id="a_node14"><a xlink:href="../../da/de3/a01398.html#a4190f8505e784622f1976492ded413fa" target="_top" xlink:title="A balanced operator as a fact().">
<polygon fill="none" stroke="black" points="1304,-379 1304,-398 1440,-398 1440,-379 1304,-379"/>
<text text-anchor="middle" x="1372" y="-386" font-family="Helvetica,sans-Serif" font-size="10.00">com.cliffc.aa.Parse.bfact</text>
</a>
</g>
</g>
<!-- Node3&#45;&gt;Node14 -->
<g id="edge21" class="edge">
<title>Node3&#45;&gt;Node14</title>
<path fill="none" stroke="midnightblue" d="M1521.62,-450.29C1500.01,-439.33 1468.95,-424.12 1441,-412.5 1428.52,-407.31 1414.46,-402.23 1402.39,-398.09"/>
<polygon fill="midnightblue" stroke="midnightblue" points="1520.05,-453.42 1530.55,-454.85 1523.24,-447.19 1520.05,-453.42"/>
</g>
<!-- Node17 -->
<g id="node17" class="node">
<title>Node17</title>
<g id="a_node17"><a xlink:href="../../da/de3/a01398.html#ac627d3aaaed60f3d4a68bc4431dba21e" target="_top" xlink:title=" ">
<polygon fill="none" stroke="black" points="796.5,-455 796.5,-474 921.5,-474 921.5,-455 796.5,-455"/>
<text text-anchor="middle" x="859" y="-462" font-family="Helvetica,sans-Serif" font-size="10.00">com.cliffc.aa.Parse.inc</text>
</a>
</g>
</g>
<!-- Node3&#45;&gt;Node17 -->
<g id="edge25" class="edge">
<title>Node3&#45;&gt;Node17</title>
<path fill="none" stroke="midnightblue" d="M1466.66,-464.5C1326.77,-464.5 1045.8,-464.5 921.53,-464.5"/>
<polygon fill="midnightblue" stroke="midnightblue" points="1466.89,-468 1476.89,-464.5 1466.89,-461 1466.89,-468"/>
</g>
<!-- Node5 -->
<g id="node5" class="node">
<title>Node5</title>
<g id="a_node5"><a xlink:href="../../da/de3/a01398.html#a6397933ff168ada64e7209d9c82122de" target="_top" xlink:title=" ">
<polygon fill="none" stroke="black" points="302,-610.5 302,-640.5 413,-640.5 413,-610.5 302,-610.5"/>
<text text-anchor="start" x="310" y="-628.5" font-family="Helvetica,sans-Serif" font-size="10.00">com.cliffc.aa.Parse.</text>
<text text-anchor="middle" x="357.5" y="-617.5" font-family="Helvetica,sans-Serif" font-size="10.00">_expr_higher</text>
</a>
</g>
</g>
<!-- Node4&#45;&gt;Node5 -->
<g id="edge4" class="edge">
<title>Node4&#45;&gt;Node5</title>
<path fill="none" stroke="midnightblue" d="M1292.48,-603.69C1223.43,-608.4 1120.16,-616.5 1030,-616.5 1030,-616.5 1030,-616.5 690,-616.5 592.45,-616.5 478.75,-616.5 413.05,-619.11"/>
<polygon fill="midnightblue" stroke="midnightblue" points="1293.09,-607.16 1302.83,-603 1292.62,-600.17 1293.09,-607.16"/>
</g>
<!-- Node8 -->
<g id="node8" class="node">
<title>Node8</title>
<g id="a_node8"><a xlink:href="../../da/de3/a01398.html#af41d3ed90c69faf4279701b6aa98bd3a" target="_top" xlink:title="Parse an expression, a series of terms separated by binary operators.">
<polygon fill="none" stroke="black" points="1134,-569 1134,-588 1267,-588 1267,-569 1134,-569"/>
<text text-anchor="middle" x="1200.5" y="-576" font-family="Helvetica,sans-Serif" font-size="10.00">com.cliffc.aa.Parse.expr</text>
</a>
</g>
</g>
<!-- Node4&#45;&gt;Node8 -->
<g id="edge10" class="edge">
<title>Node4&#45;&gt;Node8</title>
<path fill="none" stroke="midnightblue" d="M1293.59,-591.54C1284.73,-590.29 1275.77,-589.02 1267.09,-587.79"/>
<polygon fill="midnightblue" stroke="midnightblue" points="1293.13,-595.01 1303.52,-592.95 1294.11,-588.08 1293.13,-595.01"/>
</g>
<!-- Node5&#45;&gt;Node4 -->
<g id="edge5" class="edge">
<title>Node5&#45;&gt;Node4</title>
<path fill="none" stroke="midnightblue" d="M423.43,-632.27C490.26,-634.5 597.4,-634.5 690,-634.5 1030,-634.5 1030,-634.5 1030,-634.5 1141.25,-634.5 1272.47,-622.16 1334.72,-612.02"/>
<polygon fill="midnightblue" stroke="midnightblue" points="423.17,-628.75 413.05,-631.89 422.92,-635.75 423.17,-628.75"/>
</g>
<!-- Node6 -->
<g id="node6" class="node">
<title>Node6</title>
<g id="a_node6"><a xlink:href="../../da/de3/a01398.html#a58b0dba4e9b60d9e9639eea530b6077b" target="_top" xlink:title=" ">
<polygon fill="none" stroke="black" points="147,-630.5 147,-660.5 266,-660.5 266,-630.5 147,-630.5"/>
<text text-anchor="start" x="155" y="-648.5" font-family="Helvetica,sans-Serif" font-size="10.00">com.cliffc.aa.Parse.</text>
<text text-anchor="middle" x="206.5" y="-637.5" font-family="Helvetica,sans-Serif" font-size="10.00">_expr_higher_require</text>
</a>
</g>
</g>
<!-- Node5&#45;&gt;Node6 -->
<g id="edge6" class="edge">
<title>Node5&#45;&gt;Node6</title>
<path fill="none" stroke="midnightblue" d="M291.92,-634.17C283.35,-635.32 274.6,-636.49 266.14,-637.63"/>
<polygon fill="midnightblue" stroke="midnightblue" points="292.42,-637.63 301.86,-632.83 291.49,-630.7 292.42,-637.63"/>
</g>
<!-- Node6&#45;&gt;Node4 -->
<g id="edge7" class="edge">
<title>Node6&#45;&gt;Node4</title>
<path fill="none" stroke="midnightblue" d="M276.39,-654.95C339.11,-662.74 434.34,-672.5 517.5,-672.5 1030,-672.5 1030,-672.5 1030,-672.5 1136.29,-672.5 1163.81,-666 1267,-640.5 1296.11,-633.31 1328.36,-620.77 1349.12,-612.07"/>
<polygon fill="midnightblue" stroke="midnightblue" points="276.58,-651.45 266.22,-653.67 275.7,-658.4 276.58,-651.45"/>
</g>
<!-- Node6&#45;&gt;Node7 -->
<g id="edge8" class="edge">
<title>Node6&#45;&gt;Node7</title>
<path fill="none" stroke="midnightblue" d="M136.35,-645.5C127.87,-645.5 119.3,-645.5 111.08,-645.5"/>
<polygon fill="midnightblue" stroke="midnightblue" points="136.61,-649 146.61,-645.5 136.61,-642 136.61,-649"/>
</g>
<!-- Node7&#45;&gt;Node4 -->
<g id="edge9" class="edge">
<title>Node7&#45;&gt;Node4</title>
<path fill="none" stroke="midnightblue" d="M81.59,-623.98C130.81,-584.04 244.96,-502.5 356.5,-502.5 1030,-502.5 1030,-502.5 1030,-502.5 1157.71,-502.5 1301.84,-567.88 1352.34,-592.91"/>
<polygon fill="midnightblue" stroke="midnightblue" points="79.21,-621.41 73.71,-630.47 83.66,-626.81 79.21,-621.41"/>
</g>
<!-- Node8&#45;&gt;Node9 -->
<g id="edge11" class="edge">
<title>Node8&#45;&gt;Node9</title>
<path fill="none" stroke="midnightblue" d="M1146.76,-566.68C1122.86,-561.32 1094.98,-555.07 1072.46,-550.02"/>
<polygon fill="midnightblue" stroke="midnightblue" points="1146.2,-570.14 1156.73,-568.91 1147.74,-563.31 1146.2,-570.14"/>
</g>
<!-- Node10 -->
<g id="node10" class="node">
<title>Node10</title>
<g id="a_node10"><a xlink:href="../../da/de3/a01398.html#a5e1b4411da5e7400c4fc45d4b3dbd795" target="_top" xlink:title="Parse an if&#45;expression, with lazy eval on the branches.">
<polygon fill="none" stroke="black" points="794,-531 794,-550 924,-550 924,-531 794,-531"/>
<text text-anchor="middle" x="859" y="-538" font-family="Helvetica,sans-Serif" font-size="10.00">com.cliffc.aa.Parse.ifex</text>
</a>
</g>
</g>
<!-- Node8&#45;&gt;Node10 -->
<g id="edge18" class="edge">
<title>Node8&#45;&gt;Node10</title>
<path fill="none" stroke="midnightblue" d="M1123.83,-574.61C1076.6,-571.65 1014.59,-566.83 960,-559.5 941.78,-557.05 921.87,-553.46 904.63,-550.05"/>
<polygon fill="midnightblue" stroke="midnightblue" points="1123.79,-578.11 1133.99,-575.23 1124.22,-571.12 1123.79,-578.11"/>
</g>
<!-- Node9&#45;&gt;Node10 -->
<g id="edge12" class="edge">
<title>Node9&#45;&gt;Node10</title>
<path fill="none" stroke="midnightblue" d="M949.42,-540.5C940.98,-540.5 932.45,-540.5 924.2,-540.5"/>
<polygon fill="midnightblue" stroke="midnightblue" points="949.67,-544 959.67,-540.5 949.67,-537 949.67,-544"/>
</g>
<!-- Node11 -->
<g id="node11" class="node">
<title>Node11</title>
<g id="a_node11"><a xlink:href="../../da/de3/a01398.html#a2a5934e98ffa96d31e2135ab66c7e796" target="_top" xlink:title="A statement is a list of variables to final&#45;assign or re&#45;assign, and an ifex for the value.">
<polygon fill="none" stroke="black" points="624,-531 624,-550 758,-550 758,-531 624,-531"/>
<text text-anchor="middle" x="691" y="-538" font-family="Helvetica,sans-Serif" font-size="10.00">com.cliffc.aa.Parse.stmt</text>
</a>
</g>
</g>
<!-- Node10&#45;&gt;Node11 -->
<g id="edge13" class="edge">
<title>Node10&#45;&gt;Node11</title>
<path fill="none" stroke="midnightblue" d="M783.59,-533.78C775.13,-533.72 766.55,-533.75 758.2,-533.87"/>
<polygon fill="midnightblue" stroke="midnightblue" points="783.78,-537.28 793.82,-533.91 783.86,-530.29 783.78,-537.28"/>
</g>
<!-- Node11&#45;&gt;Node10 -->
<g id="edge14" class="edge">
<title>Node11&#45;&gt;Node10</title>
<path fill="none" stroke="midnightblue" d="M768.47,-547.23C776.95,-547.28 785.52,-547.23 793.82,-547.09"/>
<polygon fill="midnightblue" stroke="midnightblue" points="768.24,-543.73 758.2,-547.13 768.17,-550.73 768.24,-543.73"/>
</g>
<!-- Node12 -->
<g id="node12" class="node">
<title>Node12</title>
<g id="a_node12"><a xlink:href="../../da/de3/a01398.html#adf95c17fe0de5cfff574ee89b78f0d37" target="_top" xlink:title=" ">
<polygon fill="none" stroke="black" points="449,-531 449,-550 588,-550 588,-531 449,-531"/>
<text text-anchor="middle" x="518.5" y="-538" font-family="Helvetica,sans-Serif" font-size="10.00">com.cliffc.aa.Parse.stmts</text>
</a>
</g>
</g>
<!-- Node11&#45;&gt;Node12 -->
<g id="edge15" class="edge">
<title>Node11&#45;&gt;Node12</title>
<path fill="none" stroke="midnightblue" d="M613.44,-540.5C605.05,-540.5 596.54,-540.5 588.26,-540.5"/>
<polygon fill="midnightblue" stroke="midnightblue" points="613.59,-544 623.59,-540.5 613.59,-537 613.59,-544"/>
</g>
<!-- Node11&#45;&gt;Node13 -->
<g id="edge16" class="edge">
<title>Node11&#45;&gt;Node13</title>
<path fill="none" stroke="midnightblue" d="M663.93,-525.97C628.6,-506.29 566.51,-471.69 536.58,-455.02"/>
<polygon fill="midnightblue" stroke="midnightblue" points="662.27,-529.06 672.71,-530.87 665.68,-522.94 662.27,-529.06"/>
</g>
<!-- Node13&#45;&gt;Node5 -->
<g id="edge17" class="edge">
<title>Node13&#45;&gt;Node5</title>
<path fill="none" stroke="midnightblue" d="M501.6,-462.97C487.66,-478.32 466.89,-501.3 449,-521.5 421.23,-552.86 389.14,-589.94 371.61,-610.27"/>
<polygon fill="midnightblue" stroke="midnightblue" points="504.44,-465.04 508.58,-455.29 499.26,-460.34 504.44,-465.04"/>
</g>
<!-- Node15 -->
<g id="node15" class="node">
<title>Node15</title>
<g id="a_node15"><a xlink:href="../../da/de3/a01398.html#ab5f56822b1234ac422a988a689632a42" target="_top" xlink:title="Parse a factor, a leaf grammar token fact = num // number fact = &quot;string&quot; // string fact = (stmts) //...">
<polygon fill="none" stroke="black" points="1135.5,-379 1135.5,-398 1265.5,-398 1265.5,-379 1135.5,-379"/>
<text text-anchor="middle" x="1200.5" y="-386" font-family="Helvetica,sans-Serif" font-size="10.00">com.cliffc.aa.Parse.fact</text>
</a>
</g>
</g>
<!-- Node14&#45;&gt;Node15 -->
<g id="edge22" class="edge">
<title>Node14&#45;&gt;Node15</title>
<path fill="none" stroke="midnightblue" d="M1293.5,-388.5C1284.2,-388.5 1274.79,-388.5 1265.71,-388.5"/>
<polygon fill="midnightblue" stroke="midnightblue" points="1293.52,-392 1303.52,-388.5 1293.52,-385 1293.52,-392"/>
</g>
<!-- Node16 -->
<g id="node16" class="node">
<title>Node16</title>
<g id="a_node16"><a xlink:href="../../da/de3/a01398.html#a7056d9016c6762ee436ae04e04476d3b" target="_top" xlink:title="Parse an optionally typed factor tfact = fact[:type].">
<polygon fill="none" stroke="black" points="624,-379 624,-398 758,-398 758,-379 624,-379"/>
<text text-anchor="middle" x="691" y="-386" font-family="Helvetica,sans-Serif" font-size="10.00">com.cliffc.aa.Parse.tfact</text>
</a>
</g>
</g>
<!-- Node15&#45;&gt;Node16 -->
<g id="edge23" class="edge">
<title>Node15&#45;&gt;Node16</title>
<path fill="none" stroke="midnightblue" d="M1125.27,-388.5C1026.38,-388.5 852.91,-388.5 758.24,-388.5"/>
<polygon fill="midnightblue" stroke="midnightblue" points="1125.48,-392 1135.48,-388.5 1125.48,-385 1125.48,-392"/>
</g>
<!-- Node16&#45;&gt;Node13 -->
<g id="edge24" class="edge">
<title>Node16&#45;&gt;Node13</title>
<path fill="none" stroke="midnightblue" d="M651.74,-401.29C620.33,-411.79 576.56,-426.42 548.13,-435.93"/>
<polygon fill="midnightblue" stroke="midnightblue" points="653.09,-404.53 661.46,-398.04 650.87,-397.89 653.09,-404.53"/>
</g>
<!-- Node17&#45;&gt;Node13 -->
<g id="edge26" class="edge">
<title>Node17&#45;&gt;Node13</title>
<path fill="none" stroke="midnightblue" d="M786.27,-460.47C726.96,-457.14 643.41,-452.46 585.69,-449.22"/>
<polygon fill="midnightblue" stroke="midnightblue" points="786.13,-463.97 796.31,-461.04 786.52,-456.98 786.13,-463.97"/>
</g>
</g>
</svg>
        <g id="navigator" transform="translate(0 0)" fill="#404254">
                <rect fill="#f2f5e9" fill-opacity="0.5" stroke="#606060" stroke-width=".5" x="0" y="0" width="60" height="60"/>
                <use id="zoomplus" xlink:href="#zoomPlus" x="17" y="9" onmousedown="handleZoom(evt,'in')"/>
                <use id="zoomminus" xlink:href="#zoomMin" x="42" y="9" onmousedown="handleZoom(evt,'out')"/>
                <use id="reset" xlink:href="#resetDef" x="30" y="36" onmousedown="handleReset()"/>
                <g id="arrowUp" xlink:href="#dirArrow" transform="translate(30 24)" onmousedown="handlePan(0,-1)">
                  <use xlink:href="#rim" fill="#404040">
                        <set attributeName="fill" to="#808080" begin="arrowUp.mouseover" end="arrowUp.mouseout"/>
                  </use>
                  <path fill="none" stroke="white" stroke-width="1.5" d="M0,-3.0v7 M-2.5,-0.5L0,-3.0L2.5,-0.5"/>
                </g>
                <g id="arrowRight" xlink:href="#dirArrow" transform="rotate(90) translate(36 -43)" onmousedown="handlePan(1,0)">
                  <use xlink:href="#rim" fill="#404040">
                        <set attributeName="fill" to="#808080" begin="arrowRight.mouseover" end="arrowRight.mouseout"/>
                  </use>
                  <path fill="none" stroke="white" stroke-width="1.5" d="M0,-3.0v7 M-2.5,-0.5L0,-3.0L2.5,-0.5"/>
                </g>
                <g id="arrowDown" xlink:href="#dirArrow" transform="rotate(180) translate(-30 -48)" onmousedown="handlePan(0,1)">
                  <use xlink:href="#rim" fill="#404040">
                        <set attributeName="fill" to="#808080" begin="arrowDown.mouseover" end="arrowDown.mouseout"/>
                  </use>
                  <path fill="none" stroke="white" stroke-width="1.5" d="M0,-3.0v7 M-2.5,-0.5L0,-3.0L2.5,-0.5"/>
                </g>
                <g id="arrowLeft" xlink:href="#dirArrow" transform="rotate(270) translate(-36 17)" onmousedown="handlePan(-1,0)">
                  <use xlink:href="#rim" fill="#404040">
                        <set attributeName="fill" to="#808080" begin="arrowLeft.mouseover" end="arrowLeft.mouseout"/>
                  </use>
                  <path fill="none" stroke="white" stroke-width="1.5" d="M0,-3.0v7 M-2.5,-0.5L0,-3.0L2.5,-0.5"/>
                </g>
        </g>
        <svg viewBox="0 0 15 15" width="100%" height="30px" preserveAspectRatio="xMaxYMin meet">
         <g id="arrow_out" transform="scale(0.3 0.3)">
          <a xlink:href="a01158_a634afaa0042a1f6467b395b9dfcf0636_icgraph_org.svg" target="_base">
           <rect id="button" ry="5" rx="5" y="6" x="6" height="38" width="38"
                fill="#f2f5e9" fill-opacity="0.5" stroke="#606060" stroke-width="1.0"/>
           <path id="arrow"
             d="M 11.500037,31.436501 C 11.940474,20.09759 22.043105,11.32322 32.158766,21.979434 L 37.068811,17.246167 C 37.068811,17.246167 37.088388,32 37.088388,32 L 22.160133,31.978069 C 22.160133,31.978069 26.997745,27.140456 26.997745,27.140456 C 18.528582,18.264221 13.291696,25.230495 11.500037,31.436501 z"
             style="fill:#404040;"/>
          </a>
         </g>
        </svg>
</svg>
