<?xml version="1.0" encoding="UTF-8" standalone="no"?>
<!DOCTYPE svg PUBLIC "-//W3C//DTD SVG 1.1//EN"
 "http://www.w3.org/Graphics/SVG/1.1/DTD/svg11.dtd">
<!-- Generated by graphviz version 2.43.0 (0)
 -->
<!-- Title: com.cliffc.aa.node.IntrinsicNode.value Pages: 1 -->
<svg width="1524pt" height="360pt"
 viewBox="0.00 0.00 1524.00 359.50" xmlns="http://www.w3.org/2000/svg" xmlns:xlink="http://www.w3.org/1999/xlink">
<g id="graph0" class="graph" transform="scale(1 1) rotate(0) translate(4 355.5)">
<title>com.cliffc.aa.node.IntrinsicNode.value</title>
<!-- Node1 -->
<g id="node1" class="node">
<title>Node1</title>
<g id="a_node1"><a xlink:title=" ">
<polygon fill="#bfbfbf" stroke="black" points="0,-181.5 0,-211.5 148,-211.5 148,-181.5 0,-181.5"/>
<text text-anchor="start" x="8" y="-199.5" font-family="Helvetica,sans-Serif" font-size="10.00">com.cliffc.aa.node.Intrinsic</text>
<text text-anchor="middle" x="74" y="-188.5" font-family="Helvetica,sans-Serif" font-size="10.00">Node.value</text>
</a>
</g>
</g>
<!-- Node2 -->
<g id="node2" class="node">
<title>Node2</title>
<g id="a_node2"><a xlink:href="../../d0/de2/a01442.html#a7ae10ba7415e2d2f5a11770c7812a54a" target="_top" xlink:title=" ">
<polygon fill="none" stroke="black" points="209,-332 209,-351 362,-351 362,-332 209,-332"/>
<text text-anchor="middle" x="285.5" y="-339" font-family="Helvetica,sans-Serif" font-size="10.00">com.cliffc.aa.type.Type.dual</text>
</a>
</g>
</g>
<!-- Node1&#45;&gt;Node2 -->
<g id="edge1" class="edge">
<title>Node1&#45;&gt;Node2</title>
<path fill="none" stroke="midnightblue" d="M83.5,-211.84C99.4,-238.96 136.37,-295.09 184,-322.5 188.81,-325.27 193.94,-327.64 199.25,-329.68"/>
<polygon fill="midnightblue" stroke="midnightblue" points="198.36,-333.07 208.95,-332.99 200.62,-326.45 198.36,-333.07"/>
</g>
<!-- Node3 -->
<g id="node3" class="node">
<title>Node3</title>
<g id="a_node3"><a xlink:href="../../d0/de2/a01442.html#ad4b6fe2d948ba739fd3d5e0feac103e6" target="_top" xlink:title=" ">
<polygon fill="none" stroke="black" points="212.5,-294 212.5,-313 358.5,-313 358.5,-294 212.5,-294"/>
<text text-anchor="middle" x="285.5" y="-301" font-family="Helvetica,sans-Serif" font-size="10.00">com.cliffc.aa.type.Type.isa</text>
</a>
</g>
</g>
<!-- Node1&#45;&gt;Node3 -->
<g id="edge2" class="edge">
<title>Node1&#45;&gt;Node3</title>
<path fill="none" stroke="midnightblue" d="M88.9,-211.65C108.2,-231.68 145.15,-266.54 184,-284.5 189.82,-287.19 195.99,-289.5 202.31,-291.48"/>
<polygon fill="midnightblue" stroke="midnightblue" points="201.74,-294.96 212.32,-294.33 203.66,-288.23 201.74,-294.96"/>
</g>
<!-- Node4 -->
<g id="node4" class="node">
<title>Node4</title>
<g id="a_node4"><a xlink:href="../../d6/d51/a01494.html#ad3077bf21bc4e61636248c2f053d3102" target="_top" xlink:title=" ">
<polygon fill="none" stroke="black" points="202.5,-256 202.5,-275 368.5,-275 368.5,-256 202.5,-256"/>
<text text-anchor="middle" x="285.5" y="-263" font-family="Helvetica,sans-Serif" font-size="10.00">com.cliffc.aa.type.TypeMem.ld</text>
</a>
</g>
</g>
<!-- Node1&#45;&gt;Node4 -->
<g id="edge3" class="edge">
<title>Node1&#45;&gt;Node4</title>
<path fill="none" stroke="midnightblue" d="M102.93,-211.61C124.52,-222.72 155.43,-237.4 184,-246.5 192.7,-249.27 201.95,-251.7 211.2,-253.8"/>
<polygon fill="midnightblue" stroke="midnightblue" points="210.68,-257.27 221.19,-255.96 212.15,-250.43 210.68,-257.27"/>
</g>
<!-- Node7 -->
<g id="node7" class="node">
<title>Node7</title>
<g id="a_node7"><a xlink:href="../../d4/d8a/a01062.html#abade598ef0766440c732435f86809d76" target="_top" xlink:title=" ">
<polygon fill="none" stroke="black" points="211.5,-206.5 211.5,-236.5 359.5,-236.5 359.5,-206.5 211.5,-206.5"/>
<text text-anchor="start" x="219.5" y="-224.5" font-family="Helvetica,sans-Serif" font-size="10.00">com.cliffc.aa.node.Intrinsic</text>
<text text-anchor="middle" x="285.5" y="-213.5" font-family="Helvetica,sans-Serif" font-size="10.00">Node.mem</text>
</a>
</g>
</g>
<!-- Node1&#45;&gt;Node7 -->
<g id="edge6" class="edge">
<title>Node1&#45;&gt;Node7</title>
<path fill="none" stroke="midnightblue" d="M148.27,-205.24C165.34,-207.28 183.63,-209.46 201.1,-211.55"/>
<polygon fill="midnightblue" stroke="midnightblue" points="200.92,-215.05 211.27,-212.76 201.75,-208.1 200.92,-215.05"/>
</g>
<!-- Node9 -->
<g id="node9" class="node">
<title>Node9</title>
<g id="a_node9"><a xlink:href="../../d4/d8a/a01062.html#af2bd567501d3aeba5b62404739713348" target="_top" xlink:title=" ">
<polygon fill="none" stroke="black" points="211.5,-157.5 211.5,-187.5 359.5,-187.5 359.5,-157.5 211.5,-157.5"/>
<text text-anchor="start" x="219.5" y="-175.5" font-family="Helvetica,sans-Serif" font-size="10.00">com.cliffc.aa.node.Intrinsic</text>
<text text-anchor="middle" x="285.5" y="-164.5" font-family="Helvetica,sans-Serif" font-size="10.00">Node.ptr</text>
</a>
</g>
</g>
<!-- Node1&#45;&gt;Node9 -->
<g id="edge8" class="edge">
<title>Node1&#45;&gt;Node9</title>
<path fill="none" stroke="midnightblue" d="M148.27,-188.11C165.34,-186.15 183.63,-184.06 201.1,-182.05"/>
<polygon fill="midnightblue" stroke="midnightblue" points="201.73,-185.5 211.27,-180.89 200.94,-178.55 201.73,-185.5"/>
</g>
<!-- Node10 -->
<g id="node10" class="node">
<title>Node10</title>
<g id="a_node10"><a xlink:href="../../d0/de2/a01442.html#ac5733776843babefffe23e9f992d6024" target="_top" xlink:title=" ">
<polygon fill="none" stroke="black" points="184,-119 184,-138 387,-138 387,-119 184,-119"/>
<text text-anchor="middle" x="285.5" y="-126" font-family="Helvetica,sans-Serif" font-size="10.00">com.cliffc.aa.type.Type.remove_name</text>
</a>
</g>
</g>
<!-- Node1&#45;&gt;Node10 -->
<g id="edge10" class="edge">
<title>Node1&#45;&gt;Node10</title>
<path fill="none" stroke="midnightblue" d="M103.42,-181.49C125,-170.65 155.7,-156.4 184,-147.5 192.93,-144.69 202.44,-142.24 211.91,-140.11"/>
<polygon fill="midnightblue" stroke="midnightblue" points="212.7,-143.52 221.75,-138 211.23,-136.67 212.7,-143.52"/>
</g>
<!-- Node11 -->
<g id="node11" class="node">
<title>Node11</title>
<g id="a_node11"><a xlink:href="../../d6/d51/a01494.html#ae3e83421451d5a0f47daae26e63de1c9" target="_top" xlink:title=" ">
<polygon fill="none" stroke="black" points="199.5,-81 199.5,-100 371.5,-100 371.5,-81 199.5,-81"/>
<text text-anchor="middle" x="285.5" y="-88" font-family="Helvetica,sans-Serif" font-size="10.00">com.cliffc.aa.type.TypeMem.set</text>
</a>
</g>
</g>
<!-- Node1&#45;&gt;Node11 -->
<g id="edge11" class="edge">
<title>Node1&#45;&gt;Node11</title>
<path fill="none" stroke="midnightblue" d="M89.27,-181.19C108.69,-161.34 145.49,-127.17 184,-109.5 189.43,-107.01 195.16,-104.84 201.03,-102.96"/>
<polygon fill="midnightblue" stroke="midnightblue" points="202.39,-106.22 211.01,-100.06 200.43,-99.5 202.39,-106.22"/>
</g>
<!-- Node21 -->
<g id="node21" class="node">
<title>Node21</title>
<g id="a_node21"><a xlink:href="../../d0/de2/a01442.html#a70d1cf353683b4275921c0ca2e1a1005" target="_top" xlink:title=" ">
<polygon fill="none" stroke="black" points="195.5,-43 195.5,-62 375.5,-62 375.5,-43 195.5,-43"/>
<text text-anchor="middle" x="285.5" y="-50" font-family="Helvetica,sans-Serif" font-size="10.00">com.cliffc.aa.type.Type.set_name</text>
</a>
</g>
</g>
<!-- Node1&#45;&gt;Node21 -->
<g id="edge24" class="edge">
<title>Node1&#45;&gt;Node21</title>
<path fill="none" stroke="midnightblue" d="M83.53,-181.28C99.48,-154.38 136.53,-98.7 184,-71.5 187.92,-69.25 192.05,-67.27 196.32,-65.51"/>
<polygon fill="midnightblue" stroke="midnightblue" points="197.65,-68.75 205.83,-62.02 195.24,-62.18 197.65,-68.75"/>
</g>
<!-- Node5 -->
<g id="node5" class="node">
<title>Node5</title>
<g id="a_node5"><a xlink:href="../../d4/d3c/a01418.html#ae0736bc1a334a231721b5480d07904cf" target="_top" xlink:title=" ">
<polygon fill="none" stroke="black" points="443.5,-256 443.5,-275 592.5,-275 592.5,-256 443.5,-256"/>
<text text-anchor="middle" x="518" y="-263" font-family="Helvetica,sans-Serif" font-size="10.00">com.cliffc.aa.type.Bits.dual</text>
</a>
</g>
</g>
<!-- Node4&#45;&gt;Node5 -->
<g id="edge4" class="edge">
<title>Node4&#45;&gt;Node5</title>
<path fill="none" stroke="midnightblue" d="M368.74,-265.5C389.63,-265.5 412.1,-265.5 433.07,-265.5"/>
<polygon fill="midnightblue" stroke="midnightblue" points="433.23,-269 443.23,-265.5 433.23,-262 433.23,-269"/>
</g>
<!-- Node6 -->
<g id="node6" class="node">
<title>Node6</title>
<g id="a_node6"><a xlink:href="../../d0/de2/a01442.html#a388429cb6bea455104e3b9690d992854" target="_top" xlink:title=" ">
<polygon fill="none" stroke="black" points="676.5,-179.5 676.5,-209.5 805.5,-209.5 805.5,-179.5 676.5,-179.5"/>
<text text-anchor="start" x="684.5" y="-197.5" font-family="Helvetica,sans-Serif" font-size="10.00">com.cliffc.aa.type.Type</text>
<text text-anchor="middle" x="741" y="-186.5" font-family="Helvetica,sans-Serif" font-size="10.00">&lt; TypeMem &gt;::oob</text>
</a>
</g>
</g>
<!-- Node4&#45;&gt;Node6 -->
<g id="edge5" class="edge">
<title>Node4&#45;&gt;Node6</title>
<path fill="none" stroke="midnightblue" d="M347.19,-256C429.81,-243.06 577.53,-219.94 666.38,-206.03"/>
<polygon fill="midnightblue" stroke="midnightblue" points="667.05,-209.46 676.38,-204.46 665.96,-202.55 667.05,-209.46"/>
</g>
<!-- Node8 -->
<g id="node8" class="node">
<title>Node8</title>
<g id="a_node8"><a xlink:href="../../df/db5/a01158.html#a9a46cea187559f94192aa6e09b91c60c" target="_top" xlink:title=" ">
<polygon fill="none" stroke="black" points="445,-177 445,-196 591,-196 591,-177 445,-177"/>
<text text-anchor="middle" x="518" y="-184" font-family="Helvetica,sans-Serif" font-size="10.00">com.cliffc.aa.node.Node.in</text>
</a>
</g>
</g>
<!-- Node7&#45;&gt;Node8 -->
<g id="edge7" class="edge">
<title>Node7&#45;&gt;Node8</title>
<path fill="none" stroke="midnightblue" d="M359.75,-210.38C386.75,-206.28 417.32,-201.64 444.27,-197.54"/>
<polygon fill="midnightblue" stroke="midnightblue" points="445.05,-200.97 454.41,-196 444,-194.04 445.05,-200.97"/>
</g>
<!-- Node9&#45;&gt;Node8 -->
<g id="edge9" class="edge">
<title>Node9&#45;&gt;Node8</title>
<path fill="none" stroke="midnightblue" d="M359.75,-176.95C383.62,-178.4 410.27,-180.02 434.75,-181.5"/>
<polygon fill="midnightblue" stroke="midnightblue" points="434.54,-185 444.73,-182.11 434.96,-178.01 434.54,-185"/>
</g>
<!-- Node12 -->
<g id="node12" class="node">
<title>Node12</title>
<g id="a_node12"><a xlink:href="../../d6/d51/a01494.html#ae46f6ec465a8f92933cac6594c35d615" target="_top" xlink:title=" ">
<polygon fill="none" stroke="black" points="434.5,-119 434.5,-138 601.5,-138 601.5,-119 434.5,-119"/>
<text text-anchor="middle" x="518" y="-126" font-family="Helvetica,sans-Serif" font-size="10.00">com.cliffc.aa.type.TypeMem.at</text>
</a>
</g>
</g>
<!-- Node11&#45;&gt;Node12 -->
<g id="edge12" class="edge">
<title>Node11&#45;&gt;Node12</title>
<path fill="none" stroke="midnightblue" d="M344.37,-100.04C376.15,-105.28 415.75,-111.81 449.01,-117.29"/>
<polygon fill="midnightblue" stroke="midnightblue" points="448.67,-120.78 459.11,-118.96 449.81,-113.88 448.67,-120.78"/>
</g>
<!-- Node13 -->
<g id="node13" class="node">
<title>Node13</title>
<g id="a_node13"><a xlink:href="../../d6/d51/a01494.html#a6e66e12dd6b273e5ade4ab54fa683f8d" target="_top" xlink:title=" ">
<polygon fill="none" stroke="black" points="423,-81 423,-100 613,-100 613,-81 423,-81"/>
<text text-anchor="middle" x="518" y="-88" font-family="Helvetica,sans-Serif" font-size="10.00">com.cliffc.aa.type.TypeMem.make0</text>
</a>
</g>
</g>
<!-- Node11&#45;&gt;Node13 -->
<g id="edge14" class="edge">
<title>Node11&#45;&gt;Node13</title>
<path fill="none" stroke="midnightblue" d="M371.67,-90.5C384.96,-90.5 398.82,-90.5 412.47,-90.5"/>
<polygon fill="midnightblue" stroke="midnightblue" points="412.87,-94 422.87,-90.5 412.86,-87 412.87,-94"/>
</g>
<!-- Node12&#45;&gt;Node12 -->
<g id="edge13" class="edge">
<title>Node12&#45;&gt;Node12</title>
<path fill="none" stroke="midnightblue" d="M484.06,-138.11C467.01,-146.96 478.33,-156.5 518,-156.5 547.14,-156.5 560.98,-151.36 559.52,-145.12"/>
<polygon fill="midnightblue" stroke="midnightblue" points="561.66,-142.33 551.94,-138.11 556.91,-147.47 561.66,-142.33"/>
</g>
<!-- Node13&#45;&gt;Node6 -->
<g id="edge23" class="edge">
<title>Node13&#45;&gt;Node6</title>
<path fill="none" stroke="midnightblue" d="M585.4,-100.06C594.88,-102.52 604.34,-105.62 613,-109.5 631.25,-117.68 632.56,-125.12 649,-136.5 667.76,-149.48 689.26,-163.24 706.65,-174.09"/>
<polygon fill="midnightblue" stroke="midnightblue" points="705,-177.18 715.34,-179.49 708.69,-171.24 705,-177.18"/>
</g>
<!-- Node14 -->
<g id="node14" class="node">
<title>Node14</title>
<g id="a_node14"><a xlink:href="../../d6/d51/a01494.html#af6e06afd7033aef3b4d8e85653d41df6" target="_top" xlink:title=" ">
<polygon fill="none" stroke="black" points="662.5,-97.5 662.5,-127.5 819.5,-127.5 819.5,-97.5 662.5,-97.5"/>
<text text-anchor="start" x="670.5" y="-115.5" font-family="Helvetica,sans-Serif" font-size="10.00">com.cliffc.aa.type.TypeMem.</text>
<text text-anchor="middle" x="741" y="-104.5" font-family="Helvetica,sans-Serif" font-size="10.00">_make1</text>
</a>
</g>
</g>
<!-- Node13&#45;&gt;Node14 -->
<g id="edge15" class="edge">
<title>Node13&#45;&gt;Node14</title>
<path fill="none" stroke="midnightblue" d="M613.04,-99.86C626.02,-101.15 639.31,-102.48 652.17,-103.76"/>
<polygon fill="midnightblue" stroke="midnightblue" points="652.08,-107.26 662.38,-104.77 652.77,-100.3 652.08,-107.26"/>
</g>
<!-- Node16 -->
<g id="node16" class="node">
<title>Node16</title>
<g id="a_node16"><a xlink:href="../../d6/d51/a01494.html#abfc567fa84de27858d9707536072702c" target="_top" xlink:title=" ">
<polygon fill="none" stroke="black" points="649,-59 649,-78 833,-78 833,-59 649,-59"/>
<text text-anchor="middle" x="741" y="-66" font-family="Helvetica,sans-Serif" font-size="10.00">com.cliffc.aa.type.TypeMem.make</text>
</a>
</g>
</g>
<!-- Node13&#45;&gt;Node16 -->
<g id="edge17" class="edge">
<title>Node13&#45;&gt;Node16</title>
<path fill="none" stroke="midnightblue" d="M613.04,-81.14C621.57,-80.29 630.23,-79.43 638.82,-78.57"/>
<polygon fill="midnightblue" stroke="midnightblue" points="639.25,-82.05 648.85,-77.57 638.56,-75.08 639.25,-82.05"/>
</g>
<!-- Node15 -->
<g id="node15" class="node">
<title>Node15</title>
<g id="a_node15"><a xlink:href="../../d6/d51/a01494.html#ab31abc3950f3574c970b2858a1870949" target="_top" xlink:title=" ">
<polygon fill="none" stroke="black" points="884.5,-103 884.5,-122 1056.5,-122 1056.5,-103 884.5,-103"/>
<text text-anchor="middle" x="970.5" y="-110" font-family="Helvetica,sans-Serif" font-size="10.00">com.cliffc.aa.type.TypeMem.len</text>
</a>
</g>
</g>
<!-- Node14&#45;&gt;Node15 -->
<g id="edge16" class="edge">
<title>Node14&#45;&gt;Node15</title>
<path fill="none" stroke="midnightblue" d="M819.66,-112.5C837.25,-112.5 856.13,-112.5 874.36,-112.5"/>
<polygon fill="midnightblue" stroke="midnightblue" points="874.4,-116 884.4,-112.5 874.4,-109 874.4,-116"/>
</g>
<!-- Node17 -->
<g id="node17" class="node">
<title>Node17</title>
<g id="a_node17"><a xlink:href="../../d0/de2/a01442.html#a8fe8d556e45e6b654f3ac87f118ac8de" target="_top" xlink:title=" ">
<polygon fill="none" stroke="black" points="869,-62 869,-81 1072,-81 1072,-62 869,-62"/>
<text text-anchor="middle" x="970.5" y="-69" font-family="Helvetica,sans-Serif" font-size="10.00">com.cliffc.aa.type.Type.hashcons_free</text>
</a>
</g>
</g>
<!-- Node16&#45;&gt;Node17 -->
<g id="edge18" class="edge">
<title>Node16&#45;&gt;Node17</title>
<path fill="none" stroke="midnightblue" d="M833.22,-69.7C841.66,-69.81 850.28,-69.93 858.87,-70.04"/>
<polygon fill="midnightblue" stroke="midnightblue" points="858.88,-73.54 868.93,-70.17 858.97,-66.54 858.88,-73.54"/>
</g>
<!-- Node18 -->
<g id="node18" class="node">
<title>Node18</title>
<g id="a_node18"><a xlink:href="../../d6/d51/a01494.html#a6b1eb89aaaf02ada150969b5f8ce24ff" target="_top" xlink:title=" ">
<polygon fill="none" stroke="black" points="884,-6 884,-25 1057,-25 1057,-6 884,-6"/>
<text text-anchor="middle" x="970.5" y="-13" font-family="Helvetica,sans-Serif" font-size="10.00">com.cliffc.aa.type.TypeMem.init</text>
</a>
</g>
</g>
<!-- Node16&#45;&gt;Node18 -->
<g id="edge19" class="edge">
<title>Node16&#45;&gt;Node18</title>
<path fill="none" stroke="midnightblue" d="M782.94,-58.96C820.99,-50.1 877.8,-36.86 918.73,-27.33"/>
<polygon fill="midnightblue" stroke="midnightblue" points="919.57,-30.73 928.51,-25.05 917.98,-23.91 919.57,-30.73"/>
</g>
<!-- Node18&#45;&gt;Node18 -->
<g id="edge22" class="edge">
<title>Node18&#45;&gt;Node18</title>
<path fill="none" stroke="midnightblue" d="M935.64,-25.11C918.13,-33.96 929.75,-43.5 970.5,-43.5 1001.06,-43.5 1015.24,-38.13 1013.03,-31.72"/>
<polygon fill="midnightblue" stroke="midnightblue" points="1015.22,-28.99 1005.36,-25.11 1010.65,-34.29 1015.22,-28.99"/>
</g>
<!-- Node19 -->
<g id="node19" class="node">
<title>Node19</title>
<g id="a_node19"><a xlink:href="../../d6/d51/a01494.html#a9a14a112498c8f5beb4b4585cdf61653" target="_top" xlink:title=" ">
<polygon fill="none" stroke="black" points="1108,-6 1108,-25 1293,-25 1293,-6 1108,-6"/>
<text text-anchor="middle" x="1200.5" y="-13" font-family="Helvetica,sans-Serif" font-size="10.00">com.cliffc.aa.type.TypeMem.check</text>
</a>
</g>
</g>
<!-- Node18&#45;&gt;Node19 -->
<g id="edge20" class="edge">
<title>Node18&#45;&gt;Node19</title>
<path fill="none" stroke="midnightblue" d="M1057.05,-15.5C1070.24,-15.5 1083.97,-15.5 1097.48,-15.5"/>
<polygon fill="midnightblue" stroke="midnightblue" points="1097.75,-19 1107.75,-15.5 1097.75,-12 1097.75,-19"/>
</g>
<!-- Node20 -->
<g id="node20" class="node">
<title>Node20</title>
<g id="a_node20"><a xlink:href="../../d6/d51/a01494.html#a0eecce7cc3a48609b618fd6ba69927f1" target="_top" xlink:title=" ">
<polygon fill="none" stroke="black" points="1329,-0.5 1329,-30.5 1516,-30.5 1516,-0.5 1329,-0.5"/>
<text text-anchor="start" x="1337" y="-18.5" font-family="Helvetica,sans-Serif" font-size="10.00">com.cliffc.aa.type.TypeMem.above</text>
<text text-anchor="middle" x="1422.5" y="-7.5" font-family="Helvetica,sans-Serif" font-size="10.00">_center</text>
</a>
</g>
</g>
<!-- Node19&#45;&gt;Node20 -->
<g id="edge21" class="edge">
<title>Node19&#45;&gt;Node20</title>
<path fill="none" stroke="midnightblue" d="M1293.21,-15.5C1301.68,-15.5 1310.3,-15.5 1318.87,-15.5"/>
<polygon fill="midnightblue" stroke="midnightblue" points="1318.88,-19 1328.88,-15.5 1318.88,-12 1318.88,-19"/>
</g>
</g>
</svg>
