<?xml version="1.0" encoding="UTF-8" standalone="no"?>
<!DOCTYPE svg PUBLIC "-//W3C//DTD SVG 1.1//EN"
 "http://www.w3.org/Graphics/SVG/1.1/DTD/svg11.dtd">
<!-- Generated by graphviz version 2.43.0 (0)
 -->
<!-- Title: com.cliffc.aa.type.TypeFunPtr.make_from Pages: 1 -->
<svg width="1296pt" height="100pt"
 viewBox="0.00 0.00 1296.00 99.50" xmlns="http://www.w3.org/2000/svg" xmlns:xlink="http://www.w3.org/1999/xlink">
<g id="graph0" class="graph" transform="scale(1 1) rotate(0) translate(4 95.5)">
<title>com.cliffc.aa.type.TypeFunPtr.make_from</title>
<!-- Node1 -->
<g id="node1" class="node">
<title>Node1</title>
<g id="a_node1"><a xlink:title=" ">
<polygon fill="#bfbfbf" stroke="black" points="1142,-22.5 1142,-52.5 1288,-52.5 1288,-22.5 1142,-22.5"/>
<text text-anchor="start" x="1150" y="-40.5" font-family="Helvetica,sans-Serif" font-size="10.00">com.cliffc.aa.type.TypeFun</text>
<text text-anchor="middle" x="1215" y="-29.5" font-family="Helvetica,sans-Serif" font-size="10.00">Ptr.make_from</text>
</a>
</g>
</g>
<!-- Node2 -->
<g id="node2" class="node">
<title>Node2</title>
<g id="a_node2"><a xlink:href="../../da/da6/a01522.html#a1ebac979a540f0d1db5fe560860ae97c" target="_top" xlink:title=" ">
<polygon fill="none" stroke="black" points="934,-44.5 934,-74.5 1095,-74.5 1095,-44.5 934,-44.5"/>
<text text-anchor="start" x="942" y="-62.5" font-family="Helvetica,sans-Serif" font-size="10.00">com.cliffc.aa.type.TypeStruct.</text>
<text text-anchor="middle" x="1014.5" y="-51.5" font-family="Helvetica,sans-Serif" font-size="10.00">_sharp</text>
</a>
</g>
</g>
<!-- Node1&#45;&gt;Node2 -->
<g id="edge1" class="edge">
<title>Node1&#45;&gt;Node2</title>
<path fill="none" stroke="midnightblue" d="M1131.69,-46.62C1119.58,-47.97 1107.11,-49.35 1095.05,-50.68"/>
<polygon fill="midnightblue" stroke="midnightblue" points="1132.22,-50.09 1141.78,-45.5 1131.45,-43.13 1132.22,-50.09"/>
</g>
<!-- Node9 -->
<g id="node9" class="node">
<title>Node9</title>
<g id="a_node9"><a xlink:href="../../d0/d2b/a01010.html#adc042d1089c8080084332bce5869f028" target="_top" xlink:title=" ">
<polygon fill="none" stroke="black" points="923,-6 923,-25 1106,-25 1106,-6 923,-6"/>
<text text-anchor="middle" x="1014.5" y="-13" font-family="Helvetica,sans-Serif" font-size="10.00">com.cliffc.aa.node.CallNode.value</text>
</a>
</g>
</g>
<!-- Node1&#45;&gt;Node9 -->
<g id="edge9" class="edge">
<title>Node1&#45;&gt;Node9</title>
<path fill="none" stroke="midnightblue" d="M1131.54,-28.36C1121.62,-27.26 1111.47,-26.14 1101.51,-25.03"/>
<polygon fill="midnightblue" stroke="midnightblue" points="1131.45,-31.87 1141.78,-29.5 1132.22,-24.91 1131.45,-31.87"/>
</g>
<!-- Node3 -->
<g id="node3" class="node">
<title>Node3</title>
<g id="a_node3"><a xlink:href="../../da/da6/a01522.html#a4bbd63c992371486c0953c125b3598f3" target="_top" xlink:title=" ">
<polygon fill="none" stroke="black" points="687,-50 687,-69 887,-69 887,-50 687,-50"/>
<text text-anchor="middle" x="787" y="-57" font-family="Helvetica,sans-Serif" font-size="10.00">com.cliffc.aa.type.TypeStruct.sharpen</text>
</a>
</g>
</g>
<!-- Node2&#45;&gt;Node3 -->
<g id="edge2" class="edge">
<title>Node2&#45;&gt;Node3</title>
<path fill="none" stroke="midnightblue" d="M923.98,-59.5C911.94,-59.5 899.53,-59.5 887.33,-59.5"/>
<polygon fill="midnightblue" stroke="midnightblue" points="924,-63 934,-59.5 924,-56 924,-63"/>
</g>
<!-- Node4 -->
<g id="node4" class="node">
<title>Node4</title>
<g id="a_node4"><a xlink:href="../../d6/d51/a01494.html#a51b44578cd9dbeb3f2d28ea77ccf3e71" target="_top" xlink:title=" ">
<polygon fill="none" stroke="black" points="455,-50 455,-69 651,-69 651,-50 455,-50"/>
<text text-anchor="middle" x="553" y="-57" font-family="Helvetica,sans-Serif" font-size="10.00">com.cliffc.aa.type.TypeMem.sharpen</text>
</a>
</g>
</g>
<!-- Node3&#45;&gt;Node4 -->
<g id="edge3" class="edge">
<title>Node3&#45;&gt;Node4</title>
<path fill="none" stroke="midnightblue" d="M676.92,-59.5C668.35,-59.5 659.73,-59.5 651.25,-59.5"/>
<polygon fill="midnightblue" stroke="midnightblue" points="676.94,-63 686.94,-59.5 676.94,-56 676.94,-63"/>
</g>
<!-- Node5 -->
<g id="node5" class="node">
<title>Node5</title>
<g id="a_node5"><a xlink:href="../../d6/d51/a01494.html#ae434c7b538095991a82c26e058b2bed3" target="_top" xlink:title=" ">
<polygon fill="none" stroke="black" points="228,-72 228,-91 419,-91 419,-72 228,-72"/>
<text text-anchor="middle" x="323.5" y="-79" font-family="Helvetica,sans-Serif" font-size="10.00">com.cliffc.aa.type.TypeMem.sharptr</text>
</a>
</g>
</g>
<!-- Node4&#45;&gt;Node5 -->
<g id="edge4" class="edge">
<title>Node4&#45;&gt;Node5</title>
<path fill="none" stroke="midnightblue" d="M444.83,-69.86C436.25,-70.69 427.63,-71.53 419.15,-72.35"/>
<polygon fill="midnightblue" stroke="midnightblue" points="445.24,-73.34 454.86,-68.89 444.57,-66.37 445.24,-73.34"/>
</g>
<!-- Node8 -->
<g id="node8" class="node">
<title>Node8</title>
<g id="a_node8"><a xlink:href="../../d6/d9a/a01710.html#a065e03a5090218b4a23e51ee69e99249" target="_top" xlink:title=" ">
<polygon fill="none" stroke="black" points="249,-22.5 249,-52.5 398,-52.5 398,-22.5 249,-22.5"/>
<text text-anchor="start" x="257" y="-40.5" font-family="Helvetica,sans-Serif" font-size="10.00">com.cliffc.aa.TestParse.test</text>
<text text-anchor="middle" x="323.5" y="-29.5" font-family="Helvetica,sans-Serif" font-size="10.00">Parse07</text>
</a>
</g>
</g>
<!-- Node4&#45;&gt;Node8 -->
<g id="edge8" class="edge">
<title>Node4&#45;&gt;Node8</title>
<path fill="none" stroke="midnightblue" d="M444.59,-49.11C428.91,-47.6 413.07,-46.06 398.26,-44.63"/>
<polygon fill="midnightblue" stroke="midnightblue" points="444.57,-52.63 454.86,-50.11 445.24,-45.66 444.57,-52.63"/>
</g>
<!-- Node6 -->
<g id="node6" class="node">
<title>Node6</title>
<g id="a_node6"><a xlink:href="../../d7/d90/a01530.html#acb83167a9887d8a9b8f47c6d965c0f6b" target="_top" xlink:title=" ">
<polygon fill="none" stroke="black" points="0,-72 0,-91 192,-91 192,-72 0,-72"/>
<text text-anchor="middle" x="96" y="-79" font-family="Helvetica,sans-Serif" font-size="10.00">com.cliffc.aa.type.TypeTuple.sharptr</text>
</a>
</g>
</g>
<!-- Node5&#45;&gt;Node6 -->
<g id="edge5" class="edge">
<title>Node5&#45;&gt;Node6</title>
<path fill="none" stroke="midnightblue" d="M217.83,-74.77C209.26,-74.73 200.63,-74.75 192.13,-74.82"/>
<polygon fill="midnightblue" stroke="midnightblue" points="217.83,-78.27 227.85,-74.83 217.87,-71.27 217.83,-78.27"/>
</g>
<!-- Node7 -->
<g id="node7" class="node">
<title>Node7</title>
<g id="a_node7"><a xlink:href="../../d0/de2/a01442.html#a73035500b9adc5f4821408e88177f1c7" target="_top" xlink:title=" ">
<polygon fill="none" stroke="black" points="31.5,-22.5 31.5,-52.5 160.5,-52.5 160.5,-22.5 31.5,-22.5"/>
<text text-anchor="start" x="39.5" y="-40.5" font-family="Helvetica,sans-Serif" font-size="10.00">com.cliffc.aa.type.Type</text>
<text text-anchor="middle" x="96" y="-29.5" font-family="Helvetica,sans-Serif" font-size="10.00">&lt; TypeFlt &gt;::sharptr</text>
</a>
</g>
</g>
<!-- Node5&#45;&gt;Node7 -->
<g id="edge7" class="edge">
<title>Node5&#45;&gt;Node7</title>
<path fill="none" stroke="midnightblue" d="M263.6,-70.01C232.04,-63.85 193.12,-56.25 160.83,-49.96"/>
<polygon fill="midnightblue" stroke="midnightblue" points="263.08,-73.47 273.57,-71.95 264.43,-66.6 263.08,-73.47"/>
</g>
<!-- Node6&#45;&gt;Node5 -->
<g id="edge6" class="edge">
<title>Node6&#45;&gt;Node5</title>
<path fill="none" stroke="midnightblue" d="M202.16,-88.24C210.73,-88.27 219.36,-88.25 227.85,-88.17"/>
<polygon fill="midnightblue" stroke="midnightblue" points="202.15,-84.74 192.13,-88.18 202.11,-91.74 202.15,-84.74"/>
</g>
<!-- Node10 -->
<g id="node10" class="node">
<title>Node10</title>
<g id="a_node10"><a xlink:href="../../d4/d8e/a01694.html#a5348bc687a77cb15570f88cd5a12dabe" target="_top" xlink:title=" ">
<polygon fill="none" stroke="black" points="709.5,-0.5 709.5,-30.5 864.5,-30.5 864.5,-0.5 709.5,-0.5"/>
<text text-anchor="start" x="717.5" y="-18.5" font-family="Helvetica,sans-Serif" font-size="10.00">com.cliffc.aa.node.TestNode</text>
<text text-anchor="middle" x="787" y="-7.5" font-family="Helvetica,sans-Serif" font-size="10.00">Small.testCallNodeResolve2</text>
</a>
</g>
</g>
<!-- Node9&#45;&gt;Node10 -->
<g id="edge10" class="edge">
<title>Node9&#45;&gt;Node10</title>
<path fill="none" stroke="midnightblue" d="M912.33,-15.5C896.36,-15.5 880.09,-15.5 864.8,-15.5"/>
<polygon fill="midnightblue" stroke="midnightblue" points="912.76,-19 922.76,-15.5 912.76,-12 912.76,-19"/>
</g>
</g>
</svg>
