<?xml version="1.0" encoding="UTF-8" standalone="no"?>
<!DOCTYPE svg PUBLIC "-//W3C//DTD SVG 1.1//EN"
 "http://www.w3.org/Graphics/SVG/1.1/DTD/svg11.dtd">
<!-- Generated by graphviz version 2.43.0 (0)
 -->
<!-- Title: com.cliffc.aa.type.TypeFunPtr.make_no_disp Pages: 1 -->
<!--zoomable 130 -->
<svg id="main" version="1.1" xmlns="http://www.w3.org/2000/svg" xmlns:xlink="http://www.w3.org/1999/xlink" xml:space="preserve" onload="init(evt)">
<style type="text/css"><![CDATA[
.edge:hover path { stroke: red; }
.edge:hover polygon { stroke: red; fill: red; }
]]></style>
<script type="text/javascript"><![CDATA[
var edges = document.getElementsByTagName('g');
if (edges && edges.length) {
  for (var i=0;i<edges.length;i++) {
    if (edges[i].id.substr(0,4)=='edge') {
      edges[i].setAttribute('class','edge');
    }
  }
}
]]></script>
        <defs>
                <circle id="rim" cx="0" cy="0" r="7"/>
                <circle id="rim2" cx="0" cy="0" r="3.5"/>
                <g id="zoomPlus">
                        <use xlink:href="#rim" fill="#404040">
                                <set attributeName="fill" to="#808080" begin="zoomplus.mouseover" end="zoomplus.mouseout"/>
                        </use>
                        <path d="M-4,0h8M0,-4v8" fill="none" stroke="white" stroke-width="1.5" pointer-events="none"/>
                </g>
                <g id="zoomMin">
                        <use xlink:href="#rim" fill="#404040">
                                <set attributeName="fill" to="#808080" begin="zoomminus.mouseover" end="zoomminus.mouseout"/>
                        </use>
                        <path d="M-4,0h8" fill="none" stroke="white" stroke-width="1.5" pointer-events="none"/>
                </g>
                <g id="dirArrow">
                        <path fill="none" stroke="white" stroke-width="1.5" d="M0,-3.0v7 M-2.5,-0.5L0,-3.0L2.5,-0.5"/>
                </g>
               <g id="resetDef">
                       <use xlink:href="#rim2" fill="#404040">
                               <set attributeName="fill" to="#808080" begin="reset.mouseover" end="reset.mouseout"/>
                       </use>
               </g>
        </defs>

<script type="text/javascript">
var viewWidth = 824;
var viewHeight = 130;
var sectionId = 'dynsection-29';
</script>
<script xlink:href="../../svgpan.js"/>
<svg id="graph" class="graph">
<g id="viewport">
<title>com.cliffc.aa.type.TypeFunPtr.make_no_disp</title>
<!-- Node1 -->
<g id="node1" class="node">
<title>Node1</title>
<g id="a_node1"><a xlink:title=" ">
<polygon fill="#bfbfbf" stroke="black" points="670,-63.5 670,-93.5 816,-93.5 816,-63.5 670,-63.5"/>
<text text-anchor="start" x="678" y="-81.5" font-family="Helvetica,sans-Serif" font-size="10.00">com.cliffc.aa.type.TypeFun</text>
<text text-anchor="middle" x="743" y="-70.5" font-family="Helvetica,sans-Serif" font-size="10.00">Ptr.make_no_disp</text>
</a>
</g>
</g>
<!-- Node2 -->
<g id="node2" class="node">
<title>Node2</title>
<g id="a_node2"><a xlink:href="../../d0/dfb/a01066.html#a318ad28c75cfa00cdbe71886baea637d" target="_top" xlink:title=" ">
<polygon fill="none" stroke="black" points="434,-97 434,-116 634,-116 634,-97 434,-97"/>
<text text-anchor="middle" x="534" y="-104" font-family="Helvetica,sans-Serif" font-size="10.00">com.cliffc.aa.node.LoadNode.get_fld2</text>
</a>
</g>
</g>
<!-- Node1&#45;&gt;Node2 -->
<g id="edge1" class="edge">
<title>Node1&#45;&gt;Node2</title>
<path fill="none" stroke="midnightblue" d="M659.98,-89.59C641.94,-92.03 622.99,-94.6 605.45,-96.97"/>
<polygon fill="midnightblue" stroke="midnightblue" points="660.45,-93.06 669.89,-88.25 659.51,-86.13 660.45,-93.06"/>
</g>
<!-- Node5 -->
<g id="node5" class="node">
<title>Node5</title>
<g id="a_node5"><a xlink:href="../../df/db5/a01158.html#a39035082d86796ef1bc89afedb666c64" target="_top" xlink:title=" ">
<polygon fill="none" stroke="black" points="443,-41 443,-60 625,-60 625,-41 443,-41"/>
<text text-anchor="middle" x="534" y="-48" font-family="Helvetica,sans-Serif" font-size="10.00">com.cliffc.aa.node.Node.walk_opt</text>
</a>
</g>
</g>
<!-- Node1&#45;&gt;Node5 -->
<g id="edge4" class="edge">
<title>Node1&#45;&gt;Node5</title>
<path fill="none" stroke="midnightblue" d="M659.98,-67.41C641.94,-64.97 622.99,-62.4 605.45,-60.03"/>
<polygon fill="midnightblue" stroke="midnightblue" points="659.51,-70.87 669.89,-68.75 660.45,-63.94 659.51,-70.87"/>
</g>
<!-- Node3 -->
<g id="node3" class="node">
<title>Node3</title>
<g id="a_node3"><a xlink:href="../../d0/dfb/a01066.html#ad0aa5c9f45cb37abe56da01c859c2c00" target="_top" xlink:title=" ">
<polygon fill="none" stroke="black" points="237,-91.5 237,-121.5 398,-121.5 398,-91.5 237,-91.5"/>
<text text-anchor="start" x="245" y="-109.5" font-family="Helvetica,sans-Serif" font-size="10.00">com.cliffc.aa.node.LoadNode.</text>
<text text-anchor="middle" x="317.5" y="-98.5" font-family="Helvetica,sans-Serif" font-size="10.00">_live_use</text>
</a>
</g>
</g>
<!-- Node2&#45;&gt;Node3 -->
<g id="edge2" class="edge">
<title>Node2&#45;&gt;Node3</title>
<path fill="none" stroke="midnightblue" d="M423.8,-106.5C415.18,-106.5 406.57,-106.5 398.21,-106.5"/>
<polygon fill="midnightblue" stroke="midnightblue" points="423.91,-110 433.91,-106.5 423.91,-103 423.91,-110"/>
</g>
<!-- Node4 -->
<g id="node4" class="node">
<title>Node4</title>
<g id="a_node4"><a xlink:href="../../d0/dfb/a01066.html#a909995b973eee1bccf21bdb389e1c53d" target="_top" xlink:title=" ">
<polygon fill="none" stroke="black" points="0,-97 0,-116 201,-116 201,-97 0,-97"/>
<text text-anchor="middle" x="100.5" y="-104" font-family="Helvetica,sans-Serif" font-size="10.00">com.cliffc.aa.node.LoadNode.live_use</text>
</a>
</g>
</g>
<!-- Node3&#45;&gt;Node4 -->
<g id="edge3" class="edge">
<title>Node3&#45;&gt;Node4</title>
<path fill="none" stroke="midnightblue" d="M226.59,-106.5C218.2,-106.5 209.65,-106.5 201.18,-106.5"/>
<polygon fill="midnightblue" stroke="midnightblue" points="226.75,-110 236.75,-106.5 226.75,-103 226.75,-110"/>
</g>
<!-- Node5&#45;&gt;Node5 -->
<g id="edge8" class="edge">
<title>Node5&#45;&gt;Node5</title>
<path fill="none" stroke="midnightblue" d="M572.97,-67.51C573.71,-73.57 560.72,-78.5 534,-78.5 496.83,-78.5 486.23,-68.96 502.2,-60.11"/>
<polygon fill="midnightblue" stroke="midnightblue" points="575.27,-64.86 565.8,-60.11 570.24,-69.73 575.27,-64.86"/>
</g>
<!-- Node6 -->
<g id="node6" class="node">
<title>Node6</title>
<g id="a_node6"><a xlink:href="../../d9/d0a/a00390.html#a30adb7d17b631cd35a2e994feaa511f1" target="_top" xlink:title=" ">
<polygon fill="none" stroke="black" points="244,-41 244,-60 391,-60 391,-41 244,-41"/>
<text text-anchor="middle" x="317.5" y="-48" font-family="Helvetica,sans-Serif" font-size="10.00">com.cliffc.aa.GVNGCM.gcp</text>
</a>
</g>
</g>
<!-- Node5&#45;&gt;Node6 -->
<g id="edge5" class="edge">
<title>Node5&#45;&gt;Node6</title>
<path fill="none" stroke="midnightblue" d="M432.76,-50.5C418.7,-50.5 404.47,-50.5 391.05,-50.5"/>
<polygon fill="midnightblue" stroke="midnightblue" points="432.97,-54 442.97,-50.5 432.96,-47 432.97,-54"/>
</g>
<!-- Node7 -->
<g id="node7" class="node">
<title>Node7</title>
<g id="a_node7"><a xlink:href="../../da/de3/a01398.html#a7b1a6eaad3b721625612e7475ca9bf3b" target="_top" xlink:title=" ">
<polygon fill="none" stroke="black" points="39,-50 39,-69 162,-69 162,-50 39,-50"/>
<text text-anchor="middle" x="100.5" y="-57" font-family="Helvetica,sans-Serif" font-size="10.00">com.cliffc.aa.Parse.go</text>
</a>
</g>
</g>
<!-- Node6&#45;&gt;Node7 -->
<g id="edge6" class="edge">
<title>Node6&#45;&gt;Node7</title>
<path fill="none" stroke="midnightblue" d="M233.62,-53.97C209.79,-54.97 184.26,-56.04 162.05,-56.97"/>
<polygon fill="midnightblue" stroke="midnightblue" points="233.87,-57.46 243.71,-53.55 233.57,-50.47 233.87,-57.46"/>
</g>
<!-- Node8 -->
<g id="node8" class="node">
<title>Node8</title>
<g id="a_node8"><a xlink:href="../../d4/d8e/a01694.html#a0047bc5cd2ee14b1d3822a5969bc0502" target="_top" xlink:title=" ">
<polygon fill="none" stroke="black" points="23.5,-0.5 23.5,-30.5 177.5,-30.5 177.5,-0.5 23.5,-0.5"/>
<text text-anchor="start" x="31.5" y="-18.5" font-family="Helvetica,sans-Serif" font-size="10.00">com.cliffc.aa.node.TestNode</text>
<text text-anchor="middle" x="100.5" y="-7.5" font-family="Helvetica,sans-Serif" font-size="10.00">Small.testRecursiveDisplay</text>
</a>
</g>
</g>
<!-- Node6&#45;&gt;Node8 -->
<g id="edge7" class="edge">
<title>Node6&#45;&gt;Node8</title>
<path fill="none" stroke="midnightblue" d="M247.96,-39.34C225.59,-35.7 200.63,-31.64 177.73,-27.91"/>
<polygon fill="midnightblue" stroke="midnightblue" points="247.6,-42.83 258.03,-40.98 248.73,-35.92 247.6,-42.83"/>
</g>
</g>
</svg>
        <g id="navigator" transform="translate(0 0)" fill="#404254">
                <rect fill="#f2f5e9" fill-opacity="0.5" stroke="#606060" stroke-width=".5" x="0" y="0" width="60" height="60"/>
                <use id="zoomplus" xlink:href="#zoomPlus" x="17" y="9" onmousedown="handleZoom(evt,'in')"/>
                <use id="zoomminus" xlink:href="#zoomMin" x="42" y="9" onmousedown="handleZoom(evt,'out')"/>
                <use id="reset" xlink:href="#resetDef" x="30" y="36" onmousedown="handleReset()"/>
                <g id="arrowUp" xlink:href="#dirArrow" transform="translate(30 24)" onmousedown="handlePan(0,-1)">
                  <use xlink:href="#rim" fill="#404040">
                        <set attributeName="fill" to="#808080" begin="arrowUp.mouseover" end="arrowUp.mouseout"/>
                  </use>
                  <path fill="none" stroke="white" stroke-width="1.5" d="M0,-3.0v7 M-2.5,-0.5L0,-3.0L2.5,-0.5"/>
                </g>
                <g id="arrowRight" xlink:href="#dirArrow" transform="rotate(90) translate(36 -43)" onmousedown="handlePan(1,0)">
                  <use xlink:href="#rim" fill="#404040">
                        <set attributeName="fill" to="#808080" begin="arrowRight.mouseover" end="arrowRight.mouseout"/>
                  </use>
                  <path fill="none" stroke="white" stroke-width="1.5" d="M0,-3.0v7 M-2.5,-0.5L0,-3.0L2.5,-0.5"/>
                </g>
                <g id="arrowDown" xlink:href="#dirArrow" transform="rotate(180) translate(-30 -48)" onmousedown="handlePan(0,1)">
                  <use xlink:href="#rim" fill="#404040">
                        <set attributeName="fill" to="#808080" begin="arrowDown.mouseover" end="arrowDown.mouseout"/>
                  </use>
                  <path fill="none" stroke="white" stroke-width="1.5" d="M0,-3.0v7 M-2.5,-0.5L0,-3.0L2.5,-0.5"/>
                </g>
                <g id="arrowLeft" xlink:href="#dirArrow" transform="rotate(270) translate(-36 17)" onmousedown="handlePan(-1,0)">
                  <use xlink:href="#rim" fill="#404040">
                        <set attributeName="fill" to="#808080" begin="arrowLeft.mouseover" end="arrowLeft.mouseout"/>
                  </use>
                  <path fill="none" stroke="white" stroke-width="1.5" d="M0,-3.0v7 M-2.5,-0.5L0,-3.0L2.5,-0.5"/>
                </g>
        </g>
        <svg viewBox="0 0 15 15" width="100%" height="30px" preserveAspectRatio="xMaxYMin meet">
         <g id="arrow_out" transform="scale(0.3 0.3)">
          <a xlink:href="a01478_aff7014d6ce72f17cafba3c2cef2cad88_icgraph_org.svg" target="_base">
           <rect id="button" ry="5" rx="5" y="6" x="6" height="38" width="38"
                fill="#f2f5e9" fill-opacity="0.5" stroke="#606060" stroke-width="1.0"/>
           <path id="arrow"
             d="M 11.500037,31.436501 C 11.940474,20.09759 22.043105,11.32322 32.158766,21.979434 L 37.068811,17.246167 C 37.068811,17.246167 37.088388,32 37.088388,32 L 22.160133,31.978069 C 22.160133,31.978069 26.997745,27.140456 26.997745,27.140456 C 18.528582,18.264221 13.291696,25.230495 11.500037,31.436501 z"
             style="fill:#404040;"/>
          </a>
         </g>
        </svg>
</svg>
