<?xml version="1.0" encoding="UTF-8" standalone="no"?>
<!DOCTYPE svg PUBLIC "-//W3C//DTD SVG 1.1//EN"
 "http://www.w3.org/Graphics/SVG/1.1/DTD/svg11.dtd">
<!-- Generated by graphviz version 2.43.0 (0)
 -->
<!-- Title: com.cliffc.aa.node.TestNode.pop Pages: 1 -->
<!--zoomable 116 -->
<svg id="main" version="1.1" xmlns="http://www.w3.org/2000/svg" xmlns:xlink="http://www.w3.org/1999/xlink" xml:space="preserve" onload="init(evt)">
<style type="text/css"><![CDATA[
.edge:hover path { stroke: red; }
.edge:hover polygon { stroke: red; fill: red; }
]]></style>
<script type="text/javascript"><![CDATA[
var edges = document.getElementsByTagName('g');
if (edges && edges.length) {
  for (var i=0;i<edges.length;i++) {
    if (edges[i].id.substr(0,4)=='edge') {
      edges[i].setAttribute('class','edge');
    }
  }
}
]]></script>
        <defs>
                <circle id="rim" cx="0" cy="0" r="7"/>
                <circle id="rim2" cx="0" cy="0" r="3.5"/>
                <g id="zoomPlus">
                        <use xlink:href="#rim" fill="#404040">
                                <set attributeName="fill" to="#808080" begin="zoomplus.mouseover" end="zoomplus.mouseout"/>
                        </use>
                        <path d="M-4,0h8M0,-4v8" fill="none" stroke="white" stroke-width="1.5" pointer-events="none"/>
                </g>
                <g id="zoomMin">
                        <use xlink:href="#rim" fill="#404040">
                                <set attributeName="fill" to="#808080" begin="zoomminus.mouseover" end="zoomminus.mouseout"/>
                        </use>
                        <path d="M-4,0h8" fill="none" stroke="white" stroke-width="1.5" pointer-events="none"/>
                </g>
                <g id="dirArrow">
                        <path fill="none" stroke="white" stroke-width="1.5" d="M0,-3.0v7 M-2.5,-0.5L0,-3.0L2.5,-0.5"/>
                </g>
               <g id="resetDef">
                       <use xlink:href="#rim2" fill="#404040">
                               <set attributeName="fill" to="#808080" begin="reset.mouseover" end="reset.mouseout"/>
                       </use>
               </g>
        </defs>

<script type="text/javascript">
var viewWidth = 1200;
var viewHeight = 116;
var sectionId = 'dynsection-10';
</script>
<script xlink:href="../../svgpan.js"/>
<svg id="graph" class="graph">
<g id="viewport">
<title>com.cliffc.aa.node.TestNode.pop</title>
<!-- Node1 -->
<g id="node1" class="node">
<title>Node1</title>
<g id="a_node1"><a xlink:title=" ">
<polygon fill="#bfbfbf" stroke="black" points="1017,-44.5 1017,-63.5 1192,-63.5 1192,-44.5 1017,-44.5"/>
<text text-anchor="middle" x="1104.5" y="-51.5" font-family="Helvetica,sans-Serif" font-size="10.00">com.cliffc.aa.node.TestNode.pop</text>
</a>
</g>
</g>
<!-- Node2 -->
<g id="node2" class="node">
<title>Node2</title>
<g id="a_node2"><a xlink:href="../../d6/d01/a01690.html#a154afbf005e688557a82743a3c0254ea" target="_top" xlink:title=" ">
<polygon fill="none" stroke="black" points="727,-44.5 727,-63.5 981,-63.5 981,-44.5 727,-44.5"/>
<text text-anchor="middle" x="854" y="-51.5" font-family="Helvetica,sans-Serif" font-size="10.00">com.cliffc.aa.node.TestNode.test1monotonic_init</text>
</a>
</g>
</g>
<!-- Node1&#45;&gt;Node2 -->
<g id="edge1" class="edge">
<title>Node1&#45;&gt;Node2</title>
<path fill="none" stroke="midnightblue" d="M1006.74,-54C998.31,-54 989.69,-54 981.06,-54"/>
<polygon fill="midnightblue" stroke="midnightblue" points="1006.94,-57.5 1016.94,-54 1006.94,-50.5 1006.94,-57.5"/>
</g>
<!-- Node3 -->
<g id="node3" class="node">
<title>Node3</title>
<g id="a_node3"><a xlink:href="../../d6/d01/a01690.html#a5de46795b0c66c08ee8ae472193705a0" target="_top" xlink:title=" ">
<polygon fill="none" stroke="black" points="444,-88.5 444,-107.5 677,-107.5 677,-88.5 444,-88.5"/>
<text text-anchor="middle" x="560.5" y="-95.5" font-family="Helvetica,sans-Serif" font-size="10.00">com.cliffc.aa.node.TestNode.test1monotonic</text>
</a>
</g>
</g>
<!-- Node2&#45;&gt;Node3 -->
<g id="edge2" class="edge">
<title>Node2&#45;&gt;Node3</title>
<path fill="none" stroke="midnightblue" d="M781.68,-65.12C753.44,-69.5 720.7,-74.53 691,-79 670.22,-82.13 647.54,-85.48 627.06,-88.48"/>
<polygon fill="midnightblue" stroke="midnightblue" points="782.51,-68.54 791.86,-63.55 781.44,-61.62 782.51,-68.54"/>
</g>
<!-- Node6 -->
<g id="node6" class="node">
<title>Node6</title>
<g id="a_node6"><a xlink:href="../../d6/d01/a01690.html#a88fb22ff624ae59e82bb604c9de813a3" target="_top" xlink:title=" ">
<polygon fill="none" stroke="black" points="444,-39 444,-69 677,-69 677,-39 444,-39"/>
<text text-anchor="start" x="452" y="-57" font-family="Helvetica,sans-Serif" font-size="10.00">com.cliffc.aa.node.TestNode.test1monotonic</text>
<text text-anchor="middle" x="560.5" y="-46" font-family="Helvetica,sans-Serif" font-size="10.00">_intrinsic</text>
</a>
</g>
</g>
<!-- Node2&#45;&gt;Node6 -->
<g id="edge5" class="edge">
<title>Node2&#45;&gt;Node6</title>
<path fill="none" stroke="midnightblue" d="M716.77,-54C703.57,-54 690.26,-54 677.29,-54"/>
<polygon fill="midnightblue" stroke="midnightblue" points="716.84,-57.5 726.84,-54 716.84,-50.5 716.84,-57.5"/>
</g>
<!-- Node7 -->
<g id="node7" class="node">
<title>Node7</title>
<g id="a_node7"><a xlink:href="../../d6/d01/a01690.html#a18d0da5d331b4e6af53479cb928172c2" target="_top" xlink:title=" ">
<polygon fill="none" stroke="black" points="430,-0.5 430,-19.5 691,-19.5 691,-0.5 430,-0.5"/>
<text text-anchor="middle" x="560.5" y="-7.5" font-family="Helvetica,sans-Serif" font-size="10.00">com.cliffc.aa.node.TestNode.test1monotonic_prim</text>
</a>
</g>
</g>
<!-- Node2&#45;&gt;Node7 -->
<g id="edge7" class="edge">
<title>Node2&#45;&gt;Node7</title>
<path fill="none" stroke="midnightblue" d="M779.77,-42.95C731.99,-35.73 670.25,-26.41 624.63,-19.53"/>
<polygon fill="midnightblue" stroke="midnightblue" points="779.34,-46.42 789.75,-44.45 780.38,-39.5 779.34,-46.42"/>
</g>
<!-- Node4 -->
<g id="node4" class="node">
<title>Node4</title>
<g id="a_node4"><a xlink:href="../../d6/d01/a01690.html#a6e6a3a207140c4e96233e6539e82da33" target="_top" xlink:title=" ">
<polygon fill="none" stroke="black" points="218,-39 218,-69 394,-69 394,-39 218,-39"/>
<text text-anchor="start" x="226" y="-57" font-family="Helvetica,sans-Serif" font-size="10.00">com.cliffc.aa.node.TestNode.test</text>
<text text-anchor="middle" x="306" y="-46" font-family="Helvetica,sans-Serif" font-size="10.00">Monotonic</text>
</a>
</g>
</g>
<!-- Node3&#45;&gt;Node4 -->
<g id="edge3" class="edge">
<title>Node3&#45;&gt;Node4</title>
<path fill="none" stroke="midnightblue" d="M479.69,-86.99C463.23,-84.53 446.03,-81.8 430,-79 412.94,-76.02 394.61,-72.47 377.45,-69.01"/>
<polygon fill="midnightblue" stroke="midnightblue" points="479.42,-90.49 489.83,-88.49 480.45,-83.57 479.42,-90.49"/>
</g>
<!-- Node5 -->
<g id="node5" class="node">
<title>Node5</title>
<g id="a_node5"><a xlink:href="../../d6/d01/a01690.html#a7c3cda8a8bb1f4a81d205db0551e91d1" target="_top" xlink:title=" ">
<polygon fill="none" stroke="black" points="0,-44.5 0,-63.5 182,-63.5 182,-44.5 0,-44.5"/>
<text text-anchor="middle" x="91" y="-51.5" font-family="Helvetica,sans-Serif" font-size="10.00">com.cliffc.aa.node.TestNode.main</text>
</a>
</g>
</g>
<!-- Node4&#45;&gt;Node5 -->
<g id="edge4" class="edge">
<title>Node4&#45;&gt;Node5</title>
<path fill="none" stroke="midnightblue" d="M207.52,-54C199.09,-54 190.59,-54 182.22,-54"/>
<polygon fill="midnightblue" stroke="midnightblue" points="207.75,-57.5 217.75,-54 207.75,-50.5 207.75,-57.5"/>
</g>
<!-- Node6&#45;&gt;Node4 -->
<g id="edge6" class="edge">
<title>Node6&#45;&gt;Node4</title>
<path fill="none" stroke="midnightblue" d="M433.74,-54C420.34,-54 406.94,-54 394.14,-54"/>
<polygon fill="midnightblue" stroke="midnightblue" points="433.96,-57.5 443.96,-54 433.96,-50.5 433.96,-57.5"/>
</g>
<!-- Node7&#45;&gt;Node4 -->
<g id="edge8" class="edge">
<title>Node7&#45;&gt;Node4</title>
<path fill="none" stroke="midnightblue" d="M484.2,-21.12C466.41,-23.88 447.52,-26.94 430,-30 414.25,-32.75 397.4,-35.9 381.39,-39"/>
<polygon fill="midnightblue" stroke="midnightblue" points="485.18,-24.5 494.53,-19.52 484.12,-17.59 485.18,-24.5"/>
</g>
</g>
</svg>
        <g id="navigator" transform="translate(0 0)" fill="#404254">
                <rect fill="#f2f5e9" fill-opacity="0.5" stroke="#606060" stroke-width=".5" x="0" y="0" width="60" height="60"/>
                <use id="zoomplus" xlink:href="#zoomPlus" x="17" y="9" onmousedown="handleZoom(evt,'in')"/>
                <use id="zoomminus" xlink:href="#zoomMin" x="42" y="9" onmousedown="handleZoom(evt,'out')"/>
                <use id="reset" xlink:href="#resetDef" x="30" y="36" onmousedown="handleReset()"/>
                <g id="arrowUp" xlink:href="#dirArrow" transform="translate(30 24)" onmousedown="handlePan(0,-1)">
                  <use xlink:href="#rim" fill="#404040">
                        <set attributeName="fill" to="#808080" begin="arrowUp.mouseover" end="arrowUp.mouseout"/>
                  </use>
                  <path fill="none" stroke="white" stroke-width="1.5" d="M0,-3.0v7 M-2.5,-0.5L0,-3.0L2.5,-0.5"/>
                </g>
                <g id="arrowRight" xlink:href="#dirArrow" transform="rotate(90) translate(36 -43)" onmousedown="handlePan(1,0)">
                  <use xlink:href="#rim" fill="#404040">
                        <set attributeName="fill" to="#808080" begin="arrowRight.mouseover" end="arrowRight.mouseout"/>
                  </use>
                  <path fill="none" stroke="white" stroke-width="1.5" d="M0,-3.0v7 M-2.5,-0.5L0,-3.0L2.5,-0.5"/>
                </g>
                <g id="arrowDown" xlink:href="#dirArrow" transform="rotate(180) translate(-30 -48)" onmousedown="handlePan(0,1)">
                  <use xlink:href="#rim" fill="#404040">
                        <set attributeName="fill" to="#808080" begin="arrowDown.mouseover" end="arrowDown.mouseout"/>
                  </use>
                  <path fill="none" stroke="white" stroke-width="1.5" d="M0,-3.0v7 M-2.5,-0.5L0,-3.0L2.5,-0.5"/>
                </g>
                <g id="arrowLeft" xlink:href="#dirArrow" transform="rotate(270) translate(-36 17)" onmousedown="handlePan(-1,0)">
                  <use xlink:href="#rim" fill="#404040">
                        <set attributeName="fill" to="#808080" begin="arrowLeft.mouseover" end="arrowLeft.mouseout"/>
                  </use>
                  <path fill="none" stroke="white" stroke-width="1.5" d="M0,-3.0v7 M-2.5,-0.5L0,-3.0L2.5,-0.5"/>
                </g>
        </g>
        <svg viewBox="0 0 15 15" width="100%" height="30px" preserveAspectRatio="xMaxYMin meet">
         <g id="arrow_out" transform="scale(0.3 0.3)">
          <a xlink:href="a01690_af9abfd94b6a12e559455e44a7971dd47_icgraph_org.svg" target="_base">
           <rect id="button" ry="5" rx="5" y="6" x="6" height="38" width="38"
                fill="#f2f5e9" fill-opacity="0.5" stroke="#606060" stroke-width="1.0"/>
           <path id="arrow"
             d="M 11.500037,31.436501 C 11.940474,20.09759 22.043105,11.32322 32.158766,21.979434 L 37.068811,17.246167 C 37.068811,17.246167 37.088388,32 37.088388,32 L 22.160133,31.978069 C 22.160133,31.978069 26.997745,27.140456 26.997745,27.140456 C 18.528582,18.264221 13.291696,25.230495 11.500037,31.436501 z"
             style="fill:#404040;"/>
          </a>
         </g>
        </svg>
</svg>
