<?xml version="1.0" encoding="UTF-8" standalone="no"?>
<!DOCTYPE svg PUBLIC "-//W3C//DTD SVG 1.1//EN"
 "http://www.w3.org/Graphics/SVG/1.1/DTD/svg11.dtd">
<!-- Generated by graphviz version 2.43.0 (0)
 -->
<!-- Title: com.cliffc.aa.node.TestNode.test1monotonic_prim Pages: 1 -->
<svg width="1885pt" height="655pt"
 viewBox="0.00 0.00 1885.00 655.00" xmlns="http://www.w3.org/2000/svg" xmlns:xlink="http://www.w3.org/1999/xlink">
<g id="graph0" class="graph" transform="scale(1 1) rotate(0) translate(4 651)">
<title>com.cliffc.aa.node.TestNode.test1monotonic_prim</title>
<!-- Node1 -->
<g id="node1" class="node">
<title>Node1</title>
<g id="a_node1"><a xlink:title=" ">
<polygon fill="#bfbfbf" stroke="black" points="0,-471.5 0,-490.5 261,-490.5 261,-471.5 0,-471.5"/>
<text text-anchor="middle" x="130.5" y="-478.5" font-family="Helvetica,sans-Serif" font-size="10.00">com.cliffc.aa.node.TestNode.test1monotonic_prim</text>
</a>
</g>
</g>
<!-- Node2 -->
<g id="node2" class="node">
<title>Node2</title>
<g id="a_node2"><a xlink:href="../../df/db5/a01158.html#a1ac8aa21e9dce06d822c6f4c4cf510da" target="_top" xlink:title=" ">
<polygon fill="none" stroke="black" points="590,-569.5 590,-588.5 766,-588.5 766,-569.5 590,-569.5"/>
<text text-anchor="middle" x="678" y="-576.5" font-family="Helvetica,sans-Serif" font-size="10.00">com.cliffc.aa.node.Node.add_def</text>
</a>
</g>
</g>
<!-- Node1&#45;&gt;Node2 -->
<g id="edge1" class="edge">
<title>Node1&#45;&gt;Node2</title>
<path fill="none" stroke="midnightblue" d="M165.84,-490.51C199.17,-499.5 251.27,-512.93 297,-522 396.41,-541.72 511.67,-558.11 588.95,-568.18"/>
<polygon fill="midnightblue" stroke="midnightblue" points="588.76,-571.68 599.12,-569.5 589.65,-564.74 588.76,-571.68"/>
</g>
<!-- Node10 -->
<g id="node10" class="node">
<title>Node10</title>
<g id="a_node10"><a xlink:href="../../df/db5/a01158.html#a235c515f5ccb0326ce0a63f8c08a1922" target="_top" xlink:title=" ">
<polygon fill="none" stroke="black" points="343.5,-493.5 343.5,-512.5 504.5,-512.5 504.5,-493.5 343.5,-493.5"/>
<text text-anchor="middle" x="424" y="-500.5" font-family="Helvetica,sans-Serif" font-size="10.00">com.cliffc.aa.node.Node.copy</text>
</a>
</g>
</g>
<!-- Node1&#45;&gt;Node10 -->
<g id="edge10" class="edge">
<title>Node1&#45;&gt;Node10</title>
<path fill="none" stroke="midnightblue" d="M257.66,-490.52C283.11,-492.44 309.36,-494.42 333.25,-496.23"/>
<polygon fill="midnightblue" stroke="midnightblue" points="333.1,-499.73 343.34,-496.99 333.63,-492.75 333.1,-499.73"/>
</g>
<!-- Node32 -->
<g id="node32" class="node">
<title>Node32</title>
<g id="a_node32"><a xlink:href="../../da/d36/a01482.html#a885f0bd360cf3b920bfe34e0da938efe" target="_top" xlink:title=" ">
<polygon fill="none" stroke="black" points="351,-444 351,-474 497,-474 497,-444 351,-444"/>
<text text-anchor="start" x="359" y="-462" font-family="Helvetica,sans-Serif" font-size="10.00">com.cliffc.aa.type.TypeFun</text>
<text text-anchor="middle" x="424" y="-451" font-family="Helvetica,sans-Serif" font-size="10.00">Sig.nargs</text>
</a>
</g>
</g>
<!-- Node1&#45;&gt;Node32 -->
<g id="edge38" class="edge">
<title>Node1&#45;&gt;Node32</title>
<path fill="none" stroke="midnightblue" d="M257.66,-471.48C285.78,-469.36 314.89,-467.16 340.7,-465.21"/>
<polygon fill="midnightblue" stroke="midnightblue" points="341.08,-468.69 350.79,-464.45 340.56,-461.71 341.08,-468.69"/>
</g>
<!-- Node33 -->
<g id="node33" class="node">
<title>Node33</title>
<g id="a_node33"><a xlink:href="../../d6/d01/a01690.html#a154afbf005e688557a82743a3c0254ea" target="_top" xlink:title=" ">
<polygon fill="none" stroke="black" points="297,-202.5 297,-221.5 551,-221.5 551,-202.5 297,-202.5"/>
<text text-anchor="middle" x="424" y="-209.5" font-family="Helvetica,sans-Serif" font-size="10.00">com.cliffc.aa.node.TestNode.test1monotonic_init</text>
</a>
</g>
</g>
<!-- Node1&#45;&gt;Node33 -->
<g id="edge39" class="edge">
<title>Node1&#45;&gt;Node33</title>
<path fill="none" stroke="midnightblue" d="M141.87,-471.43C184.9,-431.72 349.62,-279.71 404.84,-228.76"/>
<polygon fill="midnightblue" stroke="midnightblue" points="407.47,-231.09 412.45,-221.74 402.72,-225.95 407.47,-231.09"/>
</g>
<!-- Node3 -->
<g id="node3" class="node">
<title>Node3</title>
<g id="a_node3"><a xlink:href="../../df/db5/a01158.html#abd1ef05754be5fb96db69e3bd0a0a8bd" target="_top" xlink:title=" ">
<polygon fill="none" stroke="black" points="809,-581.5 809,-600.5 985,-600.5 985,-581.5 809,-581.5"/>
<text text-anchor="middle" x="897" y="-588.5" font-family="Helvetica,sans-Serif" font-size="10.00">com.cliffc.aa.node.Node.unelock</text>
</a>
</g>
</g>
<!-- Node2&#45;&gt;Node3 -->
<g id="edge2" class="edge">
<title>Node2&#45;&gt;Node3</title>
<path fill="none" stroke="midnightblue" d="M766.01,-583.81C776.85,-584.41 787.98,-585.03 798.95,-585.63"/>
<polygon fill="midnightblue" stroke="midnightblue" points="798.79,-589.13 808.97,-586.19 799.18,-582.14 798.79,-589.13"/>
</g>
<!-- Node4 -->
<g id="node4" class="node">
<title>Node4</title>
<g id="a_node4"><a xlink:href="../../d9/d0a/a00390.html#a195b2b7d0b8f0f1770422573c2cc22ff" target="_top" xlink:title=" ">
<polygon fill="none" stroke="black" points="1038,-589.5 1038,-608.5 1211,-608.5 1211,-589.5 1038,-589.5"/>
<text text-anchor="middle" x="1124.5" y="-596.5" font-family="Helvetica,sans-Serif" font-size="10.00">com.cliffc.aa.GVNGCM.add_flow</text>
</a>
</g>
</g>
<!-- Node3&#45;&gt;Node4 -->
<g id="edge3" class="edge">
<title>Node3&#45;&gt;Node4</title>
<path fill="none" stroke="midnightblue" d="M985.18,-594.09C999.05,-594.58 1013.45,-595.1 1027.51,-595.59"/>
<polygon fill="midnightblue" stroke="midnightblue" points="1027.54,-599.1 1037.66,-595.95 1027.79,-592.1 1027.54,-599.1"/>
</g>
<!-- Node8 -->
<g id="node8" class="node">
<title>Node8</title>
<g id="a_node8"><a xlink:href="../../d9/d0a/a00390.html#ad52b88a21b47c661e6f6a3bcfdbb3576" target="_top" xlink:title=" ">
<polygon fill="none" stroke="black" points="1050.5,-540 1050.5,-570 1198.5,-570 1198.5,-540 1050.5,-540"/>
<text text-anchor="start" x="1058.5" y="-558" font-family="Helvetica,sans-Serif" font-size="10.00">com.cliffc.aa.GVNGCM.add</text>
<text text-anchor="middle" x="1124.5" y="-547" font-family="Helvetica,sans-Serif" font-size="10.00">_reduce</text>
</a>
</g>
</g>
<!-- Node3&#45;&gt;Node8 -->
<g id="edge7" class="edge">
<title>Node3&#45;&gt;Node8</title>
<path fill="none" stroke="midnightblue" d="M957.54,-581.49C982.88,-577.45 1012.86,-572.66 1040.33,-568.28"/>
<polygon fill="midnightblue" stroke="midnightblue" points="1041,-571.72 1050.32,-566.68 1039.89,-564.8 1041,-571.72"/>
</g>
<!-- Node9 -->
<g id="node9" class="node">
<title>Node9</title>
<g id="a_node9"><a xlink:href="../../df/db5/a01158.html#abcbaaf7e990f5a12a68e91a70af8fb7e" target="_top" xlink:title=" ">
<polygon fill="none" stroke="black" points="1029,-627.5 1029,-646.5 1220,-646.5 1220,-627.5 1029,-627.5"/>
<text text-anchor="middle" x="1124.5" y="-634.5" font-family="Helvetica,sans-Serif" font-size="10.00">com.cliffc.aa.node.Node.check_vals</text>
</a>
</g>
</g>
<!-- Node3&#45;&gt;Node9 -->
<g id="edge9" class="edge">
<title>Node3&#45;&gt;Node9</title>
<path fill="none" stroke="midnightblue" d="M941.75,-600.51C966.21,-605.78 997.27,-612.38 1025,-618 1037.32,-620.5 1050.53,-623.1 1063.14,-625.54"/>
<polygon fill="midnightblue" stroke="midnightblue" points="1062.62,-629.01 1073.1,-627.47 1063.95,-622.14 1062.62,-629.01"/>
</g>
<!-- Node5 -->
<g id="node5" class="node">
<title>Node5</title>
<g id="a_node5"><a xlink:href="../../d9/d0a/a00390.html#a6074ca566ae10e746122ac8d09239d02" target="_top" xlink:title=" ">
<polygon fill="none" stroke="black" points="1262,-545.5 1262,-564.5 1439,-564.5 1439,-545.5 1262,-545.5"/>
<text text-anchor="middle" x="1350.5" y="-552.5" font-family="Helvetica,sans-Serif" font-size="10.00">com.cliffc.aa.GVNGCM.add_work</text>
</a>
</g>
</g>
<!-- Node4&#45;&gt;Node5 -->
<g id="edge4" class="edge">
<title>Node4&#45;&gt;Node5</title>
<path fill="none" stroke="midnightblue" d="M1175.12,-589.49C1190.76,-586.48 1208.11,-583.12 1224,-580 1246.3,-575.63 1270.82,-570.76 1292.22,-566.49"/>
<polygon fill="midnightblue" stroke="midnightblue" points="1293.02,-569.9 1302.14,-564.51 1291.64,-563.03 1293.02,-569.9"/>
</g>
<!-- Node6 -->
<g id="node6" class="node">
<title>Node6</title>
<g id="a_node6"><a xlink:href="../../d6/d2f/a01394.html#acc21c59313a6ce5c286431fd2d4fd891" target="_top" xlink:title=" ">
<polygon fill="none" stroke="black" points="1495.5,-545.5 1495.5,-564.5 1650.5,-564.5 1650.5,-545.5 1495.5,-545.5"/>
<text text-anchor="middle" x="1573" y="-552.5" font-family="Helvetica,sans-Serif" font-size="10.00">com.cliffc.aa.node.Work.add</text>
</a>
</g>
</g>
<!-- Node5&#45;&gt;Node6 -->
<g id="edge5" class="edge">
<title>Node5&#45;&gt;Node6</title>
<path fill="none" stroke="midnightblue" d="M1439.28,-555C1454.31,-555 1469.92,-555 1484.93,-555"/>
<polygon fill="midnightblue" stroke="midnightblue" points="1485.21,-558.5 1495.21,-555 1485.21,-551.5 1485.21,-558.5"/>
</g>
<!-- Node7 -->
<g id="node7" class="node">
<title>Node7</title>
<g id="a_node7"><a xlink:href="../../df/dee/a01646.html#a88ad20daf92e92fe0e3925b23c4fecf0" target="_top" xlink:title=" ">
<polygon fill="none" stroke="black" points="1712,-545.5 1712,-564.5 1870,-564.5 1870,-545.5 1712,-545.5"/>
<text text-anchor="middle" x="1791" y="-552.5" font-family="Helvetica,sans-Serif" font-size="10.00">com.cliffc.aa.util.VBitSet.tset</text>
</a>
</g>
</g>
<!-- Node6&#45;&gt;Node7 -->
<g id="edge6" class="edge">
<title>Node6&#45;&gt;Node7</title>
<path fill="none" stroke="midnightblue" d="M1650.76,-555C1667.13,-555 1684.55,-555 1701.32,-555"/>
<polygon fill="midnightblue" stroke="midnightblue" points="1701.66,-558.5 1711.66,-555 1701.66,-551.5 1701.66,-558.5"/>
</g>
<!-- Node8&#45;&gt;Node5 -->
<g id="edge8" class="edge">
<title>Node8&#45;&gt;Node5</title>
<path fill="none" stroke="midnightblue" d="M1198.54,-555C1215.4,-555 1233.61,-555 1251.35,-555"/>
<polygon fill="midnightblue" stroke="midnightblue" points="1251.72,-558.5 1261.72,-555 1251.72,-551.5 1251.72,-558.5"/>
</g>
<!-- Node10&#45;&gt;Node2 -->
<g id="edge11" class="edge">
<title>Node10&#45;&gt;Node2</title>
<path fill="none" stroke="midnightblue" d="M454.15,-512.56C479.76,-521.06 518,-533.96 551,-546 567.13,-551.88 570.55,-555.1 587,-560 595.88,-562.64 605.36,-565.07 614.7,-567.23"/>
<polygon fill="midnightblue" stroke="midnightblue" points="614.24,-570.71 624.76,-569.48 615.77,-563.88 614.24,-570.71"/>
</g>
<!-- Node11 -->
<g id="node11" class="node">
<title>Node11</title>
<g id="a_node11"><a xlink:href="../../d9/d0a/a00390.html#a7604d1a7a8281ef87e4af6c1939b0c85" target="_top" xlink:title=" ">
<polygon fill="none" stroke="black" points="1050.5,-491 1050.5,-521 1198.5,-521 1198.5,-491 1050.5,-491"/>
<text text-anchor="start" x="1058.5" y="-509" font-family="Helvetica,sans-Serif" font-size="10.00">com.cliffc.aa.GVNGCM.add</text>
<text text-anchor="middle" x="1124.5" y="-498" font-family="Helvetica,sans-Serif" font-size="10.00">_work_all</text>
</a>
</g>
</g>
<!-- Node10&#45;&gt;Node11 -->
<g id="edge12" class="edge">
<title>Node10&#45;&gt;Node11</title>
<path fill="none" stroke="midnightblue" d="M504.79,-503.34C637.97,-503.91 904.31,-505.06 1039.95,-505.64"/>
<polygon fill="midnightblue" stroke="midnightblue" points="1040.27,-509.14 1050.28,-505.69 1040.3,-502.14 1040.27,-509.14"/>
</g>
<!-- Node13 -->
<g id="node13" class="node">
<title>Node13</title>
<g id="a_node13"><a xlink:href="../../df/db5/a01158.html#a9e1120a3037091ac794f155555d249c5" target="_top" xlink:title=" ">
<polygon fill="none" stroke="black" points="587,-455.5 587,-474.5 769,-474.5 769,-455.5 587,-455.5"/>
<text text-anchor="middle" x="678" y="-462.5" font-family="Helvetica,sans-Serif" font-size="10.00">com.cliffc.aa.node.Node.new_tvar</text>
</a>
</g>
</g>
<!-- Node10&#45;&gt;Node13 -->
<g id="edge15" class="edge">
<title>Node10&#45;&gt;Node13</title>
<path fill="none" stroke="midnightblue" d="M488.26,-493.46C523.31,-488.17 567.06,-481.58 603.6,-476.07"/>
<polygon fill="midnightblue" stroke="midnightblue" points="604.34,-479.5 613.71,-474.54 603.3,-472.57 604.34,-479.5"/>
</g>
<!-- Node30 -->
<g id="node30" class="node">
<title>Node30</title>
<g id="a_node30"><a xlink:href="../../df/db5/a01158.html#a0f4fe9a5f0bc16a50d28f4f98f0d68fe" target="_top" xlink:title=" ">
<polygon fill="none" stroke="black" points="591.5,-417.5 591.5,-436.5 764.5,-436.5 764.5,-417.5 591.5,-417.5"/>
<text text-anchor="middle" x="678" y="-424.5" font-family="Helvetica,sans-Serif" font-size="10.00">com.cliffc.aa.node.Node.newuid</text>
</a>
</g>
</g>
<!-- Node10&#45;&gt;Node30 -->
<g id="edge36" class="edge">
<title>Node10&#45;&gt;Node30</title>
<path fill="none" stroke="midnightblue" d="M504.82,-499.09C520.74,-496.1 536.88,-491.37 551,-484 571.62,-473.24 566.7,-457.36 587,-446 591.14,-443.68 595.52,-441.65 600.05,-439.86"/>
<polygon fill="midnightblue" stroke="midnightblue" points="601.23,-443.16 609.49,-436.53 598.9,-436.56 601.23,-443.16"/>
</g>
<!-- Node31 -->
<g id="node31" class="node">
<title>Node31</title>
<g id="a_node31"><a xlink:href="../../df/db5/a01158.html#a217fc84c955612e94cf8b9d9098249a9" target="_top" xlink:title=" ">
<polygon fill="none" stroke="black" points="596.5,-531.5 596.5,-550.5 759.5,-550.5 759.5,-531.5 596.5,-531.5"/>
<text text-anchor="middle" x="678" y="-538.5" font-family="Helvetica,sans-Serif" font-size="10.00">com.cliffc.aa.node.Node.Node</text>
</a>
</g>
</g>
<!-- Node10&#45;&gt;Node31 -->
<g id="edge37" class="edge">
<title>Node10&#45;&gt;Node31</title>
<path fill="none" stroke="midnightblue" d="M488.26,-512.54C523.31,-517.83 567.06,-524.42 603.6,-529.93"/>
<polygon fill="midnightblue" stroke="midnightblue" points="603.3,-533.43 613.71,-531.46 604.34,-526.5 603.3,-533.43"/>
</g>
<!-- Node11&#45;&gt;Node5 -->
<g id="edge13" class="edge">
<title>Node11&#45;&gt;Node5</title>
<path fill="none" stroke="midnightblue" d="M1194.23,-521.03C1226.93,-528.19 1265.44,-536.61 1295.93,-543.28"/>
<polygon fill="midnightblue" stroke="midnightblue" points="1295.43,-546.75 1305.94,-545.47 1296.92,-539.92 1295.43,-546.75"/>
</g>
<!-- Node12 -->
<g id="node12" class="node">
<title>Node12</title>
<g id="a_node12"><a xlink:href="../../df/db5/a01158.html#ab7694c22a9c7542842726bcfb0eb5922" target="_top" xlink:title=" ">
<polygon fill="none" stroke="black" points="1263,-500.5 1263,-519.5 1438,-519.5 1438,-500.5 1263,-500.5"/>
<text text-anchor="middle" x="1350.5" y="-507.5" font-family="Helvetica,sans-Serif" font-size="10.00">com.cliffc.aa.node.Node.is_dead</text>
</a>
</g>
</g>
<!-- Node11&#45;&gt;Node12 -->
<g id="edge14" class="edge">
<title>Node11&#45;&gt;Node12</title>
<path fill="none" stroke="midnightblue" d="M1198.54,-507.3C1215.88,-507.61 1234.65,-507.95 1252.86,-508.27"/>
<polygon fill="midnightblue" stroke="midnightblue" points="1252.85,-511.77 1262.91,-508.45 1252.98,-504.78 1252.85,-511.77"/>
</g>
<!-- Node14 -->
<g id="node14" class="node">
<title>Node14</title>
<g id="a_node14"><a xlink:href="../../dc/d25/a01406.html#a40fbdc3d7df0c7432ff5ac0561b5a13e" target="_top" xlink:title=" ">
<polygon fill="none" stroke="black" points="809,-452.5 809,-471.5 985,-471.5 985,-452.5 809,-452.5"/>
<text text-anchor="middle" x="897" y="-459.5" font-family="Helvetica,sans-Serif" font-size="10.00">com.cliffc.aa.tvar.TV2.make_leaf</text>
</a>
</g>
</g>
<!-- Node13&#45;&gt;Node14 -->
<g id="edge16" class="edge">
<title>Node13&#45;&gt;Node14</title>
<path fill="none" stroke="midnightblue" d="M769.14,-463.75C778.91,-463.62 788.88,-463.48 798.72,-463.34"/>
<polygon fill="midnightblue" stroke="midnightblue" points="798.98,-466.84 808.93,-463.2 798.88,-459.84 798.98,-466.84"/>
</g>
<!-- Node15 -->
<g id="node15" class="node">
<title>Node15</title>
<g id="a_node15"><a xlink:href="../../d8/df1/a01414.html#a56817ac6db518b86fd24f5db8f5f4206" target="_top" xlink:title=" ">
<polygon fill="none" stroke="black" points="1035,-452.5 1035,-471.5 1214,-471.5 1214,-452.5 1035,-452.5"/>
<text text-anchor="middle" x="1124.5" y="-459.5" font-family="Helvetica,sans-Serif" font-size="10.00">com.cliffc.aa.tvar.UQNodes.make</text>
</a>
</g>
</g>
<!-- Node14&#45;&gt;Node15 -->
<g id="edge17" class="edge">
<title>Node14&#45;&gt;Node15</title>
<path fill="none" stroke="midnightblue" d="M985.18,-462C998,-462 1011.27,-462 1024.3,-462"/>
<polygon fill="midnightblue" stroke="midnightblue" points="1024.69,-465.5 1034.69,-462 1024.69,-458.5 1024.69,-465.5"/>
</g>
<!-- Node22 -->
<g id="node22" class="node">
<title>Node22</title>
<g id="a_node22"><a xlink:href="../../dc/d25/a01406.html#a60bdc3571827136bffe84bddd53e8201" target="_top" xlink:title=" ">
<polygon fill="none" stroke="black" points="1048.5,-366 1048.5,-396 1200.5,-396 1200.5,-366 1048.5,-366"/>
<text text-anchor="start" x="1056.5" y="-384" font-family="Helvetica,sans-Serif" font-size="10.00">com.cliffc.aa.tvar.TV2.make</text>
<text text-anchor="middle" x="1124.5" y="-373" font-family="Helvetica,sans-Serif" font-size="10.00">_leaf_ns</text>
</a>
</g>
</g>
<!-- Node14&#45;&gt;Node22 -->
<g id="edge25" class="edge">
<title>Node14&#45;&gt;Node22</title>
<path fill="none" stroke="midnightblue" d="M924.75,-452.39C960.91,-439.4 1026.13,-415.98 1071.97,-399.51"/>
<polygon fill="midnightblue" stroke="midnightblue" points="1073.21,-402.78 1081.44,-396.11 1070.85,-396.19 1073.21,-402.78"/>
</g>
<!-- Node15&#45;&gt;Node12 -->
<g id="edge23" class="edge">
<title>Node15&#45;&gt;Node12</title>
<path fill="none" stroke="midnightblue" d="M1174.69,-471.54C1190.47,-474.72 1208,-478.38 1224,-482 1240.09,-485.64 1243.93,-487.29 1260,-491 1270.66,-493.46 1282.07,-495.98 1293.05,-498.34"/>
<polygon fill="midnightblue" stroke="midnightblue" points="1292.47,-501.79 1302.98,-500.45 1293.93,-494.95 1292.47,-501.79"/>
</g>
<!-- Node16 -->
<g id="node16" class="node">
<title>Node16</title>
<g id="a_node16"><a xlink:href="../../d8/df1/a01414.html#afb5d3642632092c0588bb37cc2d58a87" target="_top" xlink:title=" ">
<polygon fill="none" stroke="black" points="1260,-412.5 1260,-431.5 1441,-431.5 1441,-412.5 1260,-412.5"/>
<text text-anchor="middle" x="1350.5" y="-419.5" font-family="Helvetica,sans-Serif" font-size="10.00">com.cliffc.aa.tvar.UQNodes.intern</text>
</a>
</g>
</g>
<!-- Node15&#45;&gt;Node16 -->
<g id="edge18" class="edge">
<title>Node15&#45;&gt;Node16</title>
<path fill="none" stroke="midnightblue" d="M1178.87,-452.47C1211,-446.73 1252.1,-439.39 1285.91,-433.36"/>
<polygon fill="midnightblue" stroke="midnightblue" points="1286.92,-436.73 1296.15,-431.53 1285.69,-429.84 1286.92,-436.73"/>
</g>
<!-- Node21 -->
<g id="node21" class="node">
<title>Node21</title>
<g id="a_node21"><a xlink:href="../../d3/d2d/a01606.html#a5a55b6990f90cebab60051b6a03c5e3b" target="_top" xlink:title="Maps the specified key to the specified value in the table.">
<polygon fill="none" stroke="black" points="1269.5,-451 1269.5,-481 1431.5,-481 1431.5,-451 1269.5,-451"/>
<text text-anchor="start" x="1277.5" y="-469" font-family="Helvetica,sans-Serif" font-size="10.00">com.cliffc.aa.util.NonBlocking</text>
<text text-anchor="middle" x="1350.5" y="-458" font-family="Helvetica,sans-Serif" font-size="10.00">HashMapLong.put</text>
</a>
</g>
</g>
<!-- Node15&#45;&gt;Node21 -->
<g id="edge24" class="edge">
<title>Node15&#45;&gt;Node21</title>
<path fill="none" stroke="midnightblue" d="M1214.03,-463.58C1228.84,-463.85 1244.21,-464.12 1259.06,-464.39"/>
<polygon fill="midnightblue" stroke="midnightblue" points="1259.19,-467.89 1269.25,-464.57 1259.31,-460.89 1259.19,-467.89"/>
</g>
<!-- Node17 -->
<g id="node17" class="node">
<title>Node17</title>
<g id="a_node17"><a xlink:href="../../d3/d2d/a01606.html#aa68ea3508b91e708e371a02e473b5f3b" target="_top" xlink:title="Removes all of the mappings from this map.">
<polygon fill="none" stroke="black" points="1492,-410 1492,-440 1654,-440 1654,-410 1492,-410"/>
<text text-anchor="start" x="1500" y="-428" font-family="Helvetica,sans-Serif" font-size="10.00">com.cliffc.aa.util.NonBlocking</text>
<text text-anchor="middle" x="1573" y="-417" font-family="Helvetica,sans-Serif" font-size="10.00">HashMapLong.clear</text>
</a>
</g>
</g>
<!-- Node16&#45;&gt;Node17 -->
<g id="edge19" class="edge">
<title>Node16&#45;&gt;Node17</title>
<path fill="none" stroke="midnightblue" d="M1441.19,-423.22C1454.58,-423.4 1468.4,-423.59 1481.81,-423.77"/>
<polygon fill="midnightblue" stroke="midnightblue" points="1481.92,-427.27 1491.97,-423.91 1482.01,-420.28 1481.92,-427.27"/>
</g>
<!-- Node18 -->
<g id="node18" class="node">
<title>Node18</title>
<g id="a_node18"><a xlink:href="../../d8/df1/a01414.html#a1a32bbfa753d3a048dad3af52e6e04f2" target="_top" xlink:title=" ">
<polygon fill="none" stroke="black" points="1477,-459.5 1477,-478.5 1669,-478.5 1669,-459.5 1477,-459.5"/>
<text text-anchor="middle" x="1573" y="-466.5" font-family="Helvetica,sans-Serif" font-size="10.00">com.cliffc.aa.tvar.UQNodes.setHash</text>
</a>
</g>
</g>
<!-- Node16&#45;&gt;Node18 -->
<g id="edge20" class="edge">
<title>Node16&#45;&gt;Node18</title>
<path fill="none" stroke="midnightblue" d="M1394.07,-431.52C1428.81,-439.29 1472.82,-449.12 1477,-450 1488.7,-452.47 1501.23,-455.04 1513.22,-457.46"/>
<polygon fill="midnightblue" stroke="midnightblue" points="1512.65,-460.91 1523.14,-459.44 1514.02,-454.05 1512.65,-460.91"/>
</g>
<!-- Node19 -->
<g id="node19" class="node">
<title>Node19</title>
<g id="a_node19"><a xlink:href="../../d3/d2d/a01606.html#a2242d40c2091176c7aec66a1c1f1b107" target="_top" xlink:title=" ">
<polygon fill="none" stroke="black" points="1709.5,-424 1709.5,-454 1872.5,-454 1872.5,-424 1709.5,-424"/>
<text text-anchor="start" x="1717.5" y="-442" font-family="Helvetica,sans-Serif" font-size="10.00">com.cliffc.aa.util.NonBlocking</text>
<text text-anchor="middle" x="1791" y="-431" font-family="Helvetica,sans-Serif" font-size="10.00">HashMapLong&lt; Node &gt;::hash</text>
</a>
</g>
</g>
<!-- Node18&#45;&gt;Node19 -->
<g id="edge21" class="edge">
<title>Node18&#45;&gt;Node19</title>
<path fill="none" stroke="midnightblue" d="M1642.64,-459.47C1660.65,-456.97 1680.35,-454.23 1699.32,-451.59"/>
<polygon fill="midnightblue" stroke="midnightblue" points="1700.04,-455.03 1709.47,-450.19 1699.08,-448.09 1700.04,-455.03"/>
</g>
<!-- Node20 -->
<g id="node20" class="node">
<title>Node20</title>
<g id="a_node20"><a xlink:href="../../d3/d2d/a01606.html#a7dabc238f566bd1039cc62b63af734ed" target="_top" xlink:title="Returns a Collection view of the values contained in this map.">
<polygon fill="none" stroke="black" points="1705,-473 1705,-503 1877,-503 1877,-473 1705,-473"/>
<text text-anchor="start" x="1713" y="-491" font-family="Helvetica,sans-Serif" font-size="10.00">com.cliffc.aa.util.NonBlocking</text>
<text text-anchor="middle" x="1791" y="-480" font-family="Helvetica,sans-Serif" font-size="10.00">HashMapLong&lt; Node &gt;::values</text>
</a>
</g>
</g>
<!-- Node18&#45;&gt;Node20 -->
<g id="edge22" class="edge">
<title>Node18&#45;&gt;Node20</title>
<path fill="none" stroke="midnightblue" d="M1669.06,-477.36C1677.6,-478.11 1686.25,-478.87 1694.79,-479.63"/>
<polygon fill="midnightblue" stroke="midnightblue" points="1694.49,-483.11 1704.76,-480.5 1695.1,-476.14 1694.49,-483.11"/>
</g>
<!-- Node23 -->
<g id="node23" class="node">
<title>Node23</title>
<g id="a_node23"><a xlink:href="../../dc/d25/a01406.html#a278ec8d9b9c40d681176974542fee2eb" target="_top" xlink:title=" ">
<polygon fill="none" stroke="black" points="1269.5,-333.5 1269.5,-352.5 1431.5,-352.5 1431.5,-333.5 1269.5,-333.5"/>
<text text-anchor="middle" x="1350.5" y="-340.5" font-family="Helvetica,sans-Serif" font-size="10.00">com.cliffc.aa.tvar.TV2.is_base</text>
</a>
</g>
</g>
<!-- Node22&#45;&gt;Node23 -->
<g id="edge26" class="edge">
<title>Node22&#45;&gt;Node23</title>
<path fill="none" stroke="midnightblue" d="M1200.71,-368.24C1227.42,-363.71 1257.26,-358.65 1283.17,-354.25"/>
<polygon fill="midnightblue" stroke="midnightblue" points="1283.99,-357.66 1293.26,-352.54 1282.82,-350.76 1283.99,-357.66"/>
</g>
<!-- Node27 -->
<g id="node27" class="node">
<title>Node27</title>
<g id="a_node27"><a xlink:href="../../dc/d25/a01406.html#ae7020c1fe937698dcc459b53362a916c" target="_top" xlink:title=" ">
<polygon fill="none" stroke="black" points="1271.5,-295.5 1271.5,-314.5 1429.5,-314.5 1429.5,-295.5 1271.5,-295.5"/>
<text text-anchor="middle" x="1350.5" y="-302.5" font-family="Helvetica,sans-Serif" font-size="10.00">com.cliffc.aa.tvar.TV2.is_leaf</text>
</a>
</g>
</g>
<!-- Node22&#45;&gt;Node27 -->
<g id="edge31" class="edge">
<title>Node22&#45;&gt;Node27</title>
<path fill="none" stroke="midnightblue" d="M1200.61,-365.99C1208.72,-363.19 1216.67,-359.88 1224,-356 1242.91,-345.97 1240.89,-333.66 1260,-324 1264.67,-321.64 1269.61,-319.58 1274.68,-317.77"/>
<polygon fill="midnightblue" stroke="midnightblue" points="1276.12,-320.98 1284.57,-314.59 1273.98,-314.32 1276.12,-320.98"/>
</g>
<!-- Node28 -->
<g id="node28" class="node">
<title>Node28</title>
<g id="a_node28"><a xlink:href="../../dc/d25/a01406.html#a62d673448fbff0f21927cc782b436582" target="_top" xlink:title=" ">
<polygon fill="none" stroke="black" points="1278.5,-371.5 1278.5,-390.5 1422.5,-390.5 1422.5,-371.5 1278.5,-371.5"/>
<text text-anchor="middle" x="1350.5" y="-378.5" font-family="Helvetica,sans-Serif" font-size="10.00">com.cliffc.aa.tvar.TV2.TV2</text>
</a>
</g>
</g>
<!-- Node22&#45;&gt;Node28 -->
<g id="edge34" class="edge">
<title>Node22&#45;&gt;Node28</title>
<path fill="none" stroke="midnightblue" d="M1200.71,-381C1222.42,-381 1246.21,-381 1268.27,-381"/>
<polygon fill="midnightblue" stroke="midnightblue" points="1268.28,-384.5 1278.28,-381 1268.28,-377.5 1268.28,-384.5"/>
</g>
<!-- Node24 -->
<g id="node24" class="node">
<title>Node24</title>
<g id="a_node24"><a xlink:href="../../dc/d25/a01406.html#a4648c36530ad943bcfe943b14dc33c36" target="_top" xlink:title=" ">
<polygon fill="none" stroke="black" points="1724,-309 1724,-339 1858,-339 1858,-309 1724,-309"/>
<text text-anchor="start" x="1732" y="-327" font-family="Helvetica,sans-Serif" font-size="10.00">com.cliffc.aa.tvar.TV2.is</text>
<text text-anchor="middle" x="1791" y="-316" font-family="Helvetica,sans-Serif" font-size="10.00">_unified</text>
</a>
</g>
</g>
<!-- Node23&#45;&gt;Node24 -->
<g id="edge27" class="edge">
<title>Node23&#45;&gt;Node24</title>
<path fill="none" stroke="midnightblue" d="M1431.67,-339.53C1511.97,-336.05 1634.66,-330.73 1713.6,-327.31"/>
<polygon fill="midnightblue" stroke="midnightblue" points="1714.12,-330.79 1723.96,-326.86 1713.81,-323.8 1714.12,-330.79"/>
</g>
<!-- Node25 -->
<g id="node25" class="node">
<title>Node25</title>
<g id="a_node25"><a xlink:href="../../dc/d25/a01406.html#a4c6344d5b696661ebc8894c4d6d5d83d" target="_top" xlink:title=" ">
<polygon fill="none" stroke="black" points="1503,-295.5 1503,-314.5 1643,-314.5 1643,-295.5 1503,-295.5"/>
<text text-anchor="middle" x="1573" y="-302.5" font-family="Helvetica,sans-Serif" font-size="10.00">com.cliffc.aa.tvar.TV2.isa</text>
</a>
</g>
</g>
<!-- Node23&#45;&gt;Node25 -->
<g id="edge28" class="edge">
<title>Node23&#45;&gt;Node25</title>
<path fill="none" stroke="midnightblue" d="M1406.86,-333.46C1437.13,-328.24 1474.82,-321.75 1506.55,-316.28"/>
<polygon fill="midnightblue" stroke="midnightblue" points="1507.36,-319.69 1516.62,-314.54 1506.17,-312.79 1507.36,-319.69"/>
</g>
<!-- Node25&#45;&gt;Node24 -->
<g id="edge30" class="edge">
<title>Node25&#45;&gt;Node24</title>
<path fill="none" stroke="midnightblue" d="M1643.24,-311.09C1665.7,-313.07 1690.75,-315.27 1713.7,-317.29"/>
<polygon fill="midnightblue" stroke="midnightblue" points="1713.46,-320.78 1723.73,-318.17 1714.08,-313.81 1713.46,-320.78"/>
</g>
<!-- Node26 -->
<g id="node26" class="node">
<title>Node26</title>
<g id="a_node26"><a xlink:href="../../dd/d55/a01638.html#a3975ba7dca9fe2d6e4992b2b5558f882" target="_top" xlink:title=" ">
<polygon fill="none" stroke="black" points="1724.5,-270.5 1724.5,-289.5 1857.5,-289.5 1857.5,-270.5 1724.5,-270.5"/>
<text text-anchor="middle" x="1791" y="-277.5" font-family="Helvetica,sans-Serif" font-size="10.00">com.cliffc.aa.util.Util.eq</text>
</a>
</g>
</g>
<!-- Node25&#45;&gt;Node26 -->
<g id="edge29" class="edge">
<title>Node25&#45;&gt;Node26</title>
<path fill="none" stroke="midnightblue" d="M1643.24,-296.99C1665.92,-294.36 1691.23,-291.43 1714.35,-288.76"/>
<polygon fill="midnightblue" stroke="midnightblue" points="1714.93,-292.21 1724.46,-287.59 1714.13,-285.26 1714.93,-292.21"/>
</g>
<!-- Node27&#45;&gt;Node24 -->
<g id="edge32" class="edge">
<title>Node27&#45;&gt;Node24</title>
<path fill="none" stroke="midnightblue" d="M1398.15,-295.49C1460.4,-284.34 1573.81,-269.34 1669,-286 1685.76,-288.93 1688.83,-293.71 1705,-299 1712.12,-301.33 1719.6,-303.68 1727.05,-305.95"/>
<polygon fill="midnightblue" stroke="midnightblue" points="1726.21,-309.35 1736.8,-308.89 1728.23,-302.65 1726.21,-309.35"/>
</g>
<!-- Node27&#45;&gt;Node25 -->
<g id="edge33" class="edge">
<title>Node27&#45;&gt;Node25</title>
<path fill="none" stroke="midnightblue" d="M1429.55,-305C1450.01,-305 1472.08,-305 1492.6,-305"/>
<polygon fill="midnightblue" stroke="midnightblue" points="1492.86,-308.5 1502.86,-305 1492.86,-301.5 1492.86,-308.5"/>
</g>
<!-- Node29 -->
<g id="node29" class="node">
<title>Node29</title>
<g id="a_node29"><a xlink:href="../../dc/d25/a01406.html#a3de376591ecb21dcf80dfe01df9c7dae" target="_top" xlink:title=" ">
<polygon fill="none" stroke="black" points="1496.5,-371.5 1496.5,-390.5 1649.5,-390.5 1649.5,-371.5 1496.5,-371.5"/>
<text text-anchor="middle" x="1573" y="-378.5" font-family="Helvetica,sans-Serif" font-size="10.00">com.cliffc.aa.tvar.TV2.name</text>
</a>
</g>
</g>
<!-- Node28&#45;&gt;Node29 -->
<g id="edge35" class="edge">
<title>Node28&#45;&gt;Node29</title>
<path fill="none" stroke="midnightblue" d="M1422.79,-381C1443.01,-381 1465.23,-381 1486.22,-381"/>
<polygon fill="midnightblue" stroke="midnightblue" points="1486.4,-384.5 1496.4,-381 1486.4,-377.5 1486.4,-384.5"/>
</g>
<!-- Node34 -->
<g id="node34" class="node">
<title>Node34</title>
<g id="a_node34"><a xlink:href="../../d6/d01/a01690.html#aa1bca3258eb3b855172d598280662a3c" target="_top" xlink:title=" ">
<polygon fill="none" stroke="black" points="591.5,-39 591.5,-69 764.5,-69 764.5,-39 591.5,-39"/>
<text text-anchor="start" x="599.5" y="-57" font-family="Helvetica,sans-Serif" font-size="10.00">com.cliffc.aa.node.TestNode.get</text>
<text text-anchor="middle" x="678" y="-46" font-family="Helvetica,sans-Serif" font-size="10.00">_value_type</text>
</a>
</g>
</g>
<!-- Node33&#45;&gt;Node34 -->
<g id="edge40" class="edge">
<title>Node33&#45;&gt;Node34</title>
<path fill="none" stroke="midnightblue" d="M434.72,-202.26C458.62,-178.8 522.98,-118.58 587,-84 594.79,-79.79 603.28,-76.03 611.83,-72.71"/>
<polygon fill="midnightblue" stroke="midnightblue" points="613.3,-75.89 621.47,-69.15 610.88,-69.33 613.3,-75.89"/>
</g>
<!-- Node35 -->
<g id="node35" class="node">
<title>Node35</title>
<g id="a_node35"><a xlink:href="../../d6/d01/a01690.html#a8662df7c8d3fa5b56e821525800a9d38" target="_top" xlink:title=" ">
<polygon fill="none" stroke="black" points="812.5,-28.5 812.5,-47.5 981.5,-47.5 981.5,-28.5 812.5,-28.5"/>
<text text-anchor="middle" x="897" y="-35.5" font-family="Helvetica,sans-Serif" font-size="10.00">com.cliffc.aa.node.TestNode.xx</text>
</a>
</g>
</g>
<!-- Node33&#45;&gt;Node35 -->
<g id="edge62" class="edge">
<title>Node33&#45;&gt;Node35</title>
<path fill="none" stroke="midnightblue" d="M438.12,-202.31C464.76,-183.1 527.74,-140.03 587,-117 664.1,-87.03 691.86,-107.88 769,-78 786.27,-71.31 787.71,-63.65 805,-57 811.91,-54.34 819.27,-52.03 826.7,-50.02"/>
<polygon fill="midnightblue" stroke="midnightblue" points="827.62,-53.39 836.46,-47.55 825.9,-46.61 827.62,-53.39"/>
</g>
<!-- Node36 -->
<g id="node36" class="node">
<title>Node36</title>
<g id="a_node36"><a xlink:href="../../d6/d01/a01690.html#af9abfd94b6a12e559455e44a7971dd47" target="_top" xlink:title=" ">
<polygon fill="none" stroke="black" points="590.5,-0.5 590.5,-19.5 765.5,-19.5 765.5,-0.5 590.5,-0.5"/>
<text text-anchor="middle" x="678" y="-7.5" font-family="Helvetica,sans-Serif" font-size="10.00">com.cliffc.aa.node.TestNode.pop</text>
</a>
</g>
</g>
<!-- Node33&#45;&gt;Node36 -->
<g id="edge42" class="edge">
<title>Node33&#45;&gt;Node36</title>
<path fill="none" stroke="midnightblue" d="M430.57,-202.09C448.61,-170.96 508.89,-74.46 587,-29 590.73,-26.83 594.67,-24.91 598.74,-23.2"/>
<polygon fill="midnightblue" stroke="midnightblue" points="600.27,-26.37 608.43,-19.61 597.83,-19.81 600.27,-26.37"/>
</g>
<!-- Node37 -->
<g id="node37" class="node">
<title>Node37</title>
<g id="a_node37"><a xlink:href="../../d6/d01/a01690.html#afaf3b5d5f2f5b6a65306d1fa26c6580c" target="_top" xlink:title=" ">
<polygon fill="none" stroke="black" points="807,-370.5 807,-389.5 987,-389.5 987,-370.5 807,-370.5"/>
<text text-anchor="middle" x="897" y="-377.5" font-family="Helvetica,sans-Serif" font-size="10.00">com.cliffc.aa.node.TestNode.push</text>
</a>
</g>
</g>
<!-- Node33&#45;&gt;Node37 -->
<g id="edge43" class="edge">
<title>Node33&#45;&gt;Node37</title>
<path fill="none" stroke="midnightblue" d="M432.89,-221.61C454.44,-247.12 517.42,-316.55 587,-346 653.15,-373.99 734.04,-382.07 796.46,-383.37"/>
<polygon fill="midnightblue" stroke="midnightblue" points="796.65,-386.88 806.7,-383.53 796.76,-379.88 796.65,-386.88"/>
</g>
<!-- Node38 -->
<g id="node38" class="node">
<title>Node38</title>
<g id="a_node38"><a xlink:href="../../d6/d01/a01690.html#aeed27b532abeb4a3fafb5fc195a7ac71" target="_top" xlink:title=" ">
<polygon fill="none" stroke="black" points="810.5,-332.5 810.5,-351.5 983.5,-351.5 983.5,-332.5 810.5,-332.5"/>
<text text-anchor="middle" x="897" y="-339.5" font-family="Helvetica,sans-Serif" font-size="10.00">com.cliffc.aa.node.TestNode.put</text>
</a>
</g>
</g>
<!-- Node33&#45;&gt;Node38 -->
<g id="edge44" class="edge">
<title>Node33&#45;&gt;Node38</title>
<path fill="none" stroke="midnightblue" d="M435.36,-221.56C459.66,-243.29 523.05,-296.21 587,-318 655.75,-341.43 737.91,-346.82 800.22,-346.69"/>
<polygon fill="midnightblue" stroke="midnightblue" points="800.46,-350.19 810.44,-346.62 800.41,-343.19 800.46,-350.19"/>
</g>
<!-- Node40 -->
<g id="node40" class="node">
<title>Node40</title>
<g id="a_node40"><a xlink:href="../../d6/d01/a01690.html#aaa9f150f0b15737bd67a7c41bca3c790" target="_top" xlink:title=" ">
<polygon fill="none" stroke="black" points="1025,-256.5 1025,-275.5 1224,-275.5 1224,-256.5 1025,-256.5"/>
<text text-anchor="middle" x="1124.5" y="-263.5" font-family="Helvetica,sans-Serif" font-size="10.00">com.cliffc.aa.node.TestNode.set_type</text>
</a>
</g>
</g>
<!-- Node33&#45;&gt;Node40 -->
<g id="edge46" class="edge">
<title>Node33&#45;&gt;Node40</title>
<path fill="none" stroke="midnightblue" d="M486.14,-221.54C516.47,-226.25 553.65,-231.98 587,-237 683.84,-251.58 707.33,-261.87 805,-269 886.56,-274.95 907.23,-269.91 989,-269 997.31,-268.91 1005.91,-268.78 1014.55,-268.64"/>
<polygon fill="midnightblue" stroke="midnightblue" points="1014.77,-272.13 1024.71,-268.46 1014.65,-265.13 1014.77,-272.13"/>
</g>
<!-- Node41 -->
<g id="node41" class="node">
<title>Node41</title>
<g id="a_node41"><a xlink:href="../../d6/d01/a01690.html#a4923f33ccf4a83daebe3cf21aad63217" target="_top" xlink:title=" ">
<polygon fill="none" stroke="black" points="592,-197 592,-227 764,-227 764,-197 592,-197"/>
<text text-anchor="start" x="600" y="-215" font-family="Helvetica,sans-Serif" font-size="10.00">com.cliffc.aa.node.TestNode.set</text>
<text text-anchor="middle" x="678" y="-204" font-family="Helvetica,sans-Serif" font-size="10.00">_value_type</text>
</a>
</g>
</g>
<!-- Node33&#45;&gt;Node41 -->
<g id="edge47" class="edge">
<title>Node33&#45;&gt;Node41</title>
<path fill="none" stroke="midnightblue" d="M551.37,-212C561.58,-212 571.78,-212 581.72,-212"/>
<polygon fill="midnightblue" stroke="midnightblue" points="581.96,-215.5 591.96,-212 581.96,-208.5 581.96,-215.5"/>
</g>
<!-- Node46 -->
<g id="node46" class="node">
<title>Node46</title>
<g id="a_node46"><a xlink:href="../../d6/d01/a01690.html#ab5da1ffe25c15aa1107449ec53316463" target="_top" xlink:title=" ">
<polygon fill="none" stroke="black" points="592,-126.5 592,-145.5 764,-145.5 764,-126.5 592,-126.5"/>
<text text-anchor="middle" x="678" y="-133.5" font-family="Helvetica,sans-Serif" font-size="10.00">com.cliffc.aa.node.TestNode.stx</text>
</a>
</g>
</g>
<!-- Node33&#45;&gt;Node46 -->
<g id="edge59" class="edge">
<title>Node33&#45;&gt;Node46</title>
<path fill="none" stroke="midnightblue" d="M456.66,-202.45C501.92,-188.8 585.19,-163.69 635.39,-148.55"/>
<polygon fill="midnightblue" stroke="midnightblue" points="636.71,-151.81 645.27,-145.57 634.69,-145.11 636.71,-151.81"/>
</g>
<!-- Node34&#45;&gt;Node35 -->
<g id="edge41" class="edge">
<title>Node34&#45;&gt;Node35</title>
<path fill="none" stroke="midnightblue" d="M764.76,-47.68C776.98,-46.78 789.6,-45.85 801.97,-44.93"/>
<polygon fill="midnightblue" stroke="midnightblue" points="802.56,-48.4 812.28,-44.17 802.05,-41.42 802.56,-48.4"/>
</g>
<!-- Node39 -->
<g id="node39" class="node">
<title>Node39</title>
<g id="a_node39"><a xlink:href="../../d6/d01/a01690.html#a2aa251a1e3c74004616886620b9807b8" target="_top" xlink:title=" ">
<polygon fill="none" stroke="black" points="1034.5,-327.5 1034.5,-346.5 1214.5,-346.5 1214.5,-327.5 1034.5,-327.5"/>
<text text-anchor="middle" x="1124.5" y="-334.5" font-family="Helvetica,sans-Serif" font-size="10.00">com.cliffc.aa.node.TestNode.hash</text>
</a>
</g>
</g>
<!-- Node38&#45;&gt;Node39 -->
<g id="edge45" class="edge">
<title>Node38&#45;&gt;Node39</title>
<path fill="none" stroke="midnightblue" d="M983.57,-340.1C996.78,-339.81 1010.51,-339.51 1023.99,-339.21"/>
<polygon fill="midnightblue" stroke="midnightblue" points="1024.31,-342.7 1034.23,-338.98 1024.16,-335.7 1024.31,-342.7"/>
</g>
<!-- Node41&#45;&gt;Node35 -->
<g id="edge58" class="edge">
<title>Node41&#45;&gt;Node35</title>
<path fill="none" stroke="midnightblue" d="M713.73,-196.86C732.33,-187.22 754.36,-173.13 769,-155 798.15,-118.89 769.88,-87.33 805,-57 806.79,-55.46 808.67,-54.03 810.62,-52.71"/>
<polygon fill="midnightblue" stroke="midnightblue" points="812.68,-55.56 819.64,-47.57 809.22,-49.48 812.68,-55.56"/>
</g>
<!-- Node41&#45;&gt;Node37 -->
<g id="edge49" class="edge">
<title>Node41&#45;&gt;Node37</title>
<path fill="none" stroke="midnightblue" d="M687.12,-227.12C704.4,-257.73 747.96,-327.01 805,-361 808.67,-363.18 812.54,-365.12 816.55,-366.83"/>
<polygon fill="midnightblue" stroke="midnightblue" points="815.51,-370.18 826.11,-370.45 817.99,-363.64 815.51,-370.18"/>
</g>
<!-- Node41&#45;&gt;Node38 -->
<g id="edge50" class="edge">
<title>Node41&#45;&gt;Node38</title>
<path fill="none" stroke="midnightblue" d="M704.32,-227.17C746.31,-252.32 829.84,-302.37 871.37,-327.25"/>
<polygon fill="midnightblue" stroke="midnightblue" points="869.66,-330.3 880.04,-332.44 873.26,-324.3 869.66,-330.3"/>
</g>
<!-- Node41&#45;&gt;Node40 -->
<g id="edge55" class="edge">
<title>Node41&#45;&gt;Node40</title>
<path fill="none" stroke="midnightblue" d="M724.26,-227.07C748.03,-234.35 777.79,-242.46 805,-247 874.23,-258.55 952.94,-263.32 1014.8,-265.19"/>
<polygon fill="midnightblue" stroke="midnightblue" points="1014.87,-268.69 1024.97,-265.48 1015.07,-261.7 1014.87,-268.69"/>
</g>
<!-- Node42 -->
<g id="node42" class="node">
<title>Node42</title>
<g id="a_node42"><a xlink:href="../../d0/de2/a01442.html#ad4b6fe2d948ba739fd3d5e0feac103e6" target="_top" xlink:title=" ">
<polygon fill="none" stroke="black" points="1051.5,-123.5 1051.5,-142.5 1197.5,-142.5 1197.5,-123.5 1051.5,-123.5"/>
<text text-anchor="middle" x="1124.5" y="-130.5" font-family="Helvetica,sans-Serif" font-size="10.00">com.cliffc.aa.type.Type.isa</text>
</a>
</g>
</g>
<!-- Node41&#45;&gt;Node42 -->
<g id="edge48" class="edge">
<title>Node41&#45;&gt;Node42</title>
<path fill="none" stroke="midnightblue" d="M708.17,-196.94C733.17,-184.78 770.5,-168.37 805,-160 883.71,-140.91 976.19,-134.81 1041.16,-133.09"/>
<polygon fill="midnightblue" stroke="midnightblue" points="1041.42,-136.59 1051.34,-132.85 1041.26,-129.59 1041.42,-136.59"/>
</g>
<!-- Node43 -->
<g id="node43" class="node">
<title>Node43</title>
<g id="a_node43"><a xlink:href="../../d6/d01/a01690.html#a130603a9f30aabd3c897109488d5040b" target="_top" xlink:title=" ">
<polygon fill="none" stroke="black" points="805,-218.5 805,-237.5 989,-237.5 989,-218.5 805,-218.5"/>
<text text-anchor="middle" x="897" y="-225.5" font-family="Helvetica,sans-Serif" font-size="10.00">com.cliffc.aa.node.TestNode.redo_</text>
</a>
</g>
</g>
<!-- Node41&#45;&gt;Node43 -->
<g id="edge51" class="edge">
<title>Node41&#45;&gt;Node43</title>
<path fill="none" stroke="midnightblue" d="M764.14,-218.28C774.12,-219.01 784.37,-219.77 794.53,-220.52"/>
<polygon fill="midnightblue" stroke="midnightblue" points="794.43,-224.02 804.66,-221.27 794.94,-217.04 794.43,-224.02"/>
</g>
<!-- Node44 -->
<g id="node44" class="node">
<title>Node44</title>
<g id="a_node44"><a xlink:href="../../df/db5/a01158.html#a05828b3784b2a2ac2314784214f662fd" target="_top" xlink:title=" ">
<polygon fill="none" stroke="black" points="1042.5,-180.5 1042.5,-199.5 1206.5,-199.5 1206.5,-180.5 1042.5,-180.5"/>
<text text-anchor="middle" x="1124.5" y="-187.5" font-family="Helvetica,sans-Serif" font-size="10.00">com.cliffc.aa.node.Node.value</text>
</a>
</g>
</g>
<!-- Node41&#45;&gt;Node44 -->
<g id="edge56" class="edge">
<title>Node41&#45;&gt;Node44</title>
<path fill="none" stroke="midnightblue" d="M714.92,-196.96C739.73,-187.42 773.76,-175.95 805,-171 894.58,-156.79 999.87,-168.53 1064.12,-178.84"/>
<polygon fill="midnightblue" stroke="midnightblue" points="1063.64,-182.31 1074.07,-180.48 1064.77,-175.4 1063.64,-182.31"/>
</g>
<!-- Node45 -->
<g id="node45" class="node">
<title>Node45</title>
<g id="a_node45"><a xlink:href="../../df/db5/a01158.html#a4961273bc377a81bb456d49244bf550f" target="_top" xlink:title=" ">
<polygon fill="none" stroke="black" points="819,-180.5 819,-199.5 975,-199.5 975,-180.5 819,-180.5"/>
<text text-anchor="middle" x="897" y="-187.5" font-family="Helvetica,sans-Serif" font-size="10.00">com.cliffc.aa.node.Node.xstr</text>
</a>
</g>
</g>
<!-- Node41&#45;&gt;Node45 -->
<g id="edge57" class="edge">
<title>Node41&#45;&gt;Node45</title>
<path fill="none" stroke="midnightblue" d="M764.14,-203.37C778.81,-201.88 794.07,-200.33 808.79,-198.84"/>
<polygon fill="midnightblue" stroke="midnightblue" points="809.28,-202.31 818.87,-197.82 808.57,-195.35 809.28,-202.31"/>
</g>
<!-- Node43&#45;&gt;Node40 -->
<g id="edge53" class="edge">
<title>Node43&#45;&gt;Node40</title>
<path fill="none" stroke="midnightblue" d="M954.61,-237.54C985.71,-242.78 1024.45,-249.31 1056.98,-254.79"/>
<polygon fill="midnightblue" stroke="midnightblue" points="1056.42,-258.25 1066.86,-256.46 1057.59,-251.34 1056.42,-258.25"/>
</g>
<!-- Node43&#45;&gt;Node42 -->
<g id="edge52" class="edge">
<title>Node43&#45;&gt;Node42</title>
<path fill="none" stroke="midnightblue" d="M966.73,-218.38C974.5,-215.93 982.09,-212.85 989,-209 1009.31,-197.66 1005.67,-183.95 1025,-171 1041.04,-160.25 1060.55,-151.92 1077.97,-145.83"/>
<polygon fill="midnightblue" stroke="midnightblue" points="1079.56,-148.99 1087.94,-142.5 1077.35,-142.35 1079.56,-148.99"/>
</g>
<!-- Node43&#45;&gt;Node44 -->
<g id="edge54" class="edge">
<title>Node43&#45;&gt;Node44</title>
<path fill="none" stroke="midnightblue" d="M954.61,-218.46C985.71,-213.22 1024.45,-206.69 1056.98,-201.21"/>
<polygon fill="midnightblue" stroke="midnightblue" points="1057.59,-204.66 1066.86,-199.54 1056.42,-197.75 1057.59,-204.66"/>
</g>
<!-- Node46&#45;&gt;Node35 -->
<g id="edge61" class="edge">
<title>Node46&#45;&gt;Node35</title>
<path fill="none" stroke="midnightblue" d="M739.37,-126.45C749.87,-123.02 760.22,-118.35 769,-112 792.68,-94.88 780.86,-73.46 805,-57 807.89,-55.03 810.94,-53.26 814.1,-51.66"/>
<polygon fill="midnightblue" stroke="midnightblue" points="815.54,-54.86 823.28,-47.63 812.72,-48.45 815.54,-54.86"/>
</g>
<!-- Node47 -->
<g id="node47" class="node">
<title>Node47</title>
<g id="a_node47"><a xlink:href="../../df/db5/a01158.html#a9a46cea187559f94192aa6e09b91c60c" target="_top" xlink:title=" ">
<polygon fill="none" stroke="black" points="824,-66.5 824,-85.5 970,-85.5 970,-66.5 824,-66.5"/>
<text text-anchor="middle" x="897" y="-73.5" font-family="Helvetica,sans-Serif" font-size="10.00">com.cliffc.aa.node.Node.in</text>
</a>
</g>
</g>
<!-- Node46&#45;&gt;Node47 -->
<g id="edge60" class="edge">
<title>Node46&#45;&gt;Node47</title>
<path fill="none" stroke="midnightblue" d="M716.8,-126.47C732.95,-122.26 751.96,-117.11 769,-112 785.16,-107.16 788.84,-104.82 805,-100 818.86,-95.87 834.01,-91.72 847.91,-88.07"/>
<polygon fill="midnightblue" stroke="midnightblue" points="848.98,-91.41 857.77,-85.5 847.21,-84.63 848.98,-91.41"/>
</g>
</g>
</svg>
