<?xml version="1.0" encoding="UTF-8" standalone="no"?>
<!DOCTYPE svg PUBLIC "-//W3C//DTD SVG 1.1//EN"
 "http://www.w3.org/Graphics/SVG/1.1/DTD/svg11.dtd">
<!-- Generated by graphviz version 2.43.0 (0)
 -->
<!-- Title: com.cliffc.aa.node.TestNode.test1monotonic_intrinsic Pages: 1 -->
<svg width="1197pt" height="420pt"
 viewBox="0.00 0.00 1197.00 419.57" xmlns="http://www.w3.org/2000/svg" xmlns:xlink="http://www.w3.org/1999/xlink">
<g id="graph0" class="graph" transform="scale(1 1) rotate(0) translate(4 415.57)">
<title>com.cliffc.aa.node.TestNode.test1monotonic_intrinsic</title>
<!-- Node1 -->
<g id="node1" class="node">
<title>Node1</title>
<g id="a_node1"><a xlink:title=" ">
<polygon fill="#bfbfbf" stroke="black" points="0,-240 0,-270 233,-270 233,-240 0,-240"/>
<text text-anchor="start" x="8" y="-258" font-family="Helvetica,sans-Serif" font-size="10.00">com.cliffc.aa.node.TestNode.test1monotonic</text>
<text text-anchor="middle" x="116.5" y="-247" font-family="Helvetica,sans-Serif" font-size="10.00">_intrinsic</text>
</a>
</g>
</g>
<!-- Node2 -->
<g id="node2" class="node">
<title>Node2</title>
<g id="a_node2"><a xlink:href="../../db/d1e/a01126.html#aae8fa46a52e24de2c0dd77ab02619863" target="_top" xlink:title=" ">
<polygon fill="none" stroke="black" points="305,-264.5 305,-283.5 487,-283.5 487,-264.5 305,-264.5"/>
<text text-anchor="middle" x="396" y="-271.5" font-family="Helvetica,sans-Serif" font-size="10.00">com.cliffc.aa.node.NewNode.copy</text>
</a>
</g>
</g>
<!-- Node1&#45;&gt;Node2 -->
<g id="edge1" class="edge">
<title>Node1&#45;&gt;Node2</title>
<path fill="none" stroke="midnightblue" d="M233.18,-262.92C253.66,-264.32 274.83,-265.77 294.84,-267.14"/>
<polygon fill="midnightblue" stroke="midnightblue" points="294.66,-270.64 304.87,-267.83 295.14,-263.65 294.66,-270.64"/>
</g>
<!-- Node3 -->
<g id="node3" class="node">
<title>Node3</title>
<g id="a_node3"><a xlink:href="../../d6/d01/a01690.html#a154afbf005e688557a82743a3c0254ea" target="_top" xlink:title=" ">
<polygon fill="none" stroke="black" points="269,-226.5 269,-245.5 523,-245.5 523,-226.5 269,-226.5"/>
<text text-anchor="middle" x="396" y="-233.5" font-family="Helvetica,sans-Serif" font-size="10.00">com.cliffc.aa.node.TestNode.test1monotonic_init</text>
</a>
</g>
</g>
<!-- Node1&#45;&gt;Node3 -->
<g id="edge2" class="edge">
<title>Node1&#45;&gt;Node3</title>
<path fill="none" stroke="midnightblue" d="M233.18,-247.08C241.62,-246.5 250.18,-245.92 258.73,-245.33"/>
<polygon fill="midnightblue" stroke="midnightblue" points="259.02,-248.82 268.75,-244.64 258.54,-241.84 259.02,-248.82"/>
</g>
<!-- Node4 -->
<g id="node4" class="node">
<title>Node4</title>
<g id="a_node4"><a xlink:href="../../d6/d01/a01690.html#aa1bca3258eb3b855172d598280662a3c" target="_top" xlink:title=" ">
<polygon fill="none" stroke="black" points="560,-341 560,-371 733,-371 733,-341 560,-341"/>
<text text-anchor="start" x="568" y="-359" font-family="Helvetica,sans-Serif" font-size="10.00">com.cliffc.aa.node.TestNode.get</text>
<text text-anchor="middle" x="646.5" y="-348" font-family="Helvetica,sans-Serif" font-size="10.00">_value_type</text>
</a>
</g>
</g>
<!-- Node3&#45;&gt;Node4 -->
<g id="edge3" class="edge">
<title>Node3&#45;&gt;Node4</title>
<path fill="none" stroke="midnightblue" d="M506.98,-245.58C512.64,-248.19 518.03,-251.31 523,-255 553,-277.29 530.53,-306.78 559,-331 560.98,-332.68 563.07,-334.25 565.24,-335.72"/>
<polygon fill="midnightblue" stroke="midnightblue" points="563.6,-338.82 573.99,-340.86 567.14,-332.78 563.6,-338.82"/>
</g>
<!-- Node5 -->
<g id="node5" class="node">
<title>Node5</title>
<g id="a_node5"><a xlink:href="../../d6/d01/a01690.html#a8662df7c8d3fa5b56e821525800a9d38" target="_top" xlink:title=" ">
<polygon fill="none" stroke="black" points="777.5,-345.5 777.5,-364.5 946.5,-364.5 946.5,-345.5 777.5,-345.5"/>
<text text-anchor="middle" x="862" y="-352.5" font-family="Helvetica,sans-Serif" font-size="10.00">com.cliffc.aa.node.TestNode.xx</text>
</a>
</g>
</g>
<!-- Node3&#45;&gt;Node5 -->
<g id="edge25" class="edge">
<title>Node3&#45;&gt;Node5</title>
<path fill="none" stroke="midnightblue" d="M509.48,-245.57C514.3,-248.23 518.85,-251.35 523,-255 566.74,-293.45 512.5,-345.93 559,-381 641.41,-443.16 774.83,-394.8 832.71,-368.79"/>
<polygon fill="midnightblue" stroke="midnightblue" points="834.36,-371.89 841.98,-364.53 831.43,-365.53 834.36,-371.89"/>
</g>
<!-- Node6 -->
<g id="node6" class="node">
<title>Node6</title>
<g id="a_node6"><a xlink:href="../../d6/d01/a01690.html#af9abfd94b6a12e559455e44a7971dd47" target="_top" xlink:title=" ">
<polygon fill="none" stroke="black" points="559,-51.5 559,-70.5 734,-70.5 734,-51.5 559,-51.5"/>
<text text-anchor="middle" x="646.5" y="-58.5" font-family="Helvetica,sans-Serif" font-size="10.00">com.cliffc.aa.node.TestNode.pop</text>
</a>
</g>
</g>
<!-- Node3&#45;&gt;Node6 -->
<g id="edge5" class="edge">
<title>Node3&#45;&gt;Node6</title>
<path fill="none" stroke="midnightblue" d="M404.59,-226.19C425.89,-199.34 489.22,-124.07 559,-85 567.28,-80.37 576.51,-76.58 585.77,-73.5"/>
<polygon fill="midnightblue" stroke="midnightblue" points="586.86,-76.82 595.39,-70.54 584.81,-70.13 586.86,-76.82"/>
</g>
<!-- Node7 -->
<g id="node7" class="node">
<title>Node7</title>
<g id="a_node7"><a xlink:href="../../d6/d01/a01690.html#afaf3b5d5f2f5b6a65306d1fa26c6580c" target="_top" xlink:title=" ">
<polygon fill="none" stroke="black" points="772,-38.5 772,-57.5 952,-57.5 952,-38.5 772,-38.5"/>
<text text-anchor="middle" x="862" y="-45.5" font-family="Helvetica,sans-Serif" font-size="10.00">com.cliffc.aa.node.TestNode.push</text>
</a>
</g>
</g>
<!-- Node3&#45;&gt;Node7 -->
<g id="edge6" class="edge">
<title>Node3&#45;&gt;Node7</title>
<path fill="none" stroke="midnightblue" d="M413.49,-226.34C442.2,-209.88 503.6,-176.21 559,-156 634.24,-128.55 664.5,-152.8 734,-113 753.91,-101.6 750.43,-87.97 770,-76 780.47,-69.6 792.51,-64.56 804.34,-60.62"/>
<polygon fill="midnightblue" stroke="midnightblue" points="805.67,-63.88 814.19,-57.57 803.6,-57.19 805.67,-63.88"/>
</g>
<!-- Node8 -->
<g id="node8" class="node">
<title>Node8</title>
<g id="a_node8"><a xlink:href="../../d6/d01/a01690.html#aeed27b532abeb4a3fafb5fc195a7ac71" target="_top" xlink:title=" ">
<polygon fill="none" stroke="black" points="775.5,-0.5 775.5,-19.5 948.5,-19.5 948.5,-0.5 775.5,-0.5"/>
<text text-anchor="middle" x="862" y="-7.5" font-family="Helvetica,sans-Serif" font-size="10.00">com.cliffc.aa.node.TestNode.put</text>
</a>
</g>
</g>
<!-- Node3&#45;&gt;Node8 -->
<g id="edge7" class="edge">
<title>Node3&#45;&gt;Node8</title>
<path fill="none" stroke="midnightblue" d="M406.19,-226.46C429.38,-202.98 493.16,-142.24 559,-113 631.34,-80.88 667.42,-122.79 734,-80 757.34,-65 746.81,-44.23 770,-29 772.99,-27.04 776.15,-25.27 779.42,-23.68"/>
<polygon fill="midnightblue" stroke="midnightblue" points="781.05,-26.79 788.89,-19.66 778.32,-20.35 781.05,-26.79"/>
</g>
<!-- Node10 -->
<g id="node10" class="node">
<title>Node10</title>
<g id="a_node10"><a xlink:href="../../d6/d01/a01690.html#aaa9f150f0b15737bd67a7c41bca3c790" target="_top" xlink:title=" ">
<polygon fill="none" stroke="black" points="990,-228.5 990,-247.5 1189,-247.5 1189,-228.5 990,-228.5"/>
<text text-anchor="middle" x="1089.5" y="-235.5" font-family="Helvetica,sans-Serif" font-size="10.00">com.cliffc.aa.node.TestNode.set_type</text>
</a>
</g>
</g>
<!-- Node3&#45;&gt;Node10 -->
<g id="edge9" class="edge">
<title>Node3&#45;&gt;Node10</title>
<path fill="none" stroke="midnightblue" d="M523.03,-236.36C653.65,-236.74 855.73,-237.33 979.63,-237.69"/>
<polygon fill="midnightblue" stroke="midnightblue" points="979.88,-241.19 989.89,-237.71 979.9,-234.19 979.88,-241.19"/>
</g>
<!-- Node11 -->
<g id="node11" class="node">
<title>Node11</title>
<g id="a_node11"><a xlink:href="../../d6/d01/a01690.html#a4923f33ccf4a83daebe3cf21aad63217" target="_top" xlink:title=" ">
<polygon fill="none" stroke="black" points="560.5,-166 560.5,-196 732.5,-196 732.5,-166 560.5,-166"/>
<text text-anchor="start" x="568.5" y="-184" font-family="Helvetica,sans-Serif" font-size="10.00">com.cliffc.aa.node.TestNode.set</text>
<text text-anchor="middle" x="646.5" y="-173" font-family="Helvetica,sans-Serif" font-size="10.00">_value_type</text>
</a>
</g>
</g>
<!-- Node3&#45;&gt;Node11 -->
<g id="edge10" class="edge">
<title>Node3&#45;&gt;Node11</title>
<path fill="none" stroke="midnightblue" d="M440,-226.48C474.98,-218.74 525.26,-207.61 567.33,-198.3"/>
<polygon fill="midnightblue" stroke="midnightblue" points="568.27,-201.68 577.28,-196.1 566.76,-194.84 568.27,-201.68"/>
</g>
<!-- Node16 -->
<g id="node16" class="node">
<title>Node16</title>
<g id="a_node16"><a xlink:href="../../d6/d01/a01690.html#ab5da1ffe25c15aa1107449ec53316463" target="_top" xlink:title=" ">
<polygon fill="none" stroke="black" points="560.5,-302.5 560.5,-321.5 732.5,-321.5 732.5,-302.5 560.5,-302.5"/>
<text text-anchor="middle" x="646.5" y="-309.5" font-family="Helvetica,sans-Serif" font-size="10.00">com.cliffc.aa.node.TestNode.stx</text>
</a>
</g>
</g>
<!-- Node3&#45;&gt;Node16 -->
<g id="edge22" class="edge">
<title>Node3&#45;&gt;Node16</title>
<path fill="none" stroke="midnightblue" d="M497.35,-245.51C506.24,-248.02 514.92,-251.14 523,-255 542.58,-264.36 540.02,-277.47 559,-288 567.29,-292.6 576.53,-296.37 585.8,-299.44"/>
<polygon fill="midnightblue" stroke="midnightblue" points="584.84,-302.81 595.43,-302.4 586.9,-296.12 584.84,-302.81"/>
</g>
<!-- Node4&#45;&gt;Node5 -->
<g id="edge4" class="edge">
<title>Node4&#45;&gt;Node5</title>
<path fill="none" stroke="midnightblue" d="M733.11,-355.6C744.3,-355.55 755.81,-355.49 767.13,-355.44"/>
<polygon fill="midnightblue" stroke="midnightblue" points="767.47,-358.94 777.46,-355.39 767.44,-351.94 767.47,-358.94"/>
</g>
<!-- Node9 -->
<g id="node9" class="node">
<title>Node9</title>
<g id="a_node9"><a xlink:href="../../d6/d01/a01690.html#a2aa251a1e3c74004616886620b9807b8" target="_top" xlink:title=" ">
<polygon fill="none" stroke="black" points="999.5,-0.5 999.5,-19.5 1179.5,-19.5 1179.5,-0.5 999.5,-0.5"/>
<text text-anchor="middle" x="1089.5" y="-7.5" font-family="Helvetica,sans-Serif" font-size="10.00">com.cliffc.aa.node.TestNode.hash</text>
</a>
</g>
</g>
<!-- Node8&#45;&gt;Node9 -->
<g id="edge8" class="edge">
<title>Node8&#45;&gt;Node9</title>
<path fill="none" stroke="midnightblue" d="M948.57,-10C961.78,-10 975.51,-10 988.99,-10"/>
<polygon fill="midnightblue" stroke="midnightblue" points="989.23,-13.5 999.23,-10 989.23,-6.5 989.23,-13.5"/>
</g>
<!-- Node11&#45;&gt;Node5 -->
<g id="edge21" class="edge">
<title>Node11&#45;&gt;Node5</title>
<path fill="none" stroke="midnightblue" d="M659.27,-196.14C688.52,-233.68 762.66,-328.35 770,-333 775.63,-336.57 781.78,-339.55 788.16,-342.06"/>
<polygon fill="midnightblue" stroke="midnightblue" points="787.02,-345.37 797.62,-345.39 789.35,-338.77 787.02,-345.37"/>
</g>
<!-- Node11&#45;&gt;Node7 -->
<g id="edge12" class="edge">
<title>Node11&#45;&gt;Node7</title>
<path fill="none" stroke="midnightblue" d="M710.9,-165.86C719.3,-161.97 727.3,-157.1 734,-151 762.53,-125.02 740.5,-96.87 770,-72 774.92,-67.85 780.48,-64.41 786.36,-61.56"/>
<polygon fill="midnightblue" stroke="midnightblue" points="787.99,-64.67 795.83,-57.55 785.26,-58.23 787.99,-64.67"/>
</g>
<!-- Node11&#45;&gt;Node8 -->
<g id="edge13" class="edge">
<title>Node11&#45;&gt;Node8</title>
<path fill="none" stroke="midnightblue" d="M673.06,-165.87C691.97,-153.61 717.25,-134.82 734,-113 758.73,-80.78 738.57,-54.72 770,-29 772.02,-27.35 774.15,-25.82 776.37,-24.43"/>
<polygon fill="midnightblue" stroke="midnightblue" points="778.15,-27.44 785.3,-19.62 774.83,-21.28 778.15,-27.44"/>
</g>
<!-- Node11&#45;&gt;Node10 -->
<g id="edge18" class="edge">
<title>Node11&#45;&gt;Node10</title>
<path fill="none" stroke="midnightblue" d="M732.53,-191.99C810.86,-202.11 926.42,-217.05 1004.44,-227.14"/>
<polygon fill="midnightblue" stroke="midnightblue" points="1004.35,-230.65 1014.72,-228.46 1005.25,-223.71 1004.35,-230.65"/>
</g>
<!-- Node12 -->
<g id="node12" class="node">
<title>Node12</title>
<g id="a_node12"><a xlink:href="../../d0/de2/a01442.html#ad4b6fe2d948ba739fd3d5e0feac103e6" target="_top" xlink:title=" ">
<polygon fill="none" stroke="black" points="1016.5,-171.5 1016.5,-190.5 1162.5,-190.5 1162.5,-171.5 1016.5,-171.5"/>
<text text-anchor="middle" x="1089.5" y="-178.5" font-family="Helvetica,sans-Serif" font-size="10.00">com.cliffc.aa.type.Type.isa</text>
</a>
</g>
</g>
<!-- Node11&#45;&gt;Node12 -->
<g id="edge11" class="edge">
<title>Node11&#45;&gt;Node12</title>
<path fill="none" stroke="midnightblue" d="M732.53,-181C811.46,-181 928.19,-181 1006.23,-181"/>
<polygon fill="midnightblue" stroke="midnightblue" points="1006.5,-184.5 1016.5,-181 1006.5,-177.5 1006.5,-184.5"/>
</g>
<!-- Node13 -->
<g id="node13" class="node">
<title>Node13</title>
<g id="a_node13"><a xlink:href="../../d6/d01/a01690.html#a130603a9f30aabd3c897109488d5040b" target="_top" xlink:title=" ">
<polygon fill="none" stroke="black" points="770,-152.5 770,-171.5 954,-171.5 954,-152.5 770,-152.5"/>
<text text-anchor="middle" x="862" y="-159.5" font-family="Helvetica,sans-Serif" font-size="10.00">com.cliffc.aa.node.TestNode.redo_</text>
</a>
</g>
</g>
<!-- Node11&#45;&gt;Node13 -->
<g id="edge14" class="edge">
<title>Node11&#45;&gt;Node13</title>
<path fill="none" stroke="midnightblue" d="M732.8,-173.41C741.66,-172.62 750.73,-171.81 759.74,-171.01"/>
<polygon fill="midnightblue" stroke="midnightblue" points="760.23,-174.48 769.88,-170.11 759.61,-167.51 760.23,-174.48"/>
</g>
<!-- Node14 -->
<g id="node14" class="node">
<title>Node14</title>
<g id="a_node14"><a xlink:href="../../df/db5/a01158.html#a05828b3784b2a2ac2314784214f662fd" target="_top" xlink:title=" ">
<polygon fill="none" stroke="black" points="1007.5,-104.5 1007.5,-123.5 1171.5,-123.5 1171.5,-104.5 1007.5,-104.5"/>
<text text-anchor="middle" x="1089.5" y="-111.5" font-family="Helvetica,sans-Serif" font-size="10.00">com.cliffc.aa.node.Node.value</text>
</a>
</g>
</g>
<!-- Node11&#45;&gt;Node14 -->
<g id="edge19" class="edge">
<title>Node11&#45;&gt;Node14</title>
<path fill="none" stroke="midnightblue" d="M706.06,-165.85C715.88,-161.9 725.59,-157.01 734,-151 755.12,-135.91 746.66,-116.37 770,-105 861.39,-60.47 985.69,-84.51 1048.57,-101.62"/>
<polygon fill="midnightblue" stroke="midnightblue" points="1047.91,-105.07 1058.48,-104.4 1049.8,-98.33 1047.91,-105.07"/>
</g>
<!-- Node15 -->
<g id="node15" class="node">
<title>Node15</title>
<g id="a_node15"><a xlink:href="../../df/db5/a01158.html#a4961273bc377a81bb456d49244bf550f" target="_top" xlink:title=" ">
<polygon fill="none" stroke="black" points="784,-114.5 784,-133.5 940,-133.5 940,-114.5 784,-114.5"/>
<text text-anchor="middle" x="862" y="-121.5" font-family="Helvetica,sans-Serif" font-size="10.00">com.cliffc.aa.node.Node.xstr</text>
</a>
</g>
</g>
<!-- Node11&#45;&gt;Node15 -->
<g id="edge20" class="edge">
<title>Node11&#45;&gt;Node15</title>
<path fill="none" stroke="midnightblue" d="M692.3,-165.98C715.36,-158.54 744.02,-149.72 770,-143 780.06,-140.39 790.83,-137.9 801.29,-135.62"/>
<polygon fill="midnightblue" stroke="midnightblue" points="802.16,-139.01 811.21,-133.51 800.7,-132.17 802.16,-139.01"/>
</g>
<!-- Node13&#45;&gt;Node10 -->
<g id="edge16" class="edge">
<title>Node13&#45;&gt;Node10</title>
<path fill="none" stroke="midnightblue" d="M891.56,-171.63C931.89,-185.22 1005.59,-210.06 1050.5,-225.19"/>
<polygon fill="midnightblue" stroke="midnightblue" points="1049.58,-228.58 1060.17,-228.45 1051.81,-221.94 1049.58,-228.58"/>
</g>
<!-- Node13&#45;&gt;Node12 -->
<g id="edge15" class="edge">
<title>Node13&#45;&gt;Node12</title>
<path fill="none" stroke="midnightblue" d="M954.07,-169.67C971.18,-171.11 988.98,-172.61 1005.81,-174.03"/>
<polygon fill="midnightblue" stroke="midnightblue" points="1005.89,-177.55 1016.15,-174.9 1006.48,-170.58 1005.89,-177.55"/>
</g>
<!-- Node13&#45;&gt;Node14 -->
<g id="edge17" class="edge">
<title>Node13&#45;&gt;Node14</title>
<path fill="none" stroke="midnightblue" d="M908.84,-152.49C923.29,-149.48 939.32,-146.12 954,-143 980.6,-137.36 1010.13,-131 1034.73,-125.68"/>
<polygon fill="midnightblue" stroke="midnightblue" points="1035.57,-129.08 1044.6,-123.54 1034.08,-122.24 1035.57,-129.08"/>
</g>
<!-- Node16&#45;&gt;Node5 -->
<g id="edge24" class="edge">
<title>Node16&#45;&gt;Node5</title>
<path fill="none" stroke="midnightblue" d="M694.88,-321.54C727.08,-328.03 769.85,-336.64 803.93,-343.51"/>
<polygon fill="midnightblue" stroke="midnightblue" points="803.26,-346.94 813.75,-345.48 804.64,-340.08 803.26,-346.94"/>
</g>
<!-- Node17 -->
<g id="node17" class="node">
<title>Node17</title>
<g id="a_node17"><a xlink:href="../../df/db5/a01158.html#a9a46cea187559f94192aa6e09b91c60c" target="_top" xlink:title=" ">
<polygon fill="none" stroke="black" points="789,-304.5 789,-323.5 935,-323.5 935,-304.5 789,-304.5"/>
<text text-anchor="middle" x="862" y="-311.5" font-family="Helvetica,sans-Serif" font-size="10.00">com.cliffc.aa.node.Node.in</text>
</a>
</g>
</g>
<!-- Node16&#45;&gt;Node17 -->
<g id="edge23" class="edge">
<title>Node16&#45;&gt;Node17</title>
<path fill="none" stroke="midnightblue" d="M732.8,-312.8C747.9,-312.94 763.6,-313.09 778.61,-313.23"/>
<polygon fill="midnightblue" stroke="midnightblue" points="778.85,-316.73 788.89,-313.32 778.92,-309.73 778.85,-316.73"/>
</g>
</g>
</svg>
