<?xml version="1.0" encoding="UTF-8" standalone="no"?>
<!DOCTYPE svg PUBLIC "-//W3C//DTD SVG 1.1//EN"
 "http://www.w3.org/Graphics/SVG/1.1/DTD/svg11.dtd">
<!-- Generated by graphviz version 2.43.0 (0)
 -->
<!-- Title: com.cliffc.aa.node.TestNode.set_type Pages: 1 -->
<svg width="1652pt" height="148pt"
 viewBox="0.00 0.00 1652.00 147.83" xmlns="http://www.w3.org/2000/svg" xmlns:xlink="http://www.w3.org/1999/xlink">
<g id="graph0" class="graph" transform="scale(1 1) rotate(0) translate(4 143.83)">
<title>com.cliffc.aa.node.TestNode.set_type</title>
<!-- Node1 -->
<g id="node1" class="node">
<title>Node1</title>
<g id="a_node1"><a xlink:title=" ">
<polygon fill="#bfbfbf" stroke="black" points="1445,-51.33 1445,-70.33 1644,-70.33 1644,-51.33 1445,-51.33"/>
<text text-anchor="middle" x="1544.5" y="-58.33" font-family="Helvetica,sans-Serif" font-size="10.00">com.cliffc.aa.node.TestNode.set_type</text>
</a>
</g>
</g>
<!-- Node2 -->
<g id="node2" class="node">
<title>Node2</title>
<g id="a_node2"><a xlink:href="../../d6/d01/a01690.html#a130603a9f30aabd3c897109488d5040b" target="_top" xlink:title=" ">
<polygon fill="none" stroke="black" points="1225,-108.33 1225,-127.33 1409,-127.33 1409,-108.33 1225,-108.33"/>
<text text-anchor="middle" x="1317" y="-115.33" font-family="Helvetica,sans-Serif" font-size="10.00">com.cliffc.aa.node.TestNode.redo_</text>
</a>
</g>
</g>
<!-- Node1&#45;&gt;Node2 -->
<g id="edge1" class="edge">
<title>Node1&#45;&gt;Node2</title>
<path fill="none" stroke="midnightblue" d="M1495.83,-72.88C1454.13,-83.42 1394.37,-98.52 1355.87,-108.25"/>
<polygon fill="midnightblue" stroke="midnightblue" points="1496.92,-76.21 1505.76,-70.37 1495.2,-69.42 1496.92,-76.21"/>
</g>
<!-- Node3 -->
<g id="node3" class="node">
<title>Node3</title>
<g id="a_node3"><a xlink:href="../../d6/d01/a01690.html#a4923f33ccf4a83daebe3cf21aad63217" target="_top" xlink:title=" ">
<polygon fill="none" stroke="black" points="1017,-70.83 1017,-100.83 1189,-100.83 1189,-70.83 1017,-70.83"/>
<text text-anchor="start" x="1025" y="-88.83" font-family="Helvetica,sans-Serif" font-size="10.00">com.cliffc.aa.node.TestNode.set</text>
<text text-anchor="middle" x="1103" y="-77.83" font-family="Helvetica,sans-Serif" font-size="10.00">_value_type</text>
</a>
</g>
</g>
<!-- Node1&#45;&gt;Node3 -->
<g id="edge11" class="edge">
<title>Node1&#45;&gt;Node3</title>
<path fill="none" stroke="midnightblue" d="M1434.81,-67.01C1359.05,-71.32 1259.39,-76.99 1189.33,-80.97"/>
<polygon fill="midnightblue" stroke="midnightblue" points="1435.08,-70.5 1444.87,-66.44 1434.68,-63.51 1435.08,-70.5"/>
</g>
<!-- Node4 -->
<g id="node4" class="node">
<title>Node4</title>
<g id="a_node4"><a xlink:href="../../d6/d01/a01690.html#a154afbf005e688557a82743a3c0254ea" target="_top" xlink:title=" ">
<polygon fill="none" stroke="black" points="727,-76.33 727,-95.33 981,-95.33 981,-76.33 727,-76.33"/>
<text text-anchor="middle" x="854" y="-83.33" font-family="Helvetica,sans-Serif" font-size="10.00">com.cliffc.aa.node.TestNode.test1monotonic_init</text>
</a>
</g>
</g>
<!-- Node1&#45;&gt;Node4 -->
<g id="edge12" class="edge">
<title>Node1&#45;&gt;Node4</title>
<path fill="none" stroke="midnightblue" d="M1434.72,-56.44C1328.13,-53.22 1161.16,-51.07 1017,-61.83 979.72,-64.61 937.99,-70.87 906.22,-76.29"/>
<polygon fill="midnightblue" stroke="midnightblue" points="1434.74,-59.94 1444.85,-56.75 1434.96,-52.94 1434.74,-59.94"/>
</g>
<!-- Node6 -->
<g id="node6" class="node">
<title>Node6</title>
<g id="a_node6"><a xlink:href="../../d6/d01/a01690.html#a6e6a3a207140c4e96233e6539e82da33" target="_top" xlink:title=" ">
<polygon fill="none" stroke="black" points="218,-48.83 218,-78.83 394,-78.83 394,-48.83 218,-48.83"/>
<text text-anchor="start" x="226" y="-66.83" font-family="Helvetica,sans-Serif" font-size="10.00">com.cliffc.aa.node.TestNode.test</text>
<text text-anchor="middle" x="306" y="-55.83" font-family="Helvetica,sans-Serif" font-size="10.00">Monotonic</text>
</a>
</g>
</g>
<!-- Node1&#45;&gt;Node6 -->
<g id="edge13" class="edge">
<title>Node1&#45;&gt;Node6</title>
<path fill="none" stroke="midnightblue" d="M1489.54,-49.27C1406.94,-32.61 1243.97,-3.83 1104,-3.83 1104,-3.83 1104,-3.83 853,-3.83 664.81,-3.83 615.04,11.48 430,-22.83 400.01,-28.39 367.31,-39.55 343.17,-48.82"/>
<polygon fill="midnightblue" stroke="midnightblue" points="1488.96,-52.72 1499.45,-51.29 1490.35,-45.86 1488.96,-52.72"/>
</g>
<!-- Node2&#45;&gt;Node3 -->
<g id="edge2" class="edge">
<title>Node2&#45;&gt;Node3</title>
<path fill="none" stroke="midnightblue" d="M1242.93,-106.8C1225.61,-104.18 1206.98,-101.37 1189.16,-98.68"/>
<polygon fill="midnightblue" stroke="midnightblue" points="1242.56,-110.28 1252.97,-108.31 1243.6,-103.36 1242.56,-110.28"/>
</g>
<!-- Node3&#45;&gt;Node4 -->
<g id="edge3" class="edge">
<title>Node3&#45;&gt;Node4</title>
<path fill="none" stroke="midnightblue" d="M1006.84,-85.83C998.42,-85.83 989.83,-85.83 981.21,-85.83"/>
<polygon fill="midnightblue" stroke="midnightblue" points="1007,-89.33 1017,-85.83 1007,-82.33 1007,-89.33"/>
</g>
<!-- Node5 -->
<g id="node5" class="node">
<title>Node5</title>
<g id="a_node5"><a xlink:href="../../d6/d01/a01690.html#a5de46795b0c66c08ee8ae472193705a0" target="_top" xlink:title=" ">
<polygon fill="none" stroke="black" points="444,-120.33 444,-139.33 677,-139.33 677,-120.33 444,-120.33"/>
<text text-anchor="middle" x="560.5" y="-127.33" font-family="Helvetica,sans-Serif" font-size="10.00">com.cliffc.aa.node.TestNode.test1monotonic</text>
</a>
</g>
</g>
<!-- Node4&#45;&gt;Node5 -->
<g id="edge4" class="edge">
<title>Node4&#45;&gt;Node5</title>
<path fill="none" stroke="midnightblue" d="M781.68,-96.95C753.44,-101.32 720.7,-106.36 691,-110.83 670.22,-113.95 647.54,-117.3 627.06,-120.3"/>
<polygon fill="midnightblue" stroke="midnightblue" points="782.51,-100.36 791.86,-95.37 781.44,-93.44 782.51,-100.36"/>
</g>
<!-- Node8 -->
<g id="node8" class="node">
<title>Node8</title>
<g id="a_node8"><a xlink:href="../../d6/d01/a01690.html#a88fb22ff624ae59e82bb604c9de813a3" target="_top" xlink:title=" ">
<polygon fill="none" stroke="black" points="444,-70.83 444,-100.83 677,-100.83 677,-70.83 444,-70.83"/>
<text text-anchor="start" x="452" y="-88.83" font-family="Helvetica,sans-Serif" font-size="10.00">com.cliffc.aa.node.TestNode.test1monotonic</text>
<text text-anchor="middle" x="560.5" y="-77.83" font-family="Helvetica,sans-Serif" font-size="10.00">_intrinsic</text>
</a>
</g>
</g>
<!-- Node4&#45;&gt;Node8 -->
<g id="edge7" class="edge">
<title>Node4&#45;&gt;Node8</title>
<path fill="none" stroke="midnightblue" d="M716.77,-85.83C703.57,-85.83 690.26,-85.83 677.29,-85.83"/>
<polygon fill="midnightblue" stroke="midnightblue" points="716.84,-89.33 726.84,-85.83 716.84,-82.33 716.84,-89.33"/>
</g>
<!-- Node9 -->
<g id="node9" class="node">
<title>Node9</title>
<g id="a_node9"><a xlink:href="../../d6/d01/a01690.html#a18d0da5d331b4e6af53479cb928172c2" target="_top" xlink:title=" ">
<polygon fill="none" stroke="black" points="430,-32.33 430,-51.33 691,-51.33 691,-32.33 430,-32.33"/>
<text text-anchor="middle" x="560.5" y="-39.33" font-family="Helvetica,sans-Serif" font-size="10.00">com.cliffc.aa.node.TestNode.test1monotonic_prim</text>
</a>
</g>
</g>
<!-- Node4&#45;&gt;Node9 -->
<g id="edge9" class="edge">
<title>Node4&#45;&gt;Node9</title>
<path fill="none" stroke="midnightblue" d="M779.77,-74.77C731.99,-67.56 670.25,-58.24 624.63,-51.36"/>
<polygon fill="midnightblue" stroke="midnightblue" points="779.34,-78.25 789.75,-76.28 780.38,-71.33 779.34,-78.25"/>
</g>
<!-- Node5&#45;&gt;Node6 -->
<g id="edge5" class="edge">
<title>Node5&#45;&gt;Node6</title>
<path fill="none" stroke="midnightblue" d="M465.61,-118.54C453.54,-116.36 441.42,-113.81 430,-110.83 398.81,-102.69 364.67,-89.25 340.28,-78.83"/>
<polygon fill="midnightblue" stroke="midnightblue" points="465.26,-122.03 475.71,-120.28 466.45,-115.13 465.26,-122.03"/>
</g>
<!-- Node7 -->
<g id="node7" class="node">
<title>Node7</title>
<g id="a_node7"><a xlink:href="../../d6/d01/a01690.html#a7c3cda8a8bb1f4a81d205db0551e91d1" target="_top" xlink:title=" ">
<polygon fill="none" stroke="black" points="0,-54.33 0,-73.33 182,-73.33 182,-54.33 0,-54.33"/>
<text text-anchor="middle" x="91" y="-61.33" font-family="Helvetica,sans-Serif" font-size="10.00">com.cliffc.aa.node.TestNode.main</text>
</a>
</g>
</g>
<!-- Node6&#45;&gt;Node7 -->
<g id="edge6" class="edge">
<title>Node6&#45;&gt;Node7</title>
<path fill="none" stroke="midnightblue" d="M207.52,-63.83C199.09,-63.83 190.59,-63.83 182.22,-63.83"/>
<polygon fill="midnightblue" stroke="midnightblue" points="207.75,-67.33 217.75,-63.83 207.75,-60.33 207.75,-67.33"/>
</g>
<!-- Node8&#45;&gt;Node6 -->
<g id="edge8" class="edge">
<title>Node8&#45;&gt;Node6</title>
<path fill="none" stroke="midnightblue" d="M433.74,-74.87C420.34,-73.7 406.94,-72.53 394.14,-71.42"/>
<polygon fill="midnightblue" stroke="midnightblue" points="433.7,-78.38 443.96,-75.76 434.31,-71.41 433.7,-78.38"/>
</g>
<!-- Node9&#45;&gt;Node6 -->
<g id="edge10" class="edge">
<title>Node9&#45;&gt;Node6</title>
<path fill="none" stroke="midnightblue" d="M440.05,-52.23C424.53,-53.59 408.87,-54.95 394.01,-56.25"/>
<polygon fill="midnightblue" stroke="midnightblue" points="440.56,-55.7 450.22,-51.35 439.95,-48.73 440.56,-55.7"/>
</g>
</g>
</svg>
