<?xml version="1.0" encoding="UTF-8" standalone="no"?>
<!DOCTYPE svg PUBLIC "-//W3C//DTD SVG 1.1//EN"
 "http://www.w3.org/Graphics/SVG/1.1/DTD/svg11.dtd">
<!-- Generated by graphviz version 2.43.0 (0)
 -->
<!-- Title: com.cliffc.aa.node.TestNode.print Pages: 1 -->
<!--zoomable 142 -->
<svg id="main" version="1.1" xmlns="http://www.w3.org/2000/svg" xmlns:xlink="http://www.w3.org/1999/xlink" xml:space="preserve" onload="init(evt)">
<style type="text/css"><![CDATA[
.edge:hover path { stroke: red; }
.edge:hover polygon { stroke: red; fill: red; }
]]></style>
<script type="text/javascript"><![CDATA[
var edges = document.getElementsByTagName('g');
if (edges && edges.length) {
  for (var i=0;i<edges.length;i++) {
    if (edges[i].id.substr(0,4)=='edge') {
      edges[i].setAttribute('class','edge');
    }
  }
}
]]></script>
        <defs>
                <circle id="rim" cx="0" cy="0" r="7"/>
                <circle id="rim2" cx="0" cy="0" r="3.5"/>
                <g id="zoomPlus">
                        <use xlink:href="#rim" fill="#404040">
                                <set attributeName="fill" to="#808080" begin="zoomplus.mouseover" end="zoomplus.mouseout"/>
                        </use>
                        <path d="M-4,0h8M0,-4v8" fill="none" stroke="white" stroke-width="1.5" pointer-events="none"/>
                </g>
                <g id="zoomMin">
                        <use xlink:href="#rim" fill="#404040">
                                <set attributeName="fill" to="#808080" begin="zoomminus.mouseover" end="zoomminus.mouseout"/>
                        </use>
                        <path d="M-4,0h8" fill="none" stroke="white" stroke-width="1.5" pointer-events="none"/>
                </g>
                <g id="dirArrow">
                        <path fill="none" stroke="white" stroke-width="1.5" d="M0,-3.0v7 M-2.5,-0.5L0,-3.0L2.5,-0.5"/>
                </g>
               <g id="resetDef">
                       <use xlink:href="#rim2" fill="#404040">
                               <set attributeName="fill" to="#808080" begin="reset.mouseover" end="reset.mouseout"/>
                       </use>
               </g>
        </defs>

<script type="text/javascript">
var viewWidth = 851;
var viewHeight = 142;
var sectionId = 'dynsection-11';
</script>
<script xlink:href="../../svgpan.js"/>
<svg id="graph" class="graph">
<g id="viewport">
<title>com.cliffc.aa.node.TestNode.print</title>
<!-- Node1 -->
<g id="node1" class="node">
<title>Node1</title>
<g id="a_node1"><a xlink:title=" ">
<polygon fill="#bfbfbf" stroke="black" points="0,-38.5 0,-57.5 179,-57.5 179,-38.5 0,-38.5"/>
<text text-anchor="middle" x="89.5" y="-45.5" font-family="Helvetica,sans-Serif" font-size="10.00">com.cliffc.aa.node.TestNode.print</text>
</a>
</g>
</g>
<!-- Node2 -->
<g id="node2" class="node">
<title>Node2</title>
<g id="a_node2"><a xlink:href="../../d0/d34/a01486.html#a8589b1d0eb95905bc8373a2a6d5d5038" target="_top" xlink:title=" ">
<polygon fill="none" stroke="black" points="220.5,-76.5 220.5,-95.5 382.5,-95.5 382.5,-76.5 220.5,-76.5"/>
<text text-anchor="middle" x="301.5" y="-83.5" font-family="Helvetica,sans-Serif" font-size="10.00">com.cliffc.aa.type.TypeInt.con</text>
</a>
</g>
</g>
<!-- Node1&#45;&gt;Node2 -->
<g id="edge1" class="edge">
<title>Node1&#45;&gt;Node2</title>
<path fill="none" stroke="midnightblue" d="M143.22,-57.54C171.93,-62.73 207.64,-69.2 237.77,-74.65"/>
<polygon fill="midnightblue" stroke="midnightblue" points="237.29,-78.12 247.76,-76.46 238.54,-71.23 237.29,-78.12"/>
</g>
<!-- Node7 -->
<g id="node7" class="node">
<title>Node7</title>
<g id="a_node7"><a xlink:href="../../d0/de2/a01442.html#a8a550c64e94c1e953624f882ac6fdac6" target="_top" xlink:title=" ">
<polygon fill="none" stroke="black" points="226,-38.5 226,-57.5 377,-57.5 377,-38.5 226,-38.5"/>
<text text-anchor="middle" x="301.5" y="-45.5" font-family="Helvetica,sans-Serif" font-size="10.00">com.cliffc.aa.type.Type.getl</text>
</a>
</g>
</g>
<!-- Node1&#45;&gt;Node7 -->
<g id="edge10" class="edge">
<title>Node1&#45;&gt;Node7</title>
<path fill="none" stroke="midnightblue" d="M179.25,-48C191.41,-48 203.86,-48 215.94,-48"/>
<polygon fill="midnightblue" stroke="midnightblue" points="215.99,-51.5 225.99,-48 215.99,-44.5 215.99,-51.5"/>
</g>
<!-- Node8 -->
<g id="node8" class="node">
<title>Node8</title>
<g id="a_node8"><a xlink:href="../../d6/d01/a01690.html#aeed27b532abeb4a3fafb5fc195a7ac71" target="_top" xlink:title=" ">
<polygon fill="none" stroke="black" points="215,-0.5 215,-19.5 388,-19.5 388,-0.5 215,-0.5"/>
<text text-anchor="middle" x="301.5" y="-7.5" font-family="Helvetica,sans-Serif" font-size="10.00">com.cliffc.aa.node.TestNode.put</text>
</a>
</g>
</g>
<!-- Node1&#45;&gt;Node8 -->
<g id="edge11" class="edge">
<title>Node1&#45;&gt;Node8</title>
<path fill="none" stroke="midnightblue" d="M143.22,-38.46C171.93,-33.27 207.64,-26.8 237.77,-21.35"/>
<polygon fill="midnightblue" stroke="midnightblue" points="238.54,-24.77 247.76,-19.54 237.29,-17.88 238.54,-24.77"/>
</g>
<!-- Node3 -->
<g id="node3" class="node">
<title>Node3</title>
<g id="a_node3"><a xlink:href="../../d0/d34/a01486.html#a32057191cb36ba421014799319c36f44" target="_top" xlink:title=" ">
<polygon fill="none" stroke="black" points="434,-114.5 434,-133.5 594,-133.5 594,-114.5 434,-114.5"/>
<text text-anchor="middle" x="514" y="-121.5" font-family="Helvetica,sans-Serif" font-size="10.00">com.cliffc.aa.type.TypeInt.log</text>
</a>
</g>
</g>
<!-- Node2&#45;&gt;Node3 -->
<g id="edge2" class="edge">
<title>Node2&#45;&gt;Node3</title>
<path fill="none" stroke="midnightblue" d="M382.68,-93.9C414.89,-99.26 450.42,-106.11 476.24,-112.09"/>
<polygon fill="midnightblue" stroke="midnightblue" points="475.43,-115.5 485.97,-114.42 477.06,-108.69 475.43,-115.5"/>
</g>
<!-- Node4 -->
<g id="node4" class="node">
<title>Node4</title>
<g id="a_node4"><a xlink:href="../../d0/d34/a01486.html#a06777eb51a5bf16ede6505e80c1d523d" target="_top" xlink:title=" ">
<polygon fill="none" stroke="black" points="428,-76.5 428,-95.5 600,-95.5 600,-76.5 428,-76.5"/>
<text text-anchor="middle" x="514" y="-83.5" font-family="Helvetica,sans-Serif" font-size="10.00">com.cliffc.aa.type.TypeInt.make</text>
</a>
</g>
</g>
<!-- Node2&#45;&gt;Node4 -->
<g id="edge4" class="edge">
<title>Node2&#45;&gt;Node4</title>
<path fill="none" stroke="midnightblue" d="M382.68,-79.42C394.09,-79.26 405.92,-79.21 417.59,-79.28"/>
<polygon fill="midnightblue" stroke="midnightblue" points="417.76,-82.78 427.79,-79.36 417.82,-75.78 417.76,-82.78"/>
</g>
<!-- Node3&#45;&gt;Node2 -->
<g id="edge3" class="edge">
<title>Node3&#45;&gt;Node2</title>
<path fill="none" stroke="midnightblue" d="M433.88,-116.28C401.46,-110.9 365.51,-103.99 339.42,-97.95"/>
<polygon fill="midnightblue" stroke="midnightblue" points="340.13,-94.52 329.59,-95.59 338.5,-101.32 340.13,-94.52"/>
</g>
<!-- Node4&#45;&gt;Node2 -->
<g id="edge5" class="edge">
<title>Node4&#45;&gt;Node2</title>
<path fill="none" stroke="midnightblue" d="M427.79,-92.64C416.27,-92.77 404.41,-92.78 392.8,-92.69"/>
<polygon fill="midnightblue" stroke="midnightblue" points="392.72,-89.19 382.68,-92.58 392.64,-96.19 392.72,-89.19"/>
</g>
<!-- Node5 -->
<g id="node5" class="node">
<title>Node5</title>
<g id="a_node5"><a xlink:href="../../d0/de2/a01442.html#a8fe8d556e45e6b654f3ac87f118ac8de" target="_top" xlink:title=" ">
<polygon fill="none" stroke="black" points="640,-94.5 640,-113.5 843,-113.5 843,-94.5 640,-94.5"/>
<text text-anchor="middle" x="741.5" y="-101.5" font-family="Helvetica,sans-Serif" font-size="10.00">com.cliffc.aa.type.Type.hashcons_free</text>
</a>
</g>
</g>
<!-- Node4&#45;&gt;Node5 -->
<g id="edge6" class="edge">
<title>Node4&#45;&gt;Node5</title>
<path fill="none" stroke="midnightblue" d="M600.25,-92.81C609.98,-93.58 620,-94.38 630,-95.18"/>
<polygon fill="midnightblue" stroke="midnightblue" points="629.72,-98.67 639.97,-95.98 630.28,-91.69 629.72,-98.67"/>
</g>
<!-- Node6 -->
<g id="node6" class="node">
<title>Node6</title>
<g id="a_node6"><a xlink:href="../../d0/d34/a01486.html#a8c1e98b9a2e73b098f1750cd7d17f43c" target="_top" xlink:title=" ">
<polygon fill="none" stroke="black" points="661,-38.5 661,-57.5 822,-57.5 822,-38.5 661,-38.5"/>
<text text-anchor="middle" x="741.5" y="-45.5" font-family="Helvetica,sans-Serif" font-size="10.00">com.cliffc.aa.type.TypeInt.init</text>
</a>
</g>
</g>
<!-- Node4&#45;&gt;Node6 -->
<g id="edge7" class="edge">
<title>Node4&#45;&gt;Node6</title>
<path fill="none" stroke="midnightblue" d="M571.61,-76.46C602.71,-71.22 641.45,-64.69 673.98,-59.21"/>
<polygon fill="midnightblue" stroke="midnightblue" points="674.59,-62.66 683.86,-57.54 673.42,-55.75 674.59,-62.66"/>
</g>
<!-- Node6&#45;&gt;Node2 -->
<g id="edge8" class="edge">
<title>Node6&#45;&gt;Node2</title>
<path fill="none" stroke="midnightblue" d="M660.98,-50.68C596.87,-53.34 504.45,-58.31 424,-67 405.19,-69.03 384.85,-71.93 366.29,-74.86"/>
<polygon fill="midnightblue" stroke="midnightblue" points="365.5,-71.44 356.18,-76.48 366.61,-78.35 365.5,-71.44"/>
</g>
<!-- Node6&#45;&gt;Node6 -->
<g id="edge9" class="edge">
<title>Node6&#45;&gt;Node6</title>
<path fill="none" stroke="midnightblue" d="M706.95,-57.61C689.59,-66.46 701.11,-76 741.5,-76 771.79,-76 785.84,-70.63 783.65,-64.22"/>
<polygon fill="midnightblue" stroke="midnightblue" points="785.9,-61.53 776.05,-57.61 781.3,-66.81 785.9,-61.53"/>
</g>
<!-- Node9 -->
<g id="node9" class="node">
<title>Node9</title>
<g id="a_node9"><a xlink:href="../../d6/d01/a01690.html#a2aa251a1e3c74004616886620b9807b8" target="_top" xlink:title=" ">
<polygon fill="none" stroke="black" points="424,-0.5 424,-19.5 604,-19.5 604,-0.5 424,-0.5"/>
<text text-anchor="middle" x="514" y="-7.5" font-family="Helvetica,sans-Serif" font-size="10.00">com.cliffc.aa.node.TestNode.hash</text>
</a>
</g>
</g>
<!-- Node8&#45;&gt;Node9 -->
<g id="edge12" class="edge">
<title>Node8&#45;&gt;Node9</title>
<path fill="none" stroke="midnightblue" d="M388.12,-10C396.45,-10 404.96,-10 413.41,-10"/>
<polygon fill="midnightblue" stroke="midnightblue" points="413.69,-13.5 423.69,-10 413.69,-6.5 413.69,-13.5"/>
</g>
</g>
</svg>
        <g id="navigator" transform="translate(0 0)" fill="#404254">
                <rect fill="#f2f5e9" fill-opacity="0.5" stroke="#606060" stroke-width=".5" x="0" y="0" width="60" height="60"/>
                <use id="zoomplus" xlink:href="#zoomPlus" x="17" y="9" onmousedown="handleZoom(evt,'in')"/>
                <use id="zoomminus" xlink:href="#zoomMin" x="42" y="9" onmousedown="handleZoom(evt,'out')"/>
                <use id="reset" xlink:href="#resetDef" x="30" y="36" onmousedown="handleReset()"/>
                <g id="arrowUp" xlink:href="#dirArrow" transform="translate(30 24)" onmousedown="handlePan(0,-1)">
                  <use xlink:href="#rim" fill="#404040">
                        <set attributeName="fill" to="#808080" begin="arrowUp.mouseover" end="arrowUp.mouseout"/>
                  </use>
                  <path fill="none" stroke="white" stroke-width="1.5" d="M0,-3.0v7 M-2.5,-0.5L0,-3.0L2.5,-0.5"/>
                </g>
                <g id="arrowRight" xlink:href="#dirArrow" transform="rotate(90) translate(36 -43)" onmousedown="handlePan(1,0)">
                  <use xlink:href="#rim" fill="#404040">
                        <set attributeName="fill" to="#808080" begin="arrowRight.mouseover" end="arrowRight.mouseout"/>
                  </use>
                  <path fill="none" stroke="white" stroke-width="1.5" d="M0,-3.0v7 M-2.5,-0.5L0,-3.0L2.5,-0.5"/>
                </g>
                <g id="arrowDown" xlink:href="#dirArrow" transform="rotate(180) translate(-30 -48)" onmousedown="handlePan(0,1)">
                  <use xlink:href="#rim" fill="#404040">
                        <set attributeName="fill" to="#808080" begin="arrowDown.mouseover" end="arrowDown.mouseout"/>
                  </use>
                  <path fill="none" stroke="white" stroke-width="1.5" d="M0,-3.0v7 M-2.5,-0.5L0,-3.0L2.5,-0.5"/>
                </g>
                <g id="arrowLeft" xlink:href="#dirArrow" transform="rotate(270) translate(-36 17)" onmousedown="handlePan(-1,0)">
                  <use xlink:href="#rim" fill="#404040">
                        <set attributeName="fill" to="#808080" begin="arrowLeft.mouseover" end="arrowLeft.mouseout"/>
                  </use>
                  <path fill="none" stroke="white" stroke-width="1.5" d="M0,-3.0v7 M-2.5,-0.5L0,-3.0L2.5,-0.5"/>
                </g>
        </g>
        <svg viewBox="0 0 15 15" width="100%" height="30px" preserveAspectRatio="xMaxYMin meet">
         <g id="arrow_out" transform="scale(0.3 0.3)">
          <a xlink:href="a01690_a3a98e5078c5810760173aaea9a6e719a_cgraph_org.svg" target="_base">
           <rect id="button" ry="5" rx="5" y="6" x="6" height="38" width="38"
                fill="#f2f5e9" fill-opacity="0.5" stroke="#606060" stroke-width="1.0"/>
           <path id="arrow"
             d="M 11.500037,31.436501 C 11.940474,20.09759 22.043105,11.32322 32.158766,21.979434 L 37.068811,17.246167 C 37.068811,17.246167 37.088388,32 37.088388,32 L 22.160133,31.978069 C 22.160133,31.978069 26.997745,27.140456 26.997745,27.140456 C 18.528582,18.264221 13.291696,25.230495 11.500037,31.436501 z"
             style="fill:#404040;"/>
          </a>
         </g>
        </svg>
</svg>
