<?xml version="1.0" encoding="UTF-8" standalone="no"?>
<!DOCTYPE svg PUBLIC "-//W3C//DTD SVG 1.1//EN"
 "http://www.w3.org/Graphics/SVG/1.1/DTD/svg11.dtd">
<!-- Generated by graphviz version 2.43.0 (0)
 -->
<!-- Title: com.cliffc.aa.HM.HM3.HMVar.find Pages: 1 -->
<svg width="411pt" height="46pt"
 viewBox="0.00 0.00 411.00 46.00" xmlns="http://www.w3.org/2000/svg" xmlns:xlink="http://www.w3.org/1999/xlink">
<g id="graph0" class="graph" transform="scale(1 1) rotate(0) translate(4 42)">
<title>com.cliffc.aa.HM.HM3.HMVar.find</title>
<!-- Node1 -->
<g id="node1" class="node">
<title>Node1</title>
<g id="a_node1"><a xlink:title=" ">
<polygon fill="#bfbfbf" stroke="black" points="224,-0.5 224,-19.5 403,-19.5 403,-0.5 224,-0.5"/>
<text text-anchor="middle" x="313.5" y="-7.5" font-family="Helvetica,sans-Serif" font-size="10.00">com.cliffc.aa.HM.HM3.HMVar.find</text>
</a>
</g>
</g>
<!-- Node2 -->
<g id="node2" class="node">
<title>Node2</title>
<g id="a_node2"><a xlink:href="../../d6/d08/a00646.html#aad1275a09c563d7faa53851fe7f8cbf7" target="_top" xlink:title=" ">
<polygon fill="none" stroke="black" points="0,-0.5 0,-19.5 188,-19.5 188,-0.5 0,-0.5"/>
<text text-anchor="middle" x="94" y="-7.5" font-family="Helvetica,sans-Serif" font-size="10.00">com.cliffc.aa.HM.HM3.HMVar.union</text>
</a>
</g>
</g>
<!-- Node1&#45;&gt;Node2 -->
<g id="edge1" class="edge">
<title>Node1&#45;&gt;Node2</title>
<path fill="none" stroke="midnightblue" d="M213.47,-10C205.02,-10 196.49,-10 188.09,-10"/>
<polygon fill="midnightblue" stroke="midnightblue" points="213.72,-13.5 223.72,-10 213.72,-6.5 213.72,-13.5"/>
</g>
<!-- Node2&#45;&gt;Node2 -->
<g id="edge2" class="edge">
<title>Node2&#45;&gt;Node2</title>
<path fill="none" stroke="midnightblue" d="M134.77,-26.62C136.2,-32.86 122.61,-38 94,-38 55.04,-38 43.93,-28.46 60.67,-19.61"/>
<polygon fill="midnightblue" stroke="midnightblue" points="137.01,-23.92 127.33,-19.61 132.21,-29.01 137.01,-23.92"/>
</g>
</g>
</svg>
