<?xml version="1.0" encoding="UTF-8" standalone="no"?>
<!DOCTYPE svg PUBLIC "-//W3C//DTD SVG 1.1//EN"
 "http://www.w3.org/Graphics/SVG/1.1/DTD/svg11.dtd">
<!-- Generated by graphviz version 2.43.0 (0)
 -->
<!-- Title: com.cliffc.aa.type.Type.has_name Pages: 1 -->
<svg width="377pt" height="88pt"
 viewBox="0.00 0.00 377.00 88.00" xmlns="http://www.w3.org/2000/svg" xmlns:xlink="http://www.w3.org/1999/xlink">
<g id="graph0" class="graph" transform="scale(1 1) rotate(0) translate(4 84)">
<title>com.cliffc.aa.type.Type.has_name</title>
<!-- Node1 -->
<g id="node1" class="node">
<title>Node1</title>
<g id="a_node1"><a xlink:title=" ">
<polygon fill="#bfbfbf" stroke="black" points="187,-30 187,-49 369,-49 369,-30 187,-30"/>
<text text-anchor="middle" x="278" y="-37" font-family="Helvetica,sans-Serif" font-size="10.00">com.cliffc.aa.type.Type.has_name</text>
</a>
</g>
</g>
<!-- Node2 -->
<g id="node2" class="node">
<title>Node2</title>
<g id="a_node2"><a xlink:href="../../d0/de2/a01442.html#a6d5ad43f0c116a5fa7626d0a0d89dee5" target="_top" xlink:title=" ">
<polygon fill="none" stroke="black" points="9.5,-49.5 9.5,-79.5 141.5,-79.5 141.5,-49.5 9.5,-49.5"/>
<text text-anchor="start" x="17.5" y="-67.5" font-family="Helvetica,sans-Serif" font-size="10.00">com.cliffc.aa.type.Type</text>
<text text-anchor="middle" x="75.5" y="-56.5" font-family="Helvetica,sans-Serif" font-size="10.00">&lt; TypeFlt &gt;::isBitShape</text>
</a>
</g>
</g>
<!-- Node1&#45;&gt;Node2 -->
<g id="edge1" class="edge">
<title>Node1&#45;&gt;Node2</title>
<path fill="none" stroke="midnightblue" d="M190.49,-50.29C174.07,-52.33 157.16,-54.44 141.54,-56.39"/>
<polygon fill="midnightblue" stroke="midnightblue" points="191.14,-53.73 200.63,-49.02 190.27,-46.79 191.14,-53.73"/>
</g>
<!-- Node3 -->
<g id="node3" class="node">
<title>Node3</title>
<g id="a_node3"><a xlink:href="../../d0/de2/a01442.html#ac5733776843babefffe23e9f992d6024" target="_top" xlink:title=" ">
<polygon fill="none" stroke="black" points="0,-0.5 0,-30.5 151,-30.5 151,-0.5 0,-0.5"/>
<text text-anchor="start" x="8" y="-18.5" font-family="Helvetica,sans-Serif" font-size="10.00">com.cliffc.aa.type.Type</text>
<text text-anchor="middle" x="75.5" y="-7.5" font-family="Helvetica,sans-Serif" font-size="10.00">&lt; TypeFlt &gt;::remove_name</text>
</a>
</g>
</g>
<!-- Node1&#45;&gt;Node3 -->
<g id="edge2" class="edge">
<title>Node1&#45;&gt;Node3</title>
<path fill="none" stroke="midnightblue" d="M187.34,-28.77C175.21,-27.32 162.87,-25.84 151.04,-24.42"/>
<polygon fill="midnightblue" stroke="midnightblue" points="187.12,-32.27 197.47,-29.98 187.96,-25.32 187.12,-32.27"/>
</g>
</g>
</svg>
