<?xml version="1.0" encoding="UTF-8" standalone="no"?>
<!DOCTYPE svg PUBLIC "-//W3C//DTD SVG 1.1//EN"
 "http://www.w3.org/Graphics/SVG/1.1/DTD/svg11.dtd">
<!-- Generated by graphviz version 2.43.0 (0)
 -->
<!-- Title: com.cliffc.aa.HM.HM7.Lambda.hm Pages: 1 -->
<svg width="1908pt" height="703pt"
 viewBox="0.00 0.00 1908.00 702.79" xmlns="http://www.w3.org/2000/svg" xmlns:xlink="http://www.w3.org/1999/xlink">
<g id="graph0" class="graph" transform="scale(1 1) rotate(0) translate(4 698.79)">
<title>com.cliffc.aa.HM.HM7.Lambda.hm</title>
<!-- Node1 -->
<g id="node1" class="node">
<title>Node1</title>
<g id="a_node1"><a xlink:title=" ">
<polygon fill="#bfbfbf" stroke="black" points="0,-151.5 0,-170.5 185,-170.5 185,-151.5 0,-151.5"/>
<text text-anchor="middle" x="92.5" y="-158.5" font-family="Helvetica,sans-Serif" font-size="10.00">com.cliffc.aa.HM.HM7.Lambda.hm</text>
</a>
</g>
</g>
<!-- Node2 -->
<g id="node2" class="node">
<title>Node2</title>
<g id="a_node2"><a xlink:href="../../d9/d02/a00834.html#ace8c0dea9eacc0627930c0d35d865712" target="_top" xlink:title=" ">
<polygon fill="none" stroke="black" points="680.5,-56.5 680.5,-75.5 843.5,-75.5 843.5,-56.5 680.5,-56.5"/>
<text text-anchor="middle" x="762" y="-63.5" font-family="Helvetica,sans-Serif" font-size="10.00">com.cliffc.aa.HM.HM7.T2.args</text>
</a>
</g>
</g>
<!-- Node1&#45;&gt;Node2 -->
<g id="edge1" class="edge">
<title>Node1&#45;&gt;Node2</title>
<path fill="none" stroke="midnightblue" d="M121.58,-151.47C147.22,-143.04 186.32,-130.89 221,-123 376.39,-87.63 562.02,-74.12 670.2,-69.02"/>
<polygon fill="midnightblue" stroke="midnightblue" points="670.6,-72.5 680.43,-68.55 670.28,-65.51 670.6,-72.5"/>
</g>
<!-- Node8 -->
<g id="node8" class="node">
<title>Node8</title>
<g id="a_node8"><a xlink:href="../../d5/dcd/a00802.html#a93a40c6cf09f0d9f09ec42470cb7003b" target="_top" xlink:title=" ">
<polygon fill="none" stroke="black" points="447,-170.5 447,-189.5 629,-189.5 629,-170.5 447,-170.5"/>
<text text-anchor="middle" x="538" y="-177.5" font-family="Helvetica,sans-Serif" font-size="10.00">com.cliffc.aa.HM.HM7.Syntax.find</text>
</a>
</g>
</g>
<!-- Node1&#45;&gt;Node8 -->
<g id="edge8" class="edge">
<title>Node1&#45;&gt;Node8</title>
<path fill="none" stroke="midnightblue" d="M185.12,-164.93C258.43,-168.07 361.11,-172.46 436.63,-175.7"/>
<polygon fill="midnightblue" stroke="midnightblue" points="436.49,-179.2 446.63,-176.13 436.79,-172.2 436.49,-179.2"/>
</g>
<!-- Node9 -->
<g id="node9" class="node">
<title>Node9</title>
<g id="a_node9"><a xlink:href="../../d9/d02/a00834.html#af57e3b0e1e22104b5c8aa1381575594d" target="_top" xlink:title=" ">
<polygon fill="none" stroke="black" points="452.5,-505.5 452.5,-524.5 623.5,-524.5 623.5,-505.5 452.5,-505.5"/>
<text text-anchor="middle" x="538" y="-512.5" font-family="Helvetica,sans-Serif" font-size="10.00">com.cliffc.aa.HM.HM7.T2.is_fun</text>
</a>
</g>
</g>
<!-- Node1&#45;&gt;Node9 -->
<g id="edge10" class="edge">
<title>Node1&#45;&gt;Node9</title>
<path fill="none" stroke="midnightblue" d="M101.58,-170.65C120.92,-193.46 171.93,-251.96 221,-294 322.4,-380.88 457.62,-466.54 512.41,-500.14"/>
<polygon fill="midnightblue" stroke="midnightblue" points="510.73,-503.21 521.08,-505.43 514.37,-497.24 510.73,-503.21"/>
</g>
<!-- Node10 -->
<g id="node10" class="node">
<title>Node10</title>
<g id="a_node10"><a xlink:href="../../d9/d02/a00834.html#a172b823e60b9769bb8ac1ec31eb893ac" target="_top" xlink:title=" ">
<polygon fill="none" stroke="black" points="221,-132.5 221,-151.5 411,-151.5 411,-132.5 221,-132.5"/>
<text text-anchor="middle" x="316" y="-139.5" font-family="Helvetica,sans-Serif" font-size="10.00">com.cliffc.aa.HM.HM7.T2.make_fun</text>
</a>
</g>
</g>
<!-- Node1&#45;&gt;Node10 -->
<g id="edge12" class="edge">
<title>Node1&#45;&gt;Node10</title>
<path fill="none" stroke="midnightblue" d="M185.19,-153.13C193.66,-152.41 202.28,-151.67 210.85,-150.93"/>
<polygon fill="midnightblue" stroke="midnightblue" points="211.21,-154.42 220.87,-150.07 210.61,-147.44 211.21,-154.42"/>
</g>
<!-- Node12 -->
<g id="node12" class="node">
<title>Node12</title>
<g id="a_node12"><a xlink:href="../../da/d71/a00814.html#ac7d5d4cc6b5040c44145ea3386472588" target="_top" xlink:title=" ">
<polygon fill="none" stroke="black" points="222,-0.5 222,-19.5 410,-19.5 410,-0.5 222,-0.5"/>
<text text-anchor="middle" x="316" y="-7.5" font-family="Helvetica,sans-Serif" font-size="10.00">com.cliffc.aa.HM.HM7.Lambda.targ</text>
</a>
</g>
</g>
<!-- Node1&#45;&gt;Node12 -->
<g id="edge16" class="edge">
<title>Node1&#45;&gt;Node12</title>
<path fill="none" stroke="midnightblue" d="M102.66,-151.5C122.64,-131.17 172.26,-82.81 221,-52 238.97,-40.64 260.54,-30.76 278.48,-23.45"/>
<polygon fill="midnightblue" stroke="midnightblue" points="280.03,-26.6 288.03,-19.66 277.45,-20.1 280.03,-26.6"/>
</g>
<!-- Node13 -->
<g id="node13" class="node">
<title>Node13</title>
<g id="a_node13"><a xlink:href="../../d9/d02/a00834.html#af4c101589daf71477a95af1bbc1cc22b" target="_top" xlink:title=" ">
<polygon fill="none" stroke="black" points="233,-265.5 233,-284.5 399,-284.5 399,-265.5 233,-265.5"/>
<text text-anchor="middle" x="316" y="-272.5" font-family="Helvetica,sans-Serif" font-size="10.00">com.cliffc.aa.HM.HM7.T2.unify</text>
</a>
</g>
</g>
<!-- Node1&#45;&gt;Node13 -->
<g id="edge19" class="edge">
<title>Node1&#45;&gt;Node13</title>
<path fill="none" stroke="midnightblue" d="M112,-170.52C150.93,-190.56 241.46,-237.15 287.32,-260.75"/>
<polygon fill="midnightblue" stroke="midnightblue" points="285.9,-263.96 296.39,-265.42 289.1,-257.74 285.9,-263.96"/>
</g>
<!-- Node3 -->
<g id="node3" class="node">
<title>Node3</title>
<g id="a_node3"><a xlink:href="../../d9/d02/a00834.html#ae2138b8d9d5860eda7513092126ba601" target="_top" xlink:title=" ">
<polygon fill="none" stroke="black" points="915,-103.5 915,-122.5 1075,-122.5 1075,-103.5 915,-103.5"/>
<text text-anchor="middle" x="995" y="-110.5" font-family="Helvetica,sans-Serif" font-size="10.00">com.cliffc.aa.HM.HM7.T2.find</text>
</a>
</g>
</g>
<!-- Node2&#45;&gt;Node3 -->
<g id="edge2" class="edge">
<title>Node2&#45;&gt;Node3</title>
<path fill="none" stroke="midnightblue" d="M809.75,-75.51C846.49,-82.99 897.84,-93.43 937,-101.4"/>
<polygon fill="midnightblue" stroke="midnightblue" points="936.43,-104.86 946.93,-103.42 937.83,-98 936.43,-104.86"/>
</g>
<!-- Node4 -->
<g id="node4" class="node">
<title>Node4</title>
<g id="a_node4"><a xlink:href="../../d9/d02/a00834.html#aebfcad4f2e406516eef7fd39a6803752" target="_top" xlink:title=" ">
<polygon fill="none" stroke="black" points="1362.5,-215.5 1362.5,-234.5 1536.5,-234.5 1536.5,-215.5 1362.5,-215.5"/>
<text text-anchor="middle" x="1449.5" y="-222.5" font-family="Helvetica,sans-Serif" font-size="10.00">com.cliffc.aa.HM.HM7.T2.is_leaf</text>
</a>
</g>
</g>
<!-- Node3&#45;&gt;Node4 -->
<g id="edge3" class="edge">
<title>Node3&#45;&gt;Node4</title>
<path fill="none" stroke="midnightblue" d="M1071.28,-122.52C1138.43,-132.07 1238.99,-148.97 1324,-174 1357.63,-183.9 1394.62,-199.72 1419.47,-211.12"/>
<polygon fill="midnightblue" stroke="midnightblue" points="1418.14,-214.36 1428.69,-215.4 1421.09,-208.01 1418.14,-214.36"/>
</g>
<!-- Node7 -->
<g id="node7" class="node">
<title>Node7</title>
<g id="a_node7"><a xlink:href="../../d9/d02/a00834.html#a11a0879ef2674dd9fb3f9a1be59d3084" target="_top" xlink:title=" ">
<polygon fill="none" stroke="black" points="1143,-183.5 1143,-202.5 1312,-202.5 1312,-183.5 1143,-183.5"/>
<text text-anchor="middle" x="1227.5" y="-190.5" font-family="Helvetica,sans-Serif" font-size="10.00">com.cliffc.aa.HM.HM7.T2.no_uf</text>
</a>
</g>
</g>
<!-- Node3&#45;&gt;Node7 -->
<g id="edge6" class="edge">
<title>Node3&#45;&gt;Node7</title>
<path fill="none" stroke="midnightblue" d="M1023.8,-122.65C1065.19,-137.01 1143.07,-164.04 1189.32,-180.09"/>
<polygon fill="midnightblue" stroke="midnightblue" points="1188.36,-183.47 1198.96,-183.44 1190.66,-176.86 1188.36,-183.47"/>
</g>
<!-- Node5 -->
<g id="node5" class="node">
<title>Node5</title>
<g id="a_node5"><a xlink:href="../../d9/d02/a00834.html#a1646dbd4ae347d254550074fb9dd89ac" target="_top" xlink:title=" ">
<polygon fill="none" stroke="black" points="1575,-531.5 1575,-550.5 1731,-550.5 1731,-531.5 1575,-531.5"/>
<text text-anchor="middle" x="1653" y="-538.5" font-family="Helvetica,sans-Serif" font-size="10.00">com.cliffc.aa.HM.HM7.T2.isa</text>
</a>
</g>
</g>
<!-- Node4&#45;&gt;Node5 -->
<g id="edge4" class="edge">
<title>Node4&#45;&gt;Node5</title>
<path fill="none" stroke="midnightblue" d="M1456.75,-234.8C1485.19,-279.41 1602.61,-463.54 1640.3,-522.65"/>
<polygon fill="midnightblue" stroke="midnightblue" points="1637.49,-524.76 1645.82,-531.31 1643.4,-521 1637.49,-524.76"/>
</g>
<!-- Node6 -->
<g id="node6" class="node">
<title>Node6</title>
<g id="a_node6"><a xlink:href="../../dd/d55/a01638.html#a3975ba7dca9fe2d6e4992b2b5558f882" target="_top" xlink:title=" ">
<polygon fill="none" stroke="black" points="1767,-569.5 1767,-588.5 1900,-588.5 1900,-569.5 1767,-569.5"/>
<text text-anchor="middle" x="1833.5" y="-576.5" font-family="Helvetica,sans-Serif" font-size="10.00">com.cliffc.aa.util.Util.eq</text>
</a>
</g>
</g>
<!-- Node5&#45;&gt;Node6 -->
<g id="edge5" class="edge">
<title>Node5&#45;&gt;Node6</title>
<path fill="none" stroke="midnightblue" d="M1699.04,-550.59C1723.02,-555.69 1752.7,-562.01 1777.97,-567.39"/>
<polygon fill="midnightblue" stroke="midnightblue" points="1777.27,-570.82 1787.78,-569.48 1778.73,-563.97 1777.27,-570.82"/>
</g>
<!-- Node7&#45;&gt;Node4 -->
<g id="edge7" class="edge">
<title>Node7&#45;&gt;Node4</title>
<path fill="none" stroke="midnightblue" d="M1293.91,-202.51C1318.74,-206.13 1347.21,-210.27 1372.89,-214"/>
<polygon fill="midnightblue" stroke="midnightblue" points="1372.56,-217.49 1382.96,-215.47 1373.57,-210.56 1372.56,-217.49"/>
</g>
<!-- Node8&#45;&gt;Node3 -->
<g id="edge9" class="edge">
<title>Node8&#45;&gt;Node3</title>
<path fill="none" stroke="midnightblue" d="M604.83,-170.41C613.21,-167.95 621.47,-164.87 629,-161 648.3,-151.07 644.96,-136.33 665,-128 747.37,-93.78 851.51,-95.69 920.31,-102.41"/>
<polygon fill="midnightblue" stroke="midnightblue" points="920.31,-105.93 930.62,-103.48 921.03,-98.97 920.31,-105.93"/>
</g>
<!-- Node9&#45;&gt;Node5 -->
<g id="edge11" class="edge">
<title>Node9&#45;&gt;Node5</title>
<path fill="none" stroke="midnightblue" d="M559.45,-524.63C583.96,-535.73 626.56,-553.66 665,-563 764.97,-587.28 792.29,-583.21 895,-589 1180.8,-605.1 1257.06,-628.51 1539,-579 1567.41,-574.01 1598.38,-563.19 1620.7,-554.37"/>
<polygon fill="midnightblue" stroke="midnightblue" points="1622.05,-557.6 1630.01,-550.61 1619.42,-551.11 1622.05,-557.6"/>
</g>
<!-- Node10&#45;&gt;Node2 -->
<g id="edge13" class="edge">
<title>Node10&#45;&gt;Node2</title>
<path fill="none" stroke="midnightblue" d="M372.78,-132.45C454.89,-118.4 607.99,-92.19 695.38,-77.23"/>
<polygon fill="midnightblue" stroke="midnightblue" points="696.18,-80.65 705.44,-75.51 695,-73.75 696.18,-80.65"/>
</g>
<!-- Node11 -->
<g id="node11" class="node">
<title>Node11</title>
<g id="a_node11"><a xlink:href="../../d9/d02/a00834.html#aa8faebe928582db560473e1ed0b4c9b5" target="_top" xlink:title=" ">
<polygon fill="none" stroke="black" points="461,-132.5 461,-151.5 615,-151.5 615,-132.5 461,-132.5"/>
<text text-anchor="middle" x="538" y="-139.5" font-family="Helvetica,sans-Serif" font-size="10.00">com.cliffc.aa.HM.HM7.T2.T2</text>
</a>
</g>
</g>
<!-- Node10&#45;&gt;Node11 -->
<g id="edge14" class="edge">
<title>Node10&#45;&gt;Node11</title>
<path fill="none" stroke="midnightblue" d="M411.26,-142C424.32,-142 437.69,-142 450.61,-142"/>
<polygon fill="midnightblue" stroke="midnightblue" points="450.85,-145.5 460.85,-142 450.85,-138.5 450.85,-145.5"/>
</g>
<!-- Node11&#45;&gt;Node2 -->
<g id="edge15" class="edge">
<title>Node11&#45;&gt;Node2</title>
<path fill="none" stroke="midnightblue" d="M588.87,-132.49C602.3,-128.92 616.54,-124.18 629,-118 647.16,-108.99 646.77,-98.87 665,-90 674.82,-85.22 685.67,-81.34 696.45,-78.2"/>
<polygon fill="midnightblue" stroke="midnightblue" points="697.57,-81.52 706.3,-75.52 695.73,-74.77 697.57,-81.52"/>
</g>
<!-- Node12&#45;&gt;Node3 -->
<g id="edge17" class="edge">
<title>Node12&#45;&gt;Node3</title>
<path fill="none" stroke="midnightblue" d="M410.35,-5.6C519.79,-2.9 705.71,-5.98 859,-47 900.52,-58.11 944.52,-82.26 970.6,-98.06"/>
<polygon fill="midnightblue" stroke="midnightblue" points="969.02,-101.19 979.37,-103.46 972.69,-95.24 969.02,-101.19"/>
</g>
<!-- Node12&#45;&gt;Node12 -->
<g id="edge18" class="edge">
<title>Node12&#45;&gt;Node12</title>
<path fill="none" stroke="midnightblue" d="M282.06,-19.61C265.01,-28.46 276.33,-38 316,-38 345.14,-38 358.98,-32.86 357.52,-26.62"/>
<polygon fill="midnightblue" stroke="midnightblue" points="359.66,-23.83 349.94,-19.61 354.91,-28.97 359.66,-23.83"/>
</g>
<!-- Node14 -->
<g id="node14" class="node">
<title>Node14</title>
<g id="a_node14"><a xlink:href="../../d9/d02/a00834.html#a25b9e6edf55771ee875c581a87a6ab31" target="_top" xlink:title=" ">
<polygon fill="none" stroke="black" points="467,-317 467,-347 609,-347 609,-317 467,-317"/>
<text text-anchor="start" x="475" y="-335" font-family="Helvetica,sans-Serif" font-size="10.00">com.cliffc.aa.HM.HM7.T2.</text>
<text text-anchor="middle" x="538" y="-324" font-family="Helvetica,sans-Serif" font-size="10.00">_unify</text>
</a>
</g>
</g>
<!-- Node13&#45;&gt;Node14 -->
<g id="edge20" class="edge">
<title>Node13&#45;&gt;Node14</title>
<path fill="none" stroke="midnightblue" d="M353.82,-284.54C385.15,-292.66 430.97,-304.53 468.95,-314.37"/>
<polygon fill="midnightblue" stroke="midnightblue" points="468.37,-317.83 478.92,-316.95 470.12,-311.06 468.37,-317.83"/>
</g>
<!-- Node14&#45;&gt;Node2 -->
<g id="edge34" class="edge">
<title>Node14&#45;&gt;Node2</title>
<path fill="none" stroke="midnightblue" d="M550.18,-316.85C567.87,-292.57 602.97,-243.21 629,-199 646.95,-168.51 641.32,-154.29 665,-128 683.43,-107.55 710.08,-91.05 730.63,-80.23"/>
<polygon fill="midnightblue" stroke="midnightblue" points="732.27,-83.33 739.59,-75.67 729.09,-77.09 732.27,-83.33"/>
</g>
<!-- Node14&#45;&gt;Node3 -->
<g id="edge38" class="edge">
<title>Node14&#45;&gt;Node3</title>
<path fill="none" stroke="midnightblue" d="M548.19,-316.94C571.44,-279.39 632.96,-183.23 665,-164 685.3,-151.82 814.4,-134.33 904.71,-123.33"/>
<polygon fill="midnightblue" stroke="midnightblue" points="905.18,-126.8 914.69,-122.12 904.34,-119.85 905.18,-126.8"/>
</g>
<!-- Node14&#45;&gt;Node4 -->
<g id="edge41" class="edge">
<title>Node14&#45;&gt;Node4</title>
<path fill="none" stroke="midnightblue" d="M565.02,-316.85C589.82,-303.24 628.66,-284.06 665,-275 792.47,-243.23 1172.18,-230.95 1352.01,-226.83"/>
<polygon fill="midnightblue" stroke="midnightblue" points="1352.34,-230.32 1362.26,-226.6 1352.18,-223.33 1352.34,-230.32"/>
</g>
<!-- Node14&#45;&gt;Node6 -->
<g id="edge36" class="edge">
<title>Node14&#45;&gt;Node6</title>
<path fill="none" stroke="midnightblue" d="M547.48,-347.35C563.5,-376.35 599.24,-441.2 629,-496 645.13,-525.71 636.81,-544.35 665,-563 1039.71,-810.86 1640.69,-641.54 1795.29,-591.61"/>
<polygon fill="midnightblue" stroke="midnightblue" points="1796.4,-594.93 1804.82,-588.5 1794.23,-588.28 1796.4,-594.93"/>
</g>
<!-- Node14&#45;&gt;Node7 -->
<g id="edge45" class="edge">
<title>Node14&#45;&gt;Node7</title>
<path fill="none" stroke="midnightblue" d="M554.09,-316.99C576.24,-296.03 619.86,-258.66 665,-242 707.65,-226.25 984.32,-207.54 1132.74,-198.47"/>
<polygon fill="midnightblue" stroke="midnightblue" points="1132.99,-201.97 1142.76,-197.86 1132.57,-194.98 1132.99,-201.97"/>
</g>
<!-- Node14&#45;&gt;Node14 -->
<g id="edge21" class="edge">
<title>Node14&#45;&gt;Node14</title>
<path fill="none" stroke="midnightblue" d="M499.31,-347.16C489.98,-356.56 502.88,-365.5 538,-365.5 559.4,-365.5 572.55,-362.18 577.45,-357.46"/>
<polygon fill="midnightblue" stroke="midnightblue" points="580.91,-356.87 576.69,-347.16 573.93,-357.39 580.91,-356.87"/>
</g>
<!-- Node15 -->
<g id="node15" class="node">
<title>Node15</title>
<g id="a_node15"><a xlink:href="../../d9/d02/a00834.html#a7146320913b1ff355e40088a22dff29d" target="_top" xlink:title=" ">
<polygon fill="none" stroke="black" points="673.5,-284.5 673.5,-303.5 850.5,-303.5 850.5,-284.5 673.5,-284.5"/>
<text text-anchor="middle" x="762" y="-291.5" font-family="Helvetica,sans-Serif" font-size="10.00">com.cliffc.aa.HM.HM7.T2.add_fld</text>
</a>
</g>
</g>
<!-- Node14&#45;&gt;Node15 -->
<g id="edge22" class="edge">
<title>Node14&#45;&gt;Node15</title>
<path fill="none" stroke="midnightblue" d="M609.24,-319.98C636.73,-315.27 668.08,-309.9 695.13,-305.28"/>
<polygon fill="midnightblue" stroke="midnightblue" points="696,-308.68 705.27,-303.54 694.82,-301.78 696,-308.68"/>
</g>
<!-- Node25 -->
<g id="node25" class="node">
<title>Node25</title>
<g id="a_node25"><a xlink:href="../../d9/d02/a00834.html#a7cefeb8d78c5b6ee7d47e3d0edf780d9" target="_top" xlink:title=" ">
<polygon fill="none" stroke="black" points="920,-469 920,-499 1070,-499 1070,-469 920,-469"/>
<text text-anchor="start" x="928" y="-487" font-family="Helvetica,sans-Serif" font-size="10.00">com.cliffc.aa.HM.HM7.T2.is</text>
<text text-anchor="middle" x="995" y="-476" font-family="Helvetica,sans-Serif" font-size="10.00">_struct</text>
</a>
</g>
</g>
<!-- Node14&#45;&gt;Node25 -->
<g id="edge44" class="edge">
<title>Node14&#45;&gt;Node25</title>
<path fill="none" stroke="midnightblue" d="M544.58,-347.13C558.5,-382.36 598.52,-469.4 665,-503 754.43,-548.19 875.48,-522.66 943.03,-502.02"/>
<polygon fill="midnightblue" stroke="midnightblue" points="944.1,-505.35 952.6,-499.02 942.01,-498.67 944.1,-505.35"/>
</g>
<!-- Node26 -->
<g id="node26" class="node">
<title>Node26</title>
<g id="a_node26"><a xlink:href="../../d9/d02/a00834.html#a6e893e153be9310790229976c5fdfce0" target="_top" xlink:title=" ">
<polygon fill="none" stroke="black" points="673.5,-474.5 673.5,-493.5 850.5,-493.5 850.5,-474.5 673.5,-474.5"/>
<text text-anchor="middle" x="762" y="-481.5" font-family="Helvetica,sans-Serif" font-size="10.00">com.cliffc.aa.HM.HM7.T2.dbl_uid</text>
</a>
</g>
</g>
<!-- Node14&#45;&gt;Node26 -->
<g id="edge35" class="edge">
<title>Node14&#45;&gt;Node26</title>
<path fill="none" stroke="midnightblue" d="M548.66,-347.25C567.39,-375.44 611.52,-435.51 665,-465 669.2,-467.31 673.63,-469.35 678.21,-471.14"/>
<polygon fill="midnightblue" stroke="midnightblue" points="677.16,-474.48 687.75,-474.47 679.47,-467.87 677.16,-474.48"/>
</g>
<!-- Node27 -->
<g id="node27" class="node">
<title>Node27</title>
<g id="a_node27"><a xlink:href="../../dd/d55/a01638.html#abb7b6e1b78b0932ca33088581f5f45c8" target="_top" xlink:title=" ">
<polygon fill="none" stroke="black" points="692.5,-436.5 692.5,-455.5 831.5,-455.5 831.5,-436.5 692.5,-436.5"/>
<text text-anchor="middle" x="762" y="-443.5" font-family="Helvetica,sans-Serif" font-size="10.00">com.cliffc.aa.util.Util.find</text>
</a>
</g>
</g>
<!-- Node14&#45;&gt;Node27 -->
<g id="edge37" class="edge">
<title>Node14&#45;&gt;Node27</title>
<path fill="none" stroke="midnightblue" d="M554.19,-347.18C576.47,-368.51 620.24,-406.97 665,-427 670.7,-429.55 676.74,-431.76 682.91,-433.67"/>
<polygon fill="midnightblue" stroke="midnightblue" points="682.1,-437.08 692.67,-436.44 684.01,-430.35 682.1,-437.08"/>
</g>
<!-- Node28 -->
<g id="node28" class="node">
<title>Node28</title>
<g id="a_node28"><a xlink:href="../../d9/d02/a00834.html#a991a5eeda04840eb73281c0e2bf79ad4" target="_top" xlink:title=" ">
<polygon fill="none" stroke="black" points="1360,-550.5 1360,-569.5 1539,-569.5 1539,-550.5 1360,-550.5"/>
<text text-anchor="middle" x="1449.5" y="-557.5" font-family="Helvetica,sans-Serif" font-size="10.00">com.cliffc.aa.HM.HM7.T2.is_base</text>
</a>
</g>
</g>
<!-- Node14&#45;&gt;Node28 -->
<g id="edge39" class="edge">
<title>Node14&#45;&gt;Node28</title>
<path fill="none" stroke="midnightblue" d="M546.31,-347.04C567.21,-389.38 628.11,-507.84 665,-529 778.8,-594.26 1165.33,-578.83 1349.44,-567.21"/>
<polygon fill="midnightblue" stroke="midnightblue" points="1349.9,-570.69 1359.66,-566.56 1349.46,-563.7 1349.9,-570.69"/>
</g>
<!-- Node29 -->
<g id="node29" class="node">
<title>Node29</title>
<g id="a_node29"><a xlink:href="../../d9/d02/a00834.html#a1cbf06766600b9f47fa26537aef61e45" target="_top" xlink:title=" ">
<polygon fill="none" stroke="black" points="911.5,-398.5 911.5,-417.5 1078.5,-417.5 1078.5,-398.5 911.5,-398.5"/>
<text text-anchor="middle" x="995" y="-405.5" font-family="Helvetica,sans-Serif" font-size="10.00">com.cliffc.aa.HM.HM7.T2.is_nil</text>
</a>
</g>
</g>
<!-- Node14&#45;&gt;Node29 -->
<g id="edge42" class="edge">
<title>Node14&#45;&gt;Node29</title>
<path fill="none" stroke="midnightblue" d="M609.1,-343.71C695.57,-358.15 841.56,-382.54 926.72,-396.76"/>
<polygon fill="midnightblue" stroke="midnightblue" points="926.35,-400.25 936.79,-398.44 927.51,-393.34 926.35,-400.25"/>
</g>
<!-- Node30 -->
<g id="node30" class="node">
<title>Node30</title>
<g id="a_node30"><a xlink:href="../../d9/d02/a00834.html#a7b1d15911f0bb18441c043eea4065579" target="_top" xlink:title=" ">
<polygon fill="none" stroke="black" points="683,-398.5 683,-417.5 841,-417.5 841,-398.5 683,-398.5"/>
<text text-anchor="middle" x="762" y="-405.5" font-family="Helvetica,sans-Serif" font-size="10.00">com.cliffc.aa.HM.HM7.T2.or0</text>
</a>
</g>
</g>
<!-- Node14&#45;&gt;Node30 -->
<g id="edge46" class="edge">
<title>Node14&#45;&gt;Node30</title>
<path fill="none" stroke="midnightblue" d="M571.66,-347.03C596.81,-358.22 632.63,-373.34 665,-384 678.52,-388.45 693.35,-392.54 707.23,-396.03"/>
<polygon fill="midnightblue" stroke="midnightblue" points="706.58,-399.47 717.13,-398.46 708.25,-392.68 706.58,-399.47"/>
</g>
<!-- Node31 -->
<g id="node31" class="node">
<title>Node31</title>
<g id="a_node31"><a xlink:href="../../d9/d02/a00834.html#a9263d003087cd908c696d88454131bc7" target="_top" xlink:title=" ">
<polygon fill="none" stroke="black" points="665,-322.5 665,-341.5 859,-341.5 859,-322.5 665,-322.5"/>
<text text-anchor="middle" x="762" y="-329.5" font-family="Helvetica,sans-Serif" font-size="10.00">com.cliffc.aa.HM.HM7.T2.unify_base</text>
</a>
</g>
</g>
<!-- Node14&#45;&gt;Node31 -->
<g id="edge49" class="edge">
<title>Node14&#45;&gt;Node31</title>
<path fill="none" stroke="midnightblue" d="M609.24,-332C623.73,-332 639.29,-332 654.72,-332"/>
<polygon fill="midnightblue" stroke="midnightblue" points="654.84,-335.5 664.84,-332 654.84,-328.5 654.84,-335.5"/>
</g>
<!-- Node33 -->
<g id="node33" class="node">
<title>Node33</title>
<g id="a_node33"><a xlink:href="../../d9/d02/a00834.html#ac7c0b95e6ebcaf49c8e0676f44265319" target="_top" xlink:title=" ">
<polygon fill="none" stroke="black" points="910.5,-170.5 910.5,-189.5 1079.5,-189.5 1079.5,-170.5 910.5,-170.5"/>
<text text-anchor="middle" x="995" y="-177.5" font-family="Helvetica,sans-Serif" font-size="10.00">com.cliffc.aa.HM.HM7.T2.union</text>
</a>
</g>
</g>
<!-- Node14&#45;&gt;Node33 -->
<g id="edge51" class="edge">
<title>Node14&#45;&gt;Node33</title>
<path fill="none" stroke="midnightblue" d="M548.5,-316.71C566.95,-288.56 610.66,-229.12 665,-204 739.66,-169.48 834.11,-166.14 902.63,-169.86"/>
<polygon fill="midnightblue" stroke="midnightblue" points="902.78,-173.38 912.98,-170.49 903.21,-166.39 902.78,-173.38"/>
</g>
<!-- Node16 -->
<g id="node16" class="node">
<title>Node16</title>
<g id="a_node16"><a xlink:href="../../d3/daf/a00790.html#af1cc9477e1c5bb0d8d35b7ee0ed890d9" target="_top" xlink:title=" ">
<polygon fill="none" stroke="black" points="895,-284.5 895,-303.5 1095,-303.5 1095,-284.5 895,-284.5"/>
<text text-anchor="middle" x="995" y="-291.5" font-family="Helvetica,sans-Serif" font-size="10.00">com.cliffc.aa.HM.HM7.Worklist.addAll</text>
</a>
</g>
</g>
<!-- Node15&#45;&gt;Node16 -->
<g id="edge23" class="edge">
<title>Node15&#45;&gt;Node16</title>
<path fill="none" stroke="midnightblue" d="M850.66,-294C861.82,-294 873.34,-294 884.78,-294"/>
<polygon fill="midnightblue" stroke="midnightblue" points="884.8,-297.5 894.8,-294 884.8,-290.5 884.8,-297.5"/>
</g>
<!-- Node18 -->
<g id="node18" class="node">
<title>Node18</title>
<g id="a_node18"><a xlink:href="../../d0/d7d/a00786.html#a69be1eb5d2d2998a30979039d55feff0" target="_top" xlink:title=" ">
<polygon fill="none" stroke="black" points="927,-322.5 927,-341.5 1063,-341.5 1063,-322.5 927,-322.5"/>
<text text-anchor="middle" x="995" y="-329.5" font-family="Helvetica,sans-Serif" font-size="10.00">com.cliffc.aa.HM.HM7.id</text>
</a>
</g>
</g>
<!-- Node15&#45;&gt;Node18 -->
<g id="edge25" class="edge">
<title>Node15&#45;&gt;Node18</title>
<path fill="none" stroke="midnightblue" d="M820.99,-303.54C852.85,-308.78 892.53,-315.31 925.86,-320.79"/>
<polygon fill="midnightblue" stroke="midnightblue" points="925.55,-324.29 935.98,-322.46 926.68,-317.38 925.55,-324.29"/>
</g>
<!-- Node15&#45;&gt;Node25 -->
<g id="edge32" class="edge">
<title>Node15&#45;&gt;Node25</title>
<path fill="none" stroke="midnightblue" d="M845.12,-303.62C850.13,-306.17 854.82,-309.26 859,-313 898.59,-348.44 861.71,-385.59 895,-427 907.91,-443.06 926.65,-455.47 944.35,-464.55"/>
<polygon fill="midnightblue" stroke="midnightblue" points="942.96,-467.77 953.48,-469 946.03,-461.47 942.96,-467.77"/>
</g>
<!-- Node17 -->
<g id="node17" class="node">
<title>Node17</title>
<g id="a_node17"><a xlink:href="../../d3/daf/a00790.html#a22f134239704cdfbd68af065602d34f5" target="_top" xlink:title=" ">
<polygon fill="none" stroke="black" points="1131,-272.5 1131,-291.5 1324,-291.5 1324,-272.5 1131,-272.5"/>
<text text-anchor="middle" x="1227.5" y="-279.5" font-family="Helvetica,sans-Serif" font-size="10.00">com.cliffc.aa.HM.HM7.Worklist.push</text>
</a>
</g>
</g>
<!-- Node16&#45;&gt;Node17 -->
<g id="edge24" class="edge">
<title>Node16&#45;&gt;Node17</title>
<path fill="none" stroke="midnightblue" d="M1095.09,-288.84C1103.6,-288.4 1112.22,-287.95 1120.78,-287.5"/>
<polygon fill="midnightblue" stroke="midnightblue" points="1120.98,-291 1130.78,-286.98 1120.61,-284.01 1120.98,-291"/>
</g>
<!-- Node19 -->
<g id="node19" class="node">
<title>Node19</title>
<g id="a_node19"><a xlink:href="../../d4/d99/a01634.html#a13f190a0b152b149f9ff7390030e66a3" target="_top" xlink:title=" ">
<polygon fill="none" stroke="black" points="1157.5,-310.5 1157.5,-329.5 1297.5,-329.5 1297.5,-310.5 1157.5,-310.5"/>
<text text-anchor="middle" x="1227.5" y="-317.5" font-family="Helvetica,sans-Serif" font-size="10.00">com.cliffc.aa.util.SB.clear</text>
</a>
</g>
</g>
<!-- Node18&#45;&gt;Node19 -->
<g id="edge26" class="edge">
<title>Node18&#45;&gt;Node19</title>
<path fill="none" stroke="midnightblue" d="M1063.29,-328.5C1089.45,-327.14 1119.62,-325.56 1146.85,-324.15"/>
<polygon fill="midnightblue" stroke="midnightblue" points="1147.32,-327.63 1157.13,-323.61 1146.96,-320.64 1147.32,-327.63"/>
</g>
<!-- Node20 -->
<g id="node20" class="node">
<title>Node20</title>
<g id="a_node20"><a xlink:href="../../d0/d7d/a00786.html#aa1a555964d17dbe50e15aaaff4800d51" target="_top" xlink:title=" ">
<polygon fill="none" stroke="black" points="1143,-436.5 1143,-455.5 1312,-455.5 1312,-436.5 1143,-436.5"/>
<text text-anchor="middle" x="1227.5" y="-443.5" font-family="Helvetica,sans-Serif" font-size="10.00">com.cliffc.aa.HM.HM7.isAlpha1</text>
</a>
</g>
</g>
<!-- Node18&#45;&gt;Node20 -->
<g id="edge27" class="edge">
<title>Node18&#45;&gt;Node20</title>
<path fill="none" stroke="midnightblue" d="M1063.05,-336.04C1074.53,-339.1 1085.73,-343.82 1095,-351 1124.55,-373.89 1101.53,-404.01 1131,-427 1133.1,-428.64 1135.3,-430.15 1137.59,-431.53"/>
<polygon fill="midnightblue" stroke="midnightblue" points="1136.28,-434.8 1146.77,-436.31 1139.51,-428.59 1136.28,-434.8"/>
</g>
<!-- Node22 -->
<g id="node22" class="node">
<title>Node22</title>
<g id="a_node22"><a xlink:href="../../d4/d99/a01634.html#ac801338e82849a7fe2ae7a0feb80bb55" target="_top" xlink:title=" ">
<polygon fill="none" stroke="black" points="1166.5,-398.5 1166.5,-417.5 1288.5,-417.5 1288.5,-398.5 1166.5,-398.5"/>
<text text-anchor="middle" x="1227.5" y="-405.5" font-family="Helvetica,sans-Serif" font-size="10.00">com.cliffc.aa.util.SB.p</text>
</a>
</g>
</g>
<!-- Node18&#45;&gt;Node22 -->
<g id="edge29" class="edge">
<title>Node18&#45;&gt;Node22</title>
<path fill="none" stroke="midnightblue" d="M1063.21,-339.02C1074.25,-341.8 1085.25,-345.66 1095,-351 1115.41,-362.17 1110.63,-377.76 1131,-389 1138.93,-393.38 1147.73,-396.76 1156.69,-399.36"/>
<polygon fill="midnightblue" stroke="midnightblue" points="1155.87,-402.77 1166.43,-401.9 1157.63,-395.99 1155.87,-402.77"/>
</g>
<!-- Node24 -->
<g id="node24" class="node">
<title>Node24</title>
<g id="a_node24"><a xlink:href="../../d4/d99/a01634.html#a810e7fa54cbd178760c86b30b2aa893c" target="_top" xlink:title=" ">
<polygon fill="none" stroke="black" points="1164.5,-349 1164.5,-379 1290.5,-379 1290.5,-349 1164.5,-349"/>
<text text-anchor="start" x="1172.5" y="-367" font-family="Helvetica,sans-Serif" font-size="10.00">com.cliffc.aa.util.SB.to</text>
<text text-anchor="middle" x="1227.5" y="-356" font-family="Helvetica,sans-Serif" font-size="10.00">String</text>
</a>
</g>
</g>
<!-- Node18&#45;&gt;Node24 -->
<g id="edge31" class="edge">
<title>Node18&#45;&gt;Node24</title>
<path fill="none" stroke="midnightblue" d="M1063.29,-341.34C1091.82,-345.3 1125.12,-349.93 1154.17,-353.96"/>
<polygon fill="midnightblue" stroke="midnightblue" points="1153.87,-357.45 1164.26,-355.36 1154.83,-350.52 1153.87,-357.45"/>
</g>
<!-- Node21 -->
<g id="node21" class="node">
<title>Node21</title>
<g id="a_node21"><a xlink:href="../../d0/d7d/a00786.html#acb0e070e3ea1cf20668cc3298e5a06fa" target="_top" xlink:title=" ">
<polygon fill="none" stroke="black" points="1365,-436.5 1365,-455.5 1534,-455.5 1534,-436.5 1365,-436.5"/>
<text text-anchor="middle" x="1449.5" y="-443.5" font-family="Helvetica,sans-Serif" font-size="10.00">com.cliffc.aa.HM.HM7.isAlpha0</text>
</a>
</g>
</g>
<!-- Node20&#45;&gt;Node21 -->
<g id="edge28" class="edge">
<title>Node20&#45;&gt;Node21</title>
<path fill="none" stroke="midnightblue" d="M1312.3,-446C1326.18,-446 1340.64,-446 1354.74,-446"/>
<polygon fill="midnightblue" stroke="midnightblue" points="1354.93,-449.5 1364.93,-446 1354.93,-442.5 1354.93,-449.5"/>
</g>
<!-- Node23 -->
<g id="node23" class="node">
<title>Node23</title>
<g id="a_node23"><a xlink:href="../../d4/d99/a01634.html#abd1b8ac722e0fb0bf1e7b2ea0eaeb0b6" target="_top" xlink:title=" ">
<polygon fill="none" stroke="black" points="1388.5,-398.5 1388.5,-417.5 1510.5,-417.5 1510.5,-398.5 1388.5,-398.5"/>
<text text-anchor="middle" x="1449.5" y="-405.5" font-family="Helvetica,sans-Serif" font-size="10.00">com.cliffc.aa.util.SB.s</text>
</a>
</g>
</g>
<!-- Node22&#45;&gt;Node23 -->
<g id="edge30" class="edge">
<title>Node22&#45;&gt;Node23</title>
<path fill="none" stroke="midnightblue" d="M1288.62,-408C1316.38,-408 1349.53,-408 1378.43,-408"/>
<polygon fill="midnightblue" stroke="midnightblue" points="1378.46,-411.5 1388.46,-408 1378.46,-404.5 1378.46,-411.5"/>
</g>
<!-- Node25&#45;&gt;Node5 -->
<g id="edge33" class="edge">
<title>Node25&#45;&gt;Node5</title>
<path fill="none" stroke="midnightblue" d="M1070.24,-491.98C1089.98,-494.03 1111.29,-496.17 1131,-498 1283.39,-512.19 1461.09,-526.34 1564.62,-534.35"/>
<polygon fill="midnightblue" stroke="midnightblue" points="1564.48,-537.85 1574.72,-535.13 1565.02,-530.87 1564.48,-537.85"/>
</g>
<!-- Node28&#45;&gt;Node5 -->
<g id="edge40" class="edge">
<title>Node28&#45;&gt;Node5</title>
<path fill="none" stroke="midnightblue" d="M1539.17,-551.64C1547.75,-550.83 1556.44,-550.01 1565,-549.2"/>
<polygon fill="midnightblue" stroke="midnightblue" points="1565.35,-552.69 1574.97,-548.26 1564.69,-545.72 1565.35,-552.69"/>
</g>
<!-- Node29&#45;&gt;Node5 -->
<g id="edge43" class="edge">
<title>Node29&#45;&gt;Node5</title>
<path fill="none" stroke="midnightblue" d="M1014.2,-417.63C1039.6,-430.62 1087.48,-453.44 1131,-465 1307.52,-511.87 1359.22,-481.84 1539,-514 1561.61,-518.04 1586.46,-523.83 1607.09,-529.01"/>
<polygon fill="midnightblue" stroke="midnightblue" points="1606.29,-532.42 1616.85,-531.5 1608.02,-525.64 1606.29,-532.42"/>
</g>
<!-- Node30&#45;&gt;Node25 -->
<g id="edge48" class="edge">
<title>Node30&#45;&gt;Node25</title>
<path fill="none" stroke="midnightblue" d="M821.09,-417.52C833.71,-420.13 846.9,-423.29 859,-427 891.82,-437.06 927.55,-452.35 954,-464.56"/>
<polygon fill="midnightblue" stroke="midnightblue" points="952.76,-467.85 963.3,-468.91 955.72,-461.5 952.76,-467.85"/>
</g>
<!-- Node30&#45;&gt;Node29 -->
<g id="edge47" class="edge">
<title>Node30&#45;&gt;Node29</title>
<path fill="none" stroke="midnightblue" d="M841.21,-408C860.38,-408 881.08,-408 900.88,-408"/>
<polygon fill="midnightblue" stroke="midnightblue" points="901.13,-411.5 911.13,-408 901.13,-404.5 901.13,-411.5"/>
</g>
<!-- Node32 -->
<g id="node32" class="node">
<title>Node32</title>
<g id="a_node32"><a xlink:href="../../d0/de2/a01442.html#a086b90d9d651ac00b80a9b5caa60eb09" target="_top" xlink:title=" ">
<polygon fill="none" stroke="black" points="916,-360.5 916,-379.5 1074,-379.5 1074,-360.5 916,-360.5"/>
<text text-anchor="middle" x="995" y="-367.5" font-family="Helvetica,sans-Serif" font-size="10.00">com.cliffc.aa.type.Type.meet</text>
</a>
</g>
</g>
<!-- Node31&#45;&gt;Node32 -->
<g id="edge50" class="edge">
<title>Node31&#45;&gt;Node32</title>
<path fill="none" stroke="midnightblue" d="M820.99,-341.54C852.85,-346.78 892.53,-353.31 925.86,-358.79"/>
<polygon fill="midnightblue" stroke="midnightblue" points="925.55,-362.29 935.98,-360.46 926.68,-355.38 925.55,-362.29"/>
</g>
<!-- Node33&#45;&gt;Node7 -->
<g id="edge52" class="edge">
<title>Node33&#45;&gt;Node7</title>
<path fill="none" stroke="midnightblue" d="M1079.54,-184.71C1096.77,-185.68 1115.03,-186.71 1132.6,-187.7"/>
<polygon fill="midnightblue" stroke="midnightblue" points="1132.68,-191.21 1142.86,-188.28 1133.07,-184.22 1132.68,-191.21"/>
</g>
</g>
</svg>
