<?xml version="1.0" encoding="UTF-8" standalone="no"?>
<!DOCTYPE svg PUBLIC "-//W3C//DTD SVG 1.1//EN"
 "http://www.w3.org/Graphics/SVG/1.1/DTD/svg11.dtd">
<!-- Generated by graphviz version 2.43.0 (0)
 -->
<!-- Title: com.cliffc.aa.HM.HM8.Syntax.p1 Pages: 1 -->
<!--zoomable 218 -->
<svg id="main" version="1.1" xmlns="http://www.w3.org/2000/svg" xmlns:xlink="http://www.w3.org/1999/xlink" xml:space="preserve" onload="init(evt)">
<style type="text/css"><![CDATA[
.edge:hover path { stroke: red; }
.edge:hover polygon { stroke: red; fill: red; }
]]></style>
<script type="text/javascript"><![CDATA[
var edges = document.getElementsByTagName('g');
if (edges && edges.length) {
  for (var i=0;i<edges.length;i++) {
    if (edges[i].id.substr(0,4)=='edge') {
      edges[i].setAttribute('class','edge');
    }
  }
}
]]></script>
        <defs>
                <circle id="rim" cx="0" cy="0" r="7"/>
                <circle id="rim2" cx="0" cy="0" r="3.5"/>
                <g id="zoomPlus">
                        <use xlink:href="#rim" fill="#404040">
                                <set attributeName="fill" to="#808080" begin="zoomplus.mouseover" end="zoomplus.mouseout"/>
                        </use>
                        <path d="M-4,0h8M0,-4v8" fill="none" stroke="white" stroke-width="1.5" pointer-events="none"/>
                </g>
                <g id="zoomMin">
                        <use xlink:href="#rim" fill="#404040">
                                <set attributeName="fill" to="#808080" begin="zoomminus.mouseover" end="zoomminus.mouseout"/>
                        </use>
                        <path d="M-4,0h8" fill="none" stroke="white" stroke-width="1.5" pointer-events="none"/>
                </g>
                <g id="dirArrow">
                        <path fill="none" stroke="white" stroke-width="1.5" d="M0,-3.0v7 M-2.5,-0.5L0,-3.0L2.5,-0.5"/>
                </g>
               <g id="resetDef">
                       <use xlink:href="#rim2" fill="#404040">
                               <set attributeName="fill" to="#808080" begin="reset.mouseover" end="reset.mouseout"/>
                       </use>
               </g>
        </defs>

<script type="text/javascript">
var viewWidth = 613;
var viewHeight = 218;
var sectionId = 'dynsection-15';
</script>
<script xlink:href="../../svgpan.js"/>
<svg id="graph" class="graph">
<g id="viewport">
<title>com.cliffc.aa.HM.HM8.Syntax.p1</title>
<!-- Node1 -->
<g id="node1" class="node">
<title>Node1</title>
<g id="a_node1"><a xlink:title=" ">
<polygon fill="#bfbfbf" stroke="black" points="429,-95.5 429,-114.5 605,-114.5 605,-95.5 429,-95.5"/>
<text text-anchor="middle" x="517" y="-102.5" font-family="Helvetica,sans-Serif" font-size="10.00">com.cliffc.aa.HM.HM8.Syntax.p1</text>
</a>
</g>
</g>
<!-- Node2 -->
<g id="node2" class="node">
<title>Node2</title>
<g id="a_node2"><a xlink:href="../../d6/d2f/a00854.html#a6964a8439e782f004cd2bfa28fada2fe" target="_top" xlink:title=" ">
<polygon fill="none" stroke="black" points="217,-95.5 217,-114.5 393,-114.5 393,-95.5 217,-95.5"/>
<text text-anchor="middle" x="305" y="-102.5" font-family="Helvetica,sans-Serif" font-size="10.00">com.cliffc.aa.HM.HM8.Syntax.p0</text>
</a>
</g>
</g>
<!-- Node1&#45;&gt;Node2 -->
<g id="edge1" class="edge">
<title>Node1&#45;&gt;Node2</title>
<path fill="none" stroke="midnightblue" d="M418.54,-105C410.12,-105 401.63,-105 393.3,-105"/>
<polygon fill="midnightblue" stroke="midnightblue" points="418.77,-108.5 428.77,-105 418.77,-101.5 418.77,-108.5"/>
</g>
<!-- Node3 -->
<g id="node3" class="node">
<title>Node3</title>
<g id="a_node3"><a xlink:href="../../d6/d2f/a00854.html#a3fb3a3803b5f035ae447eb087b03a31a" target="_top" xlink:title=" ">
<polygon fill="none" stroke="black" points="5.5,-190.5 5.5,-209.5 175.5,-209.5 175.5,-190.5 5.5,-190.5"/>
<text text-anchor="middle" x="90.5" y="-197.5" font-family="Helvetica,sans-Serif" font-size="10.00">com.cliffc.aa.HM.HM8.Syntax.p</text>
</a>
</g>
</g>
<!-- Node2&#45;&gt;Node3 -->
<g id="edge2" class="edge">
<title>Node2&#45;&gt;Node3</title>
<path fill="none" stroke="midnightblue" d="M283.72,-120.61C260.25,-137.91 219.84,-165.43 181,-181 171.42,-184.84 160.93,-187.96 150.62,-190.47"/>
<polygon fill="midnightblue" stroke="midnightblue" points="285.94,-123.32 291.85,-114.52 281.74,-117.71 285.94,-123.32"/>
</g>
<!-- Node4 -->
<g id="node4" class="node">
<title>Node4</title>
<g id="a_node4"><a xlink:href="../../dd/db2/a00866.html#af0da975d7779ff40e78e82f75234552e" target="_top" xlink:title=" ">
<polygon fill="none" stroke="black" points="0,-152.5 0,-171.5 181,-171.5 181,-152.5 0,-152.5"/>
<text text-anchor="middle" x="90.5" y="-159.5" font-family="Helvetica,sans-Serif" font-size="10.00">com.cliffc.aa.HM.HM8.Lambda.p2</text>
</a>
</g>
</g>
<!-- Node2&#45;&gt;Node4 -->
<g id="edge3" class="edge">
<title>Node2&#45;&gt;Node4</title>
<path fill="none" stroke="midnightblue" d="M265.87,-117.76C241.71,-125.6 209.71,-135.53 181,-143 167.93,-146.4 153.68,-149.63 140.46,-152.44"/>
<polygon fill="midnightblue" stroke="midnightblue" points="266.96,-121.08 275.38,-114.65 264.79,-114.43 266.96,-121.08"/>
</g>
<!-- Node5 -->
<g id="node5" class="node">
<title>Node5</title>
<g id="a_node5"><a xlink:href="../../da/d98/a00870.html#ae0c1d6d26a28389591810d57ba3aa95d" target="_top" xlink:title=" ">
<polygon fill="none" stroke="black" points="12,-114.5 12,-133.5 169,-133.5 169,-114.5 12,-114.5"/>
<text text-anchor="middle" x="90.5" y="-121.5" font-family="Helvetica,sans-Serif" font-size="10.00">com.cliffc.aa.HM.HM8.Let.p2</text>
</a>
</g>
</g>
<!-- Node2&#45;&gt;Node5 -->
<g id="edge4" class="edge">
<title>Node2&#45;&gt;Node5</title>
<path fill="none" stroke="midnightblue" d="M206.88,-113.68C194.26,-114.81 181.46,-115.96 169.21,-117.05"/>
<polygon fill="midnightblue" stroke="midnightblue" points="207.31,-117.16 216.95,-112.78 206.68,-110.19 207.31,-117.16"/>
</g>
<!-- Node6 -->
<g id="node6" class="node">
<title>Node6</title>
<g id="a_node6"><a xlink:href="../../df/d2a/a00874.html#ad39d21b2ee9a6305e52fff4a24f50049" target="_top" xlink:title=" ">
<polygon fill="none" stroke="black" points="6.5,-76.5 6.5,-95.5 174.5,-95.5 174.5,-76.5 6.5,-76.5"/>
<text text-anchor="middle" x="90.5" y="-83.5" font-family="Helvetica,sans-Serif" font-size="10.00">com.cliffc.aa.HM.HM8.Apply.p2</text>
</a>
</g>
</g>
<!-- Node2&#45;&gt;Node6 -->
<g id="edge5" class="edge">
<title>Node2&#45;&gt;Node6</title>
<path fill="none" stroke="midnightblue" d="M206.73,-96.3C196.01,-95.34 185.17,-94.37 174.64,-93.43"/>
<polygon fill="midnightblue" stroke="midnightblue" points="206.68,-99.81 216.95,-97.22 207.31,-92.84 206.68,-99.81"/>
</g>
<!-- Node7 -->
<g id="node7" class="node">
<title>Node7</title>
<g id="a_node7"><a xlink:href="../../d5/d69/a00878.html#a0ee959d7252a437ad2cb6018b649f614" target="_top" xlink:title=" ">
<polygon fill="none" stroke="black" points="5.5,-38.5 5.5,-57.5 175.5,-57.5 175.5,-38.5 5.5,-38.5"/>
<text text-anchor="middle" x="90.5" y="-45.5" font-family="Helvetica,sans-Serif" font-size="10.00">com.cliffc.aa.HM.HM8.Struct.p2</text>
</a>
</g>
</g>
<!-- Node2&#45;&gt;Node7 -->
<g id="edge6" class="edge">
<title>Node2&#45;&gt;Node7</title>
<path fill="none" stroke="midnightblue" d="M265.87,-92.24C241.71,-84.4 209.71,-74.47 181,-67 167.93,-63.6 153.68,-60.37 140.46,-57.56"/>
<polygon fill="midnightblue" stroke="midnightblue" points="264.79,-95.57 275.38,-95.35 266.96,-88.92 264.79,-95.57"/>
</g>
<!-- Node8 -->
<g id="node8" class="node">
<title>Node8</title>
<g id="a_node8"><a xlink:href="../../d3/d50/a00882.html#a0f16a9638b48e437ec1e4f96221f6ac7" target="_top" xlink:title=" ">
<polygon fill="none" stroke="black" points="8,-0.5 8,-19.5 173,-19.5 173,-0.5 8,-0.5"/>
<text text-anchor="middle" x="90.5" y="-7.5" font-family="Helvetica,sans-Serif" font-size="10.00">com.cliffc.aa.HM.HM8.Field.p2</text>
</a>
</g>
</g>
<!-- Node2&#45;&gt;Node8 -->
<g id="edge7" class="edge">
<title>Node2&#45;&gt;Node8</title>
<path fill="none" stroke="midnightblue" d="M283.72,-89.39C260.25,-72.09 219.84,-44.57 181,-29 171.42,-25.16 160.93,-22.04 150.62,-19.53"/>
<polygon fill="midnightblue" stroke="midnightblue" points="281.74,-92.29 291.85,-95.48 285.94,-86.68 281.74,-92.29"/>
</g>
</g>
</svg>
        <g id="navigator" transform="translate(0 0)" fill="#404254">
                <rect fill="#f2f5e9" fill-opacity="0.5" stroke="#606060" stroke-width=".5" x="0" y="0" width="60" height="60"/>
                <use id="zoomplus" xlink:href="#zoomPlus" x="17" y="9" onmousedown="handleZoom(evt,'in')"/>
                <use id="zoomminus" xlink:href="#zoomMin" x="42" y="9" onmousedown="handleZoom(evt,'out')"/>
                <use id="reset" xlink:href="#resetDef" x="30" y="36" onmousedown="handleReset()"/>
                <g id="arrowUp" xlink:href="#dirArrow" transform="translate(30 24)" onmousedown="handlePan(0,-1)">
                  <use xlink:href="#rim" fill="#404040">
                        <set attributeName="fill" to="#808080" begin="arrowUp.mouseover" end="arrowUp.mouseout"/>
                  </use>
                  <path fill="none" stroke="white" stroke-width="1.5" d="M0,-3.0v7 M-2.5,-0.5L0,-3.0L2.5,-0.5"/>
                </g>
                <g id="arrowRight" xlink:href="#dirArrow" transform="rotate(90) translate(36 -43)" onmousedown="handlePan(1,0)">
                  <use xlink:href="#rim" fill="#404040">
                        <set attributeName="fill" to="#808080" begin="arrowRight.mouseover" end="arrowRight.mouseout"/>
                  </use>
                  <path fill="none" stroke="white" stroke-width="1.5" d="M0,-3.0v7 M-2.5,-0.5L0,-3.0L2.5,-0.5"/>
                </g>
                <g id="arrowDown" xlink:href="#dirArrow" transform="rotate(180) translate(-30 -48)" onmousedown="handlePan(0,1)">
                  <use xlink:href="#rim" fill="#404040">
                        <set attributeName="fill" to="#808080" begin="arrowDown.mouseover" end="arrowDown.mouseout"/>
                  </use>
                  <path fill="none" stroke="white" stroke-width="1.5" d="M0,-3.0v7 M-2.5,-0.5L0,-3.0L2.5,-0.5"/>
                </g>
                <g id="arrowLeft" xlink:href="#dirArrow" transform="rotate(270) translate(-36 17)" onmousedown="handlePan(-1,0)">
                  <use xlink:href="#rim" fill="#404040">
                        <set attributeName="fill" to="#808080" begin="arrowLeft.mouseover" end="arrowLeft.mouseout"/>
                  </use>
                  <path fill="none" stroke="white" stroke-width="1.5" d="M0,-3.0v7 M-2.5,-0.5L0,-3.0L2.5,-0.5"/>
                </g>
        </g>
        <svg viewBox="0 0 15 15" width="100%" height="30px" preserveAspectRatio="xMaxYMin meet">
         <g id="arrow_out" transform="scale(0.3 0.3)">
          <a xlink:href="a00854_a31458684fa62ef2c7901d5799c3f8add_icgraph_org.svg" target="_base">
           <rect id="button" ry="5" rx="5" y="6" x="6" height="38" width="38"
                fill="#f2f5e9" fill-opacity="0.5" stroke="#606060" stroke-width="1.0"/>
           <path id="arrow"
             d="M 11.500037,31.436501 C 11.940474,20.09759 22.043105,11.32322 32.158766,21.979434 L 37.068811,17.246167 C 37.068811,17.246167 37.088388,32 37.088388,32 L 22.160133,31.978069 C 22.160133,31.978069 26.997745,27.140456 26.997745,27.140456 C 18.528582,18.264221 13.291696,25.230495 11.500037,31.436501 z"
             style="fill:#404040;"/>
          </a>
         </g>
        </svg>
</svg>
