<?xml version="1.0" encoding="UTF-8" standalone="no"?>
<!DOCTYPE svg PUBLIC "-//W3C//DTD SVG 1.1//EN"
 "http://www.w3.org/Graphics/SVG/1.1/DTD/svg11.dtd">
<!-- Generated by graphviz version 2.43.0 (0)
 -->
<!-- Title: com.cliffc.aa.HM.HM8.Syntax.debug_find Pages: 1 -->
<svg width="623pt" height="1548pt"
 viewBox="0.00 0.00 623.00 1548.00" xmlns="http://www.w3.org/2000/svg" xmlns:xlink="http://www.w3.org/1999/xlink">
<g id="graph0" class="graph" transform="scale(1 1) rotate(0) translate(4 1544)">
<title>com.cliffc.aa.HM.HM8.Syntax.debug_find</title>
<!-- Node1 -->
<g id="node1" class="node">
<title>Node1</title>
<g id="a_node1"><a xlink:title=" ">
<polygon fill="#bfbfbf" stroke="black" points="398,-760.5 398,-779.5 615,-779.5 615,-760.5 398,-760.5"/>
<text text-anchor="middle" x="506.5" y="-767.5" font-family="Helvetica,sans-Serif" font-size="10.00">com.cliffc.aa.HM.HM8.Syntax.debug_find</text>
</a>
</g>
</g>
<!-- Node2 -->
<g id="node2" class="node">
<title>Node2</title>
<g id="a_node2"><a xlink:href="../../d2/dc7/a00838.html#a8dae36cd95e1b3366f39bc73478546b5" target="_top" xlink:title=" ">
<polygon fill="none" stroke="black" points="219,-760.5 219,-779.5 362,-779.5 362,-760.5 219,-760.5"/>
<text text-anchor="middle" x="290.5" y="-767.5" font-family="Helvetica,sans-Serif" font-size="10.00">com.cliffc.aa.HM.HM8.hm</text>
</a>
</g>
</g>
<!-- Node1&#45;&gt;Node2 -->
<g id="edge1" class="edge">
<title>Node1&#45;&gt;Node2</title>
<path fill="none" stroke="midnightblue" d="M387.61,-770C378.9,-770 370.29,-770 362,-770"/>
<polygon fill="midnightblue" stroke="midnightblue" points="387.87,-773.5 397.87,-770 387.87,-766.5 387.87,-773.5"/>
</g>
<!-- Node3 -->
<g id="node3" class="node">
<title>Node3</title>
<g id="a_node3"><a xlink:href="../../dd/d08/a01682.html#a329fb9971685d262835df96e4137aede" target="_top" xlink:title=" ">
<polygon fill="none" stroke="black" points="3,-1520.5 3,-1539.5 180,-1539.5 180,-1520.5 3,-1520.5"/>
<text text-anchor="middle" x="91.5" y="-1527.5" font-family="Helvetica,sans-Serif" font-size="10.00">com.cliffc.aa.HM.TestHM8.test00</text>
</a>
</g>
</g>
<!-- Node2&#45;&gt;Node3 -->
<g id="edge2" class="edge">
<title>Node2&#45;&gt;Node3</title>
<path fill="none" stroke="midnightblue" d="M289.59,-789.83C289.68,-896.64 284.65,-1402.61 183,-1511 179.49,-1514.75 175.44,-1517.85 171.04,-1520.42"/>
<polygon fill="midnightblue" stroke="midnightblue" points="293.09,-789.77 289.57,-779.78 286.09,-789.79 293.09,-789.77"/>
</g>
<!-- Node4 -->
<g id="node4" class="node">
<title>Node4</title>
<g id="a_node4"><a xlink:href="../../dd/d08/a01682.html#abe93f174e6f029c06f20ce506807856a" target="_top" xlink:title=" ">
<polygon fill="none" stroke="black" points="3,-1482.5 3,-1501.5 180,-1501.5 180,-1482.5 3,-1482.5"/>
<text text-anchor="middle" x="91.5" y="-1489.5" font-family="Helvetica,sans-Serif" font-size="10.00">com.cliffc.aa.HM.TestHM8.test01</text>
</a>
</g>
</g>
<!-- Node2&#45;&gt;Node4 -->
<g id="edge3" class="edge">
<title>Node2&#45;&gt;Node4</title>
<path fill="none" stroke="midnightblue" d="M289.42,-789.78C288.62,-893.19 279.63,-1370.74 183,-1473 179.47,-1476.73 175.41,-1479.83 171.01,-1482.39"/>
<polygon fill="midnightblue" stroke="midnightblue" points="292.92,-789.79 289.49,-779.77 285.92,-789.75 292.92,-789.79"/>
</g>
<!-- Node5 -->
<g id="node5" class="node">
<title>Node5</title>
<g id="a_node5"><a xlink:href="../../dd/d08/a01682.html#af675867f783eee5fbefee7f6695f7096" target="_top" xlink:title=" ">
<polygon fill="none" stroke="black" points="3,-1444.5 3,-1463.5 180,-1463.5 180,-1444.5 3,-1444.5"/>
<text text-anchor="middle" x="91.5" y="-1451.5" font-family="Helvetica,sans-Serif" font-size="10.00">com.cliffc.aa.HM.TestHM8.test02</text>
</a>
</g>
</g>
<!-- Node2&#45;&gt;Node5 -->
<g id="edge4" class="edge">
<title>Node2&#45;&gt;Node5</title>
<path fill="none" stroke="midnightblue" d="M289.23,-789.95C287.48,-890.32 274.56,-1338.93 183,-1435 179.46,-1438.72 175.38,-1441.81 170.97,-1444.36"/>
<polygon fill="midnightblue" stroke="midnightblue" points="292.74,-789.77 289.39,-779.71 285.74,-789.66 292.74,-789.77"/>
</g>
<!-- Node6 -->
<g id="node6" class="node">
<title>Node6</title>
<g id="a_node6"><a xlink:href="../../dd/d08/a01682.html#afdd9a64680f928d9977a2373223218a4" target="_top" xlink:title=" ">
<polygon fill="none" stroke="black" points="3,-1406.5 3,-1425.5 180,-1425.5 180,-1406.5 3,-1406.5"/>
<text text-anchor="middle" x="91.5" y="-1413.5" font-family="Helvetica,sans-Serif" font-size="10.00">com.cliffc.aa.HM.TestHM8.test03</text>
</a>
</g>
</g>
<!-- Node2&#45;&gt;Node6 -->
<g id="edge5" class="edge">
<title>Node2&#45;&gt;Node6</title>
<path fill="none" stroke="midnightblue" d="M289.03,-789.72C286.32,-886.15 269.62,-1306.97 183,-1397 179.44,-1400.7 175.35,-1403.78 170.93,-1406.32"/>
<polygon fill="midnightblue" stroke="midnightblue" points="292.53,-789.7 289.29,-779.62 285.53,-789.52 292.53,-789.7"/>
</g>
<!-- Node7 -->
<g id="node7" class="node">
<title>Node7</title>
<g id="a_node7"><a xlink:href="../../dd/d08/a01682.html#a8f2b8385d05945be50a67accc481aa71" target="_top" xlink:title=" ">
<polygon fill="none" stroke="black" points="3,-1368.5 3,-1387.5 180,-1387.5 180,-1368.5 3,-1368.5"/>
<text text-anchor="middle" x="91.5" y="-1375.5" font-family="Helvetica,sans-Serif" font-size="10.00">com.cliffc.aa.HM.TestHM8.test04</text>
</a>
</g>
</g>
<!-- Node2&#45;&gt;Node7 -->
<g id="edge6" class="edge">
<title>Node2&#45;&gt;Node7</title>
<path fill="none" stroke="midnightblue" d="M288.78,-789.99C285.03,-883.33 264.54,-1275.14 183,-1359 179.42,-1362.68 175.32,-1365.74 170.89,-1368.28"/>
<polygon fill="midnightblue" stroke="midnightblue" points="292.28,-790.04 289.17,-779.92 285.29,-789.78 292.28,-790.04"/>
</g>
<!-- Node8 -->
<g id="node8" class="node">
<title>Node8</title>
<g id="a_node8"><a xlink:href="../../dd/d08/a01682.html#aac2d6b7eeb7671f57443b4ac14274617" target="_top" xlink:title=" ">
<polygon fill="none" stroke="black" points="3,-1330.5 3,-1349.5 180,-1349.5 180,-1330.5 3,-1330.5"/>
<text text-anchor="middle" x="91.5" y="-1337.5" font-family="Helvetica,sans-Serif" font-size="10.00">com.cliffc.aa.HM.TestHM8.test05</text>
</a>
</g>
</g>
<!-- Node2&#45;&gt;Node8 -->
<g id="edge7" class="edge">
<title>Node2&#45;&gt;Node8</title>
<path fill="none" stroke="midnightblue" d="M288.52,-789.82C283.71,-879.13 259.6,-1243.16 183,-1321 179.28,-1324.78 175.02,-1327.89 170.42,-1330.46"/>
<polygon fill="midnightblue" stroke="midnightblue" points="292.02,-789.88 289.05,-779.71 285.03,-789.51 292.02,-789.88"/>
</g>
<!-- Node9 -->
<g id="node9" class="node">
<title>Node9</title>
<g id="a_node9"><a xlink:href="../../dd/d08/a01682.html#aa971b826f7bb61a70e22a354111b2c58" target="_top" xlink:title=" ">
<polygon fill="none" stroke="black" points="0,-1292.5 0,-1311.5 183,-1311.5 183,-1292.5 0,-1292.5"/>
<text text-anchor="middle" x="91.5" y="-1299.5" font-family="Helvetica,sans-Serif" font-size="10.00">com.cliffc.aa.HM.TestHM8.test05a</text>
</a>
</g>
</g>
<!-- Node2&#45;&gt;Node9 -->
<g id="edge8" class="edge">
<title>Node2&#45;&gt;Node9</title>
<path fill="none" stroke="midnightblue" d="M288.2,-790.07C282.22,-875.94 254.56,-1211.28 183,-1283 179.26,-1286.75 174.98,-1289.85 170.36,-1292.4"/>
<polygon fill="midnightblue" stroke="midnightblue" points="291.71,-790.07 288.89,-779.86 284.72,-789.6 291.71,-790.07"/>
</g>
<!-- Node10 -->
<g id="node10" class="node">
<title>Node10</title>
<g id="a_node10"><a xlink:href="../../dd/d08/a01682.html#a66db5f88cf972a2b662063509d0afca7" target="_top" xlink:title=" ">
<polygon fill="none" stroke="black" points="3,-1254.5 3,-1273.5 180,-1273.5 180,-1254.5 3,-1254.5"/>
<text text-anchor="middle" x="91.5" y="-1261.5" font-family="Helvetica,sans-Serif" font-size="10.00">com.cliffc.aa.HM.TestHM8.test06</text>
</a>
</g>
</g>
<!-- Node2&#45;&gt;Node10 -->
<g id="edge9" class="edge">
<title>Node2&#45;&gt;Node10</title>
<path fill="none" stroke="midnightblue" d="M287.86,-789.86C280.72,-871.4 249.66,-1179.24 183,-1245 179.23,-1248.72 174.93,-1251.8 170.29,-1254.34"/>
<polygon fill="midnightblue" stroke="midnightblue" points="291.38,-789.79 288.74,-779.53 284.4,-789.2 291.38,-789.79"/>
</g>
<!-- Node11 -->
<g id="node11" class="node">
<title>Node11</title>
<g id="a_node11"><a xlink:href="../../dd/d08/a01682.html#aaae2ea11b06aee2b387ddfab65d53434" target="_top" xlink:title=" ">
<polygon fill="none" stroke="black" points="3,-1216.5 3,-1235.5 180,-1235.5 180,-1216.5 3,-1216.5"/>
<text text-anchor="middle" x="91.5" y="-1223.5" font-family="Helvetica,sans-Serif" font-size="10.00">com.cliffc.aa.HM.TestHM8.test07</text>
</a>
</g>
</g>
<!-- Node2&#45;&gt;Node11 -->
<g id="edge10" class="edge">
<title>Node2&#45;&gt;Node11</title>
<path fill="none" stroke="midnightblue" d="M287.46,-789.74C279.07,-866.96 244.76,-1147.19 183,-1207 179.08,-1210.8 174.6,-1213.92 169.79,-1216.48"/>
<polygon fill="midnightblue" stroke="midnightblue" points="290.97,-789.83 288.54,-779.51 284.01,-789.09 290.97,-789.83"/>
</g>
<!-- Node12 -->
<g id="node12" class="node">
<title>Node12</title>
<g id="a_node12"><a xlink:href="../../dd/d08/a01682.html#ad39cda572f5da2e044d749c70b8094f8" target="_top" xlink:title=" ">
<polygon fill="none" stroke="black" points="3,-1178.5 3,-1197.5 180,-1197.5 180,-1178.5 3,-1178.5"/>
<text text-anchor="middle" x="91.5" y="-1185.5" font-family="Helvetica,sans-Serif" font-size="10.00">com.cliffc.aa.HM.TestHM8.test08</text>
</a>
</g>
</g>
<!-- Node2&#45;&gt;Node12 -->
<g id="edge11" class="edge">
<title>Node2&#45;&gt;Node12</title>
<path fill="none" stroke="midnightblue" d="M286.95,-789.89C277.18,-862.96 239.81,-1115.17 183,-1169 179.04,-1172.75 174.53,-1175.85 169.7,-1178.39"/>
<polygon fill="midnightblue" stroke="midnightblue" points="290.45,-790.13 288.28,-779.76 283.51,-789.22 290.45,-790.13"/>
</g>
<!-- Node13 -->
<g id="node13" class="node">
<title>Node13</title>
<g id="a_node13"><a xlink:href="../../dd/d08/a01682.html#a0f8330ab4748a5fcda0f8a6e7c5a0bec" target="_top" xlink:title=" ">
<polygon fill="none" stroke="black" points="3,-1140.5 3,-1159.5 180,-1159.5 180,-1140.5 3,-1140.5"/>
<text text-anchor="middle" x="91.5" y="-1147.5" font-family="Helvetica,sans-Serif" font-size="10.00">com.cliffc.aa.HM.TestHM8.test09</text>
</a>
</g>
</g>
<!-- Node2&#45;&gt;Node13 -->
<g id="edge12" class="edge">
<title>Node2&#45;&gt;Node13</title>
<path fill="none" stroke="midnightblue" d="M290.16,-789.73C291.05,-850.57 284.94,-1036.9 183,-1131 178.87,-1134.81 174.18,-1137.94 169.16,-1140.49"/>
<polygon fill="midnightblue" stroke="midnightblue" points="293.66,-789.5 289.93,-779.58 286.66,-789.66 293.66,-789.5"/>
</g>
<!-- Node14 -->
<g id="node14" class="node">
<title>Node14</title>
<g id="a_node14"><a xlink:href="../../dd/d08/a01682.html#adc69f4f182e9bdead620227e34b425fa" target="_top" xlink:title=" ">
<polygon fill="none" stroke="black" points="3,-1102.5 3,-1121.5 180,-1121.5 180,-1102.5 3,-1102.5"/>
<text text-anchor="middle" x="91.5" y="-1109.5" font-family="Helvetica,sans-Serif" font-size="10.00">com.cliffc.aa.HM.TestHM8.test10</text>
</a>
</g>
</g>
<!-- Node2&#45;&gt;Node14 -->
<g id="edge13" class="edge">
<title>Node2&#45;&gt;Node14</title>
<path fill="none" stroke="midnightblue" d="M289.36,-789.89C287.83,-846.63 275.24,-1010.52 183,-1093 178.81,-1096.75 174.08,-1099.82 169.02,-1102.34"/>
<polygon fill="midnightblue" stroke="midnightblue" points="292.87,-789.81 289.55,-779.75 285.87,-789.68 292.87,-789.81"/>
</g>
<!-- Node15 -->
<g id="node15" class="node">
<title>Node15</title>
<g id="a_node15"><a xlink:href="../../dd/d08/a01682.html#adc931aea669c23730e486e6db4201434" target="_top" xlink:title=" ">
<polygon fill="none" stroke="black" points="3,-1064.5 3,-1083.5 180,-1083.5 180,-1064.5 3,-1064.5"/>
<text text-anchor="middle" x="91.5" y="-1071.5" font-family="Helvetica,sans-Serif" font-size="10.00">com.cliffc.aa.HM.TestHM8.test11</text>
</a>
</g>
</g>
<!-- Node2&#45;&gt;Node15 -->
<g id="edge14" class="edge">
<title>Node2&#45;&gt;Node15</title>
<path fill="none" stroke="midnightblue" d="M288.37,-789.95C284.26,-842.21 265.67,-983.93 183,-1055 178.62,-1058.77 173.68,-1061.85 168.42,-1064.37"/>
<polygon fill="midnightblue" stroke="midnightblue" points="291.88,-789.92 289.07,-779.7 284.89,-789.44 291.88,-789.92"/>
</g>
<!-- Node16 -->
<g id="node16" class="node">
<title>Node16</title>
<g id="a_node16"><a xlink:href="../../dd/d08/a01682.html#a62568efdbaa40ddeb4e14b1b5f788686" target="_top" xlink:title=" ">
<polygon fill="none" stroke="black" points="3,-1026.5 3,-1045.5 180,-1045.5 180,-1026.5 3,-1026.5"/>
<text text-anchor="middle" x="91.5" y="-1033.5" font-family="Helvetica,sans-Serif" font-size="10.00">com.cliffc.aa.HM.TestHM8.test12</text>
</a>
</g>
</g>
<!-- Node2&#45;&gt;Node16 -->
<g id="edge15" class="edge">
<title>Node2&#45;&gt;Node16</title>
<path fill="none" stroke="midnightblue" d="M287.11,-789.82C280.3,-837.1 256.31,-957.07 183,-1017 178.4,-1020.76 173.24,-1023.83 167.78,-1026.33"/>
<polygon fill="midnightblue" stroke="midnightblue" points="290.61,-790.05 288.46,-779.68 283.67,-789.13 290.61,-790.05"/>
</g>
<!-- Node17 -->
<g id="node17" class="node">
<title>Node17</title>
<g id="a_node17"><a xlink:href="../../dd/d08/a01682.html#a8382ee8cd25d7c8fc288bfc5f7736d1b" target="_top" xlink:title=" ">
<polygon fill="none" stroke="black" points="3,-988.5 3,-1007.5 180,-1007.5 180,-988.5 3,-988.5"/>
<text text-anchor="middle" x="91.5" y="-995.5" font-family="Helvetica,sans-Serif" font-size="10.00">com.cliffc.aa.HM.TestHM8.test13</text>
</a>
</g>
</g>
<!-- Node2&#45;&gt;Node17 -->
<g id="edge16" class="edge">
<title>Node2&#45;&gt;Node17</title>
<path fill="none" stroke="midnightblue" d="M285.48,-789.6C275.81,-831.49 247.12,-929.92 183,-979 178.03,-982.81 172.47,-985.89 166.62,-988.39"/>
<polygon fill="midnightblue" stroke="midnightblue" points="288.9,-790.32 287.63,-779.8 282.07,-788.82 288.9,-790.32"/>
</g>
<!-- Node18 -->
<g id="node18" class="node">
<title>Node18</title>
<g id="a_node18"><a xlink:href="../../dd/d08/a01682.html#a34a5f3497f7ce108ebdd383538f297b7" target="_top" xlink:title=" ">
<polygon fill="none" stroke="black" points="3,-950.5 3,-969.5 180,-969.5 180,-950.5 3,-950.5"/>
<text text-anchor="middle" x="91.5" y="-957.5" font-family="Helvetica,sans-Serif" font-size="10.00">com.cliffc.aa.HM.TestHM8.test14</text>
</a>
</g>
</g>
<!-- Node2&#45;&gt;Node18 -->
<g id="edge17" class="edge">
<title>Node2&#45;&gt;Node18</title>
<path fill="none" stroke="midnightblue" d="M283.2,-789.43C270.46,-825.47 238.06,-902.49 183,-941 177.47,-944.86 171.33,-947.97 164.91,-950.47"/>
<polygon fill="midnightblue" stroke="midnightblue" points="286.62,-790.25 286.53,-779.65 279.99,-787.99 286.62,-790.25"/>
</g>
<!-- Node19 -->
<g id="node19" class="node">
<title>Node19</title>
<g id="a_node19"><a xlink:href="../../dd/d08/a01682.html#a21978fd539714b2f20066ca43f48fb5b" target="_top" xlink:title=" ">
<polygon fill="none" stroke="black" points="3,-912.5 3,-931.5 180,-931.5 180,-912.5 3,-912.5"/>
<text text-anchor="middle" x="91.5" y="-919.5" font-family="Helvetica,sans-Serif" font-size="10.00">com.cliffc.aa.HM.TestHM8.test15</text>
</a>
</g>
</g>
<!-- Node2&#45;&gt;Node19 -->
<g id="edge18" class="edge">
<title>Node2&#45;&gt;Node19</title>
<path fill="none" stroke="midnightblue" d="M280.04,-788.75C264.2,-818.09 229.43,-874.45 183,-903 176.71,-906.87 169.76,-909.96 162.58,-912.43"/>
<polygon fill="midnightblue" stroke="midnightblue" points="283.3,-790.07 284.84,-779.59 277.1,-786.82 283.3,-790.07"/>
</g>
<!-- Node20 -->
<g id="node20" class="node">
<title>Node20</title>
<g id="a_node20"><a xlink:href="../../dd/d08/a01682.html#a4cf6c9003c054d9cca3990ade2c7a822" target="_top" xlink:title=" ">
<polygon fill="none" stroke="black" points="3,-874.5 3,-893.5 180,-893.5 180,-874.5 3,-874.5"/>
<text text-anchor="middle" x="91.5" y="-881.5" font-family="Helvetica,sans-Serif" font-size="10.00">com.cliffc.aa.HM.TestHM8.test16</text>
</a>
</g>
</g>
<!-- Node2&#45;&gt;Node20 -->
<g id="edge19" class="edge">
<title>Node2&#45;&gt;Node20</title>
<path fill="none" stroke="midnightblue" d="M275.25,-787.38C256.46,-809.07 221.27,-845.67 183,-865 175.26,-868.91 166.76,-872.01 158.16,-874.48"/>
<polygon fill="midnightblue" stroke="midnightblue" points="278.04,-789.49 281.84,-779.6 272.7,-784.97 278.04,-789.49"/>
</g>
<!-- Node21 -->
<g id="node21" class="node">
<title>Node21</title>
<g id="a_node21"><a xlink:href="../../dd/d08/a01682.html#a4aa66d7e990365f6fd3df746f88731b9" target="_top" xlink:title=" ">
<polygon fill="none" stroke="black" points="3,-836.5 3,-855.5 180,-855.5 180,-836.5 3,-836.5"/>
<text text-anchor="middle" x="91.5" y="-843.5" font-family="Helvetica,sans-Serif" font-size="10.00">com.cliffc.aa.HM.TestHM8.test17</text>
</a>
</g>
</g>
<!-- Node2&#45;&gt;Node21 -->
<g id="edge20" class="edge">
<title>Node2&#45;&gt;Node21</title>
<path fill="none" stroke="midnightblue" d="M266.42,-784.85C245.43,-797.73 213.21,-816 183,-827 172.59,-830.79 161.22,-833.92 150.16,-836.46"/>
<polygon fill="midnightblue" stroke="midnightblue" points="268.33,-787.78 274.96,-779.52 264.62,-781.84 268.33,-787.78"/>
</g>
<!-- Node22 -->
<g id="node22" class="node">
<title>Node22</title>
<g id="a_node22"><a xlink:href="../../dd/d08/a01682.html#aabc6de9af3ca990ce57f4faab06dc9ef" target="_top" xlink:title=" ">
<polygon fill="none" stroke="black" points="3,-798.5 3,-817.5 180,-817.5 180,-798.5 3,-798.5"/>
<text text-anchor="middle" x="91.5" y="-805.5" font-family="Helvetica,sans-Serif" font-size="10.00">com.cliffc.aa.HM.TestHM8.test18</text>
</a>
</g>
</g>
<!-- Node2&#45;&gt;Node22 -->
<g id="edge21" class="edge">
<title>Node2&#45;&gt;Node22</title>
<path fill="none" stroke="midnightblue" d="M229.94,-781.49C201.83,-786.91 168.68,-793.31 141.98,-798.46"/>
<polygon fill="midnightblue" stroke="midnightblue" points="230.89,-784.87 240.04,-779.54 229.56,-778 230.89,-784.87"/>
</g>
<!-- Node23 -->
<g id="node23" class="node">
<title>Node23</title>
<g id="a_node23"><a xlink:href="../../dd/d08/a01682.html#a8bd7ac6049625325f6cebd46f70d93a8" target="_top" xlink:title=" ">
<polygon fill="none" stroke="black" points="3,-760.5 3,-779.5 180,-779.5 180,-760.5 3,-760.5"/>
<text text-anchor="middle" x="91.5" y="-767.5" font-family="Helvetica,sans-Serif" font-size="10.00">com.cliffc.aa.HM.TestHM8.test19</text>
</a>
</g>
</g>
<!-- Node2&#45;&gt;Node23 -->
<g id="edge22" class="edge">
<title>Node2&#45;&gt;Node23</title>
<path fill="none" stroke="midnightblue" d="M208.78,-770C199.33,-770 189.65,-770 180.11,-770"/>
<polygon fill="midnightblue" stroke="midnightblue" points="208.93,-773.5 218.93,-770 208.93,-766.5 208.93,-773.5"/>
</g>
<!-- Node24 -->
<g id="node24" class="node">
<title>Node24</title>
<g id="a_node24"><a xlink:href="../../dd/d08/a01682.html#a6505a9454a5650ee22f57cc7ac62329d" target="_top" xlink:title=" ">
<polygon fill="none" stroke="black" points="3,-722.5 3,-741.5 180,-741.5 180,-722.5 3,-722.5"/>
<text text-anchor="middle" x="91.5" y="-729.5" font-family="Helvetica,sans-Serif" font-size="10.00">com.cliffc.aa.HM.TestHM8.test20</text>
</a>
</g>
</g>
<!-- Node2&#45;&gt;Node24 -->
<g id="edge23" class="edge">
<title>Node2&#45;&gt;Node24</title>
<path fill="none" stroke="midnightblue" d="M229.94,-758.51C201.83,-753.09 168.68,-746.69 141.98,-741.54"/>
<polygon fill="midnightblue" stroke="midnightblue" points="229.56,-762 240.04,-760.46 230.89,-755.13 229.56,-762"/>
</g>
<!-- Node25 -->
<g id="node25" class="node">
<title>Node25</title>
<g id="a_node25"><a xlink:href="../../dd/d08/a01682.html#a32b13e0e7b013eb36f0ebd501b57e750" target="_top" xlink:title=" ">
<polygon fill="none" stroke="black" points="3,-684.5 3,-703.5 180,-703.5 180,-684.5 3,-684.5"/>
<text text-anchor="middle" x="91.5" y="-691.5" font-family="Helvetica,sans-Serif" font-size="10.00">com.cliffc.aa.HM.TestHM8.test21</text>
</a>
</g>
</g>
<!-- Node2&#45;&gt;Node25 -->
<g id="edge24" class="edge">
<title>Node2&#45;&gt;Node25</title>
<path fill="none" stroke="midnightblue" d="M266.42,-755.15C245.43,-742.27 213.21,-724 183,-713 172.59,-709.21 161.22,-706.08 150.16,-703.54"/>
<polygon fill="midnightblue" stroke="midnightblue" points="264.62,-758.16 274.96,-760.48 268.33,-752.22 264.62,-758.16"/>
</g>
<!-- Node26 -->
<g id="node26" class="node">
<title>Node26</title>
<g id="a_node26"><a xlink:href="../../dd/d08/a01682.html#ac612d63a65565fab351b1044240ca275" target="_top" xlink:title=" ">
<polygon fill="none" stroke="black" points="3,-646.5 3,-665.5 180,-665.5 180,-646.5 3,-646.5"/>
<text text-anchor="middle" x="91.5" y="-653.5" font-family="Helvetica,sans-Serif" font-size="10.00">com.cliffc.aa.HM.TestHM8.test22</text>
</a>
</g>
</g>
<!-- Node2&#45;&gt;Node26 -->
<g id="edge25" class="edge">
<title>Node2&#45;&gt;Node26</title>
<path fill="none" stroke="midnightblue" d="M275.25,-752.62C256.46,-730.93 221.27,-694.33 183,-675 175.26,-671.09 166.76,-667.99 158.16,-665.52"/>
<polygon fill="midnightblue" stroke="midnightblue" points="272.7,-755.03 281.84,-760.4 278.04,-750.51 272.7,-755.03"/>
</g>
<!-- Node27 -->
<g id="node27" class="node">
<title>Node27</title>
<g id="a_node27"><a xlink:href="../../dd/d08/a01682.html#a6576ee4b53e9c17b404d553226da2ffb" target="_top" xlink:title=" ">
<polygon fill="none" stroke="black" points="3,-608.5 3,-627.5 180,-627.5 180,-608.5 3,-608.5"/>
<text text-anchor="middle" x="91.5" y="-615.5" font-family="Helvetica,sans-Serif" font-size="10.00">com.cliffc.aa.HM.TestHM8.test23</text>
</a>
</g>
</g>
<!-- Node2&#45;&gt;Node27 -->
<g id="edge26" class="edge">
<title>Node2&#45;&gt;Node27</title>
<path fill="none" stroke="midnightblue" d="M280.04,-751.25C264.2,-721.91 229.43,-665.55 183,-637 176.71,-633.13 169.76,-630.04 162.58,-627.57"/>
<polygon fill="midnightblue" stroke="midnightblue" points="277.1,-753.18 284.84,-760.41 283.3,-749.93 277.1,-753.18"/>
</g>
<!-- Node28 -->
<g id="node28" class="node">
<title>Node28</title>
<g id="a_node28"><a xlink:href="../../dd/d08/a01682.html#a28e288e18f3e0a1c2467f93310634cb9" target="_top" xlink:title=" ">
<polygon fill="none" stroke="black" points="3,-570.5 3,-589.5 180,-589.5 180,-570.5 3,-570.5"/>
<text text-anchor="middle" x="91.5" y="-577.5" font-family="Helvetica,sans-Serif" font-size="10.00">com.cliffc.aa.HM.TestHM8.test24</text>
</a>
</g>
</g>
<!-- Node2&#45;&gt;Node28 -->
<g id="edge27" class="edge">
<title>Node2&#45;&gt;Node28</title>
<path fill="none" stroke="midnightblue" d="M283.2,-750.57C270.46,-714.53 238.06,-637.51 183,-599 177.47,-595.14 171.33,-592.03 164.91,-589.53"/>
<polygon fill="midnightblue" stroke="midnightblue" points="279.99,-752.01 286.53,-760.35 286.62,-749.75 279.99,-752.01"/>
</g>
<!-- Node29 -->
<g id="node29" class="node">
<title>Node29</title>
<g id="a_node29"><a xlink:href="../../dd/d08/a01682.html#ae3b7393572325df36255aa0eea6891b0" target="_top" xlink:title=" ">
<polygon fill="none" stroke="black" points="3,-532.5 3,-551.5 180,-551.5 180,-532.5 3,-532.5"/>
<text text-anchor="middle" x="91.5" y="-539.5" font-family="Helvetica,sans-Serif" font-size="10.00">com.cliffc.aa.HM.TestHM8.test25</text>
</a>
</g>
</g>
<!-- Node2&#45;&gt;Node29 -->
<g id="edge28" class="edge">
<title>Node2&#45;&gt;Node29</title>
<path fill="none" stroke="midnightblue" d="M285.48,-750.4C275.81,-708.51 247.12,-610.08 183,-561 178.03,-557.19 172.47,-554.11 166.62,-551.61"/>
<polygon fill="midnightblue" stroke="midnightblue" points="282.07,-751.18 287.63,-760.2 288.9,-749.68 282.07,-751.18"/>
</g>
<!-- Node30 -->
<g id="node30" class="node">
<title>Node30</title>
<g id="a_node30"><a xlink:href="../../dd/d08/a01682.html#a5d047d86cf87938f5212d8787f72da6d" target="_top" xlink:title=" ">
<polygon fill="none" stroke="black" points="0,-494.5 0,-513.5 183,-513.5 183,-494.5 0,-494.5"/>
<text text-anchor="middle" x="91.5" y="-501.5" font-family="Helvetica,sans-Serif" font-size="10.00">com.cliffc.aa.HM.TestHM8.test25a</text>
</a>
</g>
</g>
<!-- Node2&#45;&gt;Node30 -->
<g id="edge29" class="edge">
<title>Node2&#45;&gt;Node30</title>
<path fill="none" stroke="midnightblue" d="M287.11,-750.18C280.3,-702.9 256.31,-582.93 183,-523 178.4,-519.24 173.24,-516.17 167.78,-513.67"/>
<polygon fill="midnightblue" stroke="midnightblue" points="283.67,-750.87 288.46,-760.32 290.61,-749.95 283.67,-750.87"/>
</g>
<!-- Node31 -->
<g id="node31" class="node">
<title>Node31</title>
<g id="a_node31"><a xlink:href="../../dd/d08/a01682.html#ad6c880a3a52c3097983fbd4d89ef50b2" target="_top" xlink:title=" ">
<polygon fill="none" stroke="black" points="0,-456.5 0,-475.5 183,-475.5 183,-456.5 0,-456.5"/>
<text text-anchor="middle" x="91.5" y="-463.5" font-family="Helvetica,sans-Serif" font-size="10.00">com.cliffc.aa.HM.TestHM8.test25b</text>
</a>
</g>
</g>
<!-- Node2&#45;&gt;Node31 -->
<g id="edge30" class="edge">
<title>Node2&#45;&gt;Node31</title>
<path fill="none" stroke="midnightblue" d="M288.37,-750.05C284.26,-697.79 265.67,-556.07 183,-485 178.62,-481.23 173.68,-478.15 168.42,-475.63"/>
<polygon fill="midnightblue" stroke="midnightblue" points="284.89,-750.56 289.07,-760.3 291.88,-750.08 284.89,-750.56"/>
</g>
<!-- Node32 -->
<g id="node32" class="node">
<title>Node32</title>
<g id="a_node32"><a xlink:href="../../dd/d08/a01682.html#a328c386139071a15424e0c05479d7fad" target="_top" xlink:title=" ">
<polygon fill="none" stroke="black" points="3,-418.5 3,-437.5 180,-437.5 180,-418.5 3,-418.5"/>
<text text-anchor="middle" x="91.5" y="-425.5" font-family="Helvetica,sans-Serif" font-size="10.00">com.cliffc.aa.HM.TestHM8.test26</text>
</a>
</g>
</g>
<!-- Node2&#45;&gt;Node32 -->
<g id="edge31" class="edge">
<title>Node2&#45;&gt;Node32</title>
<path fill="none" stroke="midnightblue" d="M289.36,-750.11C287.83,-693.37 275.24,-529.48 183,-447 178.81,-443.25 174.08,-440.18 169.02,-437.66"/>
<polygon fill="midnightblue" stroke="midnightblue" points="285.87,-750.32 289.55,-760.25 292.87,-750.19 285.87,-750.32"/>
</g>
<!-- Node33 -->
<g id="node33" class="node">
<title>Node33</title>
<g id="a_node33"><a xlink:href="../../dd/d08/a01682.html#ab53ca6600b56ba5c1f4ab1d397e4c790" target="_top" xlink:title=" ">
<polygon fill="none" stroke="black" points="3,-380.5 3,-399.5 180,-399.5 180,-380.5 3,-380.5"/>
<text text-anchor="middle" x="91.5" y="-387.5" font-family="Helvetica,sans-Serif" font-size="10.00">com.cliffc.aa.HM.TestHM8.test27</text>
</a>
</g>
</g>
<!-- Node2&#45;&gt;Node33 -->
<g id="edge32" class="edge">
<title>Node2&#45;&gt;Node33</title>
<path fill="none" stroke="midnightblue" d="M290.16,-750.27C291.05,-689.43 284.94,-503.1 183,-409 178.87,-405.19 174.18,-402.06 169.16,-399.51"/>
<polygon fill="midnightblue" stroke="midnightblue" points="286.66,-750.34 289.93,-760.42 293.66,-750.5 286.66,-750.34"/>
</g>
<!-- Node34 -->
<g id="node34" class="node">
<title>Node34</title>
<g id="a_node34"><a xlink:href="../../dd/d08/a01682.html#ad51f804370488a8d07fe2b2eab88d2f5" target="_top" xlink:title=" ">
<polygon fill="none" stroke="black" points="3,-342.5 3,-361.5 180,-361.5 180,-342.5 3,-342.5"/>
<text text-anchor="middle" x="91.5" y="-349.5" font-family="Helvetica,sans-Serif" font-size="10.00">com.cliffc.aa.HM.TestHM8.test28</text>
</a>
</g>
</g>
<!-- Node2&#45;&gt;Node34 -->
<g id="edge33" class="edge">
<title>Node2&#45;&gt;Node34</title>
<path fill="none" stroke="midnightblue" d="M286.95,-750.11C277.18,-677.04 239.81,-424.83 183,-371 179.04,-367.25 174.53,-364.15 169.7,-361.61"/>
<polygon fill="midnightblue" stroke="midnightblue" points="283.51,-750.78 288.28,-760.24 290.45,-749.87 283.51,-750.78"/>
</g>
<!-- Node35 -->
<g id="node35" class="node">
<title>Node35</title>
<g id="a_node35"><a xlink:href="../../dd/d08/a01682.html#a6da65b928f2fb589314fad2fcea61b06" target="_top" xlink:title=" ">
<polygon fill="none" stroke="black" points="3,-304.5 3,-323.5 180,-323.5 180,-304.5 3,-304.5"/>
<text text-anchor="middle" x="91.5" y="-311.5" font-family="Helvetica,sans-Serif" font-size="10.00">com.cliffc.aa.HM.TestHM8.test29</text>
</a>
</g>
</g>
<!-- Node2&#45;&gt;Node35 -->
<g id="edge34" class="edge">
<title>Node2&#45;&gt;Node35</title>
<path fill="none" stroke="midnightblue" d="M287.46,-750.26C279.07,-673.04 244.76,-392.81 183,-333 179.08,-329.2 174.6,-326.08 169.79,-323.52"/>
<polygon fill="midnightblue" stroke="midnightblue" points="284.01,-750.91 288.54,-760.49 290.97,-750.17 284.01,-750.91"/>
</g>
<!-- Node36 -->
<g id="node36" class="node">
<title>Node36</title>
<g id="a_node36"><a xlink:href="../../dd/d08/a01682.html#a842e37f51363a8d95732ba837d687d43" target="_top" xlink:title=" ">
<polygon fill="none" stroke="black" points="3,-266.5 3,-285.5 180,-285.5 180,-266.5 3,-266.5"/>
<text text-anchor="middle" x="91.5" y="-273.5" font-family="Helvetica,sans-Serif" font-size="10.00">com.cliffc.aa.HM.TestHM8.test30</text>
</a>
</g>
</g>
<!-- Node2&#45;&gt;Node36 -->
<g id="edge35" class="edge">
<title>Node2&#45;&gt;Node36</title>
<path fill="none" stroke="midnightblue" d="M287.86,-750.14C280.72,-668.6 249.66,-360.76 183,-295 179.23,-291.28 174.93,-288.2 170.29,-285.66"/>
<polygon fill="midnightblue" stroke="midnightblue" points="284.4,-750.8 288.74,-760.47 291.38,-750.21 284.4,-750.8"/>
</g>
<!-- Node37 -->
<g id="node37" class="node">
<title>Node37</title>
<g id="a_node37"><a xlink:href="../../dd/d08/a01682.html#a4b99bade835db86dc221b7be203a4b6a" target="_top" xlink:title=" ">
<polygon fill="none" stroke="black" points="0,-228.5 0,-247.5 183,-247.5 183,-228.5 0,-228.5"/>
<text text-anchor="middle" x="91.5" y="-235.5" font-family="Helvetica,sans-Serif" font-size="10.00">com.cliffc.aa.HM.TestHM8.test30a</text>
</a>
</g>
</g>
<!-- Node2&#45;&gt;Node37 -->
<g id="edge36" class="edge">
<title>Node2&#45;&gt;Node37</title>
<path fill="none" stroke="midnightblue" d="M288.2,-749.93C282.22,-664.06 254.56,-328.72 183,-257 179.26,-253.25 174.98,-250.15 170.36,-247.6"/>
<polygon fill="midnightblue" stroke="midnightblue" points="284.72,-750.4 288.89,-760.14 291.71,-749.93 284.72,-750.4"/>
</g>
<!-- Node38 -->
<g id="node38" class="node">
<title>Node38</title>
<g id="a_node38"><a xlink:href="../../dd/d08/a01682.html#aa5bc72f64b2006f477fa225c7a5db28f" target="_top" xlink:title=" ">
<polygon fill="none" stroke="black" points="3,-190.5 3,-209.5 180,-209.5 180,-190.5 3,-190.5"/>
<text text-anchor="middle" x="91.5" y="-197.5" font-family="Helvetica,sans-Serif" font-size="10.00">com.cliffc.aa.HM.TestHM8.test31</text>
</a>
</g>
</g>
<!-- Node2&#45;&gt;Node38 -->
<g id="edge37" class="edge">
<title>Node2&#45;&gt;Node38</title>
<path fill="none" stroke="midnightblue" d="M288.52,-750.18C283.71,-660.87 259.6,-296.84 183,-219 179.28,-215.22 175.02,-212.11 170.42,-209.54"/>
<polygon fill="midnightblue" stroke="midnightblue" points="285.03,-750.49 289.05,-760.29 292.02,-750.12 285.03,-750.49"/>
</g>
<!-- Node39 -->
<g id="node39" class="node">
<title>Node39</title>
<g id="a_node39"><a xlink:href="../../dd/d08/a01682.html#a86f44895e620e8ac125f356f88fd87c0" target="_top" xlink:title=" ">
<polygon fill="none" stroke="black" points="3,-152.5 3,-171.5 180,-171.5 180,-152.5 3,-152.5"/>
<text text-anchor="middle" x="91.5" y="-159.5" font-family="Helvetica,sans-Serif" font-size="10.00">com.cliffc.aa.HM.TestHM8.test32</text>
</a>
</g>
</g>
<!-- Node2&#45;&gt;Node39 -->
<g id="edge38" class="edge">
<title>Node2&#45;&gt;Node39</title>
<path fill="none" stroke="midnightblue" d="M288.78,-750.01C285.03,-656.67 264.54,-264.86 183,-181 179.42,-177.32 175.32,-174.26 170.89,-171.72"/>
<polygon fill="midnightblue" stroke="midnightblue" points="285.29,-750.22 289.17,-760.08 292.28,-749.96 285.29,-750.22"/>
</g>
<!-- Node40 -->
<g id="node40" class="node">
<title>Node40</title>
<g id="a_node40"><a xlink:href="../../dd/d08/a01682.html#a4a6b6eec7ae13afa2a641cd781b69b45" target="_top" xlink:title=" ">
<polygon fill="none" stroke="black" points="3,-114.5 3,-133.5 180,-133.5 180,-114.5 3,-114.5"/>
<text text-anchor="middle" x="91.5" y="-121.5" font-family="Helvetica,sans-Serif" font-size="10.00">com.cliffc.aa.HM.TestHM8.test33</text>
</a>
</g>
</g>
<!-- Node2&#45;&gt;Node40 -->
<g id="edge39" class="edge">
<title>Node2&#45;&gt;Node40</title>
<path fill="none" stroke="midnightblue" d="M289.03,-750.28C286.32,-653.85 269.62,-233.03 183,-143 179.44,-139.3 175.35,-136.22 170.93,-133.68"/>
<polygon fill="midnightblue" stroke="midnightblue" points="285.53,-750.48 289.29,-760.38 292.53,-750.3 285.53,-750.48"/>
</g>
<!-- Node41 -->
<g id="node41" class="node">
<title>Node41</title>
<g id="a_node41"><a xlink:href="../../dd/d08/a01682.html#a7a12ce333178c46308ba7c3ef0fd0917" target="_top" xlink:title=" ">
<polygon fill="none" stroke="black" points="3,-76.5 3,-95.5 180,-95.5 180,-76.5 3,-76.5"/>
<text text-anchor="middle" x="91.5" y="-83.5" font-family="Helvetica,sans-Serif" font-size="10.00">com.cliffc.aa.HM.TestHM8.test34</text>
</a>
</g>
</g>
<!-- Node2&#45;&gt;Node41 -->
<g id="edge40" class="edge">
<title>Node2&#45;&gt;Node41</title>
<path fill="none" stroke="midnightblue" d="M289.23,-750.05C287.48,-649.68 274.56,-201.07 183,-105 179.46,-101.28 175.38,-98.19 170.97,-95.64"/>
<polygon fill="midnightblue" stroke="midnightblue" points="285.74,-750.34 289.39,-760.29 292.74,-750.23 285.74,-750.34"/>
</g>
<!-- Node42 -->
<g id="node42" class="node">
<title>Node42</title>
<g id="a_node42"><a xlink:href="../../dd/d08/a01682.html#ad692c8dc570242deb096cf4199b7a372" target="_top" xlink:title=" ">
<polygon fill="none" stroke="black" points="3,-38.5 3,-57.5 180,-57.5 180,-38.5 3,-38.5"/>
<text text-anchor="middle" x="91.5" y="-45.5" font-family="Helvetica,sans-Serif" font-size="10.00">com.cliffc.aa.HM.TestHM8.test35</text>
</a>
</g>
</g>
<!-- Node2&#45;&gt;Node42 -->
<g id="edge41" class="edge">
<title>Node2&#45;&gt;Node42</title>
<path fill="none" stroke="midnightblue" d="M289.42,-750.22C288.62,-646.81 279.63,-169.26 183,-67 179.47,-63.27 175.41,-60.17 171.01,-57.61"/>
<polygon fill="midnightblue" stroke="midnightblue" points="285.92,-750.25 289.49,-760.23 292.92,-750.21 285.92,-750.25"/>
</g>
<!-- Node43 -->
<g id="node43" class="node">
<title>Node43</title>
<g id="a_node43"><a xlink:href="../../dd/d08/a01682.html#aed504b4095971e8df76dc6a9f81e7b52" target="_top" xlink:title=" ">
<polygon fill="none" stroke="black" points="3,-0.5 3,-19.5 180,-19.5 180,-0.5 3,-0.5"/>
<text text-anchor="middle" x="91.5" y="-7.5" font-family="Helvetica,sans-Serif" font-size="10.00">com.cliffc.aa.HM.TestHM8.test36</text>
</a>
</g>
</g>
<!-- Node2&#45;&gt;Node43 -->
<g id="edge42" class="edge">
<title>Node2&#45;&gt;Node43</title>
<path fill="none" stroke="midnightblue" d="M289.59,-750.17C289.68,-643.36 284.65,-137.39 183,-29 179.49,-25.25 175.44,-22.15 171.04,-19.58"/>
<polygon fill="midnightblue" stroke="midnightblue" points="286.09,-750.21 289.57,-760.22 293.09,-750.23 286.09,-750.21"/>
</g>
</g>
</svg>
