<?xml version="1.0" encoding="UTF-8" standalone="no"?>
<!DOCTYPE svg PUBLIC "-//W3C//DTD SVG 1.1//EN"
 "http://www.w3.org/Graphics/SVG/1.1/DTD/svg11.dtd">
<!-- Generated by graphviz version 2.43.0 (0)
 -->
<!-- Title: com.cliffc.aa.HM.HM8.Syntax.hm Pages: 1 -->
<svg width="672pt" height="1814pt"
 viewBox="0.00 0.00 672.00 1814.00" xmlns="http://www.w3.org/2000/svg" xmlns:xlink="http://www.w3.org/1999/xlink">
<g id="graph0" class="graph" transform="scale(1 1) rotate(0) translate(4 1810)">
<title>com.cliffc.aa.HM.HM8.Syntax.hm</title>
<!-- Node1 -->
<g id="node1" class="node">
<title>Node1</title>
<g id="a_node1"><a xlink:title=" ">
<polygon fill="#bfbfbf" stroke="black" points="485,-551.5 485,-570.5 664,-570.5 664,-551.5 485,-551.5"/>
<text text-anchor="middle" x="574.5" y="-558.5" font-family="Helvetica,sans-Serif" font-size="10.00">com.cliffc.aa.HM.HM8.Syntax.hm</text>
</a>
</g>
</g>
<!-- Node2 -->
<g id="node2" class="node">
<title>Node2</title>
<g id="a_node2"><a xlink:href="../../d2/dc7/a00838.html#a8dae36cd95e1b3366f39bc73478546b5" target="_top" xlink:title=" ">
<polygon fill="none" stroke="black" points="283,-1007.5 283,-1026.5 426,-1026.5 426,-1007.5 283,-1007.5"/>
<text text-anchor="middle" x="354.5" y="-1014.5" font-family="Helvetica,sans-Serif" font-size="10.00">com.cliffc.aa.HM.HM8.hm</text>
</a>
</g>
</g>
<!-- Node1&#45;&gt;Node2 -->
<g id="edge1" class="edge">
<title>Node1&#45;&gt;Node2</title>
<path fill="none" stroke="midnightblue" d="M564.41,-580.02C527.26,-657.72 387.69,-949.67 360.21,-1007.14"/>
<polygon fill="midnightblue" stroke="midnightblue" points="567.79,-581.06 568.95,-570.52 561.48,-578.04 567.79,-581.06"/>
</g>
<!-- Node44 -->
<g id="node44" class="node">
<title>Node44</title>
<g id="a_node44"><a xlink:href="../../d6/d2f/a00854.html#a8ff345ebb2322e9c9cbd021c4a46c3f9" target="_top" xlink:title=" ">
<polygon fill="none" stroke="black" points="260,-128 260,-158 449,-158 449,-128 260,-128"/>
<text text-anchor="start" x="268" y="-146" font-family="Helvetica,sans-Serif" font-size="10.00">com.cliffc.aa.HM.HM8.Syntax.more</text>
<text text-anchor="middle" x="354.5" y="-135" font-family="Helvetica,sans-Serif" font-size="10.00">_work_impl</text>
</a>
</g>
</g>
<!-- Node1&#45;&gt;Node44 -->
<g id="edge43" class="edge">
<title>Node1&#45;&gt;Node44</title>
<path fill="none" stroke="midnightblue" d="M563.82,-542.44C527.08,-472 396.69,-221.98 363.32,-158"/>
<polygon fill="midnightblue" stroke="midnightblue" points="560.81,-544.24 568.54,-551.48 567.02,-541 560.81,-544.24"/>
</g>
<!-- Node3 -->
<g id="node3" class="node">
<title>Node3</title>
<g id="a_node3"><a xlink:href="../../dd/d08/a01682.html#a329fb9971685d262835df96e4137aede" target="_top" xlink:title=" ">
<polygon fill="none" stroke="black" points="23.5,-1786.5 23.5,-1805.5 200.5,-1805.5 200.5,-1786.5 23.5,-1786.5"/>
<text text-anchor="middle" x="112" y="-1793.5" font-family="Helvetica,sans-Serif" font-size="10.00">com.cliffc.aa.HM.TestHM8.test00</text>
</a>
</g>
</g>
<!-- Node2&#45;&gt;Node3 -->
<g id="edge2" class="edge">
<title>Node2&#45;&gt;Node3</title>
<path fill="none" stroke="midnightblue" d="M353.1,-1036.75C350.5,-1145.3 332.4,-1668.52 224,-1777 217.37,-1783.64 209.32,-1788.46 200.62,-1791.9"/>
<polygon fill="midnightblue" stroke="midnightblue" points="356.61,-1036.65 353.33,-1026.57 349.61,-1036.49 356.61,-1036.65"/>
</g>
<!-- Node4 -->
<g id="node4" class="node">
<title>Node4</title>
<g id="a_node4"><a xlink:href="../../dd/d08/a01682.html#abe93f174e6f029c06f20ce506807856a" target="_top" xlink:title=" ">
<polygon fill="none" stroke="black" points="23.5,-1748.5 23.5,-1767.5 200.5,-1767.5 200.5,-1748.5 23.5,-1748.5"/>
<text text-anchor="middle" x="112" y="-1755.5" font-family="Helvetica,sans-Serif" font-size="10.00">com.cliffc.aa.HM.TestHM8.test01</text>
</a>
</g>
</g>
<!-- Node2&#45;&gt;Node4 -->
<g id="edge3" class="edge">
<title>Node2&#45;&gt;Node4</title>
<path fill="none" stroke="midnightblue" d="M352.91,-1036.74C349.35,-1142.05 327.26,-1636.56 224,-1739 217.34,-1745.61 209.27,-1750.41 200.56,-1753.84"/>
<polygon fill="midnightblue" stroke="midnightblue" points="356.41,-1036.69 353.24,-1026.58 349.42,-1036.47 356.41,-1036.69"/>
</g>
<!-- Node5 -->
<g id="node5" class="node">
<title>Node5</title>
<g id="a_node5"><a xlink:href="../../dd/d08/a01682.html#af675867f783eee5fbefee7f6695f7096" target="_top" xlink:title=" ">
<polygon fill="none" stroke="black" points="23.5,-1710.5 23.5,-1729.5 200.5,-1729.5 200.5,-1710.5 23.5,-1710.5"/>
<text text-anchor="middle" x="112" y="-1717.5" font-family="Helvetica,sans-Serif" font-size="10.00">com.cliffc.aa.HM.TestHM8.test02</text>
</a>
</g>
</g>
<!-- Node2&#45;&gt;Node5 -->
<g id="edge4" class="edge">
<title>Node2&#45;&gt;Node5</title>
<path fill="none" stroke="midnightblue" d="M352.7,-1036.66C348.16,-1138.45 322.16,-1604.55 224,-1701 217.38,-1707.51 209.39,-1712.26 200.77,-1715.67"/>
<polygon fill="midnightblue" stroke="midnightblue" points="356.2,-1036.7 353.13,-1026.56 349.21,-1036.4 356.2,-1036.7"/>
</g>
<!-- Node6 -->
<g id="node6" class="node">
<title>Node6</title>
<g id="a_node6"><a xlink:href="../../dd/d08/a01682.html#afdd9a64680f928d9977a2373223218a4" target="_top" xlink:title=" ">
<polygon fill="none" stroke="black" points="23.5,-1672.5 23.5,-1691.5 200.5,-1691.5 200.5,-1672.5 23.5,-1672.5"/>
<text text-anchor="middle" x="112" y="-1679.5" font-family="Helvetica,sans-Serif" font-size="10.00">com.cliffc.aa.HM.TestHM8.test03</text>
</a>
</g>
</g>
<!-- Node2&#45;&gt;Node6 -->
<g id="edge5" class="edge">
<title>Node2&#45;&gt;Node6</title>
<path fill="none" stroke="midnightblue" d="M352.44,-1037.12C346.79,-1136.38 316.9,-1572.7 224,-1663 217.34,-1669.47 209.33,-1674.2 200.7,-1677.6"/>
<polygon fill="midnightblue" stroke="midnightblue" points="355.94,-1037.14 353,-1026.96 348.96,-1036.75 355.94,-1037.14"/>
</g>
<!-- Node7 -->
<g id="node7" class="node">
<title>Node7</title>
<g id="a_node7"><a xlink:href="../../dd/d08/a01682.html#a8f2b8385d05945be50a67accc481aa71" target="_top" xlink:title=" ">
<polygon fill="none" stroke="black" points="23.5,-1634.5 23.5,-1653.5 200.5,-1653.5 200.5,-1634.5 23.5,-1634.5"/>
<text text-anchor="middle" x="112" y="-1641.5" font-family="Helvetica,sans-Serif" font-size="10.00">com.cliffc.aa.HM.TestHM8.test04</text>
</a>
</g>
</g>
<!-- Node2&#45;&gt;Node7 -->
<g id="edge6" class="edge">
<title>Node2&#45;&gt;Node7</title>
<path fill="none" stroke="midnightblue" d="M352.19,-1036.84C345.49,-1132 311.89,-1540.59 224,-1625 217.3,-1631.43 209.27,-1636.13 200.63,-1639.52"/>
<polygon fill="midnightblue" stroke="midnightblue" points="355.68,-1037.05 352.87,-1026.83 348.7,-1036.57 355.68,-1037.05"/>
</g>
<!-- Node8 -->
<g id="node8" class="node">
<title>Node8</title>
<g id="a_node8"><a xlink:href="../../dd/d08/a01682.html#aac2d6b7eeb7671f57443b4ac14274617" target="_top" xlink:title=" ">
<polygon fill="none" stroke="black" points="23.5,-1596.5 23.5,-1615.5 200.5,-1615.5 200.5,-1596.5 23.5,-1596.5"/>
<text text-anchor="middle" x="112" y="-1603.5" font-family="Helvetica,sans-Serif" font-size="10.00">com.cliffc.aa.HM.TestHM8.test05</text>
</a>
</g>
</g>
<!-- Node2&#45;&gt;Node8 -->
<g id="edge7" class="edge">
<title>Node2&#45;&gt;Node8</title>
<path fill="none" stroke="midnightblue" d="M351.9,-1036.74C344.07,-1128.07 306.83,-1508.52 224,-1587 217.26,-1593.39 209.2,-1598.06 200.54,-1601.43"/>
<polygon fill="midnightblue" stroke="midnightblue" points="355.39,-1036.91 352.74,-1026.65 348.42,-1036.33 355.39,-1036.91"/>
</g>
<!-- Node9 -->
<g id="node9" class="node">
<title>Node9</title>
<g id="a_node9"><a xlink:href="../../dd/d08/a01682.html#aa971b826f7bb61a70e22a354111b2c58" target="_top" xlink:title=" ">
<polygon fill="none" stroke="black" points="20.5,-1558.5 20.5,-1577.5 203.5,-1577.5 203.5,-1558.5 20.5,-1558.5"/>
<text text-anchor="middle" x="112" y="-1565.5" font-family="Helvetica,sans-Serif" font-size="10.00">com.cliffc.aa.HM.TestHM8.test05a</text>
</a>
</g>
</g>
<!-- Node2&#45;&gt;Node9 -->
<g id="edge8" class="edge">
<title>Node2&#45;&gt;Node9</title>
<path fill="none" stroke="midnightblue" d="M351.55,-1036.81C342.5,-1124.49 301.74,-1476.47 224,-1549 218.07,-1554.54 211.14,-1558.78 203.7,-1561.99"/>
<polygon fill="midnightblue" stroke="midnightblue" points="355.03,-1037.15 352.56,-1026.85 348.07,-1036.45 355.03,-1037.15"/>
</g>
<!-- Node10 -->
<g id="node10" class="node">
<title>Node10</title>
<g id="a_node10"><a xlink:href="../../dd/d08/a01682.html#a66db5f88cf972a2b662063509d0afca7" target="_top" xlink:title=" ">
<polygon fill="none" stroke="black" points="23.5,-1520.5 23.5,-1539.5 200.5,-1539.5 200.5,-1520.5 23.5,-1520.5"/>
<text text-anchor="middle" x="112" y="-1527.5" font-family="Helvetica,sans-Serif" font-size="10.00">com.cliffc.aa.HM.TestHM8.test06</text>
</a>
</g>
</g>
<!-- Node2&#45;&gt;Node10 -->
<g id="edge9" class="edge">
<title>Node2&#45;&gt;Node10</title>
<path fill="none" stroke="midnightblue" d="M351.17,-1036.7C340.87,-1120.29 296.72,-1444.34 224,-1511 217.23,-1517.21 209.2,-1521.78 200.61,-1525.1"/>
<polygon fill="midnightblue" stroke="midnightblue" points="354.67,-1036.9 352.4,-1026.56 347.72,-1036.06 354.67,-1036.9"/>
</g>
<!-- Node11 -->
<g id="node11" class="node">
<title>Node11</title>
<g id="a_node11"><a xlink:href="../../dd/d08/a01682.html#aaae2ea11b06aee2b387ddfab65d53434" target="_top" xlink:title=" ">
<polygon fill="none" stroke="black" points="23.5,-1482.5 23.5,-1501.5 200.5,-1501.5 200.5,-1482.5 23.5,-1482.5"/>
<text text-anchor="middle" x="112" y="-1489.5" font-family="Helvetica,sans-Serif" font-size="10.00">com.cliffc.aa.HM.TestHM8.test07</text>
</a>
</g>
</g>
<!-- Node2&#45;&gt;Node11 -->
<g id="edge10" class="edge">
<title>Node2&#45;&gt;Node11</title>
<path fill="none" stroke="midnightblue" d="M350.71,-1036.7C339.06,-1116.21 291.69,-1412.2 224,-1473 217.24,-1479.07 209.27,-1483.57 200.75,-1486.86"/>
<polygon fill="midnightblue" stroke="midnightblue" points="354.21,-1036.99 352.17,-1026.59 347.28,-1035.99 354.21,-1036.99"/>
</g>
<!-- Node12 -->
<g id="node12" class="node">
<title>Node12</title>
<g id="a_node12"><a xlink:href="../../dd/d08/a01682.html#ad39cda572f5da2e044d749c70b8094f8" target="_top" xlink:title=" ">
<polygon fill="none" stroke="black" points="23.5,-1444.5 23.5,-1463.5 200.5,-1463.5 200.5,-1444.5 23.5,-1444.5"/>
<text text-anchor="middle" x="112" y="-1451.5" font-family="Helvetica,sans-Serif" font-size="10.00">com.cliffc.aa.HM.TestHM8.test08</text>
</a>
</g>
</g>
<!-- Node2&#45;&gt;Node12 -->
<g id="edge11" class="edge">
<title>Node2&#45;&gt;Node12</title>
<path fill="none" stroke="midnightblue" d="M354.04,-1036.94C354.72,-1104.58 347.11,-1327.04 224,-1435 217.16,-1440.99 209.15,-1445.44 200.61,-1448.7"/>
<polygon fill="midnightblue" stroke="midnightblue" points="357.54,-1036.75 353.87,-1026.81 350.54,-1036.87 357.54,-1036.75"/>
</g>
<!-- Node13 -->
<g id="node13" class="node">
<title>Node13</title>
<g id="a_node13"><a xlink:href="../../dd/d08/a01682.html#a0f8330ab4748a5fcda0f8a6e7c5a0bec" target="_top" xlink:title=" ">
<polygon fill="none" stroke="black" points="23.5,-1406.5 23.5,-1425.5 200.5,-1425.5 200.5,-1406.5 23.5,-1406.5"/>
<text text-anchor="middle" x="112" y="-1413.5" font-family="Helvetica,sans-Serif" font-size="10.00">com.cliffc.aa.HM.TestHM8.test09</text>
</a>
</g>
</g>
<!-- Node2&#45;&gt;Node13 -->
<g id="edge12" class="edge">
<title>Node2&#45;&gt;Node13</title>
<path fill="none" stroke="midnightblue" d="M353.35,-1036.78C351.7,-1100.27 337.35,-1300.37 224,-1397 217.16,-1402.83 209.19,-1407.19 200.72,-1410.4"/>
<polygon fill="midnightblue" stroke="midnightblue" points="356.85,-1036.63 353.53,-1026.57 349.85,-1036.51 356.85,-1036.63"/>
</g>
<!-- Node14 -->
<g id="node14" class="node">
<title>Node14</title>
<g id="a_node14"><a xlink:href="../../dd/d08/a01682.html#adc69f4f182e9bdead620227e34b425fa" target="_top" xlink:title=" ">
<polygon fill="none" stroke="black" points="23.5,-1368.5 23.5,-1387.5 200.5,-1387.5 200.5,-1368.5 23.5,-1368.5"/>
<text text-anchor="middle" x="112" y="-1375.5" font-family="Helvetica,sans-Serif" font-size="10.00">com.cliffc.aa.HM.TestHM8.test10</text>
</a>
</g>
</g>
<!-- Node2&#45;&gt;Node14 -->
<g id="edge13" class="edge">
<title>Node2&#45;&gt;Node14</title>
<path fill="none" stroke="midnightblue" d="M352.51,-1036.75C348.4,-1096.04 327.59,-1273.65 224,-1359 217.06,-1364.72 209.03,-1369 200.52,-1372.17"/>
<polygon fill="midnightblue" stroke="midnightblue" points="356.02,-1036.72 353.13,-1026.53 349.03,-1036.3 356.02,-1036.72"/>
</g>
<!-- Node15 -->
<g id="node15" class="node">
<title>Node15</title>
<g id="a_node15"><a xlink:href="../../dd/d08/a01682.html#adc931aea669c23730e486e6db4201434" target="_top" xlink:title=" ">
<polygon fill="none" stroke="black" points="23.5,-1330.5 23.5,-1349.5 200.5,-1349.5 200.5,-1330.5 23.5,-1330.5"/>
<text text-anchor="middle" x="112" y="-1337.5" font-family="Helvetica,sans-Serif" font-size="10.00">com.cliffc.aa.HM.TestHM8.test11</text>
</a>
</g>
</g>
<!-- Node2&#45;&gt;Node15 -->
<g id="edge14" class="edge">
<title>Node2&#45;&gt;Node15</title>
<path fill="none" stroke="midnightblue" d="M351.49,-1036.73C344.77,-1091.59 317.91,-1246.78 224,-1321 217.02,-1326.52 209.02,-1330.67 200.57,-1333.78"/>
<polygon fill="midnightblue" stroke="midnightblue" points="354.99,-1036.94 352.63,-1026.61 348.03,-1036.15 354.99,-1036.94"/>
</g>
<!-- Node16 -->
<g id="node16" class="node">
<title>Node16</title>
<g id="a_node16"><a xlink:href="../../dd/d08/a01682.html#a62568efdbaa40ddeb4e14b1b5f788686" target="_top" xlink:title=" ">
<polygon fill="none" stroke="black" points="23.5,-1292.5 23.5,-1311.5 200.5,-1311.5 200.5,-1292.5 23.5,-1292.5"/>
<text text-anchor="middle" x="112" y="-1299.5" font-family="Helvetica,sans-Serif" font-size="10.00">com.cliffc.aa.HM.TestHM8.test12</text>
</a>
</g>
</g>
<!-- Node2&#45;&gt;Node16 -->
<g id="edge15" class="edge">
<title>Node2&#45;&gt;Node16</title>
<path fill="none" stroke="midnightblue" d="M350.22,-1036.6C340.75,-1086.65 308.42,-1219.67 224,-1283 216.96,-1288.28 208.97,-1292.29 200.57,-1295.31"/>
<polygon fill="midnightblue" stroke="midnightblue" points="353.67,-1037.2 351.99,-1026.74 346.78,-1035.96 353.67,-1037.2"/>
</g>
<!-- Node17 -->
<g id="node17" class="node">
<title>Node17</title>
<g id="a_node17"><a xlink:href="../../dd/d08/a01682.html#a8382ee8cd25d7c8fc288bfc5f7736d1b" target="_top" xlink:title=" ">
<polygon fill="none" stroke="black" points="23.5,-1254.5 23.5,-1273.5 200.5,-1273.5 200.5,-1254.5 23.5,-1254.5"/>
<text text-anchor="middle" x="112" y="-1261.5" font-family="Helvetica,sans-Serif" font-size="10.00">com.cliffc.aa.HM.TestHM8.test13</text>
</a>
</g>
</g>
<!-- Node2&#45;&gt;Node17 -->
<g id="edge16" class="edge">
<title>Node2&#45;&gt;Node17</title>
<path fill="none" stroke="midnightblue" d="M348.58,-1036.51C336.16,-1081.43 299.05,-1192.34 224,-1245 216.88,-1250 208.88,-1253.83 200.52,-1256.76"/>
<polygon fill="midnightblue" stroke="midnightblue" points="351.97,-1037.38 351.16,-1026.81 345.21,-1035.58 351.97,-1037.38"/>
</g>
<!-- Node18 -->
<g id="node18" class="node">
<title>Node18</title>
<g id="a_node18"><a xlink:href="../../dd/d08/a01682.html#a34a5f3497f7ce108ebdd383538f297b7" target="_top" xlink:title=" ">
<polygon fill="none" stroke="black" points="23.5,-1216.5 23.5,-1235.5 200.5,-1235.5 200.5,-1216.5 23.5,-1216.5"/>
<text text-anchor="middle" x="112" y="-1223.5" font-family="Helvetica,sans-Serif" font-size="10.00">com.cliffc.aa.HM.TestHM8.test14</text>
</a>
</g>
</g>
<!-- Node2&#45;&gt;Node18 -->
<g id="edge17" class="edge">
<title>Node2&#45;&gt;Node18</title>
<path fill="none" stroke="midnightblue" d="M346.35,-1036.43C330.78,-1075.78 289.84,-1164.7 224,-1207 216.84,-1211.6 208.92,-1215.18 200.68,-1217.96"/>
<polygon fill="midnightblue" stroke="midnightblue" points="349.68,-1037.53 349.99,-1026.94 343.14,-1035.02 349.68,-1037.53"/>
</g>
<!-- Node19 -->
<g id="node19" class="node">
<title>Node19</title>
<g id="a_node19"><a xlink:href="../../dd/d08/a01682.html#a21978fd539714b2f20066ca43f48fb5b" target="_top" xlink:title=" ">
<polygon fill="none" stroke="black" points="23.5,-1178.5 23.5,-1197.5 200.5,-1197.5 200.5,-1178.5 23.5,-1178.5"/>
<text text-anchor="middle" x="112" y="-1185.5" font-family="Helvetica,sans-Serif" font-size="10.00">com.cliffc.aa.HM.TestHM8.test15</text>
</a>
</g>
</g>
<!-- Node2&#45;&gt;Node19 -->
<g id="edge18" class="edge">
<title>Node2&#45;&gt;Node19</title>
<path fill="none" stroke="midnightblue" d="M343.36,-1035.91C324.58,-1068.9 281.07,-1136.53 224,-1169 216.78,-1173.11 208.89,-1176.38 200.77,-1178.97"/>
<polygon fill="midnightblue" stroke="midnightblue" points="346.58,-1037.31 348.38,-1026.87 340.46,-1033.91 346.58,-1037.31"/>
</g>
<!-- Node20 -->
<g id="node20" class="node">
<title>Node20</title>
<g id="a_node20"><a xlink:href="../../dd/d08/a01682.html#a4cf6c9003c054d9cca3990ade2c7a822" target="_top" xlink:title=" ">
<polygon fill="none" stroke="black" points="23.5,-1140.5 23.5,-1159.5 200.5,-1159.5 200.5,-1140.5 23.5,-1140.5"/>
<text text-anchor="middle" x="112" y="-1147.5" font-family="Helvetica,sans-Serif" font-size="10.00">com.cliffc.aa.HM.TestHM8.test16</text>
</a>
</g>
</g>
<!-- Node2&#45;&gt;Node20 -->
<g id="edge19" class="edge">
<title>Node2&#45;&gt;Node20</title>
<path fill="none" stroke="midnightblue" d="M339.44,-1034.4C317.64,-1060.07 273.05,-1107.57 224,-1131 215.88,-1134.88 207.1,-1137.97 198.15,-1140.45"/>
<polygon fill="midnightblue" stroke="midnightblue" points="342.22,-1036.52 345.93,-1026.6 336.84,-1032.04 342.22,-1036.52"/>
</g>
<!-- Node21 -->
<g id="node21" class="node">
<title>Node21</title>
<g id="a_node21"><a xlink:href="../../dd/d08/a01682.html#a4aa66d7e990365f6fd3df746f88731b9" target="_top" xlink:title=" ">
<polygon fill="none" stroke="black" points="23.5,-1102.5 23.5,-1121.5 200.5,-1121.5 200.5,-1102.5 23.5,-1102.5"/>
<text text-anchor="middle" x="112" y="-1109.5" font-family="Helvetica,sans-Serif" font-size="10.00">com.cliffc.aa.HM.TestHM8.test17</text>
</a>
</g>
</g>
<!-- Node2&#45;&gt;Node21 -->
<g id="edge20" class="edge">
<title>Node2&#45;&gt;Node21</title>
<path fill="none" stroke="midnightblue" d="M332.45,-1032.62C307.77,-1050.13 265,-1078.03 224,-1093 213.35,-1096.89 201.83,-1099.99 190.37,-1102.46"/>
<polygon fill="midnightblue" stroke="midnightblue" points="334.62,-1035.37 340.69,-1026.68 330.53,-1029.69 334.62,-1035.37"/>
</g>
<!-- Node22 -->
<g id="node22" class="node">
<title>Node22</title>
<g id="a_node22"><a xlink:href="../../dd/d08/a01682.html#aabc6de9af3ca990ce57f4faab06dc9ef" target="_top" xlink:title=" ">
<polygon fill="none" stroke="black" points="23.5,-1064.5 23.5,-1083.5 200.5,-1083.5 200.5,-1064.5 23.5,-1064.5"/>
<text text-anchor="middle" x="112" y="-1071.5" font-family="Helvetica,sans-Serif" font-size="10.00">com.cliffc.aa.HM.TestHM8.test18</text>
</a>
</g>
</g>
<!-- Node2&#45;&gt;Node22 -->
<g id="edge21" class="edge">
<title>Node2&#45;&gt;Node22</title>
<path fill="none" stroke="midnightblue" d="M314.75,-1029.65C289.18,-1037.68 254.83,-1047.86 224,-1055 208.67,-1058.55 192,-1061.75 176.36,-1064.46"/>
<polygon fill="midnightblue" stroke="midnightblue" points="315.96,-1032.94 324.44,-1026.58 313.85,-1026.26 315.96,-1032.94"/>
</g>
<!-- Node23 -->
<g id="node23" class="node">
<title>Node23</title>
<g id="a_node23"><a xlink:href="../../dd/d08/a01682.html#a8bd7ac6049625325f6cebd46f70d93a8" target="_top" xlink:title=" ">
<polygon fill="none" stroke="black" points="23.5,-1026.5 23.5,-1045.5 200.5,-1045.5 200.5,-1026.5 23.5,-1026.5"/>
<text text-anchor="middle" x="112" y="-1033.5" font-family="Helvetica,sans-Serif" font-size="10.00">com.cliffc.aa.HM.TestHM8.test19</text>
</a>
</g>
</g>
<!-- Node2&#45;&gt;Node23 -->
<g id="edge22" class="edge">
<title>Node2&#45;&gt;Node23</title>
<path fill="none" stroke="midnightblue" d="M272.83,-1023.37C249.63,-1025.21 224.21,-1027.21 200.62,-1029.08"/>
<polygon fill="midnightblue" stroke="midnightblue" points="273.27,-1026.85 282.97,-1022.57 272.72,-1019.87 273.27,-1026.85"/>
</g>
<!-- Node24 -->
<g id="node24" class="node">
<title>Node24</title>
<g id="a_node24"><a xlink:href="../../dd/d08/a01682.html#a6505a9454a5650ee22f57cc7ac62329d" target="_top" xlink:title=" ">
<polygon fill="none" stroke="black" points="23.5,-988.5 23.5,-1007.5 200.5,-1007.5 200.5,-988.5 23.5,-988.5"/>
<text text-anchor="middle" x="112" y="-995.5" font-family="Helvetica,sans-Serif" font-size="10.00">com.cliffc.aa.HM.TestHM8.test20</text>
</a>
</g>
</g>
<!-- Node2&#45;&gt;Node24 -->
<g id="edge23" class="edge">
<title>Node2&#45;&gt;Node24</title>
<path fill="none" stroke="midnightblue" d="M272.83,-1010.63C249.63,-1008.79 224.21,-1006.79 200.62,-1004.92"/>
<polygon fill="midnightblue" stroke="midnightblue" points="272.72,-1014.13 282.97,-1011.43 273.27,-1007.15 272.72,-1014.13"/>
</g>
<!-- Node25 -->
<g id="node25" class="node">
<title>Node25</title>
<g id="a_node25"><a xlink:href="../../dd/d08/a01682.html#a32b13e0e7b013eb36f0ebd501b57e750" target="_top" xlink:title=" ">
<polygon fill="none" stroke="black" points="23.5,-950.5 23.5,-969.5 200.5,-969.5 200.5,-950.5 23.5,-950.5"/>
<text text-anchor="middle" x="112" y="-957.5" font-family="Helvetica,sans-Serif" font-size="10.00">com.cliffc.aa.HM.TestHM8.test21</text>
</a>
</g>
</g>
<!-- Node2&#45;&gt;Node25 -->
<g id="edge24" class="edge">
<title>Node2&#45;&gt;Node25</title>
<path fill="none" stroke="midnightblue" d="M314.75,-1004.35C289.18,-996.32 254.83,-986.14 224,-979 208.67,-975.45 192,-972.25 176.36,-969.54"/>
<polygon fill="midnightblue" stroke="midnightblue" points="313.85,-1007.74 324.44,-1007.42 315.96,-1001.06 313.85,-1007.74"/>
</g>
<!-- Node26 -->
<g id="node26" class="node">
<title>Node26</title>
<g id="a_node26"><a xlink:href="../../dd/d08/a01682.html#ac612d63a65565fab351b1044240ca275" target="_top" xlink:title=" ">
<polygon fill="none" stroke="black" points="23.5,-912.5 23.5,-931.5 200.5,-931.5 200.5,-912.5 23.5,-912.5"/>
<text text-anchor="middle" x="112" y="-919.5" font-family="Helvetica,sans-Serif" font-size="10.00">com.cliffc.aa.HM.TestHM8.test22</text>
</a>
</g>
</g>
<!-- Node2&#45;&gt;Node26 -->
<g id="edge25" class="edge">
<title>Node2&#45;&gt;Node26</title>
<path fill="none" stroke="midnightblue" d="M332.45,-1001.38C307.77,-983.87 265,-955.97 224,-941 213.35,-937.11 201.83,-934.01 190.37,-931.54"/>
<polygon fill="midnightblue" stroke="midnightblue" points="330.53,-1004.31 340.69,-1007.32 334.62,-998.63 330.53,-1004.31"/>
</g>
<!-- Node27 -->
<g id="node27" class="node">
<title>Node27</title>
<g id="a_node27"><a xlink:href="../../dd/d08/a01682.html#a6576ee4b53e9c17b404d553226da2ffb" target="_top" xlink:title=" ">
<polygon fill="none" stroke="black" points="23.5,-874.5 23.5,-893.5 200.5,-893.5 200.5,-874.5 23.5,-874.5"/>
<text text-anchor="middle" x="112" y="-881.5" font-family="Helvetica,sans-Serif" font-size="10.00">com.cliffc.aa.HM.TestHM8.test23</text>
</a>
</g>
</g>
<!-- Node2&#45;&gt;Node27 -->
<g id="edge26" class="edge">
<title>Node2&#45;&gt;Node27</title>
<path fill="none" stroke="midnightblue" d="M339.44,-999.6C317.64,-973.93 273.05,-926.43 224,-903 215.88,-899.12 207.1,-896.03 198.15,-893.55"/>
<polygon fill="midnightblue" stroke="midnightblue" points="336.84,-1001.96 345.93,-1007.4 342.22,-997.48 336.84,-1001.96"/>
</g>
<!-- Node28 -->
<g id="node28" class="node">
<title>Node28</title>
<g id="a_node28"><a xlink:href="../../dd/d08/a01682.html#a28e288e18f3e0a1c2467f93310634cb9" target="_top" xlink:title=" ">
<polygon fill="none" stroke="black" points="23.5,-836.5 23.5,-855.5 200.5,-855.5 200.5,-836.5 23.5,-836.5"/>
<text text-anchor="middle" x="112" y="-843.5" font-family="Helvetica,sans-Serif" font-size="10.00">com.cliffc.aa.HM.TestHM8.test24</text>
</a>
</g>
</g>
<!-- Node2&#45;&gt;Node28 -->
<g id="edge27" class="edge">
<title>Node2&#45;&gt;Node28</title>
<path fill="none" stroke="midnightblue" d="M343.36,-998.09C324.58,-965.1 281.07,-897.47 224,-865 216.78,-860.89 208.89,-857.62 200.77,-855.03"/>
<polygon fill="midnightblue" stroke="midnightblue" points="340.46,-1000.09 348.38,-1007.13 346.58,-996.69 340.46,-1000.09"/>
</g>
<!-- Node29 -->
<g id="node29" class="node">
<title>Node29</title>
<g id="a_node29"><a xlink:href="../../dd/d08/a01682.html#ae3b7393572325df36255aa0eea6891b0" target="_top" xlink:title=" ">
<polygon fill="none" stroke="black" points="23.5,-798.5 23.5,-817.5 200.5,-817.5 200.5,-798.5 23.5,-798.5"/>
<text text-anchor="middle" x="112" y="-805.5" font-family="Helvetica,sans-Serif" font-size="10.00">com.cliffc.aa.HM.TestHM8.test25</text>
</a>
</g>
</g>
<!-- Node2&#45;&gt;Node29 -->
<g id="edge28" class="edge">
<title>Node2&#45;&gt;Node29</title>
<path fill="none" stroke="midnightblue" d="M346.35,-997.57C330.78,-958.22 289.84,-869.3 224,-827 216.84,-822.4 208.92,-818.82 200.68,-816.04"/>
<polygon fill="midnightblue" stroke="midnightblue" points="343.14,-998.98 349.99,-1007.06 349.68,-996.47 343.14,-998.98"/>
</g>
<!-- Node30 -->
<g id="node30" class="node">
<title>Node30</title>
<g id="a_node30"><a xlink:href="../../dd/d08/a01682.html#a5d047d86cf87938f5212d8787f72da6d" target="_top" xlink:title=" ">
<polygon fill="none" stroke="black" points="20.5,-760.5 20.5,-779.5 203.5,-779.5 203.5,-760.5 20.5,-760.5"/>
<text text-anchor="middle" x="112" y="-767.5" font-family="Helvetica,sans-Serif" font-size="10.00">com.cliffc.aa.HM.TestHM8.test25a</text>
</a>
</g>
</g>
<!-- Node2&#45;&gt;Node30 -->
<g id="edge29" class="edge">
<title>Node2&#45;&gt;Node30</title>
<path fill="none" stroke="midnightblue" d="M348.58,-997.49C336.16,-952.57 299.05,-841.66 224,-789 217.76,-784.62 210.84,-781.13 203.6,-778.37"/>
<polygon fill="midnightblue" stroke="midnightblue" points="345.21,-998.42 351.16,-1007.19 351.97,-996.62 345.21,-998.42"/>
</g>
<!-- Node31 -->
<g id="node31" class="node">
<title>Node31</title>
<g id="a_node31"><a xlink:href="../../dd/d08/a01682.html#ad6c880a3a52c3097983fbd4d89ef50b2" target="_top" xlink:title=" ">
<polygon fill="none" stroke="black" points="20.5,-722.5 20.5,-741.5 203.5,-741.5 203.5,-722.5 20.5,-722.5"/>
<text text-anchor="middle" x="112" y="-729.5" font-family="Helvetica,sans-Serif" font-size="10.00">com.cliffc.aa.HM.TestHM8.test25b</text>
</a>
</g>
</g>
<!-- Node2&#45;&gt;Node31 -->
<g id="edge30" class="edge">
<title>Node2&#45;&gt;Node31</title>
<path fill="none" stroke="midnightblue" d="M350.22,-997.4C340.75,-947.35 308.42,-814.33 224,-751 217.82,-746.37 210.91,-742.71 203.63,-739.84"/>
<polygon fill="midnightblue" stroke="midnightblue" points="346.78,-998.04 351.99,-1007.26 353.67,-996.8 346.78,-998.04"/>
</g>
<!-- Node32 -->
<g id="node32" class="node">
<title>Node32</title>
<g id="a_node32"><a xlink:href="../../dd/d08/a01682.html#a328c386139071a15424e0c05479d7fad" target="_top" xlink:title=" ">
<polygon fill="none" stroke="black" points="23.5,-684.5 23.5,-703.5 200.5,-703.5 200.5,-684.5 23.5,-684.5"/>
<text text-anchor="middle" x="112" y="-691.5" font-family="Helvetica,sans-Serif" font-size="10.00">com.cliffc.aa.HM.TestHM8.test26</text>
</a>
</g>
</g>
<!-- Node2&#45;&gt;Node32 -->
<g id="edge31" class="edge">
<title>Node2&#45;&gt;Node32</title>
<path fill="none" stroke="midnightblue" d="M351.49,-997.27C344.77,-942.41 317.91,-787.22 224,-713 217.02,-707.48 209.02,-703.33 200.57,-700.22"/>
<polygon fill="midnightblue" stroke="midnightblue" points="348.03,-997.85 352.63,-1007.39 354.99,-997.06 348.03,-997.85"/>
</g>
<!-- Node33 -->
<g id="node33" class="node">
<title>Node33</title>
<g id="a_node33"><a xlink:href="../../dd/d08/a01682.html#ab53ca6600b56ba5c1f4ab1d397e4c790" target="_top" xlink:title=" ">
<polygon fill="none" stroke="black" points="23.5,-646.5 23.5,-665.5 200.5,-665.5 200.5,-646.5 23.5,-646.5"/>
<text text-anchor="middle" x="112" y="-653.5" font-family="Helvetica,sans-Serif" font-size="10.00">com.cliffc.aa.HM.TestHM8.test27</text>
</a>
</g>
</g>
<!-- Node2&#45;&gt;Node33 -->
<g id="edge32" class="edge">
<title>Node2&#45;&gt;Node33</title>
<path fill="none" stroke="midnightblue" d="M352.51,-997.25C348.4,-937.96 327.59,-760.35 224,-675 217.06,-669.28 209.03,-665 200.52,-661.83"/>
<polygon fill="midnightblue" stroke="midnightblue" points="349.03,-997.7 353.13,-1007.47 356.02,-997.28 349.03,-997.7"/>
</g>
<!-- Node34 -->
<g id="node34" class="node">
<title>Node34</title>
<g id="a_node34"><a xlink:href="../../dd/d08/a01682.html#ad51f804370488a8d07fe2b2eab88d2f5" target="_top" xlink:title=" ">
<polygon fill="none" stroke="black" points="23.5,-608.5 23.5,-627.5 200.5,-627.5 200.5,-608.5 23.5,-608.5"/>
<text text-anchor="middle" x="112" y="-615.5" font-family="Helvetica,sans-Serif" font-size="10.00">com.cliffc.aa.HM.TestHM8.test28</text>
</a>
</g>
</g>
<!-- Node2&#45;&gt;Node34 -->
<g id="edge33" class="edge">
<title>Node2&#45;&gt;Node34</title>
<path fill="none" stroke="midnightblue" d="M353.35,-997.22C351.7,-933.73 337.35,-733.63 224,-637 217.16,-631.17 209.19,-626.81 200.72,-623.6"/>
<polygon fill="midnightblue" stroke="midnightblue" points="349.85,-997.49 353.53,-1007.43 356.85,-997.37 349.85,-997.49"/>
</g>
<!-- Node35 -->
<g id="node35" class="node">
<title>Node35</title>
<g id="a_node35"><a xlink:href="../../dd/d08/a01682.html#a6da65b928f2fb589314fad2fcea61b06" target="_top" xlink:title=" ">
<polygon fill="none" stroke="black" points="23.5,-570.5 23.5,-589.5 200.5,-589.5 200.5,-570.5 23.5,-570.5"/>
<text text-anchor="middle" x="112" y="-577.5" font-family="Helvetica,sans-Serif" font-size="10.00">com.cliffc.aa.HM.TestHM8.test29</text>
</a>
</g>
</g>
<!-- Node2&#45;&gt;Node35 -->
<g id="edge34" class="edge">
<title>Node2&#45;&gt;Node35</title>
<path fill="none" stroke="midnightblue" d="M354.04,-997.06C354.72,-929.42 347.11,-706.96 224,-599 217.16,-593.01 209.15,-588.56 200.61,-585.3"/>
<polygon fill="midnightblue" stroke="midnightblue" points="350.54,-997.13 353.87,-1007.19 357.54,-997.25 350.54,-997.13"/>
</g>
<!-- Node36 -->
<g id="node36" class="node">
<title>Node36</title>
<g id="a_node36"><a xlink:href="../../dd/d08/a01682.html#a842e37f51363a8d95732ba837d687d43" target="_top" xlink:title=" ">
<polygon fill="none" stroke="black" points="23.5,-532.5 23.5,-551.5 200.5,-551.5 200.5,-532.5 23.5,-532.5"/>
<text text-anchor="middle" x="112" y="-539.5" font-family="Helvetica,sans-Serif" font-size="10.00">com.cliffc.aa.HM.TestHM8.test30</text>
</a>
</g>
</g>
<!-- Node2&#45;&gt;Node36 -->
<g id="edge35" class="edge">
<title>Node2&#45;&gt;Node36</title>
<path fill="none" stroke="midnightblue" d="M350.71,-997.3C339.06,-917.79 291.69,-621.8 224,-561 217.24,-554.93 209.27,-550.43 200.75,-547.14"/>
<polygon fill="midnightblue" stroke="midnightblue" points="347.28,-998.01 352.17,-1007.41 354.21,-997.01 347.28,-998.01"/>
</g>
<!-- Node37 -->
<g id="node37" class="node">
<title>Node37</title>
<g id="a_node37"><a xlink:href="../../dd/d08/a01682.html#a4b99bade835db86dc221b7be203a4b6a" target="_top" xlink:title=" ">
<polygon fill="none" stroke="black" points="20.5,-494.5 20.5,-513.5 203.5,-513.5 203.5,-494.5 20.5,-494.5"/>
<text text-anchor="middle" x="112" y="-501.5" font-family="Helvetica,sans-Serif" font-size="10.00">com.cliffc.aa.HM.TestHM8.test30a</text>
</a>
</g>
</g>
<!-- Node2&#45;&gt;Node37 -->
<g id="edge36" class="edge">
<title>Node2&#45;&gt;Node37</title>
<path fill="none" stroke="midnightblue" d="M351.17,-997.3C340.87,-913.71 296.72,-589.66 224,-523 218.02,-517.52 211.06,-513.31 203.6,-510.12"/>
<polygon fill="midnightblue" stroke="midnightblue" points="347.72,-997.94 352.4,-1007.44 354.67,-997.1 347.72,-997.94"/>
</g>
<!-- Node38 -->
<g id="node38" class="node">
<title>Node38</title>
<g id="a_node38"><a xlink:href="../../dd/d08/a01682.html#aa5bc72f64b2006f477fa225c7a5db28f" target="_top" xlink:title=" ">
<polygon fill="none" stroke="black" points="23.5,-456.5 23.5,-475.5 200.5,-475.5 200.5,-456.5 23.5,-456.5"/>
<text text-anchor="middle" x="112" y="-463.5" font-family="Helvetica,sans-Serif" font-size="10.00">com.cliffc.aa.HM.TestHM8.test31</text>
</a>
</g>
</g>
<!-- Node2&#45;&gt;Node38 -->
<g id="edge37" class="edge">
<title>Node2&#45;&gt;Node38</title>
<path fill="none" stroke="midnightblue" d="M351.55,-997.19C342.5,-909.51 301.74,-557.53 224,-485 217.28,-478.73 209.29,-474.12 200.72,-470.78"/>
<polygon fill="midnightblue" stroke="midnightblue" points="348.07,-997.55 352.56,-1007.15 355.03,-996.85 348.07,-997.55"/>
</g>
<!-- Node39 -->
<g id="node39" class="node">
<title>Node39</title>
<g id="a_node39"><a xlink:href="../../dd/d08/a01682.html#a86f44895e620e8ac125f356f88fd87c0" target="_top" xlink:title=" ">
<polygon fill="none" stroke="black" points="23.5,-418.5 23.5,-437.5 200.5,-437.5 200.5,-418.5 23.5,-418.5"/>
<text text-anchor="middle" x="112" y="-425.5" font-family="Helvetica,sans-Serif" font-size="10.00">com.cliffc.aa.HM.TestHM8.test32</text>
</a>
</g>
</g>
<!-- Node2&#45;&gt;Node39 -->
<g id="edge38" class="edge">
<title>Node2&#45;&gt;Node39</title>
<path fill="none" stroke="midnightblue" d="M351.9,-997.26C344.07,-905.93 306.83,-525.48 224,-447 217.26,-440.61 209.2,-435.94 200.54,-432.57"/>
<polygon fill="midnightblue" stroke="midnightblue" points="348.42,-997.67 352.74,-1007.35 355.39,-997.09 348.42,-997.67"/>
</g>
<!-- Node40 -->
<g id="node40" class="node">
<title>Node40</title>
<g id="a_node40"><a xlink:href="../../dd/d08/a01682.html#a4a6b6eec7ae13afa2a641cd781b69b45" target="_top" xlink:title=" ">
<polygon fill="none" stroke="black" points="23.5,-380.5 23.5,-399.5 200.5,-399.5 200.5,-380.5 23.5,-380.5"/>
<text text-anchor="middle" x="112" y="-387.5" font-family="Helvetica,sans-Serif" font-size="10.00">com.cliffc.aa.HM.TestHM8.test33</text>
</a>
</g>
</g>
<!-- Node2&#45;&gt;Node40 -->
<g id="edge39" class="edge">
<title>Node2&#45;&gt;Node40</title>
<path fill="none" stroke="midnightblue" d="M352.19,-997.16C345.49,-902 311.89,-493.41 224,-409 217.3,-402.57 209.27,-397.87 200.63,-394.48"/>
<polygon fill="midnightblue" stroke="midnightblue" points="348.7,-997.43 352.87,-1007.17 355.68,-996.95 348.7,-997.43"/>
</g>
<!-- Node41 -->
<g id="node41" class="node">
<title>Node41</title>
<g id="a_node41"><a xlink:href="../../dd/d08/a01682.html#a7a12ce333178c46308ba7c3ef0fd0917" target="_top" xlink:title=" ">
<polygon fill="none" stroke="black" points="23.5,-342.5 23.5,-361.5 200.5,-361.5 200.5,-342.5 23.5,-342.5"/>
<text text-anchor="middle" x="112" y="-349.5" font-family="Helvetica,sans-Serif" font-size="10.00">com.cliffc.aa.HM.TestHM8.test34</text>
</a>
</g>
</g>
<!-- Node2&#45;&gt;Node41 -->
<g id="edge40" class="edge">
<title>Node2&#45;&gt;Node41</title>
<path fill="none" stroke="midnightblue" d="M352.44,-996.88C346.79,-897.62 316.9,-461.3 224,-371 217.34,-364.53 209.33,-359.8 200.7,-356.4"/>
<polygon fill="midnightblue" stroke="midnightblue" points="348.96,-997.25 353,-1007.04 355.94,-996.86 348.96,-997.25"/>
</g>
<!-- Node42 -->
<g id="node42" class="node">
<title>Node42</title>
<g id="a_node42"><a xlink:href="../../dd/d08/a01682.html#ad692c8dc570242deb096cf4199b7a372" target="_top" xlink:title=" ">
<polygon fill="none" stroke="black" points="23.5,-304.5 23.5,-323.5 200.5,-323.5 200.5,-304.5 23.5,-304.5"/>
<text text-anchor="middle" x="112" y="-311.5" font-family="Helvetica,sans-Serif" font-size="10.00">com.cliffc.aa.HM.TestHM8.test35</text>
</a>
</g>
</g>
<!-- Node2&#45;&gt;Node42 -->
<g id="edge41" class="edge">
<title>Node2&#45;&gt;Node42</title>
<path fill="none" stroke="midnightblue" d="M352.7,-997.34C348.16,-895.55 322.16,-429.45 224,-333 217.38,-326.49 209.39,-321.74 200.77,-318.33"/>
<polygon fill="midnightblue" stroke="midnightblue" points="349.21,-997.6 353.13,-1007.44 356.2,-997.3 349.21,-997.6"/>
</g>
<!-- Node43 -->
<g id="node43" class="node">
<title>Node43</title>
<g id="a_node43"><a xlink:href="../../dd/d08/a01682.html#aed504b4095971e8df76dc6a9f81e7b52" target="_top" xlink:title=" ">
<polygon fill="none" stroke="black" points="23.5,-266.5 23.5,-285.5 200.5,-285.5 200.5,-266.5 23.5,-266.5"/>
<text text-anchor="middle" x="112" y="-273.5" font-family="Helvetica,sans-Serif" font-size="10.00">com.cliffc.aa.HM.TestHM8.test36</text>
</a>
</g>
</g>
<!-- Node2&#45;&gt;Node43 -->
<g id="edge42" class="edge">
<title>Node2&#45;&gt;Node43</title>
<path fill="none" stroke="midnightblue" d="M352.91,-997.26C349.35,-891.95 327.26,-397.44 224,-295 217.34,-288.39 209.27,-283.59 200.56,-280.16"/>
<polygon fill="midnightblue" stroke="midnightblue" points="349.42,-997.53 353.24,-1007.42 356.41,-997.31 349.42,-997.53"/>
</g>
<!-- Node45 -->
<g id="node45" class="node">
<title>Node45</title>
<g id="a_node45"><a xlink:href="../../d0/d66/a00858.html#abc17bbc3807c191bf21cb794027e5c23" target="_top" xlink:title=" ">
<polygon fill="none" stroke="black" points="10.5,-228.5 10.5,-247.5 213.5,-247.5 213.5,-228.5 10.5,-228.5"/>
<text text-anchor="middle" x="112" y="-235.5" font-family="Helvetica,sans-Serif" font-size="10.00">com.cliffc.aa.HM.HM8.Con.more_work</text>
</a>
</g>
</g>
<!-- Node44&#45;&gt;Node45 -->
<g id="edge44" class="edge">
<title>Node44&#45;&gt;Node45</title>
<path fill="none" stroke="midnightblue" d="M324.76,-163.99C299.48,-181.43 261.02,-205.48 224,-219 213.35,-222.89 201.83,-225.99 190.37,-228.46"/>
<polygon fill="midnightblue" stroke="midnightblue" points="326.95,-166.73 333.13,-158.13 322.94,-161 326.95,-166.73"/>
</g>
<!-- Node46 -->
<g id="node46" class="node">
<title>Node46</title>
<g id="a_node46"><a xlink:href="../../dc/d41/a00862.html#aef5095cfdf9ff1c44bc64d7ffac88636" target="_top" xlink:title=" ">
<polygon fill="none" stroke="black" points="7.5,-190.5 7.5,-209.5 216.5,-209.5 216.5,-190.5 7.5,-190.5"/>
<text text-anchor="middle" x="112" y="-197.5" font-family="Helvetica,sans-Serif" font-size="10.00">com.cliffc.aa.HM.HM8.Ident.more_work</text>
</a>
</g>
</g>
<!-- Node44&#45;&gt;Node46 -->
<g id="edge45" class="edge">
<title>Node44&#45;&gt;Node46</title>
<path fill="none" stroke="midnightblue" d="M297.32,-161.03C274.69,-167.88 248.26,-175.38 224,-181 208.67,-184.55 192,-187.75 176.36,-190.46"/>
<polygon fill="midnightblue" stroke="midnightblue" points="298.55,-164.31 307.09,-158.04 296.5,-157.62 298.55,-164.31"/>
</g>
<!-- Node47 -->
<g id="node47" class="node">
<title>Node47</title>
<g id="a_node47"><a xlink:href="../../dd/db2/a00866.html#abb2855f2a83e1f02a09d04055cba9f20" target="_top" xlink:title=" ">
<polygon fill="none" stroke="black" points="0,-152.5 0,-171.5 224,-171.5 224,-152.5 0,-152.5"/>
<text text-anchor="middle" x="112" y="-159.5" font-family="Helvetica,sans-Serif" font-size="10.00">com.cliffc.aa.HM.HM8.Lambda.more_work</text>
</a>
</g>
</g>
<!-- Node44&#45;&gt;Node47 -->
<g id="edge46" class="edge">
<title>Node44&#45;&gt;Node47</title>
<path fill="none" stroke="midnightblue" d="M249.85,-151.19C241.3,-151.86 232.63,-152.55 224.02,-153.23"/>
<polygon fill="midnightblue" stroke="midnightblue" points="250.13,-154.68 259.83,-150.4 249.58,-147.7 250.13,-154.68"/>
</g>
<!-- Node48 -->
<g id="node48" class="node">
<title>Node48</title>
<g id="a_node48"><a xlink:href="../../da/d98/a00870.html#a5332b0e4d069743ac8a5e8d92eb26e6a" target="_top" xlink:title=" ">
<polygon fill="none" stroke="black" points="12,-114.5 12,-133.5 212,-133.5 212,-114.5 12,-114.5"/>
<text text-anchor="middle" x="112" y="-121.5" font-family="Helvetica,sans-Serif" font-size="10.00">com.cliffc.aa.HM.HM8.Let.more_work</text>
</a>
</g>
</g>
<!-- Node44&#45;&gt;Node48 -->
<g id="edge47" class="edge">
<title>Node44&#45;&gt;Node48</title>
<path fill="none" stroke="midnightblue" d="M249.54,-134.79C237.21,-133.81 224.64,-132.82 212.38,-131.85"/>
<polygon fill="midnightblue" stroke="midnightblue" points="249.58,-138.3 259.83,-135.6 250.13,-131.32 249.58,-138.3"/>
</g>
<!-- Node49 -->
<g id="node49" class="node">
<title>Node49</title>
<g id="a_node49"><a xlink:href="../../df/d2a/a00874.html#a7dcc3c99348b1dc6a4fe9b8b38d884ba" target="_top" xlink:title=" ">
<polygon fill="none" stroke="black" points="6.5,-76.5 6.5,-95.5 217.5,-95.5 217.5,-76.5 6.5,-76.5"/>
<text text-anchor="middle" x="112" y="-83.5" font-family="Helvetica,sans-Serif" font-size="10.00">com.cliffc.aa.HM.HM8.Apply.more_work</text>
</a>
</g>
</g>
<!-- Node44&#45;&gt;Node49 -->
<g id="edge48" class="edge">
<title>Node44&#45;&gt;Node49</title>
<path fill="none" stroke="midnightblue" d="M297.32,-124.97C274.69,-118.12 248.26,-110.62 224,-105 208.67,-101.45 192,-98.25 176.36,-95.54"/>
<polygon fill="midnightblue" stroke="midnightblue" points="296.5,-128.38 307.09,-127.96 298.55,-121.69 296.5,-128.38"/>
</g>
<!-- Node50 -->
<g id="node50" class="node">
<title>Node50</title>
<g id="a_node50"><a xlink:href="../../d5/d69/a00878.html#a8cd4f519a0714e2dc9bcf156115576e7" target="_top" xlink:title=" ">
<polygon fill="none" stroke="black" points="5.5,-38.5 5.5,-57.5 218.5,-57.5 218.5,-38.5 5.5,-38.5"/>
<text text-anchor="middle" x="112" y="-45.5" font-family="Helvetica,sans-Serif" font-size="10.00">com.cliffc.aa.HM.HM8.Struct.more_work</text>
</a>
</g>
</g>
<!-- Node44&#45;&gt;Node50 -->
<g id="edge49" class="edge">
<title>Node44&#45;&gt;Node50</title>
<path fill="none" stroke="midnightblue" d="M324.76,-122.01C299.48,-104.57 261.02,-80.52 224,-67 213.35,-63.11 201.83,-60.01 190.37,-57.54"/>
<polygon fill="midnightblue" stroke="midnightblue" points="322.94,-125 333.13,-127.87 326.95,-119.27 322.94,-125"/>
</g>
<!-- Node51 -->
<g id="node51" class="node">
<title>Node51</title>
<g id="a_node51"><a xlink:href="../../d3/d50/a00882.html#a5e692bc472527a914c6de4487fe3194a" target="_top" xlink:title=" ">
<polygon fill="none" stroke="black" points="8,-0.5 8,-19.5 216,-19.5 216,-0.5 8,-0.5"/>
<text text-anchor="middle" x="112" y="-7.5" font-family="Helvetica,sans-Serif" font-size="10.00">com.cliffc.aa.HM.HM8.Field.more_work</text>
</a>
</g>
</g>
<!-- Node44&#45;&gt;Node51 -->
<g id="edge50" class="edge">
<title>Node44&#45;&gt;Node51</title>
<path fill="none" stroke="midnightblue" d="M334.81,-120.23C311.71,-93.75 269.8,-50.88 224,-29 215.88,-25.12 207.1,-22.03 198.15,-19.55"/>
<polygon fill="midnightblue" stroke="midnightblue" points="332.2,-122.56 341.36,-127.88 337.52,-118.01 332.2,-122.56"/>
</g>
</g>
</svg>
