<?xml version="1.0" encoding="UTF-8" standalone="no"?>
<!DOCTYPE svg PUBLIC "-//W3C//DTD SVG 1.1//EN"
 "http://www.w3.org/Graphics/SVG/1.1/DTD/svg11.dtd">
<!-- Generated by graphviz version 2.43.0 (0)
 -->
<!-- Title: com.cliffc.aa.node.Work.isEmpty Pages: 1 -->
<svg width="526pt" height="88pt"
 viewBox="0.00 0.00 526.00 88.00" xmlns="http://www.w3.org/2000/svg" xmlns:xlink="http://www.w3.org/1999/xlink">
<g id="graph0" class="graph" transform="scale(1 1) rotate(0) translate(4 84)">
<title>com.cliffc.aa.node.Work.isEmpty</title>
<!-- Node1 -->
<g id="node1" class="node">
<title>Node1</title>
<g id="a_node1"><a xlink:title=" ">
<polygon fill="#bfbfbf" stroke="black" points="373,-14 373,-44 518,-44 518,-14 373,-14"/>
<text text-anchor="start" x="381" y="-32" font-family="Helvetica,sans-Serif" font-size="10.00">com.cliffc.aa.node.Work.is</text>
<text text-anchor="middle" x="445.5" y="-21" font-family="Helvetica,sans-Serif" font-size="10.00">Empty</text>
</a>
</g>
</g>
<!-- Node2 -->
<g id="node2" class="node">
<title>Node2</title>
<g id="a_node2"><a xlink:href="../../d9/d0a/a00390.html#a30adb7d17b631cd35a2e994feaa511f1" target="_top" xlink:title=" ">
<polygon fill="none" stroke="black" points="190,-38.5 190,-57.5 337,-57.5 337,-38.5 190,-38.5"/>
<text text-anchor="middle" x="263.5" y="-45.5" font-family="Helvetica,sans-Serif" font-size="10.00">com.cliffc.aa.GVNGCM.gcp</text>
</a>
</g>
</g>
<!-- Node1&#45;&gt;Node2 -->
<g id="edge1" class="edge">
<title>Node1&#45;&gt;Node2</title>
<path fill="none" stroke="midnightblue" d="M362.83,-37.62C354.25,-38.53 345.56,-39.44 337.09,-40.34"/>
<polygon fill="midnightblue" stroke="midnightblue" points="363.26,-41.09 372.84,-36.56 362.53,-34.13 363.26,-41.09"/>
</g>
<!-- Node5 -->
<g id="node5" class="node">
<title>Node5</title>
<g id="a_node5"><a xlink:href="../../d9/d0a/a00390.html#a891ef5eae4396ded7f355ace4f1e97f2" target="_top" xlink:title=" ">
<polygon fill="none" stroke="black" points="190.5,-0.5 190.5,-19.5 336.5,-19.5 336.5,-0.5 190.5,-0.5"/>
<text text-anchor="middle" x="263.5" y="-7.5" font-family="Helvetica,sans-Serif" font-size="10.00">com.cliffc.aa.GVNGCM.iter</text>
</a>
</g>
</g>
<!-- Node1&#45;&gt;Node5 -->
<g id="edge4" class="edge">
<title>Node1&#45;&gt;Node5</title>
<path fill="none" stroke="midnightblue" d="M362.75,-20.37C354.09,-19.46 345.33,-18.53 336.79,-17.63"/>
<polygon fill="midnightblue" stroke="midnightblue" points="362.53,-23.87 372.84,-21.44 363.26,-16.91 362.53,-23.87"/>
</g>
<!-- Node3 -->
<g id="node3" class="node">
<title>Node3</title>
<g id="a_node3"><a xlink:href="../../da/de3/a01398.html#a7b1a6eaad3b721625612e7475ca9bf3b" target="_top" xlink:title=" ">
<polygon fill="none" stroke="black" points="15.5,-60.5 15.5,-79.5 138.5,-79.5 138.5,-60.5 15.5,-60.5"/>
<text text-anchor="middle" x="77" y="-67.5" font-family="Helvetica,sans-Serif" font-size="10.00">com.cliffc.aa.Parse.go</text>
</a>
</g>
</g>
<!-- Node2&#45;&gt;Node3 -->
<g id="edge2" class="edge">
<title>Node2&#45;&gt;Node3</title>
<path fill="none" stroke="midnightblue" d="M179.83,-57.86C165.98,-59.51 151.84,-61.19 138.68,-62.76"/>
<polygon fill="midnightblue" stroke="midnightblue" points="180.33,-61.32 189.85,-56.66 179.5,-54.37 180.33,-61.32"/>
</g>
<!-- Node4 -->
<g id="node4" class="node">
<title>Node4</title>
<g id="a_node4"><a xlink:href="../../d4/d8e/a01694.html#a0047bc5cd2ee14b1d3822a5969bc0502" target="_top" xlink:title=" ">
<polygon fill="none" stroke="black" points="0,-11 0,-41 154,-41 154,-11 0,-11"/>
<text text-anchor="start" x="8" y="-29" font-family="Helvetica,sans-Serif" font-size="10.00">com.cliffc.aa.node.TestNode</text>
<text text-anchor="middle" x="77" y="-18" font-family="Helvetica,sans-Serif" font-size="10.00">Small.testRecursiveDisplay</text>
</a>
</g>
</g>
<!-- Node2&#45;&gt;Node4 -->
<g id="edge3" class="edge">
<title>Node2&#45;&gt;Node4</title>
<path fill="none" stroke="midnightblue" d="M179.89,-38.15C171.35,-37.13 162.7,-36.1 154.23,-35.09"/>
<polygon fill="midnightblue" stroke="midnightblue" points="179.5,-41.63 189.85,-39.34 180.33,-34.68 179.5,-41.63"/>
</g>
</g>
</svg>
