<?xml version="1.0" encoding="UTF-8" standalone="no"?>
<!DOCTYPE svg PUBLIC "-//W3C//DTD SVG 1.1//EN"
 "http://www.w3.org/Graphics/SVG/1.1/DTD/svg11.dtd">
<!-- Generated by graphviz version 2.43.0 (0)
 -->
<!-- Title: com.cliffc.aa.node.FunNode.names Pages: 1 -->
<svg width="1033pt" height="215pt"
 viewBox="0.00 0.00 1033.00 214.50" xmlns="http://www.w3.org/2000/svg" xmlns:xlink="http://www.w3.org/1999/xlink">
<g id="graph0" class="graph" transform="scale(1 1) rotate(0) translate(4 210.5)">
<title>com.cliffc.aa.node.FunNode.names</title>
<!-- Node1 -->
<g id="node1" class="node">
<title>Node1</title>
<g id="a_node1"><a xlink:title=" ">
<polygon fill="#bfbfbf" stroke="black" points="837,-88.5 837,-107.5 1025,-107.5 1025,-88.5 837,-88.5"/>
<text text-anchor="middle" x="931" y="-95.5" font-family="Helvetica,sans-Serif" font-size="10.00">com.cliffc.aa.node.FunNode.names</text>
</a>
</g>
</g>
<!-- Node2 -->
<g id="node2" class="node">
<title>Node2</title>
<g id="a_node2"><a xlink:href="../../d8/d7b/a01478.html#aed86dbc3d6b3ad877c074eea238219eb" target="_top" xlink:title=" ">
<polygon fill="none" stroke="black" points="655,-83 655,-113 801,-113 801,-83 655,-83"/>
<text text-anchor="start" x="663" y="-101" font-family="Helvetica,sans-Serif" font-size="10.00">com.cliffc.aa.type.TypeFun</text>
<text text-anchor="middle" x="728" y="-90" font-family="Helvetica,sans-Serif" font-size="10.00">Ptr.names</text>
</a>
</g>
</g>
<!-- Node1&#45;&gt;Node2 -->
<g id="edge1" class="edge">
<title>Node1&#45;&gt;Node2</title>
<path fill="none" stroke="midnightblue" d="M826.7,-98C818.05,-98 809.42,-98 801.08,-98"/>
<polygon fill="midnightblue" stroke="midnightblue" points="826.86,-101.5 836.85,-98 826.85,-94.5 826.86,-101.5"/>
</g>
<!-- Node3 -->
<g id="node3" class="node">
<title>Node3</title>
<g id="a_node3"><a xlink:href="../../d0/d2b/a01010.html#a36a8626bf90bfda234be1168d92b67f3" target="_top" xlink:title=" ">
<polygon fill="none" stroke="black" points="449,-88.5 449,-107.5 619,-107.5 619,-88.5 449,-88.5"/>
<text text-anchor="middle" x="534" y="-95.5" font-family="Helvetica,sans-Serif" font-size="10.00">com.cliffc.aa.node.CallNode.err</text>
</a>
</g>
</g>
<!-- Node2&#45;&gt;Node3 -->
<g id="edge2" class="edge">
<title>Node2&#45;&gt;Node3</title>
<path fill="none" stroke="midnightblue" d="M644.7,-98C636.22,-98 627.58,-98 619.08,-98"/>
<polygon fill="midnightblue" stroke="midnightblue" points="644.96,-101.5 654.96,-98 644.96,-94.5 644.96,-101.5"/>
</g>
<!-- Node4 -->
<g id="node4" class="node">
<title>Node4</title>
<g id="a_node4"><a xlink:href="../../d0/d2b/a01010.html#a042f1a0b299eddc17b23da554e088150" target="_top" xlink:title=" ">
<polygon fill="none" stroke="black" points="227.5,-176 227.5,-206 401.5,-206 401.5,-176 227.5,-176"/>
<text text-anchor="start" x="235.5" y="-194" font-family="Helvetica,sans-Serif" font-size="10.00">com.cliffc.aa.node.CallNode.add</text>
<text text-anchor="middle" x="314.5" y="-183" font-family="Helvetica,sans-Serif" font-size="10.00">_flow_extra</text>
</a>
</g>
</g>
<!-- Node3&#45;&gt;Node4 -->
<g id="edge3" class="edge">
<title>Node3&#45;&gt;Node4</title>
<path fill="none" stroke="midnightblue" d="M510.77,-113.34C487.38,-128.85 449.03,-152.54 413,-167 404.59,-170.38 395.57,-173.37 386.54,-176"/>
<polygon fill="midnightblue" stroke="midnightblue" points="512.9,-116.12 519.25,-107.64 509,-110.31 512.9,-116.12"/>
</g>
<!-- Node5 -->
<g id="node5" class="node">
<title>Node5</title>
<g id="a_node5"><a xlink:href="../../d0/d2b/a01010.html#a9b26fb38a1bb993fff7dbc4250f2ad5d" target="_top" xlink:title=" ">
<polygon fill="none" stroke="black" points="227.5,-127 227.5,-157 401.5,-157 401.5,-127 227.5,-127"/>
<text text-anchor="start" x="235.5" y="-145" font-family="Helvetica,sans-Serif" font-size="10.00">com.cliffc.aa.node.CallNode.add</text>
<text text-anchor="middle" x="314.5" y="-134" font-family="Helvetica,sans-Serif" font-size="10.00">_flow_use_extra</text>
</a>
</g>
</g>
<!-- Node3&#45;&gt;Node5 -->
<g id="edge4" class="edge">
<title>Node3&#45;&gt;Node5</title>
<path fill="none" stroke="midnightblue" d="M476,-109.53C449.7,-114.85 418.13,-121.24 389.97,-126.93"/>
<polygon fill="midnightblue" stroke="midnightblue" points="476.7,-112.96 485.81,-107.55 475.31,-106.1 476.7,-112.96"/>
</g>
<!-- Node6 -->
<g id="node6" class="node">
<title>Node6</title>
<g id="a_node6"><a xlink:href="../../d0/d2b/a01010.html#aef07a2283d73f9f60f0215af08389efb" target="_top" xlink:title=" ">
<polygon fill="none" stroke="black" points="0,-105 0,-135 180,-135 180,-105 0,-105"/>
<text text-anchor="start" x="8" y="-123" font-family="Helvetica,sans-Serif" font-size="10.00">com.cliffc.aa.node.CallNode.ideal</text>
<text text-anchor="middle" x="90" y="-112" font-family="Helvetica,sans-Serif" font-size="10.00">_reduce</text>
</a>
</g>
</g>
<!-- Node3&#45;&gt;Node6 -->
<g id="edge7" class="edge">
<title>Node3&#45;&gt;Node6</title>
<path fill="none" stroke="midnightblue" d="M438.71,-102.69C362.25,-106.5 255.23,-111.83 180.17,-115.56"/>
<polygon fill="midnightblue" stroke="midnightblue" points="439.01,-106.18 448.82,-102.19 438.66,-99.19 439.01,-106.18"/>
</g>
<!-- Node7 -->
<g id="node7" class="node">
<title>Node7</title>
<g id="a_node7"><a xlink:href="../../dc/d81/a01006.html#a2fc8d45a36328634008e89d520cfb885" target="_top" xlink:title=" ">
<polygon fill="none" stroke="black" points="243,-39 243,-69 386,-69 386,-39 243,-39"/>
<text text-anchor="start" x="251" y="-57" font-family="Helvetica,sans-Serif" font-size="10.00">com.cliffc.aa.node.CallEpi</text>
<text text-anchor="middle" x="314.5" y="-46" font-family="Helvetica,sans-Serif" font-size="10.00">Node.ideal_reduce</text>
</a>
</g>
</g>
<!-- Node3&#45;&gt;Node7 -->
<g id="edge6" class="edge">
<title>Node3&#45;&gt;Node7</title>
<path fill="none" stroke="midnightblue" d="M475.96,-86.46C448.47,-80.9 415.24,-74.18 386.17,-68.3"/>
<polygon fill="midnightblue" stroke="midnightblue" points="475.31,-89.9 485.81,-88.45 476.7,-83.04 475.31,-89.9"/>
</g>
<!-- Node8 -->
<g id="node8" class="node">
<title>Node8</title>
<g id="a_node8"><a xlink:href="../../d0/d2b/a01010.html#a21fa6d626c9b5de9200143339540c864" target="_top" xlink:title=" ">
<polygon fill="none" stroke="black" points="216,-0.5 216,-19.5 413,-19.5 413,-0.5 216,-0.5"/>
<text text-anchor="middle" x="314.5" y="-7.5" font-family="Helvetica,sans-Serif" font-size="10.00">com.cliffc.aa.node.CallNode.live_use</text>
</a>
</g>
</g>
<!-- Node3&#45;&gt;Node8 -->
<g id="edge8" class="edge">
<title>Node3&#45;&gt;Node8</title>
<path fill="none" stroke="midnightblue" d="M510.84,-82.61C487.52,-67.11 449.22,-43.59 413,-30 401.59,-25.72 389.08,-22.28 376.92,-19.54"/>
<polygon fill="midnightblue" stroke="midnightblue" points="509.05,-85.63 519.3,-88.32 512.97,-79.83 509.05,-85.63"/>
</g>
<!-- Node5&#45;&gt;Node6 -->
<g id="edge5" class="edge">
<title>Node5&#45;&gt;Node6</title>
<path fill="none" stroke="midnightblue" d="M217.2,-132.48C204.88,-131.26 192.31,-130.02 180.11,-128.81"/>
<polygon fill="midnightblue" stroke="midnightblue" points="217.18,-135.99 227.48,-133.49 217.87,-129.03 217.18,-135.99"/>
</g>
</g>
</svg>
