<?xml version="1.0" encoding="UTF-8" standalone="no"?>
<!DOCTYPE svg PUBLIC "-//W3C//DTD SVG 1.1//EN"
 "http://www.w3.org/Graphics/SVG/1.1/DTD/svg11.dtd">
<!-- Generated by graphviz version 2.43.0 (0)
 -->
<!-- Title: com.cliffc.aa.node.FunNode.xstr Pages: 1 -->
<svg width="399pt" height="46pt"
 viewBox="0.00 0.00 399.00 46.00" xmlns="http://www.w3.org/2000/svg" xmlns:xlink="http://www.w3.org/1999/xlink">
<g id="graph0" class="graph" transform="scale(1 1) rotate(0) translate(4 42)">
<title>com.cliffc.aa.node.FunNode.xstr</title>
<!-- Node1 -->
<g id="node1" class="node">
<title>Node1</title>
<g id="a_node1"><a xlink:title=" ">
<polygon fill="#bfbfbf" stroke="black" points="0,-0.5 0,-19.5 173,-19.5 173,-0.5 0,-0.5"/>
<text text-anchor="middle" x="86.5" y="-7.5" font-family="Helvetica,sans-Serif" font-size="10.00">com.cliffc.aa.node.FunNode.xstr</text>
</a>
</g>
</g>
<!-- Node2 -->
<g id="node2" class="node">
<title>Node2</title>
<g id="a_node2"><a xlink:href="../../d9/d8e/a01050.html#a3b40a3568f3e006072d10980d7820de6" target="_top" xlink:title=" ">
<polygon fill="none" stroke="black" points="209,-0.5 209,-19.5 391,-19.5 391,-0.5 209,-0.5"/>
<text text-anchor="middle" x="300" y="-7.5" font-family="Helvetica,sans-Serif" font-size="10.00">com.cliffc.aa.node.FunNode.name</text>
</a>
</g>
</g>
<!-- Node1&#45;&gt;Node2 -->
<g id="edge1" class="edge">
<title>Node1&#45;&gt;Node2</title>
<path fill="none" stroke="midnightblue" d="M173.22,-10C181.52,-10 190,-10 198.43,-10"/>
<polygon fill="midnightblue" stroke="midnightblue" points="198.68,-13.5 208.68,-10 198.68,-6.5 198.68,-13.5"/>
</g>
<!-- Node2&#45;&gt;Node2 -->
<g id="edge2" class="edge">
<title>Node2&#45;&gt;Node2</title>
<path fill="none" stroke="midnightblue" d="M267.59,-19.61C251.31,-28.46 262.11,-38 300,-38 327.82,-38 341.04,-32.86 339.65,-26.62"/>
<polygon fill="midnightblue" stroke="midnightblue" points="342.03,-24.05 332.41,-19.61 337.16,-29.08 342.03,-24.05"/>
</g>
</g>
</svg>
