<?xml version="1.0" encoding="UTF-8" standalone="no"?>
<!DOCTYPE svg PUBLIC "-//W3C//DTD SVG 1.1//EN"
 "http://www.w3.org/Graphics/SVG/1.1/DTD/svg11.dtd">
<!-- Generated by graphviz version 2.43.0 (0)
 -->
<!-- Title: com.cliffc.aa.node.FunNode.set_is_copy Pages: 1 -->
<!--zoomable 208 -->
<svg id="main" version="1.1" xmlns="http://www.w3.org/2000/svg" xmlns:xlink="http://www.w3.org/1999/xlink" xml:space="preserve" onload="init(evt)">
<style type="text/css"><![CDATA[
.edge:hover path { stroke: red; }
.edge:hover polygon { stroke: red; fill: red; }
]]></style>
<script type="text/javascript"><![CDATA[
var edges = document.getElementsByTagName('g');
if (edges && edges.length) {
  for (var i=0;i<edges.length;i++) {
    if (edges[i].id.substr(0,4)=='edge') {
      edges[i].setAttribute('class','edge');
    }
  }
}
]]></script>
        <defs>
                <circle id="rim" cx="0" cy="0" r="7"/>
                <circle id="rim2" cx="0" cy="0" r="3.5"/>
                <g id="zoomPlus">
                        <use xlink:href="#rim" fill="#404040">
                                <set attributeName="fill" to="#808080" begin="zoomplus.mouseover" end="zoomplus.mouseout"/>
                        </use>
                        <path d="M-4,0h8M0,-4v8" fill="none" stroke="white" stroke-width="1.5" pointer-events="none"/>
                </g>
                <g id="zoomMin">
                        <use xlink:href="#rim" fill="#404040">
                                <set attributeName="fill" to="#808080" begin="zoomminus.mouseover" end="zoomminus.mouseout"/>
                        </use>
                        <path d="M-4,0h8" fill="none" stroke="white" stroke-width="1.5" pointer-events="none"/>
                </g>
                <g id="dirArrow">
                        <path fill="none" stroke="white" stroke-width="1.5" d="M0,-3.0v7 M-2.5,-0.5L0,-3.0L2.5,-0.5"/>
                </g>
               <g id="resetDef">
                       <use xlink:href="#rim2" fill="#404040">
                               <set attributeName="fill" to="#808080" begin="reset.mouseover" end="reset.mouseout"/>
                       </use>
               </g>
        </defs>

<script type="text/javascript">
var viewWidth = 1627;
var viewHeight = 208;
var sectionId = 'dynsection-142';
</script>
<script xlink:href="../../svgpan.js"/>
<svg id="graph" class="graph">
<g id="viewport">
<title>com.cliffc.aa.node.FunNode.set_is_copy</title>
<!-- Node1 -->
<g id="node1" class="node">
<title>Node1</title>
<g id="a_node1"><a xlink:title=" ">
<polygon fill="#bfbfbf" stroke="black" points="0,-111 0,-141 170,-141 170,-111 0,-111"/>
<text text-anchor="start" x="8" y="-129" font-family="Helvetica,sans-Serif" font-size="10.00">com.cliffc.aa.node.FunNode.set</text>
<text text-anchor="middle" x="85" y="-118" font-family="Helvetica,sans-Serif" font-size="10.00">_is_copy</text>
</a>
</g>
</g>
<!-- Node2 -->
<g id="node2" class="node">
<title>Node2</title>
<g id="a_node2"><a xlink:href="../../d9/d0a/a00390.html#ad9150cbf4b121b155487a1d7665f3922" target="_top" xlink:title=" ">
<polygon fill="none" stroke="black" points="218.5,-145 218.5,-175 366.5,-175 366.5,-145 218.5,-145"/>
<text text-anchor="start" x="226.5" y="-163" font-family="Helvetica,sans-Serif" font-size="10.00">com.cliffc.aa.GVNGCM.add</text>
<text text-anchor="middle" x="292.5" y="-152" font-family="Helvetica,sans-Serif" font-size="10.00">_reduce_uses</text>
</a>
</g>
</g>
<!-- Node1&#45;&gt;Node2 -->
<g id="edge1" class="edge">
<title>Node1&#45;&gt;Node2</title>
<path fill="none" stroke="midnightblue" d="M170.18,-139.93C182.77,-142.01 195.75,-144.16 208.33,-146.24"/>
<polygon fill="midnightblue" stroke="midnightblue" points="207.87,-149.71 218.31,-147.89 209.01,-142.8 207.87,-149.71"/>
</g>
<!-- Node7 -->
<g id="node7" class="node">
<title>Node7</title>
<g id="a_node7"><a xlink:href="../../df/db5/a01158.html#a76827313ea74c03a0d11a9cbf9e11c6e" target="_top" xlink:title=" ">
<polygon fill="none" stroke="black" points="206,-94.5 206,-113.5 379,-113.5 379,-94.5 206,-94.5"/>
<text text-anchor="middle" x="292.5" y="-101.5" font-family="Helvetica,sans-Serif" font-size="10.00">com.cliffc.aa.node.Node.set_def</text>
</a>
</g>
</g>
<!-- Node1&#45;&gt;Node7 -->
<g id="edge6" class="edge">
<title>Node1&#45;&gt;Node7</title>
<path fill="none" stroke="midnightblue" d="M170.18,-116.99C178.62,-116.08 187.24,-115.16 195.79,-114.25"/>
<polygon fill="midnightblue" stroke="midnightblue" points="196.22,-117.72 205.79,-113.18 195.47,-110.76 196.22,-117.72"/>
</g>
<!-- Node3 -->
<g id="node3" class="node">
<title>Node3</title>
<g id="a_node3"><a xlink:href="../../d9/d0a/a00390.html#aa4af00d73c9e87a3a5723f8dca5a4415" target="_top" xlink:title=" ">
<polygon fill="none" stroke="black" points="424.5,-169 424.5,-199 572.5,-199 572.5,-169 424.5,-169"/>
<text text-anchor="start" x="432.5" y="-187" font-family="Helvetica,sans-Serif" font-size="10.00">com.cliffc.aa.GVNGCM.add</text>
<text text-anchor="middle" x="498.5" y="-176" font-family="Helvetica,sans-Serif" font-size="10.00">_work_uses</text>
</a>
</g>
</g>
<!-- Node2&#45;&gt;Node3 -->
<g id="edge2" class="edge">
<title>Node2&#45;&gt;Node3</title>
<path fill="none" stroke="midnightblue" d="M366.57,-168.6C381.95,-170.41 398.29,-172.33 414.02,-174.18"/>
<polygon fill="midnightblue" stroke="midnightblue" points="413.91,-177.69 424.25,-175.38 414.73,-170.74 413.91,-177.69"/>
</g>
<!-- Node4 -->
<g id="node4" class="node">
<title>Node4</title>
<g id="a_node4"><a xlink:href="../../d9/d0a/a00390.html#a6074ca566ae10e746122ac8d09239d02" target="_top" xlink:title=" ">
<polygon fill="none" stroke="black" points="1057,-107.5 1057,-126.5 1234,-126.5 1234,-107.5 1057,-107.5"/>
<text text-anchor="middle" x="1145.5" y="-114.5" font-family="Helvetica,sans-Serif" font-size="10.00">com.cliffc.aa.GVNGCM.add_work</text>
</a>
</g>
</g>
<!-- Node3&#45;&gt;Node4 -->
<g id="edge3" class="edge">
<title>Node3&#45;&gt;Node4</title>
<path fill="none" stroke="midnightblue" d="M572.78,-185.93C674.36,-187.24 863.29,-184.78 1021,-155 1051.61,-149.22 1085.35,-138.53 1109.82,-129.96"/>
<polygon fill="midnightblue" stroke="midnightblue" points="1111.13,-133.21 1119.37,-126.55 1108.78,-126.61 1111.13,-133.21"/>
</g>
<!-- Node5 -->
<g id="node5" class="node">
<title>Node5</title>
<g id="a_node5"><a xlink:href="../../d6/d2f/a01394.html#acc21c59313a6ce5c286431fd2d4fd891" target="_top" xlink:title=" ">
<polygon fill="none" stroke="black" points="1270,-107.5 1270,-126.5 1425,-126.5 1425,-107.5 1270,-107.5"/>
<text text-anchor="middle" x="1347.5" y="-114.5" font-family="Helvetica,sans-Serif" font-size="10.00">com.cliffc.aa.node.Work.add</text>
</a>
</g>
</g>
<!-- Node4&#45;&gt;Node5 -->
<g id="edge4" class="edge">
<title>Node4&#45;&gt;Node5</title>
<path fill="none" stroke="midnightblue" d="M1234.22,-117C1242.65,-117 1251.2,-117 1259.63,-117"/>
<polygon fill="midnightblue" stroke="midnightblue" points="1259.82,-120.5 1269.82,-117 1259.82,-113.5 1259.82,-120.5"/>
</g>
<!-- Node6 -->
<g id="node6" class="node">
<title>Node6</title>
<g id="a_node6"><a xlink:href="../../df/dee/a01646.html#a88ad20daf92e92fe0e3925b23c4fecf0" target="_top" xlink:title=" ">
<polygon fill="none" stroke="black" points="1461,-107.5 1461,-126.5 1619,-126.5 1619,-107.5 1461,-107.5"/>
<text text-anchor="middle" x="1540" y="-114.5" font-family="Helvetica,sans-Serif" font-size="10.00">com.cliffc.aa.util.VBitSet.tset</text>
</a>
</g>
</g>
<!-- Node5&#45;&gt;Node6 -->
<g id="edge5" class="edge">
<title>Node5&#45;&gt;Node6</title>
<path fill="none" stroke="midnightblue" d="M1425.16,-117C1433.63,-117 1442.31,-117 1450.9,-117"/>
<polygon fill="midnightblue" stroke="midnightblue" points="1450.94,-120.5 1460.94,-117 1450.94,-113.5 1450.94,-120.5"/>
</g>
<!-- Node8 -->
<g id="node8" class="node">
<title>Node8</title>
<g id="a_node8"><a xlink:href="../../df/db5/a01158.html#abd1ef05754be5fb96db69e3bd0a0a8bd" target="_top" xlink:title=" ">
<polygon fill="none" stroke="black" points="618,-44.5 618,-63.5 794,-63.5 794,-44.5 618,-44.5"/>
<text text-anchor="middle" x="706" y="-51.5" font-family="Helvetica,sans-Serif" font-size="10.00">com.cliffc.aa.node.Node.unelock</text>
</a>
</g>
</g>
<!-- Node7&#45;&gt;Node8 -->
<g id="edge7" class="edge">
<title>Node7&#45;&gt;Node8</title>
<path fill="none" stroke="midnightblue" d="M350.59,-94.49C370.89,-91.26 393.94,-87.77 415,-85 479.17,-76.56 551.56,-68.82 607.96,-63.18"/>
<polygon fill="midnightblue" stroke="midnightblue" points="608.34,-66.66 617.94,-62.19 607.65,-59.7 608.34,-66.66"/>
</g>
<!-- Node12 -->
<g id="node12" class="node">
<title>Node12</title>
<g id="a_node12"><a xlink:href="../../df/db5/a01158.html#a284c9a1217237d2f3eede517b6a33aa4" target="_top" xlink:title=" ">
<polygon fill="none" stroke="black" points="415,-94.5 415,-113.5 582,-113.5 582,-94.5 415,-94.5"/>
<text text-anchor="middle" x="498.5" y="-101.5" font-family="Helvetica,sans-Serif" font-size="10.00">com.cliffc.aa.node.Node.unuse</text>
</a>
</g>
</g>
<!-- Node7&#45;&gt;Node12 -->
<g id="edge13" class="edge">
<title>Node7&#45;&gt;Node12</title>
<path fill="none" stroke="midnightblue" d="M379.13,-104C387.5,-104 396.02,-104 404.46,-104"/>
<polygon fill="midnightblue" stroke="midnightblue" points="404.7,-107.5 414.7,-104 404.7,-100.5 404.7,-107.5"/>
</g>
<!-- Node9 -->
<g id="node9" class="node">
<title>Node9</title>
<g id="a_node9"><a xlink:href="../../d9/d0a/a00390.html#a195b2b7d0b8f0f1770422573c2cc22ff" target="_top" xlink:title=" ">
<polygon fill="none" stroke="black" points="839,-88.5 839,-107.5 1012,-107.5 1012,-88.5 839,-88.5"/>
<text text-anchor="middle" x="925.5" y="-95.5" font-family="Helvetica,sans-Serif" font-size="10.00">com.cliffc.aa.GVNGCM.add_flow</text>
</a>
</g>
</g>
<!-- Node8&#45;&gt;Node9 -->
<g id="edge8" class="edge">
<title>Node8&#45;&gt;Node9</title>
<path fill="none" stroke="midnightblue" d="M754.19,-63.55C787.4,-70.26 832.02,-79.29 867.26,-86.42"/>
<polygon fill="midnightblue" stroke="midnightblue" points="866.9,-89.92 877.4,-88.47 868.29,-83.06 866.9,-89.92"/>
</g>
<!-- Node10 -->
<g id="node10" class="node">
<title>Node10</title>
<g id="a_node10"><a xlink:href="../../d9/d0a/a00390.html#ad52b88a21b47c661e6f6a3bcfdbb3576" target="_top" xlink:title=" ">
<polygon fill="none" stroke="black" points="851.5,-39 851.5,-69 999.5,-69 999.5,-39 851.5,-39"/>
<text text-anchor="start" x="859.5" y="-57" font-family="Helvetica,sans-Serif" font-size="10.00">com.cliffc.aa.GVNGCM.add</text>
<text text-anchor="middle" x="925.5" y="-46" font-family="Helvetica,sans-Serif" font-size="10.00">_reduce</text>
</a>
</g>
</g>
<!-- Node8&#45;&gt;Node10 -->
<g id="edge10" class="edge">
<title>Node8&#45;&gt;Node10</title>
<path fill="none" stroke="midnightblue" d="M794.21,-54C809.72,-54 825.84,-54 841.24,-54"/>
<polygon fill="midnightblue" stroke="midnightblue" points="841.24,-57.5 851.24,-54 841.24,-50.5 841.24,-57.5"/>
</g>
<!-- Node11 -->
<g id="node11" class="node">
<title>Node11</title>
<g id="a_node11"><a xlink:href="../../df/db5/a01158.html#abcbaaf7e990f5a12a68e91a70af8fb7e" target="_top" xlink:title=" ">
<polygon fill="none" stroke="black" points="830,-0.5 830,-19.5 1021,-19.5 1021,-0.5 830,-0.5"/>
<text text-anchor="middle" x="925.5" y="-7.5" font-family="Helvetica,sans-Serif" font-size="10.00">com.cliffc.aa.node.Node.check_vals</text>
</a>
</g>
</g>
<!-- Node8&#45;&gt;Node11 -->
<g id="edge12" class="edge">
<title>Node8&#45;&gt;Node11</title>
<path fill="none" stroke="midnightblue" d="M753.72,-44.48C776.69,-39.8 804.8,-34.09 830,-29 841.92,-26.59 854.68,-24.02 866.85,-21.57"/>
<polygon fill="midnightblue" stroke="midnightblue" points="867.79,-24.95 876.91,-19.55 866.41,-18.09 867.79,-24.95"/>
</g>
<!-- Node9&#45;&gt;Node4 -->
<g id="edge9" class="edge">
<title>Node9&#45;&gt;Node4</title>
<path fill="none" stroke="midnightblue" d="M1012.03,-105.45C1023.38,-106.44 1035.09,-107.46 1046.62,-108.47"/>
<polygon fill="midnightblue" stroke="midnightblue" points="1046.44,-111.97 1056.7,-109.35 1047.05,-104.99 1046.44,-111.97"/>
</g>
<!-- Node10&#45;&gt;Node4 -->
<g id="edge11" class="edge">
<title>Node10&#45;&gt;Node4</title>
<path fill="none" stroke="midnightblue" d="M984.82,-69.04C996.81,-72.24 1009.33,-75.66 1021,-79 1049.25,-87.08 1080.91,-96.84 1105.11,-104.44"/>
<polygon fill="midnightblue" stroke="midnightblue" points="1104.06,-107.78 1114.65,-107.45 1106.17,-101.11 1104.06,-107.78"/>
</g>
<!-- Node13 -->
<g id="node13" class="node">
<title>Node13</title>
<g id="a_node13"><a xlink:href="../../df/db5/a01158.html#a4c43a2abe5004ef2cf98b07a01500a1f" target="_top" xlink:title=" ">
<polygon fill="none" stroke="black" points="628.5,-132 628.5,-162 783.5,-162 783.5,-132 628.5,-132"/>
<text text-anchor="start" x="636.5" y="-150" font-family="Helvetica,sans-Serif" font-size="10.00">com.cliffc.aa.node.Node.add</text>
<text text-anchor="middle" x="706" y="-139" font-family="Helvetica,sans-Serif" font-size="10.00">_flow_def_extra</text>
</a>
</g>
</g>
<!-- Node12&#45;&gt;Node13 -->
<g id="edge14" class="edge">
<title>Node12&#45;&gt;Node13</title>
<path fill="none" stroke="midnightblue" d="M545.11,-113.54C568.07,-118.35 596.61,-124.32 623.2,-129.88"/>
<polygon fill="midnightblue" stroke="midnightblue" points="622.78,-133.37 633.28,-131.99 624.21,-126.52 622.78,-133.37"/>
</g>
<!-- Node14 -->
<g id="node14" class="node">
<title>Node14</title>
<g id="a_node14"><a xlink:href="../../d9/d0a/a00390.html#a4a612bae4153eff084e4fe1d0049987c" target="_top" xlink:title=" ">
<polygon fill="none" stroke="black" points="632,-83 632,-113 780,-113 780,-83 632,-83"/>
<text text-anchor="start" x="640" y="-101" font-family="Helvetica,sans-Serif" font-size="10.00">com.cliffc.aa.GVNGCM.add</text>
<text text-anchor="middle" x="706" y="-90" font-family="Helvetica,sans-Serif" font-size="10.00">_unuse</text>
</a>
</g>
</g>
<!-- Node12&#45;&gt;Node14 -->
<g id="edge15" class="edge">
<title>Node12&#45;&gt;Node14</title>
<path fill="none" stroke="midnightblue" d="M582.2,-101.59C595.13,-101.21 608.51,-100.82 621.47,-100.44"/>
<polygon fill="midnightblue" stroke="midnightblue" points="621.86,-103.93 631.75,-100.14 621.65,-96.93 621.86,-103.93"/>
</g>
<!-- Node14&#45;&gt;Node9 -->
<g id="edge18" class="edge">
<title>Node14&#45;&gt;Node9</title>
<path fill="none" stroke="midnightblue" d="M780.03,-98C795.67,-98 812.41,-98 828.76,-98"/>
<polygon fill="midnightblue" stroke="midnightblue" points="828.87,-101.5 838.87,-98 828.87,-94.5 828.87,-101.5"/>
</g>
<!-- Node14&#45;&gt;Node10 -->
<g id="edge19" class="edge">
<title>Node14&#45;&gt;Node10</title>
<path fill="none" stroke="midnightblue" d="M780.03,-83.23C799.76,-79.24 821.25,-74.89 841.48,-70.8"/>
<polygon fill="midnightblue" stroke="midnightblue" points="842.19,-74.22 851.29,-68.81 840.8,-67.36 842.19,-74.22"/>
</g>
<!-- Node15 -->
<g id="node15" class="node">
<title>Node15</title>
<g id="a_node15"><a xlink:href="../../d9/d0a/a00390.html#af23b6c0debccdb7104dea273b231c716" target="_top" xlink:title=" ">
<polygon fill="none" stroke="black" points="837,-126.5 837,-145.5 1014,-145.5 1014,-126.5 837,-126.5"/>
<text text-anchor="middle" x="925.5" y="-133.5" font-family="Helvetica,sans-Serif" font-size="10.00">com.cliffc.aa.GVNGCM.add_dead</text>
</a>
</g>
</g>
<!-- Node14&#45;&gt;Node15 -->
<g id="edge16" class="edge">
<title>Node14&#45;&gt;Node15</title>
<path fill="none" stroke="midnightblue" d="M780.03,-110.76C805.84,-115.27 834.68,-120.31 859.76,-124.69"/>
<polygon fill="midnightblue" stroke="midnightblue" points="859.44,-128.19 869.89,-126.46 860.65,-121.29 859.44,-128.19"/>
</g>
<!-- Node15&#45;&gt;Node4 -->
<g id="edge17" class="edge">
<title>Node15&#45;&gt;Node4</title>
<path fill="none" stroke="midnightblue" d="M1014.23,-128.35C1025.01,-127.41 1036.07,-126.45 1046.99,-125.5"/>
<polygon fill="midnightblue" stroke="midnightblue" points="1047.29,-128.99 1056.95,-124.63 1046.69,-122.01 1047.29,-128.99"/>
</g>
</g>
</svg>
        <g id="navigator" transform="translate(0 0)" fill="#404254">
                <rect fill="#f2f5e9" fill-opacity="0.5" stroke="#606060" stroke-width=".5" x="0" y="0" width="60" height="60"/>
                <use id="zoomplus" xlink:href="#zoomPlus" x="17" y="9" onmousedown="handleZoom(evt,'in')"/>
                <use id="zoomminus" xlink:href="#zoomMin" x="42" y="9" onmousedown="handleZoom(evt,'out')"/>
                <use id="reset" xlink:href="#resetDef" x="30" y="36" onmousedown="handleReset()"/>
                <g id="arrowUp" xlink:href="#dirArrow" transform="translate(30 24)" onmousedown="handlePan(0,-1)">
                  <use xlink:href="#rim" fill="#404040">
                        <set attributeName="fill" to="#808080" begin="arrowUp.mouseover" end="arrowUp.mouseout"/>
                  </use>
                  <path fill="none" stroke="white" stroke-width="1.5" d="M0,-3.0v7 M-2.5,-0.5L0,-3.0L2.5,-0.5"/>
                </g>
                <g id="arrowRight" xlink:href="#dirArrow" transform="rotate(90) translate(36 -43)" onmousedown="handlePan(1,0)">
                  <use xlink:href="#rim" fill="#404040">
                        <set attributeName="fill" to="#808080" begin="arrowRight.mouseover" end="arrowRight.mouseout"/>
                  </use>
                  <path fill="none" stroke="white" stroke-width="1.5" d="M0,-3.0v7 M-2.5,-0.5L0,-3.0L2.5,-0.5"/>
                </g>
                <g id="arrowDown" xlink:href="#dirArrow" transform="rotate(180) translate(-30 -48)" onmousedown="handlePan(0,1)">
                  <use xlink:href="#rim" fill="#404040">
                        <set attributeName="fill" to="#808080" begin="arrowDown.mouseover" end="arrowDown.mouseout"/>
                  </use>
                  <path fill="none" stroke="white" stroke-width="1.5" d="M0,-3.0v7 M-2.5,-0.5L0,-3.0L2.5,-0.5"/>
                </g>
                <g id="arrowLeft" xlink:href="#dirArrow" transform="rotate(270) translate(-36 17)" onmousedown="handlePan(-1,0)">
                  <use xlink:href="#rim" fill="#404040">
                        <set attributeName="fill" to="#808080" begin="arrowLeft.mouseover" end="arrowLeft.mouseout"/>
                  </use>
                  <path fill="none" stroke="white" stroke-width="1.5" d="M0,-3.0v7 M-2.5,-0.5L0,-3.0L2.5,-0.5"/>
                </g>
        </g>
        <svg viewBox="0 0 15 15" width="100%" height="30px" preserveAspectRatio="xMaxYMin meet">
         <g id="arrow_out" transform="scale(0.3 0.3)">
          <a xlink:href="a01050_af1c4d2d40a5f0d355fea6c3c66664b77_cgraph_org.svg" target="_base">
           <rect id="button" ry="5" rx="5" y="6" x="6" height="38" width="38"
                fill="#f2f5e9" fill-opacity="0.5" stroke="#606060" stroke-width="1.0"/>
           <path id="arrow"
             d="M 11.500037,31.436501 C 11.940474,20.09759 22.043105,11.32322 32.158766,21.979434 L 37.068811,17.246167 C 37.068811,17.246167 37.088388,32 37.088388,32 L 22.160133,31.978069 C 22.160133,31.978069 26.997745,27.140456 26.997745,27.140456 C 18.528582,18.264221 13.291696,25.230495 11.500037,31.436501 z"
             style="fill:#404040;"/>
          </a>
         </g>
        </svg>
</svg>
