<?xml version="1.0" encoding="UTF-8" standalone="no"?>
<!DOCTYPE svg PUBLIC "-//W3C//DTD SVG 1.1//EN"
 "http://www.w3.org/Graphics/SVG/1.1/DTD/svg11.dtd">
<!-- Generated by graphviz version 2.43.0 (0)
 -->
<!-- Title: com.cliffc.aa.node.FunNode.formal Pages: 1 -->
<svg width="1106pt" height="277pt"
 viewBox="0.00 0.00 1106.00 276.87" xmlns="http://www.w3.org/2000/svg" xmlns:xlink="http://www.w3.org/1999/xlink">
<g id="graph0" class="graph" transform="scale(1 1) rotate(0) translate(4 272.87)">
<title>com.cliffc.aa.node.FunNode.formal</title>
<!-- Node1 -->
<g id="node1" class="node">
<title>Node1</title>
<g id="a_node1"><a xlink:title=" ">
<polygon fill="#bfbfbf" stroke="black" points="911,-107.26 911,-126.26 1098,-126.26 1098,-107.26 911,-107.26"/>
<text text-anchor="middle" x="1004.5" y="-114.26" font-family="Helvetica,sans-Serif" font-size="10.00">com.cliffc.aa.node.FunNode.formal</text>
</a>
</g>
</g>
<!-- Node2 -->
<g id="node2" class="node">
<title>Node2</title>
<g id="a_node2"><a xlink:href="../../d9/d8e/a01050.html#aa038d4beaa7fd44b452fc99d344ef115" target="_top" xlink:title=" ">
<polygon fill="none" stroke="black" points="682.5,-183.76 682.5,-213.76 855.5,-213.76 855.5,-183.76 682.5,-183.76"/>
<text text-anchor="start" x="690.5" y="-201.76" font-family="Helvetica,sans-Serif" font-size="10.00">com.cliffc.aa.node.FunNode.bad</text>
<text text-anchor="middle" x="769" y="-190.76" font-family="Helvetica,sans-Serif" font-size="10.00">_mem_use</text>
</a>
</g>
</g>
<!-- Node1&#45;&gt;Node2 -->
<g id="edge1" class="edge">
<title>Node1&#45;&gt;Node2</title>
<path fill="none" stroke="midnightblue" d="M975.66,-130.9C950.02,-143.49 910.68,-161.72 875,-173.76 864.17,-177.42 852.54,-180.75 841.1,-183.71"/>
<polygon fill="midnightblue" stroke="midnightblue" points="977.37,-133.96 984.78,-126.38 974.26,-127.69 977.37,-133.96"/>
</g>
<!-- Node6 -->
<g id="node6" class="node">
<title>Node6</title>
<g id="a_node6"><a xlink:href="../../d4/d8e/a01694.html#afbcb0c4f96772e2088bb558a8bc43c09" target="_top" xlink:title=" ">
<polygon fill="none" stroke="black" points="462,-85.76 462,-115.76 616,-115.76 616,-85.76 462,-85.76"/>
<text text-anchor="start" x="470" y="-103.76" font-family="Helvetica,sans-Serif" font-size="10.00">com.cliffc.aa.node.TestNode</text>
<text text-anchor="middle" x="539" y="-92.76" font-family="Helvetica,sans-Serif" font-size="10.00">Small.check</text>
</a>
</g>
</g>
<!-- Node1&#45;&gt;Node6 -->
<g id="edge5" class="edge">
<title>Node1&#45;&gt;Node6</title>
<path fill="none" stroke="midnightblue" d="M900.76,-113.22C814.65,-110.24 693.67,-106.07 616.05,-103.39"/>
<polygon fill="midnightblue" stroke="midnightblue" points="900.7,-116.72 910.82,-113.56 900.94,-109.72 900.7,-116.72"/>
</g>
<!-- Node8 -->
<g id="node8" class="node">
<title>Node8</title>
<g id="a_node8"><a xlink:href="../../d3/dc7/a01170.html#a2064728d0ff661c5f5e922990dc8fc1d" target="_top" xlink:title=" ">
<polygon fill="none" stroke="black" points="681,-145.26 681,-164.26 857,-164.26 857,-145.26 681,-145.26"/>
<text text-anchor="middle" x="769" y="-152.26" font-family="Helvetica,sans-Serif" font-size="10.00">com.cliffc.aa.node.ParmNode.err</text>
</a>
</g>
</g>
<!-- Node1&#45;&gt;Node8 -->
<g id="edge7" class="edge">
<title>Node1&#45;&gt;Node8</title>
<path fill="none" stroke="midnightblue" d="M934.65,-127.97C900.97,-133.45 860.85,-139.98 828.64,-145.22"/>
<polygon fill="midnightblue" stroke="midnightblue" points="935.57,-131.36 944.88,-126.3 934.45,-124.45 935.57,-131.36"/>
</g>
<!-- Node9 -->
<g id="node9" class="node">
<title>Node9</title>
<g id="a_node9"><a xlink:href="../../d9/d8e/a01050.html#a0ef60478ee30510481eb33dc87069b2a" target="_top" xlink:title=" ">
<polygon fill="none" stroke="black" points="451,-4.76 451,-34.76 627,-34.76 627,-4.76 451,-4.76"/>
<text text-anchor="start" x="459" y="-22.76" font-family="Helvetica,sans-Serif" font-size="10.00">com.cliffc.aa.node.FunNode.split</text>
<text text-anchor="middle" x="539" y="-11.76" font-family="Helvetica,sans-Serif" font-size="10.00">_callers</text>
</a>
</g>
</g>
<!-- Node1&#45;&gt;Node9 -->
<g id="edge8" class="edge">
<title>Node1&#45;&gt;Node9</title>
<path fill="none" stroke="midnightblue" d="M987.7,-99.68C965.24,-76.8 921.62,-37.28 875,-21.76 794.15,5.14 696.13,1.91 627.07,-5.78"/>
<polygon fill="midnightblue" stroke="midnightblue" points="985.28,-102.22 994.73,-107.01 990.33,-97.37 985.28,-102.22"/>
</g>
<!-- Node10 -->
<g id="node10" class="node">
<title>Node10</title>
<g id="a_node10"><a xlink:href="../../d9/d8e/a01050.html#adf7e908e6a0109e3d1c176cce2f0de50" target="_top" xlink:title=" ">
<polygon fill="none" stroke="black" points="215,-233.26 215,-252.26 415,-252.26 415,-233.26 215,-233.26"/>
<text text-anchor="middle" x="315" y="-240.26" font-family="Helvetica,sans-Serif" font-size="10.00">com.cliffc.aa.node.FunNode.split_size</text>
</a>
</g>
</g>
<!-- Node1&#45;&gt;Node10 -->
<g id="edge10" class="edge">
<title>Node1&#45;&gt;Node10</title>
<path fill="none" stroke="midnightblue" d="M989.37,-134.29C967.8,-159.52 923.99,-205.09 875,-223.76 701.01,-290.08 474.05,-267.71 371.08,-252.31"/>
<polygon fill="midnightblue" stroke="midnightblue" points="992.08,-136.5 995.81,-126.58 986.71,-132.01 992.08,-136.5"/>
</g>
<!-- Node11 -->
<g id="node11" class="node">
<title>Node11</title>
<g id="a_node11"><a xlink:href="../../d3/dc7/a01170.html#a0e2a0061cedc4d12fe668366132aaa30" target="_top" xlink:title=" ">
<polygon fill="none" stroke="black" points="663,-31.26 663,-50.26 875,-50.26 875,-31.26 663,-31.26"/>
<text text-anchor="middle" x="769" y="-38.26" font-family="Helvetica,sans-Serif" font-size="10.00">com.cliffc.aa.node.ParmNode.valid_args</text>
</a>
</g>
</g>
<!-- Node1&#45;&gt;Node11 -->
<g id="edge12" class="edge">
<title>Node1&#45;&gt;Node11</title>
<path fill="none" stroke="midnightblue" d="M976.69,-102.6C951.18,-89.68 911.41,-70.95 875,-59.76 862.69,-55.98 849.33,-52.85 836.39,-50.3"/>
<polygon fill="midnightblue" stroke="midnightblue" points="975.23,-105.79 985.72,-107.24 978.43,-99.56 975.23,-105.79"/>
</g>
<!-- Node12 -->
<g id="node12" class="node">
<title>Node12</title>
<g id="a_node12"><a xlink:href="../../d3/dc7/a01170.html#a3cceb726dadce8fe5331bb4dda33fd49" target="_top" xlink:title=" ">
<polygon fill="none" stroke="black" points="674.5,-69.26 674.5,-88.26 863.5,-88.26 863.5,-69.26 674.5,-69.26"/>
<text text-anchor="middle" x="769" y="-76.26" font-family="Helvetica,sans-Serif" font-size="10.00">com.cliffc.aa.node.ParmNode.value</text>
</a>
</g>
</g>
<!-- Node1&#45;&gt;Node12 -->
<g id="edge13" class="edge">
<title>Node1&#45;&gt;Node12</title>
<path fill="none" stroke="midnightblue" d="M934.65,-105.56C900.97,-100.08 860.85,-93.55 828.64,-88.31"/>
<polygon fill="midnightblue" stroke="midnightblue" points="934.45,-109.07 944.88,-107.22 935.57,-102.16 934.45,-109.07"/>
</g>
<!-- Node3 -->
<g id="node3" class="node">
<title>Node3</title>
<g id="a_node3"><a xlink:href="../../d9/d8e/a01050.html#a7fe990fde25f4075c65fdbe37e52299e" target="_top" xlink:title=" ">
<polygon fill="none" stroke="black" points="452.5,-183.76 452.5,-213.76 625.5,-213.76 625.5,-183.76 452.5,-183.76"/>
<text text-anchor="start" x="460.5" y="-201.76" font-family="Helvetica,sans-Serif" font-size="10.00">com.cliffc.aa.node.FunNode.find</text>
<text text-anchor="middle" x="539" y="-190.76" font-family="Helvetica,sans-Serif" font-size="10.00">_type_split</text>
</a>
</g>
</g>
<!-- Node2&#45;&gt;Node3 -->
<g id="edge2" class="edge">
<title>Node2&#45;&gt;Node3</title>
<path fill="none" stroke="midnightblue" d="M672.35,-198.76C656.85,-198.76 640.89,-198.76 625.65,-198.76"/>
<polygon fill="midnightblue" stroke="midnightblue" points="672.45,-202.26 682.45,-198.76 672.45,-195.26 672.45,-202.26"/>
</g>
<!-- Node4 -->
<g id="node4" class="node">
<title>Node4</title>
<g id="a_node4"><a xlink:href="../../d9/d8e/a01050.html#a6f5c3d4d19debe0bdd1e8ea0e15efe0b" target="_top" xlink:title=" ">
<polygon fill="none" stroke="black" points="227,-183.76 227,-213.76 403,-213.76 403,-183.76 227,-183.76"/>
<text text-anchor="start" x="235" y="-201.76" font-family="Helvetica,sans-Serif" font-size="10.00">com.cliffc.aa.node.FunNode.type</text>
<text text-anchor="middle" x="315" y="-190.76" font-family="Helvetica,sans-Serif" font-size="10.00">_special</text>
</a>
</g>
</g>
<!-- Node3&#45;&gt;Node4 -->
<g id="edge3" class="edge">
<title>Node3&#45;&gt;Node4</title>
<path fill="none" stroke="midnightblue" d="M442.2,-198.76C429.27,-198.76 416.07,-198.76 403.3,-198.76"/>
<polygon fill="midnightblue" stroke="midnightblue" points="442.49,-202.26 452.49,-198.76 442.49,-195.26 442.49,-202.26"/>
</g>
<!-- Node5 -->
<g id="node5" class="node">
<title>Node5</title>
<g id="a_node5"><a xlink:href="../../d9/d8e/a01050.html#a35a8d77a634141d969d902a346af2000" target="_top" xlink:title=" ">
<polygon fill="none" stroke="black" points="0,-183.76 0,-213.76 179,-213.76 179,-183.76 0,-183.76"/>
<text text-anchor="start" x="8" y="-201.76" font-family="Helvetica,sans-Serif" font-size="10.00">com.cliffc.aa.node.FunNode.ideal</text>
<text text-anchor="middle" x="89.5" y="-190.76" font-family="Helvetica,sans-Serif" font-size="10.00">_inline</text>
</a>
</g>
</g>
<!-- Node4&#45;&gt;Node5 -->
<g id="edge4" class="edge">
<title>Node4&#45;&gt;Node5</title>
<path fill="none" stroke="midnightblue" d="M216.94,-198.76C204.38,-198.76 191.57,-198.76 179.15,-198.76"/>
<polygon fill="midnightblue" stroke="midnightblue" points="216.95,-202.26 226.95,-198.76 216.95,-195.26 216.95,-202.26"/>
</g>
<!-- Node7 -->
<g id="node7" class="node">
<title>Node7</title>
<g id="a_node7"><a xlink:href="../../d4/d8e/a01694.html#acbdb74fbcbcaeb125e773a9efb441d41" target="_top" xlink:title=" ">
<polygon fill="none" stroke="black" points="238,-85.76 238,-115.76 392,-115.76 392,-85.76 238,-85.76"/>
<text text-anchor="start" x="246" y="-103.76" font-family="Helvetica,sans-Serif" font-size="10.00">com.cliffc.aa.node.TestNode</text>
<text text-anchor="middle" x="315" y="-92.76" font-family="Helvetica,sans-Serif" font-size="10.00">Small.testMemoryArgs</text>
</a>
</g>
</g>
<!-- Node6&#45;&gt;Node7 -->
<g id="edge6" class="edge">
<title>Node6&#45;&gt;Node7</title>
<path fill="none" stroke="midnightblue" d="M451.78,-100.76C432.19,-100.76 411.51,-100.76 392.37,-100.76"/>
<polygon fill="midnightblue" stroke="midnightblue" points="451.91,-104.26 461.91,-100.76 451.91,-97.26 451.91,-104.26"/>
</g>
<!-- Node9&#45;&gt;Node5 -->
<g id="edge9" class="edge">
<title>Node9&#45;&gt;Node5</title>
<path fill="none" stroke="midnightblue" d="M440.85,-21.96C374.1,-26.95 285.2,-40.66 215,-76.76 164.14,-102.92 120.52,-156.95 101.17,-183.44"/>
<polygon fill="midnightblue" stroke="midnightblue" points="441.21,-25.44 450.95,-21.25 440.73,-18.46 441.21,-25.44"/>
</g>
<!-- Node10&#45;&gt;Node5 -->
<g id="edge11" class="edge">
<title>Node10&#45;&gt;Node5</title>
<path fill="none" stroke="midnightblue" d="M253.77,-231.29C240.97,-228.83 227.53,-226.22 215,-223.76 198.78,-220.58 181.37,-217.11 164.87,-213.8"/>
<polygon fill="midnightblue" stroke="midnightblue" points="253.39,-234.78 263.87,-233.23 254.71,-227.91 253.39,-234.78"/>
</g>
<!-- Node12&#45;&gt;Node6 -->
<g id="edge14" class="edge">
<title>Node12&#45;&gt;Node6</title>
<path fill="none" stroke="midnightblue" d="M664.27,-88.77C648.13,-90.33 631.72,-91.91 616.33,-93.4"/>
<polygon fill="midnightblue" stroke="midnightblue" points="664.66,-92.25 674.28,-87.81 663.99,-85.28 664.66,-92.25"/>
</g>
</g>
</svg>
