<?xml version="1.0" encoding="UTF-8" standalone="no"?>
<!DOCTYPE svg PUBLIC "-//W3C//DTD SVG 1.1//EN"
 "http://www.w3.org/Graphics/SVG/1.1/DTD/svg11.dtd">
<!-- Generated by graphviz version 2.43.0 (0)
 -->
<!-- Title: com.cliffc.aa.HM.TestHM3.test03 Pages: 1 -->
<!--zoomable 408 -->
<svg id="main" version="1.1" xmlns="http://www.w3.org/2000/svg" xmlns:xlink="http://www.w3.org/1999/xlink" xml:space="preserve" onload="init(evt)">
<style type="text/css"><![CDATA[
.edge:hover path { stroke: red; }
.edge:hover polygon { stroke: red; fill: red; }
]]></style>
<script type="text/javascript"><![CDATA[
var edges = document.getElementsByTagName('g');
if (edges && edges.length) {
  for (var i=0;i<edges.length;i++) {
    if (edges[i].id.substr(0,4)=='edge') {
      edges[i].setAttribute('class','edge');
    }
  }
}
]]></script>
        <defs>
                <circle id="rim" cx="0" cy="0" r="7"/>
                <circle id="rim2" cx="0" cy="0" r="3.5"/>
                <g id="zoomPlus">
                        <use xlink:href="#rim" fill="#404040">
                                <set attributeName="fill" to="#808080" begin="zoomplus.mouseover" end="zoomplus.mouseout"/>
                        </use>
                        <path d="M-4,0h8M0,-4v8" fill="none" stroke="white" stroke-width="1.5" pointer-events="none"/>
                </g>
                <g id="zoomMin">
                        <use xlink:href="#rim" fill="#404040">
                                <set attributeName="fill" to="#808080" begin="zoomminus.mouseover" end="zoomminus.mouseout"/>
                        </use>
                        <path d="M-4,0h8" fill="none" stroke="white" stroke-width="1.5" pointer-events="none"/>
                </g>
                <g id="dirArrow">
                        <path fill="none" stroke="white" stroke-width="1.5" d="M0,-3.0v7 M-2.5,-0.5L0,-3.0L2.5,-0.5"/>
                </g>
               <g id="resetDef">
                       <use xlink:href="#rim2" fill="#404040">
                               <set attributeName="fill" to="#808080" begin="reset.mouseover" end="reset.mouseout"/>
                       </use>
               </g>
        </defs>

<script type="text/javascript">
var viewWidth = 1094;
var viewHeight = 408;
var sectionId = 'dynsection-4';
</script>
<script xlink:href="../../svgpan.js"/>
<svg id="graph" class="graph">
<g id="viewport">
<title>com.cliffc.aa.HM.TestHM3.test03</title>
<!-- Node1 -->
<g id="node1" class="node">
<title>Node1</title>
<g id="a_node1"><a xlink:title=" ">
<polygon fill="#bfbfbf" stroke="black" points="0,-220.5 0,-239.5 177,-239.5 177,-220.5 0,-220.5"/>
<text text-anchor="middle" x="88.5" y="-227.5" font-family="Helvetica,sans-Serif" font-size="10.00">com.cliffc.aa.HM.TestHM3.test03</text>
</a>
</g>
</g>
<!-- Node2 -->
<g id="node2" class="node">
<title>Node2</title>
<g id="a_node2"><a xlink:href="../../d0/d34/a01486.html#a8589b1d0eb95905bc8373a2a6d5d5038" target="_top" xlink:title=" ">
<polygon fill="none" stroke="black" points="213,-342.5 213,-361.5 375,-361.5 375,-342.5 213,-342.5"/>
<text text-anchor="middle" x="294" y="-349.5" font-family="Helvetica,sans-Serif" font-size="10.00">com.cliffc.aa.type.TypeInt.con</text>
</a>
</g>
</g>
<!-- Node1&#45;&gt;Node2 -->
<g id="edge1" class="edge">
<title>Node1&#45;&gt;Node2</title>
<path fill="none" stroke="midnightblue" d="M105.47,-239.57C140.83,-260.78 225.98,-311.82 268.28,-337.18"/>
<polygon fill="midnightblue" stroke="midnightblue" points="266.73,-340.33 277.11,-342.47 270.33,-334.33 266.73,-340.33"/>
</g>
<!-- Node7 -->
<g id="node7" class="node">
<title>Node7</title>
<g id="a_node7"><a xlink:href="../../d5/d0a/a00602.html#a22c7a4f623fa36f31dd4c8722dfda207" target="_top" xlink:title=" ">
<polygon fill="none" stroke="black" points="222.5,-133.5 222.5,-152.5 365.5,-152.5 365.5,-133.5 222.5,-133.5"/>
<text text-anchor="middle" x="294" y="-140.5" font-family="Helvetica,sans-Serif" font-size="10.00">com.cliffc.aa.HM.HM3.hm</text>
</a>
</g>
</g>
<!-- Node1&#45;&gt;Node7 -->
<g id="edge10" class="edge">
<title>Node1&#45;&gt;Node7</title>
<path fill="none" stroke="midnightblue" d="M112.06,-220.36C148.37,-204.83 219.89,-174.26 261.31,-156.55"/>
<polygon fill="midnightblue" stroke="midnightblue" points="262.83,-159.7 270.65,-152.55 260.08,-153.27 262.83,-159.7"/>
</g>
<!-- Node3 -->
<g id="node3" class="node">
<title>Node3</title>
<g id="a_node3"><a xlink:href="../../d0/d34/a01486.html#a32057191cb36ba421014799319c36f44" target="_top" xlink:title=" ">
<polygon fill="none" stroke="black" points="430.5,-380.5 430.5,-399.5 590.5,-399.5 590.5,-380.5 430.5,-380.5"/>
<text text-anchor="middle" x="510.5" y="-387.5" font-family="Helvetica,sans-Serif" font-size="10.00">com.cliffc.aa.type.TypeInt.log</text>
</a>
</g>
</g>
<!-- Node2&#45;&gt;Node3 -->
<g id="edge2" class="edge">
<title>Node2&#45;&gt;Node3</title>
<path fill="none" stroke="midnightblue" d="M375.18,-359.65C408.37,-365.04 445.27,-372.01 471.98,-378.08"/>
<polygon fill="midnightblue" stroke="midnightblue" points="471.51,-381.56 482.05,-380.44 473.12,-374.75 471.51,-381.56"/>
</g>
<!-- Node4 -->
<g id="node4" class="node">
<title>Node4</title>
<g id="a_node4"><a xlink:href="../../d0/d34/a01486.html#a06777eb51a5bf16ede6505e80c1d523d" target="_top" xlink:title=" ">
<polygon fill="none" stroke="black" points="424.5,-342.5 424.5,-361.5 596.5,-361.5 596.5,-342.5 424.5,-342.5"/>
<text text-anchor="middle" x="510.5" y="-349.5" font-family="Helvetica,sans-Serif" font-size="10.00">com.cliffc.aa.type.TypeInt.make</text>
</a>
</g>
</g>
<!-- Node2&#45;&gt;Node4 -->
<g id="edge4" class="edge">
<title>Node2&#45;&gt;Node4</title>
<path fill="none" stroke="midnightblue" d="M375.18,-345.44C387.85,-345.26 401.07,-345.21 414.05,-345.29"/>
<polygon fill="midnightblue" stroke="midnightblue" points="414.37,-348.79 424.4,-345.38 414.43,-341.79 414.37,-348.79"/>
</g>
<!-- Node3&#45;&gt;Node2 -->
<g id="edge3" class="edge">
<title>Node3&#45;&gt;Node2</title>
<path fill="none" stroke="midnightblue" d="M430.29,-382.51C396.8,-377.09 359.38,-370.03 332.4,-363.89"/>
<polygon fill="midnightblue" stroke="midnightblue" points="333.14,-360.47 322.6,-361.59 331.54,-367.29 333.14,-360.47"/>
</g>
<!-- Node4&#45;&gt;Node2 -->
<g id="edge5" class="edge">
<title>Node4&#45;&gt;Node2</title>
<path fill="none" stroke="midnightblue" d="M424.4,-358.62C411.6,-358.77 398.35,-358.79 385.44,-358.68"/>
<polygon fill="midnightblue" stroke="midnightblue" points="385.22,-355.17 375.18,-358.56 385.14,-362.17 385.22,-355.17"/>
</g>
<!-- Node5 -->
<g id="node5" class="node">
<title>Node5</title>
<g id="a_node5"><a xlink:href="../../d0/de2/a01442.html#a8fe8d556e45e6b654f3ac87f118ac8de" target="_top" xlink:title=" ">
<polygon fill="none" stroke="black" points="650,-363.5 650,-382.5 853,-382.5 853,-363.5 650,-363.5"/>
<text text-anchor="middle" x="751.5" y="-370.5" font-family="Helvetica,sans-Serif" font-size="10.00">com.cliffc.aa.type.Type.hashcons_free</text>
</a>
</g>
</g>
<!-- Node4&#45;&gt;Node5 -->
<g id="edge6" class="edge">
<title>Node4&#45;&gt;Node5</title>
<path fill="none" stroke="midnightblue" d="M596.77,-359.49C610.71,-360.72 625.34,-362 639.78,-363.27"/>
<polygon fill="midnightblue" stroke="midnightblue" points="639.48,-366.76 649.75,-364.15 640.09,-359.79 639.48,-366.76"/>
</g>
<!-- Node6 -->
<g id="node6" class="node">
<title>Node6</title>
<g id="a_node6"><a xlink:href="../../d0/d34/a01486.html#a8c1e98b9a2e73b098f1750cd7d17f43c" target="_top" xlink:title=" ">
<polygon fill="none" stroke="black" points="671,-307.5 671,-326.5 832,-326.5 832,-307.5 671,-307.5"/>
<text text-anchor="middle" x="751.5" y="-314.5" font-family="Helvetica,sans-Serif" font-size="10.00">com.cliffc.aa.type.TypeInt.init</text>
</a>
</g>
</g>
<!-- Node4&#45;&gt;Node6 -->
<g id="edge7" class="edge">
<title>Node4&#45;&gt;Node6</title>
<path fill="none" stroke="midnightblue" d="M576.49,-342.48C607.05,-338.01 643.66,-332.65 675.4,-328"/>
<polygon fill="midnightblue" stroke="midnightblue" points="676.13,-331.43 685.52,-326.52 675.12,-324.5 676.13,-331.43"/>
</g>
<!-- Node6&#45;&gt;Node2 -->
<g id="edge8" class="edge">
<title>Node6&#45;&gt;Node2</title>
<path fill="none" stroke="midnightblue" d="M670.73,-318.17C601.81,-319.79 499.61,-323.69 411,-333 392.93,-334.9 373.4,-337.78 355.61,-340.72"/>
<polygon fill="midnightblue" stroke="midnightblue" points="354.64,-337.33 345.36,-342.45 355.81,-344.24 354.64,-337.33"/>
</g>
<!-- Node6&#45;&gt;Node6 -->
<g id="edge9" class="edge">
<title>Node6&#45;&gt;Node6</title>
<path fill="none" stroke="midnightblue" d="M715.11,-326.61C696.84,-335.46 708.97,-345 751.5,-345 783.4,-345 798.2,-339.63 795.89,-333.22"/>
<polygon fill="midnightblue" stroke="midnightblue" points="797.83,-330.28 787.89,-326.61 793.37,-335.68 797.83,-330.28"/>
</g>
<!-- Node8 -->
<g id="node8" class="node">
<title>Node8</title>
<g id="a_node8"><a xlink:href="../../de/d85/a00618.html#a2709ca91eb453645addeb5c095835360" target="_top" xlink:title=" ">
<polygon fill="none" stroke="black" points="419.5,-250 419.5,-280 601.5,-280 601.5,-250 419.5,-250"/>
<text text-anchor="start" x="427.5" y="-268" font-family="Helvetica,sans-Serif" font-size="10.00">com.cliffc.aa.HM.HM3.Syntax.add</text>
<text text-anchor="middle" x="510.5" y="-257" font-family="Helvetica,sans-Serif" font-size="10.00">_neighbors</text>
</a>
</g>
</g>
<!-- Node7&#45;&gt;Node8 -->
<g id="edge11" class="edge">
<title>Node7&#45;&gt;Node8</title>
<path fill="none" stroke="midnightblue" d="M305.4,-152.74C324.8,-170.46 368.42,-208.25 411,-231 422.08,-236.92 434.4,-242.13 446.46,-246.58"/>
<polygon fill="midnightblue" stroke="midnightblue" points="445.46,-249.94 456.06,-249.98 447.8,-243.34 445.46,-249.94"/>
</g>
<!-- Node12 -->
<g id="node12" class="node">
<title>Node12</title>
<g id="a_node12"><a xlink:href="../../de/d85/a00618.html#aca2245f0464cd717ee0573fcec185dd1" target="_top" xlink:title=" ">
<polygon fill="none" stroke="black" points="414.5,-191 414.5,-221 606.5,-221 606.5,-191 414.5,-191"/>
<text text-anchor="start" x="422.5" y="-209" font-family="Helvetica,sans-Serif" font-size="10.00">com.cliffc.aa.HM.HM3.Syntax.check</text>
<text text-anchor="middle" x="510.5" y="-198" font-family="Helvetica,sans-Serif" font-size="10.00">_progress</text>
</a>
</g>
</g>
<!-- Node7&#45;&gt;Node12 -->
<g id="edge15" class="edge">
<title>Node7&#45;&gt;Node12</title>
<path fill="none" stroke="midnightblue" d="M322.49,-152.59C345.89,-160.61 380.47,-172.14 411,-181 419.65,-183.51 428.76,-186.01 437.81,-188.41"/>
<polygon fill="midnightblue" stroke="midnightblue" points="437.03,-191.82 447.59,-190.97 438.8,-185.05 437.03,-191.82"/>
</g>
<!-- Node15 -->
<g id="node15" class="node">
<title>Node15</title>
<g id="a_node15"><a xlink:href="../../da/d36/a00650.html#a823bd68905f46c64474b5a15c4771c2e" target="_top" xlink:title=" ">
<polygon fill="none" stroke="black" points="426.5,-152.5 426.5,-171.5 594.5,-171.5 594.5,-152.5 426.5,-152.5"/>
<text text-anchor="middle" x="510.5" y="-159.5" font-family="Helvetica,sans-Serif" font-size="10.00">com.cliffc.aa.HM.HM3.Oper.fun</text>
</a>
</g>
</g>
<!-- Node7&#45;&gt;Node15 -->
<g id="edge19" class="edge">
<title>Node7&#45;&gt;Node15</title>
<path fill="none" stroke="midnightblue" d="M365.53,-149.25C381.61,-150.67 398.94,-152.21 415.82,-153.7"/>
<polygon fill="midnightblue" stroke="midnightblue" points="415.98,-157.23 426.25,-154.63 416.6,-150.26 415.98,-157.23"/>
</g>
<!-- Node17 -->
<g id="node17" class="node">
<title>Node17</title>
<g id="a_node17"><a xlink:href="../../de/d85/a00618.html#a13d8d77391990d2c786e222ff856cc9e" target="_top" xlink:title=" ">
<polygon fill="none" stroke="black" points="411,-114.5 411,-133.5 610,-133.5 610,-114.5 411,-114.5"/>
<text text-anchor="middle" x="510.5" y="-121.5" font-family="Helvetica,sans-Serif" font-size="10.00">com.cliffc.aa.HM.HM3.Syntax.get_ids</text>
</a>
</g>
</g>
<!-- Node7&#45;&gt;Node17 -->
<g id="edge21" class="edge">
<title>Node7&#45;&gt;Node17</title>
<path fill="none" stroke="midnightblue" d="M365.53,-136.75C376.88,-135.75 388.86,-134.69 400.86,-133.62"/>
<polygon fill="midnightblue" stroke="midnightblue" points="401.28,-137.1 410.93,-132.73 400.66,-130.13 401.28,-137.1"/>
</g>
<!-- Node18 -->
<g id="node18" class="node">
<title>Node18</title>
<g id="a_node18"><a xlink:href="../../de/d85/a00618.html#a7ab32e065545f5bed21cdd20b4afd4a1" target="_top" xlink:title=" ">
<polygon fill="none" stroke="black" points="421,-76.5 421,-95.5 600,-95.5 600,-76.5 421,-76.5"/>
<text text-anchor="middle" x="510.5" y="-83.5" font-family="Helvetica,sans-Serif" font-size="10.00">com.cliffc.aa.HM.HM3.Syntax.hm</text>
</a>
</g>
</g>
<!-- Node7&#45;&gt;Node18 -->
<g id="edge22" class="edge">
<title>Node7&#45;&gt;Node18</title>
<path fill="none" stroke="midnightblue" d="M320.98,-133.45C344.31,-125.12 379.61,-113.13 411,-105 421.46,-102.29 432.63,-99.78 443.55,-97.53"/>
<polygon fill="midnightblue" stroke="midnightblue" points="444.37,-100.93 453.49,-95.54 442.99,-94.07 444.37,-100.93"/>
</g>
<!-- Node19 -->
<g id="node19" class="node">
<title>Node19</title>
<g id="a_node19"><a xlink:href="../../d7/d80/a00614.html#a9590a4a7ea9023fa588546939000e670" target="_top" xlink:title=" ">
<polygon fill="none" stroke="black" points="418,-38.5 418,-57.5 603,-57.5 603,-38.5 418,-38.5"/>
<text text-anchor="middle" x="510.5" y="-45.5" font-family="Helvetica,sans-Serif" font-size="10.00">com.cliffc.aa.HM.HM3.Worklist.len</text>
</a>
</g>
</g>
<!-- Node7&#45;&gt;Node19 -->
<g id="edge23" class="edge">
<title>Node7&#45;&gt;Node19</title>
<path fill="none" stroke="midnightblue" d="M306.33,-133.36C326.16,-117.02 369.05,-84.01 411,-67 417.6,-64.32 424.61,-62.02 431.72,-60.03"/>
<polygon fill="midnightblue" stroke="midnightblue" points="432.66,-63.4 441.46,-57.51 430.91,-56.63 432.66,-63.4"/>
</g>
<!-- Node20 -->
<g id="node20" class="node">
<title>Node20</title>
<g id="a_node20"><a xlink:href="../../d7/d80/a00614.html#a9d15ef3eb08cf5e99b76c2bc00789c0c" target="_top" xlink:title=" ">
<polygon fill="none" stroke="black" points="416.5,-0.5 416.5,-19.5 604.5,-19.5 604.5,-0.5 416.5,-0.5"/>
<text text-anchor="middle" x="510.5" y="-7.5" font-family="Helvetica,sans-Serif" font-size="10.00">com.cliffc.aa.HM.HM3.Worklist.pop</text>
</a>
</g>
</g>
<!-- Node7&#45;&gt;Node20 -->
<g id="edge24" class="edge">
<title>Node7&#45;&gt;Node20</title>
<path fill="none" stroke="midnightblue" d="M301.57,-133.46C317.47,-111.17 360.5,-55.52 411,-29 415.51,-26.63 420.28,-24.56 425.18,-22.74"/>
<polygon fill="midnightblue" stroke="midnightblue" points="426.37,-26.03 434.75,-19.55 424.15,-19.39 426.37,-26.03"/>
</g>
<!-- Node9 -->
<g id="node9" class="node">
<title>Node9</title>
<g id="a_node9"><a xlink:href="../../de/d85/a00618.html#ac1b6a8eb3992cdaee4b153a43800948c" target="_top" xlink:title=" ">
<polygon fill="none" stroke="black" points="646,-269.5 646,-288.5 857,-288.5 857,-269.5 646,-269.5"/>
<text text-anchor="middle" x="751.5" y="-276.5" font-family="Helvetica,sans-Serif" font-size="10.00">com.cliffc.aa.HM.HM3.Syntax.add_work</text>
</a>
</g>
</g>
<!-- Node8&#45;&gt;Node9 -->
<g id="edge12" class="edge">
<title>Node8&#45;&gt;Node9</title>
<path fill="none" stroke="midnightblue" d="M601.52,-270.27C612.67,-270.93 624.19,-271.6 635.66,-272.27"/>
<polygon fill="midnightblue" stroke="midnightblue" points="635.52,-275.77 645.7,-272.86 635.93,-268.78 635.52,-275.77"/>
</g>
<!-- Node10 -->
<g id="node10" class="node">
<title>Node10</title>
<g id="a_node10"><a xlink:href="../../de/d85/a00618.html#a4739fd3ce2a5e40d357b79dd86ad6e20" target="_top" xlink:title=" ">
<polygon fill="none" stroke="black" points="901.5,-226 901.5,-256 1077.5,-256 1077.5,-226 901.5,-226"/>
<text text-anchor="start" x="909.5" y="-244" font-family="Helvetica,sans-Serif" font-size="10.00">com.cliffc.aa.HM.HM3.Syntax.all</text>
<text text-anchor="middle" x="989.5" y="-233" font-family="Helvetica,sans-Serif" font-size="10.00">_kids_ready</text>
</a>
</g>
</g>
<!-- Node9&#45;&gt;Node10 -->
<g id="edge13" class="edge">
<title>Node9&#45;&gt;Node10</title>
<path fill="none" stroke="midnightblue" d="M811.75,-269.46C835.72,-265.6 864.04,-261.04 890.9,-256.72"/>
<polygon fill="midnightblue" stroke="midnightblue" points="891.79,-260.12 901.11,-255.07 890.68,-253.21 891.79,-260.12"/>
</g>
<!-- Node11 -->
<g id="node11" class="node">
<title>Node11</title>
<g id="a_node11"><a xlink:href="../../d7/d80/a00614.html#a2c96b321be9da9a81940eadfda8d31b1" target="_top" xlink:title=" ">
<polygon fill="none" stroke="black" points="893,-275.5 893,-294.5 1086,-294.5 1086,-275.5 893,-275.5"/>
<text text-anchor="middle" x="989.5" y="-282.5" font-family="Helvetica,sans-Serif" font-size="10.00">com.cliffc.aa.HM.HM3.Worklist.push</text>
</a>
</g>
</g>
<!-- Node9&#45;&gt;Node11 -->
<g id="edge14" class="edge">
<title>Node9&#45;&gt;Node11</title>
<path fill="none" stroke="midnightblue" d="M857.04,-281.66C865.64,-281.88 874.33,-282.1 882.93,-282.32"/>
<polygon fill="midnightblue" stroke="midnightblue" points="882.9,-285.82 892.98,-282.57 883.07,-278.82 882.9,-285.82"/>
</g>
<!-- Node12&#45;&gt;Node10 -->
<g id="edge16" class="edge">
<title>Node12&#45;&gt;Node10</title>
<path fill="none" stroke="midnightblue" d="M606.58,-218.07C619.81,-219.52 633.23,-220.89 646,-222 728.53,-229.19 822.5,-234.18 891.11,-237.23"/>
<polygon fill="midnightblue" stroke="midnightblue" points="891.32,-240.74 901.47,-237.69 891.63,-233.75 891.32,-240.74"/>
</g>
<!-- Node13 -->
<g id="node13" class="node">
<title>Node13</title>
<g id="a_node13"><a xlink:href="../../d7/d80/a00614.html#adc1e52d3e0bceeacaf0f0e421bab9506" target="_top" xlink:title=" ">
<polygon fill="none" stroke="black" points="658,-193.5 658,-212.5 845,-212.5 845,-193.5 658,-193.5"/>
<text text-anchor="middle" x="751.5" y="-200.5" font-family="Helvetica,sans-Serif" font-size="10.00">com.cliffc.aa.HM.HM3.Worklist.has</text>
</a>
</g>
</g>
<!-- Node12&#45;&gt;Node13 -->
<g id="edge17" class="edge">
<title>Node12&#45;&gt;Node13</title>
<path fill="none" stroke="midnightblue" d="M606.65,-204.81C620.03,-204.64 633.83,-204.46 647.36,-204.29"/>
<polygon fill="midnightblue" stroke="midnightblue" points="647.67,-207.79 657.63,-204.17 647.59,-200.79 647.67,-207.79"/>
</g>
<!-- Node14 -->
<g id="node14" class="node">
<title>Node14</title>
<g id="a_node14"><a xlink:href="../../de/d85/a00618.html#ac2299afbb4104f32768b05b3e1d3f068" target="_top" xlink:title=" ">
<polygon fill="none" stroke="black" points="648.5,-155.5 648.5,-174.5 854.5,-174.5 854.5,-155.5 648.5,-155.5"/>
<text text-anchor="middle" x="751.5" y="-162.5" font-family="Helvetica,sans-Serif" font-size="10.00">com.cliffc.aa.HM.HM3.Syntax.progress</text>
</a>
</g>
</g>
<!-- Node12&#45;&gt;Node14 -->
<g id="edge18" class="edge">
<title>Node12&#45;&gt;Node14</title>
<path fill="none" stroke="midnightblue" d="M599.14,-190.97C627.49,-186.1 658.42,-180.8 684.89,-176.25"/>
<polygon fill="midnightblue" stroke="midnightblue" points="685.54,-179.69 694.8,-174.55 684.36,-172.8 685.54,-179.69"/>
</g>
<!-- Node16 -->
<g id="node16" class="node">
<title>Node16</title>
<g id="a_node16"><a xlink:href="../../da/d36/a00650.html#abc439eda069599a41c031c9af7435906" target="_top" xlink:title=" ">
<polygon fill="none" stroke="black" points="663.5,-117.5 663.5,-136.5 839.5,-136.5 839.5,-117.5 663.5,-117.5"/>
<text text-anchor="middle" x="751.5" y="-124.5" font-family="Helvetica,sans-Serif" font-size="10.00">com.cliffc.aa.HM.HM3.Oper.Oper</text>
</a>
</g>
</g>
<!-- Node15&#45;&gt;Node16 -->
<g id="edge20" class="edge">
<title>Node15&#45;&gt;Node16</title>
<path fill="none" stroke="midnightblue" d="M576.49,-152.48C607.05,-148.01 643.66,-142.65 675.4,-138"/>
<polygon fill="midnightblue" stroke="midnightblue" points="676.13,-141.43 685.52,-136.52 675.12,-134.5 676.13,-141.43"/>
</g>
</g>
</svg>
        <g id="navigator" transform="translate(0 0)" fill="#404254">
                <rect fill="#f2f5e9" fill-opacity="0.5" stroke="#606060" stroke-width=".5" x="0" y="0" width="60" height="60"/>
                <use id="zoomplus" xlink:href="#zoomPlus" x="17" y="9" onmousedown="handleZoom(evt,'in')"/>
                <use id="zoomminus" xlink:href="#zoomMin" x="42" y="9" onmousedown="handleZoom(evt,'out')"/>
                <use id="reset" xlink:href="#resetDef" x="30" y="36" onmousedown="handleReset()"/>
                <g id="arrowUp" xlink:href="#dirArrow" transform="translate(30 24)" onmousedown="handlePan(0,-1)">
                  <use xlink:href="#rim" fill="#404040">
                        <set attributeName="fill" to="#808080" begin="arrowUp.mouseover" end="arrowUp.mouseout"/>
                  </use>
                  <path fill="none" stroke="white" stroke-width="1.5" d="M0,-3.0v7 M-2.5,-0.5L0,-3.0L2.5,-0.5"/>
                </g>
                <g id="arrowRight" xlink:href="#dirArrow" transform="rotate(90) translate(36 -43)" onmousedown="handlePan(1,0)">
                  <use xlink:href="#rim" fill="#404040">
                        <set attributeName="fill" to="#808080" begin="arrowRight.mouseover" end="arrowRight.mouseout"/>
                  </use>
                  <path fill="none" stroke="white" stroke-width="1.5" d="M0,-3.0v7 M-2.5,-0.5L0,-3.0L2.5,-0.5"/>
                </g>
                <g id="arrowDown" xlink:href="#dirArrow" transform="rotate(180) translate(-30 -48)" onmousedown="handlePan(0,1)">
                  <use xlink:href="#rim" fill="#404040">
                        <set attributeName="fill" to="#808080" begin="arrowDown.mouseover" end="arrowDown.mouseout"/>
                  </use>
                  <path fill="none" stroke="white" stroke-width="1.5" d="M0,-3.0v7 M-2.5,-0.5L0,-3.0L2.5,-0.5"/>
                </g>
                <g id="arrowLeft" xlink:href="#dirArrow" transform="rotate(270) translate(-36 17)" onmousedown="handlePan(-1,0)">
                  <use xlink:href="#rim" fill="#404040">
                        <set attributeName="fill" to="#808080" begin="arrowLeft.mouseover" end="arrowLeft.mouseout"/>
                  </use>
                  <path fill="none" stroke="white" stroke-width="1.5" d="M0,-3.0v7 M-2.5,-0.5L0,-3.0L2.5,-0.5"/>
                </g>
        </g>
        <svg viewBox="0 0 15 15" width="100%" height="30px" preserveAspectRatio="xMaxYMin meet">
         <g id="arrow_out" transform="scale(0.3 0.3)">
          <a xlink:href="a01662_a8773917561aa161ec9815a4c19946068_cgraph_org.svg" target="_base">
           <rect id="button" ry="5" rx="5" y="6" x="6" height="38" width="38"
                fill="#f2f5e9" fill-opacity="0.5" stroke="#606060" stroke-width="1.0"/>
           <path id="arrow"
             d="M 11.500037,31.436501 C 11.940474,20.09759 22.043105,11.32322 32.158766,21.979434 L 37.068811,17.246167 C 37.068811,17.246167 37.088388,32 37.088388,32 L 22.160133,31.978069 C 22.160133,31.978069 26.997745,27.140456 26.997745,27.140456 C 18.528582,18.264221 13.291696,25.230495 11.500037,31.436501 z"
             style="fill:#404040;"/>
          </a>
         </g>
        </svg>
</svg>
