<?xml version="1.0" encoding="UTF-8" standalone="no"?>
<!DOCTYPE svg PUBLIC "-//W3C//DTD SVG 1.1//EN"
 "http://www.w3.org/Graphics/SVG/1.1/DTD/svg11.dtd">
<!-- Generated by graphviz version 2.43.0 (0)
 -->
<!-- Title: com.cliffc.aa.type.Types.Key.equals Pages: 1 -->
<!--zoomable 121 -->
<svg id="main" version="1.1" xmlns="http://www.w3.org/2000/svg" xmlns:xlink="http://www.w3.org/1999/xlink" xml:space="preserve" onload="init(evt)">
<style type="text/css"><![CDATA[
.edge:hover path { stroke: red; }
.edge:hover polygon { stroke: red; fill: red; }
]]></style>
<script type="text/javascript"><![CDATA[
var edges = document.getElementsByTagName('g');
if (edges && edges.length) {
  for (var i=0;i<edges.length;i++) {
    if (edges[i].id.substr(0,4)=='edge') {
      edges[i].setAttribute('class','edge');
    }
  }
}
]]></script>
        <defs>
                <circle id="rim" cx="0" cy="0" r="7"/>
                <circle id="rim2" cx="0" cy="0" r="3.5"/>
                <g id="zoomPlus">
                        <use xlink:href="#rim" fill="#404040">
                                <set attributeName="fill" to="#808080" begin="zoomplus.mouseover" end="zoomplus.mouseout"/>
                        </use>
                        <path d="M-4,0h8M0,-4v8" fill="none" stroke="white" stroke-width="1.5" pointer-events="none"/>
                </g>
                <g id="zoomMin">
                        <use xlink:href="#rim" fill="#404040">
                                <set attributeName="fill" to="#808080" begin="zoomminus.mouseover" end="zoomminus.mouseout"/>
                        </use>
                        <path d="M-4,0h8" fill="none" stroke="white" stroke-width="1.5" pointer-events="none"/>
                </g>
                <g id="dirArrow">
                        <path fill="none" stroke="white" stroke-width="1.5" d="M0,-3.0v7 M-2.5,-0.5L0,-3.0L2.5,-0.5"/>
                </g>
               <g id="resetDef">
                       <use xlink:href="#rim2" fill="#404040">
                               <set attributeName="fill" to="#808080" begin="reset.mouseover" end="reset.mouseout"/>
                       </use>
               </g>
        </defs>

<script type="text/javascript">
var viewWidth = 1082;
var viewHeight = 121;
var sectionId = 'dynsection-3';
</script>
<script xlink:href="../../svgpan.js"/>
<svg id="graph" class="graph">
<g id="viewport">
<title>com.cliffc.aa.type.Types.Key.equals</title>
<!-- Node1 -->
<g id="node1" class="node">
<title>Node1</title>
<g id="a_node1"><a xlink:title=" ">
<polygon fill="#bfbfbf" stroke="black" points="0,-22.5 0,-52.5 137,-52.5 137,-22.5 0,-22.5"/>
<text text-anchor="start" x="8" y="-40.5" font-family="Helvetica,sans-Serif" font-size="10.00">com.cliffc.aa.type.Types.</text>
<text text-anchor="middle" x="68.5" y="-29.5" font-family="Helvetica,sans-Serif" font-size="10.00">Key.equals</text>
</a>
</g>
</g>
<!-- Node2 -->
<g id="node2" class="node">
<title>Node2</title>
<g id="a_node2"><a xlink:href="../../d7/d22/a01514.html#a25a11e4310b7a7f7f8cafd669051cca0" target="_top" xlink:title=" ">
<polygon fill="none" stroke="black" points="173,-44.5 173,-74.5 310,-74.5 310,-44.5 173,-44.5"/>
<text text-anchor="start" x="181" y="-62.5" font-family="Helvetica,sans-Serif" font-size="10.00">com.cliffc.aa.type.Types.</text>
<text text-anchor="middle" x="241.5" y="-51.5" font-family="Helvetica,sans-Serif" font-size="10.00">Key.Key</text>
</a>
</g>
</g>
<!-- Node1&#45;&gt;Node2 -->
<g id="edge1" class="edge">
<title>Node1&#45;&gt;Node2</title>
<path fill="none" stroke="midnightblue" d="M137.08,-46.19C145.54,-47.28 154.24,-48.4 162.83,-49.51"/>
<polygon fill="midnightblue" stroke="midnightblue" points="162.48,-52.99 172.85,-50.8 163.38,-46.05 162.48,-52.99"/>
</g>
<!-- Node4 -->
<g id="node4" class="node">
<title>Node4</title>
<g id="a_node4"><a xlink:href="../../dc/d47/a01510.html#aa115d584cb2586147c60f206d002d611" target="_top" xlink:title=" ">
<polygon fill="none" stroke="black" points="519,-44 519,-63 665,-63 665,-44 519,-44"/>
<text text-anchor="middle" x="592" y="-51" font-family="Helvetica,sans-Serif" font-size="10.00">com.cliffc.aa.type.Types.ts</text>
</a>
</g>
</g>
<!-- Node1&#45;&gt;Node4 -->
<g id="edge10" class="edge">
<title>Node1&#45;&gt;Node4</title>
<path fill="none" stroke="midnightblue" d="M137.14,-35.26C149.08,-34.94 161.41,-34.67 173,-34.5 233.88,-33.62 249.15,-32.44 310,-34.5 376.94,-36.76 452.69,-42.04 508.66,-46.46"/>
<polygon fill="midnightblue" stroke="midnightblue" points="508.63,-49.97 518.88,-47.28 509.19,-42.99 508.63,-49.97"/>
</g>
<!-- Node3 -->
<g id="node3" class="node">
<title>Node3</title>
<g id="a_node3"><a xlink:href="../../d7/d22/a01514.html#aafe283d43283761a4753805b70c4b07a" target="_top" xlink:title=" ">
<polygon fill="none" stroke="black" points="346,-82.5 346,-112.5 483,-112.5 483,-82.5 346,-82.5"/>
<text text-anchor="start" x="354" y="-100.5" font-family="Helvetica,sans-Serif" font-size="10.00">com.cliffc.aa.type.Types.</text>
<text text-anchor="middle" x="414.5" y="-89.5" font-family="Helvetica,sans-Serif" font-size="10.00">Key.hash</text>
</a>
</g>
</g>
<!-- Node2&#45;&gt;Node3 -->
<g id="edge2" class="edge">
<title>Node2&#45;&gt;Node3</title>
<path fill="none" stroke="midnightblue" d="M310.08,-74.52C318.54,-76.4 327.24,-78.33 335.83,-80.24"/>
<polygon fill="midnightblue" stroke="midnightblue" points="335.33,-83.71 345.85,-82.47 336.84,-76.88 335.33,-83.71"/>
</g>
<!-- Node2&#45;&gt;Node4 -->
<g id="edge9" class="edge">
<title>Node2&#45;&gt;Node4</title>
<path fill="none" stroke="midnightblue" d="M310.11,-58.34C366.8,-57.36 447.97,-55.96 508.49,-54.92"/>
<polygon fill="midnightblue" stroke="midnightblue" points="508.84,-58.42 518.78,-54.74 508.72,-51.42 508.84,-58.42"/>
</g>
<!-- Node3&#45;&gt;Node4 -->
<g id="edge3" class="edge">
<title>Node3&#45;&gt;Node4</title>
<path fill="none" stroke="midnightblue" d="M475.41,-82.48C497.51,-76.94 522.24,-70.74 543.14,-65.5"/>
<polygon fill="midnightblue" stroke="midnightblue" points="544.21,-68.84 553.06,-63.01 542.51,-62.05 544.21,-68.84"/>
</g>
<!-- Node5 -->
<g id="node5" class="node">
<title>Node5</title>
<g id="a_node5"><a xlink:href="../../dc/d47/a01510.html#ae85b20de55899d48bb869a55a8e3d753" target="_top" xlink:title=" ">
<polygon fill="none" stroke="black" points="701,-82 701,-101 867,-101 867,-82 701,-82"/>
<text text-anchor="middle" x="784" y="-89" font-family="Helvetica,sans-Serif" font-size="10.00">com.cliffc.aa.type.Types.check</text>
</a>
</g>
</g>
<!-- Node4&#45;&gt;Node5 -->
<g id="edge4" class="edge">
<title>Node4&#45;&gt;Node5</title>
<path fill="none" stroke="midnightblue" d="M640.95,-63.09C666.58,-68.22 698.34,-74.57 725.32,-79.96"/>
<polygon fill="midnightblue" stroke="midnightblue" points="724.91,-83.45 735.4,-81.98 726.28,-76.59 724.91,-83.45"/>
</g>
<!-- Node7 -->
<g id="node7" class="node">
<title>Node7</title>
<g id="a_node7"><a xlink:href="../../dc/d47/a01510.html#a59ae02bf35b3fe500c1d1093e941b082" target="_top" xlink:title=" ">
<polygon fill="none" stroke="black" points="707.5,-44 707.5,-63 860.5,-63 860.5,-44 707.5,-44"/>
<text text-anchor="middle" x="784" y="-51" font-family="Helvetica,sans-Serif" font-size="10.00">com.cliffc.aa.type.Types.get</text>
</a>
</g>
</g>
<!-- Node4&#45;&gt;Node7 -->
<g id="edge6" class="edge">
<title>Node4&#45;&gt;Node7</title>
<path fill="none" stroke="midnightblue" d="M665.1,-53.5C675.6,-53.5 686.5,-53.5 697.24,-53.5"/>
<polygon fill="midnightblue" stroke="midnightblue" points="697.47,-57 707.47,-53.5 697.47,-50 697.47,-57"/>
</g>
<!-- Node8 -->
<g id="node8" class="node">
<title>Node8</title>
<g id="a_node8"><a xlink:href="../../dc/d47/a01510.html#af601d8f31e72d4f191068352752b4d43" target="_top" xlink:title=" ">
<polygon fill="none" stroke="black" points="705.5,-6 705.5,-25 862.5,-25 862.5,-6 705.5,-6"/>
<text text-anchor="middle" x="784" y="-13" font-family="Helvetica,sans-Serif" font-size="10.00">com.cliffc.aa.type.Types.tary</text>
</a>
</g>
</g>
<!-- Node4&#45;&gt;Node8 -->
<g id="edge7" class="edge">
<title>Node4&#45;&gt;Node8</title>
<path fill="none" stroke="midnightblue" d="M640.95,-43.91C666.58,-38.78 698.34,-32.43 725.32,-27.04"/>
<polygon fill="midnightblue" stroke="midnightblue" points="726.28,-30.41 735.4,-25.02 724.91,-23.55 726.28,-30.41"/>
</g>
<!-- Node6 -->
<g id="node6" class="node">
<title>Node6</title>
<g id="a_node6"><a xlink:href="../../dc/d47/a01510.html#a8315cf29307cc36137f05d9629f5ed52" target="_top" xlink:title=" ">
<polygon fill="none" stroke="black" points="903,-82 903,-101 1074,-101 1074,-82 903,-82"/>
<text text-anchor="middle" x="988.5" y="-89" font-family="Helvetica,sans-Serif" font-size="10.00">com.cliffc.aa.type.Types.check_</text>
</a>
</g>
</g>
<!-- Node5&#45;&gt;Node6 -->
<g id="edge5" class="edge">
<title>Node5&#45;&gt;Node6</title>
<path fill="none" stroke="midnightblue" d="M867.07,-91.5C875.41,-91.5 883.93,-91.5 892.4,-91.5"/>
<polygon fill="midnightblue" stroke="midnightblue" points="892.67,-95 902.67,-91.5 892.67,-88 892.67,-95"/>
</g>
<!-- Node9 -->
<g id="node9" class="node">
<title>Node9</title>
<g id="a_node9"><a xlink:href="../../dc/d47/a01510.html#a59a89150cac8ee6302775579cb5977c8" target="_top" xlink:title=" ">
<polygon fill="none" stroke="black" points="920,-0.5 920,-30.5 1057,-30.5 1057,-0.5 920,-0.5"/>
<text text-anchor="start" x="928" y="-18.5" font-family="Helvetica,sans-Serif" font-size="10.00">com.cliffc.aa.type.Types.</text>
<text text-anchor="middle" x="988.5" y="-7.5" font-family="Helvetica,sans-Serif" font-size="10.00">Types</text>
</a>
</g>
</g>
<!-- Node8&#45;&gt;Node9 -->
<g id="edge8" class="edge">
<title>Node8&#45;&gt;Node9</title>
<path fill="none" stroke="midnightblue" d="M862.71,-15.5C878.18,-15.5 894.41,-15.5 909.87,-15.5"/>
<polygon fill="midnightblue" stroke="midnightblue" points="909.9,-19 919.9,-15.5 909.9,-12 909.9,-19"/>
</g>
</g>
</svg>
        <g id="navigator" transform="translate(0 0)" fill="#404254">
                <rect fill="#f2f5e9" fill-opacity="0.5" stroke="#606060" stroke-width=".5" x="0" y="0" width="60" height="60"/>
                <use id="zoomplus" xlink:href="#zoomPlus" x="17" y="9" onmousedown="handleZoom(evt,'in')"/>
                <use id="zoomminus" xlink:href="#zoomMin" x="42" y="9" onmousedown="handleZoom(evt,'out')"/>
                <use id="reset" xlink:href="#resetDef" x="30" y="36" onmousedown="handleReset()"/>
                <g id="arrowUp" xlink:href="#dirArrow" transform="translate(30 24)" onmousedown="handlePan(0,-1)">
                  <use xlink:href="#rim" fill="#404040">
                        <set attributeName="fill" to="#808080" begin="arrowUp.mouseover" end="arrowUp.mouseout"/>
                  </use>
                  <path fill="none" stroke="white" stroke-width="1.5" d="M0,-3.0v7 M-2.5,-0.5L0,-3.0L2.5,-0.5"/>
                </g>
                <g id="arrowRight" xlink:href="#dirArrow" transform="rotate(90) translate(36 -43)" onmousedown="handlePan(1,0)">
                  <use xlink:href="#rim" fill="#404040">
                        <set attributeName="fill" to="#808080" begin="arrowRight.mouseover" end="arrowRight.mouseout"/>
                  </use>
                  <path fill="none" stroke="white" stroke-width="1.5" d="M0,-3.0v7 M-2.5,-0.5L0,-3.0L2.5,-0.5"/>
                </g>
                <g id="arrowDown" xlink:href="#dirArrow" transform="rotate(180) translate(-30 -48)" onmousedown="handlePan(0,1)">
                  <use xlink:href="#rim" fill="#404040">
                        <set attributeName="fill" to="#808080" begin="arrowDown.mouseover" end="arrowDown.mouseout"/>
                  </use>
                  <path fill="none" stroke="white" stroke-width="1.5" d="M0,-3.0v7 M-2.5,-0.5L0,-3.0L2.5,-0.5"/>
                </g>
                <g id="arrowLeft" xlink:href="#dirArrow" transform="rotate(270) translate(-36 17)" onmousedown="handlePan(-1,0)">
                  <use xlink:href="#rim" fill="#404040">
                        <set attributeName="fill" to="#808080" begin="arrowLeft.mouseover" end="arrowLeft.mouseout"/>
                  </use>
                  <path fill="none" stroke="white" stroke-width="1.5" d="M0,-3.0v7 M-2.5,-0.5L0,-3.0L2.5,-0.5"/>
                </g>
        </g>
        <svg viewBox="0 0 15 15" width="100%" height="30px" preserveAspectRatio="xMaxYMin meet">
         <g id="arrow_out" transform="scale(0.3 0.3)">
          <a xlink:href="a01514_a472608d3f8b1dee79b0d4c44f005911f_cgraph_org.svg" target="_base">
           <rect id="button" ry="5" rx="5" y="6" x="6" height="38" width="38"
                fill="#f2f5e9" fill-opacity="0.5" stroke="#606060" stroke-width="1.0"/>
           <path id="arrow"
             d="M 11.500037,31.436501 C 11.940474,20.09759 22.043105,11.32322 32.158766,21.979434 L 37.068811,17.246167 C 37.068811,17.246167 37.088388,32 37.088388,32 L 22.160133,31.978069 C 22.160133,31.978069 26.997745,27.140456 26.997745,27.140456 C 18.528582,18.264221 13.291696,25.230495 11.500037,31.436501 z"
             style="fill:#404040;"/>
          </a>
         </g>
        </svg>
</svg>
