<?xml version="1.0" encoding="UTF-8" standalone="no"?>
<!DOCTYPE svg PUBLIC "-//W3C//DTD SVG 1.1//EN"
 "http://www.w3.org/Graphics/SVG/1.1/DTD/svg11.dtd">
<!-- Generated by graphviz version 2.43.0 (0)
 -->
<!-- Title: com.cliffc.aa.HM.HM6.T2.is_fun Pages: 1 -->
<!--zoomable 266 -->
<svg id="main" version="1.1" xmlns="http://www.w3.org/2000/svg" xmlns:xlink="http://www.w3.org/1999/xlink" xml:space="preserve" onload="init(evt)">
<style type="text/css"><![CDATA[
.edge:hover path { stroke: red; }
.edge:hover polygon { stroke: red; fill: red; }
]]></style>
<script type="text/javascript"><![CDATA[
var edges = document.getElementsByTagName('g');
if (edges && edges.length) {
  for (var i=0;i<edges.length;i++) {
    if (edges[i].id.substr(0,4)=='edge') {
      edges[i].setAttribute('class','edge');
    }
  }
}
]]></script>
        <defs>
                <circle id="rim" cx="0" cy="0" r="7"/>
                <circle id="rim2" cx="0" cy="0" r="3.5"/>
                <g id="zoomPlus">
                        <use xlink:href="#rim" fill="#404040">
                                <set attributeName="fill" to="#808080" begin="zoomplus.mouseover" end="zoomplus.mouseout"/>
                        </use>
                        <path d="M-4,0h8M0,-4v8" fill="none" stroke="white" stroke-width="1.5" pointer-events="none"/>
                </g>
                <g id="zoomMin">
                        <use xlink:href="#rim" fill="#404040">
                                <set attributeName="fill" to="#808080" begin="zoomminus.mouseover" end="zoomminus.mouseout"/>
                        </use>
                        <path d="M-4,0h8" fill="none" stroke="white" stroke-width="1.5" pointer-events="none"/>
                </g>
                <g id="dirArrow">
                        <path fill="none" stroke="white" stroke-width="1.5" d="M0,-3.0v7 M-2.5,-0.5L0,-3.0L2.5,-0.5"/>
                </g>
               <g id="resetDef">
                       <use xlink:href="#rim2" fill="#404040">
                               <set attributeName="fill" to="#808080" begin="reset.mouseover" end="reset.mouseout"/>
                       </use>
               </g>
        </defs>

<script type="text/javascript">
var viewWidth = 841;
var viewHeight = 266;
var sectionId = 'dynsection-43';
</script>
<script xlink:href="../../svgpan.js"/>
<svg id="graph" class="graph">
<g id="viewport">
<title>com.cliffc.aa.HM.HM6.T2.is_fun</title>
<!-- Node1 -->
<g id="node1" class="node">
<title>Node1</title>
<g id="a_node1"><a xlink:title=" ">
<polygon fill="#bfbfbf" stroke="black" points="662,-144 662,-163 833,-163 833,-144 662,-144"/>
<text text-anchor="middle" x="747.5" y="-151" font-family="Helvetica,sans-Serif" font-size="10.00">com.cliffc.aa.HM.HM6.T2.is_fun</text>
</a>
</g>
</g>
<!-- Node2 -->
<g id="node2" class="node">
<title>Node2</title>
<g id="a_node2"><a xlink:href="../../da/d96/a00782.html#a1e6336e39e01da80f0da1a33a79831d1" target="_top" xlink:title=" ">
<polygon fill="none" stroke="black" points="454,-220 454,-239 607,-239 607,-220 454,-220"/>
<text text-anchor="middle" x="530.5" y="-227" font-family="Helvetica,sans-Serif" font-size="10.00">com.cliffc.aa.HM.HM6.T2._p</text>
</a>
</g>
</g>
<!-- Node1&#45;&gt;Node2 -->
<g id="edge1" class="edge">
<title>Node1&#45;&gt;Node2</title>
<path fill="none" stroke="midnightblue" d="M720.7,-167.97C696.8,-180.82 659.94,-199.25 626,-210.5 614.64,-214.27 602.26,-217.41 590.31,-219.99"/>
<polygon fill="midnightblue" stroke="midnightblue" points="722.38,-171.04 729.49,-163.18 719.03,-164.89 722.38,-171.04"/>
</g>
<!-- Node4 -->
<g id="node4" class="node">
<title>Node4</title>
<g id="a_node4"><a xlink:href="../../d4/d13/a00766.html#a226095a0ac9dd1c6e24e17b82d5aa7a8" target="_top" xlink:title=" ">
<polygon fill="none" stroke="black" points="438,-182 438,-201 623,-201 623,-182 438,-182"/>
<text text-anchor="middle" x="530.5" y="-189" font-family="Helvetica,sans-Serif" font-size="10.00">com.cliffc.aa.HM.HM6.Lambda.hm</text>
</a>
</g>
</g>
<!-- Node1&#45;&gt;Node4 -->
<g id="edge4" class="edge">
<title>Node1&#45;&gt;Node4</title>
<path fill="none" stroke="midnightblue" d="M682.3,-164.85C651.45,-170.3 614.89,-176.76 585.5,-181.96"/>
<polygon fill="midnightblue" stroke="midnightblue" points="683.29,-168.23 692.52,-163.04 682.07,-161.33 683.29,-168.23"/>
</g>
<!-- Node5 -->
<g id="node5" class="node">
<title>Node5</title>
<g id="a_node5"><a xlink:href="../../d0/d7e/a00770.html#acb2c9de261c06a158fa2ef983f0f6c70" target="_top" xlink:title=" ">
<polygon fill="none" stroke="black" points="435,-144 435,-163 626,-163 626,-144 435,-144"/>
<text text-anchor="middle" x="530.5" y="-151" font-family="Helvetica,sans-Serif" font-size="10.00">com.cliffc.aa.HM.HM6.Lambda2.hm</text>
</a>
</g>
</g>
<!-- Node1&#45;&gt;Node5 -->
<g id="edge5" class="edge">
<title>Node1&#45;&gt;Node5</title>
<path fill="none" stroke="midnightblue" d="M651.56,-153.5C643.09,-153.5 634.51,-153.5 626.03,-153.5"/>
<polygon fill="midnightblue" stroke="midnightblue" points="651.83,-157 661.83,-153.5 651.83,-150 651.83,-157"/>
</g>
<!-- Node6 -->
<g id="node6" class="node">
<title>Node6</title>
<g id="a_node6"><a xlink:href="../../d6/d17/a00778.html#a489d6a298478a00ca85e7330a891f70b" target="_top" xlink:title=" ">
<polygon fill="none" stroke="black" points="444.5,-106 444.5,-125 616.5,-125 616.5,-106 444.5,-106"/>
<text text-anchor="middle" x="530.5" y="-113" font-family="Helvetica,sans-Serif" font-size="10.00">com.cliffc.aa.HM.HM6.Apply.hm</text>
</a>
</g>
</g>
<!-- Node1&#45;&gt;Node6 -->
<g id="edge6" class="edge">
<title>Node1&#45;&gt;Node6</title>
<path fill="none" stroke="midnightblue" d="M682.3,-142.15C651.45,-136.7 614.89,-130.24 585.5,-125.04"/>
<polygon fill="midnightblue" stroke="midnightblue" points="682.07,-145.67 692.52,-143.96 683.29,-138.77 682.07,-145.67"/>
</g>
<!-- Node7 -->
<g id="node7" class="node">
<title>Node7</title>
<g id="a_node7"><a xlink:href="../../da/d96/a00782.html#a6b3ffd9852f1b2128b1e2e67ac6b8015" target="_top" xlink:title=" ">
<polygon fill="none" stroke="black" points="453,-50 453,-69 608,-69 608,-50 453,-50"/>
<text text-anchor="middle" x="530.5" y="-57" font-family="Helvetica,sans-Serif" font-size="10.00">com.cliffc.aa.HM.HM6.T2.str</text>
</a>
</g>
</g>
<!-- Node1&#45;&gt;Node7 -->
<g id="edge7" class="edge">
<title>Node1&#45;&gt;Node7</title>
<path fill="none" stroke="midnightblue" d="M718.06,-139.37C693.8,-127.48 657.89,-110.27 626,-96.5 603.03,-86.58 576.47,-76.28 557.36,-69.08"/>
<polygon fill="midnightblue" stroke="midnightblue" points="716.55,-142.53 727.07,-143.8 719.64,-136.25 716.55,-142.53"/>
</g>
<!-- Node2&#45;&gt;Node2 -->
<g id="edge2" class="edge">
<title>Node2&#45;&gt;Node2</title>
<path fill="none" stroke="midnightblue" d="M570.9,-246.12C572.31,-252.36 558.85,-257.5 530.5,-257.5 491.9,-257.5 480.89,-247.96 497.48,-239.11"/>
<polygon fill="midnightblue" stroke="midnightblue" points="573.18,-243.46 563.52,-239.11 568.36,-248.54 573.18,-243.46"/>
</g>
<!-- Node3 -->
<g id="node3" class="node">
<title>Node3</title>
<g id="a_node3"><a xlink:href="../../da/d96/a00782.html#ac32178fd1f477adb43a9b8ad297dae60" target="_top" xlink:title=" ">
<polygon fill="none" stroke="black" points="237,-220 237,-239 385,-239 385,-220 237,-220"/>
<text text-anchor="middle" x="311" y="-227" font-family="Helvetica,sans-Serif" font-size="10.00">com.cliffc.aa.HM.HM6.T2.p</text>
</a>
</g>
</g>
<!-- Node2&#45;&gt;Node3 -->
<g id="edge3" class="edge">
<title>Node2&#45;&gt;Node3</title>
<path fill="none" stroke="midnightblue" d="M443.73,-229.5C424.4,-229.5 404.06,-229.5 385.3,-229.5"/>
<polygon fill="midnightblue" stroke="midnightblue" points="443.73,-233 453.73,-229.5 443.73,-226 443.73,-233"/>
</g>
<!-- Node7&#45;&gt;Node7 -->
<g id="edge17" class="edge">
<title>Node7&#45;&gt;Node7</title>
<path fill="none" stroke="midnightblue" d="M570.9,-76.12C572.31,-82.36 558.85,-87.5 530.5,-87.5 491.9,-87.5 480.89,-77.96 497.48,-69.11"/>
<polygon fill="midnightblue" stroke="midnightblue" points="573.18,-73.46 563.52,-69.11 568.36,-78.54 573.18,-73.46"/>
</g>
<!-- Node8 -->
<g id="node8" class="node">
<title>Node8</title>
<g id="a_node8"><a xlink:href="../../d8/d4e/a00754.html#a30df3e685da65a8303c441041f589f13" target="_top" xlink:title=" ">
<polygon fill="none" stroke="black" points="223,-138 223,-157 399,-157 399,-138 223,-138"/>
<text text-anchor="middle" x="311" y="-145" font-family="Helvetica,sans-Serif" font-size="10.00">com.cliffc.aa.HM.HM6.Syntax.p0</text>
</a>
</g>
</g>
<!-- Node7&#45;&gt;Node8 -->
<g id="edge8" class="edge">
<title>Node7&#45;&gt;Node8</title>
<path fill="none" stroke="midnightblue" d="M495.1,-72.78C477.15,-79.76 454.86,-88.5 435,-96.5 399.84,-110.67 359.25,-127.62 334.61,-137.97"/>
<polygon fill="midnightblue" stroke="midnightblue" points="496.52,-75.98 504.58,-69.1 493.99,-69.46 496.52,-75.98"/>
</g>
<!-- Node14 -->
<g id="node14" class="node">
<title>Node14</title>
<g id="a_node14"><a xlink:href="../../d4/dfa/a00746.html#a2a087ed65ba47e7ce961d28908019a34" target="_top" xlink:title=" ">
<polygon fill="none" stroke="black" points="223,-50 223,-69 399,-69 399,-50 223,-50"/>
<text text-anchor="middle" x="311" y="-57" font-family="Helvetica,sans-Serif" font-size="10.00">com.cliffc.aa.HM.HM6.VStack.str</text>
</a>
</g>
</g>
<!-- Node7&#45;&gt;Node14 -->
<g id="edge14" class="edge">
<title>Node7&#45;&gt;Node14</title>
<path fill="none" stroke="midnightblue" d="M442.52,-59.5C428.23,-59.5 413.42,-59.5 399.12,-59.5"/>
<polygon fill="midnightblue" stroke="midnightblue" points="442.82,-63 452.82,-59.5 442.82,-56 442.82,-63"/>
</g>
<!-- Node16 -->
<g id="node16" class="node">
<title>Node16</title>
<g id="a_node16"><a xlink:href="../../da/d96/a00782.html#aeb0d4ccfa1c2078575c6f1129bfc65ec" target="_top" xlink:title=" ">
<polygon fill="none" stroke="black" points="235,-0.5 235,-30.5 387,-30.5 387,-0.5 235,-0.5"/>
<text text-anchor="start" x="243" y="-18.5" font-family="Helvetica,sans-Serif" font-size="10.00">com.cliffc.aa.HM.HM6.T2.to</text>
<text text-anchor="middle" x="311" y="-7.5" font-family="Helvetica,sans-Serif" font-size="10.00">String</text>
</a>
</g>
</g>
<!-- Node7&#45;&gt;Node16 -->
<g id="edge18" class="edge">
<title>Node7&#45;&gt;Node16</title>
<path fill="none" stroke="midnightblue" d="M472.5,-47.97C446.2,-42.65 414.63,-36.26 386.47,-30.57"/>
<polygon fill="midnightblue" stroke="midnightblue" points="471.81,-51.4 482.31,-49.95 473.2,-44.54 471.81,-51.4"/>
</g>
<!-- Node9 -->
<g id="node9" class="node">
<title>Node9</title>
<g id="a_node9"><a xlink:href="../../d8/d4e/a00754.html#a48670a09f16f0d461cee2b2e4215ae99" target="_top" xlink:title=" ">
<polygon fill="none" stroke="black" points="8.5,-233 8.5,-252 178.5,-252 178.5,-233 8.5,-233"/>
<text text-anchor="middle" x="93.5" y="-240" font-family="Helvetica,sans-Serif" font-size="10.00">com.cliffc.aa.HM.HM6.Syntax.p</text>
</a>
</g>
</g>
<!-- Node8&#45;&gt;Node9 -->
<g id="edge9" class="edge">
<title>Node8&#45;&gt;Node9</title>
<path fill="none" stroke="midnightblue" d="M289.74,-163.15C266.29,-180.5 225.89,-208.06 187,-223.5 177.4,-227.31 166.92,-230.4 156.58,-232.89"/>
<polygon fill="midnightblue" stroke="midnightblue" points="291.97,-165.86 297.86,-157.05 287.76,-160.26 291.97,-165.86"/>
</g>
<!-- Node10 -->
<g id="node10" class="node">
<title>Node10</title>
<g id="a_node10"><a xlink:href="../../d4/d13/a00766.html#a1ab64a7076dd540b7423c85e12951a63" target="_top" xlink:title=" ">
<polygon fill="none" stroke="black" points="3,-195 3,-214 184,-214 184,-195 3,-195"/>
<text text-anchor="middle" x="93.5" y="-202" font-family="Helvetica,sans-Serif" font-size="10.00">com.cliffc.aa.HM.HM6.Lambda.p2</text>
</a>
</g>
</g>
<!-- Node8&#45;&gt;Node10 -->
<g id="edge10" class="edge">
<title>Node8&#45;&gt;Node10</title>
<path fill="none" stroke="midnightblue" d="M272.37,-160.17C248.15,-168.06 215.92,-178.08 187,-185.5 173.66,-188.92 159.12,-192.14 145.59,-194.93"/>
<polygon fill="midnightblue" stroke="midnightblue" points="273.48,-163.49 281.89,-157.04 271.29,-156.83 273.48,-163.49"/>
</g>
<!-- Node11 -->
<g id="node11" class="node">
<title>Node11</title>
<g id="a_node11"><a xlink:href="../../d0/d7e/a00770.html#a522761bb71cf33a65a05121db4b7dc66" target="_top" xlink:title=" ">
<polygon fill="none" stroke="black" points="0,-157 0,-176 187,-176 187,-157 0,-157"/>
<text text-anchor="middle" x="93.5" y="-164" font-family="Helvetica,sans-Serif" font-size="10.00">com.cliffc.aa.HM.HM6.Lambda2.p2</text>
</a>
</g>
</g>
<!-- Node8&#45;&gt;Node11 -->
<g id="edge11" class="edge">
<title>Node8&#45;&gt;Node11</title>
<path fill="none" stroke="midnightblue" d="M212.95,-156.06C204.36,-156.81 195.68,-157.58 187.14,-158.33"/>
<polygon fill="midnightblue" stroke="midnightblue" points="213.32,-159.54 222.97,-155.17 212.7,-152.57 213.32,-159.54"/>
</g>
<!-- Node12 -->
<g id="node12" class="node">
<title>Node12</title>
<g id="a_node12"><a xlink:href="../../d3/dee/a00774.html#a03fdd5936f9b76ec56b0488cbf61f14e" target="_top" xlink:title=" ">
<polygon fill="none" stroke="black" points="15,-119 15,-138 172,-138 172,-119 15,-119"/>
<text text-anchor="middle" x="93.5" y="-126" font-family="Helvetica,sans-Serif" font-size="10.00">com.cliffc.aa.HM.HM6.Let.p2</text>
</a>
</g>
</g>
<!-- Node8&#45;&gt;Node12 -->
<g id="edge12" class="edge">
<title>Node8&#45;&gt;Node12</title>
<path fill="none" stroke="midnightblue" d="M212.65,-138.92C199.07,-137.72 185.28,-136.5 172.13,-135.34"/>
<polygon fill="midnightblue" stroke="midnightblue" points="212.7,-142.43 222.97,-139.83 213.32,-135.46 212.7,-142.43"/>
</g>
<!-- Node13 -->
<g id="node13" class="node">
<title>Node13</title>
<g id="a_node13"><a xlink:href="../../d6/d17/a00778.html#ad2325394264c343187a15d22f16329e5" target="_top" xlink:title=" ">
<polygon fill="none" stroke="black" points="9.5,-81 9.5,-100 177.5,-100 177.5,-81 9.5,-81"/>
<text text-anchor="middle" x="93.5" y="-88" font-family="Helvetica,sans-Serif" font-size="10.00">com.cliffc.aa.HM.HM6.Apply.p2</text>
</a>
</g>
</g>
<!-- Node8&#45;&gt;Node13 -->
<g id="edge13" class="edge">
<title>Node8&#45;&gt;Node13</title>
<path fill="none" stroke="midnightblue" d="M272.37,-134.83C248.15,-126.94 215.92,-116.92 187,-109.5 173.66,-106.08 159.12,-102.86 145.59,-100.07"/>
<polygon fill="midnightblue" stroke="midnightblue" points="271.29,-138.17 281.89,-137.96 273.48,-131.51 271.29,-138.17"/>
</g>
<!-- Node14&#45;&gt;Node14 -->
<g id="edge15" class="edge">
<title>Node14&#45;&gt;Node14</title>
<path fill="none" stroke="midnightblue" d="M351.4,-76.12C352.81,-82.36 339.35,-87.5 311,-87.5 272.4,-87.5 261.39,-77.96 277.98,-69.11"/>
<polygon fill="midnightblue" stroke="midnightblue" points="353.68,-73.46 344.02,-69.11 348.86,-78.54 353.68,-73.46"/>
</g>
<!-- Node15 -->
<g id="node15" class="node">
<title>Node15</title>
<g id="a_node15"><a xlink:href="../../d4/dfa/a00746.html#aa3ce01187f4d7382f0f5f658bddf527a" target="_top" xlink:title=" ">
<polygon fill="none" stroke="black" points="7,-31.5 7,-61.5 180,-61.5 180,-31.5 7,-31.5"/>
<text text-anchor="start" x="15" y="-49.5" font-family="Helvetica,sans-Serif" font-size="10.00">com.cliffc.aa.HM.HM6.VStack.to</text>
<text text-anchor="middle" x="93.5" y="-38.5" font-family="Helvetica,sans-Serif" font-size="10.00">String</text>
</a>
</g>
</g>
<!-- Node14&#45;&gt;Node15 -->
<g id="edge16" class="edge">
<title>Node14&#45;&gt;Node15</title>
<path fill="none" stroke="midnightblue" d="M212.96,-53.65C202.01,-52.99 190.9,-52.32 180.11,-51.66"/>
<polygon fill="midnightblue" stroke="midnightblue" points="212.78,-57.14 222.97,-54.25 213.2,-50.15 212.78,-57.14"/>
</g>
</g>
</svg>
        <g id="navigator" transform="translate(0 0)" fill="#404254">
                <rect fill="#f2f5e9" fill-opacity="0.5" stroke="#606060" stroke-width=".5" x="0" y="0" width="60" height="60"/>
                <use id="zoomplus" xlink:href="#zoomPlus" x="17" y="9" onmousedown="handleZoom(evt,'in')"/>
                <use id="zoomminus" xlink:href="#zoomMin" x="42" y="9" onmousedown="handleZoom(evt,'out')"/>
                <use id="reset" xlink:href="#resetDef" x="30" y="36" onmousedown="handleReset()"/>
                <g id="arrowUp" xlink:href="#dirArrow" transform="translate(30 24)" onmousedown="handlePan(0,-1)">
                  <use xlink:href="#rim" fill="#404040">
                        <set attributeName="fill" to="#808080" begin="arrowUp.mouseover" end="arrowUp.mouseout"/>
                  </use>
                  <path fill="none" stroke="white" stroke-width="1.5" d="M0,-3.0v7 M-2.5,-0.5L0,-3.0L2.5,-0.5"/>
                </g>
                <g id="arrowRight" xlink:href="#dirArrow" transform="rotate(90) translate(36 -43)" onmousedown="handlePan(1,0)">
                  <use xlink:href="#rim" fill="#404040">
                        <set attributeName="fill" to="#808080" begin="arrowRight.mouseover" end="arrowRight.mouseout"/>
                  </use>
                  <path fill="none" stroke="white" stroke-width="1.5" d="M0,-3.0v7 M-2.5,-0.5L0,-3.0L2.5,-0.5"/>
                </g>
                <g id="arrowDown" xlink:href="#dirArrow" transform="rotate(180) translate(-30 -48)" onmousedown="handlePan(0,1)">
                  <use xlink:href="#rim" fill="#404040">
                        <set attributeName="fill" to="#808080" begin="arrowDown.mouseover" end="arrowDown.mouseout"/>
                  </use>
                  <path fill="none" stroke="white" stroke-width="1.5" d="M0,-3.0v7 M-2.5,-0.5L0,-3.0L2.5,-0.5"/>
                </g>
                <g id="arrowLeft" xlink:href="#dirArrow" transform="rotate(270) translate(-36 17)" onmousedown="handlePan(-1,0)">
                  <use xlink:href="#rim" fill="#404040">
                        <set attributeName="fill" to="#808080" begin="arrowLeft.mouseover" end="arrowLeft.mouseout"/>
                  </use>
                  <path fill="none" stroke="white" stroke-width="1.5" d="M0,-3.0v7 M-2.5,-0.5L0,-3.0L2.5,-0.5"/>
                </g>
        </g>
        <svg viewBox="0 0 15 15" width="100%" height="30px" preserveAspectRatio="xMaxYMin meet">
         <g id="arrow_out" transform="scale(0.3 0.3)">
          <a xlink:href="a00782_a3b1ea28bb757344e999d38a756bd8bdc_icgraph_org.svg" target="_base">
           <rect id="button" ry="5" rx="5" y="6" x="6" height="38" width="38"
                fill="#f2f5e9" fill-opacity="0.5" stroke="#606060" stroke-width="1.0"/>
           <path id="arrow"
             d="M 11.500037,31.436501 C 11.940474,20.09759 22.043105,11.32322 32.158766,21.979434 L 37.068811,17.246167 C 37.068811,17.246167 37.088388,32 37.088388,32 L 22.160133,31.978069 C 22.160133,31.978069 26.997745,27.140456 26.997745,27.140456 C 18.528582,18.264221 13.291696,25.230495 11.500037,31.436501 z"
             style="fill:#404040;"/>
          </a>
         </g>
        </svg>
</svg>
