<?xml version="1.0" encoding="UTF-8" standalone="no"?>
<!DOCTYPE svg PUBLIC "-//W3C//DTD SVG 1.1//EN"
 "http://www.w3.org/Graphics/SVG/1.1/DTD/svg11.dtd">
<!-- Generated by graphviz version 2.43.0 (0)
 -->
<!-- Title: com.cliffc.aa.HM.HM6.T2._occurs_in_type Pages: 1 -->
<svg width="1321pt" height="132pt"
 viewBox="0.00 0.00 1321.00 132.24" xmlns="http://www.w3.org/2000/svg" xmlns:xlink="http://www.w3.org/1999/xlink">
<g id="graph0" class="graph" transform="scale(1 1) rotate(0) translate(4 128.24)">
<title>com.cliffc.aa.HM.HM6.T2._occurs_in_type</title>
<!-- Node1 -->
<g id="node1" class="node">
<title>Node1</title>
<g id="a_node1"><a xlink:title=" ">
<polygon fill="#bfbfbf" stroke="black" points="0,-52 0,-82 142,-82 142,-52 0,-52"/>
<text text-anchor="start" x="8" y="-70" font-family="Helvetica,sans-Serif" font-size="10.00">com.cliffc.aa.HM.HM6.T2.</text>
<text text-anchor="middle" x="71" y="-59" font-family="Helvetica,sans-Serif" font-size="10.00">_occurs_in_type</text>
</a>
</g>
</g>
<!-- Node2 -->
<g id="node2" class="node">
<title>Node2</title>
<g id="a_node2"><a xlink:href="../../da/d96/a00782.html#ae20be8067da51e6c21154960c7a16039" target="_top" xlink:title=" ">
<polygon fill="none" stroke="black" points="178,-76.5 178,-95.5 341,-95.5 341,-76.5 178,-76.5"/>
<text text-anchor="middle" x="259.5" y="-83.5" font-family="Helvetica,sans-Serif" font-size="10.00">com.cliffc.aa.HM.HM6.T2.args</text>
</a>
</g>
</g>
<!-- Node1&#45;&gt;Node2 -->
<g id="edge1" class="edge">
<title>Node1&#45;&gt;Node2</title>
<path fill="none" stroke="midnightblue" d="M142.24,-74.16C150.63,-75.01 159.28,-75.89 167.9,-76.77"/>
<polygon fill="midnightblue" stroke="midnightblue" points="167.69,-80.27 177.99,-77.8 168.4,-73.3 167.69,-80.27"/>
</g>
<!-- Node4 -->
<g id="node4" class="node">
<title>Node4</title>
<g id="a_node4"><a xlink:href="../../da/d96/a00782.html#a6484a76005f406bab8095a6ac41a9ddf" target="_top" xlink:title=" ">
<polygon fill="none" stroke="black" points="778,-76.5 778,-95.5 952,-95.5 952,-76.5 778,-76.5"/>
<text text-anchor="middle" x="865" y="-83.5" font-family="Helvetica,sans-Serif" font-size="10.00">com.cliffc.aa.HM.HM6.T2.is_leaf</text>
</a>
</g>
</g>
<!-- Node1&#45;&gt;Node4 -->
<g id="edge8" class="edge">
<title>Node1&#45;&gt;Node4</title>
<path fill="none" stroke="midnightblue" d="M105.09,-82.2C125.6,-90.77 152.77,-100.61 178,-105 400.35,-143.65 669.24,-114.7 794.06,-97.03"/>
<polygon fill="midnightblue" stroke="midnightblue" points="794.84,-100.45 804.24,-95.57 793.84,-93.52 794.84,-100.45"/>
</g>
<!-- Node7 -->
<g id="node7" class="node">
<title>Node7</title>
<g id="a_node7"><a xlink:href="../../da/d96/a00782.html#a330c1c6b805c3cb281c514586a5e971b" target="_top" xlink:title=" ">
<polygon fill="none" stroke="black" points="573,-38.5 573,-57.5 742,-57.5 742,-38.5 573,-38.5"/>
<text text-anchor="middle" x="657.5" y="-45.5" font-family="Helvetica,sans-Serif" font-size="10.00">com.cliffc.aa.HM.HM6.T2.no_uf</text>
</a>
</g>
</g>
<!-- Node1&#45;&gt;Node7 -->
<g id="edge9" class="edge">
<title>Node1&#45;&gt;Node7</title>
<path fill="none" stroke="midnightblue" d="M142.21,-64.72C247.29,-61.3 445.59,-54.86 562.88,-51.04"/>
<polygon fill="midnightblue" stroke="midnightblue" points="563.04,-54.54 572.92,-50.72 562.82,-47.54 563.04,-54.54"/>
</g>
<!-- Node8 -->
<g id="node8" class="node">
<title>Node8</title>
<g id="a_node8"><a xlink:href="../../df/dee/a01646.html#a88ad20daf92e92fe0e3925b23c4fecf0" target="_top" xlink:title=" ">
<polygon fill="none" stroke="black" points="180.5,-0.5 180.5,-19.5 338.5,-19.5 338.5,-0.5 180.5,-0.5"/>
<text text-anchor="middle" x="259.5" y="-7.5" font-family="Helvetica,sans-Serif" font-size="10.00">com.cliffc.aa.util.VBitSet.tset</text>
</a>
</g>
</g>
<!-- Node1&#45;&gt;Node8 -->
<g id="edge10" class="edge">
<title>Node1&#45;&gt;Node8</title>
<path fill="none" stroke="midnightblue" d="M119.98,-51.93C138.14,-46.26 159.01,-39.79 178,-34 190.44,-30.21 203.98,-26.15 216.34,-22.46"/>
<polygon fill="midnightblue" stroke="midnightblue" points="217.38,-25.81 225.96,-19.6 215.38,-19.1 217.38,-25.81"/>
</g>
<!-- Node3 -->
<g id="node3" class="node">
<title>Node3</title>
<g id="a_node3"><a xlink:href="../../da/d96/a00782.html#ab2e83a7eade97aab395234bdc2fbdee5" target="_top" xlink:title=" ">
<polygon fill="none" stroke="black" points="377,-76.5 377,-95.5 537,-95.5 537,-76.5 377,-76.5"/>
<text text-anchor="middle" x="457" y="-83.5" font-family="Helvetica,sans-Serif" font-size="10.00">com.cliffc.aa.HM.HM6.T2.find</text>
</a>
</g>
</g>
<!-- Node2&#45;&gt;Node3 -->
<g id="edge2" class="edge">
<title>Node2&#45;&gt;Node3</title>
<path fill="none" stroke="midnightblue" d="M341.15,-86C349.52,-86 358.07,-86 366.53,-86"/>
<polygon fill="midnightblue" stroke="midnightblue" points="366.8,-89.5 376.8,-86 366.8,-82.5 366.8,-89.5"/>
</g>
<!-- Node3&#45;&gt;Node4 -->
<g id="edge3" class="edge">
<title>Node3&#45;&gt;Node4</title>
<path fill="none" stroke="midnightblue" d="M537.24,-86C603.23,-86 697.43,-86 767.74,-86"/>
<polygon fill="midnightblue" stroke="midnightblue" points="767.94,-89.5 777.94,-86 767.94,-82.5 767.94,-89.5"/>
</g>
<!-- Node3&#45;&gt;Node7 -->
<g id="edge6" class="edge">
<title>Node3&#45;&gt;Node7</title>
<path fill="none" stroke="midnightblue" d="M507.83,-76.46C534.73,-71.31 568.14,-64.92 596.46,-59.49"/>
<polygon fill="midnightblue" stroke="midnightblue" points="597.48,-62.86 606.65,-57.54 596.17,-55.99 597.48,-62.86"/>
</g>
<!-- Node5 -->
<g id="node5" class="node">
<title>Node5</title>
<g id="a_node5"><a xlink:href="../../da/d96/a00782.html#a84872ec3f243c8ad7557f8ca549b0fe7" target="_top" xlink:title=" ">
<polygon fill="none" stroke="black" points="988,-76.5 988,-95.5 1144,-95.5 1144,-76.5 988,-76.5"/>
<text text-anchor="middle" x="1066" y="-83.5" font-family="Helvetica,sans-Serif" font-size="10.00">com.cliffc.aa.HM.HM6.T2.isa</text>
</a>
</g>
</g>
<!-- Node4&#45;&gt;Node5 -->
<g id="edge4" class="edge">
<title>Node4&#45;&gt;Node5</title>
<path fill="none" stroke="midnightblue" d="M952.13,-86C960.57,-86 969.14,-86 977.59,-86"/>
<polygon fill="midnightblue" stroke="midnightblue" points="977.82,-89.5 987.82,-86 977.82,-82.5 977.82,-89.5"/>
</g>
<!-- Node6 -->
<g id="node6" class="node">
<title>Node6</title>
<g id="a_node6"><a xlink:href="../../dd/d55/a01638.html#a3975ba7dca9fe2d6e4992b2b5558f882" target="_top" xlink:title=" ">
<polygon fill="none" stroke="black" points="1180,-76.5 1180,-95.5 1313,-95.5 1313,-76.5 1180,-76.5"/>
<text text-anchor="middle" x="1246.5" y="-83.5" font-family="Helvetica,sans-Serif" font-size="10.00">com.cliffc.aa.util.Util.eq</text>
</a>
</g>
</g>
<!-- Node5&#45;&gt;Node6 -->
<g id="edge5" class="edge">
<title>Node5&#45;&gt;Node6</title>
<path fill="none" stroke="midnightblue" d="M1144.25,-86C1152.69,-86 1161.28,-86 1169.7,-86"/>
<polygon fill="midnightblue" stroke="midnightblue" points="1169.87,-89.5 1179.87,-86 1169.87,-82.5 1169.87,-89.5"/>
</g>
<!-- Node7&#45;&gt;Node4 -->
<g id="edge7" class="edge">
<title>Node7&#45;&gt;Node4</title>
<path fill="none" stroke="midnightblue" d="M710.09,-57.54C738.06,-62.71 772.82,-69.14 802.23,-74.58"/>
<polygon fill="midnightblue" stroke="midnightblue" points="801.92,-78.08 812.39,-76.46 803.19,-71.2 801.92,-78.08"/>
</g>
</g>
</svg>
