<?xml version="1.0" encoding="UTF-8" standalone="no"?>
<!DOCTYPE svg PUBLIC "-//W3C//DTD SVG 1.1//EN"
 "http://www.w3.org/Graphics/SVG/1.1/DTD/svg11.dtd">
<!-- Generated by graphviz version 2.43.0 (0)
 -->
<!-- Title: com.cliffc.aa.HM.HM6.T2.occurs_in Pages: 1 -->
<svg width="1763pt" height="164pt"
 viewBox="0.00 0.00 1763.00 164.00" xmlns="http://www.w3.org/2000/svg" xmlns:xlink="http://www.w3.org/1999/xlink">
<g id="graph0" class="graph" transform="scale(1 1) rotate(0) translate(4 160)">
<title>com.cliffc.aa.HM.HM6.T2.occurs_in</title>
<!-- Node1 -->
<g id="node1" class="node">
<title>Node1</title>
<g id="a_node1"><a xlink:title=" ">
<polygon fill="#bfbfbf" stroke="black" points="0,-22.5 0,-41.5 188,-41.5 188,-22.5 0,-22.5"/>
<text text-anchor="middle" x="94" y="-29.5" font-family="Helvetica,sans-Serif" font-size="10.00">com.cliffc.aa.HM.HM6.T2.occurs_in</text>
</a>
</g>
</g>
<!-- Node2 -->
<g id="node2" class="node">
<title>Node2</title>
<g id="a_node2"><a xlink:href="../../da/d96/a00782.html#a683df34ed0270f15b29b59f2390c9f09" target="_top" xlink:title=" ">
<polygon fill="none" stroke="black" points="224,-17 224,-47 366,-47 366,-17 224,-17"/>
<text text-anchor="start" x="232" y="-35" font-family="Helvetica,sans-Serif" font-size="10.00">com.cliffc.aa.HM.HM6.T2.</text>
<text text-anchor="middle" x="295" y="-24" font-family="Helvetica,sans-Serif" font-size="10.00">_occurs_in</text>
</a>
</g>
</g>
<!-- Node1&#45;&gt;Node2 -->
<g id="edge1" class="edge">
<title>Node1&#45;&gt;Node2</title>
<path fill="none" stroke="midnightblue" d="M188.09,-32C196.65,-32 205.27,-32 213.7,-32"/>
<polygon fill="midnightblue" stroke="midnightblue" points="213.87,-35.5 223.87,-32 213.87,-28.5 213.87,-35.5"/>
</g>
<!-- Node3 -->
<g id="node3" class="node">
<title>Node3</title>
<g id="a_node3"><a xlink:href="../../da/d96/a00782.html#a1d0c9b9183050e1fada744b476824f60" target="_top" xlink:title=" ">
<polygon fill="none" stroke="black" points="422,-55 422,-85 564,-85 564,-55 422,-55"/>
<text text-anchor="start" x="430" y="-73" font-family="Helvetica,sans-Serif" font-size="10.00">com.cliffc.aa.HM.HM6.T2.</text>
<text text-anchor="middle" x="493" y="-62" font-family="Helvetica,sans-Serif" font-size="10.00">_occurs_in_type</text>
</a>
</g>
</g>
<!-- Node2&#45;&gt;Node3 -->
<g id="edge2" class="edge">
<title>Node2&#45;&gt;Node3</title>
<path fill="none" stroke="midnightblue" d="M366.21,-45.61C381.07,-48.49 396.87,-51.56 412.07,-54.5"/>
<polygon fill="midnightblue" stroke="midnightblue" points="411.47,-57.95 421.95,-56.42 412.8,-51.08 411.47,-57.95"/>
</g>
<!-- Node11 -->
<g id="node11" class="node">
<title>Node11</title>
<g id="a_node11"><a xlink:href="../../d8/d4e/a00754.html#a5715204e20b9ba2da4f3c355319a9806" target="_top" xlink:title=" ">
<polygon fill="none" stroke="black" points="402,-0.5 402,-19.5 584,-19.5 584,-0.5 402,-0.5"/>
<text text-anchor="middle" x="493" y="-7.5" font-family="Helvetica,sans-Serif" font-size="10.00">com.cliffc.aa.HM.HM6.Syntax.find</text>
</a>
</g>
</g>
<!-- Node2&#45;&gt;Node11 -->
<g id="edge13" class="edge">
<title>Node2&#45;&gt;Node11</title>
<path fill="none" stroke="midnightblue" d="M366.21,-24.12C376.28,-22.99 386.78,-21.81 397.23,-20.64"/>
<polygon fill="midnightblue" stroke="midnightblue" points="397.67,-24.11 407.22,-19.52 396.89,-17.15 397.67,-24.11"/>
</g>
<!-- Node4 -->
<g id="node4" class="node">
<title>Node4</title>
<g id="a_node4"><a xlink:href="../../da/d96/a00782.html#ae20be8067da51e6c21154960c7a16039" target="_top" xlink:title=" ">
<polygon fill="none" stroke="black" points="620,-22.5 620,-41.5 783,-41.5 783,-22.5 620,-22.5"/>
<text text-anchor="middle" x="701.5" y="-29.5" font-family="Helvetica,sans-Serif" font-size="10.00">com.cliffc.aa.HM.HM6.T2.args</text>
</a>
</g>
</g>
<!-- Node3&#45;&gt;Node4 -->
<g id="edge3" class="edge">
<title>Node3&#45;&gt;Node4</title>
<path fill="none" stroke="midnightblue" d="M564.2,-57.08C588.45,-52.62 615.41,-47.66 638.92,-43.33"/>
<polygon fill="midnightblue" stroke="midnightblue" points="639.56,-46.77 648.76,-41.52 638.29,-39.89 639.56,-46.77"/>
</g>
<!-- Node6 -->
<g id="node6" class="node">
<title>Node6</title>
<g id="a_node6"><a xlink:href="../../da/d96/a00782.html#a6484a76005f406bab8095a6ac41a9ddf" target="_top" xlink:title=" ">
<polygon fill="none" stroke="black" points="1220,-60.5 1220,-79.5 1394,-79.5 1394,-60.5 1220,-60.5"/>
<text text-anchor="middle" x="1307" y="-67.5" font-family="Helvetica,sans-Serif" font-size="10.00">com.cliffc.aa.HM.HM6.T2.is_leaf</text>
</a>
</g>
</g>
<!-- Node3&#45;&gt;Node6 -->
<g id="edge10" class="edge">
<title>Node3&#45;&gt;Node6</title>
<path fill="none" stroke="midnightblue" d="M564.2,-79.03C582.35,-81.03 601.88,-82.88 620,-84 870.2,-99.45 934.07,-108.35 1184,-89 1204.38,-87.42 1226.51,-84.38 1246.26,-81.19"/>
<polygon fill="midnightblue" stroke="midnightblue" points="1247.05,-84.61 1256.34,-79.51 1245.9,-77.7 1247.05,-84.61"/>
</g>
<!-- Node9 -->
<g id="node9" class="node">
<title>Node9</title>
<g id="a_node9"><a xlink:href="../../da/d96/a00782.html#a330c1c6b805c3cb281c514586a5e971b" target="_top" xlink:title=" ">
<polygon fill="none" stroke="black" points="1015,-60.5 1015,-79.5 1184,-79.5 1184,-60.5 1015,-60.5"/>
<text text-anchor="middle" x="1099.5" y="-67.5" font-family="Helvetica,sans-Serif" font-size="10.00">com.cliffc.aa.HM.HM6.T2.no_uf</text>
</a>
</g>
</g>
<!-- Node3&#45;&gt;Node9 -->
<g id="edge11" class="edge">
<title>Node3&#45;&gt;Node9</title>
<path fill="none" stroke="midnightblue" d="M564.23,-70C673.17,-70 882.99,-70 1004.75,-70"/>
<polygon fill="midnightblue" stroke="midnightblue" points="1004.81,-73.5 1014.81,-70 1004.81,-66.5 1004.81,-73.5"/>
</g>
<!-- Node10 -->
<g id="node10" class="node">
<title>Node10</title>
<g id="a_node10"><a xlink:href="../../df/dee/a01646.html#a88ad20daf92e92fe0e3925b23c4fecf0" target="_top" xlink:title=" ">
<polygon fill="none" stroke="black" points="622.5,-136.5 622.5,-155.5 780.5,-155.5 780.5,-136.5 622.5,-136.5"/>
<text text-anchor="middle" x="701.5" y="-143.5" font-family="Helvetica,sans-Serif" font-size="10.00">com.cliffc.aa.util.VBitSet.tset</text>
</a>
</g>
</g>
<!-- Node3&#45;&gt;Node10 -->
<g id="edge12" class="edge">
<title>Node3&#45;&gt;Node10</title>
<path fill="none" stroke="midnightblue" d="M527.86,-85.07C553.02,-96 588.33,-110.78 620,-122 631.6,-126.11 644.3,-130.12 656.11,-133.64"/>
<polygon fill="midnightblue" stroke="midnightblue" points="655.2,-137.03 665.78,-136.49 657.17,-130.31 655.2,-137.03"/>
</g>
<!-- Node5 -->
<g id="node5" class="node">
<title>Node5</title>
<g id="a_node5"><a xlink:href="../../da/d96/a00782.html#ab2e83a7eade97aab395234bdc2fbdee5" target="_top" xlink:title=" ">
<polygon fill="none" stroke="black" points="819,-22.5 819,-41.5 979,-41.5 979,-22.5 819,-22.5"/>
<text text-anchor="middle" x="899" y="-29.5" font-family="Helvetica,sans-Serif" font-size="10.00">com.cliffc.aa.HM.HM6.T2.find</text>
</a>
</g>
</g>
<!-- Node4&#45;&gt;Node5 -->
<g id="edge4" class="edge">
<title>Node4&#45;&gt;Node5</title>
<path fill="none" stroke="midnightblue" d="M783.15,-32C791.52,-32 800.07,-32 808.53,-32"/>
<polygon fill="midnightblue" stroke="midnightblue" points="808.8,-35.5 818.8,-32 808.8,-28.5 808.8,-35.5"/>
</g>
<!-- Node5&#45;&gt;Node6 -->
<g id="edge5" class="edge">
<title>Node5&#45;&gt;Node6</title>
<path fill="none" stroke="midnightblue" d="M979.13,-35.43C1036.19,-38.36 1115,-43.33 1184,-51 1202.69,-53.08 1222.91,-55.96 1241.4,-58.86"/>
<polygon fill="midnightblue" stroke="midnightblue" points="1241.05,-62.35 1251.48,-60.46 1242.15,-55.43 1241.05,-62.35"/>
</g>
<!-- Node5&#45;&gt;Node9 -->
<g id="edge8" class="edge">
<title>Node5&#45;&gt;Node9</title>
<path fill="none" stroke="midnightblue" d="M949.83,-41.54C976.73,-46.69 1010.14,-53.08 1038.46,-58.51"/>
<polygon fill="midnightblue" stroke="midnightblue" points="1038.17,-62.01 1048.65,-60.46 1039.48,-55.14 1038.17,-62.01"/>
</g>
<!-- Node7 -->
<g id="node7" class="node">
<title>Node7</title>
<g id="a_node7"><a xlink:href="../../da/d96/a00782.html#a84872ec3f243c8ad7557f8ca549b0fe7" target="_top" xlink:title=" ">
<polygon fill="none" stroke="black" points="1430,-60.5 1430,-79.5 1586,-79.5 1586,-60.5 1430,-60.5"/>
<text text-anchor="middle" x="1508" y="-67.5" font-family="Helvetica,sans-Serif" font-size="10.00">com.cliffc.aa.HM.HM6.T2.isa</text>
</a>
</g>
</g>
<!-- Node6&#45;&gt;Node7 -->
<g id="edge6" class="edge">
<title>Node6&#45;&gt;Node7</title>
<path fill="none" stroke="midnightblue" d="M1394.13,-70C1402.57,-70 1411.14,-70 1419.59,-70"/>
<polygon fill="midnightblue" stroke="midnightblue" points="1419.82,-73.5 1429.82,-70 1419.82,-66.5 1419.82,-73.5"/>
</g>
<!-- Node8 -->
<g id="node8" class="node">
<title>Node8</title>
<g id="a_node8"><a xlink:href="../../dd/d55/a01638.html#a3975ba7dca9fe2d6e4992b2b5558f882" target="_top" xlink:title=" ">
<polygon fill="none" stroke="black" points="1622,-60.5 1622,-79.5 1755,-79.5 1755,-60.5 1622,-60.5"/>
<text text-anchor="middle" x="1688.5" y="-67.5" font-family="Helvetica,sans-Serif" font-size="10.00">com.cliffc.aa.util.Util.eq</text>
</a>
</g>
</g>
<!-- Node7&#45;&gt;Node8 -->
<g id="edge7" class="edge">
<title>Node7&#45;&gt;Node8</title>
<path fill="none" stroke="midnightblue" d="M1586.25,-70C1594.69,-70 1603.28,-70 1611.7,-70"/>
<polygon fill="midnightblue" stroke="midnightblue" points="1611.87,-73.5 1621.87,-70 1611.87,-66.5 1611.87,-73.5"/>
</g>
<!-- Node9&#45;&gt;Node6 -->
<g id="edge9" class="edge">
<title>Node9&#45;&gt;Node6</title>
<path fill="none" stroke="midnightblue" d="M1184.08,-70C1192.55,-70 1201.2,-70 1209.78,-70"/>
<polygon fill="midnightblue" stroke="midnightblue" points="1209.82,-73.5 1219.82,-70 1209.82,-66.5 1209.82,-73.5"/>
</g>
<!-- Node11&#45;&gt;Node5 -->
<g id="edge14" class="edge">
<title>Node11&#45;&gt;Node5</title>
<path fill="none" stroke="midnightblue" d="M584.32,-7.39C641.39,-6.62 716.64,-7.21 783,-13 801.88,-14.65 822.34,-17.63 840.69,-20.76"/>
<polygon fill="midnightblue" stroke="midnightblue" points="840.2,-24.22 850.65,-22.5 841.4,-17.33 840.2,-24.22"/>
</g>
</g>
</svg>
