<?xml version="1.0" encoding="UTF-8" standalone="no"?>
<!DOCTYPE svg PUBLIC "-//W3C//DTD SVG 1.1//EN"
 "http://www.w3.org/Graphics/SVG/1.1/DTD/svg11.dtd">
<!-- Generated by graphviz version 2.43.0 (0)
 -->
<!-- Title: com.cliffc.aa.HM.HM6.T2.toString Pages: 1 -->
<svg width="1341pt" height="286pt"
 viewBox="0.00 0.00 1341.00 286.00" xmlns="http://www.w3.org/2000/svg" xmlns:xlink="http://www.w3.org/1999/xlink">
<g id="graph0" class="graph" transform="scale(1 1) rotate(0) translate(4 282)">
<title>com.cliffc.aa.HM.HM6.T2.toString</title>
<!-- Node1 -->
<g id="node1" class="node">
<title>Node1</title>
<g id="a_node1"><a xlink:title=" ">
<polygon fill="#bfbfbf" stroke="black" points="0,-159 0,-189 152,-189 152,-159 0,-159"/>
<text text-anchor="start" x="8" y="-177" font-family="Helvetica,sans-Serif" font-size="10.00">com.cliffc.aa.HM.HM6.T2.to</text>
<text text-anchor="middle" x="76" y="-166" font-family="Helvetica,sans-Serif" font-size="10.00">String</text>
</a>
</g>
</g>
<!-- Node2 -->
<g id="node2" class="node">
<title>Node2</title>
<g id="a_node2"><a xlink:href="../../da/d96/a00782.html#a2afddf6ab1507c789d27a3ca4bf39be2" target="_top" xlink:title=" ">
<polygon fill="none" stroke="black" points="188,-211.5 188,-230.5 374,-230.5 374,-211.5 188,-211.5"/>
<text text-anchor="middle" x="281" y="-218.5" font-family="Helvetica,sans-Serif" font-size="10.00">com.cliffc.aa.HM.HM6.T2.get_dups</text>
</a>
</g>
</g>
<!-- Node1&#45;&gt;Node2 -->
<g id="edge1" class="edge">
<title>Node1&#45;&gt;Node2</title>
<path fill="none" stroke="midnightblue" d="M141.79,-189C169.98,-195.53 202.54,-203.07 228.97,-209.19"/>
<polygon fill="midnightblue" stroke="midnightblue" points="228.25,-212.61 238.78,-211.46 229.83,-205.79 228.25,-212.61"/>
</g>
<!-- Node9 -->
<g id="node9" class="node">
<title>Node9</title>
<g id="a_node9"><a xlink:href="../../da/d96/a00782.html#a6b3ffd9852f1b2128b1e2e67ac6b8015" target="_top" xlink:title=" ">
<polygon fill="none" stroke="black" points="595,-151.5 595,-170.5 750,-170.5 750,-151.5 595,-151.5"/>
<text text-anchor="middle" x="672.5" y="-158.5" font-family="Helvetica,sans-Serif" font-size="10.00">com.cliffc.aa.HM.HM6.T2.str</text>
</a>
</g>
</g>
<!-- Node1&#45;&gt;Node9 -->
<g id="edge8" class="edge">
<title>Node1&#45;&gt;Node9</title>
<path fill="none" stroke="midnightblue" d="M152.29,-172.35C262.69,-169.94 467.99,-165.45 584.63,-162.9"/>
<polygon fill="midnightblue" stroke="midnightblue" points="585.02,-166.39 594.94,-162.67 584.87,-159.39 585.02,-166.39"/>
</g>
<!-- Node16 -->
<g id="node16" class="node">
<title>Node16</title>
<g id="a_node16"><a xlink:href="../../d4/d99/a01634.html#a810e7fa54cbd178760c86b30b2aa893c" target="_top" xlink:title=" ">
<polygon fill="none" stroke="black" points="218,-115 218,-145 344,-145 344,-115 218,-115"/>
<text text-anchor="start" x="226" y="-133" font-family="Helvetica,sans-Serif" font-size="10.00">com.cliffc.aa.util.SB.to</text>
<text text-anchor="middle" x="281" y="-122" font-family="Helvetica,sans-Serif" font-size="10.00">String</text>
</a>
</g>
</g>
<!-- Node1&#45;&gt;Node16 -->
<g id="edge21" class="edge">
<title>Node1&#45;&gt;Node16</title>
<path fill="none" stroke="midnightblue" d="M146.29,-158.98C166.14,-154.68 187.82,-149.98 207.84,-145.64"/>
<polygon fill="midnightblue" stroke="midnightblue" points="208.79,-149.02 217.82,-143.48 207.31,-142.17 208.79,-149.02"/>
</g>
<!-- Node3 -->
<g id="node3" class="node">
<title>Node3</title>
<g id="a_node3"><a xlink:href="../../da/d96/a00782.html#a0414432655d2026aceda96093caa336c" target="_top" xlink:title=" ">
<polygon fill="none" stroke="black" points="410,-215 410,-245 552,-245 552,-215 410,-215"/>
<text text-anchor="start" x="418" y="-233" font-family="Helvetica,sans-Serif" font-size="10.00">com.cliffc.aa.HM.HM6.T2.</text>
<text text-anchor="middle" x="481" y="-222" font-family="Helvetica,sans-Serif" font-size="10.00">_get_dups</text>
</a>
</g>
</g>
<!-- Node2&#45;&gt;Node3 -->
<g id="edge2" class="edge">
<title>Node2&#45;&gt;Node3</title>
<path fill="none" stroke="midnightblue" d="M374.04,-225.18C382.59,-225.57 391.2,-225.96 399.63,-226.35"/>
<polygon fill="midnightblue" stroke="midnightblue" points="399.65,-229.85 409.8,-226.81 399.97,-222.86 399.65,-229.85"/>
</g>
<!-- Node4 -->
<g id="node4" class="node">
<title>Node4</title>
<g id="a_node4"><a xlink:href="../../da/d96/a00782.html#a330c1c6b805c3cb281c514586a5e971b" target="_top" xlink:title=" ">
<polygon fill="none" stroke="black" points="588,-220.5 588,-239.5 757,-239.5 757,-220.5 588,-220.5"/>
<text text-anchor="middle" x="672.5" y="-227.5" font-family="Helvetica,sans-Serif" font-size="10.00">com.cliffc.aa.HM.HM6.T2.no_uf</text>
</a>
</g>
</g>
<!-- Node3&#45;&gt;Node4 -->
<g id="edge3" class="edge">
<title>Node3&#45;&gt;Node4</title>
<path fill="none" stroke="midnightblue" d="M552.02,-230C560.44,-230 569.13,-230 577.81,-230"/>
<polygon fill="midnightblue" stroke="midnightblue" points="577.97,-233.5 587.97,-230 577.97,-226.5 577.97,-233.5"/>
</g>
<!-- Node8 -->
<g id="node8" class="node">
<title>Node8</title>
<g id="a_node8"><a xlink:href="../../df/dee/a01646.html#a88ad20daf92e92fe0e3925b23c4fecf0" target="_top" xlink:title=" ">
<polygon fill="none" stroke="black" points="803.5,-258.5 803.5,-277.5 961.5,-277.5 961.5,-258.5 803.5,-258.5"/>
<text text-anchor="middle" x="882.5" y="-265.5" font-family="Helvetica,sans-Serif" font-size="10.00">com.cliffc.aa.util.VBitSet.tset</text>
</a>
</g>
</g>
<!-- Node3&#45;&gt;Node8 -->
<g id="edge7" class="edge">
<title>Node3&#45;&gt;Node8</title>
<path fill="none" stroke="midnightblue" d="M552.25,-243.74C564.15,-245.74 576.4,-247.59 588,-249 656.62,-257.34 734.74,-262.18 793.12,-264.88"/>
<polygon fill="midnightblue" stroke="midnightblue" points="793.27,-268.39 803.42,-265.34 793.58,-261.39 793.27,-268.39"/>
</g>
<!-- Node5 -->
<g id="node5" class="node">
<title>Node5</title>
<g id="a_node5"><a xlink:href="../../da/d96/a00782.html#a6484a76005f406bab8095a6ac41a9ddf" target="_top" xlink:title=" ">
<polygon fill="none" stroke="black" points="795.5,-220.5 795.5,-239.5 969.5,-239.5 969.5,-220.5 795.5,-220.5"/>
<text text-anchor="middle" x="882.5" y="-227.5" font-family="Helvetica,sans-Serif" font-size="10.00">com.cliffc.aa.HM.HM6.T2.is_leaf</text>
</a>
</g>
</g>
<!-- Node4&#45;&gt;Node5 -->
<g id="edge4" class="edge">
<title>Node4&#45;&gt;Node5</title>
<path fill="none" stroke="midnightblue" d="M757.2,-230C766.4,-230 775.83,-230 785.17,-230"/>
<polygon fill="midnightblue" stroke="midnightblue" points="785.25,-233.5 795.25,-230 785.25,-226.5 785.25,-233.5"/>
</g>
<!-- Node6 -->
<g id="node6" class="node">
<title>Node6</title>
<g id="a_node6"><a xlink:href="../../da/d96/a00782.html#a84872ec3f243c8ad7557f8ca549b0fe7" target="_top" xlink:title=" ">
<polygon fill="none" stroke="black" points="1008,-182.5 1008,-201.5 1164,-201.5 1164,-182.5 1008,-182.5"/>
<text text-anchor="middle" x="1086" y="-189.5" font-family="Helvetica,sans-Serif" font-size="10.00">com.cliffc.aa.HM.HM6.T2.isa</text>
</a>
</g>
</g>
<!-- Node5&#45;&gt;Node6 -->
<g id="edge5" class="edge">
<title>Node5&#45;&gt;Node6</title>
<path fill="none" stroke="midnightblue" d="M934.09,-220.46C961.51,-215.29 995.6,-208.86 1024.43,-203.42"/>
<polygon fill="midnightblue" stroke="midnightblue" points="1025.21,-206.84 1034.39,-201.54 1023.92,-199.96 1025.21,-206.84"/>
</g>
<!-- Node7 -->
<g id="node7" class="node">
<title>Node7</title>
<g id="a_node7"><a xlink:href="../../dd/d55/a01638.html#a3975ba7dca9fe2d6e4992b2b5558f882" target="_top" xlink:title=" ">
<polygon fill="none" stroke="black" points="1200,-182.5 1200,-201.5 1333,-201.5 1333,-182.5 1200,-182.5"/>
<text text-anchor="middle" x="1266.5" y="-189.5" font-family="Helvetica,sans-Serif" font-size="10.00">com.cliffc.aa.util.Util.eq</text>
</a>
</g>
</g>
<!-- Node6&#45;&gt;Node7 -->
<g id="edge6" class="edge">
<title>Node6&#45;&gt;Node7</title>
<path fill="none" stroke="midnightblue" d="M1164.25,-192C1172.69,-192 1181.28,-192 1189.7,-192"/>
<polygon fill="midnightblue" stroke="midnightblue" points="1189.87,-195.5 1199.87,-192 1189.87,-188.5 1189.87,-195.5"/>
</g>
<!-- Node9&#45;&gt;Node5 -->
<g id="edge13" class="edge">
<title>Node9&#45;&gt;Node5</title>
<path fill="none" stroke="midnightblue" d="M693.37,-170.66C716.75,-181.69 756.95,-199.69 793,-211 801.39,-213.63 810.34,-216.02 819.2,-218.15"/>
<polygon fill="midnightblue" stroke="midnightblue" points="818.61,-221.6 829.14,-220.43 820.18,-214.78 818.61,-221.6"/>
</g>
<!-- Node9&#45;&gt;Node8 -->
<g id="edge18" class="edge">
<title>Node9&#45;&gt;Node8</title>
<path fill="none" stroke="midnightblue" d="M692.7,-170.56C710.27,-179.74 736.57,-194.61 757,-211 775.15,-225.56 772.72,-237.6 793,-249 796.96,-251.23 801.15,-253.19 805.48,-254.93"/>
<polygon fill="midnightblue" stroke="midnightblue" points="804.52,-258.3 815.12,-258.37 806.88,-251.71 804.52,-258.3"/>
</g>
<!-- Node9&#45;&gt;Node9 -->
<g id="edge16" class="edge">
<title>Node9&#45;&gt;Node9</title>
<path fill="none" stroke="midnightblue" d="M643.22,-170.76C628.97,-179.57 638.73,-189 672.5,-189 696.24,-189 708.12,-184.34 708.12,-178.5"/>
<polygon fill="midnightblue" stroke="midnightblue" points="710.83,-176.28 701.78,-170.76 705.41,-180.71 710.83,-176.28"/>
</g>
<!-- Node10 -->
<g id="node10" class="node">
<title>Node10</title>
<g id="a_node10"><a xlink:href="../../da/d96/a00782.html#a5da5ead5fac7da967025c5db588d2690" target="_top" xlink:title=" ">
<polygon fill="none" stroke="black" points="793,-182.5 793,-201.5 972,-201.5 972,-182.5 793,-182.5"/>
<text text-anchor="middle" x="882.5" y="-189.5" font-family="Helvetica,sans-Serif" font-size="10.00">com.cliffc.aa.HM.HM6.T2.is_base</text>
</a>
</g>
</g>
<!-- Node9&#45;&gt;Node10 -->
<g id="edge9" class="edge">
<title>Node9&#45;&gt;Node10</title>
<path fill="none" stroke="midnightblue" d="M737.32,-170.51C759.48,-173.81 784.51,-177.54 807.42,-180.96"/>
<polygon fill="midnightblue" stroke="midnightblue" points="807.04,-184.44 817.44,-182.45 808.07,-177.52 807.04,-184.44"/>
</g>
<!-- Node11 -->
<g id="node11" class="node">
<title>Node11</title>
<g id="a_node11"><a xlink:href="../../da/d96/a00782.html#a3b1ea28bb757344e999d38a756bd8bdc" target="_top" xlink:title=" ">
<polygon fill="none" stroke="black" points="797,-38.5 797,-57.5 968,-57.5 968,-38.5 797,-38.5"/>
<text text-anchor="middle" x="882.5" y="-45.5" font-family="Helvetica,sans-Serif" font-size="10.00">com.cliffc.aa.HM.HM6.T2.is_fun</text>
</a>
</g>
</g>
<!-- Node9&#45;&gt;Node11 -->
<g id="edge11" class="edge">
<title>Node9&#45;&gt;Node11</title>
<path fill="none" stroke="midnightblue" d="M682.69,-151.26C701.46,-131.97 746.41,-88.88 793,-67 798.29,-64.52 803.9,-62.36 809.64,-60.47"/>
<polygon fill="midnightblue" stroke="midnightblue" points="810.8,-63.78 819.38,-57.56 808.79,-57.07 810.8,-63.78"/>
</g>
<!-- Node12 -->
<g id="node12" class="node">
<title>Node12</title>
<g id="a_node12"><a xlink:href="../../d4/d99/a01634.html#ac801338e82849a7fe2ae7a0feb80bb55" target="_top" xlink:title=" ">
<polygon fill="none" stroke="black" points="821.5,-0.5 821.5,-19.5 943.5,-19.5 943.5,-0.5 821.5,-0.5"/>
<text text-anchor="middle" x="882.5" y="-7.5" font-family="Helvetica,sans-Serif" font-size="10.00">com.cliffc.aa.util.SB.p</text>
</a>
</g>
</g>
<!-- Node9&#45;&gt;Node12 -->
<g id="edge14" class="edge">
<title>Node9&#45;&gt;Node12</title>
<path fill="none" stroke="midnightblue" d="M679.3,-151.14C694.5,-126.26 738.11,-60.67 793,-29 798.76,-25.68 805.04,-22.93 811.5,-20.67"/>
<polygon fill="midnightblue" stroke="midnightblue" points="812.56,-24 821.06,-17.68 810.47,-17.32 812.56,-24"/>
</g>
<!-- Node14 -->
<g id="node14" class="node">
<title>Node14</title>
<g id="a_node14"><a xlink:href="../../d0/de2/a01442.html#a07f49bb79ed4ff3f46f518a26793b2fe" target="_top" xlink:title=" ">
<polygon fill="none" stroke="black" points="811.5,-133 811.5,-163 953.5,-163 953.5,-133 811.5,-133"/>
<text text-anchor="start" x="819.5" y="-151" font-family="Helvetica,sans-Serif" font-size="10.00">com.cliffc.aa.type.Type.to</text>
<text text-anchor="middle" x="882.5" y="-140" font-family="Helvetica,sans-Serif" font-size="10.00">String</text>
</a>
</g>
</g>
<!-- Node9&#45;&gt;Node14 -->
<g id="edge17" class="edge">
<title>Node9&#45;&gt;Node14</title>
<path fill="none" stroke="midnightblue" d="M750.07,-156.21C766.66,-155.18 784.26,-154.08 801,-153.03"/>
<polygon fill="midnightblue" stroke="midnightblue" points="801.54,-156.5 811.3,-152.39 801.1,-149.52 801.54,-156.5"/>
</g>
<!-- Node15 -->
<g id="node15" class="node">
<title>Node15</title>
<g id="a_node15"><a xlink:href="../../d4/d99/a01634.html#a6536bbd3de1ca1c901e1cb9527dbf3db" target="_top" xlink:title=" ">
<polygon fill="none" stroke="black" points="808,-76.5 808,-95.5 957,-95.5 957,-76.5 808,-76.5"/>
<text text-anchor="middle" x="882.5" y="-83.5" font-family="Helvetica,sans-Serif" font-size="10.00">com.cliffc.aa.util.SB.unchar</text>
</a>
</g>
</g>
<!-- Node9&#45;&gt;Node15 -->
<g id="edge19" class="edge">
<title>Node9&#45;&gt;Node15</title>
<path fill="none" stroke="midnightblue" d="M700.27,-151.35C737.24,-138.02 804.05,-113.93 845.41,-99.01"/>
<polygon fill="midnightblue" stroke="midnightblue" points="846.62,-102.3 854.84,-95.61 844.24,-95.71 846.62,-102.3"/>
</g>
<!-- Node10&#45;&gt;Node6 -->
<g id="edge10" class="edge">
<title>Node10&#45;&gt;Node6</title>
<path fill="none" stroke="midnightblue" d="M972.17,-192C980.66,-192 989.25,-192 997.72,-192"/>
<polygon fill="midnightblue" stroke="midnightblue" points="997.97,-195.5 1007.97,-192 997.97,-188.5 997.97,-195.5"/>
</g>
<!-- Node11&#45;&gt;Node6 -->
<g id="edge12" class="edge">
<title>Node11&#45;&gt;Node6</title>
<path fill="none" stroke="midnightblue" d="M950.43,-57.63C957.97,-60.08 965.33,-63.15 972,-67 1018.23,-93.69 1055.97,-145.85 1073.83,-173.6"/>
<polygon fill="midnightblue" stroke="midnightblue" points="1071.02,-175.71 1079.3,-182.32 1076.95,-171.99 1071.02,-175.71"/>
</g>
<!-- Node13 -->
<g id="node13" class="node">
<title>Node13</title>
<g id="a_node13"><a xlink:href="../../d4/d99/a01634.html#abd1b8ac722e0fb0bf1e7b2ea0eaeb0b6" target="_top" xlink:title=" ">
<polygon fill="none" stroke="black" points="1025,-0.5 1025,-19.5 1147,-19.5 1147,-0.5 1025,-0.5"/>
<text text-anchor="middle" x="1086" y="-7.5" font-family="Helvetica,sans-Serif" font-size="10.00">com.cliffc.aa.util.SB.s</text>
</a>
</g>
</g>
<!-- Node12&#45;&gt;Node13 -->
<g id="edge15" class="edge">
<title>Node12&#45;&gt;Node13</title>
<path fill="none" stroke="midnightblue" d="M943.68,-10C966.01,-10 991.52,-10 1014.67,-10"/>
<polygon fill="midnightblue" stroke="midnightblue" points="1014.78,-13.5 1024.78,-10 1014.78,-6.5 1014.78,-13.5"/>
</g>
<!-- Node15&#45;&gt;Node15 -->
<g id="edge20" class="edge">
<title>Node15&#45;&gt;Node15</title>
<path fill="none" stroke="midnightblue" d="M851.37,-95.76C836.22,-104.57 846.6,-114 882.5,-114 907.74,-114 920.37,-109.34 920.37,-103.5"/>
<polygon fill="midnightblue" stroke="midnightblue" points="922.84,-101 913.63,-95.76 917.56,-105.6 922.84,-101"/>
</g>
</g>
</svg>
