<?xml version="1.0" encoding="UTF-8" standalone="no"?>
<!DOCTYPE svg PUBLIC "-//W3C//DTD SVG 1.1//EN"
 "http://www.w3.org/Graphics/SVG/1.1/DTD/svg11.dtd">
<!-- Generated by graphviz version 2.43.0 (0)
 -->
<!-- Title: com.cliffc.aa.util.IBitSet._tst Pages: 1 -->
<svg width="529pt" height="39pt"
 viewBox="0.00 0.00 529.00 39.00" xmlns="http://www.w3.org/2000/svg" xmlns:xlink="http://www.w3.org/1999/xlink">
<g id="graph0" class="graph" transform="scale(1 1) rotate(0) translate(4 35)">
<title>com.cliffc.aa.util.IBitSet._tst</title>
<!-- Node1 -->
<g id="node1" class="node">
<title>Node1</title>
<g id="a_node1"><a xlink:title=" ">
<polygon fill="#bfbfbf" stroke="black" points="367,-6 367,-25 521,-25 521,-6 367,-6"/>
<text text-anchor="middle" x="444" y="-13" font-family="Helvetica,sans-Serif" font-size="10.00">com.cliffc.aa.util.IBitSet._tst</text>
</a>
</g>
</g>
<!-- Node2 -->
<g id="node2" class="node">
<title>Node2</title>
<g id="a_node2"><a xlink:href="../../d1/d9b/a01566.html#a10b6442d94eca8722455352e452c5f15" target="_top" xlink:title=" ">
<polygon fill="none" stroke="black" points="182,-6 182,-25 331,-25 331,-6 182,-6"/>
<text text-anchor="middle" x="256.5" y="-13" font-family="Helvetica,sans-Serif" font-size="10.00">com.cliffc.aa.util.IBitSet.tst</text>
</a>
</g>
</g>
<!-- Node1&#45;&gt;Node2 -->
<g id="edge1" class="edge">
<title>Node1&#45;&gt;Node2</title>
<path fill="none" stroke="midnightblue" d="M356.73,-15.5C348.15,-15.5 339.5,-15.5 331.07,-15.5"/>
<polygon fill="midnightblue" stroke="midnightblue" points="356.75,-19 366.75,-15.5 356.75,-12 356.75,-19"/>
</g>
<!-- Node3 -->
<g id="node3" class="node">
<title>Node3</title>
<g id="a_node3"><a xlink:href="../../d1/d9b/a01566.html#a7dfdc2e39cfd1a0a5cc6fec50cb43821" target="_top" xlink:title=" ">
<polygon fill="none" stroke="black" points="0,-0.5 0,-30.5 146,-30.5 146,-0.5 0,-0.5"/>
<text text-anchor="start" x="8" y="-18.5" font-family="Helvetica,sans-Serif" font-size="10.00">com.cliffc.aa.util.IBitSet.to</text>
<text text-anchor="middle" x="73" y="-7.5" font-family="Helvetica,sans-Serif" font-size="10.00">String</text>
</a>
</g>
</g>
<!-- Node2&#45;&gt;Node3 -->
<g id="edge2" class="edge">
<title>Node2&#45;&gt;Node3</title>
<path fill="none" stroke="midnightblue" d="M171.91,-15.5C163.32,-15.5 154.65,-15.5 146.19,-15.5"/>
<polygon fill="midnightblue" stroke="midnightblue" points="171.94,-19 181.94,-15.5 171.94,-12 171.94,-19"/>
</g>
</g>
</svg>
