<?xml version="1.0" encoding="UTF-8" standalone="no"?>
<!DOCTYPE svg PUBLIC "-//W3C//DTD SVG 1.1//EN"
 "http://www.w3.org/Graphics/SVG/1.1/DTD/svg11.dtd">
<!-- Generated by graphviz version 2.43.0 (0)
 -->
<!-- Title: com.cliffc.aa.util.IBitSet.subsetsX Pages: 1 -->
<svg width="766pt" height="116pt"
 viewBox="0.00 0.00 766.00 115.50" xmlns="http://www.w3.org/2000/svg" xmlns:xlink="http://www.w3.org/1999/xlink">
<g id="graph0" class="graph" transform="scale(1 1) rotate(0) translate(4 111.5)">
<title>com.cliffc.aa.util.IBitSet.subsetsX</title>
<!-- Node1 -->
<g id="node1" class="node">
<title>Node1</title>
<g id="a_node1"><a xlink:title=" ">
<polygon fill="#bfbfbf" stroke="black" points="0,-38.5 0,-57.5 180,-57.5 180,-38.5 0,-38.5"/>
<text text-anchor="middle" x="90" y="-45.5" font-family="Helvetica,sans-Serif" font-size="10.00">com.cliffc.aa.util.IBitSet.subsetsX</text>
</a>
</g>
</g>
<!-- Node2 -->
<g id="node2" class="node">
<title>Node2</title>
<g id="a_node2"><a xlink:href="../../d1/d9b/a01566.html#a2e0d135c2aa341c0dc6a426c83aa0e40" target="_top" xlink:title=" ">
<polygon fill="none" stroke="black" points="223,-77 223,-107 367,-107 367,-77 223,-77"/>
<text text-anchor="start" x="231" y="-95" font-family="Helvetica,sans-Serif" font-size="10.00">com.cliffc.aa.util.IBitSet.is</text>
<text text-anchor="middle" x="295" y="-84" font-family="Helvetica,sans-Serif" font-size="10.00">_empty</text>
</a>
</g>
</g>
<!-- Node1&#45;&gt;Node2 -->
<g id="edge1" class="edge">
<title>Node1&#45;&gt;Node2</title>
<path fill="none" stroke="midnightblue" d="M135.05,-57.55C158.31,-62.59 187.58,-68.93 214.64,-74.8"/>
<polygon fill="midnightblue" stroke="midnightblue" points="213.98,-78.24 224.49,-76.93 215.46,-71.4 213.98,-78.24"/>
</g>
<!-- Node3 -->
<g id="node3" class="node">
<title>Node3</title>
<g id="a_node3"><a xlink:href="../../d1/d9b/a01566.html#a496b9f3e460b6ac2ebf40441a85beba1" target="_top" xlink:title=" ">
<polygon fill="none" stroke="black" points="216,-38.5 216,-57.5 374,-57.5 374,-38.5 216,-38.5"/>
<text text-anchor="middle" x="295" y="-45.5" font-family="Helvetica,sans-Serif" font-size="10.00">com.cliffc.aa.util.IBitSet.max</text>
</a>
</g>
</g>
<!-- Node1&#45;&gt;Node3 -->
<g id="edge2" class="edge">
<title>Node1&#45;&gt;Node3</title>
<path fill="none" stroke="midnightblue" d="M180.04,-48C188.52,-48 197.12,-48 205.6,-48"/>
<polygon fill="midnightblue" stroke="midnightblue" points="205.86,-51.5 215.86,-48 205.86,-44.5 205.86,-51.5"/>
</g>
<!-- Node6 -->
<g id="node6" class="node">
<title>Node6</title>
<g id="a_node6"><a xlink:href="../../d1/d9b/a01566.html#a8370717e9b628fe5ab3988e51d74b1e7" target="_top" xlink:title=" ">
<polygon fill="none" stroke="black" points="221,-0.5 221,-19.5 369,-19.5 369,-0.5 221,-0.5"/>
<text text-anchor="middle" x="295" y="-7.5" font-family="Helvetica,sans-Serif" font-size="10.00">com.cliffc.aa.util.IBitSet.xd</text>
</a>
</g>
</g>
<!-- Node1&#45;&gt;Node6 -->
<g id="edge5" class="edge">
<title>Node1&#45;&gt;Node6</title>
<path fill="none" stroke="midnightblue" d="M141.96,-38.46C169.59,-33.29 203.93,-26.86 232.98,-21.42"/>
<polygon fill="midnightblue" stroke="midnightblue" points="233.83,-24.82 243.02,-19.54 232.54,-17.94 233.83,-24.82"/>
</g>
<!-- Node4 -->
<g id="node4" class="node">
<title>Node4</title>
<g id="a_node4"><a xlink:href="../../d8/daf/a01550.html#a1dccdbfce4b3d101038883cb065c4e17" target="_top" xlink:title=" ">
<polygon fill="none" stroke="black" points="410,-38.5 410,-57.5 561,-57.5 561,-38.5 410,-38.5"/>
<text text-anchor="middle" x="485.5" y="-45.5" font-family="Helvetica,sans-Serif" font-size="10.00">com.cliffc.aa.util.AryInt.last</text>
</a>
</g>
</g>
<!-- Node3&#45;&gt;Node4 -->
<g id="edge3" class="edge">
<title>Node3&#45;&gt;Node4</title>
<path fill="none" stroke="midnightblue" d="M374.03,-48C382.55,-48 391.25,-48 399.84,-48"/>
<polygon fill="midnightblue" stroke="midnightblue" points="399.86,-51.5 409.86,-48 399.86,-44.5 399.86,-51.5"/>
</g>
<!-- Node5 -->
<g id="node5" class="node">
<title>Node5</title>
<g id="a_node5"><a xlink:href="../../d8/daf/a01550.html#ad9642b82e1824a59fa648bdde9b77a22" target="_top" xlink:title=" ">
<polygon fill="none" stroke="black" points="597,-33 597,-63 758,-63 758,-33 597,-33"/>
<text text-anchor="start" x="605" y="-51" font-family="Helvetica,sans-Serif" font-size="10.00">com.cliffc.aa.util.AryInt.range</text>
<text text-anchor="middle" x="677.5" y="-40" font-family="Helvetica,sans-Serif" font-size="10.00">_check</text>
</a>
</g>
</g>
<!-- Node4&#45;&gt;Node5 -->
<g id="edge4" class="edge">
<title>Node4&#45;&gt;Node5</title>
<path fill="none" stroke="midnightblue" d="M561.05,-48C569.49,-48 578.16,-48 586.77,-48"/>
<polygon fill="midnightblue" stroke="midnightblue" points="586.84,-51.5 596.84,-48 586.84,-44.5 586.84,-51.5"/>
</g>
<!-- Node7 -->
<g id="node7" class="node">
<title>Node7</title>
<g id="a_node7"><a xlink:href="../../d8/daf/a01550.html#ae58328f321549ff80f83993ba7828e33" target="_top" xlink:title=" ">
<polygon fill="none" stroke="black" points="411,-0.5 411,-19.5 560,-19.5 560,-0.5 411,-0.5"/>
<text text-anchor="middle" x="485.5" y="-7.5" font-family="Helvetica,sans-Serif" font-size="10.00">com.cliffc.aa.util.AryInt.atX</text>
</a>
</g>
</g>
<!-- Node6&#45;&gt;Node7 -->
<g id="edge6" class="edge">
<title>Node6&#45;&gt;Node7</title>
<path fill="none" stroke="midnightblue" d="M369.15,-10C379.5,-10 390.21,-10 400.74,-10"/>
<polygon fill="midnightblue" stroke="midnightblue" points="400.77,-13.5 410.77,-10 400.77,-6.5 400.77,-13.5"/>
</g>
</g>
</svg>
