<?xml version="1.0" encoding="UTF-8" standalone="no"?>
<!DOCTYPE svg PUBLIC "-//W3C//DTD SVG 1.1//EN"
 "http://www.w3.org/Graphics/SVG/1.1/DTD/svg11.dtd">
<!-- Generated by graphviz version 2.43.0 (0)
 -->
<!-- Title: com.cliffc.aa.type.TestType.testLoad Pages: 1 -->
<!--zoomable 140 -->
<svg id="main" version="1.1" xmlns="http://www.w3.org/2000/svg" xmlns:xlink="http://www.w3.org/1999/xlink" xml:space="preserve" onload="init(evt)">
<style type="text/css"><![CDATA[
.edge:hover path { stroke: red; }
.edge:hover polygon { stroke: red; fill: red; }
]]></style>
<script type="text/javascript"><![CDATA[
var edges = document.getElementsByTagName('g');
if (edges && edges.length) {
  for (var i=0;i<edges.length;i++) {
    if (edges[i].id.substr(0,4)=='edge') {
      edges[i].setAttribute('class','edge');
    }
  }
}
]]></script>
        <defs>
                <circle id="rim" cx="0" cy="0" r="7"/>
                <circle id="rim2" cx="0" cy="0" r="3.5"/>
                <g id="zoomPlus">
                        <use xlink:href="#rim" fill="#404040">
                                <set attributeName="fill" to="#808080" begin="zoomplus.mouseover" end="zoomplus.mouseout"/>
                        </use>
                        <path d="M-4,0h8M0,-4v8" fill="none" stroke="white" stroke-width="1.5" pointer-events="none"/>
                </g>
                <g id="zoomMin">
                        <use xlink:href="#rim" fill="#404040">
                                <set attributeName="fill" to="#808080" begin="zoomminus.mouseover" end="zoomminus.mouseout"/>
                        </use>
                        <path d="M-4,0h8" fill="none" stroke="white" stroke-width="1.5" pointer-events="none"/>
                </g>
                <g id="dirArrow">
                        <path fill="none" stroke="white" stroke-width="1.5" d="M0,-3.0v7 M-2.5,-0.5L0,-3.0L2.5,-0.5"/>
                </g>
               <g id="resetDef">
                       <use xlink:href="#rim2" fill="#404040">
                               <set attributeName="fill" to="#808080" begin="reset.mouseover" end="reset.mouseout"/>
                       </use>
               </g>
        </defs>

<script type="text/javascript">
var viewWidth = 821;
var viewHeight = 140;
var sectionId = 'dynsection-7';
</script>
<script xlink:href="../../svgpan.js"/>
<svg id="graph" class="graph">
<g id="viewport">
<title>com.cliffc.aa.type.TestType.testLoad</title>
<!-- Node1 -->
<g id="node1" class="node">
<title>Node1</title>
<g id="a_node1"><a xlink:title=" ">
<polygon fill="#bfbfbf" stroke="black" points="0,-90 0,-109 194,-109 194,-90 0,-90"/>
<text text-anchor="middle" x="97" y="-97" font-family="Helvetica,sans-Serif" font-size="10.00">com.cliffc.aa.type.TestType.testLoad</text>
</a>
</g>
</g>
<!-- Node2 -->
<g id="node2" class="node">
<title>Node2</title>
<g id="a_node2"><a xlink:href="../../d0/de2/a01442.html#a7ae10ba7415e2d2f5a11770c7812a54a" target="_top" xlink:title=" ">
<polygon fill="none" stroke="black" points="230.5,-112 230.5,-131 383.5,-131 383.5,-112 230.5,-112"/>
<text text-anchor="middle" x="307" y="-119" font-family="Helvetica,sans-Serif" font-size="10.00">com.cliffc.aa.type.Type.dual</text>
</a>
</g>
</g>
<!-- Node1&#45;&gt;Node2 -->
<g id="edge1" class="edge">
<title>Node1&#45;&gt;Node2</title>
<path fill="none" stroke="midnightblue" d="M188.02,-109.02C198.76,-110.16 209.69,-111.31 220.36,-112.44"/>
<polygon fill="midnightblue" stroke="midnightblue" points="220.18,-115.94 230.49,-113.51 220.92,-108.98 220.18,-115.94"/>
</g>
<!-- Node3 -->
<g id="node3" class="node">
<title>Node3</title>
<g id="a_node3"><a xlink:href="../../d6/dc9/a01498.html#adeddf1e33c774f9440baf7aac978c090" target="_top" xlink:title=" ">
<polygon fill="none" stroke="black" points="230,-62.5 230,-92.5 384,-92.5 384,-62.5 230,-62.5"/>
<text text-anchor="start" x="238" y="-80.5" font-family="Helvetica,sans-Serif" font-size="10.00">com.cliffc.aa.type.TypeMem</text>
<text text-anchor="middle" x="307" y="-69.5" font-family="Helvetica,sans-Serif" font-size="10.00">Ptr.make</text>
</a>
</g>
</g>
<!-- Node1&#45;&gt;Node3 -->
<g id="edge2" class="edge">
<title>Node1&#45;&gt;Node3</title>
<path fill="none" stroke="midnightblue" d="M188.02,-89.98C198.59,-88.86 209.35,-87.72 219.86,-86.61"/>
<polygon fill="midnightblue" stroke="midnightblue" points="220.27,-90.09 229.85,-85.55 219.54,-83.13 220.27,-90.09"/>
</g>
<!-- Node4 -->
<g id="node4" class="node">
<title>Node4</title>
<g id="a_node4"><a xlink:href="../../d6/dc9/a01498.html#a94802666db7385c4c783eb72318ab0f1" target="_top" xlink:title=" ">
<polygon fill="none" stroke="black" points="659,-50.5 659,-80.5 813,-80.5 813,-50.5 659,-50.5"/>
<text text-anchor="start" x="667" y="-68.5" font-family="Helvetica,sans-Serif" font-size="10.00">com.cliffc.aa.type.TypeMem</text>
<text text-anchor="middle" x="736" y="-57.5" font-family="Helvetica,sans-Serif" font-size="10.00">Ptr.aliases</text>
</a>
</g>
</g>
<!-- Node3&#45;&gt;Node4 -->
<g id="edge3" class="edge">
<title>Node3&#45;&gt;Node4</title>
<path fill="none" stroke="midnightblue" d="M384.3,-92.2C396.21,-93.99 408.4,-95.52 420,-96.5 509.9,-104.07 533.6,-108.64 623,-96.5 642.49,-93.85 663.37,-88.73 681.77,-83.39"/>
<polygon fill="midnightblue" stroke="midnightblue" points="682.84,-86.73 691.42,-80.51 680.84,-80.02 682.84,-86.73"/>
</g>
<!-- Node5 -->
<g id="node5" class="node">
<title>Node5</title>
<g id="a_node5"><a xlink:href="../../d0/de2/a01442.html#a8fe8d556e45e6b654f3ac87f118ac8de" target="_top" xlink:title=" ">
<polygon fill="none" stroke="black" points="420,-68 420,-87 623,-87 623,-68 420,-68"/>
<text text-anchor="middle" x="521.5" y="-75" font-family="Helvetica,sans-Serif" font-size="10.00">com.cliffc.aa.type.Type.hashcons_free</text>
</a>
</g>
</g>
<!-- Node3&#45;&gt;Node5 -->
<g id="edge4" class="edge">
<title>Node3&#45;&gt;Node5</title>
<path fill="none" stroke="midnightblue" d="M384.12,-77.5C392.42,-77.5 400.99,-77.5 409.6,-77.5"/>
<polygon fill="midnightblue" stroke="midnightblue" points="409.72,-81 419.72,-77.5 409.72,-74 409.72,-81"/>
</g>
<!-- Node6 -->
<g id="node6" class="node">
<title>Node6</title>
<g id="a_node6"><a xlink:href="../../d6/dc9/a01498.html#aa1396c13d18c04018679f2e0fa1ff76c" target="_top" xlink:title=" ">
<polygon fill="none" stroke="black" points="444.5,-0.5 444.5,-30.5 598.5,-30.5 598.5,-0.5 444.5,-0.5"/>
<text text-anchor="start" x="452.5" y="-18.5" font-family="Helvetica,sans-Serif" font-size="10.00">com.cliffc.aa.type.TypeMem</text>
<text text-anchor="middle" x="521.5" y="-7.5" font-family="Helvetica,sans-Serif" font-size="10.00">Ptr.init</text>
</a>
</g>
</g>
<!-- Node3&#45;&gt;Node6 -->
<g id="edge5" class="edge">
<title>Node3&#45;&gt;Node6</title>
<path fill="none" stroke="midnightblue" d="M359.44,-62.49C389.37,-53.76 427.28,-42.7 458.8,-33.5"/>
<polygon fill="midnightblue" stroke="midnightblue" points="460.18,-36.75 468.8,-30.59 458.22,-30.03 460.18,-36.75"/>
</g>
<!-- Node6&#45;&gt;Node4 -->
<g id="edge6" class="edge">
<title>Node6&#45;&gt;Node4</title>
<path fill="none" stroke="midnightblue" d="M586.26,-30.5C609.79,-36.04 636.65,-42.36 661.01,-48.09"/>
<polygon fill="midnightblue" stroke="midnightblue" points="660.39,-51.54 670.92,-50.42 661.99,-44.73 660.39,-51.54"/>
</g>
<!-- Node6&#45;&gt;Node6 -->
<g id="edge7" class="edge">
<title>Node6&#45;&gt;Node6</title>
<path fill="none" stroke="midnightblue" d="M484.21,-30.66C475.21,-40.06 487.64,-49 521.5,-49 542.13,-49 554.81,-45.68 559.53,-40.96"/>
<polygon fill="midnightblue" stroke="midnightblue" points="562.99,-40.39 558.79,-30.66 556.01,-40.88 562.99,-40.39"/>
</g>
</g>
</svg>
        <g id="navigator" transform="translate(0 0)" fill="#404254">
                <rect fill="#f2f5e9" fill-opacity="0.5" stroke="#606060" stroke-width=".5" x="0" y="0" width="60" height="60"/>
                <use id="zoomplus" xlink:href="#zoomPlus" x="17" y="9" onmousedown="handleZoom(evt,'in')"/>
                <use id="zoomminus" xlink:href="#zoomMin" x="42" y="9" onmousedown="handleZoom(evt,'out')"/>
                <use id="reset" xlink:href="#resetDef" x="30" y="36" onmousedown="handleReset()"/>
                <g id="arrowUp" xlink:href="#dirArrow" transform="translate(30 24)" onmousedown="handlePan(0,-1)">
                  <use xlink:href="#rim" fill="#404040">
                        <set attributeName="fill" to="#808080" begin="arrowUp.mouseover" end="arrowUp.mouseout"/>
                  </use>
                  <path fill="none" stroke="white" stroke-width="1.5" d="M0,-3.0v7 M-2.5,-0.5L0,-3.0L2.5,-0.5"/>
                </g>
                <g id="arrowRight" xlink:href="#dirArrow" transform="rotate(90) translate(36 -43)" onmousedown="handlePan(1,0)">
                  <use xlink:href="#rim" fill="#404040">
                        <set attributeName="fill" to="#808080" begin="arrowRight.mouseover" end="arrowRight.mouseout"/>
                  </use>
                  <path fill="none" stroke="white" stroke-width="1.5" d="M0,-3.0v7 M-2.5,-0.5L0,-3.0L2.5,-0.5"/>
                </g>
                <g id="arrowDown" xlink:href="#dirArrow" transform="rotate(180) translate(-30 -48)" onmousedown="handlePan(0,1)">
                  <use xlink:href="#rim" fill="#404040">
                        <set attributeName="fill" to="#808080" begin="arrowDown.mouseover" end="arrowDown.mouseout"/>
                  </use>
                  <path fill="none" stroke="white" stroke-width="1.5" d="M0,-3.0v7 M-2.5,-0.5L0,-3.0L2.5,-0.5"/>
                </g>
                <g id="arrowLeft" xlink:href="#dirArrow" transform="rotate(270) translate(-36 17)" onmousedown="handlePan(-1,0)">
                  <use xlink:href="#rim" fill="#404040">
                        <set attributeName="fill" to="#808080" begin="arrowLeft.mouseover" end="arrowLeft.mouseout"/>
                  </use>
                  <path fill="none" stroke="white" stroke-width="1.5" d="M0,-3.0v7 M-2.5,-0.5L0,-3.0L2.5,-0.5"/>
                </g>
        </g>
        <svg viewBox="0 0 15 15" width="100%" height="30px" preserveAspectRatio="xMaxYMin meet">
         <g id="arrow_out" transform="scale(0.3 0.3)">
          <a xlink:href="a01722_af80e0de556f8c74024d12d9b0ae9c6ca_cgraph_org.svg" target="_base">
           <rect id="button" ry="5" rx="5" y="6" x="6" height="38" width="38"
                fill="#f2f5e9" fill-opacity="0.5" stroke="#606060" stroke-width="1.0"/>
           <path id="arrow"
             d="M 11.500037,31.436501 C 11.940474,20.09759 22.043105,11.32322 32.158766,21.979434 L 37.068811,17.246167 C 37.068811,17.246167 37.088388,32 37.088388,32 L 22.160133,31.978069 C 22.160133,31.978069 26.997745,27.140456 26.997745,27.140456 C 18.528582,18.264221 13.291696,25.230495 11.500037,31.436501 z"
             style="fill:#404040;"/>
          </a>
         </g>
        </svg>
</svg>
