<?xml version="1.0" encoding="UTF-8" standalone="no"?>
<!DOCTYPE svg PUBLIC "-//W3C//DTD SVG 1.1//EN"
 "http://www.w3.org/Graphics/SVG/1.1/DTD/svg11.dtd">
<!-- Generated by graphviz version 2.43.0 (0)
 -->
<!-- Title: com.cliffc.aa.type.TestType.testFunction Pages: 1 -->
<svg width="1011pt" height="335pt"
 viewBox="0.00 0.00 1011.00 334.50" xmlns="http://www.w3.org/2000/svg" xmlns:xlink="http://www.w3.org/1999/xlink">
<g id="graph0" class="graph" transform="scale(1 1) rotate(0) translate(4 330.5)">
<title>com.cliffc.aa.type.TestType.testFunction</title>
<!-- Node1 -->
<g id="node1" class="node">
<title>Node1</title>
<g id="a_node1"><a xlink:title=" ">
<polygon fill="#bfbfbf" stroke="black" points="0,-137 0,-167 170,-167 170,-137 0,-137"/>
<text text-anchor="start" x="8" y="-155" font-family="Helvetica,sans-Serif" font-size="10.00">com.cliffc.aa.type.TestType.test</text>
<text text-anchor="middle" x="85" y="-144" font-family="Helvetica,sans-Serif" font-size="10.00">Function</text>
</a>
</g>
</g>
<!-- Node2 -->
<g id="node2" class="node">
<title>Node2</title>
<g id="a_node2"><a xlink:href="../../d0/de2/a01442.html#a7ae10ba7415e2d2f5a11770c7812a54a" target="_top" xlink:title=" ">
<polygon fill="none" stroke="black" points="208.5,-290.5 208.5,-309.5 361.5,-309.5 361.5,-290.5 208.5,-290.5"/>
<text text-anchor="middle" x="285" y="-297.5" font-family="Helvetica,sans-Serif" font-size="10.00">com.cliffc.aa.type.Type.dual</text>
</a>
</g>
</g>
<!-- Node1&#45;&gt;Node2 -->
<g id="edge1" class="edge">
<title>Node1&#45;&gt;Node2</title>
<path fill="none" stroke="midnightblue" d="M95.53,-167.01C113.61,-194.19 155.6,-251.45 206,-281 209.72,-283.18 213.68,-285.11 217.77,-286.82"/>
<polygon fill="midnightblue" stroke="midnightblue" points="216.89,-290.23 227.48,-290.42 219.32,-283.67 216.89,-290.23"/>
</g>
<!-- Node3 -->
<g id="node3" class="node">
<title>Node3</title>
<g id="a_node3"><a xlink:href="../../d8/d7b/a01478.html#af771611663690876e64fa1da8ffb98f2" target="_top" xlink:title=" ">
<polygon fill="none" stroke="black" points="212,-241 212,-271 358,-271 358,-241 212,-241"/>
<text text-anchor="start" x="220" y="-259" font-family="Helvetica,sans-Serif" font-size="10.00">com.cliffc.aa.type.TypeFun</text>
<text text-anchor="middle" x="285" y="-248" font-family="Helvetica,sans-Serif" font-size="10.00">Ptr.fidx</text>
</a>
</g>
</g>
<!-- Node1&#45;&gt;Node3 -->
<g id="edge2" class="edge">
<title>Node1&#45;&gt;Node3</title>
<path fill="none" stroke="midnightblue" d="M105.39,-167.18C128.33,-184.55 168.2,-212.92 206,-231 210.69,-233.24 215.63,-235.36 220.66,-237.33"/>
<polygon fill="midnightblue" stroke="midnightblue" points="219.79,-240.74 230.38,-240.95 222.23,-234.18 219.79,-240.74"/>
</g>
<!-- Node5 -->
<g id="node5" class="node">
<title>Node5</title>
<g id="a_node5"><a xlink:href="../../d0/de2/a01442.html#ad4b6fe2d948ba739fd3d5e0feac103e6" target="_top" xlink:title=" ">
<polygon fill="none" stroke="black" points="212,-202.5 212,-221.5 358,-221.5 358,-202.5 212,-202.5"/>
<text text-anchor="middle" x="285" y="-209.5" font-family="Helvetica,sans-Serif" font-size="10.00">com.cliffc.aa.type.Type.isa</text>
</a>
</g>
</g>
<!-- Node1&#45;&gt;Node5 -->
<g id="edge4" class="edge">
<title>Node1&#45;&gt;Node5</title>
<path fill="none" stroke="midnightblue" d="M135.71,-167.06C168.79,-177.09 211.72,-190.1 242.87,-199.54"/>
<polygon fill="midnightblue" stroke="midnightblue" points="241.96,-202.92 252.54,-202.47 243.99,-196.22 241.96,-202.92"/>
</g>
<!-- Node6 -->
<g id="node6" class="node">
<title>Node6</title>
<g id="a_node6"><a xlink:href="../../d8/d7b/a01478.html#abfcb13c82cfef03b54961c47de257834" target="_top" xlink:title=" ">
<polygon fill="none" stroke="black" points="413.5,-175 413.5,-205 559.5,-205 559.5,-175 413.5,-175"/>
<text text-anchor="start" x="421.5" y="-193" font-family="Helvetica,sans-Serif" font-size="10.00">com.cliffc.aa.type.TypeFun</text>
<text text-anchor="middle" x="486.5" y="-182" font-family="Helvetica,sans-Serif" font-size="10.00">Ptr.make</text>
</a>
</g>
</g>
<!-- Node1&#45;&gt;Node6 -->
<g id="edge5" class="edge">
<title>Node1&#45;&gt;Node6</title>
<path fill="none" stroke="midnightblue" d="M170.24,-160.01C238.83,-166.54 335.1,-175.69 403.17,-182.17"/>
<polygon fill="midnightblue" stroke="midnightblue" points="403.14,-185.68 413.42,-183.14 403.8,-178.71 403.14,-185.68"/>
</g>
<!-- Node11 -->
<g id="node11" class="node">
<title>Node11</title>
<g id="a_node11"><a xlink:href="../../d1/de7/a01434.html#a0de085b4f5dfcd80b22553eccf1cbae6" target="_top" xlink:title=" ">
<polygon fill="none" stroke="black" points="621,-76.5 621,-95.5 800,-95.5 800,-76.5 621,-76.5"/>
<text text-anchor="middle" x="710.5" y="-83.5" font-family="Helvetica,sans-Serif" font-size="10.00">com.cliffc.aa.type.BitsFun.make0</text>
</a>
</g>
</g>
<!-- Node1&#45;&gt;Node11 -->
<g id="edge12" class="edge">
<title>Node1&#45;&gt;Node11</title>
<path fill="none" stroke="midnightblue" d="M116.2,-136.89C139.96,-125.82 174.24,-111.62 206,-105 344.19,-76.19 508.24,-76.15 610.63,-80.06"/>
<polygon fill="midnightblue" stroke="midnightblue" points="610.51,-83.56 620.65,-80.46 610.79,-76.57 610.51,-83.56"/>
</g>
<!-- Node13 -->
<g id="node13" class="node">
<title>Node13</title>
<g id="a_node13"><a xlink:href="../../d8/d7b/a01478.html#a210032a271f95c964eaf5745260f2bb9" target="_top" xlink:title=" ">
<polygon fill="none" stroke="black" points="212,-115 212,-145 358,-145 358,-115 212,-115"/>
<text text-anchor="start" x="220" y="-133" font-family="Helvetica,sans-Serif" font-size="10.00">com.cliffc.aa.type.TypeFun</text>
<text text-anchor="middle" x="285" y="-122" font-family="Helvetica,sans-Serif" font-size="10.00">Ptr.make_new_fidx</text>
</a>
</g>
</g>
<!-- Node1&#45;&gt;Node13 -->
<g id="edge14" class="edge">
<title>Node1&#45;&gt;Node13</title>
<path fill="none" stroke="midnightblue" d="M170.26,-142.64C180.79,-141.47 191.54,-140.27 202.04,-139.11"/>
<polygon fill="midnightblue" stroke="midnightblue" points="202.45,-142.58 212,-138 201.67,-135.63 202.45,-142.58"/>
</g>
<!-- Node16 -->
<g id="node16" class="node">
<title>Node16</title>
<g id="a_node16"><a xlink:href="../../d4/d3c/a01418.html#adf13a2e038fefa42a481fc7417d31a4b" target="_top" xlink:title=" ">
<polygon fill="none" stroke="black" points="208,-38.5 208,-57.5 362,-57.5 362,-38.5 208,-38.5"/>
<text text-anchor="middle" x="285" y="-45.5" font-family="Helvetica,sans-Serif" font-size="10.00">com.cliffc.aa.type.Bits.meet</text>
</a>
</g>
</g>
<!-- Node1&#45;&gt;Node16 -->
<g id="edge19" class="edge">
<title>Node1&#45;&gt;Node16</title>
<path fill="none" stroke="midnightblue" d="M104.91,-136.85C127.72,-119.2 167.77,-90.15 206,-72 215.22,-67.62 225.42,-63.81 235.32,-60.59"/>
<polygon fill="midnightblue" stroke="midnightblue" points="236.56,-63.87 245.08,-57.57 234.49,-57.19 236.56,-63.87"/>
</g>
<!-- Node17 -->
<g id="node17" class="node">
<title>Node17</title>
<g id="a_node17"><a xlink:href="../../d0/de2/a01442.html#a086b90d9d651ac00b80a9b5caa60eb09" target="_top" xlink:title=" ">
<polygon fill="none" stroke="black" points="206,-0.5 206,-19.5 364,-19.5 364,-0.5 206,-0.5"/>
<text text-anchor="middle" x="285" y="-7.5" font-family="Helvetica,sans-Serif" font-size="10.00">com.cliffc.aa.type.Type.meet</text>
</a>
</g>
</g>
<!-- Node1&#45;&gt;Node17 -->
<g id="edge20" class="edge">
<title>Node1&#45;&gt;Node17</title>
<path fill="none" stroke="midnightblue" d="M96.29,-136.88C114.96,-110.66 157.02,-56.94 206,-29 209.92,-26.76 214.1,-24.79 218.4,-23.05"/>
<polygon fill="midnightblue" stroke="midnightblue" points="219.76,-26.28 227.98,-19.59 217.38,-19.69 219.76,-26.28"/>
</g>
<!-- Node4 -->
<g id="node4" class="node">
<title>Node4</title>
<g id="a_node4"><a xlink:href="../../d4/d3c/a01418.html#ac56e424c65fd8385bbf4fecea9b603ff" target="_top" xlink:title=" ">
<polygon fill="none" stroke="black" points="408,-246.5 408,-265.5 565,-265.5 565,-246.5 408,-246.5"/>
<text text-anchor="middle" x="486.5" y="-253.5" font-family="Helvetica,sans-Serif" font-size="10.00">com.cliffc.aa.type.Bits.getbit</text>
</a>
</g>
</g>
<!-- Node3&#45;&gt;Node4 -->
<g id="edge3" class="edge">
<title>Node3&#45;&gt;Node4</title>
<path fill="none" stroke="midnightblue" d="M358.02,-256C370.92,-256 384.49,-256 397.77,-256"/>
<polygon fill="midnightblue" stroke="midnightblue" points="397.85,-259.5 407.85,-256 397.85,-252.5 397.85,-259.5"/>
</g>
<!-- Node7 -->
<g id="node7" class="node">
<title>Node7</title>
<g id="a_node7"><a xlink:href="../../d8/d7b/a01478.html#aa25e7fb4217a6c132391f58312f06ec2" target="_top" xlink:title=" ">
<polygon fill="none" stroke="black" points="852.5,-231 852.5,-261 998.5,-261 998.5,-231 852.5,-231"/>
<text text-anchor="start" x="860.5" y="-249" font-family="Helvetica,sans-Serif" font-size="10.00">com.cliffc.aa.type.TypeFun</text>
<text text-anchor="middle" x="925.5" y="-238" font-family="Helvetica,sans-Serif" font-size="10.00">Ptr.fidxs</text>
</a>
</g>
</g>
<!-- Node6&#45;&gt;Node7 -->
<g id="edge6" class="edge">
<title>Node6&#45;&gt;Node7</title>
<path fill="none" stroke="midnightblue" d="M559.71,-193.88C625.7,-198.08 725.84,-206.13 812,-220 826.47,-222.33 841.86,-225.45 856.45,-228.72"/>
<polygon fill="midnightblue" stroke="midnightblue" points="855.88,-232.18 866.41,-231 857.44,-225.36 855.88,-232.18"/>
</g>
<!-- Node8 -->
<g id="node8" class="node">
<title>Node8</title>
<g id="a_node8"><a xlink:href="../../d0/de2/a01442.html#a8fe8d556e45e6b654f3ac87f118ac8de" target="_top" xlink:title=" ">
<polygon fill="none" stroke="black" points="609,-152.5 609,-171.5 812,-171.5 812,-152.5 609,-152.5"/>
<text text-anchor="middle" x="710.5" y="-159.5" font-family="Helvetica,sans-Serif" font-size="10.00">com.cliffc.aa.type.Type.hashcons_free</text>
</a>
</g>
</g>
<!-- Node6&#45;&gt;Node8 -->
<g id="edge7" class="edge">
<title>Node6&#45;&gt;Node8</title>
<path fill="none" stroke="midnightblue" d="M559.58,-180.91C580.12,-178.32 602.71,-175.47 623.98,-172.79"/>
<polygon fill="midnightblue" stroke="midnightblue" points="624.48,-176.25 633.97,-171.53 623.61,-169.31 624.48,-176.25"/>
</g>
<!-- Node9 -->
<g id="node9" class="node">
<title>Node9</title>
<g id="a_node9"><a xlink:href="../../d8/d7b/a01478.html#a42f8ada06bc493d5b138d77c6370b64c" target="_top" xlink:title=" ">
<polygon fill="none" stroke="black" points="637.5,-278 637.5,-308 783.5,-308 783.5,-278 637.5,-278"/>
<text text-anchor="start" x="645.5" y="-296" font-family="Helvetica,sans-Serif" font-size="10.00">com.cliffc.aa.type.TypeFun</text>
<text text-anchor="middle" x="710.5" y="-285" font-family="Helvetica,sans-Serif" font-size="10.00">Ptr.init</text>
</a>
</g>
</g>
<!-- Node6&#45;&gt;Node9 -->
<g id="edge8" class="edge">
<title>Node6&#45;&gt;Node9</title>
<path fill="none" stroke="midnightblue" d="M518.97,-205.15C535.58,-213.67 555.98,-224.99 573,-237 590.49,-249.34 590.02,-259.1 609,-269 614.93,-272.09 621.27,-274.79 627.76,-277.15"/>
<polygon fill="midnightblue" stroke="midnightblue" points="626.77,-280.51 637.37,-280.36 629,-273.87 626.77,-280.51"/>
</g>
<!-- Node10 -->
<g id="node10" class="node">
<title>Node10</title>
<g id="a_node10"><a xlink:href="../../d0/de2/a01442.html#a64703347bc6c4282358a7bd95493a922" target="_top" xlink:title=" ">
<polygon fill="none" stroke="black" points="640.5,-229 640.5,-259 780.5,-259 780.5,-229 640.5,-229"/>
<text text-anchor="start" x="648.5" y="-247" font-family="Helvetica,sans-Serif" font-size="10.00">com.cliffc.aa.type.Type.is</text>
<text text-anchor="middle" x="710.5" y="-236" font-family="Helvetica,sans-Serif" font-size="10.00">_display_ptr</text>
</a>
</g>
</g>
<!-- Node6&#45;&gt;Node10 -->
<g id="edge11" class="edge">
<title>Node6&#45;&gt;Node10</title>
<path fill="none" stroke="midnightblue" d="M549.34,-205.04C576.77,-211.71 609.22,-219.61 637.71,-226.54"/>
<polygon fill="midnightblue" stroke="midnightblue" points="637.06,-229.98 647.61,-228.95 638.72,-223.18 637.06,-229.98"/>
</g>
<!-- Node9&#45;&gt;Node7 -->
<g id="edge9" class="edge">
<title>Node9&#45;&gt;Node7</title>
<path fill="none" stroke="midnightblue" d="M779.48,-278C800.81,-273.29 824.52,-268.06 846.48,-263.22"/>
<polygon fill="midnightblue" stroke="midnightblue" points="847.42,-266.59 856.44,-261.02 845.92,-259.76 847.42,-266.59"/>
</g>
<!-- Node9&#45;&gt;Node9 -->
<g id="edge10" class="edge">
<title>Node9&#45;&gt;Node9</title>
<path fill="none" stroke="midnightblue" d="M673.21,-308.16C664.21,-317.56 676.64,-326.5 710.5,-326.5 731.13,-326.5 743.81,-323.18 748.53,-318.46"/>
<polygon fill="midnightblue" stroke="midnightblue" points="751.99,-317.89 747.79,-308.16 745.01,-318.38 751.99,-317.89"/>
</g>
<!-- Node12 -->
<g id="node12" class="node">
<title>Node12</title>
<g id="a_node12"><a xlink:href="../../d4/d3c/a01418.html#a937f44440b0e8245627d60c71f936adc" target="_top" xlink:title=" ">
<polygon fill="none" stroke="black" points="848,-76.5 848,-95.5 1003,-95.5 1003,-76.5 848,-76.5"/>
<text text-anchor="middle" x="925.5" y="-83.5" font-family="Helvetica,sans-Serif" font-size="10.00">com.cliffc.aa.type.Bits.make</text>
</a>
</g>
</g>
<!-- Node11&#45;&gt;Node12 -->
<g id="edge13" class="edge">
<title>Node11&#45;&gt;Node12</title>
<path fill="none" stroke="midnightblue" d="M800.29,-86C812.6,-86 825.23,-86 837.5,-86"/>
<polygon fill="midnightblue" stroke="midnightblue" points="837.71,-89.5 847.71,-86 837.71,-82.5 837.71,-89.5"/>
</g>
<!-- Node13&#45;&gt;Node6 -->
<g id="edge15" class="edge">
<title>Node13&#45;&gt;Node6</title>
<path fill="none" stroke="midnightblue" d="M336.08,-145.06C363.24,-153.23 396.99,-163.38 425.53,-171.96"/>
<polygon fill="midnightblue" stroke="midnightblue" points="424.81,-175.4 435.39,-174.93 426.83,-168.7 424.81,-175.4"/>
</g>
<!-- Node14 -->
<g id="node14" class="node">
<title>Node14</title>
<g id="a_node14"><a xlink:href="../../d1/de7/a01434.html#ad315f1c6dbdc90e2f563d4b5627cf83c" target="_top" xlink:title=" ">
<polygon fill="none" stroke="black" points="400,-115 400,-145 573,-145 573,-115 400,-115"/>
<text text-anchor="start" x="408" y="-133" font-family="Helvetica,sans-Serif" font-size="10.00">com.cliffc.aa.type.BitsFun.make</text>
<text text-anchor="middle" x="486.5" y="-122" font-family="Helvetica,sans-Serif" font-size="10.00">_new_fidx</text>
</a>
</g>
</g>
<!-- Node13&#45;&gt;Node14 -->
<g id="edge16" class="edge">
<title>Node13&#45;&gt;Node14</title>
<path fill="none" stroke="midnightblue" d="M358.02,-130C368.34,-130 379.09,-130 389.78,-130"/>
<polygon fill="midnightblue" stroke="midnightblue" points="389.99,-133.5 399.99,-130 389.99,-126.5 389.99,-133.5"/>
</g>
<!-- Node14&#45;&gt;Node11 -->
<g id="edge17" class="edge">
<title>Node14&#45;&gt;Node11</title>
<path fill="none" stroke="midnightblue" d="M559.74,-114.94C575.94,-111.61 593.05,-108.15 609,-105 621.65,-102.5 635.2,-99.9 648.13,-97.44"/>
<polygon fill="midnightblue" stroke="midnightblue" points="649.17,-100.81 658.34,-95.51 647.87,-93.93 649.17,-100.81"/>
</g>
<!-- Node15 -->
<g id="node15" class="node">
<title>Node15</title>
<g id="a_node15"><a xlink:href="../../d1/de7/a01434.html#accaafd3ea3a51759c1a172b4321f8d26" target="_top" xlink:title=" ">
<polygon fill="none" stroke="black" points="616,-114.5 616,-133.5 805,-133.5 805,-114.5 616,-114.5"/>
<text text-anchor="middle" x="710.5" y="-121.5" font-family="Helvetica,sans-Serif" font-size="10.00">com.cliffc.aa.type.BitsFun.new_fidx</text>
</a>
</g>
</g>
<!-- Node14&#45;&gt;Node15 -->
<g id="edge18" class="edge">
<title>Node14&#45;&gt;Node15</title>
<path fill="none" stroke="midnightblue" d="M573.01,-127.69C583.77,-127.4 594.86,-127.1 605.86,-126.8"/>
<polygon fill="midnightblue" stroke="midnightblue" points="606.01,-130.3 615.91,-126.53 605.82,-123.3 606.01,-130.3"/>
</g>
</g>
</svg>
