<?xml version="1.0" encoding="UTF-8" standalone="no"?>
<!DOCTYPE svg PUBLIC "-//W3C//DTD SVG 1.1//EN"
 "http://www.w3.org/Graphics/SVG/1.1/DTD/svg11.dtd">
<!-- Generated by graphviz version 2.43.0 (0)
 -->
<!-- Title: com.cliffc.aa.node.NewAryNode.NewAry Pages: 1 -->
<svg width="1606pt" height="82pt"
 viewBox="0.00 0.00 1606.00 82.00" xmlns="http://www.w3.org/2000/svg" xmlns:xlink="http://www.w3.org/1999/xlink">
<g id="graph0" class="graph" transform="scale(1 1) rotate(0) translate(4 78)">
<title>com.cliffc.aa.node.NewAryNode.NewAry</title>
<!-- Node1 -->
<g id="node1" class="node">
<title>Node1</title>
<g id="a_node1"><a xlink:title=" ">
<polygon fill="#bfbfbf" stroke="black" points="1451,-6 1451,-36 1598,-36 1598,-6 1451,-6"/>
<text text-anchor="start" x="1459" y="-24" font-family="Helvetica,sans-Serif" font-size="10.00">com.cliffc.aa.node.NewAry</text>
<text text-anchor="middle" x="1524.5" y="-13" font-family="Helvetica,sans-Serif" font-size="10.00">Node.NewAry</text>
</a>
</g>
</g>
<!-- Node2 -->
<g id="node2" class="node">
<title>Node2</title>
<g id="a_node2"><a xlink:href="../../dd/d09/a01118.html" target="_top" xlink:title=" ">
<polygon fill="none" stroke="black" points="1241,-11.5 1241,-30.5 1414,-30.5 1414,-11.5 1241,-11.5"/>
<text text-anchor="middle" x="1327.5" y="-18.5" font-family="Helvetica,sans-Serif" font-size="10.00">com.cliffc.aa.node.NewAryNode</text>
</a>
</g>
</g>
<!-- Node2&#45;&gt;Node1 -->
<g id="edge1" class="edge">
<title>Node2&#45;&gt;Node1</title>
<path fill="none" stroke="midnightblue" d="M1424.14,-21C1433.13,-21 1442.13,-21 1450.85,-21"/>
<polygon fill="midnightblue" stroke="midnightblue" points="1424.03,-17.5 1414.03,-21 1424.03,-24.5 1424.03,-17.5"/>
</g>
<!-- Node3 -->
<g id="node3" class="node">
<title>Node3</title>
<g id="a_node3"><a xlink:href="../../d0/d61/a01130.html" target="_top" xlink:title=" ">
<polygon fill="none" stroke="black" points="1048,-0.5 1048,-41.5 1204,-41.5 1204,-0.5 1048,-0.5"/>
<text text-anchor="start" x="1056" y="-29.5" font-family="Helvetica,sans-Serif" font-size="10.00">com.cliffc.aa.node.NewNode</text>
<text text-anchor="start" x="1056" y="-18.5" font-family="Helvetica,sans-Serif" font-size="10.00">&lt; T extends TypeObj&lt; T &gt;</text>
<text text-anchor="middle" x="1126" y="-7.5" font-family="Helvetica,sans-Serif" font-size="10.00">.NewPrimNode&lt; TypeAry &gt;</text>
</a>
</g>
</g>
<!-- Node3&#45;&gt;Node2 -->
<g id="edge2" class="edge">
<title>Node3&#45;&gt;Node2</title>
<path fill="none" stroke="midnightblue" d="M1214.4,-21C1223.22,-21 1232.16,-21 1240.96,-21"/>
<polygon fill="midnightblue" stroke="midnightblue" points="1214.13,-17.5 1204.13,-21 1214.13,-24.5 1214.13,-17.5"/>
</g>
<!-- Node4 -->
<g id="node4" class="node">
<title>Node4</title>
<g id="a_node4"><a xlink:href="../../d0/d61/a01130.html" target="_top" xlink:title=" ">
<polygon fill="none" stroke="black" points="728,-0.5 728,-41.5 947,-41.5 947,-0.5 728,-0.5"/>
<text text-anchor="start" x="736" y="-29.5" font-family="Helvetica,sans-Serif" font-size="10.00">com.cliffc.aa.node.NewNode</text>
<text text-anchor="start" x="736" y="-18.5" font-family="Helvetica,sans-Serif" font-size="10.00">&lt; T extends TypeObj&lt; T &gt;</text>
<text text-anchor="middle" x="837.5" y="-7.5" font-family="Helvetica,sans-Serif" font-size="10.00">.NewPrimNode&lt; T extends TypeObj&lt; T &gt;</text>
</a>
</g>
</g>
<!-- Node4&#45;&gt;Node3 -->
<g id="edge3" class="edge">
<title>Node4&#45;&gt;Node3</title>
<path fill="none" stroke="orange" stroke-dasharray="5,2" d="M957.52,-21C988.09,-21 1020.17,-21 1047.98,-21"/>
<polygon fill="orange" stroke="orange" points="957.22,-17.5 947.22,-21 957.22,-24.5 957.22,-17.5"/>
<text text-anchor="middle" x="997.5" y="-24" font-family="Helvetica,sans-Serif" font-size="10.00"> &lt; TypeAry &gt;</text>
</g>
<!-- Node5 -->
<g id="node5" class="node">
<title>Node5</title>
<g id="a_node5"><a xlink:href="../../db/d1e/a01126.html" target="_top" xlink:title=" ">
<polygon fill="none" stroke="black" points="506,-36.5 506,-55.5 691,-55.5 691,-36.5 506,-36.5"/>
<text text-anchor="middle" x="598.5" y="-43.5" font-family="Helvetica,sans-Serif" font-size="10.00">com.cliffc.aa.node.NewNode&lt; T &gt;</text>
</a>
</g>
</g>
<!-- Node5&#45;&gt;Node4 -->
<g id="edge4" class="edge">
<title>Node5&#45;&gt;Node4</title>
<path fill="none" stroke="midnightblue" d="M699.76,-35.42C709.03,-34.45 718.45,-33.45 727.79,-32.47"/>
<polygon fill="midnightblue" stroke="midnightblue" points="699.35,-31.95 689.78,-36.48 700.09,-38.91 699.35,-31.95"/>
</g>
<!-- Node6 -->
<g id="node6" class="node">
<title>Node6</title>
<g id="a_node6"><a xlink:href="../../db/d1e/a01126.html" target="_top" xlink:title=" ">
<polygon fill="none" stroke="black" points="282,-34 282,-64 438,-64 438,-34 282,-34"/>
<text text-anchor="start" x="290" y="-52" font-family="Helvetica,sans-Serif" font-size="10.00">com.cliffc.aa.node.NewNode</text>
<text text-anchor="middle" x="360" y="-41" font-family="Helvetica,sans-Serif" font-size="10.00">&lt; T extends TypeObj&lt; T &gt;</text>
</a>
</g>
</g>
<!-- Node6&#45;&gt;Node5 -->
<g id="edge5" class="edge">
<title>Node6&#45;&gt;Node5</title>
<path fill="none" stroke="orange" stroke-dasharray="5,2" d="M448.36,-47.89C467.04,-47.65 486.82,-47.4 505.66,-47.16"/>
<polygon fill="orange" stroke="orange" points="448.07,-44.4 438.11,-48.02 448.16,-51.39 448.07,-44.4"/>
<text text-anchor="middle" x="472" y="-50" font-family="Helvetica,sans-Serif" font-size="10.00"> &lt; T &gt;</text>
</g>
<!-- Node7 -->
<g id="node7" class="node">
<title>Node7</title>
<g id="a_node7"><a xlink:href="../../df/db5/a01158.html" target="_top" xlink:title=" ">
<polygon fill="none" stroke="black" points="102,-54.5 102,-73.5 236,-73.5 236,-54.5 102,-54.5"/>
<text text-anchor="middle" x="169" y="-61.5" font-family="Helvetica,sans-Serif" font-size="10.00">com.cliffc.aa.node.Node</text>
</a>
</g>
</g>
<!-- Node7&#45;&gt;Node6 -->
<g id="edge6" class="edge">
<title>Node7&#45;&gt;Node6</title>
<path fill="none" stroke="midnightblue" d="M246.3,-57.94C258.04,-57.01 270.16,-56.05 281.92,-55.12"/>
<polygon fill="midnightblue" stroke="midnightblue" points="245.79,-54.47 236.1,-58.75 246.35,-61.45 245.79,-54.47"/>
</g>
<!-- Node8 -->
<g id="node8" class="node">
<title>Node8</title>
<g id="a_node8"><a xlink:href="../../d9/d76/a02526.html" target="_top" xlink:title=" ">
<polygon fill="none" stroke="black" points="0,-54.5 0,-73.5 65,-73.5 65,-54.5 0,-54.5"/>
<text text-anchor="middle" x="32.5" y="-61.5" font-family="Helvetica,sans-Serif" font-size="10.00">Cloneable</text>
</a>
</g>
</g>
<!-- Node8&#45;&gt;Node7 -->
<g id="edge7" class="edge">
<title>Node8&#45;&gt;Node7</title>
<path fill="none" stroke="midnightblue" d="M75.08,-64C83.61,-64 92.79,-64 101.95,-64"/>
<polygon fill="midnightblue" stroke="midnightblue" points="75.03,-60.5 65.03,-64 75.03,-67.5 75.03,-60.5"/>
</g>
<!-- Node9 -->
<g id="node9" class="node">
<title>Node9</title>
<g id="a_node9"><a xlink:href="../../d8/db7/a02450.html" target="_top" xlink:title=" ">
<polygon fill="none" stroke="black" points="132.5,-6.5 132.5,-25.5 205.5,-25.5 205.5,-6.5 132.5,-6.5"/>
<text text-anchor="middle" x="169" y="-13.5" font-family="Helvetica,sans-Serif" font-size="10.00">TypeObj&lt; T</text>
</a>
</g>
</g>
<!-- Node9&#45;&gt;Node4 -->
<g id="edge9" class="edge">
<title>Node9&#45;&gt;Node4</title>
<path fill="none" stroke="orange" stroke-dasharray="5,2" d="M216.08,-16.35C320.95,-17.13 579.75,-19.07 727.85,-20.18"/>
<polygon fill="orange" stroke="orange" points="215.86,-12.84 205.83,-16.27 215.81,-19.84 215.86,-12.84"/>
<text text-anchor="middle" x="472" y="-22" font-family="Helvetica,sans-Serif" font-size="10.00"> T</text>
</g>
<!-- Node9&#45;&gt;Node6 -->
<g id="edge8" class="edge">
<title>Node9&#45;&gt;Node6</title>
<path fill="none" stroke="orange" stroke-dasharray="5,2" d="M215.54,-23.95C235.39,-27.42 259.23,-31.58 281.72,-35.51"/>
<polygon fill="orange" stroke="orange" points="216,-20.48 205.55,-22.21 214.8,-27.37 216,-20.48"/>
<text text-anchor="middle" x="259" y="-35" font-family="Helvetica,sans-Serif" font-size="10.00"> T</text>
</g>
</g>
</svg>
