<?xml version="1.0" encoding="UTF-8" standalone="no"?>
<!DOCTYPE svg PUBLIC "-//W3C//DTD SVG 1.1//EN"
 "http://www.w3.org/Graphics/SVG/1.1/DTD/svg11.dtd">
<!-- Generated by graphviz version 2.43.0 (0)
 -->
<!-- Title: com.cliffc.aa.HM.HM6.Lambda2.more_work Pages: 1 -->
<svg width="715pt" height="91pt"
 viewBox="0.00 0.00 715.00 91.00" xmlns="http://www.w3.org/2000/svg" xmlns:xlink="http://www.w3.org/1999/xlink">
<g id="graph0" class="graph" transform="scale(1 1) rotate(0) translate(4 87)">
<title>com.cliffc.aa.HM.HM6.Lambda2.more_work</title>
<!-- Node1 -->
<g id="node1" class="node">
<title>Node1</title>
<g id="a_node1"><a xlink:title=" ">
<polygon fill="#bfbfbf" stroke="black" points="0,-41.5 0,-60.5 230,-60.5 230,-41.5 0,-41.5"/>
<text text-anchor="middle" x="115" y="-48.5" font-family="Helvetica,sans-Serif" font-size="10.00">com.cliffc.aa.HM.HM6.Lambda2.more_work</text>
</a>
</g>
</g>
<!-- Node2 -->
<g id="node2" class="node">
<title>Node2</title>
<g id="a_node2"><a xlink:href="../../d8/d4e/a00754.html#af37f7b60ef6e97f1e83f286c0f1442a7" target="_top" xlink:title=" ">
<polygon fill="none" stroke="black" points="266,-63.5 266,-82.5 484,-82.5 484,-63.5 266,-63.5"/>
<text text-anchor="middle" x="375" y="-70.5" font-family="Helvetica,sans-Serif" font-size="10.00">com.cliffc.aa.HM.HM6.Syntax.more_work</text>
</a>
</g>
</g>
<!-- Node1&#45;&gt;Node2 -->
<g id="edge1" class="edge">
<title>Node1&#45;&gt;Node2</title>
<path fill="none" stroke="midnightblue" d="M227.66,-60.52C236.96,-61.31 246.39,-62.12 255.73,-62.92"/>
<polygon fill="midnightblue" stroke="midnightblue" points="255.58,-66.41 265.84,-63.78 256.17,-59.44 255.58,-66.41"/>
</g>
<!-- Node3 -->
<g id="node3" class="node">
<title>Node3</title>
<g id="a_node3"><a xlink:href="../../d8/d4e/a00754.html#a0e9eeec8d919928d790d4eeba2392e55" target="_top" xlink:title=" ">
<polygon fill="none" stroke="black" points="280.5,-14 280.5,-44 469.5,-44 469.5,-14 280.5,-14"/>
<text text-anchor="start" x="288.5" y="-32" font-family="Helvetica,sans-Serif" font-size="10.00">com.cliffc.aa.HM.HM6.Syntax.more</text>
<text text-anchor="middle" x="375" y="-21" font-family="Helvetica,sans-Serif" font-size="10.00">_work_impl</text>
</a>
</g>
</g>
<!-- Node1&#45;&gt;Node3 -->
<g id="edge2" class="edge">
<title>Node1&#45;&gt;Node3</title>
<path fill="none" stroke="midnightblue" d="M227.66,-41.48C241.8,-40.27 256.22,-39.04 270.23,-37.85"/>
<polygon fill="midnightblue" stroke="midnightblue" points="270.68,-41.32 280.34,-36.99 270.08,-34.35 270.68,-41.32"/>
</g>
<!-- Node4 -->
<g id="node4" class="node">
<title>Node4</title>
<g id="a_node4"><a xlink:href="../../d4/d8f/a00742.html#aea1e2c78566a02a3a956a5b44a22a12d" target="_top" xlink:title=" ">
<polygon fill="none" stroke="black" points="520,-38.5 520,-57.5 707,-57.5 707,-38.5 520,-38.5"/>
<text text-anchor="middle" x="613.5" y="-45.5" font-family="Helvetica,sans-Serif" font-size="10.00">com.cliffc.aa.HM.HM6.Worklist.has</text>
</a>
</g>
</g>
<!-- Node3&#45;&gt;Node4 -->
<g id="edge3" class="edge">
<title>Node3&#45;&gt;Node4</title>
<path fill="none" stroke="midnightblue" d="M469.81,-36.54C482.97,-37.59 496.54,-38.68 509.85,-39.75"/>
<polygon fill="midnightblue" stroke="midnightblue" points="509.71,-43.25 519.96,-40.57 510.27,-36.28 509.71,-43.25"/>
</g>
<!-- Node5 -->
<g id="node5" class="node">
<title>Node5</title>
<g id="a_node5"><a xlink:href="../../d8/d4e/a00754.html#adbe90ac271949b7986eaf338b7cdfe40" target="_top" xlink:title=" ">
<polygon fill="none" stroke="black" points="524,-0.5 524,-19.5 703,-19.5 703,-0.5 524,-0.5"/>
<text text-anchor="middle" x="613.5" y="-7.5" font-family="Helvetica,sans-Serif" font-size="10.00">com.cliffc.aa.HM.HM6.Syntax.hm</text>
</a>
</g>
</g>
<!-- Node3&#45;&gt;Node5 -->
<g id="edge4" class="edge">
<title>Node3&#45;&gt;Node5</title>
<path fill="none" stroke="midnightblue" d="M469.81,-21.46C484.27,-20.3 499.24,-19.1 513.8,-17.93"/>
<polygon fill="midnightblue" stroke="midnightblue" points="514.12,-21.41 523.81,-17.13 513.56,-14.44 514.12,-21.41"/>
</g>
</g>
</svg>
