<?xml version="1.0" encoding="UTF-8" standalone="no"?>
<!DOCTYPE svg PUBLIC "-//W3C//DTD SVG 1.1//EN"
 "http://www.w3.org/Graphics/SVG/1.1/DTD/svg11.dtd">
<!-- Generated by graphviz version 2.43.0 (0)
 -->
<!-- Title: com.cliffc.aa.HM.HM6.Lambda2.prep_lookup_deps Pages: 1 -->
<!--zoomable 170 -->
<svg id="main" version="1.1" xmlns="http://www.w3.org/2000/svg" xmlns:xlink="http://www.w3.org/1999/xlink" xml:space="preserve" onload="init(evt)">
<style type="text/css"><![CDATA[
.edge:hover path { stroke: red; }
.edge:hover polygon { stroke: red; fill: red; }
]]></style>
<script type="text/javascript"><![CDATA[
var edges = document.getElementsByTagName('g');
if (edges && edges.length) {
  for (var i=0;i<edges.length;i++) {
    if (edges[i].id.substr(0,4)=='edge') {
      edges[i].setAttribute('class','edge');
    }
  }
}
]]></script>
        <defs>
                <circle id="rim" cx="0" cy="0" r="7"/>
                <circle id="rim2" cx="0" cy="0" r="3.5"/>
                <g id="zoomPlus">
                        <use xlink:href="#rim" fill="#404040">
                                <set attributeName="fill" to="#808080" begin="zoomplus.mouseover" end="zoomplus.mouseout"/>
                        </use>
                        <path d="M-4,0h8M0,-4v8" fill="none" stroke="white" stroke-width="1.5" pointer-events="none"/>
                </g>
                <g id="zoomMin">
                        <use xlink:href="#rim" fill="#404040">
                                <set attributeName="fill" to="#808080" begin="zoomminus.mouseover" end="zoomminus.mouseout"/>
                        </use>
                        <path d="M-4,0h8" fill="none" stroke="white" stroke-width="1.5" pointer-events="none"/>
                </g>
                <g id="dirArrow">
                        <path fill="none" stroke="white" stroke-width="1.5" d="M0,-3.0v7 M-2.5,-0.5L0,-3.0L2.5,-0.5"/>
                </g>
               <g id="resetDef">
                       <use xlink:href="#rim2" fill="#404040">
                               <set attributeName="fill" to="#808080" begin="reset.mouseover" end="reset.mouseout"/>
                       </use>
               </g>
        </defs>

<script type="text/javascript">
var viewWidth = 1778;
var viewHeight = 170;
var sectionId = 'dynsection-19';
</script>
<script xlink:href="../../svgpan.js"/>
<svg id="graph" class="graph">
<g id="viewport">
<title>com.cliffc.aa.HM.HM6.Lambda2.prep_lookup_deps</title>
<!-- Node1 -->
<g id="node1" class="node">
<title>Node1</title>
<g id="a_node1"><a xlink:title=" ">
<polygon fill="#bfbfbf" stroke="black" points="0,-109.44 0,-139.44 197,-139.44 197,-109.44 0,-109.44"/>
<text text-anchor="start" x="8" y="-127.44" font-family="Helvetica,sans-Serif" font-size="10.00">com.cliffc.aa.HM.HM6.Lambda2.prep</text>
<text text-anchor="middle" x="98.5" y="-116.44" font-family="Helvetica,sans-Serif" font-size="10.00">_lookup_deps</text>
</a>
</g>
</g>
<!-- Node2 -->
<g id="node2" class="node">
<title>Node2</title>
<g id="a_node2"><a xlink:href="../../dd/d55/a01638.html#a3975ba7dca9fe2d6e4992b2b5558f882" target="_top" xlink:title=" ">
<polygon fill="none" stroke="black" points="1637,-95.94 1637,-114.94 1770,-114.94 1770,-95.94 1637,-95.94"/>
<text text-anchor="middle" x="1703.5" y="-102.94" font-family="Helvetica,sans-Serif" font-size="10.00">com.cliffc.aa.util.Util.eq</text>
</a>
</g>
</g>
<!-- Node1&#45;&gt;Node2 -->
<g id="edge1" class="edge">
<title>Node1&#45;&gt;Node2</title>
<path fill="none" stroke="midnightblue" d="M197.19,-138.43C281.35,-149.27 406.17,-162.44 515.5,-162.44 515.5,-162.44 515.5,-162.44 1323,-162.44 1443.34,-162.44 1582.78,-134.07 1654.46,-117.36"/>
<polygon fill="midnightblue" stroke="midnightblue" points="1655.61,-120.69 1664.54,-114.98 1654,-113.87 1655.61,-120.69"/>
</g>
<!-- Node3 -->
<g id="node3" class="node">
<title>Node3</title>
<g id="a_node3"><a xlink:href="../../da/d96/a00782.html#ae4ac652f707a013684ccf8d0a23bf9f4" target="_top" xlink:title=" ">
<polygon fill="none" stroke="black" points="233,-87.44 233,-117.44 398,-117.44 398,-87.44 233,-87.44"/>
<text text-anchor="start" x="241" y="-105.44" font-family="Helvetica,sans-Serif" font-size="10.00">com.cliffc.aa.HM.HM6.T2.push</text>
<text text-anchor="middle" x="315.5" y="-94.44" font-family="Helvetica,sans-Serif" font-size="10.00">_update</text>
</a>
</g>
</g>
<!-- Node1&#45;&gt;Node3 -->
<g id="edge2" class="edge">
<title>Node1&#45;&gt;Node3</title>
<path fill="none" stroke="midnightblue" d="M197.25,-114.44C205.69,-113.58 214.21,-112.71 222.6,-111.85"/>
<polygon fill="midnightblue" stroke="midnightblue" points="223.16,-115.31 232.75,-110.81 222.45,-108.34 223.16,-115.31"/>
</g>
<!-- Node4 -->
<g id="node4" class="node">
<title>Node4</title>
<g id="a_node4"><a xlink:href="../../da/d96/a00782.html#a3d5dc01f928cfd66c386bdb7c43f5588" target="_top" xlink:title=" ">
<polygon fill="none" stroke="black" points="434,-71.44 434,-101.44 599,-101.44 599,-71.44 434,-71.44"/>
<text text-anchor="start" x="442" y="-89.44" font-family="Helvetica,sans-Serif" font-size="10.00">com.cliffc.aa.HM.HM6.T2.push</text>
<text text-anchor="middle" x="516.5" y="-78.44" font-family="Helvetica,sans-Serif" font-size="10.00">_update_impl</text>
</a>
</g>
</g>
<!-- Node3&#45;&gt;Node4 -->
<g id="edge3" class="edge">
<title>Node3&#45;&gt;Node4</title>
<path fill="none" stroke="midnightblue" d="M398.02,-95.89C406.5,-95.21 415.17,-94.51 423.76,-93.82"/>
<polygon fill="midnightblue" stroke="midnightblue" points="424.1,-97.3 433.79,-93.01 423.54,-90.33 424.1,-97.3"/>
</g>
<!-- Node4&#45;&gt;Node4 -->
<g id="edge13" class="edge">
<title>Node4&#45;&gt;Node4</title>
<path fill="none" stroke="midnightblue" d="M481.65,-101.6C473.24,-111 484.86,-119.94 516.5,-119.94 535.78,-119.94 547.63,-116.62 552.04,-111.9"/>
<polygon fill="midnightblue" stroke="midnightblue" points="555.51,-111.35 551.35,-101.6 548.52,-111.81 555.51,-111.35"/>
</g>
<!-- Node5 -->
<g id="node5" class="node">
<title>Node5</title>
<g id="a_node5"><a xlink:href="../../da/d96/a00782.html#ae20be8067da51e6c21154960c7a16039" target="_top" xlink:title=" ">
<polygon fill="none" stroke="black" points="635,-38.94 635,-57.94 798,-57.94 798,-38.94 635,-38.94"/>
<text text-anchor="middle" x="716.5" y="-45.94" font-family="Helvetica,sans-Serif" font-size="10.00">com.cliffc.aa.HM.HM6.T2.args</text>
</a>
</g>
</g>
<!-- Node4&#45;&gt;Node5 -->
<g id="edge4" class="edge">
<title>Node4&#45;&gt;Node5</title>
<path fill="none" stroke="midnightblue" d="M595.75,-71.42C615.82,-67.57 637.08,-63.49 656.02,-59.86"/>
<polygon fill="midnightblue" stroke="midnightblue" points="656.83,-63.27 666,-57.94 655.51,-56.39 656.83,-63.27"/>
</g>
<!-- Node7 -->
<g id="node7" class="node">
<title>Node7</title>
<g id="a_node7"><a xlink:href="../../da/d96/a00782.html#a6484a76005f406bab8095a6ac41a9ddf" target="_top" xlink:title=" ">
<polygon fill="none" stroke="black" points="1235,-57.94 1235,-76.94 1409,-76.94 1409,-57.94 1235,-57.94"/>
<text text-anchor="middle" x="1322" y="-64.94" font-family="Helvetica,sans-Serif" font-size="10.00">com.cliffc.aa.HM.HM6.T2.is_leaf</text>
</a>
</g>
</g>
<!-- Node4&#45;&gt;Node7 -->
<g id="edge11" class="edge">
<title>Node4&#45;&gt;Node7</title>
<path fill="none" stroke="midnightblue" d="M599.08,-85.31C726.95,-83.4 982.39,-79.11 1199,-72.44 1207.3,-72.19 1215.92,-71.89 1224.56,-71.58"/>
<polygon fill="midnightblue" stroke="midnightblue" points="1224.83,-75.07 1234.7,-71.2 1224.57,-68.08 1224.83,-75.07"/>
</g>
<!-- Node9 -->
<g id="node9" class="node">
<title>Node9</title>
<g id="a_node9"><a xlink:href="../../da/d96/a00782.html#a330c1c6b805c3cb281c514586a5e971b" target="_top" xlink:title=" ">
<polygon fill="none" stroke="black" points="1030,-0.94 1030,-19.94 1199,-19.94 1199,-0.94 1030,-0.94"/>
<text text-anchor="middle" x="1114.5" y="-7.94" font-family="Helvetica,sans-Serif" font-size="10.00">com.cliffc.aa.HM.HM6.T2.no_uf</text>
</a>
</g>
</g>
<!-- Node4&#45;&gt;Node9 -->
<g id="edge12" class="edge">
<title>Node4&#45;&gt;Node9</title>
<path fill="none" stroke="midnightblue" d="M541.13,-71.35C564.1,-57.58 600.47,-38.1 635,-29.44 765.46,3.27 922.12,2.22 1019.77,-2.98"/>
<polygon fill="midnightblue" stroke="midnightblue" points="1019.73,-6.48 1029.91,-3.54 1020.12,0.51 1019.73,-6.48"/>
</g>
<!-- Node10 -->
<g id="node10" class="node">
<title>Node10</title>
<g id="a_node10"><a xlink:href="../../df/dee/a01646.html#a88ad20daf92e92fe0e3925b23c4fecf0" target="_top" xlink:title=" ">
<polygon fill="none" stroke="black" points="637.5,-114.94 637.5,-133.94 795.5,-133.94 795.5,-114.94 637.5,-114.94"/>
<text text-anchor="middle" x="716.5" y="-121.94" font-family="Helvetica,sans-Serif" font-size="10.00">com.cliffc.aa.util.VBitSet.tset</text>
</a>
</g>
</g>
<!-- Node4&#45;&gt;Node10 -->
<g id="edge14" class="edge">
<title>Node4&#45;&gt;Node10</title>
<path fill="none" stroke="midnightblue" d="M595.75,-101.46C615.82,-105.31 637.08,-109.39 656.02,-113.03"/>
<polygon fill="midnightblue" stroke="midnightblue" points="655.51,-116.49 666,-114.94 656.83,-109.62 655.51,-116.49"/>
</g>
<!-- Node6 -->
<g id="node6" class="node">
<title>Node6</title>
<g id="a_node6"><a xlink:href="../../da/d96/a00782.html#ab2e83a7eade97aab395234bdc2fbdee5" target="_top" xlink:title=" ">
<polygon fill="none" stroke="black" points="834,-38.94 834,-57.94 994,-57.94 994,-38.94 834,-38.94"/>
<text text-anchor="middle" x="914" y="-45.94" font-family="Helvetica,sans-Serif" font-size="10.00">com.cliffc.aa.HM.HM6.T2.find</text>
</a>
</g>
</g>
<!-- Node5&#45;&gt;Node6 -->
<g id="edge5" class="edge">
<title>Node5&#45;&gt;Node6</title>
<path fill="none" stroke="midnightblue" d="M798.15,-48.44C806.52,-48.44 815.07,-48.44 823.53,-48.44"/>
<polygon fill="midnightblue" stroke="midnightblue" points="823.8,-51.94 833.8,-48.44 823.8,-44.94 823.8,-51.94"/>
</g>
<!-- Node6&#45;&gt;Node7 -->
<g id="edge6" class="edge">
<title>Node6&#45;&gt;Node7</title>
<path fill="none" stroke="midnightblue" d="M994.24,-52.15C1060.23,-55.24 1154.43,-59.65 1224.74,-62.94"/>
<polygon fill="midnightblue" stroke="midnightblue" points="1224.78,-66.44 1234.94,-63.42 1225.11,-59.45 1224.78,-66.44"/>
</g>
<!-- Node6&#45;&gt;Node9 -->
<g id="edge9" class="edge">
<title>Node6&#45;&gt;Node9</title>
<path fill="none" stroke="midnightblue" d="M964.83,-38.9C991.73,-33.75 1025.14,-27.36 1053.46,-21.94"/>
<polygon fill="midnightblue" stroke="midnightblue" points="1054.48,-25.31 1063.65,-19.99 1053.17,-18.43 1054.48,-25.31"/>
</g>
<!-- Node8 -->
<g id="node8" class="node">
<title>Node8</title>
<g id="a_node8"><a xlink:href="../../da/d96/a00782.html#a84872ec3f243c8ad7557f8ca549b0fe7" target="_top" xlink:title=" ">
<polygon fill="none" stroke="black" points="1445,-76.94 1445,-95.94 1601,-95.94 1601,-76.94 1445,-76.94"/>
<text text-anchor="middle" x="1523" y="-83.94" font-family="Helvetica,sans-Serif" font-size="10.00">com.cliffc.aa.HM.HM6.T2.isa</text>
</a>
</g>
</g>
<!-- Node7&#45;&gt;Node8 -->
<g id="edge7" class="edge">
<title>Node7&#45;&gt;Node8</title>
<path fill="none" stroke="midnightblue" d="M1409.13,-75.67C1417.66,-76.48 1426.32,-77.31 1434.87,-78.12"/>
<polygon fill="midnightblue" stroke="midnightblue" points="1434.53,-81.61 1444.82,-79.07 1435.2,-74.64 1434.53,-81.61"/>
</g>
<!-- Node8&#45;&gt;Node2 -->
<g id="edge8" class="edge">
<title>Node8&#45;&gt;Node2</title>
<path fill="none" stroke="midnightblue" d="M1601.25,-94.67C1609.69,-95.57 1618.28,-96.48 1626.7,-97.38"/>
<polygon fill="midnightblue" stroke="midnightblue" points="1626.56,-100.88 1636.87,-98.46 1627.3,-93.92 1626.56,-100.88"/>
</g>
<!-- Node9&#45;&gt;Node7 -->
<g id="edge10" class="edge">
<title>Node9&#45;&gt;Node7</title>
<path fill="none" stroke="midnightblue" d="M1149.9,-19.98C1184.72,-29.64 1238.71,-44.62 1276.71,-55.16"/>
<polygon fill="midnightblue" stroke="midnightblue" points="1275.92,-58.57 1286.49,-57.87 1277.79,-51.83 1275.92,-58.57"/>
</g>
</g>
</svg>
        <g id="navigator" transform="translate(0 0)" fill="#404254">
                <rect fill="#f2f5e9" fill-opacity="0.5" stroke="#606060" stroke-width=".5" x="0" y="0" width="60" height="60"/>
                <use id="zoomplus" xlink:href="#zoomPlus" x="17" y="9" onmousedown="handleZoom(evt,'in')"/>
                <use id="zoomminus" xlink:href="#zoomMin" x="42" y="9" onmousedown="handleZoom(evt,'out')"/>
                <use id="reset" xlink:href="#resetDef" x="30" y="36" onmousedown="handleReset()"/>
                <g id="arrowUp" xlink:href="#dirArrow" transform="translate(30 24)" onmousedown="handlePan(0,-1)">
                  <use xlink:href="#rim" fill="#404040">
                        <set attributeName="fill" to="#808080" begin="arrowUp.mouseover" end="arrowUp.mouseout"/>
                  </use>
                  <path fill="none" stroke="white" stroke-width="1.5" d="M0,-3.0v7 M-2.5,-0.5L0,-3.0L2.5,-0.5"/>
                </g>
                <g id="arrowRight" xlink:href="#dirArrow" transform="rotate(90) translate(36 -43)" onmousedown="handlePan(1,0)">
                  <use xlink:href="#rim" fill="#404040">
                        <set attributeName="fill" to="#808080" begin="arrowRight.mouseover" end="arrowRight.mouseout"/>
                  </use>
                  <path fill="none" stroke="white" stroke-width="1.5" d="M0,-3.0v7 M-2.5,-0.5L0,-3.0L2.5,-0.5"/>
                </g>
                <g id="arrowDown" xlink:href="#dirArrow" transform="rotate(180) translate(-30 -48)" onmousedown="handlePan(0,1)">
                  <use xlink:href="#rim" fill="#404040">
                        <set attributeName="fill" to="#808080" begin="arrowDown.mouseover" end="arrowDown.mouseout"/>
                  </use>
                  <path fill="none" stroke="white" stroke-width="1.5" d="M0,-3.0v7 M-2.5,-0.5L0,-3.0L2.5,-0.5"/>
                </g>
                <g id="arrowLeft" xlink:href="#dirArrow" transform="rotate(270) translate(-36 17)" onmousedown="handlePan(-1,0)">
                  <use xlink:href="#rim" fill="#404040">
                        <set attributeName="fill" to="#808080" begin="arrowLeft.mouseover" end="arrowLeft.mouseout"/>
                  </use>
                  <path fill="none" stroke="white" stroke-width="1.5" d="M0,-3.0v7 M-2.5,-0.5L0,-3.0L2.5,-0.5"/>
                </g>
        </g>
        <svg viewBox="0 0 15 15" width="100%" height="30px" preserveAspectRatio="xMaxYMin meet">
         <g id="arrow_out" transform="scale(0.3 0.3)">
          <a xlink:href="a00770_a8b08da89302ac6cd4bf5f242b577d40b_cgraph_org.svg" target="_base">
           <rect id="button" ry="5" rx="5" y="6" x="6" height="38" width="38"
                fill="#f2f5e9" fill-opacity="0.5" stroke="#606060" stroke-width="1.0"/>
           <path id="arrow"
             d="M 11.500037,31.436501 C 11.940474,20.09759 22.043105,11.32322 32.158766,21.979434 L 37.068811,17.246167 C 37.068811,17.246167 37.088388,32 37.088388,32 L 22.160133,31.978069 C 22.160133,31.978069 26.997745,27.140456 26.997745,27.140456 C 18.528582,18.264221 13.291696,25.230495 11.500037,31.436501 z"
             style="fill:#404040;"/>
          </a>
         </g>
        </svg>
</svg>
