<?xml version="1.0" encoding="UTF-8" standalone="no"?>
<!DOCTYPE svg PUBLIC "-//W3C//DTD SVG 1.1//EN"
 "http://www.w3.org/Graphics/SVG/1.1/DTD/svg11.dtd">
<!-- Generated by graphviz version 2.43.0 (0)
 -->
<!-- Title: com.cliffc.aa.HM.HM.T2._fresh Pages: 1 -->
<svg width="738pt" height="137pt"
 viewBox="0.00 0.00 738.00 137.00" xmlns="http://www.w3.org/2000/svg" xmlns:xlink="http://www.w3.org/1999/xlink">
<g id="graph0" class="graph" transform="scale(1 1) rotate(0) translate(4 133)">
<title>com.cliffc.aa.HM.HM.T2._fresh</title>
<!-- Node1 -->
<g id="node1" class="node">
<title>Node1</title>
<g id="a_node1"><a xlink:title=" ">
<polygon fill="#bfbfbf" stroke="black" points="594,-49.5 594,-79.5 730,-79.5 730,-49.5 594,-49.5"/>
<text text-anchor="start" x="602" y="-67.5" font-family="Helvetica,sans-Serif" font-size="10.00">com.cliffc.aa.HM.HM.T2.</text>
<text text-anchor="middle" x="662" y="-56.5" font-family="Helvetica,sans-Serif" font-size="10.00">_fresh</text>
</a>
</g>
</g>
<!-- Node1&#45;&gt;Node1 -->
<g id="edge1" class="edge">
<title>Node1&#45;&gt;Node1</title>
<path fill="none" stroke="midnightblue" d="M694.69,-89.96C690.64,-94.68 679.74,-98 662,-98 632.89,-98 622.2,-89.06 629.93,-79.66"/>
<polygon fill="midnightblue" stroke="midnightblue" points="698.17,-89.43 694.07,-79.66 691.18,-89.85 698.17,-89.43"/>
</g>
<!-- Node2 -->
<g id="node2" class="node">
<title>Node2</title>
<g id="a_node2"><a xlink:href="../../d6/d90/a00514.html#ab20d5978be1356640708420ac87d12e0" target="_top" xlink:title=" ">
<polygon fill="none" stroke="black" points="409.5,-49.5 409.5,-79.5 545.5,-79.5 545.5,-49.5 409.5,-49.5"/>
<text text-anchor="start" x="417.5" y="-67.5" font-family="Helvetica,sans-Serif" font-size="10.00">com.cliffc.aa.HM.HM.T2.</text>
<text text-anchor="middle" x="477.5" y="-56.5" font-family="Helvetica,sans-Serif" font-size="10.00">_fresh_unify</text>
</a>
</g>
</g>
<!-- Node1&#45;&gt;Node2 -->
<g id="edge2" class="edge">
<title>Node1&#45;&gt;Node2</title>
<path fill="none" stroke="midnightblue" d="M583.73,-64.5C571.03,-64.5 557.96,-64.5 545.54,-64.5"/>
<polygon fill="midnightblue" stroke="midnightblue" points="583.82,-68 593.82,-64.5 583.82,-61 583.82,-68"/>
</g>
<!-- Node3 -->
<g id="node3" class="node">
<title>Node3</title>
<g id="a_node3"><a xlink:href="../../d6/d90/a00514.html#ab244e3eed7d73a6daf650485274bffa9" target="_top" xlink:title=" ">
<polygon fill="none" stroke="black" points="212.5,-98.5 212.5,-128.5 348.5,-128.5 348.5,-98.5 212.5,-98.5"/>
<text text-anchor="start" x="220.5" y="-116.5" font-family="Helvetica,sans-Serif" font-size="10.00">com.cliffc.aa.HM.HM.T2.</text>
<text text-anchor="middle" x="280.5" y="-105.5" font-family="Helvetica,sans-Serif" font-size="10.00">_fresh_unify_struct</text>
</a>
</g>
</g>
<!-- Node1&#45;&gt;Node3 -->
<g id="edge8" class="edge">
<title>Node1&#45;&gt;Node3</title>
<path fill="none" stroke="midnightblue" d="M623.83,-83.99C604.71,-92.97 580.7,-102.69 558,-107.5 487.77,-122.36 405.27,-121.91 348.78,-118.97"/>
<polygon fill="midnightblue" stroke="midnightblue" points="625.59,-87.03 633.07,-79.53 622.54,-80.72 625.59,-87.03"/>
</g>
<!-- Node6 -->
<g id="node6" class="node">
<title>Node6</title>
<g id="a_node6"><a xlink:href="../../d6/d90/a00514.html#abdd9daea64d99418b0c057295db26b3a" target="_top" xlink:title=" ">
<polygon fill="none" stroke="black" points="397,-9 397,-28 558,-28 558,-9 397,-9"/>
<text text-anchor="middle" x="477.5" y="-16" font-family="Helvetica,sans-Serif" font-size="10.00">com.cliffc.aa.HM.HM.T2.fresh</text>
</a>
</g>
</g>
<!-- Node1&#45;&gt;Node6 -->
<g id="edge9" class="edge">
<title>Node1&#45;&gt;Node6</title>
<path fill="none" stroke="midnightblue" d="M591.25,-46.92C565.78,-40.5 537.94,-33.48 516.3,-28.03"/>
<polygon fill="midnightblue" stroke="midnightblue" points="590.69,-50.39 601.24,-49.44 592.4,-43.6 590.69,-50.39"/>
</g>
<!-- Node2&#45;&gt;Node2 -->
<g id="edge3" class="edge">
<title>Node2&#45;&gt;Node2</title>
<path fill="none" stroke="midnightblue" d="M510.19,-89.96C506.14,-94.68 495.24,-98 477.5,-98 448.39,-98 437.7,-89.06 445.43,-79.66"/>
<polygon fill="midnightblue" stroke="midnightblue" points="513.67,-89.43 509.57,-79.66 506.68,-89.85 513.67,-89.43"/>
</g>
<!-- Node2&#45;&gt;Node3 -->
<g id="edge4" class="edge">
<title>Node2&#45;&gt;Node3</title>
<path fill="none" stroke="midnightblue" d="M399.39,-77.26C371.9,-83.8 342.16,-91.66 319.43,-98.5"/>
<polygon fill="midnightblue" stroke="midnightblue" points="400.46,-80.6 409.39,-74.91 398.86,-73.79 400.46,-80.6"/>
</g>
<!-- Node4 -->
<g id="node4" class="node">
<title>Node4</title>
<g id="a_node4"><a xlink:href="../../d6/d90/a00514.html#a9235a65fbecc9c02d5c5916c1fed4a8e" target="_top" xlink:title=" ">
<polygon fill="none" stroke="black" points="200,-49.5 200,-79.5 361,-79.5 361,-49.5 200,-49.5"/>
<text text-anchor="start" x="208" y="-67.5" font-family="Helvetica,sans-Serif" font-size="10.00">com.cliffc.aa.HM.HM.T2.fresh</text>
<text text-anchor="middle" x="280.5" y="-56.5" font-family="Helvetica,sans-Serif" font-size="10.00">_unify</text>
</a>
</g>
</g>
<!-- Node2&#45;&gt;Node4 -->
<g id="edge6" class="edge">
<title>Node2&#45;&gt;Node4</title>
<path fill="none" stroke="midnightblue" d="M399.05,-64.5C386.59,-64.5 373.68,-64.5 361.17,-64.5"/>
<polygon fill="midnightblue" stroke="midnightblue" points="399.39,-68 409.39,-64.5 399.39,-61 399.39,-68"/>
</g>
<!-- Node3&#45;&gt;Node2 -->
<g id="edge5" class="edge">
<title>Node3&#45;&gt;Node2</title>
<path fill="none" stroke="midnightblue" d="M358.66,-100.73C386.08,-94.2 415.73,-86.37 438.44,-79.54"/>
<polygon fill="midnightblue" stroke="midnightblue" points="357.62,-97.38 348.68,-103.07 359.22,-104.19 357.62,-97.38"/>
</g>
<!-- Node5 -->
<g id="node5" class="node">
<title>Node5</title>
<g id="a_node5"><a xlink:href="../../d7/db9/a00426.html#a72d4f072658d4543739c3f9a271e16d6" target="_top" xlink:title=" ">
<polygon fill="none" stroke="black" points="0,-55 0,-74 164,-74 164,-55 0,-55"/>
<text text-anchor="middle" x="82" y="-62" font-family="Helvetica,sans-Serif" font-size="10.00">com.cliffc.aa.HM.HM.Ident.hm</text>
</a>
</g>
</g>
<!-- Node4&#45;&gt;Node5 -->
<g id="edge7" class="edge">
<title>Node4&#45;&gt;Node5</title>
<path fill="none" stroke="midnightblue" d="M189.82,-64.5C181.23,-64.5 172.54,-64.5 164.03,-64.5"/>
<polygon fill="midnightblue" stroke="midnightblue" points="189.86,-68 199.86,-64.5 189.86,-61 189.86,-68"/>
</g>
<!-- Node7 -->
<g id="node7" class="node">
<title>Node7</title>
<g id="a_node7"><a xlink:href="../../d7/d9f/a00454.html#a47b606c512ddf14ef98474f6f8b56b79" target="_top" xlink:title=" ">
<polygon fill="none" stroke="black" points="209,-0.5 209,-30.5 352,-30.5 352,-0.5 209,-0.5"/>
<text text-anchor="start" x="217" y="-18.5" font-family="Helvetica,sans-Serif" font-size="10.00">com.cliffc.aa.HM.HM.Prim</text>
<text text-anchor="middle" x="280.5" y="-7.5" font-family="Helvetica,sans-Serif" font-size="10.00">Syn.PrimSyn</text>
</a>
</g>
</g>
<!-- Node6&#45;&gt;Node7 -->
<g id="edge10" class="edge">
<title>Node6&#45;&gt;Node7</title>
<path fill="none" stroke="midnightblue" d="M386.74,-17.12C375.11,-16.94 363.34,-16.76 352.08,-16.59"/>
<polygon fill="midnightblue" stroke="midnightblue" points="386.85,-20.62 396.9,-17.28 386.96,-13.62 386.85,-20.62"/>
</g>
</g>
</svg>
