<?xml version="1.0" encoding="UTF-8" standalone="no"?>
<!DOCTYPE svg PUBLIC "-//W3C//DTD SVG 1.1//EN"
 "http://www.w3.org/Graphics/SVG/1.1/DTD/svg11.dtd">
<!-- Generated by graphviz version 2.43.0 (0)
 -->
<!-- Title: com.cliffc.aa.HM.HM.T2._cycle_equals_struct Pages: 1 -->
<svg width="1082pt" height="106pt"
 viewBox="0.00 0.00 1082.00 106.00" xmlns="http://www.w3.org/2000/svg" xmlns:xlink="http://www.w3.org/1999/xlink">
<g id="graph0" class="graph" transform="scale(1 1) rotate(0) translate(4 102)">
<title>com.cliffc.aa.HM.HM.T2._cycle_equals_struct</title>
<!-- Node1 -->
<g id="node1" class="node">
<title>Node1</title>
<g id="a_node1"><a xlink:title=" ">
<polygon fill="#bfbfbf" stroke="black" points="938,-49.5 938,-79.5 1074,-79.5 1074,-49.5 938,-49.5"/>
<text text-anchor="start" x="946" y="-67.5" font-family="Helvetica,sans-Serif" font-size="10.00">com.cliffc.aa.HM.HM.T2.</text>
<text text-anchor="middle" x="1006" y="-56.5" font-family="Helvetica,sans-Serif" font-size="10.00">_cycle_equals_struct</text>
</a>
</g>
</g>
<!-- Node2 -->
<g id="node2" class="node">
<title>Node2</title>
<g id="a_node2"><a xlink:href="../../d6/d90/a00514.html#afa37295ef22f8e6d6651ea09cd31de83" target="_top" xlink:title=" ">
<polygon fill="none" stroke="black" points="766,-49.5 766,-79.5 902,-79.5 902,-49.5 766,-49.5"/>
<text text-anchor="start" x="774" y="-67.5" font-family="Helvetica,sans-Serif" font-size="10.00">com.cliffc.aa.HM.HM.T2.</text>
<text text-anchor="middle" x="834" y="-56.5" font-family="Helvetica,sans-Serif" font-size="10.00">_cycle_equals</text>
</a>
</g>
</g>
<!-- Node1&#45;&gt;Node2 -->
<g id="edge1" class="edge">
<title>Node1&#45;&gt;Node2</title>
<path fill="none" stroke="midnightblue" d="M927.58,-57.77C919.12,-57.72 910.57,-57.76 902.26,-57.88"/>
<polygon fill="midnightblue" stroke="midnightblue" points="927.77,-61.28 937.81,-57.88 927.85,-54.28 927.77,-61.28"/>
</g>
<!-- Node2&#45;&gt;Node1 -->
<g id="edge2" class="edge">
<title>Node2&#45;&gt;Node1</title>
<path fill="none" stroke="midnightblue" d="M912.49,-71.23C920.95,-71.28 929.5,-71.24 937.81,-71.12"/>
<polygon fill="midnightblue" stroke="midnightblue" points="912.29,-67.72 902.26,-71.12 912.22,-74.72 912.29,-67.72"/>
</g>
<!-- Node3 -->
<g id="node3" class="node">
<title>Node3</title>
<g id="a_node3"><a xlink:href="../../d6/d90/a00514.html#a221aab34a4192227b6130ca551600fae" target="_top" xlink:title=" ">
<polygon fill="none" stroke="black" points="569,-49.5 569,-79.5 730,-79.5 730,-49.5 569,-49.5"/>
<text text-anchor="start" x="577" y="-67.5" font-family="Helvetica,sans-Serif" font-size="10.00">com.cliffc.aa.HM.HM.T2.cycle</text>
<text text-anchor="middle" x="649.5" y="-56.5" font-family="Helvetica,sans-Serif" font-size="10.00">_equals</text>
</a>
</g>
</g>
<!-- Node2&#45;&gt;Node3 -->
<g id="edge3" class="edge">
<title>Node2&#45;&gt;Node3</title>
<path fill="none" stroke="midnightblue" d="M755.65,-64.5C747.24,-64.5 738.66,-64.5 730.21,-64.5"/>
<polygon fill="midnightblue" stroke="midnightblue" points="755.82,-68 765.82,-64.5 755.82,-61 755.82,-68"/>
</g>
<!-- Node4 -->
<g id="node4" class="node">
<title>Node4</title>
<g id="a_node4"><a xlink:href="../../d6/d90/a00514.html#ab20d5978be1356640708420ac87d12e0" target="_top" xlink:title=" ">
<polygon fill="none" stroke="black" points="397,-49.5 397,-79.5 533,-79.5 533,-49.5 397,-49.5"/>
<text text-anchor="start" x="405" y="-67.5" font-family="Helvetica,sans-Serif" font-size="10.00">com.cliffc.aa.HM.HM.T2.</text>
<text text-anchor="middle" x="465" y="-56.5" font-family="Helvetica,sans-Serif" font-size="10.00">_fresh_unify</text>
</a>
</g>
</g>
<!-- Node3&#45;&gt;Node4 -->
<g id="edge4" class="edge">
<title>Node3&#45;&gt;Node4</title>
<path fill="none" stroke="midnightblue" d="M558.89,-64.5C550.26,-64.5 541.62,-64.5 533.27,-64.5"/>
<polygon fill="midnightblue" stroke="midnightblue" points="558.98,-68 568.98,-64.5 558.98,-61 558.98,-68"/>
</g>
<!-- Node4&#45;&gt;Node4 -->
<g id="edge5" class="edge">
<title>Node4&#45;&gt;Node4</title>
<path fill="none" stroke="midnightblue" d="M497.69,-89.96C493.64,-94.68 482.74,-98 465,-98 435.89,-98 425.2,-89.06 432.93,-79.66"/>
<polygon fill="midnightblue" stroke="midnightblue" points="501.17,-89.43 497.07,-79.66 494.18,-89.85 501.17,-89.43"/>
</g>
<!-- Node5 -->
<g id="node5" class="node">
<title>Node5</title>
<g id="a_node5"><a xlink:href="../../d6/d90/a00514.html#ab244e3eed7d73a6daf650485274bffa9" target="_top" xlink:title=" ">
<polygon fill="none" stroke="black" points="212.5,-49.5 212.5,-79.5 348.5,-79.5 348.5,-49.5 212.5,-49.5"/>
<text text-anchor="start" x="220.5" y="-67.5" font-family="Helvetica,sans-Serif" font-size="10.00">com.cliffc.aa.HM.HM.T2.</text>
<text text-anchor="middle" x="280.5" y="-56.5" font-family="Helvetica,sans-Serif" font-size="10.00">_fresh_unify_struct</text>
</a>
</g>
</g>
<!-- Node4&#45;&gt;Node5 -->
<g id="edge6" class="edge">
<title>Node4&#45;&gt;Node5</title>
<path fill="none" stroke="midnightblue" d="M386.73,-57.82C374.03,-57.69 360.96,-57.74 348.54,-57.97"/>
<polygon fill="midnightblue" stroke="midnightblue" points="386.77,-61.32 396.82,-57.96 386.87,-54.32 386.77,-61.32"/>
</g>
<!-- Node6 -->
<g id="node6" class="node">
<title>Node6</title>
<g id="a_node6"><a xlink:href="../../d6/d90/a00514.html#a9235a65fbecc9c02d5c5916c1fed4a8e" target="_top" xlink:title=" ">
<polygon fill="none" stroke="black" points="200,-0.5 200,-30.5 361,-30.5 361,-0.5 200,-0.5"/>
<text text-anchor="start" x="208" y="-18.5" font-family="Helvetica,sans-Serif" font-size="10.00">com.cliffc.aa.HM.HM.T2.fresh</text>
<text text-anchor="middle" x="280.5" y="-7.5" font-family="Helvetica,sans-Serif" font-size="10.00">_unify</text>
</a>
</g>
</g>
<!-- Node4&#45;&gt;Node6 -->
<g id="edge8" class="edge">
<title>Node4&#45;&gt;Node6</title>
<path fill="none" stroke="midnightblue" d="M397.9,-46.75C378.12,-41.44 356.63,-35.67 337.56,-30.55"/>
<polygon fill="midnightblue" stroke="midnightblue" points="397.19,-50.19 407.75,-49.4 399,-43.43 397.19,-50.19"/>
</g>
<!-- Node5&#45;&gt;Node4 -->
<g id="edge7" class="edge">
<title>Node5&#45;&gt;Node4</title>
<path fill="none" stroke="midnightblue" d="M358.62,-71.18C371.32,-71.31 384.39,-71.26 396.82,-71.04"/>
<polygon fill="midnightblue" stroke="midnightblue" points="358.59,-67.68 348.54,-71.03 358.49,-74.68 358.59,-67.68"/>
</g>
<!-- Node7 -->
<g id="node7" class="node">
<title>Node7</title>
<g id="a_node7"><a xlink:href="../../d7/db9/a00426.html#a72d4f072658d4543739c3f9a271e16d6" target="_top" xlink:title=" ">
<polygon fill="none" stroke="black" points="0,-6 0,-25 164,-25 164,-6 0,-6"/>
<text text-anchor="middle" x="82" y="-13" font-family="Helvetica,sans-Serif" font-size="10.00">com.cliffc.aa.HM.HM.Ident.hm</text>
</a>
</g>
</g>
<!-- Node6&#45;&gt;Node7 -->
<g id="edge9" class="edge">
<title>Node6&#45;&gt;Node7</title>
<path fill="none" stroke="midnightblue" d="M189.82,-15.5C181.23,-15.5 172.54,-15.5 164.03,-15.5"/>
<polygon fill="midnightblue" stroke="midnightblue" points="189.86,-19 199.86,-15.5 189.86,-12 189.86,-19"/>
</g>
</g>
</svg>
