<?xml version="1.0" encoding="UTF-8" standalone="no"?>
<!DOCTYPE svg PUBLIC "-//W3C//DTD SVG 1.1//EN"
 "http://www.w3.org/Graphics/SVG/1.1/DTD/svg11.dtd">
<!-- Generated by graphviz version 2.43.0 (0)
 -->
<!-- Title: com.cliffc.aa.HM.HM.T2._union Pages: 1 -->
<!--zoomable 134 -->
<svg id="main" version="1.1" xmlns="http://www.w3.org/2000/svg" xmlns:xlink="http://www.w3.org/1999/xlink" xml:space="preserve" onload="init(evt)">
<style type="text/css"><![CDATA[
.edge:hover path { stroke: red; }
.edge:hover polygon { stroke: red; fill: red; }
]]></style>
<script type="text/javascript"><![CDATA[
var edges = document.getElementsByTagName('g');
if (edges && edges.length) {
  for (var i=0;i<edges.length;i++) {
    if (edges[i].id.substr(0,4)=='edge') {
      edges[i].setAttribute('class','edge');
    }
  }
}
]]></script>
        <defs>
                <circle id="rim" cx="0" cy="0" r="7"/>
                <circle id="rim2" cx="0" cy="0" r="3.5"/>
                <g id="zoomPlus">
                        <use xlink:href="#rim" fill="#404040">
                                <set attributeName="fill" to="#808080" begin="zoomplus.mouseover" end="zoomplus.mouseout"/>
                        </use>
                        <path d="M-4,0h8M0,-4v8" fill="none" stroke="white" stroke-width="1.5" pointer-events="none"/>
                </g>
                <g id="zoomMin">
                        <use xlink:href="#rim" fill="#404040">
                                <set attributeName="fill" to="#808080" begin="zoomminus.mouseover" end="zoomminus.mouseout"/>
                        </use>
                        <path d="M-4,0h8" fill="none" stroke="white" stroke-width="1.5" pointer-events="none"/>
                </g>
                <g id="dirArrow">
                        <path fill="none" stroke="white" stroke-width="1.5" d="M0,-3.0v7 M-2.5,-0.5L0,-3.0L2.5,-0.5"/>
                </g>
               <g id="resetDef">
                       <use xlink:href="#rim2" fill="#404040">
                               <set attributeName="fill" to="#808080" begin="reset.mouseover" end="reset.mouseout"/>
                       </use>
               </g>
        </defs>

<script type="text/javascript">
var viewWidth = 952;
var viewHeight = 134;
var sectionId = 'dynsection-36';
</script>
<script xlink:href="../../svgpan.js"/>
<svg id="graph" class="graph">
<g id="viewport">
<title>com.cliffc.aa.HM.HM.T2._union</title>
<!-- Node1 -->
<g id="node1" class="node">
<title>Node1</title>
<g id="a_node1"><a xlink:title=" ">
<polygon fill="#bfbfbf" stroke="black" points="0,-62.5 0,-92.5 136,-92.5 136,-62.5 0,-62.5"/>
<text text-anchor="start" x="8" y="-80.5" font-family="Helvetica,sans-Serif" font-size="10.00">com.cliffc.aa.HM.HM.T2.</text>
<text text-anchor="middle" x="68" y="-69.5" font-family="Helvetica,sans-Serif" font-size="10.00">_union</text>
</a>
</g>
</g>
<!-- Node2 -->
<g id="node2" class="node">
<title>Node2</title>
<g id="a_node2"><a xlink:href="../../d1/d8b/a00406.html#ae2c852edd2d329ae8170203ee54ce011" target="_top" xlink:title=" ">
<polygon fill="none" stroke="black" points="172,-106 172,-125 366,-125 366,-106 172,-106"/>
<text text-anchor="middle" x="269" y="-113" font-family="Helvetica,sans-Serif" font-size="10.00">com.cliffc.aa.HM.HM.Worklist.addAll</text>
</a>
</g>
</g>
<!-- Node1&#45;&gt;Node2 -->
<g id="edge1" class="edge">
<title>Node1&#45;&gt;Node2</title>
<path fill="none" stroke="midnightblue" d="M136.09,-90.31C159.49,-94.78 185.56,-99.76 208.31,-104.1"/>
<polygon fill="midnightblue" stroke="midnightblue" points="207.7,-107.55 218.18,-105.99 209.01,-100.67 207.7,-107.55"/>
</g>
<!-- Node4 -->
<g id="node4" class="node">
<title>Node4</title>
<g id="a_node4"><a xlink:href="../../d6/d90/a00514.html#a5a583637713ecacb740ff662677191f7" target="_top" xlink:title=" ">
<polygon fill="none" stroke="black" points="187.5,-68 187.5,-87 350.5,-87 350.5,-68 187.5,-68"/>
<text text-anchor="middle" x="269" y="-75" font-family="Helvetica,sans-Serif" font-size="10.00">com.cliffc.aa.HM.HM.T2.no_uf</text>
</a>
</g>
</g>
<!-- Node1&#45;&gt;Node4 -->
<g id="edge3" class="edge">
<title>Node1&#45;&gt;Node4</title>
<path fill="none" stroke="midnightblue" d="M136.09,-77.5C149.35,-77.5 163.47,-77.5 177.36,-77.5"/>
<polygon fill="midnightblue" stroke="midnightblue" points="177.41,-81 187.41,-77.5 177.41,-74 177.41,-81"/>
</g>
<!-- Node9 -->
<g id="node9" class="node">
<title>Node9</title>
<g id="a_node9"><a xlink:href="../../d6/d90/a00514.html#a558f64d002aa8064e41dab1d9d8875e7" target="_top" xlink:title=" ">
<polygon fill="none" stroke="black" points="189.5,-0.5 189.5,-30.5 348.5,-30.5 348.5,-0.5 189.5,-0.5"/>
<text text-anchor="start" x="197.5" y="-18.5" font-family="Helvetica,sans-Serif" font-size="10.00">com.cliffc.aa.HM.HM.T2.push</text>
<text text-anchor="middle" x="269" y="-7.5" font-family="Helvetica,sans-Serif" font-size="10.00">_update</text>
</a>
</g>
</g>
<!-- Node1&#45;&gt;Node9 -->
<g id="edge8" class="edge">
<title>Node1&#45;&gt;Node9</title>
<path fill="none" stroke="midnightblue" d="M117.17,-62.49C145.08,-53.8 180.4,-42.79 209.84,-33.62"/>
<polygon fill="midnightblue" stroke="midnightblue" points="211.08,-36.9 219.58,-30.59 208.99,-30.22 211.08,-36.9"/>
</g>
<!-- Node3 -->
<g id="node3" class="node">
<title>Node3</title>
<g id="a_node3"><a xlink:href="../../d1/d8b/a00406.html#a35f93570ad411e97c375f01455bfb88f" target="_top" xlink:title=" ">
<polygon fill="none" stroke="black" points="402,-106 402,-125 589,-125 589,-106 402,-106"/>
<text text-anchor="middle" x="495.5" y="-113" font-family="Helvetica,sans-Serif" font-size="10.00">com.cliffc.aa.HM.HM.Worklist.push</text>
</a>
</g>
</g>
<!-- Node2&#45;&gt;Node3 -->
<g id="edge2" class="edge">
<title>Node2&#45;&gt;Node3</title>
<path fill="none" stroke="midnightblue" d="M366.19,-115.5C374.56,-115.5 383.06,-115.5 391.49,-115.5"/>
<polygon fill="midnightblue" stroke="midnightblue" points="391.72,-119 401.72,-115.5 391.72,-112 391.72,-119"/>
</g>
<!-- Node5 -->
<g id="node5" class="node">
<title>Node5</title>
<g id="a_node5"><a xlink:href="../../d6/d90/a00514.html#aad197ab7ed2491b2ca581a9e4d68fd35" target="_top" xlink:title=" ">
<polygon fill="none" stroke="black" points="411.5,-68 411.5,-87 579.5,-87 579.5,-68 411.5,-68"/>
<text text-anchor="middle" x="495.5" y="-75" font-family="Helvetica,sans-Serif" font-size="10.00">com.cliffc.aa.HM.HM.T2.is_leaf</text>
</a>
</g>
</g>
<!-- Node4&#45;&gt;Node5 -->
<g id="edge4" class="edge">
<title>Node4&#45;&gt;Node5</title>
<path fill="none" stroke="midnightblue" d="M350.73,-77.5C367.08,-77.5 384.39,-77.5 401.13,-77.5"/>
<polygon fill="midnightblue" stroke="midnightblue" points="401.46,-81 411.46,-77.5 401.46,-74 401.46,-81"/>
</g>
<!-- Node6 -->
<g id="node6" class="node">
<title>Node6</title>
<g id="a_node6"><a xlink:href="../../d6/d90/a00514.html#a270703fb8c3193ce4203a956fa7fb8c8" target="_top" xlink:title=" ">
<polygon fill="none" stroke="black" points="423.5,-18.5 423.5,-48.5 567.5,-48.5 567.5,-18.5 423.5,-18.5"/>
<text text-anchor="start" x="431.5" y="-36.5" font-family="Helvetica,sans-Serif" font-size="10.00">com.cliffc.aa.HM.HM.T2.is</text>
<text text-anchor="middle" x="495.5" y="-25.5" font-family="Helvetica,sans-Serif" font-size="10.00">_nilable</text>
</a>
</g>
</g>
<!-- Node4&#45;&gt;Node6 -->
<g id="edge5" class="edge">
<title>Node4&#45;&gt;Node6</title>
<path fill="none" stroke="midnightblue" d="M318.71,-67.95C346.29,-62.55 381.5,-55.65 413.15,-49.44"/>
<polygon fill="midnightblue" stroke="midnightblue" points="414.15,-52.81 423.29,-47.46 412.8,-45.95 414.15,-52.81"/>
</g>
<!-- Node7 -->
<g id="node7" class="node">
<title>Node7</title>
<g id="a_node7"><a xlink:href="../../d6/d90/a00514.html#a217cc5615d6b0620d9c6489b1a5b6e94" target="_top" xlink:title=" ">
<polygon fill="none" stroke="black" points="625,-24 625,-43 775,-43 775,-24 625,-24"/>
<text text-anchor="middle" x="700" y="-31" font-family="Helvetica,sans-Serif" font-size="10.00">com.cliffc.aa.HM.HM.T2.isa</text>
</a>
</g>
</g>
<!-- Node6&#45;&gt;Node7 -->
<g id="edge6" class="edge">
<title>Node6&#45;&gt;Node7</title>
<path fill="none" stroke="midnightblue" d="M567.61,-33.5C582.85,-33.5 599.09,-33.5 614.77,-33.5"/>
<polygon fill="midnightblue" stroke="midnightblue" points="614.97,-37 624.97,-33.5 614.97,-30 614.97,-37"/>
</g>
<!-- Node8 -->
<g id="node8" class="node">
<title>Node8</title>
<g id="a_node8"><a xlink:href="../../dd/d55/a01638.html#a3975ba7dca9fe2d6e4992b2b5558f882" target="_top" xlink:title=" ">
<polygon fill="none" stroke="black" points="811,-24 811,-43 944,-43 944,-24 811,-24"/>
<text text-anchor="middle" x="877.5" y="-31" font-family="Helvetica,sans-Serif" font-size="10.00">com.cliffc.aa.util.Util.eq</text>
</a>
</g>
</g>
<!-- Node7&#45;&gt;Node8 -->
<g id="edge7" class="edge">
<title>Node7&#45;&gt;Node8</title>
<path fill="none" stroke="midnightblue" d="M775.17,-33.5C783.62,-33.5 792.24,-33.5 800.71,-33.5"/>
<polygon fill="midnightblue" stroke="midnightblue" points="800.94,-37 810.94,-33.5 800.94,-30 800.94,-37"/>
</g>
<!-- Node9&#45;&gt;Node9 -->
<g id="edge9" class="edge">
<title>Node9&#45;&gt;Node9</title>
<path fill="none" stroke="midnightblue" d="M234.15,-30.66C225.74,-40.06 237.36,-49 269,-49 288.28,-49 300.13,-45.68 304.54,-40.96"/>
<polygon fill="midnightblue" stroke="midnightblue" points="308.01,-40.41 303.85,-30.66 301.02,-40.87 308.01,-40.41"/>
</g>
</g>
</svg>
        <g id="navigator" transform="translate(0 0)" fill="#404254">
                <rect fill="#f2f5e9" fill-opacity="0.5" stroke="#606060" stroke-width=".5" x="0" y="0" width="60" height="60"/>
                <use id="zoomplus" xlink:href="#zoomPlus" x="17" y="9" onmousedown="handleZoom(evt,'in')"/>
                <use id="zoomminus" xlink:href="#zoomMin" x="42" y="9" onmousedown="handleZoom(evt,'out')"/>
                <use id="reset" xlink:href="#resetDef" x="30" y="36" onmousedown="handleReset()"/>
                <g id="arrowUp" xlink:href="#dirArrow" transform="translate(30 24)" onmousedown="handlePan(0,-1)">
                  <use xlink:href="#rim" fill="#404040">
                        <set attributeName="fill" to="#808080" begin="arrowUp.mouseover" end="arrowUp.mouseout"/>
                  </use>
                  <path fill="none" stroke="white" stroke-width="1.5" d="M0,-3.0v7 M-2.5,-0.5L0,-3.0L2.5,-0.5"/>
                </g>
                <g id="arrowRight" xlink:href="#dirArrow" transform="rotate(90) translate(36 -43)" onmousedown="handlePan(1,0)">
                  <use xlink:href="#rim" fill="#404040">
                        <set attributeName="fill" to="#808080" begin="arrowRight.mouseover" end="arrowRight.mouseout"/>
                  </use>
                  <path fill="none" stroke="white" stroke-width="1.5" d="M0,-3.0v7 M-2.5,-0.5L0,-3.0L2.5,-0.5"/>
                </g>
                <g id="arrowDown" xlink:href="#dirArrow" transform="rotate(180) translate(-30 -48)" onmousedown="handlePan(0,1)">
                  <use xlink:href="#rim" fill="#404040">
                        <set attributeName="fill" to="#808080" begin="arrowDown.mouseover" end="arrowDown.mouseout"/>
                  </use>
                  <path fill="none" stroke="white" stroke-width="1.5" d="M0,-3.0v7 M-2.5,-0.5L0,-3.0L2.5,-0.5"/>
                </g>
                <g id="arrowLeft" xlink:href="#dirArrow" transform="rotate(270) translate(-36 17)" onmousedown="handlePan(-1,0)">
                  <use xlink:href="#rim" fill="#404040">
                        <set attributeName="fill" to="#808080" begin="arrowLeft.mouseover" end="arrowLeft.mouseout"/>
                  </use>
                  <path fill="none" stroke="white" stroke-width="1.5" d="M0,-3.0v7 M-2.5,-0.5L0,-3.0L2.5,-0.5"/>
                </g>
        </g>
        <svg viewBox="0 0 15 15" width="100%" height="30px" preserveAspectRatio="xMaxYMin meet">
         <g id="arrow_out" transform="scale(0.3 0.3)">
          <a xlink:href="a00514_a2a1280b0ae3ca91cfba7b1d775624ac8_cgraph_org.svg" target="_base">
           <rect id="button" ry="5" rx="5" y="6" x="6" height="38" width="38"
                fill="#f2f5e9" fill-opacity="0.5" stroke="#606060" stroke-width="1.0"/>
           <path id="arrow"
             d="M 11.500037,31.436501 C 11.940474,20.09759 22.043105,11.32322 32.158766,21.979434 L 37.068811,17.246167 C 37.068811,17.246167 37.088388,32 37.088388,32 L 22.160133,31.978069 C 22.160133,31.978069 26.997745,27.140456 26.997745,27.140456 C 18.528582,18.264221 13.291696,25.230495 11.500037,31.436501 z"
             style="fill:#404040;"/>
          </a>
         </g>
        </svg>
</svg>
