<?xml version="1.0" encoding="UTF-8" standalone="no"?>
<!DOCTYPE svg PUBLIC "-//W3C//DTD SVG 1.1//EN"
 "http://www.w3.org/Graphics/SVG/1.1/DTD/svg11.dtd">
<!-- Generated by graphviz version 2.43.0 (0)
 -->
<!-- Title: com.cliffc.aa.HM.HM.T2.debug_find Pages: 1 -->
<svg width="955pt" height="78pt"
 viewBox="0.00 0.00 955.00 77.50" xmlns="http://www.w3.org/2000/svg" xmlns:xlink="http://www.w3.org/1999/xlink">
<g id="graph0" class="graph" transform="scale(1 1) rotate(0) translate(4 73.5)">
<title>com.cliffc.aa.HM.HM.T2.debug_find</title>
<!-- Node1 -->
<g id="node1" class="node">
<title>Node1</title>
<g id="a_node1"><a xlink:title=" ">
<polygon fill="#bfbfbf" stroke="black" points="0,-31 0,-50 189,-50 189,-31 0,-31"/>
<text text-anchor="middle" x="94.5" y="-38" font-family="Helvetica,sans-Serif" font-size="10.00">com.cliffc.aa.HM.HM.T2.debug_find</text>
</a>
</g>
</g>
<!-- Node2 -->
<g id="node2" class="node">
<title>Node2</title>
<g id="a_node2"><a xlink:href="../../d6/d90/a00514.html#aad197ab7ed2491b2ca581a9e4d68fd35" target="_top" xlink:title=" ">
<polygon fill="none" stroke="black" points="424,-50 424,-69 592,-69 592,-50 424,-50"/>
<text text-anchor="middle" x="508" y="-57" font-family="Helvetica,sans-Serif" font-size="10.00">com.cliffc.aa.HM.HM.T2.is_leaf</text>
</a>
</g>
</g>
<!-- Node1&#45;&gt;Node2 -->
<g id="edge1" class="edge">
<title>Node1&#45;&gt;Node2</title>
<path fill="none" stroke="midnightblue" d="M189.13,-44.82C256.36,-47.93 346.57,-52.09 413.72,-55.19"/>
<polygon fill="midnightblue" stroke="midnightblue" points="413.72,-58.7 423.87,-55.66 414.04,-51.7 413.72,-58.7"/>
</g>
<!-- Node3 -->
<g id="node3" class="node">
<title>Node3</title>
<g id="a_node3"><a xlink:href="../../d6/d90/a00514.html#a5a583637713ecacb740ff662677191f7" target="_top" xlink:title=" ">
<polygon fill="none" stroke="black" points="225,-12 225,-31 388,-31 388,-12 225,-12"/>
<text text-anchor="middle" x="306.5" y="-19" font-family="Helvetica,sans-Serif" font-size="10.00">com.cliffc.aa.HM.HM.T2.no_uf</text>
</a>
</g>
</g>
<!-- Node1&#45;&gt;Node3 -->
<g id="edge2" class="edge">
<title>Node1&#45;&gt;Node3</title>
<path fill="none" stroke="midnightblue" d="M189.14,-32.03C197.61,-31.26 206.19,-30.49 214.64,-29.72"/>
<polygon fill="midnightblue" stroke="midnightblue" points="215.23,-33.18 224.87,-28.79 214.6,-26.21 215.23,-33.18"/>
</g>
<!-- Node3&#45;&gt;Node2 -->
<g id="edge3" class="edge">
<title>Node3&#45;&gt;Node2</title>
<path fill="none" stroke="midnightblue" d="M357.58,-31.04C384.74,-36.21 418.49,-42.64 447.03,-48.08"/>
<polygon fill="midnightblue" stroke="midnightblue" points="446.42,-51.52 456.89,-49.96 447.73,-44.65 446.42,-51.52"/>
</g>
<!-- Node4 -->
<g id="node4" class="node">
<title>Node4</title>
<g id="a_node4"><a xlink:href="../../d6/d90/a00514.html#a270703fb8c3193ce4203a956fa7fb8c8" target="_top" xlink:title=" ">
<polygon fill="none" stroke="black" points="436,-0.5 436,-30.5 580,-30.5 580,-0.5 436,-0.5"/>
<text text-anchor="start" x="444" y="-18.5" font-family="Helvetica,sans-Serif" font-size="10.00">com.cliffc.aa.HM.HM.T2.is</text>
<text text-anchor="middle" x="508" y="-7.5" font-family="Helvetica,sans-Serif" font-size="10.00">_nilable</text>
</a>
</g>
</g>
<!-- Node3&#45;&gt;Node4 -->
<g id="edge4" class="edge">
<title>Node3&#45;&gt;Node4</title>
<path fill="none" stroke="midnightblue" d="M388.07,-19.08C400.4,-18.71 413.15,-18.32 425.5,-17.95"/>
<polygon fill="midnightblue" stroke="midnightblue" points="425.88,-21.44 435.77,-17.64 425.67,-14.44 425.88,-21.44"/>
</g>
<!-- Node5 -->
<g id="node5" class="node">
<title>Node5</title>
<g id="a_node5"><a xlink:href="../../d6/d90/a00514.html#a217cc5615d6b0620d9c6489b1a5b6e94" target="_top" xlink:title=" ">
<polygon fill="none" stroke="black" points="628,-6 628,-25 778,-25 778,-6 628,-6"/>
<text text-anchor="middle" x="703" y="-13" font-family="Helvetica,sans-Serif" font-size="10.00">com.cliffc.aa.HM.HM.T2.isa</text>
</a>
</g>
</g>
<!-- Node4&#45;&gt;Node5 -->
<g id="edge5" class="edge">
<title>Node4&#45;&gt;Node5</title>
<path fill="none" stroke="midnightblue" d="M580.04,-15.5C592.34,-15.5 605.23,-15.5 617.84,-15.5"/>
<polygon fill="midnightblue" stroke="midnightblue" points="617.87,-19 627.87,-15.5 617.87,-12 617.87,-19"/>
</g>
<!-- Node6 -->
<g id="node6" class="node">
<title>Node6</title>
<g id="a_node6"><a xlink:href="../../dd/d55/a01638.html#a3975ba7dca9fe2d6e4992b2b5558f882" target="_top" xlink:title=" ">
<polygon fill="none" stroke="black" points="814,-6 814,-25 947,-25 947,-6 814,-6"/>
<text text-anchor="middle" x="880.5" y="-13" font-family="Helvetica,sans-Serif" font-size="10.00">com.cliffc.aa.util.Util.eq</text>
</a>
</g>
</g>
<!-- Node5&#45;&gt;Node6 -->
<g id="edge6" class="edge">
<title>Node5&#45;&gt;Node6</title>
<path fill="none" stroke="midnightblue" d="M778.17,-15.5C786.62,-15.5 795.24,-15.5 803.71,-15.5"/>
<polygon fill="midnightblue" stroke="midnightblue" points="803.94,-19 813.94,-15.5 803.94,-12 803.94,-19"/>
</g>
</g>
</svg>
