<?xml version="1.0" encoding="UTF-8" standalone="no"?>
<!DOCTYPE svg PUBLIC "-//W3C//DTD SVG 1.1//EN"
 "http://www.w3.org/Graphics/SVG/1.1/DTD/svg11.dtd">
<!-- Generated by graphviz version 2.43.0 (0)
 -->
<!-- Title: com.cliffc.aa.HM.HM.T2._occurs_in_type Pages: 1 -->
<!--zoomable 306 -->
<svg id="main" version="1.1" xmlns="http://www.w3.org/2000/svg" xmlns:xlink="http://www.w3.org/1999/xlink" xml:space="preserve" onload="init(evt)">
<style type="text/css"><![CDATA[
.edge:hover path { stroke: red; }
.edge:hover polygon { stroke: red; fill: red; }
]]></style>
<script type="text/javascript"><![CDATA[
var edges = document.getElementsByTagName('g');
if (edges && edges.length) {
  for (var i=0;i<edges.length;i++) {
    if (edges[i].id.substr(0,4)=='edge') {
      edges[i].setAttribute('class','edge');
    }
  }
}
]]></script>
        <defs>
                <circle id="rim" cx="0" cy="0" r="7"/>
                <circle id="rim2" cx="0" cy="0" r="3.5"/>
                <g id="zoomPlus">
                        <use xlink:href="#rim" fill="#404040">
                                <set attributeName="fill" to="#808080" begin="zoomplus.mouseover" end="zoomplus.mouseout"/>
                        </use>
                        <path d="M-4,0h8M0,-4v8" fill="none" stroke="white" stroke-width="1.5" pointer-events="none"/>
                </g>
                <g id="zoomMin">
                        <use xlink:href="#rim" fill="#404040">
                                <set attributeName="fill" to="#808080" begin="zoomminus.mouseover" end="zoomminus.mouseout"/>
                        </use>
                        <path d="M-4,0h8" fill="none" stroke="white" stroke-width="1.5" pointer-events="none"/>
                </g>
                <g id="dirArrow">
                        <path fill="none" stroke="white" stroke-width="1.5" d="M0,-3.0v7 M-2.5,-0.5L0,-3.0L2.5,-0.5"/>
                </g>
               <g id="resetDef">
                       <use xlink:href="#rim2" fill="#404040">
                               <set attributeName="fill" to="#808080" begin="reset.mouseover" end="reset.mouseout"/>
                       </use>
               </g>
        </defs>

<script type="text/javascript">
var viewWidth = 1690;
var viewHeight = 306;
var sectionId = 'dynsection-28';
</script>
<script xlink:href="../../svgpan.js"/>
<svg id="graph" class="graph">
<g id="viewport">
<title>com.cliffc.aa.HM.HM.T2._occurs_in_type</title>
<!-- Node1 -->
<g id="node1" class="node">
<title>Node1</title>
<g id="a_node1"><a xlink:title=" ">
<polygon fill="#bfbfbf" stroke="black" points="0,-150 0,-180 136,-180 136,-150 0,-150"/>
<text text-anchor="start" x="8" y="-168" font-family="Helvetica,sans-Serif" font-size="10.00">com.cliffc.aa.HM.HM.T2.</text>
<text text-anchor="middle" x="68" y="-157" font-family="Helvetica,sans-Serif" font-size="10.00">_occurs_in_type</text>
</a>
</g>
</g>
<!-- Node2 -->
<g id="node2" class="node">
<title>Node2</title>
<g id="a_node2"><a xlink:href="../../d6/d90/a00514.html#ac1fbc51b21d125add5626c3ff7b6c020" target="_top" xlink:title=" ">
<polygon fill="none" stroke="black" points="172.5,-136.5 172.5,-155.5 329.5,-155.5 329.5,-136.5 172.5,-136.5"/>
<text text-anchor="middle" x="251" y="-143.5" font-family="Helvetica,sans-Serif" font-size="10.00">com.cliffc.aa.HM.HM.T2.args</text>
</a>
</g>
</g>
<!-- Node1&#45;&gt;Node2 -->
<g id="edge1" class="edge">
<title>Node1&#45;&gt;Node2</title>
<path fill="none" stroke="midnightblue" d="M136.14,-157.95C144.6,-157.06 153.35,-156.15 162.07,-155.23"/>
<polygon fill="midnightblue" stroke="midnightblue" points="162.7,-158.68 172.28,-154.16 161.97,-151.72 162.7,-158.68"/>
</g>
<!-- Node6 -->
<g id="node6" class="node">
<title>Node6</title>
<g id="a_node6"><a xlink:href="../../d6/d90/a00514.html#aad197ab7ed2491b2ca581a9e4d68fd35" target="_top" xlink:title=" ">
<polygon fill="none" stroke="black" points="1155.5,-214.5 1155.5,-233.5 1323.5,-233.5 1323.5,-214.5 1155.5,-214.5"/>
<text text-anchor="middle" x="1239.5" y="-221.5" font-family="Helvetica,sans-Serif" font-size="10.00">com.cliffc.aa.HM.HM.T2.is_leaf</text>
</a>
</g>
</g>
<!-- Node1&#45;&gt;Node6 -->
<g id="edge23" class="edge">
<title>Node1&#45;&gt;Node6</title>
<path fill="none" stroke="midnightblue" d="M93.25,-180.26C151.17,-215.19 303.12,-298 442,-298 442,-298 442,-298 823.5,-298 962.25,-298 1123.09,-257.42 1197.21,-236.36"/>
<polygon fill="midnightblue" stroke="midnightblue" points="1198.44,-239.65 1207.08,-233.52 1196.5,-232.92 1198.44,-239.65"/>
</g>
<!-- Node7 -->
<g id="node7" class="node">
<title>Node7</title>
<g id="a_node7"><a xlink:href="../../d6/d90/a00514.html#a5a583637713ecacb740ff662677191f7" target="_top" xlink:title=" ">
<polygon fill="none" stroke="black" points="953,-174.5 953,-193.5 1116,-193.5 1116,-174.5 953,-174.5"/>
<text text-anchor="middle" x="1034.5" y="-181.5" font-family="Helvetica,sans-Serif" font-size="10.00">com.cliffc.aa.HM.HM.T2.no_uf</text>
</a>
</g>
</g>
<!-- Node1&#45;&gt;Node7 -->
<g id="edge24" class="edge">
<title>Node1&#45;&gt;Node7</title>
<path fill="none" stroke="midnightblue" d="M136.33,-170.5C210.99,-176.11 335.01,-184 442,-184 442,-184 442,-184 625,-184 734.27,-184 859.98,-184 942.76,-184"/>
<polygon fill="midnightblue" stroke="midnightblue" points="942.89,-187.5 952.89,-184 942.89,-180.5 942.89,-187.5"/>
</g>
<!-- Node16 -->
<g id="node16" class="node">
<title>Node16</title>
<g id="a_node16"><a xlink:href="../../df/dee/a01646.html#a88ad20daf92e92fe0e3925b23c4fecf0" target="_top" xlink:title=" ">
<polygon fill="none" stroke="black" points="172,-98.5 172,-117.5 330,-117.5 330,-98.5 172,-98.5"/>
<text text-anchor="middle" x="251" y="-105.5" font-family="Helvetica,sans-Serif" font-size="10.00">com.cliffc.aa.util.VBitSet.tset</text>
</a>
</g>
</g>
<!-- Node1&#45;&gt;Node16 -->
<g id="edge25" class="edge">
<title>Node1&#45;&gt;Node16</title>
<path fill="none" stroke="midnightblue" d="M106.8,-149.87C126.12,-142.44 150.12,-133.68 172,-127 180.05,-124.54 188.64,-122.19 197.07,-120.03"/>
<polygon fill="midnightblue" stroke="midnightblue" points="198,-123.4 206.85,-117.58 196.3,-116.61 198,-123.4"/>
</g>
<!-- Node3 -->
<g id="node3" class="node">
<title>Node3</title>
<g id="a_node3"><a xlink:href="../../d6/d90/a00514.html#a6724129a5ae96e24226c55f3058745af" target="_top" xlink:title=" ">
<polygon fill="none" stroke="black" points="366,-136.5 366,-155.5 520,-155.5 520,-136.5 366,-136.5"/>
<text text-anchor="middle" x="443" y="-143.5" font-family="Helvetica,sans-Serif" font-size="10.00">com.cliffc.aa.HM.HM.T2.find</text>
</a>
</g>
</g>
<!-- Node2&#45;&gt;Node3 -->
<g id="edge2" class="edge">
<title>Node2&#45;&gt;Node3</title>
<path fill="none" stroke="midnightblue" d="M329.55,-146C338.18,-146 347.01,-146 355.74,-146"/>
<polygon fill="midnightblue" stroke="midnightblue" points="355.92,-149.5 365.92,-146 355.92,-142.5 355.92,-149.5"/>
</g>
<!-- Node4 -->
<g id="node4" class="node">
<title>Node4</title>
<g id="a_node4"><a xlink:href="../../d6/d90/a00514.html#a0afe3ab0d204626b4beaf769188e6b7f" target="_top" xlink:title=" ">
<polygon fill="none" stroke="black" points="556,-213 556,-243 692,-243 692,-213 556,-213"/>
<text text-anchor="start" x="564" y="-231" font-family="Helvetica,sans-Serif" font-size="10.00">com.cliffc.aa.HM.HM.T2.</text>
<text text-anchor="middle" x="624" y="-220" font-family="Helvetica,sans-Serif" font-size="10.00">_find0</text>
</a>
</g>
</g>
<!-- Node3&#45;&gt;Node4 -->
<g id="edge3" class="edge">
<title>Node3&#45;&gt;Node4</title>
<path fill="none" stroke="midnightblue" d="M464.88,-155.57C493.16,-168.52 544.27,-191.93 580.73,-208.64"/>
<polygon fill="midnightblue" stroke="midnightblue" points="579.58,-211.96 590.12,-212.94 582.49,-205.59 579.58,-211.96"/>
</g>
<!-- Node8 -->
<g id="node8" class="node">
<title>Node8</title>
<g id="a_node8"><a xlink:href="../../d6/d90/a00514.html#a270703fb8c3193ce4203a956fa7fb8c8" target="_top" xlink:title=" ">
<polygon fill="none" stroke="black" points="1167.5,-165 1167.5,-195 1311.5,-195 1311.5,-165 1167.5,-165"/>
<text text-anchor="start" x="1175.5" y="-183" font-family="Helvetica,sans-Serif" font-size="10.00">com.cliffc.aa.HM.HM.T2.is</text>
<text text-anchor="middle" x="1239.5" y="-172" font-family="Helvetica,sans-Serif" font-size="10.00">_nilable</text>
</a>
</g>
</g>
<!-- Node3&#45;&gt;Node8 -->
<g id="edge22" class="edge">
<title>Node3&#45;&gt;Node8</title>
<path fill="none" stroke="midnightblue" d="M520.21,-145.84C644.94,-146.09 900.4,-148.79 1116,-165 1129.41,-166.01 1143.61,-167.42 1157.4,-168.99"/>
<polygon fill="midnightblue" stroke="midnightblue" points="1157.02,-172.47 1167.36,-170.15 1157.83,-165.51 1157.02,-172.47"/>
</g>
<!-- Node11 -->
<g id="node11" class="node">
<title>Node11</title>
<g id="a_node11"><a xlink:href="../../d6/d90/a00514.html#aa03cafcc01a601038d86c3a37d35951c" target="_top" xlink:title=" ">
<polygon fill="none" stroke="black" points="966.5,-84 966.5,-114 1102.5,-114 1102.5,-84 966.5,-84"/>
<text text-anchor="start" x="974.5" y="-102" font-family="Helvetica,sans-Serif" font-size="10.00">com.cliffc.aa.HM.HM.T2.</text>
<text text-anchor="middle" x="1034.5" y="-91" font-family="Helvetica,sans-Serif" font-size="10.00">_find_nil</text>
</a>
</g>
</g>
<!-- Node3&#45;&gt;Node11 -->
<g id="edge12" class="edge">
<title>Node3&#45;&gt;Node11</title>
<path fill="none" stroke="midnightblue" d="M515.33,-136.48C528.83,-134.85 542.83,-133.28 556,-132 696.85,-118.34 861.61,-108.25 956.14,-103.03"/>
<polygon fill="midnightblue" stroke="midnightblue" points="956.39,-106.52 966.19,-102.47 956.01,-99.53 956.39,-106.52"/>
</g>
<!-- Node5 -->
<g id="node5" class="node">
<title>Node5</title>
<g id="a_node5"><a xlink:href="../../d6/d90/a00514.html#a2be9e6df2e83d83f7e1a0198e7aeefcc" target="_top" xlink:title=" ">
<polygon fill="none" stroke="black" points="728,-212.5 728,-231.5 917,-231.5 917,-212.5 728,-212.5"/>
<text text-anchor="middle" x="822.5" y="-219.5" font-family="Helvetica,sans-Serif" font-size="10.00">com.cliffc.aa.HM.HM.T2.debug_find</text>
</a>
</g>
</g>
<!-- Node4&#45;&gt;Node5 -->
<g id="edge4" class="edge">
<title>Node4&#45;&gt;Node5</title>
<path fill="none" stroke="midnightblue" d="M692.07,-225.95C700.39,-225.7 709.03,-225.43 717.73,-225.17"/>
<polygon fill="midnightblue" stroke="midnightblue" points="718.06,-228.66 727.95,-224.86 717.85,-221.66 718.06,-228.66"/>
</g>
<!-- Node4&#45;&gt;Node6 -->
<g id="edge11" class="edge">
<title>Node4&#45;&gt;Node6</title>
<path fill="none" stroke="midnightblue" d="M692.2,-237.72C704.1,-239.08 716.4,-240.27 728,-241 900.11,-251.82 943.89,-247.84 1116,-237 1126.35,-236.35 1137.18,-235.48 1147.93,-234.49"/>
<polygon fill="midnightblue" stroke="midnightblue" points="1148.57,-237.95 1158.19,-233.52 1147.91,-230.98 1148.57,-237.95"/>
</g>
<!-- Node5&#45;&gt;Node6 -->
<g id="edge5" class="edge">
<title>Node5&#45;&gt;Node6</title>
<path fill="none" stroke="midnightblue" d="M917.15,-222.45C985.25,-222.78 1077.06,-223.22 1145.1,-223.55"/>
<polygon fill="midnightblue" stroke="midnightblue" points="1145.37,-227.05 1155.39,-223.6 1145.4,-220.05 1145.37,-227.05"/>
</g>
<!-- Node5&#45;&gt;Node7 -->
<g id="edge6" class="edge">
<title>Node5&#45;&gt;Node7</title>
<path fill="none" stroke="midnightblue" d="M876.22,-212.46C904.93,-207.27 940.64,-200.8 970.77,-195.35"/>
<polygon fill="midnightblue" stroke="midnightblue" points="971.54,-198.77 980.76,-193.54 970.29,-191.88 971.54,-198.77"/>
</g>
<!-- Node7&#45;&gt;Node6 -->
<g id="edge7" class="edge">
<title>Node7&#45;&gt;Node6</title>
<path fill="none" stroke="midnightblue" d="M1083.87,-193.53C1112.73,-199.22 1149.59,-206.48 1180.08,-212.49"/>
<polygon fill="midnightblue" stroke="midnightblue" points="1179.67,-215.97 1190.15,-214.47 1181.02,-209.11 1179.67,-215.97"/>
</g>
<!-- Node7&#45;&gt;Node8 -->
<g id="edge8" class="edge">
<title>Node7&#45;&gt;Node8</title>
<path fill="none" stroke="midnightblue" d="M1116.02,-182.41C1129.52,-182.15 1143.53,-181.87 1157.05,-181.6"/>
<polygon fill="midnightblue" stroke="midnightblue" points="1157.35,-185.1 1167.28,-181.4 1157.21,-178.1 1157.35,-185.1"/>
</g>
<!-- Node9 -->
<g id="node9" class="node">
<title>Node9</title>
<g id="a_node9"><a xlink:href="../../d6/d90/a00514.html#a217cc5615d6b0620d9c6489b1a5b6e94" target="_top" xlink:title=" ">
<polygon fill="none" stroke="black" points="1363,-88.5 1363,-107.5 1513,-107.5 1513,-88.5 1363,-88.5"/>
<text text-anchor="middle" x="1438" y="-95.5" font-family="Helvetica,sans-Serif" font-size="10.00">com.cliffc.aa.HM.HM.T2.isa</text>
</a>
</g>
</g>
<!-- Node8&#45;&gt;Node9 -->
<g id="edge9" class="edge">
<title>Node8&#45;&gt;Node9</title>
<path fill="none" stroke="midnightblue" d="M1298.73,-164.88C1308.28,-161.91 1318,-158.59 1327,-155 1357.28,-142.92 1390.26,-125.16 1412.14,-112.68"/>
<polygon fill="midnightblue" stroke="midnightblue" points="1414.16,-115.56 1421.07,-107.53 1410.66,-109.49 1414.16,-115.56"/>
</g>
<!-- Node10 -->
<g id="node10" class="node">
<title>Node10</title>
<g id="a_node10"><a xlink:href="../../dd/d55/a01638.html#a3975ba7dca9fe2d6e4992b2b5558f882" target="_top" xlink:title=" ">
<polygon fill="none" stroke="black" points="1549,-88.5 1549,-107.5 1682,-107.5 1682,-88.5 1549,-88.5"/>
<text text-anchor="middle" x="1615.5" y="-95.5" font-family="Helvetica,sans-Serif" font-size="10.00">com.cliffc.aa.util.Util.eq</text>
</a>
</g>
</g>
<!-- Node9&#45;&gt;Node10 -->
<g id="edge10" class="edge">
<title>Node9&#45;&gt;Node10</title>
<path fill="none" stroke="midnightblue" d="M1513.17,-98C1521.62,-98 1530.24,-98 1538.71,-98"/>
<polygon fill="midnightblue" stroke="midnightblue" points="1538.94,-101.5 1548.94,-98 1538.94,-94.5 1538.94,-101.5"/>
</g>
<!-- Node11&#45;&gt;Node2 -->
<g id="edge13" class="edge">
<title>Node11&#45;&gt;Node2</title>
<path fill="none" stroke="midnightblue" d="M966.43,-98.52C904.51,-98.35 810.02,-98.77 728,-102 566.85,-108.35 526.17,-108.17 366,-127 348.59,-129.05 329.79,-131.91 312.57,-134.79"/>
<polygon fill="midnightblue" stroke="midnightblue" points="311.91,-131.35 302.64,-136.49 313.09,-138.25 311.91,-131.35"/>
</g>
<!-- Node11&#45;&gt;Node6 -->
<g id="edge16" class="edge">
<title>Node11&#45;&gt;Node6</title>
<path fill="none" stroke="midnightblue" d="M1055.73,-114.21C1072.45,-127.1 1096.53,-146.4 1116,-165 1133.3,-181.52 1131.33,-192.97 1152,-205 1155.84,-207.24 1159.92,-209.21 1164.13,-210.95"/>
<polygon fill="midnightblue" stroke="midnightblue" points="1162.92,-214.24 1173.52,-214.4 1165.34,-207.67 1162.92,-214.24"/>
</g>
<!-- Node11&#45;&gt;Node8 -->
<g id="edge17" class="edge">
<title>Node11&#45;&gt;Node8</title>
<path fill="none" stroke="midnightblue" d="M1076.27,-114.06C1089.2,-119.27 1103.4,-125.46 1116,-132 1132.85,-140.75 1134.7,-147.17 1152,-155 1157.29,-157.39 1162.87,-159.62 1168.54,-161.68"/>
<polygon fill="midnightblue" stroke="midnightblue" points="1167.54,-165.03 1178.13,-164.98 1169.81,-158.41 1167.54,-165.03"/>
</g>
<!-- Node12 -->
<g id="node12" class="node">
<title>Node12</title>
<g id="a_node12"><a xlink:href="../../d6/d90/a00514.html#a41ec42213b59c2aa5fa3d08b29392987" target="_top" xlink:title=" ">
<polygon fill="none" stroke="black" points="1153,-88.5 1153,-107.5 1326,-107.5 1326,-88.5 1153,-88.5"/>
<text text-anchor="middle" x="1239.5" y="-95.5" font-family="Helvetica,sans-Serif" font-size="10.00">com.cliffc.aa.HM.HM.T2.is_base</text>
</a>
</g>
</g>
<!-- Node11&#45;&gt;Node12 -->
<g id="edge14" class="edge">
<title>Node11&#45;&gt;Node12</title>
<path fill="none" stroke="midnightblue" d="M1102.53,-98.67C1115.32,-98.61 1128.95,-98.54 1142.44,-98.47"/>
<polygon fill="midnightblue" stroke="midnightblue" points="1142.73,-101.97 1152.71,-98.42 1142.7,-94.97 1142.73,-101.97"/>
</g>
<!-- Node13 -->
<g id="node13" class="node">
<title>Node13</title>
<g id="a_node13"><a xlink:href="../../d6/d90/a00514.html#aeca37cb502364f8754a30e7d2ab69bea" target="_top" xlink:title=" ">
<polygon fill="none" stroke="black" points="1167.5,-39 1167.5,-69 1311.5,-69 1311.5,-39 1167.5,-39"/>
<text text-anchor="start" x="1175.5" y="-57" font-family="Helvetica,sans-Serif" font-size="10.00">com.cliffc.aa.HM.HM.T2.is</text>
<text text-anchor="middle" x="1239.5" y="-46" font-family="Helvetica,sans-Serif" font-size="10.00">_struct</text>
</a>
</g>
</g>
<!-- Node11&#45;&gt;Node13 -->
<g id="edge18" class="edge">
<title>Node11&#45;&gt;Node13</title>
<path fill="none" stroke="midnightblue" d="M1102.53,-84.14C1121.12,-80.02 1141.46,-75.51 1160.61,-71.27"/>
<polygon fill="midnightblue" stroke="midnightblue" points="1161.49,-74.66 1170.5,-69.07 1159.98,-67.82 1161.49,-74.66"/>
</g>
<!-- Node14 -->
<g id="node14" class="node">
<title>Node14</title>
<g id="a_node14"><a xlink:href="../../d4/d3c/a01418.html#a27354297967782a1dd7160b773ffbb3b" target="_top" xlink:title=" ">
<polygon fill="none" stroke="black" points="1154,-0.5 1154,-19.5 1325,-19.5 1325,-0.5 1154,-0.5"/>
<text text-anchor="middle" x="1239.5" y="-7.5" font-family="Helvetica,sans-Serif" font-size="10.00">com.cliffc.aa.type.Bits.meet_nil</text>
</a>
</g>
</g>
<!-- Node11&#45;&gt;Node14 -->
<g id="edge20" class="edge">
<title>Node11&#45;&gt;Node14</title>
<path fill="none" stroke="midnightblue" d="M1055.89,-83.92C1078.34,-68.01 1116.04,-43.3 1152,-29 1158.43,-26.44 1165.28,-24.2 1172.19,-22.23"/>
<polygon fill="midnightblue" stroke="midnightblue" points="1173.55,-25.49 1182.33,-19.55 1171.76,-18.72 1173.55,-25.49"/>
</g>
<!-- Node15 -->
<g id="node15" class="node">
<title>Node15</title>
<g id="a_node15"><a xlink:href="../../d0/de2/a01442.html#ad98969d0c8402d042a84def9adba12e6" target="_top" xlink:title=" ">
<polygon fill="none" stroke="black" points="1152,-126.5 1152,-145.5 1327,-145.5 1327,-126.5 1152,-126.5"/>
<text text-anchor="middle" x="1239.5" y="-133.5" font-family="Helvetica,sans-Serif" font-size="10.00">com.cliffc.aa.type.Type.meet_nil</text>
</a>
</g>
</g>
<!-- Node11&#45;&gt;Node15 -->
<g id="edge21" class="edge">
<title>Node11&#45;&gt;Node15</title>
<path fill="none" stroke="midnightblue" d="M1102.53,-111.22C1126.27,-115.55 1152.87,-120.39 1176.2,-124.65"/>
<polygon fill="midnightblue" stroke="midnightblue" points="1175.86,-128.14 1186.33,-126.49 1177.12,-121.25 1175.86,-128.14"/>
</g>
<!-- Node12&#45;&gt;Node9 -->
<g id="edge15" class="edge">
<title>Node12&#45;&gt;Node9</title>
<path fill="none" stroke="midnightblue" d="M1326.12,-98C1334.89,-98 1343.8,-98 1352.55,-98"/>
<polygon fill="midnightblue" stroke="midnightblue" points="1352.75,-101.5 1362.75,-98 1352.75,-94.5 1352.75,-101.5"/>
</g>
<!-- Node13&#45;&gt;Node9 -->
<g id="edge19" class="edge">
<title>Node13&#45;&gt;Node9</title>
<path fill="none" stroke="midnightblue" d="M1307.57,-69.02C1332.77,-74.66 1361.02,-80.99 1384.68,-86.28"/>
<polygon fill="midnightblue" stroke="midnightblue" points="1384,-89.72 1394.52,-88.49 1385.52,-82.89 1384,-89.72"/>
</g>
</g>
</svg>
        <g id="navigator" transform="translate(0 0)" fill="#404254">
                <rect fill="#f2f5e9" fill-opacity="0.5" stroke="#606060" stroke-width=".5" x="0" y="0" width="60" height="60"/>
                <use id="zoomplus" xlink:href="#zoomPlus" x="17" y="9" onmousedown="handleZoom(evt,'in')"/>
                <use id="zoomminus" xlink:href="#zoomMin" x="42" y="9" onmousedown="handleZoom(evt,'out')"/>
                <use id="reset" xlink:href="#resetDef" x="30" y="36" onmousedown="handleReset()"/>
                <g id="arrowUp" xlink:href="#dirArrow" transform="translate(30 24)" onmousedown="handlePan(0,-1)">
                  <use xlink:href="#rim" fill="#404040">
                        <set attributeName="fill" to="#808080" begin="arrowUp.mouseover" end="arrowUp.mouseout"/>
                  </use>
                  <path fill="none" stroke="white" stroke-width="1.5" d="M0,-3.0v7 M-2.5,-0.5L0,-3.0L2.5,-0.5"/>
                </g>
                <g id="arrowRight" xlink:href="#dirArrow" transform="rotate(90) translate(36 -43)" onmousedown="handlePan(1,0)">
                  <use xlink:href="#rim" fill="#404040">
                        <set attributeName="fill" to="#808080" begin="arrowRight.mouseover" end="arrowRight.mouseout"/>
                  </use>
                  <path fill="none" stroke="white" stroke-width="1.5" d="M0,-3.0v7 M-2.5,-0.5L0,-3.0L2.5,-0.5"/>
                </g>
                <g id="arrowDown" xlink:href="#dirArrow" transform="rotate(180) translate(-30 -48)" onmousedown="handlePan(0,1)">
                  <use xlink:href="#rim" fill="#404040">
                        <set attributeName="fill" to="#808080" begin="arrowDown.mouseover" end="arrowDown.mouseout"/>
                  </use>
                  <path fill="none" stroke="white" stroke-width="1.5" d="M0,-3.0v7 M-2.5,-0.5L0,-3.0L2.5,-0.5"/>
                </g>
                <g id="arrowLeft" xlink:href="#dirArrow" transform="rotate(270) translate(-36 17)" onmousedown="handlePan(-1,0)">
                  <use xlink:href="#rim" fill="#404040">
                        <set attributeName="fill" to="#808080" begin="arrowLeft.mouseover" end="arrowLeft.mouseout"/>
                  </use>
                  <path fill="none" stroke="white" stroke-width="1.5" d="M0,-3.0v7 M-2.5,-0.5L0,-3.0L2.5,-0.5"/>
                </g>
        </g>
        <svg viewBox="0 0 15 15" width="100%" height="30px" preserveAspectRatio="xMaxYMin meet">
         <g id="arrow_out" transform="scale(0.3 0.3)">
          <a xlink:href="a00514_a38dc4b8c71d2f9661233f48abd5ad67b_cgraph_org.svg" target="_base">
           <rect id="button" ry="5" rx="5" y="6" x="6" height="38" width="38"
                fill="#f2f5e9" fill-opacity="0.5" stroke="#606060" stroke-width="1.0"/>
           <path id="arrow"
             d="M 11.500037,31.436501 C 11.940474,20.09759 22.043105,11.32322 32.158766,21.979434 L 37.068811,17.246167 C 37.068811,17.246167 37.088388,32 37.088388,32 L 22.160133,31.978069 C 22.160133,31.978069 26.997745,27.140456 26.997745,27.140456 C 18.528582,18.264221 13.291696,25.230495 11.500037,31.436501 z"
             style="fill:#404040;"/>
          </a>
         </g>
        </svg>
</svg>
