<?xml version="1.0" encoding="UTF-8" standalone="no"?>
<!DOCTYPE svg PUBLIC "-//W3C//DTD SVG 1.1//EN"
 "http://www.w3.org/Graphics/SVG/1.1/DTD/svg11.dtd">
<!-- Generated by graphviz version 2.43.0 (0)
 -->
<!-- Title: com.cliffc.aa.HM.HM.T2.union Pages: 1 -->
<svg width="1830pt" height="660pt"
 viewBox="0.00 0.00 1830.00 659.71" xmlns="http://www.w3.org/2000/svg" xmlns:xlink="http://www.w3.org/1999/xlink">
<g id="graph0" class="graph" transform="scale(1 1) rotate(0) translate(4 655.71)">
<title>com.cliffc.aa.HM.HM.T2.union</title>
<!-- Node1 -->
<g id="node1" class="node">
<title>Node1</title>
<g id="a_node1"><a xlink:title=" ">
<polygon fill="#bfbfbf" stroke="black" points="0,-245.5 0,-264.5 163,-264.5 163,-245.5 0,-245.5"/>
<text text-anchor="middle" x="81.5" y="-252.5" font-family="Helvetica,sans-Serif" font-size="10.00">com.cliffc.aa.HM.HM.T2.union</text>
</a>
</g>
</g>
<!-- Node2 -->
<g id="node2" class="node">
<title>Node2</title>
<g id="a_node2"><a xlink:href="../../d6/d90/a00514.html#a2a1280b0ae3ca91cfba7b1d775624ac8" target="_top" xlink:title=" ">
<polygon fill="none" stroke="black" points="224.5,-540 224.5,-570 360.5,-570 360.5,-540 224.5,-540"/>
<text text-anchor="start" x="232.5" y="-558" font-family="Helvetica,sans-Serif" font-size="10.00">com.cliffc.aa.HM.HM.T2.</text>
<text text-anchor="middle" x="292.5" y="-547" font-family="Helvetica,sans-Serif" font-size="10.00">_union</text>
</a>
</g>
</g>
<!-- Node1&#45;&gt;Node2 -->
<g id="edge1" class="edge">
<title>Node1&#45;&gt;Node2</title>
<path fill="none" stroke="midnightblue" d="M84.31,-264.52C91.77,-301.28 123.33,-435.6 199,-512 208.73,-521.82 221.12,-529.65 233.65,-535.79"/>
<polygon fill="midnightblue" stroke="midnightblue" points="232.22,-538.98 242.77,-539.97 235.13,-532.62 232.22,-538.98"/>
</g>
<!-- Node5 -->
<g id="node5" class="node">
<title>Node5</title>
<g id="a_node5"><a xlink:href="../../d6/d90/a00514.html#a5a583637713ecacb740ff662677191f7" target="_top" xlink:title=" ">
<polygon fill="none" stroke="black" points="1100,-586.5 1100,-605.5 1263,-605.5 1263,-586.5 1100,-586.5"/>
<text text-anchor="middle" x="1181.5" y="-593.5" font-family="Helvetica,sans-Serif" font-size="10.00">com.cliffc.aa.HM.HM.T2.no_uf</text>
</a>
</g>
</g>
<!-- Node1&#45;&gt;Node5 -->
<g id="edge26" class="edge">
<title>Node1&#45;&gt;Node5</title>
<path fill="none" stroke="midnightblue" d="M82.76,-264.53C84.47,-308.27 97.68,-491.44 199,-580 308.15,-675.4 373.04,-648 518,-648 518,-648 518,-648 746.5,-648 888.08,-648 924.02,-643.25 1064,-622 1087.35,-618.46 1112.99,-612.92 1134.26,-607.86"/>
<polygon fill="midnightblue" stroke="midnightblue" points="1135.12,-611.25 1144.02,-605.5 1133.47,-604.45 1135.12,-611.25"/>
</g>
<!-- Node9 -->
<g id="node9" class="node">
<title>Node9</title>
<g id="a_node9"><a xlink:href="../../dd/d55/a01638.html#a3975ba7dca9fe2d6e4992b2b5558f882" target="_top" xlink:title=" ">
<polygon fill="none" stroke="black" points="1689,-399.5 1689,-418.5 1822,-418.5 1822,-399.5 1689,-399.5"/>
<text text-anchor="middle" x="1755.5" y="-406.5" font-family="Helvetica,sans-Serif" font-size="10.00">com.cliffc.aa.util.Util.eq</text>
</a>
</g>
</g>
<!-- Node1&#45;&gt;Node9 -->
<g id="edge12" class="edge">
<title>Node1&#45;&gt;Node9</title>
<path fill="none" stroke="midnightblue" d="M88.68,-264.56C104.07,-287.4 146.65,-344.95 199,-368 328.98,-425.24 375.97,-387 518,-387 518,-387 518,-387 1384,-387 1486.16,-387 1603.88,-395.44 1678.71,-401.86"/>
<polygon fill="midnightblue" stroke="midnightblue" points="1678.72,-405.38 1688.98,-402.75 1679.32,-398.4 1678.72,-405.38"/>
</g>
<!-- Node11 -->
<g id="node11" class="node">
<title>Node11</title>
<g id="a_node11"><a xlink:href="../../d6/d90/a00514.html#ac56ae9e373f7b53581266621c93c5f87" target="_top" xlink:title=" ">
<polygon fill="none" stroke="black" points="213,-328 213,-358 372,-358 372,-328 213,-328"/>
<text text-anchor="start" x="221" y="-346" font-family="Helvetica,sans-Serif" font-size="10.00">com.cliffc.aa.HM.HM.T2.base</text>
<text text-anchor="middle" x="292.5" y="-335" font-family="Helvetica,sans-Serif" font-size="10.00">_states</text>
</a>
</g>
</g>
<!-- Node1&#45;&gt;Node11 -->
<g id="edge11" class="edge">
<title>Node1&#45;&gt;Node11</title>
<path fill="none" stroke="midnightblue" d="M97.4,-264.53C119.05,-278.02 160.78,-302.74 199,-318 205.23,-320.49 211.79,-322.81 218.42,-324.96"/>
<polygon fill="midnightblue" stroke="midnightblue" points="217.57,-328.36 228.16,-327.98 219.65,-321.68 217.57,-328.36"/>
</g>
<!-- Node12 -->
<g id="node12" class="node">
<title>Node12</title>
<g id="a_node12"><a xlink:href="../../d0/de2/a01442.html#ad4b6fe2d948ba739fd3d5e0feac103e6" target="_top" xlink:title=" ">
<polygon fill="none" stroke="black" points="219.5,-289.5 219.5,-308.5 365.5,-308.5 365.5,-289.5 219.5,-289.5"/>
<text text-anchor="middle" x="292.5" y="-296.5" font-family="Helvetica,sans-Serif" font-size="10.00">com.cliffc.aa.type.Type.isa</text>
</a>
</g>
</g>
<!-- Node1&#45;&gt;Node12 -->
<g id="edge13" class="edge">
<title>Node1&#45;&gt;Node12</title>
<path fill="none" stroke="midnightblue" d="M126.46,-264.53C148.27,-269.23 175.01,-274.96 199,-280 210.42,-282.4 222.63,-284.93 234.32,-287.34"/>
<polygon fill="midnightblue" stroke="midnightblue" points="233.93,-290.83 244.43,-289.41 235.34,-283.97 233.93,-290.83"/>
</g>
<!-- Node13 -->
<g id="node13" class="node">
<title>Node13</title>
<g id="a_node13"><a xlink:href="../../d6/d90/a00514.html#a602e963cc5ffbef10d76bdabd0a6fd02" target="_top" xlink:title=" ">
<polygon fill="none" stroke="black" points="212,-240 212,-270 373,-270 373,-240 212,-240"/>
<text text-anchor="start" x="220" y="-258" font-family="Helvetica,sans-Serif" font-size="10.00">com.cliffc.aa.HM.HM.T2.meet</text>
<text text-anchor="middle" x="292.5" y="-247" font-family="Helvetica,sans-Serif" font-size="10.00">_alias</text>
</a>
</g>
</g>
<!-- Node1&#45;&gt;Node13 -->
<g id="edge14" class="edge">
<title>Node1&#45;&gt;Node13</title>
<path fill="none" stroke="midnightblue" d="M163.01,-255C175.62,-255 188.72,-255 201.53,-255"/>
<polygon fill="midnightblue" stroke="midnightblue" points="201.72,-258.5 211.72,-255 201.72,-251.5 201.72,-258.5"/>
</g>
<!-- Node15 -->
<g id="node15" class="node">
<title>Node15</title>
<g id="a_node15"><a xlink:href="../../d6/d90/a00514.html#a9b4324a51bee55eb287c780b2f4fde36" target="_top" xlink:title=" ">
<polygon fill="none" stroke="black" points="202.5,-152.5 202.5,-171.5 382.5,-171.5 382.5,-152.5 202.5,-152.5"/>
<text text-anchor="middle" x="292.5" y="-159.5" font-family="Helvetica,sans-Serif" font-size="10.00">com.cliffc.aa.HM.HM.T2.meet_err</text>
</a>
</g>
</g>
<!-- Node1&#45;&gt;Node15 -->
<g id="edge16" class="edge">
<title>Node1&#45;&gt;Node15</title>
<path fill="none" stroke="midnightblue" d="M94.64,-245.36C115.01,-229.68 157.88,-198.73 199,-182 206.47,-178.96 214.47,-176.36 222.52,-174.12"/>
<polygon fill="midnightblue" stroke="midnightblue" points="223.54,-177.48 232.35,-171.59 221.79,-170.7 223.54,-177.48"/>
</g>
<!-- Node16 -->
<g id="node16" class="node">
<title>Node16</title>
<g id="a_node16"><a xlink:href="../../d6/d90/a00514.html#aa0820f0a26774bca0579bcc95eb40ae0" target="_top" xlink:title=" ">
<polygon fill="none" stroke="black" points="212,-191 212,-221 373,-221 373,-191 212,-191"/>
<text text-anchor="start" x="220" y="-209" font-family="Helvetica,sans-Serif" font-size="10.00">com.cliffc.aa.HM.HM.T2.meet</text>
<text text-anchor="middle" x="292.5" y="-198" font-family="Helvetica,sans-Serif" font-size="10.00">_fidxs</text>
</a>
</g>
</g>
<!-- Node1&#45;&gt;Node16 -->
<g id="edge17" class="edge">
<title>Node1&#45;&gt;Node16</title>
<path fill="none" stroke="midnightblue" d="M123.29,-245.44C149.98,-239.18 185.64,-230.82 217.26,-223.41"/>
<polygon fill="midnightblue" stroke="midnightblue" points="218.43,-226.73 227.36,-221.04 216.83,-219.91 218.43,-226.73"/>
</g>
<!-- Node17 -->
<g id="node17" class="node">
<title>Node17</title>
<g id="a_node17"><a xlink:href="../../d6/d90/a00514.html#ac07b55868cc57e576c42cc76d18d5a82" target="_top" xlink:title=" ">
<polygon fill="none" stroke="black" points="199,-114.5 199,-133.5 386,-133.5 386,-114.5 199,-114.5"/>
<text text-anchor="middle" x="292.5" y="-121.5" font-family="Helvetica,sans-Serif" font-size="10.00">com.cliffc.aa.HM.HM.T2.meet_flow</text>
</a>
</g>
</g>
<!-- Node1&#45;&gt;Node17 -->
<g id="edge19" class="edge">
<title>Node1&#45;&gt;Node17</title>
<path fill="none" stroke="midnightblue" d="M89.41,-245.35C105.73,-223.32 149.09,-169.25 199,-143 203.51,-140.63 208.29,-138.55 213.2,-136.74"/>
<polygon fill="midnightblue" stroke="midnightblue" points="214.4,-140.03 222.79,-133.55 212.19,-133.38 214.4,-140.03"/>
</g>
<!-- Node19 -->
<g id="node19" class="node">
<title>Node19</title>
<g id="a_node19"><a xlink:href="../../d6/d90/a00514.html#ab7144f08d6cd3c40a8c2c5ecce1c8d1a" target="_top" xlink:title=" ">
<polygon fill="none" stroke="black" points="202,-76.5 202,-95.5 383,-95.5 383,-76.5 202,-76.5"/>
<text text-anchor="middle" x="292.5" y="-83.5" font-family="Helvetica,sans-Serif" font-size="10.00">com.cliffc.aa.HM.HM.T2.meet_ids</text>
</a>
</g>
</g>
<!-- Node1&#45;&gt;Node19 -->
<g id="edge21" class="edge">
<title>Node1&#45;&gt;Node19</title>
<path fill="none" stroke="midnightblue" d="M86.92,-245.37C99.86,-218.34 140.48,-141.4 199,-105 202.43,-102.87 206.05,-100.97 209.8,-99.28"/>
<polygon fill="midnightblue" stroke="midnightblue" points="211.33,-102.44 219.34,-95.5 208.75,-95.93 211.33,-102.44"/>
</g>
<!-- Node21 -->
<g id="node21" class="node">
<title>Node21</title>
<g id="a_node21"><a xlink:href="../../d6/d90/a00514.html#aae1089a46464d7abdf24741efbccd343" target="_top" xlink:title=" ">
<polygon fill="none" stroke="black" points="212,-416 212,-446 373,-446 373,-416 212,-416"/>
<text text-anchor="start" x="220" y="-434" font-family="Helvetica,sans-Serif" font-size="10.00">com.cliffc.aa.HM.HM.T2.meet</text>
<text text-anchor="middle" x="292.5" y="-423" font-family="Helvetica,sans-Serif" font-size="10.00">_opens</text>
</a>
</g>
</g>
<!-- Node1&#45;&gt;Node21 -->
<g id="edge23" class="edge">
<title>Node1&#45;&gt;Node21</title>
<path fill="none" stroke="midnightblue" d="M87.6,-264.8C101.7,-290.92 143.81,-362.8 199,-401 205.01,-405.16 211.64,-408.77 218.5,-411.9"/>
<polygon fill="midnightblue" stroke="midnightblue" points="217.39,-415.23 227.96,-415.88 220.1,-408.78 217.39,-415.23"/>
</g>
<!-- Node23 -->
<g id="node23" class="node">
<title>Node23</title>
<g id="a_node23"><a xlink:href="../../d6/d90/a00514.html#a33321140673d9c31ce5734664bf2fbce" target="_top" xlink:title=" ">
<polygon fill="none" stroke="black" points="221.5,-465.5 221.5,-484.5 363.5,-484.5 363.5,-465.5 221.5,-465.5"/>
<text text-anchor="middle" x="292.5" y="-472.5" font-family="Helvetica,sans-Serif" font-size="10.00">com.cliffc.aa.HM.HM.T2.p</text>
</a>
</g>
</g>
<!-- Node1&#45;&gt;Node23 -->
<g id="edge27" class="edge">
<title>Node1&#45;&gt;Node23</title>
<path fill="none" stroke="midnightblue" d="M85.09,-264.92C94.29,-298 128.63,-405.33 199,-456 202.95,-458.84 207.23,-461.28 211.7,-463.38"/>
<polygon fill="midnightblue" stroke="midnightblue" points="210.55,-466.68 221.13,-467.2 213.18,-460.2 210.55,-466.68"/>
</g>
<!-- Node28 -->
<g id="node28" class="node">
<title>Node28</title>
<g id="a_node28"><a xlink:href="../../d6/d90/a00514.html#aeaadcc0305839239fe28d4111e399757" target="_top" xlink:title=" ">
<polygon fill="none" stroke="black" points="201.5,-38.5 201.5,-57.5 383.5,-57.5 383.5,-38.5 201.5,-38.5"/>
<text text-anchor="middle" x="292.5" y="-45.5" font-family="Helvetica,sans-Serif" font-size="10.00">com.cliffc.aa.HM.HM.T2.union_err</text>
</a>
</g>
</g>
<!-- Node1&#45;&gt;Node28 -->
<g id="edge35" class="edge">
<title>Node1&#45;&gt;Node28</title>
<path fill="none" stroke="midnightblue" d="M84.42,-245.38C92.49,-213.63 126.31,-114.92 193.14,-62.51"/>
<polygon fill="midnightblue" stroke="midnightblue" points="195.5,-65.12 201.46,-56.36 191.34,-59.49 195.5,-65.12"/>
</g>
<!-- Node31 -->
<g id="node31" class="node">
<title>Node31</title>
<g id="a_node31"><a xlink:href="../../d0/de2/a01442.html#a15968efc921b38c6710053767a1e35dc" target="_top" xlink:title=" ">
<polygon fill="none" stroke="black" points="212,-0.5 212,-19.5 373,-19.5 373,-0.5 212,-0.5"/>
<text text-anchor="middle" x="292.5" y="-7.5" font-family="Helvetica,sans-Serif" font-size="10.00">com.cliffc.aa.type.Type.widen</text>
</a>
</g>
</g>
<!-- Node1&#45;&gt;Node31 -->
<g id="edge39" class="edge">
<title>Node1&#45;&gt;Node31</title>
<path fill="none" stroke="midnightblue" d="M84.37,-245.38C91.75,-210.15 122.32,-87.14 199,-29 201.33,-27.24 203.78,-25.62 206.32,-24.15"/>
<polygon fill="midnightblue" stroke="midnightblue" points="207.92,-27.27 215.31,-19.68 204.8,-21.01 207.92,-27.27"/>
</g>
<!-- Node3 -->
<g id="node3" class="node">
<title>Node3</title>
<g id="a_node3"><a xlink:href="../../d1/d8b/a00406.html#ae2c852edd2d329ae8170203ee54ce011" target="_top" xlink:title=" ">
<polygon fill="none" stroke="black" points="422,-562.5 422,-581.5 616,-581.5 616,-562.5 422,-562.5"/>
<text text-anchor="middle" x="519" y="-569.5" font-family="Helvetica,sans-Serif" font-size="10.00">com.cliffc.aa.HM.HM.Worklist.addAll</text>
</a>
</g>
</g>
<!-- Node2&#45;&gt;Node3 -->
<g id="edge2" class="edge">
<title>Node2&#45;&gt;Node3</title>
<path fill="none" stroke="midnightblue" d="M360.55,-560.08C376.65,-561.3 394.23,-562.63 411.62,-563.94"/>
<polygon fill="midnightblue" stroke="midnightblue" points="411.59,-567.45 421.83,-564.72 412.12,-560.47 411.59,-567.45"/>
</g>
<!-- Node2&#45;&gt;Node5 -->
<g id="edge4" class="edge">
<title>Node2&#45;&gt;Node5</title>
<path fill="none" stroke="midnightblue" d="M336.31,-570.09C361.01,-578.01 392.86,-586.9 422,-591 661.25,-624.68 947.16,-612.65 1089.96,-603.13"/>
<polygon fill="midnightblue" stroke="midnightblue" points="1090.25,-606.62 1099.99,-602.45 1089.78,-599.64 1090.25,-606.62"/>
</g>
<!-- Node10 -->
<g id="node10" class="node">
<title>Node10</title>
<g id="a_node10"><a xlink:href="../../d6/d90/a00514.html#a558f64d002aa8064e41dab1d9d8875e7" target="_top" xlink:title=" ">
<polygon fill="none" stroke="black" points="439.5,-495 439.5,-525 598.5,-525 598.5,-495 439.5,-495"/>
<text text-anchor="start" x="447.5" y="-513" font-family="Helvetica,sans-Serif" font-size="10.00">com.cliffc.aa.HM.HM.T2.push</text>
<text text-anchor="middle" x="519" y="-502" font-family="Helvetica,sans-Serif" font-size="10.00">_update</text>
</a>
</g>
</g>
<!-- Node2&#45;&gt;Node10 -->
<g id="edge9" class="edge">
<title>Node2&#45;&gt;Node10</title>
<path fill="none" stroke="midnightblue" d="M360.55,-541.56C383.38,-536.98 409.2,-531.81 433.23,-526.99"/>
<polygon fill="midnightblue" stroke="midnightblue" points="433.93,-530.42 443.04,-525.02 432.55,-523.56 433.93,-530.42"/>
</g>
<!-- Node4 -->
<g id="node4" class="node">
<title>Node4</title>
<g id="a_node4"><a xlink:href="../../d1/d8b/a00406.html#a35f93570ad411e97c375f01455bfb88f" target="_top" xlink:title=" ">
<polygon fill="none" stroke="black" points="652,-562.5 652,-581.5 839,-581.5 839,-562.5 652,-562.5"/>
<text text-anchor="middle" x="745.5" y="-569.5" font-family="Helvetica,sans-Serif" font-size="10.00">com.cliffc.aa.HM.HM.Worklist.push</text>
</a>
</g>
</g>
<!-- Node3&#45;&gt;Node4 -->
<g id="edge3" class="edge">
<title>Node3&#45;&gt;Node4</title>
<path fill="none" stroke="midnightblue" d="M616.19,-572C624.56,-572 633.06,-572 641.49,-572"/>
<polygon fill="midnightblue" stroke="midnightblue" points="641.72,-575.5 651.72,-572 641.72,-568.5 641.72,-575.5"/>
</g>
<!-- Node6 -->
<g id="node6" class="node">
<title>Node6</title>
<g id="a_node6"><a xlink:href="../../d6/d90/a00514.html#aad197ab7ed2491b2ca581a9e4d68fd35" target="_top" xlink:title=" ">
<polygon fill="none" stroke="black" points="1299,-542.5 1299,-561.5 1467,-561.5 1467,-542.5 1299,-542.5"/>
<text text-anchor="middle" x="1383" y="-549.5" font-family="Helvetica,sans-Serif" font-size="10.00">com.cliffc.aa.HM.HM.T2.is_leaf</text>
</a>
</g>
</g>
<!-- Node5&#45;&gt;Node6 -->
<g id="edge5" class="edge">
<title>Node5&#45;&gt;Node6</title>
<path fill="none" stroke="midnightblue" d="M1225.79,-586.45C1255.98,-579.79 1296.47,-570.86 1328.66,-563.76"/>
<polygon fill="midnightblue" stroke="midnightblue" points="1329.78,-567.1 1338.8,-561.53 1328.28,-560.26 1329.78,-567.1"/>
</g>
<!-- Node7 -->
<g id="node7" class="node">
<title>Node7</title>
<g id="a_node7"><a xlink:href="../../d6/d90/a00514.html#a270703fb8c3193ce4203a956fa7fb8c8" target="_top" xlink:title=" ">
<polygon fill="none" stroke="black" points="1311,-581 1311,-611 1455,-611 1455,-581 1311,-581"/>
<text text-anchor="start" x="1319" y="-599" font-family="Helvetica,sans-Serif" font-size="10.00">com.cliffc.aa.HM.HM.T2.is</text>
<text text-anchor="middle" x="1383" y="-588" font-family="Helvetica,sans-Serif" font-size="10.00">_nilable</text>
</a>
</g>
</g>
<!-- Node5&#45;&gt;Node7 -->
<g id="edge6" class="edge">
<title>Node5&#45;&gt;Node7</title>
<path fill="none" stroke="midnightblue" d="M1263.07,-596C1275.4,-596 1288.15,-596 1300.5,-596"/>
<polygon fill="midnightblue" stroke="midnightblue" points="1300.77,-599.5 1310.77,-596 1300.77,-592.5 1300.77,-599.5"/>
</g>
<!-- Node8 -->
<g id="node8" class="node">
<title>Node8</title>
<g id="a_node8"><a xlink:href="../../d6/d90/a00514.html#a217cc5615d6b0620d9c6489b1a5b6e94" target="_top" xlink:title=" ">
<polygon fill="none" stroke="black" points="1503,-421.5 1503,-440.5 1653,-440.5 1653,-421.5 1503,-421.5"/>
<text text-anchor="middle" x="1578" y="-428.5" font-family="Helvetica,sans-Serif" font-size="10.00">com.cliffc.aa.HM.HM.T2.isa</text>
</a>
</g>
</g>
<!-- Node7&#45;&gt;Node8 -->
<g id="edge7" class="edge">
<title>Node7&#45;&gt;Node8</title>
<path fill="none" stroke="midnightblue" d="M1448.81,-580.82C1455.21,-578.06 1461.41,-574.82 1467,-571 1514.26,-538.76 1550.68,-479.96 1567.23,-449.86"/>
<polygon fill="midnightblue" stroke="midnightblue" points="1570.43,-451.3 1572.07,-440.83 1564.26,-447.99 1570.43,-451.3"/>
</g>
<!-- Node8&#45;&gt;Node9 -->
<g id="edge8" class="edge">
<title>Node8&#45;&gt;Node9</title>
<path fill="none" stroke="midnightblue" d="M1653.17,-421.7C1661.71,-420.63 1670.43,-419.54 1678.98,-418.47"/>
<polygon fill="midnightblue" stroke="midnightblue" points="1679.45,-421.94 1688.94,-417.22 1678.58,-414.99 1679.45,-421.94"/>
</g>
<!-- Node10&#45;&gt;Node10 -->
<g id="edge10" class="edge">
<title>Node10&#45;&gt;Node10</title>
<path fill="none" stroke="midnightblue" d="M479.61,-525.16C470.12,-534.56 483.25,-543.5 519,-543.5 540.79,-543.5 554.17,-540.18 559.16,-535.46"/>
<polygon fill="midnightblue" stroke="midnightblue" points="562.62,-534.87 558.39,-525.16 555.64,-535.39 562.62,-534.87"/>
</g>
<!-- Node14 -->
<g id="node14" class="node">
<title>Node14</title>
<g id="a_node14"><a xlink:href="../../d4/d3c/a01418.html#adf13a2e038fefa42a481fc7417d31a4b" target="_top" xlink:title=" ">
<polygon fill="none" stroke="black" points="442,-220.5 442,-239.5 596,-239.5 596,-220.5 442,-220.5"/>
<text text-anchor="middle" x="519" y="-227.5" font-family="Helvetica,sans-Serif" font-size="10.00">com.cliffc.aa.type.Bits.meet</text>
</a>
</g>
</g>
<!-- Node13&#45;&gt;Node14 -->
<g id="edge15" class="edge">
<title>Node13&#45;&gt;Node14</title>
<path fill="none" stroke="midnightblue" d="M373.28,-246.12C392.28,-244 412.63,-241.73 431.9,-239.59"/>
<polygon fill="midnightblue" stroke="midnightblue" points="432.31,-243.06 441.86,-238.48 431.53,-236.11 432.31,-243.06"/>
</g>
<!-- Node16&#45;&gt;Node14 -->
<g id="edge18" class="edge">
<title>Node16&#45;&gt;Node14</title>
<path fill="none" stroke="midnightblue" d="M373.28,-214.53C392.28,-216.56 412.63,-218.74 431.9,-220.8"/>
<polygon fill="midnightblue" stroke="midnightblue" points="431.54,-224.28 441.86,-221.86 432.29,-217.32 431.54,-224.28"/>
</g>
<!-- Node18 -->
<g id="node18" class="node">
<title>Node18</title>
<g id="a_node18"><a xlink:href="../../d0/de2/a01442.html#a086b90d9d651ac00b80a9b5caa60eb09" target="_top" xlink:title=" ">
<polygon fill="none" stroke="black" points="440,-114.5 440,-133.5 598,-133.5 598,-114.5 440,-114.5"/>
<text text-anchor="middle" x="519" y="-121.5" font-family="Helvetica,sans-Serif" font-size="10.00">com.cliffc.aa.type.Type.meet</text>
</a>
</g>
</g>
<!-- Node17&#45;&gt;Node18 -->
<g id="edge20" class="edge">
<title>Node17&#45;&gt;Node18</title>
<path fill="none" stroke="midnightblue" d="M386.11,-124C400.49,-124 415.32,-124 429.61,-124"/>
<polygon fill="midnightblue" stroke="midnightblue" points="429.9,-127.5 439.9,-124 429.9,-120.5 429.9,-127.5"/>
</g>
<!-- Node20 -->
<g id="node20" class="node">
<title>Node20</title>
<g id="a_node20"><a xlink:href="../../dd/d55/a01638.html#abb7b6e1b78b0932ca33088581f5f45c8" target="_top" xlink:title=" ">
<polygon fill="none" stroke="black" points="449.5,-76.5 449.5,-95.5 588.5,-95.5 588.5,-76.5 449.5,-76.5"/>
<text text-anchor="middle" x="519" y="-83.5" font-family="Helvetica,sans-Serif" font-size="10.00">com.cliffc.aa.util.Util.find</text>
</a>
</g>
</g>
<!-- Node19&#45;&gt;Node20 -->
<g id="edge22" class="edge">
<title>Node19&#45;&gt;Node20</title>
<path fill="none" stroke="midnightblue" d="M383.2,-86C401.66,-86 420.97,-86 439.02,-86"/>
<polygon fill="midnightblue" stroke="midnightblue" points="439.2,-89.5 449.2,-86 439.2,-82.5 439.2,-89.5"/>
</g>
<!-- Node22 -->
<g id="node22" class="node">
<title>Node22</title>
<g id="a_node22"><a xlink:href="../../d6/d90/a00514.html#aeca37cb502364f8754a30e7d2ab69bea" target="_top" xlink:title=" ">
<polygon fill="none" stroke="black" points="1109.5,-416 1109.5,-446 1253.5,-446 1253.5,-416 1109.5,-416"/>
<text text-anchor="start" x="1117.5" y="-434" font-family="Helvetica,sans-Serif" font-size="10.00">com.cliffc.aa.HM.HM.T2.is</text>
<text text-anchor="middle" x="1181.5" y="-423" font-family="Helvetica,sans-Serif" font-size="10.00">_struct</text>
</a>
</g>
</g>
<!-- Node21&#45;&gt;Node22 -->
<g id="edge24" class="edge">
<title>Node21&#45;&gt;Node22</title>
<path fill="none" stroke="midnightblue" d="M373.39,-431C541.46,-431 930.03,-431 1099.27,-431"/>
<polygon fill="midnightblue" stroke="midnightblue" points="1099.36,-434.5 1109.36,-431 1099.36,-427.5 1099.36,-434.5"/>
</g>
<!-- Node22&#45;&gt;Node8 -->
<g id="edge25" class="edge">
<title>Node22&#45;&gt;Node8</title>
<path fill="none" stroke="midnightblue" d="M1253.94,-431C1321.03,-431 1421.44,-431 1492.48,-431"/>
<polygon fill="midnightblue" stroke="midnightblue" points="1492.74,-434.5 1502.74,-431 1492.74,-427.5 1492.74,-434.5"/>
</g>
<!-- Node23&#45;&gt;Node23 -->
<g id="edge34" class="edge">
<title>Node23&#45;&gt;Node23</title>
<path fill="none" stroke="midnightblue" d="M260.39,-484.61C244.27,-493.46 254.97,-503 292.5,-503 320.06,-503 333.15,-497.86 331.78,-491.62"/>
<polygon fill="midnightblue" stroke="midnightblue" points="334.2,-489.1 324.61,-484.61 329.31,-494.1 334.2,-489.1"/>
</g>
<!-- Node24 -->
<g id="node24" class="node">
<title>Node24</title>
<g id="a_node24"><a xlink:href="../../d6/d90/a00514.html#ac842012afa3234a1ae1f49fea4c87445" target="_top" xlink:title=" ">
<polygon fill="none" stroke="black" points="429,-456.5 429,-475.5 609,-475.5 609,-456.5 429,-456.5"/>
<text text-anchor="middle" x="519" y="-463.5" font-family="Helvetica,sans-Serif" font-size="10.00">com.cliffc.aa.HM.HM.T2.get_dups</text>
</a>
</g>
</g>
<!-- Node23&#45;&gt;Node24 -->
<g id="edge28" class="edge">
<title>Node23&#45;&gt;Node24</title>
<path fill="none" stroke="midnightblue" d="M363.61,-472.19C380.98,-471.49 399.92,-470.73 418.4,-469.99"/>
<polygon fill="midnightblue" stroke="midnightblue" points="418.75,-473.48 428.61,-469.58 418.47,-466.49 418.75,-473.48"/>
</g>
<!-- Node25 -->
<g id="node25" class="node">
<title>Node25</title>
<g id="a_node25"><a xlink:href="../../d6/d90/a00514.html#a228c541751d299f5aa437bfea3bd27ac" target="_top" xlink:title=" ">
<polygon fill="none" stroke="black" points="677.5,-485 677.5,-515 813.5,-515 813.5,-485 677.5,-485"/>
<text text-anchor="start" x="685.5" y="-503" font-family="Helvetica,sans-Serif" font-size="10.00">com.cliffc.aa.HM.HM.T2.</text>
<text text-anchor="middle" x="745.5" y="-492" font-family="Helvetica,sans-Serif" font-size="10.00">_get_dups</text>
</a>
</g>
</g>
<!-- Node24&#45;&gt;Node25 -->
<g id="edge29" class="edge">
<title>Node24&#45;&gt;Node25</title>
<path fill="none" stroke="midnightblue" d="M582.83,-475.52C609.06,-479.49 639.78,-484.14 667.36,-488.32"/>
<polygon fill="midnightblue" stroke="midnightblue" points="666.95,-491.8 677.36,-489.83 668,-484.87 666.95,-491.8"/>
</g>
<!-- Node26 -->
<g id="node26" class="node">
<title>Node26</title>
<g id="a_node26"><a xlink:href="../../d6/d90/a00514.html#a2be9e6df2e83d83f7e1a0198e7aeefcc" target="_top" xlink:title=" ">
<polygon fill="none" stroke="black" points="875,-542.5 875,-561.5 1064,-561.5 1064,-542.5 875,-542.5"/>
<text text-anchor="middle" x="969.5" y="-549.5" font-family="Helvetica,sans-Serif" font-size="10.00">com.cliffc.aa.HM.HM.T2.debug_find</text>
</a>
</g>
</g>
<!-- Node25&#45;&gt;Node26 -->
<g id="edge30" class="edge">
<title>Node25&#45;&gt;Node26</title>
<path fill="none" stroke="midnightblue" d="M810.71,-515.04C844.8,-523.03 886.09,-532.7 917.89,-540.14"/>
<polygon fill="midnightblue" stroke="midnightblue" points="917.32,-543.61 927.85,-542.48 918.91,-536.79 917.32,-543.61"/>
</g>
<!-- Node27 -->
<g id="node27" class="node">
<title>Node27</title>
<g id="a_node27"><a xlink:href="../../df/dee/a01646.html#a88ad20daf92e92fe0e3925b23c4fecf0" target="_top" xlink:title=" ">
<polygon fill="none" stroke="black" points="890.5,-490.5 890.5,-509.5 1048.5,-509.5 1048.5,-490.5 890.5,-490.5"/>
<text text-anchor="middle" x="969.5" y="-497.5" font-family="Helvetica,sans-Serif" font-size="10.00">com.cliffc.aa.util.VBitSet.tset</text>
</a>
</g>
</g>
<!-- Node25&#45;&gt;Node27 -->
<g id="edge33" class="edge">
<title>Node25&#45;&gt;Node27</title>
<path fill="none" stroke="midnightblue" d="M813.71,-500C834.63,-500 858.01,-500 880.15,-500"/>
<polygon fill="midnightblue" stroke="midnightblue" points="880.21,-503.5 890.21,-500 880.21,-496.5 880.21,-503.5"/>
</g>
<!-- Node26&#45;&gt;Node5 -->
<g id="edge32" class="edge">
<title>Node26&#45;&gt;Node5</title>
<path fill="none" stroke="midnightblue" d="M1016.07,-561.55C1048.13,-568.26 1091.21,-577.29 1125.23,-584.42"/>
<polygon fill="midnightblue" stroke="midnightblue" points="1124.52,-587.85 1135.02,-586.47 1125.95,-580.99 1124.52,-587.85"/>
</g>
<!-- Node26&#45;&gt;Node6 -->
<g id="edge31" class="edge">
<title>Node26&#45;&gt;Node6</title>
<path fill="none" stroke="midnightblue" d="M1064.13,-552C1131.36,-552 1221.57,-552 1288.72,-552"/>
<polygon fill="midnightblue" stroke="midnightblue" points="1288.87,-555.5 1298.87,-552 1288.87,-548.5 1288.87,-555.5"/>
</g>
<!-- Node28&#45;&gt;Node1 -->
<g id="edge38" class="edge">
<title>Node28&#45;&gt;Node1</title>
<path fill="none" stroke="midnightblue" d="M250.92,-57.54C233.64,-60.54 214.06,-65.49 199,-76 140.25,-117 105.25,-198.1 90.59,-235.59"/>
<polygon fill="midnightblue" stroke="midnightblue" points="87.17,-234.74 86.84,-245.33 93.7,-237.26 87.17,-234.74"/>
</g>
<!-- Node29 -->
<g id="node29" class="node">
<title>Node29</title>
<g id="a_node29"><a xlink:href="../../d6/d90/a00514.html#aae5f91c03a38a6896cf71884e4b1a6aa" target="_top" xlink:title=" ">
<polygon fill="none" stroke="black" points="428,-38.5 428,-57.5 610,-57.5 610,-38.5 428,-38.5"/>
<text text-anchor="middle" x="519" y="-45.5" font-family="Helvetica,sans-Serif" font-size="10.00">com.cliffc.aa.HM.HM.T2.make_err</text>
</a>
</g>
</g>
<!-- Node28&#45;&gt;Node29 -->
<g id="edge36" class="edge">
<title>Node28&#45;&gt;Node29</title>
<path fill="none" stroke="midnightblue" d="M383.52,-48C394.84,-48 406.48,-48 417.94,-48"/>
<polygon fill="midnightblue" stroke="midnightblue" points="417.96,-51.5 427.96,-48 417.96,-44.5 417.96,-51.5"/>
</g>
<!-- Node30 -->
<g id="node30" class="node">
<title>Node30</title>
<g id="a_node30"><a xlink:href="../../d6/d90/a00514.html#a26fdb3cb11feddd848b589240ce39dc2" target="_top" xlink:title=" ">
<polygon fill="none" stroke="black" points="671.5,-38.5 671.5,-57.5 819.5,-57.5 819.5,-38.5 671.5,-38.5"/>
<text text-anchor="middle" x="745.5" y="-45.5" font-family="Helvetica,sans-Serif" font-size="10.00">com.cliffc.aa.HM.HM.T2.T2</text>
</a>
</g>
</g>
<!-- Node29&#45;&gt;Node30 -->
<g id="edge37" class="edge">
<title>Node29&#45;&gt;Node30</title>
<path fill="none" stroke="midnightblue" d="M610.02,-48C626.89,-48 644.46,-48 661.12,-48"/>
<polygon fill="midnightblue" stroke="midnightblue" points="661.36,-51.5 671.36,-48 661.36,-44.5 661.36,-51.5"/>
</g>
</g>
</svg>
