<?xml version="1.0" encoding="UTF-8" standalone="no"?>
<!DOCTYPE svg PUBLIC "-//W3C//DTD SVG 1.1//EN"
 "http://www.w3.org/Graphics/SVG/1.1/DTD/svg11.dtd">
<!-- Generated by graphviz version 2.43.0 (0)
 -->
<!-- Title: com.cliffc.aa.HM.HM.T2.miss_field Pages: 1 -->
<!--zoomable 103 -->
<svg id="main" version="1.1" xmlns="http://www.w3.org/2000/svg" xmlns:xlink="http://www.w3.org/1999/xlink" xml:space="preserve" onload="init(evt)">
<style type="text/css"><![CDATA[
.edge:hover path { stroke: red; }
.edge:hover polygon { stroke: red; fill: red; }
]]></style>
<script type="text/javascript"><![CDATA[
var edges = document.getElementsByTagName('g');
if (edges && edges.length) {
  for (var i=0;i<edges.length;i++) {
    if (edges[i].id.substr(0,4)=='edge') {
      edges[i].setAttribute('class','edge');
    }
  }
}
]]></script>
        <defs>
                <circle id="rim" cx="0" cy="0" r="7"/>
                <circle id="rim2" cx="0" cy="0" r="3.5"/>
                <g id="zoomPlus">
                        <use xlink:href="#rim" fill="#404040">
                                <set attributeName="fill" to="#808080" begin="zoomplus.mouseover" end="zoomplus.mouseout"/>
                        </use>
                        <path d="M-4,0h8M0,-4v8" fill="none" stroke="white" stroke-width="1.5" pointer-events="none"/>
                </g>
                <g id="zoomMin">
                        <use xlink:href="#rim" fill="#404040">
                                <set attributeName="fill" to="#808080" begin="zoomminus.mouseover" end="zoomminus.mouseout"/>
                        </use>
                        <path d="M-4,0h8" fill="none" stroke="white" stroke-width="1.5" pointer-events="none"/>
                </g>
                <g id="dirArrow">
                        <path fill="none" stroke="white" stroke-width="1.5" d="M0,-3.0v7 M-2.5,-0.5L0,-3.0L2.5,-0.5"/>
                </g>
               <g id="resetDef">
                       <use xlink:href="#rim2" fill="#404040">
                               <set attributeName="fill" to="#808080" begin="reset.mouseover" end="reset.mouseout"/>
                       </use>
               </g>
        </defs>

<script type="text/javascript">
var viewWidth = 1756;
var viewHeight = 103;
var sectionId = 'dynsection-111';
</script>
<script xlink:href="../../svgpan.js"/>
<svg id="graph" class="graph">
<g id="viewport">
<title>com.cliffc.aa.HM.HM.T2.miss_field</title>
<!-- Node1 -->
<g id="node1" class="node">
<title>Node1</title>
<g id="a_node1"><a xlink:title=" ">
<polygon fill="#bfbfbf" stroke="black" points="0,-42 0,-72 159,-72 159,-42 0,-42"/>
<text text-anchor="start" x="8" y="-60" font-family="Helvetica,sans-Serif" font-size="10.00">com.cliffc.aa.HM.HM.T2.miss</text>
<text text-anchor="middle" x="79.5" y="-49" font-family="Helvetica,sans-Serif" font-size="10.00">_field</text>
</a>
</g>
</g>
<!-- Node2 -->
<g id="node2" class="node">
<title>Node2</title>
<g id="a_node2"><a xlink:href="../../d6/d90/a00514.html#aae5f91c03a38a6896cf71884e4b1a6aa" target="_top" xlink:title=" ">
<polygon fill="none" stroke="black" points="195,-75.5 195,-94.5 377,-94.5 377,-75.5 195,-75.5"/>
<text text-anchor="middle" x="286" y="-82.5" font-family="Helvetica,sans-Serif" font-size="10.00">com.cliffc.aa.HM.HM.T2.make_err</text>
</a>
</g>
</g>
<!-- Node1&#45;&gt;Node2 -->
<g id="edge1" class="edge">
<title>Node1&#45;&gt;Node2</title>
<path fill="none" stroke="midnightblue" d="M159.27,-67.79C174.36,-69.85 190.16,-72.01 205.28,-74.08"/>
<polygon fill="midnightblue" stroke="midnightblue" points="205.23,-77.61 215.61,-75.5 206.18,-70.68 205.23,-77.61"/>
</g>
<!-- Node4 -->
<g id="node4" class="node">
<title>Node4</title>
<g id="a_node4"><a xlink:href="../../d6/d90/a00514.html#a33321140673d9c31ce5734664bf2fbce" target="_top" xlink:title=" ">
<polygon fill="none" stroke="black" points="215,-19.5 215,-38.5 357,-38.5 357,-19.5 215,-19.5"/>
<text text-anchor="middle" x="286" y="-26.5" font-family="Helvetica,sans-Serif" font-size="10.00">com.cliffc.aa.HM.HM.T2.p</text>
</a>
</g>
</g>
<!-- Node1&#45;&gt;Node4 -->
<g id="edge3" class="edge">
<title>Node1&#45;&gt;Node4</title>
<path fill="none" stroke="midnightblue" d="M159.27,-46.21C174.36,-44.15 190.16,-41.99 205.28,-39.92"/>
<polygon fill="midnightblue" stroke="midnightblue" points="206.18,-43.32 215.61,-38.5 205.23,-36.39 206.18,-43.32"/>
</g>
<!-- Node3 -->
<g id="node3" class="node">
<title>Node3</title>
<g id="a_node3"><a xlink:href="../../d6/d90/a00514.html#a26fdb3cb11feddd848b589240ce39dc2" target="_top" xlink:title=" ">
<polygon fill="none" stroke="black" points="429,-75.5 429,-94.5 577,-94.5 577,-75.5 429,-75.5"/>
<text text-anchor="middle" x="503" y="-82.5" font-family="Helvetica,sans-Serif" font-size="10.00">com.cliffc.aa.HM.HM.T2.T2</text>
</a>
</g>
</g>
<!-- Node2&#45;&gt;Node3 -->
<g id="edge2" class="edge">
<title>Node2&#45;&gt;Node3</title>
<path fill="none" stroke="midnightblue" d="M377.24,-85C390.98,-85 405.1,-85 418.68,-85"/>
<polygon fill="midnightblue" stroke="midnightblue" points="418.94,-88.5 428.94,-85 418.94,-81.5 418.94,-88.5"/>
</g>
<!-- Node4&#45;&gt;Node4 -->
<g id="edge14" class="edge">
<title>Node4&#45;&gt;Node4</title>
<path fill="none" stroke="midnightblue" d="M254.25,-38.76C238.8,-47.57 249.39,-57 286,-57 312.32,-57 325.18,-52.13 324.61,-46.11"/>
<polygon fill="midnightblue" stroke="midnightblue" points="327.13,-43.69 317.75,-38.76 322.01,-48.46 327.13,-43.69"/>
</g>
<!-- Node5 -->
<g id="node5" class="node">
<title>Node5</title>
<g id="a_node5"><a xlink:href="../../d6/d90/a00514.html#ac842012afa3234a1ae1f49fea4c87445" target="_top" xlink:title=" ">
<polygon fill="none" stroke="black" points="413,-19.5 413,-38.5 593,-38.5 593,-19.5 413,-19.5"/>
<text text-anchor="middle" x="503" y="-26.5" font-family="Helvetica,sans-Serif" font-size="10.00">com.cliffc.aa.HM.HM.T2.get_dups</text>
</a>
</g>
</g>
<!-- Node4&#45;&gt;Node5 -->
<g id="edge4" class="edge">
<title>Node4&#45;&gt;Node5</title>
<path fill="none" stroke="midnightblue" d="M357.1,-29C371.68,-29 387.3,-29 402.7,-29"/>
<polygon fill="midnightblue" stroke="midnightblue" points="402.77,-32.5 412.77,-29 402.77,-25.5 402.77,-32.5"/>
</g>
<!-- Node6 -->
<g id="node6" class="node">
<title>Node6</title>
<g id="a_node6"><a xlink:href="../../d6/d90/a00514.html#a228c541751d299f5aa437bfea3bd27ac" target="_top" xlink:title=" ">
<polygon fill="none" stroke="black" points="629,-14 629,-44 765,-44 765,-14 629,-14"/>
<text text-anchor="start" x="637" y="-32" font-family="Helvetica,sans-Serif" font-size="10.00">com.cliffc.aa.HM.HM.T2.</text>
<text text-anchor="middle" x="697" y="-21" font-family="Helvetica,sans-Serif" font-size="10.00">_get_dups</text>
</a>
</g>
</g>
<!-- Node5&#45;&gt;Node6 -->
<g id="edge5" class="edge">
<title>Node5&#45;&gt;Node6</title>
<path fill="none" stroke="midnightblue" d="M593.25,-29C601.75,-29 610.31,-29 618.68,-29"/>
<polygon fill="midnightblue" stroke="midnightblue" points="618.77,-32.5 628.77,-29 618.77,-25.5 618.77,-32.5"/>
</g>
<!-- Node7 -->
<g id="node7" class="node">
<title>Node7</title>
<g id="a_node7"><a xlink:href="../../d6/d90/a00514.html#a2be9e6df2e83d83f7e1a0198e7aeefcc" target="_top" xlink:title=" ">
<polygon fill="none" stroke="black" points="801,-38.5 801,-57.5 990,-57.5 990,-38.5 801,-38.5"/>
<text text-anchor="middle" x="895.5" y="-45.5" font-family="Helvetica,sans-Serif" font-size="10.00">com.cliffc.aa.HM.HM.T2.debug_find</text>
</a>
</g>
</g>
<!-- Node6&#45;&gt;Node7 -->
<g id="edge6" class="edge">
<title>Node6&#45;&gt;Node7</title>
<path fill="none" stroke="midnightblue" d="M765.07,-35.49C773.39,-36.29 782.03,-37.12 790.73,-37.97"/>
<polygon fill="midnightblue" stroke="midnightblue" points="790.66,-41.48 800.95,-38.95 791.34,-34.51 790.66,-41.48"/>
</g>
<!-- Node13 -->
<g id="node13" class="node">
<title>Node13</title>
<g id="a_node13"><a xlink:href="../../df/dee/a01646.html#a88ad20daf92e92fe0e3925b23c4fecf0" target="_top" xlink:title=" ">
<polygon fill="none" stroke="black" points="816.5,-0.5 816.5,-19.5 974.5,-19.5 974.5,-0.5 816.5,-0.5"/>
<text text-anchor="middle" x="895.5" y="-7.5" font-family="Helvetica,sans-Serif" font-size="10.00">com.cliffc.aa.util.VBitSet.tset</text>
</a>
</g>
</g>
<!-- Node6&#45;&gt;Node13 -->
<g id="edge13" class="edge">
<title>Node6&#45;&gt;Node13</title>
<path fill="none" stroke="midnightblue" d="M765.07,-22.51C778.32,-21.23 792.4,-19.87 806.22,-18.54"/>
<polygon fill="midnightblue" stroke="midnightblue" points="806.6,-22.02 816.22,-17.57 805.93,-15.05 806.6,-22.02"/>
</g>
<!-- Node8 -->
<g id="node8" class="node">
<title>Node8</title>
<g id="a_node8"><a xlink:href="../../d6/d90/a00514.html#aad197ab7ed2491b2ca581a9e4d68fd35" target="_top" xlink:title=" ">
<polygon fill="none" stroke="black" points="1225,-57.5 1225,-76.5 1393,-76.5 1393,-57.5 1225,-57.5"/>
<text text-anchor="middle" x="1309" y="-64.5" font-family="Helvetica,sans-Serif" font-size="10.00">com.cliffc.aa.HM.HM.T2.is_leaf</text>
</a>
</g>
</g>
<!-- Node7&#45;&gt;Node8 -->
<g id="edge7" class="edge">
<title>Node7&#45;&gt;Node8</title>
<path fill="none" stroke="midnightblue" d="M990.13,-52.32C1057.36,-55.43 1147.57,-59.59 1214.72,-62.69"/>
<polygon fill="midnightblue" stroke="midnightblue" points="1214.72,-66.2 1224.87,-63.16 1215.04,-59.2 1214.72,-66.2"/>
</g>
<!-- Node9 -->
<g id="node9" class="node">
<title>Node9</title>
<g id="a_node9"><a xlink:href="../../d6/d90/a00514.html#a5a583637713ecacb740ff662677191f7" target="_top" xlink:title=" ">
<polygon fill="none" stroke="black" points="1026,-19.5 1026,-38.5 1189,-38.5 1189,-19.5 1026,-19.5"/>
<text text-anchor="middle" x="1107.5" y="-26.5" font-family="Helvetica,sans-Serif" font-size="10.00">com.cliffc.aa.HM.HM.T2.no_uf</text>
</a>
</g>
</g>
<!-- Node7&#45;&gt;Node9 -->
<g id="edge8" class="edge">
<title>Node7&#45;&gt;Node9</title>
<path fill="none" stroke="midnightblue" d="M990.14,-39.53C998.61,-38.76 1007.19,-37.99 1015.64,-37.22"/>
<polygon fill="midnightblue" stroke="midnightblue" points="1016.23,-40.68 1025.87,-36.29 1015.6,-33.71 1016.23,-40.68"/>
</g>
<!-- Node9&#45;&gt;Node8 -->
<g id="edge9" class="edge">
<title>Node9&#45;&gt;Node8</title>
<path fill="none" stroke="midnightblue" d="M1158.58,-38.54C1185.74,-43.71 1219.49,-50.14 1248.03,-55.58"/>
<polygon fill="midnightblue" stroke="midnightblue" points="1247.42,-59.02 1257.89,-57.46 1248.73,-52.15 1247.42,-59.02"/>
</g>
<!-- Node10 -->
<g id="node10" class="node">
<title>Node10</title>
<g id="a_node10"><a xlink:href="../../d6/d90/a00514.html#a270703fb8c3193ce4203a956fa7fb8c8" target="_top" xlink:title=" ">
<polygon fill="none" stroke="black" points="1237,-8 1237,-38 1381,-38 1381,-8 1237,-8"/>
<text text-anchor="start" x="1245" y="-26" font-family="Helvetica,sans-Serif" font-size="10.00">com.cliffc.aa.HM.HM.T2.is</text>
<text text-anchor="middle" x="1309" y="-15" font-family="Helvetica,sans-Serif" font-size="10.00">_nilable</text>
</a>
</g>
</g>
<!-- Node9&#45;&gt;Node10 -->
<g id="edge10" class="edge">
<title>Node9&#45;&gt;Node10</title>
<path fill="none" stroke="midnightblue" d="M1189.07,-26.58C1201.4,-26.21 1214.15,-25.82 1226.5,-25.45"/>
<polygon fill="midnightblue" stroke="midnightblue" points="1226.88,-28.94 1236.77,-25.14 1226.67,-21.94 1226.88,-28.94"/>
</g>
<!-- Node11 -->
<g id="node11" class="node">
<title>Node11</title>
<g id="a_node11"><a xlink:href="../../d6/d90/a00514.html#a217cc5615d6b0620d9c6489b1a5b6e94" target="_top" xlink:title=" ">
<polygon fill="none" stroke="black" points="1429,-13.5 1429,-32.5 1579,-32.5 1579,-13.5 1429,-13.5"/>
<text text-anchor="middle" x="1504" y="-20.5" font-family="Helvetica,sans-Serif" font-size="10.00">com.cliffc.aa.HM.HM.T2.isa</text>
</a>
</g>
</g>
<!-- Node10&#45;&gt;Node11 -->
<g id="edge11" class="edge">
<title>Node10&#45;&gt;Node11</title>
<path fill="none" stroke="midnightblue" d="M1381.04,-23C1393.34,-23 1406.23,-23 1418.84,-23"/>
<polygon fill="midnightblue" stroke="midnightblue" points="1418.87,-26.5 1428.87,-23 1418.87,-19.5 1418.87,-26.5"/>
</g>
<!-- Node12 -->
<g id="node12" class="node">
<title>Node12</title>
<g id="a_node12"><a xlink:href="../../dd/d55/a01638.html#a3975ba7dca9fe2d6e4992b2b5558f882" target="_top" xlink:title=" ">
<polygon fill="none" stroke="black" points="1615,-13.5 1615,-32.5 1748,-32.5 1748,-13.5 1615,-13.5"/>
<text text-anchor="middle" x="1681.5" y="-20.5" font-family="Helvetica,sans-Serif" font-size="10.00">com.cliffc.aa.util.Util.eq</text>
</a>
</g>
</g>
<!-- Node11&#45;&gt;Node12 -->
<g id="edge12" class="edge">
<title>Node11&#45;&gt;Node12</title>
<path fill="none" stroke="midnightblue" d="M1579.17,-23C1587.62,-23 1596.24,-23 1604.71,-23"/>
<polygon fill="midnightblue" stroke="midnightblue" points="1604.94,-26.5 1614.94,-23 1604.94,-19.5 1604.94,-26.5"/>
</g>
</g>
</svg>
        <g id="navigator" transform="translate(0 0)" fill="#404254">
                <rect fill="#f2f5e9" fill-opacity="0.5" stroke="#606060" stroke-width=".5" x="0" y="0" width="60" height="60"/>
                <use id="zoomplus" xlink:href="#zoomPlus" x="17" y="9" onmousedown="handleZoom(evt,'in')"/>
                <use id="zoomminus" xlink:href="#zoomMin" x="42" y="9" onmousedown="handleZoom(evt,'out')"/>
                <use id="reset" xlink:href="#resetDef" x="30" y="36" onmousedown="handleReset()"/>
                <g id="arrowUp" xlink:href="#dirArrow" transform="translate(30 24)" onmousedown="handlePan(0,-1)">
                  <use xlink:href="#rim" fill="#404040">
                        <set attributeName="fill" to="#808080" begin="arrowUp.mouseover" end="arrowUp.mouseout"/>
                  </use>
                  <path fill="none" stroke="white" stroke-width="1.5" d="M0,-3.0v7 M-2.5,-0.5L0,-3.0L2.5,-0.5"/>
                </g>
                <g id="arrowRight" xlink:href="#dirArrow" transform="rotate(90) translate(36 -43)" onmousedown="handlePan(1,0)">
                  <use xlink:href="#rim" fill="#404040">
                        <set attributeName="fill" to="#808080" begin="arrowRight.mouseover" end="arrowRight.mouseout"/>
                  </use>
                  <path fill="none" stroke="white" stroke-width="1.5" d="M0,-3.0v7 M-2.5,-0.5L0,-3.0L2.5,-0.5"/>
                </g>
                <g id="arrowDown" xlink:href="#dirArrow" transform="rotate(180) translate(-30 -48)" onmousedown="handlePan(0,1)">
                  <use xlink:href="#rim" fill="#404040">
                        <set attributeName="fill" to="#808080" begin="arrowDown.mouseover" end="arrowDown.mouseout"/>
                  </use>
                  <path fill="none" stroke="white" stroke-width="1.5" d="M0,-3.0v7 M-2.5,-0.5L0,-3.0L2.5,-0.5"/>
                </g>
                <g id="arrowLeft" xlink:href="#dirArrow" transform="rotate(270) translate(-36 17)" onmousedown="handlePan(-1,0)">
                  <use xlink:href="#rim" fill="#404040">
                        <set attributeName="fill" to="#808080" begin="arrowLeft.mouseover" end="arrowLeft.mouseout"/>
                  </use>
                  <path fill="none" stroke="white" stroke-width="1.5" d="M0,-3.0v7 M-2.5,-0.5L0,-3.0L2.5,-0.5"/>
                </g>
        </g>
        <svg viewBox="0 0 15 15" width="100%" height="30px" preserveAspectRatio="xMaxYMin meet">
         <g id="arrow_out" transform="scale(0.3 0.3)">
          <a xlink:href="a00514_acd8180fb710d0530bd2e0627db3fc0f6_cgraph_org.svg" target="_base">
           <rect id="button" ry="5" rx="5" y="6" x="6" height="38" width="38"
                fill="#f2f5e9" fill-opacity="0.5" stroke="#606060" stroke-width="1.0"/>
           <path id="arrow"
             d="M 11.500037,31.436501 C 11.940474,20.09759 22.043105,11.32322 32.158766,21.979434 L 37.068811,17.246167 C 37.068811,17.246167 37.088388,32 37.088388,32 L 22.160133,31.978069 C 22.160133,31.978069 26.997745,27.140456 26.997745,27.140456 C 18.528582,18.264221 13.291696,25.230495 11.500037,31.436501 z"
             style="fill:#404040;"/>
          </a>
         </g>
        </svg>
</svg>
