<?xml version="1.0" encoding="UTF-8" standalone="no"?>
<!DOCTYPE svg PUBLIC "-//W3C//DTD SVG 1.1//EN"
 "http://www.w3.org/Graphics/SVG/1.1/DTD/svg11.dtd">
<!-- Generated by graphviz version 2.43.0 (0)
 -->
<!-- Title: com.cliffc.aa.HM.HM.T2._can_be_HM_base Pages: 1 -->
<svg width="341pt" height="116pt"
 viewBox="0.00 0.00 341.00 115.50" xmlns="http://www.w3.org/2000/svg" xmlns:xlink="http://www.w3.org/1999/xlink">
<g id="graph0" class="graph" transform="scale(1 1) rotate(0) translate(4 111.5)">
<title>com.cliffc.aa.HM.HM.T2._can_be_HM_base</title>
<!-- Node1 -->
<g id="node1" class="node">
<title>Node1</title>
<g id="a_node1"><a xlink:title=" ">
<polygon fill="#bfbfbf" stroke="black" points="0,-33 0,-63 136,-63 136,-33 0,-33"/>
<text text-anchor="start" x="8" y="-51" font-family="Helvetica,sans-Serif" font-size="10.00">com.cliffc.aa.HM.HM.T2.</text>
<text text-anchor="middle" x="68" y="-40" font-family="Helvetica,sans-Serif" font-size="10.00">_can_be_HM_base</text>
</a>
</g>
</g>
<!-- Node2 -->
<g id="node2" class="node">
<title>Node2</title>
<g id="a_node2"><a xlink:href="../../d6/d90/a00514.html#ac56ae9e373f7b53581266621c93c5f87" target="_top" xlink:title=" ">
<polygon fill="none" stroke="black" points="173,-77 173,-107 332,-107 332,-77 173,-77"/>
<text text-anchor="start" x="181" y="-95" font-family="Helvetica,sans-Serif" font-size="10.00">com.cliffc.aa.HM.HM.T2.base</text>
<text text-anchor="middle" x="252.5" y="-84" font-family="Helvetica,sans-Serif" font-size="10.00">_states</text>
</a>
</g>
</g>
<!-- Node1&#45;&gt;Node2 -->
<g id="edge1" class="edge">
<title>Node1&#45;&gt;Node2</title>
<path fill="none" stroke="midnightblue" d="M131.3,-63.02C146.77,-66.75 163.49,-70.78 179.4,-74.62"/>
<polygon fill="midnightblue" stroke="midnightblue" points="178.63,-78.03 189.18,-76.97 180.27,-71.23 178.63,-78.03"/>
</g>
<!-- Node3 -->
<g id="node3" class="node">
<title>Node3</title>
<g id="a_node3"><a xlink:href="../../d0/de2/a01442.html#ad4b6fe2d948ba739fd3d5e0feac103e6" target="_top" xlink:title=" ">
<polygon fill="none" stroke="black" points="179.5,-38.5 179.5,-57.5 325.5,-57.5 325.5,-38.5 179.5,-38.5"/>
<text text-anchor="middle" x="252.5" y="-45.5" font-family="Helvetica,sans-Serif" font-size="10.00">com.cliffc.aa.type.Type.isa</text>
</a>
</g>
</g>
<!-- Node1&#45;&gt;Node3 -->
<g id="edge2" class="edge">
<title>Node1&#45;&gt;Node3</title>
<path fill="none" stroke="midnightblue" d="M136.18,-48C146.92,-48 158.13,-48 169.18,-48"/>
<polygon fill="midnightblue" stroke="midnightblue" points="169.25,-51.5 179.25,-48 169.25,-44.5 169.25,-51.5"/>
</g>
<!-- Node4 -->
<g id="node4" class="node">
<title>Node4</title>
<g id="a_node4"><a xlink:href="../../d0/de2/a01442.html#a15968efc921b38c6710053767a1e35dc" target="_top" xlink:title=" ">
<polygon fill="none" stroke="black" points="172,-0.5 172,-19.5 333,-19.5 333,-0.5 172,-0.5"/>
<text text-anchor="middle" x="252.5" y="-7.5" font-family="Helvetica,sans-Serif" font-size="10.00">com.cliffc.aa.type.Type.widen</text>
</a>
</g>
</g>
<!-- Node1&#45;&gt;Node4 -->
<g id="edge3" class="edge">
<title>Node1&#45;&gt;Node4</title>
<path fill="none" stroke="midnightblue" d="M136.18,-34.01C155.82,-29.92 177.07,-25.5 195.91,-21.58"/>
<polygon fill="midnightblue" stroke="midnightblue" points="196.73,-24.98 205.81,-19.51 195.3,-18.13 196.73,-24.98"/>
</g>
</g>
</svg>
