<?xml version="1.0" encoding="UTF-8" standalone="no"?>
<!DOCTYPE svg PUBLIC "-//W3C//DTD SVG 1.1//EN"
 "http://www.w3.org/Graphics/SVG/1.1/DTD/svg11.dtd">
<!-- Generated by graphviz version 2.43.0 (0)
 -->
<!-- Title: com.cliffc.aa.HM.HM3.Ident.hm Pages: 1 -->
<svg width="631pt" height="78pt"
 viewBox="0.00 0.00 631.00 77.50" xmlns="http://www.w3.org/2000/svg" xmlns:xlink="http://www.w3.org/1999/xlink">
<g id="graph0" class="graph" transform="scale(1 1) rotate(0) translate(4 73.5)">
<title>com.cliffc.aa.HM.HM3.Ident.hm</title>
<!-- Node1 -->
<g id="node1" class="node">
<title>Node1</title>
<g id="a_node1"><a xlink:title=" ">
<polygon fill="#bfbfbf" stroke="black" points="0,-22.5 0,-41.5 170,-41.5 170,-22.5 0,-22.5"/>
<text text-anchor="middle" x="85" y="-29.5" font-family="Helvetica,sans-Serif" font-size="10.00">com.cliffc.aa.HM.HM3.Ident.hm</text>
</a>
</g>
</g>
<!-- Node2 -->
<g id="node2" class="node">
<title>Node2</title>
<g id="a_node2"><a xlink:href="../../df/dcf/a00642.html#a1120cf9ae6dc45609887fb6db89ae11a" target="_top" xlink:title=" ">
<polygon fill="none" stroke="black" points="206,-22.5 206,-41.5 400,-41.5 400,-22.5 206,-22.5"/>
<text text-anchor="middle" x="303" y="-29.5" font-family="Helvetica,sans-Serif" font-size="10.00">com.cliffc.aa.HM.HM3.HMType.fresh</text>
</a>
</g>
</g>
<!-- Node1&#45;&gt;Node2 -->
<g id="edge1" class="edge">
<title>Node1&#45;&gt;Node2</title>
<path fill="none" stroke="midnightblue" d="M170.13,-32C178.56,-32 187.19,-32 195.81,-32"/>
<polygon fill="midnightblue" stroke="midnightblue" points="195.91,-35.5 205.91,-32 195.91,-28.5 195.91,-35.5"/>
</g>
<!-- Node3 -->
<g id="node3" class="node">
<title>Node3</title>
<g id="a_node3"><a xlink:href="../../df/dcf/a00642.html#ae8af080ce8efad54e284b220b2aad536" target="_top" xlink:title=" ">
<polygon fill="none" stroke="black" points="445,-39 445,-69 614,-69 614,-39 445,-39"/>
<text text-anchor="start" x="453" y="-57" font-family="Helvetica,sans-Serif" font-size="10.00">com.cliffc.aa.HM.HM3.HMType.</text>
<text text-anchor="middle" x="529.5" y="-46" font-family="Helvetica,sans-Serif" font-size="10.00">_fresh</text>
</a>
</g>
</g>
<!-- Node2&#45;&gt;Node3 -->
<g id="edge2" class="edge">
<title>Node2&#45;&gt;Node3</title>
<path fill="none" stroke="midnightblue" d="M400.19,-41.43C411.69,-42.55 423.43,-43.7 434.9,-44.83"/>
<polygon fill="midnightblue" stroke="midnightblue" points="434.6,-48.31 444.89,-45.81 435.28,-41.35 434.6,-48.31"/>
</g>
<!-- Node4 -->
<g id="node4" class="node">
<title>Node4</title>
<g id="a_node4"><a xlink:href="../../df/dcf/a00642.html#a990738082bc01b8f8e1801d516bf1362" target="_top" xlink:title=" ">
<polygon fill="none" stroke="black" points="436,-0.5 436,-19.5 623,-19.5 623,-0.5 436,-0.5"/>
<text text-anchor="middle" x="529.5" y="-7.5" font-family="Helvetica,sans-Serif" font-size="10.00">com.cliffc.aa.HM.HM3.HMType.find</text>
</a>
</g>
</g>
<!-- Node2&#45;&gt;Node4 -->
<g id="edge3" class="edge">
<title>Node2&#45;&gt;Node4</title>
<path fill="none" stroke="midnightblue" d="M400.19,-22.57C408.65,-21.74 417.25,-20.9 425.77,-20.07"/>
<polygon fill="midnightblue" stroke="midnightblue" points="426.11,-23.55 435.72,-19.09 425.43,-16.58 426.11,-23.55"/>
</g>
</g>
</svg>
