<?xml version="1.0" encoding="UTF-8" standalone="no"?>
<!DOCTYPE svg PUBLIC "-//W3C//DTD SVG 1.1//EN"
 "http://www.w3.org/Graphics/SVG/1.1/DTD/svg11.dtd">
<!-- Generated by graphviz version 2.43.0 (0)
 -->
<!-- Title: com.cliffc.aa.node.PrimNode.EQ_OOP.vs_nil Pages: 1 -->
<svg width="378pt" height="154pt"
 viewBox="0.00 0.00 378.00 153.50" xmlns="http://www.w3.org/2000/svg" xmlns:xlink="http://www.w3.org/1999/xlink">
<g id="graph0" class="graph" transform="scale(1 1) rotate(0) translate(4 149.5)">
<title>com.cliffc.aa.node.PrimNode.EQ_OOP.vs_nil</title>
<!-- Node1 -->
<g id="node1" class="node">
<title>Node1</title>
<g id="a_node1"><a xlink:title=" ">
<polygon fill="#bfbfbf" stroke="black" points="0,-52 0,-82 160,-82 160,-52 0,-52"/>
<text text-anchor="start" x="8" y="-70" font-family="Helvetica,sans-Serif" font-size="10.00">com.cliffc.aa.node.PrimNode.</text>
<text text-anchor="middle" x="80" y="-59" font-family="Helvetica,sans-Serif" font-size="10.00">EQ_OOP.vs_nil</text>
</a>
</g>
</g>
<!-- Node2 -->
<g id="node2" class="node">
<title>Node2</title>
<g id="a_node2"><a xlink:href="../../d0/de2/a01442.html#aa714dfa13a9224150753af2d8efde48d" target="_top" xlink:title=" ">
<polygon fill="none" stroke="black" points="202,-115 202,-145 364,-145 364,-115 202,-115"/>
<text text-anchor="start" x="210" y="-133" font-family="Helvetica,sans-Serif" font-size="10.00">com.cliffc.aa.type.Type.above</text>
<text text-anchor="middle" x="283" y="-122" font-family="Helvetica,sans-Serif" font-size="10.00">_center</text>
</a>
</g>
</g>
<!-- Node1&#45;&gt;Node2 -->
<g id="edge1" class="edge">
<title>Node1&#45;&gt;Node2</title>
<path fill="none" stroke="midnightblue" d="M125.39,-82.08C146.69,-89.21 172.61,-97.74 196,-105 203.6,-107.36 211.6,-109.78 219.54,-112.13"/>
<polygon fill="midnightblue" stroke="midnightblue" points="218.57,-115.49 229.15,-114.96 220.55,-108.78 218.57,-115.49"/>
</g>
<!-- Node3 -->
<g id="node3" class="node">
<title>Node3</title>
<g id="a_node3"><a xlink:href="../../d0/de2/a01442.html#a7ae10ba7415e2d2f5a11770c7812a54a" target="_top" xlink:title=" ">
<polygon fill="none" stroke="black" points="206.5,-76.5 206.5,-95.5 359.5,-95.5 359.5,-76.5 206.5,-76.5"/>
<text text-anchor="middle" x="283" y="-83.5" font-family="Helvetica,sans-Serif" font-size="10.00">com.cliffc.aa.type.Type.dual</text>
</a>
</g>
</g>
<!-- Node1&#45;&gt;Node3 -->
<g id="edge2" class="edge">
<title>Node1&#45;&gt;Node3</title>
<path fill="none" stroke="midnightblue" d="M160.15,-74.48C172,-75.6 184.25,-76.76 196.23,-77.89"/>
<polygon fill="midnightblue" stroke="midnightblue" points="195.92,-81.38 206.2,-78.84 196.58,-74.41 195.92,-81.38"/>
</g>
<!-- Node4 -->
<g id="node4" class="node">
<title>Node4</title>
<g id="a_node4"><a xlink:href="../../d0/de2/a01442.html#ad4b6fe2d948ba739fd3d5e0feac103e6" target="_top" xlink:title=" ">
<polygon fill="none" stroke="black" points="210,-38.5 210,-57.5 356,-57.5 356,-38.5 210,-38.5"/>
<text text-anchor="middle" x="283" y="-45.5" font-family="Helvetica,sans-Serif" font-size="10.00">com.cliffc.aa.type.Type.isa</text>
</a>
</g>
</g>
<!-- Node1&#45;&gt;Node4 -->
<g id="edge3" class="edge">
<title>Node1&#45;&gt;Node4</title>
<path fill="none" stroke="midnightblue" d="M160.15,-59.52C173.07,-58.3 186.48,-57.03 199.47,-55.8"/>
<polygon fill="midnightblue" stroke="midnightblue" points="200.16,-59.25 209.79,-54.83 199.5,-52.28 200.16,-59.25"/>
</g>
<!-- Node5 -->
<g id="node5" class="node">
<title>Node5</title>
<g id="a_node5"><a xlink:href="../../d0/de2/a01442.html#a67a14d34b0f309e285e16b850e9df19f" target="_top" xlink:title=" ">
<polygon fill="none" stroke="black" points="196,-0.5 196,-19.5 370,-19.5 370,-0.5 196,-0.5"/>
<text text-anchor="middle" x="283" y="-7.5" font-family="Helvetica,sans-Serif" font-size="10.00">com.cliffc.aa.type.Type.must_nil</text>
</a>
</g>
</g>
<!-- Node1&#45;&gt;Node5 -->
<g id="edge4" class="edge">
<title>Node1&#45;&gt;Node5</title>
<path fill="none" stroke="midnightblue" d="M123.01,-51.98C144.66,-44.53 171.57,-35.72 196,-29 205.19,-26.47 215.01,-24.05 224.6,-21.83"/>
<polygon fill="midnightblue" stroke="midnightblue" points="225.49,-25.22 234.47,-19.59 223.95,-18.39 225.49,-25.22"/>
</g>
</g>
</svg>
