<?xml version="1.0" encoding="UTF-8" standalone="no"?>
<!DOCTYPE svg PUBLIC "-//W3C//DTD SVG 1.1//EN"
 "http://www.w3.org/Graphics/SVG/1.1/DTD/svg11.dtd">
<!-- Generated by graphviz version 2.43.0 (0)
 -->
<!-- Title: com.cliffc.aa.node.PrimNode.RandI64.value Pages: 1 -->
<svg width="548pt" height="230pt"
 viewBox="0.00 0.00 548.00 229.50" xmlns="http://www.w3.org/2000/svg" xmlns:xlink="http://www.w3.org/1999/xlink">
<g id="graph0" class="graph" transform="scale(1 1) rotate(0) translate(4 225.5)">
<title>com.cliffc.aa.node.PrimNode.RandI64.value</title>
<!-- Node1 -->
<g id="node1" class="node">
<title>Node1</title>
<g id="a_node1"><a xlink:title=" ">
<polygon fill="#bfbfbf" stroke="black" points="0,-90 0,-120 160,-120 160,-90 0,-90"/>
<text text-anchor="start" x="8" y="-108" font-family="Helvetica,sans-Serif" font-size="10.00">com.cliffc.aa.node.PrimNode.</text>
<text text-anchor="middle" x="80" y="-97" font-family="Helvetica,sans-Serif" font-size="10.00">RandI64.value</text>
</a>
</g>
</g>
<!-- Node2 -->
<g id="node2" class="node">
<title>Node2</title>
<g id="a_node2"><a xlink:href="../../d0/de2/a01442.html#aa714dfa13a9224150753af2d8efde48d" target="_top" xlink:title=" ">
<polygon fill="none" stroke="black" points="196,-191 196,-221 358,-221 358,-191 196,-191"/>
<text text-anchor="start" x="204" y="-209" font-family="Helvetica,sans-Serif" font-size="10.00">com.cliffc.aa.type.Type.above</text>
<text text-anchor="middle" x="277" y="-198" font-family="Helvetica,sans-Serif" font-size="10.00">_center</text>
</a>
</g>
</g>
<!-- Node1&#45;&gt;Node2 -->
<g id="edge1" class="edge">
<title>Node1&#45;&gt;Node2</title>
<path fill="none" stroke="midnightblue" d="M100.34,-120.26C122.42,-137.06 160.12,-163.96 196,-181 200.85,-183.3 205.96,-185.46 211.15,-187.47"/>
<polygon fill="midnightblue" stroke="midnightblue" points="209.97,-190.76 220.57,-190.92 212.38,-184.19 209.97,-190.76"/>
</g>
<!-- Node3 -->
<g id="node3" class="node">
<title>Node3</title>
<g id="a_node3"><a xlink:href="../../d0/de2/a01442.html#a7ae10ba7415e2d2f5a11770c7812a54a" target="_top" xlink:title=" ">
<polygon fill="none" stroke="black" points="200.5,-152.5 200.5,-171.5 353.5,-171.5 353.5,-152.5 200.5,-152.5"/>
<text text-anchor="middle" x="277" y="-159.5" font-family="Helvetica,sans-Serif" font-size="10.00">com.cliffc.aa.type.Type.dual</text>
</a>
</g>
</g>
<!-- Node1&#45;&gt;Node3 -->
<g id="edge2" class="edge">
<title>Node1&#45;&gt;Node3</title>
<path fill="none" stroke="midnightblue" d="M123.6,-120.05C145.16,-127.41 171.82,-136.15 196,-143 204.58,-145.43 213.74,-147.81 222.68,-150.01"/>
<polygon fill="midnightblue" stroke="midnightblue" points="222.1,-153.47 232.64,-152.42 223.75,-146.67 222.1,-153.47"/>
</g>
<!-- Node4 -->
<g id="node4" class="node">
<title>Node4</title>
<g id="a_node4"><a xlink:href="../../d0/de2/a01442.html#ad4b6fe2d948ba739fd3d5e0feac103e6" target="_top" xlink:title=" ">
<polygon fill="none" stroke="black" points="204,-114.5 204,-133.5 350,-133.5 350,-114.5 204,-114.5"/>
<text text-anchor="middle" x="277" y="-121.5" font-family="Helvetica,sans-Serif" font-size="10.00">com.cliffc.aa.type.Type.isa</text>
</a>
</g>
</g>
<!-- Node1&#45;&gt;Node4 -->
<g id="edge3" class="edge">
<title>Node1&#45;&gt;Node4</title>
<path fill="none" stroke="midnightblue" d="M160.03,-112.7C171.11,-113.78 182.51,-114.89 193.64,-115.98"/>
<polygon fill="midnightblue" stroke="midnightblue" points="193.48,-119.48 203.78,-116.96 194.16,-112.51 193.48,-119.48"/>
</g>
<!-- Node5 -->
<g id="node5" class="node">
<title>Node5</title>
<g id="a_node5"><a xlink:href="../../d0/de2/a01442.html#a086b90d9d651ac00b80a9b5caa60eb09" target="_top" xlink:title=" ">
<polygon fill="none" stroke="black" points="198,-76.5 198,-95.5 356,-95.5 356,-76.5 198,-76.5"/>
<text text-anchor="middle" x="277" y="-83.5" font-family="Helvetica,sans-Serif" font-size="10.00">com.cliffc.aa.type.Type.meet</text>
</a>
</g>
</g>
<!-- Node1&#45;&gt;Node5 -->
<g id="edge4" class="edge">
<title>Node1&#45;&gt;Node5</title>
<path fill="none" stroke="midnightblue" d="M160.03,-97.3C169.18,-96.41 178.56,-95.49 187.82,-94.59"/>
<polygon fill="midnightblue" stroke="midnightblue" points="188.19,-98.07 197.8,-93.62 187.51,-91.11 188.19,-98.07"/>
</g>
<!-- Node6 -->
<g id="node6" class="node">
<title>Node6</title>
<g id="a_node6"><a xlink:href="../../d0/de2/a01442.html#a388429cb6bea455104e3b9690d992854" target="_top" xlink:title=" ">
<polygon fill="none" stroke="black" points="202,-38.5 202,-57.5 352,-57.5 352,-38.5 202,-38.5"/>
<text text-anchor="middle" x="277" y="-45.5" font-family="Helvetica,sans-Serif" font-size="10.00">com.cliffc.aa.type.Type.oob</text>
</a>
</g>
</g>
<!-- Node1&#45;&gt;Node6 -->
<g id="edge5" class="edge">
<title>Node1&#45;&gt;Node6</title>
<path fill="none" stroke="midnightblue" d="M123.6,-89.95C145.16,-82.59 171.82,-73.85 196,-67 204.58,-64.57 213.74,-62.19 222.68,-59.99"/>
<polygon fill="midnightblue" stroke="midnightblue" points="223.75,-63.33 232.64,-57.58 222.1,-56.53 223.75,-63.33"/>
</g>
<!-- Node7 -->
<g id="node7" class="node">
<title>Node7</title>
<g id="a_node7"><a xlink:href="../../df/db5/a01158.html#a836e60a9058e50764b67efa7bf911fd4" target="_top" xlink:title=" ">
<polygon fill="none" stroke="black" points="201,-0.5 201,-19.5 353,-19.5 353,-0.5 201,-0.5"/>
<text text-anchor="middle" x="277" y="-7.5" font-family="Helvetica,sans-Serif" font-size="10.00">com.cliffc.aa.node.Node.val</text>
</a>
</g>
</g>
<!-- Node1&#45;&gt;Node7 -->
<g id="edge6" class="edge">
<title>Node1&#45;&gt;Node7</title>
<path fill="none" stroke="midnightblue" d="M99.35,-89.9C121.11,-72.71 159.1,-44.97 196,-29 201.76,-26.51 207.9,-24.31 214.12,-22.38"/>
<polygon fill="midnightblue" stroke="midnightblue" points="215.28,-25.69 223.92,-19.56 213.35,-18.96 215.28,-25.69"/>
</g>
<!-- Node8 -->
<g id="node8" class="node">
<title>Node8</title>
<g id="a_node8"><a xlink:href="../../df/db5/a01158.html#a9a46cea187559f94192aa6e09b91c60c" target="_top" xlink:title=" ">
<polygon fill="none" stroke="black" points="394,-0.5 394,-19.5 540,-19.5 540,-0.5 394,-0.5"/>
<text text-anchor="middle" x="467" y="-7.5" font-family="Helvetica,sans-Serif" font-size="10.00">com.cliffc.aa.node.Node.in</text>
</a>
</g>
</g>
<!-- Node7&#45;&gt;Node8 -->
<g id="edge7" class="edge">
<title>Node7&#45;&gt;Node8</title>
<path fill="none" stroke="midnightblue" d="M353.11,-10C363.16,-10 373.51,-10 383.67,-10"/>
<polygon fill="midnightblue" stroke="midnightblue" points="383.76,-13.5 393.76,-10 383.76,-6.5 383.76,-13.5"/>
</g>
</g>
</svg>
