<?xml version="1.0" encoding="UTF-8" standalone="no"?>
<!DOCTYPE svg PUBLIC "-//W3C//DTD SVG 1.1//EN"
 "http://www.w3.org/Graphics/SVG/1.1/DTD/svg11.dtd">
<!-- Generated by graphviz version 2.43.0 (0)
 -->
<!-- Title: com.cliffc.aa.type.Types.ts Pages: 1 -->
<!--zoomable 634 -->
<svg id="main" version="1.1" xmlns="http://www.w3.org/2000/svg" xmlns:xlink="http://www.w3.org/1999/xlink" xml:space="preserve" onload="init(evt)">
<style type="text/css"><![CDATA[
.edge:hover path { stroke: red; }
.edge:hover polygon { stroke: red; fill: red; }
]]></style>
<script type="text/javascript"><![CDATA[
var edges = document.getElementsByTagName('g');
if (edges && edges.length) {
  for (var i=0;i<edges.length;i++) {
    if (edges[i].id.substr(0,4)=='edge') {
      edges[i].setAttribute('class','edge');
    }
  }
}
]]></script>
        <defs>
                <circle id="rim" cx="0" cy="0" r="7"/>
                <circle id="rim2" cx="0" cy="0" r="3.5"/>
                <g id="zoomPlus">
                        <use xlink:href="#rim" fill="#404040">
                                <set attributeName="fill" to="#808080" begin="zoomplus.mouseover" end="zoomplus.mouseout"/>
                        </use>
                        <path d="M-4,0h8M0,-4v8" fill="none" stroke="white" stroke-width="1.5" pointer-events="none"/>
                </g>
                <g id="zoomMin">
                        <use xlink:href="#rim" fill="#404040">
                                <set attributeName="fill" to="#808080" begin="zoomminus.mouseover" end="zoomminus.mouseout"/>
                        </use>
                        <path d="M-4,0h8" fill="none" stroke="white" stroke-width="1.5" pointer-events="none"/>
                </g>
                <g id="dirArrow">
                        <path fill="none" stroke="white" stroke-width="1.5" d="M0,-3.0v7 M-2.5,-0.5L0,-3.0L2.5,-0.5"/>
                </g>
               <g id="resetDef">
                       <use xlink:href="#rim2" fill="#404040">
                               <set attributeName="fill" to="#808080" begin="reset.mouseover" end="reset.mouseout"/>
                       </use>
               </g>
        </defs>

<script type="text/javascript">
var viewWidth = 1938;
var viewHeight = 634;
var sectionId = 'dynsection-20';
</script>
<script xlink:href="../../svgpan.js"/>
<svg id="graph" class="graph">
<g id="viewport">
<title>com.cliffc.aa.type.Types.ts</title>
<!-- Node1 -->
<g id="node1" class="node">
<title>Node1</title>
<g id="a_node1"><a xlink:title=" ">
<polygon fill="#bfbfbf" stroke="black" points="1784,-300.5 1784,-319.5 1930,-319.5 1930,-300.5 1784,-300.5"/>
<text text-anchor="middle" x="1857" y="-307.5" font-family="Helvetica,sans-Serif" font-size="10.00">com.cliffc.aa.type.Types.ts</text>
</a>
</g>
</g>
<!-- Node2 -->
<g id="node2" class="node">
<title>Node2</title>
<g id="a_node2"><a xlink:href="../../dc/d47/a01510.html#af5da3c6edb2034fd4b37896c04f8b910" target="_top" xlink:title=" ">
<polygon fill="none" stroke="black" points="1356,-483.5 1356,-502.5 1527,-502.5 1527,-483.5 1356,-483.5"/>
<text text-anchor="middle" x="1441.5" y="-490.5" font-family="Helvetica,sans-Serif" font-size="10.00">com.cliffc.aa.type.Types.check_</text>
</a>
</g>
</g>
<!-- Node1&#45;&gt;Node2 -->
<g id="edge1" class="edge">
<title>Node1&#45;&gt;Node2</title>
<path fill="none" stroke="midnightblue" d="M1849.77,-329.4C1837.11,-365.24 1804.67,-441.16 1748,-474 1667.54,-520.63 1554.32,-512.39 1490.73,-502.5"/>
<polygon fill="midnightblue" stroke="midnightblue" points="1853.18,-330.25 1853.07,-319.66 1846.54,-328.01 1853.18,-330.25"/>
</g>
<!-- Node3 -->
<g id="node3" class="node">
<title>Node3</title>
<g id="a_node3"><a xlink:href="../../dc/d47/a01510.html#a32afa8e2041f9a7e23aaa00de0e0f57f" target="_top" xlink:title=" ">
<polygon fill="none" stroke="black" points="918.5,-559.5 918.5,-578.5 1082.5,-578.5 1082.5,-559.5 918.5,-559.5"/>
<text text-anchor="middle" x="1000.5" y="-566.5" font-family="Helvetica,sans-Serif" font-size="10.00">com.cliffc.aa.type.Types.clone</text>
</a>
</g>
</g>
<!-- Node1&#45;&gt;Node3 -->
<g id="edge2" class="edge">
<title>Node1&#45;&gt;Node3</title>
<path fill="none" stroke="midnightblue" d="M1853.17,-329.88C1845.57,-375.08 1820.12,-485.34 1748,-533 1515.81,-686.45 1148.63,-608.03 1035.69,-578.57"/>
<polygon fill="midnightblue" stroke="midnightblue" points="1856.65,-330.29 1854.74,-319.86 1849.73,-329.2 1856.65,-330.29"/>
</g>
<!-- Node15 -->
<g id="node15" class="node">
<title>Node15</title>
<g id="a_node15"><a xlink:href="../../dc/d47/a01510.html#a8d02f3b2b5a08d6a5f2a03a19836b00c" target="_top" xlink:title=" ">
<polygon fill="none" stroke="black" points="1569.5,-281.5 1569.5,-300.5 1741.5,-300.5 1741.5,-281.5 1569.5,-281.5"/>
<text text-anchor="middle" x="1655.5" y="-288.5" font-family="Helvetica,sans-Serif" font-size="10.00">com.cliffc.aa.type.Types.copyOf</text>
</a>
</g>
</g>
<!-- Node1&#45;&gt;Node15 -->
<g id="edge15" class="edge">
<title>Node1&#45;&gt;Node15</title>
<path fill="none" stroke="midnightblue" d="M1773.88,-302.18C1763.25,-301.17 1752.35,-300.13 1741.67,-299.11"/>
<polygon fill="midnightblue" stroke="midnightblue" points="1773.69,-305.68 1783.98,-303.14 1774.35,-298.71 1773.69,-305.68"/>
</g>
<!-- Node16 -->
<g id="node16" class="node">
<title>Node16</title>
<g id="a_node16"><a xlink:href="../../d7/d22/a01514.html#a472608d3f8b1dee79b0d4c44f005911f" target="_top" xlink:title=" ">
<polygon fill="none" stroke="black" points="1157.5,-336 1157.5,-366 1294.5,-366 1294.5,-336 1157.5,-336"/>
<text text-anchor="start" x="1165.5" y="-354" font-family="Helvetica,sans-Serif" font-size="10.00">com.cliffc.aa.type.Types.</text>
<text text-anchor="middle" x="1226" y="-343" font-family="Helvetica,sans-Serif" font-size="10.00">Key.equals</text>
</a>
</g>
</g>
<!-- Node1&#45;&gt;Node16 -->
<g id="edge16" class="edge">
<title>Node1&#45;&gt;Node16</title>
<path fill="none" stroke="midnightblue" d="M1773.51,-315.38C1647.79,-323.57 1410.62,-339.03 1294.5,-346.6"/>
<polygon fill="midnightblue" stroke="midnightblue" points="1774.09,-318.85 1783.85,-314.7 1773.64,-311.86 1774.09,-318.85"/>
</g>
<!-- Node17 -->
<g id="node17" class="node">
<title>Node17</title>
<g id="a_node17"><a xlink:href="../../dc/d47/a01510.html#aed4c40d793050ae3c07f51238679c054" target="_top" xlink:title=" ">
<polygon fill="none" stroke="black" points="1577,-243.5 1577,-262.5 1734,-262.5 1734,-243.5 1577,-243.5"/>
<text text-anchor="middle" x="1655.5" y="-250.5" font-family="Helvetica,sans-Serif" font-size="10.00">com.cliffc.aa.type.Types.free</text>
</a>
</g>
</g>
<!-- Node1&#45;&gt;Node17 -->
<g id="edge17" class="edge">
<title>Node1&#45;&gt;Node17</title>
<path fill="none" stroke="midnightblue" d="M1822.36,-296.86C1801.23,-288.93 1773.29,-279.04 1748,-272 1735.34,-268.48 1721.53,-265.28 1708.57,-262.56"/>
<polygon fill="midnightblue" stroke="midnightblue" points="1821.26,-300.18 1831.85,-300.46 1823.74,-293.64 1821.26,-300.18"/>
</g>
<!-- Node18 -->
<g id="node18" class="node">
<title>Node18</title>
<g id="a_node18"><a xlink:href="../../d7/d22/a01514.html#aafe283d43283761a4753805b70c4b07a" target="_top" xlink:title=" ">
<polygon fill="none" stroke="black" points="1587,-434 1587,-464 1724,-464 1724,-434 1587,-434"/>
<text text-anchor="start" x="1595" y="-452" font-family="Helvetica,sans-Serif" font-size="10.00">com.cliffc.aa.type.Types.</text>
<text text-anchor="middle" x="1655.5" y="-441" font-family="Helvetica,sans-Serif" font-size="10.00">Key.hash</text>
</a>
</g>
</g>
<!-- Node1&#45;&gt;Node18 -->
<g id="edge18" class="edge">
<title>Node1&#45;&gt;Node18</title>
<path fill="none" stroke="midnightblue" d="M1842.78,-327.87C1824.16,-351.86 1787.99,-394.29 1748,-419 1738.33,-424.97 1727.34,-429.89 1716.41,-433.89"/>
<polygon fill="midnightblue" stroke="midnightblue" points="1845.76,-329.74 1849.03,-319.66 1840.19,-325.5 1845.76,-329.74"/>
</g>
<!-- Node19 -->
<g id="node19" class="node">
<title>Node19</title>
<g id="a_node19"><a xlink:href="../../dc/d47/a01510.html#a6aa41fc18dbf7ed9b38b68240bc797ed" target="_top" xlink:title=" ">
<polygon fill="none" stroke="black" points="1361,-434 1361,-464 1522,-464 1522,-434 1361,-434"/>
<text text-anchor="start" x="1369" y="-452" font-family="Helvetica,sans-Serif" font-size="10.00">com.cliffc.aa.type.Types.hash</text>
<text text-anchor="middle" x="1441.5" y="-441" font-family="Helvetica,sans-Serif" font-size="10.00">_cons_</text>
</a>
</g>
</g>
<!-- Node1&#45;&gt;Node19 -->
<g id="edge33" class="edge">
<title>Node1&#45;&gt;Node19</title>
<path fill="none" stroke="midnightblue" d="M1832.09,-324.95C1810.71,-337.8 1778.18,-356.09 1748,-368 1672.21,-397.92 1581.55,-420.38 1518.77,-433.97"/>
<polygon fill="midnightblue" stroke="midnightblue" points="1834.09,-327.83 1840.81,-319.64 1830.45,-321.85 1834.09,-327.83"/>
</g>
<!-- Node20 -->
<g id="node20" class="node">
<title>Node20</title>
<g id="a_node20"><a xlink:href="../../dc/d47/a01510.html#aeb95b59869f5978b8c19ba7f371f2502" target="_top" xlink:title=" ">
<polygon fill="none" stroke="black" points="1132,-499.5 1132,-518.5 1320,-518.5 1320,-499.5 1132,-499.5"/>
<text text-anchor="middle" x="1226" y="-506.5" font-family="Helvetica,sans-Serif" font-size="10.00">com.cliffc.aa.type.Types.hash_cons</text>
</a>
</g>
</g>
<!-- Node1&#45;&gt;Node20 -->
<g id="edge32" class="edge">
<title>Node1&#45;&gt;Node20</title>
<path fill="none" stroke="midnightblue" d="M1851.98,-329.55C1842.33,-370.75 1813.65,-466.01 1748,-506 1676.59,-549.5 1436.61,-531.74 1308.77,-518.51"/>
<polygon fill="midnightblue" stroke="midnightblue" points="1855.42,-330.18 1854.16,-319.66 1848.59,-328.67 1855.42,-330.18"/>
</g>
<!-- Node26 -->
<g id="node26" class="node">
<title>Node26</title>
<g id="a_node26"><a xlink:href="../../d7/d22/a01514.html#a25a11e4310b7a7f7f8cafd669051cca0" target="_top" xlink:title=" ">
<polygon fill="none" stroke="black" points="1373,-358 1373,-388 1510,-388 1510,-358 1373,-358"/>
<text text-anchor="start" x="1381" y="-376" font-family="Helvetica,sans-Serif" font-size="10.00">com.cliffc.aa.type.Types.</text>
<text text-anchor="middle" x="1441.5" y="-365" font-family="Helvetica,sans-Serif" font-size="10.00">Key.Key</text>
</a>
</g>
</g>
<!-- Node1&#45;&gt;Node26 -->
<g id="edge34" class="edge">
<title>Node1&#45;&gt;Node26</title>
<path fill="none" stroke="midnightblue" d="M1820.06,-322.95C1799.27,-329.94 1772.45,-338.11 1748,-343 1667.13,-359.16 1572.4,-366.74 1510.11,-370.22"/>
<polygon fill="midnightblue" stroke="midnightblue" points="1821.42,-326.18 1829.75,-319.63 1819.15,-319.56 1821.42,-326.18"/>
</g>
<!-- Node27 -->
<g id="node27" class="node">
<title>Node27</title>
<g id="a_node27"><a xlink:href="../../da/d36/a01482.html#a62350f538aaa3713c8e8a3c3c79775bb" target="_top" xlink:title=" ">
<polygon fill="none" stroke="black" points="1582.5,-176 1582.5,-206 1728.5,-206 1728.5,-176 1582.5,-176"/>
<text text-anchor="start" x="1590.5" y="-194" font-family="Helvetica,sans-Serif" font-size="10.00">com.cliffc.aa.type.TypeFun</text>
<text text-anchor="middle" x="1655.5" y="-183" font-family="Helvetica,sans-Serif" font-size="10.00">Sig.make</text>
</a>
</g>
</g>
<!-- Node1&#45;&gt;Node27 -->
<g id="edge35" class="edge">
<title>Node1&#45;&gt;Node27</title>
<path fill="none" stroke="midnightblue" d="M1835.89,-294.25C1814.71,-278.05 1780.06,-252.62 1748,-234 1730.24,-223.68 1709.6,-213.82 1692.43,-206.14"/>
<polygon fill="midnightblue" stroke="midnightblue" points="1833.78,-297.04 1843.83,-300.37 1838.05,-291.5 1833.78,-297.04"/>
</g>
<!-- Node28 -->
<g id="node28" class="node">
<title>Node28</title>
<g id="a_node28"><a xlink:href="../../d7/d90/a01530.html#ad15acf31da32b503e19e3265466c566a" target="_top" xlink:title=" ">
<polygon fill="none" stroke="black" points="1563,-137.5 1563,-156.5 1748,-156.5 1748,-137.5 1563,-137.5"/>
<text text-anchor="middle" x="1655.5" y="-144.5" font-family="Helvetica,sans-Serif" font-size="10.00">com.cliffc.aa.type.TypeTuple.make</text>
</a>
</g>
</g>
<!-- Node1&#45;&gt;Node28 -->
<g id="edge37" class="edge">
<title>Node1&#45;&gt;Node28</title>
<path fill="none" stroke="midnightblue" d="M1847.41,-291.02C1832.17,-259.65 1797.29,-197.32 1748,-166 1741.97,-162.17 1735.32,-159.1 1728.42,-156.63"/>
<polygon fill="midnightblue" stroke="midnightblue" points="1844.39,-292.83 1851.82,-300.39 1850.73,-289.85 1844.39,-292.83"/>
</g>
<!-- Node29 -->
<g id="node29" class="node">
<title>Node29</title>
<g id="a_node29"><a xlink:href="../../d4/d8e/a01694.html#a0047bc5cd2ee14b1d3822a5969bc0502" target="_top" xlink:title=" ">
<polygon fill="none" stroke="black" points="1578.5,-88 1578.5,-118 1732.5,-118 1732.5,-88 1578.5,-88"/>
<text text-anchor="start" x="1586.5" y="-106" font-family="Helvetica,sans-Serif" font-size="10.00">com.cliffc.aa.node.TestNode</text>
<text text-anchor="middle" x="1655.5" y="-95" font-family="Helvetica,sans-Serif" font-size="10.00">Small.testRecursiveDisplay</text>
</a>
</g>
</g>
<!-- Node1&#45;&gt;Node29 -->
<g id="edge38" class="edge">
<title>Node1&#45;&gt;Node29</title>
<path fill="none" stroke="midnightblue" d="M1850.02,-290.67C1837.44,-253.32 1804.66,-171.16 1748,-128 1742.89,-124.11 1737.22,-120.82 1731.26,-118.05"/>
<polygon fill="midnightblue" stroke="midnightblue" points="1846.74,-291.9 1853.15,-300.33 1853.39,-289.74 1846.74,-291.9"/>
</g>
<!-- Node30 -->
<g id="node30" class="node">
<title>Node30</title>
<g id="a_node30"><a xlink:href="../../d5/d29/a01722.html#a5da075784fbe0fe7a3419e526f1a907b" target="_top" xlink:title=" ">
<polygon fill="none" stroke="black" points="1570.5,-39 1570.5,-69 1740.5,-69 1740.5,-39 1570.5,-39"/>
<text text-anchor="start" x="1578.5" y="-57" font-family="Helvetica,sans-Serif" font-size="10.00">com.cliffc.aa.type.TestType.test</text>
<text text-anchor="middle" x="1655.5" y="-46" font-family="Helvetica,sans-Serif" font-size="10.00">StructTuple</text>
</a>
</g>
</g>
<!-- Node1&#45;&gt;Node30 -->
<g id="edge39" class="edge">
<title>Node1&#45;&gt;Node30</title>
<path fill="none" stroke="midnightblue" d="M1852.67,-290.38C1844.02,-245.58 1816.53,-135.23 1748,-78 1743.97,-74.63 1739.51,-71.73 1734.8,-69.23"/>
<polygon fill="midnightblue" stroke="midnightblue" points="1849.24,-291.08 1854.48,-300.29 1856.13,-289.82 1849.24,-291.08"/>
</g>
<!-- Node31 -->
<g id="node31" class="node">
<title>Node31</title>
<g id="a_node31"><a xlink:href="../../dc/d47/a01510.html#abc49fed1e4c08e73c81b8a77c5ed0952" target="_top" xlink:title=" ">
<polygon fill="none" stroke="black" points="1582.5,-0.5 1582.5,-19.5 1728.5,-19.5 1728.5,-0.5 1582.5,-0.5"/>
<text text-anchor="middle" x="1655.5" y="-7.5" font-family="Helvetica,sans-Serif" font-size="10.00">com.cliffc.aa.type.Types.ts</text>
</a>
</g>
</g>
<!-- Node1&#45;&gt;Node31 -->
<g id="edge40" class="edge">
<title>Node1&#45;&gt;Node31</title>
<path fill="none" stroke="midnightblue" d="M1854.67,-290.3C1850.06,-238.71 1830.2,-98.84 1748,-29 1742.31,-24.17 1735.71,-20.46 1728.72,-17.62"/>
<polygon fill="midnightblue" stroke="midnightblue" points="1851.19,-290.73 1855.47,-300.42 1858.17,-290.18 1851.19,-290.73"/>
</g>
<!-- Node4 -->
<g id="node4" class="node">
<title>Node4</title>
<g id="a_node4"><a xlink:href="../../d7/d90/a01530.html#aa115d1c70c99d5cdae85cdd15192f3fc" target="_top" xlink:title=" ">
<polygon fill="none" stroke="black" points="672,-475 672,-505 857,-505 857,-475 672,-475"/>
<text text-anchor="start" x="680" y="-493" font-family="Helvetica,sans-Serif" font-size="10.00">com.cliffc.aa.type.TypeTuple.make</text>
<text text-anchor="middle" x="764.5" y="-482" font-family="Helvetica,sans-Serif" font-size="10.00">_from_arg</text>
</a>
</g>
</g>
<!-- Node3&#45;&gt;Node4 -->
<g id="edge3" class="edge">
<title>Node3&#45;&gt;Node4</title>
<path fill="none" stroke="midnightblue" d="M928.73,-556.65C920.51,-554.02 912.42,-550.84 905,-547 885.99,-537.16 887.97,-524.92 869,-515 861.55,-511.1 853.47,-507.8 845.24,-505.01"/>
<polygon fill="midnightblue" stroke="midnightblue" points="927.84,-560.03 938.42,-559.49 929.81,-553.31 927.84,-560.03"/>
</g>
<!-- Node7 -->
<g id="node7" class="node">
<title>Node7</title>
<g id="a_node7"><a xlink:href="../../d7/d90/a01530.html#afdb0c721dcb5d61796e0d9a83ac39fac" target="_top" xlink:title=" ">
<polygon fill="none" stroke="black" points="678,-600.5 678,-619.5 851,-619.5 851,-600.5 678,-600.5"/>
<text text-anchor="middle" x="764.5" y="-607.5" font-family="Helvetica,sans-Serif" font-size="10.00">com.cliffc.aa.type.TypeTuple.set</text>
</a>
</g>
</g>
<!-- Node3&#45;&gt;Node7 -->
<g id="edge6" class="edge">
<title>Node3&#45;&gt;Node7</title>
<path fill="none" stroke="midnightblue" d="M935.26,-580.26C899.06,-586.6 854.34,-594.43 819.88,-600.47"/>
<polygon fill="midnightblue" stroke="midnightblue" points="935.98,-583.68 945.23,-578.51 934.77,-576.79 935.98,-583.68"/>
</g>
<!-- Node11 -->
<g id="node11" class="node">
<title>Node11</title>
<g id="a_node11"><a xlink:href="../../d7/d90/a01530.html#acb83167a9887d8a9b8f47c6d965c0f6b" target="_top" xlink:title=" ">
<polygon fill="none" stroke="black" points="668.5,-524.5 668.5,-543.5 860.5,-543.5 860.5,-524.5 668.5,-524.5"/>
<text text-anchor="middle" x="764.5" y="-531.5" font-family="Helvetica,sans-Serif" font-size="10.00">com.cliffc.aa.type.TypeTuple.sharptr</text>
</a>
</g>
</g>
<!-- Node3&#45;&gt;Node11 -->
<g id="edge10" class="edge">
<title>Node3&#45;&gt;Node11</title>
<path fill="none" stroke="midnightblue" d="M925.96,-558C894.88,-553.35 859.04,-547.99 829.12,-543.52"/>
<polygon fill="midnightblue" stroke="midnightblue" points="925.46,-561.46 935.87,-559.48 926.5,-554.54 925.46,-561.46"/>
</g>
<!-- Node14 -->
<g id="node14" class="node">
<title>Node14</title>
<g id="a_node14"><a xlink:href="../../d7/d90/a01530.html#a8ff61a18f26a1e7bd98d61037b5b662c" target="_top" xlink:title=" ">
<polygon fill="none" stroke="black" points="660,-562.5 660,-581.5 869,-581.5 869,-562.5 660,-562.5"/>
<text text-anchor="middle" x="764.5" y="-569.5" font-family="Helvetica,sans-Serif" font-size="10.00">com.cliffc.aa.type.TypeTuple.simple_ptr</text>
</a>
</g>
</g>
<!-- Node3&#45;&gt;Node14 -->
<g id="edge14" class="edge">
<title>Node3&#45;&gt;Node14</title>
<path fill="none" stroke="midnightblue" d="M908.17,-570.17C895.4,-570.33 882.19,-570.5 869.21,-570.67"/>
<polygon fill="midnightblue" stroke="midnightblue" points="908.36,-573.67 918.31,-570.04 908.27,-566.67 908.36,-573.67"/>
</g>
<!-- Node5 -->
<g id="node5" class="node">
<title>Node5</title>
<g id="a_node5"><a xlink:href="../../da/d36/a01482.html#a65e30942a34f65ca832cf3fa26607bb5" target="_top" xlink:title=" ">
<polygon fill="none" stroke="black" points="454,-473 454,-503 600,-503 600,-473 454,-473"/>
<text text-anchor="start" x="462" y="-491" font-family="Helvetica,sans-Serif" font-size="10.00">com.cliffc.aa.type.TypeFun</text>
<text text-anchor="middle" x="527" y="-480" font-family="Helvetica,sans-Serif" font-size="10.00">Sig.make_from_arg</text>
</a>
</g>
</g>
<!-- Node4&#45;&gt;Node5 -->
<g id="edge4" class="edge">
<title>Node4&#45;&gt;Node5</title>
<path fill="none" stroke="midnightblue" d="M661.67,-489.14C640.96,-488.96 619.58,-488.78 600.16,-488.61"/>
<polygon fill="midnightblue" stroke="midnightblue" points="661.75,-492.64 671.78,-489.22 661.81,-485.64 661.75,-492.64"/>
</g>
<!-- Node6 -->
<g id="node6" class="node">
<title>Node6</title>
<g id="a_node6"><a xlink:href="../../d9/d8e/a01050.html#aaa85753bc2e8e1651099300cbe0ac7c2" target="_top" xlink:title=" ">
<polygon fill="none" stroke="black" points="215,-472 215,-502 394,-502 394,-472 215,-472"/>
<text text-anchor="start" x="223" y="-490" font-family="Helvetica,sans-Serif" font-size="10.00">com.cliffc.aa.node.FunNode.ideal</text>
<text text-anchor="middle" x="304.5" y="-479" font-family="Helvetica,sans-Serif" font-size="10.00">_reduce</text>
</a>
</g>
</g>
<!-- Node5&#45;&gt;Node6 -->
<g id="edge5" class="edge">
<title>Node5&#45;&gt;Node6</title>
<path fill="none" stroke="midnightblue" d="M443.36,-487.63C427.26,-487.55 410.32,-487.48 394.03,-487.4"/>
<polygon fill="midnightblue" stroke="midnightblue" points="443.78,-491.13 453.8,-487.67 443.82,-484.13 443.78,-491.13"/>
</g>
<!-- Node8 -->
<g id="node8" class="node">
<title>Node8</title>
<g id="a_node8"><a xlink:href="../../d0/d2b/a01010.html#a5b26c9d82d82727a97ff800c29589dd9" target="_top" xlink:title=" ">
<polygon fill="none" stroke="black" points="430,-600.5 430,-619.5 624,-619.5 624,-600.5 430,-600.5"/>
<text text-anchor="middle" x="527" y="-607.5" font-family="Helvetica,sans-Serif" font-size="10.00">com.cliffc.aa.node.CallNode.set_ttfp</text>
</a>
</g>
</g>
<!-- Node7&#45;&gt;Node8 -->
<g id="edge7" class="edge">
<title>Node7&#45;&gt;Node8</title>
<path fill="none" stroke="midnightblue" d="M667.54,-610C653.3,-610 638.63,-610 624.39,-610"/>
<polygon fill="midnightblue" stroke="midnightblue" points="667.81,-613.5 677.81,-610 667.81,-606.5 667.81,-613.5"/>
</g>
<!-- Node9 -->
<g id="node9" class="node">
<title>Node9</title>
<g id="a_node9"><a xlink:href="../../d9/d8e/a01050.html#a0ef60478ee30510481eb33dc87069b2a" target="_top" xlink:title=" ">
<polygon fill="none" stroke="black" points="216.5,-595 216.5,-625 392.5,-625 392.5,-595 216.5,-595"/>
<text text-anchor="start" x="224.5" y="-613" font-family="Helvetica,sans-Serif" font-size="10.00">com.cliffc.aa.node.FunNode.split</text>
<text text-anchor="middle" x="304.5" y="-602" font-family="Helvetica,sans-Serif" font-size="10.00">_callers</text>
</a>
</g>
</g>
<!-- Node8&#45;&gt;Node9 -->
<g id="edge8" class="edge">
<title>Node8&#45;&gt;Node9</title>
<path fill="none" stroke="midnightblue" d="M419.7,-610C410.61,-610 401.49,-610 392.59,-610"/>
<polygon fill="midnightblue" stroke="midnightblue" points="419.93,-613.5 429.93,-610 419.93,-606.5 419.93,-613.5"/>
</g>
<!-- Node10 -->
<g id="node10" class="node">
<title>Node10</title>
<g id="a_node10"><a xlink:href="../../d9/d8e/a01050.html#a35a8d77a634141d969d902a346af2000" target="_top" xlink:title=" ">
<polygon fill="none" stroke="black" points="0,-595 0,-625 179,-625 179,-595 0,-595"/>
<text text-anchor="start" x="8" y="-613" font-family="Helvetica,sans-Serif" font-size="10.00">com.cliffc.aa.node.FunNode.ideal</text>
<text text-anchor="middle" x="89.5" y="-602" font-family="Helvetica,sans-Serif" font-size="10.00">_inline</text>
</a>
</g>
</g>
<!-- Node9&#45;&gt;Node10 -->
<g id="edge9" class="edge">
<title>Node9&#45;&gt;Node10</title>
<path fill="none" stroke="midnightblue" d="M206.2,-610C197.25,-610 188.21,-610 179.34,-610"/>
<polygon fill="midnightblue" stroke="midnightblue" points="206.25,-613.5 216.25,-610 206.25,-606.5 206.25,-613.5"/>
</g>
<!-- Node12 -->
<g id="node12" class="node">
<title>Node12</title>
<g id="a_node12"><a xlink:href="../../d6/d51/a01494.html#ae434c7b538095991a82c26e058b2bed3" target="_top" xlink:title=" ">
<polygon fill="none" stroke="black" points="431.5,-524.5 431.5,-543.5 622.5,-543.5 622.5,-524.5 431.5,-524.5"/>
<text text-anchor="middle" x="527" y="-531.5" font-family="Helvetica,sans-Serif" font-size="10.00">com.cliffc.aa.type.TypeMem.sharptr</text>
</a>
</g>
</g>
<!-- Node11&#45;&gt;Node12 -->
<g id="edge11" class="edge">
<title>Node11&#45;&gt;Node12</title>
<path fill="none" stroke="midnightblue" d="M658.09,-527.28C646.3,-527.22 634.34,-527.25 622.7,-527.37"/>
<polygon fill="midnightblue" stroke="midnightblue" points="658.37,-530.79 668.39,-527.36 658.42,-523.79 658.37,-530.79"/>
</g>
<!-- Node12&#45;&gt;Node11 -->
<g id="edge12" class="edge">
<title>Node12&#45;&gt;Node11</title>
<path fill="none" stroke="midnightblue" d="M633,-540.71C644.78,-540.78 656.74,-540.75 668.39,-540.64"/>
<polygon fill="midnightblue" stroke="midnightblue" points="632.72,-537.21 622.7,-540.63 632.67,-544.21 632.72,-537.21"/>
</g>
<!-- Node13 -->
<g id="node13" class="node">
<title>Node13</title>
<g id="a_node13"><a xlink:href="../../d0/de2/a01442.html#a73035500b9adc5f4821408e88177f1c7" target="_top" xlink:title=" ">
<polygon fill="none" stroke="black" points="240,-521 240,-551 369,-551 369,-521 240,-521"/>
<text text-anchor="start" x="248" y="-539" font-family="Helvetica,sans-Serif" font-size="10.00">com.cliffc.aa.type.Type</text>
<text text-anchor="middle" x="304.5" y="-528" font-family="Helvetica,sans-Serif" font-size="10.00">&lt; TypeFlt &gt;::sharptr</text>
</a>
</g>
</g>
<!-- Node12&#45;&gt;Node13 -->
<g id="edge13" class="edge">
<title>Node12&#45;&gt;Node13</title>
<path fill="none" stroke="midnightblue" d="M420.82,-534.95C403.12,-535.11 385.24,-535.28 369.02,-535.42"/>
<polygon fill="midnightblue" stroke="midnightblue" points="421.24,-538.45 431.21,-534.86 421.18,-531.45 421.24,-538.45"/>
</g>
<!-- Node18&#45;&gt;Node2 -->
<g id="edge19" class="edge">
<title>Node18&#45;&gt;Node2</title>
<path fill="none" stroke="midnightblue" d="M1576.9,-465.11C1547.19,-471.27 1514.27,-478.1 1488.44,-483.46"/>
<polygon fill="midnightblue" stroke="midnightblue" points="1577.76,-468.5 1586.84,-463.04 1576.34,-461.65 1577.76,-468.5"/>
</g>
<!-- Node18&#45;&gt;Node19 -->
<g id="edge20" class="edge">
<title>Node18&#45;&gt;Node19</title>
<path fill="none" stroke="midnightblue" d="M1576.54,-449C1558.79,-449 1539.91,-449 1522.09,-449"/>
<polygon fill="midnightblue" stroke="midnightblue" points="1576.84,-452.5 1586.84,-449 1576.84,-445.5 1576.84,-452.5"/>
</g>
<!-- Node18&#45;&gt;Node26 -->
<g id="edge30" class="edge">
<title>Node18&#45;&gt;Node26</title>
<path fill="none" stroke="midnightblue" d="M1603.18,-430.6C1566.86,-417.58 1518.74,-400.33 1484.66,-388.11"/>
<polygon fill="midnightblue" stroke="midnightblue" points="1602.02,-433.9 1612.62,-433.98 1604.38,-427.32 1602.02,-433.9"/>
</g>
<!-- Node19&#45;&gt;Node20 -->
<g id="edge21" class="edge">
<title>Node19&#45;&gt;Node20</title>
<path fill="none" stroke="midnightblue" d="M1376.93,-466.87C1338.87,-477.56 1292.02,-490.73 1260.92,-499.47"/>
<polygon fill="midnightblue" stroke="midnightblue" points="1378.22,-470.14 1386.9,-464.06 1376.33,-463.4 1378.22,-470.14"/>
</g>
<!-- Node21 -->
<g id="node21" class="node">
<title>Node21</title>
<g id="a_node21"><a xlink:href="../../d7/d90/a01530.html#a81ed2204609a5aec7317ef0a06ce8429" target="_top" xlink:title=" ">
<polygon fill="none" stroke="black" points="905,-480.5 905,-499.5 1096,-499.5 1096,-480.5 905,-480.5"/>
<text text-anchor="middle" x="1000.5" y="-487.5" font-family="Helvetica,sans-Serif" font-size="10.00">com.cliffc.aa.type.TypeTuple.make0</text>
</a>
</g>
</g>
<!-- Node20&#45;&gt;Node21 -->
<g id="edge22" class="edge">
<title>Node20&#45;&gt;Node21</title>
<path fill="none" stroke="midnightblue" d="M1121.6,-500.21C1113.17,-499.49 1104.68,-498.77 1096.31,-498.06"/>
<polygon fill="midnightblue" stroke="midnightblue" points="1121.57,-503.72 1131.83,-501.08 1122.17,-496.75 1121.57,-503.72"/>
</g>
<!-- Node25 -->
<g id="node25" class="node">
<title>Node25</title>
<g id="a_node25"><a xlink:href="../../d7/d90/a01530.html#a5ea449b88b4dff0a543bbe5f6449edc7" target="_top" xlink:title=" ">
<polygon fill="none" stroke="black" points="908,-518.5 908,-537.5 1093,-537.5 1093,-518.5 908,-518.5"/>
<text text-anchor="middle" x="1000.5" y="-525.5" font-family="Helvetica,sans-Serif" font-size="10.00">com.cliffc.aa.type.TypeTuple.xdual</text>
</a>
</g>
</g>
<!-- Node20&#45;&gt;Node25 -->
<g id="edge29" class="edge">
<title>Node20&#45;&gt;Node25</title>
<path fill="none" stroke="midnightblue" d="M1121.87,-517.77C1112.26,-518.58 1102.57,-519.41 1093.08,-520.21"/>
<polygon fill="midnightblue" stroke="midnightblue" points="1122.17,-521.25 1131.83,-516.92 1121.57,-514.28 1122.17,-521.25"/>
</g>
<!-- Node21&#45;&gt;Node4 -->
<g id="edge24" class="edge">
<title>Node21&#45;&gt;Node4</title>
<path fill="none" stroke="midnightblue" d="M894.98,-490C882.42,-490 869.67,-490 857.32,-490"/>
<polygon fill="midnightblue" stroke="midnightblue" points="895,-493.5 905,-490 895,-486.5 895,-493.5"/>
</g>
<!-- Node21&#45;&gt;Node11 -->
<g id="edge25" class="edge">
<title>Node21&#45;&gt;Node11</title>
<path fill="none" stroke="midnightblue" d="M940.25,-501.45C917.92,-505.74 892.3,-510.63 869,-515 852.39,-518.12 834.27,-521.46 817.9,-524.46"/>
<polygon fill="midnightblue" stroke="midnightblue" points="941.09,-504.85 950.25,-499.53 939.77,-497.98 941.09,-504.85"/>
</g>
<!-- Node21&#45;&gt;Node14 -->
<g id="edge26" class="edge">
<title>Node21&#45;&gt;Node14</title>
<path fill="none" stroke="midnightblue" d="M916.43,-503.16C912.46,-504.88 908.63,-506.82 905,-509 883.35,-522.03 890.76,-540.15 869,-553 862.47,-556.85 855.34,-559.96 847.97,-562.45"/>
<polygon fill="midnightblue" stroke="midnightblue" points="917.8,-506.38 925.88,-499.53 915.29,-499.85 917.8,-506.38"/>
</g>
<!-- Node22 -->
<g id="node22" class="node">
<title>Node22</title>
<g id="a_node22"><a xlink:href="../../d7/d90/a01530.html#adb520a333a9a12d25eb4d1f5928820e2" target="_top" xlink:title=" ">
<polygon fill="none" stroke="black" points="672,-436.5 672,-455.5 857,-455.5 857,-436.5 672,-436.5"/>
<text text-anchor="middle" x="764.5" y="-443.5" font-family="Helvetica,sans-Serif" font-size="10.00">com.cliffc.aa.type.TypeTuple.make</text>
</a>
</g>
</g>
<!-- Node21&#45;&gt;Node22 -->
<g id="edge23" class="edge">
<title>Node21&#45;&gt;Node22</title>
<path fill="none" stroke="midnightblue" d="M938.78,-478.58C900.7,-471.42 852.18,-462.3 816.18,-455.53"/>
<polygon fill="midnightblue" stroke="midnightblue" points="938.25,-482.04 948.73,-480.45 939.54,-475.16 938.25,-482.04"/>
</g>
<!-- Node23 -->
<g id="node23" class="node">
<title>Node23</title>
<g id="a_node23"><a xlink:href="../../d7/d90/a01530.html#a196275fdd4e4d1cd378fc5b151c6fa6b" target="_top" xlink:title=" ">
<polygon fill="none" stroke="black" points="667,-398.5 667,-417.5 862,-417.5 862,-398.5 667,-398.5"/>
<text text-anchor="middle" x="764.5" y="-405.5" font-family="Helvetica,sans-Serif" font-size="10.00">com.cliffc.aa.type.TypeTuple.xmeet1</text>
</a>
</g>
</g>
<!-- Node21&#45;&gt;Node23 -->
<g id="edge27" class="edge">
<title>Node21&#45;&gt;Node23</title>
<path fill="none" stroke="midnightblue" d="M974.5,-475.42C948.84,-461.07 907.34,-439.52 869,-427 857.28,-423.17 844.54,-420.04 832.14,-417.51"/>
<polygon fill="midnightblue" stroke="midnightblue" points="972.78,-478.47 983.21,-480.36 976.23,-472.38 972.78,-478.47"/>
</g>
<!-- Node24 -->
<g id="node24" class="node">
<title>Node24</title>
<g id="a_node24"><a xlink:href="../../d7/d90/a01530.html#a5c3b94878b58c507bc667637ceefc122" target="_top" xlink:title=" ">
<polygon fill="none" stroke="black" points="432.5,-398.5 432.5,-417.5 621.5,-417.5 621.5,-398.5 432.5,-398.5"/>
<text text-anchor="middle" x="527" y="-405.5" font-family="Helvetica,sans-Serif" font-size="10.00">com.cliffc.aa.type.TypeTuple.xmeet</text>
</a>
</g>
</g>
<!-- Node23&#45;&gt;Node24 -->
<g id="edge28" class="edge">
<title>Node23&#45;&gt;Node24</title>
<path fill="none" stroke="midnightblue" d="M656.55,-408C644.94,-408 633.2,-408 621.77,-408"/>
<polygon fill="midnightblue" stroke="midnightblue" points="656.69,-411.5 666.69,-408 656.69,-404.5 656.69,-411.5"/>
</g>
<!-- Node26&#45;&gt;Node16 -->
<g id="edge31" class="edge">
<title>Node26&#45;&gt;Node16</title>
<path fill="none" stroke="midnightblue" d="M1362.86,-365C1340.58,-362.7 1316.48,-360.22 1294.85,-357.99"/>
<polygon fill="midnightblue" stroke="midnightblue" points="1362.64,-368.5 1372.95,-366.04 1363.36,-361.53 1362.64,-368.5"/>
</g>
<!-- Node27&#45;&gt;Node27 -->
<g id="edge36" class="edge">
<title>Node27&#45;&gt;Node27</title>
<path fill="none" stroke="midnightblue" d="M1691.04,-216.46C1686.63,-221.18 1674.78,-224.5 1655.5,-224.5 1623.86,-224.5 1612.24,-215.56 1620.65,-206.16"/>
<polygon fill="midnightblue" stroke="midnightblue" points="1694.51,-215.91 1690.35,-206.16 1687.52,-216.37 1694.51,-215.91"/>
</g>
</g>
</svg>
        <g id="navigator" transform="translate(0 0)" fill="#404254">
                <rect fill="#f2f5e9" fill-opacity="0.5" stroke="#606060" stroke-width=".5" x="0" y="0" width="60" height="60"/>
                <use id="zoomplus" xlink:href="#zoomPlus" x="17" y="9" onmousedown="handleZoom(evt,'in')"/>
                <use id="zoomminus" xlink:href="#zoomMin" x="42" y="9" onmousedown="handleZoom(evt,'out')"/>
                <use id="reset" xlink:href="#resetDef" x="30" y="36" onmousedown="handleReset()"/>
                <g id="arrowUp" xlink:href="#dirArrow" transform="translate(30 24)" onmousedown="handlePan(0,-1)">
                  <use xlink:href="#rim" fill="#404040">
                        <set attributeName="fill" to="#808080" begin="arrowUp.mouseover" end="arrowUp.mouseout"/>
                  </use>
                  <path fill="none" stroke="white" stroke-width="1.5" d="M0,-3.0v7 M-2.5,-0.5L0,-3.0L2.5,-0.5"/>
                </g>
                <g id="arrowRight" xlink:href="#dirArrow" transform="rotate(90) translate(36 -43)" onmousedown="handlePan(1,0)">
                  <use xlink:href="#rim" fill="#404040">
                        <set attributeName="fill" to="#808080" begin="arrowRight.mouseover" end="arrowRight.mouseout"/>
                  </use>
                  <path fill="none" stroke="white" stroke-width="1.5" d="M0,-3.0v7 M-2.5,-0.5L0,-3.0L2.5,-0.5"/>
                </g>
                <g id="arrowDown" xlink:href="#dirArrow" transform="rotate(180) translate(-30 -48)" onmousedown="handlePan(0,1)">
                  <use xlink:href="#rim" fill="#404040">
                        <set attributeName="fill" to="#808080" begin="arrowDown.mouseover" end="arrowDown.mouseout"/>
                  </use>
                  <path fill="none" stroke="white" stroke-width="1.5" d="M0,-3.0v7 M-2.5,-0.5L0,-3.0L2.5,-0.5"/>
                </g>
                <g id="arrowLeft" xlink:href="#dirArrow" transform="rotate(270) translate(-36 17)" onmousedown="handlePan(-1,0)">
                  <use xlink:href="#rim" fill="#404040">
                        <set attributeName="fill" to="#808080" begin="arrowLeft.mouseover" end="arrowLeft.mouseout"/>
                  </use>
                  <path fill="none" stroke="white" stroke-width="1.5" d="M0,-3.0v7 M-2.5,-0.5L0,-3.0L2.5,-0.5"/>
                </g>
        </g>
        <svg viewBox="0 0 15 15" width="100%" height="30px" preserveAspectRatio="xMaxYMin meet">
         <g id="arrow_out" transform="scale(0.3 0.3)">
          <a xlink:href="a01510_aa115d584cb2586147c60f206d002d611_icgraph_org.svg" target="_base">
           <rect id="button" ry="5" rx="5" y="6" x="6" height="38" width="38"
                fill="#f2f5e9" fill-opacity="0.5" stroke="#606060" stroke-width="1.0"/>
           <path id="arrow"
             d="M 11.500037,31.436501 C 11.940474,20.09759 22.043105,11.32322 32.158766,21.979434 L 37.068811,17.246167 C 37.068811,17.246167 37.088388,32 37.088388,32 L 22.160133,31.978069 C 22.160133,31.978069 26.997745,27.140456 26.997745,27.140456 C 18.528582,18.264221 13.291696,25.230495 11.500037,31.436501 z"
             style="fill:#404040;"/>
          </a>
         </g>
        </svg>
</svg>
