<?xml version="1.0" encoding="UTF-8" standalone="no"?>
<!DOCTYPE svg PUBLIC "-//W3C//DTD SVG 1.1//EN"
 "http://www.w3.org/Graphics/SVG/1.1/DTD/svg11.dtd">
<!-- Generated by graphviz version 2.43.0 (0)
 -->
<!-- Title: com.cliffc.aa.type.Types.check_ Pages: 1 -->
<svg width="2354pt" height="692pt"
 viewBox="0.00 0.00 2354.00 692.00" xmlns="http://www.w3.org/2000/svg" xmlns:xlink="http://www.w3.org/1999/xlink">
<g id="graph0" class="graph" transform="scale(1 1) rotate(0) translate(4 688)">
<title>com.cliffc.aa.type.Types.check_</title>
<!-- Node1 -->
<g id="node1" class="node">
<title>Node1</title>
<g id="a_node1"><a xlink:title=" ">
<polygon fill="#bfbfbf" stroke="black" points="2175,-362.5 2175,-381.5 2346,-381.5 2346,-362.5 2175,-362.5"/>
<text text-anchor="middle" x="2260.5" y="-369.5" font-family="Helvetica,sans-Serif" font-size="10.00">com.cliffc.aa.type.Types.check_</text>
</a>
</g>
</g>
<!-- Node2 -->
<g id="node2" class="node">
<title>Node2</title>
<g id="a_node2"><a xlink:href="../../dc/d47/a01510.html#ae85b20de55899d48bb869a55a8e3d753" target="_top" xlink:title=" ">
<polygon fill="none" stroke="black" points="1973,-362.5 1973,-381.5 2139,-381.5 2139,-362.5 1973,-362.5"/>
<text text-anchor="middle" x="2056" y="-369.5" font-family="Helvetica,sans-Serif" font-size="10.00">com.cliffc.aa.type.Types.check</text>
</a>
</g>
</g>
<!-- Node1&#45;&gt;Node2 -->
<g id="edge1" class="edge">
<title>Node1&#45;&gt;Node2</title>
<path fill="none" stroke="midnightblue" d="M2164.77,-372C2156.19,-372 2147.55,-372 2139.1,-372"/>
<polygon fill="midnightblue" stroke="midnightblue" points="2164.8,-375.5 2174.8,-372 2164.8,-368.5 2164.8,-375.5"/>
</g>
<!-- Node3 -->
<g id="node3" class="node">
<title>Node3</title>
<g id="a_node3"><a xlink:href="../../dc/d47/a01510.html#a32afa8e2041f9a7e23aaa00de0e0f57f" target="_top" xlink:title=" ">
<polygon fill="none" stroke="black" points="918.5,-598.5 918.5,-617.5 1082.5,-617.5 1082.5,-598.5 918.5,-598.5"/>
<text text-anchor="middle" x="1000.5" y="-605.5" font-family="Helvetica,sans-Serif" font-size="10.00">com.cliffc.aa.type.Types.clone</text>
</a>
</g>
</g>
<!-- Node2&#45;&gt;Node3 -->
<g id="edge2" class="edge">
<title>Node2&#45;&gt;Node3</title>
<path fill="none" stroke="midnightblue" d="M2046.96,-391.53C2030.86,-428.72 1991.46,-510.55 1937,-562 1838.18,-655.36 1792.45,-684 1656.5,-684 1656.5,-684 1656.5,-684 1440.5,-684 1286.38,-684 1106.23,-637.96 1033.93,-617.55"/>
<polygon fill="midnightblue" stroke="midnightblue" points="2050.37,-392.47 2051.04,-381.9 2043.92,-389.74 2050.37,-392.47"/>
</g>
<!-- Node15 -->
<g id="node15" class="node">
<title>Node15</title>
<g id="a_node15"><a xlink:href="../../dc/d47/a01510.html#a8d02f3b2b5a08d6a5f2a03a19836b00c" target="_top" xlink:title=" ">
<polygon fill="none" stroke="black" points="1569.5,-636.5 1569.5,-655.5 1741.5,-655.5 1741.5,-636.5 1569.5,-636.5"/>
<text text-anchor="middle" x="1655.5" y="-643.5" font-family="Helvetica,sans-Serif" font-size="10.00">com.cliffc.aa.type.Types.copyOf</text>
</a>
</g>
</g>
<!-- Node2&#45;&gt;Node15 -->
<g id="edge15" class="edge">
<title>Node2&#45;&gt;Node15</title>
<path fill="none" stroke="midnightblue" d="M2039.28,-389.13C1996.86,-434.31 1874.63,-557.68 1748,-622 1735.85,-628.17 1721.96,-632.87 1708.73,-636.39"/>
<polygon fill="midnightblue" stroke="midnightblue" points="2042.01,-391.33 2046.26,-381.63 2036.89,-386.57 2042.01,-391.33"/>
</g>
<!-- Node16 -->
<g id="node16" class="node">
<title>Node16</title>
<g id="a_node16"><a xlink:href="../../dc/d47/a01510.html#a6d4ecc7a729754027852e7c1fe1a8de2" target="_top" xlink:title=" ">
<polygon fill="none" stroke="black" points="1784,-0.5 1784,-19.5 1937,-19.5 1937,-0.5 1784,-0.5"/>
<text text-anchor="middle" x="1860.5" y="-7.5" font-family="Helvetica,sans-Serif" font-size="10.00">com.cliffc.aa.type.Types.get</text>
</a>
</g>
</g>
<!-- Node2&#45;&gt;Node16 -->
<g id="edge16" class="edge">
<title>Node2&#45;&gt;Node16</title>
<path fill="none" stroke="midnightblue" d="M2054.01,-352.02C2050.04,-294.19 2030.59,-125 1937,-34 1930.49,-27.67 1922.32,-23.01 1913.78,-19.58"/>
<polygon fill="midnightblue" stroke="midnightblue" points="2050.53,-352.55 2054.62,-362.33 2057.52,-352.13 2050.53,-352.55"/>
</g>
<!-- Node17 -->
<g id="node17" class="node">
<title>Node17</title>
<g id="a_node17"><a xlink:href="../../dc/d47/a01510.html#aeb95b59869f5978b8c19ba7f371f2502" target="_top" xlink:title=" ">
<polygon fill="none" stroke="black" points="1132,-472.5 1132,-491.5 1320,-491.5 1320,-472.5 1132,-472.5"/>
<text text-anchor="middle" x="1226" y="-479.5" font-family="Helvetica,sans-Serif" font-size="10.00">com.cliffc.aa.type.Types.hash_cons</text>
</a>
</g>
</g>
<!-- Node2&#45;&gt;Node17 -->
<g id="edge17" class="edge">
<title>Node2&#45;&gt;Node17</title>
<path fill="none" stroke="midnightblue" d="M2043.75,-353.63C2008.53,-298.13 1893.97,-132.34 1748,-73 1671.83,-42.04 1644.98,-66.7 1563,-73 1470.18,-80.13 1427.37,-45.22 1356,-105 1235.62,-205.83 1227.3,-424.27 1226.96,-472.46"/>
<polygon fill="midnightblue" stroke="midnightblue" points="2040.96,-355.77 2049.23,-362.39 2046.89,-352.06 2040.96,-355.77"/>
</g>
<!-- Node23 -->
<g id="node23" class="node">
<title>Node23</title>
<g id="a_node23"><a xlink:href="../../dc/d47/a01510.html#aa115d584cb2586147c60f206d002d611" target="_top" xlink:title=" ">
<polygon fill="none" stroke="black" points="1787.5,-362.5 1787.5,-381.5 1933.5,-381.5 1933.5,-362.5 1787.5,-362.5"/>
<text text-anchor="middle" x="1860.5" y="-369.5" font-family="Helvetica,sans-Serif" font-size="10.00">com.cliffc.aa.type.Types.ts</text>
</a>
</g>
</g>
<!-- Node2&#45;&gt;Node23 -->
<g id="edge26" class="edge">
<title>Node2&#45;&gt;Node23</title>
<path fill="none" stroke="midnightblue" d="M1962.76,-372C1952.96,-372 1943.1,-372 1933.58,-372"/>
<polygon fill="midnightblue" stroke="midnightblue" points="1962.94,-375.5 1972.94,-372 1962.94,-368.5 1962.94,-375.5"/>
</g>
<!-- Node4 -->
<g id="node4" class="node">
<title>Node4</title>
<g id="a_node4"><a xlink:href="../../d7/d90/a01530.html#aa115d1c70c99d5cdae85cdd15192f3fc" target="_top" xlink:title=" ">
<polygon fill="none" stroke="black" points="672,-549 672,-579 857,-579 857,-549 672,-549"/>
<text text-anchor="start" x="680" y="-567" font-family="Helvetica,sans-Serif" font-size="10.00">com.cliffc.aa.type.TypeTuple.make</text>
<text text-anchor="middle" x="764.5" y="-556" font-family="Helvetica,sans-Serif" font-size="10.00">_from_arg</text>
</a>
</g>
</g>
<!-- Node3&#45;&gt;Node4 -->
<g id="edge3" class="edge">
<title>Node3&#45;&gt;Node4</title>
<path fill="none" stroke="midnightblue" d="M938.55,-596.54C910.18,-591.2 876.05,-584.79 845.62,-579.07"/>
<polygon fill="midnightblue" stroke="midnightblue" points="938.25,-600.04 948.73,-598.45 939.54,-593.16 938.25,-600.04"/>
</g>
<!-- Node7 -->
<g id="node7" class="node">
<title>Node7</title>
<g id="a_node7"><a xlink:href="../../d7/d90/a01530.html#afdb0c721dcb5d61796e0d9a83ac39fac" target="_top" xlink:title=" ">
<polygon fill="none" stroke="black" points="678,-641.5 678,-660.5 851,-660.5 851,-641.5 678,-641.5"/>
<text text-anchor="middle" x="764.5" y="-648.5" font-family="Helvetica,sans-Serif" font-size="10.00">com.cliffc.aa.type.TypeTuple.set</text>
</a>
</g>
</g>
<!-- Node3&#45;&gt;Node7 -->
<g id="edge6" class="edge">
<title>Node3&#45;&gt;Node7</title>
<path fill="none" stroke="midnightblue" d="M937.28,-619.43C899.83,-626.32 852.7,-634.98 817.29,-641.48"/>
<polygon fill="midnightblue" stroke="midnightblue" points="938.37,-622.79 947.57,-617.54 937.1,-615.91 938.37,-622.79"/>
</g>
<!-- Node11 -->
<g id="node11" class="node">
<title>Node11</title>
<g id="a_node11"><a xlink:href="../../d7/d90/a01530.html#acb83167a9887d8a9b8f47c6d965c0f6b" target="_top" xlink:title=" ">
<polygon fill="none" stroke="black" points="668.5,-598.5 668.5,-617.5 860.5,-617.5 860.5,-598.5 668.5,-598.5"/>
<text text-anchor="middle" x="764.5" y="-605.5" font-family="Helvetica,sans-Serif" font-size="10.00">com.cliffc.aa.type.TypeTuple.sharptr</text>
</a>
</g>
</g>
<!-- Node3&#45;&gt;Node11 -->
<g id="edge10" class="edge">
<title>Node3&#45;&gt;Node11</title>
<path fill="none" stroke="midnightblue" d="M908.16,-608C892.56,-608 876.31,-608 860.61,-608"/>
<polygon fill="midnightblue" stroke="midnightblue" points="908.31,-611.5 918.31,-608 908.31,-604.5 908.31,-611.5"/>
</g>
<!-- Node14 -->
<g id="node14" class="node">
<title>Node14</title>
<g id="a_node14"><a xlink:href="../../d7/d90/a01530.html#a8ff61a18f26a1e7bd98d61037b5b662c" target="_top" xlink:title=" ">
<polygon fill="none" stroke="black" points="660,-510.5 660,-529.5 869,-529.5 869,-510.5 660,-510.5"/>
<text text-anchor="middle" x="764.5" y="-517.5" font-family="Helvetica,sans-Serif" font-size="10.00">com.cliffc.aa.type.TypeTuple.simple_ptr</text>
</a>
</g>
</g>
<!-- Node3&#45;&gt;Node14 -->
<g id="edge14" class="edge">
<title>Node3&#45;&gt;Node14</title>
<path fill="none" stroke="midnightblue" d="M976.38,-592.97C951.03,-577.18 908.68,-552.77 869,-539 857.87,-535.14 845.77,-532.02 833.91,-529.51"/>
<polygon fill="midnightblue" stroke="midnightblue" points="974.59,-595.98 984.91,-598.36 978.33,-590.06 974.59,-595.98"/>
</g>
<!-- Node5 -->
<g id="node5" class="node">
<title>Node5</title>
<g id="a_node5"><a xlink:href="../../da/d36/a01482.html#a65e30942a34f65ca832cf3fa26607bb5" target="_top" xlink:title=" ">
<polygon fill="none" stroke="black" points="454,-546 454,-576 600,-576 600,-546 454,-546"/>
<text text-anchor="start" x="462" y="-564" font-family="Helvetica,sans-Serif" font-size="10.00">com.cliffc.aa.type.TypeFun</text>
<text text-anchor="middle" x="527" y="-553" font-family="Helvetica,sans-Serif" font-size="10.00">Sig.make_from_arg</text>
</a>
</g>
</g>
<!-- Node4&#45;&gt;Node5 -->
<g id="edge4" class="edge">
<title>Node4&#45;&gt;Node5</title>
<path fill="none" stroke="midnightblue" d="M661.67,-562.7C640.96,-562.44 619.58,-562.17 600.16,-561.92"/>
<polygon fill="midnightblue" stroke="midnightblue" points="661.73,-566.2 671.78,-562.83 661.82,-559.2 661.73,-566.2"/>
</g>
<!-- Node6 -->
<g id="node6" class="node">
<title>Node6</title>
<g id="a_node6"><a xlink:href="../../d9/d8e/a01050.html#aaa85753bc2e8e1651099300cbe0ac7c2" target="_top" xlink:title=" ">
<polygon fill="none" stroke="black" points="215,-544 215,-574 394,-574 394,-544 215,-544"/>
<text text-anchor="start" x="223" y="-562" font-family="Helvetica,sans-Serif" font-size="10.00">com.cliffc.aa.node.FunNode.ideal</text>
<text text-anchor="middle" x="304.5" y="-551" font-family="Helvetica,sans-Serif" font-size="10.00">_reduce</text>
</a>
</g>
</g>
<!-- Node5&#45;&gt;Node6 -->
<g id="edge5" class="edge">
<title>Node5&#45;&gt;Node6</title>
<path fill="none" stroke="midnightblue" d="M443.36,-560.25C427.26,-560.1 410.32,-559.95 394.03,-559.8"/>
<polygon fill="midnightblue" stroke="midnightblue" points="443.77,-563.75 453.8,-560.35 443.83,-556.75 443.77,-563.75"/>
</g>
<!-- Node8 -->
<g id="node8" class="node">
<title>Node8</title>
<g id="a_node8"><a xlink:href="../../d0/d2b/a01010.html#a5b26c9d82d82727a97ff800c29589dd9" target="_top" xlink:title=" ">
<polygon fill="none" stroke="black" points="430,-644.5 430,-663.5 624,-663.5 624,-644.5 430,-644.5"/>
<text text-anchor="middle" x="527" y="-651.5" font-family="Helvetica,sans-Serif" font-size="10.00">com.cliffc.aa.node.CallNode.set_ttfp</text>
</a>
</g>
</g>
<!-- Node7&#45;&gt;Node8 -->
<g id="edge7" class="edge">
<title>Node7&#45;&gt;Node8</title>
<path fill="none" stroke="midnightblue" d="M667.54,-652.22C653.3,-652.4 638.63,-652.59 624.39,-652.77"/>
<polygon fill="midnightblue" stroke="midnightblue" points="667.86,-655.72 677.81,-652.09 667.77,-648.72 667.86,-655.72"/>
</g>
<!-- Node9 -->
<g id="node9" class="node">
<title>Node9</title>
<g id="a_node9"><a xlink:href="../../d9/d8e/a01050.html#a0ef60478ee30510481eb33dc87069b2a" target="_top" xlink:title=" ">
<polygon fill="none" stroke="black" points="216.5,-642 216.5,-672 392.5,-672 392.5,-642 216.5,-642"/>
<text text-anchor="start" x="224.5" y="-660" font-family="Helvetica,sans-Serif" font-size="10.00">com.cliffc.aa.node.FunNode.split</text>
<text text-anchor="middle" x="304.5" y="-649" font-family="Helvetica,sans-Serif" font-size="10.00">_callers</text>
</a>
</g>
</g>
<!-- Node8&#45;&gt;Node9 -->
<g id="edge8" class="edge">
<title>Node8&#45;&gt;Node9</title>
<path fill="none" stroke="midnightblue" d="M419.7,-655.45C410.61,-655.57 401.49,-655.69 392.59,-655.82"/>
<polygon fill="midnightblue" stroke="midnightblue" points="419.98,-658.94 429.93,-655.31 419.88,-651.94 419.98,-658.94"/>
</g>
<!-- Node10 -->
<g id="node10" class="node">
<title>Node10</title>
<g id="a_node10"><a xlink:href="../../d9/d8e/a01050.html#a35a8d77a634141d969d902a346af2000" target="_top" xlink:title=" ">
<polygon fill="none" stroke="black" points="0,-642 0,-672 179,-672 179,-642 0,-642"/>
<text text-anchor="start" x="8" y="-660" font-family="Helvetica,sans-Serif" font-size="10.00">com.cliffc.aa.node.FunNode.ideal</text>
<text text-anchor="middle" x="89.5" y="-649" font-family="Helvetica,sans-Serif" font-size="10.00">_inline</text>
</a>
</g>
</g>
<!-- Node9&#45;&gt;Node10 -->
<g id="edge9" class="edge">
<title>Node9&#45;&gt;Node10</title>
<path fill="none" stroke="midnightblue" d="M206.2,-657C197.25,-657 188.21,-657 179.34,-657"/>
<polygon fill="midnightblue" stroke="midnightblue" points="206.25,-660.5 216.25,-657 206.25,-653.5 206.25,-660.5"/>
</g>
<!-- Node12 -->
<g id="node12" class="node">
<title>Node12</title>
<g id="a_node12"><a xlink:href="../../d6/d51/a01494.html#ae434c7b538095991a82c26e058b2bed3" target="_top" xlink:title=" ">
<polygon fill="none" stroke="black" points="431.5,-598.5 431.5,-617.5 622.5,-617.5 622.5,-598.5 431.5,-598.5"/>
<text text-anchor="middle" x="527" y="-605.5" font-family="Helvetica,sans-Serif" font-size="10.00">com.cliffc.aa.type.TypeMem.sharptr</text>
</a>
</g>
</g>
<!-- Node11&#45;&gt;Node12 -->
<g id="edge11" class="edge">
<title>Node11&#45;&gt;Node12</title>
<path fill="none" stroke="midnightblue" d="M658.09,-601.28C646.3,-601.22 634.34,-601.25 622.7,-601.37"/>
<polygon fill="midnightblue" stroke="midnightblue" points="658.37,-604.79 668.39,-601.36 658.42,-597.79 658.37,-604.79"/>
</g>
<!-- Node12&#45;&gt;Node11 -->
<g id="edge12" class="edge">
<title>Node12&#45;&gt;Node11</title>
<path fill="none" stroke="midnightblue" d="M633,-614.71C644.78,-614.78 656.74,-614.75 668.39,-614.64"/>
<polygon fill="midnightblue" stroke="midnightblue" points="632.72,-611.21 622.7,-614.63 632.67,-618.21 632.72,-611.21"/>
</g>
<!-- Node13 -->
<g id="node13" class="node">
<title>Node13</title>
<g id="a_node13"><a xlink:href="../../d0/de2/a01442.html#a73035500b9adc5f4821408e88177f1c7" target="_top" xlink:title=" ">
<polygon fill="none" stroke="black" points="240,-593 240,-623 369,-623 369,-593 240,-593"/>
<text text-anchor="start" x="248" y="-611" font-family="Helvetica,sans-Serif" font-size="10.00">com.cliffc.aa.type.Type</text>
<text text-anchor="middle" x="304.5" y="-600" font-family="Helvetica,sans-Serif" font-size="10.00">&lt; TypeFlt &gt;::sharptr</text>
</a>
</g>
</g>
<!-- Node12&#45;&gt;Node13 -->
<g id="edge13" class="edge">
<title>Node12&#45;&gt;Node13</title>
<path fill="none" stroke="midnightblue" d="M420.82,-608C403.12,-608 385.24,-608 369.02,-608"/>
<polygon fill="midnightblue" stroke="midnightblue" points="421.21,-611.5 431.21,-608 421.21,-604.5 421.21,-611.5"/>
</g>
<!-- Node18 -->
<g id="node18" class="node">
<title>Node18</title>
<g id="a_node18"><a xlink:href="../../d7/d90/a01530.html#a81ed2204609a5aec7317ef0a06ce8429" target="_top" xlink:title=" ">
<polygon fill="none" stroke="black" points="905,-472.5 905,-491.5 1096,-491.5 1096,-472.5 905,-472.5"/>
<text text-anchor="middle" x="1000.5" y="-479.5" font-family="Helvetica,sans-Serif" font-size="10.00">com.cliffc.aa.type.TypeTuple.make0</text>
</a>
</g>
</g>
<!-- Node17&#45;&gt;Node18 -->
<g id="edge18" class="edge">
<title>Node17&#45;&gt;Node18</title>
<path fill="none" stroke="midnightblue" d="M1121.6,-482C1113.17,-482 1104.68,-482 1096.31,-482"/>
<polygon fill="midnightblue" stroke="midnightblue" points="1121.83,-485.5 1131.83,-482 1121.83,-478.5 1121.83,-485.5"/>
</g>
<!-- Node22 -->
<g id="node22" class="node">
<title>Node22</title>
<g id="a_node22"><a xlink:href="../../d7/d90/a01530.html#a5ea449b88b4dff0a543bbe5f6449edc7" target="_top" xlink:title=" ">
<polygon fill="none" stroke="black" points="908,-510.5 908,-529.5 1093,-529.5 1093,-510.5 908,-510.5"/>
<text text-anchor="middle" x="1000.5" y="-517.5" font-family="Helvetica,sans-Serif" font-size="10.00">com.cliffc.aa.type.TypeTuple.xdual</text>
</a>
</g>
</g>
<!-- Node17&#45;&gt;Node22 -->
<g id="edge25" class="edge">
<title>Node17&#45;&gt;Node22</title>
<path fill="none" stroke="midnightblue" d="M1158.68,-493.28C1126.53,-498.74 1088.32,-505.24 1057.63,-510.46"/>
<polygon fill="midnightblue" stroke="midnightblue" points="1159.62,-496.67 1168.89,-491.54 1158.44,-489.77 1159.62,-496.67"/>
</g>
<!-- Node18&#45;&gt;Node4 -->
<g id="edge20" class="edge">
<title>Node18&#45;&gt;Node4</title>
<path fill="none" stroke="midnightblue" d="M918.14,-494.88C913.59,-496.66 909.17,-498.69 905,-501 884.64,-512.26 889.13,-527.35 869,-539 862.28,-542.89 854.98,-546.18 847.47,-548.95"/>
<polygon fill="midnightblue" stroke="midnightblue" points="919.36,-498.16 927.64,-491.54 917.05,-491.55 919.36,-498.16"/>
</g>
<!-- Node18&#45;&gt;Node11 -->
<g id="edge21" class="edge">
<title>Node18&#45;&gt;Node11</title>
<path fill="none" stroke="midnightblue" d="M910.76,-496.79C908.76,-498.09 906.84,-499.49 905,-501 872.68,-527.59 901.42,-561.54 869,-588 863.83,-592.22 858.02,-595.65 851.88,-598.42"/>
<polygon fill="midnightblue" stroke="midnightblue" points="912.87,-499.62 919.93,-491.71 909.48,-493.49 912.87,-499.62"/>
</g>
<!-- Node18&#45;&gt;Node14 -->
<g id="edge22" class="edge">
<title>Node18&#45;&gt;Node14</title>
<path fill="none" stroke="midnightblue" d="M930.5,-493.2C896.75,-498.69 856.54,-505.22 824.27,-510.46"/>
<polygon fill="midnightblue" stroke="midnightblue" points="931.44,-496.6 940.75,-491.54 930.32,-489.69 931.44,-496.6"/>
</g>
<!-- Node19 -->
<g id="node19" class="node">
<title>Node19</title>
<g id="a_node19"><a xlink:href="../../d7/d90/a01530.html#adb520a333a9a12d25eb4d1f5928820e2" target="_top" xlink:title=" ">
<polygon fill="none" stroke="black" points="672,-434.5 672,-453.5 857,-453.5 857,-434.5 672,-434.5"/>
<text text-anchor="middle" x="764.5" y="-441.5" font-family="Helvetica,sans-Serif" font-size="10.00">com.cliffc.aa.type.TypeTuple.make</text>
</a>
</g>
</g>
<!-- Node18&#45;&gt;Node19 -->
<g id="edge19" class="edge">
<title>Node18&#45;&gt;Node19</title>
<path fill="none" stroke="midnightblue" d="M930.5,-470.8C896.75,-465.31 856.54,-458.78 824.27,-453.54"/>
<polygon fill="midnightblue" stroke="midnightblue" points="930.32,-474.31 940.75,-472.46 931.44,-467.4 930.32,-474.31"/>
</g>
<!-- Node20 -->
<g id="node20" class="node">
<title>Node20</title>
<g id="a_node20"><a xlink:href="../../d7/d90/a01530.html#a196275fdd4e4d1cd378fc5b151c6fa6b" target="_top" xlink:title=" ">
<polygon fill="none" stroke="black" points="667,-472.5 667,-491.5 862,-491.5 862,-472.5 667,-472.5"/>
<text text-anchor="middle" x="764.5" y="-479.5" font-family="Helvetica,sans-Serif" font-size="10.00">com.cliffc.aa.type.TypeTuple.xmeet1</text>
</a>
</g>
</g>
<!-- Node18&#45;&gt;Node20 -->
<g id="edge23" class="edge">
<title>Node18&#45;&gt;Node20</title>
<path fill="none" stroke="midnightblue" d="M894.7,-482C883.9,-482 872.97,-482 862.26,-482"/>
<polygon fill="midnightblue" stroke="midnightblue" points="895,-485.5 905,-482 895,-478.5 895,-485.5"/>
</g>
<!-- Node21 -->
<g id="node21" class="node">
<title>Node21</title>
<g id="a_node21"><a xlink:href="../../d7/d90/a01530.html#a5c3b94878b58c507bc667637ceefc122" target="_top" xlink:title=" ">
<polygon fill="none" stroke="black" points="432.5,-472.5 432.5,-491.5 621.5,-491.5 621.5,-472.5 432.5,-472.5"/>
<text text-anchor="middle" x="527" y="-479.5" font-family="Helvetica,sans-Serif" font-size="10.00">com.cliffc.aa.type.TypeTuple.xmeet</text>
</a>
</g>
</g>
<!-- Node20&#45;&gt;Node21 -->
<g id="edge24" class="edge">
<title>Node20&#45;&gt;Node21</title>
<path fill="none" stroke="midnightblue" d="M656.55,-482C644.94,-482 633.2,-482 621.77,-482"/>
<polygon fill="midnightblue" stroke="midnightblue" points="656.69,-485.5 666.69,-482 656.69,-478.5 656.69,-485.5"/>
</g>
<!-- Node23&#45;&gt;Node3 -->
<g id="edge28" class="edge">
<title>Node23&#45;&gt;Node3</title>
<path fill="none" stroke="midnightblue" d="M1846.44,-389.83C1830.41,-412.23 1803.01,-452.19 1784,-489 1764.23,-527.28 1782.84,-553.65 1748,-579 1644.11,-654.59 1253.9,-630.55 1082.78,-615.81"/>
<polygon fill="midnightblue" stroke="midnightblue" points="1849.35,-391.78 1852.37,-381.63 1843.67,-387.68 1849.35,-391.78"/>
</g>
<!-- Node23&#45;&gt;Node15 -->
<g id="edge29" class="edge">
<title>Node23&#45;&gt;Node15</title>
<path fill="none" stroke="midnightblue" d="M1847.24,-390.14C1831.01,-414.81 1802.3,-460.7 1784,-503 1762.06,-553.71 1787.79,-583.66 1748,-622 1741.5,-628.27 1733.56,-632.95 1725.11,-636.44"/>
<polygon fill="midnightblue" stroke="midnightblue" points="1850.18,-392.04 1852.81,-381.78 1844.35,-388.17 1850.18,-392.04"/>
</g>
<!-- Node23&#45;&gt;Node17 -->
<g id="edge38" class="edge">
<title>Node23&#45;&gt;Node17</title>
<path fill="none" stroke="midnightblue" d="M1847.2,-389.6C1828.88,-414.12 1791.82,-457.52 1748,-475 1672.91,-504.96 1448.67,-496.49 1320.18,-488.66"/>
<polygon fill="midnightblue" stroke="midnightblue" points="1850.04,-391.65 1853.08,-381.5 1844.38,-387.54 1850.04,-391.65"/>
</g>
<!-- Node24 -->
<g id="node24" class="node">
<title>Node24</title>
<g id="a_node24"><a xlink:href="../../dc/d47/a01510.html#af5da3c6edb2034fd4b37896c04f8b910" target="_top" xlink:title=" ">
<polygon fill="none" stroke="black" points="1356,-208.5 1356,-227.5 1527,-227.5 1527,-208.5 1356,-208.5"/>
<text text-anchor="middle" x="1441.5" y="-215.5" font-family="Helvetica,sans-Serif" font-size="10.00">com.cliffc.aa.type.Types.check_</text>
</a>
</g>
</g>
<!-- Node23&#45;&gt;Node24 -->
<g id="edge27" class="edge">
<title>Node23&#45;&gt;Node24</title>
<path fill="none" stroke="midnightblue" d="M1843.64,-354.73C1823.49,-333.9 1786.64,-299.38 1748,-281 1742.15,-278.22 1574.54,-244.43 1490.12,-227.52"/>
<polygon fill="midnightblue" stroke="midnightblue" points="1841.33,-357.38 1850.75,-362.24 1846.41,-352.57 1841.33,-357.38"/>
</g>
<!-- Node25 -->
<g id="node25" class="node">
<title>Node25</title>
<g id="a_node25"><a xlink:href="../../d7/d22/a01514.html#a472608d3f8b1dee79b0d4c44f005911f" target="_top" xlink:title=" ">
<polygon fill="none" stroke="black" points="1157.5,-530 1157.5,-560 1294.5,-560 1294.5,-530 1157.5,-530"/>
<text text-anchor="start" x="1165.5" y="-548" font-family="Helvetica,sans-Serif" font-size="10.00">com.cliffc.aa.type.Types.</text>
<text text-anchor="middle" x="1226" y="-537" font-family="Helvetica,sans-Serif" font-size="10.00">Key.equals</text>
</a>
</g>
</g>
<!-- Node23&#45;&gt;Node25 -->
<g id="edge30" class="edge">
<title>Node23&#45;&gt;Node25</title>
<path fill="none" stroke="midnightblue" d="M1847.5,-390.44C1819.48,-433.42 1751.84,-536.82 1748,-539 1596.73,-624.79 1378.83,-585.11 1279.69,-560.03"/>
<polygon fill="midnightblue" stroke="midnightblue" points="1850.61,-392.08 1853.13,-381.79 1844.74,-388.26 1850.61,-392.08"/>
</g>
<!-- Node26 -->
<g id="node26" class="node">
<title>Node26</title>
<g id="a_node26"><a xlink:href="../../dc/d47/a01510.html#aed4c40d793050ae3c07f51238679c054" target="_top" xlink:title=" ">
<polygon fill="none" stroke="black" points="1577,-446.5 1577,-465.5 1734,-465.5 1734,-446.5 1577,-446.5"/>
<text text-anchor="middle" x="1655.5" y="-453.5" font-family="Helvetica,sans-Serif" font-size="10.00">com.cliffc.aa.type.Types.free</text>
</a>
</g>
</g>
<!-- Node23&#45;&gt;Node26 -->
<g id="edge31" class="edge">
<title>Node23&#45;&gt;Node26</title>
<path fill="none" stroke="midnightblue" d="M1837.61,-387.27C1815.83,-401.8 1780.98,-423.28 1748,-436 1737.08,-440.21 1725.06,-443.64 1713.43,-446.39"/>
<polygon fill="midnightblue" stroke="midnightblue" points="1839.79,-390.03 1846.1,-381.52 1835.86,-384.23 1839.79,-390.03"/>
</g>
<!-- Node27 -->
<g id="node27" class="node">
<title>Node27</title>
<g id="a_node27"><a xlink:href="../../d7/d22/a01514.html#aafe283d43283761a4753805b70c4b07a" target="_top" xlink:title=" ">
<polygon fill="none" stroke="black" points="1587,-115 1587,-145 1724,-145 1724,-115 1587,-115"/>
<text text-anchor="start" x="1595" y="-133" font-family="Helvetica,sans-Serif" font-size="10.00">com.cliffc.aa.type.Types.</text>
<text text-anchor="middle" x="1655.5" y="-122" font-family="Helvetica,sans-Serif" font-size="10.00">Key.hash</text>
</a>
</g>
</g>
<!-- Node23&#45;&gt;Node27 -->
<g id="edge32" class="edge">
<title>Node23&#45;&gt;Node27</title>
<path fill="none" stroke="midnightblue" d="M1855.15,-352.54C1844.59,-309.97 1813.53,-208.15 1748,-155 1740.97,-149.29 1732.73,-144.89 1724.13,-141.48"/>
<polygon fill="midnightblue" stroke="midnightblue" points="1851.78,-353.53 1857.5,-362.46 1858.6,-351.92 1851.78,-353.53"/>
</g>
<!-- Node28 -->
<g id="node28" class="node">
<title>Node28</title>
<g id="a_node28"><a xlink:href="../../dc/d47/a01510.html#a6aa41fc18dbf7ed9b38b68240bc797ed" target="_top" xlink:title=" ">
<polygon fill="none" stroke="black" points="1361,-115 1361,-145 1522,-145 1522,-115 1361,-115"/>
<text text-anchor="start" x="1369" y="-133" font-family="Helvetica,sans-Serif" font-size="10.00">com.cliffc.aa.type.Types.hash</text>
<text text-anchor="middle" x="1441.5" y="-122" font-family="Helvetica,sans-Serif" font-size="10.00">_cons_</text>
</a>
</g>
</g>
<!-- Node23&#45;&gt;Node28 -->
<g id="edge39" class="edge">
<title>Node23&#45;&gt;Node28</title>
<path fill="none" stroke="midnightblue" d="M1858.28,-352.28C1853.92,-300.82 1834.29,-162.48 1748,-105 1663.63,-48.8 1535.66,-90.09 1475.69,-114.89"/>
<polygon fill="midnightblue" stroke="midnightblue" points="1854.8,-352.68 1859.03,-362.39 1861.78,-352.16 1854.8,-352.68"/>
</g>
<!-- Node29 -->
<g id="node29" class="node">
<title>Node29</title>
<g id="a_node29"><a xlink:href="../../d7/d22/a01514.html#a25a11e4310b7a7f7f8cafd669051cca0" target="_top" xlink:title=" ">
<polygon fill="none" stroke="black" points="1373,-511 1373,-541 1510,-541 1510,-511 1373,-511"/>
<text text-anchor="start" x="1381" y="-529" font-family="Helvetica,sans-Serif" font-size="10.00">com.cliffc.aa.type.Types.</text>
<text text-anchor="middle" x="1441.5" y="-518" font-family="Helvetica,sans-Serif" font-size="10.00">Key.Key</text>
</a>
</g>
</g>
<!-- Node23&#45;&gt;Node29 -->
<g id="edge40" class="edge">
<title>Node23&#45;&gt;Node29</title>
<path fill="none" stroke="midnightblue" d="M1850.62,-390.72C1834.87,-421.53 1798.83,-482.09 1748,-508 1673.45,-546.01 1574.99,-544.06 1510.27,-536.94"/>
<polygon fill="midnightblue" stroke="midnightblue" points="1853.88,-392.02 1855.18,-381.51 1847.61,-388.92 1853.88,-392.02"/>
</g>
<!-- Node30 -->
<g id="node30" class="node">
<title>Node30</title>
<g id="a_node30"><a xlink:href="../../da/d36/a01482.html#a62350f538aaa3713c8e8a3c3c79775bb" target="_top" xlink:title=" ">
<polygon fill="none" stroke="black" points="1582.5,-379 1582.5,-409 1728.5,-409 1728.5,-379 1582.5,-379"/>
<text text-anchor="start" x="1590.5" y="-397" font-family="Helvetica,sans-Serif" font-size="10.00">com.cliffc.aa.type.TypeFun</text>
<text text-anchor="middle" x="1655.5" y="-386" font-family="Helvetica,sans-Serif" font-size="10.00">Sig.make</text>
</a>
</g>
</g>
<!-- Node23&#45;&gt;Node30 -->
<g id="edge41" class="edge">
<title>Node23&#45;&gt;Node30</title>
<path fill="none" stroke="midnightblue" d="M1776.97,-380.94C1760.99,-382.68 1744.37,-384.48 1728.75,-386.17"/>
<polygon fill="midnightblue" stroke="midnightblue" points="1777.79,-384.38 1787.36,-379.82 1777.04,-377.42 1777.79,-384.38"/>
</g>
<!-- Node31 -->
<g id="node31" class="node">
<title>Node31</title>
<g id="a_node31"><a xlink:href="../../d7/d90/a01530.html#ad15acf31da32b503e19e3265466c566a" target="_top" xlink:title=" ">
<polygon fill="none" stroke="black" points="1563,-340.5 1563,-359.5 1748,-359.5 1748,-340.5 1563,-340.5"/>
<text text-anchor="middle" x="1655.5" y="-347.5" font-family="Helvetica,sans-Serif" font-size="10.00">com.cliffc.aa.type.TypeTuple.make</text>
</a>
</g>
</g>
<!-- Node23&#45;&gt;Node31 -->
<g id="edge43" class="edge">
<title>Node23&#45;&gt;Node31</title>
<path fill="none" stroke="midnightblue" d="M1777.13,-363.07C1766.35,-361.91 1755.27,-360.7 1744.41,-359.53"/>
<polygon fill="midnightblue" stroke="midnightblue" points="1777.04,-366.58 1787.36,-364.18 1777.79,-359.62 1777.04,-366.58"/>
</g>
<!-- Node32 -->
<g id="node32" class="node">
<title>Node32</title>
<g id="a_node32"><a xlink:href="../../d4/d8e/a01694.html#a0047bc5cd2ee14b1d3822a5969bc0502" target="_top" xlink:title=" ">
<polygon fill="none" stroke="black" points="1578.5,-291 1578.5,-321 1732.5,-321 1732.5,-291 1578.5,-291"/>
<text text-anchor="start" x="1586.5" y="-309" font-family="Helvetica,sans-Serif" font-size="10.00">com.cliffc.aa.node.TestNode</text>
<text text-anchor="middle" x="1655.5" y="-298" font-family="Helvetica,sans-Serif" font-size="10.00">Small.testRecursiveDisplay</text>
</a>
</g>
</g>
<!-- Node23&#45;&gt;Node32 -->
<g id="edge44" class="edge">
<title>Node23&#45;&gt;Node32</title>
<path fill="none" stroke="midnightblue" d="M1825.81,-358.75C1803.82,-350.32 1774.41,-339.44 1748,-331 1737.33,-327.59 1725.88,-324.23 1714.81,-321.13"/>
<polygon fill="midnightblue" stroke="midnightblue" points="1824.76,-362.1 1835.35,-362.44 1827.28,-355.57 1824.76,-362.1"/>
</g>
<!-- Node33 -->
<g id="node33" class="node">
<title>Node33</title>
<g id="a_node33"><a xlink:href="../../d5/d29/a01722.html#a5da075784fbe0fe7a3419e526f1a907b" target="_top" xlink:title=" ">
<polygon fill="none" stroke="black" points="1570.5,-203 1570.5,-233 1740.5,-233 1740.5,-203 1570.5,-203"/>
<text text-anchor="start" x="1578.5" y="-221" font-family="Helvetica,sans-Serif" font-size="10.00">com.cliffc.aa.type.TestType.test</text>
<text text-anchor="middle" x="1655.5" y="-210" font-family="Helvetica,sans-Serif" font-size="10.00">StructTuple</text>
</a>
</g>
</g>
<!-- Node23&#45;&gt;Node33 -->
<g id="edge45" class="edge">
<title>Node23&#45;&gt;Node33</title>
<path fill="none" stroke="midnightblue" d="M1847.88,-353.94C1829.71,-327.08 1792.04,-276.71 1748,-248 1738.76,-241.98 1728.2,-237.06 1717.62,-233.09"/>
<polygon fill="midnightblue" stroke="midnightblue" points="1845.03,-355.98 1853.47,-362.38 1850.87,-352.11 1845.03,-355.98"/>
</g>
<!-- Node34 -->
<g id="node34" class="node">
<title>Node34</title>
<g id="a_node34"><a xlink:href="../../dc/d47/a01510.html#abc49fed1e4c08e73c81b8a77c5ed0952" target="_top" xlink:title=" ">
<polygon fill="none" stroke="black" points="1582.5,-164.5 1582.5,-183.5 1728.5,-183.5 1728.5,-164.5 1582.5,-164.5"/>
<text text-anchor="middle" x="1655.5" y="-171.5" font-family="Helvetica,sans-Serif" font-size="10.00">com.cliffc.aa.type.Types.ts</text>
</a>
</g>
</g>
<!-- Node23&#45;&gt;Node34 -->
<g id="edge46" class="edge">
<title>Node23&#45;&gt;Node34</title>
<path fill="none" stroke="midnightblue" d="M1853.27,-352.66C1840.2,-315.37 1806.21,-233.62 1748,-193 1742.15,-188.92 1735.6,-185.67 1728.78,-183.1"/>
<polygon fill="midnightblue" stroke="midnightblue" points="1850.02,-353.97 1856.53,-362.32 1856.65,-351.73 1850.02,-353.97"/>
</g>
<!-- Node27&#45;&gt;Node24 -->
<g id="edge33" class="edge">
<title>Node27&#45;&gt;Node24</title>
<path fill="none" stroke="midnightblue" d="M1582.58,-148.06C1575.9,-150.21 1569.28,-152.53 1563,-155 1523.89,-170.36 1480.91,-194.82 1458.35,-208.3"/>
<polygon fill="midnightblue" stroke="midnightblue" points="1583.87,-151.33 1592.38,-145.03 1581.8,-144.64 1583.87,-151.33"/>
</g>
<!-- Node27&#45;&gt;Node28 -->
<g id="edge34" class="edge">
<title>Node27&#45;&gt;Node28</title>
<path fill="none" stroke="midnightblue" d="M1576.54,-130C1558.79,-130 1539.91,-130 1522.09,-130"/>
<polygon fill="midnightblue" stroke="midnightblue" points="1576.84,-133.5 1586.84,-130 1576.84,-126.5 1576.84,-133.5"/>
</g>
<!-- Node27&#45;&gt;Node29 -->
<g id="edge36" class="edge">
<title>Node27&#45;&gt;Node29</title>
<path fill="none" stroke="midnightblue" d="M1577.65,-144.47C1572.32,-147.37 1567.35,-150.85 1563,-155 1549.28,-168.09 1467.31,-442.32 1447.03,-510.67"/>
<polygon fill="midnightblue" stroke="midnightblue" points="1579.36,-147.53 1586.9,-140.09 1576.37,-141.2 1579.36,-147.53"/>
</g>
<!-- Node28&#45;&gt;Node17 -->
<g id="edge35" class="edge">
<title>Node28&#45;&gt;Node17</title>
<path fill="none" stroke="midnightblue" d="M1407.84,-151.18C1390.72,-163.54 1370.38,-180.35 1356,-199 1283.46,-293.07 1240.33,-434.46 1229.63,-472.37"/>
<polygon fill="midnightblue" stroke="midnightblue" points="1410.28,-153.75 1416.46,-145.14 1406.26,-148.02 1410.28,-153.75"/>
</g>
<!-- Node29&#45;&gt;Node25 -->
<g id="edge37" class="edge">
<title>Node29&#45;&gt;Node25</title>
<path fill="none" stroke="midnightblue" d="M1362.86,-532.91C1340.58,-534.89 1316.48,-537.04 1294.85,-538.96"/>
<polygon fill="midnightblue" stroke="midnightblue" points="1363.3,-536.38 1372.95,-532.01 1362.68,-529.41 1363.3,-536.38"/>
</g>
<!-- Node30&#45;&gt;Node30 -->
<g id="edge42" class="edge">
<title>Node30&#45;&gt;Node30</title>
<path fill="none" stroke="midnightblue" d="M1691.75,-419.46C1687.25,-424.18 1675.17,-427.5 1655.5,-427.5 1623.23,-427.5 1611.38,-418.56 1619.95,-409.16"/>
<polygon fill="midnightblue" stroke="midnightblue" points="1695.22,-418.9 1691.05,-409.16 1688.23,-419.37 1695.22,-418.9"/>
</g>
</g>
</svg>
