<?xml version="1.0" encoding="UTF-8" standalone="no"?>
<!DOCTYPE svg PUBLIC "-//W3C//DTD SVG 1.1//EN"
 "http://www.w3.org/Graphics/SVG/1.1/DTD/svg11.dtd">
<!-- Generated by graphviz version 2.43.0 (0)
 -->
<!-- Title: com.cliffc.aa.HM.HM3.VStack.Iter Pages: 1 -->
<!--zoomable 669 -->
<svg id="main" version="1.1" xmlns="http://www.w3.org/2000/svg" xmlns:xlink="http://www.w3.org/1999/xlink" xml:space="preserve" onload="init(evt)">
<style type="text/css"><![CDATA[
.edge:hover path { stroke: red; }
.edge:hover polygon { stroke: red; fill: red; }
]]></style>
<script type="text/javascript"><![CDATA[
var edges = document.getElementsByTagName('g');
if (edges && edges.length) {
  for (var i=0;i<edges.length;i++) {
    if (edges[i].id.substr(0,4)=='edge') {
      edges[i].setAttribute('class','edge');
    }
  }
}
]]></script>
        <defs>
                <circle id="rim" cx="0" cy="0" r="7"/>
                <circle id="rim2" cx="0" cy="0" r="3.5"/>
                <g id="zoomPlus">
                        <use xlink:href="#rim" fill="#404040">
                                <set attributeName="fill" to="#808080" begin="zoomplus.mouseover" end="zoomplus.mouseout"/>
                        </use>
                        <path d="M-4,0h8M0,-4v8" fill="none" stroke="white" stroke-width="1.5" pointer-events="none"/>
                </g>
                <g id="zoomMin">
                        <use xlink:href="#rim" fill="#404040">
                                <set attributeName="fill" to="#808080" begin="zoomminus.mouseover" end="zoomminus.mouseout"/>
                        </use>
                        <path d="M-4,0h8" fill="none" stroke="white" stroke-width="1.5" pointer-events="none"/>
                </g>
                <g id="dirArrow">
                        <path fill="none" stroke="white" stroke-width="1.5" d="M0,-3.0v7 M-2.5,-0.5L0,-3.0L2.5,-0.5"/>
                </g>
               <g id="resetDef">
                       <use xlink:href="#rim2" fill="#404040">
                               <set attributeName="fill" to="#808080" begin="reset.mouseover" end="reset.mouseout"/>
                       </use>
               </g>
        </defs>

<script type="text/javascript">
var viewWidth = 1612;
var viewHeight = 669;
var sectionId = 'dynsection-1';
</script>
<script xlink:href="../../svgpan.js"/>
<svg id="graph" class="graph">
<g id="viewport">
<title>com.cliffc.aa.HM.HM3.VStack.Iter</title>
<!-- Node1 -->
<g id="node1" class="node">
<title>Node1</title>
<g id="a_node1"><a xlink:title=" ">
<polygon fill="#bfbfbf" stroke="black" points="1424,-304.5 1424,-323.5 1604,-323.5 1604,-304.5 1424,-304.5"/>
<text text-anchor="middle" x="1514" y="-311.5" font-family="Helvetica,sans-Serif" font-size="10.00">com.cliffc.aa.HM.HM3.VStack.Iter</text>
</a>
</g>
</g>
<!-- Node2 -->
<g id="node2" class="node">
<title>Node2</title>
<g id="a_node2"><a xlink:title=" ">
<polygon fill="none" stroke="#bfbfbf" points="1227,-335 1227,-365 1328,-365 1328,-335 1227,-335"/>
<text text-anchor="start" x="1235" y="-353" font-family="Helvetica,sans-Serif" font-size="10.00">java::util::Iterator</text>
<text text-anchor="middle" x="1277.5" y="-342" font-family="Helvetica,sans-Serif" font-size="10.00">&lt; HMVar &gt;</text>
</a>
</g>
</g>
<!-- Node2&#45;&gt;Node1 -->
<g id="edge1" class="edge">
<title>Node2&#45;&gt;Node1</title>
<path fill="none" stroke="midnightblue" d="M1338.16,-340.84C1372.62,-335.55 1415.91,-328.9 1450.79,-323.55"/>
<polygon fill="midnightblue" stroke="midnightblue" points="1337.58,-337.39 1328.23,-342.37 1338.65,-344.31 1337.58,-337.39"/>
</g>
<!-- Node3 -->
<g id="node3" class="node">
<title>Node3</title>
<g id="a_node3"><a xlink:href="../../d8/d00/a00606.html" target="_top" xlink:title=" ">
<polygon fill="none" stroke="black" points="1197,-267.5 1197,-286.5 1358,-286.5 1358,-267.5 1197,-267.5"/>
<text text-anchor="middle" x="1277.5" y="-274.5" font-family="Helvetica,sans-Serif" font-size="10.00">com.cliffc.aa.HM.HM3.VStack</text>
</a>
</g>
</g>
<!-- Node3&#45;&gt;Node1 -->
<g id="edge2" class="edge">
<title>Node3&#45;&gt;Node1</title>
<path fill="none" stroke="#9a32cd" stroke-dasharray="5,2" d="M1348.92,-288.11C1381.89,-293.31 1420.77,-299.45 1452.41,-304.44"/>
<polygon fill="#9a32cd" stroke="#9a32cd" points="1349.31,-284.63 1338.89,-286.53 1348.22,-291.54 1349.31,-284.63"/>
<text text-anchor="middle" x="1391" y="-299" font-family="Helvetica,sans-Serif" font-size="10.00"> _vstk</text>
</g>
<!-- Node3&#45;&gt;Node3 -->
<g id="edge31" class="edge">
<title>Node3&#45;&gt;Node3</title>
<path fill="none" stroke="#9a32cd" stroke-dasharray="5,2" d="M1256.76,-296.4C1258.15,-301.31 1265.06,-305 1277.5,-305 1297.41,-305 1303.16,-295.57 1294.76,-286.76"/>
<polygon fill="#9a32cd" stroke="#9a32cd" points="1260.14,-297.35 1260.24,-286.76 1253.55,-294.98 1260.14,-297.35"/>
<text text-anchor="middle" x="1277.5" y="-308" font-family="Helvetica,sans-Serif" font-size="10.00"> _par</text>
</g>
<!-- Node4 -->
<g id="node4" class="node">
<title>Node4</title>
<g id="a_node4"><a xlink:href="../../dd/df4/a02510.html" target="_top" xlink:title=" ">
<polygon fill="none" stroke="black" points="982,-311.5 982,-330.5 1091,-330.5 1091,-311.5 982,-311.5"/>
<text text-anchor="middle" x="1036.5" y="-318.5" font-family="Helvetica,sans-Serif" font-size="10.00">Iterable&lt; HMVar &gt;</text>
</a>
</g>
</g>
<!-- Node4&#45;&gt;Node3 -->
<g id="edge3" class="edge">
<title>Node4&#45;&gt;Node3</title>
<path fill="none" stroke="midnightblue" d="M1099.51,-309.58C1138.41,-302.42 1187.97,-293.3 1224.74,-286.53"/>
<polygon fill="midnightblue" stroke="midnightblue" points="1098.56,-306.2 1089.36,-311.45 1099.83,-313.08 1098.56,-306.2"/>
</g>
<!-- Node5 -->
<g id="node5" class="node">
<title>Node5</title>
<g id="a_node5"><a xlink:href="../../d6/d08/a00646.html" target="_top" xlink:title=" ">
<polygon fill="none" stroke="black" points="957,-223.5 957,-242.5 1116,-242.5 1116,-223.5 957,-223.5"/>
<text text-anchor="middle" x="1036.5" y="-230.5" font-family="Helvetica,sans-Serif" font-size="10.00">com.cliffc.aa.HM.HM3.HMVar</text>
</a>
</g>
</g>
<!-- Node5&#45;&gt;Node3 -->
<g id="edge4" class="edge">
<title>Node5&#45;&gt;Node3</title>
<path fill="none" stroke="#9a32cd" stroke-dasharray="5,2" d="M1099.51,-244.42C1138.41,-251.58 1187.97,-260.7 1224.74,-267.47"/>
<polygon fill="#9a32cd" stroke="#9a32cd" points="1099.83,-240.92 1089.36,-242.55 1098.56,-247.8 1099.83,-240.92"/>
<text text-anchor="middle" x="1156.5" y="-261" font-family="Helvetica,sans-Serif" font-size="10.00"> _nongen</text>
</g>
<!-- Node6 -->
<g id="node6" class="node">
<title>Node6</title>
<g id="a_node6"><a xlink:href="../../df/dcf/a00642.html" target="_top" xlink:title=" ">
<polygon fill="none" stroke="black" points="719,-72.5 719,-91.5 885,-91.5 885,-72.5 719,-72.5"/>
<text text-anchor="middle" x="802" y="-79.5" font-family="Helvetica,sans-Serif" font-size="10.00">com.cliffc.aa.HM.HM3.HMType</text>
</a>
</g>
</g>
<!-- Node6&#45;&gt;Node5 -->
<g id="edge5" class="edge">
<title>Node6&#45;&gt;Node5</title>
<path fill="none" stroke="midnightblue" d="M840.74,-95.07C869.04,-105.76 908.05,-122.45 939,-143 975.64,-167.33 1011.6,-205.79 1027.29,-223.5"/>
<polygon fill="midnightblue" stroke="midnightblue" points="841.81,-91.73 831.21,-91.54 839.37,-98.3 841.81,-91.73"/>
</g>
<!-- Node6&#45;&gt;Node6 -->
<g id="edge12" class="edge">
<title>Node6&#45;&gt;Node6</title>
<path fill="none" stroke="#9a32cd" stroke-dasharray="5,2" d="M780.05,-101.03C781.25,-106.13 788.56,-110 802,-110 822.97,-110 829.04,-100.57 820.19,-91.76"/>
<polygon fill="#9a32cd" stroke="#9a32cd" points="783.3,-102.34 783.81,-91.76 776.81,-99.71 783.3,-102.34"/>
<text text-anchor="middle" x="802" y="-113" font-family="Helvetica,sans-Serif" font-size="10.00"> _u</text>
</g>
<!-- Node7 -->
<g id="node7" class="node">
<title>Node7</title>
<g id="a_node7"><a xlink:href="../../d6/d02/a01542.html" target="_top" xlink:title=" ">
<polygon fill="none" stroke="black" points="444.5,-67 444.5,-97 618.5,-97 618.5,-67 444.5,-67"/>
<text text-anchor="start" x="452.5" y="-85" font-family="Helvetica,sans-Serif" font-size="10.00">com.cliffc.aa.util.Ary</text>
<text text-anchor="middle" x="531.5" y="-74" font-family="Helvetica,sans-Serif" font-size="10.00">&lt; com.cliffc.aa.HM.HM3.Ident &gt;</text>
</a>
</g>
</g>
<!-- Node7&#45;&gt;Node6 -->
<g id="edge6" class="edge">
<title>Node7&#45;&gt;Node6</title>
<path fill="none" stroke="#9a32cd" stroke-dasharray="5,2" d="M628.84,-82C658.22,-82 690.25,-82 718.63,-82"/>
<polygon fill="#9a32cd" stroke="#9a32cd" points="628.56,-78.5 618.56,-82 628.56,-85.5 628.56,-78.5"/>
<text text-anchor="middle" x="673" y="-85" font-family="Helvetica,sans-Serif" font-size="10.00"> _ids</text>
</g>
<!-- Node8 -->
<g id="node8" class="node">
<title>Node8</title>
<g id="a_node8"><a xlink:href="../../d6/d02/a01542.html" target="_top" xlink:title=" ">
<polygon fill="none" stroke="black" points="143,-103.5 143,-122.5 289,-122.5 289,-103.5 143,-103.5"/>
<text text-anchor="middle" x="216" y="-110.5" font-family="Helvetica,sans-Serif" font-size="10.00">com.cliffc.aa.util.Ary&lt; E &gt;</text>
</a>
</g>
</g>
<!-- Node8&#45;&gt;Node7 -->
<g id="edge7" class="edge">
<title>Node8&#45;&gt;Node7</title>
<path fill="none" stroke="orange" stroke-dasharray="5,2" d="M248.5,-99.77C265.49,-93.33 287.03,-86.29 307,-83 351.89,-75.61 402.55,-74.78 444.27,-76.05"/>
<polygon fill="orange" stroke="orange" points="247.1,-96.55 239.06,-103.45 249.65,-103.07 247.1,-96.55"/>
<text text-anchor="start" x="318" y="-97" font-family="Helvetica,sans-Serif" font-size="10.00"> &lt; com::cliffc::aa::</text>
<text text-anchor="middle" x="362.5" y="-86" font-family="Helvetica,sans-Serif" font-size="10.00">HM::HM3::Ident &gt;</text>
</g>
<!-- Node16 -->
<g id="node16" class="node">
<title>Node16</title>
<g id="a_node16"><a xlink:href="../../d6/d02/a01542.html" target="_top" xlink:title=" ">
<polygon fill="none" stroke="black" points="455.5,-161 455.5,-191 607.5,-191 607.5,-161 455.5,-161"/>
<text text-anchor="start" x="463.5" y="-179" font-family="Helvetica,sans-Serif" font-size="10.00">com.cliffc.aa.util.Ary</text>
<text text-anchor="middle" x="531.5" y="-168" font-family="Helvetica,sans-Serif" font-size="10.00">&lt; com.cliffc.aa.type.Type &gt;</text>
</a>
</g>
</g>
<!-- Node8&#45;&gt;Node16 -->
<g id="edge18" class="edge">
<title>Node8&#45;&gt;Node16</title>
<path fill="none" stroke="orange" stroke-dasharray="5,2" d="M299.23,-113.06C336,-114.63 379.62,-118.65 418,-128 447.92,-135.29 480.03,-149.72 502.26,-160.86"/>
<polygon fill="orange" stroke="orange" points="299.18,-109.55 289.05,-112.68 298.91,-116.55 299.18,-109.55"/>
<text text-anchor="start" x="318" y="-142" font-family="Helvetica,sans-Serif" font-size="10.00"> &lt; com::cliffc::aa::</text>
<text text-anchor="middle" x="362.5" y="-131" font-family="Helvetica,sans-Serif" font-size="10.00">type::Type &gt;</text>
</g>
<!-- Node9 -->
<g id="node9" class="node">
<title>Node9</title>
<g id="a_node9"><a xlink:href="../../dd/df4/a02510.html" target="_top" xlink:title=" ">
<polygon fill="none" stroke="black" points="0,-103.5 0,-122.5 83,-122.5 83,-103.5 0,-103.5"/>
<text text-anchor="middle" x="41.5" y="-110.5" font-family="Helvetica,sans-Serif" font-size="10.00">Iterable&lt; E &gt;</text>
</a>
</g>
</g>
<!-- Node9&#45;&gt;Node8 -->
<g id="edge8" class="edge">
<title>Node9&#45;&gt;Node8</title>
<path fill="none" stroke="midnightblue" d="M93.7,-113C109.07,-113 126.22,-113 142.68,-113"/>
<polygon fill="midnightblue" stroke="midnightblue" points="93.38,-109.5 83.38,-113 93.38,-116.5 93.38,-109.5"/>
</g>
<!-- Node10 -->
<g id="node10" class="node">
<title>Node10</title>
<g id="a_node10"><a xlink:title=" ">
<polygon fill="none" stroke="#bfbfbf" points="26.5,-65.5 26.5,-84.5 56.5,-84.5 56.5,-65.5 26.5,-65.5"/>
<text text-anchor="middle" x="41.5" y="-72.5" font-family="Helvetica,sans-Serif" font-size="10.00">E[]</text>
</a>
</g>
</g>
<!-- Node10&#45;&gt;Node8 -->
<g id="edge9" class="edge">
<title>Node10&#45;&gt;Node8</title>
<path fill="none" stroke="#9a32cd" stroke-dasharray="5,2" d="M66.43,-80.27C93.59,-86.25 138.45,-96.14 171.78,-103.48"/>
<polygon fill="#9a32cd" stroke="#9a32cd" points="67.14,-76.84 56.62,-78.11 65.63,-83.68 67.14,-76.84"/>
<text text-anchor="middle" x="113" y="-95" font-family="Helvetica,sans-Serif" font-size="10.00"> _es</text>
</g>
<!-- Node11 -->
<g id="node11" class="node">
<title>Node11</title>
<g id="a_node11"><a xlink:title=" ">
<polygon fill="none" stroke="#bfbfbf" points="27,-312.5 27,-331.5 56,-331.5 56,-312.5 27,-312.5"/>
<text text-anchor="middle" x="41.5" y="-319.5" font-family="Helvetica,sans-Serif" font-size="10.00">int</text>
</a>
</g>
</g>
<!-- Node11&#45;&gt;Node6 -->
<g id="edge11" class="edge">
<title>Node11&#45;&gt;Node6</title>
<path fill="none" stroke="#9a32cd" stroke-dasharray="5,2" d="M65.24,-310.06C124.6,-279.38 289.76,-197.02 436,-152 492.5,-134.61 655.14,-106.25 743.01,-91.53"/>
<polygon fill="#9a32cd" stroke="#9a32cd" points="63.29,-307.14 56.03,-314.85 66.51,-313.35 63.29,-307.14"/>
<text text-anchor="middle" x="362.5" y="-211" font-family="Helvetica,sans-Serif" font-size="10.00"> _uid</text>
<text text-anchor="middle" x="362.5" y="-200" font-family="Helvetica,sans-Serif" font-size="10.00">CNT</text>
</g>
<!-- Node11&#45;&gt;Node8 -->
<g id="edge10" class="edge">
<title>Node11&#45;&gt;Node8</title>
<path fill="none" stroke="#9a32cd" stroke-dasharray="5,2" d="M43.38,-302.28C46.07,-266.26 56.96,-189.62 101,-147 113.1,-135.29 129.04,-127.6 145.17,-122.54"/>
<polygon fill="#9a32cd" stroke="#9a32cd" points="39.88,-302.26 42.77,-312.45 46.86,-302.68 39.88,-302.26"/>
<text text-anchor="middle" x="113" y="-150" font-family="Helvetica,sans-Serif" font-size="10.00"> _len</text>
</g>
<!-- Node14 -->
<g id="node14" class="node">
<title>Node14</title>
<g id="a_node14"><a xlink:href="../../d0/de2/a01442.html" target="_top" xlink:title="an implementation of language AA">
<polygon fill="none" stroke="black" points="737,-277 737,-307 867,-307 867,-277 737,-277"/>
<text text-anchor="start" x="745" y="-295" font-family="Helvetica,sans-Serif" font-size="10.00">com.cliffc.aa.type.Type</text>
<text text-anchor="middle" x="802" y="-284" font-family="Helvetica,sans-Serif" font-size="10.00">&lt; T extends Type&lt; T &gt;</text>
</a>
</g>
</g>
<!-- Node11&#45;&gt;Node14 -->
<g id="edge27" class="edge">
<title>Node11&#45;&gt;Node14</title>
<path fill="none" stroke="#9a32cd" stroke-dasharray="5,2" d="M65.27,-332.39C124.7,-358.91 290.02,-428.73 436,-454 527.54,-469.85 552.1,-457.11 645,-458 669.89,-458.24 679.33,-470.24 701,-458 759.88,-424.73 787.95,-341.37 797.29,-307.09"/>
<polygon fill="#9a32cd" stroke="#9a32cd" points="66.6,-329.15 56.04,-328.24 63.73,-335.54 66.6,-329.15"/>
<text text-anchor="middle" x="362.5" y="-486" font-family="Helvetica,sans-Serif" font-size="10.00"> RECURSIVE_MEET</text>
<text text-anchor="middle" x="362.5" y="-475" font-family="Helvetica,sans-Serif" font-size="10.00">_uid</text>
<text text-anchor="middle" x="362.5" y="-464" font-family="Helvetica,sans-Serif" font-size="10.00">CNT</text>
<text text-anchor="middle" x="362.5" y="-453" font-family="Helvetica,sans-Serif" font-size="10.00">_hash</text>
</g>
<!-- Node18 -->
<g id="node18" class="node">
<title>Node18</title>
<g id="a_node18"><a xlink:href="../../d8/d22/a01446.html" target="_top" xlink:title=" ">
<polygon fill="none" stroke="black" points="959.5,-262 959.5,-292 1113.5,-292 1113.5,-262 959.5,-262"/>
<text text-anchor="start" x="967.5" y="-280" font-family="Helvetica,sans-Serif" font-size="10.00">com.cliffc.aa.type.Type</text>
<text text-anchor="middle" x="1036.5" y="-269" font-family="Helvetica,sans-Serif" font-size="10.00">&lt; T extends Type&lt; T &gt;.Pool</text>
</a>
</g>
</g>
<!-- Node11&#45;&gt;Node18 -->
<g id="edge22" class="edge">
<title>Node11&#45;&gt;Node18</title>
<path fill="none" stroke="#9a32cd" stroke-dasharray="5,2" d="M44.48,-341.79C52.3,-407.9 87.13,-617 215,-617 215,-617 215,-617 803,-617 958.84,-617 839.93,-404.86 957,-302 961.41,-298.13 966.41,-294.86 971.72,-292.09"/>
<polygon fill="#9a32cd" stroke="#9a32cd" points="47.96,-341.37 43.38,-331.82 41,-342.14 47.96,-341.37"/>
<text text-anchor="middle" x="531.5" y="-653" font-family="Helvetica,sans-Serif" font-size="10.00"> _free</text>
<text text-anchor="middle" x="531.5" y="-642" font-family="Helvetica,sans-Serif" font-size="10.00">_pool</text>
<text text-anchor="middle" x="531.5" y="-631" font-family="Helvetica,sans-Serif" font-size="10.00">_malloc</text>
<text text-anchor="middle" x="531.5" y="-620" font-family="Helvetica,sans-Serif" font-size="10.00">_clone</text>
</g>
<!-- Node12 -->
<g id="node12" class="node">
<title>Node12</title>
<g id="a_node12"><a xlink:title=" ">
<polygon fill="none" stroke="#bfbfbf" points="436,-0.5 436,-41.5 627,-41.5 627,-0.5 436,-0.5"/>
<text text-anchor="start" x="444" y="-29.5" font-family="Helvetica,sans-Serif" font-size="10.00">HashMap&lt; com.cliffc.aa.HM.</text>
<text text-anchor="start" x="444" y="-18.5" font-family="Helvetica,sans-Serif" font-size="10.00">HM3.HMVar, com.cliffc.aa.HM.HM3.</text>
<text text-anchor="middle" x="531.5" y="-7.5" font-family="Helvetica,sans-Serif" font-size="10.00">HMVar &gt;</text>
</a>
</g>
</g>
<!-- Node12&#45;&gt;Node6 -->
<g id="edge13" class="edge">
<title>Node12&#45;&gt;Node6</title>
<path fill="none" stroke="#9a32cd" stroke-dasharray="5,2" d="M632.83,-43.79C676.46,-53.71 725.21,-64.78 758.94,-72.45"/>
<polygon fill="#9a32cd" stroke="#9a32cd" points="633.55,-40.37 623.03,-41.57 632,-47.2 633.55,-40.37"/>
<text text-anchor="middle" x="673" y="-61" font-family="Helvetica,sans-Serif" font-size="10.00"> EQS</text>
</g>
<!-- Node13 -->
<g id="node13" class="node">
<title>Node13</title>
<g id="a_node13"><a xlink:title=" ">
<polygon fill="none" stroke="#bfbfbf" points="185,-5.5 185,-24.5 247,-24.5 247,-5.5 185,-5.5"/>
<text text-anchor="middle" x="216" y="-12.5" font-family="Helvetica,sans-Serif" font-size="10.00">HashMap</text>
</a>
</g>
</g>
<!-- Node13&#45;&gt;Node12 -->
<g id="edge14" class="edge">
<title>Node13&#45;&gt;Node12</title>
<path fill="none" stroke="orange" stroke-dasharray="5,2" d="M257.35,-14.73C297.94,-14.58 362.32,-14.62 418,-16 423.86,-16.14 429.9,-16.32 435.98,-16.53"/>
<polygon fill="orange" stroke="orange" points="257.3,-11.23 247.31,-14.78 257.33,-18.23 257.3,-11.23"/>
<text text-anchor="start" x="307" y="-52" font-family="Helvetica,sans-Serif" font-size="10.00"> &lt; com::cliffc::aa::</text>
<text text-anchor="start" x="307" y="-41" font-family="Helvetica,sans-Serif" font-size="10.00">HM::HM3::HMVar, com</text>
<text text-anchor="start" x="307" y="-30" font-family="Helvetica,sans-Serif" font-size="10.00">::cliffc::aa::HM::HM3</text>
<text text-anchor="middle" x="362.5" y="-19" font-family="Helvetica,sans-Serif" font-size="10.00">::HMVar &gt;</text>
</g>
<!-- Node14&#45;&gt;Node5 -->
<g id="edge15" class="edge">
<title>Node14&#45;&gt;Node5</title>
<path fill="none" stroke="#9a32cd" stroke-dasharray="5,2" d="M856.16,-273.8C871.21,-268.98 887.66,-264 903,-260 928.78,-253.27 957.75,-247.2 982.01,-242.53"/>
<polygon fill="#9a32cd" stroke="#9a32cd" points="854.94,-270.52 846.51,-276.94 857.1,-277.18 854.94,-270.52"/>
<text text-anchor="middle" x="921" y="-263" font-family="Helvetica,sans-Serif" font-size="10.00"> _t</text>
</g>
<!-- Node14&#45;&gt;Node14 -->
<g id="edge28" class="edge">
<title>Node14&#45;&gt;Node14</title>
<path fill="none" stroke="#9a32cd" stroke-dasharray="5,2" d="M781.03,-317.46C783.64,-322.18 790.62,-325.5 802,-325.5 820.67,-325.5 827.52,-316.56 822.56,-307.16"/>
<polygon fill="#9a32cd" stroke="#9a32cd" points="784.54,-317.29 781.44,-307.16 777.55,-317.01 784.54,-317.29"/>
<text text-anchor="middle" x="802" y="-438.5" font-family="Helvetica,sans-Serif" font-size="10.00"> XREAL</text>
<text text-anchor="middle" x="802" y="-427.5" font-family="Helvetica,sans-Serif" font-size="10.00">TYPES</text>
<text text-anchor="middle" x="802" y="-416.5" font-family="Helvetica,sans-Serif" font-size="10.00">XNREAL</text>
<text text-anchor="middle" x="802" y="-405.5" font-family="Helvetica,sans-Serif" font-size="10.00">XSCALAR</text>
<text text-anchor="middle" x="802" y="-394.5" font-family="Helvetica,sans-Serif" font-size="10.00">NREAL</text>
<text text-anchor="middle" x="802" y="-383.5" font-family="Helvetica,sans-Serif" font-size="10.00">ANY</text>
<text text-anchor="middle" x="802" y="-372.5" font-family="Helvetica,sans-Serif" font-size="10.00">NSCALR</text>
<text text-anchor="middle" x="802" y="-361.5" font-family="Helvetica,sans-Serif" font-size="10.00">XNIL</text>
<text text-anchor="middle" x="802" y="-350.5" font-family="Helvetica,sans-Serif" font-size="10.00">CTRL</text>
<text text-anchor="middle" x="802" y="-339.5" font-family="Helvetica,sans-Serif" font-size="10.00">SCALAR</text>
<text text-anchor="middle" x="802" y="-328.5" font-family="Helvetica,sans-Serif" font-size="10.00">...</text>
</g>
<!-- Node14&#45;&gt;Node18 -->
<g id="edge23" class="edge">
<title>Node14&#45;&gt;Node18</title>
<path fill="none" stroke="#9a32cd" stroke-dasharray="5,2" d="M877.08,-290.17C897.18,-289.43 918.94,-288.41 939,-287 945.64,-286.53 952.52,-285.97 959.42,-285.36"/>
<polygon fill="#9a32cd" stroke="#9a32cd" points="876.91,-286.67 867.04,-290.52 877.16,-293.67 876.91,-286.67"/>
<text text-anchor="middle" x="921" y="-291" font-family="Helvetica,sans-Serif" font-size="10.00"> _gold</text>
</g>
<!-- Node15 -->
<g id="node15" class="node">
<title>Node15</title>
<g id="a_node15"><a xlink:href="../../d9/d76/a02526.html" target="_top" xlink:title=" ">
<polygon fill="none" stroke="black" points="499,-501.5 499,-520.5 564,-520.5 564,-501.5 499,-501.5"/>
<text text-anchor="middle" x="531.5" y="-508.5" font-family="Helvetica,sans-Serif" font-size="10.00">Cloneable</text>
</a>
</g>
</g>
<!-- Node15&#45;&gt;Node14 -->
<g id="edge16" class="edge">
<title>Node15&#45;&gt;Node14</title>
<path fill="none" stroke="midnightblue" d="M574.57,-515.22C611.25,-516.68 664.21,-513.22 701,-487 764.36,-441.84 790.3,-344.4 798.18,-307.02"/>
<polygon fill="midnightblue" stroke="midnightblue" points="574.39,-511.7 564.21,-514.66 574.01,-518.69 574.39,-511.7"/>
</g>
<!-- Node16&#45;&gt;Node14 -->
<g id="edge17" class="edge">
<title>Node16&#45;&gt;Node14</title>
<path fill="none" stroke="#9a32cd" stroke-dasharray="5,2" d="M602.05,-193.73C610.48,-196.07 618.96,-198.53 627,-201 660.32,-211.24 669.72,-211.61 701,-227 730.17,-241.35 761.17,-262.55 780.79,-276.79"/>
<polygon fill="#9a32cd" stroke="#9a32cd" points="602.76,-190.29 592.19,-191.02 600.91,-197.04 602.76,-190.29"/>
<text text-anchor="middle" x="673" y="-230" font-family="Helvetica,sans-Serif" font-size="10.00"> ALL_TYPES</text>
</g>
<!-- Node16&#45;&gt;Node18 -->
<g id="edge21" class="edge">
<title>Node16&#45;&gt;Node18</title>
<path fill="none" stroke="#9a32cd" stroke-dasharray="5,2" d="M617.78,-187.75C700.5,-199.93 829.27,-220.98 939,-248 955.31,-252.02 972.95,-257.1 988.64,-261.88"/>
<polygon fill="#9a32cd" stroke="#9a32cd" points="618.07,-184.25 607.67,-186.27 617.06,-191.18 618.07,-184.25"/>
<text text-anchor="middle" x="802" y="-238" font-family="Helvetica,sans-Serif" font-size="10.00"> _frees</text>
</g>
<!-- Node17 -->
<g id="node17" class="node">
<title>Node17</title>
<g id="a_node17"><a xlink:title=" ">
<polygon fill="none" stroke="#bfbfbf" points="509,-425.5 509,-444.5 554,-444.5 554,-425.5 509,-425.5"/>
<text text-anchor="middle" x="531.5" y="-432.5" font-family="Helvetica,sans-Serif" font-size="10.00">String</text>
</a>
</g>
</g>
<!-- Node17&#45;&gt;Node14 -->
<g id="edge19" class="edge">
<title>Node17&#45;&gt;Node14</title>
<path fill="none" stroke="#9a32cd" stroke-dasharray="5,2" d="M564.55,-437.81C600.13,-439.45 658.19,-437.61 701,-414 746.56,-388.87 779.58,-333.84 793.57,-307.13"/>
<polygon fill="#9a32cd" stroke="#9a32cd" points="564.45,-434.3 554.27,-437.21 564.05,-441.28 564.45,-434.3"/>
<text text-anchor="middle" x="673" y="-446" font-family="Helvetica,sans-Serif" font-size="10.00"> STRS</text>
<text text-anchor="middle" x="673" y="-435" font-family="Helvetica,sans-Serif" font-size="10.00">_name</text>
</g>
<!-- Node18&#45;&gt;Node14 -->
<g id="edge20" class="edge">
<title>Node18&#45;&gt;Node14</title>
<path fill="none" stroke="#9a32cd" stroke-dasharray="5,2" d="M949.09,-276.06C945.68,-276.04 942.31,-276.02 939,-276 923,-275.92 918.95,-274.73 903,-276 891.34,-276.93 879,-278.45 867.1,-280.2"/>
<polygon fill="#9a32cd" stroke="#9a32cd" points="949.36,-279.56 959.38,-276.14 949.41,-272.56 949.36,-279.56"/>
<text text-anchor="middle" x="921" y="-279" font-family="Helvetica,sans-Serif" font-size="10.00"> POOLS</text>
</g>
<!-- Node19 -->
<g id="node19" class="node">
<title>Node19</title>
<g id="a_node19"><a xlink:title=" ">
<polygon fill="none" stroke="#bfbfbf" points="512.5,-286.5 512.5,-305.5 550.5,-305.5 550.5,-286.5 512.5,-286.5"/>
<text text-anchor="middle" x="531.5" y="-293.5" font-family="Helvetica,sans-Serif" font-size="10.00">byte</text>
</a>
</g>
</g>
<!-- Node19&#45;&gt;Node14 -->
<g id="edge24" class="edge">
<title>Node19&#45;&gt;Node14</title>
<path fill="none" stroke="#9a32cd" stroke-dasharray="5,2" d="M560.81,-295.09C583.56,-294.39 616.33,-293.47 645,-293 675.19,-292.5 708.68,-292.25 736.86,-292.12"/>
<polygon fill="#9a32cd" stroke="#9a32cd" points="560.7,-291.59 550.81,-295.4 560.92,-298.58 560.7,-291.59"/>
<text text-anchor="middle" x="673" y="-406" font-family="Helvetica,sans-Serif" font-size="10.00"> TMEM</text>
<text text-anchor="middle" x="673" y="-395" font-family="Helvetica,sans-Serif" font-size="10.00">TRPC</text>
<text text-anchor="middle" x="673" y="-384" font-family="Helvetica,sans-Serif" font-size="10.00">TSIMPLE</text>
<text text-anchor="middle" x="673" y="-373" font-family="Helvetica,sans-Serif" font-size="10.00">TXREAL</text>
<text text-anchor="middle" x="673" y="-362" font-family="Helvetica,sans-Serif" font-size="10.00">TSCALAR</text>
<text text-anchor="middle" x="673" y="-351" font-family="Helvetica,sans-Serif" font-size="10.00">TSTRUCT</text>
<text text-anchor="middle" x="673" y="-340" font-family="Helvetica,sans-Serif" font-size="10.00">TOBJ</text>
<text text-anchor="middle" x="673" y="-329" font-family="Helvetica,sans-Serif" font-size="10.00">_type</text>
<text text-anchor="middle" x="673" y="-318" font-family="Helvetica,sans-Serif" font-size="10.00">TARY</text>
<text text-anchor="middle" x="673" y="-307" font-family="Helvetica,sans-Serif" font-size="10.00">TTUPLE</text>
<text text-anchor="middle" x="673" y="-296" font-family="Helvetica,sans-Serif" font-size="10.00">...</text>
</g>
<!-- Node20 -->
<g id="node20" class="node">
<title>Node20</title>
<g id="a_node20"><a xlink:title=" ">
<polygon fill="none" stroke="#bfbfbf" points="460,-539.5 460,-580.5 603,-580.5 603,-539.5 460,-539.5"/>
<text text-anchor="start" x="468" y="-568.5" font-family="Helvetica,sans-Serif" font-size="10.00">ConcurrentHashMap&lt;</text>
<text text-anchor="start" x="468" y="-557.5" font-family="Helvetica,sans-Serif" font-size="10.00"> com.cliffc.aa.type.Type,</text>
<text text-anchor="middle" x="531.5" y="-546.5" font-family="Helvetica,sans-Serif" font-size="10.00"> com.cliffc.aa.type.Type &gt;</text>
</a>
</g>
</g>
<!-- Node20&#45;&gt;Node14 -->
<g id="edge25" class="edge">
<title>Node20&#45;&gt;Node14</title>
<path fill="none" stroke="#9a32cd" stroke-dasharray="5,2" d="M613.46,-551.46C643.75,-544.79 676.67,-532.95 701,-512 766.65,-455.47 791.46,-346.99 798.59,-307.15"/>
<polygon fill="#9a32cd" stroke="#9a32cd" points="612.41,-548.1 603.31,-553.53 613.81,-554.96 612.41,-548.1"/>
<text text-anchor="middle" x="673" y="-544" font-family="Helvetica,sans-Serif" font-size="10.00"> INTERN</text>
</g>
<!-- Node21 -->
<g id="node21" class="node">
<title>Node21</title>
<g id="a_node21"><a xlink:title=" ">
<polygon fill="none" stroke="#bfbfbf" points="158,-550.5 158,-569.5 274,-569.5 274,-550.5 158,-550.5"/>
<text text-anchor="middle" x="216" y="-557.5" font-family="Helvetica,sans-Serif" font-size="10.00">ConcurrentHashMap</text>
</a>
</g>
</g>
<!-- Node21&#45;&gt;Node20 -->
<g id="edge26" class="edge">
<title>Node21&#45;&gt;Node20</title>
<path fill="none" stroke="orange" stroke-dasharray="5,2" d="M284.2,-560C335.91,-560 407.17,-560 459.74,-560"/>
<polygon fill="orange" stroke="orange" points="284.14,-556.5 274.14,-560 284.14,-563.5 284.14,-556.5"/>
<text text-anchor="start" x="309" y="-585" font-family="Helvetica,sans-Serif" font-size="10.00"> &lt; com::cliffc::aa::</text>
<text text-anchor="start" x="309" y="-574" font-family="Helvetica,sans-Serif" font-size="10.00">type::Type, com::cliffc</text>
<text text-anchor="middle" x="362.5" y="-563" font-family="Helvetica,sans-Serif" font-size="10.00">::aa::type::Type &gt;</text>
</g>
<!-- Node22 -->
<g id="node22" class="node">
<title>Node22</title>
<g id="a_node22"><a xlink:title=" ">
<polygon fill="none" stroke="#bfbfbf" points="517,-248.5 517,-267.5 546,-267.5 546,-248.5 517,-248.5"/>
<text text-anchor="middle" x="531.5" y="-255.5" font-family="Helvetica,sans-Serif" font-size="10.00">T</text>
</a>
</g>
</g>
<!-- Node22&#45;&gt;Node14 -->
<g id="edge29" class="edge">
<title>Node22&#45;&gt;Node14</title>
<path fill="none" stroke="#9a32cd" stroke-dasharray="5,2" d="M556.41,-260.42C589.1,-263.79 649.56,-270.24 701,-277 712.57,-278.52 724.88,-280.26 736.77,-282.01"/>
<polygon fill="#9a32cd" stroke="#9a32cd" points="556.37,-256.9 546.06,-259.36 555.65,-263.86 556.37,-256.9"/>
<text text-anchor="middle" x="673" y="-280" font-family="Helvetica,sans-Serif" font-size="10.00"> _dual</text>
</g>
<!-- Node23 -->
<g id="node23" class="node">
<title>Node23</title>
<g id="a_node23"><a xlink:href="../../d7/df2/a02322.html" target="_top" xlink:title=" ">
<polygon fill="none" stroke="black" points="503.5,-210.5 503.5,-229.5 559.5,-229.5 559.5,-210.5 503.5,-210.5"/>
<text text-anchor="middle" x="531.5" y="-217.5" font-family="Helvetica,sans-Serif" font-size="10.00">Type&lt; T</text>
</a>
</g>
</g>
<!-- Node23&#45;&gt;Node14 -->
<g id="edge30" class="edge">
<title>Node23&#45;&gt;Node14</title>
<path fill="none" stroke="orange" stroke-dasharray="5,2" d="M570.11,-227.43C587.44,-230.89 608.28,-235.09 627,-239 659.94,-245.87 668.7,-245.58 701,-255 722.15,-261.17 745.24,-269.59 763.91,-276.85"/>
<polygon fill="orange" stroke="orange" points="570.31,-223.9 559.81,-225.38 568.94,-230.77 570.31,-223.9"/>
<text text-anchor="middle" x="673" y="-258" font-family="Helvetica,sans-Serif" font-size="10.00"> T</text>
</g>
</g>
</svg>
        <g id="navigator" transform="translate(0 0)" fill="#404254">
                <rect fill="#f2f5e9" fill-opacity="0.5" stroke="#606060" stroke-width=".5" x="0" y="0" width="60" height="60"/>
                <use id="zoomplus" xlink:href="#zoomPlus" x="17" y="9" onmousedown="handleZoom(evt,'in')"/>
                <use id="zoomminus" xlink:href="#zoomMin" x="42" y="9" onmousedown="handleZoom(evt,'out')"/>
                <use id="reset" xlink:href="#resetDef" x="30" y="36" onmousedown="handleReset()"/>
                <g id="arrowUp" xlink:href="#dirArrow" transform="translate(30 24)" onmousedown="handlePan(0,-1)">
                  <use xlink:href="#rim" fill="#404040">
                        <set attributeName="fill" to="#808080" begin="arrowUp.mouseover" end="arrowUp.mouseout"/>
                  </use>
                  <path fill="none" stroke="white" stroke-width="1.5" d="M0,-3.0v7 M-2.5,-0.5L0,-3.0L2.5,-0.5"/>
                </g>
                <g id="arrowRight" xlink:href="#dirArrow" transform="rotate(90) translate(36 -43)" onmousedown="handlePan(1,0)">
                  <use xlink:href="#rim" fill="#404040">
                        <set attributeName="fill" to="#808080" begin="arrowRight.mouseover" end="arrowRight.mouseout"/>
                  </use>
                  <path fill="none" stroke="white" stroke-width="1.5" d="M0,-3.0v7 M-2.5,-0.5L0,-3.0L2.5,-0.5"/>
                </g>
                <g id="arrowDown" xlink:href="#dirArrow" transform="rotate(180) translate(-30 -48)" onmousedown="handlePan(0,1)">
                  <use xlink:href="#rim" fill="#404040">
                        <set attributeName="fill" to="#808080" begin="arrowDown.mouseover" end="arrowDown.mouseout"/>
                  </use>
                  <path fill="none" stroke="white" stroke-width="1.5" d="M0,-3.0v7 M-2.5,-0.5L0,-3.0L2.5,-0.5"/>
                </g>
                <g id="arrowLeft" xlink:href="#dirArrow" transform="rotate(270) translate(-36 17)" onmousedown="handlePan(-1,0)">
                  <use xlink:href="#rim" fill="#404040">
                        <set attributeName="fill" to="#808080" begin="arrowLeft.mouseover" end="arrowLeft.mouseout"/>
                  </use>
                  <path fill="none" stroke="white" stroke-width="1.5" d="M0,-3.0v7 M-2.5,-0.5L0,-3.0L2.5,-0.5"/>
                </g>
        </g>
        <svg viewBox="0 0 15 15" width="100%" height="30px" preserveAspectRatio="xMaxYMin meet">
         <g id="arrow_out" transform="scale(0.3 0.3)">
          <a xlink:href="a00608_org.svg" target="_base">
           <rect id="button" ry="5" rx="5" y="6" x="6" height="38" width="38"
                fill="#f2f5e9" fill-opacity="0.5" stroke="#606060" stroke-width="1.0"/>
           <path id="arrow"
             d="M 11.500037,31.436501 C 11.940474,20.09759 22.043105,11.32322 32.158766,21.979434 L 37.068811,17.246167 C 37.068811,17.246167 37.088388,32 37.088388,32 L 22.160133,31.978069 C 22.160133,31.978069 26.997745,27.140456 26.997745,27.140456 C 18.528582,18.264221 13.291696,25.230495 11.500037,31.436501 z"
             style="fill:#404040;"/>
          </a>
         </g>
        </svg>
</svg>
