<?xml version="1.0" encoding="UTF-8" standalone="no"?>
<!DOCTYPE svg PUBLIC "-//W3C//DTD SVG 1.1//EN"
 "http://www.w3.org/Graphics/SVG/1.1/DTD/svg11.dtd">
<!-- Generated by graphviz version 2.43.0 (0)
 -->
<!-- Title: com.cliffc.aa.HM.HM7.Let.p2 Pages: 1 -->
<svg width="1571pt" height="444pt"
 viewBox="0.00 0.00 1571.00 444.00" xmlns="http://www.w3.org/2000/svg" xmlns:xlink="http://www.w3.org/1999/xlink">
<g id="graph0" class="graph" transform="scale(1 1) rotate(0) translate(4 440)">
<title>com.cliffc.aa.HM.HM7.Let.p2</title>
<!-- Node1 -->
<g id="node1" class="node">
<title>Node1</title>
<g id="a_node1"><a xlink:title=" ">
<polygon fill="#bfbfbf" stroke="black" points="0,-264.5 0,-283.5 157,-283.5 157,-264.5 0,-264.5"/>
<text text-anchor="middle" x="78.5" y="-271.5" font-family="Helvetica,sans-Serif" font-size="10.00">com.cliffc.aa.HM.HM7.Let.p2</text>
</a>
</g>
</g>
<!-- Node2 -->
<g id="node2" class="node">
<title>Node2</title>
<g id="a_node2"><a xlink:href="../../d5/dcd/a00802.html#afb5b615a1c5e1d4e89fd09997dc3e497" target="_top" xlink:title=" ">
<polygon fill="none" stroke="black" points="193,-264.5 193,-283.5 369,-283.5 369,-264.5 193,-264.5"/>
<text text-anchor="middle" x="281" y="-271.5" font-family="Helvetica,sans-Serif" font-size="10.00">com.cliffc.aa.HM.HM7.Syntax.p0</text>
</a>
</g>
</g>
<!-- Node1&#45;&gt;Node2 -->
<g id="edge1" class="edge">
<title>Node1&#45;&gt;Node2</title>
<path fill="none" stroke="midnightblue" d="M157.02,-274C165.41,-274 174.03,-274 182.63,-274"/>
<polygon fill="midnightblue" stroke="midnightblue" points="182.68,-277.5 192.68,-274 182.68,-270.5 182.68,-277.5"/>
</g>
<!-- Node3 -->
<g id="node3" class="node">
<title>Node3</title>
<g id="a_node3"><a xlink:href="../../d4/d99/a01634.html#abfac42eaf89db4481f58c14568dfb131" target="_top" xlink:title=" ">
<polygon fill="none" stroke="black" points="435.5,-378.5 435.5,-397.5 560.5,-397.5 560.5,-378.5 435.5,-378.5"/>
<text text-anchor="middle" x="498" y="-385.5" font-family="Helvetica,sans-Serif" font-size="10.00">com.cliffc.aa.util.SB.di</text>
</a>
</g>
</g>
<!-- Node2&#45;&gt;Node3 -->
<g id="edge2" class="edge">
<title>Node2&#45;&gt;Node3</title>
<path fill="none" stroke="midnightblue" d="M291.18,-283.57C310.37,-302.96 356.94,-346.92 405,-369 411.52,-372 418.52,-374.52 425.63,-376.65"/>
<polygon fill="midnightblue" stroke="midnightblue" points="424.81,-380.06 435.38,-379.32 426.66,-373.31 424.81,-380.06"/>
</g>
<!-- Node5 -->
<g id="node5" class="node">
<title>Node5</title>
<g id="a_node5"><a xlink:href="../../d9/d02/a00834.html#a4dc5a99213d7877ebaf22d055042355b" target="_top" xlink:title=" ">
<polygon fill="none" stroke="black" points="405,-78.5 405,-97.5 591,-97.5 591,-78.5 405,-78.5"/>
<text text-anchor="middle" x="498" y="-85.5" font-family="Helvetica,sans-Serif" font-size="10.00">com.cliffc.aa.HM.HM7.T2.get_dups</text>
</a>
</g>
</g>
<!-- Node2&#45;&gt;Node5 -->
<g id="edge5" class="edge">
<title>Node2&#45;&gt;Node5</title>
<path fill="none" stroke="midnightblue" d="M289.22,-264.38C306.99,-241.12 355.1,-180.82 405,-141 424.35,-125.56 448.72,-111.73 467.52,-102.07"/>
<polygon fill="midnightblue" stroke="midnightblue" points="469.15,-105.17 476.51,-97.55 466.01,-98.91 469.15,-105.17"/>
</g>
<!-- Node12 -->
<g id="node12" class="node">
<title>Node12</title>
<g id="a_node12"><a xlink:href="../../d4/d99/a01634.html#af4644d310d3f2b8504bb25573f9d528e" target="_top" xlink:title=" ">
<polygon fill="none" stroke="black" points="438.5,-340.5 438.5,-359.5 557.5,-359.5 557.5,-340.5 438.5,-340.5"/>
<text text-anchor="middle" x="498" y="-347.5" font-family="Helvetica,sans-Serif" font-size="10.00">com.cliffc.aa.util.SB.i</text>
</a>
</g>
</g>
<!-- Node2&#45;&gt;Node12 -->
<g id="edge12" class="edge">
<title>Node2&#45;&gt;Node12</title>
<path fill="none" stroke="midnightblue" d="M302.11,-283.57C326.18,-294.77 367.9,-313.39 405,-326 417.83,-330.36 431.89,-334.39 445.07,-337.86"/>
<polygon fill="midnightblue" stroke="midnightblue" points="444.39,-341.29 454.94,-340.39 446.13,-334.51 444.39,-341.29"/>
</g>
<!-- Node13 -->
<g id="node13" class="node">
<title>Node13</title>
<g id="a_node13"><a xlink:href="../../d4/d99/a01634.html#ac801338e82849a7fe2ae7a0feb80bb55" target="_top" xlink:title=" ">
<polygon fill="none" stroke="black" points="841.5,-334.5 841.5,-353.5 963.5,-353.5 963.5,-334.5 841.5,-334.5"/>
<text text-anchor="middle" x="902.5" y="-341.5" font-family="Helvetica,sans-Serif" font-size="10.00">com.cliffc.aa.util.SB.p</text>
</a>
</g>
</g>
<!-- Node2&#45;&gt;Node13 -->
<g id="edge20" class="edge">
<title>Node2&#45;&gt;Node13</title>
<path fill="none" stroke="midnightblue" d="M365.36,-283.5C378.62,-285.01 392.19,-286.55 405,-288 556.77,-305.2 734.66,-325.23 830.93,-336.06"/>
<polygon fill="midnightblue" stroke="midnightblue" points="830.79,-339.57 841.12,-337.21 831.57,-332.61 830.79,-339.57"/>
</g>
<!-- Node15 -->
<g id="node15" class="node">
<title>Node15</title>
<g id="a_node15"><a xlink:href="../../d4/d99/a01634.html#a2f9dc83deb53447224a9cc6551253d8a" target="_top" xlink:title=" ">
<polygon fill="none" stroke="black" points="437,-416.5 437,-435.5 559,-435.5 559,-416.5 437,-416.5"/>
<text text-anchor="middle" x="498" y="-423.5" font-family="Helvetica,sans-Serif" font-size="10.00">com.cliffc.aa.util.SB.ii</text>
</a>
</g>
</g>
<!-- Node2&#45;&gt;Node15 -->
<g id="edge16" class="edge">
<title>Node2&#45;&gt;Node15</title>
<path fill="none" stroke="midnightblue" d="M287.79,-283.59C303.32,-308.44 348.58,-375.14 405,-407 411.79,-410.83 419.25,-413.9 426.9,-416.35"/>
<polygon fill="midnightblue" stroke="midnightblue" points="426.07,-419.75 436.65,-419.13 428,-413.02 426.07,-419.75"/>
</g>
<!-- Node16 -->
<g id="node16" class="node">
<title>Node16</title>
<g id="a_node16"><a xlink:href="../../d4/d99/a01634.html#af706c705e889040f6fc45486f508987e" target="_top" xlink:title=" ">
<polygon fill="none" stroke="black" points="642,-264.5 642,-283.5 767,-283.5 767,-264.5 642,-264.5"/>
<text text-anchor="middle" x="704.5" y="-271.5" font-family="Helvetica,sans-Serif" font-size="10.00">com.cliffc.aa.util.SB.nl</text>
</a>
</g>
</g>
<!-- Node2&#45;&gt;Node16 -->
<g id="edge18" class="edge">
<title>Node2&#45;&gt;Node16</title>
<path fill="none" stroke="midnightblue" d="M369.08,-274C446.62,-274 558.74,-274 631.37,-274"/>
<polygon fill="midnightblue" stroke="midnightblue" points="631.79,-277.5 641.79,-274 631.79,-270.5 631.79,-277.5"/>
</g>
<!-- Node17 -->
<g id="node17" class="node">
<title>Node17</title>
<g id="a_node17"><a xlink:href="../../d5/dcd/a00802.html#a8cd2d0cdb0272eef4b762681547d18e4" target="_top" xlink:title=" ">
<polygon fill="none" stroke="black" points="410,-188.5 410,-207.5 586,-207.5 586,-188.5 410,-188.5"/>
<text text-anchor="middle" x="498" y="-195.5" font-family="Helvetica,sans-Serif" font-size="10.00">com.cliffc.aa.HM.HM7.Syntax.p1</text>
</a>
</g>
</g>
<!-- Node2&#45;&gt;Node17 -->
<g id="edge21" class="edge">
<title>Node2&#45;&gt;Node17</title>
<path fill="none" stroke="midnightblue" d="M302.11,-264.43C326.18,-253.23 367.9,-234.61 405,-222 417.83,-217.64 431.89,-213.61 445.07,-210.14"/>
<polygon fill="midnightblue" stroke="midnightblue" points="446.13,-213.49 454.94,-207.61 444.39,-206.71 446.13,-213.49"/>
</g>
<!-- Node18 -->
<g id="node18" class="node">
<title>Node18</title>
<g id="a_node18"><a xlink:href="../../d5/dcd/a00802.html#aeca2662bd8462a9a7af687416a5918ab" target="_top" xlink:title=" ">
<polygon fill="none" stroke="black" points="410,-150.5 410,-169.5 586,-169.5 586,-150.5 410,-150.5"/>
<text text-anchor="middle" x="498" y="-157.5" font-family="Helvetica,sans-Serif" font-size="10.00">com.cliffc.aa.HM.HM7.Syntax.p2</text>
</a>
</g>
</g>
<!-- Node2&#45;&gt;Node18 -->
<g id="edge22" class="edge">
<title>Node2&#45;&gt;Node18</title>
<path fill="none" stroke="midnightblue" d="M291.18,-264.43C310.37,-245.04 356.94,-201.08 405,-179 410.41,-176.51 416.15,-174.35 422.02,-172.47"/>
<polygon fill="midnightblue" stroke="midnightblue" points="423.35,-175.72 431.97,-169.56 421.38,-169.01 423.35,-175.72"/>
</g>
<!-- Node19 -->
<g id="node19" class="node">
<title>Node19</title>
<g id="a_node19"><a xlink:href="../../d9/d02/a00834.html#abfdc645d28a6124cb4e5b2926dfe0739" target="_top" xlink:title=" ">
<polygon fill="none" stroke="black" points="627,-208.5 627,-227.5 782,-227.5 782,-208.5 627,-208.5"/>
<text text-anchor="middle" x="704.5" y="-215.5" font-family="Helvetica,sans-Serif" font-size="10.00">com.cliffc.aa.HM.HM7.T2.str</text>
</a>
</g>
</g>
<!-- Node2&#45;&gt;Node19 -->
<g id="edge23" class="edge">
<title>Node2&#45;&gt;Node19</title>
<path fill="none" stroke="midnightblue" d="M353.98,-264.44C428.24,-254.57 543.87,-239.21 621.59,-228.88"/>
<polygon fill="midnightblue" stroke="midnightblue" points="622.37,-232.31 631.82,-227.52 621.44,-225.37 622.37,-232.31"/>
</g>
<!-- Node4 -->
<g id="node4" class="node">
<title>Node4</title>
<g id="a_node4"><a xlink:href="../../d4/d99/a01634.html#a135574f0788f02889e20439dffa3d6a8" target="_top" xlink:title=" ">
<polygon fill="none" stroke="black" points="645,-378.5 645,-397.5 764,-397.5 764,-378.5 645,-378.5"/>
<text text-anchor="middle" x="704.5" y="-385.5" font-family="Helvetica,sans-Serif" font-size="10.00">com.cliffc.aa.util.SB.i</text>
</a>
</g>
</g>
<!-- Node3&#45;&gt;Node4 -->
<g id="edge3" class="edge">
<title>Node3&#45;&gt;Node4</title>
<path fill="none" stroke="midnightblue" d="M560.63,-388C583.99,-388 610.73,-388 634.71,-388"/>
<polygon fill="midnightblue" stroke="midnightblue" points="634.8,-391.5 644.8,-388 634.8,-384.5 634.8,-391.5"/>
</g>
<!-- Node4&#45;&gt;Node4 -->
<g id="edge4" class="edge">
<title>Node4&#45;&gt;Node4</title>
<path fill="none" stroke="midnightblue" d="M673.98,-397.76C659.14,-406.57 669.31,-416 704.5,-416 729.24,-416 741.62,-411.34 741.62,-405.5"/>
<polygon fill="midnightblue" stroke="midnightblue" points="744.17,-403.09 735.02,-397.76 738.84,-407.64 744.17,-403.09"/>
</g>
<!-- Node6 -->
<g id="node6" class="node">
<title>Node6</title>
<g id="a_node6"><a xlink:href="../../d9/d02/a00834.html#a29a8410922791c33f6ff5f488730587d" target="_top" xlink:title=" ">
<polygon fill="none" stroke="black" points="633.5,-33 633.5,-63 775.5,-63 775.5,-33 633.5,-33"/>
<text text-anchor="start" x="641.5" y="-51" font-family="Helvetica,sans-Serif" font-size="10.00">com.cliffc.aa.HM.HM7.T2.</text>
<text text-anchor="middle" x="704.5" y="-40" font-family="Helvetica,sans-Serif" font-size="10.00">_get_dups</text>
</a>
</g>
</g>
<!-- Node5&#45;&gt;Node6 -->
<g id="edge6" class="edge">
<title>Node5&#45;&gt;Node6</title>
<path fill="none" stroke="midnightblue" d="M547.72,-78.47C570.35,-74.04 597.86,-68.66 623.42,-63.66"/>
<polygon fill="midnightblue" stroke="midnightblue" points="624.34,-67.05 633.48,-61.7 623,-60.18 624.34,-67.05"/>
</g>
<!-- Node7 -->
<g id="node7" class="node">
<title>Node7</title>
<g id="a_node7"><a xlink:href="../../d9/d02/a00834.html#a11a0879ef2674dd9fb3f9a1be59d3084" target="_top" xlink:title=" ">
<polygon fill="none" stroke="black" points="818,-0.5 818,-19.5 987,-19.5 987,-0.5 818,-0.5"/>
<text text-anchor="middle" x="902.5" y="-7.5" font-family="Helvetica,sans-Serif" font-size="10.00">com.cliffc.aa.HM.HM7.T2.no_uf</text>
</a>
</g>
</g>
<!-- Node6&#45;&gt;Node7 -->
<g id="edge7" class="edge">
<title>Node6&#45;&gt;Node7</title>
<path fill="none" stroke="midnightblue" d="M775.71,-34.39C797.51,-30.16 821.32,-25.55 842.3,-21.48"/>
<polygon fill="midnightblue" stroke="midnightblue" points="843.2,-24.87 852.35,-19.53 841.86,-18 843.2,-24.87"/>
</g>
<!-- Node11 -->
<g id="node11" class="node">
<title>Node11</title>
<g id="a_node11"><a xlink:href="../../df/dee/a01646.html#a88ad20daf92e92fe0e3925b23c4fecf0" target="_top" xlink:title=" ">
<polygon fill="none" stroke="black" points="823.5,-38.5 823.5,-57.5 981.5,-57.5 981.5,-38.5 823.5,-38.5"/>
<text text-anchor="middle" x="902.5" y="-45.5" font-family="Helvetica,sans-Serif" font-size="10.00">com.cliffc.aa.util.VBitSet.tset</text>
</a>
</g>
</g>
<!-- Node6&#45;&gt;Node11 -->
<g id="edge11" class="edge">
<title>Node6&#45;&gt;Node11</title>
<path fill="none" stroke="midnightblue" d="M775.71,-48C787.93,-48 800.78,-48 813.41,-48"/>
<polygon fill="midnightblue" stroke="midnightblue" points="813.47,-51.5 823.47,-48 813.47,-44.5 813.47,-51.5"/>
</g>
<!-- Node8 -->
<g id="node8" class="node">
<title>Node8</title>
<g id="a_node8"><a xlink:href="../../d9/d02/a00834.html#aebfcad4f2e406516eef7fd39a6803752" target="_top" xlink:title=" ">
<polygon fill="none" stroke="black" points="1025.5,-76.5 1025.5,-95.5 1199.5,-95.5 1199.5,-76.5 1025.5,-76.5"/>
<text text-anchor="middle" x="1112.5" y="-83.5" font-family="Helvetica,sans-Serif" font-size="10.00">com.cliffc.aa.HM.HM7.T2.is_leaf</text>
</a>
</g>
</g>
<!-- Node7&#45;&gt;Node8 -->
<g id="edge8" class="edge">
<title>Node7&#45;&gt;Node8</title>
<path fill="none" stroke="midnightblue" d="M953.42,-19.6C964.59,-22.23 976.3,-25.38 987,-29 1021.79,-40.78 1059.93,-59.1 1084.71,-71.78"/>
<polygon fill="midnightblue" stroke="midnightblue" points="1083.34,-75.01 1093.83,-76.5 1086.56,-68.79 1083.34,-75.01"/>
</g>
<!-- Node9 -->
<g id="node9" class="node">
<title>Node9</title>
<g id="a_node9"><a xlink:href="../../d9/d02/a00834.html#a1646dbd4ae347d254550074fb9dd89ac" target="_top" xlink:title=" ">
<polygon fill="none" stroke="black" points="1238,-148.5 1238,-167.5 1394,-167.5 1394,-148.5 1238,-148.5"/>
<text text-anchor="middle" x="1316" y="-155.5" font-family="Helvetica,sans-Serif" font-size="10.00">com.cliffc.aa.HM.HM7.T2.isa</text>
</a>
</g>
</g>
<!-- Node8&#45;&gt;Node9 -->
<g id="edge9" class="edge">
<title>Node8&#45;&gt;Node9</title>
<path fill="none" stroke="midnightblue" d="M1141.03,-95.56C1158.51,-101.65 1181.61,-109.73 1202,-117 1227.91,-126.24 1257.1,-136.83 1279.32,-144.94"/>
<polygon fill="midnightblue" stroke="midnightblue" points="1278.4,-148.33 1289,-148.47 1280.8,-141.76 1278.4,-148.33"/>
</g>
<!-- Node10 -->
<g id="node10" class="node">
<title>Node10</title>
<g id="a_node10"><a xlink:href="../../dd/d55/a01638.html#a3975ba7dca9fe2d6e4992b2b5558f882" target="_top" xlink:title=" ">
<polygon fill="none" stroke="black" points="1430,-148.5 1430,-167.5 1563,-167.5 1563,-148.5 1430,-148.5"/>
<text text-anchor="middle" x="1496.5" y="-155.5" font-family="Helvetica,sans-Serif" font-size="10.00">com.cliffc.aa.util.Util.eq</text>
</a>
</g>
</g>
<!-- Node9&#45;&gt;Node10 -->
<g id="edge10" class="edge">
<title>Node9&#45;&gt;Node10</title>
<path fill="none" stroke="midnightblue" d="M1394.25,-158C1402.69,-158 1411.28,-158 1419.7,-158"/>
<polygon fill="midnightblue" stroke="midnightblue" points="1419.87,-161.5 1429.87,-158 1419.87,-154.5 1419.87,-161.5"/>
</g>
<!-- Node12&#45;&gt;Node4 -->
<g id="edge13" class="edge">
<title>Node12&#45;&gt;Node4</title>
<path fill="none" stroke="midnightblue" d="M550.34,-359.54C578.17,-364.71 612.77,-371.14 642.03,-376.58"/>
<polygon fill="midnightblue" stroke="midnightblue" points="641.67,-380.07 652.14,-378.46 642.95,-373.19 641.67,-380.07"/>
</g>
<!-- Node12&#45;&gt;Node13 -->
<g id="edge14" class="edge">
<title>Node12&#45;&gt;Node13</title>
<path fill="none" stroke="midnightblue" d="M557.53,-349.13C630.04,-348.05 753.48,-346.21 831.09,-345.05"/>
<polygon fill="midnightblue" stroke="midnightblue" points="831.31,-348.55 841.26,-344.9 831.21,-341.55 831.31,-348.55"/>
</g>
<!-- Node14 -->
<g id="node14" class="node">
<title>Node14</title>
<g id="a_node14"><a xlink:href="../../d4/d99/a01634.html#abd1b8ac722e0fb0bf1e7b2ea0eaeb0b6" target="_top" xlink:title=" ">
<polygon fill="none" stroke="black" points="1051.5,-334.5 1051.5,-353.5 1173.5,-353.5 1173.5,-334.5 1051.5,-334.5"/>
<text text-anchor="middle" x="1112.5" y="-341.5" font-family="Helvetica,sans-Serif" font-size="10.00">com.cliffc.aa.util.SB.s</text>
</a>
</g>
</g>
<!-- Node13&#45;&gt;Node14 -->
<g id="edge15" class="edge">
<title>Node13&#45;&gt;Node14</title>
<path fill="none" stroke="midnightblue" d="M963.66,-344C987.92,-344 1016.06,-344 1041.25,-344"/>
<polygon fill="midnightblue" stroke="midnightblue" points="1041.47,-347.5 1051.47,-344 1041.47,-340.5 1041.47,-347.5"/>
</g>
<!-- Node15&#45;&gt;Node4 -->
<g id="edge17" class="edge">
<title>Node15&#45;&gt;Node4</title>
<path fill="none" stroke="midnightblue" d="M550.34,-416.46C578.17,-411.29 612.77,-404.86 642.03,-399.42"/>
<polygon fill="midnightblue" stroke="midnightblue" points="642.95,-402.81 652.14,-397.54 641.67,-395.93 642.95,-402.81"/>
</g>
<!-- Node16&#45;&gt;Node13 -->
<g id="edge19" class="edge">
<title>Node16&#45;&gt;Node13</title>
<path fill="none" stroke="midnightblue" d="M742.37,-283.58C755.17,-287.42 769.45,-292.3 782,-298 799.07,-305.75 800.83,-312.45 818,-320 828.15,-324.46 839.35,-328.34 850.17,-331.6"/>
<polygon fill="midnightblue" stroke="midnightblue" points="849.38,-335.02 859.95,-334.42 851.32,-328.29 849.38,-335.02"/>
</g>
<!-- Node19&#45;&gt;Node8 -->
<g id="edge28" class="edge">
<title>Node19&#45;&gt;Node8</title>
<path fill="none" stroke="midnightblue" d="M712.98,-208.38C729.44,-188.01 771.09,-140.72 818,-120 879.99,-92.62 956.16,-84.44 1015.37,-82.94"/>
<polygon fill="midnightblue" stroke="midnightblue" points="1015.53,-86.44 1025.46,-82.75 1015.4,-79.44 1015.53,-86.44"/>
</g>
<!-- Node19&#45;&gt;Node11 -->
<g id="edge34" class="edge">
<title>Node19&#45;&gt;Node11</title>
<path fill="none" stroke="midnightblue" d="M710.08,-208.47C723.09,-182.42 762.96,-109.42 818,-72 824.49,-67.59 831.79,-63.98 839.31,-61.03"/>
<polygon fill="midnightblue" stroke="midnightblue" points="840.64,-64.27 848.89,-57.63 838.3,-57.67 840.64,-64.27"/>
</g>
<!-- Node19&#45;&gt;Node13 -->
<g id="edge31" class="edge">
<title>Node19&#45;&gt;Node13</title>
<path fill="none" stroke="midnightblue" d="M735.69,-227.63C750.94,-233.65 768.93,-242.63 782,-255 805.99,-277.7 792.17,-299.43 818,-320 823.31,-324.23 829.34,-327.71 835.66,-330.58"/>
<polygon fill="midnightblue" stroke="midnightblue" points="834.51,-333.89 845.09,-334.36 837.11,-327.39 834.51,-333.89"/>
</g>
<!-- Node19&#45;&gt;Node19 -->
<g id="edge32" class="edge">
<title>Node19&#45;&gt;Node19</title>
<path fill="none" stroke="midnightblue" d="M673.98,-227.76C659.14,-236.57 669.31,-246 704.5,-246 729.24,-246 741.62,-241.34 741.62,-235.5"/>
<polygon fill="midnightblue" stroke="midnightblue" points="744.17,-233.09 735.02,-227.76 738.84,-237.64 744.17,-233.09"/>
</g>
<!-- Node20 -->
<g id="node20" class="node">
<title>Node20</title>
<g id="a_node20"><a xlink:href="../../d9/d02/a00834.html#a991a5eeda04840eb73281c0e2bf79ad4" target="_top" xlink:title=" ">
<polygon fill="none" stroke="black" points="1023,-126.5 1023,-145.5 1202,-145.5 1202,-126.5 1023,-126.5"/>
<text text-anchor="middle" x="1112.5" y="-133.5" font-family="Helvetica,sans-Serif" font-size="10.00">com.cliffc.aa.HM.HM7.T2.is_base</text>
</a>
</g>
</g>
<!-- Node19&#45;&gt;Node20 -->
<g id="edge24" class="edge">
<title>Node19&#45;&gt;Node20</title>
<path fill="none" stroke="midnightblue" d="M715.6,-208.29C734.1,-191.24 775.47,-156.43 818,-143 885.65,-121.63 966.51,-121.43 1026.21,-125.7"/>
<polygon fill="midnightblue" stroke="midnightblue" points="1026.11,-129.2 1036.35,-126.48 1026.65,-122.22 1026.11,-129.2"/>
</g>
<!-- Node21 -->
<g id="node21" class="node">
<title>Node21</title>
<g id="a_node21"><a xlink:href="../../d9/d02/a00834.html#af57e3b0e1e22104b5c8aa1381575594d" target="_top" xlink:title=" ">
<polygon fill="none" stroke="black" points="1027,-284.5 1027,-303.5 1198,-303.5 1198,-284.5 1027,-284.5"/>
<text text-anchor="middle" x="1112.5" y="-291.5" font-family="Helvetica,sans-Serif" font-size="10.00">com.cliffc.aa.HM.HM7.T2.is_fun</text>
</a>
</g>
</g>
<!-- Node19&#45;&gt;Node21 -->
<g id="edge26" class="edge">
<title>Node19&#45;&gt;Node21</title>
<path fill="none" stroke="midnightblue" d="M723.21,-227.6C744.88,-238.85 783.02,-257.1 818,-266 883.05,-282.55 958.46,-289.5 1016.56,-292.33"/>
<polygon fill="midnightblue" stroke="midnightblue" points="1016.68,-295.84 1026.83,-292.8 1017,-288.85 1016.68,-295.84"/>
</g>
<!-- Node22 -->
<g id="node22" class="node">
<title>Node22</title>
<g id="a_node22"><a xlink:href="../../d9/d02/a00834.html#a7cefeb8d78c5b6ee7d47e3d0edf780d9" target="_top" xlink:title=" ">
<polygon fill="none" stroke="black" points="1037.5,-212 1037.5,-242 1187.5,-242 1187.5,-212 1037.5,-212"/>
<text text-anchor="start" x="1045.5" y="-230" font-family="Helvetica,sans-Serif" font-size="10.00">com.cliffc.aa.HM.HM7.T2.is</text>
<text text-anchor="middle" x="1112.5" y="-219" font-family="Helvetica,sans-Serif" font-size="10.00">_struct</text>
</a>
</g>
</g>
<!-- Node19&#45;&gt;Node22 -->
<g id="edge29" class="edge">
<title>Node19&#45;&gt;Node22</title>
<path fill="none" stroke="midnightblue" d="M732.35,-227.6C754.88,-235.12 788.09,-244.95 818,-249 892.43,-259.07 912.18,-255.56 987,-249 1000.64,-247.8 1015.02,-245.89 1028.97,-243.67"/>
<polygon fill="midnightblue" stroke="midnightblue" points="1029.74,-247.09 1039.04,-242.01 1028.6,-240.18 1029.74,-247.09"/>
</g>
<!-- Node23 -->
<g id="node23" class="node">
<title>Node23</title>
<g id="a_node23"><a xlink:href="../../d0/de2/a01442.html#a07f49bb79ed4ff3f46f518a26793b2fe" target="_top" xlink:title=" ">
<polygon fill="none" stroke="black" points="831.5,-209 831.5,-239 973.5,-239 973.5,-209 831.5,-209"/>
<text text-anchor="start" x="839.5" y="-227" font-family="Helvetica,sans-Serif" font-size="10.00">com.cliffc.aa.type.Type.to</text>
<text text-anchor="middle" x="902.5" y="-216" font-family="Helvetica,sans-Serif" font-size="10.00">String</text>
</a>
</g>
</g>
<!-- Node19&#45;&gt;Node23 -->
<g id="edge33" class="edge">
<title>Node19&#45;&gt;Node23</title>
<path fill="none" stroke="midnightblue" d="M782.12,-220.35C794.91,-220.74 808.22,-221.14 821.1,-221.54"/>
<polygon fill="midnightblue" stroke="midnightblue" points="821.22,-225.04 831.33,-221.85 821.44,-218.05 821.22,-225.04"/>
</g>
<!-- Node24 -->
<g id="node24" class="node">
<title>Node24</title>
<g id="a_node24"><a xlink:href="../../d4/d99/a01634.html#a6536bbd3de1ca1c901e1cb9527dbf3db" target="_top" xlink:title=" ">
<polygon fill="none" stroke="black" points="828,-152.5 828,-171.5 977,-171.5 977,-152.5 828,-152.5"/>
<text text-anchor="middle" x="902.5" y="-159.5" font-family="Helvetica,sans-Serif" font-size="10.00">com.cliffc.aa.util.SB.unchar</text>
</a>
</g>
</g>
<!-- Node19&#45;&gt;Node24 -->
<g id="edge35" class="edge">
<title>Node19&#45;&gt;Node24</title>
<path fill="none" stroke="midnightblue" d="M739.19,-208.37C772.21,-198.94 822.66,-184.53 858.54,-174.27"/>
<polygon fill="midnightblue" stroke="midnightblue" points="859.59,-177.61 868.25,-171.5 857.67,-170.88 859.59,-177.61"/>
</g>
<!-- Node20&#45;&gt;Node9 -->
<g id="edge25" class="edge">
<title>Node20&#45;&gt;Node9</title>
<path fill="none" stroke="midnightblue" d="M1200.71,-145.52C1209.67,-146.5 1218.78,-147.49 1227.75,-148.47"/>
<polygon fill="midnightblue" stroke="midnightblue" points="1227.47,-151.96 1237.79,-149.57 1228.23,-145.01 1227.47,-151.96"/>
</g>
<!-- Node21&#45;&gt;Node9 -->
<g id="edge27" class="edge">
<title>Node21&#45;&gt;Node9</title>
<path fill="none" stroke="midnightblue" d="M1137.65,-284.49C1155.94,-276.83 1181.36,-265.18 1202,-252 1238.61,-228.61 1276.5,-194.76 1297.78,-174.7"/>
<polygon fill="midnightblue" stroke="midnightblue" points="1300.26,-177.17 1305.09,-167.74 1295.43,-172.11 1300.26,-177.17"/>
</g>
<!-- Node22&#45;&gt;Node9 -->
<g id="edge30" class="edge">
<title>Node22&#45;&gt;Node9</title>
<path fill="none" stroke="midnightblue" d="M1157.72,-211.86C1193.57,-199.58 1243.54,-182.47 1277.46,-170.85"/>
<polygon fill="midnightblue" stroke="midnightblue" points="1278.69,-174.13 1287.01,-167.58 1276.42,-167.51 1278.69,-174.13"/>
</g>
<!-- Node24&#45;&gt;Node24 -->
<g id="edge36" class="edge">
<title>Node24&#45;&gt;Node24</title>
<path fill="none" stroke="midnightblue" d="M871.98,-171.76C857.14,-180.57 867.31,-190 902.5,-190 927.24,-190 939.62,-185.34 939.62,-179.5"/>
<polygon fill="midnightblue" stroke="midnightblue" points="942.17,-177.09 933.02,-171.76 936.84,-181.64 942.17,-177.09"/>
</g>
</g>
</svg>
