<?xml version="1.0" encoding="UTF-8" standalone="no"?>
<!DOCTYPE svg PUBLIC "-//W3C//DTD SVG 1.1//EN"
 "http://www.w3.org/Graphics/SVG/1.1/DTD/svg11.dtd">
<!-- Generated by graphviz version 2.43.0 (0)
 -->
<!-- Title: com.cliffc.aa.HM.HM7.Let.Let Pages: 1 -->
<!--zoomable 47 -->
<svg id="main" version="1.1" xmlns="http://www.w3.org/2000/svg" xmlns:xlink="http://www.w3.org/1999/xlink" xml:space="preserve" onload="init(evt)">
<style type="text/css"><![CDATA[
.edge:hover path { stroke: red; }
.edge:hover polygon { stroke: red; fill: red; }
]]></style>
<script type="text/javascript"><![CDATA[
var edges = document.getElementsByTagName('g');
if (edges && edges.length) {
  for (var i=0;i<edges.length;i++) {
    if (edges[i].id.substr(0,4)=='edge') {
      edges[i].setAttribute('class','edge');
    }
  }
}
]]></script>
        <defs>
                <circle id="rim" cx="0" cy="0" r="7"/>
                <circle id="rim2" cx="0" cy="0" r="3.5"/>
                <g id="zoomPlus">
                        <use xlink:href="#rim" fill="#404040">
                                <set attributeName="fill" to="#808080" begin="zoomplus.mouseover" end="zoomplus.mouseout"/>
                        </use>
                        <path d="M-4,0h8M0,-4v8" fill="none" stroke="white" stroke-width="1.5" pointer-events="none"/>
                </g>
                <g id="zoomMin">
                        <use xlink:href="#rim" fill="#404040">
                                <set attributeName="fill" to="#808080" begin="zoomminus.mouseover" end="zoomminus.mouseout"/>
                        </use>
                        <path d="M-4,0h8" fill="none" stroke="white" stroke-width="1.5" pointer-events="none"/>
                </g>
                <g id="dirArrow">
                        <path fill="none" stroke="white" stroke-width="1.5" d="M0,-3.0v7 M-2.5,-0.5L0,-3.0L2.5,-0.5"/>
                </g>
               <g id="resetDef">
                       <use xlink:href="#rim2" fill="#404040">
                               <set attributeName="fill" to="#808080" begin="reset.mouseover" end="reset.mouseout"/>
                       </use>
               </g>
        </defs>

<script type="text/javascript">
var viewWidth = 1758;
var viewHeight = 47;
var sectionId = 'dynsection-2';
</script>
<script xlink:href="../../svgpan.js"/>
<svg id="graph" class="graph">
<g id="viewport">
<title>com.cliffc.aa.HM.HM7.Let.Let</title>
<!-- Node1 -->
<g id="node1" class="node">
<title>Node1</title>
<g id="a_node1"><a xlink:title=" ">
<polygon fill="#bfbfbf" stroke="black" points="0,-19.5 0,-38.5 160,-38.5 160,-19.5 0,-19.5"/>
<text text-anchor="middle" x="80" y="-26.5" font-family="Helvetica,sans-Serif" font-size="10.00">com.cliffc.aa.HM.HM7.Let.Let</text>
</a>
</g>
</g>
<!-- Node2 -->
<g id="node2" class="node">
<title>Node2</title>
<g id="a_node2"><a xlink:href="../../d9/d02/a00834.html#a2bb2fc71ae34a1a95a1698160257fc5c" target="_top" xlink:title=" ">
<polygon fill="none" stroke="black" points="196,-19.5 196,-38.5 389,-38.5 389,-19.5 196,-19.5"/>
<text text-anchor="middle" x="292.5" y="-26.5" font-family="Helvetica,sans-Serif" font-size="10.00">com.cliffc.aa.HM.HM7.T2.make_leaf</text>
</a>
</g>
</g>
<!-- Node1&#45;&gt;Node2 -->
<g id="edge1" class="edge">
<title>Node1&#45;&gt;Node2</title>
<path fill="none" stroke="midnightblue" d="M160.28,-29C168.66,-29 177.27,-29 185.88,-29"/>
<polygon fill="midnightblue" stroke="midnightblue" points="185.98,-32.5 195.98,-29 185.98,-25.5 185.98,-32.5"/>
</g>
<!-- Node3 -->
<g id="node3" class="node">
<title>Node3</title>
<g id="a_node3"><a xlink:href="../../d9/d02/a00834.html#aa8faebe928582db560473e1ed0b4c9b5" target="_top" xlink:title=" ">
<polygon fill="none" stroke="black" points="425,-19.5 425,-38.5 579,-38.5 579,-19.5 425,-19.5"/>
<text text-anchor="middle" x="502" y="-26.5" font-family="Helvetica,sans-Serif" font-size="10.00">com.cliffc.aa.HM.HM7.T2.T2</text>
</a>
</g>
</g>
<!-- Node2&#45;&gt;Node3 -->
<g id="edge2" class="edge">
<title>Node2&#45;&gt;Node3</title>
<path fill="none" stroke="midnightblue" d="M389.05,-29C397.6,-29 406.22,-29 414.68,-29"/>
<polygon fill="midnightblue" stroke="midnightblue" points="414.9,-32.5 424.9,-29 414.9,-25.5 414.9,-32.5"/>
</g>
<!-- Node4 -->
<g id="node4" class="node">
<title>Node4</title>
<g id="a_node4"><a xlink:href="../../d9/d02/a00834.html#ace8c0dea9eacc0627930c0d35d865712" target="_top" xlink:title=" ">
<polygon fill="none" stroke="black" points="615,-19.5 615,-38.5 778,-38.5 778,-19.5 615,-19.5"/>
<text text-anchor="middle" x="696.5" y="-26.5" font-family="Helvetica,sans-Serif" font-size="10.00">com.cliffc.aa.HM.HM7.T2.args</text>
</a>
</g>
</g>
<!-- Node3&#45;&gt;Node4 -->
<g id="edge3" class="edge">
<title>Node3&#45;&gt;Node4</title>
<path fill="none" stroke="midnightblue" d="M579.08,-29C587.54,-29 596.22,-29 604.84,-29"/>
<polygon fill="midnightblue" stroke="midnightblue" points="604.91,-32.5 614.91,-29 604.91,-25.5 604.91,-32.5"/>
</g>
<!-- Node5 -->
<g id="node5" class="node">
<title>Node5</title>
<g id="a_node5"><a xlink:href="../../d9/d02/a00834.html#ae2138b8d9d5860eda7513092126ba601" target="_top" xlink:title=" ">
<polygon fill="none" stroke="black" points="814,-19.5 814,-38.5 974,-38.5 974,-19.5 814,-19.5"/>
<text text-anchor="middle" x="894" y="-26.5" font-family="Helvetica,sans-Serif" font-size="10.00">com.cliffc.aa.HM.HM7.T2.find</text>
</a>
</g>
</g>
<!-- Node4&#45;&gt;Node5 -->
<g id="edge4" class="edge">
<title>Node4&#45;&gt;Node5</title>
<path fill="none" stroke="midnightblue" d="M778.15,-29C786.52,-29 795.07,-29 803.53,-29"/>
<polygon fill="midnightblue" stroke="midnightblue" points="803.8,-32.5 813.8,-29 803.8,-25.5 803.8,-32.5"/>
</g>
<!-- Node6 -->
<g id="node6" class="node">
<title>Node6</title>
<g id="a_node6"><a xlink:href="../../d9/d02/a00834.html#aebfcad4f2e406516eef7fd39a6803752" target="_top" xlink:title=" ">
<polygon fill="none" stroke="black" points="1215,-19.5 1215,-38.5 1389,-38.5 1389,-19.5 1215,-19.5"/>
<text text-anchor="middle" x="1302" y="-26.5" font-family="Helvetica,sans-Serif" font-size="10.00">com.cliffc.aa.HM.HM7.T2.is_leaf</text>
</a>
</g>
</g>
<!-- Node5&#45;&gt;Node6 -->
<g id="edge5" class="edge">
<title>Node5&#45;&gt;Node6</title>
<path fill="none" stroke="midnightblue" d="M974.24,-29C1040.23,-29 1134.43,-29 1204.74,-29"/>
<polygon fill="midnightblue" stroke="midnightblue" points="1204.94,-32.5 1214.94,-29 1204.94,-25.5 1204.94,-32.5"/>
</g>
<!-- Node9 -->
<g id="node9" class="node">
<title>Node9</title>
<g id="a_node9"><a xlink:href="../../d9/d02/a00834.html#a11a0879ef2674dd9fb3f9a1be59d3084" target="_top" xlink:title=" ">
<polygon fill="none" stroke="black" points="1010,-0.5 1010,-19.5 1179,-19.5 1179,-0.5 1010,-0.5"/>
<text text-anchor="middle" x="1094.5" y="-7.5" font-family="Helvetica,sans-Serif" font-size="10.00">com.cliffc.aa.HM.HM7.T2.no_uf</text>
</a>
</g>
</g>
<!-- Node5&#45;&gt;Node9 -->
<g id="edge8" class="edge">
<title>Node5&#45;&gt;Node9</title>
<path fill="none" stroke="midnightblue" d="M974.02,-21.44C982.49,-20.63 991.17,-19.79 999.79,-18.97"/>
<polygon fill="midnightblue" stroke="midnightblue" points="1000.24,-22.44 1009.87,-18.01 999.58,-15.47 1000.24,-22.44"/>
</g>
<!-- Node7 -->
<g id="node7" class="node">
<title>Node7</title>
<g id="a_node7"><a xlink:href="../../d9/d02/a00834.html#a1646dbd4ae347d254550074fb9dd89ac" target="_top" xlink:title=" ">
<polygon fill="none" stroke="black" points="1425,-19.5 1425,-38.5 1581,-38.5 1581,-19.5 1425,-19.5"/>
<text text-anchor="middle" x="1503" y="-26.5" font-family="Helvetica,sans-Serif" font-size="10.00">com.cliffc.aa.HM.HM7.T2.isa</text>
</a>
</g>
</g>
<!-- Node6&#45;&gt;Node7 -->
<g id="edge6" class="edge">
<title>Node6&#45;&gt;Node7</title>
<path fill="none" stroke="midnightblue" d="M1389.13,-29C1397.57,-29 1406.14,-29 1414.59,-29"/>
<polygon fill="midnightblue" stroke="midnightblue" points="1414.82,-32.5 1424.82,-29 1414.82,-25.5 1414.82,-32.5"/>
</g>
<!-- Node8 -->
<g id="node8" class="node">
<title>Node8</title>
<g id="a_node8"><a xlink:href="../../dd/d55/a01638.html#a3975ba7dca9fe2d6e4992b2b5558f882" target="_top" xlink:title=" ">
<polygon fill="none" stroke="black" points="1617,-19.5 1617,-38.5 1750,-38.5 1750,-19.5 1617,-19.5"/>
<text text-anchor="middle" x="1683.5" y="-26.5" font-family="Helvetica,sans-Serif" font-size="10.00">com.cliffc.aa.util.Util.eq</text>
</a>
</g>
</g>
<!-- Node7&#45;&gt;Node8 -->
<g id="edge7" class="edge">
<title>Node7&#45;&gt;Node8</title>
<path fill="none" stroke="midnightblue" d="M1581.25,-29C1589.69,-29 1598.28,-29 1606.7,-29"/>
<polygon fill="midnightblue" stroke="midnightblue" points="1606.87,-32.5 1616.87,-29 1606.87,-25.5 1606.87,-32.5"/>
</g>
<!-- Node9&#45;&gt;Node6 -->
<g id="edge9" class="edge">
<title>Node9&#45;&gt;Node6</title>
<path fill="none" stroke="midnightblue" d="M1179.08,-17.73C1187.55,-18.51 1196.2,-19.31 1204.78,-20.1"/>
<polygon fill="midnightblue" stroke="midnightblue" points="1204.54,-23.6 1214.82,-21.03 1205.18,-16.63 1204.54,-23.6"/>
</g>
</g>
</svg>
        <g id="navigator" transform="translate(0 0)" fill="#404254">
                <rect fill="#f2f5e9" fill-opacity="0.5" stroke="#606060" stroke-width=".5" x="0" y="0" width="60" height="60"/>
                <use id="zoomplus" xlink:href="#zoomPlus" x="17" y="9" onmousedown="handleZoom(evt,'in')"/>
                <use id="zoomminus" xlink:href="#zoomMin" x="42" y="9" onmousedown="handleZoom(evt,'out')"/>
                <use id="reset" xlink:href="#resetDef" x="30" y="36" onmousedown="handleReset()"/>
                <g id="arrowUp" xlink:href="#dirArrow" transform="translate(30 24)" onmousedown="handlePan(0,-1)">
                  <use xlink:href="#rim" fill="#404040">
                        <set attributeName="fill" to="#808080" begin="arrowUp.mouseover" end="arrowUp.mouseout"/>
                  </use>
                  <path fill="none" stroke="white" stroke-width="1.5" d="M0,-3.0v7 M-2.5,-0.5L0,-3.0L2.5,-0.5"/>
                </g>
                <g id="arrowRight" xlink:href="#dirArrow" transform="rotate(90) translate(36 -43)" onmousedown="handlePan(1,0)">
                  <use xlink:href="#rim" fill="#404040">
                        <set attributeName="fill" to="#808080" begin="arrowRight.mouseover" end="arrowRight.mouseout"/>
                  </use>
                  <path fill="none" stroke="white" stroke-width="1.5" d="M0,-3.0v7 M-2.5,-0.5L0,-3.0L2.5,-0.5"/>
                </g>
                <g id="arrowDown" xlink:href="#dirArrow" transform="rotate(180) translate(-30 -48)" onmousedown="handlePan(0,1)">
                  <use xlink:href="#rim" fill="#404040">
                        <set attributeName="fill" to="#808080" begin="arrowDown.mouseover" end="arrowDown.mouseout"/>
                  </use>
                  <path fill="none" stroke="white" stroke-width="1.5" d="M0,-3.0v7 M-2.5,-0.5L0,-3.0L2.5,-0.5"/>
                </g>
                <g id="arrowLeft" xlink:href="#dirArrow" transform="rotate(270) translate(-36 17)" onmousedown="handlePan(-1,0)">
                  <use xlink:href="#rim" fill="#404040">
                        <set attributeName="fill" to="#808080" begin="arrowLeft.mouseover" end="arrowLeft.mouseout"/>
                  </use>
                  <path fill="none" stroke="white" stroke-width="1.5" d="M0,-3.0v7 M-2.5,-0.5L0,-3.0L2.5,-0.5"/>
                </g>
        </g>
        <svg viewBox="0 0 15 15" width="100%" height="30px" preserveAspectRatio="xMaxYMin meet">
         <g id="arrow_out" transform="scale(0.3 0.3)">
          <a xlink:href="a00818_a0631cca63cc4f7f86b9e8e72faa6c3f7_cgraph_org.svg" target="_base">
           <rect id="button" ry="5" rx="5" y="6" x="6" height="38" width="38"
                fill="#f2f5e9" fill-opacity="0.5" stroke="#606060" stroke-width="1.0"/>
           <path id="arrow"
             d="M 11.500037,31.436501 C 11.940474,20.09759 22.043105,11.32322 32.158766,21.979434 L 37.068811,17.246167 C 37.068811,17.246167 37.088388,32 37.088388,32 L 22.160133,31.978069 C 22.160133,31.978069 26.997745,27.140456 26.997745,27.140456 C 18.528582,18.264221 13.291696,25.230495 11.500037,31.436501 z"
             style="fill:#404040;"/>
          </a>
         </g>
        </svg>
</svg>
