<?xml version="1.0" encoding="UTF-8" standalone="no"?>
<!DOCTYPE svg PUBLIC "-//W3C//DTD SVG 1.1//EN"
 "http://www.w3.org/Graphics/SVG/1.1/DTD/svg11.dtd">
<!-- Generated by graphviz version 2.43.0 (0)
 -->
<!-- Title: com.cliffc.aa.HM.TestHM9.reset Pages: 1 -->
<svg width="1004pt" height="193pt"
 viewBox="0.00 0.00 1004.00 192.50" xmlns="http://www.w3.org/2000/svg" xmlns:xlink="http://www.w3.org/1999/xlink">
<g id="graph0" class="graph" transform="scale(1 1) rotate(0) translate(4 188.5)">
<title>com.cliffc.aa.HM.TestHM9.reset</title>
<!-- Node1 -->
<g id="node1" class="node">
<title>Node1</title>
<g id="a_node1"><a xlink:title=" ">
<polygon fill="#bfbfbf" stroke="black" points="0,-77 0,-96 171,-96 171,-77 0,-77"/>
<text text-anchor="middle" x="85.5" y="-84" font-family="Helvetica,sans-Serif" font-size="10.00">com.cliffc.aa.HM.TestHM9.reset</text>
</a>
</g>
</g>
<!-- Node2 -->
<g id="node2" class="node">
<title>Node2</title>
<g id="a_node2"><a xlink:href="../../d4/d6d/a00402.html#a4f2115c126936b538ec27e313b396da6" target="_top" xlink:title=" ">
<polygon fill="none" stroke="black" points="207,-77 207,-96 353,-96 353,-77 207,-77"/>
<text text-anchor="middle" x="280" y="-84" font-family="Helvetica,sans-Serif" font-size="10.00">com.cliffc.aa.HM.HM.reset</text>
</a>
</g>
</g>
<!-- Node1&#45;&gt;Node2 -->
<g id="edge1" class="edge">
<title>Node1&#45;&gt;Node2</title>
<path fill="none" stroke="midnightblue" d="M171.21,-86.5C179.68,-86.5 188.26,-86.5 196.69,-86.5"/>
<polygon fill="midnightblue" stroke="midnightblue" points="196.9,-90 206.9,-86.5 196.9,-83 196.9,-90"/>
</g>
<!-- Node3 -->
<g id="node3" class="node">
<title>Node3</title>
<g id="a_node3"><a xlink:href="../../d7/d9f/a00454.html#a45cf772579c402f80869df8a840b518f" target="_top" xlink:title=" ">
<polygon fill="none" stroke="black" points="406,-137.5 406,-167.5 549,-167.5 549,-137.5 406,-137.5"/>
<text text-anchor="start" x="414" y="-155.5" font-family="Helvetica,sans-Serif" font-size="10.00">com.cliffc.aa.HM.HM.Prim</text>
<text text-anchor="middle" x="477.5" y="-144.5" font-family="Helvetica,sans-Serif" font-size="10.00">Syn.reset</text>
</a>
</g>
</g>
<!-- Node2&#45;&gt;Node3 -->
<g id="edge2" class="edge">
<title>Node2&#45;&gt;Node3</title>
<path fill="none" stroke="midnightblue" d="M304.39,-96.04C326.13,-104.74 359.5,-117.7 389,-127.5 396.27,-129.92 403.93,-132.31 411.57,-134.61"/>
<polygon fill="midnightblue" stroke="midnightblue" points="410.62,-137.98 421.2,-137.47 412.61,-131.27 410.62,-137.98"/>
</g>
<!-- Node8 -->
<g id="node8" class="node">
<title>Node8</title>
<g id="a_node8"><a xlink:href="../../d6/d90/a00514.html#acb5f5085a53ba550fa79adf370d3bd80" target="_top" xlink:title=" ">
<polygon fill="none" stroke="black" points="397,-99 397,-118 558,-118 558,-99 397,-99"/>
<text text-anchor="middle" x="477.5" y="-106" font-family="Helvetica,sans-Serif" font-size="10.00">com.cliffc.aa.HM.HM.T2.reset</text>
</a>
</g>
</g>
<!-- Node2&#45;&gt;Node8 -->
<g id="edge7" class="edge">
<title>Node2&#45;&gt;Node8</title>
<path fill="none" stroke="midnightblue" d="M353.24,-94.63C364.15,-95.86 375.52,-97.14 386.74,-98.4"/>
<polygon fill="midnightblue" stroke="midnightblue" points="386.66,-101.91 396.99,-99.55 387.44,-94.96 386.66,-101.91"/>
</g>
<!-- Node9 -->
<g id="node9" class="node">
<title>Node9</title>
<g id="a_node9"><a xlink:href="../../d1/de7/a01434.html#a420938c506719566780835cd0abe09c9" target="_top" xlink:title=" ">
<polygon fill="none" stroke="black" points="392.5,-49.5 392.5,-79.5 562.5,-79.5 562.5,-49.5 392.5,-49.5"/>
<text text-anchor="start" x="400.5" y="-67.5" font-family="Helvetica,sans-Serif" font-size="10.00">com.cliffc.aa.type.BitsFun.reset</text>
<text text-anchor="middle" x="477.5" y="-56.5" font-family="Helvetica,sans-Serif" font-size="10.00">_to_init0</text>
</a>
</g>
</g>
<!-- Node2&#45;&gt;Node9 -->
<g id="edge8" class="edge">
<title>Node2&#45;&gt;Node9</title>
<path fill="none" stroke="midnightblue" d="M353.24,-78.37C362.69,-77.31 372.47,-76.21 382.21,-75.11"/>
<polygon fill="midnightblue" stroke="midnightblue" points="382.79,-78.57 392.33,-73.97 382,-71.61 382.79,-78.57"/>
</g>
<!-- Node10 -->
<g id="node10" class="node">
<title>Node10</title>
<g id="a_node10"><a xlink:href="../../d8/dd0/a01430.html#adacdf01a4b2a7f7aefc7cbfc512bd6fc" target="_top" xlink:title=" ">
<polygon fill="none" stroke="black" points="389,-0.5 389,-30.5 566,-30.5 566,-0.5 389,-0.5"/>
<text text-anchor="start" x="397" y="-18.5" font-family="Helvetica,sans-Serif" font-size="10.00">com.cliffc.aa.type.BitsAlias.reset</text>
<text text-anchor="middle" x="477.5" y="-7.5" font-family="Helvetica,sans-Serif" font-size="10.00">_to_init0</text>
</a>
</g>
</g>
<!-- Node2&#45;&gt;Node10 -->
<g id="edge9" class="edge">
<title>Node2&#45;&gt;Node10</title>
<path fill="none" stroke="midnightblue" d="M300.57,-76.97C321.95,-66.81 357.37,-50.65 389,-39.5 394.85,-37.44 400.97,-35.44 407.14,-33.54"/>
<polygon fill="midnightblue" stroke="midnightblue" points="408.26,-36.86 416.84,-30.63 406.26,-30.15 408.26,-36.86"/>
</g>
<!-- Node4 -->
<g id="node4" class="node">
<title>Node4</title>
<g id="a_node4"><a xlink:href="../../d6/d90/a00514.html#aeaf55e45bb30e1c91287e57a84cf416d" target="_top" xlink:title=" ">
<polygon fill="none" stroke="black" points="602,-165 602,-184 793,-184 793,-165 602,-165"/>
<text text-anchor="middle" x="697.5" y="-172" font-family="Helvetica,sans-Serif" font-size="10.00">com.cliffc.aa.HM.HM.T2.make_base</text>
</a>
</g>
</g>
<!-- Node3&#45;&gt;Node4 -->
<g id="edge3" class="edge">
<title>Node3&#45;&gt;Node4</title>
<path fill="none" stroke="midnightblue" d="M549.28,-159.64C563.02,-161.03 577.68,-162.51 592.23,-163.98"/>
<polygon fill="midnightblue" stroke="midnightblue" points="591.98,-167.47 602.28,-164.99 592.68,-160.5 591.98,-167.47"/>
</g>
<!-- Node6 -->
<g id="node6" class="node">
<title>Node6</title>
<g id="a_node6"><a xlink:href="../../d8/dd0/a01430.html#aac21b340494a304ca99864578b6ee2bc" target="_top" xlink:title=" ">
<polygon fill="none" stroke="black" points="611,-115.5 611,-145.5 784,-145.5 784,-115.5 611,-115.5"/>
<text text-anchor="start" x="619" y="-133.5" font-family="Helvetica,sans-Serif" font-size="10.00">com.cliffc.aa.type.BitsAlias.new</text>
<text text-anchor="middle" x="697.5" y="-122.5" font-family="Helvetica,sans-Serif" font-size="10.00">_alias</text>
</a>
</g>
</g>
<!-- Node3&#45;&gt;Node6 -->
<g id="edge5" class="edge">
<title>Node3&#45;&gt;Node6</title>
<path fill="none" stroke="midnightblue" d="M549.28,-145.36C565.7,-143.7 583.44,-141.91 600.74,-140.16"/>
<polygon fill="midnightblue" stroke="midnightblue" points="601.26,-143.63 610.86,-139.14 600.56,-136.66 601.26,-143.63"/>
</g>
<!-- Node5 -->
<g id="node5" class="node">
<title>Node5</title>
<g id="a_node5"><a xlink:href="../../d6/d90/a00514.html#a26fdb3cb11feddd848b589240ce39dc2" target="_top" xlink:title=" ">
<polygon fill="none" stroke="black" points="838.5,-165 838.5,-184 986.5,-184 986.5,-165 838.5,-165"/>
<text text-anchor="middle" x="912.5" y="-172" font-family="Helvetica,sans-Serif" font-size="10.00">com.cliffc.aa.HM.HM.T2.T2</text>
</a>
</g>
</g>
<!-- Node4&#45;&gt;Node5 -->
<g id="edge4" class="edge">
<title>Node4&#45;&gt;Node5</title>
<path fill="none" stroke="midnightblue" d="M793.17,-174.5C804.73,-174.5 816.49,-174.5 827.88,-174.5"/>
<polygon fill="midnightblue" stroke="midnightblue" points="828.23,-178 838.23,-174.5 828.23,-171 828.23,-178"/>
</g>
<!-- Node7 -->
<g id="node7" class="node">
<title>Node7</title>
<g id="a_node7"><a xlink:href="../../d8/dd0/a01430.html#a491b77d1b9076feaf271aa8b8b6eacf9" target="_top" xlink:title=" ">
<polygon fill="none" stroke="black" points="829,-115.5 829,-145.5 996,-145.5 996,-115.5 829,-115.5"/>
<text text-anchor="start" x="837" y="-133.5" font-family="Helvetica,sans-Serif" font-size="10.00">com.cliffc.aa.type.BitsAlias.set</text>
<text text-anchor="middle" x="912.5" y="-122.5" font-family="Helvetica,sans-Serif" font-size="10.00">_alias</text>
</a>
</g>
</g>
<!-- Node6&#45;&gt;Node7 -->
<g id="edge6" class="edge">
<title>Node6&#45;&gt;Node7</title>
<path fill="none" stroke="midnightblue" d="M784.21,-130.5C795.57,-130.5 807.25,-130.5 818.72,-130.5"/>
<polygon fill="midnightblue" stroke="midnightblue" points="818.73,-134 828.73,-130.5 818.73,-127 818.73,-134"/>
</g>
</g>
</svg>
