<?xml version="1.0" encoding="UTF-8" standalone="no"?>
<!DOCTYPE svg PUBLIC "-//W3C//DTD SVG 1.1//EN"
 "http://www.w3.org/Graphics/SVG/1.1/DTD/svg11.dtd">
<!-- Generated by graphviz version 2.43.0 (0)
 -->
<!-- Title: com.cliffc.aa.node.ConNode.live Pages: 1 -->
<svg width="1554pt" height="144pt"
 viewBox="0.00 0.00 1554.00 143.50" xmlns="http://www.w3.org/2000/svg" xmlns:xlink="http://www.w3.org/1999/xlink">
<g id="graph0" class="graph" transform="scale(1 1) rotate(0) translate(4 139.5)">
<title>com.cliffc.aa.node.ConNode.live</title>
<!-- Node1 -->
<g id="node1" class="node">
<title>Node1</title>
<g id="a_node1"><a xlink:title=" ">
<polygon fill="#bfbfbf" stroke="black" points="0,-97 0,-116 174,-116 174,-97 0,-97"/>
<text text-anchor="middle" x="87" y="-104" font-family="Helvetica,sans-Serif" font-size="10.00">com.cliffc.aa.node.ConNode.live</text>
</a>
</g>
</g>
<!-- Node2 -->
<g id="node2" class="node">
<title>Node2</title>
<g id="a_node2"><a xlink:href="../../d1/dd8/a01022.html#a21b8ad1aa1b27f2811d1a3caca88460b" target="_top" xlink:title=" ">
<polygon fill="none" stroke="black" points="218,-116 218,-135 409,-135 409,-116 218,-116"/>
<text text-anchor="middle" x="313.5" y="-123" font-family="Helvetica,sans-Serif" font-size="10.00">com.cliffc.aa.node.ConNode.all_live</text>
</a>
</g>
</g>
<!-- Node1&#45;&gt;Node2 -->
<g id="edge1" class="edge">
<title>Node1&#45;&gt;Node2</title>
<path fill="none" stroke="midnightblue" d="M174.16,-113.79C185.14,-114.72 196.47,-115.68 207.71,-116.63"/>
<polygon fill="midnightblue" stroke="midnightblue" points="207.72,-120.14 217.98,-117.5 208.31,-113.17 207.72,-120.14"/>
</g>
<!-- Node3 -->
<g id="node3" class="node">
<title>Node3</title>
<g id="a_node3"><a xlink:href="../../d6/d51/a01494.html#ad6aa3b0ede3d374a0cc47c39c533ef2c" target="_top" xlink:title=" ">
<polygon fill="none" stroke="black" points="210,-78 210,-97 417,-97 417,-78 210,-78"/>
<text text-anchor="middle" x="313.5" y="-85" font-family="Helvetica,sans-Serif" font-size="10.00">com.cliffc.aa.type.TypeMem.make_live</text>
</a>
</g>
</g>
<!-- Node1&#45;&gt;Node3 -->
<g id="edge2" class="edge">
<title>Node1&#45;&gt;Node3</title>
<path fill="none" stroke="midnightblue" d="M174.16,-99.21C182.51,-98.5 191.07,-97.78 199.63,-97.05"/>
<polygon fill="midnightblue" stroke="midnightblue" points="200.01,-100.53 209.67,-96.2 199.41,-93.56 200.01,-100.53"/>
</g>
<!-- Node4 -->
<g id="node4" class="node">
<title>Node4</title>
<g id="a_node4"><a xlink:href="../../d6/d51/a01494.html#ae392026e3633d14a7cd12aea2a02114e" target="_top" xlink:title=" ">
<polygon fill="none" stroke="black" points="460.5,-97 460.5,-116 635.5,-116 635.5,-97 460.5,-97"/>
<text text-anchor="middle" x="548" y="-104" font-family="Helvetica,sans-Serif" font-size="10.00">com.cliffc.aa.type.TypeMem.live</text>
</a>
</g>
</g>
<!-- Node3&#45;&gt;Node4 -->
<g id="edge3" class="edge">
<title>Node3&#45;&gt;Node4</title>
<path fill="none" stroke="midnightblue" d="M417.15,-95.89C428.03,-96.78 439.07,-97.68 449.88,-98.56"/>
<polygon fill="midnightblue" stroke="midnightblue" points="449.92,-102.08 460.17,-99.4 450.49,-95.1 449.92,-102.08"/>
</g>
<!-- Node5 -->
<g id="node5" class="node">
<title>Node5</title>
<g id="a_node5"><a xlink:href="../../d6/d51/a01494.html#a6e66e12dd6b273e5ade4ab54fa683f8d" target="_top" xlink:title=" ">
<polygon fill="none" stroke="black" points="453,-59 453,-78 643,-78 643,-59 453,-59"/>
<text text-anchor="middle" x="548" y="-66" font-family="Helvetica,sans-Serif" font-size="10.00">com.cliffc.aa.type.TypeMem.make0</text>
</a>
</g>
</g>
<!-- Node3&#45;&gt;Node5 -->
<g id="edge4" class="edge">
<title>Node3&#45;&gt;Node5</title>
<path fill="none" stroke="midnightblue" d="M417.15,-79.11C425.72,-78.41 434.39,-77.7 442.97,-77"/>
<polygon fill="midnightblue" stroke="midnightblue" points="443.31,-80.49 452.99,-76.18 442.74,-73.51 443.31,-80.49"/>
</g>
<!-- Node6 -->
<g id="node6" class="node">
<title>Node6</title>
<g id="a_node6"><a xlink:href="../../d6/d51/a01494.html#af6e06afd7033aef3b4d8e85653d41df6" target="_top" xlink:title=" ">
<polygon fill="none" stroke="black" points="692.5,-97.5 692.5,-127.5 849.5,-127.5 849.5,-97.5 692.5,-97.5"/>
<text text-anchor="start" x="700.5" y="-115.5" font-family="Helvetica,sans-Serif" font-size="10.00">com.cliffc.aa.type.TypeMem.</text>
<text text-anchor="middle" x="771" y="-104.5" font-family="Helvetica,sans-Serif" font-size="10.00">_make1</text>
</a>
</g>
</g>
<!-- Node5&#45;&gt;Node6 -->
<g id="edge5" class="edge">
<title>Node5&#45;&gt;Node6</title>
<path fill="none" stroke="midnightblue" d="M596.95,-78.05C622.5,-83.13 654.7,-89.54 684.38,-95.45"/>
<polygon fill="midnightblue" stroke="midnightblue" points="683.84,-98.91 694.33,-97.43 685.21,-92.05 683.84,-98.91"/>
</g>
<!-- Node8 -->
<g id="node8" class="node">
<title>Node8</title>
<g id="a_node8"><a xlink:href="../../d6/d51/a01494.html#abfc567fa84de27858d9707536072702c" target="_top" xlink:title=" ">
<polygon fill="none" stroke="black" points="679,-59 679,-78 863,-78 863,-59 679,-59"/>
<text text-anchor="middle" x="771" y="-66" font-family="Helvetica,sans-Serif" font-size="10.00">com.cliffc.aa.type.TypeMem.make</text>
</a>
</g>
</g>
<!-- Node5&#45;&gt;Node8 -->
<g id="edge7" class="edge">
<title>Node5&#45;&gt;Node8</title>
<path fill="none" stroke="midnightblue" d="M643.04,-68.5C651.57,-68.5 660.23,-68.5 668.82,-68.5"/>
<polygon fill="midnightblue" stroke="midnightblue" points="668.85,-72 678.85,-68.5 668.85,-65 668.85,-72"/>
</g>
<!-- Node13 -->
<g id="node13" class="node">
<title>Node13</title>
<g id="a_node13"><a xlink:href="../../d0/de2/a01442.html#a388429cb6bea455104e3b9690d992854" target="_top" xlink:title=" ">
<polygon fill="none" stroke="black" points="696,-21 696,-40 846,-40 846,-21 696,-21"/>
<text text-anchor="middle" x="771" y="-28" font-family="Helvetica,sans-Serif" font-size="10.00">com.cliffc.aa.type.Type.oob</text>
</a>
</g>
</g>
<!-- Node5&#45;&gt;Node13 -->
<g id="edge13" class="edge">
<title>Node5&#45;&gt;Node13</title>
<path fill="none" stroke="midnightblue" d="M604.48,-58.96C634.83,-53.74 672.6,-47.25 704.4,-41.78"/>
<polygon fill="midnightblue" stroke="midnightblue" points="705.23,-45.19 714.49,-40.04 704.05,-38.29 705.23,-45.19"/>
</g>
<!-- Node7 -->
<g id="node7" class="node">
<title>Node7</title>
<g id="a_node7"><a xlink:href="../../d6/d51/a01494.html#ab31abc3950f3574c970b2858a1870949" target="_top" xlink:title=" ">
<polygon fill="none" stroke="black" points="914.5,-103 914.5,-122 1086.5,-122 1086.5,-103 914.5,-103"/>
<text text-anchor="middle" x="1000.5" y="-110" font-family="Helvetica,sans-Serif" font-size="10.00">com.cliffc.aa.type.TypeMem.len</text>
</a>
</g>
</g>
<!-- Node6&#45;&gt;Node7 -->
<g id="edge6" class="edge">
<title>Node6&#45;&gt;Node7</title>
<path fill="none" stroke="midnightblue" d="M849.66,-112.5C867.25,-112.5 886.13,-112.5 904.36,-112.5"/>
<polygon fill="midnightblue" stroke="midnightblue" points="904.4,-116 914.4,-112.5 904.4,-109 904.4,-116"/>
</g>
<!-- Node9 -->
<g id="node9" class="node">
<title>Node9</title>
<g id="a_node9"><a xlink:href="../../d0/de2/a01442.html#a8fe8d556e45e6b654f3ac87f118ac8de" target="_top" xlink:title=" ">
<polygon fill="none" stroke="black" points="899,-62 899,-81 1102,-81 1102,-62 899,-62"/>
<text text-anchor="middle" x="1000.5" y="-69" font-family="Helvetica,sans-Serif" font-size="10.00">com.cliffc.aa.type.Type.hashcons_free</text>
</a>
</g>
</g>
<!-- Node8&#45;&gt;Node9 -->
<g id="edge8" class="edge">
<title>Node8&#45;&gt;Node9</title>
<path fill="none" stroke="midnightblue" d="M863.22,-69.7C871.66,-69.81 880.28,-69.93 888.87,-70.04"/>
<polygon fill="midnightblue" stroke="midnightblue" points="888.88,-73.54 898.93,-70.17 888.97,-66.54 888.88,-73.54"/>
</g>
<!-- Node10 -->
<g id="node10" class="node">
<title>Node10</title>
<g id="a_node10"><a xlink:href="../../d6/d51/a01494.html#a6b1eb89aaaf02ada150969b5f8ce24ff" target="_top" xlink:title=" ">
<polygon fill="none" stroke="black" points="914,-6 914,-25 1087,-25 1087,-6 914,-6"/>
<text text-anchor="middle" x="1000.5" y="-13" font-family="Helvetica,sans-Serif" font-size="10.00">com.cliffc.aa.type.TypeMem.init</text>
</a>
</g>
</g>
<!-- Node8&#45;&gt;Node10 -->
<g id="edge9" class="edge">
<title>Node8&#45;&gt;Node10</title>
<path fill="none" stroke="midnightblue" d="M819.31,-58.98C833.39,-56.05 848.84,-52.74 863,-49.5 893.08,-42.62 926.72,-34.24 953.08,-27.53"/>
<polygon fill="midnightblue" stroke="midnightblue" points="953.98,-30.91 962.8,-25.05 952.25,-24.13 953.98,-30.91"/>
</g>
<!-- Node10&#45;&gt;Node10 -->
<g id="edge12" class="edge">
<title>Node10&#45;&gt;Node10</title>
<path fill="none" stroke="midnightblue" d="M965.64,-25.11C948.13,-33.96 959.75,-43.5 1000.5,-43.5 1031.06,-43.5 1045.24,-38.13 1043.03,-31.72"/>
<polygon fill="midnightblue" stroke="midnightblue" points="1045.22,-28.99 1035.36,-25.11 1040.65,-34.29 1045.22,-28.99"/>
</g>
<!-- Node11 -->
<g id="node11" class="node">
<title>Node11</title>
<g id="a_node11"><a xlink:href="../../d6/d51/a01494.html#a9a14a112498c8f5beb4b4585cdf61653" target="_top" xlink:title=" ">
<polygon fill="none" stroke="black" points="1138,-6 1138,-25 1323,-25 1323,-6 1138,-6"/>
<text text-anchor="middle" x="1230.5" y="-13" font-family="Helvetica,sans-Serif" font-size="10.00">com.cliffc.aa.type.TypeMem.check</text>
</a>
</g>
</g>
<!-- Node10&#45;&gt;Node11 -->
<g id="edge10" class="edge">
<title>Node10&#45;&gt;Node11</title>
<path fill="none" stroke="midnightblue" d="M1087.05,-15.5C1100.24,-15.5 1113.97,-15.5 1127.48,-15.5"/>
<polygon fill="midnightblue" stroke="midnightblue" points="1127.75,-19 1137.75,-15.5 1127.75,-12 1127.75,-19"/>
</g>
<!-- Node12 -->
<g id="node12" class="node">
<title>Node12</title>
<g id="a_node12"><a xlink:href="../../d6/d51/a01494.html#a0eecce7cc3a48609b618fd6ba69927f1" target="_top" xlink:title=" ">
<polygon fill="none" stroke="black" points="1359,-0.5 1359,-30.5 1546,-30.5 1546,-0.5 1359,-0.5"/>
<text text-anchor="start" x="1367" y="-18.5" font-family="Helvetica,sans-Serif" font-size="10.00">com.cliffc.aa.type.TypeMem.above</text>
<text text-anchor="middle" x="1452.5" y="-7.5" font-family="Helvetica,sans-Serif" font-size="10.00">_center</text>
</a>
</g>
</g>
<!-- Node11&#45;&gt;Node12 -->
<g id="edge11" class="edge">
<title>Node11&#45;&gt;Node12</title>
<path fill="none" stroke="midnightblue" d="M1323.21,-15.5C1331.68,-15.5 1340.3,-15.5 1348.87,-15.5"/>
<polygon fill="midnightblue" stroke="midnightblue" points="1348.88,-19 1358.88,-15.5 1348.88,-12 1348.88,-19"/>
</g>
</g>
</svg>
