<?xml version="1.0" encoding="UTF-8" standalone="no"?>
<!DOCTYPE svg PUBLIC "-//W3C//DTD SVG 1.1//EN"
 "http://www.w3.org/Graphics/SVG/1.1/DTD/svg11.dtd">
<!-- Generated by graphviz version 2.43.0 (0)
 -->
<!-- Title: com.cliffc.aa.HM.HM7.Syntax.str Pages: 1 -->
<!--zoomable 230 -->
<svg id="main" version="1.1" xmlns="http://www.w3.org/2000/svg" xmlns:xlink="http://www.w3.org/1999/xlink" xml:space="preserve" onload="init(evt)">
<style type="text/css"><![CDATA[
.edge:hover path { stroke: red; }
.edge:hover polygon { stroke: red; fill: red; }
]]></style>
<script type="text/javascript"><![CDATA[
var edges = document.getElementsByTagName('g');
if (edges && edges.length) {
  for (var i=0;i<edges.length;i++) {
    if (edges[i].id.substr(0,4)=='edge') {
      edges[i].setAttribute('class','edge');
    }
  }
}
]]></script>
        <defs>
                <circle id="rim" cx="0" cy="0" r="7"/>
                <circle id="rim2" cx="0" cy="0" r="3.5"/>
                <g id="zoomPlus">
                        <use xlink:href="#rim" fill="#404040">
                                <set attributeName="fill" to="#808080" begin="zoomplus.mouseover" end="zoomplus.mouseout"/>
                        </use>
                        <path d="M-4,0h8M0,-4v8" fill="none" stroke="white" stroke-width="1.5" pointer-events="none"/>
                </g>
                <g id="zoomMin">
                        <use xlink:href="#rim" fill="#404040">
                                <set attributeName="fill" to="#808080" begin="zoomminus.mouseover" end="zoomminus.mouseout"/>
                        </use>
                        <path d="M-4,0h8" fill="none" stroke="white" stroke-width="1.5" pointer-events="none"/>
                </g>
                <g id="dirArrow">
                        <path fill="none" stroke="white" stroke-width="1.5" d="M0,-3.0v7 M-2.5,-0.5L0,-3.0L2.5,-0.5"/>
                </g>
               <g id="resetDef">
                       <use xlink:href="#rim2" fill="#404040">
                               <set attributeName="fill" to="#808080" begin="reset.mouseover" end="reset.mouseout"/>
                       </use>
               </g>
        </defs>

<script type="text/javascript">
var viewWidth = 641;
var viewHeight = 230;
var sectionId = 'dynsection-21';
</script>
<script xlink:href="../../svgpan.js"/>
<svg id="graph" class="graph">
<g id="viewport">
<title>com.cliffc.aa.HM.HM7.Syntax.str</title>
<!-- Node1 -->
<g id="node1" class="node">
<title>Node1</title>
<g id="a_node1"><a xlink:title=" ">
<polygon fill="#bfbfbf" stroke="black" points="457,-107 457,-126 633,-126 633,-107 457,-107"/>
<text text-anchor="middle" x="545" y="-114" font-family="Helvetica,sans-Serif" font-size="10.00">com.cliffc.aa.HM.HM7.Syntax.str</text>
</a>
</g>
</g>
<!-- Node2 -->
<g id="node2" class="node">
<title>Node2</title>
<g id="a_node2"><a xlink:href="../../da/d71/a00814.html#afebe9b22936c8e234e386130c50abee9" target="_top" xlink:title=" ">
<polygon fill="none" stroke="black" points="239,-202 239,-221 421,-221 421,-202 239,-202"/>
<text text-anchor="middle" x="330" y="-209" font-family="Helvetica,sans-Serif" font-size="10.00">com.cliffc.aa.HM.HM7.Lambda.str</text>
</a>
</g>
</g>
<!-- Node1&#45;&gt;Node2 -->
<g id="edge1" class="edge">
<title>Node1&#45;&gt;Node2</title>
<path fill="none" stroke="midnightblue" d="M523.72,-132.11C500.26,-149.42 459.85,-176.95 421,-192.5 411.36,-196.36 400.82,-199.48 390.45,-201.99"/>
<polygon fill="midnightblue" stroke="midnightblue" points="525.94,-134.82 531.85,-126.03 521.75,-129.22 525.94,-134.82"/>
</g>
<!-- Node3 -->
<g id="node3" class="node">
<title>Node3</title>
<g id="a_node3"><a xlink:href="../../d3/d60/a00818.html#aaa02253db1315cbce013054c4cc1b65d" target="_top" xlink:title=" ">
<polygon fill="none" stroke="black" points="251,-164 251,-183 409,-183 409,-164 251,-164"/>
<text text-anchor="middle" x="330" y="-171" font-family="Helvetica,sans-Serif" font-size="10.00">com.cliffc.aa.HM.HM7.Let.str</text>
</a>
</g>
</g>
<!-- Node1&#45;&gt;Node3 -->
<g id="edge2" class="edge">
<title>Node1&#45;&gt;Node3</title>
<path fill="none" stroke="midnightblue" d="M505.87,-129.27C481.71,-137.11 449.71,-147.05 421,-154.5 407.86,-157.91 393.53,-161.15 380.24,-163.96"/>
<polygon fill="midnightblue" stroke="midnightblue" points="506.97,-132.59 515.38,-126.16 504.79,-125.94 506.97,-132.59"/>
</g>
<!-- Node4 -->
<g id="node4" class="node">
<title>Node4</title>
<g id="a_node4"><a xlink:href="../../d6/da7/a00822.html#a1b5663310d2c7696b6fd7c77d46062e5" target="_top" xlink:title=" ">
<polygon fill="none" stroke="black" points="245.5,-126 245.5,-145 414.5,-145 414.5,-126 245.5,-126"/>
<text text-anchor="middle" x="330" y="-133" font-family="Helvetica,sans-Serif" font-size="10.00">com.cliffc.aa.HM.HM7.Apply.str</text>
</a>
</g>
</g>
<!-- Node1&#45;&gt;Node4 -->
<g id="edge3" class="edge">
<title>Node1&#45;&gt;Node4</title>
<path fill="none" stroke="midnightblue" d="M446.58,-125.19C435.93,-126.14 425.15,-127.1 414.68,-128.04"/>
<polygon fill="midnightblue" stroke="midnightblue" points="447.1,-128.66 456.75,-124.28 446.48,-121.69 447.1,-128.66"/>
</g>
<!-- Node7 -->
<g id="node7" class="node">
<title>Node7</title>
<g id="a_node7"><a xlink:href="../../da/d90/a00826.html#a4daa6c1b36383eafd8d6f886b80396b2" target="_top" xlink:title=" ">
<polygon fill="none" stroke="black" points="244.5,-88 244.5,-107 415.5,-107 415.5,-88 244.5,-88"/>
<text text-anchor="middle" x="330" y="-95" font-family="Helvetica,sans-Serif" font-size="10.00">com.cliffc.aa.HM.HM7.Struct.str</text>
</a>
</g>
</g>
<!-- Node1&#45;&gt;Node7 -->
<g id="edge6" class="edge">
<title>Node1&#45;&gt;Node7</title>
<path fill="none" stroke="midnightblue" d="M446.52,-107.8C436.23,-106.89 425.83,-105.96 415.71,-105.06"/>
<polygon fill="midnightblue" stroke="midnightblue" points="446.48,-111.31 456.75,-108.72 447.1,-104.34 446.48,-111.31"/>
</g>
<!-- Node8 -->
<g id="node8" class="node">
<title>Node8</title>
<g id="a_node8"><a xlink:href="../../d9/daf/a00830.html#a2ac3762562aa258ad844c0ccb56fa72b" target="_top" xlink:title=" ">
<polygon fill="none" stroke="black" points="247,-50 247,-69 413,-69 413,-50 247,-50"/>
<text text-anchor="middle" x="330" y="-57" font-family="Helvetica,sans-Serif" font-size="10.00">com.cliffc.aa.HM.HM7.Field.str</text>
</a>
</g>
</g>
<!-- Node1&#45;&gt;Node8 -->
<g id="edge7" class="edge">
<title>Node1&#45;&gt;Node8</title>
<path fill="none" stroke="midnightblue" d="M505.87,-103.73C481.71,-95.89 449.71,-85.95 421,-78.5 407.86,-75.09 393.53,-71.85 380.24,-69.04"/>
<polygon fill="midnightblue" stroke="midnightblue" points="504.79,-107.06 515.38,-106.84 506.97,-100.41 504.79,-107.06"/>
</g>
<!-- Node11 -->
<g id="node11" class="node">
<title>Node11</title>
<g id="a_node11"><a xlink:href="../../d5/dcd/a00802.html#a7138983765faf19fae9beebdd32eb8ab" target="_top" xlink:title=" ">
<polygon fill="none" stroke="black" points="243.5,-0.5 243.5,-30.5 416.5,-30.5 416.5,-0.5 243.5,-0.5"/>
<text text-anchor="start" x="251.5" y="-18.5" font-family="Helvetica,sans-Serif" font-size="10.00">com.cliffc.aa.HM.HM7.Syntax.to</text>
<text text-anchor="middle" x="330" y="-7.5" font-family="Helvetica,sans-Serif" font-size="10.00">String</text>
</a>
</g>
</g>
<!-- Node1&#45;&gt;Node11 -->
<g id="edge10" class="edge">
<title>Node1&#45;&gt;Node11</title>
<path fill="none" stroke="midnightblue" d="M522.78,-100.79C499.04,-83.85 458.93,-57.09 421,-40.5 412.53,-36.8 403.37,-33.5 394.25,-30.62"/>
<polygon fill="midnightblue" stroke="midnightblue" points="520.88,-103.73 531.04,-106.76 524.98,-98.06 520.88,-103.73"/>
</g>
<!-- Node5 -->
<g id="node5" class="node">
<title>Node5</title>
<g id="a_node5"><a xlink:href="../../d6/da7/a00822.html#a8091d37f2f8c94491c36ff16108a7159" target="_top" xlink:title=" ">
<polygon fill="none" stroke="black" points="15.5,-156 15.5,-175 187.5,-175 187.5,-156 15.5,-156"/>
<text text-anchor="middle" x="101.5" y="-163" font-family="Helvetica,sans-Serif" font-size="10.00">com.cliffc.aa.HM.HM7.Apply.hm</text>
</a>
</g>
</g>
<!-- Node4&#45;&gt;Node5 -->
<g id="edge4" class="edge">
<title>Node4&#45;&gt;Node5</title>
<path fill="none" stroke="midnightblue" d="M246.96,-146.37C223.18,-149.52 197.4,-152.93 174.29,-155.99"/>
<polygon fill="midnightblue" stroke="midnightblue" points="247.57,-149.82 257.02,-145.03 246.65,-142.88 247.57,-149.82"/>
</g>
<!-- Node6 -->
<g id="node6" class="node">
<title>Node6</title>
<g id="a_node6"><a xlink:href="../../d6/da7/a00822.html#ab48011177b9a10ea304969a00bed87bf" target="_top" xlink:title=" ">
<polygon fill="none" stroke="black" points="0,-118 0,-137 203,-137 203,-118 0,-118"/>
<text text-anchor="middle" x="101.5" y="-125" font-family="Helvetica,sans-Serif" font-size="10.00">com.cliffc.aa.HM.HM7.Apply.prep_tree</text>
</a>
</g>
</g>
<!-- Node4&#45;&gt;Node6 -->
<g id="edge5" class="edge">
<title>Node4&#45;&gt;Node6</title>
<path fill="none" stroke="midnightblue" d="M235.23,-132.19C224.63,-131.81 213.79,-131.43 203.11,-131.05"/>
<polygon fill="midnightblue" stroke="midnightblue" points="235.19,-135.69 245.3,-132.54 235.43,-128.69 235.19,-135.69"/>
</g>
<!-- Node9 -->
<g id="node9" class="node">
<title>Node9</title>
<g id="a_node9"><a xlink:href="../../d9/daf/a00830.html#aaa02729ffe52ce784403ec3bd13bb808" target="_top" xlink:title=" ">
<polygon fill="none" stroke="black" points="25,-52.5 25,-82.5 178,-82.5 178,-52.5 25,-52.5"/>
<text text-anchor="start" x="33" y="-70.5" font-family="Helvetica,sans-Serif" font-size="10.00">com.cliffc.aa.HM.HM7.Field.</text>
<text text-anchor="middle" x="101.5" y="-59.5" font-family="Helvetica,sans-Serif" font-size="10.00">Field</text>
</a>
</g>
</g>
<!-- Node8&#45;&gt;Node9 -->
<g id="edge8" class="edge">
<title>Node8&#45;&gt;Node9</title>
<path fill="none" stroke="midnightblue" d="M236.83,-62.76C217.37,-63.44 197.05,-64.16 178.29,-64.82"/>
<polygon fill="midnightblue" stroke="midnightblue" points="237.04,-66.25 246.91,-62.4 236.79,-59.25 237.04,-66.25"/>
</g>
<!-- Node10 -->
<g id="node10" class="node">
<title>Node10</title>
<g id="a_node10"><a xlink:href="../../d9/daf/a00830.html#ae85fbf19e33bc55d594f756fc73fdb1e" target="_top" xlink:title=" ">
<polygon fill="none" stroke="black" points="17,-14 17,-33 186,-33 186,-14 17,-14"/>
<text text-anchor="middle" x="101.5" y="-21" font-family="Helvetica,sans-Serif" font-size="10.00">com.cliffc.aa.HM.HM7.Field.hm</text>
</a>
</g>
</g>
<!-- Node8&#45;&gt;Node10 -->
<g id="edge9" class="edge">
<title>Node8&#45;&gt;Node10</title>
<path fill="none" stroke="midnightblue" d="M258.94,-48.37C228.11,-43.46 192.25,-37.76 162.64,-33.06"/>
<polygon fill="midnightblue" stroke="midnightblue" points="258.77,-51.88 269.19,-49.99 259.87,-44.97 258.77,-51.88"/>
</g>
</g>
</svg>
        <g id="navigator" transform="translate(0 0)" fill="#404254">
                <rect fill="#f2f5e9" fill-opacity="0.5" stroke="#606060" stroke-width=".5" x="0" y="0" width="60" height="60"/>
                <use id="zoomplus" xlink:href="#zoomPlus" x="17" y="9" onmousedown="handleZoom(evt,'in')"/>
                <use id="zoomminus" xlink:href="#zoomMin" x="42" y="9" onmousedown="handleZoom(evt,'out')"/>
                <use id="reset" xlink:href="#resetDef" x="30" y="36" onmousedown="handleReset()"/>
                <g id="arrowUp" xlink:href="#dirArrow" transform="translate(30 24)" onmousedown="handlePan(0,-1)">
                  <use xlink:href="#rim" fill="#404040">
                        <set attributeName="fill" to="#808080" begin="arrowUp.mouseover" end="arrowUp.mouseout"/>
                  </use>
                  <path fill="none" stroke="white" stroke-width="1.5" d="M0,-3.0v7 M-2.5,-0.5L0,-3.0L2.5,-0.5"/>
                </g>
                <g id="arrowRight" xlink:href="#dirArrow" transform="rotate(90) translate(36 -43)" onmousedown="handlePan(1,0)">
                  <use xlink:href="#rim" fill="#404040">
                        <set attributeName="fill" to="#808080" begin="arrowRight.mouseover" end="arrowRight.mouseout"/>
                  </use>
                  <path fill="none" stroke="white" stroke-width="1.5" d="M0,-3.0v7 M-2.5,-0.5L0,-3.0L2.5,-0.5"/>
                </g>
                <g id="arrowDown" xlink:href="#dirArrow" transform="rotate(180) translate(-30 -48)" onmousedown="handlePan(0,1)">
                  <use xlink:href="#rim" fill="#404040">
                        <set attributeName="fill" to="#808080" begin="arrowDown.mouseover" end="arrowDown.mouseout"/>
                  </use>
                  <path fill="none" stroke="white" stroke-width="1.5" d="M0,-3.0v7 M-2.5,-0.5L0,-3.0L2.5,-0.5"/>
                </g>
                <g id="arrowLeft" xlink:href="#dirArrow" transform="rotate(270) translate(-36 17)" onmousedown="handlePan(-1,0)">
                  <use xlink:href="#rim" fill="#404040">
                        <set attributeName="fill" to="#808080" begin="arrowLeft.mouseover" end="arrowLeft.mouseout"/>
                  </use>
                  <path fill="none" stroke="white" stroke-width="1.5" d="M0,-3.0v7 M-2.5,-0.5L0,-3.0L2.5,-0.5"/>
                </g>
        </g>
        <svg viewBox="0 0 15 15" width="100%" height="30px" preserveAspectRatio="xMaxYMin meet">
         <g id="arrow_out" transform="scale(0.3 0.3)">
          <a xlink:href="a00802_aa4983b86b0315e5bb281d55a3dd89c2b_icgraph_org.svg" target="_base">
           <rect id="button" ry="5" rx="5" y="6" x="6" height="38" width="38"
                fill="#f2f5e9" fill-opacity="0.5" stroke="#606060" stroke-width="1.0"/>
           <path id="arrow"
             d="M 11.500037,31.436501 C 11.940474,20.09759 22.043105,11.32322 32.158766,21.979434 L 37.068811,17.246167 C 37.068811,17.246167 37.088388,32 37.088388,32 L 22.160133,31.978069 C 22.160133,31.978069 26.997745,27.140456 26.997745,27.140456 C 18.528582,18.264221 13.291696,25.230495 11.500037,31.436501 z"
             style="fill:#404040;"/>
          </a>
         </g>
        </svg>
</svg>
