<?xml version="1.0" encoding="UTF-8" standalone="no"?>
<!DOCTYPE svg PUBLIC "-//W3C//DTD SVG 1.1//EN"
 "http://www.w3.org/Graphics/SVG/1.1/DTD/svg11.dtd">
<!-- Generated by graphviz version 2.43.0 (0)
 -->
<!-- Title: com.cliffc.aa.type.TypeStr.make Pages: 1 -->
<svg width="783pt" height="65pt"
 viewBox="0.00 0.00 783.00 65.00" xmlns="http://www.w3.org/2000/svg" xmlns:xlink="http://www.w3.org/1999/xlink">
<g id="graph0" class="graph" transform="scale(1 1) rotate(0) translate(4 61)">
<title>com.cliffc.aa.type.TypeStr.make</title>
<!-- Node1 -->
<g id="node1" class="node">
<title>Node1</title>
<g id="a_node1"><a xlink:title=" ">
<polygon fill="#bfbfbf" stroke="black" points="0,-19.5 0,-38.5 172,-38.5 172,-19.5 0,-19.5"/>
<text text-anchor="middle" x="86" y="-26.5" font-family="Helvetica,sans-Serif" font-size="10.00">com.cliffc.aa.type.TypeStr.make</text>
</a>
</g>
</g>
<!-- Node1&#45;&gt;Node1 -->
<g id="edge7" class="edge">
<title>Node1&#45;&gt;Node1</title>
<path fill="none" stroke="midnightblue" d="M54.87,-38.76C39.72,-47.57 50.1,-57 86,-57 111.24,-57 123.87,-52.34 123.87,-46.5"/>
<polygon fill="midnightblue" stroke="midnightblue" points="126.34,-44 117.13,-38.76 121.06,-48.6 126.34,-44"/>
</g>
<!-- Node2 -->
<g id="node2" class="node">
<title>Node2</title>
<g id="a_node2"><a xlink:href="../../d0/d1a/a01518.html#ac318226162b9678acaf62563bdc04ed9" target="_top" xlink:title=" ">
<polygon fill="none" stroke="black" points="208,-19.5 208,-38.5 370,-38.5 370,-19.5 208,-19.5"/>
<text text-anchor="middle" x="289" y="-26.5" font-family="Helvetica,sans-Serif" font-size="10.00">com.cliffc.aa.type.TypeStr.con</text>
</a>
</g>
</g>
<!-- Node1&#45;&gt;Node2 -->
<g id="edge1" class="edge">
<title>Node1&#45;&gt;Node2</title>
<path fill="none" stroke="midnightblue" d="M172.24,-29C180.61,-29 189.12,-29 197.54,-29"/>
<polygon fill="midnightblue" stroke="midnightblue" points="197.74,-32.5 207.74,-29 197.74,-25.5 197.74,-32.5"/>
</g>
<!-- Node3 -->
<g id="node3" class="node">
<title>Node3</title>
<g id="a_node3"><a xlink:href="../../d0/d1a/a01518.html#a6bf71aa3c748be01655ab285f7234818" target="_top" xlink:title=" ">
<polygon fill="none" stroke="black" points="406,-19.5 406,-38.5 578,-38.5 578,-19.5 406,-19.5"/>
<text text-anchor="middle" x="492" y="-26.5" font-family="Helvetica,sans-Serif" font-size="10.00">com.cliffc.aa.type.TypeStr.make</text>
</a>
</g>
</g>
<!-- Node2&#45;&gt;Node3 -->
<g id="edge2" class="edge">
<title>Node2&#45;&gt;Node3</title>
<path fill="none" stroke="midnightblue" d="M370.02,-22.38C378.52,-22.27 387.22,-22.23 395.87,-22.26"/>
<polygon fill="midnightblue" stroke="midnightblue" points="395.96,-25.76 405.98,-22.32 396,-18.76 395.96,-25.76"/>
</g>
<!-- Node3&#45;&gt;Node2 -->
<g id="edge3" class="edge">
<title>Node3&#45;&gt;Node2</title>
<path fill="none" stroke="midnightblue" d="M405.98,-35.68C397.41,-35.76 388.69,-35.77 380.07,-35.72"/>
<polygon fill="midnightblue" stroke="midnightblue" points="380.05,-32.22 370.02,-35.62 379.98,-39.22 380.05,-32.22"/>
</g>
<!-- Node4 -->
<g id="node4" class="node">
<title>Node4</title>
<g id="a_node4"><a xlink:href="../../d0/d1a/a01518.html#a804672ab1bf06822078ee7827b76922d" target="_top" xlink:title=" ">
<polygon fill="none" stroke="black" points="614,-0.5 614,-19.5 775,-19.5 775,-0.5 614,-0.5"/>
<text text-anchor="middle" x="694.5" y="-7.5" font-family="Helvetica,sans-Serif" font-size="10.00">com.cliffc.aa.type.TypeStr.init</text>
</a>
</g>
</g>
<!-- Node3&#45;&gt;Node4 -->
<g id="edge4" class="edge">
<title>Node3&#45;&gt;Node4</title>
<path fill="none" stroke="midnightblue" d="M578.03,-20.94C586.55,-20.14 595.21,-19.31 603.77,-18.5"/>
<polygon fill="midnightblue" stroke="midnightblue" points="604.13,-21.98 613.76,-17.56 603.47,-15.02 604.13,-21.98"/>
</g>
<!-- Node4&#45;&gt;Node2 -->
<g id="edge5" class="edge">
<title>Node4&#45;&gt;Node2</title>
<path fill="none" stroke="midnightblue" d="M613.73,-6.54C555.95,-4.87 476.02,-4.3 406,-10 386.78,-11.56 365.94,-14.56 347.3,-17.72"/>
<polygon fill="midnightblue" stroke="midnightblue" points="346.44,-14.32 337.19,-19.49 347.65,-21.21 346.44,-14.32"/>
</g>
<!-- Node4&#45;&gt;Node4 -->
<g id="edge6" class="edge">
<title>Node4&#45;&gt;Node4</title>
<path fill="none" stroke="midnightblue" d="M663.37,-19.76C648.22,-28.57 658.6,-38 694.5,-38 719.74,-38 732.37,-33.34 732.37,-27.5"/>
<polygon fill="midnightblue" stroke="midnightblue" points="734.84,-25 725.63,-19.76 729.56,-29.6 734.84,-25"/>
</g>
</g>
</svg>
