<?xml version="1.0" encoding="UTF-8" standalone="no"?>
<!DOCTYPE svg PUBLIC "-//W3C//DTD SVG 1.1//EN"
 "http://www.w3.org/Graphics/SVG/1.1/DTD/svg11.dtd">
<!-- Generated by graphviz version 2.43.0 (0)
 -->
<!-- Title: com.cliffc.aa.type.TypeStr.xdual Pages: 1 -->
<svg width="783pt" height="47pt"
 viewBox="0.00 0.00 783.00 47.00" xmlns="http://www.w3.org/2000/svg" xmlns:xlink="http://www.w3.org/1999/xlink">
<g id="graph0" class="graph" transform="scale(1 1) rotate(0) translate(4 43)">
<title>com.cliffc.aa.type.TypeStr.xdual</title>
<!-- Node1 -->
<g id="node1" class="node">
<title>Node1</title>
<g id="a_node1"><a xlink:title=" ">
<polygon fill="#bfbfbf" stroke="black" points="0,-0.5 0,-19.5 172,-19.5 172,-0.5 0,-0.5"/>
<text text-anchor="middle" x="86" y="-7.5" font-family="Helvetica,sans-Serif" font-size="10.00">com.cliffc.aa.type.TypeStr.xdual</text>
</a>
</g>
</g>
<!-- Node2 -->
<g id="node2" class="node">
<title>Node2</title>
<g id="a_node2"><a xlink:href="../../d0/d1a/a01518.html#a804672ab1bf06822078ee7827b76922d" target="_top" xlink:title=" ">
<polygon fill="none" stroke="black" points="208,-0.5 208,-19.5 369,-19.5 369,-0.5 208,-0.5"/>
<text text-anchor="middle" x="288.5" y="-7.5" font-family="Helvetica,sans-Serif" font-size="10.00">com.cliffc.aa.type.TypeStr.init</text>
</a>
</g>
</g>
<!-- Node1&#45;&gt;Node2 -->
<g id="edge1" class="edge">
<title>Node1&#45;&gt;Node2</title>
<path fill="none" stroke="midnightblue" d="M172.03,-10C180.45,-10 189.02,-10 197.49,-10"/>
<polygon fill="midnightblue" stroke="midnightblue" points="197.76,-13.5 207.76,-10 197.76,-6.5 197.76,-13.5"/>
</g>
<!-- Node2&#45;&gt;Node2 -->
<g id="edge6" class="edge">
<title>Node2&#45;&gt;Node2</title>
<path fill="none" stroke="midnightblue" d="M258.29,-19.76C243.59,-28.57 253.66,-38 288.5,-38 312.99,-38 325.24,-33.34 325.25,-27.5"/>
<polygon fill="midnightblue" stroke="midnightblue" points="327.83,-25.14 318.71,-19.76 322.49,-29.66 327.83,-25.14"/>
</g>
<!-- Node3 -->
<g id="node3" class="node">
<title>Node3</title>
<g id="a_node3"><a xlink:href="../../d0/d1a/a01518.html#ac318226162b9678acaf62563bdc04ed9" target="_top" xlink:title=" ">
<polygon fill="none" stroke="black" points="405,-19.5 405,-38.5 567,-38.5 567,-19.5 405,-19.5"/>
<text text-anchor="middle" x="486" y="-26.5" font-family="Helvetica,sans-Serif" font-size="10.00">com.cliffc.aa.type.TypeStr.con</text>
</a>
</g>
</g>
<!-- Node2&#45;&gt;Node3 -->
<g id="edge2" class="edge">
<title>Node2&#45;&gt;Node3</title>
<path fill="none" stroke="midnightblue" d="M369.02,-17.73C377.53,-18.56 386.23,-19.4 394.85,-20.24"/>
<polygon fill="midnightblue" stroke="midnightblue" points="394.63,-23.73 404.92,-21.22 395.3,-16.77 394.63,-23.73"/>
</g>
<!-- Node4 -->
<g id="node4" class="node">
<title>Node4</title>
<g id="a_node4"><a xlink:href="../../d0/d1a/a01518.html#a6bf71aa3c748be01655ab285f7234818" target="_top" xlink:title=" ">
<polygon fill="none" stroke="black" points="603,-19.5 603,-38.5 775,-38.5 775,-19.5 603,-19.5"/>
<text text-anchor="middle" x="689" y="-26.5" font-family="Helvetica,sans-Serif" font-size="10.00">com.cliffc.aa.type.TypeStr.make</text>
</a>
</g>
</g>
<!-- Node3&#45;&gt;Node4 -->
<g id="edge3" class="edge">
<title>Node3&#45;&gt;Node4</title>
<path fill="none" stroke="midnightblue" d="M567.02,-22.38C575.52,-22.27 584.22,-22.23 592.87,-22.26"/>
<polygon fill="midnightblue" stroke="midnightblue" points="592.96,-25.76 602.98,-22.32 593,-18.76 592.96,-25.76"/>
</g>
<!-- Node4&#45;&gt;Node2 -->
<g id="edge5" class="edge">
<title>Node4&#45;&gt;Node2</title>
<path fill="none" stroke="midnightblue" d="M638.75,-19.49C616.87,-15.72 590.74,-11.85 567,-10 504.5,-5.12 433.85,-5.2 379.48,-6.46"/>
<polygon fill="midnightblue" stroke="midnightblue" points="379.08,-2.97 369.17,-6.72 379.26,-9.97 379.08,-2.97"/>
</g>
<!-- Node4&#45;&gt;Node3 -->
<g id="edge4" class="edge">
<title>Node4&#45;&gt;Node3</title>
<path fill="none" stroke="midnightblue" d="M602.98,-35.68C594.41,-35.76 585.69,-35.77 577.07,-35.72"/>
<polygon fill="midnightblue" stroke="midnightblue" points="577.05,-32.22 567.02,-35.62 576.98,-39.22 577.05,-32.22"/>
</g>
</g>
</svg>
