<?xml version="1.0" encoding="UTF-8" standalone="no"?>
<!DOCTYPE svg PUBLIC "-//W3C//DTD SVG 1.1//EN"
 "http://www.w3.org/Graphics/SVG/1.1/DTD/svg11.dtd">
<!-- Generated by graphviz version 2.43.0 (0)
 -->
<!-- Title: com.cliffc.aa.HM.HM3.Let.get_ids Pages: 1 -->
<svg width="423pt" height="104pt"
 viewBox="0.00 0.00 423.00 104.00" xmlns="http://www.w3.org/2000/svg" xmlns:xlink="http://www.w3.org/1999/xlink">
<g id="graph0" class="graph" transform="scale(1 1) rotate(0) translate(4 100)">
<title>com.cliffc.aa.HM.HM3.Let.get_ids</title>
<!-- Node1 -->
<g id="node1" class="node">
<title>Node1</title>
<g id="a_node1"><a xlink:title=" ">
<polygon fill="#bfbfbf" stroke="black" points="0,-38.5 0,-57.5 180,-57.5 180,-38.5 0,-38.5"/>
<text text-anchor="middle" x="90" y="-45.5" font-family="Helvetica,sans-Serif" font-size="10.00">com.cliffc.aa.HM.HM3.Let.get_ids</text>
</a>
</g>
</g>
<!-- Node2 -->
<g id="node2" class="node">
<title>Node2</title>
<g id="a_node2"><a xlink:href="../../d7/de4/a00634.html#a01cfad3942005c1f113f481f2adfda5e" target="_top" xlink:title=" ">
<polygon fill="none" stroke="black" points="231,-76.5 231,-95.5 400,-95.5 400,-76.5 231,-76.5"/>
<text text-anchor="middle" x="315.5" y="-83.5" font-family="Helvetica,sans-Serif" font-size="10.00">com.cliffc.aa.HM.HM3.Let.body</text>
</a>
</g>
</g>
<!-- Node1&#45;&gt;Node2 -->
<g id="edge1" class="edge">
<title>Node1&#45;&gt;Node2</title>
<path fill="none" stroke="midnightblue" d="M147.11,-57.54C177.8,-62.76 216,-69.25 248.16,-74.72"/>
<polygon fill="midnightblue" stroke="midnightblue" points="247.92,-78.23 258.37,-76.46 249.1,-71.33 247.92,-78.23"/>
</g>
<!-- Node3 -->
<g id="node3" class="node">
<title>Node3</title>
<g id="a_node3"><a xlink:href="../../de/d85/a00618.html#a13d8d77391990d2c786e222ff856cc9e" target="_top" xlink:title=" ">
<polygon fill="none" stroke="black" points="216,-38.5 216,-57.5 415,-57.5 415,-38.5 216,-38.5"/>
<text text-anchor="middle" x="315.5" y="-45.5" font-family="Helvetica,sans-Serif" font-size="10.00">com.cliffc.aa.HM.HM3.Syntax.get_ids</text>
</a>
</g>
</g>
<!-- Node1&#45;&gt;Node3 -->
<g id="edge2" class="edge">
<title>Node1&#45;&gt;Node3</title>
<path fill="none" stroke="midnightblue" d="M180.3,-48C188.69,-48 197.25,-48 205.79,-48"/>
<polygon fill="midnightblue" stroke="midnightblue" points="205.8,-51.5 215.8,-48 205.8,-44.5 205.8,-51.5"/>
</g>
<!-- Node4 -->
<g id="node4" class="node">
<title>Node4</title>
<g id="a_node4"><a xlink:href="../../d7/de4/a00634.html#a9f2eeb1f4bb6cd75a7c38377bec4dcc1" target="_top" xlink:title=" ">
<polygon fill="none" stroke="black" points="234.5,-0.5 234.5,-19.5 396.5,-19.5 396.5,-0.5 234.5,-0.5"/>
<text text-anchor="middle" x="315.5" y="-7.5" font-family="Helvetica,sans-Serif" font-size="10.00">com.cliffc.aa.HM.HM3.Let.use</text>
</a>
</g>
</g>
<!-- Node1&#45;&gt;Node4 -->
<g id="edge3" class="edge">
<title>Node1&#45;&gt;Node4</title>
<path fill="none" stroke="midnightblue" d="M147.11,-38.46C177.8,-33.24 216,-26.75 248.16,-21.28"/>
<polygon fill="midnightblue" stroke="midnightblue" points="249.1,-24.67 258.37,-19.54 247.92,-17.77 249.1,-24.67"/>
</g>
</g>
</svg>
