<?xml version="1.0" encoding="UTF-8" standalone="no"?>
<!DOCTYPE svg PUBLIC "-//W3C//DTD SVG 1.1//EN"
 "http://www.w3.org/Graphics/SVG/1.1/DTD/svg11.dtd">
<!-- Generated by graphviz version 2.43.0 (0)
 -->
<!-- Title: com.cliffc.aa.HM.HM7.Apply.is_if_nil Pages: 1 -->
<svg width="1362pt" height="94pt"
 viewBox="0.00 0.00 1362.00 94.00" xmlns="http://www.w3.org/2000/svg" xmlns:xlink="http://www.w3.org/1999/xlink">
<g id="graph0" class="graph" transform="scale(1 1) rotate(0) translate(4 90)">
<title>com.cliffc.aa.HM.HM7.Apply.is_if_nil</title>
<!-- Node1 -->
<g id="node1" class="node">
<title>Node1</title>
<g id="a_node1"><a xlink:title=" ">
<polygon fill="#bfbfbf" stroke="black" points="0,-52 0,-82 164,-82 164,-52 0,-52"/>
<text text-anchor="start" x="8" y="-70" font-family="Helvetica,sans-Serif" font-size="10.00">com.cliffc.aa.HM.HM7.Apply.is</text>
<text text-anchor="middle" x="82" y="-59" font-family="Helvetica,sans-Serif" font-size="10.00">_if_nil</text>
</a>
</g>
</g>
<!-- Node2 -->
<g id="node2" class="node">
<title>Node2</title>
<g id="a_node2"><a xlink:href="../../dd/d55/a01638.html#a3975ba7dca9fe2d6e4992b2b5558f882" target="_top" xlink:title=" ">
<polygon fill="none" stroke="black" points="1221,-57.5 1221,-76.5 1354,-76.5 1354,-57.5 1221,-57.5"/>
<text text-anchor="middle" x="1287.5" y="-64.5" font-family="Helvetica,sans-Serif" font-size="10.00">com.cliffc.aa.util.Util.eq</text>
</a>
</g>
</g>
<!-- Node1&#45;&gt;Node2 -->
<g id="edge1" class="edge">
<title>Node1&#45;&gt;Node2</title>
<path fill="none" stroke="midnightblue" d="M164.25,-72.93C247.69,-78.51 381.34,-86 497,-86 497,-86 497,-86 907,-86 1012.43,-86 1134.14,-78.59 1210.7,-73.03"/>
<polygon fill="midnightblue" stroke="midnightblue" points="1211.02,-76.52 1220.73,-72.29 1210.5,-69.54 1211.02,-76.52"/>
</g>
<!-- Node3 -->
<g id="node3" class="node">
<title>Node3</title>
<g id="a_node3"><a xlink:href="../../d5/dcd/a00802.html#a93a40c6cf09f0d9f09ec42470cb7003b" target="_top" xlink:title=" ">
<polygon fill="none" stroke="black" points="200,-38.5 200,-57.5 382,-57.5 382,-38.5 200,-38.5"/>
<text text-anchor="middle" x="291" y="-45.5" font-family="Helvetica,sans-Serif" font-size="10.00">com.cliffc.aa.HM.HM7.Syntax.find</text>
</a>
</g>
</g>
<!-- Node1&#45;&gt;Node3 -->
<g id="edge2" class="edge">
<title>Node1&#45;&gt;Node3</title>
<path fill="none" stroke="midnightblue" d="M164.22,-59.55C172.6,-58.78 181.19,-57.99 189.75,-57.2"/>
<polygon fill="midnightblue" stroke="midnightblue" points="190.14,-60.68 199.77,-56.28 189.5,-53.71 190.14,-60.68"/>
</g>
<!-- Node4 -->
<g id="node4" class="node">
<title>Node4</title>
<g id="a_node4"><a xlink:href="../../d9/d02/a00834.html#ae2138b8d9d5860eda7513092126ba601" target="_top" xlink:title=" ">
<polygon fill="none" stroke="black" points="418,-38.5 418,-57.5 578,-57.5 578,-38.5 418,-38.5"/>
<text text-anchor="middle" x="498" y="-45.5" font-family="Helvetica,sans-Serif" font-size="10.00">com.cliffc.aa.HM.HM7.T2.find</text>
</a>
</g>
</g>
<!-- Node3&#45;&gt;Node4 -->
<g id="edge3" class="edge">
<title>Node3&#45;&gt;Node4</title>
<path fill="none" stroke="midnightblue" d="M382.21,-48C390.61,-48 399.13,-48 407.52,-48"/>
<polygon fill="midnightblue" stroke="midnightblue" points="407.69,-51.5 417.69,-48 407.69,-44.5 407.69,-51.5"/>
</g>
<!-- Node5 -->
<g id="node5" class="node">
<title>Node5</title>
<g id="a_node5"><a xlink:href="../../d9/d02/a00834.html#aebfcad4f2e406516eef7fd39a6803752" target="_top" xlink:title=" ">
<polygon fill="none" stroke="black" points="819,-38.5 819,-57.5 993,-57.5 993,-38.5 819,-38.5"/>
<text text-anchor="middle" x="906" y="-45.5" font-family="Helvetica,sans-Serif" font-size="10.00">com.cliffc.aa.HM.HM7.T2.is_leaf</text>
</a>
</g>
</g>
<!-- Node4&#45;&gt;Node5 -->
<g id="edge4" class="edge">
<title>Node4&#45;&gt;Node5</title>
<path fill="none" stroke="midnightblue" d="M578.24,-48C644.23,-48 738.43,-48 808.74,-48"/>
<polygon fill="midnightblue" stroke="midnightblue" points="808.94,-51.5 818.94,-48 808.94,-44.5 808.94,-51.5"/>
</g>
<!-- Node7 -->
<g id="node7" class="node">
<title>Node7</title>
<g id="a_node7"><a xlink:href="../../d9/d02/a00834.html#a11a0879ef2674dd9fb3f9a1be59d3084" target="_top" xlink:title=" ">
<polygon fill="none" stroke="black" points="614,-0.5 614,-19.5 783,-19.5 783,-0.5 614,-0.5"/>
<text text-anchor="middle" x="698.5" y="-7.5" font-family="Helvetica,sans-Serif" font-size="10.00">com.cliffc.aa.HM.HM7.T2.no_uf</text>
</a>
</g>
</g>
<!-- Node4&#45;&gt;Node7 -->
<g id="edge7" class="edge">
<title>Node4&#45;&gt;Node7</title>
<path fill="none" stroke="midnightblue" d="M548.83,-38.46C575.73,-33.31 609.14,-26.92 637.46,-21.49"/>
<polygon fill="midnightblue" stroke="midnightblue" points="638.48,-24.86 647.65,-19.54 637.17,-17.99 638.48,-24.86"/>
</g>
<!-- Node6 -->
<g id="node6" class="node">
<title>Node6</title>
<g id="a_node6"><a xlink:href="../../d9/d02/a00834.html#a1646dbd4ae347d254550074fb9dd89ac" target="_top" xlink:title=" ">
<polygon fill="none" stroke="black" points="1029,-38.5 1029,-57.5 1185,-57.5 1185,-38.5 1029,-38.5"/>
<text text-anchor="middle" x="1107" y="-45.5" font-family="Helvetica,sans-Serif" font-size="10.00">com.cliffc.aa.HM.HM7.T2.isa</text>
</a>
</g>
</g>
<!-- Node5&#45;&gt;Node6 -->
<g id="edge5" class="edge">
<title>Node5&#45;&gt;Node6</title>
<path fill="none" stroke="midnightblue" d="M993.13,-48C1001.57,-48 1010.14,-48 1018.59,-48"/>
<polygon fill="midnightblue" stroke="midnightblue" points="1018.82,-51.5 1028.82,-48 1018.82,-44.5 1018.82,-51.5"/>
</g>
<!-- Node6&#45;&gt;Node2 -->
<g id="edge6" class="edge">
<title>Node6&#45;&gt;Node2</title>
<path fill="none" stroke="midnightblue" d="M1185.25,-56.22C1193.69,-57.12 1202.28,-58.04 1210.7,-58.93"/>
<polygon fill="midnightblue" stroke="midnightblue" points="1210.56,-62.44 1220.87,-60.01 1211.3,-55.48 1210.56,-62.44"/>
</g>
<!-- Node7&#45;&gt;Node5 -->
<g id="edge8" class="edge">
<title>Node7&#45;&gt;Node5</title>
<path fill="none" stroke="midnightblue" d="M751.09,-19.54C779.06,-24.71 813.82,-31.14 843.23,-36.58"/>
<polygon fill="midnightblue" stroke="midnightblue" points="842.92,-40.08 853.39,-38.46 844.19,-33.2 842.92,-40.08"/>
</g>
</g>
</svg>
