<?xml version="1.0" encoding="UTF-8" standalone="no"?>
<!DOCTYPE svg PUBLIC "-//W3C//DTD SVG 1.1//EN"
 "http://www.w3.org/Graphics/SVG/1.1/DTD/svg11.dtd">
<!-- Generated by graphviz version 2.43.0 (0)
 -->
<!-- Title: com.cliffc.aa.HM.HM.VStack.toString Pages: 1 -->
<!--zoomable 400 -->
<svg id="main" version="1.1" xmlns="http://www.w3.org/2000/svg" xmlns:xlink="http://www.w3.org/1999/xlink" xml:space="preserve" onload="init(evt)">
<style type="text/css"><![CDATA[
.edge:hover path { stroke: red; }
.edge:hover polygon { stroke: red; fill: red; }
]]></style>
<script type="text/javascript"><![CDATA[
var edges = document.getElementsByTagName('g');
if (edges && edges.length) {
  for (var i=0;i<edges.length;i++) {
    if (edges[i].id.substr(0,4)=='edge') {
      edges[i].setAttribute('class','edge');
    }
  }
}
]]></script>
        <defs>
                <circle id="rim" cx="0" cy="0" r="7"/>
                <circle id="rim2" cx="0" cy="0" r="3.5"/>
                <g id="zoomPlus">
                        <use xlink:href="#rim" fill="#404040">
                                <set attributeName="fill" to="#808080" begin="zoomplus.mouseover" end="zoomplus.mouseout"/>
                        </use>
                        <path d="M-4,0h8M0,-4v8" fill="none" stroke="white" stroke-width="1.5" pointer-events="none"/>
                </g>
                <g id="zoomMin">
                        <use xlink:href="#rim" fill="#404040">
                                <set attributeName="fill" to="#808080" begin="zoomminus.mouseover" end="zoomminus.mouseout"/>
                        </use>
                        <path d="M-4,0h8" fill="none" stroke="white" stroke-width="1.5" pointer-events="none"/>
                </g>
                <g id="dirArrow">
                        <path fill="none" stroke="white" stroke-width="1.5" d="M0,-3.0v7 M-2.5,-0.5L0,-3.0L2.5,-0.5"/>
                </g>
               <g id="resetDef">
                       <use xlink:href="#rim2" fill="#404040">
                               <set attributeName="fill" to="#808080" begin="reset.mouseover" end="reset.mouseout"/>
                       </use>
               </g>
        </defs>

<script type="text/javascript">
var viewWidth = 1329;
var viewHeight = 400;
var sectionId = 'dynsection-7';
</script>
<script xlink:href="../../svgpan.js"/>
<svg id="graph" class="graph">
<g id="viewport">
<title>com.cliffc.aa.HM.HM.VStack.toString</title>
<!-- Node1 -->
<g id="node1" class="node">
<title>Node1</title>
<g id="a_node1"><a xlink:title=" ">
<polygon fill="#bfbfbf" stroke="black" points="0,-232 0,-262 167,-262 167,-232 0,-232"/>
<text text-anchor="start" x="8" y="-250" font-family="Helvetica,sans-Serif" font-size="10.00">com.cliffc.aa.HM.HM.VStack.to</text>
<text text-anchor="middle" x="83.5" y="-239" font-family="Helvetica,sans-Serif" font-size="10.00">String</text>
</a>
</g>
</g>
<!-- Node2 -->
<g id="node2" class="node">
<title>Node2</title>
<g id="a_node2"><a xlink:href="../../d8/d91/a00410.html#a849045f9698fbf25159864255169aab9" target="_top" xlink:title=" ">
<polygon fill="none" stroke="black" points="203,-259.5 203,-278.5 373,-278.5 373,-259.5 203,-259.5"/>
<text text-anchor="middle" x="288" y="-266.5" font-family="Helvetica,sans-Serif" font-size="10.00">com.cliffc.aa.HM.HM.VStack.str</text>
</a>
</g>
</g>
<!-- Node1&#45;&gt;Node2 -->
<g id="edge1" class="edge">
<title>Node1&#45;&gt;Node2</title>
<path fill="none" stroke="midnightblue" d="M167.16,-255.98C175.65,-256.9 184.32,-257.84 192.92,-258.78"/>
<polygon fill="midnightblue" stroke="midnightblue" points="192.65,-262.27 202.97,-259.87 193.4,-255.31 192.65,-262.27"/>
</g>
<!-- Node18 -->
<g id="node18" class="node">
<title>Node18</title>
<g id="a_node18"><a xlink:href="../../d4/d99/a01634.html#a810e7fa54cbd178760c86b30b2aa893c" target="_top" xlink:title=" ">
<polygon fill="none" stroke="black" points="225,-210 225,-240 351,-240 351,-210 225,-210"/>
<text text-anchor="start" x="233" y="-228" font-family="Helvetica,sans-Serif" font-size="10.00">com.cliffc.aa.util.SB.to</text>
<text text-anchor="middle" x="288" y="-217" font-family="Helvetica,sans-Serif" font-size="10.00">String</text>
</a>
</g>
</g>
<!-- Node1&#45;&gt;Node18 -->
<g id="edge26" class="edge">
<title>Node1&#45;&gt;Node18</title>
<path fill="none" stroke="midnightblue" d="M167.16,-238.02C182.95,-236.3 199.36,-234.52 214.79,-232.84"/>
<polygon fill="midnightblue" stroke="midnightblue" points="215.21,-236.32 224.77,-231.76 214.45,-229.36 215.21,-236.32"/>
</g>
<!-- Node2&#45;&gt;Node2 -->
<g id="edge4" class="edge">
<title>Node2&#45;&gt;Node2</title>
<path fill="none" stroke="midnightblue" d="M258.1,-278.76C243.55,-287.57 253.52,-297 288,-297 312.24,-297 324.37,-292.34 324.37,-286.5"/>
<polygon fill="midnightblue" stroke="midnightblue" points="327,-284.19 317.9,-278.76 321.63,-288.67 327,-284.19"/>
</g>
<!-- Node3 -->
<g id="node3" class="node">
<title>Node3</title>
<g id="a_node3"><a xlink:href="../../d4/d99/a01634.html#ac801338e82849a7fe2ae7a0feb80bb55" target="_top" xlink:title=" ">
<polygon fill="none" stroke="black" points="614.5,-372.5 614.5,-391.5 736.5,-391.5 736.5,-372.5 614.5,-372.5"/>
<text text-anchor="middle" x="675.5" y="-379.5" font-family="Helvetica,sans-Serif" font-size="10.00">com.cliffc.aa.util.SB.p</text>
</a>
</g>
</g>
<!-- Node2&#45;&gt;Node3 -->
<g id="edge2" class="edge">
<title>Node2&#45;&gt;Node3</title>
<path fill="none" stroke="midnightblue" d="M317.83,-278.59C371.73,-296.38 491.61,-335.17 594,-363 602.96,-365.43 612.52,-367.85 621.81,-370.1"/>
<polygon fill="midnightblue" stroke="midnightblue" points="621.21,-373.56 631.75,-372.47 622.84,-366.75 621.21,-373.56"/>
</g>
<!-- Node5 -->
<g id="node5" class="node">
<title>Node5</title>
<g id="a_node5"><a xlink:href="../../d6/d90/a00514.html#a77f459dd40fbefda1b83e53a5eb86e59" target="_top" xlink:title=" ">
<polygon fill="none" stroke="black" points="409,-202.5 409,-221.5 558,-221.5 558,-202.5 409,-202.5"/>
<text text-anchor="middle" x="483.5" y="-209.5" font-family="Helvetica,sans-Serif" font-size="10.00">com.cliffc.aa.HM.HM.T2.str</text>
</a>
</g>
</g>
<!-- Node2&#45;&gt;Node5 -->
<g id="edge5" class="edge">
<title>Node2&#45;&gt;Node5</title>
<path fill="none" stroke="midnightblue" d="M335.45,-259.47C347.73,-256.68 360.92,-253.45 373,-250 398.39,-242.75 426.52,-232.95 447.91,-225.11"/>
<polygon fill="midnightblue" stroke="midnightblue" points="449.36,-228.31 457.53,-221.56 446.94,-221.74 449.36,-228.31"/>
</g>
<!-- Node4 -->
<g id="node4" class="node">
<title>Node4</title>
<g id="a_node4"><a xlink:href="../../d4/d99/a01634.html#abd1b8ac722e0fb0bf1e7b2ea0eaeb0b6" target="_top" xlink:title=" ">
<polygon fill="none" stroke="black" points="818.5,-372.5 818.5,-391.5 940.5,-391.5 940.5,-372.5 818.5,-372.5"/>
<text text-anchor="middle" x="879.5" y="-379.5" font-family="Helvetica,sans-Serif" font-size="10.00">com.cliffc.aa.util.SB.s</text>
</a>
</g>
</g>
<!-- Node3&#45;&gt;Node4 -->
<g id="edge3" class="edge">
<title>Node3&#45;&gt;Node4</title>
<path fill="none" stroke="midnightblue" d="M736.56,-382C759.05,-382 784.8,-382 808.14,-382"/>
<polygon fill="midnightblue" stroke="midnightblue" points="808.32,-385.5 818.32,-382 808.32,-378.5 808.32,-385.5"/>
</g>
<!-- Node5&#45;&gt;Node3 -->
<g id="edge20" class="edge">
<title>Node5&#45;&gt;Node3</title>
<path fill="none" stroke="midnightblue" d="M491.91,-221.76C505.29,-239.42 534.3,-277.95 558,-311 574.38,-333.84 570.78,-347.16 594,-363 597.47,-365.37 601.2,-367.44 605.08,-369.26"/>
<polygon fill="midnightblue" stroke="midnightblue" points="603.79,-372.51 614.37,-373.05 606.43,-366.03 603.79,-372.51"/>
</g>
<!-- Node5&#45;&gt;Node5 -->
<g id="edge22" class="edge">
<title>Node5&#45;&gt;Node5</title>
<path fill="none" stroke="midnightblue" d="M453.91,-221.76C439.51,-230.57 449.38,-240 483.5,-240 507.49,-240 519.49,-235.34 519.5,-229.5"/>
<polygon fill="midnightblue" stroke="midnightblue" points="522.16,-227.23 513.09,-221.76 516.77,-231.69 522.16,-227.23"/>
</g>
<!-- Node6 -->
<g id="node6" class="node">
<title>Node6</title>
<g id="a_node6"><a xlink:href="../../d6/d90/a00514.html#a41ec42213b59c2aa5fa3d08b29392987" target="_top" xlink:title=" ">
<polygon fill="none" stroke="black" points="793,-278.5 793,-297.5 966,-297.5 966,-278.5 793,-278.5"/>
<text text-anchor="middle" x="879.5" y="-285.5" font-family="Helvetica,sans-Serif" font-size="10.00">com.cliffc.aa.HM.HM.T2.is_base</text>
</a>
</g>
</g>
<!-- Node5&#45;&gt;Node6 -->
<g id="edge6" class="edge">
<title>Node5&#45;&gt;Node6</title>
<path fill="none" stroke="midnightblue" d="M510.27,-221.58C532.25,-229.42 564.83,-240.28 594,-247 656.15,-261.31 727.15,-271.55 782.67,-278.21"/>
<polygon fill="midnightblue" stroke="midnightblue" points="782.51,-281.72 792.85,-279.42 783.33,-274.77 782.51,-281.72"/>
</g>
<!-- Node9 -->
<g id="node9" class="node">
<title>Node9</title>
<g id="a_node9"><a xlink:href="../../d6/d90/a00514.html#abb531f3159b4ccdea2479bdbf9593a21" target="_top" xlink:title=" ">
<polygon fill="none" stroke="black" points="798,-240.5 798,-259.5 961,-259.5 961,-240.5 798,-240.5"/>
<text text-anchor="middle" x="879.5" y="-247.5" font-family="Helvetica,sans-Serif" font-size="10.00">com.cliffc.aa.HM.HM.T2.is_err</text>
</a>
</g>
</g>
<!-- Node5&#45;&gt;Node9 -->
<g id="edge9" class="edge">
<title>Node5&#45;&gt;Node9</title>
<path fill="none" stroke="midnightblue" d="M555.43,-221.52C568.25,-223.11 581.52,-224.68 594,-226 658.62,-232.85 731.66,-238.98 787.55,-243.33"/>
<polygon fill="midnightblue" stroke="midnightblue" points="787.54,-246.84 797.78,-244.12 788.08,-239.86 787.54,-246.84"/>
</g>
<!-- Node10 -->
<g id="node10" class="node">
<title>Node10</title>
<g id="a_node10"><a xlink:href="../../d6/d90/a00514.html#ac965850a0de69003c9298a1aa3b42859" target="_top" xlink:title=" ">
<polygon fill="none" stroke="black" points="797,-202.5 797,-221.5 962,-221.5 962,-202.5 797,-202.5"/>
<text text-anchor="middle" x="879.5" y="-209.5" font-family="Helvetica,sans-Serif" font-size="10.00">com.cliffc.aa.HM.HM.T2.is_fun</text>
</a>
</g>
</g>
<!-- Node5&#45;&gt;Node10 -->
<g id="edge11" class="edge">
<title>Node5&#45;&gt;Node10</title>
<path fill="none" stroke="midnightblue" d="M558.15,-212C622.79,-212 717.08,-212 786.64,-212"/>
<polygon fill="midnightblue" stroke="midnightblue" points="786.72,-215.5 796.72,-212 786.72,-208.5 786.72,-215.5"/>
</g>
<!-- Node11 -->
<g id="node11" class="node">
<title>Node11</title>
<g id="a_node11"><a xlink:href="../../d6/d90/a00514.html#aad197ab7ed2491b2ca581a9e4d68fd35" target="_top" xlink:title=" ">
<polygon fill="none" stroke="black" points="795.5,-117.5 795.5,-136.5 963.5,-136.5 963.5,-117.5 795.5,-117.5"/>
<text text-anchor="middle" x="879.5" y="-124.5" font-family="Helvetica,sans-Serif" font-size="10.00">com.cliffc.aa.HM.HM.T2.is_leaf</text>
</a>
</g>
</g>
<!-- Node5&#45;&gt;Node11 -->
<g id="edge13" class="edge">
<title>Node5&#45;&gt;Node11</title>
<path fill="none" stroke="midnightblue" d="M495.69,-202.36C514.5,-186.79 554.33,-156.61 594,-144 655.72,-124.38 728.7,-120.38 785.29,-121.16"/>
<polygon fill="midnightblue" stroke="midnightblue" points="785.24,-124.66 795.3,-121.35 785.37,-117.66 785.24,-124.66"/>
</g>
<!-- Node12 -->
<g id="node12" class="node">
<title>Node12</title>
<g id="a_node12"><a xlink:href="../../d6/d90/a00514.html#aeca37cb502364f8754a30e7d2ab69bea" target="_top" xlink:title=" ">
<polygon fill="none" stroke="black" points="603.5,-153 603.5,-183 747.5,-183 747.5,-153 603.5,-153"/>
<text text-anchor="start" x="611.5" y="-171" font-family="Helvetica,sans-Serif" font-size="10.00">com.cliffc.aa.HM.HM.T2.is</text>
<text text-anchor="middle" x="675.5" y="-160" font-family="Helvetica,sans-Serif" font-size="10.00">_struct</text>
</a>
</g>
</g>
<!-- Node5&#45;&gt;Node12 -->
<g id="edge14" class="edge">
<title>Node5&#45;&gt;Node12</title>
<path fill="none" stroke="midnightblue" d="M525.73,-202.45C547.31,-197.45 574.41,-191.18 599.55,-185.36"/>
<polygon fill="midnightblue" stroke="midnightblue" points="600.49,-188.73 609.45,-183.07 598.91,-181.91 600.49,-188.73"/>
</g>
<!-- Node13 -->
<g id="node13" class="node">
<title>Node13</title>
<g id="a_node13"><a xlink:href="../../d6/d90/a00514.html#a5a583637713ecacb740ff662677191f7" target="_top" xlink:title=" ">
<polygon fill="none" stroke="black" points="594,-76.5 594,-95.5 757,-95.5 757,-76.5 594,-76.5"/>
<text text-anchor="middle" x="675.5" y="-83.5" font-family="Helvetica,sans-Serif" font-size="10.00">com.cliffc.aa.HM.HM.T2.no_uf</text>
</a>
</g>
</g>
<!-- Node5&#45;&gt;Node13 -->
<g id="edge16" class="edge">
<title>Node5&#45;&gt;Node13</title>
<path fill="none" stroke="midnightblue" d="M492.19,-202.3C508.68,-182.12 549.58,-135.42 594,-110 601.9,-105.48 610.73,-101.73 619.58,-98.66"/>
<polygon fill="midnightblue" stroke="midnightblue" points="620.69,-101.98 629.13,-95.58 618.54,-95.32 620.69,-101.98"/>
</g>
<!-- Node15 -->
<g id="node15" class="node">
<title>Node15</title>
<g id="a_node15"><a xlink:href="../../d4/d3c/a01418.html#afee0e9392fca89140c42b4e6fdc00e6b" target="_top" xlink:title=" ">
<polygon fill="none" stroke="black" points="605,-38.5 605,-57.5 746,-57.5 746,-38.5 605,-38.5"/>
<text text-anchor="middle" x="675.5" y="-45.5" font-family="Helvetica,sans-Serif" font-size="10.00">com.cliffc.aa.type.Bits.str</text>
</a>
</g>
</g>
<!-- Node5&#45;&gt;Node15 -->
<g id="edge21" class="edge">
<title>Node5&#45;&gt;Node15</title>
<path fill="none" stroke="midnightblue" d="M488.81,-202.4C501.1,-176.16 539.04,-102.84 594,-67 597.13,-64.96 600.46,-63.13 603.91,-61.51"/>
<polygon fill="midnightblue" stroke="midnightblue" points="605.37,-64.69 613.28,-57.64 602.7,-58.22 605.37,-64.69"/>
</g>
<!-- Node16 -->
<g id="node16" class="node">
<title>Node16</title>
<g id="a_node16"><a xlink:href="../../df/dee/a01646.html#a88ad20daf92e92fe0e3925b23c4fecf0" target="_top" xlink:title=" ">
<polygon fill="none" stroke="black" points="596.5,-0.5 596.5,-19.5 754.5,-19.5 754.5,-0.5 596.5,-0.5"/>
<text text-anchor="middle" x="675.5" y="-7.5" font-family="Helvetica,sans-Serif" font-size="10.00">com.cliffc.aa.util.VBitSet.tset</text>
</a>
</g>
</g>
<!-- Node5&#45;&gt;Node16 -->
<g id="edge23" class="edge">
<title>Node5&#45;&gt;Node16</title>
<path fill="none" stroke="midnightblue" d="M487.34,-202.19C496.82,-171.33 530.36,-75.57 594,-29 596.67,-27.05 599.5,-25.3 602.46,-23.72"/>
<polygon fill="midnightblue" stroke="midnightblue" points="604,-26.86 611.62,-19.51 601.08,-20.5 604,-26.86"/>
</g>
<!-- Node17 -->
<g id="node17" class="node">
<title>Node17</title>
<g id="a_node17"><a xlink:href="../../d4/d99/a01634.html#a6536bbd3de1ca1c901e1cb9527dbf3db" target="_top" xlink:title=" ">
<polygon fill="none" stroke="black" points="601,-316.5 601,-335.5 750,-335.5 750,-316.5 601,-316.5"/>
<text text-anchor="middle" x="675.5" y="-323.5" font-family="Helvetica,sans-Serif" font-size="10.00">com.cliffc.aa.util.SB.unchar</text>
</a>
</g>
</g>
<!-- Node5&#45;&gt;Node17 -->
<g id="edge24" class="edge">
<title>Node5&#45;&gt;Node17</title>
<path fill="none" stroke="midnightblue" d="M493.51,-221.62C511.13,-239.87 552.07,-279.7 594,-302 602.5,-306.52 611.98,-310.31 621.36,-313.44"/>
<polygon fill="midnightblue" stroke="midnightblue" points="620.46,-316.83 631.05,-316.47 622.55,-310.15 620.46,-316.83"/>
</g>
<!-- Node7 -->
<g id="node7" class="node">
<title>Node7</title>
<g id="a_node7"><a xlink:href="../../d6/d90/a00514.html#a217cc5615d6b0620d9c6489b1a5b6e94" target="_top" xlink:title=" ">
<polygon fill="none" stroke="black" points="1002,-202.5 1002,-221.5 1152,-221.5 1152,-202.5 1002,-202.5"/>
<text text-anchor="middle" x="1077" y="-209.5" font-family="Helvetica,sans-Serif" font-size="10.00">com.cliffc.aa.HM.HM.T2.isa</text>
</a>
</g>
</g>
<!-- Node6&#45;&gt;Node7 -->
<g id="edge7" class="edge">
<title>Node6&#45;&gt;Node7</title>
<path fill="none" stroke="midnightblue" d="M933.57,-278.46C944.44,-275.88 955.71,-272.74 966,-269 996.82,-257.81 1029.94,-239.73 1051.69,-226.94"/>
<polygon fill="midnightblue" stroke="midnightblue" points="1053.76,-229.78 1060.56,-221.65 1050.18,-223.77 1053.76,-229.78"/>
</g>
<!-- Node8 -->
<g id="node8" class="node">
<title>Node8</title>
<g id="a_node8"><a xlink:href="../../dd/d55/a01638.html#a3975ba7dca9fe2d6e4992b2b5558f882" target="_top" xlink:title=" ">
<polygon fill="none" stroke="black" points="1188,-202.5 1188,-221.5 1321,-221.5 1321,-202.5 1188,-202.5"/>
<text text-anchor="middle" x="1254.5" y="-209.5" font-family="Helvetica,sans-Serif" font-size="10.00">com.cliffc.aa.util.Util.eq</text>
</a>
</g>
</g>
<!-- Node7&#45;&gt;Node8 -->
<g id="edge8" class="edge">
<title>Node7&#45;&gt;Node8</title>
<path fill="none" stroke="midnightblue" d="M1152.17,-212C1160.62,-212 1169.24,-212 1177.71,-212"/>
<polygon fill="midnightblue" stroke="midnightblue" points="1177.94,-215.5 1187.94,-212 1177.94,-208.5 1177.94,-215.5"/>
</g>
<!-- Node9&#45;&gt;Node7 -->
<g id="edge10" class="edge">
<title>Node9&#45;&gt;Node7</title>
<path fill="none" stroke="midnightblue" d="M929.58,-240.46C956.07,-235.31 988.97,-228.92 1016.87,-223.49"/>
<polygon fill="midnightblue" stroke="midnightblue" points="1017.75,-226.89 1026.9,-221.54 1016.42,-220.02 1017.75,-226.89"/>
</g>
<!-- Node10&#45;&gt;Node7 -->
<g id="edge12" class="edge">
<title>Node10&#45;&gt;Node7</title>
<path fill="none" stroke="midnightblue" d="M962.28,-212C971.98,-212 981.91,-212 991.65,-212"/>
<polygon fill="midnightblue" stroke="midnightblue" points="991.72,-215.5 1001.72,-212 991.72,-208.5 991.72,-215.5"/>
</g>
<!-- Node12&#45;&gt;Node7 -->
<g id="edge15" class="edge">
<title>Node12&#45;&gt;Node7</title>
<path fill="none" stroke="midnightblue" d="M747.77,-172.46C806.48,-176.54 891.83,-183.41 966,-193 982.39,-195.12 1000.08,-197.94 1016.37,-200.75"/>
<polygon fill="midnightblue" stroke="midnightblue" points="1015.85,-204.21 1026.31,-202.5 1017.06,-197.32 1015.85,-204.21"/>
</g>
<!-- Node13&#45;&gt;Node11 -->
<g id="edge17" class="edge">
<title>Node13&#45;&gt;Node11</title>
<path fill="none" stroke="midnightblue" d="M723.35,-95.51C752.69,-101.46 790.69,-109.18 821.74,-115.48"/>
<polygon fill="midnightblue" stroke="midnightblue" points="821.06,-118.91 831.55,-117.47 822.45,-112.05 821.06,-118.91"/>
</g>
<!-- Node14 -->
<g id="node14" class="node">
<title>Node14</title>
<g id="a_node14"><a xlink:href="../../d6/d90/a00514.html#a270703fb8c3193ce4203a956fa7fb8c8" target="_top" xlink:title=" ">
<polygon fill="none" stroke="black" points="807.5,-68 807.5,-98 951.5,-98 951.5,-68 807.5,-68"/>
<text text-anchor="start" x="815.5" y="-86" font-family="Helvetica,sans-Serif" font-size="10.00">com.cliffc.aa.HM.HM.T2.is</text>
<text text-anchor="middle" x="879.5" y="-75" font-family="Helvetica,sans-Serif" font-size="10.00">_nilable</text>
</a>
</g>
</g>
<!-- Node13&#45;&gt;Node14 -->
<g id="edge18" class="edge">
<title>Node13&#45;&gt;Node14</title>
<path fill="none" stroke="midnightblue" d="M757.21,-84.8C770.43,-84.61 784.14,-84.4 797.37,-84.2"/>
<polygon fill="midnightblue" stroke="midnightblue" points="797.43,-87.7 807.38,-84.06 797.33,-80.71 797.43,-87.7"/>
</g>
<!-- Node14&#45;&gt;Node7 -->
<g id="edge19" class="edge">
<title>Node14&#45;&gt;Node7</title>
<path fill="none" stroke="midnightblue" d="M944.46,-98.04C951.94,-100.85 959.29,-104.15 966,-108 1006.02,-130.96 1042.89,-171.35 1062.1,-194.45"/>
<polygon fill="midnightblue" stroke="midnightblue" points="1059.54,-196.85 1068.57,-202.39 1064.97,-192.43 1059.54,-196.85"/>
</g>
<!-- Node17&#45;&gt;Node17 -->
<g id="edge25" class="edge">
<title>Node17&#45;&gt;Node17</title>
<path fill="none" stroke="midnightblue" d="M645.91,-335.76C631.51,-344.57 641.38,-354 675.5,-354 699.49,-354 711.49,-349.34 711.5,-343.5"/>
<polygon fill="midnightblue" stroke="midnightblue" points="714.16,-341.23 705.09,-335.76 708.77,-345.69 714.16,-341.23"/>
</g>
</g>
</svg>
        <g id="navigator" transform="translate(0 0)" fill="#404254">
                <rect fill="#f2f5e9" fill-opacity="0.5" stroke="#606060" stroke-width=".5" x="0" y="0" width="60" height="60"/>
                <use id="zoomplus" xlink:href="#zoomPlus" x="17" y="9" onmousedown="handleZoom(evt,'in')"/>
                <use id="zoomminus" xlink:href="#zoomMin" x="42" y="9" onmousedown="handleZoom(evt,'out')"/>
                <use id="reset" xlink:href="#resetDef" x="30" y="36" onmousedown="handleReset()"/>
                <g id="arrowUp" xlink:href="#dirArrow" transform="translate(30 24)" onmousedown="handlePan(0,-1)">
                  <use xlink:href="#rim" fill="#404040">
                        <set attributeName="fill" to="#808080" begin="arrowUp.mouseover" end="arrowUp.mouseout"/>
                  </use>
                  <path fill="none" stroke="white" stroke-width="1.5" d="M0,-3.0v7 M-2.5,-0.5L0,-3.0L2.5,-0.5"/>
                </g>
                <g id="arrowRight" xlink:href="#dirArrow" transform="rotate(90) translate(36 -43)" onmousedown="handlePan(1,0)">
                  <use xlink:href="#rim" fill="#404040">
                        <set attributeName="fill" to="#808080" begin="arrowRight.mouseover" end="arrowRight.mouseout"/>
                  </use>
                  <path fill="none" stroke="white" stroke-width="1.5" d="M0,-3.0v7 M-2.5,-0.5L0,-3.0L2.5,-0.5"/>
                </g>
                <g id="arrowDown" xlink:href="#dirArrow" transform="rotate(180) translate(-30 -48)" onmousedown="handlePan(0,1)">
                  <use xlink:href="#rim" fill="#404040">
                        <set attributeName="fill" to="#808080" begin="arrowDown.mouseover" end="arrowDown.mouseout"/>
                  </use>
                  <path fill="none" stroke="white" stroke-width="1.5" d="M0,-3.0v7 M-2.5,-0.5L0,-3.0L2.5,-0.5"/>
                </g>
                <g id="arrowLeft" xlink:href="#dirArrow" transform="rotate(270) translate(-36 17)" onmousedown="handlePan(-1,0)">
                  <use xlink:href="#rim" fill="#404040">
                        <set attributeName="fill" to="#808080" begin="arrowLeft.mouseover" end="arrowLeft.mouseout"/>
                  </use>
                  <path fill="none" stroke="white" stroke-width="1.5" d="M0,-3.0v7 M-2.5,-0.5L0,-3.0L2.5,-0.5"/>
                </g>
        </g>
        <svg viewBox="0 0 15 15" width="100%" height="30px" preserveAspectRatio="xMaxYMin meet">
         <g id="arrow_out" transform="scale(0.3 0.3)">
          <a xlink:href="a00410_a54e28f10d6bc90c113d26ce45e6edf4f_cgraph_org.svg" target="_base">
           <rect id="button" ry="5" rx="5" y="6" x="6" height="38" width="38"
                fill="#f2f5e9" fill-opacity="0.5" stroke="#606060" stroke-width="1.0"/>
           <path id="arrow"
             d="M 11.500037,31.436501 C 11.940474,20.09759 22.043105,11.32322 32.158766,21.979434 L 37.068811,17.246167 C 37.068811,17.246167 37.088388,32 37.088388,32 L 22.160133,31.978069 C 22.160133,31.978069 26.997745,27.140456 26.997745,27.140456 C 18.528582,18.264221 13.291696,25.230495 11.500037,31.436501 z"
             style="fill:#404040;"/>
          </a>
         </g>
        </svg>
</svg>
