<?xml version="1.0" encoding="UTF-8" standalone="no"?>
<!DOCTYPE svg PUBLIC "-//W3C//DTD SVG 1.1//EN"
 "http://www.w3.org/Graphics/SVG/1.1/DTD/svg11.dtd">
<!-- Generated by graphviz version 2.43.0 (0)
 -->
<!-- Title: com.cliffc.aa.HM.HM4.Lambda.targ Pages: 1 -->
<svg width="808pt" height="65pt"
 viewBox="0.00 0.00 808.00 65.00" xmlns="http://www.w3.org/2000/svg" xmlns:xlink="http://www.w3.org/1999/xlink">
<g id="graph0" class="graph" transform="scale(1 1) rotate(0) translate(4 61)">
<title>com.cliffc.aa.HM.HM4.Lambda.targ</title>
<!-- Node1 -->
<g id="node1" class="node">
<title>Node1</title>
<g id="a_node1"><a xlink:title=" ">
<polygon fill="#bfbfbf" stroke="black" points="0,-19.5 0,-38.5 188,-38.5 188,-19.5 0,-19.5"/>
<text text-anchor="middle" x="94" y="-26.5" font-family="Helvetica,sans-Serif" font-size="10.00">com.cliffc.aa.HM.HM4.Lambda.targ</text>
</a>
</g>
</g>
<!-- Node1&#45;&gt;Node1 -->
<g id="edge5" class="edge">
<title>Node1&#45;&gt;Node1</title>
<path fill="none" stroke="midnightblue" d="M61.89,-38.61C45.77,-47.46 56.47,-57 94,-57 121.56,-57 134.65,-51.86 133.28,-45.62"/>
<polygon fill="midnightblue" stroke="midnightblue" points="135.7,-43.1 126.11,-38.61 130.81,-48.1 135.7,-43.1"/>
</g>
<!-- Node2 -->
<g id="node2" class="node">
<title>Node2</title>
<g id="a_node2"><a xlink:href="../../df/d9e/a00686.html#a249fbf86044afba4570c9e758ee05b40" target="_top" xlink:title=" ">
<polygon fill="none" stroke="black" points="224,-19.5 224,-38.5 384,-38.5 384,-19.5 224,-19.5"/>
<text text-anchor="middle" x="304" y="-26.5" font-family="Helvetica,sans-Serif" font-size="10.00">com.cliffc.aa.HM.HM4.T2.find</text>
</a>
</g>
</g>
<!-- Node1&#45;&gt;Node2 -->
<g id="edge1" class="edge">
<title>Node1&#45;&gt;Node2</title>
<path fill="none" stroke="midnightblue" d="M188.05,-29C196.51,-29 205.06,-29 213.49,-29"/>
<polygon fill="midnightblue" stroke="midnightblue" points="213.69,-32.5 223.69,-29 213.69,-25.5 213.69,-32.5"/>
</g>
<!-- Node3 -->
<g id="node3" class="node">
<title>Node3</title>
<g id="a_node3"><a xlink:href="../../df/d9e/a00686.html#aa3993197ada45847bc991266dc485460" target="_top" xlink:title=" ">
<polygon fill="none" stroke="black" points="625,-19.5 625,-38.5 800,-38.5 800,-19.5 625,-19.5"/>
<text text-anchor="middle" x="712.5" y="-26.5" font-family="Helvetica,sans-Serif" font-size="10.00">com.cliffc.aa.HM.HM4.T2.is_tvar</text>
</a>
</g>
</g>
<!-- Node2&#45;&gt;Node3 -->
<g id="edge2" class="edge">
<title>Node2&#45;&gt;Node3</title>
<path fill="none" stroke="midnightblue" d="M384.34,-29C450.3,-29 544.41,-29 614.77,-29"/>
<polygon fill="midnightblue" stroke="midnightblue" points="614.97,-32.5 624.97,-29 614.97,-25.5 614.97,-32.5"/>
</g>
<!-- Node4 -->
<g id="node4" class="node">
<title>Node4</title>
<g id="a_node4"><a xlink:href="../../df/d9e/a00686.html#a80738ac3035f8e19e99947806cc011c5" target="_top" xlink:title=" ">
<polygon fill="none" stroke="black" points="420,-0.5 420,-19.5 589,-19.5 589,-0.5 420,-0.5"/>
<text text-anchor="middle" x="504.5" y="-7.5" font-family="Helvetica,sans-Serif" font-size="10.00">com.cliffc.aa.HM.HM4.T2.no_uf</text>
</a>
</g>
</g>
<!-- Node2&#45;&gt;Node4 -->
<g id="edge3" class="edge">
<title>Node2&#45;&gt;Node4</title>
<path fill="none" stroke="midnightblue" d="M384.02,-21.44C392.49,-20.63 401.17,-19.79 409.79,-18.97"/>
<polygon fill="midnightblue" stroke="midnightblue" points="410.24,-22.44 419.87,-18.01 409.58,-15.47 410.24,-22.44"/>
</g>
<!-- Node4&#45;&gt;Node3 -->
<g id="edge4" class="edge">
<title>Node4&#45;&gt;Node3</title>
<path fill="none" stroke="midnightblue" d="M589.29,-17.73C597.69,-18.5 606.28,-19.3 614.8,-20.08"/>
<polygon fill="midnightblue" stroke="midnightblue" points="614.49,-23.57 624.77,-21 615.14,-16.6 614.49,-23.57"/>
</g>
</g>
</svg>
