<?xml version="1.0" encoding="UTF-8" standalone="no"?>
<!DOCTYPE svg PUBLIC "-//W3C//DTD SVG 1.1//EN"
 "http://www.w3.org/Graphics/SVG/1.1/DTD/svg11.dtd">
<!-- Generated by graphviz version 2.43.0 (0)
 -->
<!-- Title: com.cliffc.aa.HM.HM7.T2.str Pages: 1 -->
<!--zoomable 280 -->
<svg id="main" version="1.1" xmlns="http://www.w3.org/2000/svg" xmlns:xlink="http://www.w3.org/1999/xlink" xml:space="preserve" onload="init(evt)">
<style type="text/css"><![CDATA[
.edge:hover path { stroke: red; }
.edge:hover polygon { stroke: red; fill: red; }
]]></style>
<script type="text/javascript"><![CDATA[
var edges = document.getElementsByTagName('g');
if (edges && edges.length) {
  for (var i=0;i<edges.length;i++) {
    if (edges[i].id.substr(0,4)=='edge') {
      edges[i].setAttribute('class','edge');
    }
  }
}
]]></script>
        <defs>
                <circle id="rim" cx="0" cy="0" r="7"/>
                <circle id="rim2" cx="0" cy="0" r="3.5"/>
                <g id="zoomPlus">
                        <use xlink:href="#rim" fill="#404040">
                                <set attributeName="fill" to="#808080" begin="zoomplus.mouseover" end="zoomplus.mouseout"/>
                        </use>
                        <path d="M-4,0h8M0,-4v8" fill="none" stroke="white" stroke-width="1.5" pointer-events="none"/>
                </g>
                <g id="zoomMin">
                        <use xlink:href="#rim" fill="#404040">
                                <set attributeName="fill" to="#808080" begin="zoomminus.mouseover" end="zoomminus.mouseout"/>
                        </use>
                        <path d="M-4,0h8" fill="none" stroke="white" stroke-width="1.5" pointer-events="none"/>
                </g>
                <g id="dirArrow">
                        <path fill="none" stroke="white" stroke-width="1.5" d="M0,-3.0v7 M-2.5,-0.5L0,-3.0L2.5,-0.5"/>
                </g>
               <g id="resetDef">
                       <use xlink:href="#rim2" fill="#404040">
                               <set attributeName="fill" to="#808080" begin="reset.mouseover" end="reset.mouseout"/>
                       </use>
               </g>
        </defs>

<script type="text/javascript">
var viewWidth = 592;
var viewHeight = 280;
var sectionId = 'dynsection-90';
</script>
<script xlink:href="../../svgpan.js"/>
<svg id="graph" class="graph">
<g id="viewport">
<title>com.cliffc.aa.HM.HM7.T2.str</title>
<!-- Node1 -->
<g id="node1" class="node">
<title>Node1</title>
<g id="a_node1"><a xlink:title=" ">
<polygon fill="#bfbfbf" stroke="black" points="429,-50 429,-69 584,-69 584,-50 429,-50"/>
<text text-anchor="middle" x="506.5" y="-57" font-family="Helvetica,sans-Serif" font-size="10.00">com.cliffc.aa.HM.HM7.T2.str</text>
</a>
</g>
</g>
<!-- Node1&#45;&gt;Node1 -->
<g id="edge11" class="edge">
<title>Node1&#45;&gt;Node1</title>
<path fill="none" stroke="midnightblue" d="M544,-77C543.99,-82.84 531.49,-87.5 506.5,-87.5 470.95,-87.5 460.68,-78.07 475.67,-69.26"/>
<polygon fill="midnightblue" stroke="midnightblue" points="546.5,-74.55 537.33,-69.26 541.2,-79.12 546.5,-74.55"/>
</g>
<!-- Node2 -->
<g id="node2" class="node">
<title>Node2</title>
<g id="a_node2"><a xlink:href="../../d5/dcd/a00802.html#afb5b615a1c5e1d4e89fd09997dc3e497" target="_top" xlink:title=" ">
<polygon fill="none" stroke="black" points="217,-138 217,-157 393,-157 393,-138 217,-138"/>
<text text-anchor="middle" x="305" y="-145" font-family="Helvetica,sans-Serif" font-size="10.00">com.cliffc.aa.HM.HM7.Syntax.p0</text>
</a>
</g>
</g>
<!-- Node1&#45;&gt;Node2 -->
<g id="edge1" class="edge">
<title>Node1&#45;&gt;Node2</title>
<path fill="none" stroke="midnightblue" d="M474.58,-73.14C433.84,-91.11 363.21,-122.26 327.7,-137.93"/>
<polygon fill="midnightblue" stroke="midnightblue" points="476.03,-76.32 483.77,-69.09 473.21,-69.92 476.03,-76.32"/>
</g>
<!-- Node9 -->
<g id="node9" class="node">
<title>Node9</title>
<g id="a_node9"><a xlink:href="../../d5/d12/a00794.html#a68fd6d793c9a3530d916ac873880e565" target="_top" xlink:title=" ">
<polygon fill="none" stroke="black" points="217,-50 217,-69 393,-69 393,-50 217,-50"/>
<text text-anchor="middle" x="305" y="-57" font-family="Helvetica,sans-Serif" font-size="10.00">com.cliffc.aa.HM.HM7.VStack.str</text>
</a>
</g>
</g>
<!-- Node1&#45;&gt;Node9 -->
<g id="edge8" class="edge">
<title>Node1&#45;&gt;Node9</title>
<path fill="none" stroke="midnightblue" d="M418.93,-59.5C410.33,-59.5 401.6,-59.5 393,-59.5"/>
<polygon fill="midnightblue" stroke="midnightblue" points="418.94,-63 428.94,-59.5 418.94,-56 418.94,-63"/>
</g>
<!-- Node11 -->
<g id="node11" class="node">
<title>Node11</title>
<g id="a_node11"><a xlink:href="../../d9/d02/a00834.html#a24c8644b9a341ce2f5b96c33ed8f0e0a" target="_top" xlink:title=" ">
<polygon fill="none" stroke="black" points="229,-0.5 229,-30.5 381,-30.5 381,-0.5 229,-0.5"/>
<text text-anchor="start" x="237" y="-18.5" font-family="Helvetica,sans-Serif" font-size="10.00">com.cliffc.aa.HM.HM7.T2.to</text>
<text text-anchor="middle" x="305" y="-7.5" font-family="Helvetica,sans-Serif" font-size="10.00">String</text>
</a>
</g>
</g>
<!-- Node1&#45;&gt;Node11 -->
<g id="edge12" class="edge">
<title>Node1&#45;&gt;Node11</title>
<path fill="none" stroke="midnightblue" d="M452.26,-47.76C428.33,-42.48 399.79,-36.19 374.31,-30.57"/>
<polygon fill="midnightblue" stroke="midnightblue" points="451.69,-51.22 462.21,-49.95 453.2,-44.38 451.69,-51.22"/>
</g>
<!-- Node3 -->
<g id="node3" class="node">
<title>Node3</title>
<g id="a_node3"><a xlink:href="../../d5/dcd/a00802.html#a96afd73a0ea3b6145cdc963603a3c9b3" target="_top" xlink:title=" ">
<polygon fill="none" stroke="black" points="5.5,-252 5.5,-271 175.5,-271 175.5,-252 5.5,-252"/>
<text text-anchor="middle" x="90.5" y="-259" font-family="Helvetica,sans-Serif" font-size="10.00">com.cliffc.aa.HM.HM7.Syntax.p</text>
</a>
</g>
</g>
<!-- Node2&#45;&gt;Node3 -->
<g id="edge2" class="edge">
<title>Node2&#45;&gt;Node3</title>
<path fill="none" stroke="midnightblue" d="M287.55,-164.22C265.39,-185.74 223.75,-222.72 181,-242.5 172.64,-246.37 163.47,-249.46 154.29,-251.93"/>
<polygon fill="midnightblue" stroke="midnightblue" points="290.16,-166.57 294.81,-157.05 285.23,-161.59 290.16,-166.57"/>
</g>
<!-- Node4 -->
<g id="node4" class="node">
<title>Node4</title>
<g id="a_node4"><a xlink:href="../../da/d71/a00814.html#a7f938779d34f62254f32f401b994a575" target="_top" xlink:title=" ">
<polygon fill="none" stroke="black" points="0,-214 0,-233 181,-233 181,-214 0,-214"/>
<text text-anchor="middle" x="90.5" y="-221" font-family="Helvetica,sans-Serif" font-size="10.00">com.cliffc.aa.HM.HM7.Lambda.p2</text>
</a>
</g>
</g>
<!-- Node2&#45;&gt;Node4 -->
<g id="edge3" class="edge">
<title>Node2&#45;&gt;Node4</title>
<path fill="none" stroke="midnightblue" d="M277.59,-161.86C253.15,-174.63 215.5,-193.01 181,-204.5 169.85,-208.22 157.66,-211.37 145.98,-213.98"/>
<polygon fill="midnightblue" stroke="midnightblue" points="279.38,-164.87 286.59,-157.1 276.11,-158.68 279.38,-164.87"/>
</g>
<!-- Node5 -->
<g id="node5" class="node">
<title>Node5</title>
<g id="a_node5"><a xlink:href="../../d3/d60/a00818.html#a4d65517654b747f0a3786e3401c6a113" target="_top" xlink:title=" ">
<polygon fill="none" stroke="black" points="12,-176 12,-195 169,-195 169,-176 12,-176"/>
<text text-anchor="middle" x="90.5" y="-183" font-family="Helvetica,sans-Serif" font-size="10.00">com.cliffc.aa.HM.HM7.Let.p2</text>
</a>
</g>
</g>
<!-- Node2&#45;&gt;Node5 -->
<g id="edge4" class="edge">
<title>Node2&#45;&gt;Node5</title>
<path fill="none" stroke="midnightblue" d="M240.55,-158.85C210.06,-164.3 173.92,-170.76 144.87,-175.96"/>
<polygon fill="midnightblue" stroke="midnightblue" points="241.42,-162.25 250.65,-157.04 240.19,-155.36 241.42,-162.25"/>
</g>
<!-- Node6 -->
<g id="node6" class="node">
<title>Node6</title>
<g id="a_node6"><a xlink:href="../../d6/da7/a00822.html#adc4aa40e31da41165fc2660c80c41e54" target="_top" xlink:title=" ">
<polygon fill="none" stroke="black" points="6.5,-138 6.5,-157 174.5,-157 174.5,-138 6.5,-138"/>
<text text-anchor="middle" x="90.5" y="-145" font-family="Helvetica,sans-Serif" font-size="10.00">com.cliffc.aa.HM.HM7.Apply.p2</text>
</a>
</g>
</g>
<!-- Node2&#45;&gt;Node6 -->
<g id="edge5" class="edge">
<title>Node2&#45;&gt;Node6</title>
<path fill="none" stroke="midnightblue" d="M206.73,-147.5C196.01,-147.5 185.17,-147.5 174.64,-147.5"/>
<polygon fill="midnightblue" stroke="midnightblue" points="206.96,-151 216.95,-147.5 206.95,-144 206.96,-151"/>
</g>
<!-- Node7 -->
<g id="node7" class="node">
<title>Node7</title>
<g id="a_node7"><a xlink:href="../../da/d90/a00826.html#a637773000885f6a91f7615c5ef2fa663" target="_top" xlink:title=" ">
<polygon fill="none" stroke="black" points="5.5,-100 5.5,-119 175.5,-119 175.5,-100 5.5,-100"/>
<text text-anchor="middle" x="90.5" y="-107" font-family="Helvetica,sans-Serif" font-size="10.00">com.cliffc.aa.HM.HM7.Struct.p2</text>
</a>
</g>
</g>
<!-- Node2&#45;&gt;Node7 -->
<g id="edge6" class="edge">
<title>Node2&#45;&gt;Node7</title>
<path fill="none" stroke="midnightblue" d="M240.55,-136.15C210.06,-130.7 173.92,-124.24 144.87,-119.04"/>
<polygon fill="midnightblue" stroke="midnightblue" points="240.19,-139.64 250.65,-137.96 241.42,-132.75 240.19,-139.64"/>
</g>
<!-- Node8 -->
<g id="node8" class="node">
<title>Node8</title>
<g id="a_node8"><a xlink:href="../../d9/daf/a00830.html#ad973b0ec1b7eba72155e4e510b10d1ce" target="_top" xlink:title=" ">
<polygon fill="none" stroke="black" points="8,-62 8,-81 173,-81 173,-62 8,-62"/>
<text text-anchor="middle" x="90.5" y="-69" font-family="Helvetica,sans-Serif" font-size="10.00">com.cliffc.aa.HM.HM7.Field.p2</text>
</a>
</g>
</g>
<!-- Node2&#45;&gt;Node8 -->
<g id="edge7" class="edge">
<title>Node2&#45;&gt;Node8</title>
<path fill="none" stroke="midnightblue" d="M277.59,-133.14C253.15,-120.37 215.5,-101.99 181,-90.5 169.85,-86.78 157.66,-83.63 145.98,-81.02"/>
<polygon fill="midnightblue" stroke="midnightblue" points="276.11,-136.32 286.59,-137.9 279.38,-130.13 276.11,-136.32"/>
</g>
<!-- Node9&#45;&gt;Node9 -->
<g id="edge9" class="edge">
<title>Node9&#45;&gt;Node9</title>
<path fill="none" stroke="midnightblue" d="M342.5,-77C342.49,-82.84 329.99,-87.5 305,-87.5 269.45,-87.5 259.18,-78.07 274.17,-69.26"/>
<polygon fill="midnightblue" stroke="midnightblue" points="345,-74.55 335.83,-69.26 339.7,-79.12 345,-74.55"/>
</g>
<!-- Node10 -->
<g id="node10" class="node">
<title>Node10</title>
<g id="a_node10"><a xlink:href="../../d5/d12/a00794.html#a4bebef0dd26a80629202526a1f44c4d7" target="_top" xlink:title=" ">
<polygon fill="none" stroke="black" points="4,-12.5 4,-42.5 177,-42.5 177,-12.5 4,-12.5"/>
<text text-anchor="start" x="12" y="-30.5" font-family="Helvetica,sans-Serif" font-size="10.00">com.cliffc.aa.HM.HM7.VStack.to</text>
<text text-anchor="middle" x="90.5" y="-19.5" font-family="Helvetica,sans-Serif" font-size="10.00">String</text>
</a>
</g>
</g>
<!-- Node9&#45;&gt;Node10 -->
<g id="edge10" class="edge">
<title>Node9&#45;&gt;Node10</title>
<path fill="none" stroke="midnightblue" d="M230.82,-48.48C213.56,-45.88 195.01,-43.09 177.26,-40.41"/>
<polygon fill="midnightblue" stroke="midnightblue" points="230.41,-51.96 240.82,-49.99 231.45,-45.04 230.41,-51.96"/>
</g>
</g>
</svg>
        <g id="navigator" transform="translate(0 0)" fill="#404254">
                <rect fill="#f2f5e9" fill-opacity="0.5" stroke="#606060" stroke-width=".5" x="0" y="0" width="60" height="60"/>
                <use id="zoomplus" xlink:href="#zoomPlus" x="17" y="9" onmousedown="handleZoom(evt,'in')"/>
                <use id="zoomminus" xlink:href="#zoomMin" x="42" y="9" onmousedown="handleZoom(evt,'out')"/>
                <use id="reset" xlink:href="#resetDef" x="30" y="36" onmousedown="handleReset()"/>
                <g id="arrowUp" xlink:href="#dirArrow" transform="translate(30 24)" onmousedown="handlePan(0,-1)">
                  <use xlink:href="#rim" fill="#404040">
                        <set attributeName="fill" to="#808080" begin="arrowUp.mouseover" end="arrowUp.mouseout"/>
                  </use>
                  <path fill="none" stroke="white" stroke-width="1.5" d="M0,-3.0v7 M-2.5,-0.5L0,-3.0L2.5,-0.5"/>
                </g>
                <g id="arrowRight" xlink:href="#dirArrow" transform="rotate(90) translate(36 -43)" onmousedown="handlePan(1,0)">
                  <use xlink:href="#rim" fill="#404040">
                        <set attributeName="fill" to="#808080" begin="arrowRight.mouseover" end="arrowRight.mouseout"/>
                  </use>
                  <path fill="none" stroke="white" stroke-width="1.5" d="M0,-3.0v7 M-2.5,-0.5L0,-3.0L2.5,-0.5"/>
                </g>
                <g id="arrowDown" xlink:href="#dirArrow" transform="rotate(180) translate(-30 -48)" onmousedown="handlePan(0,1)">
                  <use xlink:href="#rim" fill="#404040">
                        <set attributeName="fill" to="#808080" begin="arrowDown.mouseover" end="arrowDown.mouseout"/>
                  </use>
                  <path fill="none" stroke="white" stroke-width="1.5" d="M0,-3.0v7 M-2.5,-0.5L0,-3.0L2.5,-0.5"/>
                </g>
                <g id="arrowLeft" xlink:href="#dirArrow" transform="rotate(270) translate(-36 17)" onmousedown="handlePan(-1,0)">
                  <use xlink:href="#rim" fill="#404040">
                        <set attributeName="fill" to="#808080" begin="arrowLeft.mouseover" end="arrowLeft.mouseout"/>
                  </use>
                  <path fill="none" stroke="white" stroke-width="1.5" d="M0,-3.0v7 M-2.5,-0.5L0,-3.0L2.5,-0.5"/>
                </g>
        </g>
        <svg viewBox="0 0 15 15" width="100%" height="30px" preserveAspectRatio="xMaxYMin meet">
         <g id="arrow_out" transform="scale(0.3 0.3)">
          <a xlink:href="a00834_abfdc645d28a6124cb4e5b2926dfe0739_icgraph_org.svg" target="_base">
           <rect id="button" ry="5" rx="5" y="6" x="6" height="38" width="38"
                fill="#f2f5e9" fill-opacity="0.5" stroke="#606060" stroke-width="1.0"/>
           <path id="arrow"
             d="M 11.500037,31.436501 C 11.940474,20.09759 22.043105,11.32322 32.158766,21.979434 L 37.068811,17.246167 C 37.068811,17.246167 37.088388,32 37.088388,32 L 22.160133,31.978069 C 22.160133,31.978069 26.997745,27.140456 26.997745,27.140456 C 18.528582,18.264221 13.291696,25.230495 11.500037,31.436501 z"
             style="fill:#404040;"/>
          </a>
         </g>
        </svg>
</svg>
