<?xml version="1.0" encoding="UTF-8" standalone="no"?>
<!DOCTYPE svg PUBLIC "-//W3C//DTD SVG 1.1//EN"
 "http://www.w3.org/Graphics/SVG/1.1/DTD/svg11.dtd">
<!-- Generated by graphviz version 2.43.0 (0)
 -->
<!-- Title: com.cliffc.aa.HM.HM7.T2.push_update Pages: 1 -->
<svg width="1545pt" height="104pt"
 viewBox="0.00 0.00 1545.00 104.00" xmlns="http://www.w3.org/2000/svg" xmlns:xlink="http://www.w3.org/1999/xlink">
<g id="graph0" class="graph" transform="scale(1 1) rotate(0) translate(4 100)">
<title>com.cliffc.aa.HM.HM7.T2.push_update</title>
<!-- Node1 -->
<g id="node1" class="node">
<title>Node1</title>
<g id="a_node1"><a xlink:title=" ">
<polygon fill="#bfbfbf" stroke="black" points="0,-33 0,-63 165,-63 165,-33 0,-33"/>
<text text-anchor="start" x="8" y="-51" font-family="Helvetica,sans-Serif" font-size="10.00">com.cliffc.aa.HM.HM7.T2.push</text>
<text text-anchor="middle" x="82.5" y="-40" font-family="Helvetica,sans-Serif" font-size="10.00">_update</text>
</a>
</g>
</g>
<!-- Node2 -->
<g id="node2" class="node">
<title>Node2</title>
<g id="a_node2"><a xlink:href="../../d9/d02/a00834.html#afb739e9addcaf0965ef5c13bcf26f762" target="_top" xlink:title=" ">
<polygon fill="none" stroke="black" points="201,-33 201,-63 366,-63 366,-33 201,-33"/>
<text text-anchor="start" x="209" y="-51" font-family="Helvetica,sans-Serif" font-size="10.00">com.cliffc.aa.HM.HM7.T2.push</text>
<text text-anchor="middle" x="283.5" y="-40" font-family="Helvetica,sans-Serif" font-size="10.00">_update_impl</text>
</a>
</g>
</g>
<!-- Node1&#45;&gt;Node2 -->
<g id="edge1" class="edge">
<title>Node1&#45;&gt;Node2</title>
<path fill="none" stroke="midnightblue" d="M165.02,-48C173.5,-48 182.17,-48 190.76,-48"/>
<polygon fill="midnightblue" stroke="midnightblue" points="190.79,-51.5 200.79,-48 190.79,-44.5 190.79,-51.5"/>
</g>
<!-- Node2&#45;&gt;Node2 -->
<g id="edge10" class="edge">
<title>Node2&#45;&gt;Node2</title>
<path fill="none" stroke="midnightblue" d="M248.65,-63.16C240.24,-72.56 251.86,-81.5 283.5,-81.5 302.78,-81.5 314.63,-78.18 319.04,-73.46"/>
<polygon fill="midnightblue" stroke="midnightblue" points="322.51,-72.91 318.35,-63.16 315.52,-73.37 322.51,-72.91"/>
</g>
<!-- Node3 -->
<g id="node3" class="node">
<title>Node3</title>
<g id="a_node3"><a xlink:href="../../d9/d02/a00834.html#ace8c0dea9eacc0627930c0d35d865712" target="_top" xlink:title=" ">
<polygon fill="none" stroke="black" points="402,-76.5 402,-95.5 565,-95.5 565,-76.5 402,-76.5"/>
<text text-anchor="middle" x="483.5" y="-83.5" font-family="Helvetica,sans-Serif" font-size="10.00">com.cliffc.aa.HM.HM7.T2.args</text>
</a>
</g>
</g>
<!-- Node2&#45;&gt;Node3 -->
<g id="edge2" class="edge">
<title>Node2&#45;&gt;Node3</title>
<path fill="none" stroke="midnightblue" d="M362.75,-63.02C382.82,-66.87 404.08,-70.95 423.02,-74.59"/>
<polygon fill="midnightblue" stroke="midnightblue" points="422.51,-78.05 433,-76.5 423.83,-71.18 422.51,-78.05"/>
</g>
<!-- Node8 -->
<g id="node8" class="node">
<title>Node8</title>
<g id="a_node8"><a xlink:href="../../d9/d02/a00834.html#a11a0879ef2674dd9fb3f9a1be59d3084" target="_top" xlink:title=" ">
<polygon fill="none" stroke="black" points="797,-38.5 797,-57.5 966,-57.5 966,-38.5 797,-38.5"/>
<text text-anchor="middle" x="881.5" y="-45.5" font-family="Helvetica,sans-Serif" font-size="10.00">com.cliffc.aa.HM.HM7.T2.no_uf</text>
</a>
</g>
</g>
<!-- Node2&#45;&gt;Node8 -->
<g id="edge9" class="edge">
<title>Node2&#45;&gt;Node8</title>
<path fill="none" stroke="midnightblue" d="M366.12,-48C475.98,-48 670.97,-48 786.73,-48"/>
<polygon fill="midnightblue" stroke="midnightblue" points="786.99,-51.5 796.99,-48 786.99,-44.5 786.99,-51.5"/>
</g>
<!-- Node9 -->
<g id="node9" class="node">
<title>Node9</title>
<g id="a_node9"><a xlink:href="../../df/dee/a01646.html#a88ad20daf92e92fe0e3925b23c4fecf0" target="_top" xlink:title=" ">
<polygon fill="none" stroke="black" points="404.5,-0.5 404.5,-19.5 562.5,-19.5 562.5,-0.5 404.5,-0.5"/>
<text text-anchor="middle" x="483.5" y="-7.5" font-family="Helvetica,sans-Serif" font-size="10.00">com.cliffc.aa.util.VBitSet.tset</text>
</a>
</g>
</g>
<!-- Node2&#45;&gt;Node9 -->
<g id="edge11" class="edge">
<title>Node2&#45;&gt;Node9</title>
<path fill="none" stroke="midnightblue" d="M362.75,-32.98C382.82,-29.13 404.08,-25.05 423.02,-21.41"/>
<polygon fill="midnightblue" stroke="midnightblue" points="423.83,-24.82 433,-19.5 422.51,-17.95 423.83,-24.82"/>
</g>
<!-- Node4 -->
<g id="node4" class="node">
<title>Node4</title>
<g id="a_node4"><a xlink:href="../../d9/d02/a00834.html#ae2138b8d9d5860eda7513092126ba601" target="_top" xlink:title=" ">
<polygon fill="none" stroke="black" points="601,-76.5 601,-95.5 761,-95.5 761,-76.5 601,-76.5"/>
<text text-anchor="middle" x="681" y="-83.5" font-family="Helvetica,sans-Serif" font-size="10.00">com.cliffc.aa.HM.HM7.T2.find</text>
</a>
</g>
</g>
<!-- Node3&#45;&gt;Node4 -->
<g id="edge3" class="edge">
<title>Node3&#45;&gt;Node4</title>
<path fill="none" stroke="midnightblue" d="M565.15,-86C573.52,-86 582.07,-86 590.53,-86"/>
<polygon fill="midnightblue" stroke="midnightblue" points="590.8,-89.5 600.8,-86 590.8,-82.5 590.8,-89.5"/>
</g>
<!-- Node5 -->
<g id="node5" class="node">
<title>Node5</title>
<g id="a_node5"><a xlink:href="../../d9/d02/a00834.html#aebfcad4f2e406516eef7fd39a6803752" target="_top" xlink:title=" ">
<polygon fill="none" stroke="black" points="1002,-57.5 1002,-76.5 1176,-76.5 1176,-57.5 1002,-57.5"/>
<text text-anchor="middle" x="1089" y="-64.5" font-family="Helvetica,sans-Serif" font-size="10.00">com.cliffc.aa.HM.HM7.T2.is_leaf</text>
</a>
</g>
</g>
<!-- Node4&#45;&gt;Node5 -->
<g id="edge4" class="edge">
<title>Node4&#45;&gt;Node5</title>
<path fill="none" stroke="midnightblue" d="M761.24,-82.29C827.23,-79.2 921.43,-74.8 991.74,-71.5"/>
<polygon fill="midnightblue" stroke="midnightblue" points="992.11,-74.99 1001.94,-71.03 991.78,-68 992.11,-74.99"/>
</g>
<!-- Node4&#45;&gt;Node8 -->
<g id="edge7" class="edge">
<title>Node4&#45;&gt;Node8</title>
<path fill="none" stroke="midnightblue" d="M731.83,-76.46C758.73,-71.31 792.14,-64.92 820.46,-59.49"/>
<polygon fill="midnightblue" stroke="midnightblue" points="821.48,-62.86 830.65,-57.54 820.17,-55.99 821.48,-62.86"/>
</g>
<!-- Node6 -->
<g id="node6" class="node">
<title>Node6</title>
<g id="a_node6"><a xlink:href="../../d9/d02/a00834.html#a1646dbd4ae347d254550074fb9dd89ac" target="_top" xlink:title=" ">
<polygon fill="none" stroke="black" points="1212,-57.5 1212,-76.5 1368,-76.5 1368,-57.5 1212,-57.5"/>
<text text-anchor="middle" x="1290" y="-64.5" font-family="Helvetica,sans-Serif" font-size="10.00">com.cliffc.aa.HM.HM7.T2.isa</text>
</a>
</g>
</g>
<!-- Node5&#45;&gt;Node6 -->
<g id="edge5" class="edge">
<title>Node5&#45;&gt;Node6</title>
<path fill="none" stroke="midnightblue" d="M1176.13,-67C1184.57,-67 1193.14,-67 1201.59,-67"/>
<polygon fill="midnightblue" stroke="midnightblue" points="1201.82,-70.5 1211.82,-67 1201.82,-63.5 1201.82,-70.5"/>
</g>
<!-- Node7 -->
<g id="node7" class="node">
<title>Node7</title>
<g id="a_node7"><a xlink:href="../../dd/d55/a01638.html#a3975ba7dca9fe2d6e4992b2b5558f882" target="_top" xlink:title=" ">
<polygon fill="none" stroke="black" points="1404,-57.5 1404,-76.5 1537,-76.5 1537,-57.5 1404,-57.5"/>
<text text-anchor="middle" x="1470.5" y="-64.5" font-family="Helvetica,sans-Serif" font-size="10.00">com.cliffc.aa.util.Util.eq</text>
</a>
</g>
</g>
<!-- Node6&#45;&gt;Node7 -->
<g id="edge6" class="edge">
<title>Node6&#45;&gt;Node7</title>
<path fill="none" stroke="midnightblue" d="M1368.25,-67C1376.69,-67 1385.28,-67 1393.7,-67"/>
<polygon fill="midnightblue" stroke="midnightblue" points="1393.87,-70.5 1403.87,-67 1393.87,-63.5 1393.87,-70.5"/>
</g>
<!-- Node8&#45;&gt;Node5 -->
<g id="edge8" class="edge">
<title>Node8&#45;&gt;Node5</title>
<path fill="none" stroke="midnightblue" d="M966.08,-55.73C974.55,-56.51 983.2,-57.31 991.78,-58.1"/>
<polygon fill="midnightblue" stroke="midnightblue" points="991.54,-61.6 1001.82,-59.03 992.18,-54.63 991.54,-61.6"/>
</g>
</g>
</svg>
