<?xml version="1.0" encoding="UTF-8" standalone="no"?>
<!DOCTYPE svg PUBLIC "-//W3C//DTD SVG 1.1//EN"
 "http://www.w3.org/Graphics/SVG/1.1/DTD/svg11.dtd">
<!-- Generated by graphviz version 2.43.0 (0)
 -->
<!-- Title: com.cliffc.aa.HM.HM7.T2.make_nil Pages: 1 -->
<svg width="638pt" height="1244pt"
 viewBox="0.00 0.00 638.00 1244.00" xmlns="http://www.w3.org/2000/svg" xmlns:xlink="http://www.w3.org/1999/xlink">
<g id="graph0" class="graph" transform="scale(1 1) rotate(0) translate(4 1240)">
<title>com.cliffc.aa.HM.HM7.T2.make_nil</title>
<!-- Node1 -->
<g id="node1" class="node">
<title>Node1</title>
<g id="a_node1"><a xlink:title=" ">
<polygon fill="#bfbfbf" stroke="black" points="444,-589.5 444,-608.5 630,-608.5 630,-589.5 444,-589.5"/>
<text text-anchor="middle" x="537" y="-596.5" font-family="Helvetica,sans-Serif" font-size="10.00">com.cliffc.aa.HM.HM7.T2.make_nil</text>
</a>
</g>
</g>
<!-- Node2 -->
<g id="node2" class="node">
<title>Node2</title>
<g id="a_node2"><a xlink:href="../../d0/d7d/a00786.html#adbb9bcb85c715b7aabb22581327c06d3" target="_top" xlink:title=" ">
<polygon fill="none" stroke="black" points="239,-608.5 239,-627.5 382,-627.5 382,-608.5 239,-608.5"/>
<text text-anchor="middle" x="310.5" y="-615.5" font-family="Helvetica,sans-Serif" font-size="10.00">com.cliffc.aa.HM.HM7.hm</text>
</a>
</g>
</g>
<!-- Node1&#45;&gt;Node2 -->
<g id="edge1" class="edge">
<title>Node1&#45;&gt;Node2</title>
<path fill="none" stroke="midnightblue" d="M433.53,-607.67C416.16,-609.14 398.47,-610.64 382.15,-612.02"/>
<polygon fill="midnightblue" stroke="midnightblue" points="434.05,-611.14 443.72,-606.81 433.46,-604.17 434.05,-611.14"/>
</g>
<!-- Node36 -->
<g id="node36" class="node">
<title>Node36</title>
<g id="a_node36"><a xlink:href="../../d0/dad/a00806.html#a6bec2d25b82c59db76c2815025fc7ee9" target="_top" xlink:title=" ">
<polygon fill="none" stroke="black" points="213,-570.5 213,-589.5 408,-589.5 408,-570.5 213,-570.5"/>
<text text-anchor="middle" x="310.5" y="-577.5" font-family="Helvetica,sans-Serif" font-size="10.00">com.cliffc.aa.HM.HM7.Con.prep_tree</text>
</a>
</g>
</g>
<!-- Node1&#45;&gt;Node36 -->
<g id="edge35" class="edge">
<title>Node1&#45;&gt;Node36</title>
<path fill="none" stroke="midnightblue" d="M433.48,-590.32C425.05,-589.61 416.54,-588.89 408.16,-588.18"/>
<polygon fill="midnightblue" stroke="midnightblue" points="433.46,-593.83 443.72,-591.19 434.05,-586.86 433.46,-593.83"/>
</g>
<!-- Node3 -->
<g id="node3" class="node">
<title>Node3</title>
<g id="a_node3"><a xlink:href="../../d6/d26/a01678.html#a717ddfa7fbc8fefa4878a2bb7928c0d5" target="_top" xlink:title=" ">
<polygon fill="none" stroke="black" points="0,-1216.5 0,-1235.5 177,-1235.5 177,-1216.5 0,-1216.5"/>
<text text-anchor="middle" x="88.5" y="-1223.5" font-family="Helvetica,sans-Serif" font-size="10.00">com.cliffc.aa.HM.TestHM7.test00</text>
</a>
</g>
</g>
<!-- Node2&#45;&gt;Node3 -->
<g id="edge2" class="edge">
<title>Node2&#45;&gt;Node3</title>
<path fill="none" stroke="midnightblue" d="M307.84,-638.03C299.66,-731.51 260.73,-1123.89 177,-1207 173.25,-1210.72 168.95,-1213.79 164.32,-1216.32"/>
<polygon fill="midnightblue" stroke="midnightblue" points="311.33,-638.2 308.7,-627.93 304.36,-637.6 311.33,-638.2"/>
</g>
<!-- Node4 -->
<g id="node4" class="node">
<title>Node4</title>
<g id="a_node4"><a xlink:href="../../d6/d26/a01678.html#a45b2f7ee1efb53e3c920f1172c9c68b1" target="_top" xlink:title=" ">
<polygon fill="none" stroke="black" points="0,-1178.5 0,-1197.5 177,-1197.5 177,-1178.5 0,-1178.5"/>
<text text-anchor="middle" x="88.5" y="-1185.5" font-family="Helvetica,sans-Serif" font-size="10.00">com.cliffc.aa.HM.TestHM7.test01</text>
</a>
</g>
</g>
<!-- Node2&#45;&gt;Node4 -->
<g id="edge3" class="edge">
<title>Node2&#45;&gt;Node4</title>
<path fill="none" stroke="midnightblue" d="M307.52,-637.86C298.21,-727.31 255.84,-1091.89 177,-1169 173.11,-1172.8 168.65,-1175.92 163.84,-1178.47"/>
<polygon fill="midnightblue" stroke="midnightblue" points="311.02,-638.03 308.56,-627.73 304.06,-637.32 311.02,-638.03"/>
</g>
<!-- Node5 -->
<g id="node5" class="node">
<title>Node5</title>
<g id="a_node5"><a xlink:href="../../d6/d26/a01678.html#adcb479b50586e474e00b196d59d06823" target="_top" xlink:title=" ">
<polygon fill="none" stroke="black" points="0,-1140.5 0,-1159.5 177,-1159.5 177,-1140.5 0,-1140.5"/>
<text text-anchor="middle" x="88.5" y="-1147.5" font-family="Helvetica,sans-Serif" font-size="10.00">com.cliffc.aa.HM.TestHM7.test02</text>
</a>
</g>
</g>
<!-- Node2&#45;&gt;Node5 -->
<g id="edge4" class="edge">
<title>Node2&#45;&gt;Node5</title>
<path fill="none" stroke="midnightblue" d="M307.15,-637.84C296.59,-723.44 250.92,-1059.91 177,-1131 173.08,-1134.77 168.59,-1137.87 163.77,-1140.4"/>
<polygon fill="midnightblue" stroke="midnightblue" points="310.62,-638.23 308.35,-627.88 303.68,-637.39 310.62,-638.23"/>
</g>
<!-- Node6 -->
<g id="node6" class="node">
<title>Node6</title>
<g id="a_node6"><a xlink:href="../../d6/d26/a01678.html#a45ebc155399f179478d71a27bd222ea9" target="_top" xlink:title=" ">
<polygon fill="none" stroke="black" points="0,-1102.5 0,-1121.5 177,-1121.5 177,-1102.5 0,-1102.5"/>
<text text-anchor="middle" x="88.5" y="-1109.5" font-family="Helvetica,sans-Serif" font-size="10.00">com.cliffc.aa.HM.TestHM7.test03</text>
</a>
</g>
</g>
<!-- Node2&#45;&gt;Node6 -->
<g id="edge5" class="edge">
<title>Node2&#45;&gt;Node6</title>
<path fill="none" stroke="midnightblue" d="M306.7,-637.9C294.83,-719.58 246,-1027.9 177,-1093 173.04,-1096.73 168.53,-1099.8 163.69,-1102.32"/>
<polygon fill="midnightblue" stroke="midnightblue" points="310.23,-637.94 308.19,-627.55 303.3,-636.95 310.23,-637.94"/>
</g>
<!-- Node7 -->
<g id="node7" class="node">
<title>Node7</title>
<g id="a_node7"><a xlink:href="../../d6/d26/a01678.html#a496db09b70408a7655ecf4224af2f314" target="_top" xlink:title=" ">
<polygon fill="none" stroke="black" points="0,-1064.5 0,-1083.5 177,-1083.5 177,-1064.5 0,-1064.5"/>
<text text-anchor="middle" x="88.5" y="-1071.5" font-family="Helvetica,sans-Serif" font-size="10.00">com.cliffc.aa.HM.TestHM7.test04</text>
</a>
</g>
</g>
<!-- Node2&#45;&gt;Node7 -->
<g id="edge6" class="edge">
<title>Node2&#45;&gt;Node7</title>
<path fill="none" stroke="midnightblue" d="M310.02,-638.16C310.66,-707.6 302.87,-938.89 177,-1055 172.89,-1058.79 168.2,-1061.9 163.18,-1064.43"/>
<polygon fill="midnightblue" stroke="midnightblue" points="313.52,-637.73 309.85,-627.79 306.52,-637.85 313.52,-637.73"/>
</g>
<!-- Node8 -->
<g id="node8" class="node">
<title>Node8</title>
<g id="a_node8"><a xlink:href="../../d6/d26/a01678.html#a9a5ea1558c8f6eaa503d490e7cb3f568" target="_top" xlink:title=" ">
<polygon fill="none" stroke="black" points="0,-1026.5 0,-1045.5 177,-1045.5 177,-1026.5 0,-1026.5"/>
<text text-anchor="middle" x="88.5" y="-1033.5" font-family="Helvetica,sans-Serif" font-size="10.00">com.cliffc.aa.HM.TestHM7.test05</text>
</a>
</g>
</g>
<!-- Node2&#45;&gt;Node8 -->
<g id="edge7" class="edge">
<title>Node2&#45;&gt;Node8</title>
<path fill="none" stroke="midnightblue" d="M309.37,-637.7C307.8,-702.73 293.52,-912.3 177,-1017 172.84,-1020.74 168.12,-1023.8 163.07,-1026.31"/>
<polygon fill="midnightblue" stroke="midnightblue" points="312.87,-637.66 309.53,-627.61 305.87,-637.55 312.87,-637.66"/>
</g>
<!-- Node9 -->
<g id="node9" class="node">
<title>Node9</title>
<g id="a_node9"><a xlink:href="../../d6/d26/a01678.html#a38742fffc84e3fa62dab0d260412b48f" target="_top" xlink:title=" ">
<polygon fill="none" stroke="black" points="0,-988.5 0,-1007.5 177,-1007.5 177,-988.5 0,-988.5"/>
<text text-anchor="middle" x="88.5" y="-995.5" font-family="Helvetica,sans-Serif" font-size="10.00">com.cliffc.aa.HM.TestHM7.test06</text>
</a>
</g>
</g>
<!-- Node2&#45;&gt;Node9 -->
<g id="edge8" class="edge">
<title>Node2&#45;&gt;Node9</title>
<path fill="none" stroke="midnightblue" d="M308.58,-637.82C304.62,-698.92 283.9,-885.92 177,-979 172.66,-982.78 167.75,-985.86 162.52,-988.37"/>
<polygon fill="midnightblue" stroke="midnightblue" points="312.09,-637.81 309.16,-627.63 305.1,-637.42 312.09,-637.81"/>
</g>
<!-- Node10 -->
<g id="node10" class="node">
<title>Node10</title>
<g id="a_node10"><a xlink:href="../../d6/d26/a01678.html#a7301f655b744bfbfc0cbb6d281dbc2fb" target="_top" xlink:title=" ">
<polygon fill="none" stroke="black" points="0,-950.5 0,-969.5 177,-969.5 177,-950.5 0,-950.5"/>
<text text-anchor="middle" x="88.5" y="-957.5" font-family="Helvetica,sans-Serif" font-size="10.00">com.cliffc.aa.HM.TestHM7.test07</text>
</a>
</g>
</g>
<!-- Node2&#45;&gt;Node10 -->
<g id="edge9" class="edge">
<title>Node2&#45;&gt;Node10</title>
<path fill="none" stroke="midnightblue" d="M307.61,-637.97C301.1,-694.95 274.34,-859.4 177,-941 172.47,-944.79 167.36,-947.88 161.94,-950.39"/>
<polygon fill="midnightblue" stroke="midnightblue" points="311.12,-638.1 308.68,-627.79 304.16,-637.37 311.12,-638.1"/>
</g>
<!-- Node11 -->
<g id="node11" class="node">
<title>Node11</title>
<g id="a_node11"><a xlink:href="../../d6/d26/a01678.html#adcffd6e4f7981f80aa2d775ff0d36e68" target="_top" xlink:title=" ">
<polygon fill="none" stroke="black" points="0,-912.5 0,-931.5 177,-931.5 177,-912.5 0,-912.5"/>
<text text-anchor="middle" x="88.5" y="-919.5" font-family="Helvetica,sans-Serif" font-size="10.00">com.cliffc.aa.HM.TestHM7.test08</text>
</a>
</g>
</g>
<!-- Node2&#45;&gt;Node11 -->
<g id="edge10" class="edge">
<title>Node2&#45;&gt;Node11</title>
<path fill="none" stroke="midnightblue" d="M306.47,-637.71C297.34,-689.89 265.13,-832.5 177,-903 172.27,-906.79 166.94,-909.86 161.32,-912.35"/>
<polygon fill="midnightblue" stroke="midnightblue" points="309.94,-638.18 308.11,-627.74 303.03,-637.04 309.94,-638.18"/>
</g>
<!-- Node12 -->
<g id="node12" class="node">
<title>Node12</title>
<g id="a_node12"><a xlink:href="../../d6/d26/a01678.html#a28a01a7ef840763868166f39ababc3dd" target="_top" xlink:title=" ">
<polygon fill="none" stroke="black" points="0,-874.5 0,-893.5 177,-893.5 177,-874.5 0,-874.5"/>
<text text-anchor="middle" x="88.5" y="-881.5" font-family="Helvetica,sans-Serif" font-size="10.00">com.cliffc.aa.HM.TestHM7.test09</text>
</a>
</g>
</g>
<!-- Node2&#45;&gt;Node12 -->
<g id="edge11" class="edge">
<title>Node2&#45;&gt;Node12</title>
<path fill="none" stroke="midnightblue" d="M304.99,-637.58C293.05,-684.81 255.95,-805.46 177,-865 171.91,-868.84 166.21,-871.93 160.22,-874.43"/>
<polygon fill="midnightblue" stroke="midnightblue" points="308.43,-638.25 307.39,-627.71 301.63,-636.6 308.43,-638.25"/>
</g>
<!-- Node13 -->
<g id="node13" class="node">
<title>Node13</title>
<g id="a_node13"><a xlink:href="../../d6/d26/a01678.html#a21b36aad9b9f4318ac140c8d67e97fff" target="_top" xlink:title=" ">
<polygon fill="none" stroke="black" points="0,-836.5 0,-855.5 177,-855.5 177,-836.5 0,-836.5"/>
<text text-anchor="middle" x="88.5" y="-843.5" font-family="Helvetica,sans-Serif" font-size="10.00">com.cliffc.aa.HM.TestHM7.test10</text>
</a>
</g>
</g>
<!-- Node2&#45;&gt;Node13 -->
<g id="edge12" class="edge">
<title>Node2&#45;&gt;Node13</title>
<path fill="none" stroke="midnightblue" d="M303.08,-637.37C288.15,-679.2 246.98,-778.11 177,-827 171.52,-830.83 165.41,-833.91 159.04,-836.38"/>
<polygon fill="midnightblue" stroke="midnightblue" points="306.42,-638.42 306.38,-627.82 299.8,-636.13 306.42,-638.42"/>
</g>
<!-- Node14 -->
<g id="node14" class="node">
<title>Node14</title>
<g id="a_node14"><a xlink:href="../../d6/d26/a01678.html#a76d15629f31ad5ec9b4fe7f046c3f99e" target="_top" xlink:title=" ">
<polygon fill="none" stroke="black" points="0,-798.5 0,-817.5 177,-817.5 177,-798.5 0,-798.5"/>
<text text-anchor="middle" x="88.5" y="-805.5" font-family="Helvetica,sans-Serif" font-size="10.00">com.cliffc.aa.HM.TestHM7.test11</text>
</a>
</g>
</g>
<!-- Node2&#45;&gt;Node14 -->
<g id="edge13" class="edge">
<title>Node2&#45;&gt;Node14</title>
<path fill="none" stroke="midnightblue" d="M300.5,-636.97C282.46,-672.81 238.29,-750.34 177,-789 170.82,-792.9 163.96,-796 156.88,-798.48"/>
<polygon fill="midnightblue" stroke="midnightblue" points="303.81,-638.17 305.07,-627.65 297.53,-635.09 303.81,-638.17"/>
</g>
<!-- Node15 -->
<g id="node15" class="node">
<title>Node15</title>
<g id="a_node15"><a xlink:href="../../d6/d26/a01678.html#a5b5492e55936133020e746d4ab175254" target="_top" xlink:title=" ">
<polygon fill="none" stroke="black" points="0,-760.5 0,-779.5 177,-779.5 177,-760.5 0,-760.5"/>
<text text-anchor="middle" x="88.5" y="-767.5" font-family="Helvetica,sans-Serif" font-size="10.00">com.cliffc.aa.HM.TestHM7.test12</text>
</a>
</g>
</g>
<!-- Node2&#45;&gt;Node15 -->
<g id="edge14" class="edge">
<title>Node2&#45;&gt;Node15</title>
<path fill="none" stroke="midnightblue" d="M297.09,-635.92C275.97,-664.95 230.15,-721.92 177,-751 169.91,-754.88 162.09,-757.97 154.13,-760.42"/>
<polygon fill="midnightblue" stroke="midnightblue" points="300.1,-637.73 303.05,-627.55 294.4,-633.66 300.1,-637.73"/>
</g>
<!-- Node16 -->
<g id="node16" class="node">
<title>Node16</title>
<g id="a_node16"><a xlink:href="../../d6/d26/a01678.html#aaee0d89f41dd68ad240814af71ec5ea0" target="_top" xlink:title=" ">
<polygon fill="none" stroke="black" points="0,-722.5 0,-741.5 177,-741.5 177,-722.5 0,-722.5"/>
<text text-anchor="middle" x="88.5" y="-729.5" font-family="Helvetica,sans-Serif" font-size="10.00">com.cliffc.aa.HM.TestHM7.test13</text>
</a>
</g>
</g>
<!-- Node2&#45;&gt;Node16 -->
<g id="edge15" class="edge">
<title>Node2&#45;&gt;Node16</title>
<path fill="none" stroke="midnightblue" d="M291.46,-634.68C267.27,-656.12 222.12,-692.96 177,-713 168.33,-716.85 158.83,-719.94 149.38,-722.42"/>
<polygon fill="midnightblue" stroke="midnightblue" points="294.02,-637.09 299.11,-627.8 289.34,-631.89 294.02,-637.09"/>
</g>
<!-- Node17 -->
<g id="node17" class="node">
<title>Node17</title>
<g id="a_node17"><a xlink:href="../../d6/d26/a01678.html#ac1d822cd9151a24e4cc077738babd9bb" target="_top" xlink:title=" ">
<polygon fill="none" stroke="black" points="0,-684.5 0,-703.5 177,-703.5 177,-684.5 0,-684.5"/>
<text text-anchor="middle" x="88.5" y="-691.5" font-family="Helvetica,sans-Serif" font-size="10.00">com.cliffc.aa.HM.TestHM7.test14</text>
</a>
</g>
</g>
<!-- Node2&#45;&gt;Node17 -->
<g id="edge16" class="edge">
<title>Node2&#45;&gt;Node17</title>
<path fill="none" stroke="midnightblue" d="M281.15,-632.09C254.72,-644.77 213.96,-663.16 177,-675 165.6,-678.65 153.14,-681.83 141.29,-684.48"/>
<polygon fill="midnightblue" stroke="midnightblue" points="282.73,-635.22 290.2,-627.71 279.67,-628.92 282.73,-635.22"/>
</g>
<!-- Node18 -->
<g id="node18" class="node">
<title>Node18</title>
<g id="a_node18"><a xlink:href="../../d6/d26/a01678.html#ad18f26e8afbfd0a71c85437c1a75445d" target="_top" xlink:title=" ">
<polygon fill="none" stroke="black" points="0,-646.5 0,-665.5 177,-665.5 177,-646.5 0,-646.5"/>
<text text-anchor="middle" x="88.5" y="-653.5" font-family="Helvetica,sans-Serif" font-size="10.00">com.cliffc.aa.HM.TestHM7.test15</text>
</a>
</g>
</g>
<!-- Node2&#45;&gt;Node18 -->
<g id="edge17" class="edge">
<title>Node2&#45;&gt;Node18</title>
<path fill="none" stroke="midnightblue" d="M244.22,-629.28C212.57,-634.74 174.96,-641.24 144.75,-646.46"/>
<polygon fill="midnightblue" stroke="midnightblue" points="245.01,-632.69 254.27,-627.54 243.82,-625.79 245.01,-632.69"/>
</g>
<!-- Node19 -->
<g id="node19" class="node">
<title>Node19</title>
<g id="a_node19"><a xlink:href="../../d6/d26/a01678.html#a38110d0999ad4bf495dde2a8f8d76032" target="_top" xlink:title=" ">
<polygon fill="none" stroke="black" points="0,-608.5 0,-627.5 177,-627.5 177,-608.5 0,-608.5"/>
<text text-anchor="middle" x="88.5" y="-615.5" font-family="Helvetica,sans-Serif" font-size="10.00">com.cliffc.aa.HM.TestHM7.test16</text>
</a>
</g>
</g>
<!-- Node2&#45;&gt;Node19 -->
<g id="edge18" class="edge">
<title>Node2&#45;&gt;Node19</title>
<path fill="none" stroke="midnightblue" d="M228.72,-618C212.01,-618 194.32,-618 177.37,-618"/>
<polygon fill="midnightblue" stroke="midnightblue" points="228.98,-621.5 238.98,-618 228.98,-614.5 228.98,-621.5"/>
</g>
<!-- Node20 -->
<g id="node20" class="node">
<title>Node20</title>
<g id="a_node20"><a xlink:href="../../d6/d26/a01678.html#abde249ca4eefa6e8ce8a0502abfd4168" target="_top" xlink:title=" ">
<polygon fill="none" stroke="black" points="0,-570.5 0,-589.5 177,-589.5 177,-570.5 0,-570.5"/>
<text text-anchor="middle" x="88.5" y="-577.5" font-family="Helvetica,sans-Serif" font-size="10.00">com.cliffc.aa.HM.TestHM7.test17</text>
</a>
</g>
</g>
<!-- Node2&#45;&gt;Node20 -->
<g id="edge19" class="edge">
<title>Node2&#45;&gt;Node20</title>
<path fill="none" stroke="midnightblue" d="M244.22,-606.72C212.57,-601.26 174.96,-594.76 144.75,-589.54"/>
<polygon fill="midnightblue" stroke="midnightblue" points="243.82,-610.21 254.27,-608.46 245.01,-603.31 243.82,-610.21"/>
</g>
<!-- Node21 -->
<g id="node21" class="node">
<title>Node21</title>
<g id="a_node21"><a xlink:href="../../d6/d26/a01678.html#ae1cb7d6f591ee30f83fc2c723cdd3bfc" target="_top" xlink:title=" ">
<polygon fill="none" stroke="black" points="0,-532.5 0,-551.5 177,-551.5 177,-532.5 0,-532.5"/>
<text text-anchor="middle" x="88.5" y="-539.5" font-family="Helvetica,sans-Serif" font-size="10.00">com.cliffc.aa.HM.TestHM7.test18</text>
</a>
</g>
</g>
<!-- Node2&#45;&gt;Node21 -->
<g id="edge20" class="edge">
<title>Node2&#45;&gt;Node21</title>
<path fill="none" stroke="midnightblue" d="M229.26,-606.28C223.61,-604.23 218.13,-601.82 213,-599 192.62,-587.78 197.27,-572.42 177,-561 170.09,-557.11 162.47,-554.01 154.68,-551.55"/>
<polygon fill="midnightblue" stroke="midnightblue" points="228.31,-609.65 238.9,-609.42 230.47,-603 228.31,-609.65"/>
</g>
<!-- Node22 -->
<g id="node22" class="node">
<title>Node22</title>
<g id="a_node22"><a xlink:href="../../d6/d26/a01678.html#ac91afe3b9651961852c62c701aa25070" target="_top" xlink:title=" ">
<polygon fill="none" stroke="black" points="0,-494.5 0,-513.5 177,-513.5 177,-494.5 0,-494.5"/>
<text text-anchor="middle" x="88.5" y="-501.5" font-family="Helvetica,sans-Serif" font-size="10.00">com.cliffc.aa.HM.TestHM7.test19</text>
</a>
</g>
</g>
<!-- Node2&#45;&gt;Node22 -->
<g id="edge21" class="edge">
<title>Node2&#45;&gt;Node22</title>
<path fill="none" stroke="midnightblue" d="M229.29,-608.54C223.47,-605.99 217.95,-602.85 213,-599 183.51,-576.04 206.27,-546.24 177,-523 172.25,-519.23 166.92,-516.17 161.29,-513.68"/>
<polygon fill="midnightblue" stroke="midnightblue" points="228.06,-611.82 238.65,-612.08 230.53,-605.27 228.06,-611.82"/>
</g>
<!-- Node23 -->
<g id="node23" class="node">
<title>Node23</title>
<g id="a_node23"><a xlink:href="../../d6/d26/a01678.html#a49a0c60e4144668d3d0c583f2cc73984" target="_top" xlink:title=" ">
<polygon fill="none" stroke="black" points="0,-456.5 0,-475.5 177,-475.5 177,-456.5 0,-456.5"/>
<text text-anchor="middle" x="88.5" y="-463.5" font-family="Helvetica,sans-Serif" font-size="10.00">com.cliffc.aa.HM.TestHM7.test20</text>
</a>
</g>
</g>
<!-- Node2&#45;&gt;Node23 -->
<g id="edge22" class="edge">
<title>Node2&#45;&gt;Node23</title>
<path fill="none" stroke="midnightblue" d="M229.3,-609.55C223.38,-606.8 217.84,-603.33 213,-599 173.39,-563.58 216.26,-520.8 177,-485 172.87,-481.23 168.16,-478.14 163.13,-475.62"/>
<polygon fill="midnightblue" stroke="midnightblue" points="228.28,-612.91 238.86,-613.33 230.85,-606.4 228.28,-612.91"/>
</g>
<!-- Node24 -->
<g id="node24" class="node">
<title>Node24</title>
<g id="a_node24"><a xlink:href="../../d6/d26/a01678.html#a3433e0c161c4d6a94852f76425d65b48" target="_top" xlink:title=" ">
<polygon fill="none" stroke="black" points="0,-418.5 0,-437.5 177,-437.5 177,-418.5 0,-418.5"/>
<text text-anchor="middle" x="88.5" y="-425.5" font-family="Helvetica,sans-Serif" font-size="10.00">com.cliffc.aa.HM.TestHM7.test21</text>
</a>
</g>
</g>
<!-- Node2&#45;&gt;Node24 -->
<g id="edge23" class="edge">
<title>Node2&#45;&gt;Node24</title>
<path fill="none" stroke="midnightblue" d="M229.25,-610.08C223.29,-607.22 217.76,-603.58 213,-599 162.98,-550.85 226.55,-495.63 177,-447 173.12,-443.19 168.66,-440.06 163.86,-437.51"/>
<polygon fill="midnightblue" stroke="midnightblue" points="228.33,-613.48 238.91,-613.97 230.94,-606.99 228.33,-613.48"/>
</g>
<!-- Node25 -->
<g id="node25" class="node">
<title>Node25</title>
<g id="a_node25"><a xlink:href="../../d6/d26/a01678.html#a5ac79ca6a7b87a80b2dd0de2414bb7cd" target="_top" xlink:title=" ">
<polygon fill="none" stroke="black" points="0,-380.5 0,-399.5 177,-399.5 177,-380.5 0,-380.5"/>
<text text-anchor="middle" x="88.5" y="-387.5" font-family="Helvetica,sans-Serif" font-size="10.00">com.cliffc.aa.HM.TestHM7.test22</text>
</a>
</g>
</g>
<!-- Node2&#45;&gt;Node25 -->
<g id="edge24" class="edge">
<title>Node2&#45;&gt;Node25</title>
<path fill="none" stroke="midnightblue" d="M229.02,-610.31C223.11,-607.4 217.66,-603.69 213,-599 152.44,-538.01 236.96,-470.58 177,-409 173.31,-405.21 169.06,-402.1 164.46,-399.54"/>
<polygon fill="midnightblue" stroke="midnightblue" points="228.04,-613.69 238.62,-614.26 230.71,-607.22 228.04,-613.69"/>
</g>
<!-- Node26 -->
<g id="node26" class="node">
<title>Node26</title>
<g id="a_node26"><a xlink:href="../../d6/d26/a01678.html#a4896be527176571f67776e415791b7aa" target="_top" xlink:title=" ">
<polygon fill="none" stroke="black" points="0,-342.5 0,-361.5 177,-361.5 177,-342.5 0,-342.5"/>
<text text-anchor="middle" x="88.5" y="-349.5" font-family="Helvetica,sans-Serif" font-size="10.00">com.cliffc.aa.HM.TestHM7.test23</text>
</a>
</g>
</g>
<!-- Node2&#45;&gt;Node26 -->
<g id="edge25" class="edge">
<title>Node2&#45;&gt;Node26</title>
<path fill="none" stroke="midnightblue" d="M229.59,-610.82C223.44,-607.83 217.77,-603.96 213,-599 141.84,-525.1 247.44,-445.59 177,-371 173.48,-367.27 169.41,-364.19 165,-361.64"/>
<polygon fill="midnightblue" stroke="midnightblue" points="228.33,-614.09 238.91,-614.62 230.97,-607.61 228.33,-614.09"/>
</g>
<!-- Node27 -->
<g id="node27" class="node">
<title>Node27</title>
<g id="a_node27"><a xlink:href="../../d6/d26/a01678.html#a88936fa40bdc6c1d0dfe631c9dced089" target="_top" xlink:title=" ">
<polygon fill="none" stroke="black" points="0,-304.5 0,-323.5 177,-323.5 177,-304.5 0,-304.5"/>
<text text-anchor="middle" x="88.5" y="-311.5" font-family="Helvetica,sans-Serif" font-size="10.00">com.cliffc.aa.HM.TestHM7.test24</text>
</a>
</g>
</g>
<!-- Node2&#45;&gt;Node27 -->
<g id="edge26" class="edge">
<title>Node2&#45;&gt;Node27</title>
<path fill="none" stroke="midnightblue" d="M229.48,-610.94C223.35,-607.91 217.72,-604.01 213,-599 131.21,-512.15 257.95,-420.64 177,-333 173.52,-329.23 169.48,-326.12 165.09,-323.56"/>
<polygon fill="midnightblue" stroke="midnightblue" points="228.19,-614.19 238.77,-614.76 230.85,-607.72 228.19,-614.19"/>
</g>
<!-- Node28 -->
<g id="node28" class="node">
<title>Node28</title>
<g id="a_node28"><a xlink:href="../../d6/d26/a01678.html#a6d459b45a568c9a2d114ed4c4d70be35" target="_top" xlink:title=" ">
<polygon fill="none" stroke="black" points="0,-266.5 0,-285.5 177,-285.5 177,-266.5 0,-266.5"/>
<text text-anchor="middle" x="88.5" y="-273.5" font-family="Helvetica,sans-Serif" font-size="10.00">com.cliffc.aa.HM.TestHM7.test25</text>
</a>
</g>
</g>
<!-- Node2&#45;&gt;Node28 -->
<g id="edge27" class="edge">
<title>Node2&#45;&gt;Node28</title>
<path fill="none" stroke="midnightblue" d="M229.39,-611.02C223.27,-607.98 217.68,-604.05 213,-599 120.55,-499.18 268.48,-395.71 177,-295 173.66,-291.32 169.78,-288.26 165.56,-285.73"/>
<polygon fill="midnightblue" stroke="midnightblue" points="228.08,-614.27 238.66,-614.86 230.76,-607.8 228.08,-614.27"/>
</g>
<!-- Node29 -->
<g id="node29" class="node">
<title>Node29</title>
<g id="a_node29"><a xlink:href="../../d6/d26/a01678.html#a29cd5fc38b6ba1c02f67aa30de8908fa" target="_top" xlink:title=" ">
<polygon fill="none" stroke="black" points="0,-228.5 0,-247.5 177,-247.5 177,-228.5 0,-228.5"/>
<text text-anchor="middle" x="88.5" y="-235.5" font-family="Helvetica,sans-Serif" font-size="10.00">com.cliffc.aa.HM.TestHM7.test26</text>
</a>
</g>
</g>
<!-- Node2&#45;&gt;Node29 -->
<g id="edge28" class="edge">
<title>Node2&#45;&gt;Node29</title>
<path fill="none" stroke="midnightblue" d="M229.32,-611.08C223.22,-608.03 217.64,-604.08 213,-599 109.87,-486.2 279.03,-370.8 177,-257 173.68,-253.3 169.82,-250.22 165.61,-247.68"/>
<polygon fill="midnightblue" stroke="midnightblue" points="228,-614.33 238.57,-614.94 230.69,-607.86 228,-614.33"/>
</g>
<!-- Node30 -->
<g id="node30" class="node">
<title>Node30</title>
<g id="a_node30"><a xlink:href="../../d6/d26/a01678.html#a2954b19dbed82f4985c2a84a7bf86246" target="_top" xlink:title=" ">
<polygon fill="none" stroke="black" points="0,-190.5 0,-209.5 177,-209.5 177,-190.5 0,-190.5"/>
<text text-anchor="middle" x="88.5" y="-197.5" font-family="Helvetica,sans-Serif" font-size="10.00">com.cliffc.aa.HM.TestHM7.test27</text>
</a>
</g>
</g>
<!-- Node2&#45;&gt;Node30 -->
<g id="edge29" class="edge">
<title>Node2&#45;&gt;Node30</title>
<path fill="none" stroke="midnightblue" d="M229.56,-611.29C223.36,-608.2 217.7,-604.19 213,-599 156.09,-536.1 233.29,-282.45 177,-219 173.7,-215.28 169.86,-212.19 165.66,-209.64"/>
<polygon fill="midnightblue" stroke="midnightblue" points="228.41,-614.6 238.99,-615.17 231.07,-608.12 228.41,-614.6"/>
</g>
<!-- Node31 -->
<g id="node31" class="node">
<title>Node31</title>
<g id="a_node31"><a xlink:href="../../d6/d26/a01678.html#a6886a76de83ef7072d59f466fafbe473" target="_top" xlink:title=" ">
<polygon fill="none" stroke="black" points="0,-152.5 0,-171.5 177,-171.5 177,-152.5 0,-152.5"/>
<text text-anchor="middle" x="88.5" y="-159.5" font-family="Helvetica,sans-Serif" font-size="10.00">com.cliffc.aa.HM.TestHM7.test28</text>
</a>
</g>
</g>
<!-- Node2&#45;&gt;Node31 -->
<g id="edge30" class="edge">
<title>Node2&#45;&gt;Node31</title>
<path fill="none" stroke="midnightblue" d="M229.52,-611.33C223.32,-608.24 217.67,-604.21 213,-599 150.75,-529.6 238.58,-251 177,-181 173.71,-177.26 169.88,-174.17 165.69,-171.6"/>
<polygon fill="midnightblue" stroke="midnightblue" points="228.35,-614.64 238.93,-615.22 231.03,-608.17 228.35,-614.64"/>
</g>
<!-- Node32 -->
<g id="node32" class="node">
<title>Node32</title>
<g id="a_node32"><a xlink:href="../../d6/d26/a01678.html#a89662f9a1003578587dd72772af6363d" target="_top" xlink:title=" ">
<polygon fill="none" stroke="black" points="0,-114.5 0,-133.5 177,-133.5 177,-114.5 0,-114.5"/>
<text text-anchor="middle" x="88.5" y="-121.5" font-family="Helvetica,sans-Serif" font-size="10.00">com.cliffc.aa.HM.TestHM7.test29</text>
</a>
</g>
</g>
<!-- Node2&#45;&gt;Node32 -->
<g id="edge31" class="edge">
<title>Node2&#45;&gt;Node32</title>
<path fill="none" stroke="midnightblue" d="M229.48,-611.37C223.29,-608.27 217.65,-604.23 213,-599 145.4,-523.09 243.86,-219.56 177,-143 173.73,-139.25 169.91,-136.15 165.72,-133.58"/>
<polygon fill="midnightblue" stroke="midnightblue" points="228.31,-614.67 238.88,-615.26 230.98,-608.2 228.31,-614.67"/>
</g>
<!-- Node33 -->
<g id="node33" class="node">
<title>Node33</title>
<g id="a_node33"><a xlink:href="../../d6/d26/a01678.html#a017eacb91bc8bd857b15d4259045aa55" target="_top" xlink:title=" ">
<polygon fill="none" stroke="black" points="0,-76.5 0,-95.5 177,-95.5 177,-76.5 0,-76.5"/>
<text text-anchor="middle" x="88.5" y="-83.5" font-family="Helvetica,sans-Serif" font-size="10.00">com.cliffc.aa.HM.TestHM7.test30</text>
</a>
</g>
</g>
<!-- Node2&#45;&gt;Node33 -->
<g id="edge32" class="edge">
<title>Node2&#45;&gt;Node33</title>
<path fill="none" stroke="midnightblue" d="M229.44,-611.39C223.27,-608.29 217.64,-604.24 213,-599 140.04,-516.58 249.15,-188.12 177,-105 173.74,-101.24 169.93,-98.13 165.75,-95.56"/>
<polygon fill="midnightblue" stroke="midnightblue" points="228.27,-614.69 238.84,-615.3 230.95,-608.23 228.27,-614.69"/>
</g>
<!-- Node34 -->
<g id="node34" class="node">
<title>Node34</title>
<g id="a_node34"><a xlink:href="../../d6/d26/a01678.html#a282c7e00128e125e3effac2888dc8a39" target="_top" xlink:title=" ">
<polygon fill="none" stroke="black" points="0,-38.5 0,-57.5 177,-57.5 177,-38.5 0,-38.5"/>
<text text-anchor="middle" x="88.5" y="-45.5" font-family="Helvetica,sans-Serif" font-size="10.00">com.cliffc.aa.HM.TestHM7.test31</text>
</a>
</g>
</g>
<!-- Node2&#45;&gt;Node34 -->
<g id="edge33" class="edge">
<title>Node2&#45;&gt;Node34</title>
<path fill="none" stroke="midnightblue" d="M229.42,-611.42C223.24,-608.31 217.62,-604.25 213,-599 134.69,-510.07 254.44,-156.68 177,-67 173.75,-63.23 169.94,-60.11 165.77,-57.54"/>
<polygon fill="midnightblue" stroke="midnightblue" points="228.23,-614.72 238.81,-615.33 230.92,-608.26 228.23,-614.72"/>
</g>
<!-- Node35 -->
<g id="node35" class="node">
<title>Node35</title>
<g id="a_node35"><a xlink:href="../../d6/d26/a01678.html#a9666306644d15095278be9eb848635e6" target="_top" xlink:title=" ">
<polygon fill="none" stroke="black" points="0,-0.5 0,-19.5 177,-19.5 177,-0.5 0,-0.5"/>
<text text-anchor="middle" x="88.5" y="-7.5" font-family="Helvetica,sans-Serif" font-size="10.00">com.cliffc.aa.HM.TestHM7.test32</text>
</a>
</g>
</g>
<!-- Node2&#45;&gt;Node35 -->
<g id="edge34" class="edge">
<title>Node2&#45;&gt;Node35</title>
<path fill="none" stroke="midnightblue" d="M229.39,-611.44C223.22,-608.33 217.61,-604.26 213,-599 129.34,-503.56 259.73,-125.25 177,-29 173.76,-25.23 169.96,-22.1 165.79,-19.52"/>
<polygon fill="midnightblue" stroke="midnightblue" points="228.2,-614.74 238.78,-615.36 230.89,-608.28 228.2,-614.74"/>
</g>
</g>
</svg>
