<?xml version="1.0" encoding="UTF-8" standalone="no"?>
<!DOCTYPE svg PUBLIC "-//W3C//DTD SVG 1.1//EN"
 "http://www.w3.org/Graphics/SVG/1.1/DTD/svg11.dtd">
<!-- Generated by graphviz version 2.43.0 (0)
 -->
<!-- Title: com.cliffc.aa.HM.HM7.T2.make_nil Pages: 1 -->
<svg width="1555pt" height="47pt"
 viewBox="0.00 0.00 1555.00 47.00" xmlns="http://www.w3.org/2000/svg" xmlns:xlink="http://www.w3.org/1999/xlink">
<g id="graph0" class="graph" transform="scale(1 1) rotate(0) translate(4 43)">
<title>com.cliffc.aa.HM.HM7.T2.make_nil</title>
<!-- Node1 -->
<g id="node1" class="node">
<title>Node1</title>
<g id="a_node1"><a xlink:title=" ">
<polygon fill="#bfbfbf" stroke="black" points="0,-19.5 0,-38.5 186,-38.5 186,-19.5 0,-19.5"/>
<text text-anchor="middle" x="93" y="-26.5" font-family="Helvetica,sans-Serif" font-size="10.00">com.cliffc.aa.HM.HM7.T2.make_nil</text>
</a>
</g>
</g>
<!-- Node2 -->
<g id="node2" class="node">
<title>Node2</title>
<g id="a_node2"><a xlink:href="../../d9/d02/a00834.html#aa8faebe928582db560473e1ed0b4c9b5" target="_top" xlink:title=" ">
<polygon fill="none" stroke="black" points="222,-19.5 222,-38.5 376,-38.5 376,-19.5 222,-19.5"/>
<text text-anchor="middle" x="299" y="-26.5" font-family="Helvetica,sans-Serif" font-size="10.00">com.cliffc.aa.HM.HM7.T2.T2</text>
</a>
</g>
</g>
<!-- Node1&#45;&gt;Node2 -->
<g id="edge1" class="edge">
<title>Node1&#45;&gt;Node2</title>
<path fill="none" stroke="midnightblue" d="M186.15,-29C194.63,-29 203.21,-29 211.64,-29"/>
<polygon fill="midnightblue" stroke="midnightblue" points="211.83,-32.5 221.83,-29 211.83,-25.5 211.83,-32.5"/>
</g>
<!-- Node3 -->
<g id="node3" class="node">
<title>Node3</title>
<g id="a_node3"><a xlink:href="../../d9/d02/a00834.html#ace8c0dea9eacc0627930c0d35d865712" target="_top" xlink:title=" ">
<polygon fill="none" stroke="black" points="412,-19.5 412,-38.5 575,-38.5 575,-19.5 412,-19.5"/>
<text text-anchor="middle" x="493.5" y="-26.5" font-family="Helvetica,sans-Serif" font-size="10.00">com.cliffc.aa.HM.HM7.T2.args</text>
</a>
</g>
</g>
<!-- Node2&#45;&gt;Node3 -->
<g id="edge2" class="edge">
<title>Node2&#45;&gt;Node3</title>
<path fill="none" stroke="midnightblue" d="M376.08,-29C384.54,-29 393.22,-29 401.84,-29"/>
<polygon fill="midnightblue" stroke="midnightblue" points="401.91,-32.5 411.91,-29 401.91,-25.5 401.91,-32.5"/>
</g>
<!-- Node4 -->
<g id="node4" class="node">
<title>Node4</title>
<g id="a_node4"><a xlink:href="../../d9/d02/a00834.html#ae2138b8d9d5860eda7513092126ba601" target="_top" xlink:title=" ">
<polygon fill="none" stroke="black" points="611,-19.5 611,-38.5 771,-38.5 771,-19.5 611,-19.5"/>
<text text-anchor="middle" x="691" y="-26.5" font-family="Helvetica,sans-Serif" font-size="10.00">com.cliffc.aa.HM.HM7.T2.find</text>
</a>
</g>
</g>
<!-- Node3&#45;&gt;Node4 -->
<g id="edge3" class="edge">
<title>Node3&#45;&gt;Node4</title>
<path fill="none" stroke="midnightblue" d="M575.15,-29C583.52,-29 592.07,-29 600.53,-29"/>
<polygon fill="midnightblue" stroke="midnightblue" points="600.8,-32.5 610.8,-29 600.8,-25.5 600.8,-32.5"/>
</g>
<!-- Node5 -->
<g id="node5" class="node">
<title>Node5</title>
<g id="a_node5"><a xlink:href="../../d9/d02/a00834.html#aebfcad4f2e406516eef7fd39a6803752" target="_top" xlink:title=" ">
<polygon fill="none" stroke="black" points="1012,-19.5 1012,-38.5 1186,-38.5 1186,-19.5 1012,-19.5"/>
<text text-anchor="middle" x="1099" y="-26.5" font-family="Helvetica,sans-Serif" font-size="10.00">com.cliffc.aa.HM.HM7.T2.is_leaf</text>
</a>
</g>
</g>
<!-- Node4&#45;&gt;Node5 -->
<g id="edge4" class="edge">
<title>Node4&#45;&gt;Node5</title>
<path fill="none" stroke="midnightblue" d="M771.24,-29C837.23,-29 931.43,-29 1001.74,-29"/>
<polygon fill="midnightblue" stroke="midnightblue" points="1001.94,-32.5 1011.94,-29 1001.94,-25.5 1001.94,-32.5"/>
</g>
<!-- Node8 -->
<g id="node8" class="node">
<title>Node8</title>
<g id="a_node8"><a xlink:href="../../d9/d02/a00834.html#a11a0879ef2674dd9fb3f9a1be59d3084" target="_top" xlink:title=" ">
<polygon fill="none" stroke="black" points="807,-0.5 807,-19.5 976,-19.5 976,-0.5 807,-0.5"/>
<text text-anchor="middle" x="891.5" y="-7.5" font-family="Helvetica,sans-Serif" font-size="10.00">com.cliffc.aa.HM.HM7.T2.no_uf</text>
</a>
</g>
</g>
<!-- Node4&#45;&gt;Node8 -->
<g id="edge7" class="edge">
<title>Node4&#45;&gt;Node8</title>
<path fill="none" stroke="midnightblue" d="M771.02,-21.44C779.49,-20.63 788.17,-19.79 796.79,-18.97"/>
<polygon fill="midnightblue" stroke="midnightblue" points="797.24,-22.44 806.87,-18.01 796.58,-15.47 797.24,-22.44"/>
</g>
<!-- Node6 -->
<g id="node6" class="node">
<title>Node6</title>
<g id="a_node6"><a xlink:href="../../d9/d02/a00834.html#a1646dbd4ae347d254550074fb9dd89ac" target="_top" xlink:title=" ">
<polygon fill="none" stroke="black" points="1222,-19.5 1222,-38.5 1378,-38.5 1378,-19.5 1222,-19.5"/>
<text text-anchor="middle" x="1300" y="-26.5" font-family="Helvetica,sans-Serif" font-size="10.00">com.cliffc.aa.HM.HM7.T2.isa</text>
</a>
</g>
</g>
<!-- Node5&#45;&gt;Node6 -->
<g id="edge5" class="edge">
<title>Node5&#45;&gt;Node6</title>
<path fill="none" stroke="midnightblue" d="M1186.13,-29C1194.57,-29 1203.14,-29 1211.59,-29"/>
<polygon fill="midnightblue" stroke="midnightblue" points="1211.82,-32.5 1221.82,-29 1211.82,-25.5 1211.82,-32.5"/>
</g>
<!-- Node7 -->
<g id="node7" class="node">
<title>Node7</title>
<g id="a_node7"><a xlink:href="../../dd/d55/a01638.html#a3975ba7dca9fe2d6e4992b2b5558f882" target="_top" xlink:title=" ">
<polygon fill="none" stroke="black" points="1414,-19.5 1414,-38.5 1547,-38.5 1547,-19.5 1414,-19.5"/>
<text text-anchor="middle" x="1480.5" y="-26.5" font-family="Helvetica,sans-Serif" font-size="10.00">com.cliffc.aa.util.Util.eq</text>
</a>
</g>
</g>
<!-- Node6&#45;&gt;Node7 -->
<g id="edge6" class="edge">
<title>Node6&#45;&gt;Node7</title>
<path fill="none" stroke="midnightblue" d="M1378.25,-29C1386.69,-29 1395.28,-29 1403.7,-29"/>
<polygon fill="midnightblue" stroke="midnightblue" points="1403.87,-32.5 1413.87,-29 1403.87,-25.5 1403.87,-32.5"/>
</g>
<!-- Node8&#45;&gt;Node5 -->
<g id="edge8" class="edge">
<title>Node8&#45;&gt;Node5</title>
<path fill="none" stroke="midnightblue" d="M976.08,-17.73C984.55,-18.51 993.2,-19.31 1001.78,-20.1"/>
<polygon fill="midnightblue" stroke="midnightblue" points="1001.54,-23.6 1011.82,-21.03 1002.18,-16.63 1001.54,-23.6"/>
</g>
</g>
</svg>
