<?xml version="1.0" encoding="UTF-8" standalone="no"?>
<!DOCTYPE svg PUBLIC "-//W3C//DTD SVG 1.1//EN"
 "http://www.w3.org/Graphics/SVG/1.1/DTD/svg11.dtd">
<!-- Generated by graphviz version 2.43.0 (0)
 -->
<!-- Title: com.cliffc.aa.HM.HM7.T2.args Pages: 1 -->
<svg width="1143pt" height="47pt"
 viewBox="0.00 0.00 1143.00 47.00" xmlns="http://www.w3.org/2000/svg" xmlns:xlink="http://www.w3.org/1999/xlink">
<g id="graph0" class="graph" transform="scale(1 1) rotate(0) translate(4 43)">
<title>com.cliffc.aa.HM.HM7.T2.args</title>
<!-- Node1 -->
<g id="node1" class="node">
<title>Node1</title>
<g id="a_node1"><a xlink:title=" ">
<polygon fill="#bfbfbf" stroke="black" points="0,-19.5 0,-38.5 163,-38.5 163,-19.5 0,-19.5"/>
<text text-anchor="middle" x="81.5" y="-26.5" font-family="Helvetica,sans-Serif" font-size="10.00">com.cliffc.aa.HM.HM7.T2.args</text>
</a>
</g>
</g>
<!-- Node2 -->
<g id="node2" class="node">
<title>Node2</title>
<g id="a_node2"><a xlink:href="../../d9/d02/a00834.html#ae2138b8d9d5860eda7513092126ba601" target="_top" xlink:title=" ">
<polygon fill="none" stroke="black" points="199,-19.5 199,-38.5 359,-38.5 359,-19.5 199,-19.5"/>
<text text-anchor="middle" x="279" y="-26.5" font-family="Helvetica,sans-Serif" font-size="10.00">com.cliffc.aa.HM.HM7.T2.find</text>
</a>
</g>
</g>
<!-- Node1&#45;&gt;Node2 -->
<g id="edge1" class="edge">
<title>Node1&#45;&gt;Node2</title>
<path fill="none" stroke="midnightblue" d="M163.15,-29C171.52,-29 180.07,-29 188.53,-29"/>
<polygon fill="midnightblue" stroke="midnightblue" points="188.8,-32.5 198.8,-29 188.8,-25.5 188.8,-32.5"/>
</g>
<!-- Node3 -->
<g id="node3" class="node">
<title>Node3</title>
<g id="a_node3"><a xlink:href="../../d9/d02/a00834.html#aebfcad4f2e406516eef7fd39a6803752" target="_top" xlink:title=" ">
<polygon fill="none" stroke="black" points="600,-19.5 600,-38.5 774,-38.5 774,-19.5 600,-19.5"/>
<text text-anchor="middle" x="687" y="-26.5" font-family="Helvetica,sans-Serif" font-size="10.00">com.cliffc.aa.HM.HM7.T2.is_leaf</text>
</a>
</g>
</g>
<!-- Node2&#45;&gt;Node3 -->
<g id="edge2" class="edge">
<title>Node2&#45;&gt;Node3</title>
<path fill="none" stroke="midnightblue" d="M359.24,-29C425.23,-29 519.43,-29 589.74,-29"/>
<polygon fill="midnightblue" stroke="midnightblue" points="589.94,-32.5 599.94,-29 589.94,-25.5 589.94,-32.5"/>
</g>
<!-- Node6 -->
<g id="node6" class="node">
<title>Node6</title>
<g id="a_node6"><a xlink:href="../../d9/d02/a00834.html#a11a0879ef2674dd9fb3f9a1be59d3084" target="_top" xlink:title=" ">
<polygon fill="none" stroke="black" points="395,-0.5 395,-19.5 564,-19.5 564,-0.5 395,-0.5"/>
<text text-anchor="middle" x="479.5" y="-7.5" font-family="Helvetica,sans-Serif" font-size="10.00">com.cliffc.aa.HM.HM7.T2.no_uf</text>
</a>
</g>
</g>
<!-- Node2&#45;&gt;Node6 -->
<g id="edge5" class="edge">
<title>Node2&#45;&gt;Node6</title>
<path fill="none" stroke="midnightblue" d="M359.02,-21.44C367.49,-20.63 376.17,-19.79 384.79,-18.97"/>
<polygon fill="midnightblue" stroke="midnightblue" points="385.24,-22.44 394.87,-18.01 384.58,-15.47 385.24,-22.44"/>
</g>
<!-- Node4 -->
<g id="node4" class="node">
<title>Node4</title>
<g id="a_node4"><a xlink:href="../../d9/d02/a00834.html#a1646dbd4ae347d254550074fb9dd89ac" target="_top" xlink:title=" ">
<polygon fill="none" stroke="black" points="810,-19.5 810,-38.5 966,-38.5 966,-19.5 810,-19.5"/>
<text text-anchor="middle" x="888" y="-26.5" font-family="Helvetica,sans-Serif" font-size="10.00">com.cliffc.aa.HM.HM7.T2.isa</text>
</a>
</g>
</g>
<!-- Node3&#45;&gt;Node4 -->
<g id="edge3" class="edge">
<title>Node3&#45;&gt;Node4</title>
<path fill="none" stroke="midnightblue" d="M774.13,-29C782.57,-29 791.14,-29 799.59,-29"/>
<polygon fill="midnightblue" stroke="midnightblue" points="799.82,-32.5 809.82,-29 799.82,-25.5 799.82,-32.5"/>
</g>
<!-- Node5 -->
<g id="node5" class="node">
<title>Node5</title>
<g id="a_node5"><a xlink:href="../../dd/d55/a01638.html#a3975ba7dca9fe2d6e4992b2b5558f882" target="_top" xlink:title=" ">
<polygon fill="none" stroke="black" points="1002,-19.5 1002,-38.5 1135,-38.5 1135,-19.5 1002,-19.5"/>
<text text-anchor="middle" x="1068.5" y="-26.5" font-family="Helvetica,sans-Serif" font-size="10.00">com.cliffc.aa.util.Util.eq</text>
</a>
</g>
</g>
<!-- Node4&#45;&gt;Node5 -->
<g id="edge4" class="edge">
<title>Node4&#45;&gt;Node5</title>
<path fill="none" stroke="midnightblue" d="M966.25,-29C974.69,-29 983.28,-29 991.7,-29"/>
<polygon fill="midnightblue" stroke="midnightblue" points="991.87,-32.5 1001.87,-29 991.87,-25.5 991.87,-32.5"/>
</g>
<!-- Node6&#45;&gt;Node3 -->
<g id="edge6" class="edge">
<title>Node6&#45;&gt;Node3</title>
<path fill="none" stroke="midnightblue" d="M564.08,-17.73C572.55,-18.51 581.2,-19.31 589.78,-20.1"/>
<polygon fill="midnightblue" stroke="midnightblue" points="589.54,-23.6 599.82,-21.03 590.18,-16.63 589.54,-23.6"/>
</g>
</g>
</svg>
