<?xml version="1.0" encoding="UTF-8" standalone="no"?>
<!DOCTYPE svg PUBLIC "-//W3C//DTD SVG 1.1//EN"
 "http://www.w3.org/Graphics/SVG/1.1/DTD/svg11.dtd">
<!-- Generated by graphviz version 2.43.0 (0)
 -->
<!-- Title: com.cliffc.aa.HM.HM7.T2._cycle_equals_struct Pages: 1 -->
<!--zoomable 211 -->
<svg id="main" version="1.1" xmlns="http://www.w3.org/2000/svg" xmlns:xlink="http://www.w3.org/1999/xlink" xml:space="preserve" onload="init(evt)">
<style type="text/css"><![CDATA[
.edge:hover path { stroke: red; }
.edge:hover polygon { stroke: red; fill: red; }
]]></style>
<script type="text/javascript"><![CDATA[
var edges = document.getElementsByTagName('g');
if (edges && edges.length) {
  for (var i=0;i<edges.length;i++) {
    if (edges[i].id.substr(0,4)=='edge') {
      edges[i].setAttribute('class','edge');
    }
  }
}
]]></script>
        <defs>
                <circle id="rim" cx="0" cy="0" r="7"/>
                <circle id="rim2" cx="0" cy="0" r="3.5"/>
                <g id="zoomPlus">
                        <use xlink:href="#rim" fill="#404040">
                                <set attributeName="fill" to="#808080" begin="zoomplus.mouseover" end="zoomplus.mouseout"/>
                        </use>
                        <path d="M-4,0h8M0,-4v8" fill="none" stroke="white" stroke-width="1.5" pointer-events="none"/>
                </g>
                <g id="zoomMin">
                        <use xlink:href="#rim" fill="#404040">
                                <set attributeName="fill" to="#808080" begin="zoomminus.mouseover" end="zoomminus.mouseout"/>
                        </use>
                        <path d="M-4,0h8" fill="none" stroke="white" stroke-width="1.5" pointer-events="none"/>
                </g>
                <g id="dirArrow">
                        <path fill="none" stroke="white" stroke-width="1.5" d="M0,-3.0v7 M-2.5,-0.5L0,-3.0L2.5,-0.5"/>
                </g>
               <g id="resetDef">
                       <use xlink:href="#rim2" fill="#404040">
                               <set attributeName="fill" to="#808080" begin="reset.mouseover" end="reset.mouseout"/>
                       </use>
               </g>
        </defs>

<script type="text/javascript">
var viewWidth = 1518;
var viewHeight = 211;
var sectionId = 'dynsection-5';
</script>
<script xlink:href="../../svgpan.js"/>
<svg id="graph" class="graph">
<g id="viewport">
<title>com.cliffc.aa.HM.HM7.T2._cycle_equals_struct</title>
<!-- Node1 -->
<g id="node1" class="node">
<title>Node1</title>
<g id="a_node1"><a xlink:title=" ">
<polygon fill="#bfbfbf" stroke="black" points="0,-90 0,-120 142,-120 142,-90 0,-90"/>
<text text-anchor="start" x="8" y="-108" font-family="Helvetica,sans-Serif" font-size="10.00">com.cliffc.aa.HM.HM7.T2.</text>
<text text-anchor="middle" x="71" y="-97" font-family="Helvetica,sans-Serif" font-size="10.00">_cycle_equals_struct</text>
</a>
</g>
</g>
<!-- Node2 -->
<g id="node2" class="node">
<title>Node2</title>
<g id="a_node2"><a xlink:href="../../d9/d02/a00834.html#a76df794541c43bd3b9fcc9928603a45e" target="_top" xlink:title=" ">
<polygon fill="none" stroke="black" points="178,-90 178,-120 320,-120 320,-90 178,-90"/>
<text text-anchor="start" x="186" y="-108" font-family="Helvetica,sans-Serif" font-size="10.00">com.cliffc.aa.HM.HM7.T2.</text>
<text text-anchor="middle" x="249" y="-97" font-family="Helvetica,sans-Serif" font-size="10.00">_cycle_equals</text>
</a>
</g>
</g>
<!-- Node1&#45;&gt;Node2 -->
<g id="edge1" class="edge">
<title>Node1&#45;&gt;Node2</title>
<path fill="none" stroke="midnightblue" d="M142.07,-98.38C150.54,-98.26 159.25,-98.22 167.85,-98.27"/>
<polygon fill="midnightblue" stroke="midnightblue" points="167.85,-101.77 177.89,-98.38 167.92,-94.77 167.85,-101.77"/>
</g>
<!-- Node3 -->
<g id="node3" class="node">
<title>Node3</title>
<g id="a_node3"><a xlink:href="../../d9/d02/a00834.html#ace8c0dea9eacc0627930c0d35d865712" target="_top" xlink:title=" ">
<polygon fill="none" stroke="black" points="356,-0.5 356,-19.5 519,-19.5 519,-0.5 356,-0.5"/>
<text text-anchor="middle" x="437.5" y="-7.5" font-family="Helvetica,sans-Serif" font-size="10.00">com.cliffc.aa.HM.HM7.T2.args</text>
</a>
</g>
</g>
<!-- Node1&#45;&gt;Node3 -->
<g id="edge16" class="edge">
<title>Node1&#45;&gt;Node3</title>
<path fill="none" stroke="midnightblue" d="M132.47,-89.98C182.74,-77.42 256.11,-58.89 320,-42 344.09,-35.63 370.91,-28.28 392.74,-22.23"/>
<polygon fill="midnightblue" stroke="midnightblue" points="393.69,-25.6 402.39,-19.55 391.82,-18.86 393.69,-25.6"/>
</g>
<!-- Node10 -->
<g id="node10" class="node">
<title>Node10</title>
<g id="a_node10"><a xlink:href="../../d9/d02/a00834.html#a7cefeb8d78c5b6ee7d47e3d0edf780d9" target="_top" xlink:title=" ">
<polygon fill="none" stroke="black" points="362.5,-172 362.5,-202 512.5,-202 512.5,-172 362.5,-172"/>
<text text-anchor="start" x="370.5" y="-190" font-family="Helvetica,sans-Serif" font-size="10.00">com.cliffc.aa.HM.HM7.T2.is</text>
<text text-anchor="middle" x="437.5" y="-179" font-family="Helvetica,sans-Serif" font-size="10.00">_struct</text>
</a>
</g>
</g>
<!-- Node1&#45;&gt;Node10 -->
<g id="edge18" class="edge">
<title>Node1&#45;&gt;Node10</title>
<path fill="none" stroke="midnightblue" d="M135.02,-120.02C149.15,-123.35 164.08,-126.82 178,-130 237.96,-143.68 305.88,-158.64 357.04,-169.79"/>
<polygon fill="midnightblue" stroke="midnightblue" points="356.53,-173.26 367.04,-171.97 358.02,-166.42 356.53,-173.26"/>
</g>
<!-- Node11 -->
<g id="node11" class="node">
<title>Node11</title>
<g id="a_node11"><a xlink:href="../../dd/d55/a01638.html#abb7b6e1b78b0932ca33088581f5f45c8" target="_top" xlink:title=" ">
<polygon fill="none" stroke="black" points="179.5,-13.5 179.5,-32.5 318.5,-32.5 318.5,-13.5 179.5,-13.5"/>
<text text-anchor="middle" x="249" y="-20.5" font-family="Helvetica,sans-Serif" font-size="10.00">com.cliffc.aa.util.Util.find</text>
</a>
</g>
</g>
<!-- Node1&#45;&gt;Node11 -->
<g id="edge17" class="edge">
<title>Node1&#45;&gt;Node11</title>
<path fill="none" stroke="midnightblue" d="M96.66,-89.94C117.77,-77.43 149.21,-59.7 178,-47 187.16,-42.96 197.23,-39.15 206.81,-35.82"/>
<polygon fill="midnightblue" stroke="midnightblue" points="208.2,-39.04 216.55,-32.52 205.96,-32.41 208.2,-39.04"/>
</g>
<!-- Node2&#45;&gt;Node1 -->
<g id="edge2" class="edge">
<title>Node2&#45;&gt;Node1</title>
<path fill="none" stroke="midnightblue" d="M177.89,-111.62C169.41,-111.74 160.71,-111.78 152.1,-111.73"/>
<polygon fill="midnightblue" stroke="midnightblue" points="152.1,-108.23 142.07,-111.62 152.03,-115.23 152.1,-108.23"/>
</g>
<!-- Node2&#45;&gt;Node3 -->
<g id="edge3" class="edge">
<title>Node2&#45;&gt;Node3</title>
<path fill="none" stroke="midnightblue" d="M293.46,-89.95C302.64,-85.81 311.97,-80.82 320,-75 339.63,-60.76 335.58,-47.09 356,-34 363.06,-29.47 371.01,-25.77 379.09,-22.75"/>
<polygon fill="midnightblue" stroke="midnightblue" points="380.26,-26.05 388.6,-19.51 378,-19.42 380.26,-26.05"/>
</g>
<!-- Node7 -->
<g id="node7" class="node">
<title>Node7</title>
<g id="a_node7"><a xlink:href="../../dd/d55/a01638.html#a3975ba7dca9fe2d6e4992b2b5558f882" target="_top" xlink:title=" ">
<polygon fill="none" stroke="black" points="1377,-57.5 1377,-76.5 1510,-76.5 1510,-57.5 1377,-57.5"/>
<text text-anchor="middle" x="1443.5" y="-64.5" font-family="Helvetica,sans-Serif" font-size="10.00">com.cliffc.aa.util.Util.eq</text>
</a>
</g>
</g>
<!-- Node2&#45;&gt;Node7 -->
<g id="edge10" class="edge">
<title>Node2&#45;&gt;Node7</title>
<path fill="none" stroke="midnightblue" d="M317.47,-89.96C379.03,-76.81 472.68,-58.27 555,-48 686.91,-31.54 720.56,-29 853.5,-29 853.5,-29 853.5,-29 1063,-29 1172.15,-29 1298.09,-44.76 1373.94,-55.98"/>
<polygon fill="midnightblue" stroke="midnightblue" points="1373.44,-59.44 1383.85,-57.46 1374.47,-52.52 1373.44,-59.44"/>
</g>
<!-- Node8 -->
<g id="node8" class="node">
<title>Node8</title>
<g id="a_node8"><a xlink:href="../../d9/d02/a00834.html#a11a0879ef2674dd9fb3f9a1be59d3084" target="_top" xlink:title=" ">
<polygon fill="none" stroke="black" points="770,-95.5 770,-114.5 939,-114.5 939,-95.5 770,-95.5"/>
<text text-anchor="middle" x="854.5" y="-102.5" font-family="Helvetica,sans-Serif" font-size="10.00">com.cliffc.aa.HM.HM7.T2.no_uf</text>
</a>
</g>
</g>
<!-- Node2&#45;&gt;Node8 -->
<g id="edge15" class="edge">
<title>Node2&#45;&gt;Node8</title>
<path fill="none" stroke="midnightblue" d="M320.11,-105C428.87,-105 638.35,-105 759.91,-105"/>
<polygon fill="midnightblue" stroke="midnightblue" points="759.95,-108.5 769.95,-105 759.95,-101.5 759.95,-108.5"/>
</g>
<!-- Node9 -->
<g id="node9" class="node">
<title>Node9</title>
<g id="a_node9"><a xlink:href="../../d9/d02/a00834.html#a991a5eeda04840eb73281c0e2bf79ad4" target="_top" xlink:title=" ">
<polygon fill="none" stroke="black" points="555,-133.5 555,-152.5 734,-152.5 734,-133.5 555,-133.5"/>
<text text-anchor="middle" x="644.5" y="-140.5" font-family="Helvetica,sans-Serif" font-size="10.00">com.cliffc.aa.HM.HM7.T2.is_base</text>
</a>
</g>
</g>
<!-- Node2&#45;&gt;Node9 -->
<g id="edge11" class="edge">
<title>Node2&#45;&gt;Node9</title>
<path fill="none" stroke="midnightblue" d="M320.08,-114.74C332.05,-116.26 344.37,-117.75 356,-119 418.7,-125.75 489.28,-131.67 544.81,-135.94"/>
<polygon fill="midnightblue" stroke="midnightblue" points="544.76,-139.44 555,-136.72 545.29,-132.47 544.76,-139.44"/>
</g>
<!-- Node2&#45;&gt;Node10 -->
<g id="edge13" class="edge">
<title>Node2&#45;&gt;Node10</title>
<path fill="none" stroke="midnightblue" d="M278.88,-120.14C299.99,-130.96 329.45,-145.57 356,-157 364.95,-160.85 374.57,-164.69 383.94,-168.27"/>
<polygon fill="midnightblue" stroke="midnightblue" points="382.98,-171.65 393.57,-171.9 385.45,-165.1 382.98,-171.65"/>
</g>
<!-- Node4 -->
<g id="node4" class="node">
<title>Node4</title>
<g id="a_node4"><a xlink:href="../../d9/d02/a00834.html#ae2138b8d9d5860eda7513092126ba601" target="_top" xlink:title=" ">
<polygon fill="none" stroke="black" points="564.5,-57.5 564.5,-76.5 724.5,-76.5 724.5,-57.5 564.5,-57.5"/>
<text text-anchor="middle" x="644.5" y="-64.5" font-family="Helvetica,sans-Serif" font-size="10.00">com.cliffc.aa.HM.HM7.T2.find</text>
</a>
</g>
</g>
<!-- Node3&#45;&gt;Node4 -->
<g id="edge4" class="edge">
<title>Node3&#45;&gt;Node4</title>
<path fill="none" stroke="midnightblue" d="M472.81,-19.54C507.55,-29.2 561.41,-44.18 599.32,-54.72"/>
<polygon fill="midnightblue" stroke="midnightblue" points="598.5,-58.12 609.08,-57.43 600.38,-51.38 598.5,-58.12"/>
</g>
<!-- Node5 -->
<g id="node5" class="node">
<title>Node5</title>
<g id="a_node5"><a xlink:href="../../d9/d02/a00834.html#aebfcad4f2e406516eef7fd39a6803752" target="_top" xlink:title=" ">
<polygon fill="none" stroke="black" points="975,-95.5 975,-114.5 1149,-114.5 1149,-95.5 975,-95.5"/>
<text text-anchor="middle" x="1062" y="-102.5" font-family="Helvetica,sans-Serif" font-size="10.00">com.cliffc.aa.HM.HM7.T2.is_leaf</text>
</a>
</g>
</g>
<!-- Node4&#45;&gt;Node5 -->
<g id="edge5" class="edge">
<title>Node4&#45;&gt;Node5</title>
<path fill="none" stroke="midnightblue" d="M724.77,-70.2C783.93,-73.06 866.67,-78.04 939,-86 957.79,-88.07 978.11,-90.96 996.67,-93.87"/>
<polygon fill="midnightblue" stroke="midnightblue" points="996.36,-97.37 1006.78,-95.49 997.46,-90.46 996.36,-97.37"/>
</g>
<!-- Node4&#45;&gt;Node8 -->
<g id="edge8" class="edge">
<title>Node4&#45;&gt;Node8</title>
<path fill="none" stroke="midnightblue" d="M697.72,-76.54C726.15,-81.73 761.52,-88.2 791.37,-93.65"/>
<polygon fill="midnightblue" stroke="midnightblue" points="790.79,-97.1 801.26,-95.46 792.05,-90.22 790.79,-97.1"/>
</g>
<!-- Node6 -->
<g id="node6" class="node">
<title>Node6</title>
<g id="a_node6"><a xlink:href="../../d9/d02/a00834.html#a1646dbd4ae347d254550074fb9dd89ac" target="_top" xlink:title=" ">
<polygon fill="none" stroke="black" points="1185,-114.5 1185,-133.5 1341,-133.5 1341,-114.5 1185,-114.5"/>
<text text-anchor="middle" x="1263" y="-121.5" font-family="Helvetica,sans-Serif" font-size="10.00">com.cliffc.aa.HM.HM7.T2.isa</text>
</a>
</g>
</g>
<!-- Node5&#45;&gt;Node6 -->
<g id="edge6" class="edge">
<title>Node5&#45;&gt;Node6</title>
<path fill="none" stroke="midnightblue" d="M1149.13,-113.22C1157.66,-114.04 1166.32,-114.87 1174.87,-115.68"/>
<polygon fill="midnightblue" stroke="midnightblue" points="1174.53,-119.16 1184.82,-116.63 1175.2,-112.2 1174.53,-119.16"/>
</g>
<!-- Node6&#45;&gt;Node7 -->
<g id="edge7" class="edge">
<title>Node6&#45;&gt;Node7</title>
<path fill="none" stroke="midnightblue" d="M1293.88,-114.46C1323.74,-104.92 1369.83,-90.21 1402.76,-79.69"/>
<polygon fill="midnightblue" stroke="midnightblue" points="1404.06,-82.95 1412.53,-76.57 1401.93,-76.28 1404.06,-82.95"/>
</g>
<!-- Node8&#45;&gt;Node5 -->
<g id="edge9" class="edge">
<title>Node8&#45;&gt;Node5</title>
<path fill="none" stroke="midnightblue" d="M939.08,-105C947.55,-105 956.2,-105 964.78,-105"/>
<polygon fill="midnightblue" stroke="midnightblue" points="964.82,-108.5 974.82,-105 964.82,-101.5 964.82,-108.5"/>
</g>
<!-- Node9&#45;&gt;Node6 -->
<g id="edge12" class="edge">
<title>Node9&#45;&gt;Node6</title>
<path fill="none" stroke="midnightblue" d="M734.16,-140.27C851.57,-136.65 1057.38,-130.31 1174.3,-126.7"/>
<polygon fill="midnightblue" stroke="midnightblue" points="1174.75,-130.19 1184.64,-126.38 1174.54,-123.19 1174.75,-130.19"/>
</g>
<!-- Node10&#45;&gt;Node6 -->
<g id="edge14" class="edge">
<title>Node10&#45;&gt;Node6</title>
<path fill="none" stroke="midnightblue" d="M512.65,-185.31C642.16,-181.74 917.83,-171.36 1149,-144 1167.36,-141.83 1187.26,-138.6 1205.17,-135.37"/>
<polygon fill="midnightblue" stroke="midnightblue" points="1205.97,-138.78 1215.17,-133.53 1204.7,-131.9 1205.97,-138.78"/>
</g>
</g>
</svg>
        <g id="navigator" transform="translate(0 0)" fill="#404254">
                <rect fill="#f2f5e9" fill-opacity="0.5" stroke="#606060" stroke-width=".5" x="0" y="0" width="60" height="60"/>
                <use id="zoomplus" xlink:href="#zoomPlus" x="17" y="9" onmousedown="handleZoom(evt,'in')"/>
                <use id="zoomminus" xlink:href="#zoomMin" x="42" y="9" onmousedown="handleZoom(evt,'out')"/>
                <use id="reset" xlink:href="#resetDef" x="30" y="36" onmousedown="handleReset()"/>
                <g id="arrowUp" xlink:href="#dirArrow" transform="translate(30 24)" onmousedown="handlePan(0,-1)">
                  <use xlink:href="#rim" fill="#404040">
                        <set attributeName="fill" to="#808080" begin="arrowUp.mouseover" end="arrowUp.mouseout"/>
                  </use>
                  <path fill="none" stroke="white" stroke-width="1.5" d="M0,-3.0v7 M-2.5,-0.5L0,-3.0L2.5,-0.5"/>
                </g>
                <g id="arrowRight" xlink:href="#dirArrow" transform="rotate(90) translate(36 -43)" onmousedown="handlePan(1,0)">
                  <use xlink:href="#rim" fill="#404040">
                        <set attributeName="fill" to="#808080" begin="arrowRight.mouseover" end="arrowRight.mouseout"/>
                  </use>
                  <path fill="none" stroke="white" stroke-width="1.5" d="M0,-3.0v7 M-2.5,-0.5L0,-3.0L2.5,-0.5"/>
                </g>
                <g id="arrowDown" xlink:href="#dirArrow" transform="rotate(180) translate(-30 -48)" onmousedown="handlePan(0,1)">
                  <use xlink:href="#rim" fill="#404040">
                        <set attributeName="fill" to="#808080" begin="arrowDown.mouseover" end="arrowDown.mouseout"/>
                  </use>
                  <path fill="none" stroke="white" stroke-width="1.5" d="M0,-3.0v7 M-2.5,-0.5L0,-3.0L2.5,-0.5"/>
                </g>
                <g id="arrowLeft" xlink:href="#dirArrow" transform="rotate(270) translate(-36 17)" onmousedown="handlePan(-1,0)">
                  <use xlink:href="#rim" fill="#404040">
                        <set attributeName="fill" to="#808080" begin="arrowLeft.mouseover" end="arrowLeft.mouseout"/>
                  </use>
                  <path fill="none" stroke="white" stroke-width="1.5" d="M0,-3.0v7 M-2.5,-0.5L0,-3.0L2.5,-0.5"/>
                </g>
        </g>
        <svg viewBox="0 0 15 15" width="100%" height="30px" preserveAspectRatio="xMaxYMin meet">
         <g id="arrow_out" transform="scale(0.3 0.3)">
          <a xlink:href="a00834_a0e136b0c029aa121397840a0b3048d59_cgraph_org.svg" target="_base">
           <rect id="button" ry="5" rx="5" y="6" x="6" height="38" width="38"
                fill="#f2f5e9" fill-opacity="0.5" stroke="#606060" stroke-width="1.0"/>
           <path id="arrow"
             d="M 11.500037,31.436501 C 11.940474,20.09759 22.043105,11.32322 32.158766,21.979434 L 37.068811,17.246167 C 37.068811,17.246167 37.088388,32 37.088388,32 L 22.160133,31.978069 C 22.160133,31.978069 26.997745,27.140456 26.997745,27.140456 C 18.528582,18.264221 13.291696,25.230495 11.500037,31.436501 z"
             style="fill:#404040;"/>
          </a>
         </g>
        </svg>
</svg>
