<?xml version="1.0" encoding="UTF-8" standalone="no"?>
<!DOCTYPE svg PUBLIC "-//W3C//DTD SVG 1.1//EN"
 "http://www.w3.org/Graphics/SVG/1.1/DTD/svg11.dtd">
<!-- Generated by graphviz version 2.43.0 (0)
 -->
<!-- Title: com.cliffc.aa.HM.HM7.T2.make_fun Pages: 1 -->
<svg width="1559pt" height="47pt"
 viewBox="0.00 0.00 1559.00 47.00" xmlns="http://www.w3.org/2000/svg" xmlns:xlink="http://www.w3.org/1999/xlink">
<g id="graph0" class="graph" transform="scale(1 1) rotate(0) translate(4 43)">
<title>com.cliffc.aa.HM.HM7.T2.make_fun</title>
<!-- Node1 -->
<g id="node1" class="node">
<title>Node1</title>
<g id="a_node1"><a xlink:title=" ">
<polygon fill="#bfbfbf" stroke="black" points="0,-19.5 0,-38.5 190,-38.5 190,-19.5 0,-19.5"/>
<text text-anchor="middle" x="95" y="-26.5" font-family="Helvetica,sans-Serif" font-size="10.00">com.cliffc.aa.HM.HM7.T2.make_fun</text>
</a>
</g>
</g>
<!-- Node2 -->
<g id="node2" class="node">
<title>Node2</title>
<g id="a_node2"><a xlink:href="../../d9/d02/a00834.html#ace8c0dea9eacc0627930c0d35d865712" target="_top" xlink:title=" ">
<polygon fill="none" stroke="black" points="416,-19.5 416,-38.5 579,-38.5 579,-19.5 416,-19.5"/>
<text text-anchor="middle" x="497.5" y="-26.5" font-family="Helvetica,sans-Serif" font-size="10.00">com.cliffc.aa.HM.HM7.T2.args</text>
</a>
</g>
</g>
<!-- Node1&#45;&gt;Node2 -->
<g id="edge1" class="edge">
<title>Node1&#45;&gt;Node2</title>
<path fill="none" stroke="midnightblue" d="M190.15,-29C255.23,-29 341.33,-29 405.68,-29"/>
<polygon fill="midnightblue" stroke="midnightblue" points="405.81,-32.5 415.81,-29 405.81,-25.5 405.81,-32.5"/>
</g>
<!-- Node8 -->
<g id="node8" class="node">
<title>Node8</title>
<g id="a_node8"><a xlink:href="../../d9/d02/a00834.html#aa8faebe928582db560473e1ed0b4c9b5" target="_top" xlink:title=" ">
<polygon fill="none" stroke="black" points="226,-0.5 226,-19.5 380,-19.5 380,-0.5 226,-0.5"/>
<text text-anchor="middle" x="303" y="-7.5" font-family="Helvetica,sans-Serif" font-size="10.00">com.cliffc.aa.HM.HM7.T2.T2</text>
</a>
</g>
</g>
<!-- Node1&#45;&gt;Node8 -->
<g id="edge8" class="edge">
<title>Node1&#45;&gt;Node8</title>
<path fill="none" stroke="midnightblue" d="M190.26,-20.31C198.77,-19.52 207.36,-18.73 215.8,-17.95"/>
<polygon fill="midnightblue" stroke="midnightblue" points="216.36,-21.41 226,-17.01 215.72,-14.44 216.36,-21.41"/>
</g>
<!-- Node3 -->
<g id="node3" class="node">
<title>Node3</title>
<g id="a_node3"><a xlink:href="../../d9/d02/a00834.html#ae2138b8d9d5860eda7513092126ba601" target="_top" xlink:title=" ">
<polygon fill="none" stroke="black" points="615,-19.5 615,-38.5 775,-38.5 775,-19.5 615,-19.5"/>
<text text-anchor="middle" x="695" y="-26.5" font-family="Helvetica,sans-Serif" font-size="10.00">com.cliffc.aa.HM.HM7.T2.find</text>
</a>
</g>
</g>
<!-- Node2&#45;&gt;Node3 -->
<g id="edge2" class="edge">
<title>Node2&#45;&gt;Node3</title>
<path fill="none" stroke="midnightblue" d="M579.15,-29C587.52,-29 596.07,-29 604.53,-29"/>
<polygon fill="midnightblue" stroke="midnightblue" points="604.8,-32.5 614.8,-29 604.8,-25.5 604.8,-32.5"/>
</g>
<!-- Node4 -->
<g id="node4" class="node">
<title>Node4</title>
<g id="a_node4"><a xlink:href="../../d9/d02/a00834.html#aebfcad4f2e406516eef7fd39a6803752" target="_top" xlink:title=" ">
<polygon fill="none" stroke="black" points="1016,-19.5 1016,-38.5 1190,-38.5 1190,-19.5 1016,-19.5"/>
<text text-anchor="middle" x="1103" y="-26.5" font-family="Helvetica,sans-Serif" font-size="10.00">com.cliffc.aa.HM.HM7.T2.is_leaf</text>
</a>
</g>
</g>
<!-- Node3&#45;&gt;Node4 -->
<g id="edge3" class="edge">
<title>Node3&#45;&gt;Node4</title>
<path fill="none" stroke="midnightblue" d="M775.24,-29C841.23,-29 935.43,-29 1005.74,-29"/>
<polygon fill="midnightblue" stroke="midnightblue" points="1005.94,-32.5 1015.94,-29 1005.94,-25.5 1005.94,-32.5"/>
</g>
<!-- Node7 -->
<g id="node7" class="node">
<title>Node7</title>
<g id="a_node7"><a xlink:href="../../d9/d02/a00834.html#a11a0879ef2674dd9fb3f9a1be59d3084" target="_top" xlink:title=" ">
<polygon fill="none" stroke="black" points="811,-0.5 811,-19.5 980,-19.5 980,-0.5 811,-0.5"/>
<text text-anchor="middle" x="895.5" y="-7.5" font-family="Helvetica,sans-Serif" font-size="10.00">com.cliffc.aa.HM.HM7.T2.no_uf</text>
</a>
</g>
</g>
<!-- Node3&#45;&gt;Node7 -->
<g id="edge6" class="edge">
<title>Node3&#45;&gt;Node7</title>
<path fill="none" stroke="midnightblue" d="M775.02,-21.44C783.49,-20.63 792.17,-19.79 800.79,-18.97"/>
<polygon fill="midnightblue" stroke="midnightblue" points="801.24,-22.44 810.87,-18.01 800.58,-15.47 801.24,-22.44"/>
</g>
<!-- Node5 -->
<g id="node5" class="node">
<title>Node5</title>
<g id="a_node5"><a xlink:href="../../d9/d02/a00834.html#a1646dbd4ae347d254550074fb9dd89ac" target="_top" xlink:title=" ">
<polygon fill="none" stroke="black" points="1226,-19.5 1226,-38.5 1382,-38.5 1382,-19.5 1226,-19.5"/>
<text text-anchor="middle" x="1304" y="-26.5" font-family="Helvetica,sans-Serif" font-size="10.00">com.cliffc.aa.HM.HM7.T2.isa</text>
</a>
</g>
</g>
<!-- Node4&#45;&gt;Node5 -->
<g id="edge4" class="edge">
<title>Node4&#45;&gt;Node5</title>
<path fill="none" stroke="midnightblue" d="M1190.13,-29C1198.57,-29 1207.14,-29 1215.59,-29"/>
<polygon fill="midnightblue" stroke="midnightblue" points="1215.82,-32.5 1225.82,-29 1215.82,-25.5 1215.82,-32.5"/>
</g>
<!-- Node6 -->
<g id="node6" class="node">
<title>Node6</title>
<g id="a_node6"><a xlink:href="../../dd/d55/a01638.html#a3975ba7dca9fe2d6e4992b2b5558f882" target="_top" xlink:title=" ">
<polygon fill="none" stroke="black" points="1418,-19.5 1418,-38.5 1551,-38.5 1551,-19.5 1418,-19.5"/>
<text text-anchor="middle" x="1484.5" y="-26.5" font-family="Helvetica,sans-Serif" font-size="10.00">com.cliffc.aa.util.Util.eq</text>
</a>
</g>
</g>
<!-- Node5&#45;&gt;Node6 -->
<g id="edge5" class="edge">
<title>Node5&#45;&gt;Node6</title>
<path fill="none" stroke="midnightblue" d="M1382.25,-29C1390.69,-29 1399.28,-29 1407.7,-29"/>
<polygon fill="midnightblue" stroke="midnightblue" points="1407.87,-32.5 1417.87,-29 1407.87,-25.5 1407.87,-32.5"/>
</g>
<!-- Node7&#45;&gt;Node4 -->
<g id="edge7" class="edge">
<title>Node7&#45;&gt;Node4</title>
<path fill="none" stroke="midnightblue" d="M980.08,-17.73C988.55,-18.51 997.2,-19.31 1005.78,-20.1"/>
<polygon fill="midnightblue" stroke="midnightblue" points="1005.54,-23.6 1015.82,-21.03 1006.18,-16.63 1005.54,-23.6"/>
</g>
<!-- Node8&#45;&gt;Node2 -->
<g id="edge9" class="edge">
<title>Node8&#45;&gt;Node2</title>
<path fill="none" stroke="midnightblue" d="M380.08,-17.51C388.54,-18.34 397.22,-19.2 405.84,-20.05"/>
<polygon fill="midnightblue" stroke="midnightblue" points="405.61,-23.55 415.91,-21.05 406.3,-16.58 405.61,-23.55"/>
</g>
</g>
</svg>
