<?xml version="1.0" encoding="UTF-8" standalone="no"?>
<!DOCTYPE svg PUBLIC "-//W3C//DTD SVG 1.1//EN"
 "http://www.w3.org/Graphics/SVG/1.1/DTD/svg11.dtd">
<!-- Generated by graphviz version 2.43.0 (0)
 -->
<!-- Title: com.cliffc.aa.node.LoadNode.live_use Pages: 1 -->
<svg width="1741pt" height="749pt"
 viewBox="0.00 0.00 1741.00 748.50" xmlns="http://www.w3.org/2000/svg" xmlns:xlink="http://www.w3.org/1999/xlink">
<g id="graph0" class="graph" transform="scale(1 1) rotate(0) translate(4 744.5)">
<title>com.cliffc.aa.node.LoadNode.live_use</title>
<!-- Node1 -->
<g id="node1" class="node">
<title>Node1</title>
<g id="a_node1"><a xlink:title=" ">
<polygon fill="#bfbfbf" stroke="black" points="0,-104.5 0,-123.5 201,-123.5 201,-104.5 0,-104.5"/>
<text text-anchor="middle" x="100.5" y="-111.5" font-family="Helvetica,sans-Serif" font-size="10.00">com.cliffc.aa.node.LoadNode.live_use</text>
</a>
</g>
</g>
<!-- Node2 -->
<g id="node2" class="node">
<title>Node2</title>
<g id="a_node2"><a xlink:href="../../d0/dfb/a01066.html#ad0aa5c9f45cb37abe56da01c859c2c00" target="_top" xlink:title=" ">
<polygon fill="none" stroke="black" points="250,-301 250,-331 411,-331 411,-301 250,-301"/>
<text text-anchor="start" x="258" y="-319" font-family="Helvetica,sans-Serif" font-size="10.00">com.cliffc.aa.node.LoadNode.</text>
<text text-anchor="middle" x="330.5" y="-308" font-family="Helvetica,sans-Serif" font-size="10.00">_live_use</text>
</a>
</g>
</g>
<!-- Node1&#45;&gt;Node2 -->
<g id="edge1" class="edge">
<title>Node1&#45;&gt;Node2</title>
<path fill="none" stroke="midnightblue" d="M112.5,-123.74C147.3,-154.57 255.61,-250.54 304.78,-294.1"/>
<polygon fill="midnightblue" stroke="midnightblue" points="302.61,-296.85 312.42,-300.87 307.25,-291.62 302.61,-296.85"/>
</g>
<!-- Node4 -->
<g id="node4" class="node">
<title>Node4</title>
<g id="a_node4"><a xlink:href="../../d0/dfb/a01066.html#a0579942399a763eee9b9c91633203c86" target="_top" xlink:title=" ">
<polygon fill="none" stroke="black" points="1156.5,-202.5 1156.5,-221.5 1332.5,-221.5 1332.5,-202.5 1156.5,-202.5"/>
<text text-anchor="middle" x="1244.5" y="-209.5" font-family="Helvetica,sans-Serif" font-size="10.00">com.cliffc.aa.node.LoadNode.adr</text>
</a>
</g>
</g>
<!-- Node1&#45;&gt;Node4 -->
<g id="edge50" class="edge">
<title>Node1&#45;&gt;Node4</title>
<path fill="none" stroke="midnightblue" d="M201.15,-121.51C294.37,-127.88 437.54,-136 562,-136 562,-136 562,-136 790.5,-136 931.42,-136 969.72,-123.18 1107,-155 1146.88,-164.24 1190.03,-184.08 1216.91,-197.73"/>
<polygon fill="midnightblue" stroke="midnightblue" points="1215.55,-200.97 1226.04,-202.45 1218.76,-194.75 1215.55,-200.97"/>
</g>
<!-- Node36 -->
<g id="node36" class="node">
<title>Node36</title>
<g id="a_node36"><a xlink:href="../../d6/d51/a01494.html#a0eecce7cc3a48609b618fd6ba69927f1" target="_top" xlink:title=" ">
<polygon fill="none" stroke="black" points="237,-77 237,-107 424,-107 424,-77 237,-77"/>
<text text-anchor="start" x="245" y="-95" font-family="Helvetica,sans-Serif" font-size="10.00">com.cliffc.aa.type.TypeMem.above</text>
<text text-anchor="middle" x="330.5" y="-84" font-family="Helvetica,sans-Serif" font-size="10.00">_center</text>
</a>
</g>
</g>
<!-- Node1&#45;&gt;Node36 -->
<g id="edge49" class="edge">
<title>Node1&#45;&gt;Node36</title>
<path fill="none" stroke="midnightblue" d="M200.18,-104.48C209.01,-103.63 217.97,-102.76 226.83,-101.91"/>
<polygon fill="midnightblue" stroke="midnightblue" points="227.17,-105.39 236.79,-100.95 226.5,-98.42 227.17,-105.39"/>
</g>
<!-- Node37 -->
<g id="node37" class="node">
<title>Node37</title>
<g id="a_node37"><a xlink:href="../../df/db5/a01158.html#a14b4db4eb1ac03fbbb3c9e7b02f0d81e" target="_top" xlink:title=" ">
<polygon fill="none" stroke="black" points="253,-38.5 253,-57.5 408,-57.5 408,-38.5 253,-38.5"/>
<text text-anchor="middle" x="330.5" y="-45.5" font-family="Helvetica,sans-Serif" font-size="10.00">com.cliffc.aa.node.Node.live</text>
</a>
</g>
</g>
<!-- Node1&#45;&gt;Node37 -->
<g id="edge51" class="edge">
<title>Node1&#45;&gt;Node37</title>
<path fill="none" stroke="midnightblue" d="M126.17,-104.35C153.09,-94.07 197.63,-77.82 237,-67 246.6,-64.36 256.86,-61.9 266.91,-59.69"/>
<polygon fill="midnightblue" stroke="midnightblue" points="267.82,-63.08 276.87,-57.56 266.36,-56.23 267.82,-63.08"/>
</g>
<!-- Node3 -->
<g id="node3" class="node">
<title>Node3</title>
<g id="a_node3"><a xlink:href="../../d0/de2/a01442.html#aa714dfa13a9224150753af2d8efde48d" target="_top" xlink:title=" ">
<polygon fill="none" stroke="black" points="482,-257 482,-287 644,-287 644,-257 482,-257"/>
<text text-anchor="start" x="490" y="-275" font-family="Helvetica,sans-Serif" font-size="10.00">com.cliffc.aa.type.Type.above</text>
<text text-anchor="middle" x="563" y="-264" font-family="Helvetica,sans-Serif" font-size="10.00">_center</text>
</a>
</g>
</g>
<!-- Node2&#45;&gt;Node3 -->
<g id="edge2" class="edge">
<title>Node2&#45;&gt;Node3</title>
<path fill="none" stroke="midnightblue" d="M410.18,-300.98C430.47,-297.11 452.44,-292.91 473.2,-288.95"/>
<polygon fill="midnightblue" stroke="midnightblue" points="474.12,-292.34 483.28,-287.03 472.8,-285.46 474.12,-292.34"/>
</g>
<!-- Node2&#45;&gt;Node4 -->
<g id="edge3" class="edge">
<title>Node2&#45;&gt;Node4</title>
<path fill="none" stroke="midnightblue" d="M353,-300.8C377.56,-284.38 419.59,-259.08 460,-248 699.73,-182.26 995.98,-191.98 1146.23,-202.96"/>
<polygon fill="midnightblue" stroke="midnightblue" points="1146.12,-206.46 1156.36,-203.72 1146.65,-199.48 1146.12,-206.46"/>
</g>
<!-- Node6 -->
<g id="node6" class="node">
<title>Node6</title>
<g id="a_node6"><a xlink:href="../../d0/dfb/a01066.html#ad67f57cb1fc3b5558e0e909b8bc7d145" target="_top" xlink:title=" ">
<polygon fill="none" stroke="black" points="702.5,-344.5 702.5,-363.5 876.5,-363.5 876.5,-344.5 702.5,-344.5"/>
<text text-anchor="middle" x="789.5" y="-351.5" font-family="Helvetica,sans-Serif" font-size="10.00">com.cliffc.aa.node.LoadNode.err</text>
</a>
</g>
</g>
<!-- Node2&#45;&gt;Node6 -->
<g id="edge5" class="edge">
<title>Node2&#45;&gt;Node6</title>
<path fill="none" stroke="midnightblue" d="M411.22,-328.91C427.33,-331.21 444.18,-333.38 460,-335 537.81,-342.99 626.36,-347.87 691.9,-350.68"/>
<polygon fill="midnightblue" stroke="midnightblue" points="692.08,-354.19 702.22,-351.11 692.38,-347.19 692.08,-354.19"/>
</g>
<!-- Node21 -->
<g id="node21" class="node">
<title>Node21</title>
<g id="a_node21"><a xlink:href="../../d0/de2/a01442.html#a388429cb6bea455104e3b9690d992854" target="_top" xlink:title=" ">
<polygon fill="none" stroke="black" points="1180,-441 1180,-471 1309,-471 1309,-441 1180,-441"/>
<text text-anchor="start" x="1188" y="-459" font-family="Helvetica,sans-Serif" font-size="10.00">com.cliffc.aa.type.Type</text>
<text text-anchor="middle" x="1244.5" y="-448" font-family="Helvetica,sans-Serif" font-size="10.00">&lt; TypeMem &gt;::oob</text>
</a>
</g>
</g>
<!-- Node2&#45;&gt;Node21 -->
<g id="edge48" class="edge">
<title>Node2&#45;&gt;Node21</title>
<path fill="none" stroke="midnightblue" d="M372.33,-331.03C466.17,-364.66 705.13,-445.03 913,-471 1000.82,-481.97 1102.66,-474.3 1169.83,-466.46"/>
<polygon fill="midnightblue" stroke="midnightblue" points="1170.38,-469.91 1179.89,-465.25 1169.54,-462.96 1170.38,-469.91"/>
</g>
<!-- Node22 -->
<g id="node22" class="node">
<title>Node22</title>
<g id="a_node22"><a xlink:href="../../d0/dfb/a01066.html#aa6e9a503ddcc445f5747f535b78121c9" target="_top" xlink:title=" ">
<polygon fill="none" stroke="black" points="917,-164.5 917,-183.5 1103,-183.5 1103,-164.5 917,-164.5"/>
<text text-anchor="middle" x="1010" y="-171.5" font-family="Helvetica,sans-Serif" font-size="10.00">com.cliffc.aa.node.LoadNode.mem</text>
</a>
</g>
</g>
<!-- Node2&#45;&gt;Node22 -->
<g id="edge47" class="edge">
<title>Node2&#45;&gt;Node22</title>
<path fill="none" stroke="midnightblue" d="M342.12,-300.91C361.81,-274.37 406.85,-220.05 460,-198 538.02,-165.63 770.76,-166.56 906.86,-170.21"/>
<polygon fill="midnightblue" stroke="midnightblue" points="906.8,-173.71 916.89,-170.49 907,-166.71 906.8,-173.71"/>
</g>
<!-- Node25 -->
<g id="node25" class="node">
<title>Node25</title>
<g id="a_node25"><a xlink:href="../../d0/dfb/a01066.html#a318ad28c75cfa00cdbe71886baea637d" target="_top" xlink:title=" ">
<polygon fill="none" stroke="black" points="463,-521.5 463,-540.5 663,-540.5 663,-521.5 463,-521.5"/>
<text text-anchor="middle" x="563" y="-528.5" font-family="Helvetica,sans-Serif" font-size="10.00">com.cliffc.aa.node.LoadNode.get_fld2</text>
</a>
</g>
</g>
<!-- Node2&#45;&gt;Node25 -->
<g id="edge30" class="edge">
<title>Node2&#45;&gt;Node25</title>
<path fill="none" stroke="midnightblue" d="M337.16,-331.24C351.57,-367.8 393.26,-460.87 460,-507 466.42,-511.44 473.55,-515.06 480.97,-518.02"/>
<polygon fill="midnightblue" stroke="midnightblue" points="479.91,-521.36 490.5,-521.42 482.26,-514.76 479.91,-521.36"/>
</g>
<!-- Node28 -->
<g id="node28" class="node">
<title>Node28</title>
<g id="a_node28"><a xlink:href="../../d6/d51/a01494.html#af1dbba193679155c6b62efab9fd59039" target="_top" xlink:title=" ">
<polygon fill="none" stroke="black" points="702,-484 702,-514 877,-514 877,-484 702,-484"/>
<text text-anchor="start" x="710" y="-502" font-family="Helvetica,sans-Serif" font-size="10.00">com.cliffc.aa.type.TypeMem.live</text>
<text text-anchor="middle" x="789.5" y="-491" font-family="Helvetica,sans-Serif" font-size="10.00">_no_disp</text>
</a>
</g>
</g>
<!-- Node2&#45;&gt;Node28 -->
<g id="edge46" class="edge">
<title>Node2&#45;&gt;Node28</title>
<path fill="none" stroke="midnightblue" d="M338.93,-331.1C355.55,-363.06 399.13,-437.18 460,-469 531.21,-506.22 623.03,-511.65 691.48,-508.96"/>
<polygon fill="midnightblue" stroke="midnightblue" points="692.01,-512.44 701.84,-508.49 691.69,-505.45 692.01,-512.44"/>
</g>
<!-- Node35 -->
<g id="node35" class="node">
<title>Node35</title>
<g id="a_node35"><a xlink:href="../../d0/de2/a01442.html#a2d1a737fc331611b5996126d31da26fd" target="_top" xlink:title=" ">
<polygon fill="none" stroke="black" points="481.5,-306.5 481.5,-325.5 644.5,-325.5 644.5,-306.5 481.5,-306.5"/>
<text text-anchor="middle" x="563" y="-313.5" font-family="Helvetica,sans-Serif" font-size="10.00">com.cliffc.aa.type.Type.is_con</text>
</a>
</g>
</g>
<!-- Node2&#45;&gt;Node35 -->
<g id="edge45" class="edge">
<title>Node2&#45;&gt;Node35</title>
<path fill="none" stroke="midnightblue" d="M411.15,-316C430.43,-316 451.18,-316 470.95,-316"/>
<polygon fill="midnightblue" stroke="midnightblue" points="471.18,-319.5 481.18,-316 471.18,-312.5 471.18,-319.5"/>
</g>
<!-- Node5 -->
<g id="node5" class="node">
<title>Node5</title>
<g id="a_node5"><a xlink:href="../../df/db5/a01158.html#a9a46cea187559f94192aa6e09b91c60c" target="_top" xlink:title=" ">
<polygon fill="none" stroke="black" points="1400,-196.5 1400,-215.5 1546,-215.5 1546,-196.5 1400,-196.5"/>
<text text-anchor="middle" x="1473" y="-203.5" font-family="Helvetica,sans-Serif" font-size="10.00">com.cliffc.aa.node.Node.in</text>
</a>
</g>
</g>
<!-- Node4&#45;&gt;Node5 -->
<g id="edge4" class="edge">
<title>Node4&#45;&gt;Node5</title>
<path fill="none" stroke="midnightblue" d="M1332.75,-209.69C1351.46,-209.19 1371.18,-208.67 1389.7,-208.18"/>
<polygon fill="midnightblue" stroke="midnightblue" points="1389.95,-211.67 1399.86,-207.91 1389.77,-204.68 1389.95,-211.67"/>
</g>
<!-- Node6&#45;&gt;Node4 -->
<g id="edge6" class="edge">
<title>Node6&#45;&gt;Node4</title>
<path fill="none" stroke="midnightblue" d="M801.03,-344.29C821.14,-326.34 867.1,-288.06 913,-269 955.59,-251.31 1072,-233.69 1154.57,-222.83"/>
<polygon fill="midnightblue" stroke="midnightblue" points="1155.26,-226.27 1164.72,-221.5 1154.35,-219.33 1155.26,-226.27"/>
</g>
<!-- Node7 -->
<g id="node7" class="node">
<title>Node7</title>
<g id="a_node7"><a xlink:href="../../d0/dfb/a01066.html#a49b5c8c93ac9b27945355814c4ea11d7" target="_top" xlink:title=" ">
<polygon fill="none" stroke="black" points="920.5,-278.5 920.5,-297.5 1099.5,-297.5 1099.5,-278.5 920.5,-278.5"/>
<text text-anchor="middle" x="1010" y="-285.5" font-family="Helvetica,sans-Serif" font-size="10.00">com.cliffc.aa.node.LoadNode.bad</text>
</a>
</g>
</g>
<!-- Node6&#45;&gt;Node7 -->
<g id="edge7" class="edge">
<title>Node6&#45;&gt;Node7</title>
<path fill="none" stroke="midnightblue" d="M812.24,-344.36C836.44,-333.93 876.89,-317.42 913,-307 922.49,-304.26 932.62,-301.79 942.61,-299.6"/>
<polygon fill="midnightblue" stroke="midnightblue" points="943.46,-303 952.52,-297.51 942.01,-296.15 943.46,-303"/>
</g>
<!-- Node14 -->
<g id="node14" class="node">
<title>Node14</title>
<g id="a_node14"><a xlink:href="../../d0/dfb/a01066.html#af62d2b9b8d98a334d90f5126a53024ce" target="_top" xlink:title=" ">
<polygon fill="none" stroke="black" points="920.5,-442.5 920.5,-461.5 1099.5,-461.5 1099.5,-442.5 920.5,-442.5"/>
<text text-anchor="middle" x="1010" y="-449.5" font-family="Helvetica,sans-Serif" font-size="10.00">com.cliffc.aa.node.LoadNode.find</text>
</a>
</g>
</g>
<!-- Node6&#45;&gt;Node14 -->
<g id="edge16" class="edge">
<title>Node6&#45;&gt;Node14</title>
<path fill="none" stroke="midnightblue" d="M802.17,-363.72C823.02,-380.56 868.66,-415.08 913,-433 919.61,-435.67 926.62,-437.97 933.74,-439.96"/>
<polygon fill="midnightblue" stroke="midnightblue" points="932.92,-443.37 943.48,-442.48 934.68,-436.59 932.92,-443.37"/>
</g>
<!-- Node19 -->
<g id="node19" class="node">
<title>Node19</title>
<g id="a_node19"><a xlink:href="../../d6/d51/a01494.html#ad3077bf21bc4e61636248c2f053d3102" target="_top" xlink:title=" ">
<polygon fill="none" stroke="black" points="927,-404.5 927,-423.5 1093,-423.5 1093,-404.5 927,-404.5"/>
<text text-anchor="middle" x="1010" y="-411.5" font-family="Helvetica,sans-Serif" font-size="10.00">com.cliffc.aa.type.TypeMem.ld</text>
</a>
</g>
</g>
<!-- Node6&#45;&gt;Node19 -->
<g id="edge22" class="edge">
<title>Node6&#45;&gt;Node19</title>
<path fill="none" stroke="midnightblue" d="M816.02,-363.6C840.6,-372.6 878.97,-385.98 913,-395 923.14,-397.69 933.98,-400.19 944.58,-402.43"/>
<polygon fill="midnightblue" stroke="midnightblue" points="944.15,-405.91 954.65,-404.5 945.56,-399.06 944.15,-405.91"/>
</g>
<!-- Node6&#45;&gt;Node22 -->
<g id="edge25" class="edge">
<title>Node6&#45;&gt;Node22</title>
<path fill="none" stroke="midnightblue" d="M799.16,-344.48C818.47,-323.55 866.94,-272.49 913,-236 935.55,-218.13 963.36,-200.61 983.24,-188.78"/>
<polygon fill="midnightblue" stroke="midnightblue" points="985.18,-191.69 992.03,-183.6 981.63,-185.66 985.18,-191.69"/>
</g>
<!-- Node23 -->
<g id="node23" class="node">
<title>Node23</title>
<g id="a_node23"><a xlink:href="../../d0/de2/a01442.html#a67a14d34b0f309e285e16b850e9df19f" target="_top" xlink:title=" ">
<polygon fill="none" stroke="black" points="923,-316.5 923,-335.5 1097,-335.5 1097,-316.5 923,-316.5"/>
<text text-anchor="middle" x="1010" y="-323.5" font-family="Helvetica,sans-Serif" font-size="10.00">com.cliffc.aa.type.Type.must_nil</text>
</a>
</g>
</g>
<!-- Node6&#45;&gt;Node23 -->
<g id="edge27" class="edge">
<title>Node6&#45;&gt;Node23</title>
<path fill="none" stroke="midnightblue" d="M864.78,-344.48C883.95,-342.02 904.73,-339.36 924.39,-336.84"/>
<polygon fill="midnightblue" stroke="midnightblue" points="925.08,-340.28 934.56,-335.54 924.19,-333.34 925.08,-340.28"/>
</g>
<!-- Node24 -->
<g id="node24" class="node">
<title>Node24</title>
<g id="a_node24"><a xlink:href="../../dc/dee/a01166.html#aa131d604fbb59e7e400bb5c41ebcc918" target="_top" xlink:title=" ">
<polygon fill="none" stroke="black" points="941.5,-355 941.5,-385 1078.5,-385 1078.5,-355 941.5,-355"/>
<text text-anchor="start" x="949.5" y="-373" font-family="Helvetica,sans-Serif" font-size="10.00">com.cliffc.aa.node.Node.</text>
<text text-anchor="middle" x="1010" y="-362" font-family="Helvetica,sans-Serif" font-size="10.00">ErrMsg.niladr</text>
</a>
</g>
</g>
<!-- Node6&#45;&gt;Node24 -->
<g id="edge28" class="edge">
<title>Node6&#45;&gt;Node24</title>
<path fill="none" stroke="midnightblue" d="M876.54,-360.3C894.51,-361.62 913.36,-363 931.02,-364.29"/>
<polygon fill="midnightblue" stroke="midnightblue" points="931.03,-367.8 941.26,-365.04 931.54,-360.82 931.03,-367.8"/>
</g>
<!-- Node7&#45;&gt;Node4 -->
<g id="edge8" class="edge">
<title>Node7&#45;&gt;Node4</title>
<path fill="none" stroke="midnightblue" d="M1065.7,-278.48C1079.58,-274.96 1094.18,-270.24 1107,-264 1125.23,-255.13 1124.73,-244.78 1143,-236 1153.07,-231.16 1164.18,-227.26 1175.24,-224.12"/>
<polygon fill="midnightblue" stroke="midnightblue" points="1176.15,-227.5 1184.92,-221.56 1174.35,-220.74 1176.15,-227.5"/>
</g>
<!-- Node7&#45;&gt;Node5 -->
<g id="edge15" class="edge">
<title>Node7&#45;&gt;Node5</title>
<path fill="none" stroke="midnightblue" d="M1069.79,-278.5C1136.75,-267.56 1249.4,-248.8 1346,-231 1368.82,-226.8 1393.89,-221.88 1415.63,-217.53"/>
<polygon fill="midnightblue" stroke="midnightblue" points="1416.57,-220.91 1425.68,-215.5 1415.19,-214.05 1416.57,-220.91"/>
</g>
<!-- Node8 -->
<g id="node8" class="node">
<title>Node8</title>
<g id="a_node8"><a xlink:href="../../dc/dee/a01166.html#a98083a6fce0f5fae321e8a4a7b20dd2b" target="_top" xlink:title=" ">
<polygon fill="none" stroke="black" points="1176,-279 1176,-309 1313,-309 1313,-279 1176,-279"/>
<text text-anchor="start" x="1184" y="-297" font-family="Helvetica,sans-Serif" font-size="10.00">com.cliffc.aa.node.Node.</text>
<text text-anchor="middle" x="1244.5" y="-286" font-family="Helvetica,sans-Serif" font-size="10.00">ErrMsg.field</text>
</a>
</g>
</g>
<!-- Node7&#45;&gt;Node8 -->
<g id="edge9" class="edge">
<title>Node7&#45;&gt;Node8</title>
<path fill="none" stroke="midnightblue" d="M1099.56,-290.29C1121.29,-290.85 1144.38,-291.44 1165.57,-291.99"/>
<polygon fill="midnightblue" stroke="midnightblue" points="1165.71,-295.49 1175.8,-292.25 1165.89,-288.5 1165.71,-295.49"/>
</g>
<!-- Node9 -->
<g id="node9" class="node">
<title>Node9</title>
<g id="a_node9"><a xlink:href="../../dc/dee/a01166.html#a02c185f9d57847aa3414ee3b72c59c12" target="_top" xlink:title=" ">
<polygon fill="none" stroke="black" points="1404.5,-361 1404.5,-391 1541.5,-391 1541.5,-361 1404.5,-361"/>
<text text-anchor="start" x="1412.5" y="-379" font-family="Helvetica,sans-Serif" font-size="10.00">com.cliffc.aa.node.Node.</text>
<text text-anchor="middle" x="1473" y="-368" font-family="Helvetica,sans-Serif" font-size="10.00">ErrMsg.ErrMsg</text>
</a>
</g>
</g>
<!-- Node8&#45;&gt;Node9 -->
<g id="edge10" class="edge">
<title>Node8&#45;&gt;Node9</title>
<path fill="none" stroke="midnightblue" d="M1278.43,-309.11C1305.8,-321.34 1345.96,-338.52 1382,-351 1388.95,-353.41 1396.27,-355.75 1403.6,-357.97"/>
<polygon fill="midnightblue" stroke="midnightblue" points="1402.99,-361.44 1413.58,-360.91 1404.98,-354.72 1402.99,-361.44"/>
</g>
<!-- Node10 -->
<g id="node10" class="node">
<title>Node10</title>
<g id="a_node10"><a xlink:href="../../d4/d99/a01634.html#ac801338e82849a7fe2ae7a0feb80bb55" target="_top" xlink:title=" ">
<polygon fill="none" stroke="black" points="1412,-234.5 1412,-253.5 1534,-253.5 1534,-234.5 1412,-234.5"/>
<text text-anchor="middle" x="1473" y="-241.5" font-family="Helvetica,sans-Serif" font-size="10.00">com.cliffc.aa.util.SB.p</text>
</a>
</g>
</g>
<!-- Node8&#45;&gt;Node10 -->
<g id="edge11" class="edge">
<title>Node8&#45;&gt;Node10</title>
<path fill="none" stroke="midnightblue" d="M1313.15,-279.07C1347.03,-271.59 1387.44,-262.67 1419.02,-255.69"/>
<polygon fill="midnightblue" stroke="midnightblue" points="1419.94,-259.08 1428.95,-253.5 1418.43,-252.24 1419.94,-259.08"/>
</g>
<!-- Node12 -->
<g id="node12" class="node">
<title>Node12</title>
<g id="a_node12"><a xlink:href="../../de/dc6/a01502.html#ae039535ed6191f45a3e6c4c7e85fc7b0" target="_top" xlink:title=" ">
<polygon fill="none" stroke="black" points="1392.5,-322.5 1392.5,-341.5 1553.5,-341.5 1553.5,-322.5 1392.5,-322.5"/>
<text text-anchor="middle" x="1473" y="-329.5" font-family="Helvetica,sans-Serif" font-size="10.00">com.cliffc.aa.type.TypeObj.str</text>
</a>
</g>
</g>
<!-- Node8&#45;&gt;Node12 -->
<g id="edge13" class="edge">
<title>Node8&#45;&gt;Node12</title>
<path fill="none" stroke="midnightblue" d="M1313.15,-305.35C1342.19,-310.22 1376.02,-315.9 1404.99,-320.76"/>
<polygon fill="midnightblue" stroke="midnightblue" points="1404.57,-324.24 1415.01,-322.44 1405.73,-317.33 1404.57,-324.24"/>
</g>
<!-- Node13 -->
<g id="node13" class="node">
<title>Node13</title>
<g id="a_node13"><a xlink:href="../../d4/d99/a01634.html#a810e7fa54cbd178760c86b30b2aa893c" target="_top" xlink:title=" ">
<polygon fill="none" stroke="black" points="1410,-273 1410,-303 1536,-303 1536,-273 1410,-273"/>
<text text-anchor="start" x="1418" y="-291" font-family="Helvetica,sans-Serif" font-size="10.00">com.cliffc.aa.util.SB.to</text>
<text text-anchor="middle" x="1473" y="-280" font-family="Helvetica,sans-Serif" font-size="10.00">String</text>
</a>
</g>
</g>
<!-- Node8&#45;&gt;Node13 -->
<g id="edge14" class="edge">
<title>Node8&#45;&gt;Node13</title>
<path fill="none" stroke="midnightblue" d="M1313.15,-292.21C1340.43,-291.49 1371.96,-290.65 1399.69,-289.92"/>
<polygon fill="midnightblue" stroke="midnightblue" points="1399.82,-293.41 1409.72,-289.65 1399.63,-286.42 1399.82,-293.41"/>
</g>
<!-- Node11 -->
<g id="node11" class="node">
<title>Node11</title>
<g id="a_node11"><a xlink:href="../../d4/d99/a01634.html#abd1b8ac722e0fb0bf1e7b2ea0eaeb0b6" target="_top" xlink:title=" ">
<polygon fill="none" stroke="black" points="1605.5,-234.5 1605.5,-253.5 1727.5,-253.5 1727.5,-234.5 1605.5,-234.5"/>
<text text-anchor="middle" x="1666.5" y="-241.5" font-family="Helvetica,sans-Serif" font-size="10.00">com.cliffc.aa.util.SB.s</text>
</a>
</g>
</g>
<!-- Node10&#45;&gt;Node11 -->
<g id="edge12" class="edge">
<title>Node10&#45;&gt;Node11</title>
<path fill="none" stroke="midnightblue" d="M1534.07,-244C1553.49,-244 1575.2,-244 1595.29,-244"/>
<polygon fill="midnightblue" stroke="midnightblue" points="1595.32,-247.5 1605.32,-244 1595.32,-240.5 1595.32,-247.5"/>
</g>
<!-- Node15 -->
<g id="node15" class="node">
<title>Node15</title>
<g id="a_node15"><a xlink:href="../../da/da6/a01522.html#aec3e7b3c5046f4c39cf2d40f89b8c27f" target="_top" xlink:title=" ">
<polygon fill="none" stroke="black" points="1146.5,-490.5 1146.5,-509.5 1342.5,-509.5 1342.5,-490.5 1146.5,-490.5"/>
<text text-anchor="middle" x="1244.5" y="-497.5" font-family="Helvetica,sans-Serif" font-size="10.00">com.cliffc.aa.type.TypeStruct.fld_find</text>
</a>
</g>
</g>
<!-- Node14&#45;&gt;Node15 -->
<g id="edge17" class="edge">
<title>Node14&#45;&gt;Node15</title>
<path fill="none" stroke="midnightblue" d="M1052.84,-461.52C1078.77,-467.34 1112.77,-474.82 1143,-481 1155.42,-483.54 1168.74,-486.14 1181.48,-488.57"/>
<polygon fill="midnightblue" stroke="midnightblue" points="1181.06,-492.05 1191.54,-490.48 1182.37,-485.18 1181.06,-492.05"/>
</g>
<!-- Node16 -->
<g id="node16" class="node">
<title>Node16</title>
<g id="a_node16"><a xlink:href="../../dd/d55/a01638.html#a3975ba7dca9fe2d6e4992b2b5558f882" target="_top" xlink:title=" ">
<polygon fill="none" stroke="black" points="1600,-490.5 1600,-509.5 1733,-509.5 1733,-490.5 1600,-490.5"/>
<text text-anchor="middle" x="1666.5" y="-497.5" font-family="Helvetica,sans-Serif" font-size="10.00">com.cliffc.aa.util.Util.eq</text>
</a>
</g>
</g>
<!-- Node15&#45;&gt;Node16 -->
<g id="edge18" class="edge">
<title>Node15&#45;&gt;Node16</title>
<path fill="none" stroke="midnightblue" d="M1301.1,-509.51C1325.8,-513.28 1355.27,-517.15 1382,-519 1462.7,-524.59 1483.46,-526.47 1564,-519 1580.4,-517.48 1598.1,-514.6 1614.06,-511.54"/>
<polygon fill="midnightblue" stroke="midnightblue" points="1615.14,-514.89 1624.26,-509.51 1613.77,-508.03 1615.14,-514.89"/>
</g>
<!-- Node17 -->
<g id="node17" class="node">
<title>Node17</title>
<g id="a_node17"><a xlink:href="../../da/da6/a01522.html#a0984a14a17ea738bf84cc9453fbf7147" target="_top" xlink:title=" ">
<polygon fill="none" stroke="black" points="1386.5,-490.5 1386.5,-509.5 1559.5,-509.5 1559.5,-490.5 1386.5,-490.5"/>
<text text-anchor="middle" x="1473" y="-497.5" font-family="Helvetica,sans-Serif" font-size="10.00">com.cliffc.aa.type.TypeStruct.fld</text>
</a>
</g>
</g>
<!-- Node15&#45;&gt;Node17 -->
<g id="edge19" class="edge">
<title>Node15&#45;&gt;Node17</title>
<path fill="none" stroke="midnightblue" d="M1342.54,-500C1353.67,-500 1365,-500 1376.11,-500"/>
<polygon fill="midnightblue" stroke="midnightblue" points="1376.23,-503.5 1386.23,-500 1376.23,-496.5 1376.23,-503.5"/>
</g>
<!-- Node18 -->
<g id="node18" class="node">
<title>Node18</title>
<g id="a_node18"><a xlink:href="../../d7/dd1/a01458.html#a83878d7bf130b454c5c027e106056d5f" target="_top" xlink:title=" ">
<polygon fill="none" stroke="black" points="1382,-452.5 1382,-471.5 1564,-471.5 1564,-452.5 1382,-452.5"/>
<text text-anchor="middle" x="1473" y="-459.5" font-family="Helvetica,sans-Serif" font-size="10.00">com.cliffc.aa.type.TypeFld.fld_find</text>
</a>
</g>
</g>
<!-- Node15&#45;&gt;Node18 -->
<g id="edge20" class="edge">
<title>Node15&#45;&gt;Node18</title>
<path fill="none" stroke="midnightblue" d="M1302.36,-490.46C1333.6,-485.22 1372.51,-478.69 1405.19,-473.21"/>
<polygon fill="midnightblue" stroke="midnightblue" points="1405.83,-476.65 1415.11,-471.54 1404.67,-469.75 1405.83,-476.65"/>
</g>
<!-- Node18&#45;&gt;Node16 -->
<g id="edge21" class="edge">
<title>Node18&#45;&gt;Node16</title>
<path fill="none" stroke="midnightblue" d="M1522.32,-471.59C1548.16,-476.72 1580.17,-483.07 1607.36,-488.46"/>
<polygon fill="midnightblue" stroke="midnightblue" points="1607.03,-491.97 1617.52,-490.48 1608.4,-485.1 1607.03,-491.97"/>
</g>
<!-- Node20 -->
<g id="node20" class="node">
<title>Node20</title>
<g id="a_node20"><a xlink:href="../../d4/d3c/a01418.html#ae0736bc1a334a231721b5480d07904cf" target="_top" xlink:title=" ">
<polygon fill="none" stroke="black" points="1170,-402.5 1170,-421.5 1319,-421.5 1319,-402.5 1170,-402.5"/>
<text text-anchor="middle" x="1244.5" y="-409.5" font-family="Helvetica,sans-Serif" font-size="10.00">com.cliffc.aa.type.Bits.dual</text>
</a>
</g>
</g>
<!-- Node19&#45;&gt;Node20 -->
<g id="edge23" class="edge">
<title>Node19&#45;&gt;Node20</title>
<path fill="none" stroke="midnightblue" d="M1093.3,-413.29C1114.84,-413.11 1138.08,-412.91 1159.7,-412.72"/>
<polygon fill="midnightblue" stroke="midnightblue" points="1159.86,-416.22 1169.83,-412.63 1159.8,-409.22 1159.86,-416.22"/>
</g>
<!-- Node19&#45;&gt;Node21 -->
<g id="edge24" class="edge">
<title>Node19&#45;&gt;Node21</title>
<path fill="none" stroke="midnightblue" d="M1063.76,-423.53C1095.1,-429.19 1135.32,-436.46 1169.76,-442.68"/>
<polygon fill="midnightblue" stroke="midnightblue" points="1169.32,-446.16 1179.78,-444.49 1170.56,-439.27 1169.32,-446.16"/>
</g>
<!-- Node22&#45;&gt;Node5 -->
<g id="edge26" class="edge">
<title>Node22&#45;&gt;Node5</title>
<path fill="none" stroke="midnightblue" d="M1103.15,-178.08C1170.48,-181.34 1263.98,-186.45 1346,-193 1360.16,-194.13 1375.2,-195.52 1389.76,-196.96"/>
<polygon fill="midnightblue" stroke="midnightblue" points="1389.46,-200.45 1399.76,-197.97 1390.16,-193.48 1389.46,-200.45"/>
</g>
<!-- Node24&#45;&gt;Node9 -->
<g id="edge29" class="edge">
<title>Node24&#45;&gt;Node9</title>
<path fill="none" stroke="midnightblue" d="M1078.53,-370.88C1162.49,-371.97 1305.5,-373.83 1394.04,-374.99"/>
<polygon fill="midnightblue" stroke="midnightblue" points="1394.25,-378.49 1404.29,-375.12 1394.34,-371.49 1394.25,-378.49"/>
</g>
<!-- Node25&#45;&gt;Node6 -->
<g id="edge31" class="edge">
<title>Node25&#45;&gt;Node6</title>
<path fill="none" stroke="midnightblue" d="M576.07,-521.48C612.69,-492.61 722.81,-405.79 768.4,-369.85"/>
<polygon fill="midnightblue" stroke="midnightblue" points="770.68,-372.5 776.37,-363.56 766.35,-367.01 770.68,-372.5"/>
</g>
<!-- Node26 -->
<g id="node26" class="node">
<title>Node26</title>
<g id="a_node26"><a xlink:href="../../d0/dfb/a01066.html#ae70cc2ea02a0daf20f60cf555d413784" target="_top" xlink:title=" ">
<polygon fill="none" stroke="black" points="913,-523.5 913,-542.5 1107,-542.5 1107,-523.5 913,-523.5"/>
<text text-anchor="middle" x="1010" y="-530.5" font-family="Helvetica,sans-Serif" font-size="10.00">com.cliffc.aa.node.LoadNode.get_fld</text>
</a>
</g>
</g>
<!-- Node25&#45;&gt;Node26 -->
<g id="edge32" class="edge">
<title>Node25&#45;&gt;Node26</title>
<path fill="none" stroke="midnightblue" d="M663.04,-531.45C734.22,-531.77 830.06,-532.2 902.82,-532.52"/>
<polygon fill="midnightblue" stroke="midnightblue" points="902.91,-536.02 912.93,-532.57 902.94,-529.02 902.91,-536.02"/>
</g>
<!-- Node25&#45;&gt;Node28 -->
<g id="edge36" class="edge">
<title>Node25&#45;&gt;Node28</title>
<path fill="none" stroke="midnightblue" d="M630.75,-521.49C649.85,-518.76 671.08,-515.74 691.6,-512.81"/>
<polygon fill="midnightblue" stroke="midnightblue" points="692.2,-516.26 701.61,-511.39 691.21,-509.33 692.2,-516.26"/>
</g>
<!-- Node29 -->
<g id="node29" class="node">
<title>Node29</title>
<g id="a_node29"><a xlink:href="../../d8/d7b/a01478.html#aff7014d6ce72f17cafba3c2cef2cad88" target="_top" xlink:title=" ">
<polygon fill="none" stroke="black" points="716.5,-588 716.5,-618 862.5,-618 862.5,-588 716.5,-588"/>
<text text-anchor="start" x="724.5" y="-606" font-family="Helvetica,sans-Serif" font-size="10.00">com.cliffc.aa.type.TypeFun</text>
<text text-anchor="middle" x="789.5" y="-595" font-family="Helvetica,sans-Serif" font-size="10.00">Ptr.make_no_disp</text>
</a>
</g>
</g>
<!-- Node25&#45;&gt;Node29 -->
<g id="edge37" class="edge">
<title>Node25&#45;&gt;Node29</title>
<path fill="none" stroke="midnightblue" d="M593.81,-540.56C628.85,-551.8 687.78,-570.7 731.64,-584.77"/>
<polygon fill="midnightblue" stroke="midnightblue" points="730.73,-588.15 741.32,-587.87 732.87,-581.48 730.73,-588.15"/>
</g>
<!-- Node26&#45;&gt;Node15 -->
<g id="edge34" class="edge">
<title>Node26&#45;&gt;Node15</title>
<path fill="none" stroke="midnightblue" d="M1077.94,-523.5C1105.54,-519.58 1137.69,-515.02 1166.28,-510.96"/>
<polygon fill="midnightblue" stroke="midnightblue" points="1166.82,-514.42 1176.23,-509.55 1165.84,-507.49 1166.82,-514.42"/>
</g>
<!-- Node26&#45;&gt;Node21 -->
<g id="edge35" class="edge">
<title>Node26&#45;&gt;Node21</title>
<path fill="none" stroke="midnightblue" d="M1051.61,-523.4C1069.06,-518.6 1089.44,-512.07 1107,-504 1124.25,-496.07 1125.56,-488.5 1143,-481 1151.58,-477.31 1160.82,-474.09 1170.09,-471.3"/>
<polygon fill="midnightblue" stroke="midnightblue" points="1171.09,-474.65 1179.74,-468.54 1169.17,-467.92 1171.09,-474.65"/>
</g>
<!-- Node27 -->
<g id="node27" class="node">
<title>Node27</title>
<g id="a_node27"><a xlink:href="../../da/da6/a01522.html#a1f78d82596c0f3e5ab132ad8e270acfd" target="_top" xlink:title=" ">
<polygon fill="none" stroke="black" points="1159.5,-528.5 1159.5,-547.5 1329.5,-547.5 1329.5,-528.5 1159.5,-528.5"/>
<text text-anchor="middle" x="1244.5" y="-535.5" font-family="Helvetica,sans-Serif" font-size="10.00">com.cliffc.aa.type.TypeStruct.at</text>
</a>
</g>
</g>
<!-- Node26&#45;&gt;Node27 -->
<g id="edge33" class="edge">
<title>Node26&#45;&gt;Node27</title>
<path fill="none" stroke="midnightblue" d="M1107.24,-535.07C1120.98,-535.37 1135.11,-535.67 1148.81,-535.96"/>
<polygon fill="midnightblue" stroke="midnightblue" points="1149.13,-539.47 1159.2,-536.19 1149.28,-532.47 1149.13,-539.47"/>
</g>
<!-- Node30 -->
<g id="node30" class="node">
<title>Node30</title>
<g id="a_node30"><a xlink:href="../../d8/d7b/a01478.html#abfcb13c82cfef03b54961c47de257834" target="_top" xlink:title=" ">
<polygon fill="none" stroke="black" points="937,-599 937,-629 1083,-629 1083,-599 937,-599"/>
<text text-anchor="start" x="945" y="-617" font-family="Helvetica,sans-Serif" font-size="10.00">com.cliffc.aa.type.TypeFun</text>
<text text-anchor="middle" x="1010" y="-606" font-family="Helvetica,sans-Serif" font-size="10.00">Ptr.make</text>
</a>
</g>
</g>
<!-- Node29&#45;&gt;Node30 -->
<g id="edge38" class="edge">
<title>Node29&#45;&gt;Node30</title>
<path fill="none" stroke="midnightblue" d="M862.65,-606.63C883.16,-607.66 905.65,-608.8 926.71,-609.86"/>
<polygon fill="midnightblue" stroke="midnightblue" points="926.76,-613.36 936.93,-610.37 927.11,-606.37 926.76,-613.36"/>
</g>
<!-- Node31 -->
<g id="node31" class="node">
<title>Node31</title>
<g id="a_node31"><a xlink:href="../../d8/d7b/a01478.html#aa25e7fb4217a6c132391f58312f06ec2" target="_top" xlink:title=" ">
<polygon fill="none" stroke="black" points="1400,-621 1400,-651 1546,-651 1546,-621 1400,-621"/>
<text text-anchor="start" x="1408" y="-639" font-family="Helvetica,sans-Serif" font-size="10.00">com.cliffc.aa.type.TypeFun</text>
<text text-anchor="middle" x="1473" y="-628" font-family="Helvetica,sans-Serif" font-size="10.00">Ptr.fidxs</text>
</a>
</g>
</g>
<!-- Node30&#45;&gt;Node31 -->
<g id="edge39" class="edge">
<title>Node30&#45;&gt;Node31</title>
<path fill="none" stroke="midnightblue" d="M1083.03,-617.44C1166.1,-621.4 1302.37,-627.91 1389.59,-632.07"/>
<polygon fill="midnightblue" stroke="midnightblue" points="1389.56,-635.57 1399.72,-632.55 1389.89,-628.58 1389.56,-635.57"/>
</g>
<!-- Node32 -->
<g id="node32" class="node">
<title>Node32</title>
<g id="a_node32"><a xlink:href="../../d0/de2/a01442.html#a8fe8d556e45e6b654f3ac87f118ac8de" target="_top" xlink:title=" ">
<polygon fill="none" stroke="black" points="1143,-566.5 1143,-585.5 1346,-585.5 1346,-566.5 1143,-566.5"/>
<text text-anchor="middle" x="1244.5" y="-573.5" font-family="Helvetica,sans-Serif" font-size="10.00">com.cliffc.aa.type.Type.hashcons_free</text>
</a>
</g>
</g>
<!-- Node30&#45;&gt;Node32 -->
<g id="edge40" class="edge">
<title>Node30&#45;&gt;Node32</title>
<path fill="none" stroke="midnightblue" d="M1083.29,-602.18C1112.62,-597.39 1146.34,-591.88 1175.25,-587.16"/>
<polygon fill="midnightblue" stroke="midnightblue" points="1175.95,-590.59 1185.26,-585.52 1174.82,-583.68 1175.95,-590.59"/>
</g>
<!-- Node33 -->
<g id="node33" class="node">
<title>Node33</title>
<g id="a_node33"><a xlink:href="../../d8/d7b/a01478.html#a42f8ada06bc493d5b138d77c6370b64c" target="_top" xlink:title=" ">
<polygon fill="none" stroke="black" points="1171.5,-643 1171.5,-673 1317.5,-673 1317.5,-643 1171.5,-643"/>
<text text-anchor="start" x="1179.5" y="-661" font-family="Helvetica,sans-Serif" font-size="10.00">com.cliffc.aa.type.TypeFun</text>
<text text-anchor="middle" x="1244.5" y="-650" font-family="Helvetica,sans-Serif" font-size="10.00">Ptr.init</text>
</a>
</g>
</g>
<!-- Node30&#45;&gt;Node33 -->
<g id="edge41" class="edge">
<title>Node30&#45;&gt;Node33</title>
<path fill="none" stroke="midnightblue" d="M1083.29,-627.68C1108,-632.36 1135.82,-637.62 1161.26,-642.44"/>
<polygon fill="midnightblue" stroke="midnightblue" points="1160.78,-645.91 1171.25,-644.33 1162.08,-639.03 1160.78,-645.91"/>
</g>
<!-- Node34 -->
<g id="node34" class="node">
<title>Node34</title>
<g id="a_node34"><a xlink:href="../../d0/de2/a01442.html#a64703347bc6c4282358a7bd95493a922" target="_top" xlink:title=" ">
<polygon fill="none" stroke="black" points="1174.5,-710 1174.5,-740 1314.5,-740 1314.5,-710 1174.5,-710"/>
<text text-anchor="start" x="1182.5" y="-728" font-family="Helvetica,sans-Serif" font-size="10.00">com.cliffc.aa.type.Type.is</text>
<text text-anchor="middle" x="1244.5" y="-717" font-family="Helvetica,sans-Serif" font-size="10.00">_display_ptr</text>
</a>
</g>
</g>
<!-- Node30&#45;&gt;Node34 -->
<g id="edge44" class="edge">
<title>Node30&#45;&gt;Node34</title>
<path fill="none" stroke="midnightblue" d="M1029.46,-629.22C1053.94,-648.65 1099.17,-682.03 1143,-701 1149.79,-703.94 1157,-706.56 1164.32,-708.88"/>
<polygon fill="midnightblue" stroke="midnightblue" points="1163.76,-712.36 1174.34,-711.86 1165.76,-705.65 1163.76,-712.36"/>
</g>
<!-- Node33&#45;&gt;Node31 -->
<g id="edge42" class="edge">
<title>Node33&#45;&gt;Node31</title>
<path fill="none" stroke="midnightblue" d="M1317.79,-650.98C1340.67,-648.76 1366.13,-646.28 1389.67,-644"/>
<polygon fill="midnightblue" stroke="midnightblue" points="1390.01,-647.48 1399.62,-643.03 1389.33,-640.51 1390.01,-647.48"/>
</g>
<!-- Node33&#45;&gt;Node33 -->
<g id="edge43" class="edge">
<title>Node33&#45;&gt;Node33</title>
<path fill="none" stroke="midnightblue" d="M1204.77,-673.16C1195.19,-682.56 1208.43,-691.5 1244.5,-691.5 1266.48,-691.5 1279.98,-688.18 1285.01,-683.46"/>
<polygon fill="midnightblue" stroke="midnightblue" points="1288.48,-682.87 1284.23,-673.16 1281.5,-683.39 1288.48,-682.87"/>
</g>
<!-- Node38 -->
<g id="node38" class="node">
<title>Node38</title>
<g id="a_node38"><a xlink:href="../../df/db5/a01158.html#a260ab95c10fcb1ccf5f4845aedbb929f" target="_top" xlink:title=" ">
<polygon fill="none" stroke="black" points="476.5,-76.5 476.5,-95.5 649.5,-95.5 649.5,-76.5 476.5,-76.5"/>
<text text-anchor="middle" x="563" y="-83.5" font-family="Helvetica,sans-Serif" font-size="10.00">com.cliffc.aa.node.Node.all_live</text>
</a>
</g>
</g>
<!-- Node37&#45;&gt;Node38 -->
<g id="edge52" class="edge">
<title>Node37&#45;&gt;Node38</title>
<path fill="none" stroke="midnightblue" d="M389.37,-57.54C421.15,-62.78 460.75,-69.31 494.01,-74.79"/>
<polygon fill="midnightblue" stroke="midnightblue" points="493.67,-78.28 504.11,-76.46 494.81,-71.38 493.67,-78.28"/>
</g>
<!-- Node39 -->
<g id="node39" class="node">
<title>Node39</title>
<g id="a_node39"><a xlink:href="../../d6/d51/a01494.html#aedca9fa727944cdfe2b208fd4e260c4d" target="_top" xlink:title=" ">
<polygon fill="none" stroke="black" points="460,-38.5 460,-57.5 666,-57.5 666,-38.5 460,-38.5"/>
<text text-anchor="middle" x="563" y="-45.5" font-family="Helvetica,sans-Serif" font-size="10.00">com.cliffc.aa.type.TypeMem.basic_live</text>
</a>
</g>
</g>
<!-- Node37&#45;&gt;Node39 -->
<g id="edge53" class="edge">
<title>Node37&#45;&gt;Node39</title>
<path fill="none" stroke="midnightblue" d="M408.25,-48C421.53,-48 435.58,-48 449.57,-48"/>
<polygon fill="midnightblue" stroke="midnightblue" points="449.74,-51.5 459.74,-48 449.74,-44.5 449.74,-51.5"/>
</g>
<!-- Node40 -->
<g id="node40" class="node">
<title>Node40</title>
<g id="a_node40"><a xlink:href="../../d0/de2/a01442.html#a086b90d9d651ac00b80a9b5caa60eb09" target="_top" xlink:title=" ">
<polygon fill="none" stroke="black" points="484,-0.5 484,-19.5 642,-19.5 642,-0.5 484,-0.5"/>
<text text-anchor="middle" x="563" y="-7.5" font-family="Helvetica,sans-Serif" font-size="10.00">com.cliffc.aa.type.Type.meet</text>
</a>
</g>
</g>
<!-- Node37&#45;&gt;Node40 -->
<g id="edge54" class="edge">
<title>Node37&#45;&gt;Node40</title>
<path fill="none" stroke="midnightblue" d="M389.37,-38.46C421.15,-33.22 460.75,-26.69 494.01,-21.21"/>
<polygon fill="midnightblue" stroke="midnightblue" points="494.81,-24.62 504.11,-19.54 493.67,-17.72 494.81,-24.62"/>
</g>
</g>
</svg>
