<?xml version="1.0" encoding="UTF-8" standalone="no"?>
<!DOCTYPE svg PUBLIC "-//W3C//DTD SVG 1.1//EN"
 "http://www.w3.org/Graphics/SVG/1.1/DTD/svg11.dtd">
<!-- Generated by graphviz version 2.43.0 (0)
 -->
<!-- Title: com.cliffc.aa.node.LoadNode.adr Pages: 1 -->
<svg width="1329pt" height="477pt"
 viewBox="0.00 0.00 1329.00 477.45" xmlns="http://www.w3.org/2000/svg" xmlns:xlink="http://www.w3.org/1999/xlink">
<g id="graph0" class="graph" transform="scale(1 1) rotate(0) translate(4 473.45)">
<title>com.cliffc.aa.node.LoadNode.adr</title>
<!-- Node1 -->
<g id="node1" class="node">
<title>Node1</title>
<g id="a_node1"><a xlink:title=" ">
<polygon fill="#bfbfbf" stroke="black" points="1145,-218.5 1145,-237.5 1321,-237.5 1321,-218.5 1145,-218.5"/>
<text text-anchor="middle" x="1233" y="-225.5" font-family="Helvetica,sans-Serif" font-size="10.00">com.cliffc.aa.node.LoadNode.adr</text>
</a>
</g>
</g>
<!-- Node2 -->
<g id="node2" class="node">
<title>Node2</title>
<g id="a_node2"><a xlink:href="../../d0/dfb/a01066.html#ad0aa5c9f45cb37abe56da01c859c2c00" target="_top" xlink:title=" ">
<polygon fill="none" stroke="black" points="237,-376 237,-406 398,-406 398,-376 237,-376"/>
<text text-anchor="start" x="245" y="-394" font-family="Helvetica,sans-Serif" font-size="10.00">com.cliffc.aa.node.LoadNode.</text>
<text text-anchor="middle" x="317.5" y="-383" font-family="Helvetica,sans-Serif" font-size="10.00">_live_use</text>
</a>
</g>
</g>
<!-- Node1&#45;&gt;Node2 -->
<g id="edge1" class="edge">
<title>Node1&#45;&gt;Node2</title>
<path fill="none" stroke="midnightblue" d="M1224.79,-247.17C1209.78,-283.94 1171.3,-363.51 1109,-395 986.59,-456.87 573.45,-419.69 398.18,-400.41"/>
<polygon fill="midnightblue" stroke="midnightblue" points="1228.14,-248.21 1228.55,-237.62 1221.63,-245.65 1228.14,-248.21"/>
</g>
<!-- Node3 -->
<g id="node3" class="node">
<title>Node3</title>
<g id="a_node3"><a xlink:href="../../d0/dfb/a01066.html#a909995b973eee1bccf21bdb389e1c53d" target="_top" xlink:title=" ">
<polygon fill="none" stroke="black" points="0,-403.5 0,-422.5 201,-422.5 201,-403.5 0,-403.5"/>
<text text-anchor="middle" x="100.5" y="-410.5" font-family="Helvetica,sans-Serif" font-size="10.00">com.cliffc.aa.node.LoadNode.live_use</text>
</a>
</g>
</g>
<!-- Node1&#45;&gt;Node3 -->
<g id="edge16" class="edge">
<title>Node1&#45;&gt;Node3</title>
<path fill="none" stroke="midnightblue" d="M1226.49,-247.2C1213.61,-288.12 1177.35,-383.53 1109,-425 977.32,-504.89 917.52,-452 763.5,-452 763.5,-452 763.5,-452 533,-452 402.5,-452 250.69,-434.09 166.4,-422.54"/>
<polygon fill="midnightblue" stroke="midnightblue" points="1229.84,-248.2 1229.38,-237.62 1223.14,-246.18 1229.84,-248.2"/>
</g>
<!-- Node4 -->
<g id="node4" class="node">
<title>Node4</title>
<g id="a_node4"><a xlink:href="../../d0/dfb/a01066.html#a4771165e874063e85a1fbea817da12ef" target="_top" xlink:title=" ">
<polygon fill="none" stroke="black" points="910.5,-355 910.5,-385 1089.5,-385 1089.5,-355 910.5,-355"/>
<text text-anchor="start" x="918.5" y="-373" font-family="Helvetica,sans-Serif" font-size="10.00">com.cliffc.aa.node.LoadNode.add</text>
<text text-anchor="middle" x="1000" y="-362" font-family="Helvetica,sans-Serif" font-size="10.00">_flow_use_extra</text>
</a>
</g>
</g>
<!-- Node1&#45;&gt;Node4 -->
<g id="edge3" class="edge">
<title>Node1&#45;&gt;Node4</title>
<path fill="none" stroke="midnightblue" d="M1217.56,-245.56C1196.31,-270.25 1154.22,-315.01 1109,-340 1098.01,-346.07 1085.71,-350.99 1073.44,-354.94"/>
<polygon fill="midnightblue" stroke="midnightblue" points="1220.4,-247.62 1224.18,-237.72 1215.05,-243.1 1220.4,-247.62"/>
</g>
<!-- Node5 -->
<g id="node5" class="node">
<title>Node5</title>
<g id="a_node5"><a xlink:href="../../d0/dfb/a01066.html#a49b5c8c93ac9b27945355814c4ea11d7" target="_top" xlink:title=" ">
<polygon fill="none" stroke="black" points="910.5,-278.5 910.5,-297.5 1089.5,-297.5 1089.5,-278.5 910.5,-278.5"/>
<text text-anchor="middle" x="1000" y="-285.5" font-family="Helvetica,sans-Serif" font-size="10.00">com.cliffc.aa.node.LoadNode.bad</text>
</a>
</g>
</g>
<!-- Node1&#45;&gt;Node5 -->
<g id="edge4" class="edge">
<title>Node1&#45;&gt;Node5</title>
<path fill="none" stroke="midnightblue" d="M1191.78,-240.5C1167.84,-247.76 1136.81,-256.85 1109,-264 1088.82,-269.19 1066.34,-274.29 1047.14,-278.45"/>
<polygon fill="midnightblue" stroke="midnightblue" points="1193.03,-243.78 1201.57,-237.51 1190.99,-237.08 1193.03,-243.78"/>
</g>
<!-- Node6 -->
<g id="node6" class="node">
<title>Node6</title>
<g id="a_node6"><a xlink:href="../../d0/dfb/a01066.html#ad67f57cb1fc3b5558e0e909b8bc7d145" target="_top" xlink:title=" ">
<polygon fill="none" stroke="black" points="675.5,-317.5 675.5,-336.5 849.5,-336.5 849.5,-317.5 675.5,-317.5"/>
<text text-anchor="middle" x="762.5" y="-324.5" font-family="Helvetica,sans-Serif" font-size="10.00">com.cliffc.aa.node.LoadNode.err</text>
</a>
</g>
</g>
<!-- Node1&#45;&gt;Node6 -->
<g id="edge10" class="edge">
<title>Node1&#45;&gt;Node6</title>
<path fill="none" stroke="midnightblue" d="M1213.67,-244.16C1190.93,-263.11 1150.09,-293.64 1109,-307 1024.01,-334.64 921.14,-336.91 849.86,-333.96"/>
<polygon fill="midnightblue" stroke="midnightblue" points="1216.13,-246.67 1221.47,-237.52 1211.59,-241.34 1216.13,-246.67"/>
</g>
<!-- Node8 -->
<g id="node8" class="node">
<title>Node8</title>
<g id="a_node8"><a xlink:href="../../d0/dfb/a01066.html#affab2f1405842994ca5dc80cb9dac3e7" target="_top" xlink:title=" ">
<polygon fill="none" stroke="black" points="682,-251 682,-281 843,-281 843,-251 682,-251"/>
<text text-anchor="start" x="690" y="-269" font-family="Helvetica,sans-Serif" font-size="10.00">com.cliffc.aa.node.LoadNode.</text>
<text text-anchor="middle" x="762.5" y="-258" font-family="Helvetica,sans-Serif" font-size="10.00">LoadNode</text>
</a>
</g>
</g>
<!-- Node1&#45;&gt;Node8 -->
<g id="edge17" class="edge">
<title>Node1&#45;&gt;Node8</title>
<path fill="none" stroke="midnightblue" d="M1134.9,-235.88C1048.49,-242.88 923.65,-253.01 843.03,-259.55"/>
<polygon fill="midnightblue" stroke="midnightblue" points="1135.29,-239.36 1144.98,-235.06 1134.73,-232.38 1135.29,-239.36"/>
</g>
<!-- Node9 -->
<g id="node9" class="node">
<title>Node9</title>
<g id="a_node9"><a xlink:href="../../d0/dfb/a01066.html#a14a8ca3940ab377a67de458b109a36d9" target="_top" xlink:title=" ">
<polygon fill="none" stroke="black" points="910.5,-191 910.5,-221 1089.5,-221 1089.5,-191 910.5,-191"/>
<text text-anchor="start" x="918.5" y="-209" font-family="Helvetica,sans-Serif" font-size="10.00">com.cliffc.aa.node.LoadNode.find</text>
<text text-anchor="middle" x="1000" y="-198" font-family="Helvetica,sans-Serif" font-size="10.00">_previous_store</text>
</a>
</g>
</g>
<!-- Node1&#45;&gt;Node9 -->
<g id="edge11" class="edge">
<title>Node1&#45;&gt;Node9</title>
<path fill="none" stroke="midnightblue" d="M1134.76,-218.74C1119.86,-217.32 1104.55,-215.86 1089.85,-214.46"/>
<polygon fill="midnightblue" stroke="midnightblue" points="1134.71,-222.25 1145,-219.71 1135.37,-215.28 1134.71,-222.25"/>
</g>
<!-- Node10 -->
<g id="node10" class="node">
<title>Node10</title>
<g id="a_node10"><a xlink:href="../../d0/dfb/a01066.html#af687a97365428ba2560bff84c7d20eff" target="_top" xlink:title=" ">
<polygon fill="none" stroke="black" points="670,-166 670,-196 855,-196 855,-166 670,-166"/>
<text text-anchor="start" x="678" y="-184" font-family="Helvetica,sans-Serif" font-size="10.00">com.cliffc.aa.node.LoadNode.ideal</text>
<text text-anchor="middle" x="762.5" y="-173" font-family="Helvetica,sans-Serif" font-size="10.00">_reduce</text>
</a>
</g>
</g>
<!-- Node1&#45;&gt;Node10 -->
<g id="edge15" class="edge">
<title>Node1&#45;&gt;Node10</title>
<path fill="none" stroke="midnightblue" d="M1203.65,-214.09C1179.23,-202.93 1142.71,-188.15 1109,-182 1024.03,-166.5 925.33,-168.12 855.23,-172.51"/>
<polygon fill="midnightblue" stroke="midnightblue" points="1202.47,-217.4 1213.01,-218.47 1205.43,-211.06 1202.47,-217.4"/>
</g>
<!-- Node11 -->
<g id="node11" class="node">
<title>Node11</title>
<g id="a_node11"><a xlink:href="../../d0/dfb/a01066.html#ae787c3c745c6e798098a306c9665ef9d" target="_top" xlink:title=" ">
<polygon fill="none" stroke="black" points="893,-114.5 893,-133.5 1107,-133.5 1107,-114.5 893,-114.5"/>
<text text-anchor="middle" x="1000" y="-121.5" font-family="Helvetica,sans-Serif" font-size="10.00">com.cliffc.aa.node.LoadNode.ideal_grow</text>
</a>
</g>
</g>
<!-- Node1&#45;&gt;Node11 -->
<g id="edge13" class="edge">
<title>Node1&#45;&gt;Node11</title>
<path fill="none" stroke="midnightblue" d="M1212.21,-211.88C1188.9,-193.7 1148.36,-164.53 1109,-148 1094.21,-141.79 1077.58,-137.08 1061.88,-133.55"/>
<polygon fill="midnightblue" stroke="midnightblue" points="1210.24,-214.79 1220.26,-218.26 1214.59,-209.31 1210.24,-214.79"/>
</g>
<!-- Node12 -->
<g id="node12" class="node">
<title>Node12</title>
<g id="a_node12"><a xlink:href="../../d0/dfb/a01066.html#afe41e60c06ba59759f9f18ad385f7490" target="_top" xlink:title=" ">
<polygon fill="none" stroke="black" points="891,-76.5 891,-95.5 1109,-95.5 1109,-76.5 891,-76.5"/>
<text text-anchor="middle" x="1000" y="-83.5" font-family="Helvetica,sans-Serif" font-size="10.00">com.cliffc.aa.node.LoadNode.ideal_mono</text>
</a>
</g>
</g>
<!-- Node1&#45;&gt;Node12 -->
<g id="edge14" class="edge">
<title>Node1&#45;&gt;Node12</title>
<path fill="none" stroke="midnightblue" d="M1219.75,-210.05C1199.94,-182.56 1158.1,-130.55 1109,-105 1101.57,-101.13 1093.5,-98.03 1085.24,-95.55"/>
<polygon fill="midnightblue" stroke="midnightblue" points="1216.98,-212.2 1225.6,-218.36 1222.7,-208.17 1216.98,-212.2"/>
</g>
<!-- Node13 -->
<g id="node13" class="node">
<title>Node13</title>
<g id="a_node13"><a xlink:href="../../d0/dfb/a01066.html#a8605ee2daa9c99aa8f72c2ccce7b03be" target="_top" xlink:title=" ">
<polygon fill="none" stroke="black" points="907.5,-38.5 907.5,-57.5 1092.5,-57.5 1092.5,-38.5 907.5,-38.5"/>
<text text-anchor="middle" x="1000" y="-45.5" font-family="Helvetica,sans-Serif" font-size="10.00">com.cliffc.aa.node.LoadNode.unify</text>
</a>
</g>
</g>
<!-- Node1&#45;&gt;Node13 -->
<g id="edge18" class="edge">
<title>Node1&#45;&gt;Node13</title>
<path fill="none" stroke="midnightblue" d="M1223.4,-209C1206.71,-174.51 1166.47,-101.94 1109,-67 1102.74,-63.19 1095.92,-60.1 1088.84,-57.59"/>
<polygon fill="midnightblue" stroke="midnightblue" points="1220.39,-210.84 1227.81,-218.4 1226.73,-207.86 1220.39,-210.84"/>
</g>
<!-- Node16 -->
<g id="node16" class="node">
<title>Node16</title>
<g id="a_node16"><a xlink:href="../../d0/dfb/a01066.html#ac3bf692db4b8a9d157ec186d9039acb9" target="_top" xlink:title=" ">
<polygon fill="none" stroke="black" points="906,-0.5 906,-19.5 1094,-19.5 1094,-0.5 906,-0.5"/>
<text text-anchor="middle" x="1000" y="-7.5" font-family="Helvetica,sans-Serif" font-size="10.00">com.cliffc.aa.node.LoadNode.value</text>
</a>
</g>
</g>
<!-- Node1&#45;&gt;Node16 -->
<g id="edge21" class="edge">
<title>Node1&#45;&gt;Node16</title>
<path fill="none" stroke="midnightblue" d="M1226.04,-208.54C1212.5,-167.88 1175.35,-73.97 1109,-29 1103.41,-25.21 1097.29,-22.1 1090.89,-19.57"/>
<polygon fill="midnightblue" stroke="midnightblue" points="1222.72,-209.64 1229.11,-218.09 1229.38,-207.5 1222.72,-209.64"/>
</g>
<!-- Node2&#45;&gt;Node3 -->
<g id="edge2" class="edge">
<title>Node2&#45;&gt;Node3</title>
<path fill="none" stroke="midnightblue" d="M226.66,-400.19C216.05,-401.28 205.21,-402.39 194.55,-403.48"/>
<polygon fill="midnightblue" stroke="midnightblue" points="227.16,-403.66 236.75,-399.16 226.44,-396.7 227.16,-403.66"/>
</g>
<!-- Node5&#45;&gt;Node6 -->
<g id="edge5" class="edge">
<title>Node5&#45;&gt;Node6</title>
<path fill="none" stroke="midnightblue" d="M931.28,-299.22C896.36,-305 854.23,-311.97 820.92,-317.49"/>
<polygon fill="midnightblue" stroke="midnightblue" points="932.1,-302.63 941.39,-297.54 930.95,-295.72 932.1,-302.63"/>
</g>
<!-- Node5&#45;&gt;Node8 -->
<g id="edge9" class="edge">
<title>Node5&#45;&gt;Node8</title>
<path fill="none" stroke="midnightblue" d="M900.14,-278.76C881.16,-276.99 861.5,-275.15 843.21,-273.45"/>
<polygon fill="midnightblue" stroke="midnightblue" points="900.02,-282.27 910.3,-279.71 900.67,-275.3 900.02,-282.27"/>
</g>
<!-- Node6&#45;&gt;Node2 -->
<g id="edge6" class="edge">
<title>Node6&#45;&gt;Node2</title>
<path fill="none" stroke="midnightblue" d="M664.92,-329.19C599.27,-332.09 510.75,-338.75 434,-354 408.08,-359.15 379.82,-368.14 357.74,-375.97"/>
<polygon fill="midnightblue" stroke="midnightblue" points="665.41,-332.68 675.25,-328.76 665.12,-325.68 665.41,-332.68"/>
</g>
<!-- Node7 -->
<g id="node7" class="node">
<title>Node7</title>
<g id="a_node7"><a xlink:href="../../d0/dfb/a01066.html#a318ad28c75cfa00cdbe71886baea637d" target="_top" xlink:title=" ">
<polygon fill="none" stroke="black" points="434,-363.5 434,-382.5 634,-382.5 634,-363.5 434,-363.5"/>
<text text-anchor="middle" x="534" y="-370.5" font-family="Helvetica,sans-Serif" font-size="10.00">com.cliffc.aa.node.LoadNode.get_fld2</text>
</a>
</g>
</g>
<!-- Node6&#45;&gt;Node7 -->
<g id="edge7" class="edge">
<title>Node6&#45;&gt;Node7</title>
<path fill="none" stroke="midnightblue" d="M704.7,-338.54C666.79,-346.24 617.54,-356.24 581.87,-363.48"/>
<polygon fill="midnightblue" stroke="midnightblue" points="705.47,-341.95 714.57,-336.53 704.07,-335.09 705.47,-341.95"/>
</g>
<!-- Node7&#45;&gt;Node2 -->
<g id="edge8" class="edge">
<title>Node7&#45;&gt;Node2</title>
<path fill="none" stroke="midnightblue" d="M423.8,-382.16C415.18,-382.89 406.57,-383.61 398.21,-384.31"/>
<polygon fill="midnightblue" stroke="midnightblue" points="424.24,-385.64 433.91,-381.32 423.65,-378.66 424.24,-385.64"/>
</g>
<!-- Node9&#45;&gt;Node10 -->
<g id="edge12" class="edge">
<title>Node9&#45;&gt;Node10</title>
<path fill="none" stroke="midnightblue" d="M900.09,-195.5C885.23,-193.92 869.96,-192.3 855.26,-190.74"/>
<polygon fill="midnightblue" stroke="midnightblue" points="899.99,-199.01 910.3,-196.58 900.73,-192.05 899.99,-199.01"/>
</g>
<!-- Node14 -->
<g id="node14" class="node">
<title>Node14</title>
<g id="a_node14"><a xlink:href="../../d9/df5/a01086.html#a072d89561d4f5a3c8cfe1f9530d23394" target="_top" xlink:title=" ">
<polygon fill="none" stroke="black" points="684.5,-8 684.5,-38 840.5,-38 840.5,-8 684.5,-8"/>
<text text-anchor="start" x="692.5" y="-26" font-family="Helvetica,sans-Serif" font-size="10.00">com.cliffc.aa.node.MemPrim</text>
<text text-anchor="middle" x="762.5" y="-15" font-family="Helvetica,sans-Serif" font-size="10.00">Node.LValueLength.unify</text>
</a>
</g>
</g>
<!-- Node13&#45;&gt;Node14 -->
<g id="edge19" class="edge">
<title>Node13&#45;&gt;Node14</title>
<path fill="none" stroke="midnightblue" d="M899.14,-37.4C879.58,-35.32 859.34,-33.17 840.65,-31.19"/>
<polygon fill="midnightblue" stroke="midnightblue" points="898.98,-40.9 909.3,-38.48 899.72,-33.94 898.98,-40.9"/>
</g>
<!-- Node15 -->
<g id="node15" class="node">
<title>Node15</title>
<g id="a_node15"><a xlink:href="../../da/d73/a01090.html#aae916e3d1a36dc8aadc091a193ca8530" target="_top" xlink:title=" ">
<polygon fill="none" stroke="black" points="684.5,-57 684.5,-87 840.5,-87 840.5,-57 684.5,-57"/>
<text text-anchor="start" x="692.5" y="-75" font-family="Helvetica,sans-Serif" font-size="10.00">com.cliffc.aa.node.MemPrim</text>
<text text-anchor="middle" x="762.5" y="-64" font-family="Helvetica,sans-Serif" font-size="10.00">Node.LValueRead.unify</text>
</a>
</g>
</g>
<!-- Node13&#45;&gt;Node15 -->
<g id="edge20" class="edge">
<title>Node13&#45;&gt;Node15</title>
<path fill="none" stroke="midnightblue" d="M897.16,-58.38C878.29,-60.3 858.86,-62.28 840.86,-64.12"/>
<polygon fill="midnightblue" stroke="midnightblue" points="897.68,-61.84 907.28,-57.35 896.97,-54.88 897.68,-61.84"/>
</g>
</g>
</svg>
