<?xml version="1.0" encoding="UTF-8" standalone="no"?>
<!DOCTYPE svg PUBLIC "-//W3C//DTD SVG 1.1//EN"
 "http://www.w3.org/Graphics/SVG/1.1/DTD/svg11.dtd">
<!-- Generated by graphviz version 2.43.0 (0)
 -->
<!-- Title: com.cliffc.aa.HM.HM9.Syntax.debug_find Pages: 1 -->
<svg width="666pt" height="66pt"
 viewBox="0.00 0.00 666.00 66.00" xmlns="http://www.w3.org/2000/svg" xmlns:xlink="http://www.w3.org/1999/xlink">
<g id="graph0" class="graph" transform="scale(1 1) rotate(0) translate(4 62)">
<title>com.cliffc.aa.HM.HM9.Syntax.debug_find</title>
<!-- Node1 -->
<g id="node1" class="node">
<title>Node1</title>
<g id="a_node1"><a xlink:title=" ">
<polygon fill="#bfbfbf" stroke="black" points="0,-19.5 0,-38.5 217,-38.5 217,-19.5 0,-19.5"/>
<text text-anchor="middle" x="108.5" y="-26.5" font-family="Helvetica,sans-Serif" font-size="10.00">com.cliffc.aa.HM.HM9.Syntax.debug_find</text>
</a>
</g>
</g>
<!-- Node2 -->
<g id="node2" class="node">
<title>Node2</title>
<g id="a_node2"><a xlink:href="../../d9/d9a/a00998.html#a54c20c24590ba86eeee97ff28589fe27" target="_top" xlink:title=" ">
<polygon fill="none" stroke="black" points="253,-19.5 253,-38.5 448,-38.5 448,-19.5 253,-19.5"/>
<text text-anchor="middle" x="350.5" y="-26.5" font-family="Helvetica,sans-Serif" font-size="10.00">com.cliffc.aa.HM.HM9.T2.debug_find</text>
</a>
</g>
</g>
<!-- Node1&#45;&gt;Node2 -->
<g id="edge1" class="edge">
<title>Node1&#45;&gt;Node2</title>
<path fill="none" stroke="midnightblue" d="M217.21,-29C225.63,-29 234.13,-29 242.54,-29"/>
<polygon fill="midnightblue" stroke="midnightblue" points="242.75,-32.5 252.75,-29 242.75,-25.5 242.75,-32.5"/>
</g>
<!-- Node3 -->
<g id="node3" class="node">
<title>Node3</title>
<g id="a_node3"><a xlink:href="../../d9/d9a/a00998.html#ad75595c704109c7f0c8e4f6e9dbc35bc" target="_top" xlink:title=" ">
<polygon fill="none" stroke="black" points="484,-38.5 484,-57.5 658,-57.5 658,-38.5 484,-38.5"/>
<text text-anchor="middle" x="571" y="-45.5" font-family="Helvetica,sans-Serif" font-size="10.00">com.cliffc.aa.HM.HM9.T2.is_leaf</text>
</a>
</g>
</g>
<!-- Node2&#45;&gt;Node3 -->
<g id="edge2" class="edge">
<title>Node2&#45;&gt;Node3</title>
<path fill="none" stroke="midnightblue" d="M448.29,-37.42C456.73,-38.15 465.27,-38.89 473.71,-39.63"/>
<polygon fill="midnightblue" stroke="midnightblue" points="473.67,-43.14 483.93,-40.52 474.27,-36.16 473.67,-43.14"/>
</g>
<!-- Node4 -->
<g id="node4" class="node">
<title>Node4</title>
<g id="a_node4"><a xlink:href="../../d9/d9a/a00998.html#a169dfbbe7e0413caed9c990bfb7c19ad" target="_top" xlink:title=" ">
<polygon fill="none" stroke="black" points="486.5,-0.5 486.5,-19.5 655.5,-19.5 655.5,-0.5 486.5,-0.5"/>
<text text-anchor="middle" x="571" y="-7.5" font-family="Helvetica,sans-Serif" font-size="10.00">com.cliffc.aa.HM.HM9.T2.no_uf</text>
</a>
</g>
</g>
<!-- Node2&#45;&gt;Node4 -->
<g id="edge3" class="edge">
<title>Node2&#45;&gt;Node4</title>
<path fill="none" stroke="midnightblue" d="M448.29,-20.58C457.6,-19.77 467.02,-18.95 476.3,-18.15"/>
<polygon fill="midnightblue" stroke="midnightblue" points="476.63,-21.63 486.29,-17.28 476.02,-14.66 476.63,-21.63"/>
</g>
</g>
</svg>
