<?xml version="1.0" encoding="UTF-8" standalone="no"?>
<!DOCTYPE svg PUBLIC "-//W3C//DTD SVG 1.1//EN"
 "http://www.w3.org/Graphics/SVG/1.1/DTD/svg11.dtd">
<!-- Generated by graphviz version 2.43.0 (0)
 -->
<!-- Title: com.cliffc.aa.HM.HM4.T2.cycle_equals Pages: 1 -->
<svg width="965pt" height="116pt"
 viewBox="0.00 0.00 965.00 116.46" xmlns="http://www.w3.org/2000/svg" xmlns:xlink="http://www.w3.org/1999/xlink">
<g id="graph0" class="graph" transform="scale(1 1) rotate(0) translate(4 112.46)">
<title>com.cliffc.aa.HM.HM4.T2.cycle_equals</title>
<!-- Node1 -->
<g id="node1" class="node">
<title>Node1</title>
<g id="a_node1"><a xlink:title=" ">
<polygon fill="#bfbfbf" stroke="black" points="0,-26.46 0,-56.46 167,-56.46 167,-26.46 0,-26.46"/>
<text text-anchor="start" x="8" y="-44.46" font-family="Helvetica,sans-Serif" font-size="10.00">com.cliffc.aa.HM.HM4.T2.cycle</text>
<text text-anchor="middle" x="83.5" y="-33.46" font-family="Helvetica,sans-Serif" font-size="10.00">_equals</text>
</a>
</g>
</g>
<!-- Node2 -->
<g id="node2" class="node">
<title>Node2</title>
<g id="a_node2"><a xlink:href="../../df/d9e/a00686.html#a14052d6d568f63f0752e45ba1b8b661d" target="_top" xlink:title=" ">
<polygon fill="none" stroke="black" points="203,-26.46 203,-56.46 345,-56.46 345,-26.46 203,-26.46"/>
<text text-anchor="start" x="211" y="-44.46" font-family="Helvetica,sans-Serif" font-size="10.00">com.cliffc.aa.HM.HM4.T2.</text>
<text text-anchor="middle" x="274" y="-33.46" font-family="Helvetica,sans-Serif" font-size="10.00">_cycle_equals</text>
</a>
</g>
</g>
<!-- Node1&#45;&gt;Node2 -->
<g id="edge1" class="edge">
<title>Node1&#45;&gt;Node2</title>
<path fill="none" stroke="midnightblue" d="M167.18,-41.46C175.62,-41.46 184.18,-41.46 192.6,-41.46"/>
<polygon fill="midnightblue" stroke="midnightblue" points="192.77,-44.96 202.77,-41.46 192.77,-37.96 192.77,-44.96"/>
</g>
<!-- Node3 -->
<g id="node3" class="node">
<title>Node3</title>
<g id="a_node3"><a xlink:href="../../dd/d55/a01638.html#a3975ba7dca9fe2d6e4992b2b5558f882" target="_top" xlink:title=" ">
<polygon fill="none" stroke="black" points="394.5,-88.96 394.5,-107.96 527.5,-107.96 527.5,-88.96 394.5,-88.96"/>
<text text-anchor="middle" x="461" y="-95.96" font-family="Helvetica,sans-Serif" font-size="10.00">com.cliffc.aa.util.Util.eq</text>
</a>
</g>
</g>
<!-- Node2&#45;&gt;Node3 -->
<g id="edge2" class="edge">
<title>Node2&#45;&gt;Node3</title>
<path fill="none" stroke="midnightblue" d="M313.93,-56.55C333.82,-63.98 358.52,-72.75 381,-79.46 389.35,-81.95 398.27,-84.34 406.99,-86.54"/>
<polygon fill="midnightblue" stroke="midnightblue" points="406.18,-89.95 416.72,-88.94 407.85,-83.15 406.18,-89.95"/>
</g>
<!-- Node4 -->
<g id="node4" class="node">
<title>Node4</title>
<g id="a_node4"><a xlink:href="../../df/d9e/a00686.html#a249fbf86044afba4570c9e758ee05b40" target="_top" xlink:title=" ">
<polygon fill="none" stroke="black" points="381,-50.96 381,-69.96 541,-69.96 541,-50.96 381,-50.96"/>
<text text-anchor="middle" x="461" y="-57.96" font-family="Helvetica,sans-Serif" font-size="10.00">com.cliffc.aa.HM.HM4.T2.find</text>
</a>
</g>
</g>
<!-- Node2&#45;&gt;Node4 -->
<g id="edge3" class="edge">
<title>Node2&#45;&gt;Node4</title>
<path fill="none" stroke="midnightblue" d="M345.2,-48.67C353.58,-49.53 362.21,-50.41 370.81,-51.3"/>
<polygon fill="midnightblue" stroke="midnightblue" points="370.56,-54.79 380.87,-52.33 371.28,-47.83 370.56,-54.79"/>
</g>
<!-- Node5 -->
<g id="node5" class="node">
<title>Node5</title>
<g id="a_node5"><a xlink:href="../../df/d9e/a00686.html#aa3993197ada45847bc991266dc485460" target="_top" xlink:title=" ">
<polygon fill="none" stroke="black" points="782,-12.96 782,-31.96 957,-31.96 957,-12.96 782,-12.96"/>
<text text-anchor="middle" x="869.5" y="-19.96" font-family="Helvetica,sans-Serif" font-size="10.00">com.cliffc.aa.HM.HM4.T2.is_tvar</text>
</a>
</g>
</g>
<!-- Node2&#45;&gt;Node5 -->
<g id="edge7" class="edge">
<title>Node2&#45;&gt;Node5</title>
<path fill="none" stroke="midnightblue" d="M345.21,-28.88C437.24,-13.98 603.68,7.52 746,-3.46 766.47,-5.03 788.68,-8.07 808.51,-11.27"/>
<polygon fill="midnightblue" stroke="midnightblue" points="808.2,-14.76 818.64,-12.94 809.34,-7.86 808.2,-14.76"/>
</g>
<!-- Node6 -->
<g id="node6" class="node">
<title>Node6</title>
<g id="a_node6"><a xlink:href="../../df/d9e/a00686.html#a80738ac3035f8e19e99947806cc011c5" target="_top" xlink:title=" ">
<polygon fill="none" stroke="black" points="577,-12.96 577,-31.96 746,-31.96 746,-12.96 577,-12.96"/>
<text text-anchor="middle" x="661.5" y="-19.96" font-family="Helvetica,sans-Serif" font-size="10.00">com.cliffc.aa.HM.HM4.T2.no_uf</text>
</a>
</g>
</g>
<!-- Node2&#45;&gt;Node6 -->
<g id="edge8" class="edge">
<title>Node2&#45;&gt;Node6</title>
<path fill="none" stroke="midnightblue" d="M345.26,-37.99C407.33,-34.93 498.34,-30.45 566.64,-27.08"/>
<polygon fill="midnightblue" stroke="midnightblue" points="567.16,-30.56 576.97,-26.57 566.81,-23.57 567.16,-30.56"/>
</g>
<!-- Node4&#45;&gt;Node5 -->
<g id="edge4" class="edge">
<title>Node4&#45;&gt;Node5</title>
<path fill="none" stroke="midnightblue" d="M541.12,-57.01C598.19,-54.08 676.99,-49.1 746,-41.46 764.77,-39.38 785.07,-36.49 803.64,-33.59"/>
<polygon fill="midnightblue" stroke="midnightblue" points="804.43,-37.01 813.75,-31.99 803.33,-30.1 804.43,-37.01"/>
</g>
<!-- Node4&#45;&gt;Node6 -->
<g id="edge5" class="edge">
<title>Node4&#45;&gt;Node6</title>
<path fill="none" stroke="midnightblue" d="M511.83,-50.92C538.73,-45.77 572.14,-39.37 600.46,-33.95"/>
<polygon fill="midnightblue" stroke="midnightblue" points="601.48,-37.32 610.65,-32 600.17,-30.44 601.48,-37.32"/>
</g>
<!-- Node6&#45;&gt;Node5 -->
<g id="edge6" class="edge">
<title>Node6&#45;&gt;Node5</title>
<path fill="none" stroke="midnightblue" d="M746.29,-22.46C754.6,-22.46 763.09,-22.46 771.53,-22.46"/>
<polygon fill="midnightblue" stroke="midnightblue" points="771.77,-25.96 781.77,-22.46 771.77,-18.96 771.77,-25.96"/>
</g>
</g>
</svg>
