<?xml version="1.0" encoding="UTF-8" standalone="no"?>
<!DOCTYPE svg PUBLIC "-//W3C//DTD SVG 1.1//EN"
 "http://www.w3.org/Graphics/SVG/1.1/DTD/svg11.dtd">
<!-- Generated by graphviz version 2.43.0 (0)
 -->
<!-- Title: com.cliffc.aa.HM.HM4.T2.unify Pages: 1 -->
<!--zoomable 331 -->
<svg id="main" version="1.1" xmlns="http://www.w3.org/2000/svg" xmlns:xlink="http://www.w3.org/1999/xlink" xml:space="preserve" onload="init(evt)">
<style type="text/css"><![CDATA[
.edge:hover path { stroke: red; }
.edge:hover polygon { stroke: red; fill: red; }
]]></style>
<script type="text/javascript"><![CDATA[
var edges = document.getElementsByTagName('g');
if (edges && edges.length) {
  for (var i=0;i<edges.length;i++) {
    if (edges[i].id.substr(0,4)=='edge') {
      edges[i].setAttribute('class','edge');
    }
  }
}
]]></script>
        <defs>
                <circle id="rim" cx="0" cy="0" r="7"/>
                <circle id="rim2" cx="0" cy="0" r="3.5"/>
                <g id="zoomPlus">
                        <use xlink:href="#rim" fill="#404040">
                                <set attributeName="fill" to="#808080" begin="zoomplus.mouseover" end="zoomplus.mouseout"/>
                        </use>
                        <path d="M-4,0h8M0,-4v8" fill="none" stroke="white" stroke-width="1.5" pointer-events="none"/>
                </g>
                <g id="zoomMin">
                        <use xlink:href="#rim" fill="#404040">
                                <set attributeName="fill" to="#808080" begin="zoomminus.mouseover" end="zoomminus.mouseout"/>
                        </use>
                        <path d="M-4,0h8" fill="none" stroke="white" stroke-width="1.5" pointer-events="none"/>
                </g>
                <g id="dirArrow">
                        <path fill="none" stroke="white" stroke-width="1.5" d="M0,-3.0v7 M-2.5,-0.5L0,-3.0L2.5,-0.5"/>
                </g>
               <g id="resetDef">
                       <use xlink:href="#rim2" fill="#404040">
                               <set attributeName="fill" to="#808080" begin="reset.mouseover" end="reset.mouseout"/>
                       </use>
               </g>
        </defs>

<script type="text/javascript">
var viewWidth = 667;
var viewHeight = 331;
var sectionId = 'dynsection-63';
</script>
<script xlink:href="../../svgpan.js"/>
<svg id="graph" class="graph">
<g id="viewport">
<title>com.cliffc.aa.HM.HM4.T2.unify</title>
<!-- Node1 -->
<g id="node1" class="node">
<title>Node1</title>
<g id="a_node1"><a xlink:title=" ">
<polygon fill="#bfbfbf" stroke="black" points="493,-215.5 493,-234.5 659,-234.5 659,-215.5 493,-215.5"/>
<text text-anchor="middle" x="576" y="-222.5" font-family="Helvetica,sans-Serif" font-size="10.00">com.cliffc.aa.HM.HM4.T2.unify</text>
</a>
</g>
</g>
<!-- Node2 -->
<g id="node2" class="node">
<title>Node2</title>
<g id="a_node2"><a xlink:href="../../df/d9e/a00686.html#a26f6e814d9001bda5d1af63b4346da32" target="_top" xlink:title=" ">
<polygon fill="none" stroke="black" points="290.5,-292 290.5,-322 432.5,-322 432.5,-292 290.5,-292"/>
<text text-anchor="start" x="298.5" y="-310" font-family="Helvetica,sans-Serif" font-size="10.00">com.cliffc.aa.HM.HM4.T2.</text>
<text text-anchor="middle" x="361.5" y="-299" font-family="Helvetica,sans-Serif" font-size="10.00">_fresh_unify</text>
</a>
</g>
</g>
<!-- Node1&#45;&gt;Node2 -->
<g id="edge1" class="edge">
<title>Node1&#45;&gt;Node2</title>
<path fill="none" stroke="midnightblue" d="M534.47,-238.99C512.09,-249.48 483.51,-263.19 457,-273 437.1,-280.36 414.11,-286.49 395.78,-291.89"/>
<polygon fill="midnightblue" stroke="midnightblue" points="536.08,-242.1 543.67,-234.71 533.12,-235.76 536.08,-242.1"/>
</g>
<!-- Node4 -->
<g id="node4" class="node">
<title>Node4</title>
<g id="a_node4"><a xlink:href="../../d1/d97/a00670.html#a3714830d43c384f1f44f4a0024d0f737" target="_top" xlink:title=" ">
<polygon fill="none" stroke="black" points="269,-253.5 269,-272.5 454,-272.5 454,-253.5 269,-253.5"/>
<text text-anchor="middle" x="361.5" y="-260.5" font-family="Helvetica,sans-Serif" font-size="10.00">com.cliffc.aa.HM.HM4.Lambda.hm</text>
</a>
</g>
</g>
<!-- Node1&#45;&gt;Node4 -->
<g id="edge5" class="edge">
<title>Node1&#45;&gt;Node4</title>
<path fill="none" stroke="midnightblue" d="M511.55,-236.35C481.06,-241.8 444.92,-248.26 415.87,-253.46"/>
<polygon fill="midnightblue" stroke="midnightblue" points="512.42,-239.75 521.65,-234.54 511.19,-232.86 512.42,-239.75"/>
</g>
<!-- Node5 -->
<g id="node5" class="node">
<title>Node5</title>
<g id="a_node5"><a xlink:href="../../d8/d73/a00674.html#a7d68ed75fb6ca063aa686e17c0bb3811" target="_top" xlink:title=" ">
<polygon fill="none" stroke="black" points="266,-215.5 266,-234.5 457,-234.5 457,-215.5 266,-215.5"/>
<text text-anchor="middle" x="361.5" y="-222.5" font-family="Helvetica,sans-Serif" font-size="10.00">com.cliffc.aa.HM.HM4.Lambda2.hm</text>
</a>
</g>
</g>
<!-- Node1&#45;&gt;Node5 -->
<g id="edge6" class="edge">
<title>Node1&#45;&gt;Node5</title>
<path fill="none" stroke="midnightblue" d="M482.63,-225C474.19,-225 465.64,-225 457.18,-225"/>
<polygon fill="midnightblue" stroke="midnightblue" points="482.84,-228.5 492.84,-225 482.84,-221.5 482.84,-228.5"/>
</g>
<!-- Node6 -->
<g id="node6" class="node">
<title>Node6</title>
<g id="a_node6"><a xlink:href="../../da/d31/a00678.html#a4b198f0a88be7c501bd5671e83694d01" target="_top" xlink:title=" ">
<polygon fill="none" stroke="black" points="281,-177.5 281,-196.5 442,-196.5 442,-177.5 281,-177.5"/>
<text text-anchor="middle" x="361.5" y="-184.5" font-family="Helvetica,sans-Serif" font-size="10.00">com.cliffc.aa.HM.HM4.Let.hm</text>
</a>
</g>
</g>
<!-- Node1&#45;&gt;Node6 -->
<g id="edge7" class="edge">
<title>Node1&#45;&gt;Node6</title>
<path fill="none" stroke="midnightblue" d="M511.55,-213.65C481.06,-208.2 444.92,-201.74 415.87,-196.54"/>
<polygon fill="midnightblue" stroke="midnightblue" points="511.19,-217.14 521.65,-215.46 512.42,-210.25 511.19,-217.14"/>
</g>
<!-- Node7 -->
<g id="node7" class="node">
<title>Node7</title>
<g id="a_node7"><a xlink:href="../../d7/dc3/a00682.html#a79b1f33baca9f276b7fa8046bea3579e" target="_top" xlink:title=" ">
<polygon fill="none" stroke="black" points="275.5,-139.5 275.5,-158.5 447.5,-158.5 447.5,-139.5 275.5,-139.5"/>
<text text-anchor="middle" x="361.5" y="-146.5" font-family="Helvetica,sans-Serif" font-size="10.00">com.cliffc.aa.HM.HM4.Apply.hm</text>
</a>
</g>
</g>
<!-- Node1&#45;&gt;Node7 -->
<g id="edge8" class="edge">
<title>Node1&#45;&gt;Node7</title>
<path fill="none" stroke="midnightblue" d="M549.46,-210.33C526.08,-197.48 490.17,-179.15 457,-168 445.82,-164.24 433.63,-161.11 421.83,-158.55"/>
<polygon fill="midnightblue" stroke="midnightblue" points="547.93,-213.49 558.37,-215.3 551.34,-207.37 547.93,-213.49"/>
</g>
<!-- Node8 -->
<g id="node8" class="node">
<title>Node8</title>
<g id="a_node8"><a xlink:href="../../d9/db8/a00658.html#a29549fcbf5331bf0c02338914f944684" target="_top" xlink:title=" ">
<polygon fill="none" stroke="black" points="267,-90 267,-120 456,-120 456,-90 267,-90"/>
<text text-anchor="start" x="275" y="-108" font-family="Helvetica,sans-Serif" font-size="10.00">com.cliffc.aa.HM.HM4.Syntax.more</text>
<text text-anchor="middle" x="361.5" y="-97" font-family="Helvetica,sans-Serif" font-size="10.00">_work_impl</text>
</a>
</g>
</g>
<!-- Node1&#45;&gt;Node8 -->
<g id="edge9" class="edge">
<title>Node1&#45;&gt;Node8</title>
<path fill="none" stroke="midnightblue" d="M558.6,-207.96C537.18,-186.66 497.58,-150.52 457,-130 449.43,-126.17 441.21,-122.88 432.88,-120.07"/>
<polygon fill="midnightblue" stroke="midnightblue" points="556.37,-210.68 565.89,-215.33 561.35,-205.76 556.37,-210.68"/>
</g>
<!-- Node2&#45;&gt;Node1 -->
<g id="edge4" class="edge">
<title>Node2&#45;&gt;Node1</title>
<path fill="none" stroke="midnightblue" d="M442.32,-296.04C447.32,-294.45 452.25,-292.76 457,-291 499.46,-275.29 547.21,-249.56 566.37,-234.66"/>
<polygon fill="midnightblue" stroke="midnightblue" points="441.19,-292.73 432.64,-298.99 443.23,-299.42 441.19,-292.73"/>
</g>
<!-- Node3 -->
<g id="node3" class="node">
<title>Node3</title>
<g id="a_node3"><a xlink:href="../../df/d9e/a00686.html#aa6e714cf3be7aba5dfcc8e377d1fe0cf" target="_top" xlink:title=" ">
<polygon fill="none" stroke="black" points="44,-292 44,-322 186,-322 186,-292 44,-292"/>
<text text-anchor="start" x="52" y="-310" font-family="Helvetica,sans-Serif" font-size="10.00">com.cliffc.aa.HM.HM4.T2.</text>
<text text-anchor="middle" x="115" y="-299" font-family="Helvetica,sans-Serif" font-size="10.00">_fresh_unify_impl</text>
</a>
</g>
</g>
<!-- Node2&#45;&gt;Node3 -->
<g id="edge2" class="edge">
<title>Node2&#45;&gt;Node3</title>
<path fill="none" stroke="midnightblue" d="M280.28,-300.62C249.86,-300.06 215.49,-300.14 186.07,-300.83"/>
<polygon fill="midnightblue" stroke="midnightblue" points="280.37,-304.12 290.44,-300.83 280.51,-297.12 280.37,-304.12"/>
</g>
<!-- Node3&#45;&gt;Node2 -->
<g id="edge3" class="edge">
<title>Node3&#45;&gt;Node2</title>
<path fill="none" stroke="midnightblue" d="M196.23,-313.38C226.65,-313.94 261.02,-313.86 290.44,-313.17"/>
<polygon fill="midnightblue" stroke="midnightblue" points="196.14,-309.88 186.07,-313.17 196,-316.88 196.14,-309.88"/>
</g>
<!-- Node9 -->
<g id="node9" class="node">
<title>Node9</title>
<g id="a_node9"><a xlink:href="../../dc/df1/a00662.html#a7f1bfd03bc414d4852808eaeeb0b05b9" target="_top" xlink:title=" ">
<polygon fill="none" stroke="black" points="13.5,-190.5 13.5,-209.5 216.5,-209.5 216.5,-190.5 13.5,-190.5"/>
<text text-anchor="middle" x="115" y="-197.5" font-family="Helvetica,sans-Serif" font-size="10.00">com.cliffc.aa.HM.HM4.Con.more_work</text>
</a>
</g>
</g>
<!-- Node8&#45;&gt;Node9 -->
<g id="edge10" class="edge">
<title>Node8&#45;&gt;Node9</title>
<path fill="none" stroke="midnightblue" d="M275.03,-124.47C271.9,-126.16 268.87,-128 266,-130 243.22,-145.83 253.5,-166.25 230,-181 223.97,-184.79 217.42,-187.89 210.61,-190.42"/>
<polygon fill="midnightblue" stroke="midnightblue" points="276.63,-127.59 284.11,-120.09 273.58,-121.29 276.63,-127.59"/>
</g>
<!-- Node10 -->
<g id="node10" class="node">
<title>Node10</title>
<g id="a_node10"><a xlink:href="../../d9/d41/a00666.html#ae68deb1a282286031d5912666db5c2b9" target="_top" xlink:title=" ">
<polygon fill="none" stroke="black" points="10.5,-152.5 10.5,-171.5 219.5,-171.5 219.5,-152.5 10.5,-152.5"/>
<text text-anchor="middle" x="115" y="-159.5" font-family="Helvetica,sans-Serif" font-size="10.00">com.cliffc.aa.HM.HM4.Ident.more_work</text>
</a>
</g>
</g>
<!-- Node8&#45;&gt;Node10 -->
<g id="edge11" class="edge">
<title>Node8&#45;&gt;Node10</title>
<path fill="none" stroke="midnightblue" d="M290.75,-122.71C282.38,-125.05 273.98,-127.51 266,-130 249.76,-135.07 246.46,-138.7 230,-143 215.73,-146.73 200.26,-149.89 185.45,-152.49"/>
<polygon fill="midnightblue" stroke="midnightblue" points="291.82,-126.04 300.54,-120.01 289.97,-119.3 291.82,-126.04"/>
</g>
<!-- Node11 -->
<g id="node11" class="node">
<title>Node11</title>
<g id="a_node11"><a xlink:href="../../d1/d97/a00670.html#ae1e745d4551e9930ae8b61933e68dc2f" target="_top" xlink:title=" ">
<polygon fill="none" stroke="black" points="3,-114.5 3,-133.5 227,-133.5 227,-114.5 3,-114.5"/>
<text text-anchor="middle" x="115" y="-121.5" font-family="Helvetica,sans-Serif" font-size="10.00">com.cliffc.aa.HM.HM4.Lambda.more_work</text>
</a>
</g>
</g>
<!-- Node8&#45;&gt;Node11 -->
<g id="edge12" class="edge">
<title>Node8&#45;&gt;Node11</title>
<path fill="none" stroke="midnightblue" d="M256.59,-113.07C246.85,-113.83 236.96,-114.6 227.16,-115.36"/>
<polygon fill="midnightblue" stroke="midnightblue" points="256.97,-116.56 266.67,-112.29 256.43,-109.58 256.97,-116.56"/>
</g>
<!-- Node12 -->
<g id="node12" class="node">
<title>Node12</title>
<g id="a_node12"><a xlink:href="../../d8/d73/a00674.html#ab916b1662649738f0661d78b02c3a120" target="_top" xlink:title=" ">
<polygon fill="none" stroke="black" points="0,-76.5 0,-95.5 230,-95.5 230,-76.5 0,-76.5"/>
<text text-anchor="middle" x="115" y="-83.5" font-family="Helvetica,sans-Serif" font-size="10.00">com.cliffc.aa.HM.HM4.Lambda2.more_work</text>
</a>
</g>
</g>
<!-- Node8&#45;&gt;Node12 -->
<g id="edge13" class="edge">
<title>Node8&#45;&gt;Node12</title>
<path fill="none" stroke="midnightblue" d="M256.48,-96.92C247.73,-96.24 238.86,-95.55 230.05,-94.86"/>
<polygon fill="midnightblue" stroke="midnightblue" points="256.43,-100.42 266.67,-97.71 256.97,-93.44 256.43,-100.42"/>
</g>
<!-- Node13 -->
<g id="node13" class="node">
<title>Node13</title>
<g id="a_node13"><a xlink:href="../../da/d31/a00678.html#aa5ffccc5650541cb18f31d16792a05b2" target="_top" xlink:title=" ">
<polygon fill="none" stroke="black" points="15,-38.5 15,-57.5 215,-57.5 215,-38.5 15,-38.5"/>
<text text-anchor="middle" x="115" y="-45.5" font-family="Helvetica,sans-Serif" font-size="10.00">com.cliffc.aa.HM.HM4.Let.more_work</text>
</a>
</g>
</g>
<!-- Node8&#45;&gt;Node13 -->
<g id="edge14" class="edge">
<title>Node8&#45;&gt;Node13</title>
<path fill="none" stroke="midnightblue" d="M303.89,-86.93C281.09,-80.07 254.45,-72.58 230,-67 214.35,-63.43 197.35,-60.24 181.37,-57.53"/>
<polygon fill="midnightblue" stroke="midnightblue" points="303.15,-90.37 313.74,-89.93 305.19,-83.67 303.15,-90.37"/>
</g>
<!-- Node14 -->
<g id="node14" class="node">
<title>Node14</title>
<g id="a_node14"><a xlink:href="../../d7/dc3/a00682.html#a5bfaad6c019ea77df70ba668adcb127f" target="_top" xlink:title=" ">
<polygon fill="none" stroke="black" points="9.5,-0.5 9.5,-19.5 220.5,-19.5 220.5,-0.5 9.5,-0.5"/>
<text text-anchor="middle" x="115" y="-7.5" font-family="Helvetica,sans-Serif" font-size="10.00">com.cliffc.aa.HM.HM4.Apply.more_work</text>
</a>
</g>
</g>
<!-- Node8&#45;&gt;Node14 -->
<g id="edge15" class="edge">
<title>Node8&#45;&gt;Node14</title>
<path fill="none" stroke="midnightblue" d="M331.53,-83.97C306.04,-66.52 267.28,-42.45 230,-29 219.24,-25.12 207.62,-22.02 196.06,-19.56"/>
<polygon fill="midnightblue" stroke="midnightblue" points="329.76,-87.01 339.97,-89.84 333.76,-81.26 329.76,-87.01"/>
</g>
</g>
</svg>
        <g id="navigator" transform="translate(0 0)" fill="#404254">
                <rect fill="#f2f5e9" fill-opacity="0.5" stroke="#606060" stroke-width=".5" x="0" y="0" width="60" height="60"/>
                <use id="zoomplus" xlink:href="#zoomPlus" x="17" y="9" onmousedown="handleZoom(evt,'in')"/>
                <use id="zoomminus" xlink:href="#zoomMin" x="42" y="9" onmousedown="handleZoom(evt,'out')"/>
                <use id="reset" xlink:href="#resetDef" x="30" y="36" onmousedown="handleReset()"/>
                <g id="arrowUp" xlink:href="#dirArrow" transform="translate(30 24)" onmousedown="handlePan(0,-1)">
                  <use xlink:href="#rim" fill="#404040">
                        <set attributeName="fill" to="#808080" begin="arrowUp.mouseover" end="arrowUp.mouseout"/>
                  </use>
                  <path fill="none" stroke="white" stroke-width="1.5" d="M0,-3.0v7 M-2.5,-0.5L0,-3.0L2.5,-0.5"/>
                </g>
                <g id="arrowRight" xlink:href="#dirArrow" transform="rotate(90) translate(36 -43)" onmousedown="handlePan(1,0)">
                  <use xlink:href="#rim" fill="#404040">
                        <set attributeName="fill" to="#808080" begin="arrowRight.mouseover" end="arrowRight.mouseout"/>
                  </use>
                  <path fill="none" stroke="white" stroke-width="1.5" d="M0,-3.0v7 M-2.5,-0.5L0,-3.0L2.5,-0.5"/>
                </g>
                <g id="arrowDown" xlink:href="#dirArrow" transform="rotate(180) translate(-30 -48)" onmousedown="handlePan(0,1)">
                  <use xlink:href="#rim" fill="#404040">
                        <set attributeName="fill" to="#808080" begin="arrowDown.mouseover" end="arrowDown.mouseout"/>
                  </use>
                  <path fill="none" stroke="white" stroke-width="1.5" d="M0,-3.0v7 M-2.5,-0.5L0,-3.0L2.5,-0.5"/>
                </g>
                <g id="arrowLeft" xlink:href="#dirArrow" transform="rotate(270) translate(-36 17)" onmousedown="handlePan(-1,0)">
                  <use xlink:href="#rim" fill="#404040">
                        <set attributeName="fill" to="#808080" begin="arrowLeft.mouseover" end="arrowLeft.mouseout"/>
                  </use>
                  <path fill="none" stroke="white" stroke-width="1.5" d="M0,-3.0v7 M-2.5,-0.5L0,-3.0L2.5,-0.5"/>
                </g>
        </g>
        <svg viewBox="0 0 15 15" width="100%" height="30px" preserveAspectRatio="xMaxYMin meet">
         <g id="arrow_out" transform="scale(0.3 0.3)">
          <a xlink:href="a00686_abf5bfa66be5c26050e1f460e943bdbc7_icgraph_org.svg" target="_base">
           <rect id="button" ry="5" rx="5" y="6" x="6" height="38" width="38"
                fill="#f2f5e9" fill-opacity="0.5" stroke="#606060" stroke-width="1.0"/>
           <path id="arrow"
             d="M 11.500037,31.436501 C 11.940474,20.09759 22.043105,11.32322 32.158766,21.979434 L 37.068811,17.246167 C 37.068811,17.246167 37.088388,32 37.088388,32 L 22.160133,31.978069 C 22.160133,31.978069 26.997745,27.140456 26.997745,27.140456 C 18.528582,18.264221 13.291696,25.230495 11.500037,31.436501 z"
             style="fill:#404040;"/>
          </a>
         </g>
        </svg>
</svg>
