<?xml version="1.0" encoding="UTF-8" standalone="no"?>
<!DOCTYPE svg PUBLIC "-//W3C//DTD SVG 1.1//EN"
 "http://www.w3.org/Graphics/SVG/1.1/DTD/svg11.dtd">
<!-- Generated by graphviz version 2.43.0 (0)
 -->
<!-- Title: com.cliffc.aa.HM.HM4.T2.str Pages: 1 -->
<svg width="598pt" height="180pt"
 viewBox="0.00 0.00 598.00 180.00" xmlns="http://www.w3.org/2000/svg" xmlns:xlink="http://www.w3.org/1999/xlink">
<g id="graph0" class="graph" transform="scale(1 1) rotate(0) translate(4 176)">
<title>com.cliffc.aa.HM.HM4.T2.str</title>
<!-- Node1 -->
<g id="node1" class="node">
<title>Node1</title>
<g id="a_node1"><a xlink:title=" ">
<polygon fill="#bfbfbf" stroke="black" points="435,-54.5 435,-73.5 590,-73.5 590,-54.5 435,-54.5"/>
<text text-anchor="middle" x="512.5" y="-61.5" font-family="Helvetica,sans-Serif" font-size="10.00">com.cliffc.aa.HM.HM4.T2.str</text>
</a>
</g>
</g>
<!-- Node1&#45;&gt;Node1 -->
<g id="edge7" class="edge">
<title>Node1&#45;&gt;Node1</title>
<path fill="none" stroke="midnightblue" d="M550,-81.5C549.99,-87.34 537.49,-92 512.5,-92 476.95,-92 466.68,-82.57 481.67,-73.76"/>
<polygon fill="midnightblue" stroke="midnightblue" points="552.5,-79.05 543.33,-73.76 547.2,-83.62 552.5,-79.05"/>
</g>
<!-- Node2 -->
<g id="node2" class="node">
<title>Node2</title>
<g id="a_node2"><a xlink:href="../../d9/db8/a00658.html#aa9edf05d5a5c7d0eae784c2675addd3f" target="_top" xlink:title=" ">
<polygon fill="none" stroke="black" points="223,-76.5 223,-95.5 399,-95.5 399,-76.5 223,-76.5"/>
<text text-anchor="middle" x="311" y="-83.5" font-family="Helvetica,sans-Serif" font-size="10.00">com.cliffc.aa.HM.HM4.Syntax.p0</text>
</a>
</g>
</g>
<!-- Node1&#45;&gt;Node2 -->
<g id="edge1" class="edge">
<title>Node1&#45;&gt;Node2</title>
<path fill="none" stroke="midnightblue" d="M424.74,-73.57C415.98,-74.53 407.09,-75.51 398.33,-76.48"/>
<polygon fill="midnightblue" stroke="midnightblue" points="425.38,-77.02 434.94,-72.44 424.62,-70.06 425.38,-77.02"/>
</g>
<!-- Node8 -->
<g id="node8" class="node">
<title>Node8</title>
<g id="a_node8"><a xlink:href="../../df/d9e/a00686.html#a34797748b7ac3f282c05aa27902efce0" target="_top" xlink:title=" ">
<polygon fill="none" stroke="black" points="235,-27 235,-57 387,-57 387,-27 235,-27"/>
<text text-anchor="start" x="243" y="-45" font-family="Helvetica,sans-Serif" font-size="10.00">com.cliffc.aa.HM.HM4.T2.to</text>
<text text-anchor="middle" x="311" y="-34" font-family="Helvetica,sans-Serif" font-size="10.00">String</text>
</a>
</g>
</g>
<!-- Node1&#45;&gt;Node8 -->
<g id="edge8" class="edge">
<title>Node1&#45;&gt;Node8</title>
<path fill="none" stroke="midnightblue" d="M424.9,-54.45C412.29,-53.06 399.4,-51.64 387.04,-50.28"/>
<polygon fill="midnightblue" stroke="midnightblue" points="424.62,-57.94 434.94,-55.56 425.38,-50.98 424.62,-57.94"/>
</g>
<!-- Node3 -->
<g id="node3" class="node">
<title>Node3</title>
<g id="a_node3"><a xlink:href="../../d9/db8/a00658.html#a9a05a34c49594927ba75643bfb76a0c2" target="_top" xlink:title=" ">
<polygon fill="none" stroke="black" points="8.5,-152.5 8.5,-171.5 178.5,-171.5 178.5,-152.5 8.5,-152.5"/>
<text text-anchor="middle" x="93.5" y="-159.5" font-family="Helvetica,sans-Serif" font-size="10.00">com.cliffc.aa.HM.HM4.Syntax.p</text>
</a>
</g>
</g>
<!-- Node2&#45;&gt;Node3 -->
<g id="edge2" class="edge">
<title>Node2&#45;&gt;Node3</title>
<path fill="none" stroke="midnightblue" d="M283.61,-100.41C259.18,-113.22 221.53,-131.62 187,-143 175.63,-146.75 163.23,-149.9 151.3,-152.49"/>
<polygon fill="midnightblue" stroke="midnightblue" points="285.41,-103.42 292.6,-95.64 282.13,-97.24 285.41,-103.42"/>
</g>
<!-- Node4 -->
<g id="node4" class="node">
<title>Node4</title>
<g id="a_node4"><a xlink:href="../../d1/d97/a00670.html#ae6d2e30cebb31b7d367eb4862a4a6673" target="_top" xlink:title=" ">
<polygon fill="none" stroke="black" points="3,-114.5 3,-133.5 184,-133.5 184,-114.5 3,-114.5"/>
<text text-anchor="middle" x="93.5" y="-121.5" font-family="Helvetica,sans-Serif" font-size="10.00">com.cliffc.aa.HM.HM4.Lambda.p2</text>
</a>
</g>
</g>
<!-- Node2&#45;&gt;Node4 -->
<g id="edge3" class="edge">
<title>Node2&#45;&gt;Node4</title>
<path fill="none" stroke="midnightblue" d="M245.65,-97.35C214.73,-102.8 178.09,-109.26 148.62,-114.46"/>
<polygon fill="midnightblue" stroke="midnightblue" points="246.66,-100.72 255.9,-95.54 245.44,-93.83 246.66,-100.72"/>
</g>
<!-- Node5 -->
<g id="node5" class="node">
<title>Node5</title>
<g id="a_node5"><a xlink:href="../../d8/d73/a00674.html#af0bb37f38dc610df1367f21654ec0f75" target="_top" xlink:title=" ">
<polygon fill="none" stroke="black" points="0,-76.5 0,-95.5 187,-95.5 187,-76.5 0,-76.5"/>
<text text-anchor="middle" x="93.5" y="-83.5" font-family="Helvetica,sans-Serif" font-size="10.00">com.cliffc.aa.HM.HM4.Lambda2.p2</text>
</a>
</g>
</g>
<!-- Node2&#45;&gt;Node5 -->
<g id="edge4" class="edge">
<title>Node2&#45;&gt;Node5</title>
<path fill="none" stroke="midnightblue" d="M212.95,-86C204.36,-86 195.68,-86 187.14,-86"/>
<polygon fill="midnightblue" stroke="midnightblue" points="212.97,-89.5 222.97,-86 212.97,-82.5 212.97,-89.5"/>
</g>
<!-- Node6 -->
<g id="node6" class="node">
<title>Node6</title>
<g id="a_node6"><a xlink:href="../../da/d31/a00678.html#a444e036aa19ac28183e8e527238d41e8" target="_top" xlink:title=" ">
<polygon fill="none" stroke="black" points="15,-38.5 15,-57.5 172,-57.5 172,-38.5 15,-38.5"/>
<text text-anchor="middle" x="93.5" y="-45.5" font-family="Helvetica,sans-Serif" font-size="10.00">com.cliffc.aa.HM.HM4.Let.p2</text>
</a>
</g>
</g>
<!-- Node2&#45;&gt;Node6 -->
<g id="edge5" class="edge">
<title>Node2&#45;&gt;Node6</title>
<path fill="none" stroke="midnightblue" d="M245.65,-74.65C214.73,-69.2 178.09,-62.74 148.62,-57.54"/>
<polygon fill="midnightblue" stroke="midnightblue" points="245.44,-78.17 255.9,-76.46 246.66,-71.28 245.44,-78.17"/>
</g>
<!-- Node7 -->
<g id="node7" class="node">
<title>Node7</title>
<g id="a_node7"><a xlink:href="../../d7/dc3/a00682.html#a206ac983aa361c19b002a894bd1d4cc9" target="_top" xlink:title=" ">
<polygon fill="none" stroke="black" points="9.5,-0.5 9.5,-19.5 177.5,-19.5 177.5,-0.5 9.5,-0.5"/>
<text text-anchor="middle" x="93.5" y="-7.5" font-family="Helvetica,sans-Serif" font-size="10.00">com.cliffc.aa.HM.HM4.Apply.p2</text>
</a>
</g>
</g>
<!-- Node2&#45;&gt;Node7 -->
<g id="edge6" class="edge">
<title>Node2&#45;&gt;Node7</title>
<path fill="none" stroke="midnightblue" d="M235.52,-72.96C231.18,-71.22 226.97,-69.24 223,-67 202.74,-55.57 207.33,-40.31 187,-29 179.98,-25.1 172.26,-21.99 164.36,-19.52"/>
<polygon fill="midnightblue" stroke="midnightblue" points="234.6,-76.35 245.19,-76.42 236.95,-69.75 234.6,-76.35"/>
</g>
</g>
</svg>
