<?xml version="1.0" encoding="UTF-8" standalone="no"?>
<!DOCTYPE svg PUBLIC "-//W3C//DTD SVG 1.1//EN"
 "http://www.w3.org/Graphics/SVG/1.1/DTD/svg11.dtd">
<!-- Generated by graphviz version 2.43.0 (0)
 -->
<!-- Title: com.cliffc.aa.HM.HM4.T2.p Pages: 1 -->
<svg width="1186pt" height="422pt"
 viewBox="0.00 0.00 1186.00 422.46" xmlns="http://www.w3.org/2000/svg" xmlns:xlink="http://www.w3.org/1999/xlink">
<g id="graph0" class="graph" transform="scale(1 1) rotate(0) translate(4 418.46)">
<title>com.cliffc.aa.HM.HM4.T2.p</title>
<!-- Node1 -->
<g id="node1" class="node">
<title>Node1</title>
<g id="a_node1"><a xlink:title=" ">
<polygon fill="#bfbfbf" stroke="black" points="0,-202.5 0,-221.5 148,-221.5 148,-202.5 0,-202.5"/>
<text text-anchor="middle" x="74" y="-209.5" font-family="Helvetica,sans-Serif" font-size="10.00">com.cliffc.aa.HM.HM4.T2.p</text>
</a>
</g>
</g>
<!-- Node2 -->
<g id="node2" class="node">
<title>Node2</title>
<g id="a_node2"><a xlink:href="../../df/d9e/a00686.html#a9e6147a3a31b00c656c7d87fe9eebcf0" target="_top" xlink:title=" ">
<polygon fill="none" stroke="black" points="184,-202.5 184,-221.5 337,-221.5 337,-202.5 184,-202.5"/>
<text text-anchor="middle" x="260.5" y="-209.5" font-family="Helvetica,sans-Serif" font-size="10.00">com.cliffc.aa.HM.HM4.T2._p</text>
</a>
</g>
</g>
<!-- Node1&#45;&gt;Node2 -->
<g id="edge1" class="edge">
<title>Node1&#45;&gt;Node2</title>
<path fill="none" stroke="midnightblue" d="M148.18,-212C156.64,-212 165.33,-212 173.94,-212"/>
<polygon fill="midnightblue" stroke="midnightblue" points="173.98,-215.5 183.98,-212 173.98,-208.5 173.98,-215.5"/>
</g>
<!-- Node3 -->
<g id="node3" class="node">
<title>Node3</title>
<g id="a_node3"><a xlink:href="../../df/d9e/a00686.html#a249fbf86044afba4570c9e758ee05b40" target="_top" xlink:title=" ">
<polygon fill="none" stroke="black" points="592.5,-290.5 592.5,-309.5 752.5,-309.5 752.5,-290.5 592.5,-290.5"/>
<text text-anchor="middle" x="672.5" y="-297.5" font-family="Helvetica,sans-Serif" font-size="10.00">com.cliffc.aa.HM.HM4.T2.find</text>
</a>
</g>
</g>
<!-- Node1&#45;&gt;Node3 -->
<g id="edge24" class="edge">
<title>Node1&#45;&gt;Node3</title>
<path fill="none" stroke="midnightblue" d="M87.1,-221.62C125.82,-251.71 251.31,-343.89 373,-375 447.92,-394.15 472.49,-395.71 547,-375 588.18,-363.56 629.36,-334.43 652.52,-316.02"/>
<polygon fill="midnightblue" stroke="midnightblue" points="654.93,-318.58 660.48,-309.55 650.51,-313.15 654.93,-318.58"/>
</g>
<!-- Node18 -->
<g id="node18" class="node">
<title>Node18</title>
<g id="a_node18"><a xlink:href="../../d4/d99/a01634.html#a810e7fa54cbd178760c86b30b2aa893c" target="_top" xlink:title=" ">
<polygon fill="none" stroke="black" points="197.5,-153 197.5,-183 323.5,-183 323.5,-153 197.5,-153"/>
<text text-anchor="start" x="205.5" y="-171" font-family="Helvetica,sans-Serif" font-size="10.00">com.cliffc.aa.util.SB.to</text>
<text text-anchor="middle" x="260.5" y="-160" font-family="Helvetica,sans-Serif" font-size="10.00">String</text>
</a>
</g>
</g>
<!-- Node1&#45;&gt;Node18 -->
<g id="edge25" class="edge">
<title>Node1&#45;&gt;Node18</title>
<path fill="none" stroke="midnightblue" d="M115.03,-202.45C136.18,-197.41 162.78,-191.07 187.38,-185.2"/>
<polygon fill="midnightblue" stroke="midnightblue" points="188.49,-188.53 197.41,-182.81 186.87,-181.72 188.49,-188.53"/>
</g>
<!-- Node2&#45;&gt;Node2 -->
<g id="edge2" class="edge">
<title>Node2&#45;&gt;Node2</title>
<path fill="none" stroke="midnightblue" d="M231.83,-221.76C217.89,-230.57 227.44,-240 260.5,-240 283.23,-240 294.85,-235.54 295.36,-229.89"/>
<polygon fill="midnightblue" stroke="midnightblue" points="298.01,-227.6 289.17,-221.76 292.44,-231.83 298.01,-227.6"/>
</g>
<!-- Node2&#45;&gt;Node3 -->
<g id="edge3" class="edge">
<title>Node2&#45;&gt;Node3</title>
<path fill="none" stroke="midnightblue" d="M337.01,-208.15C395.49,-207.27 477.9,-210.66 547,-231 586.1,-242.51 626.49,-267.83 650.29,-284.39"/>
<polygon fill="midnightblue" stroke="midnightblue" points="648.38,-287.32 658.56,-290.26 652.43,-281.61 648.38,-287.32"/>
</g>
<!-- Node5 -->
<g id="node5" class="node">
<title>Node5</title>
<g id="a_node5"><a xlink:href="../../df/d9e/a00686.html#a80738ac3035f8e19e99947806cc011c5" target="_top" xlink:title=" ">
<polygon fill="none" stroke="black" points="798,-328.5 798,-347.5 967,-347.5 967,-328.5 798,-328.5"/>
<text text-anchor="middle" x="882.5" y="-335.5" font-family="Helvetica,sans-Serif" font-size="10.00">com.cliffc.aa.HM.HM4.T2.no_uf</text>
</a>
</g>
</g>
<!-- Node2&#45;&gt;Node5 -->
<g id="edge17" class="edge">
<title>Node2&#45;&gt;Node5</title>
<path fill="none" stroke="midnightblue" d="M264.55,-221.78C274.43,-251.56 308.71,-341.09 373,-375 534.37,-460.13 765.53,-384.19 849.49,-351.36"/>
<polygon fill="midnightblue" stroke="midnightblue" points="850.98,-354.53 858.98,-347.59 848.4,-348.03 850.98,-354.53"/>
</g>
<!-- Node6 -->
<g id="node6" class="node">
<title>Node6</title>
<g id="a_node6"><a xlink:href="../../df/d9e/a00686.html#ab502c0ca93a69cdbb19f845b808f9cce" target="_top" xlink:title=" ">
<polygon fill="none" stroke="black" points="381,-153 381,-183 539,-183 539,-153 381,-153"/>
<text text-anchor="start" x="389" y="-171" font-family="Helvetica,sans-Serif" font-size="10.00">com.cliffc.aa.HM.HM4.T2.get</text>
<text text-anchor="middle" x="460" y="-160" font-family="Helvetica,sans-Serif" font-size="10.00">_fresh</text>
</a>
</g>
</g>
<!-- Node2&#45;&gt;Node6 -->
<g id="edge7" class="edge">
<title>Node2&#45;&gt;Node6</title>
<path fill="none" stroke="midnightblue" d="M304.35,-202.45C326.89,-197.43 355.21,-191.12 381.44,-185.28"/>
<polygon fill="midnightblue" stroke="midnightblue" points="382.38,-188.66 391.38,-183.07 380.86,-181.82 382.38,-188.66"/>
</g>
<!-- Node10 -->
<g id="node10" class="node">
<title>Node10</title>
<g id="a_node10"><a xlink:href="../../df/d9e/a00686.html#a59001ede07de8e1ed5fe6e18d7b6ec5d" target="_top" xlink:title=" ">
<polygon fill="none" stroke="black" points="597.5,-109 597.5,-139 747.5,-139 747.5,-109 597.5,-109"/>
<text text-anchor="start" x="605.5" y="-127" font-family="Helvetica,sans-Serif" font-size="10.00">com.cliffc.aa.HM.HM4.T2.is</text>
<text text-anchor="middle" x="672.5" y="-116" font-family="Helvetica,sans-Serif" font-size="10.00">_fresh</text>
</a>
</g>
</g>
<!-- Node2&#45;&gt;Node10 -->
<g id="edge14" class="edge">
<title>Node2&#45;&gt;Node10</title>
<path fill="none" stroke="midnightblue" d="M318.2,-202.36C324.84,-199.91 331.28,-196.85 337,-193 359.43,-177.92 349.31,-157 373,-144 438.34,-108.13 524.23,-106.19 587.09,-111.41"/>
<polygon fill="midnightblue" stroke="midnightblue" points="587.1,-114.93 597.37,-112.35 587.73,-107.96 587.1,-114.93"/>
</g>
<!-- Node11 -->
<g id="node11" class="node">
<title>Node11</title>
<g id="a_node11"><a xlink:href="../../df/d9e/a00686.html#aee2bc202750d994abee8bd20478a0107" target="_top" xlink:title=" ">
<polygon fill="none" stroke="black" points="583,-54.5 583,-73.5 762,-73.5 762,-54.5 583,-54.5"/>
<text text-anchor="middle" x="672.5" y="-61.5" font-family="Helvetica,sans-Serif" font-size="10.00">com.cliffc.aa.HM.HM4.T2.is_base</text>
</a>
</g>
</g>
<!-- Node2&#45;&gt;Node11 -->
<g id="edge13" class="edge">
<title>Node2&#45;&gt;Node11</title>
<path fill="none" stroke="midnightblue" d="M323.39,-202.46C328.38,-199.96 333.02,-196.86 337,-193 378.83,-152.48 326.68,-102.31 373,-67 449.72,-8.52 572.68,-33.5 634.08,-51.48"/>
<polygon fill="midnightblue" stroke="midnightblue" points="633.16,-54.86 643.75,-54.41 635.19,-48.16 633.16,-54.86"/>
</g>
<!-- Node12 -->
<g id="node12" class="node">
<title>Node12</title>
<g id="a_node12"><a xlink:href="../../df/d9e/a00686.html#a3342d1d1f4c4abc7793deeba3f42aeb9" target="_top" xlink:title=" ">
<polygon fill="none" stroke="black" points="373,-76.5 373,-95.5 547,-95.5 547,-76.5 373,-76.5"/>
<text text-anchor="middle" x="460" y="-83.5" font-family="Helvetica,sans-Serif" font-size="10.00">com.cliffc.aa.HM.HM4.T2.is_leaf</text>
</a>
</g>
</g>
<!-- Node2&#45;&gt;Node12 -->
<g id="edge15" class="edge">
<title>Node2&#45;&gt;Node12</title>
<path fill="none" stroke="midnightblue" d="M321.75,-202.41C327.26,-199.94 332.47,-196.85 337,-193 367.65,-166.97 342.69,-136.42 373,-110 377.75,-105.86 383.17,-102.42 388.92,-99.58"/>
<polygon fill="midnightblue" stroke="midnightblue" points="390.38,-102.76 398.17,-95.58 387.6,-96.33 390.38,-102.76"/>
</g>
<!-- Node13 -->
<g id="node13" class="node">
<title>Node13</title>
<g id="a_node13"><a xlink:href="../../d4/d99/a01634.html#ac801338e82849a7fe2ae7a0feb80bb55" target="_top" xlink:title=" ">
<polygon fill="none" stroke="black" points="399,-0.5 399,-19.5 521,-19.5 521,-0.5 399,-0.5"/>
<text text-anchor="middle" x="460" y="-7.5" font-family="Helvetica,sans-Serif" font-size="10.00">com.cliffc.aa.util.SB.p</text>
</a>
</g>
</g>
<!-- Node2&#45;&gt;Node13 -->
<g id="edge18" class="edge">
<title>Node2&#45;&gt;Node13</title>
<path fill="none" stroke="midnightblue" d="M324.34,-202.32C329,-199.84 333.32,-196.77 337,-193 387.62,-141.16 323.05,-86.49 373,-34 377.74,-29.02 383.42,-25.05 389.56,-21.88"/>
<polygon fill="midnightblue" stroke="midnightblue" points="391.11,-25.02 398.86,-17.79 388.29,-18.61 391.11,-25.02"/>
</g>
<!-- Node15 -->
<g id="node15" class="node">
<title>Node15</title>
<g id="a_node15"><a xlink:href="../../d0/de2/a01442.html#a07f49bb79ed4ff3f46f518a26793b2fe" target="_top" xlink:title=" ">
<polygon fill="none" stroke="black" points="389,-335 389,-365 531,-365 531,-335 389,-335"/>
<text text-anchor="start" x="397" y="-353" font-family="Helvetica,sans-Serif" font-size="10.00">com.cliffc.aa.type.Type.to</text>
<text text-anchor="middle" x="460" y="-342" font-family="Helvetica,sans-Serif" font-size="10.00">String</text>
</a>
</g>
</g>
<!-- Node2&#45;&gt;Node15 -->
<g id="edge20" class="edge">
<title>Node2&#45;&gt;Node15</title>
<path fill="none" stroke="midnightblue" d="M268.37,-221.8C284.23,-243.68 325.65,-296.78 373,-325 376.61,-327.15 380.41,-329.12 384.32,-330.94"/>
<polygon fill="midnightblue" stroke="midnightblue" points="383.06,-334.2 393.63,-334.87 385.79,-327.75 383.06,-334.2"/>
</g>
<!-- Node16 -->
<g id="node16" class="node">
<title>Node16</title>
<g id="a_node16"><a xlink:href="../../df/dee/a01646.html#a88ad20daf92e92fe0e3925b23c4fecf0" target="_top" xlink:title=" ">
<polygon fill="none" stroke="black" points="381,-296.5 381,-315.5 539,-315.5 539,-296.5 381,-296.5"/>
<text text-anchor="middle" x="460" y="-303.5" font-family="Helvetica,sans-Serif" font-size="10.00">com.cliffc.aa.util.VBitSet.tset</text>
</a>
</g>
</g>
<!-- Node2&#45;&gt;Node16 -->
<g id="edge21" class="edge">
<title>Node2&#45;&gt;Node16</title>
<path fill="none" stroke="midnightblue" d="M272.69,-221.66C291.89,-237.72 332.9,-269.82 373,-287 378.9,-289.53 385.18,-291.74 391.56,-293.67"/>
<polygon fill="midnightblue" stroke="midnightblue" points="391.04,-297.16 401.62,-296.47 392.92,-290.42 391.04,-297.16"/>
</g>
<!-- Node17 -->
<g id="node17" class="node">
<title>Node17</title>
<g id="a_node17"><a xlink:href="../../d4/d99/a01634.html#a6536bbd3de1ca1c901e1cb9527dbf3db" target="_top" xlink:title=" ">
<polygon fill="none" stroke="black" points="385.5,-240.5 385.5,-259.5 534.5,-259.5 534.5,-240.5 385.5,-240.5"/>
<text text-anchor="middle" x="460" y="-247.5" font-family="Helvetica,sans-Serif" font-size="10.00">com.cliffc.aa.util.SB.unchar</text>
</a>
</g>
</g>
<!-- Node2&#45;&gt;Node17 -->
<g id="edge22" class="edge">
<title>Node2&#45;&gt;Node17</title>
<path fill="none" stroke="midnightblue" d="M311.08,-221.54C337.85,-226.69 371.08,-233.08 399.26,-238.51"/>
<polygon fill="midnightblue" stroke="midnightblue" points="398.92,-242 409.4,-240.46 400.24,-235.13 398.92,-242"/>
</g>
<!-- Node4 -->
<g id="node4" class="node">
<title>Node4</title>
<g id="a_node4"><a xlink:href="../../df/d9e/a00686.html#aa3993197ada45847bc991266dc485460" target="_top" xlink:title=" ">
<polygon fill="none" stroke="black" points="1003,-309.5 1003,-328.5 1178,-328.5 1178,-309.5 1003,-309.5"/>
<text text-anchor="middle" x="1090.5" y="-316.5" font-family="Helvetica,sans-Serif" font-size="10.00">com.cliffc.aa.HM.HM4.T2.is_tvar</text>
</a>
</g>
</g>
<!-- Node3&#45;&gt;Node4 -->
<g id="edge4" class="edge">
<title>Node3&#45;&gt;Node4</title>
<path fill="none" stroke="midnightblue" d="M752.73,-303.62C820.95,-306.73 919.64,-311.24 992.56,-314.57"/>
<polygon fill="midnightblue" stroke="midnightblue" points="992.52,-318.07 1002.67,-315.03 992.84,-311.08 992.52,-318.07"/>
</g>
<!-- Node3&#45;&gt;Node5 -->
<g id="edge5" class="edge">
<title>Node3&#45;&gt;Node5</title>
<path fill="none" stroke="midnightblue" d="M725.72,-309.54C754.15,-314.73 789.52,-321.2 819.37,-326.65"/>
<polygon fill="midnightblue" stroke="midnightblue" points="818.79,-330.1 829.26,-328.46 820.05,-323.22 818.79,-330.1"/>
</g>
<!-- Node5&#45;&gt;Node4 -->
<g id="edge6" class="edge">
<title>Node5&#45;&gt;Node4</title>
<path fill="none" stroke="midnightblue" d="M967.29,-330.27C975.69,-329.5 984.28,-328.7 992.8,-327.92"/>
<polygon fill="midnightblue" stroke="midnightblue" points="993.14,-331.4 1002.77,-327 992.49,-324.43 993.14,-331.4"/>
</g>
<!-- Node6&#45;&gt;Node3 -->
<g id="edge9" class="edge">
<title>Node6&#45;&gt;Node3</title>
<path fill="none" stroke="midnightblue" d="M513.67,-183.09C524.99,-187.22 536.66,-192.2 547,-198 558.47,-204.43 620.35,-256.52 652.33,-283.67"/>
<polygon fill="midnightblue" stroke="midnightblue" points="650.25,-286.49 660.13,-290.3 654.78,-281.16 650.25,-286.49"/>
</g>
<!-- Node7 -->
<g id="node7" class="node">
<title>Node7</title>
<g id="a_node7"><a xlink:href="../../dd/d55/a01638.html#a3975ba7dca9fe2d6e4992b2b5558f882" target="_top" xlink:title=" ">
<polygon fill="none" stroke="black" points="606,-158.5 606,-177.5 739,-177.5 739,-158.5 606,-158.5"/>
<text text-anchor="middle" x="672.5" y="-165.5" font-family="Helvetica,sans-Serif" font-size="10.00">com.cliffc.aa.util.Util.eq</text>
</a>
</g>
</g>
<!-- Node6&#45;&gt;Node7 -->
<g id="edge8" class="edge">
<title>Node6&#45;&gt;Node7</title>
<path fill="none" stroke="midnightblue" d="M539.08,-168C557.64,-168 577.41,-168 595.86,-168"/>
<polygon fill="midnightblue" stroke="midnightblue" points="595.96,-171.5 605.96,-168 595.96,-164.5 595.96,-171.5"/>
</g>
<!-- Node8 -->
<g id="node8" class="node">
<title>Node8</title>
<g id="a_node8"><a xlink:href="../../df/d9e/a00686.html#ae43a224224370c6753bc947260daa1d7" target="_top" xlink:title=" ">
<polygon fill="none" stroke="black" points="593.5,-196.5 593.5,-215.5 751.5,-215.5 751.5,-196.5 593.5,-196.5"/>
<text text-anchor="middle" x="672.5" y="-203.5" font-family="Helvetica,sans-Serif" font-size="10.00">com.cliffc.aa.HM.HM4.T2.fun</text>
</a>
</g>
</g>
<!-- Node6&#45;&gt;Node8 -->
<g id="edge10" class="edge">
<title>Node6&#45;&gt;Node8</title>
<path fill="none" stroke="midnightblue" d="M539.08,-182.1C562.12,-186.25 587.01,-190.75 608.93,-194.71"/>
<polygon fill="midnightblue" stroke="midnightblue" points="608.32,-198.15 618.78,-196.48 609.56,-191.26 608.32,-198.15"/>
</g>
<!-- Node6&#45;&gt;Node10 -->
<g id="edge12" class="edge">
<title>Node6&#45;&gt;Node10</title>
<path fill="none" stroke="midnightblue" d="M532.85,-152.98C551.13,-149.16 570.9,-145.03 589.63,-141.11"/>
<polygon fill="midnightblue" stroke="midnightblue" points="590.54,-144.5 599.61,-139.03 589.11,-137.65 590.54,-144.5"/>
</g>
<!-- Node9 -->
<g id="node9" class="node">
<title>Node9</title>
<g id="a_node9"><a xlink:href="../../df/d9e/a00686.html#aabdf74cfdeefb79633b05011d50ce690" target="_top" xlink:title=" ">
<polygon fill="none" stroke="black" points="805.5,-196.5 805.5,-215.5 959.5,-215.5 959.5,-196.5 805.5,-196.5"/>
<text text-anchor="middle" x="882.5" y="-203.5" font-family="Helvetica,sans-Serif" font-size="10.00">com.cliffc.aa.HM.HM4.T2.T2</text>
</a>
</g>
</g>
<!-- Node8&#45;&gt;Node9 -->
<g id="edge11" class="edge">
<title>Node8&#45;&gt;Node9</title>
<path fill="none" stroke="midnightblue" d="M751.54,-206C765.74,-206 780.62,-206 795.04,-206"/>
<polygon fill="midnightblue" stroke="midnightblue" points="795.44,-209.5 805.44,-206 795.44,-202.5 795.44,-209.5"/>
</g>
<!-- Node12&#45;&gt;Node11 -->
<g id="edge16" class="edge">
<title>Node12&#45;&gt;Node11</title>
<path fill="none" stroke="midnightblue" d="M547.23,-76.99C555.63,-76.11 564.2,-75.21 572.72,-74.32"/>
<polygon fill="midnightblue" stroke="midnightblue" points="573.1,-77.8 582.68,-73.28 572.37,-70.84 573.1,-77.8"/>
</g>
<!-- Node14 -->
<g id="node14" class="node">
<title>Node14</title>
<g id="a_node14"><a xlink:href="../../d4/d99/a01634.html#abd1b8ac722e0fb0bf1e7b2ea0eaeb0b6" target="_top" xlink:title=" ">
<polygon fill="none" stroke="black" points="611.5,-0.5 611.5,-19.5 733.5,-19.5 733.5,-0.5 611.5,-0.5"/>
<text text-anchor="middle" x="672.5" y="-7.5" font-family="Helvetica,sans-Serif" font-size="10.00">com.cliffc.aa.util.SB.s</text>
</a>
</g>
</g>
<!-- Node13&#45;&gt;Node14 -->
<g id="edge19" class="edge">
<title>Node13&#45;&gt;Node14</title>
<path fill="none" stroke="midnightblue" d="M521.04,-10C546.04,-10 575.23,-10 601.22,-10"/>
<polygon fill="midnightblue" stroke="midnightblue" points="601.38,-13.5 611.38,-10 601.38,-6.5 601.38,-13.5"/>
</g>
<!-- Node17&#45;&gt;Node17 -->
<g id="edge23" class="edge">
<title>Node17&#45;&gt;Node17</title>
<path fill="none" stroke="midnightblue" d="M429.48,-259.76C414.64,-268.57 424.81,-278 460,-278 484.74,-278 497.12,-273.34 497.12,-267.5"/>
<polygon fill="midnightblue" stroke="midnightblue" points="499.67,-265.09 490.52,-259.76 494.34,-269.64 499.67,-265.09"/>
</g>
</g>
</svg>
