<?xml version="1.0" encoding="UTF-8" standalone="no"?>
<!DOCTYPE svg PUBLIC "-//W3C//DTD SVG 1.1//EN"
 "http://www.w3.org/Graphics/SVG/1.1/DTD/svg11.dtd">
<!-- Generated by graphviz version 2.43.0 (0)
 -->
<!-- Title: com.cliffc.aa.HM.HM4.T2.live Pages: 1 -->
<!--zoomable 218 -->
<svg id="main" version="1.1" xmlns="http://www.w3.org/2000/svg" xmlns:xlink="http://www.w3.org/1999/xlink" xml:space="preserve" onload="init(evt)">
<style type="text/css"><![CDATA[
.edge:hover path { stroke: red; }
.edge:hover polygon { stroke: red; fill: red; }
]]></style>
<script type="text/javascript"><![CDATA[
var edges = document.getElementsByTagName('g');
if (edges && edges.length) {
  for (var i=0;i<edges.length;i++) {
    if (edges[i].id.substr(0,4)=='edge') {
      edges[i].setAttribute('class','edge');
    }
  }
}
]]></script>
        <defs>
                <circle id="rim" cx="0" cy="0" r="7"/>
                <circle id="rim2" cx="0" cy="0" r="3.5"/>
                <g id="zoomPlus">
                        <use xlink:href="#rim" fill="#404040">
                                <set attributeName="fill" to="#808080" begin="zoomplus.mouseover" end="zoomplus.mouseout"/>
                        </use>
                        <path d="M-4,0h8M0,-4v8" fill="none" stroke="white" stroke-width="1.5" pointer-events="none"/>
                </g>
                <g id="zoomMin">
                        <use xlink:href="#rim" fill="#404040">
                                <set attributeName="fill" to="#808080" begin="zoomminus.mouseover" end="zoomminus.mouseout"/>
                        </use>
                        <path d="M-4,0h8" fill="none" stroke="white" stroke-width="1.5" pointer-events="none"/>
                </g>
                <g id="dirArrow">
                        <path fill="none" stroke="white" stroke-width="1.5" d="M0,-3.0v7 M-2.5,-0.5L0,-3.0L2.5,-0.5"/>
                </g>
               <g id="resetDef">
                       <use xlink:href="#rim2" fill="#404040">
                               <set attributeName="fill" to="#808080" begin="reset.mouseover" end="reset.mouseout"/>
                       </use>
               </g>
        </defs>

<script type="text/javascript">
var viewWidth = 943;
var viewHeight = 218;
var sectionId = 'dynsection-38';
</script>
<script xlink:href="../../svgpan.js"/>
<svg id="graph" class="graph">
<g id="viewport">
<title>com.cliffc.aa.HM.HM4.T2.live</title>
<!-- Node1 -->
<g id="node1" class="node">
<title>Node1</title>
<g id="a_node1"><a xlink:title=" ">
<polygon fill="#bfbfbf" stroke="black" points="0,-152.5 0,-171.5 160,-171.5 160,-152.5 0,-152.5"/>
<text text-anchor="middle" x="80" y="-159.5" font-family="Helvetica,sans-Serif" font-size="10.00">com.cliffc.aa.HM.HM4.T2.live</text>
</a>
</g>
</g>
<!-- Node2 -->
<g id="node2" class="node">
<title>Node2</title>
<g id="a_node2"><a xlink:href="../../d1/d9b/a01566.html#a15ffe771a6c7400d146785f0753e76c4" target="_top" xlink:title=" ">
<polygon fill="none" stroke="black" points="196,-152.5 196,-171.5 347,-171.5 347,-152.5 196,-152.5"/>
<text text-anchor="middle" x="271.5" y="-159.5" font-family="Helvetica,sans-Serif" font-size="10.00">com.cliffc.aa.util.IBitSet.set</text>
</a>
</g>
</g>
<!-- Node1&#45;&gt;Node2 -->
<g id="edge1" class="edge">
<title>Node1&#45;&gt;Node2</title>
<path fill="none" stroke="midnightblue" d="M160.27,-162C168.63,-162 177.16,-162 185.59,-162"/>
<polygon fill="midnightblue" stroke="midnightblue" points="185.79,-165.5 195.79,-162 185.79,-158.5 185.79,-165.5"/>
</g>
<!-- Node3 -->
<g id="node3" class="node">
<title>Node3</title>
<g id="a_node3"><a xlink:href="../../d1/d9b/a01566.html#a289d332b96e77162f10e3bd0ff1b8556" target="_top" xlink:title=" ">
<polygon fill="none" stroke="black" points="384.5,-114.5 384.5,-133.5 537.5,-133.5 537.5,-114.5 384.5,-114.5"/>
<text text-anchor="middle" x="461" y="-121.5" font-family="Helvetica,sans-Serif" font-size="10.00">com.cliffc.aa.util.IBitSet._clr</text>
</a>
</g>
</g>
<!-- Node2&#45;&gt;Node3 -->
<g id="edge2" class="edge">
<title>Node2&#45;&gt;Node3</title>
<path fill="none" stroke="midnightblue" d="M319.81,-152.41C345.11,-147.28 376.45,-140.93 403.07,-135.54"/>
<polygon fill="midnightblue" stroke="midnightblue" points="403.92,-138.94 413.03,-133.52 402.53,-132.08 403.92,-138.94"/>
</g>
<!-- Node5 -->
<g id="node5" class="node">
<title>Node5</title>
<g id="a_node5"><a xlink:href="../../d1/d9b/a01566.html#a45bde87d9046049bd3145a2a08268a45" target="_top" xlink:title=" ">
<polygon fill="none" stroke="black" points="581,-190.5 581,-209.5 732,-209.5 732,-190.5 581,-190.5"/>
<text text-anchor="middle" x="656.5" y="-197.5" font-family="Helvetica,sans-Serif" font-size="10.00">com.cliffc.aa.util.IBitSet.idx</text>
</a>
</g>
</g>
<!-- Node2&#45;&gt;Node5 -->
<g id="edge16" class="edge">
<title>Node2&#45;&gt;Node5</title>
<path fill="none" stroke="midnightblue" d="M321.58,-171.53C340.68,-174.95 362.8,-178.57 383,-181 445.7,-188.56 516.9,-193.39 570.8,-196.29"/>
<polygon fill="midnightblue" stroke="midnightblue" points="570.83,-199.8 581,-196.83 571.2,-192.81 570.83,-199.8"/>
</g>
<!-- Node11 -->
<g id="node11" class="node">
<title>Node11</title>
<g id="a_node11"><a xlink:href="../../d1/d9b/a01566.html#ac3b2ce3af78129a8b8a5a8483d7c2ea5" target="_top" xlink:title=" ">
<polygon fill="none" stroke="black" points="383,-152.5 383,-171.5 539,-171.5 539,-152.5 383,-152.5"/>
<text text-anchor="middle" x="461" y="-159.5" font-family="Helvetica,sans-Serif" font-size="10.00">com.cliffc.aa.util.IBitSet._set</text>
</a>
</g>
</g>
<!-- Node2&#45;&gt;Node11 -->
<g id="edge11" class="edge">
<title>Node2&#45;&gt;Node11</title>
<path fill="none" stroke="midnightblue" d="M347.14,-162C355.58,-162 364.24,-162 372.83,-162"/>
<polygon fill="midnightblue" stroke="midnightblue" points="372.85,-165.5 382.85,-162 372.85,-158.5 372.85,-165.5"/>
</g>
<!-- Node4 -->
<g id="node4" class="node">
<title>Node4</title>
<g id="a_node4"><a xlink:href="../../d8/daf/a01550.html#ae58328f321549ff80f83993ba7828e33" target="_top" xlink:title=" ">
<polygon fill="none" stroke="black" points="582,-152.5 582,-171.5 731,-171.5 731,-152.5 582,-152.5"/>
<text text-anchor="middle" x="656.5" y="-159.5" font-family="Helvetica,sans-Serif" font-size="10.00">com.cliffc.aa.util.AryInt.atX</text>
</a>
</g>
</g>
<!-- Node3&#45;&gt;Node4 -->
<g id="edge3" class="edge">
<title>Node3&#45;&gt;Node4</title>
<path fill="none" stroke="midnightblue" d="M510.83,-133.59C537.05,-138.74 569.56,-145.12 597.12,-150.53"/>
<polygon fill="midnightblue" stroke="midnightblue" points="596.54,-153.99 607.02,-152.48 597.88,-147.12 596.54,-153.99"/>
</g>
<!-- Node3&#45;&gt;Node5 -->
<g id="edge4" class="edge">
<title>Node3&#45;&gt;Node5</title>
<path fill="none" stroke="midnightblue" d="M517.36,-133.57C524.9,-136.03 532.34,-139.12 539,-143 559.11,-154.7 554.83,-169.4 575,-181 578.89,-183.24 583.02,-185.21 587.29,-186.95"/>
<polygon fill="midnightblue" stroke="midnightblue" points="586.19,-190.28 596.79,-190.4 588.59,-183.7 586.19,-190.28"/>
</g>
<!-- Node6 -->
<g id="node6" class="node">
<title>Node6</title>
<g id="a_node6"><a xlink:href="../../d8/daf/a01550.html#a1dccdbfce4b3d101038883cb065c4e17" target="_top" xlink:title=" ">
<polygon fill="none" stroke="black" points="581,-38.5 581,-57.5 732,-57.5 732,-38.5 581,-38.5"/>
<text text-anchor="middle" x="656.5" y="-45.5" font-family="Helvetica,sans-Serif" font-size="10.00">com.cliffc.aa.util.AryInt.last</text>
</a>
</g>
</g>
<!-- Node3&#45;&gt;Node6 -->
<g id="edge5" class="edge">
<title>Node3&#45;&gt;Node6</title>
<path fill="none" stroke="midnightblue" d="M477.93,-114.45C499.33,-101.97 538.87,-80.17 575,-67 582.04,-64.44 589.55,-62.13 597.04,-60.08"/>
<polygon fill="midnightblue" stroke="midnightblue" points="598.05,-63.43 606.85,-57.53 596.3,-56.66 598.05,-63.43"/>
</g>
<!-- Node8 -->
<g id="node8" class="node">
<title>Node8</title>
<g id="a_node8"><a xlink:href="../../d1/d9b/a01566.html#a4b4af910be7303e0735124e0af8a5864" target="_top" xlink:title=" ">
<polygon fill="none" stroke="black" points="575,-114.5 575,-133.5 738,-133.5 738,-114.5 575,-114.5"/>
<text text-anchor="middle" x="656.5" y="-121.5" font-family="Helvetica,sans-Serif" font-size="10.00">com.cliffc.aa.util.IBitSet.mask</text>
</a>
</g>
</g>
<!-- Node3&#45;&gt;Node8 -->
<g id="edge7" class="edge">
<title>Node3&#45;&gt;Node8</title>
<path fill="none" stroke="midnightblue" d="M537.64,-124C546.5,-124 555.6,-124 564.64,-124"/>
<polygon fill="midnightblue" stroke="midnightblue" points="564.8,-127.5 574.8,-124 564.8,-120.5 564.8,-127.5"/>
</g>
<!-- Node9 -->
<g id="node9" class="node">
<title>Node9</title>
<g id="a_node9"><a xlink:href="../../d8/daf/a01550.html#a9f8b8d19967c86e69d77d595d881f10e" target="_top" xlink:title=" ">
<polygon fill="none" stroke="black" points="581,-0.5 581,-19.5 732,-19.5 732,-0.5 581,-0.5"/>
<text text-anchor="middle" x="656.5" y="-7.5" font-family="Helvetica,sans-Serif" font-size="10.00">com.cliffc.aa.util.AryInt.pop</text>
</a>
</g>
</g>
<!-- Node3&#45;&gt;Node9 -->
<g id="edge8" class="edge">
<title>Node3&#45;&gt;Node9</title>
<path fill="none" stroke="midnightblue" d="M470.58,-114.21C488.15,-94.81 530.34,-51.43 575,-29 579.81,-26.58 584.94,-24.47 590.19,-22.61"/>
<polygon fill="midnightblue" stroke="midnightblue" points="591.28,-25.94 599.73,-19.56 589.14,-19.28 591.28,-25.94"/>
</g>
<!-- Node10 -->
<g id="node10" class="node">
<title>Node10</title>
<g id="a_node10"><a xlink:href="../../d8/daf/a01550.html#a800bd7114a8542084daf30f523573cc7" target="_top" xlink:title=" ">
<polygon fill="none" stroke="black" points="579,-76.5 579,-95.5 734,-95.5 734,-76.5 579,-76.5"/>
<text text-anchor="middle" x="656.5" y="-83.5" font-family="Helvetica,sans-Serif" font-size="10.00">com.cliffc.aa.util.AryInt.setX</text>
</a>
</g>
</g>
<!-- Node3&#45;&gt;Node10 -->
<g id="edge10" class="edge">
<title>Node3&#45;&gt;Node10</title>
<path fill="none" stroke="midnightblue" d="M510.83,-114.41C537.05,-109.26 569.56,-102.88 597.12,-97.47"/>
<polygon fill="midnightblue" stroke="midnightblue" points="597.88,-100.88 607.02,-95.52 596.54,-94.01 597.88,-100.88"/>
</g>
<!-- Node7 -->
<g id="node7" class="node">
<title>Node7</title>
<g id="a_node7"><a xlink:href="../../d8/daf/a01550.html#ad9642b82e1824a59fa648bdde9b77a22" target="_top" xlink:title=" ">
<polygon fill="none" stroke="black" points="774,-14 774,-44 935,-44 935,-14 774,-14"/>
<text text-anchor="start" x="782" y="-32" font-family="Helvetica,sans-Serif" font-size="10.00">com.cliffc.aa.util.AryInt.range</text>
<text text-anchor="middle" x="854.5" y="-21" font-family="Helvetica,sans-Serif" font-size="10.00">_check</text>
</a>
</g>
</g>
<!-- Node6&#45;&gt;Node7 -->
<g id="edge6" class="edge">
<title>Node6&#45;&gt;Node7</title>
<path fill="none" stroke="midnightblue" d="M732.16,-40.76C742.49,-39.76 753.19,-38.72 763.75,-37.7"/>
<polygon fill="midnightblue" stroke="midnightblue" points="764.21,-41.17 773.83,-36.72 763.54,-34.2 764.21,-41.17"/>
</g>
<!-- Node9&#45;&gt;Node7 -->
<g id="edge9" class="edge">
<title>Node9&#45;&gt;Node7</title>
<path fill="none" stroke="midnightblue" d="M732.16,-17.24C742.49,-18.24 753.19,-19.28 763.75,-20.3"/>
<polygon fill="midnightblue" stroke="midnightblue" points="763.54,-23.8 773.83,-21.28 764.21,-16.83 763.54,-23.8"/>
</g>
<!-- Node11&#45;&gt;Node4 -->
<g id="edge12" class="edge">
<title>Node11&#45;&gt;Node4</title>
<path fill="none" stroke="midnightblue" d="M539.03,-162C549.73,-162 560.77,-162 571.59,-162"/>
<polygon fill="midnightblue" stroke="midnightblue" points="571.88,-165.5 581.88,-162 571.88,-158.5 571.88,-165.5"/>
</g>
<!-- Node11&#45;&gt;Node5 -->
<g id="edge13" class="edge">
<title>Node11&#45;&gt;Node5</title>
<path fill="none" stroke="midnightblue" d="M510.83,-171.59C537.05,-176.74 569.56,-183.12 597.12,-188.53"/>
<polygon fill="midnightblue" stroke="midnightblue" points="596.54,-191.99 607.02,-190.48 597.88,-185.12 596.54,-191.99"/>
</g>
<!-- Node11&#45;&gt;Node8 -->
<g id="edge14" class="edge">
<title>Node11&#45;&gt;Node8</title>
<path fill="none" stroke="midnightblue" d="M510.83,-152.41C537.05,-147.26 569.56,-140.88 597.12,-135.47"/>
<polygon fill="midnightblue" stroke="midnightblue" points="597.88,-138.88 607.02,-133.52 596.54,-132.01 597.88,-138.88"/>
</g>
<!-- Node11&#45;&gt;Node10 -->
<g id="edge15" class="edge">
<title>Node11&#45;&gt;Node10</title>
<path fill="none" stroke="midnightblue" d="M517.36,-152.43C524.9,-149.97 532.34,-146.88 539,-143 559.11,-131.3 554.83,-116.6 575,-105 578.89,-102.76 583.02,-100.79 587.29,-99.05"/>
<polygon fill="midnightblue" stroke="midnightblue" points="588.59,-102.3 596.79,-95.6 586.19,-95.72 588.59,-102.3"/>
</g>
</g>
</svg>
        <g id="navigator" transform="translate(0 0)" fill="#404254">
                <rect fill="#f2f5e9" fill-opacity="0.5" stroke="#606060" stroke-width=".5" x="0" y="0" width="60" height="60"/>
                <use id="zoomplus" xlink:href="#zoomPlus" x="17" y="9" onmousedown="handleZoom(evt,'in')"/>
                <use id="zoomminus" xlink:href="#zoomMin" x="42" y="9" onmousedown="handleZoom(evt,'out')"/>
                <use id="reset" xlink:href="#resetDef" x="30" y="36" onmousedown="handleReset()"/>
                <g id="arrowUp" xlink:href="#dirArrow" transform="translate(30 24)" onmousedown="handlePan(0,-1)">
                  <use xlink:href="#rim" fill="#404040">
                        <set attributeName="fill" to="#808080" begin="arrowUp.mouseover" end="arrowUp.mouseout"/>
                  </use>
                  <path fill="none" stroke="white" stroke-width="1.5" d="M0,-3.0v7 M-2.5,-0.5L0,-3.0L2.5,-0.5"/>
                </g>
                <g id="arrowRight" xlink:href="#dirArrow" transform="rotate(90) translate(36 -43)" onmousedown="handlePan(1,0)">
                  <use xlink:href="#rim" fill="#404040">
                        <set attributeName="fill" to="#808080" begin="arrowRight.mouseover" end="arrowRight.mouseout"/>
                  </use>
                  <path fill="none" stroke="white" stroke-width="1.5" d="M0,-3.0v7 M-2.5,-0.5L0,-3.0L2.5,-0.5"/>
                </g>
                <g id="arrowDown" xlink:href="#dirArrow" transform="rotate(180) translate(-30 -48)" onmousedown="handlePan(0,1)">
                  <use xlink:href="#rim" fill="#404040">
                        <set attributeName="fill" to="#808080" begin="arrowDown.mouseover" end="arrowDown.mouseout"/>
                  </use>
                  <path fill="none" stroke="white" stroke-width="1.5" d="M0,-3.0v7 M-2.5,-0.5L0,-3.0L2.5,-0.5"/>
                </g>
                <g id="arrowLeft" xlink:href="#dirArrow" transform="rotate(270) translate(-36 17)" onmousedown="handlePan(-1,0)">
                  <use xlink:href="#rim" fill="#404040">
                        <set attributeName="fill" to="#808080" begin="arrowLeft.mouseover" end="arrowLeft.mouseout"/>
                  </use>
                  <path fill="none" stroke="white" stroke-width="1.5" d="M0,-3.0v7 M-2.5,-0.5L0,-3.0L2.5,-0.5"/>
                </g>
        </g>
        <svg viewBox="0 0 15 15" width="100%" height="30px" preserveAspectRatio="xMaxYMin meet">
         <g id="arrow_out" transform="scale(0.3 0.3)">
          <a xlink:href="a00686_a17de39c498dc2bc15f8cd181ce071f99_cgraph_org.svg" target="_base">
           <rect id="button" ry="5" rx="5" y="6" x="6" height="38" width="38"
                fill="#f2f5e9" fill-opacity="0.5" stroke="#606060" stroke-width="1.0"/>
           <path id="arrow"
             d="M 11.500037,31.436501 C 11.940474,20.09759 22.043105,11.32322 32.158766,21.979434 L 37.068811,17.246167 C 37.068811,17.246167 37.088388,32 37.088388,32 L 22.160133,31.978069 C 22.160133,31.978069 26.997745,27.140456 26.997745,27.140456 C 18.528582,18.264221 13.291696,25.230495 11.500037,31.436501 z"
             style="fill:#404040;"/>
          </a>
         </g>
        </svg>
</svg>
