<?xml version="1.0" encoding="UTF-8" standalone="no"?>
<!DOCTYPE svg PUBLIC "-//W3C//DTD SVG 1.1//EN"
 "http://www.w3.org/Graphics/SVG/1.1/DTD/svg11.dtd">
<!-- Generated by graphviz version 2.43.0 (0)
 -->
<!-- Title: com.cliffc.aa.util.AryInt.binary_search Pages: 1 -->
<!--zoomable 229 -->
<svg id="main" version="1.1" xmlns="http://www.w3.org/2000/svg" xmlns:xlink="http://www.w3.org/1999/xlink" xml:space="preserve" onload="init(evt)">
<style type="text/css"><![CDATA[
.edge:hover path { stroke: red; }
.edge:hover polygon { stroke: red; fill: red; }
]]></style>
<script type="text/javascript"><![CDATA[
var edges = document.getElementsByTagName('g');
if (edges && edges.length) {
  for (var i=0;i<edges.length;i++) {
    if (edges[i].id.substr(0,4)=='edge') {
      edges[i].setAttribute('class','edge');
    }
  }
}
]]></script>
        <defs>
                <circle id="rim" cx="0" cy="0" r="7"/>
                <circle id="rim2" cx="0" cy="0" r="3.5"/>
                <g id="zoomPlus">
                        <use xlink:href="#rim" fill="#404040">
                                <set attributeName="fill" to="#808080" begin="zoomplus.mouseover" end="zoomplus.mouseout"/>
                        </use>
                        <path d="M-4,0h8M0,-4v8" fill="none" stroke="white" stroke-width="1.5" pointer-events="none"/>
                </g>
                <g id="zoomMin">
                        <use xlink:href="#rim" fill="#404040">
                                <set attributeName="fill" to="#808080" begin="zoomminus.mouseover" end="zoomminus.mouseout"/>
                        </use>
                        <path d="M-4,0h8" fill="none" stroke="white" stroke-width="1.5" pointer-events="none"/>
                </g>
                <g id="dirArrow">
                        <path fill="none" stroke="white" stroke-width="1.5" d="M0,-3.0v7 M-2.5,-0.5L0,-3.0L2.5,-0.5"/>
                </g>
               <g id="resetDef">
                       <use xlink:href="#rim2" fill="#404040">
                               <set attributeName="fill" to="#808080" begin="reset.mouseover" end="reset.mouseout"/>
                       </use>
               </g>
        </defs>

<script type="text/javascript">
var viewWidth = 1679;
var viewHeight = 229;
var sectionId = 'dynsection-7';
</script>
<script xlink:href="../../svgpan.js"/>
<svg id="graph" class="graph">
<g id="viewport">
<title>com.cliffc.aa.util.AryInt.binary_search</title>
<!-- Node1 -->
<g id="node1" class="node">
<title>Node1</title>
<g id="a_node1"><a xlink:title=" ">
<polygon fill="#bfbfbf" stroke="black" points="1507,-22.5 1507,-52.5 1671,-52.5 1671,-22.5 1507,-22.5"/>
<text text-anchor="start" x="1515" y="-40.5" font-family="Helvetica,sans-Serif" font-size="10.00">com.cliffc.aa.util.AryInt.binary</text>
<text text-anchor="middle" x="1589" y="-29.5" font-family="Helvetica,sans-Serif" font-size="10.00">_search</text>
</a>
</g>
</g>
<!-- Node2 -->
<g id="node2" class="node">
<title>Node2</title>
<g id="a_node2"><a xlink:href="../../da/de3/a01398.html#a6e92b63110e4ed2e5bf7533656730f3f" target="_top" xlink:title="Parse a lisp&#45;like function application.">
<polygon fill="none" stroke="black" points="1321.5,-50 1321.5,-69 1459.5,-69 1459.5,-50 1321.5,-50"/>
<text text-anchor="middle" x="1390.5" y="-57" font-family="Helvetica,sans-Serif" font-size="10.00">com.cliffc.aa.Parse.apply</text>
</a>
</g>
</g>
<!-- Node1&#45;&gt;Node2 -->
<g id="edge1" class="edge">
<title>Node1&#45;&gt;Node2</title>
<path fill="none" stroke="midnightblue" d="M1496.91,-47.7C1484.34,-49.11 1471.61,-50.53 1459.55,-51.88"/>
<polygon fill="midnightblue" stroke="midnightblue" points="1497.39,-51.17 1506.94,-46.58 1496.61,-44.21 1497.39,-51.17"/>
</g>
<!-- Node12 -->
<g id="node12" class="node">
<title>Node12</title>
<g id="a_node12"><a xlink:href="../../da/de3/a01398.html#a5d738333d7cdea43e72bc26023455d49" target="_top" xlink:title=" ">
<polygon fill="none" stroke="black" points="1310,-9 1310,-28 1471,-28 1471,-9 1310,-9"/>
<text text-anchor="middle" x="1390.5" y="-16" font-family="Helvetica,sans-Serif" font-size="10.00">com.cliffc.aa.Parse.errLocMsg</text>
</a>
</g>
</g>
<!-- Node1&#45;&gt;Node12 -->
<g id="edge17" class="edge">
<title>Node1&#45;&gt;Node12</title>
<path fill="none" stroke="midnightblue" d="M1496.89,-28.69C1488.28,-27.86 1479.59,-27.02 1471.11,-26.2"/>
<polygon fill="midnightblue" stroke="midnightblue" points="1496.65,-32.18 1506.94,-29.66 1497.32,-25.22 1496.65,-32.18"/>
</g>
<!-- Node3 -->
<g id="node3" class="node">
<title>Node3</title>
<g id="a_node3"><a xlink:href="../../da/de3/a01398.html#a5e1b4411da5e7400c4fc45d4b3dbd795" target="_top" xlink:title="Parse an if&#45;expression, with lazy eval on the branches.">
<polygon fill="none" stroke="black" points="1140.5,-107 1140.5,-126 1270.5,-126 1270.5,-107 1140.5,-107"/>
<text text-anchor="middle" x="1205.5" y="-114" font-family="Helvetica,sans-Serif" font-size="10.00">com.cliffc.aa.Parse.ifex</text>
</a>
</g>
</g>
<!-- Node2&#45;&gt;Node3 -->
<g id="edge2" class="edge">
<title>Node2&#45;&gt;Node3</title>
<path fill="none" stroke="midnightblue" d="M1349.3,-72.02C1315.54,-82.54 1268.01,-97.34 1237.23,-106.93"/>
<polygon fill="midnightblue" stroke="midnightblue" points="1350.36,-75.36 1358.87,-69.04 1348.28,-68.67 1350.36,-75.36"/>
</g>
<!-- Node4 -->
<g id="node4" class="node">
<title>Node4</title>
<g id="a_node4"><a xlink:href="../../da/de3/a01398.html#a2a5934e98ffa96d31e2135ab66c7e796" target="_top" xlink:title="A statement is a list of variables to final&#45;assign or re&#45;assign, and an ifex for the value.">
<polygon fill="none" stroke="black" points="967,-126 967,-145 1101,-145 1101,-126 967,-126"/>
<text text-anchor="middle" x="1034" y="-133" font-family="Helvetica,sans-Serif" font-size="10.00">com.cliffc.aa.Parse.stmt</text>
</a>
</g>
</g>
<!-- Node3&#45;&gt;Node4 -->
<g id="edge3" class="edge">
<title>Node3&#45;&gt;Node4</title>
<path fill="none" stroke="midnightblue" d="M1130.26,-118.12C1109.37,-120.27 1087.62,-123.08 1070.19,-125.96"/>
<polygon fill="midnightblue" stroke="midnightblue" points="1130.81,-121.58 1140.42,-117.11 1130.12,-114.61 1130.81,-121.58"/>
</g>
<!-- Node4&#45;&gt;Node3 -->
<g id="edge4" class="edge">
<title>Node4&#45;&gt;Node3</title>
<path fill="none" stroke="midnightblue" d="M1111.43,-133.65C1131.66,-131.53 1152.54,-128.81 1169.38,-126.03"/>
<polygon fill="midnightblue" stroke="midnightblue" points="1110.85,-130.19 1101.25,-134.68 1111.55,-137.16 1110.85,-130.19"/>
</g>
<!-- Node5 -->
<g id="node5" class="node">
<title>Node5</title>
<g id="a_node5"><a xlink:href="../../da/de3/a01398.html#adf95c17fe0de5cfff574ee89b78f0d37" target="_top" xlink:title=" ">
<polygon fill="none" stroke="black" points="792,-164 792,-183 931,-183 931,-164 792,-164"/>
<text text-anchor="middle" x="861.5" y="-171" font-family="Helvetica,sans-Serif" font-size="10.00">com.cliffc.aa.Parse.stmts</text>
</a>
</g>
</g>
<!-- Node4&#45;&gt;Node5 -->
<g id="edge5" class="edge">
<title>Node4&#45;&gt;Node5</title>
<path fill="none" stroke="midnightblue" d="M979.95,-147.32C955.91,-152.68 927.87,-158.93 905.21,-163.98"/>
<polygon fill="midnightblue" stroke="midnightblue" points="980.98,-150.68 989.98,-145.09 979.45,-143.85 980.98,-150.68"/>
</g>
<!-- Node6 -->
<g id="node6" class="node">
<title>Node6</title>
<g id="a_node6"><a xlink:href="../../da/de3/a01398.html#ab502dae0cf2cae3c0ade2422e579fce2" target="_top" xlink:title="Any number field&#45;lookups or function applications, then an optional assignment term = id++ | id– term...">
<polygon fill="none" stroke="black" points="794.5,-126 794.5,-145 928.5,-145 928.5,-126 794.5,-126"/>
<text text-anchor="middle" x="861.5" y="-133" font-family="Helvetica,sans-Serif" font-size="10.00">com.cliffc.aa.Parse.term</text>
</a>
</g>
</g>
<!-- Node4&#45;&gt;Node6 -->
<g id="edge6" class="edge">
<title>Node4&#45;&gt;Node6</title>
<path fill="none" stroke="midnightblue" d="M956.58,-135.5C947.29,-135.5 937.86,-135.5 928.73,-135.5"/>
<polygon fill="midnightblue" stroke="midnightblue" points="956.59,-139 966.59,-135.5 956.59,-132 956.59,-139"/>
</g>
<!-- Node7 -->
<g id="node7" class="node">
<title>Node7</title>
<g id="a_node7"><a xlink:href="../../da/de3/a01398.html#a6397933ff168ada64e7209d9c82122de" target="_top" xlink:title=" ">
<polygon fill="none" stroke="black" points="645,-190.5 645,-220.5 756,-220.5 756,-190.5 645,-190.5"/>
<text text-anchor="start" x="653" y="-208.5" font-family="Helvetica,sans-Serif" font-size="10.00">com.cliffc.aa.Parse.</text>
<text text-anchor="middle" x="700.5" y="-197.5" font-family="Helvetica,sans-Serif" font-size="10.00">_expr_higher</text>
</a>
</g>
</g>
<!-- Node6&#45;&gt;Node7 -->
<g id="edge7" class="edge">
<title>Node6&#45;&gt;Node7</title>
<path fill="none" stroke="midnightblue" d="M810.09,-147.97C803.92,-149.94 797.76,-152.12 792,-154.5 768,-164.42 742.36,-179.32 724.53,-190.45"/>
<polygon fill="midnightblue" stroke="midnightblue" points="811.18,-151.29 819.74,-145.05 809.16,-144.59 811.18,-151.29"/>
</g>
<!-- Node8 -->
<g id="node8" class="node">
<title>Node8</title>
<g id="a_node8"><a xlink:href="../../da/de3/a01398.html#ac81c4d62901080f0883b0e984f7f0062" target="_top" xlink:title=" ">
<polygon fill="none" stroke="black" points="169,-176 169,-195 307,-195 307,-176 169,-176"/>
<text text-anchor="middle" x="238" y="-183" font-family="Helvetica,sans-Serif" font-size="10.00">com.cliffc.aa.Parse._expr</text>
</a>
</g>
</g>
<!-- Node7&#45;&gt;Node8 -->
<g id="edge8" class="edge">
<title>Node7&#45;&gt;Node8</title>
<path fill="none" stroke="midnightblue" d="M634.56,-198.4C593.18,-197.3 538.43,-197.1 490,-195.5 424.58,-193.34 408.25,-191.63 343,-186.5 331.43,-185.59 319.14,-184.51 307.22,-183.54"/>
<polygon fill="midnightblue" stroke="midnightblue" points="634.69,-201.91 644.79,-198.7 634.89,-194.91 634.69,-201.91"/>
</g>
<!-- Node10 -->
<g id="node10" class="node">
<title>Node10</title>
<g id="a_node10"><a xlink:href="../../da/de3/a01398.html#a58b0dba4e9b60d9e9639eea530b6077b" target="_top" xlink:title=" ">
<polygon fill="none" stroke="black" points="490,-164.5 490,-194.5 609,-194.5 609,-164.5 490,-164.5"/>
<text text-anchor="start" x="498" y="-182.5" font-family="Helvetica,sans-Serif" font-size="10.00">com.cliffc.aa.Parse.</text>
<text text-anchor="middle" x="549.5" y="-171.5" font-family="Helvetica,sans-Serif" font-size="10.00">_expr_higher_require</text>
</a>
</g>
</g>
<!-- Node7&#45;&gt;Node10 -->
<g id="edge13" class="edge">
<title>Node7&#45;&gt;Node10</title>
<path fill="none" stroke="midnightblue" d="M634.92,-194.23C626.35,-192.74 617.6,-191.21 609.14,-189.73"/>
<polygon fill="midnightblue" stroke="midnightblue" points="634.41,-197.7 644.86,-195.97 635.61,-190.8 634.41,-197.7"/>
</g>
<!-- Node8&#45;&gt;Node7 -->
<g id="edge9" class="edge">
<title>Node8&#45;&gt;Node7</title>
<path fill="none" stroke="midnightblue" d="M272.56,-196.84C292.92,-200.09 319.44,-202.65 343,-204.5 408.25,-209.63 424.58,-211.34 490,-213.5 542.53,-215.23 602.51,-215.33 644.79,-213.46"/>
<polygon fill="midnightblue" stroke="midnightblue" points="272.98,-193.36 262.52,-195.08 271.77,-200.25 272.98,-193.36"/>
</g>
<!-- Node9 -->
<g id="node9" class="node">
<title>Node9</title>
<g id="a_node9"><a xlink:href="../../da/de3/a01398.html#af41d3ed90c69faf4279701b6aa98bd3a" target="_top" xlink:title="Parse an expression, a series of terms separated by binary operators.">
<polygon fill="none" stroke="black" points="0,-88 0,-107 133,-107 133,-88 0,-88"/>
<text text-anchor="middle" x="66.5" y="-95" font-family="Helvetica,sans-Serif" font-size="10.00">com.cliffc.aa.Parse.expr</text>
</a>
</g>
</g>
<!-- Node8&#45;&gt;Node9 -->
<g id="edge10" class="edge">
<title>Node8&#45;&gt;Node9</title>
<path fill="none" stroke="midnightblue" d="M209.41,-171.17C174.6,-153.11 115.73,-122.54 85.94,-107.07"/>
<polygon fill="midnightblue" stroke="midnightblue" points="208.05,-174.41 218.54,-175.91 211.28,-168.2 208.05,-174.41"/>
</g>
<!-- Node9&#45;&gt;Node2 -->
<g id="edge11" class="edge">
<title>Node9&#45;&gt;Node2</title>
<path fill="none" stroke="midnightblue" d="M128.68,-86.2C194.75,-75 303.21,-59.5 397.5,-59.5 1035,-59.5 1035,-59.5 1035,-59.5 1134.55,-59.5 1249.82,-59.5 1321.21,-59.5"/>
<polygon fill="midnightblue" stroke="midnightblue" points="127.71,-82.82 118.45,-87.96 128.9,-89.72 127.71,-82.82"/>
</g>
<!-- Node9&#45;&gt;Node3 -->
<g id="edge12" class="edge">
<title>Node9&#45;&gt;Node3</title>
<path fill="none" stroke="midnightblue" d="M143.27,-97.5C210.16,-97.5 310.31,-97.5 397.5,-97.5 862.5,-97.5 862.5,-97.5 862.5,-97.5 959.43,-97.5 1071.58,-105.2 1140.27,-110.8"/>
<polygon fill="midnightblue" stroke="midnightblue" points="143.24,-94 133.24,-97.5 143.24,-101 143.24,-94"/>
</g>
<!-- Node10&#45;&gt;Node8 -->
<g id="edge14" class="edge">
<title>Node10&#45;&gt;Node8</title>
<path fill="none" stroke="midnightblue" d="M479.89,-180.83C428.44,-181.83 358.36,-183.19 307.04,-184.18"/>
<polygon fill="midnightblue" stroke="midnightblue" points="479.99,-184.33 489.92,-180.64 479.86,-177.33 479.99,-184.33"/>
</g>
<!-- Node11 -->
<g id="node11" class="node">
<title>Node11</title>
<g id="a_node11"><a xlink:href="../../da/de3/a01398.html#ade4bf32252a86275a1ec393dea94ed6f" target="_top" xlink:title=" ">
<polygon fill="none" stroke="black" points="343,-126.5 343,-156.5 454,-156.5 454,-126.5 343,-126.5"/>
<text text-anchor="start" x="351" y="-144.5" font-family="Helvetica,sans-Serif" font-size="10.00">com.cliffc.aa.Parse.</text>
<text text-anchor="middle" x="398.5" y="-133.5" font-family="Helvetica,sans-Serif" font-size="10.00">_short_circuit_expr</text>
</a>
</g>
</g>
<!-- Node10&#45;&gt;Node11 -->
<g id="edge15" class="edge">
<title>Node10&#45;&gt;Node11</title>
<path fill="none" stroke="midnightblue" d="M479.91,-162.01C471.25,-159.8 462.48,-157.56 454.08,-155.42"/>
<polygon fill="midnightblue" stroke="midnightblue" points="479.06,-165.4 489.61,-164.48 480.79,-158.62 479.06,-165.4"/>
</g>
<!-- Node11&#45;&gt;Node8 -->
<g id="edge16" class="edge">
<title>Node11&#45;&gt;Node8</title>
<path fill="none" stroke="midnightblue" d="M333.75,-159.2C313.17,-164.91 291.14,-171.03 273.5,-175.92"/>
<polygon fill="midnightblue" stroke="midnightblue" points="334.7,-162.57 343.4,-156.52 332.82,-155.82 334.7,-162.57"/>
</g>
<!-- Node13 -->
<g id="node13" class="node">
<title>Node13</title>
<g id="a_node13"><a xlink:href="../../dc/dee/a01166.html#a83302acad676c67e18537c98673f0069" target="_top" xlink:title=" ">
<polygon fill="none" stroke="black" points="1137,-0.5 1137,-30.5 1274,-30.5 1274,-0.5 1137,-0.5"/>
<text text-anchor="start" x="1145" y="-18.5" font-family="Helvetica,sans-Serif" font-size="10.00">com.cliffc.aa.node.Node.</text>
<text text-anchor="middle" x="1205.5" y="-7.5" font-family="Helvetica,sans-Serif" font-size="10.00">ErrMsg.toString</text>
</a>
</g>
</g>
<!-- Node12&#45;&gt;Node13 -->
<g id="edge18" class="edge">
<title>Node12&#45;&gt;Node13</title>
<path fill="none" stroke="midnightblue" d="M1299.72,-17.03C1291.15,-16.89 1282.55,-16.75 1274.23,-16.61"/>
<polygon fill="midnightblue" stroke="midnightblue" points="1299.71,-20.53 1309.77,-17.19 1299.82,-13.53 1299.71,-20.53"/>
</g>
</g>
</svg>
        <g id="navigator" transform="translate(0 0)" fill="#404254">
                <rect fill="#f2f5e9" fill-opacity="0.5" stroke="#606060" stroke-width=".5" x="0" y="0" width="60" height="60"/>
                <use id="zoomplus" xlink:href="#zoomPlus" x="17" y="9" onmousedown="handleZoom(evt,'in')"/>
                <use id="zoomminus" xlink:href="#zoomMin" x="42" y="9" onmousedown="handleZoom(evt,'out')"/>
                <use id="reset" xlink:href="#resetDef" x="30" y="36" onmousedown="handleReset()"/>
                <g id="arrowUp" xlink:href="#dirArrow" transform="translate(30 24)" onmousedown="handlePan(0,-1)">
                  <use xlink:href="#rim" fill="#404040">
                        <set attributeName="fill" to="#808080" begin="arrowUp.mouseover" end="arrowUp.mouseout"/>
                  </use>
                  <path fill="none" stroke="white" stroke-width="1.5" d="M0,-3.0v7 M-2.5,-0.5L0,-3.0L2.5,-0.5"/>
                </g>
                <g id="arrowRight" xlink:href="#dirArrow" transform="rotate(90) translate(36 -43)" onmousedown="handlePan(1,0)">
                  <use xlink:href="#rim" fill="#404040">
                        <set attributeName="fill" to="#808080" begin="arrowRight.mouseover" end="arrowRight.mouseout"/>
                  </use>
                  <path fill="none" stroke="white" stroke-width="1.5" d="M0,-3.0v7 M-2.5,-0.5L0,-3.0L2.5,-0.5"/>
                </g>
                <g id="arrowDown" xlink:href="#dirArrow" transform="rotate(180) translate(-30 -48)" onmousedown="handlePan(0,1)">
                  <use xlink:href="#rim" fill="#404040">
                        <set attributeName="fill" to="#808080" begin="arrowDown.mouseover" end="arrowDown.mouseout"/>
                  </use>
                  <path fill="none" stroke="white" stroke-width="1.5" d="M0,-3.0v7 M-2.5,-0.5L0,-3.0L2.5,-0.5"/>
                </g>
                <g id="arrowLeft" xlink:href="#dirArrow" transform="rotate(270) translate(-36 17)" onmousedown="handlePan(-1,0)">
                  <use xlink:href="#rim" fill="#404040">
                        <set attributeName="fill" to="#808080" begin="arrowLeft.mouseover" end="arrowLeft.mouseout"/>
                  </use>
                  <path fill="none" stroke="white" stroke-width="1.5" d="M0,-3.0v7 M-2.5,-0.5L0,-3.0L2.5,-0.5"/>
                </g>
        </g>
        <svg viewBox="0 0 15 15" width="100%" height="30px" preserveAspectRatio="xMaxYMin meet">
         <g id="arrow_out" transform="scale(0.3 0.3)">
          <a xlink:href="a01550_a2802e74b1262d5693e3867bbcc4a0c9f_icgraph_org.svg" target="_base">
           <rect id="button" ry="5" rx="5" y="6" x="6" height="38" width="38"
                fill="#f2f5e9" fill-opacity="0.5" stroke="#606060" stroke-width="1.0"/>
           <path id="arrow"
             d="M 11.500037,31.436501 C 11.940474,20.09759 22.043105,11.32322 32.158766,21.979434 L 37.068811,17.246167 C 37.068811,17.246167 37.088388,32 37.088388,32 L 22.160133,31.978069 C 22.160133,31.978069 26.997745,27.140456 26.997745,27.140456 C 18.528582,18.264221 13.291696,25.230495 11.500037,31.436501 z"
             style="fill:#404040;"/>
          </a>
         </g>
        </svg>
</svg>
