<?xml version="1.0" encoding="UTF-8" standalone="no"?>
<!DOCTYPE svg PUBLIC "-//W3C//DTD SVG 1.1//EN"
 "http://www.w3.org/Graphics/SVG/1.1/DTD/svg11.dtd">
<!-- Generated by graphviz version 2.43.0 (0)
 -->
<!-- Title: com.cliffc.aa.Parse.lookup Pages: 1 -->
<!--zoomable 137 -->
<svg id="main" version="1.1" xmlns="http://www.w3.org/2000/svg" xmlns:xlink="http://www.w3.org/1999/xlink" xml:space="preserve" onload="init(evt)">
<style type="text/css"><![CDATA[
.edge:hover path { stroke: red; }
.edge:hover polygon { stroke: red; fill: red; }
]]></style>
<script type="text/javascript"><![CDATA[
var edges = document.getElementsByTagName('g');
if (edges && edges.length) {
  for (var i=0;i<edges.length;i++) {
    if (edges[i].id.substr(0,4)=='edge') {
      edges[i].setAttribute('class','edge');
    }
  }
}
]]></script>
        <defs>
                <circle id="rim" cx="0" cy="0" r="7"/>
                <circle id="rim2" cx="0" cy="0" r="3.5"/>
                <g id="zoomPlus">
                        <use xlink:href="#rim" fill="#404040">
                                <set attributeName="fill" to="#808080" begin="zoomplus.mouseover" end="zoomplus.mouseout"/>
                        </use>
                        <path d="M-4,0h8M0,-4v8" fill="none" stroke="white" stroke-width="1.5" pointer-events="none"/>
                </g>
                <g id="zoomMin">
                        <use xlink:href="#rim" fill="#404040">
                                <set attributeName="fill" to="#808080" begin="zoomminus.mouseover" end="zoomminus.mouseout"/>
                        </use>
                        <path d="M-4,0h8" fill="none" stroke="white" stroke-width="1.5" pointer-events="none"/>
                </g>
                <g id="dirArrow">
                        <path fill="none" stroke="white" stroke-width="1.5" d="M0,-3.0v7 M-2.5,-0.5L0,-3.0L2.5,-0.5"/>
                </g>
               <g id="resetDef">
                       <use xlink:href="#rim2" fill="#404040">
                               <set attributeName="fill" to="#808080" begin="reset.mouseover" end="reset.mouseout"/>
                       </use>
               </g>
        </defs>

<script type="text/javascript">
var viewWidth = 1052;
var viewHeight = 137;
var sectionId = 'dynsection-91';
</script>
<script xlink:href="../../svgpan.js"/>
<svg id="graph" class="graph">
<g id="viewport">
<title>com.cliffc.aa.Parse.lookup</title>
<!-- Node1 -->
<g id="node1" class="node">
<title>Node1</title>
<g id="a_node1"><a xlink:title=" ">
<polygon fill="#bfbfbf" stroke="black" points="0,-54 0,-73 143,-73 143,-54 0,-54"/>
<text text-anchor="middle" x="71.5" y="-61" font-family="Helvetica,sans-Serif" font-size="10.00">com.cliffc.aa.Parse.lookup</text>
</a>
</g>
</g>
<!-- Node2 -->
<g id="node2" class="node">
<title>Node2</title>
<g id="a_node2"><a xlink:href="../../d7/d08/a00378.html#a9b853b51765f6e95dff3f73eea46f53e" target="_top" xlink:title=" ">
<polygon fill="none" stroke="black" points="179,-54 179,-73 313,-73 313,-54 179,-54"/>
<text text-anchor="middle" x="246" y="-61" font-family="Helvetica,sans-Serif" font-size="10.00">com.cliffc.aa.Env.lookup</text>
</a>
</g>
</g>
<!-- Node1&#45;&gt;Node2 -->
<g id="edge1" class="edge">
<title>Node1&#45;&gt;Node2</title>
<path fill="none" stroke="midnightblue" d="M143.16,-63.5C151.56,-63.5 160.17,-63.5 168.64,-63.5"/>
<polygon fill="midnightblue" stroke="midnightblue" points="168.89,-67 178.89,-63.5 168.89,-60 168.89,-67"/>
</g>
<!-- Node3 -->
<g id="node3" class="node">
<title>Node3</title>
<g id="a_node3"><a xlink:href="../../de/d5c/a01358.html#a9d3ab0475583903893bcc40fc19eb4e8" target="_top" xlink:title=" ">
<polygon fill="none" stroke="black" points="349,-82.5 349,-112.5 487,-112.5 487,-82.5 349,-82.5"/>
<text text-anchor="start" x="357" y="-100.5" font-family="Helvetica,sans-Serif" font-size="10.00">com.cliffc.aa.node.Scope</text>
<text text-anchor="middle" x="418" y="-89.5" font-family="Helvetica,sans-Serif" font-size="10.00">Node.get</text>
</a>
</g>
</g>
<!-- Node2&#45;&gt;Node3 -->
<g id="edge2" class="edge">
<title>Node2&#45;&gt;Node3</title>
<path fill="none" stroke="midnightblue" d="M294.81,-73.06C308.58,-75.82 323.98,-78.9 339.08,-81.92"/>
<polygon fill="midnightblue" stroke="midnightblue" points="338.45,-85.36 348.94,-83.89 339.82,-78.49 338.45,-85.36"/>
</g>
<!-- Node9 -->
<g id="node9" class="node">
<title>Node9</title>
<g id="a_node9"><a xlink:href="../../d7/d08/a00378.html#a42e71dfd1f2f65a3cb25c9cd210dafb0" target="_top" xlink:title=" ">
<polygon fill="none" stroke="black" points="351,-15.5 351,-45.5 485,-45.5 485,-15.5 351,-15.5"/>
<text text-anchor="start" x="359" y="-33.5" font-family="Helvetica,sans-Serif" font-size="10.00">com.cliffc.aa.Env.lookup</text>
<text text-anchor="middle" x="418" y="-22.5" font-family="Helvetica,sans-Serif" font-size="10.00">_scope</text>
</a>
</g>
</g>
<!-- Node2&#45;&gt;Node9 -->
<g id="edge9" class="edge">
<title>Node2&#45;&gt;Node9</title>
<path fill="none" stroke="midnightblue" d="M296.17,-53.96C310.17,-51.24 325.75,-48.21 340.95,-45.26"/>
<polygon fill="midnightblue" stroke="midnightblue" points="341.71,-48.68 350.86,-43.34 340.38,-41.81 341.71,-48.68"/>
</g>
<!-- Node4 -->
<g id="node4" class="node">
<title>Node4</title>
<g id="a_node4"><a xlink:href="../../dd/de2/a01134.html#a964e91111d9edea48ebadbd8d89dd25c" target="_top" xlink:title=" ">
<polygon fill="none" stroke="black" points="523,-98.5 523,-128.5 670,-128.5 670,-98.5 523,-98.5"/>
<text text-anchor="start" x="531" y="-116.5" font-family="Helvetica,sans-Serif" font-size="10.00">com.cliffc.aa.node.NewObj</text>
<text text-anchor="middle" x="596.5" y="-105.5" font-family="Helvetica,sans-Serif" font-size="10.00">Node.get</text>
</a>
</g>
</g>
<!-- Node3&#45;&gt;Node4 -->
<g id="edge3" class="edge">
<title>Node3&#45;&gt;Node4</title>
<path fill="none" stroke="midnightblue" d="M487.24,-103.69C495.61,-104.44 504.23,-105.23 512.78,-106"/>
<polygon fill="midnightblue" stroke="midnightblue" points="512.49,-109.49 522.76,-106.91 513.12,-102.52 512.49,-109.49"/>
</g>
<!-- Node6 -->
<g id="node6" class="node">
<title>Node6</title>
<g id="a_node6"><a xlink:href="../../de/d5c/a01358.html#ac9f5539df25752e0030903c46930a3df" target="_top" xlink:title=" ">
<polygon fill="none" stroke="black" points="527.5,-49.5 527.5,-79.5 665.5,-79.5 665.5,-49.5 527.5,-49.5"/>
<text text-anchor="start" x="535.5" y="-67.5" font-family="Helvetica,sans-Serif" font-size="10.00">com.cliffc.aa.node.Scope</text>
<text text-anchor="middle" x="596.5" y="-56.5" font-family="Helvetica,sans-Serif" font-size="10.00">Node.stk</text>
</a>
</g>
</g>
<!-- Node3&#45;&gt;Node6 -->
<g id="edge5" class="edge">
<title>Node3&#45;&gt;Node6</title>
<path fill="none" stroke="midnightblue" d="M487.24,-84.74C497.13,-82.89 507.38,-80.98 517.45,-79.09"/>
<polygon fill="midnightblue" stroke="midnightblue" points="518.26,-82.5 527.44,-77.22 516.97,-75.62 518.26,-82.5"/>
</g>
<!-- Node5 -->
<g id="node5" class="node">
<title>Node5</title>
<g id="a_node5"><a xlink:href="../../db/d1e/a01126.html#a4dbf2f0f1e0057b54af21c5c2ac08b7c" target="_top" xlink:title=" ">
<polygon fill="none" stroke="black" points="706,-98.5 706,-128.5 862,-128.5 862,-98.5 706,-98.5"/>
<text text-anchor="start" x="714" y="-116.5" font-family="Helvetica,sans-Serif" font-size="10.00">com.cliffc.aa.node.NewNode</text>
<text text-anchor="middle" x="784" y="-105.5" font-family="Helvetica,sans-Serif" font-size="10.00">&lt; TypeStruct &gt;::fld</text>
</a>
</g>
</g>
<!-- Node4&#45;&gt;Node5 -->
<g id="edge4" class="edge">
<title>Node4&#45;&gt;Node5</title>
<path fill="none" stroke="midnightblue" d="M670.02,-113.5C678.49,-113.5 687.2,-113.5 695.84,-113.5"/>
<polygon fill="midnightblue" stroke="midnightblue" points="695.94,-117 705.94,-113.5 695.94,-110 695.94,-117"/>
</g>
<!-- Node7 -->
<g id="node7" class="node">
<title>Node7</title>
<g id="a_node7"><a xlink:href="../../df/db5/a01158.html#a9a46cea187559f94192aa6e09b91c60c" target="_top" xlink:title=" ">
<polygon fill="none" stroke="black" points="898,-35 898,-54 1044,-54 1044,-35 898,-35"/>
<text text-anchor="middle" x="971" y="-42" font-family="Helvetica,sans-Serif" font-size="10.00">com.cliffc.aa.node.Node.in</text>
</a>
</g>
</g>
<!-- Node6&#45;&gt;Node7 -->
<g id="edge6" class="edge">
<title>Node6&#45;&gt;Node7</title>
<path fill="none" stroke="midnightblue" d="M665.82,-60.83C728.45,-57.47 821.31,-52.48 887.94,-48.91"/>
<polygon fill="midnightblue" stroke="midnightblue" points="888.18,-52.4 897.98,-48.37 887.81,-45.41 888.18,-52.4"/>
</g>
<!-- Node8 -->
<g id="node8" class="node">
<title>Node8</title>
<g id="a_node8"><a xlink:href="../../de/d5c/a01358.html#aa0a5636db79935abd0a15438798c5ff5" target="_top" xlink:title=" ">
<polygon fill="none" stroke="black" points="715,-7.5 715,-37.5 853,-37.5 853,-7.5 715,-7.5"/>
<text text-anchor="start" x="723" y="-25.5" font-family="Helvetica,sans-Serif" font-size="10.00">com.cliffc.aa.node.Scope</text>
<text text-anchor="middle" x="784" y="-14.5" font-family="Helvetica,sans-Serif" font-size="10.00">Node.ptr</text>
</a>
</g>
</g>
<!-- Node6&#45;&gt;Node8 -->
<g id="edge7" class="edge">
<title>Node6&#45;&gt;Node8</title>
<path fill="none" stroke="midnightblue" d="M663.95,-49.46C677.88,-46.3 692.68,-42.95 706.94,-39.72"/>
<polygon fill="midnightblue" stroke="midnightblue" points="707.73,-43.13 716.71,-37.51 706.18,-36.3 707.73,-43.13"/>
</g>
<!-- Node8&#45;&gt;Node7 -->
<g id="edge8" class="edge">
<title>Node8&#45;&gt;Node7</title>
<path fill="none" stroke="midnightblue" d="M853.1,-30.6C864.33,-31.93 876.09,-33.33 887.63,-34.7"/>
<polygon fill="midnightblue" stroke="midnightblue" points="887.35,-38.2 897.7,-35.9 888.18,-31.25 887.35,-38.2"/>
</g>
<!-- Node9&#45;&gt;Node6 -->
<g id="edge12" class="edge">
<title>Node9&#45;&gt;Node6</title>
<path fill="none" stroke="midnightblue" d="M485.22,-43.26C495.78,-45.29 506.79,-47.41 517.59,-49.49"/>
<polygon fill="midnightblue" stroke="midnightblue" points="516.95,-52.93 527.43,-51.39 518.28,-46.06 516.95,-52.93"/>
</g>
<!-- Node9&#45;&gt;Node9 -->
<g id="edge11" class="edge">
<title>Node9&#45;&gt;Node9</title>
<path fill="none" stroke="midnightblue" d="M388.03,-45.66C380.8,-55.06 390.79,-64 418,-64 434.58,-64 444.77,-60.68 448.56,-55.96"/>
<polygon fill="midnightblue" stroke="midnightblue" points="452.04,-55.44 447.97,-45.66 445.05,-55.84 452.04,-55.44"/>
</g>
<!-- Node10 -->
<g id="node10" class="node">
<title>Node10</title>
<g id="a_node10"><a xlink:href="../../dd/de2/a01134.html#a23e10f6c75ab19a639fbf0b996f946f2" target="_top" xlink:title=" ">
<polygon fill="none" stroke="black" points="523,-0.5 523,-30.5 670,-30.5 670,-0.5 523,-0.5"/>
<text text-anchor="start" x="531" y="-18.5" font-family="Helvetica,sans-Serif" font-size="10.00">com.cliffc.aa.node.NewObj</text>
<text text-anchor="middle" x="596.5" y="-7.5" font-family="Helvetica,sans-Serif" font-size="10.00">Node.exists</text>
</a>
</g>
</g>
<!-- Node9&#45;&gt;Node10 -->
<g id="edge10" class="edge">
<title>Node9&#45;&gt;Node10</title>
<path fill="none" stroke="midnightblue" d="M485.22,-24.87C494.28,-24.1 503.66,-23.31 512.95,-22.52"/>
<polygon fill="midnightblue" stroke="midnightblue" points="513.32,-26 522.99,-21.66 512.73,-19.02 513.32,-26"/>
</g>
</g>
</svg>
        <g id="navigator" transform="translate(0 0)" fill="#404254">
                <rect fill="#f2f5e9" fill-opacity="0.5" stroke="#606060" stroke-width=".5" x="0" y="0" width="60" height="60"/>
                <use id="zoomplus" xlink:href="#zoomPlus" x="17" y="9" onmousedown="handleZoom(evt,'in')"/>
                <use id="zoomminus" xlink:href="#zoomMin" x="42" y="9" onmousedown="handleZoom(evt,'out')"/>
                <use id="reset" xlink:href="#resetDef" x="30" y="36" onmousedown="handleReset()"/>
                <g id="arrowUp" xlink:href="#dirArrow" transform="translate(30 24)" onmousedown="handlePan(0,-1)">
                  <use xlink:href="#rim" fill="#404040">
                        <set attributeName="fill" to="#808080" begin="arrowUp.mouseover" end="arrowUp.mouseout"/>
                  </use>
                  <path fill="none" stroke="white" stroke-width="1.5" d="M0,-3.0v7 M-2.5,-0.5L0,-3.0L2.5,-0.5"/>
                </g>
                <g id="arrowRight" xlink:href="#dirArrow" transform="rotate(90) translate(36 -43)" onmousedown="handlePan(1,0)">
                  <use xlink:href="#rim" fill="#404040">
                        <set attributeName="fill" to="#808080" begin="arrowRight.mouseover" end="arrowRight.mouseout"/>
                  </use>
                  <path fill="none" stroke="white" stroke-width="1.5" d="M0,-3.0v7 M-2.5,-0.5L0,-3.0L2.5,-0.5"/>
                </g>
                <g id="arrowDown" xlink:href="#dirArrow" transform="rotate(180) translate(-30 -48)" onmousedown="handlePan(0,1)">
                  <use xlink:href="#rim" fill="#404040">
                        <set attributeName="fill" to="#808080" begin="arrowDown.mouseover" end="arrowDown.mouseout"/>
                  </use>
                  <path fill="none" stroke="white" stroke-width="1.5" d="M0,-3.0v7 M-2.5,-0.5L0,-3.0L2.5,-0.5"/>
                </g>
                <g id="arrowLeft" xlink:href="#dirArrow" transform="rotate(270) translate(-36 17)" onmousedown="handlePan(-1,0)">
                  <use xlink:href="#rim" fill="#404040">
                        <set attributeName="fill" to="#808080" begin="arrowLeft.mouseover" end="arrowLeft.mouseout"/>
                  </use>
                  <path fill="none" stroke="white" stroke-width="1.5" d="M0,-3.0v7 M-2.5,-0.5L0,-3.0L2.5,-0.5"/>
                </g>
        </g>
        <svg viewBox="0 0 15 15" width="100%" height="30px" preserveAspectRatio="xMaxYMin meet">
         <g id="arrow_out" transform="scale(0.3 0.3)">
          <a xlink:href="a01398_a82a2e60ef3169d3c09f4d66cff677100_cgraph_org.svg" target="_base">
           <rect id="button" ry="5" rx="5" y="6" x="6" height="38" width="38"
                fill="#f2f5e9" fill-opacity="0.5" stroke="#606060" stroke-width="1.0"/>
           <path id="arrow"
             d="M 11.500037,31.436501 C 11.940474,20.09759 22.043105,11.32322 32.158766,21.979434 L 37.068811,17.246167 C 37.068811,17.246167 37.088388,32 37.088388,32 L 22.160133,31.978069 C 22.160133,31.978069 26.997745,27.140456 26.997745,27.140456 C 18.528582,18.264221 13.291696,25.230495 11.500037,31.436501 z"
             style="fill:#404040;"/>
          </a>
         </g>
        </svg>
</svg>
