<?xml version="1.0" encoding="UTF-8" standalone="no"?>
<!DOCTYPE svg PUBLIC "-//W3C//DTD SVG 1.1//EN"
 "http://www.w3.org/Graphics/SVG/1.1/DTD/svg11.dtd">
<!-- Generated by graphviz version 2.43.0 (0)
 -->
<!-- Title: com.cliffc.aa.Parse.args Pages: 1 -->
<svg width="1976pt" height="568pt"
 viewBox="0.00 0.00 1976.00 568.23" xmlns="http://www.w3.org/2000/svg" xmlns:xlink="http://www.w3.org/1999/xlink">
<g id="graph0" class="graph" transform="scale(1 1) rotate(0) translate(4 564.23)">
<title>com.cliffc.aa.Parse.args</title>
<!-- Node1 -->
<g id="node1" class="node">
<title>Node1</title>
<g id="a_node1"><a xlink:title=" ">
<polygon fill="#bfbfbf" stroke="black" points="1836,-350.73 1836,-369.73 1968,-369.73 1968,-350.73 1836,-350.73"/>
<text text-anchor="middle" x="1902" y="-357.73" font-family="Helvetica,sans-Serif" font-size="10.00">com.cliffc.aa.Parse.args</text>
</a>
</g>
</g>
<!-- Node2 -->
<g id="node2" class="node">
<title>Node2</title>
<g id="a_node2"><a xlink:href="../../da/de3/a01398.html#add75d4940edeaef88472954f30ea8c70" target="_top" xlink:title=" ">
<polygon fill="none" stroke="black" points="1663,-540.73 1663,-559.73 1800,-559.73 1800,-540.73 1663,-540.73"/>
<text text-anchor="middle" x="1731.5" y="-547.73" font-family="Helvetica,sans-Serif" font-size="10.00">com.cliffc.aa.Parse._args</text>
</a>
</g>
</g>
<!-- Node1&#45;&gt;Node2 -->
<g id="edge1" class="edge">
<title>Node1&#45;&gt;Node2</title>
<path fill="none" stroke="midnightblue" d="M1892.15,-379.18C1878.06,-412.06 1847.23,-478.81 1800,-517.23 1785.05,-529.4 1763.45,-535.63 1748.75,-540.65"/>
<polygon fill="midnightblue" stroke="midnightblue" points="1895.45,-380.34 1896.13,-369.77 1889.01,-377.61 1895.45,-380.34"/>
</g>
<!-- Node3 -->
<g id="node3" class="node">
<title>Node3</title>
<g id="a_node3"><a xlink:href="../../da/de3/a01398.html#ac81c4d62901080f0883b0e984f7f0062" target="_top" xlink:title=" ">
<polygon fill="none" stroke="black" points="1307,-75.73 1307,-94.73 1445,-94.73 1445,-75.73 1307,-75.73"/>
<text text-anchor="middle" x="1376" y="-82.73" font-family="Helvetica,sans-Serif" font-size="10.00">com.cliffc.aa.Parse._expr</text>
</a>
</g>
</g>
<!-- Node1&#45;&gt;Node3 -->
<g id="edge3" class="edge">
<title>Node1&#45;&gt;Node3</title>
<path fill="none" stroke="midnightblue" d="M1897.45,-340.66C1888.85,-299.26 1862.78,-202.85 1800,-156.23 1695.08,-78.32 1535.21,-73.87 1445.05,-78.77"/>
<polygon fill="midnightblue" stroke="midnightblue" points="1894.04,-341.43 1899.39,-350.57 1900.91,-340.09 1894.04,-341.43"/>
</g>
<!-- Node6 -->
<g id="node6" class="node">
<title>Node6</title>
<g id="a_node6"><a xlink:href="../../da/de3/a01398.html#ade4bf32252a86275a1ec393dea94ed6f" target="_top" xlink:title=" ">
<polygon fill="none" stroke="black" points="0,-264.23 0,-294.23 111,-294.23 111,-264.23 0,-264.23"/>
<text text-anchor="start" x="8" y="-282.23" font-family="Helvetica,sans-Serif" font-size="10.00">com.cliffc.aa.Parse.</text>
<text text-anchor="middle" x="55.5" y="-271.23" font-family="Helvetica,sans-Serif" font-size="10.00">_short_circuit_expr</text>
</a>
</g>
</g>
<!-- Node1&#45;&gt;Node6 -->
<g id="edge19" class="edge">
<title>Node1&#45;&gt;Node6</title>
<path fill="none" stroke="midnightblue" d="M1881.07,-376.09C1830.06,-415.04 1689.31,-512.23 1555,-512.23 1555,-512.23 1555,-512.23 356.5,-512.23 256.83,-512.23 223.19,-496.49 147,-432.23 101,-393.43 72.57,-324.97 61.63,-294.54"/>
<polygon fill="midnightblue" stroke="midnightblue" points="1883.51,-378.63 1889.27,-369.74 1879.22,-373.1 1883.51,-378.63"/>
</g>
<!-- Node8 -->
<g id="node8" class="node">
<title>Node8</title>
<g id="a_node8"><a xlink:href="../../da/de3/a01398.html#a6e92b63110e4ed2e5bf7533656730f3f" target="_top" xlink:title="Parse a lisp&#45;like function application.">
<polygon fill="none" stroke="black" points="964,-160.73 964,-179.73 1102,-179.73 1102,-160.73 964,-160.73"/>
<text text-anchor="middle" x="1033" y="-167.73" font-family="Helvetica,sans-Serif" font-size="10.00">com.cliffc.aa.Parse.apply</text>
</a>
</g>
</g>
<!-- Node1&#45;&gt;Node8 -->
<g id="edge20" class="edge">
<title>Node1&#45;&gt;Node8</title>
<path fill="none" stroke="midnightblue" d="M1893.33,-341.32C1879.6,-310.05 1847.74,-248.01 1800,-217.23 1706.82,-157.15 1665.87,-170.23 1555,-170.23 1555,-170.23 1555,-170.23 1375,-170.23 1280.43,-170.23 1171.1,-170.23 1102.26,-170.23"/>
<polygon fill="midnightblue" stroke="midnightblue" points="1890.16,-342.81 1897.28,-350.65 1896.6,-340.07 1890.16,-342.81"/>
</g>
<!-- Node12 -->
<g id="node12" class="node">
<title>Node12</title>
<g id="a_node12"><a xlink:href="../../da/de3/a01398.html#ab502dae0cf2cae3c0ade2422e579fce2" target="_top" xlink:title="Any number field&#45;lookups or function applications, then an optional assignment term = id++ | id– term...">
<polygon fill="none" stroke="black" points="451.5,-293.73 451.5,-312.73 585.5,-312.73 585.5,-293.73 451.5,-293.73"/>
<text text-anchor="middle" x="518.5" y="-300.73" font-family="Helvetica,sans-Serif" font-size="10.00">com.cliffc.aa.Parse.term</text>
</a>
</g>
</g>
<!-- Node1&#45;&gt;Node12 -->
<g id="edge37" class="edge">
<title>Node1&#45;&gt;Node12</title>
<path fill="none" stroke="midnightblue" d="M1825.89,-360.23C1755.81,-360.23 1648.32,-360.23 1555,-360.23 1555,-360.23 1555,-360.23 860,-360.23 746.42,-360.23 614.42,-329 553.5,-312.77"/>
<polygon fill="midnightblue" stroke="midnightblue" points="1825.95,-363.73 1835.95,-360.23 1825.95,-356.73 1825.95,-363.73"/>
</g>
<!-- Node13 -->
<g id="node13" class="node">
<title>Node13</title>
<g id="a_node13"><a xlink:href="../../da/de3/a01398.html#a4190f8505e784622f1976492ded413fa" target="_top" xlink:title="A balanced operator as a fact().">
<polygon fill="none" stroke="black" points="1308,-388.73 1308,-407.73 1444,-407.73 1444,-388.73 1308,-388.73"/>
<text text-anchor="middle" x="1376" y="-395.73" font-family="Helvetica,sans-Serif" font-size="10.00">com.cliffc.aa.Parse.bfact</text>
</a>
</g>
</g>
<!-- Node1&#45;&gt;Node13 -->
<g id="edge21" class="edge">
<title>Node1&#45;&gt;Node13</title>
<path fill="none" stroke="midnightblue" d="M1827.94,-371.07C1818.55,-372.25 1809.06,-373.35 1800,-374.23 1674.63,-386.46 1527.7,-393.07 1444.16,-396.1"/>
<polygon fill="midnightblue" stroke="midnightblue" points="1828.59,-374.52 1838.06,-369.76 1827.69,-367.57 1828.59,-374.52"/>
</g>
<!-- Node16 -->
<g id="node16" class="node">
<title>Node16</title>
<g id="a_node16"><a xlink:href="../../da/de3/a01398.html#a4a886c4ada30f2e32e70151037fd7118" target="_top" xlink:title=" ">
<polygon fill="none" stroke="black" points="1481,-293.73 1481,-312.73 1627,-312.73 1627,-293.73 1481,-293.73"/>
<text text-anchor="middle" x="1554" y="-300.73" font-family="Helvetica,sans-Serif" font-size="10.00">com.cliffc.aa.Parse.do_call</text>
</a>
</g>
</g>
<!-- Node1&#45;&gt;Node16 -->
<g id="edge25" class="edge">
<title>Node1&#45;&gt;Node16</title>
<path fill="none" stroke="midnightblue" d="M1833.06,-349.04C1768.82,-338.46 1673.49,-322.75 1612.81,-312.76"/>
<polygon fill="midnightblue" stroke="midnightblue" points="1832.65,-352.52 1843.09,-350.69 1833.79,-345.61 1832.65,-352.52"/>
</g>
<!-- Node17 -->
<g id="node17" class="node">
<title>Node17</title>
<g id="a_node17"><a xlink:href="../../da/de3/a01398.html#ac627d3aaaed60f3d4a68bc4431dba21e" target="_top" xlink:title=" ">
<polygon fill="none" stroke="black" points="1313.5,-236.73 1313.5,-255.73 1438.5,-255.73 1438.5,-236.73 1313.5,-236.73"/>
<text text-anchor="middle" x="1376" y="-243.73" font-family="Helvetica,sans-Serif" font-size="10.00">com.cliffc.aa.Parse.inc</text>
</a>
</g>
</g>
<!-- Node1&#45;&gt;Node17 -->
<g id="edge36" class="edge">
<title>Node1&#45;&gt;Node17</title>
<path fill="none" stroke="midnightblue" d="M1890.18,-341.88C1874.15,-316.69 1841.47,-272.47 1800,-254.23 1671.24,-197.62 1498.42,-221.23 1419.5,-236.72"/>
<polygon fill="midnightblue" stroke="midnightblue" points="1887.27,-343.82 1895.49,-350.5 1893.23,-340.15 1887.27,-343.82"/>
</g>
<!-- Node18 -->
<g id="node18" class="node">
<title>Node18</title>
<g id="a_node18"><a xlink:href="../../da/de3/a01398.html#aa40dcde3dd2de1189f636cf5e5e865c7" target="_top" xlink:title=" ">
<polygon fill="none" stroke="black" points="1670,-263.23 1670,-293.23 1793,-293.23 1793,-263.23 1670,-263.23"/>
<text text-anchor="start" x="1678" y="-281.23" font-family="Helvetica,sans-Serif" font-size="10.00">com.cliffc.aa.Parse.do</text>
<text text-anchor="middle" x="1731.5" y="-270.23" font-family="Helvetica,sans-Serif" font-size="10.00">_call0</text>
</a>
</g>
</g>
<!-- Node1&#45;&gt;Node18 -->
<g id="edge33" class="edge">
<title>Node1&#45;&gt;Node18</title>
<path fill="none" stroke="midnightblue" d="M1874.33,-345.97C1854.09,-335.28 1825.49,-320.44 1800,-308.23 1789.48,-303.19 1777.9,-297.94 1767.36,-293.27"/>
<polygon fill="midnightblue" stroke="midnightblue" points="1872.8,-349.12 1883.27,-350.71 1876.08,-342.94 1872.8,-349.12"/>
</g>
<!-- Node19 -->
<g id="node19" class="node">
<title>Node19</title>
<g id="a_node19"><a xlink:href="../../da/de3/a01398.html#af4bbf26ee356318a4ab80490f56074f8" target="_top" xlink:title="Parse a tuple; first stmt but not the &#39;,&#39; parsed.">
<polygon fill="none" stroke="black" points="1308,-426.73 1308,-445.73 1444,-445.73 1444,-426.73 1308,-426.73"/>
<text text-anchor="middle" x="1376" y="-433.73" font-family="Helvetica,sans-Serif" font-size="10.00">com.cliffc.aa.Parse.tuple</text>
</a>
</g>
</g>
<!-- Node1&#45;&gt;Node19 -->
<g id="edge38" class="edge">
<title>Node1&#45;&gt;Node19</title>
<path fill="none" stroke="midnightblue" d="M1866.92,-373.39C1847.57,-380.35 1822.75,-388.42 1800,-393.23 1676.15,-419.44 1528.4,-429.83 1444.35,-433.84"/>
<polygon fill="midnightblue" stroke="midnightblue" points="1868.32,-376.61 1876.5,-369.88 1865.91,-370.03 1868.32,-376.61"/>
</g>
<!-- Node2&#45;&gt;Node1 -->
<g id="edge2" class="edge">
<title>Node2&#45;&gt;Node1</title>
<path fill="none" stroke="midnightblue" d="M1800.14,-534.08C1859.99,-481.46 1890.83,-399.03 1898.87,-370.08"/>
<polygon fill="midnightblue" stroke="midnightblue" points="1797.71,-531.55 1792.3,-540.66 1802.21,-536.91 1797.71,-531.55"/>
</g>
<!-- Node4 -->
<g id="node4" class="node">
<title>Node4</title>
<g id="a_node4"><a xlink:href="../../da/de3/a01398.html#a6397933ff168ada64e7209d9c82122de" target="_top" xlink:title=" ">
<polygon fill="none" stroke="black" points="302,-70.23 302,-100.23 413,-100.23 413,-70.23 302,-70.23"/>
<text text-anchor="start" x="310" y="-88.23" font-family="Helvetica,sans-Serif" font-size="10.00">com.cliffc.aa.Parse.</text>
<text text-anchor="middle" x="357.5" y="-77.23" font-family="Helvetica,sans-Serif" font-size="10.00">_expr_higher</text>
</a>
</g>
</g>
<!-- Node3&#45;&gt;Node4 -->
<g id="edge4" class="edge">
<title>Node3&#45;&gt;Node4</title>
<path fill="none" stroke="midnightblue" d="M1296.38,-78.11C1227.26,-76.23 1123.96,-76.23 1034,-76.23 1034,-76.23 1034,-76.23 690,-76.23 592.45,-76.23 478.75,-76.23 413.05,-78.84"/>
<polygon fill="midnightblue" stroke="midnightblue" points="1296.64,-81.62 1306.74,-78.42 1296.85,-74.63 1296.64,-81.62"/>
</g>
<!-- Node7 -->
<g id="node7" class="node">
<title>Node7</title>
<g id="a_node7"><a xlink:href="../../da/de3/a01398.html#af41d3ed90c69faf4279701b6aa98bd3a" target="_top" xlink:title="Parse an expression, a series of terms separated by binary operators.">
<polygon fill="none" stroke="black" points="1138,-122.73 1138,-141.73 1271,-141.73 1271,-122.73 1138,-122.73"/>
<text text-anchor="middle" x="1204.5" y="-129.73" font-family="Helvetica,sans-Serif" font-size="10.00">com.cliffc.aa.Parse.expr</text>
</a>
</g>
</g>
<!-- Node3&#45;&gt;Node7 -->
<g id="edge10" class="edge">
<title>Node3&#45;&gt;Node7</title>
<path fill="none" stroke="midnightblue" d="M1331.03,-97.42C1302.68,-105.29 1266.32,-115.37 1240.04,-122.65"/>
<polygon fill="midnightblue" stroke="midnightblue" points="1332,-100.79 1340.7,-94.74 1330.13,-94.04 1332,-100.79"/>
</g>
<!-- Node4&#45;&gt;Node3 -->
<g id="edge5" class="edge">
<title>Node4&#45;&gt;Node3</title>
<path fill="none" stroke="midnightblue" d="M423.43,-92C490.26,-94.23 597.4,-94.23 690,-94.23 1034,-94.23 1034,-94.23 1034,-94.23 1128.57,-94.23 1237.9,-94.23 1306.74,-92.04"/>
<polygon fill="midnightblue" stroke="midnightblue" points="423.17,-88.49 413.05,-91.62 422.92,-95.48 423.17,-88.49"/>
</g>
<!-- Node5 -->
<g id="node5" class="node">
<title>Node5</title>
<g id="a_node5"><a xlink:href="../../da/de3/a01398.html#a58b0dba4e9b60d9e9639eea530b6077b" target="_top" xlink:title=" ">
<polygon fill="none" stroke="black" points="147,-70.23 147,-100.23 266,-100.23 266,-70.23 147,-70.23"/>
<text text-anchor="start" x="155" y="-88.23" font-family="Helvetica,sans-Serif" font-size="10.00">com.cliffc.aa.Parse.</text>
<text text-anchor="middle" x="206.5" y="-77.23" font-family="Helvetica,sans-Serif" font-size="10.00">_expr_higher_require</text>
</a>
</g>
</g>
<!-- Node4&#45;&gt;Node5 -->
<g id="edge6" class="edge">
<title>Node4&#45;&gt;Node5</title>
<path fill="none" stroke="midnightblue" d="M291.64,-85.23C283.16,-85.23 274.51,-85.23 266.14,-85.23"/>
<polygon fill="midnightblue" stroke="midnightblue" points="291.86,-88.73 301.86,-85.23 291.86,-81.73 291.86,-88.73"/>
</g>
<!-- Node5&#45;&gt;Node3 -->
<g id="edge7" class="edge">
<title>Node5&#45;&gt;Node3</title>
<path fill="none" stroke="midnightblue" d="M270.96,-67.8C281.28,-65.34 291.9,-63.04 302,-61.23 396.81,-44.22 421.18,-38.23 517.5,-38.23 1034,-38.23 1034,-38.23 1034,-38.23 1142.77,-38.23 1269.23,-61.99 1333.26,-75.72"/>
<polygon fill="midnightblue" stroke="midnightblue" points="270.07,-64.41 261.18,-70.19 271.73,-71.21 270.07,-64.41"/>
</g>
<!-- Node5&#45;&gt;Node6 -->
<g id="edge8" class="edge">
<title>Node5&#45;&gt;Node6</title>
<path fill="none" stroke="midnightblue" d="M187.53,-108.63C156.58,-148.93 94.04,-230.36 68.14,-264.08"/>
<polygon fill="midnightblue" stroke="midnightblue" points="190.49,-110.52 193.81,-100.45 184.94,-106.25 190.49,-110.52"/>
</g>
<!-- Node6&#45;&gt;Node3 -->
<g id="edge9" class="edge">
<title>Node6&#45;&gt;Node3</title>
<path fill="none" stroke="midnightblue" d="M59.84,-253.81C67.17,-208.41 88.9,-113.26 147,-61.23 219.24,3.46 259.52,-0.23 356.5,-0.23 1034,-0.23 1034,-0.23 1034,-0.23 1140.82,-0.23 1168.57,-9.91 1271,-40.23 1302.13,-49.44 1336.33,-65.47 1356.72,-75.71"/>
<polygon fill="midnightblue" stroke="midnightblue" points="56.34,-253.57 58.31,-263.98 63.26,-254.61 56.34,-253.57"/>
</g>
<!-- Node7&#45;&gt;Node8 -->
<g id="edge11" class="edge">
<title>Node7&#45;&gt;Node8</title>
<path fill="none" stroke="midnightblue" d="M1150.76,-144.06C1126.86,-149.41 1098.98,-155.66 1076.46,-160.71"/>
<polygon fill="midnightblue" stroke="midnightblue" points="1151.74,-147.42 1160.73,-141.82 1150.2,-140.59 1151.74,-147.42"/>
</g>
<!-- Node9 -->
<g id="node9" class="node">
<title>Node9</title>
<g id="a_node9"><a xlink:href="../../da/de3/a01398.html#a5e1b4411da5e7400c4fc45d4b3dbd795" target="_top" xlink:title="Parse an if&#45;expression, with lazy eval on the branches.">
<polygon fill="none" stroke="black" points="796,-160.73 796,-179.73 926,-179.73 926,-160.73 796,-160.73"/>
<text text-anchor="middle" x="861" y="-167.73" font-family="Helvetica,sans-Serif" font-size="10.00">com.cliffc.aa.Parse.ifex</text>
</a>
</g>
</g>
<!-- Node7&#45;&gt;Node9 -->
<g id="edge18" class="edge">
<title>Node7&#45;&gt;Node9</title>
<path fill="none" stroke="midnightblue" d="M1127.84,-136.19C1080.61,-139.17 1018.61,-144 964,-151.23 945.43,-153.69 925.11,-157.29 907.53,-160.69"/>
<polygon fill="midnightblue" stroke="midnightblue" points="1128.23,-139.68 1137.99,-135.57 1127.8,-132.69 1128.23,-139.68"/>
</g>
<!-- Node8&#45;&gt;Node9 -->
<g id="edge12" class="edge">
<title>Node8&#45;&gt;Node9</title>
<path fill="none" stroke="midnightblue" d="M953.81,-170.23C944.52,-170.23 935.11,-170.23 926.04,-170.23"/>
<polygon fill="midnightblue" stroke="midnightblue" points="953.83,-173.73 963.83,-170.23 953.83,-166.73 953.83,-173.73"/>
</g>
<!-- Node10 -->
<g id="node10" class="node">
<title>Node10</title>
<g id="a_node10"><a xlink:href="../../da/de3/a01398.html#a2a5934e98ffa96d31e2135ab66c7e796" target="_top" xlink:title="A statement is a list of variables to final&#45;assign or re&#45;assign, and an ifex for the value.">
<polygon fill="none" stroke="black" points="624,-160.73 624,-179.73 758,-179.73 758,-160.73 624,-160.73"/>
<text text-anchor="middle" x="691" y="-167.73" font-family="Helvetica,sans-Serif" font-size="10.00">com.cliffc.aa.Parse.stmt</text>
</a>
</g>
</g>
<!-- Node9&#45;&gt;Node10 -->
<g id="edge13" class="edge">
<title>Node9&#45;&gt;Node10</title>
<path fill="none" stroke="midnightblue" d="M785.4,-163.52C776.35,-163.45 767.16,-163.48 758.25,-163.62"/>
<polygon fill="midnightblue" stroke="midnightblue" points="785.48,-167.02 795.53,-163.65 785.57,-160.02 785.48,-167.02"/>
</g>
<!-- Node10&#45;&gt;Node9 -->
<g id="edge14" class="edge">
<title>Node10&#45;&gt;Node9</title>
<path fill="none" stroke="midnightblue" d="M768.41,-176.96C777.47,-177.02 786.65,-176.97 795.53,-176.82"/>
<polygon fill="midnightblue" stroke="midnightblue" points="768.29,-173.45 758.25,-176.85 768.21,-180.45 768.29,-173.45"/>
</g>
<!-- Node11 -->
<g id="node11" class="node">
<title>Node11</title>
<g id="a_node11"><a xlink:href="../../da/de3/a01398.html#adf95c17fe0de5cfff574ee89b78f0d37" target="_top" xlink:title=" ">
<polygon fill="none" stroke="black" points="449,-160.73 449,-179.73 588,-179.73 588,-160.73 449,-160.73"/>
<text text-anchor="middle" x="518.5" y="-167.73" font-family="Helvetica,sans-Serif" font-size="10.00">com.cliffc.aa.Parse.stmts</text>
</a>
</g>
</g>
<!-- Node10&#45;&gt;Node11 -->
<g id="edge15" class="edge">
<title>Node10&#45;&gt;Node11</title>
<path fill="none" stroke="midnightblue" d="M613.44,-170.23C605.05,-170.23 596.54,-170.23 588.26,-170.23"/>
<polygon fill="midnightblue" stroke="midnightblue" points="613.59,-173.73 623.59,-170.23 613.59,-166.73 613.59,-173.73"/>
</g>
<!-- Node10&#45;&gt;Node12 -->
<g id="edge16" class="edge">
<title>Node10&#45;&gt;Node12</title>
<path fill="none" stroke="midnightblue" d="M644.84,-183.5C637.6,-186.5 630.39,-190.07 624,-194.23 580.29,-222.72 541.39,-272.78 526.23,-293.66"/>
<polygon fill="midnightblue" stroke="midnightblue" points="646.58,-186.58 654.67,-179.74 644.08,-180.04 646.58,-186.58"/>
</g>
<!-- Node12&#45;&gt;Node4 -->
<g id="edge17" class="edge">
<title>Node12&#45;&gt;Node4</title>
<path fill="none" stroke="midnightblue" d="M504.5,-285.41C473.92,-243.48 397.87,-139.21 369.45,-100.24"/>
<polygon fill="midnightblue" stroke="midnightblue" points="501.74,-287.57 510.46,-293.58 507.4,-283.44 501.74,-287.57"/>
</g>
<!-- Node14 -->
<g id="node14" class="node">
<title>Node14</title>
<g id="a_node14"><a xlink:href="../../da/de3/a01398.html#ab5f56822b1234ac422a988a689632a42" target="_top" xlink:title="Parse a factor, a leaf grammar token fact = num // number fact = &quot;string&quot; // string fact = (stmts) //...">
<polygon fill="none" stroke="black" points="1139.5,-388.73 1139.5,-407.73 1269.5,-407.73 1269.5,-388.73 1139.5,-388.73"/>
<text text-anchor="middle" x="1204.5" y="-395.73" font-family="Helvetica,sans-Serif" font-size="10.00">com.cliffc.aa.Parse.fact</text>
</a>
</g>
</g>
<!-- Node13&#45;&gt;Node14 -->
<g id="edge22" class="edge">
<title>Node13&#45;&gt;Node14</title>
<path fill="none" stroke="midnightblue" d="M1297.5,-398.23C1288.2,-398.23 1278.79,-398.23 1269.71,-398.23"/>
<polygon fill="midnightblue" stroke="midnightblue" points="1297.52,-401.73 1307.52,-398.23 1297.52,-394.73 1297.52,-401.73"/>
</g>
<!-- Node15 -->
<g id="node15" class="node">
<title>Node15</title>
<g id="a_node15"><a xlink:href="../../da/de3/a01398.html#a7056d9016c6762ee436ae04e04476d3b" target="_top" xlink:title="Parse an optionally typed factor tfact = fact[:type].">
<polygon fill="none" stroke="black" points="794,-388.73 794,-407.73 928,-407.73 928,-388.73 794,-388.73"/>
<text text-anchor="middle" x="861" y="-395.73" font-family="Helvetica,sans-Serif" font-size="10.00">com.cliffc.aa.Parse.tfact</text>
</a>
</g>
</g>
<!-- Node14&#45;&gt;Node15 -->
<g id="edge23" class="edge">
<title>Node14&#45;&gt;Node15</title>
<path fill="none" stroke="midnightblue" d="M1129.12,-398.23C1069.25,-398.23 985.88,-398.23 928.27,-398.23"/>
<polygon fill="midnightblue" stroke="midnightblue" points="1129.27,-401.73 1139.27,-398.23 1129.27,-394.73 1129.27,-401.73"/>
</g>
<!-- Node15&#45;&gt;Node12 -->
<g id="edge24" class="edge">
<title>Node15&#45;&gt;Node12</title>
<path fill="none" stroke="midnightblue" d="M783.8,-399.89C736.5,-398.65 675.2,-392.87 624,-374.23 585.46,-360.2 547.46,-328.78 529.78,-312.87"/>
<polygon fill="midnightblue" stroke="midnightblue" points="783.91,-403.39 793.97,-400.09 784.05,-396.39 783.91,-403.39"/>
</g>
<!-- Node16&#45;&gt;Node3 -->
<g id="edge26" class="edge">
<title>Node16&#45;&gt;Node3</title>
<path fill="none" stroke="midnightblue" d="M1538.92,-285.8C1503.56,-241.99 1411.88,-128.43 1384.7,-94.77"/>
<polygon fill="midnightblue" stroke="midnightblue" points="1536.21,-288 1545.21,-293.58 1541.65,-283.6 1536.21,-288"/>
</g>
<!-- Node16&#45;&gt;Node6 -->
<g id="edge27" class="edge">
<title>Node16&#45;&gt;Node6</title>
<path fill="none" stroke="midnightblue" d="M1545.72,-322.55C1531.89,-356.22 1498.35,-424.96 1445,-455.23 1352.13,-507.93 1312.28,-474.23 1205.5,-474.23 1205.5,-474.23 1205.5,-474.23 356.5,-474.23 224.81,-474.23 105.49,-340.5 68.37,-294.53"/>
<polygon fill="midnightblue" stroke="midnightblue" points="1549.1,-323.53 1549.52,-312.94 1542.59,-320.95 1549.1,-323.53"/>
</g>
<!-- Node16&#45;&gt;Node8 -->
<g id="edge28" class="edge">
<title>Node16&#45;&gt;Node8</title>
<path fill="none" stroke="midnightblue" d="M1470.67,-294.31C1422.53,-288.15 1360.83,-278.64 1307,-265.23 1212.04,-241.58 1103.35,-198.84 1056.94,-179.81"/>
<polygon fill="midnightblue" stroke="midnightblue" points="1470.37,-297.8 1480.73,-295.57 1471.25,-290.85 1470.37,-297.8"/>
</g>
<!-- Node16&#45;&gt;Node12 -->
<g id="edge32" class="edge">
<title>Node16&#45;&gt;Node12</title>
<path fill="none" stroke="midnightblue" d="M1470.72,-310.27C1400.35,-315.68 1296.34,-322.23 1205.5,-322.23 1205.5,-322.23 1205.5,-322.23 860,-322.23 764.53,-322.23 654.24,-314.69 585.67,-309.11"/>
<polygon fill="midnightblue" stroke="midnightblue" points="1471.15,-313.74 1480.85,-309.48 1470.61,-306.77 1471.15,-313.74"/>
</g>
<!-- Node16&#45;&gt;Node13 -->
<g id="edge29" class="edge">
<title>Node16&#45;&gt;Node13</title>
<path fill="none" stroke="midnightblue" d="M1526.08,-317.76C1489.62,-337.44 1425.52,-372.04 1394.63,-388.71"/>
<polygon fill="midnightblue" stroke="midnightblue" points="1528.02,-320.69 1535.16,-312.86 1524.69,-314.53 1528.02,-320.69"/>
</g>
<!-- Node16&#45;&gt;Node17 -->
<g id="edge30" class="edge">
<title>Node16&#45;&gt;Node17</title>
<path fill="none" stroke="midnightblue" d="M1513.92,-290.58C1481.48,-280.07 1436.03,-265.35 1406.55,-255.8"/>
<polygon fill="midnightblue" stroke="midnightblue" points="1512.95,-293.94 1523.54,-293.69 1515.11,-287.28 1512.95,-293.94"/>
</g>
<!-- Node17&#45;&gt;Node12 -->
<g id="edge31" class="edge">
<title>Node17&#45;&gt;Node12</title>
<path fill="none" stroke="midnightblue" d="M1312.18,-257.46C1243.94,-268.67 1131.6,-284.23 1034,-284.23 1034,-284.23 1034,-284.23 860,-284.23 764.53,-284.23 654.24,-291.77 585.67,-297.35"/>
<polygon fill="midnightblue" stroke="midnightblue" points="1313.05,-260.86 1322.34,-255.77 1311.9,-253.96 1313.05,-260.86"/>
</g>
<!-- Node18&#45;&gt;Node12 -->
<g id="edge35" class="edge">
<title>Node18&#45;&gt;Node12</title>
<path fill="none" stroke="midnightblue" d="M1674.95,-260.24C1605.89,-239.5 1484.04,-208.23 1377,-208.23 1377,-208.23 1377,-208.23 860,-208.23 733.88,-208.23 590.83,-269.45 539.3,-293.6"/>
<polygon fill="midnightblue" stroke="midnightblue" points="1674.16,-263.65 1684.75,-263.21 1676.2,-256.96 1674.16,-263.65"/>
</g>
<!-- Node18&#45;&gt;Node16 -->
<g id="edge34" class="edge">
<title>Node18&#45;&gt;Node16</title>
<path fill="none" stroke="midnightblue" d="M1659.69,-288.32C1647.18,-290.1 1634.18,-291.95 1621.78,-293.72"/>
<polygon fill="midnightblue" stroke="midnightblue" points="1660.2,-291.78 1669.61,-286.9 1659.22,-284.85 1660.2,-291.78"/>
</g>
<!-- Node19&#45;&gt;Node12 -->
<g id="edge40" class="edge">
<title>Node19&#45;&gt;Node12</title>
<path fill="none" stroke="midnightblue" d="M1297.35,-436.23C1228.23,-436.23 1124.38,-436.23 1034,-436.23 1034,-436.23 1034,-436.23 860,-436.23 753.9,-436.23 719.55,-446.36 624,-400.23 580.09,-379.03 541.88,-333.02 526.6,-312.93"/>
<polygon fill="midnightblue" stroke="midnightblue" points="1297.71,-439.73 1307.71,-436.23 1297.71,-432.73 1297.71,-439.73"/>
</g>
<!-- Node19&#45;&gt;Node14 -->
<g id="edge39" class="edge">
<title>Node19&#45;&gt;Node14</title>
<path fill="none" stroke="midnightblue" d="M1322.26,-424.41C1298.36,-419.05 1270.48,-412.8 1247.96,-407.75"/>
<polygon fill="midnightblue" stroke="midnightblue" points="1321.7,-427.87 1332.23,-426.64 1323.24,-421.04 1321.7,-427.87"/>
</g>
</g>
</svg>
