<?xml version="1.0" encoding="UTF-8" standalone="no"?>
<!DOCTYPE svg PUBLIC "-//W3C//DTD SVG 1.1//EN"
 "http://www.w3.org/Graphics/SVG/1.1/DTD/svg11.dtd">
<!-- Generated by graphviz version 2.43.0 (0)
 -->
<!-- Title: com.cliffc.aa.Parse.err_ctrl2 Pages: 1 -->
<!--zoomable 438 -->
<svg id="main" version="1.1" xmlns="http://www.w3.org/2000/svg" xmlns:xlink="http://www.w3.org/1999/xlink" xml:space="preserve" onload="init(evt)">
<style type="text/css"><![CDATA[
.edge:hover path { stroke: red; }
.edge:hover polygon { stroke: red; fill: red; }
]]></style>
<script type="text/javascript"><![CDATA[
var edges = document.getElementsByTagName('g');
if (edges && edges.length) {
  for (var i=0;i<edges.length;i++) {
    if (edges[i].id.substr(0,4)=='edge') {
      edges[i].setAttribute('class','edge');
    }
  }
}
]]></script>
        <defs>
                <circle id="rim" cx="0" cy="0" r="7"/>
                <circle id="rim2" cx="0" cy="0" r="3.5"/>
                <g id="zoomPlus">
                        <use xlink:href="#rim" fill="#404040">
                                <set attributeName="fill" to="#808080" begin="zoomplus.mouseover" end="zoomplus.mouseout"/>
                        </use>
                        <path d="M-4,0h8M0,-4v8" fill="none" stroke="white" stroke-width="1.5" pointer-events="none"/>
                </g>
                <g id="zoomMin">
                        <use xlink:href="#rim" fill="#404040">
                                <set attributeName="fill" to="#808080" begin="zoomminus.mouseover" end="zoomminus.mouseout"/>
                        </use>
                        <path d="M-4,0h8" fill="none" stroke="white" stroke-width="1.5" pointer-events="none"/>
                </g>
                <g id="dirArrow">
                        <path fill="none" stroke="white" stroke-width="1.5" d="M0,-3.0v7 M-2.5,-0.5L0,-3.0L2.5,-0.5"/>
                </g>
               <g id="resetDef">
                       <use xlink:href="#rim2" fill="#404040">
                               <set attributeName="fill" to="#808080" begin="reset.mouseover" end="reset.mouseout"/>
                       </use>
               </g>
        </defs>

<script type="text/javascript">
var viewWidth = 1650;
var viewHeight = 438;
var sectionId = 'dynsection-47';
</script>
<script xlink:href="../../svgpan.js"/>
<svg id="graph" class="graph">
<g id="viewport">
<title>com.cliffc.aa.Parse.err_ctrl2</title>
<!-- Node1 -->
<g id="node1" class="node">
<title>Node1</title>
<g id="a_node1"><a xlink:title=" ">
<polygon fill="#bfbfbf" stroke="black" points="1517,-252.23 1517,-282.23 1642,-282.23 1642,-252.23 1517,-252.23"/>
<text text-anchor="start" x="1525" y="-270.23" font-family="Helvetica,sans-Serif" font-size="10.00">com.cliffc.aa.Parse.err</text>
<text text-anchor="middle" x="1579.5" y="-259.23" font-family="Helvetica,sans-Serif" font-size="10.00">_ctrl2</text>
</a>
</g>
</g>
<!-- Node2 -->
<g id="node2" class="node">
<title>Node2</title>
<g id="a_node2"><a xlink:href="../../da/de3/a01398.html#a58b0dba4e9b60d9e9639eea530b6077b" target="_top" xlink:title=" ">
<polygon fill="none" stroke="black" points="1355.5,-72.23 1355.5,-102.23 1474.5,-102.23 1474.5,-72.23 1355.5,-72.23"/>
<text text-anchor="start" x="1363.5" y="-90.23" font-family="Helvetica,sans-Serif" font-size="10.00">com.cliffc.aa.Parse.</text>
<text text-anchor="middle" x="1415" y="-79.23" font-family="Helvetica,sans-Serif" font-size="10.00">_expr_higher_require</text>
</a>
</g>
</g>
<!-- Node1&#45;&gt;Node2 -->
<g id="edge1" class="edge">
<title>Node1&#45;&gt;Node2</title>
<path fill="none" stroke="midnightblue" d="M1563.19,-243.73C1545.19,-216.97 1513.61,-172.63 1481,-139.23 1467.67,-125.58 1450.81,-112.19 1437.6,-102.41"/>
<polygon fill="midnightblue" stroke="midnightblue" points="1560.3,-245.71 1568.76,-252.09 1566.13,-241.83 1560.3,-245.71"/>
</g>
<!-- Node6 -->
<g id="node6" class="node">
<title>Node6</title>
<g id="a_node6"><a xlink:href="../../da/de3/a01398.html#a6e92b63110e4ed2e5bf7533656730f3f" target="_top" xlink:title="Parse a lisp&#45;like function application.">
<polygon fill="none" stroke="black" points="662,-219.73 662,-238.73 800,-238.73 800,-219.73 662,-219.73"/>
<text text-anchor="middle" x="731" y="-226.73" font-family="Helvetica,sans-Serif" font-size="10.00">com.cliffc.aa.Parse.apply</text>
</a>
</g>
</g>
<!-- Node1&#45;&gt;Node6 -->
<g id="edge17" class="edge">
<title>Node1&#45;&gt;Node6</title>
<path fill="none" stroke="midnightblue" d="M1506.84,-254.16C1440.27,-243.17 1338.28,-229.23 1249,-229.23 1249,-229.23 1249,-229.23 1077,-229.23 980.87,-229.23 869.67,-229.23 800.08,-229.23"/>
<polygon fill="midnightblue" stroke="midnightblue" points="1506.36,-257.63 1516.8,-255.83 1507.52,-250.73 1506.36,-257.63"/>
</g>
<!-- Node7 -->
<g id="node7" class="node">
<title>Node7</title>
<g id="a_node7"><a xlink:href="../../da/de3/a01398.html#a5e1b4411da5e7400c4fc45d4b3dbd795" target="_top" xlink:title="Parse an if&#45;expression, with lazy eval on the branches.">
<polygon fill="none" stroke="black" points="494,-200.73 494,-219.73 624,-219.73 624,-200.73 494,-200.73"/>
<text text-anchor="middle" x="559" y="-207.73" font-family="Helvetica,sans-Serif" font-size="10.00">com.cliffc.aa.Parse.ifex</text>
</a>
</g>
</g>
<!-- Node1&#45;&gt;Node7 -->
<g id="edge23" class="edge">
<title>Node1&#45;&gt;Node7</title>
<path fill="none" stroke="midnightblue" d="M1506.46,-267.23C1439.7,-267.23 1337.64,-267.23 1249,-267.23 1249,-267.23 1249,-267.23 903.5,-267.23 795.83,-267.23 767.13,-271.47 662,-248.23 632.85,-241.79 600.83,-228.82 580.58,-219.84"/>
<polygon fill="midnightblue" stroke="midnightblue" points="1506.86,-270.73 1516.86,-267.23 1506.86,-263.73 1506.86,-270.73"/>
</g>
<!-- Node8 -->
<g id="node8" class="node">
<title>Node8</title>
<g id="a_node8"><a xlink:href="../../da/de3/a01398.html#a2a5934e98ffa96d31e2135ab66c7e796" target="_top" xlink:title="A statement is a list of variables to final&#45;assign or re&#45;assign, and an ifex for the value.">
<polygon fill="none" stroke="black" points="322,-200.73 322,-219.73 456,-219.73 456,-200.73 322,-200.73"/>
<text text-anchor="middle" x="389" y="-207.73" font-family="Helvetica,sans-Serif" font-size="10.00">com.cliffc.aa.Parse.stmt</text>
</a>
</g>
</g>
<!-- Node1&#45;&gt;Node8 -->
<g id="edge26" class="edge">
<title>Node1&#45;&gt;Node8</title>
<path fill="none" stroke="midnightblue" d="M1544.7,-247.1C1486.46,-214.37 1362.48,-153.23 1249,-153.23 1249,-153.23 1249,-153.23 730,-153.23 616.58,-153.23 484.77,-184.47 423.95,-200.69"/>
<polygon fill="midnightblue" stroke="midnightblue" points="1543.05,-250.19 1553.47,-252.09 1546.52,-244.1 1543.05,-250.19"/>
</g>
<!-- Node10 -->
<g id="node10" class="node">
<title>Node10</title>
<g id="a_node10"><a xlink:href="../../da/de3/a01398.html#ab502dae0cf2cae3c0ade2422e579fce2" target="_top" xlink:title="Any number field&#45;lookups or function applications, then an optional assignment term = id++ | id– term...">
<polygon fill="none" stroke="black" points="149.5,-314.73 149.5,-333.73 283.5,-333.73 283.5,-314.73 149.5,-314.73"/>
<text text-anchor="middle" x="216.5" y="-321.73" font-family="Helvetica,sans-Serif" font-size="10.00">com.cliffc.aa.Parse.term</text>
</a>
</g>
</g>
<!-- Node1&#45;&gt;Node10 -->
<g id="edge27" class="edge">
<title>Node1&#45;&gt;Node10</title>
<path fill="none" stroke="midnightblue" d="M1556.97,-289.67C1538.54,-307.44 1510.38,-331.35 1481,-344.23 1385.38,-386.17 1353.41,-381.23 1249,-381.23 1249,-381.23 1249,-381.23 558,-381.23 444.42,-381.23 312.42,-350 251.5,-333.77"/>
<polygon fill="midnightblue" stroke="midnightblue" points="1559.6,-291.99 1564.25,-282.48 1554.68,-287.01 1559.6,-291.99"/>
</g>
<!-- Node12 -->
<g id="node12" class="node">
<title>Node12</title>
<g id="a_node12"><a xlink:href="../../da/de3/a01398.html#ab5f56822b1234ac422a988a689632a42" target="_top" xlink:title="Parse a factor, a leaf grammar token fact = num // number fact = &quot;string&quot; // string fact = (stmts) //...">
<polygon fill="none" stroke="black" points="1183,-314.73 1183,-333.73 1313,-333.73 1313,-314.73 1183,-314.73"/>
<text text-anchor="middle" x="1248" y="-321.73" font-family="Helvetica,sans-Serif" font-size="10.00">com.cliffc.aa.Parse.fact</text>
</a>
</g>
</g>
<!-- Node1&#45;&gt;Node12 -->
<g id="edge18" class="edge">
<title>Node1&#45;&gt;Node12</title>
<path fill="none" stroke="midnightblue" d="M1551.44,-288.35C1532.8,-301.52 1506.81,-317.24 1481,-324.23 1425.79,-339.19 1360.45,-337.55 1313.2,-333.13"/>
<polygon fill="midnightblue" stroke="midnightblue" points="1553.69,-291.05 1559.72,-282.34 1549.57,-285.38 1553.69,-291.05"/>
</g>
<!-- Node14 -->
<g id="node14" class="node">
<title>Node14</title>
<g id="a_node14"><a xlink:href="../../da/de3/a01398.html#aba7aed0aa9ad4c8e1ad1246b19f6e073" target="_top" xlink:title=" ">
<polygon fill="none" stroke="black" points="1349,-295.73 1349,-314.73 1481,-314.73 1481,-295.73 1349,-295.73"/>
<text text-anchor="middle" x="1415" y="-302.73" font-family="Helvetica,sans-Serif" font-size="10.00">com.cliffc.aa.Parse.func</text>
</a>
</g>
</g>
<!-- Node1&#45;&gt;Node14 -->
<g id="edge21" class="edge">
<title>Node1&#45;&gt;Node14</title>
<path fill="none" stroke="midnightblue" d="M1506.69,-284.02C1489.71,-287.99 1472.17,-292.1 1457.1,-295.62"/>
<polygon fill="midnightblue" stroke="midnightblue" points="1507.66,-287.39 1516.6,-281.71 1506.07,-280.58 1507.66,-287.39"/>
</g>
<!-- Node15 -->
<g id="node15" class="node">
<title>Node15</title>
<g id="a_node15"><a xlink:href="../../da/de3/a01398.html#ac627d3aaaed60f3d4a68bc4431dba21e" target="_top" xlink:title=" ">
<polygon fill="none" stroke="black" points="668.5,-409.73 668.5,-428.73 793.5,-428.73 793.5,-409.73 668.5,-409.73"/>
<text text-anchor="middle" x="731" y="-416.73" font-family="Helvetica,sans-Serif" font-size="10.00">com.cliffc.aa.Parse.inc</text>
</a>
</g>
</g>
<!-- Node1&#45;&gt;Node15 -->
<g id="edge24" class="edge">
<title>Node1&#45;&gt;Node15</title>
<path fill="none" stroke="midnightblue" d="M1567.56,-291.67C1552.68,-321.73 1523.02,-371.65 1481,-395.23 1390.6,-445.97 1352.66,-419.23 1249,-419.23 1249,-419.23 1249,-419.23 1077,-419.23 977.87,-419.23 862.72,-419.23 793.7,-419.23"/>
<polygon fill="midnightblue" stroke="midnightblue" points="1570.88,-292.84 1572.04,-282.31 1564.57,-289.82 1570.88,-292.84"/>
</g>
<!-- Node16 -->
<g id="node16" class="node">
<title>Node16</title>
<g id="a_node16"><a xlink:href="../../da/de3/a01398.html#a7de58cb94e034d32c45310fa8d87f292" target="_top" xlink:title="A type&#45;statement assigns a type to a type variable.">
<polygon fill="none" stroke="black" points="836,-49.73 836,-68.73 973,-68.73 973,-49.73 836,-49.73"/>
<text text-anchor="middle" x="904.5" y="-56.73" font-family="Helvetica,sans-Serif" font-size="10.00">com.cliffc.aa.Parse.tstmt</text>
</a>
</g>
</g>
<!-- Node1&#45;&gt;Node16 -->
<g id="edge28" class="edge">
<title>Node1&#45;&gt;Node16</title>
<path fill="none" stroke="midnightblue" d="M1575.1,-241.94C1567.48,-196.62 1544.46,-102.55 1481,-62.23 1301.58,51.77 1022.91,-21.64 933.87,-49.7"/>
<polygon fill="midnightblue" stroke="midnightblue" points="1571.68,-242.76 1576.68,-252.1 1578.6,-241.68 1571.68,-242.76"/>
</g>
<!-- Node3 -->
<g id="node3" class="node">
<title>Node3</title>
<g id="a_node3"><a xlink:href="../../da/de3/a01398.html#ac81c4d62901080f0883b0e984f7f0062" target="_top" xlink:title=" ">
<polygon fill="none" stroke="black" points="1009,-96.73 1009,-115.73 1147,-115.73 1147,-96.73 1009,-96.73"/>
<text text-anchor="middle" x="1078" y="-103.73" font-family="Helvetica,sans-Serif" font-size="10.00">com.cliffc.aa.Parse._expr</text>
</a>
</g>
</g>
<!-- Node2&#45;&gt;Node3 -->
<g id="edge2" class="edge">
<title>Node2&#45;&gt;Node3</title>
<path fill="none" stroke="midnightblue" d="M1345.28,-82.14C1299.24,-79.76 1237.33,-78.55 1183,-84.23 1160.06,-86.63 1134.72,-91.93 1114.8,-96.73"/>
<polygon fill="midnightblue" stroke="midnightblue" points="1345.26,-85.65 1355.44,-82.7 1345.65,-78.66 1345.26,-85.65"/>
</g>
<!-- Node11 -->
<g id="node11" class="node">
<title>Node11</title>
<g id="a_node11"><a xlink:href="../../da/de3/a01398.html#ade4bf32252a86275a1ec393dea94ed6f" target="_top" xlink:title=" ">
<polygon fill="none" stroke="black" points="1192.5,-94.23 1192.5,-124.23 1303.5,-124.23 1303.5,-94.23 1192.5,-94.23"/>
<text text-anchor="start" x="1200.5" y="-112.23" font-family="Helvetica,sans-Serif" font-size="10.00">com.cliffc.aa.Parse.</text>
<text text-anchor="middle" x="1248" y="-101.23" font-family="Helvetica,sans-Serif" font-size="10.00">_short_circuit_expr</text>
</a>
</g>
</g>
<!-- Node2&#45;&gt;Node11 -->
<g id="edge15" class="edge">
<title>Node2&#45;&gt;Node11</title>
<path fill="none" stroke="midnightblue" d="M1345.34,-96.39C1331.42,-98.24 1316.95,-100.17 1303.59,-101.95"/>
<polygon fill="midnightblue" stroke="midnightblue" points="1345.91,-99.84 1355.36,-95.05 1344.99,-92.9 1345.91,-99.84"/>
</g>
<!-- Node4 -->
<g id="node4" class="node">
<title>Node4</title>
<g id="a_node4"><a xlink:href="../../da/de3/a01398.html#a6397933ff168ada64e7209d9c82122de" target="_top" xlink:title=" ">
<polygon fill="none" stroke="black" points="0,-91.23 0,-121.23 111,-121.23 111,-91.23 0,-91.23"/>
<text text-anchor="start" x="8" y="-109.23" font-family="Helvetica,sans-Serif" font-size="10.00">com.cliffc.aa.Parse.</text>
<text text-anchor="middle" x="55.5" y="-98.23" font-family="Helvetica,sans-Serif" font-size="10.00">_expr_higher</text>
</a>
</g>
</g>
<!-- Node3&#45;&gt;Node4 -->
<g id="edge3" class="edge">
<title>Node3&#45;&gt;Node4</title>
<path fill="none" stroke="midnightblue" d="M998.87,-99.15C928.94,-97.23 823.63,-97.23 732,-97.23 732,-97.23 732,-97.23 388,-97.23 290.45,-97.23 176.75,-97.23 111.05,-99.84"/>
<polygon fill="midnightblue" stroke="midnightblue" points="998.82,-102.65 1008.92,-99.45 999.03,-95.66 998.82,-102.65"/>
</g>
<!-- Node5 -->
<g id="node5" class="node">
<title>Node5</title>
<g id="a_node5"><a xlink:href="../../da/de3/a01398.html#af41d3ed90c69faf4279701b6aa98bd3a" target="_top" xlink:title="Parse an expression, a series of terms separated by binary operators.">
<polygon fill="none" stroke="black" points="838,-181.73 838,-200.73 971,-200.73 971,-181.73 838,-181.73"/>
<text text-anchor="middle" x="904.5" y="-188.73" font-family="Helvetica,sans-Serif" font-size="10.00">com.cliffc.aa.Parse.expr</text>
</a>
</g>
</g>
<!-- Node3&#45;&gt;Node5 -->
<g id="edge6" class="edge">
<title>Node3&#45;&gt;Node5</title>
<path fill="none" stroke="midnightblue" d="M1048.44,-120.39C1013.39,-137.76 954.91,-166.74 924.77,-181.68"/>
<polygon fill="midnightblue" stroke="midnightblue" points="1050.25,-123.39 1057.66,-115.82 1047.15,-117.12 1050.25,-123.39"/>
</g>
<!-- Node4&#45;&gt;Node2 -->
<g id="edge5" class="edge">
<title>Node4&#45;&gt;Node2</title>
<path fill="none" stroke="midnightblue" d="M100.64,-87.36C163.32,-62.32 282.26,-21.23 388,-21.23 905.5,-21.23 905.5,-21.23 905.5,-21.23 1069.52,-21.23 1260.85,-55.42 1355.21,-74.58"/>
<polygon fill="midnightblue" stroke="midnightblue" points="99.03,-84.23 91.07,-91.23 101.66,-90.72 99.03,-84.23"/>
</g>
<!-- Node4&#45;&gt;Node3 -->
<g id="edge4" class="edge">
<title>Node4&#45;&gt;Node3</title>
<path fill="none" stroke="midnightblue" d="M121.43,-113C188.26,-115.23 295.4,-115.23 388,-115.23 732,-115.23 732,-115.23 732,-115.23 828.13,-115.23 939.33,-115.23 1008.92,-113.01"/>
<polygon fill="midnightblue" stroke="midnightblue" points="121.17,-109.49 111.05,-112.62 120.92,-116.48 121.17,-109.49"/>
</g>
<!-- Node5&#45;&gt;Node6 -->
<g id="edge7" class="edge">
<title>Node5&#45;&gt;Node6</title>
<path fill="none" stroke="midnightblue" d="M850.46,-202.98C826.21,-208.36 797.85,-214.64 774.97,-219.71"/>
<polygon fill="midnightblue" stroke="midnightblue" points="851.22,-206.4 860.22,-200.82 849.7,-199.57 851.22,-206.4"/>
</g>
<!-- Node5&#45;&gt;Node7 -->
<g id="edge14" class="edge">
<title>Node5&#45;&gt;Node7</title>
<path fill="none" stroke="midnightblue" d="M827.34,-195.44C766.34,-198.82 681.73,-203.5 624.15,-206.68"/>
<polygon fill="midnightblue" stroke="midnightblue" points="827.88,-198.92 837.68,-194.87 827.5,-191.93 827.88,-198.92"/>
</g>
<!-- Node6&#45;&gt;Node7 -->
<g id="edge8" class="edge">
<title>Node6&#45;&gt;Node7</title>
<path fill="none" stroke="midnightblue" d="M651.81,-220.49C642.52,-219.45 633.11,-218.4 624.04,-217.39"/>
<polygon fill="midnightblue" stroke="midnightblue" points="651.51,-223.98 661.83,-221.61 652.28,-217.02 651.51,-223.98"/>
</g>
<!-- Node7&#45;&gt;Node8 -->
<g id="edge9" class="edge">
<title>Node7&#45;&gt;Node8</title>
<path fill="none" stroke="midnightblue" d="M483.4,-203.52C474.35,-203.45 465.16,-203.48 456.25,-203.62"/>
<polygon fill="midnightblue" stroke="midnightblue" points="483.48,-207.02 493.53,-203.65 483.57,-200.02 483.48,-207.02"/>
</g>
<!-- Node8&#45;&gt;Node7 -->
<g id="edge10" class="edge">
<title>Node8&#45;&gt;Node7</title>
<path fill="none" stroke="midnightblue" d="M466.41,-216.96C475.47,-217.02 484.65,-216.97 493.53,-216.82"/>
<polygon fill="midnightblue" stroke="midnightblue" points="466.29,-213.46 456.25,-216.85 466.21,-220.46 466.29,-213.46"/>
</g>
<!-- Node9 -->
<g id="node9" class="node">
<title>Node9</title>
<g id="a_node9"><a xlink:href="../../da/de3/a01398.html#adf95c17fe0de5cfff574ee89b78f0d37" target="_top" xlink:title=" ">
<polygon fill="none" stroke="black" points="147,-172.73 147,-191.73 286,-191.73 286,-172.73 147,-172.73"/>
<text text-anchor="middle" x="216.5" y="-179.73" font-family="Helvetica,sans-Serif" font-size="10.00">com.cliffc.aa.Parse.stmts</text>
</a>
</g>
</g>
<!-- Node8&#45;&gt;Node9 -->
<g id="edge11" class="edge">
<title>Node8&#45;&gt;Node9</title>
<path fill="none" stroke="midnightblue" d="M319.77,-199.03C305.08,-196.61 289.69,-194.09 275.44,-191.75"/>
<polygon fill="midnightblue" stroke="midnightblue" points="319.37,-202.51 329.8,-200.67 320.5,-195.6 319.37,-202.51"/>
</g>
<!-- Node8&#45;&gt;Node10 -->
<g id="edge12" class="edge">
<title>Node8&#45;&gt;Node10</title>
<path fill="none" stroke="midnightblue" d="M365.01,-225.6C329.35,-249.44 261.73,-294.66 232.06,-314.49"/>
<polygon fill="midnightblue" stroke="midnightblue" points="367.39,-228.22 373.76,-219.76 363.5,-222.4 367.39,-228.22"/>
</g>
<!-- Node10&#45;&gt;Node4 -->
<g id="edge13" class="edge">
<title>Node10&#45;&gt;Node4</title>
<path fill="none" stroke="midnightblue" d="M202.5,-306.41C171.92,-264.49 95.87,-160.21 67.45,-121.24"/>
<polygon fill="midnightblue" stroke="midnightblue" points="199.74,-308.57 208.46,-314.58 205.4,-304.44 199.74,-308.57"/>
</g>
<!-- Node11&#45;&gt;Node3 -->
<g id="edge16" class="edge">
<title>Node11&#45;&gt;Node3</title>
<path fill="none" stroke="midnightblue" d="M1182.44,-108.08C1170.86,-107.87 1158.77,-107.66 1147.09,-107.45"/>
<polygon fill="midnightblue" stroke="midnightblue" points="1182.39,-111.58 1192.46,-108.26 1182.52,-104.58 1182.39,-111.58"/>
</g>
<!-- Node13 -->
<g id="node13" class="node">
<title>Node13</title>
<g id="a_node13"><a xlink:href="../../da/de3/a01398.html#a7056d9016c6762ee436ae04e04476d3b" target="_top" xlink:title="Parse an optionally typed factor tfact = fact[:type].">
<polygon fill="none" stroke="black" points="492,-314.73 492,-333.73 626,-333.73 626,-314.73 492,-314.73"/>
<text text-anchor="middle" x="559" y="-321.73" font-family="Helvetica,sans-Serif" font-size="10.00">com.cliffc.aa.Parse.tfact</text>
</a>
</g>
</g>
<!-- Node12&#45;&gt;Node13 -->
<g id="edge19" class="edge">
<title>Node12&#45;&gt;Node13</title>
<path fill="none" stroke="midnightblue" d="M1172.75,-324.23C1037.89,-324.23 754.75,-324.23 626.11,-324.23"/>
<polygon fill="midnightblue" stroke="midnightblue" points="1172.99,-327.73 1182.99,-324.23 1172.99,-320.73 1172.99,-327.73"/>
</g>
<!-- Node13&#45;&gt;Node10 -->
<g id="edge20" class="edge">
<title>Node13&#45;&gt;Node10</title>
<path fill="none" stroke="midnightblue" d="M481.85,-324.23C422.34,-324.23 340.46,-324.23 283.66,-324.23"/>
<polygon fill="midnightblue" stroke="midnightblue" points="481.94,-327.73 491.94,-324.23 481.94,-320.73 481.94,-327.73"/>
</g>
<!-- Node14&#45;&gt;Node12 -->
<g id="edge22" class="edge">
<title>Node14&#45;&gt;Node12</title>
<path fill="none" stroke="midnightblue" d="M1338.81,-313.89C1330.26,-314.88 1321.6,-315.87 1313.2,-316.84"/>
<polygon fill="midnightblue" stroke="midnightblue" points="1339.25,-317.36 1348.79,-312.74 1338.45,-310.41 1339.25,-317.36"/>
</g>
<!-- Node15&#45;&gt;Node10 -->
<g id="edge25" class="edge">
<title>Node15&#45;&gt;Node10</title>
<path fill="none" stroke="midnightblue" d="M658.15,-426.3C574.89,-431.96 434.69,-433.55 322,-395.23 282.96,-381.96 244.9,-349.89 227.44,-333.79"/>
<polygon fill="midnightblue" stroke="midnightblue" points="658.54,-429.78 668.27,-425.58 658.04,-422.8 658.54,-429.78"/>
</g>
<!-- Node16&#45;&gt;Node9 -->
<g id="edge29" class="edge">
<title>Node16&#45;&gt;Node9</title>
<path fill="none" stroke="midnightblue" d="M825.61,-64.59C778.14,-68.44 716.36,-74.51 662,-83.23 508.61,-107.84 328.81,-153 253.52,-172.66"/>
<polygon fill="midnightblue" stroke="midnightblue" points="826.13,-68.06 835.82,-63.77 825.57,-61.08 826.13,-68.06"/>
</g>
</g>
</svg>
        <g id="navigator" transform="translate(0 0)" fill="#404254">
                <rect fill="#f2f5e9" fill-opacity="0.5" stroke="#606060" stroke-width=".5" x="0" y="0" width="60" height="60"/>
                <use id="zoomplus" xlink:href="#zoomPlus" x="17" y="9" onmousedown="handleZoom(evt,'in')"/>
                <use id="zoomminus" xlink:href="#zoomMin" x="42" y="9" onmousedown="handleZoom(evt,'out')"/>
                <use id="reset" xlink:href="#resetDef" x="30" y="36" onmousedown="handleReset()"/>
                <g id="arrowUp" xlink:href="#dirArrow" transform="translate(30 24)" onmousedown="handlePan(0,-1)">
                  <use xlink:href="#rim" fill="#404040">
                        <set attributeName="fill" to="#808080" begin="arrowUp.mouseover" end="arrowUp.mouseout"/>
                  </use>
                  <path fill="none" stroke="white" stroke-width="1.5" d="M0,-3.0v7 M-2.5,-0.5L0,-3.0L2.5,-0.5"/>
                </g>
                <g id="arrowRight" xlink:href="#dirArrow" transform="rotate(90) translate(36 -43)" onmousedown="handlePan(1,0)">
                  <use xlink:href="#rim" fill="#404040">
                        <set attributeName="fill" to="#808080" begin="arrowRight.mouseover" end="arrowRight.mouseout"/>
                  </use>
                  <path fill="none" stroke="white" stroke-width="1.5" d="M0,-3.0v7 M-2.5,-0.5L0,-3.0L2.5,-0.5"/>
                </g>
                <g id="arrowDown" xlink:href="#dirArrow" transform="rotate(180) translate(-30 -48)" onmousedown="handlePan(0,1)">
                  <use xlink:href="#rim" fill="#404040">
                        <set attributeName="fill" to="#808080" begin="arrowDown.mouseover" end="arrowDown.mouseout"/>
                  </use>
                  <path fill="none" stroke="white" stroke-width="1.5" d="M0,-3.0v7 M-2.5,-0.5L0,-3.0L2.5,-0.5"/>
                </g>
                <g id="arrowLeft" xlink:href="#dirArrow" transform="rotate(270) translate(-36 17)" onmousedown="handlePan(-1,0)">
                  <use xlink:href="#rim" fill="#404040">
                        <set attributeName="fill" to="#808080" begin="arrowLeft.mouseover" end="arrowLeft.mouseout"/>
                  </use>
                  <path fill="none" stroke="white" stroke-width="1.5" d="M0,-3.0v7 M-2.5,-0.5L0,-3.0L2.5,-0.5"/>
                </g>
        </g>
        <svg viewBox="0 0 15 15" width="100%" height="30px" preserveAspectRatio="xMaxYMin meet">
         <g id="arrow_out" transform="scale(0.3 0.3)">
          <a xlink:href="a01398_a3d2b9c687f747bb1f28fbf64f126c002_icgraph_org.svg" target="_base">
           <rect id="button" ry="5" rx="5" y="6" x="6" height="38" width="38"
                fill="#f2f5e9" fill-opacity="0.5" stroke="#606060" stroke-width="1.0"/>
           <path id="arrow"
             d="M 11.500037,31.436501 C 11.940474,20.09759 22.043105,11.32322 32.158766,21.979434 L 37.068811,17.246167 C 37.068811,17.246167 37.088388,32 37.088388,32 L 22.160133,31.978069 C 22.160133,31.978069 26.997745,27.140456 26.997745,27.140456 C 18.528582,18.264221 13.291696,25.230495 11.500037,31.436501 z"
             style="fill:#404040;"/>
          </a>
         </g>
        </svg>
</svg>
