<?xml version="1.0" encoding="UTF-8" standalone="no"?>
<!DOCTYPE svg PUBLIC "-//W3C//DTD SVG 1.1//EN"
 "http://www.w3.org/Graphics/SVG/1.1/DTD/svg11.dtd">
<!-- Generated by graphviz version 2.43.0 (0)
 -->
<!-- Title: com.cliffc.aa.Parse.peek_not Pages: 1 -->
<!--zoomable 192 -->
<svg id="main" version="1.1" xmlns="http://www.w3.org/2000/svg" xmlns:xlink="http://www.w3.org/1999/xlink" xml:space="preserve" onload="init(evt)">
<style type="text/css"><![CDATA[
.edge:hover path { stroke: red; }
.edge:hover polygon { stroke: red; fill: red; }
]]></style>
<script type="text/javascript"><![CDATA[
var edges = document.getElementsByTagName('g');
if (edges && edges.length) {
  for (var i=0;i<edges.length;i++) {
    if (edges[i].id.substr(0,4)=='edge') {
      edges[i].setAttribute('class','edge');
    }
  }
}
]]></script>
        <defs>
                <circle id="rim" cx="0" cy="0" r="7"/>
                <circle id="rim2" cx="0" cy="0" r="3.5"/>
                <g id="zoomPlus">
                        <use xlink:href="#rim" fill="#404040">
                                <set attributeName="fill" to="#808080" begin="zoomplus.mouseover" end="zoomplus.mouseout"/>
                        </use>
                        <path d="M-4,0h8M0,-4v8" fill="none" stroke="white" stroke-width="1.5" pointer-events="none"/>
                </g>
                <g id="zoomMin">
                        <use xlink:href="#rim" fill="#404040">
                                <set attributeName="fill" to="#808080" begin="zoomminus.mouseover" end="zoomminus.mouseout"/>
                        </use>
                        <path d="M-4,0h8" fill="none" stroke="white" stroke-width="1.5" pointer-events="none"/>
                </g>
                <g id="dirArrow">
                        <path fill="none" stroke="white" stroke-width="1.5" d="M0,-3.0v7 M-2.5,-0.5L0,-3.0L2.5,-0.5"/>
                </g>
               <g id="resetDef">
                       <use xlink:href="#rim2" fill="#404040">
                               <set attributeName="fill" to="#808080" begin="reset.mouseover" end="reset.mouseout"/>
                       </use>
               </g>
        </defs>

<script type="text/javascript">
var viewWidth = 736;
var viewHeight = 192;
var sectionId = 'dynsection-107';
</script>
<script xlink:href="../../svgpan.js"/>
<svg id="graph" class="graph">
<g id="viewport">
<title>com.cliffc.aa.Parse.peek_not</title>
<!-- Node1 -->
<g id="node1" class="node">
<title>Node1</title>
<g id="a_node1"><a xlink:title=" ">
<polygon fill="#bfbfbf" stroke="black" points="0,-88.5 0,-107.5 156,-107.5 156,-88.5 0,-88.5"/>
<text text-anchor="middle" x="78" y="-95.5" font-family="Helvetica,sans-Serif" font-size="10.00">com.cliffc.aa.Parse.peek_not</text>
</a>
</g>
</g>
<!-- Node2 -->
<g id="node2" class="node">
<title>Node2</title>
<g id="a_node2"><a xlink:href="../../da/de3/a01398.html#a32236404a866df9a908e850ce0477bd1" target="_top" xlink:title="Advance parse pointer to the first non&#45;whitespace character, and return that character,...">
<polygon fill="none" stroke="black" points="192,-88.5 192,-107.5 339,-107.5 339,-88.5 192,-88.5"/>
<text text-anchor="middle" x="265.5" y="-95.5" font-family="Helvetica,sans-Serif" font-size="10.00">com.cliffc.aa.Parse.skipWS</text>
</a>
</g>
</g>
<!-- Node1&#45;&gt;Node2 -->
<g id="edge1" class="edge">
<title>Node1&#45;&gt;Node2</title>
<path fill="none" stroke="midnightblue" d="M156.06,-98C164.48,-98 173.08,-98 181.57,-98"/>
<polygon fill="midnightblue" stroke="midnightblue" points="181.85,-101.5 191.85,-98 181.85,-94.5 181.85,-101.5"/>
</g>
<!-- Node3 -->
<g id="node3" class="node">
<title>Node3</title>
<g id="a_node3"><a xlink:href="../../da/de3/a01398.html#aba380e8c7c4a8837421637794e9c99c0" target="_top" xlink:title="Return true if c passes a test.">
<polygon fill="none" stroke="black" points="385.5,-164.5 385.5,-183.5 520.5,-183.5 520.5,-164.5 385.5,-164.5"/>
<text text-anchor="middle" x="453" y="-171.5" font-family="Helvetica,sans-Serif" font-size="10.00">com.cliffc.aa.Parse.isWS</text>
</a>
</g>
</g>
<!-- Node2&#45;&gt;Node3 -->
<g id="edge2" class="edge">
<title>Node2&#45;&gt;Node3</title>
<path fill="none" stroke="midnightblue" d="M281.76,-107.54C302.27,-120 340.19,-141.78 375,-155 381.49,-157.46 388.4,-159.69 395.33,-161.68"/>
<polygon fill="midnightblue" stroke="midnightblue" points="394.86,-165.19 405.43,-164.43 396.7,-158.43 394.86,-165.19"/>
</g>
<!-- Node4 -->
<g id="node4" class="node">
<title>Node4</title>
<g id="a_node4"><a xlink:href="../../d8/daf/a01550.html#a1dccdbfce4b3d101038883cb065c4e17" target="_top" xlink:title=" ">
<polygon fill="none" stroke="black" points="377.5,-126.5 377.5,-145.5 528.5,-145.5 528.5,-126.5 377.5,-126.5"/>
<text text-anchor="middle" x="453" y="-133.5" font-family="Helvetica,sans-Serif" font-size="10.00">com.cliffc.aa.util.AryInt.last</text>
</a>
</g>
</g>
<!-- Node2&#45;&gt;Node4 -->
<g id="edge3" class="edge">
<title>Node2&#45;&gt;Node4</title>
<path fill="none" stroke="midnightblue" d="M313.31,-107.59C338.34,-112.72 369.34,-119.07 395.68,-124.46"/>
<polygon fill="midnightblue" stroke="midnightblue" points="395.03,-127.9 405.53,-126.48 396.43,-121.04 395.03,-127.9"/>
</g>
<!-- Node6 -->
<g id="node6" class="node">
<title>Node6</title>
<g id="a_node6"><a xlink:href="../../d8/daf/a01550.html#a00adc6b061b25a9099de7d225e814fa2" target="_top" xlink:title="Add element in amortized constant time.">
<polygon fill="none" stroke="black" points="375,-88.5 375,-107.5 531,-107.5 531,-88.5 375,-88.5"/>
<text text-anchor="middle" x="453" y="-95.5" font-family="Helvetica,sans-Serif" font-size="10.00">com.cliffc.aa.util.AryInt.push</text>
</a>
</g>
</g>
<!-- Node2&#45;&gt;Node6 -->
<g id="edge5" class="edge">
<title>Node2&#45;&gt;Node6</title>
<path fill="none" stroke="midnightblue" d="M339.02,-98C347.49,-98 356.2,-98 364.84,-98"/>
<polygon fill="midnightblue" stroke="midnightblue" points="364.94,-101.5 374.94,-98 364.94,-94.5 364.94,-101.5"/>
</g>
<!-- Node7 -->
<g id="node7" class="node">
<title>Node7</title>
<g id="a_node7"><a xlink:href="../../da/de3/a01398.html#a4aa67e0b1293e9182a4dd44358eaac19" target="_top" xlink:title=" ">
<polygon fill="none" stroke="black" points="387.5,-39 387.5,-69 518.5,-69 518.5,-39 387.5,-39"/>
<text text-anchor="start" x="395.5" y="-57" font-family="Helvetica,sans-Serif" font-size="10.00">com.cliffc.aa.Parse.skip</text>
<text text-anchor="middle" x="453" y="-46" font-family="Helvetica,sans-Serif" font-size="10.00">Block</text>
</a>
</g>
</g>
<!-- Node2&#45;&gt;Node7 -->
<g id="edge6" class="edge">
<title>Node2&#45;&gt;Node7</title>
<path fill="none" stroke="midnightblue" d="M306.75,-88.45C327.73,-83.48 354.05,-77.23 378.5,-71.43"/>
<polygon fill="midnightblue" stroke="midnightblue" points="379.56,-74.78 388.49,-69.07 377.95,-67.97 379.56,-74.78"/>
</g>
<!-- Node8 -->
<g id="node8" class="node">
<title>Node8</title>
<g id="a_node8"><a xlink:href="../../da/de3/a01398.html#a52c1dc81eac791f6feaf3bec4042f1be" target="_top" xlink:title=" ">
<polygon fill="none" stroke="black" points="378,-0.5 378,-19.5 528,-19.5 528,-0.5 378,-0.5"/>
<text text-anchor="middle" x="453" y="-7.5" font-family="Helvetica,sans-Serif" font-size="10.00">com.cliffc.aa.Parse.skipEOL</text>
</a>
</g>
</g>
<!-- Node2&#45;&gt;Node8 -->
<g id="edge7" class="edge">
<title>Node2&#45;&gt;Node8</title>
<path fill="none" stroke="midnightblue" d="M278.82,-88.49C298.25,-73.93 337.64,-46.1 375,-30 381.63,-27.14 388.76,-24.62 395.91,-22.41"/>
<polygon fill="midnightblue" stroke="midnightblue" points="397,-25.74 405.63,-19.6 395.05,-19.02 397,-25.74"/>
</g>
<!-- Node5 -->
<g id="node5" class="node">
<title>Node5</title>
<g id="a_node5"><a xlink:href="../../d8/daf/a01550.html#ad9642b82e1824a59fa648bdde9b77a22" target="_top" xlink:title=" ">
<polygon fill="none" stroke="black" points="567,-121 567,-151 728,-151 728,-121 567,-121"/>
<text text-anchor="start" x="575" y="-139" font-family="Helvetica,sans-Serif" font-size="10.00">com.cliffc.aa.util.AryInt.range</text>
<text text-anchor="middle" x="647.5" y="-128" font-family="Helvetica,sans-Serif" font-size="10.00">_check</text>
</a>
</g>
</g>
<!-- Node4&#45;&gt;Node5 -->
<g id="edge4" class="edge">
<title>Node4&#45;&gt;Node5</title>
<path fill="none" stroke="midnightblue" d="M528.7,-136C537.86,-136 547.29,-136 556.64,-136"/>
<polygon fill="midnightblue" stroke="midnightblue" points="556.74,-139.5 566.74,-136 556.74,-132.5 556.74,-139.5"/>
</g>
</g>
</svg>
        <g id="navigator" transform="translate(0 0)" fill="#404254">
                <rect fill="#f2f5e9" fill-opacity="0.5" stroke="#606060" stroke-width=".5" x="0" y="0" width="60" height="60"/>
                <use id="zoomplus" xlink:href="#zoomPlus" x="17" y="9" onmousedown="handleZoom(evt,'in')"/>
                <use id="zoomminus" xlink:href="#zoomMin" x="42" y="9" onmousedown="handleZoom(evt,'out')"/>
                <use id="reset" xlink:href="#resetDef" x="30" y="36" onmousedown="handleReset()"/>
                <g id="arrowUp" xlink:href="#dirArrow" transform="translate(30 24)" onmousedown="handlePan(0,-1)">
                  <use xlink:href="#rim" fill="#404040">
                        <set attributeName="fill" to="#808080" begin="arrowUp.mouseover" end="arrowUp.mouseout"/>
                  </use>
                  <path fill="none" stroke="white" stroke-width="1.5" d="M0,-3.0v7 M-2.5,-0.5L0,-3.0L2.5,-0.5"/>
                </g>
                <g id="arrowRight" xlink:href="#dirArrow" transform="rotate(90) translate(36 -43)" onmousedown="handlePan(1,0)">
                  <use xlink:href="#rim" fill="#404040">
                        <set attributeName="fill" to="#808080" begin="arrowRight.mouseover" end="arrowRight.mouseout"/>
                  </use>
                  <path fill="none" stroke="white" stroke-width="1.5" d="M0,-3.0v7 M-2.5,-0.5L0,-3.0L2.5,-0.5"/>
                </g>
                <g id="arrowDown" xlink:href="#dirArrow" transform="rotate(180) translate(-30 -48)" onmousedown="handlePan(0,1)">
                  <use xlink:href="#rim" fill="#404040">
                        <set attributeName="fill" to="#808080" begin="arrowDown.mouseover" end="arrowDown.mouseout"/>
                  </use>
                  <path fill="none" stroke="white" stroke-width="1.5" d="M0,-3.0v7 M-2.5,-0.5L0,-3.0L2.5,-0.5"/>
                </g>
                <g id="arrowLeft" xlink:href="#dirArrow" transform="rotate(270) translate(-36 17)" onmousedown="handlePan(-1,0)">
                  <use xlink:href="#rim" fill="#404040">
                        <set attributeName="fill" to="#808080" begin="arrowLeft.mouseover" end="arrowLeft.mouseout"/>
                  </use>
                  <path fill="none" stroke="white" stroke-width="1.5" d="M0,-3.0v7 M-2.5,-0.5L0,-3.0L2.5,-0.5"/>
                </g>
        </g>
        <svg viewBox="0 0 15 15" width="100%" height="30px" preserveAspectRatio="xMaxYMin meet">
         <g id="arrow_out" transform="scale(0.3 0.3)">
          <a xlink:href="a01398_a1d066bb2349df851b75b6bd7f3e3f20d_cgraph_org.svg" target="_base">
           <rect id="button" ry="5" rx="5" y="6" x="6" height="38" width="38"
                fill="#f2f5e9" fill-opacity="0.5" stroke="#606060" stroke-width="1.0"/>
           <path id="arrow"
             d="M 11.500037,31.436501 C 11.940474,20.09759 22.043105,11.32322 32.158766,21.979434 L 37.068811,17.246167 C 37.068811,17.246167 37.088388,32 37.088388,32 L 22.160133,31.978069 C 22.160133,31.978069 26.997745,27.140456 26.997745,27.140456 C 18.528582,18.264221 13.291696,25.230495 11.500037,31.436501 z"
             style="fill:#404040;"/>
          </a>
         </g>
        </svg>
</svg>
