<?xml version="1.0" encoding="UTF-8" standalone="no"?>
<!DOCTYPE svg PUBLIC "-//W3C//DTD SVG 1.1//EN"
 "http://www.w3.org/Graphics/SVG/1.1/DTD/svg11.dtd">
<!-- Generated by graphviz version 2.43.0 (0)
 -->
<!-- Title: com.cliffc.aa.Parse.number Pages: 1 -->
<svg width="1208pt" height="179pt"
 viewBox="0.00 0.00 1208.00 179.09" xmlns="http://www.w3.org/2000/svg" xmlns:xlink="http://www.w3.org/1999/xlink">
<g id="graph0" class="graph" transform="scale(1 1) rotate(0) translate(4 175.09)">
<title>com.cliffc.aa.Parse.number</title>
<!-- Node1 -->
<g id="node1" class="node">
<title>Node1</title>
<g id="a_node1"><a xlink:title=" ">
<polygon fill="#bfbfbf" stroke="black" points="0,-57.59 0,-76.59 149,-76.59 149,-57.59 0,-57.59"/>
<text text-anchor="middle" x="74.5" y="-64.59" font-family="Helvetica,sans-Serif" font-size="10.00">com.cliffc.aa.Parse.number</text>
</a>
</g>
</g>
<!-- Node2 -->
<g id="node2" class="node">
<title>Node2</title>
<g id="a_node2"><a xlink:href="../../df/d2f/a01474.html#a2a99464501a319a8a58844397188ae6c" target="_top" xlink:title=" ">
<polygon fill="none" stroke="black" points="185,-95.59 185,-114.59 347,-114.59 347,-95.59 185,-95.59"/>
<text text-anchor="middle" x="266" y="-102.59" font-family="Helvetica,sans-Serif" font-size="10.00">com.cliffc.aa.type.TypeFlt.con</text>
</a>
</g>
</g>
<!-- Node1&#45;&gt;Node2 -->
<g id="edge1" class="edge">
<title>Node1&#45;&gt;Node2</title>
<path fill="none" stroke="midnightblue" d="M123.32,-76.68C148.89,-81.81 180.56,-88.16 207.47,-93.55"/>
<polygon fill="midnightblue" stroke="midnightblue" points="207.03,-97.03 217.53,-95.57 208.41,-90.17 207.03,-97.03"/>
</g>
<!-- Node5 -->
<g id="node5" class="node">
<title>Node5</title>
<g id="a_node5"><a xlink:href="../../d0/d34/a01486.html#a8589b1d0eb95905bc8373a2a6d5d5038" target="_top" xlink:title=" ">
<polygon fill="none" stroke="black" points="591,-38.59 591,-57.59 753,-57.59 753,-38.59 591,-38.59"/>
<text text-anchor="middle" x="672" y="-45.59" font-family="Helvetica,sans-Serif" font-size="10.00">com.cliffc.aa.type.TypeInt.con</text>
</a>
</g>
</g>
<!-- Node1&#45;&gt;Node5 -->
<g id="edge19" class="edge">
<title>Node1&#45;&gt;Node5</title>
<path fill="none" stroke="midnightblue" d="M149.12,-64.74C258.27,-61.26 462.82,-54.73 580.82,-50.97"/>
<polygon fill="midnightblue" stroke="midnightblue" points="581.03,-54.46 590.91,-50.64 580.8,-47.47 581.03,-54.46"/>
</g>
<!-- Node3 -->
<g id="node3" class="node">
<title>Node3</title>
<g id="a_node3"><a xlink:href="../../df/d2f/a01474.html#a53786c464f16b5e1d8c40967c80af016" target="_top" xlink:title=" ">
<polygon fill="none" stroke="black" points="389,-114.59 389,-133.59 549,-133.59 549,-114.59 389,-114.59"/>
<text text-anchor="middle" x="469" y="-121.59" font-family="Helvetica,sans-Serif" font-size="10.00">com.cliffc.aa.type.TypeFlt.log</text>
</a>
</g>
</g>
<!-- Node2&#45;&gt;Node3 -->
<g id="edge2" class="edge">
<title>Node2&#45;&gt;Node3</title>
<path fill="none" stroke="midnightblue" d="M347.02,-106.03C370.35,-107.94 395.22,-110.51 416.31,-113.22"/>
<polygon fill="midnightblue" stroke="midnightblue" points="415.95,-116.7 426.33,-114.56 416.88,-109.76 415.95,-116.7"/>
</g>
<!-- Node4 -->
<g id="node4" class="node">
<title>Node4</title>
<g id="a_node4"><a xlink:href="../../df/d2f/a01474.html#ab3a92d0a10dfcea8bf8aaa6ca30967ea" target="_top" xlink:title=" ">
<polygon fill="none" stroke="black" points="383,-76.59 383,-95.59 555,-95.59 555,-76.59 383,-76.59"/>
<text text-anchor="middle" x="469" y="-83.59" font-family="Helvetica,sans-Serif" font-size="10.00">com.cliffc.aa.type.TypeFlt.make</text>
</a>
</g>
</g>
<!-- Node2&#45;&gt;Node4 -->
<g id="edge4" class="edge">
<title>Node2&#45;&gt;Node4</title>
<path fill="none" stroke="midnightblue" d="M308.65,-95.56C327.38,-92.95 350.32,-90.4 372.9,-88.34"/>
<polygon fill="midnightblue" stroke="midnightblue" points="373.23,-91.82 382.88,-87.46 372.61,-84.85 373.23,-91.82"/>
</g>
<!-- Node3&#45;&gt;Node2 -->
<g id="edge3" class="edge">
<title>Node3&#45;&gt;Node2</title>
<path fill="none" stroke="midnightblue" d="M388.62,-123.2C365.13,-121.28 340.02,-118.7 318.75,-115.97"/>
<polygon fill="midnightblue" stroke="midnightblue" points="319.02,-112.47 308.65,-114.62 318.1,-119.41 319.02,-112.47"/>
</g>
<!-- Node4&#45;&gt;Node2 -->
<g id="edge5" class="edge">
<title>Node4&#45;&gt;Node2</title>
<path fill="none" stroke="midnightblue" d="M426.33,-95.62C406.27,-98.42 381.38,-101.14 357.28,-103.27"/>
<polygon fill="midnightblue" stroke="midnightblue" points="356.68,-99.81 347.02,-104.15 357.28,-106.79 356.68,-99.81"/>
</g>
<!-- Node4&#45;&gt;Node5 -->
<g id="edge6" class="edge">
<title>Node4&#45;&gt;Node5</title>
<path fill="none" stroke="midnightblue" d="M520.46,-76.55C547.82,-71.38 581.82,-64.95 610.58,-59.51"/>
<polygon fill="midnightblue" stroke="midnightblue" points="611.34,-62.93 620.52,-57.63 610.04,-56.05 611.34,-62.93"/>
</g>
<!-- Node8 -->
<g id="node8" class="node">
<title>Node8</title>
<g id="a_node8"><a xlink:href="../../d0/de2/a01442.html#a8fe8d556e45e6b654f3ac87f118ac8de" target="_top" xlink:title=" ">
<polygon fill="none" stroke="black" points="997,-75.59 997,-94.59 1200,-94.59 1200,-75.59 997,-75.59"/>
<text text-anchor="middle" x="1098.5" y="-82.59" font-family="Helvetica,sans-Serif" font-size="10.00">com.cliffc.aa.type.Type.hashcons_free</text>
</a>
</g>
</g>
<!-- Node4&#45;&gt;Node8 -->
<g id="edge15" class="edge">
<title>Node4&#45;&gt;Node8</title>
<path fill="none" stroke="midnightblue" d="M555.15,-86.28C653.07,-86.45 818.65,-86.61 961,-86.09 969.35,-86.06 977.98,-86.02 986.66,-85.97"/>
<polygon fill="midnightblue" stroke="midnightblue" points="986.89,-89.47 996.87,-85.91 986.84,-82.47 986.89,-89.47"/>
</g>
<!-- Node10 -->
<g id="node10" class="node">
<title>Node10</title>
<g id="a_node10"><a xlink:href="../../df/d2f/a01474.html#ad37e7e8ab93b571fd1b22b057b769358" target="_top" xlink:title=" ">
<polygon fill="none" stroke="black" points="591.5,-133.59 591.5,-152.59 752.5,-152.59 752.5,-133.59 591.5,-133.59"/>
<text text-anchor="middle" x="672" y="-140.59" font-family="Helvetica,sans-Serif" font-size="10.00">com.cliffc.aa.type.TypeFlt.init</text>
</a>
</g>
</g>
<!-- Node4&#45;&gt;Node10 -->
<g id="edge16" class="edge">
<title>Node4&#45;&gt;Node10</title>
<path fill="none" stroke="midnightblue" d="M518.88,-95.69C530.79,-98.39 543.43,-101.57 555,-105.09 571.42,-110.09 574.77,-113.51 591,-119.09 602.68,-123.1 615.44,-127.1 627.27,-130.65"/>
<polygon fill="midnightblue" stroke="midnightblue" points="626.36,-134.04 636.94,-133.52 628.35,-127.32 626.36,-134.04"/>
</g>
<!-- Node6 -->
<g id="node6" class="node">
<title>Node6</title>
<g id="a_node6"><a xlink:href="../../d0/d34/a01486.html#a32057191cb36ba421014799319c36f44" target="_top" xlink:title=" ">
<polygon fill="none" stroke="black" points="795,-57.59 795,-76.59 955,-76.59 955,-57.59 795,-57.59"/>
<text text-anchor="middle" x="875" y="-64.59" font-family="Helvetica,sans-Serif" font-size="10.00">com.cliffc.aa.type.TypeInt.log</text>
</a>
</g>
</g>
<!-- Node5&#45;&gt;Node6 -->
<g id="edge7" class="edge">
<title>Node5&#45;&gt;Node6</title>
<path fill="none" stroke="midnightblue" d="M753.02,-49.03C776.35,-50.94 801.22,-53.51 822.31,-56.22"/>
<polygon fill="midnightblue" stroke="midnightblue" points="821.95,-59.7 832.33,-57.56 822.88,-52.76 821.95,-59.7"/>
</g>
<!-- Node7 -->
<g id="node7" class="node">
<title>Node7</title>
<g id="a_node7"><a xlink:href="../../d0/d34/a01486.html#a06777eb51a5bf16ede6505e80c1d523d" target="_top" xlink:title=" ">
<polygon fill="none" stroke="black" points="789,-19.59 789,-38.59 961,-38.59 961,-19.59 789,-19.59"/>
<text text-anchor="middle" x="875" y="-26.59" font-family="Helvetica,sans-Serif" font-size="10.00">com.cliffc.aa.type.TypeInt.make</text>
</a>
</g>
</g>
<!-- Node5&#45;&gt;Node7 -->
<g id="edge9" class="edge">
<title>Node5&#45;&gt;Node7</title>
<path fill="none" stroke="midnightblue" d="M714.65,-38.56C733.38,-35.95 756.32,-33.4 778.9,-31.34"/>
<polygon fill="midnightblue" stroke="midnightblue" points="779.23,-34.82 788.88,-30.46 778.61,-27.85 779.23,-34.82"/>
</g>
<!-- Node6&#45;&gt;Node5 -->
<g id="edge8" class="edge">
<title>Node6&#45;&gt;Node5</title>
<path fill="none" stroke="midnightblue" d="M794.62,-66.2C771.13,-64.28 746.02,-61.7 724.75,-58.97"/>
<polygon fill="midnightblue" stroke="midnightblue" points="725.02,-55.47 714.65,-57.62 724.1,-62.41 725.02,-55.47"/>
</g>
<!-- Node7&#45;&gt;Node5 -->
<g id="edge10" class="edge">
<title>Node7&#45;&gt;Node5</title>
<path fill="none" stroke="midnightblue" d="M832.33,-38.62C812.27,-41.42 787.38,-44.14 763.28,-46.27"/>
<polygon fill="midnightblue" stroke="midnightblue" points="762.68,-42.81 753.02,-47.15 763.28,-49.79 762.68,-42.81"/>
</g>
<!-- Node7&#45;&gt;Node8 -->
<g id="edge11" class="edge">
<title>Node7&#45;&gt;Node8</title>
<path fill="none" stroke="midnightblue" d="M920.64,-38.67C933.68,-41.58 947.94,-44.86 961,-48.09 992.28,-55.82 1027.36,-65.35 1054.13,-72.8"/>
<polygon fill="midnightblue" stroke="midnightblue" points="1053.38,-76.22 1063.95,-75.55 1055.26,-69.48 1053.38,-76.22"/>
</g>
<!-- Node9 -->
<g id="node9" class="node">
<title>Node9</title>
<g id="a_node9"><a xlink:href="../../d0/d34/a01486.html#a8c1e98b9a2e73b098f1750cd7d17f43c" target="_top" xlink:title=" ">
<polygon fill="none" stroke="black" points="1018,-0.59 1018,-19.59 1179,-19.59 1179,-0.59 1018,-0.59"/>
<text text-anchor="middle" x="1098.5" y="-7.59" font-family="Helvetica,sans-Serif" font-size="10.00">com.cliffc.aa.type.TypeInt.init</text>
</a>
</g>
</g>
<!-- Node7&#45;&gt;Node9 -->
<g id="edge12" class="edge">
<title>Node7&#45;&gt;Node9</title>
<path fill="none" stroke="midnightblue" d="M961,-21.8C976.32,-20.48 992.32,-19.11 1007.76,-17.79"/>
<polygon fill="midnightblue" stroke="midnightblue" points="1008.15,-21.27 1017.82,-16.92 1007.55,-14.29 1008.15,-21.27"/>
</g>
<!-- Node9&#45;&gt;Node5 -->
<g id="edge13" class="edge">
<title>Node9&#45;&gt;Node5</title>
<path fill="none" stroke="midnightblue" d="M1017.7,-3.22C955.09,0.51 865.95,2.19 789,-10.09 759.65,-14.77 727.64,-25.73 704.7,-34.68"/>
<polygon fill="midnightblue" stroke="midnightblue" points="703.14,-31.54 695.15,-38.5 705.73,-38.04 703.14,-31.54"/>
</g>
<!-- Node9&#45;&gt;Node9 -->
<g id="edge14" class="edge">
<title>Node9&#45;&gt;Node9</title>
<path fill="none" stroke="midnightblue" d="M1064.56,-19.7C1047.51,-28.55 1058.83,-38.09 1098.5,-38.09 1127.64,-38.09 1141.48,-32.95 1140.02,-26.71"/>
<polygon fill="midnightblue" stroke="midnightblue" points="1142.16,-23.92 1132.44,-19.7 1137.41,-29.06 1142.16,-23.92"/>
</g>
<!-- Node10&#45;&gt;Node2 -->
<g id="edge17" class="edge">
<title>Node10&#45;&gt;Node2</title>
<path fill="none" stroke="midnightblue" d="M591.32,-149.8C533.2,-153.07 452.74,-154.22 383,-143.09 353.65,-138.4 321.64,-127.45 298.7,-118.5"/>
<polygon fill="midnightblue" stroke="midnightblue" points="299.73,-115.14 289.15,-114.68 297.14,-121.64 299.73,-115.14"/>
</g>
<!-- Node10&#45;&gt;Node10 -->
<g id="edge18" class="edge">
<title>Node10&#45;&gt;Node10</title>
<path fill="none" stroke="midnightblue" d="M640.87,-152.85C625.72,-161.65 636.1,-171.09 672,-171.09 697.24,-171.09 709.87,-166.42 709.87,-160.59"/>
<polygon fill="midnightblue" stroke="midnightblue" points="712.34,-158.09 703.13,-152.85 707.06,-162.69 712.34,-158.09"/>
</g>
</g>
</svg>
