<?xml version="1.0" encoding="UTF-8" standalone="no"?>
<!DOCTYPE svg PUBLIC "-//W3C//DTD SVG 1.1//EN"
 "http://www.w3.org/Graphics/SVG/1.1/DTD/svg11.dtd">
<!-- Generated by graphviz version 2.43.0 (0)
 -->
<!-- Title: com.cliffc.aa.Parse.mem Pages: 1 -->
<svg width="503pt" height="78pt"
 viewBox="0.00 0.00 503.00 77.50" xmlns="http://www.w3.org/2000/svg" xmlns:xlink="http://www.w3.org/1999/xlink">
<g id="graph0" class="graph" transform="scale(1 1) rotate(0) translate(4 73.5)">
<title>com.cliffc.aa.Parse.mem</title>
<!-- Node1 -->
<g id="node1" class="node">
<title>Node1</title>
<g id="a_node1"><a xlink:title=" ">
<polygon fill="#bfbfbf" stroke="black" points="0,-22.5 0,-41.5 137,-41.5 137,-22.5 0,-22.5"/>
<text text-anchor="middle" x="68.5" y="-29.5" font-family="Helvetica,sans-Serif" font-size="10.00">com.cliffc.aa.Parse.mem</text>
</a>
</g>
</g>
<!-- Node2 -->
<g id="node2" class="node">
<title>Node2</title>
<g id="a_node2"><a xlink:href="../../de/d5c/a01358.html#a199043a64946784dc275e91423aa4076" target="_top" xlink:title=" ">
<polygon fill="none" stroke="black" points="174,-39 174,-69 312,-69 312,-39 174,-39"/>
<text text-anchor="start" x="182" y="-57" font-family="Helvetica,sans-Serif" font-size="10.00">com.cliffc.aa.node.Scope</text>
<text text-anchor="middle" x="243" y="-46" font-family="Helvetica,sans-Serif" font-size="10.00">Node.mem</text>
</a>
</g>
</g>
<!-- Node1&#45;&gt;Node2 -->
<g id="edge1" class="edge">
<title>Node1&#45;&gt;Node2</title>
<path fill="none" stroke="midnightblue" d="M137.18,-40.63C145.96,-41.75 155.01,-42.91 163.94,-44.04"/>
<polygon fill="midnightblue" stroke="midnightblue" points="163.58,-47.53 173.95,-45.32 164.47,-40.58 163.58,-47.53"/>
</g>
<!-- Node4 -->
<g id="node4" class="node">
<title>Node4</title>
<g id="a_node4"><a xlink:href="../../da/de3/a01398.html#a01bf1ec79a3e6d255adfc1c693d960df" target="_top" xlink:title=" ">
<polygon fill="none" stroke="black" points="173,-0.5 173,-19.5 313,-19.5 313,-0.5 173,-0.5"/>
<text text-anchor="middle" x="243" y="-7.5" font-family="Helvetica,sans-Serif" font-size="10.00">com.cliffc.aa.Parse.scope</text>
</a>
</g>
</g>
<!-- Node1&#45;&gt;Node4 -->
<g id="edge3" class="edge">
<title>Node1&#45;&gt;Node4</title>
<path fill="none" stroke="midnightblue" d="M137.18,-23.37C145.59,-22.3 154.25,-21.19 162.82,-20.1"/>
<polygon fill="midnightblue" stroke="midnightblue" points="163.34,-23.56 172.81,-18.82 162.45,-16.62 163.34,-23.56"/>
</g>
<!-- Node3 -->
<g id="node3" class="node">
<title>Node3</title>
<g id="a_node3"><a xlink:href="../../df/db5/a01158.html#a9a46cea187559f94192aa6e09b91c60c" target="_top" xlink:title=" ">
<polygon fill="none" stroke="black" points="349,-44.5 349,-63.5 495,-63.5 495,-44.5 349,-44.5"/>
<text text-anchor="middle" x="422" y="-51.5" font-family="Helvetica,sans-Serif" font-size="10.00">com.cliffc.aa.node.Node.in</text>
</a>
</g>
</g>
<!-- Node2&#45;&gt;Node3 -->
<g id="edge2" class="edge">
<title>Node2&#45;&gt;Node3</title>
<path fill="none" stroke="midnightblue" d="M312.18,-54C320.79,-54 329.67,-54 338.47,-54"/>
<polygon fill="midnightblue" stroke="midnightblue" points="338.75,-57.5 348.75,-54 338.75,-50.5 338.75,-57.5"/>
</g>
</g>
</svg>
