<?xml version="1.0" encoding="UTF-8" standalone="no"?>
<!DOCTYPE svg PUBLIC "-//W3C//DTD SVG 1.1//EN"
 "http://www.w3.org/Graphics/SVG/1.1/DTD/svg11.dtd">
<!-- Generated by graphviz version 2.43.0 (0)
 -->
<!-- Title: com.cliffc.aa.HM.HM.Struct.p2 Pages: 1 -->
<!--zoomable 464 -->
<svg id="main" version="1.1" xmlns="http://www.w3.org/2000/svg" xmlns:xlink="http://www.w3.org/1999/xlink" xml:space="preserve" onload="init(evt)">
<style type="text/css"><![CDATA[
.edge:hover path { stroke: red; }
.edge:hover polygon { stroke: red; fill: red; }
]]></style>
<script type="text/javascript"><![CDATA[
var edges = document.getElementsByTagName('g');
if (edges && edges.length) {
  for (var i=0;i<edges.length;i++) {
    if (edges[i].id.substr(0,4)=='edge') {
      edges[i].setAttribute('class','edge');
    }
  }
}
]]></script>
        <defs>
                <circle id="rim" cx="0" cy="0" r="7"/>
                <circle id="rim2" cx="0" cy="0" r="3.5"/>
                <g id="zoomPlus">
                        <use xlink:href="#rim" fill="#404040">
                                <set attributeName="fill" to="#808080" begin="zoomplus.mouseover" end="zoomplus.mouseout"/>
                        </use>
                        <path d="M-4,0h8M0,-4v8" fill="none" stroke="white" stroke-width="1.5" pointer-events="none"/>
                </g>
                <g id="zoomMin">
                        <use xlink:href="#rim" fill="#404040">
                                <set attributeName="fill" to="#808080" begin="zoomminus.mouseover" end="zoomminus.mouseout"/>
                        </use>
                        <path d="M-4,0h8" fill="none" stroke="white" stroke-width="1.5" pointer-events="none"/>
                </g>
                <g id="dirArrow">
                        <path fill="none" stroke="white" stroke-width="1.5" d="M0,-3.0v7 M-2.5,-0.5L0,-3.0L2.5,-0.5"/>
                </g>
               <g id="resetDef">
                       <use xlink:href="#rim2" fill="#404040">
                               <set attributeName="fill" to="#808080" begin="reset.mouseover" end="reset.mouseout"/>
                       </use>
               </g>
        </defs>

<script type="text/javascript">
var viewWidth = 1772;
var viewHeight = 464;
var sectionId = 'dynsection-17';
</script>
<script xlink:href="../../svgpan.js"/>
<svg id="graph" class="graph">
<g id="viewport">
<title>com.cliffc.aa.HM.HM.Struct.p2</title>
<!-- Node1 -->
<g id="node1" class="node">
<title>Node1</title>
<g id="a_node1"><a xlink:title=" ">
<polygon fill="#bfbfbf" stroke="black" points="0,-379.5 0,-398.5 164,-398.5 164,-379.5 0,-379.5"/>
<text text-anchor="middle" x="82" y="-386.5" font-family="Helvetica,sans-Serif" font-size="10.00">com.cliffc.aa.HM.HM.Struct.p2</text>
</a>
</g>
</g>
<!-- Node2 -->
<g id="node2" class="node">
<title>Node2</title>
<g id="a_node2"><a xlink:href="../../d4/d99/a01634.html#af4644d310d3f2b8504bb25573f9d528e" target="_top" xlink:title=" ">
<polygon fill="none" stroke="black" points="436.5,-360.5 436.5,-379.5 555.5,-379.5 555.5,-360.5 436.5,-360.5"/>
<text text-anchor="middle" x="496" y="-367.5" font-family="Helvetica,sans-Serif" font-size="10.00">com.cliffc.aa.util.SB.i</text>
</a>
</g>
</g>
<!-- Node1&#45;&gt;Node2 -->
<g id="edge1" class="edge">
<title>Node1&#45;&gt;Node2</title>
<path fill="none" stroke="midnightblue" d="M164.4,-385.25C240.84,-381.72 353.95,-376.5 426.06,-373.18"/>
<polygon fill="midnightblue" stroke="midnightblue" points="426.56,-376.66 436.39,-372.7 426.24,-369.67 426.56,-376.66"/>
</g>
<!-- Node4 -->
<g id="node4" class="node">
<title>Node4</title>
<g id="a_node4"><a xlink:href="../../d4/d99/a01634.html#ac801338e82849a7fe2ae7a0feb80bb55" target="_top" xlink:title=" ">
<polygon fill="none" stroke="black" points="840.5,-398.5 840.5,-417.5 962.5,-417.5 962.5,-398.5 840.5,-398.5"/>
<text text-anchor="middle" x="901.5" y="-405.5" font-family="Helvetica,sans-Serif" font-size="10.00">com.cliffc.aa.util.SB.p</text>
</a>
</g>
</g>
<!-- Node1&#45;&gt;Node4 -->
<g id="edge8" class="edge">
<title>Node1&#45;&gt;Node4</title>
<path fill="none" stroke="midnightblue" d="M164.19,-391.91C176.2,-392.3 188.42,-392.68 200,-393 430.33,-399.4 703.33,-404.54 829.75,-406.78"/>
<polygon fill="midnightblue" stroke="midnightblue" points="830,-410.29 840.06,-406.97 830.12,-403.29 830,-410.29"/>
</g>
<!-- Node6 -->
<g id="node6" class="node">
<title>Node6</title>
<g id="a_node6"><a xlink:href="../../d4/d99/a01634.html#af706c705e889040f6fc45486f508987e" target="_top" xlink:title=" ">
<polygon fill="none" stroke="black" points="433.5,-436.5 433.5,-455.5 558.5,-455.5 558.5,-436.5 433.5,-436.5"/>
<text text-anchor="middle" x="496" y="-443.5" font-family="Helvetica,sans-Serif" font-size="10.00">com.cliffc.aa.util.SB.nl</text>
</a>
</g>
</g>
<!-- Node1&#45;&gt;Node6 -->
<g id="edge6" class="edge">
<title>Node1&#45;&gt;Node6</title>
<path fill="none" stroke="midnightblue" d="M111.01,-398.56C134.49,-406.17 169.05,-416.43 200,-422 275.41,-435.57 363.07,-441.47 423.11,-444.04"/>
<polygon fill="midnightblue" stroke="midnightblue" points="423.12,-447.54 433.25,-444.45 423.4,-440.55 423.12,-447.54"/>
</g>
<!-- Node7 -->
<g id="node7" class="node">
<title>Node7</title>
<g id="a_node7"><a xlink:href="../../de/df7/a00418.html#a3c377cf6c0355fc4313db2674c28aff3" target="_top" xlink:title=" ">
<polygon fill="none" stroke="black" points="200,-227.5 200,-246.5 370,-246.5 370,-227.5 200,-227.5"/>
<text text-anchor="middle" x="285" y="-234.5" font-family="Helvetica,sans-Serif" font-size="10.00">com.cliffc.aa.HM.HM.Syntax.p0</text>
</a>
</g>
</g>
<!-- Node1&#45;&gt;Node7 -->
<g id="edge9" class="edge">
<title>Node1&#45;&gt;Node7</title>
<path fill="none" stroke="midnightblue" d="M95.57,-379.49C129.27,-354.01 221.87,-283.98 263.39,-252.59"/>
<polygon fill="midnightblue" stroke="midnightblue" points="265.57,-255.33 271.43,-246.5 261.34,-249.74 265.57,-255.33"/>
</g>
<!-- Node3 -->
<g id="node3" class="node">
<title>Node3</title>
<g id="a_node3"><a xlink:href="../../d4/d99/a01634.html#a135574f0788f02889e20439dffa3d6a8" target="_top" xlink:title=" ">
<polygon fill="none" stroke="black" points="637,-132.5 637,-151.5 756,-151.5 756,-132.5 637,-132.5"/>
<text text-anchor="middle" x="696.5" y="-139.5" font-family="Helvetica,sans-Serif" font-size="10.00">com.cliffc.aa.util.SB.i</text>
</a>
</g>
</g>
<!-- Node2&#45;&gt;Node3 -->
<g id="edge2" class="edge">
<title>Node2&#45;&gt;Node3</title>
<path fill="none" stroke="midnightblue" d="M520.74,-360.39C540.85,-351.09 569.04,-335.14 586,-313 618.3,-270.82 591.63,-242.6 622,-199 634.12,-181.61 653.13,-167.07 668.78,-157.03"/>
<polygon fill="midnightblue" stroke="midnightblue" points="670.84,-159.87 677.53,-151.65 667.18,-153.9 670.84,-159.87"/>
</g>
<!-- Node2&#45;&gt;Node4 -->
<g id="edge4" class="edge">
<title>Node2&#45;&gt;Node4</title>
<path fill="none" stroke="midnightblue" d="M555.56,-374.78C611.06,-379.4 696.74,-386.73 771,-394 790.17,-395.88 810.93,-398.05 830.08,-400.12"/>
<polygon fill="midnightblue" stroke="midnightblue" points="829.92,-403.63 840.24,-401.23 830.68,-396.67 829.92,-403.63"/>
</g>
<!-- Node3&#45;&gt;Node3 -->
<g id="edge3" class="edge">
<title>Node3&#45;&gt;Node3</title>
<path fill="none" stroke="midnightblue" d="M665.67,-151.76C650.68,-160.57 660.95,-170 696.5,-170 721.49,-170 733.99,-165.34 734,-159.5"/>
<polygon fill="midnightblue" stroke="midnightblue" points="736.5,-157.05 727.33,-151.76 731.2,-161.62 736.5,-157.05"/>
</g>
<!-- Node5 -->
<g id="node5" class="node">
<title>Node5</title>
<g id="a_node5"><a xlink:href="../../d4/d99/a01634.html#abd1b8ac722e0fb0bf1e7b2ea0eaeb0b6" target="_top" xlink:title=" ">
<polygon fill="none" stroke="black" points="1057.5,-398.5 1057.5,-417.5 1179.5,-417.5 1179.5,-398.5 1057.5,-398.5"/>
<text text-anchor="middle" x="1118.5" y="-405.5" font-family="Helvetica,sans-Serif" font-size="10.00">com.cliffc.aa.util.SB.s</text>
</a>
</g>
</g>
<!-- Node4&#45;&gt;Node5 -->
<g id="edge5" class="edge">
<title>Node4&#45;&gt;Node5</title>
<path fill="none" stroke="midnightblue" d="M962.68,-408C988.89,-408 1019.8,-408 1047.08,-408"/>
<polygon fill="midnightblue" stroke="midnightblue" points="1047.34,-411.5 1057.34,-408 1047.34,-404.5 1047.34,-411.5"/>
</g>
<!-- Node6&#45;&gt;Node4 -->
<g id="edge7" class="edge">
<title>Node6&#45;&gt;Node4</title>
<path fill="none" stroke="midnightblue" d="M558.52,-440.97C614.07,-436.34 698.05,-429.14 771,-422 790.17,-420.12 810.93,-417.95 830.08,-415.88"/>
<polygon fill="midnightblue" stroke="midnightblue" points="830.68,-419.33 840.24,-414.77 829.92,-412.37 830.68,-419.33"/>
</g>
<!-- Node7&#45;&gt;Node2 -->
<g id="edge23" class="edge">
<title>Node7&#45;&gt;Node2</title>
<path fill="none" stroke="midnightblue" d="M293.89,-246.81C311.61,-268.17 356.86,-319.13 406,-346 414.44,-350.62 423.83,-354.39 433.25,-357.46"/>
<polygon fill="midnightblue" stroke="midnightblue" points="432.45,-360.87 443.04,-360.41 434.47,-354.17 432.45,-360.87"/>
</g>
<!-- Node7&#45;&gt;Node4 -->
<g id="edge27" class="edge">
<title>Node7&#45;&gt;Node4</title>
<path fill="none" stroke="midnightblue" d="M297.75,-246.7C318.31,-263.13 362.76,-296.28 406,-313 482.8,-342.71 690.36,-360.3 771,-377 798.46,-382.69 828.97,-389.94 853.47,-396.01"/>
<polygon fill="midnightblue" stroke="midnightblue" points="852.68,-399.42 863.23,-398.44 854.38,-392.63 852.68,-399.42"/>
</g>
<!-- Node7&#45;&gt;Node6 -->
<g id="edge26" class="edge">
<title>Node7&#45;&gt;Node6</title>
<path fill="none" stroke="midnightblue" d="M292.07,-246.81C308.25,-272.41 354.67,-342.5 406,-389 424.73,-405.97 449.07,-421.18 467.56,-431.61"/>
<polygon fill="midnightblue" stroke="midnightblue" points="465.93,-434.71 476.37,-436.47 469.31,-428.58 465.93,-434.71"/>
</g>
<!-- Node8 -->
<g id="node8" class="node">
<title>Node8</title>
<g id="a_node8"><a xlink:href="../../df/dee/a01646.html#a832a026adcca9a4e1ad14a2621bf0185" target="_top" xlink:title=" ">
<polygon fill="none" stroke="black" points="420,-170.5 420,-189.5 572,-189.5 572,-170.5 420,-170.5"/>
<text text-anchor="middle" x="496" y="-177.5" font-family="Helvetica,sans-Serif" font-size="10.00">com.cliffc.aa.util.VBitSet.clr</text>
</a>
</g>
</g>
<!-- Node7&#45;&gt;Node8 -->
<g id="edge10" class="edge">
<title>Node7&#45;&gt;Node8</title>
<path fill="none" stroke="midnightblue" d="M320.39,-227.5C344.37,-220.88 377.13,-211.86 406,-204 420.16,-200.14 435.61,-195.97 449.59,-192.2"/>
<polygon fill="midnightblue" stroke="midnightblue" points="450.73,-195.52 459.48,-189.54 448.91,-188.76 450.73,-195.52"/>
</g>
<!-- Node9 -->
<g id="node9" class="node">
<title>Node9</title>
<g id="a_node9"><a xlink:href="../../d4/d99/a01634.html#abfac42eaf89db4481f58c14568dfb131" target="_top" xlink:title=" ">
<polygon fill="none" stroke="black" points="433.5,-132.5 433.5,-151.5 558.5,-151.5 558.5,-132.5 433.5,-132.5"/>
<text text-anchor="middle" x="496" y="-139.5" font-family="Helvetica,sans-Serif" font-size="10.00">com.cliffc.aa.util.SB.di</text>
</a>
</g>
</g>
<!-- Node7&#45;&gt;Node9 -->
<g id="edge11" class="edge">
<title>Node7&#45;&gt;Node9</title>
<path fill="none" stroke="midnightblue" d="M297.82,-227.47C318.48,-211.29 363.08,-178.52 406,-161 412.29,-158.43 418.98,-156.19 425.75,-154.24"/>
<polygon fill="midnightblue" stroke="midnightblue" points="426.95,-157.55 435.7,-151.58 425.14,-150.78 426.95,-157.55"/>
</g>
<!-- Node10 -->
<g id="node10" class="node">
<title>Node10</title>
<g id="a_node10"><a xlink:href="../../d6/d90/a00514.html#ac842012afa3234a1ae1f49fea4c87445" target="_top" xlink:title=" ">
<polygon fill="none" stroke="black" points="406,-56.5 406,-75.5 586,-75.5 586,-56.5 406,-56.5"/>
<text text-anchor="middle" x="496" y="-63.5" font-family="Helvetica,sans-Serif" font-size="10.00">com.cliffc.aa.HM.HM.T2.get_dups</text>
</a>
</g>
</g>
<!-- Node7&#45;&gt;Node10 -->
<g id="edge13" class="edge">
<title>Node7&#45;&gt;Node10</title>
<path fill="none" stroke="midnightblue" d="M290.62,-227.26C304.11,-199.94 346.33,-122.11 406,-85 409.38,-82.9 412.95,-81.03 416.64,-79.37"/>
<polygon fill="midnightblue" stroke="midnightblue" points="418.04,-82.57 426.05,-75.63 415.46,-76.07 418.04,-82.57"/>
</g>
<!-- Node19 -->
<g id="node19" class="node">
<title>Node19</title>
<g id="a_node19"><a xlink:href="../../d4/d99/a01634.html#a2f9dc83deb53447224a9cc6551253d8a" target="_top" xlink:title=" ">
<polygon fill="none" stroke="black" points="435,-94.5 435,-113.5 557,-113.5 557,-94.5 435,-94.5"/>
<text text-anchor="middle" x="496" y="-101.5" font-family="Helvetica,sans-Serif" font-size="10.00">com.cliffc.aa.util.SB.ii</text>
</a>
</g>
</g>
<!-- Node7&#45;&gt;Node19 -->
<g id="edge24" class="edge">
<title>Node7&#45;&gt;Node19</title>
<path fill="none" stroke="midnightblue" d="M293.16,-227.2C310.07,-204.85 354.9,-149.93 406,-123 411.92,-119.88 418.31,-117.28 424.86,-115.1"/>
<polygon fill="midnightblue" stroke="midnightblue" points="425.96,-118.42 434.53,-112.2 423.95,-111.72 425.96,-118.42"/>
</g>
<!-- Node20 -->
<g id="node20" class="node">
<title>Node20</title>
<g id="a_node20"><a xlink:href="../../de/df7/a00418.html#a74eff66a7a24d3322ca6cdee6cf680e7" target="_top" xlink:title=" ">
<polygon fill="none" stroke="black" points="411,-18.5 411,-37.5 581,-37.5 581,-18.5 411,-18.5"/>
<text text-anchor="middle" x="496" y="-25.5" font-family="Helvetica,sans-Serif" font-size="10.00">com.cliffc.aa.HM.HM.Syntax.p1</text>
</a>
</g>
</g>
<!-- Node7&#45;&gt;Node20 -->
<g id="edge28" class="edge">
<title>Node7&#45;&gt;Node20</title>
<path fill="none" stroke="midnightblue" d="M289.1,-227.19C299.67,-195.44 337.51,-94.75 406,-47 408.87,-45 411.92,-43.2 415.08,-41.58"/>
<polygon fill="midnightblue" stroke="midnightblue" points="416.55,-44.76 424.26,-37.5 413.7,-38.36 416.55,-44.76"/>
</g>
<!-- Node21 -->
<g id="node21" class="node">
<title>Node21</title>
<g id="a_node21"><a xlink:href="../../de/df7/a00418.html#ab9d88b388f14b455382763f2f9114162" target="_top" xlink:title=" ">
<polygon fill="none" stroke="black" points="411,-284.5 411,-303.5 581,-303.5 581,-284.5 411,-284.5"/>
<text text-anchor="middle" x="496" y="-291.5" font-family="Helvetica,sans-Serif" font-size="10.00">com.cliffc.aa.HM.HM.Syntax.p2</text>
</a>
</g>
</g>
<!-- Node7&#45;&gt;Node21 -->
<g id="edge29" class="edge">
<title>Node7&#45;&gt;Node21</title>
<path fill="none" stroke="midnightblue" d="M313.42,-246.51C337.6,-254.7 373.89,-266.51 406,-275 415.74,-277.57 426.14,-280.05 436.28,-282.3"/>
<polygon fill="midnightblue" stroke="midnightblue" points="435.78,-285.78 446.3,-284.49 437.27,-278.94 435.78,-285.78"/>
</g>
<!-- Node22 -->
<g id="node22" class="node">
<title>Node22</title>
<g id="a_node22"><a xlink:href="../../d0/de2/a01442.html#aa85e71041555eba377310225778642bf" target="_top" xlink:title=" ">
<polygon fill="none" stroke="black" points="423.5,-246.5 423.5,-265.5 568.5,-265.5 568.5,-246.5 423.5,-246.5"/>
<text text-anchor="middle" x="496" y="-253.5" font-family="Helvetica,sans-Serif" font-size="10.00">com.cliffc.aa.type.Type.str</text>
</a>
</g>
</g>
<!-- Node7&#45;&gt;Node22 -->
<g id="edge30" class="edge">
<title>Node7&#45;&gt;Node22</title>
<path fill="none" stroke="midnightblue" d="M370.1,-244.65C384.34,-245.94 399.11,-247.28 413.28,-248.57"/>
<polygon fill="midnightblue" stroke="midnightblue" points="413.21,-252.08 423.49,-249.5 413.85,-245.11 413.21,-252.08"/>
</g>
<!-- Node23 -->
<g id="node23" class="node">
<title>Node23</title>
<g id="a_node23"><a xlink:href="../../d6/d90/a00514.html#a77f459dd40fbefda1b83e53a5eb86e59" target="_top" xlink:title=" ">
<polygon fill="none" stroke="black" points="622,-208.5 622,-227.5 771,-227.5 771,-208.5 622,-208.5"/>
<text text-anchor="middle" x="696.5" y="-215.5" font-family="Helvetica,sans-Serif" font-size="10.00">com.cliffc.aa.HM.HM.T2.str</text>
</a>
</g>
</g>
<!-- Node7&#45;&gt;Node23 -->
<g id="edge31" class="edge">
<title>Node7&#45;&gt;Node23</title>
<path fill="none" stroke="midnightblue" d="M370.35,-233.09C440.98,-229.81 541.26,-225.16 611.72,-221.89"/>
<polygon fill="midnightblue" stroke="midnightblue" points="612.07,-225.37 621.9,-221.42 611.75,-218.38 612.07,-225.37"/>
</g>
<!-- Node9&#45;&gt;Node3 -->
<g id="edge12" class="edge">
<title>Node9&#45;&gt;Node3</title>
<path fill="none" stroke="midnightblue" d="M558.72,-142C580.24,-142 604.51,-142 626.58,-142"/>
<polygon fill="midnightblue" stroke="midnightblue" points="626.87,-145.5 636.87,-142 626.87,-138.5 626.87,-145.5"/>
</g>
<!-- Node11 -->
<g id="node11" class="node">
<title>Node11</title>
<g id="a_node11"><a xlink:href="../../d6/d90/a00514.html#a228c541751d299f5aa437bfea3bd27ac" target="_top" xlink:title=" ">
<polygon fill="none" stroke="black" points="628.5,-33 628.5,-63 764.5,-63 764.5,-33 628.5,-33"/>
<text text-anchor="start" x="636.5" y="-51" font-family="Helvetica,sans-Serif" font-size="10.00">com.cliffc.aa.HM.HM.T2.</text>
<text text-anchor="middle" x="696.5" y="-40" font-family="Helvetica,sans-Serif" font-size="10.00">_get_dups</text>
</a>
</g>
</g>
<!-- Node10&#45;&gt;Node11 -->
<g id="edge14" class="edge">
<title>Node10&#45;&gt;Node11</title>
<path fill="none" stroke="midnightblue" d="M586.09,-57.92C596.87,-56.94 607.81,-55.95 618.39,-54.99"/>
<polygon fill="midnightblue" stroke="midnightblue" points="618.77,-58.47 628.42,-54.08 618.14,-51.5 618.77,-58.47"/>
</g>
<!-- Node12 -->
<g id="node12" class="node">
<title>Node12</title>
<g id="a_node12"><a xlink:href="../../d6/d90/a00514.html#a2be9e6df2e83d83f7e1a0198e7aeefcc" target="_top" xlink:title=" ">
<polygon fill="none" stroke="black" points="807,-0.5 807,-19.5 996,-19.5 996,-0.5 807,-0.5"/>
<text text-anchor="middle" x="901.5" y="-7.5" font-family="Helvetica,sans-Serif" font-size="10.00">com.cliffc.aa.HM.HM.T2.debug_find</text>
</a>
</g>
</g>
<!-- Node11&#45;&gt;Node12 -->
<g id="edge15" class="edge">
<title>Node11&#45;&gt;Node12</title>
<path fill="none" stroke="midnightblue" d="M764.53,-35.45C788.78,-30.91 816.02,-25.81 839.7,-21.38"/>
<polygon fill="midnightblue" stroke="midnightblue" points="840.43,-24.8 849.62,-19.52 839.15,-17.92 840.43,-24.8"/>
</g>
<!-- Node18 -->
<g id="node18" class="node">
<title>Node18</title>
<g id="a_node18"><a xlink:href="../../df/dee/a01646.html#a88ad20daf92e92fe0e3925b23c4fecf0" target="_top" xlink:title=" ">
<polygon fill="none" stroke="black" points="822.5,-38.5 822.5,-57.5 980.5,-57.5 980.5,-38.5 822.5,-38.5"/>
<text text-anchor="middle" x="901.5" y="-45.5" font-family="Helvetica,sans-Serif" font-size="10.00">com.cliffc.aa.util.VBitSet.tset</text>
</a>
</g>
</g>
<!-- Node11&#45;&gt;Node18 -->
<g id="edge22" class="edge">
<title>Node11&#45;&gt;Node18</title>
<path fill="none" stroke="midnightblue" d="M764.53,-48C779.69,-48 796.01,-48 811.9,-48"/>
<polygon fill="midnightblue" stroke="midnightblue" points="812.27,-51.5 822.27,-48 812.27,-44.5 812.27,-51.5"/>
</g>
<!-- Node13 -->
<g id="node13" class="node">
<title>Node13</title>
<g id="a_node13"><a xlink:href="../../d6/d90/a00514.html#aad197ab7ed2491b2ca581a9e4d68fd35" target="_top" xlink:title=" ">
<polygon fill="none" stroke="black" points="1241,-82.5 1241,-101.5 1409,-101.5 1409,-82.5 1241,-82.5"/>
<text text-anchor="middle" x="1325" y="-89.5" font-family="Helvetica,sans-Serif" font-size="10.00">com.cliffc.aa.HM.HM.T2.is_leaf</text>
</a>
</g>
</g>
<!-- Node12&#45;&gt;Node13 -->
<g id="edge16" class="edge">
<title>Node12&#45;&gt;Node13</title>
<path fill="none" stroke="midnightblue" d="M973.6,-19.61C981.41,-22.06 989.05,-25.14 996,-29 1016.34,-40.28 1011.04,-56.9 1032,-67 1093.64,-96.69 1171.09,-102.09 1230.74,-100.52"/>
<polygon fill="midnightblue" stroke="midnightblue" points="1231.02,-104.01 1240.9,-100.18 1230.79,-97.02 1231.02,-104.01"/>
</g>
<!-- Node14 -->
<g id="node14" class="node">
<title>Node14</title>
<g id="a_node14"><a xlink:href="../../d6/d90/a00514.html#a5a583637713ecacb740ff662677191f7" target="_top" xlink:title=" ">
<polygon fill="none" stroke="black" points="1037,-38.5 1037,-57.5 1200,-57.5 1200,-38.5 1037,-38.5"/>
<text text-anchor="middle" x="1118.5" y="-45.5" font-family="Helvetica,sans-Serif" font-size="10.00">com.cliffc.aa.HM.HM.T2.no_uf</text>
</a>
</g>
</g>
<!-- Node12&#45;&gt;Node14 -->
<g id="edge17" class="edge">
<title>Node12&#45;&gt;Node14</title>
<path fill="none" stroke="midnightblue" d="M956.48,-19.54C985.87,-24.73 1022.43,-31.2 1053.28,-36.65"/>
<polygon fill="midnightblue" stroke="midnightblue" points="1053.05,-40.16 1063.5,-38.46 1054.26,-33.27 1053.05,-40.16"/>
</g>
<!-- Node14&#45;&gt;Node13 -->
<g id="edge18" class="edge">
<title>Node14&#45;&gt;Node13</title>
<path fill="none" stroke="midnightblue" d="M1163.87,-57.55C1194.96,-64.24 1236.69,-73.21 1269.75,-80.33"/>
<polygon fill="midnightblue" stroke="midnightblue" points="1269.2,-83.79 1279.71,-82.47 1270.67,-76.95 1269.2,-83.79"/>
</g>
<!-- Node15 -->
<g id="node15" class="node">
<title>Node15</title>
<g id="a_node15"><a xlink:href="../../d6/d90/a00514.html#a270703fb8c3193ce4203a956fa7fb8c8" target="_top" xlink:title=" ">
<polygon fill="none" stroke="black" points="1253,-33 1253,-63 1397,-63 1397,-33 1253,-33"/>
<text text-anchor="start" x="1261" y="-51" font-family="Helvetica,sans-Serif" font-size="10.00">com.cliffc.aa.HM.HM.T2.is</text>
<text text-anchor="middle" x="1325" y="-40" font-family="Helvetica,sans-Serif" font-size="10.00">_nilable</text>
</a>
</g>
</g>
<!-- Node14&#45;&gt;Node15 -->
<g id="edge19" class="edge">
<title>Node14&#45;&gt;Node15</title>
<path fill="none" stroke="midnightblue" d="M1200.03,-48C1214.06,-48 1228.66,-48 1242.71,-48"/>
<polygon fill="midnightblue" stroke="midnightblue" points="1242.83,-51.5 1252.83,-48 1242.83,-44.5 1242.83,-51.5"/>
</g>
<!-- Node16 -->
<g id="node16" class="node">
<title>Node16</title>
<g id="a_node16"><a xlink:href="../../d6/d90/a00514.html#a217cc5615d6b0620d9c6489b1a5b6e94" target="_top" xlink:title=" ">
<polygon fill="none" stroke="black" points="1445,-190.5 1445,-209.5 1595,-209.5 1595,-190.5 1445,-190.5"/>
<text text-anchor="middle" x="1520" y="-197.5" font-family="Helvetica,sans-Serif" font-size="10.00">com.cliffc.aa.HM.HM.T2.isa</text>
</a>
</g>
</g>
<!-- Node15&#45;&gt;Node16 -->
<g id="edge20" class="edge">
<title>Node15&#45;&gt;Node16</title>
<path fill="none" stroke="midnightblue" d="M1389.76,-63.09C1396.51,-65.88 1403.06,-69.15 1409,-73 1453.68,-101.94 1490.55,-154.15 1508.05,-181.75"/>
<polygon fill="midnightblue" stroke="midnightblue" points="1505.17,-183.75 1513.41,-190.41 1511.12,-180.07 1505.17,-183.75"/>
</g>
<!-- Node17 -->
<g id="node17" class="node">
<title>Node17</title>
<g id="a_node17"><a xlink:href="../../dd/d55/a01638.html#a3975ba7dca9fe2d6e4992b2b5558f882" target="_top" xlink:title=" ">
<polygon fill="none" stroke="black" points="1631,-190.5 1631,-209.5 1764,-209.5 1764,-190.5 1631,-190.5"/>
<text text-anchor="middle" x="1697.5" y="-197.5" font-family="Helvetica,sans-Serif" font-size="10.00">com.cliffc.aa.util.Util.eq</text>
</a>
</g>
</g>
<!-- Node16&#45;&gt;Node17 -->
<g id="edge21" class="edge">
<title>Node16&#45;&gt;Node17</title>
<path fill="none" stroke="midnightblue" d="M1595.17,-200C1603.62,-200 1612.24,-200 1620.71,-200"/>
<polygon fill="midnightblue" stroke="midnightblue" points="1620.94,-203.5 1630.94,-200 1620.94,-196.5 1620.94,-203.5"/>
</g>
<!-- Node19&#45;&gt;Node3 -->
<g id="edge25" class="edge">
<title>Node19&#45;&gt;Node3</title>
<path fill="none" stroke="midnightblue" d="M546.83,-113.54C573.73,-118.69 607.14,-125.08 635.46,-130.51"/>
<polygon fill="midnightblue" stroke="midnightblue" points="635.17,-134.01 645.65,-132.46 636.48,-127.14 635.17,-134.01"/>
</g>
<!-- Node23&#45;&gt;Node4 -->
<g id="edge42" class="edge">
<title>Node23&#45;&gt;Node4</title>
<path fill="none" stroke="midnightblue" d="M705.26,-227.63C719.18,-245.11 749.03,-283.46 771,-318 788.93,-346.19 780.63,-363.48 807,-384 814.01,-389.46 822.14,-393.69 830.6,-396.96"/>
<polygon fill="midnightblue" stroke="midnightblue" points="829.68,-400.34 840.27,-400.26 831.94,-393.72 829.68,-400.34"/>
</g>
<!-- Node23&#45;&gt;Node13 -->
<g id="edge38" class="edge">
<title>Node23&#45;&gt;Node13</title>
<path fill="none" stroke="midnightblue" d="M719.76,-208.48C741.61,-199.47 776.08,-186.14 807,-178 952.61,-139.65 1126.01,-114.94 1230.43,-102.27"/>
<polygon fill="midnightblue" stroke="midnightblue" points="1231.11,-105.71 1240.62,-101.04 1230.28,-98.76 1231.11,-105.71"/>
</g>
<!-- Node23&#45;&gt;Node14 -->
<g id="edge41" class="edge">
<title>Node23&#45;&gt;Node14</title>
<path fill="none" stroke="midnightblue" d="M724.12,-208.49C739.31,-202.02 757.87,-192.22 771,-179 795.37,-154.46 779.33,-130.75 807,-110 825.9,-95.82 959.48,-72.72 1045.17,-59.08"/>
<polygon fill="midnightblue" stroke="midnightblue" points="1045.78,-62.52 1055.11,-57.5 1044.69,-55.61 1045.78,-62.52"/>
</g>
<!-- Node23&#45;&gt;Node18 -->
<g id="edge45" class="edge">
<title>Node23&#45;&gt;Node18</title>
<path fill="none" stroke="midnightblue" d="M726.73,-208.48C741.8,-202.23 759.41,-192.66 771,-179 803.47,-140.75 770.24,-106.16 807,-72 811.33,-67.98 816.23,-64.61 821.48,-61.79"/>
<polygon fill="midnightblue" stroke="midnightblue" points="823,-64.95 830.58,-57.55 820.04,-58.6 823,-64.95"/>
</g>
<!-- Node23&#45;&gt;Node23 -->
<g id="edge44" class="edge">
<title>Node23&#45;&gt;Node23</title>
<path fill="none" stroke="midnightblue" d="M665.67,-227.76C650.68,-236.57 660.95,-246 696.5,-246 721.49,-246 733.99,-241.34 734,-235.5"/>
<polygon fill="midnightblue" stroke="midnightblue" points="736.5,-233.05 727.33,-227.76 731.2,-237.62 736.5,-233.05"/>
</g>
<!-- Node24 -->
<g id="node24" class="node">
<title>Node24</title>
<g id="a_node24"><a xlink:href="../../d6/d90/a00514.html#a41ec42213b59c2aa5fa3d08b29392987" target="_top" xlink:title=" ">
<polygon fill="none" stroke="black" points="1032,-190.5 1032,-209.5 1205,-209.5 1205,-190.5 1032,-190.5"/>
<text text-anchor="middle" x="1118.5" y="-197.5" font-family="Helvetica,sans-Serif" font-size="10.00">com.cliffc.aa.HM.HM.T2.is_base</text>
</a>
</g>
</g>
<!-- Node23&#45;&gt;Node24 -->
<g id="edge32" class="edge">
<title>Node23&#45;&gt;Node24</title>
<path fill="none" stroke="midnightblue" d="M771.14,-214.84C840.82,-211.86 945.8,-207.36 1021.92,-204.1"/>
<polygon fill="midnightblue" stroke="midnightblue" points="1022.15,-207.59 1031.99,-203.66 1021.85,-200.6 1022.15,-207.59"/>
</g>
<!-- Node25 -->
<g id="node25" class="node">
<title>Node25</title>
<g id="a_node25"><a xlink:href="../../d6/d90/a00514.html#abb531f3159b4ccdea2479bdbf9593a21" target="_top" xlink:title=" ">
<polygon fill="none" stroke="black" points="1243.5,-152.5 1243.5,-171.5 1406.5,-171.5 1406.5,-152.5 1243.5,-152.5"/>
<text text-anchor="middle" x="1325" y="-159.5" font-family="Helvetica,sans-Serif" font-size="10.00">com.cliffc.aa.HM.HM.T2.is_err</text>
</a>
</g>
</g>
<!-- Node23&#45;&gt;Node25 -->
<g id="edge34" class="edge">
<title>Node23&#45;&gt;Node25</title>
<path fill="none" stroke="midnightblue" d="M754.23,-208.47C771.18,-205.82 789.81,-203.1 807,-201 955.73,-182.86 1129.63,-171.82 1233.08,-166.32"/>
<polygon fill="midnightblue" stroke="midnightblue" points="1233.38,-169.81 1243.18,-165.79 1233.01,-162.82 1233.38,-169.81"/>
</g>
<!-- Node26 -->
<g id="node26" class="node">
<title>Node26</title>
<g id="a_node26"><a xlink:href="../../d6/d90/a00514.html#ac965850a0de69003c9298a1aa3b42859" target="_top" xlink:title=" ">
<polygon fill="none" stroke="black" points="1036,-340.5 1036,-359.5 1201,-359.5 1201,-340.5 1036,-340.5"/>
<text text-anchor="middle" x="1118.5" y="-347.5" font-family="Helvetica,sans-Serif" font-size="10.00">com.cliffc.aa.HM.HM.T2.is_fun</text>
</a>
</g>
</g>
<!-- Node23&#45;&gt;Node26 -->
<g id="edge36" class="edge">
<title>Node23&#45;&gt;Node26</title>
<path fill="none" stroke="midnightblue" d="M704.82,-227.84C726.98,-257.46 792.66,-344.23 807,-351 893.35,-391.76 1008.87,-375.63 1071.84,-361.83"/>
<polygon fill="midnightblue" stroke="midnightblue" points="1072.88,-365.18 1081.86,-359.56 1071.33,-358.36 1072.88,-365.18"/>
</g>
<!-- Node27 -->
<g id="node27" class="node">
<title>Node27</title>
<g id="a_node27"><a xlink:href="../../d6/d90/a00514.html#aeca37cb502364f8754a30e7d2ab69bea" target="_top" xlink:title=" ">
<polygon fill="none" stroke="black" points="1253,-229 1253,-259 1397,-259 1397,-229 1253,-229"/>
<text text-anchor="start" x="1261" y="-247" font-family="Helvetica,sans-Serif" font-size="10.00">com.cliffc.aa.HM.HM.T2.is</text>
<text text-anchor="middle" x="1325" y="-236" font-family="Helvetica,sans-Serif" font-size="10.00">_struct</text>
</a>
</g>
</g>
<!-- Node23&#45;&gt;Node27 -->
<g id="edge39" class="edge">
<title>Node23&#45;&gt;Node27</title>
<path fill="none" stroke="midnightblue" d="M771.12,-221.41C783.11,-221.95 795.4,-222.5 807,-223 961.01,-229.64 1140.86,-236.82 1242.7,-240.82"/>
<polygon fill="midnightblue" stroke="midnightblue" points="1242.78,-244.33 1252.91,-241.23 1243.06,-237.34 1242.78,-244.33"/>
</g>
<!-- Node28 -->
<g id="node28" class="node">
<title>Node28</title>
<g id="a_node28"><a xlink:href="../../d4/d3c/a01418.html#afee0e9392fca89140c42b4e6fdc00e6b" target="_top" xlink:title=" ">
<polygon fill="none" stroke="black" points="831,-322.5 831,-341.5 972,-341.5 972,-322.5 831,-322.5"/>
<text text-anchor="middle" x="901.5" y="-329.5" font-family="Helvetica,sans-Serif" font-size="10.00">com.cliffc.aa.type.Bits.str</text>
</a>
</g>
</g>
<!-- Node23&#45;&gt;Node28 -->
<g id="edge43" class="edge">
<title>Node23&#45;&gt;Node28</title>
<path fill="none" stroke="midnightblue" d="M705.43,-227.62C722.07,-247.1 762.75,-291.21 807,-313 811.92,-315.42 817.14,-317.54 822.48,-319.38"/>
<polygon fill="midnightblue" stroke="midnightblue" points="821.63,-322.78 832.22,-322.42 823.72,-316.1 821.63,-322.78"/>
</g>
<!-- Node29 -->
<g id="node29" class="node">
<title>Node29</title>
<g id="a_node29"><a xlink:href="../../d4/d99/a01634.html#a6536bbd3de1ca1c901e1cb9527dbf3db" target="_top" xlink:title=" ">
<polygon fill="none" stroke="black" points="827,-266.5 827,-285.5 976,-285.5 976,-266.5 827,-266.5"/>
<text text-anchor="middle" x="901.5" y="-273.5" font-family="Helvetica,sans-Serif" font-size="10.00">com.cliffc.aa.util.SB.unchar</text>
</a>
</g>
</g>
<!-- Node23&#45;&gt;Node29 -->
<g id="edge46" class="edge">
<title>Node23&#45;&gt;Node29</title>
<path fill="none" stroke="midnightblue" d="M727.12,-227.64C749.09,-234.67 779.8,-244.29 807,-252 821.41,-256.08 837.16,-260.24 851.55,-263.92"/>
<polygon fill="midnightblue" stroke="midnightblue" points="850.71,-267.32 861.26,-266.39 852.43,-260.54 850.71,-267.32"/>
</g>
<!-- Node24&#45;&gt;Node16 -->
<g id="edge33" class="edge">
<title>Node24&#45;&gt;Node16</title>
<path fill="none" stroke="midnightblue" d="M1205.2,-200C1273.02,-200 1367.22,-200 1434.68,-200"/>
<polygon fill="midnightblue" stroke="midnightblue" points="1434.85,-203.5 1444.85,-200 1434.85,-196.5 1434.85,-203.5"/>
</g>
<!-- Node25&#45;&gt;Node16 -->
<g id="edge35" class="edge">
<title>Node25&#45;&gt;Node16</title>
<path fill="none" stroke="midnightblue" d="M1374.7,-171.59C1400.86,-176.74 1433.28,-183.12 1460.77,-188.53"/>
<polygon fill="midnightblue" stroke="midnightblue" points="1460.16,-191.98 1470.65,-190.48 1461.51,-185.11 1460.16,-191.98"/>
</g>
<!-- Node26&#45;&gt;Node16 -->
<g id="edge37" class="edge">
<title>Node26&#45;&gt;Node16</title>
<path fill="none" stroke="midnightblue" d="M1169.92,-340.5C1228.9,-328.34 1328.7,-304.53 1409,-269 1442.01,-254.4 1476.76,-231.07 1498.16,-215.64"/>
<polygon fill="midnightblue" stroke="midnightblue" points="1500.47,-218.29 1506.47,-209.56 1496.33,-212.64 1500.47,-218.29"/>
</g>
<!-- Node27&#45;&gt;Node16 -->
<g id="edge40" class="edge">
<title>Node27&#45;&gt;Node16</title>
<path fill="none" stroke="midnightblue" d="M1391.88,-228.98C1416.52,-223.36 1444.12,-217.07 1467.3,-211.79"/>
<polygon fill="midnightblue" stroke="midnightblue" points="1468.3,-215.15 1477.28,-209.51 1466.75,-208.32 1468.3,-215.15"/>
</g>
<!-- Node29&#45;&gt;Node29 -->
<g id="edge47" class="edge">
<title>Node29&#45;&gt;Node29</title>
<path fill="none" stroke="midnightblue" d="M870.06,-285.76C854.76,-294.57 865.24,-304 901.5,-304 927.56,-304 940.3,-299.13 939.73,-293.11"/>
<polygon fill="midnightblue" stroke="midnightblue" points="942.3,-290.73 932.94,-285.76 937.15,-295.48 942.3,-290.73"/>
</g>
</g>
</svg>
        <g id="navigator" transform="translate(0 0)" fill="#404254">
                <rect fill="#f2f5e9" fill-opacity="0.5" stroke="#606060" stroke-width=".5" x="0" y="0" width="60" height="60"/>
                <use id="zoomplus" xlink:href="#zoomPlus" x="17" y="9" onmousedown="handleZoom(evt,'in')"/>
                <use id="zoomminus" xlink:href="#zoomMin" x="42" y="9" onmousedown="handleZoom(evt,'out')"/>
                <use id="reset" xlink:href="#resetDef" x="30" y="36" onmousedown="handleReset()"/>
                <g id="arrowUp" xlink:href="#dirArrow" transform="translate(30 24)" onmousedown="handlePan(0,-1)">
                  <use xlink:href="#rim" fill="#404040">
                        <set attributeName="fill" to="#808080" begin="arrowUp.mouseover" end="arrowUp.mouseout"/>
                  </use>
                  <path fill="none" stroke="white" stroke-width="1.5" d="M0,-3.0v7 M-2.5,-0.5L0,-3.0L2.5,-0.5"/>
                </g>
                <g id="arrowRight" xlink:href="#dirArrow" transform="rotate(90) translate(36 -43)" onmousedown="handlePan(1,0)">
                  <use xlink:href="#rim" fill="#404040">
                        <set attributeName="fill" to="#808080" begin="arrowRight.mouseover" end="arrowRight.mouseout"/>
                  </use>
                  <path fill="none" stroke="white" stroke-width="1.5" d="M0,-3.0v7 M-2.5,-0.5L0,-3.0L2.5,-0.5"/>
                </g>
                <g id="arrowDown" xlink:href="#dirArrow" transform="rotate(180) translate(-30 -48)" onmousedown="handlePan(0,1)">
                  <use xlink:href="#rim" fill="#404040">
                        <set attributeName="fill" to="#808080" begin="arrowDown.mouseover" end="arrowDown.mouseout"/>
                  </use>
                  <path fill="none" stroke="white" stroke-width="1.5" d="M0,-3.0v7 M-2.5,-0.5L0,-3.0L2.5,-0.5"/>
                </g>
                <g id="arrowLeft" xlink:href="#dirArrow" transform="rotate(270) translate(-36 17)" onmousedown="handlePan(-1,0)">
                  <use xlink:href="#rim" fill="#404040">
                        <set attributeName="fill" to="#808080" begin="arrowLeft.mouseover" end="arrowLeft.mouseout"/>
                  </use>
                  <path fill="none" stroke="white" stroke-width="1.5" d="M0,-3.0v7 M-2.5,-0.5L0,-3.0L2.5,-0.5"/>
                </g>
        </g>
        <svg viewBox="0 0 15 15" width="100%" height="30px" preserveAspectRatio="xMaxYMin meet">
         <g id="arrow_out" transform="scale(0.3 0.3)">
          <a xlink:href="a00446_a724cb1add5b558e2f8381d5696727718_cgraph_org.svg" target="_base">
           <rect id="button" ry="5" rx="5" y="6" x="6" height="38" width="38"
                fill="#f2f5e9" fill-opacity="0.5" stroke="#606060" stroke-width="1.0"/>
           <path id="arrow"
             d="M 11.500037,31.436501 C 11.940474,20.09759 22.043105,11.32322 32.158766,21.979434 L 37.068811,17.246167 C 37.068811,17.246167 37.088388,32 37.088388,32 L 22.160133,31.978069 C 22.160133,31.978069 26.997745,27.140456 26.997745,27.140456 C 18.528582,18.264221 13.291696,25.230495 11.500037,31.436501 z"
             style="fill:#404040;"/>
          </a>
         </g>
        </svg>
</svg>
