<?xml version="1.0" encoding="UTF-8" standalone="no"?>
<!DOCTYPE svg PUBLIC "-//W3C//DTD SVG 1.1//EN"
 "http://www.w3.org/Graphics/SVG/1.1/DTD/svg11.dtd">
<!-- Generated by graphviz version 2.43.0 (0)
 -->
<!-- Title: com.cliffc.aa.HM.HM3.HMType.union Pages: 1 -->
<svg width="428pt" height="160pt"
 viewBox="0.00 0.00 428.00 160.00" xmlns="http://www.w3.org/2000/svg" xmlns:xlink="http://www.w3.org/1999/xlink">
<g id="graph0" class="graph" transform="scale(1 1) rotate(0) translate(4 156)">
<title>com.cliffc.aa.HM.HM3.HMType.union</title>
<!-- Node1 -->
<g id="node1" class="node">
<title>Node1</title>
<g id="a_node1"><a xlink:title=" ">
<polygon fill="#bfbfbf" stroke="black" points="224,-66.5 224,-85.5 420,-85.5 420,-66.5 224,-66.5"/>
<text text-anchor="middle" x="322" y="-73.5" font-family="Helvetica,sans-Serif" font-size="10.00">com.cliffc.aa.HM.HM3.HMType.union</text>
</a>
</g>
</g>
<!-- Node2 -->
<g id="node2" class="node">
<title>Node2</title>
<g id="a_node2"><a xlink:href="../../d7/de4/a00634.html#a13046c2982f119503645542091a9bff5" target="_top" xlink:title=" ">
<polygon fill="none" stroke="black" points="13.5,-132.5 13.5,-151.5 174.5,-151.5 174.5,-132.5 13.5,-132.5"/>
<text text-anchor="middle" x="94" y="-139.5" font-family="Helvetica,sans-Serif" font-size="10.00">com.cliffc.aa.HM.HM3.Let.hm</text>
</a>
</g>
</g>
<!-- Node1&#45;&gt;Node2 -->
<g id="edge1" class="edge">
<title>Node1&#45;&gt;Node2</title>
<path fill="none" stroke="midnightblue" d="M287.2,-89.4C260.56,-99.61 222.32,-113.48 188,-123 175.3,-126.52 161.45,-129.7 148.42,-132.4"/>
<polygon fill="midnightblue" stroke="midnightblue" points="288.75,-92.56 296.81,-85.69 286.22,-86.03 288.75,-92.56"/>
</g>
<!-- Node3 -->
<g id="node3" class="node">
<title>Node3</title>
<g id="a_node3"><a xlink:href="../../d1/daa/a00638.html#ac108f90c2810788389daeef262bc6981" target="_top" xlink:title=" ">
<polygon fill="none" stroke="black" points="8,-94.5 8,-113.5 180,-113.5 180,-94.5 8,-94.5"/>
<text text-anchor="middle" x="94" y="-101.5" font-family="Helvetica,sans-Serif" font-size="10.00">com.cliffc.aa.HM.HM3.Apply.hm</text>
</a>
</g>
</g>
<!-- Node1&#45;&gt;Node3 -->
<g id="edge2" class="edge">
<title>Node1&#45;&gt;Node3</title>
<path fill="none" stroke="midnightblue" d="M234.22,-86.75C213.73,-89.29 192.02,-91.98 172,-94.46"/>
<polygon fill="midnightblue" stroke="midnightblue" points="234.68,-90.22 244.17,-85.52 233.82,-83.27 234.68,-90.22"/>
</g>
<!-- Node4 -->
<g id="node4" class="node">
<title>Node4</title>
<g id="a_node4"><a xlink:href="../../d6/d08/a00646.html#aad1275a09c563d7faa53851fe7f8cbf7" target="_top" xlink:title=" ">
<polygon fill="none" stroke="black" points="0,-38.5 0,-57.5 188,-57.5 188,-38.5 0,-38.5"/>
<text text-anchor="middle" x="94" y="-45.5" font-family="Helvetica,sans-Serif" font-size="10.00">com.cliffc.aa.HM.HM3.HMVar.union</text>
</a>
</g>
</g>
<!-- Node1&#45;&gt;Node4 -->
<g id="edge3" class="edge">
<title>Node1&#45;&gt;Node4</title>
<path fill="none" stroke="midnightblue" d="M234.22,-65.25C213.73,-62.71 192.02,-60.02 172,-57.54"/>
<polygon fill="midnightblue" stroke="midnightblue" points="233.82,-68.73 244.17,-66.48 234.68,-61.78 233.82,-68.73"/>
</g>
<!-- Node5 -->
<g id="node5" class="node">
<title>Node5</title>
<g id="a_node5"><a xlink:href="../../da/d36/a00650.html#ad49fe47eaabb1147af91ea26bf0601fa" target="_top" xlink:title=" ">
<polygon fill="none" stroke="black" points="4.5,-0.5 4.5,-19.5 183.5,-19.5 183.5,-0.5 4.5,-0.5"/>
<text text-anchor="middle" x="94" y="-7.5" font-family="Helvetica,sans-Serif" font-size="10.00">com.cliffc.aa.HM.HM3.Oper.union</text>
</a>
</g>
</g>
<!-- Node1&#45;&gt;Node5 -->
<g id="edge5" class="edge">
<title>Node1&#45;&gt;Node5</title>
<path fill="none" stroke="midnightblue" d="M287.2,-62.6C260.56,-52.39 222.32,-38.52 188,-29 175.3,-25.48 161.45,-22.3 148.42,-19.6"/>
<polygon fill="midnightblue" stroke="midnightblue" points="286.22,-65.97 296.81,-66.31 288.75,-59.44 286.22,-65.97"/>
</g>
<!-- Node4&#45;&gt;Node4 -->
<g id="edge4" class="edge">
<title>Node4&#45;&gt;Node4</title>
<path fill="none" stroke="midnightblue" d="M136.53,-64.22C138.74,-70.63 124.56,-76 94,-76 53.25,-76 41.63,-66.46 59.14,-57.61"/>
<polygon fill="midnightblue" stroke="midnightblue" points="138.72,-61.49 128.86,-57.61 134.15,-66.79 138.72,-61.49"/>
</g>
</g>
</svg>
