<?xml version="1.0" encoding="UTF-8" standalone="no"?>
<!DOCTYPE svg PUBLIC "-//W3C//DTD SVG 1.1//EN"
 "http://www.w3.org/Graphics/SVG/1.1/DTD/svg11.dtd">
<!-- Generated by graphviz version 2.43.0 (0)
 -->
<!-- Title: com.cliffc.aa.HM.HM3.Worklist.len Pages: 1 -->
<!--zoomable 522 -->
<svg id="main" version="1.1" xmlns="http://www.w3.org/2000/svg" xmlns:xlink="http://www.w3.org/1999/xlink" xml:space="preserve" onload="init(evt)">
<style type="text/css"><![CDATA[
.edge:hover path { stroke: red; }
.edge:hover polygon { stroke: red; fill: red; }
]]></style>
<script type="text/javascript"><![CDATA[
var edges = document.getElementsByTagName('g');
if (edges && edges.length) {
  for (var i=0;i<edges.length;i++) {
    if (edges[i].id.substr(0,4)=='edge') {
      edges[i].setAttribute('class','edge');
    }
  }
}
]]></script>
        <defs>
                <circle id="rim" cx="0" cy="0" r="7"/>
                <circle id="rim2" cx="0" cy="0" r="3.5"/>
                <g id="zoomPlus">
                        <use xlink:href="#rim" fill="#404040">
                                <set attributeName="fill" to="#808080" begin="zoomplus.mouseover" end="zoomplus.mouseout"/>
                        </use>
                        <path d="M-4,0h8M0,-4v8" fill="none" stroke="white" stroke-width="1.5" pointer-events="none"/>
                </g>
                <g id="zoomMin">
                        <use xlink:href="#rim" fill="#404040">
                                <set attributeName="fill" to="#808080" begin="zoomminus.mouseover" end="zoomminus.mouseout"/>
                        </use>
                        <path d="M-4,0h8" fill="none" stroke="white" stroke-width="1.5" pointer-events="none"/>
                </g>
                <g id="dirArrow">
                        <path fill="none" stroke="white" stroke-width="1.5" d="M0,-3.0v7 M-2.5,-0.5L0,-3.0L2.5,-0.5"/>
                </g>
               <g id="resetDef">
                       <use xlink:href="#rim2" fill="#404040">
                               <set attributeName="fill" to="#808080" begin="reset.mouseover" end="reset.mouseout"/>
                       </use>
               </g>
        </defs>

<script type="text/javascript">
var viewWidth = 591;
var viewHeight = 522;
var sectionId = 'dynsection-3';
</script>
<script xlink:href="../../svgpan.js"/>
<svg id="graph" class="graph">
<g id="viewport">
<title>com.cliffc.aa.HM.HM3.Worklist.len</title>
<!-- Node1 -->
<g id="node1" class="node">
<title>Node1</title>
<g id="a_node1"><a xlink:title=" ">
<polygon fill="#bfbfbf" stroke="black" points="398,-247.5 398,-266.5 583,-266.5 583,-247.5 398,-247.5"/>
<text text-anchor="middle" x="490.5" y="-254.5" font-family="Helvetica,sans-Serif" font-size="10.00">com.cliffc.aa.HM.HM3.Worklist.len</text>
</a>
</g>
</g>
<!-- Node2 -->
<g id="node2" class="node">
<title>Node2</title>
<g id="a_node2"><a xlink:href="../../d5/d0a/a00602.html#a22c7a4f623fa36f31dd4c8722dfda207" target="_top" xlink:title=" ">
<polygon fill="none" stroke="black" points="219,-247.5 219,-266.5 362,-266.5 362,-247.5 219,-247.5"/>
<text text-anchor="middle" x="290.5" y="-254.5" font-family="Helvetica,sans-Serif" font-size="10.00">com.cliffc.aa.HM.HM3.hm</text>
</a>
</g>
</g>
<!-- Node1&#45;&gt;Node2 -->
<g id="edge1" class="edge">
<title>Node1&#45;&gt;Node2</title>
<path fill="none" stroke="midnightblue" d="M387.66,-257C379.06,-257 370.49,-257 362.21,-257"/>
<polygon fill="midnightblue" stroke="midnightblue" points="387.75,-260.5 397.75,-257 387.75,-253.5 387.75,-260.5"/>
</g>
<!-- Node3 -->
<g id="node3" class="node">
<title>Node3</title>
<g id="a_node3"><a xlink:href="../../d9/dbc/a01662.html#a3ca58698b6f75f0fc025a6b949f6f200" target="_top" xlink:title=" ">
<polygon fill="none" stroke="black" points="3,-494.5 3,-513.5 180,-513.5 180,-494.5 3,-494.5"/>
<text text-anchor="middle" x="91.5" y="-501.5" font-family="Helvetica,sans-Serif" font-size="10.00">com.cliffc.aa.HM.TestHM3.test00</text>
</a>
</g>
</g>
<!-- Node2&#45;&gt;Node3 -->
<g id="edge2" class="edge">
<title>Node2&#45;&gt;Node3</title>
<path fill="none" stroke="midnightblue" d="M286.34,-276.8C278.1,-321.5 251.65,-430.57 183,-485 178.22,-488.79 172.86,-491.87 167.21,-494.38"/>
<polygon fill="midnightblue" stroke="midnightblue" points="289.83,-277.12 288.09,-266.67 282.94,-275.93 289.83,-277.12"/>
</g>
<!-- Node4 -->
<g id="node4" class="node">
<title>Node4</title>
<g id="a_node4"><a xlink:href="../../d9/dbc/a01662.html#a3256514401d3f32608033a4c11646481" target="_top" xlink:title=" ">
<polygon fill="none" stroke="black" points="3,-456.5 3,-475.5 180,-475.5 180,-456.5 3,-456.5"/>
<text text-anchor="middle" x="91.5" y="-463.5" font-family="Helvetica,sans-Serif" font-size="10.00">com.cliffc.aa.HM.TestHM3.test01</text>
</a>
</g>
</g>
<!-- Node2&#45;&gt;Node4 -->
<g id="edge3" class="edge">
<title>Node2&#45;&gt;Node4</title>
<path fill="none" stroke="midnightblue" d="M284.4,-276.67C273.18,-315.79 242.49,-403.31 183,-447 177.82,-450.8 172.06,-453.88 166.01,-456.36"/>
<polygon fill="midnightblue" stroke="midnightblue" points="287.84,-277.37 287.11,-266.8 281.09,-275.51 287.84,-277.37"/>
</g>
<!-- Node5 -->
<g id="node5" class="node">
<title>Node5</title>
<g id="a_node5"><a xlink:href="../../d9/dbc/a01662.html#a747254b6703b4c84dc24be49c82a8f1b" target="_top" xlink:title=" ">
<polygon fill="none" stroke="black" points="3,-418.5 3,-437.5 180,-437.5 180,-418.5 3,-418.5"/>
<text text-anchor="middle" x="91.5" y="-425.5" font-family="Helvetica,sans-Serif" font-size="10.00">com.cliffc.aa.HM.TestHM3.test02</text>
</a>
</g>
</g>
<!-- Node2&#45;&gt;Node5 -->
<g id="edge4" class="edge">
<title>Node2&#45;&gt;Node5</title>
<path fill="none" stroke="midnightblue" d="M281.79,-276.11C267.51,-308.88 233.72,-375.53 183,-409 177.1,-412.89 170.56,-416.01 163.77,-418.5"/>
<polygon fill="midnightblue" stroke="midnightblue" points="285.08,-277.31 285.73,-266.74 278.62,-274.59 285.08,-277.31"/>
</g>
<!-- Node6 -->
<g id="node6" class="node">
<title>Node6</title>
<g id="a_node6"><a xlink:href="../../d9/dbc/a01662.html#a8773917561aa161ec9815a4c19946068" target="_top" xlink:title=" ">
<polygon fill="none" stroke="black" points="3,-380.5 3,-399.5 180,-399.5 180,-380.5 3,-380.5"/>
<text text-anchor="middle" x="91.5" y="-387.5" font-family="Helvetica,sans-Serif" font-size="10.00">com.cliffc.aa.HM.TestHM3.test03</text>
</a>
</g>
</g>
<!-- Node2&#45;&gt;Node6 -->
<g id="edge5" class="edge">
<title>Node2&#45;&gt;Node6</title>
<path fill="none" stroke="midnightblue" d="M277.86,-275.27C260.48,-300.94 225.24,-347.2 183,-371 176.15,-374.86 168.6,-377.94 160.88,-380.4"/>
<polygon fill="midnightblue" stroke="midnightblue" points="280.85,-277.1 283.43,-266.82 275,-273.24 280.85,-277.1"/>
</g>
<!-- Node7 -->
<g id="node7" class="node">
<title>Node7</title>
<g id="a_node7"><a xlink:href="../../d9/dbc/a01662.html#a8b3eb3a907fa523a05052a0ea76e9d78" target="_top" xlink:title=" ">
<polygon fill="none" stroke="black" points="3,-342.5 3,-361.5 180,-361.5 180,-342.5 3,-342.5"/>
<text text-anchor="middle" x="91.5" y="-349.5" font-family="Helvetica,sans-Serif" font-size="10.00">com.cliffc.aa.HM.TestHM3.test04</text>
</a>
</g>
</g>
<!-- Node2&#45;&gt;Node7 -->
<g id="edge6" class="edge">
<title>Node2&#45;&gt;Node7</title>
<path fill="none" stroke="midnightblue" d="M271.52,-273.43C251.44,-290.89 217.22,-317.99 183,-333 174.18,-336.87 164.52,-339.97 154.9,-342.45"/>
<polygon fill="midnightblue" stroke="midnightblue" points="274.06,-275.86 279.23,-266.61 269.42,-270.62 274.06,-275.86"/>
</g>
<!-- Node8 -->
<g id="node8" class="node">
<title>Node8</title>
<g id="a_node8"><a xlink:href="../../d9/dbc/a01662.html#a37b346122dabe29b2ecef35a7365382e" target="_top" xlink:title=" ">
<polygon fill="none" stroke="black" points="3,-304.5 3,-323.5 180,-323.5 180,-304.5 3,-304.5"/>
<text text-anchor="middle" x="91.5" y="-311.5" font-family="Helvetica,sans-Serif" font-size="10.00">com.cliffc.aa.HM.TestHM3.test05</text>
</a>
</g>
</g>
<!-- Node2&#45;&gt;Node8 -->
<g id="edge7" class="edge">
<title>Node2&#45;&gt;Node8</title>
<path fill="none" stroke="midnightblue" d="M256.34,-270.15C235.51,-278.07 207.96,-287.96 183,-295 170.48,-298.53 156.83,-301.73 144.01,-304.45"/>
<polygon fill="midnightblue" stroke="midnightblue" points="257.62,-273.4 265.69,-266.55 255.1,-266.87 257.62,-273.4"/>
</g>
<!-- Node9 -->
<g id="node9" class="node">
<title>Node9</title>
<g id="a_node9"><a xlink:href="../../d9/dbc/a01662.html#aa6697fd1180f682e9a94374bd39416a4" target="_top" xlink:title=" ">
<polygon fill="none" stroke="black" points="0,-266.5 0,-285.5 183,-285.5 183,-266.5 0,-266.5"/>
<text text-anchor="middle" x="91.5" y="-273.5" font-family="Helvetica,sans-Serif" font-size="10.00">com.cliffc.aa.HM.TestHM3.test05a</text>
</a>
</g>
</g>
<!-- Node2&#45;&gt;Node9 -->
<g id="edge8" class="edge">
<title>Node2&#45;&gt;Node9</title>
<path fill="none" stroke="midnightblue" d="M208.76,-264.79C200.33,-265.6 191.72,-266.43 183.19,-267.25"/>
<polygon fill="midnightblue" stroke="midnightblue" points="209.32,-268.25 218.93,-263.81 208.65,-261.28 209.32,-268.25"/>
</g>
<!-- Node10 -->
<g id="node10" class="node">
<title>Node10</title>
<g id="a_node10"><a xlink:href="../../d9/dbc/a01662.html#ab01bcfb3124511f31fd9af413a415198" target="_top" xlink:title=" ">
<polygon fill="none" stroke="black" points="3,-228.5 3,-247.5 180,-247.5 180,-228.5 3,-228.5"/>
<text text-anchor="middle" x="91.5" y="-235.5" font-family="Helvetica,sans-Serif" font-size="10.00">com.cliffc.aa.HM.TestHM3.test06</text>
</a>
</g>
</g>
<!-- Node2&#45;&gt;Node10 -->
<g id="edge9" class="edge">
<title>Node2&#45;&gt;Node10</title>
<path fill="none" stroke="midnightblue" d="M208.78,-249.22C199.33,-248.3 189.65,-247.37 180.11,-246.45"/>
<polygon fill="midnightblue" stroke="midnightblue" points="208.65,-252.72 218.93,-250.19 209.32,-245.75 208.65,-252.72"/>
</g>
<!-- Node11 -->
<g id="node11" class="node">
<title>Node11</title>
<g id="a_node11"><a xlink:href="../../d9/dbc/a01662.html#a9d2d1178c313bff66c4c79b15b1d5dc9" target="_top" xlink:title=" ">
<polygon fill="none" stroke="black" points="3,-190.5 3,-209.5 180,-209.5 180,-190.5 3,-190.5"/>
<text text-anchor="middle" x="91.5" y="-197.5" font-family="Helvetica,sans-Serif" font-size="10.00">com.cliffc.aa.HM.TestHM3.test07</text>
</a>
</g>
</g>
<!-- Node2&#45;&gt;Node11 -->
<g id="edge10" class="edge">
<title>Node2&#45;&gt;Node11</title>
<path fill="none" stroke="midnightblue" d="M256.34,-243.85C235.51,-235.93 207.96,-226.04 183,-219 170.48,-215.47 156.83,-212.27 144.01,-209.55"/>
<polygon fill="midnightblue" stroke="midnightblue" points="255.1,-247.13 265.69,-247.45 257.62,-240.6 255.1,-247.13"/>
</g>
<!-- Node12 -->
<g id="node12" class="node">
<title>Node12</title>
<g id="a_node12"><a xlink:href="../../d9/dbc/a01662.html#a03350afe32ce469178289fcc4d276d02" target="_top" xlink:title=" ">
<polygon fill="none" stroke="black" points="3,-152.5 3,-171.5 180,-171.5 180,-152.5 3,-152.5"/>
<text text-anchor="middle" x="91.5" y="-159.5" font-family="Helvetica,sans-Serif" font-size="10.00">com.cliffc.aa.HM.TestHM3.test08</text>
</a>
</g>
</g>
<!-- Node2&#45;&gt;Node12 -->
<g id="edge11" class="edge">
<title>Node2&#45;&gt;Node12</title>
<path fill="none" stroke="midnightblue" d="M271.52,-240.57C251.44,-223.11 217.22,-196.01 183,-181 174.18,-177.13 164.52,-174.03 154.9,-171.55"/>
<polygon fill="midnightblue" stroke="midnightblue" points="269.42,-243.38 279.23,-247.39 274.06,-238.14 269.42,-243.38"/>
</g>
<!-- Node13 -->
<g id="node13" class="node">
<title>Node13</title>
<g id="a_node13"><a xlink:href="../../d9/dbc/a01662.html#a62185dd7833389684f461e978d5f780c" target="_top" xlink:title=" ">
<polygon fill="none" stroke="black" points="3,-114.5 3,-133.5 180,-133.5 180,-114.5 3,-114.5"/>
<text text-anchor="middle" x="91.5" y="-121.5" font-family="Helvetica,sans-Serif" font-size="10.00">com.cliffc.aa.HM.TestHM3.test09</text>
</a>
</g>
</g>
<!-- Node2&#45;&gt;Node13 -->
<g id="edge12" class="edge">
<title>Node2&#45;&gt;Node13</title>
<path fill="none" stroke="midnightblue" d="M277.86,-238.73C260.48,-213.06 225.24,-166.8 183,-143 176.15,-139.14 168.6,-136.06 160.88,-133.6"/>
<polygon fill="midnightblue" stroke="midnightblue" points="275,-240.76 283.43,-247.18 280.85,-236.9 275,-240.76"/>
</g>
<!-- Node14 -->
<g id="node14" class="node">
<title>Node14</title>
<g id="a_node14"><a xlink:href="../../d9/dbc/a01662.html#a957df9a011a84aebc502597cfe9a8739" target="_top" xlink:title=" ">
<polygon fill="none" stroke="black" points="3,-76.5 3,-95.5 180,-95.5 180,-76.5 3,-76.5"/>
<text text-anchor="middle" x="91.5" y="-83.5" font-family="Helvetica,sans-Serif" font-size="10.00">com.cliffc.aa.HM.TestHM3.test10</text>
</a>
</g>
</g>
<!-- Node2&#45;&gt;Node14 -->
<g id="edge13" class="edge">
<title>Node2&#45;&gt;Node14</title>
<path fill="none" stroke="midnightblue" d="M281.79,-237.89C267.51,-205.12 233.72,-138.47 183,-105 177.1,-101.11 170.56,-97.99 163.77,-95.5"/>
<polygon fill="midnightblue" stroke="midnightblue" points="278.62,-239.41 285.73,-247.26 285.08,-236.69 278.62,-239.41"/>
</g>
<!-- Node15 -->
<g id="node15" class="node">
<title>Node15</title>
<g id="a_node15"><a xlink:href="../../d9/dbc/a01662.html#ab4303a069c51c997a15f3af8436e45b5" target="_top" xlink:title=" ">
<polygon fill="none" stroke="black" points="3,-38.5 3,-57.5 180,-57.5 180,-38.5 3,-38.5"/>
<text text-anchor="middle" x="91.5" y="-45.5" font-family="Helvetica,sans-Serif" font-size="10.00">com.cliffc.aa.HM.TestHM3.test11</text>
</a>
</g>
</g>
<!-- Node2&#45;&gt;Node15 -->
<g id="edge14" class="edge">
<title>Node2&#45;&gt;Node15</title>
<path fill="none" stroke="midnightblue" d="M284.4,-237.33C273.18,-198.21 242.49,-110.69 183,-67 177.82,-63.2 172.06,-60.12 166.01,-57.64"/>
<polygon fill="midnightblue" stroke="midnightblue" points="281.09,-238.49 287.11,-247.2 287.84,-236.63 281.09,-238.49"/>
</g>
<!-- Node16 -->
<g id="node16" class="node">
<title>Node16</title>
<g id="a_node16"><a xlink:href="../../d9/dbc/a01662.html#a2a73da8276c2421c21f36a08abb6f6ad" target="_top" xlink:title=" ">
<polygon fill="none" stroke="black" points="3,-0.5 3,-19.5 180,-19.5 180,-0.5 3,-0.5"/>
<text text-anchor="middle" x="91.5" y="-7.5" font-family="Helvetica,sans-Serif" font-size="10.00">com.cliffc.aa.HM.TestHM3.test12</text>
</a>
</g>
</g>
<!-- Node2&#45;&gt;Node16 -->
<g id="edge15" class="edge">
<title>Node2&#45;&gt;Node16</title>
<path fill="none" stroke="midnightblue" d="M286.34,-237.2C278.1,-192.5 251.65,-83.43 183,-29 178.22,-25.21 172.86,-22.13 167.21,-19.62"/>
<polygon fill="midnightblue" stroke="midnightblue" points="282.94,-238.07 288.09,-247.33 289.83,-236.88 282.94,-238.07"/>
</g>
</g>
</svg>
        <g id="navigator" transform="translate(0 0)" fill="#404254">
                <rect fill="#f2f5e9" fill-opacity="0.5" stroke="#606060" stroke-width=".5" x="0" y="0" width="60" height="60"/>
                <use id="zoomplus" xlink:href="#zoomPlus" x="17" y="9" onmousedown="handleZoom(evt,'in')"/>
                <use id="zoomminus" xlink:href="#zoomMin" x="42" y="9" onmousedown="handleZoom(evt,'out')"/>
                <use id="reset" xlink:href="#resetDef" x="30" y="36" onmousedown="handleReset()"/>
                <g id="arrowUp" xlink:href="#dirArrow" transform="translate(30 24)" onmousedown="handlePan(0,-1)">
                  <use xlink:href="#rim" fill="#404040">
                        <set attributeName="fill" to="#808080" begin="arrowUp.mouseover" end="arrowUp.mouseout"/>
                  </use>
                  <path fill="none" stroke="white" stroke-width="1.5" d="M0,-3.0v7 M-2.5,-0.5L0,-3.0L2.5,-0.5"/>
                </g>
                <g id="arrowRight" xlink:href="#dirArrow" transform="rotate(90) translate(36 -43)" onmousedown="handlePan(1,0)">
                  <use xlink:href="#rim" fill="#404040">
                        <set attributeName="fill" to="#808080" begin="arrowRight.mouseover" end="arrowRight.mouseout"/>
                  </use>
                  <path fill="none" stroke="white" stroke-width="1.5" d="M0,-3.0v7 M-2.5,-0.5L0,-3.0L2.5,-0.5"/>
                </g>
                <g id="arrowDown" xlink:href="#dirArrow" transform="rotate(180) translate(-30 -48)" onmousedown="handlePan(0,1)">
                  <use xlink:href="#rim" fill="#404040">
                        <set attributeName="fill" to="#808080" begin="arrowDown.mouseover" end="arrowDown.mouseout"/>
                  </use>
                  <path fill="none" stroke="white" stroke-width="1.5" d="M0,-3.0v7 M-2.5,-0.5L0,-3.0L2.5,-0.5"/>
                </g>
                <g id="arrowLeft" xlink:href="#dirArrow" transform="rotate(270) translate(-36 17)" onmousedown="handlePan(-1,0)">
                  <use xlink:href="#rim" fill="#404040">
                        <set attributeName="fill" to="#808080" begin="arrowLeft.mouseover" end="arrowLeft.mouseout"/>
                  </use>
                  <path fill="none" stroke="white" stroke-width="1.5" d="M0,-3.0v7 M-2.5,-0.5L0,-3.0L2.5,-0.5"/>
                </g>
        </g>
        <svg viewBox="0 0 15 15" width="100%" height="30px" preserveAspectRatio="xMaxYMin meet">
         <g id="arrow_out" transform="scale(0.3 0.3)">
          <a xlink:href="a00614_a9590a4a7ea9023fa588546939000e670_icgraph_org.svg" target="_base">
           <rect id="button" ry="5" rx="5" y="6" x="6" height="38" width="38"
                fill="#f2f5e9" fill-opacity="0.5" stroke="#606060" stroke-width="1.0"/>
           <path id="arrow"
             d="M 11.500037,31.436501 C 11.940474,20.09759 22.043105,11.32322 32.158766,21.979434 L 37.068811,17.246167 C 37.068811,17.246167 37.088388,32 37.088388,32 L 22.160133,31.978069 C 22.160133,31.978069 26.997745,27.140456 26.997745,27.140456 C 18.528582,18.264221 13.291696,25.230495 11.500037,31.436501 z"
             style="fill:#404040;"/>
          </a>
         </g>
        </svg>
</svg>
