<?xml version="1.0" encoding="UTF-8" standalone="no"?>
<!DOCTYPE svg PUBLIC "-//W3C//DTD SVG 1.1//EN"
 "http://www.w3.org/Graphics/SVG/1.1/DTD/svg11.dtd">
<!-- Generated by graphviz version 2.43.0 (0)
 -->
<!-- Title: com.cliffc.aa.type.BitsRPC.make0 Pages: 1 -->
<svg width="404pt" height="46pt"
 viewBox="0.00 0.00 404.00 46.00" xmlns="http://www.w3.org/2000/svg" xmlns:xlink="http://www.w3.org/1999/xlink">
<g id="graph0" class="graph" transform="scale(1 1) rotate(0) translate(4 42)">
<title>com.cliffc.aa.type.BitsRPC.make0</title>
<!-- Node1 -->
<g id="node1" class="node">
<title>Node1</title>
<g id="a_node1"><a xlink:title=" ">
<polygon fill="#bfbfbf" stroke="black" points="215,-0.5 215,-19.5 396,-19.5 396,-0.5 215,-0.5"/>
<text text-anchor="middle" x="305.5" y="-7.5" font-family="Helvetica,sans-Serif" font-size="10.00">com.cliffc.aa.type.BitsRPC.make0</text>
</a>
</g>
</g>
<!-- Node2 -->
<g id="node2" class="node">
<title>Node2</title>
<g id="a_node2"><a xlink:href="../../db/d57/a01506.html#a6072e288481291a8709b35b74f4f4282" target="_top" xlink:title=" ">
<polygon fill="none" stroke="black" points="0,-0.5 0,-19.5 179,-19.5 179,-0.5 0,-0.5"/>
<text text-anchor="middle" x="89.5" y="-7.5" font-family="Helvetica,sans-Serif" font-size="10.00">com.cliffc.aa.type.TypeRPC.make</text>
</a>
</g>
</g>
<!-- Node1&#45;&gt;Node2 -->
<g id="edge1" class="edge">
<title>Node1&#45;&gt;Node2</title>
<path fill="none" stroke="midnightblue" d="M204.98,-10C196.41,-10 187.78,-10 179.31,-10"/>
<polygon fill="midnightblue" stroke="midnightblue" points="204.98,-13.5 214.98,-10 204.98,-6.5 204.98,-13.5"/>
</g>
<!-- Node2&#45;&gt;Node2 -->
<g id="edge2" class="edge">
<title>Node2&#45;&gt;Node2</title>
<path fill="none" stroke="midnightblue" d="M129.9,-26.62C131.31,-32.86 117.85,-38 89.5,-38 50.9,-38 39.89,-28.46 56.48,-19.61"/>
<polygon fill="midnightblue" stroke="midnightblue" points="132.18,-23.96 122.52,-19.61 127.36,-29.04 132.18,-23.96"/>
</g>
</g>
</svg>
