<?xml version="1.0" encoding="UTF-8" standalone="no"?>
<!DOCTYPE svg PUBLIC "-//W3C//DTD SVG 1.1//EN"
 "http://www.w3.org/Graphics/SVG/1.1/DTD/svg11.dtd">
<!-- Generated by graphviz version 2.43.0 (0)
 -->
<!-- Title: com.cliffc.aa.HM.HM2.Oper.union Pages: 1 -->
<svg width="419pt" height="66pt"
 viewBox="0.00 0.00 419.00 66.00" xmlns="http://www.w3.org/2000/svg" xmlns:xlink="http://www.w3.org/1999/xlink">
<g id="graph0" class="graph" transform="scale(1 1) rotate(0) translate(4 62)">
<title>com.cliffc.aa.HM.HM2.Oper.union</title>
<!-- Node1 -->
<g id="node1" class="node">
<title>Node1</title>
<g id="a_node1"><a xlink:title=" ">
<polygon fill="#bfbfbf" stroke="black" points="0,-19.5 0,-38.5 179,-38.5 179,-19.5 0,-19.5"/>
<text text-anchor="middle" x="89.5" y="-26.5" font-family="Helvetica,sans-Serif" font-size="10.00">com.cliffc.aa.HM.HM2.Oper.union</text>
</a>
</g>
</g>
<!-- Node2 -->
<g id="node2" class="node">
<title>Node2</title>
<g id="a_node2"><a xlink:href="../../d7/dd2/a00598.html#afb9a8fa7b835beb651547304bacf725c" target="_top" xlink:title=" ">
<polygon fill="none" stroke="black" points="225,-38.5 225,-57.5 401,-57.5 401,-38.5 225,-38.5"/>
<text text-anchor="middle" x="313" y="-45.5" font-family="Helvetica,sans-Serif" font-size="10.00">com.cliffc.aa.HM.HM2.Oper.Oper</text>
</a>
</g>
</g>
<!-- Node1&#45;&gt;Node2 -->
<g id="edge1" class="edge">
<title>Node1&#45;&gt;Node2</title>
<path fill="none" stroke="midnightblue" d="M179.32,-36.62C190.95,-37.62 202.92,-38.64 214.69,-39.65"/>
<polygon fill="midnightblue" stroke="midnightblue" points="214.7,-43.17 224.97,-40.53 215.3,-36.19 214.7,-43.17"/>
</g>
<!-- Node3 -->
<g id="node3" class="node">
<title>Node3</title>
<g id="a_node3"><a xlink:href="../../d7/db1/a00590.html#a7869f59a4e57fbef71d345970779838e" target="_top" xlink:title=" ">
<polygon fill="none" stroke="black" points="215,-0.5 215,-19.5 411,-19.5 411,-0.5 215,-0.5"/>
<text text-anchor="middle" x="313" y="-7.5" font-family="Helvetica,sans-Serif" font-size="10.00">com.cliffc.aa.HM.HM2.HMType.union</text>
</a>
</g>
</g>
<!-- Node1&#45;&gt;Node3 -->
<g id="edge2" class="edge">
<title>Node1&#45;&gt;Node3</title>
<path fill="none" stroke="midnightblue" d="M179.32,-21.38C187.71,-20.66 196.27,-19.93 204.81,-19.19"/>
<polygon fill="midnightblue" stroke="midnightblue" points="205.14,-22.68 214.81,-18.34 204.55,-15.7 205.14,-22.68"/>
</g>
</g>
</svg>
