<?xml version="1.0" encoding="UTF-8" standalone="no"?>
<!DOCTYPE svg PUBLIC "-//W3C//DTD SVG 1.1//EN"
 "http://www.w3.org/Graphics/SVG/1.1/DTD/svg11.dtd">
<!-- Generated by graphviz version 2.43.0 (0)
 -->
<!-- Title: com.cliffc.aa.HM.HM9.NotNil.apply Pages: 1 -->
<!--zoomable 166 -->
<svg id="main" version="1.1" xmlns="http://www.w3.org/2000/svg" xmlns:xlink="http://www.w3.org/1999/xlink" xml:space="preserve" onload="init(evt)">
<style type="text/css"><![CDATA[
.edge:hover path { stroke: red; }
.edge:hover polygon { stroke: red; fill: red; }
]]></style>
<script type="text/javascript"><![CDATA[
var edges = document.getElementsByTagName('g');
if (edges && edges.length) {
  for (var i=0;i<edges.length;i++) {
    if (edges[i].id.substr(0,4)=='edge') {
      edges[i].setAttribute('class','edge');
    }
  }
}
]]></script>
        <defs>
                <circle id="rim" cx="0" cy="0" r="7"/>
                <circle id="rim2" cx="0" cy="0" r="3.5"/>
                <g id="zoomPlus">
                        <use xlink:href="#rim" fill="#404040">
                                <set attributeName="fill" to="#808080" begin="zoomplus.mouseover" end="zoomplus.mouseout"/>
                        </use>
                        <path d="M-4,0h8M0,-4v8" fill="none" stroke="white" stroke-width="1.5" pointer-events="none"/>
                </g>
                <g id="zoomMin">
                        <use xlink:href="#rim" fill="#404040">
                                <set attributeName="fill" to="#808080" begin="zoomminus.mouseover" end="zoomminus.mouseout"/>
                        </use>
                        <path d="M-4,0h8" fill="none" stroke="white" stroke-width="1.5" pointer-events="none"/>
                </g>
                <g id="dirArrow">
                        <path fill="none" stroke="white" stroke-width="1.5" d="M0,-3.0v7 M-2.5,-0.5L0,-3.0L2.5,-0.5"/>
                </g>
               <g id="resetDef">
                       <use xlink:href="#rim2" fill="#404040">
                               <set attributeName="fill" to="#808080" begin="reset.mouseover" end="reset.mouseout"/>
                       </use>
               </g>
        </defs>

<script type="text/javascript">
var viewWidth = 975;
var viewHeight = 166;
var sectionId = 'dynsection-5';
</script>
<script xlink:href="../../svgpan.js"/>
<svg id="graph" class="graph">
<g id="viewport">
<title>com.cliffc.aa.HM.HM9.NotNil.apply</title>
<!-- Node1 -->
<g id="node1" class="node">
<title>Node1</title>
<g id="a_node1"><a xlink:title=" ">
<polygon fill="#bfbfbf" stroke="black" points="0,-99.5 0,-129.5 144,-129.5 144,-99.5 0,-99.5"/>
<text text-anchor="start" x="8" y="-117.5" font-family="Helvetica,sans-Serif" font-size="10.00">com.cliffc.aa.HM.HM9.Not</text>
<text text-anchor="middle" x="72" y="-106.5" font-family="Helvetica,sans-Serif" font-size="10.00">Nil.apply</text>
</a>
</g>
</g>
<!-- Node2 -->
<g id="node2" class="node">
<title>Node2</title>
<g id="a_node2"><a xlink:href="../../d0/de2/a01442.html#a8ca47b43ab89089bd312510730041561" target="_top" xlink:title=" ">
<polygon fill="none" stroke="black" points="197,-124 197,-143 347,-143 347,-124 197,-124"/>
<text text-anchor="middle" x="272" y="-131" font-family="Helvetica,sans-Serif" font-size="10.00">com.cliffc.aa.type.Type.join</text>
</a>
</g>
</g>
<!-- Node1&#45;&gt;Node2 -->
<g id="edge1" class="edge">
<title>Node1&#45;&gt;Node2</title>
<path fill="none" stroke="midnightblue" d="M144.2,-121.33C157.94,-122.65 172.46,-124.04 186.57,-125.4"/>
<polygon fill="midnightblue" stroke="midnightblue" points="186.47,-128.9 196.76,-126.38 187.14,-121.94 186.47,-128.9"/>
</g>
<!-- Node3 -->
<g id="node3" class="node">
<title>Node3</title>
<g id="a_node3"><a xlink:href="../../d0/ddf/a00918.html#acd5f8b2e2d6dff6d101ef3bf4074e01a" target="_top" xlink:title=" ">
<polygon fill="none" stroke="black" points="180,-86 180,-105 364,-105 364,-86 180,-86"/>
<text text-anchor="middle" x="272" y="-93" font-family="Helvetica,sans-Serif" font-size="10.00">com.cliffc.aa.HM.HM9.Lambda.val</text>
</a>
</g>
</g>
<!-- Node1&#45;&gt;Node3 -->
<g id="edge2" class="edge">
<title>Node1&#45;&gt;Node3</title>
<path fill="none" stroke="midnightblue" d="M144.2,-107.67C152.49,-106.87 161.06,-106.05 169.65,-105.23"/>
<polygon fill="midnightblue" stroke="midnightblue" points="170.12,-108.7 179.74,-104.26 169.45,-101.73 170.12,-108.7"/>
</g>
<!-- Node4 -->
<g id="node4" class="node">
<title>Node4</title>
<g id="a_node4"><a xlink:href="../../d8/d7b/a01478.html#abfcb13c82cfef03b54961c47de257834" target="_top" xlink:title=" ">
<polygon fill="none" stroke="black" points="400,-80.5 400,-110.5 546,-110.5 546,-80.5 400,-80.5"/>
<text text-anchor="start" x="408" y="-98.5" font-family="Helvetica,sans-Serif" font-size="10.00">com.cliffc.aa.type.TypeFun</text>
<text text-anchor="middle" x="473" y="-87.5" font-family="Helvetica,sans-Serif" font-size="10.00">Ptr.make</text>
</a>
</g>
</g>
<!-- Node3&#45;&gt;Node4 -->
<g id="edge3" class="edge">
<title>Node3&#45;&gt;Node4</title>
<path fill="none" stroke="midnightblue" d="M364.06,-95.5C372.57,-95.5 381.16,-95.5 389.59,-95.5"/>
<polygon fill="midnightblue" stroke="midnightblue" points="389.77,-99 399.77,-95.5 389.77,-92 389.77,-99"/>
</g>
<!-- Node5 -->
<g id="node5" class="node">
<title>Node5</title>
<g id="a_node5"><a xlink:href="../../d8/d7b/a01478.html#aa25e7fb4217a6c132391f58312f06ec2" target="_top" xlink:title=" ">
<polygon fill="none" stroke="black" points="821,-99.5 821,-129.5 967,-129.5 967,-99.5 821,-99.5"/>
<text text-anchor="start" x="829" y="-117.5" font-family="Helvetica,sans-Serif" font-size="10.00">com.cliffc.aa.type.TypeFun</text>
<text text-anchor="middle" x="894" y="-106.5" font-family="Helvetica,sans-Serif" font-size="10.00">Ptr.fidxs</text>
</a>
</g>
</g>
<!-- Node4&#45;&gt;Node5 -->
<g id="edge4" class="edge">
<title>Node4&#45;&gt;Node5</title>
<path fill="none" stroke="midnightblue" d="M498.65,-110.69C519.86,-122.81 551.73,-138.83 582,-145.5 670.11,-164.91 695.66,-158.07 785,-145.5 803.57,-142.89 823.42,-137.87 840.98,-132.61"/>
<polygon fill="midnightblue" stroke="midnightblue" points="842.5,-135.81 851.02,-129.51 840.43,-129.12 842.5,-135.81"/>
</g>
<!-- Node6 -->
<g id="node6" class="node">
<title>Node6</title>
<g id="a_node6"><a xlink:href="../../d0/de2/a01442.html#a8fe8d556e45e6b654f3ac87f118ac8de" target="_top" xlink:title=" ">
<polygon fill="none" stroke="black" points="582,-117 582,-136 785,-136 785,-117 582,-117"/>
<text text-anchor="middle" x="683.5" y="-124" font-family="Helvetica,sans-Serif" font-size="10.00">com.cliffc.aa.type.Type.hashcons_free</text>
</a>
</g>
</g>
<!-- Node4&#45;&gt;Node6 -->
<g id="edge5" class="edge">
<title>Node4&#45;&gt;Node6</title>
<path fill="none" stroke="midnightblue" d="M546.05,-106.21C566.18,-109.21 588.1,-112.46 608.36,-115.48"/>
<polygon fill="midnightblue" stroke="midnightblue" points="608.06,-118.97 618.47,-116.98 609.09,-112.05 608.06,-118.97"/>
</g>
<!-- Node7 -->
<g id="node7" class="node">
<title>Node7</title>
<g id="a_node7"><a xlink:href="../../d8/d7b/a01478.html#a42f8ada06bc493d5b138d77c6370b64c" target="_top" xlink:title=" ">
<polygon fill="none" stroke="black" points="610.5,-49.5 610.5,-79.5 756.5,-79.5 756.5,-49.5 610.5,-49.5"/>
<text text-anchor="start" x="618.5" y="-67.5" font-family="Helvetica,sans-Serif" font-size="10.00">com.cliffc.aa.type.TypeFun</text>
<text text-anchor="middle" x="683.5" y="-56.5" font-family="Helvetica,sans-Serif" font-size="10.00">Ptr.init</text>
</a>
</g>
</g>
<!-- Node4&#45;&gt;Node7 -->
<g id="edge6" class="edge">
<title>Node4&#45;&gt;Node7</title>
<path fill="none" stroke="midnightblue" d="M546.05,-84.79C563.54,-82.19 582.38,-79.39 600.31,-76.72"/>
<polygon fill="midnightblue" stroke="midnightblue" points="601.07,-80.14 610.45,-75.21 600.05,-73.22 601.07,-80.14"/>
</g>
<!-- Node8 -->
<g id="node8" class="node">
<title>Node8</title>
<g id="a_node8"><a xlink:href="../../d0/de2/a01442.html#a64703347bc6c4282358a7bd95493a922" target="_top" xlink:title=" ">
<polygon fill="none" stroke="black" points="613.5,-0.5 613.5,-30.5 753.5,-30.5 753.5,-0.5 613.5,-0.5"/>
<text text-anchor="start" x="621.5" y="-18.5" font-family="Helvetica,sans-Serif" font-size="10.00">com.cliffc.aa.type.Type.is</text>
<text text-anchor="middle" x="683.5" y="-7.5" font-family="Helvetica,sans-Serif" font-size="10.00">_display_ptr</text>
</a>
</g>
</g>
<!-- Node4&#45;&gt;Node8 -->
<g id="edge9" class="edge">
<title>Node4&#45;&gt;Node8</title>
<path fill="none" stroke="midnightblue" d="M499.44,-80.46C520.86,-68.3 552.63,-51.47 582,-40.5 588.89,-37.93 596.14,-35.54 603.47,-33.34"/>
<polygon fill="midnightblue" stroke="midnightblue" points="604.83,-36.59 613.48,-30.46 602.9,-29.86 604.83,-36.59"/>
</g>
<!-- Node7&#45;&gt;Node5 -->
<g id="edge7" class="edge">
<title>Node7&#45;&gt;Node5</title>
<path fill="none" stroke="midnightblue" d="M747.06,-79.5C770.15,-85.04 796.5,-91.36 820.4,-97.09"/>
<polygon fill="midnightblue" stroke="midnightblue" points="819.59,-100.49 830.13,-99.42 821.22,-93.69 819.59,-100.49"/>
</g>
<!-- Node7&#45;&gt;Node7 -->
<g id="edge8" class="edge">
<title>Node7&#45;&gt;Node7</title>
<path fill="none" stroke="midnightblue" d="M646.9,-79.66C638.08,-89.06 650.28,-98 683.5,-98 703.75,-98 716.18,-94.68 720.81,-89.96"/>
<polygon fill="midnightblue" stroke="midnightblue" points="724.28,-89.39 720.1,-79.66 717.3,-89.88 724.28,-89.39"/>
</g>
</g>
</svg>
        <g id="navigator" transform="translate(0 0)" fill="#404254">
                <rect fill="#f2f5e9" fill-opacity="0.5" stroke="#606060" stroke-width=".5" x="0" y="0" width="60" height="60"/>
                <use id="zoomplus" xlink:href="#zoomPlus" x="17" y="9" onmousedown="handleZoom(evt,'in')"/>
                <use id="zoomminus" xlink:href="#zoomMin" x="42" y="9" onmousedown="handleZoom(evt,'out')"/>
                <use id="reset" xlink:href="#resetDef" x="30" y="36" onmousedown="handleReset()"/>
                <g id="arrowUp" xlink:href="#dirArrow" transform="translate(30 24)" onmousedown="handlePan(0,-1)">
                  <use xlink:href="#rim" fill="#404040">
                        <set attributeName="fill" to="#808080" begin="arrowUp.mouseover" end="arrowUp.mouseout"/>
                  </use>
                  <path fill="none" stroke="white" stroke-width="1.5" d="M0,-3.0v7 M-2.5,-0.5L0,-3.0L2.5,-0.5"/>
                </g>
                <g id="arrowRight" xlink:href="#dirArrow" transform="rotate(90) translate(36 -43)" onmousedown="handlePan(1,0)">
                  <use xlink:href="#rim" fill="#404040">
                        <set attributeName="fill" to="#808080" begin="arrowRight.mouseover" end="arrowRight.mouseout"/>
                  </use>
                  <path fill="none" stroke="white" stroke-width="1.5" d="M0,-3.0v7 M-2.5,-0.5L0,-3.0L2.5,-0.5"/>
                </g>
                <g id="arrowDown" xlink:href="#dirArrow" transform="rotate(180) translate(-30 -48)" onmousedown="handlePan(0,1)">
                  <use xlink:href="#rim" fill="#404040">
                        <set attributeName="fill" to="#808080" begin="arrowDown.mouseover" end="arrowDown.mouseout"/>
                  </use>
                  <path fill="none" stroke="white" stroke-width="1.5" d="M0,-3.0v7 M-2.5,-0.5L0,-3.0L2.5,-0.5"/>
                </g>
                <g id="arrowLeft" xlink:href="#dirArrow" transform="rotate(270) translate(-36 17)" onmousedown="handlePan(-1,0)">
                  <use xlink:href="#rim" fill="#404040">
                        <set attributeName="fill" to="#808080" begin="arrowLeft.mouseover" end="arrowLeft.mouseout"/>
                  </use>
                  <path fill="none" stroke="white" stroke-width="1.5" d="M0,-3.0v7 M-2.5,-0.5L0,-3.0L2.5,-0.5"/>
                </g>
        </g>
        <svg viewBox="0 0 15 15" width="100%" height="30px" preserveAspectRatio="xMaxYMin meet">
         <g id="arrow_out" transform="scale(0.3 0.3)">
          <a xlink:href="a00978_a572b7a883d4ba570c33d121d8154ea15_cgraph_org.svg" target="_base">
           <rect id="button" ry="5" rx="5" y="6" x="6" height="38" width="38"
                fill="#f2f5e9" fill-opacity="0.5" stroke="#606060" stroke-width="1.0"/>
           <path id="arrow"
             d="M 11.500037,31.436501 C 11.940474,20.09759 22.043105,11.32322 32.158766,21.979434 L 37.068811,17.246167 C 37.068811,17.246167 37.088388,32 37.088388,32 L 22.160133,31.978069 C 22.160133,31.978069 26.997745,27.140456 26.997745,27.140456 C 18.528582,18.264221 13.291696,25.230495 11.500037,31.436501 z"
             style="fill:#404040;"/>
          </a>
         </g>
        </svg>
</svg>
