<?xml version="1.0" encoding="UTF-8" standalone="no"?>
<!DOCTYPE svg PUBLIC "-//W3C//DTD SVG 1.1//EN"
 "http://www.w3.org/Graphics/SVG/1.1/DTD/svg11.dtd">
<!-- Generated by graphviz version 2.43.0 (0)
 -->
<!-- Title: com.cliffc.aa.tvar.UQNodes Pages: 1 -->
<svg width="1996pt" height="1141pt"
 viewBox="0.00 0.00 1996.00 1140.96" xmlns="http://www.w3.org/2000/svg" xmlns:xlink="http://www.w3.org/1999/xlink">
<g id="graph0" class="graph" transform="scale(1 1) rotate(0) translate(4 1136.96)">
<title>com.cliffc.aa.tvar.UQNodes</title>
<!-- Node1 -->
<g id="node1" class="node">
<title>Node1</title>
<g id="a_node1"><a xlink:title=" ">
<polygon fill="#bfbfbf" stroke="black" points="1839,-206.85 1839,-225.85 1988,-225.85 1988,-206.85 1839,-206.85"/>
<text text-anchor="middle" x="1913.5" y="-213.85" font-family="Helvetica,sans-Serif" font-size="10.00">com.cliffc.aa.tvar.UQNodes</text>
</a>
</g>
</g>
<!-- Node1&#45;&gt;Node1 -->
<g id="edge50" class="edge">
<title>Node1&#45;&gt;Node1</title>
<path fill="none" stroke="#9a32cd" stroke-dasharray="5,2" d="M1892.76,-235.75C1894.15,-240.67 1901.06,-244.35 1913.5,-244.35 1933.41,-244.35 1939.16,-234.92 1930.76,-226.11"/>
<polygon fill="#9a32cd" stroke="#9a32cd" points="1896.14,-236.7 1896.24,-226.11 1889.55,-234.33 1896.14,-236.7"/>
<text text-anchor="middle" x="1913.5" y="-247.35" font-family="Helvetica,sans-Serif" font-size="10.00"> KEY</text>
</g>
<!-- Node2 -->
<g id="node2" class="node">
<title>Node2</title>
<g id="a_node2"><a xlink:href="../../d3/d2d/a01606.html" target="_top" xlink:title=" ">
<polygon fill="none" stroke="black" points="1574.5,-201.35 1574.5,-231.35 1736.5,-231.35 1736.5,-201.35 1574.5,-201.35"/>
<text text-anchor="start" x="1582.5" y="-219.35" font-family="Helvetica,sans-Serif" font-size="10.00">com.cliffc.aa.util.NonBlocking</text>
<text text-anchor="middle" x="1655.5" y="-208.35" font-family="Helvetica,sans-Serif" font-size="10.00">HashMapLong&lt; Node &gt;</text>
</a>
</g>
</g>
<!-- Node2&#45;&gt;Node1 -->
<g id="edge1" class="edge">
<title>Node2&#45;&gt;Node1</title>
<path fill="none" stroke="midnightblue" d="M1746.85,-216.35C1776.88,-216.35 1809.94,-216.35 1838.58,-216.35"/>
<polygon fill="midnightblue" stroke="midnightblue" points="1746.8,-212.85 1736.8,-216.35 1746.8,-219.85 1746.8,-212.85"/>
</g>
<!-- Node3 -->
<g id="node3" class="node">
<title>Node3</title>
<g id="a_node3"><a xlink:href="../../d3/d2d/a01606.html" target="_top" xlink:title="A lock&#45;free alternate implementation of java.util.concurrent.ConcurrentHashMap with primitive long ke...">
<polygon fill="none" stroke="black" points="1217.5,-656.35 1217.5,-686.35 1379.5,-686.35 1379.5,-656.35 1217.5,-656.35"/>
<text text-anchor="start" x="1225.5" y="-674.35" font-family="Helvetica,sans-Serif" font-size="10.00">com.cliffc.aa.util.NonBlocking</text>
<text text-anchor="middle" x="1298.5" y="-663.35" font-family="Helvetica,sans-Serif" font-size="10.00">HashMapLong&lt; TypeV &gt;</text>
</a>
</g>
</g>
<!-- Node3&#45;&gt;Node2 -->
<g id="edge2" class="edge">
<title>Node3&#45;&gt;Node2</title>
<path fill="none" stroke="orange" stroke-dasharray="5,2" d="M1317.62,-648.13C1380.81,-567.13 1590.44,-298.46 1642.64,-231.55"/>
<polygon fill="orange" stroke="orange" points="1314.7,-646.18 1311.31,-656.21 1320.22,-650.48 1314.7,-646.18"/>
<text text-anchor="middle" x="1468" y="-539.35" font-family="Helvetica,sans-Serif" font-size="10.00"> &lt; Node &gt;</text>
</g>
<!-- Node8 -->
<g id="node8" class="node">
<title>Node8</title>
<g id="a_node8"><a xlink:href="../../db/d7c/a01614.html" target="_top" xlink:title=" ">
<polygon fill="none" stroke="black" points="1573.5,-764.35 1573.5,-794.35 1737.5,-794.35 1737.5,-764.35 1573.5,-764.35"/>
<text text-anchor="start" x="1581.5" y="-782.35" font-family="Helvetica,sans-Serif" font-size="10.00">com.cliffc.aa.util.NonBlocking</text>
<text text-anchor="middle" x="1655.5" y="-771.35" font-family="Helvetica,sans-Serif" font-size="10.00">HashMapLong&lt; TypeV &gt;.CHM</text>
</a>
</g>
</g>
<!-- Node3&#45;&gt;Node8 -->
<g id="edge17" class="edge">
<title>Node3&#45;&gt;Node8</title>
<path fill="none" stroke="#9a32cd" stroke-dasharray="5,2" d="M1389.8,-659.42C1434.27,-656.97 1487.89,-659.25 1533,-676.35 1580.84,-694.48 1622.99,-740.2 1642.69,-764.16"/>
<polygon fill="#9a32cd" stroke="#9a32cd" points="1389.34,-655.94 1379.58,-660.07 1389.78,-662.93 1389.34,-655.94"/>
<text text-anchor="middle" x="1468" y="-679.35" font-family="Helvetica,sans-Serif" font-size="10.00"> _nbhml</text>
</g>
<!-- Node4 -->
<g id="node4" class="node">
<title>Node4</title>
<g id="a_node4"><a xlink:href="../../d7/da8/a02522.html" target="_top" xlink:title=" ">
<polygon fill="none" stroke="black" points="874.5,-846.35 874.5,-876.35 990.5,-876.35 990.5,-846.35 874.5,-846.35"/>
<text text-anchor="start" x="882.5" y="-864.35" font-family="Helvetica,sans-Serif" font-size="10.00">AbstractMap&lt; Long,</text>
<text text-anchor="middle" x="932.5" y="-853.35" font-family="Helvetica,sans-Serif" font-size="10.00"> TypeV &gt;</text>
</a>
</g>
</g>
<!-- Node4&#45;&gt;Node3 -->
<g id="edge3" class="edge">
<title>Node4&#45;&gt;Node3</title>
<path fill="none" stroke="midnightblue" d="M1000.62,-870.6C1059.67,-874.68 1143.82,-869.93 1194,-820.35 1227.99,-786.77 1183.6,-752.78 1212,-714.35 1221.09,-702.06 1234.68,-693.05 1248.38,-686.55"/>
<polygon fill="midnightblue" stroke="midnightblue" points="1000.89,-867.11 990.64,-869.81 1000.33,-874.09 1000.89,-867.11"/>
</g>
<!-- Node5 -->
<g id="node5" class="node">
<title>Node5</title>
<g id="a_node5"><a xlink:title=" ">
<polygon fill="none" stroke="#bfbfbf" points="865.5,-606.85 865.5,-647.85 999.5,-647.85 999.5,-606.85 865.5,-606.85"/>
<text text-anchor="start" x="873.5" y="-635.85" font-family="Helvetica,sans-Serif" font-size="10.00">java::util::concurrent</text>
<text text-anchor="start" x="873.5" y="-624.85" font-family="Helvetica,sans-Serif" font-size="10.00">::ConcurrentMap&lt; Long,</text>
<text text-anchor="middle" x="932.5" y="-613.85" font-family="Helvetica,sans-Serif" font-size="10.00"> TypeV &gt;</text>
</a>
</g>
</g>
<!-- Node5&#45;&gt;Node3 -->
<g id="edge4" class="edge">
<title>Node5&#45;&gt;Node3</title>
<path fill="none" stroke="midnightblue" d="M1010.14,-636.62C1070.93,-643.96 1155.63,-654.2 1217.32,-661.66"/>
<polygon fill="midnightblue" stroke="midnightblue" points="1010.19,-633.1 999.84,-635.37 1009.35,-640.05 1010.19,-633.1"/>
</g>
<!-- Node6 -->
<g id="node6" class="node">
<title>Node6</title>
<g id="a_node6"><a xlink:href="../../d9/d76/a02526.html" target="_top" xlink:title=" ">
<polygon fill="none" stroke="black" points="900,-416.85 900,-435.85 965,-435.85 965,-416.85 900,-416.85"/>
<text text-anchor="middle" x="932.5" y="-423.85" font-family="Helvetica,sans-Serif" font-size="10.00">Cloneable</text>
</a>
</g>
</g>
<!-- Node6&#45;&gt;Node3 -->
<g id="edge5" class="edge">
<title>Node6&#45;&gt;Node3</title>
<path fill="none" stroke="midnightblue" d="M975.37,-425.83C1039.9,-425.81 1159.8,-429.17 1194,-453.35 1264.99,-503.54 1288.89,-615.59 1295.41,-656.25"/>
<polygon fill="midnightblue" stroke="midnightblue" points="975.12,-422.33 965.13,-425.86 975.14,-429.33 975.12,-422.33"/>
</g>
<!-- Node24 -->
<g id="node24" class="node">
<title>Node24</title>
<g id="a_node24"><a xlink:href="../../d1/d88/a01578.html" target="_top" xlink:title="A lock&#45;free alternate implementation of java.util.concurrent.ConcurrentHashMap with better scaling pr...">
<polygon fill="none" stroke="black" points="1217.5,-271.35 1217.5,-301.35 1379.5,-301.35 1379.5,-271.35 1217.5,-271.35"/>
<text text-anchor="start" x="1225.5" y="-289.35" font-family="Helvetica,sans-Serif" font-size="10.00">com.cliffc.aa.util.NonBlocking</text>
<text text-anchor="middle" x="1298.5" y="-278.35" font-family="Helvetica,sans-Serif" font-size="10.00">HashMap&lt; TypeK, TypeV &gt;</text>
</a>
</g>
</g>
<!-- Node6&#45;&gt;Node24 -->
<g id="edge39" class="edge">
<title>Node6&#45;&gt;Node24</title>
<path fill="none" stroke="midnightblue" d="M975.1,-425.8C1038.71,-424.35 1156.7,-419.14 1194,-400.35 1238.88,-377.75 1273.66,-326.86 1288.97,-301.42"/>
<polygon fill="midnightblue" stroke="midnightblue" points="974.93,-422.3 965.01,-426 975.08,-429.3 974.93,-422.3"/>
</g>
<!-- Node7 -->
<g id="node7" class="node">
<title>Node7</title>
<g id="a_node7"><a xlink:title=" ">
<polygon fill="none" stroke="#bfbfbf" points="44.5,-561.85 44.5,-580.85 118.5,-580.85 118.5,-561.85 44.5,-561.85"/>
<text text-anchor="middle" x="81.5" y="-568.85" font-family="Helvetica,sans-Serif" font-size="10.00">Serializable</text>
</a>
</g>
</g>
<!-- Node7&#45;&gt;Node3 -->
<g id="edge6" class="edge">
<title>Node7&#45;&gt;Node3</title>
<path fill="none" stroke="midnightblue" d="M128.62,-575.31C238.08,-583.82 509.98,-599.47 585,-552.35 599.48,-543.26 588.35,-527.17 603,-518.35 687.15,-467.69 725.78,-517.61 824,-518.35 912.45,-519.02 934.68,-516.56 1023,-521.35 1099.22,-525.49 1127.13,-500.54 1194,-537.35 1243.7,-564.71 1277.29,-626.98 1290.81,-655.97"/>
<polygon fill="midnightblue" stroke="midnightblue" points="128.8,-571.81 118.55,-574.51 128.24,-578.79 128.8,-571.81"/>
</g>
<!-- Node7&#45;&gt;Node8 -->
<g id="edge8" class="edge">
<title>Node7&#45;&gt;Node8</title>
<path fill="none" stroke="midnightblue" d="M95.18,-589.4C131.85,-639.88 243.92,-782.38 377,-837.35 569.07,-916.69 634.48,-875.45 842,-886.35 922.33,-890.57 942.8,-892.64 1023,-886.35 1099.71,-880.33 1118.09,-871.94 1194,-859.35 1327.09,-837.29 1481.53,-810.14 1573.46,-793.82"/>
<polygon fill="midnightblue" stroke="midnightblue" points="97.89,-587.18 89.22,-581.09 92.2,-591.26 97.89,-587.18"/>
</g>
<!-- Node16 -->
<g id="node16" class="node">
<title>Node16</title>
<g id="a_node16"><a xlink:href="../../da/dcf/a01558.html" target="_top" xlink:title="An auto&#45;resizing table of.">
<polygon fill="none" stroke="black" points="855.5,-667.35 855.5,-697.35 1009.5,-697.35 1009.5,-667.35 855.5,-667.35"/>
<text text-anchor="start" x="863.5" y="-685.35" font-family="Helvetica,sans-Serif" font-size="10.00">com.cliffc.aa.util.Concurrent</text>
<text text-anchor="middle" x="932.5" y="-674.35" font-family="Helvetica,sans-Serif" font-size="10.00">AutoTable</text>
</a>
</g>
</g>
<!-- Node7&#45;&gt;Node16 -->
<g id="edge19" class="edge">
<title>Node7&#45;&gt;Node16</title>
<path fill="none" stroke="midnightblue" d="M96.35,-589.03C113.63,-609.56 145.3,-642.37 181,-656.35 242.49,-680.44 676.81,-682.68 855.25,-682.57"/>
<polygon fill="midnightblue" stroke="midnightblue" points="98.89,-586.61 89.85,-581.08 93.47,-591.04 98.89,-586.61"/>
</g>
<!-- Node17 -->
<g id="node17" class="node">
<title>Node17</title>
<g id="a_node17"><a xlink:href="../../d2/dc1/a01562.html" target="_top" xlink:title=" ">
<polygon fill="none" stroke="black" points="404,-483.35 404,-513.35 558,-513.35 558,-483.35 404,-483.35"/>
<text text-anchor="start" x="412" y="-501.35" font-family="Helvetica,sans-Serif" font-size="10.00">com.cliffc.aa.util.Concurrent</text>
<text text-anchor="middle" x="481" y="-490.35" font-family="Helvetica,sans-Serif" font-size="10.00">AutoTable.CAT</text>
</a>
</g>
</g>
<!-- Node7&#45;&gt;Node17 -->
<g id="edge21" class="edge">
<title>Node7&#45;&gt;Node17</title>
<path fill="none" stroke="midnightblue" d="M128.74,-562.86C196.21,-550.47 322.42,-527.29 403.75,-512.35"/>
<polygon fill="midnightblue" stroke="midnightblue" points="128.03,-559.43 118.83,-564.68 129.3,-566.32 128.03,-559.43"/>
</g>
<!-- Node7&#45;&gt;Node24 -->
<g id="edge40" class="edge">
<title>Node7&#45;&gt;Node24</title>
<path fill="none" stroke="midnightblue" d="M105.34,-556.37C124.75,-544.25 153.73,-527.58 181,-517.35 264.51,-486.04 288.77,-487.32 377,-474.35 475.56,-459.86 740.33,-494.42 824,-440.35 838.03,-431.28 828.3,-416.91 842,-407.35 971.71,-316.88 1046.41,-412.14 1194,-355.35 1227.26,-342.55 1260.64,-317.59 1280.17,-301.46"/>
<polygon fill="midnightblue" stroke="midnightblue" points="103.45,-553.42 96.89,-561.74 107.2,-559.33 103.45,-553.42"/>
</g>
<!-- Node8&#45;&gt;Node3 -->
<g id="edge7" class="edge">
<title>Node8&#45;&gt;Node3</title>
<path fill="none" stroke="#9a32cd" stroke-dasharray="5,2" d="M1615.42,-759.69C1591.97,-748.48 1561.28,-734.81 1533,-725.35 1482.98,-708.62 1425.26,-695.22 1379.71,-685.95"/>
<polygon fill="#9a32cd" stroke="#9a32cd" points="1614.15,-762.97 1624.68,-764.17 1617.2,-756.67 1614.15,-762.97"/>
<text text-anchor="middle" x="1468" y="-728.35" font-family="Helvetica,sans-Serif" font-size="10.00"> _chm</text>
</g>
<!-- Node8&#45;&gt;Node8 -->
<g id="edge9" class="edge">
<title>Node8&#45;&gt;Node8</title>
<path fill="none" stroke="#9a32cd" stroke-dasharray="5,2" d="M1629.91,-804.81C1633.09,-809.53 1641.62,-812.85 1655.5,-812.85 1678.28,-812.85 1686.65,-803.91 1680.59,-794.51"/>
<polygon fill="#9a32cd" stroke="#9a32cd" points="1633.42,-804.67 1630.41,-794.51 1626.43,-804.33 1633.42,-804.67"/>
<text text-anchor="middle" x="1655.5" y="-815.85" font-family="Helvetica,sans-Serif" font-size="10.00"> _newchm</text>
</g>
<!-- Node9 -->
<g id="node9" class="node">
<title>Node9</title>
<g id="a_node9"><a xlink:title=" ">
<polygon fill="none" stroke="#bfbfbf" points="603,-1035.35 603,-1087.35 824,-1087.35 824,-1035.35 603,-1035.35"/>
<text text-anchor="start" x="611" y="-1075.35" font-family="Helvetica,sans-Serif" font-size="10.00">AtomicReferenceFieldUpdater</text>
<text text-anchor="start" x="611" y="-1064.35" font-family="Helvetica,sans-Serif" font-size="10.00">&lt; com.cliffc.aa.util.NonBlocking</text>
<text text-anchor="start" x="611" y="-1053.35" font-family="Helvetica,sans-Serif" font-size="10.00">HashMapLong.CHM, com.cliffc.aa.util.Non</text>
<text text-anchor="middle" x="713.5" y="-1042.35" font-family="Helvetica,sans-Serif" font-size="10.00">BlockingHashMapLong.CHM &gt;</text>
</a>
</g>
</g>
<!-- Node9&#45;&gt;Node8 -->
<g id="edge10" class="edge">
<title>Node9&#45;&gt;Node8</title>
<path fill="none" stroke="#9a32cd" stroke-dasharray="5,2" d="M834.33,-1068.69C1047.64,-1080.71 1476.28,-1099.73 1533,-1062.35 1628.55,-999.39 1649.25,-843.93 1653.48,-794.62"/>
<polygon fill="#9a32cd" stroke="#9a32cd" points="834.52,-1065.2 824.34,-1068.13 834.12,-1072.19 834.52,-1065.2"/>
<text text-anchor="middle" x="1117.5" y="-1085.35" font-family="Helvetica,sans-Serif" font-size="10.00"> _newchmUpdater</text>
</g>
<!-- Node10 -->
<g id="node10" class="node">
<title>Node10</title>
<g id="a_node10"><a xlink:title=" ">
<polygon fill="none" stroke="#bfbfbf" points="0,-971.85 0,-990.85 163,-990.85 163,-971.85 0,-971.85"/>
<text text-anchor="middle" x="81.5" y="-978.85" font-family="Helvetica,sans-Serif" font-size="10.00">AtomicReferenceFieldUpdater</text>
</a>
</g>
</g>
<!-- Node10&#45;&gt;Node9 -->
<g id="edge11" class="edge">
<title>Node10&#45;&gt;Node9</title>
<path fill="none" stroke="orange" stroke-dasharray="5,2" d="M130.81,-993.26C146.72,-996.89 164.55,-1000.63 181,-1003.35 326.03,-1027.38 495.03,-1043.88 602.84,-1052.97"/>
<polygon fill="orange" stroke="orange" points="131.2,-989.76 120.66,-990.91 129.62,-996.58 131.2,-989.76"/>
<text text-anchor="start" x="181" y="-1063.35" font-family="Helvetica,sans-Serif" font-size="10.00"> &lt; com::cliffc::aa::</text>
<text text-anchor="start" x="181" y="-1052.35" font-family="Helvetica,sans-Serif" font-size="10.00">util::NonBlockingHashMapLong</text>
<text text-anchor="start" x="181" y="-1041.35" font-family="Helvetica,sans-Serif" font-size="10.00">::CHM, com::cliffc::aa::util</text>
<text text-anchor="middle" x="270" y="-1030.35" font-family="Helvetica,sans-Serif" font-size="10.00">::NonBlockingHashMapLong::CHM &gt;</text>
</g>
<!-- Node19 -->
<g id="node19" class="node">
<title>Node19</title>
<g id="a_node19"><a xlink:title=" ">
<polygon fill="none" stroke="#bfbfbf" points="377,-737.35 377,-789.35 585,-789.35 585,-737.35 377,-737.35"/>
<text text-anchor="start" x="385" y="-777.35" font-family="Helvetica,sans-Serif" font-size="10.00">AtomicReferenceFieldUpdater</text>
<text text-anchor="start" x="385" y="-766.35" font-family="Helvetica,sans-Serif" font-size="10.00">&lt; com.cliffc.aa.util.Concurrent</text>
<text text-anchor="start" x="385" y="-755.35" font-family="Helvetica,sans-Serif" font-size="10.00">AutoTable, com.cliffc.aa.util.Concurrent</text>
<text text-anchor="middle" x="481" y="-744.35" font-family="Helvetica,sans-Serif" font-size="10.00">AutoTable.CAT &gt;</text>
</a>
</g>
</g>
<!-- Node10&#45;&gt;Node19 -->
<g id="edge27" class="edge">
<title>Node10&#45;&gt;Node19</title>
<path fill="none" stroke="orange" stroke-dasharray="5,2" d="M106.89,-966.26C177.16,-922.76 375.22,-800.2 377,-799.35 384.35,-795.85 392.14,-792.5 400.01,-789.36"/>
<polygon fill="orange" stroke="orange" points="104.88,-963.38 98.22,-971.62 108.57,-969.33 104.88,-963.38"/>
<text text-anchor="start" x="201" y="-953.35" font-family="Helvetica,sans-Serif" font-size="10.00"> &lt; com::cliffc::aa::</text>
<text text-anchor="start" x="201" y="-942.35" font-family="Helvetica,sans-Serif" font-size="10.00">util::ConcurrentAutoTable,</text>
<text text-anchor="start" x="201" y="-931.35" font-family="Helvetica,sans-Serif" font-size="10.00"> com::cliffc::aa::util::</text>
<text text-anchor="middle" x="270" y="-920.35" font-family="Helvetica,sans-Serif" font-size="10.00">ConcurrentAutoTable::CAT &gt;</text>
</g>
<!-- Node11 -->
<g id="node11" class="node">
<title>Node11</title>
<g id="a_node11"><a xlink:title=" ">
<polygon fill="none" stroke="#bfbfbf" points="67,-887.85 67,-906.85 96,-906.85 96,-887.85 67,-887.85"/>
<text text-anchor="middle" x="81.5" y="-894.85" font-family="Helvetica,sans-Serif" font-size="10.00">int</text>
</a>
</g>
</g>
<!-- Node11&#45;&gt;Node1 -->
<g id="edge49" class="edge">
<title>Node11&#45;&gt;Node1</title>
<path fill="none" stroke="#9a32cd" stroke-dasharray="5,2" d="M105.01,-909.25C123.7,-920.38 149.37,-938.81 163,-962.35 188.48,-1006.36 144.83,-1039.6 181,-1075.35 276.54,-1169.76 345.68,-1119.35 480,-1119.35 480,-1119.35 480,-1119.35 1656.5,-1119.35 1852.45,-1119.35 1906.17,-322.39 1911.95,-225.88"/>
<polygon fill="#9a32cd" stroke="#9a32cd" points="106.64,-906.15 96.22,-904.24 103.17,-912.23 106.64,-906.15"/>
<text text-anchor="middle" x="1117.5" y="-1122.35" font-family="Helvetica,sans-Serif" font-size="10.00"> _hash</text>
</g>
<!-- Node11&#45;&gt;Node3 -->
<g id="edge28" class="edge">
<title>Node11&#45;&gt;Node3</title>
<path fill="none" stroke="#9a32cd" stroke-dasharray="5,2" d="M106.53,-897.54C234.52,-898.49 837.21,-902.02 1023,-886.35 1099.67,-879.88 1140.5,-914.65 1194,-859.35 1239.15,-812.68 1174.58,-767.42 1212,-714.35 1220.71,-701.99 1234.04,-692.99 1247.59,-686.51"/>
<polygon fill="#9a32cd" stroke="#9a32cd" points="106.29,-894.04 96.26,-897.46 106.24,-901.04 106.29,-894.04"/>
<text text-anchor="middle" x="713.5" y="-966.35" font-family="Helvetica,sans-Serif" font-size="10.00"> _Lbase</text>
<text text-anchor="middle" x="713.5" y="-955.35" font-family="Helvetica,sans-Serif" font-size="10.00">MIN_SIZE_LOG</text>
<text text-anchor="middle" x="713.5" y="-944.35" font-family="Helvetica,sans-Serif" font-size="10.00">_Obase</text>
<text text-anchor="middle" x="713.5" y="-933.35" font-family="Helvetica,sans-Serif" font-size="10.00">_Oscale</text>
<text text-anchor="middle" x="713.5" y="-922.35" font-family="Helvetica,sans-Serif" font-size="10.00">REPROBE_LIMIT</text>
<text text-anchor="middle" x="713.5" y="-911.35" font-family="Helvetica,sans-Serif" font-size="10.00">MIN_SIZE</text>
<text text-anchor="middle" x="713.5" y="-900.35" font-family="Helvetica,sans-Serif" font-size="10.00">_Lscale</text>
</g>
<!-- Node11&#45;&gt;Node8 -->
<g id="edge12" class="edge">
<title>Node11&#45;&gt;Node8</title>
<path fill="none" stroke="#9a32cd" stroke-dasharray="5,2" d="M99.58,-913.87C117.98,-930.44 148.95,-954.94 181,-965.35 359.44,-1023.29 415.4,-973.13 603,-975.35 706.35,-976.58 1442.23,-1006.78 1533,-957.35 1599.71,-921.03 1637.02,-830.39 1649.61,-794.41"/>
<polygon fill="#9a32cd" stroke="#9a32cd" points="101.77,-911.12 92.05,-906.89 97.01,-916.26 101.77,-911.12"/>
<text text-anchor="middle" x="932.5" y="-987.35" font-family="Helvetica,sans-Serif" font-size="10.00"> DUMMY_VOLATILE</text>
</g>
<!-- Node11&#45;&gt;Node17 -->
<g id="edge23" class="edge">
<title>Node11&#45;&gt;Node17</title>
<path fill="none" stroke="#9a32cd" stroke-dasharray="5,2" d="M92.67,-878.56C109.05,-849.23 143.26,-791.53 181,-749.35 272.28,-647.32 405.67,-550.03 457.89,-513.52"/>
<polygon fill="#9a32cd" stroke="#9a32cd" points="89.41,-877.24 87.65,-887.68 95.54,-880.61 89.41,-877.24"/>
<text text-anchor="middle" x="270" y="-774.35" font-family="Helvetica,sans-Serif" font-size="10.00"> _Lbase</text>
<text text-anchor="middle" x="270" y="-763.35" font-family="Helvetica,sans-Serif" font-size="10.00">MAX_SPIN</text>
<text text-anchor="middle" x="270" y="-752.35" font-family="Helvetica,sans-Serif" font-size="10.00">_Lscale</text>
</g>
<!-- Node11&#45;&gt;Node24 -->
<g id="edge44" class="edge">
<title>Node11&#45;&gt;Node24</title>
<path fill="none" stroke="#9a32cd" stroke-dasharray="5,2" d="M106.41,-894.15C159.53,-885.79 288.26,-858.41 359,-782.35 376.23,-763.83 360.83,-747.8 377,-728.35 450.39,-640.09 492.86,-635.68 603,-603.35 666.14,-584.81 1141.22,-603.66 1194,-564.35 1282.18,-498.67 1295.27,-349.19 1297.18,-301.36"/>
<polygon fill="#9a32cd" stroke="#9a32cd" points="105.64,-890.73 96.27,-895.66 106.67,-897.65 105.64,-890.73"/>
<text text-anchor="middle" x="713.5" y="-672.35" font-family="Helvetica,sans-Serif" font-size="10.00"> MIN_SIZE_LOG</text>
<text text-anchor="middle" x="713.5" y="-661.35" font-family="Helvetica,sans-Serif" font-size="10.00">DUMMY_VOLATILE</text>
<text text-anchor="middle" x="713.5" y="-650.35" font-family="Helvetica,sans-Serif" font-size="10.00">_Obase</text>
<text text-anchor="middle" x="713.5" y="-639.35" font-family="Helvetica,sans-Serif" font-size="10.00">_Oscale</text>
<text text-anchor="middle" x="713.5" y="-628.35" font-family="Helvetica,sans-Serif" font-size="10.00">REPROBE_LIMIT</text>
<text text-anchor="middle" x="713.5" y="-617.35" font-family="Helvetica,sans-Serif" font-size="10.00">MIN_SIZE</text>
<text text-anchor="middle" x="713.5" y="-606.35" font-family="Helvetica,sans-Serif" font-size="10.00">_Olog</text>
</g>
<!-- Node12 -->
<g id="node12" class="node">
<title>Node12</title>
<g id="a_node12"><a xlink:title=" ">
<polygon fill="none" stroke="#bfbfbf" points="1212,-1011.85 1212,-1052.85 1385,-1052.85 1385,-1011.85 1212,-1011.85"/>
<text text-anchor="start" x="1220" y="-1040.85" font-family="Helvetica,sans-Serif" font-size="10.00">AtomicLongFieldUpdater</text>
<text text-anchor="start" x="1220" y="-1029.85" font-family="Helvetica,sans-Serif" font-size="10.00">&lt; com.cliffc.aa.util.NonBlocking</text>
<text text-anchor="middle" x="1298.5" y="-1018.85" font-family="Helvetica,sans-Serif" font-size="10.00">HashMapLong.CHM &gt;</text>
</a>
</g>
</g>
<!-- Node12&#45;&gt;Node8 -->
<g id="edge13" class="edge">
<title>Node12&#45;&gt;Node8</title>
<path fill="none" stroke="#9a32cd" stroke-dasharray="5,2" d="M1395.08,-1026.51C1449.34,-1021.58 1510.75,-1012.75 1533,-997.35 1606.74,-946.3 1640.67,-835.27 1650.95,-794.64"/>
<polygon fill="#9a32cd" stroke="#9a32cd" points="1394.7,-1023.03 1385.05,-1027.39 1395.31,-1030.01 1394.7,-1023.03"/>
<text text-anchor="middle" x="1468" y="-1050.35" font-family="Helvetica,sans-Serif" font-size="10.00"> _resizerUpdater</text>
<text text-anchor="middle" x="1468" y="-1039.35" font-family="Helvetica,sans-Serif" font-size="10.00">_copyDoneUpdater</text>
<text text-anchor="middle" x="1468" y="-1028.35" font-family="Helvetica,sans-Serif" font-size="10.00">_copyIdxUpdater</text>
</g>
<!-- Node13 -->
<g id="node13" class="node">
<title>Node13</title>
<g id="a_node13"><a xlink:title=" ">
<polygon fill="none" stroke="#bfbfbf" points="864,-1018.85 864,-1037.85 1001,-1037.85 1001,-1018.85 864,-1018.85"/>
<text text-anchor="middle" x="932.5" y="-1025.85" font-family="Helvetica,sans-Serif" font-size="10.00">AtomicLongFieldUpdater</text>
</a>
</g>
</g>
<!-- Node13&#45;&gt;Node12 -->
<g id="edge14" class="edge">
<title>Node13&#45;&gt;Node12</title>
<path fill="none" stroke="orange" stroke-dasharray="5,2" d="M1011.37,-1026.26C1063.14,-1025.24 1132.65,-1024.57 1194,-1026.35 1199.85,-1026.52 1205.88,-1026.74 1211.95,-1027"/>
<polygon fill="orange" stroke="orange" points="1011.18,-1022.77 1001.25,-1026.47 1011.32,-1029.77 1011.18,-1022.77"/>
<text text-anchor="start" x="1041" y="-1051.35" font-family="Helvetica,sans-Serif" font-size="10.00"> &lt; com::cliffc::aa::</text>
<text text-anchor="start" x="1041" y="-1040.35" font-family="Helvetica,sans-Serif" font-size="10.00">util::NonBlockingHashMapLong</text>
<text text-anchor="middle" x="1117.5" y="-1029.35" font-family="Helvetica,sans-Serif" font-size="10.00">::CHM &gt;</text>
</g>
<!-- Node14 -->
<g id="node14" class="node">
<title>Node14</title>
<g id="a_node14"><a xlink:title=" ">
<polygon fill="none" stroke="#bfbfbf" points="1258.5,-723.85 1258.5,-742.85 1338.5,-742.85 1338.5,-723.85 1258.5,-723.85"/>
<text text-anchor="middle" x="1298.5" y="-730.85" font-family="Helvetica,sans-Serif" font-size="10.00">final Object[]</text>
</a>
</g>
</g>
<!-- Node14&#45;&gt;Node8 -->
<g id="edge15" class="edge">
<title>Node14&#45;&gt;Node8</title>
<path fill="none" stroke="#9a32cd" stroke-dasharray="5,2" d="M1348.91,-736.17C1396.3,-739.25 1469.79,-745.04 1533,-754.35 1551,-757 1570.36,-760.63 1588.21,-764.3"/>
<polygon fill="#9a32cd" stroke="#9a32cd" points="1349.11,-732.67 1338.91,-735.53 1348.67,-739.66 1349.11,-732.67"/>
<text text-anchor="middle" x="1468" y="-757.35" font-family="Helvetica,sans-Serif" font-size="10.00"> _vals</text>
</g>
<!-- Node15 -->
<g id="node15" class="node">
<title>Node15</title>
<g id="a_node15"><a xlink:title=" ">
<polygon fill="none" stroke="#bfbfbf" points="62.5,-264.85 62.5,-283.85 100.5,-283.85 100.5,-264.85 62.5,-264.85"/>
<text text-anchor="middle" x="81.5" y="-271.85" font-family="Helvetica,sans-Serif" font-size="10.00">long</text>
</a>
</g>
</g>
<!-- Node15&#45;&gt;Node3 -->
<g id="edge31" class="edge">
<title>Node15&#45;&gt;Node3</title>
<path fill="none" stroke="#9a32cd" stroke-dasharray="5,2" d="M110.75,-279.22C160.88,-287.95 268.63,-307.18 359,-326.35 566.75,-370.43 624.36,-363.94 824,-436.35 832.41,-439.4 833.53,-442.49 842,-445.35 992.87,-496.33 1061.75,-423.63 1194,-512.35 1248.16,-548.68 1280.45,-623.93 1292.31,-656.16"/>
<polygon fill="#9a32cd" stroke="#9a32cd" points="111.13,-275.73 100.67,-277.47 109.93,-282.63 111.13,-275.73"/>
<text text-anchor="middle" x="713.5" y="-483.35" font-family="Helvetica,sans-Serif" font-size="10.00"> NO_KEY</text>
<text text-anchor="middle" x="713.5" y="-472.35" font-family="Helvetica,sans-Serif" font-size="10.00">_val_1_offset</text>
<text text-anchor="middle" x="713.5" y="-461.35" font-family="Helvetica,sans-Serif" font-size="10.00">_chm_offset</text>
<text text-anchor="middle" x="713.5" y="-450.35" font-family="Helvetica,sans-Serif" font-size="10.00">_last_resize_milli</text>
<text text-anchor="middle" x="713.5" y="-439.35" font-family="Helvetica,sans-Serif" font-size="10.00">serialVersionUID</text>
</g>
<!-- Node15&#45;&gt;Node8 -->
<g id="edge16" class="edge">
<title>Node15&#45;&gt;Node8</title>
<path fill="none" stroke="#9a32cd" stroke-dasharray="5,2" d="M105.85,-259.35C211.03,-193.6 651.84,62.52 1023,-14.35 1416.35,-95.81 1617.16,-663.9 1649.74,-764.23"/>
<polygon fill="#9a32cd" stroke="#9a32cd" points="103.85,-256.47 97.25,-264.77 107.58,-262.4 103.85,-256.47"/>
<text text-anchor="middle" x="932.5" y="-50.35" font-family="Helvetica,sans-Serif" font-size="10.00"> _copyIdx</text>
<text text-anchor="middle" x="932.5" y="-39.35" font-family="Helvetica,sans-Serif" font-size="10.00">_copyDone</text>
<text text-anchor="middle" x="932.5" y="-28.35" font-family="Helvetica,sans-Serif" font-size="10.00">_resizers</text>
<text text-anchor="middle" x="932.5" y="-17.35" font-family="Helvetica,sans-Serif" font-size="10.00">_keys</text>
</g>
<!-- Node15&#45;&gt;Node17 -->
<g id="edge25" class="edge">
<title>Node15&#45;&gt;Node17</title>
<path fill="none" stroke="#9a32cd" stroke-dasharray="5,2" d="M107.7,-289.15C127.27,-300.27 155.32,-315.4 181,-326.35 257.67,-359.03 287.33,-342.81 359,-385.35 404.48,-412.34 447.09,-458.91 467.46,-482.97"/>
<polygon fill="#9a32cd" stroke="#9a32cd" points="109.24,-285.99 98.82,-284.04 105.75,-292.06 109.24,-285.99"/>
<text text-anchor="middle" x="270" y="-410.35" font-family="Helvetica,sans-Serif" font-size="10.00"> _fuzzy_sum_cache</text>
<text text-anchor="middle" x="270" y="-399.35" font-family="Helvetica,sans-Serif" font-size="10.00">_t</text>
<text text-anchor="middle" x="270" y="-388.35" font-family="Helvetica,sans-Serif" font-size="10.00">_fuzzy_time</text>
</g>
<!-- Node15&#45;&gt;Node24 -->
<g id="edge46" class="edge">
<title>Node15&#45;&gt;Node24</title>
<path fill="none" stroke="#9a32cd" stroke-dasharray="5,2" d="M110.76,-272.94C224.88,-267.43 662.75,-247.98 1023,-255.35 1099.05,-256.91 1118.62,-252.16 1194,-262.35 1209.54,-264.45 1226.17,-267.8 1241.45,-271.34"/>
<polygon fill="#9a32cd" stroke="#9a32cd" points="110.56,-269.45 100.75,-273.43 110.9,-276.44 110.56,-269.45"/>
<text text-anchor="middle" x="713.5" y="-280.35" font-family="Helvetica,sans-Serif" font-size="10.00"> _kvs_offset</text>
<text text-anchor="middle" x="713.5" y="-269.35" font-family="Helvetica,sans-Serif" font-size="10.00">_last_resize_milli</text>
<text text-anchor="middle" x="713.5" y="-258.35" font-family="Helvetica,sans-Serif" font-size="10.00">serialVersionUID</text>
</g>
<!-- Node16&#45;&gt;Node3 -->
<g id="edge32" class="edge">
<title>Node16&#45;&gt;Node3</title>
<path fill="none" stroke="#9a32cd" stroke-dasharray="5,2" d="M1019.98,-679.74C1079.78,-677.93 1158.78,-675.54 1217.2,-673.78"/>
<polygon fill="#9a32cd" stroke="#9a32cd" points="1019.7,-676.24 1009.81,-680.05 1019.91,-683.24 1019.7,-676.24"/>
<text text-anchor="middle" x="1117.5" y="-681.35" font-family="Helvetica,sans-Serif" font-size="10.00"> _reprobes</text>
</g>
<!-- Node16&#45;&gt;Node8 -->
<g id="edge18" class="edge">
<title>Node16&#45;&gt;Node8</title>
<path fill="none" stroke="#9a32cd" stroke-dasharray="5,2" d="M991.98,-700.29C1047.91,-716.67 1134.89,-740.14 1212,-752.35 1296.04,-765.66 1318.08,-760.1 1403,-765.35 1459.85,-768.87 1523.96,-772.43 1573.22,-775.08"/>
<polygon fill="#9a32cd" stroke="#9a32cd" points="992.84,-696.89 982.25,-697.42 990.85,-703.61 992.84,-696.89"/>
<text text-anchor="middle" x="1298.5" y="-777.35" font-family="Helvetica,sans-Serif" font-size="10.00"> _slots</text>
<text text-anchor="middle" x="1298.5" y="-766.35" font-family="Helvetica,sans-Serif" font-size="10.00">_size</text>
</g>
<!-- Node16&#45;&gt;Node24 -->
<g id="edge47" class="edge">
<title>Node16&#45;&gt;Node24</title>
<path fill="none" stroke="#9a32cd" stroke-dasharray="5,2" d="M1004.59,-664.71C1072.23,-646.6 1167.49,-617.2 1194,-589.35 1275.83,-503.39 1293.16,-350.06 1296.65,-301.52"/>
<polygon fill="#9a32cd" stroke="#9a32cd" points="1003.59,-661.35 994.82,-667.3 1005.39,-668.12 1003.59,-661.35"/>
<text text-anchor="middle" x="1117.5" y="-655.35" font-family="Helvetica,sans-Serif" font-size="10.00"> _reprobes</text>
</g>
<!-- Node17&#45;&gt;Node16 -->
<g id="edge20" class="edge">
<title>Node17&#45;&gt;Node16</title>
<path fill="none" stroke="#9a32cd" stroke-dasharray="5,2" d="M568.26,-484.24C645.81,-476.87 757.45,-480.3 824,-545.35 860.05,-580.59 808.42,-619.74 842,-657.35 845.87,-661.68 850.42,-665.29 855.38,-668.29"/>
<polygon fill="#9a32cd" stroke="#9a32cd" points="567.62,-480.79 558.03,-485.3 568.33,-487.75 567.62,-480.79"/>
<text text-anchor="middle" x="713.5" y="-548.35" font-family="Helvetica,sans-Serif" font-size="10.00"> _cat</text>
</g>
<!-- Node17&#45;&gt;Node17 -->
<g id="edge22" class="edge">
<title>Node17&#45;&gt;Node17</title>
<path fill="none" stroke="#9a32cd" stroke-dasharray="5,2" d="M443.69,-523.81C448.32,-528.53 460.75,-531.85 481,-531.85 514.22,-531.85 526.42,-522.91 517.6,-513.51"/>
<polygon fill="#9a32cd" stroke="#9a32cd" points="447.2,-523.73 444.4,-513.51 440.22,-523.24 447.2,-523.73"/>
<text text-anchor="middle" x="481" y="-534.85" font-family="Helvetica,sans-Serif" font-size="10.00"> _next</text>
</g>
<!-- Node18 -->
<g id="node18" class="node">
<title>Node18</title>
<g id="a_node18"><a xlink:title=" ">
<polygon fill="none" stroke="#bfbfbf" points="56,-385.85 56,-404.85 107,-404.85 107,-385.85 56,-385.85"/>
<text text-anchor="middle" x="81.5" y="-392.85" font-family="Helvetica,sans-Serif" font-size="10.00">Unsafe</text>
</a>
</g>
</g>
<!-- Node18&#45;&gt;Node17 -->
<g id="edge24" class="edge">
<title>Node18&#45;&gt;Node17</title>
<path fill="none" stroke="#9a32cd" stroke-dasharray="5,2" d="M116.86,-404.26C184.97,-421.9 337.73,-461.49 421.79,-483.27"/>
<polygon fill="#9a32cd" stroke="#9a32cd" points="117.62,-400.84 107.07,-401.72 115.87,-407.61 117.62,-400.84"/>
<text text-anchor="middle" x="270" y="-467.35" font-family="Helvetica,sans-Serif" font-size="10.00"> _unsafe</text>
</g>
<!-- Node18&#45;&gt;Node24 -->
<g id="edge43" class="edge">
<title>Node18&#45;&gt;Node24</title>
<path fill="none" stroke="#9a32cd" stroke-dasharray="5,2" d="M115.92,-382.32C134.73,-375.63 158.83,-368.11 181,-364.35 366.01,-333 415.43,-356.46 603,-351.35 668.66,-349.56 1130.21,-353.01 1194,-337.35 1223.38,-330.14 1254.11,-313.69 1274.37,-301.41"/>
<polygon fill="#9a32cd" stroke="#9a32cd" points="114.53,-379.1 106.33,-385.82 116.93,-385.68 114.53,-379.1"/>
<text text-anchor="middle" x="713.5" y="-354.35" font-family="Helvetica,sans-Serif" font-size="10.00"> _unsafe</text>
</g>
<!-- Node19&#45;&gt;Node16 -->
<g id="edge26" class="edge">
<title>Node19&#45;&gt;Node16</title>
<path fill="none" stroke="#9a32cd" stroke-dasharray="5,2" d="M563.6,-733.06C570.94,-729.68 578.18,-726.1 585,-722.35 593.65,-717.6 593.74,-712.77 603,-709.35 647.62,-692.87 772.83,-686.41 855.14,-683.9"/>
<polygon fill="#9a32cd" stroke="#9a32cd" points="561.95,-729.96 554.25,-737.23 564.81,-736.35 561.95,-729.96"/>
<text text-anchor="middle" x="713.5" y="-712.35" font-family="Helvetica,sans-Serif" font-size="10.00"> _catUpdater</text>
</g>
<!-- Node20 -->
<g id="node20" class="node">
<title>Node20</title>
<g id="a_node20"><a xlink:href="../../d9/dfd/a01610.html" target="_top" xlink:title=" ">
<polygon fill="none" stroke="black" points="848,-797.35 848,-827.35 1017,-827.35 1017,-797.35 848,-797.35"/>
<text text-anchor="start" x="856" y="-815.35" font-family="Helvetica,sans-Serif" font-size="10.00">com.cliffc.aa.util.NonBlocking</text>
<text text-anchor="middle" x="932.5" y="-804.35" font-family="Helvetica,sans-Serif" font-size="10.00">HashMapLong&lt; TypeV &gt;.Prime</text>
</a>
</g>
</g>
<!-- Node20&#45;&gt;Node3 -->
<g id="edge29" class="edge">
<title>Node20&#45;&gt;Node3</title>
<path fill="none" stroke="#9a32cd" stroke-dasharray="5,2" d="M1027.32,-808C1080.91,-801.25 1146.65,-785.28 1194,-748.35 1207.48,-737.84 1199.78,-726.31 1212,-714.35 1224.11,-702.49 1240.14,-693.26 1255.05,-686.44"/>
<polygon fill="#9a32cd" stroke="#9a32cd" points="1026.65,-804.55 1017.12,-809.19 1027.46,-811.5 1026.65,-804.55"/>
<text text-anchor="middle" x="1117.5" y="-808.35" font-family="Helvetica,sans-Serif" font-size="10.00"> TOMBPRIME</text>
</g>
<!-- Node21 -->
<g id="node21" class="node">
<title>Node21</title>
<g id="a_node21"><a xlink:title=" ">
<polygon fill="none" stroke="#bfbfbf" points="457,-808.85 457,-827.85 505,-827.85 505,-808.85 457,-808.85"/>
<text text-anchor="middle" x="481" y="-815.85" font-family="Helvetica,sans-Serif" font-size="10.00">Object</text>
</a>
</g>
</g>
<!-- Node21&#45;&gt;Node3 -->
<g id="edge34" class="edge">
<title>Node21&#45;&gt;Node3</title>
<path fill="none" stroke="#9a32cd" stroke-dasharray="5,2" d="M515.31,-812.45C535.5,-808.82 561.77,-803.98 585,-799.35 699.56,-776.53 727.02,-764.96 842,-744.35 997.6,-716.46 1038.38,-721.13 1194,-693.35 1205.66,-691.27 1218.02,-688.84 1229.98,-686.37"/>
<polygon fill="#9a32cd" stroke="#9a32cd" points="514.58,-809.03 505.35,-814.24 515.81,-815.92 514.58,-809.03"/>
<text text-anchor="middle" x="932.5" y="-780.35" font-family="Helvetica,sans-Serif" font-size="10.00"> MATCH_ANY</text>
<text text-anchor="middle" x="932.5" y="-769.35" font-family="Helvetica,sans-Serif" font-size="10.00">_val_1</text>
<text text-anchor="middle" x="932.5" y="-758.35" font-family="Helvetica,sans-Serif" font-size="10.00">NO_MATCH_OLD</text>
<text text-anchor="middle" x="932.5" y="-747.35" font-family="Helvetica,sans-Serif" font-size="10.00">TOMBSTONE</text>
</g>
<!-- Node21&#45;&gt;Node20 -->
<g id="edge30" class="edge">
<title>Node21&#45;&gt;Node20</title>
<path fill="none" stroke="#9a32cd" stroke-dasharray="5,2" d="M515.59,-817.9C585.32,-816.97 747.58,-814.81 847.57,-813.47"/>
<polygon fill="#9a32cd" stroke="#9a32cd" points="515.17,-814.41 505.22,-818.04 515.27,-821.41 515.17,-814.41"/>
<text text-anchor="middle" x="713.5" y="-819.35" font-family="Helvetica,sans-Serif" font-size="10.00"> _V</text>
</g>
<!-- Node22 -->
<g id="node22" class="node">
<title>Node22</title>
<g id="a_node22"><a xlink:title=" ">
<polygon fill="none" stroke="#bfbfbf" points="904.5,-530.85 904.5,-549.85 960.5,-549.85 960.5,-530.85 904.5,-530.85"/>
<text text-anchor="middle" x="932.5" y="-537.85" font-family="Helvetica,sans-Serif" font-size="10.00">boolean</text>
</a>
</g>
</g>
<!-- Node22&#45;&gt;Node3 -->
<g id="edge33" class="edge">
<title>Node22&#45;&gt;Node3</title>
<path fill="none" stroke="#9a32cd" stroke-dasharray="5,2" d="M971.02,-539.17C1023.44,-538.95 1120.44,-543.86 1194,-578.35 1233.15,-596.71 1268.15,-634.86 1285.67,-656.15"/>
<polygon fill="#9a32cd" stroke="#9a32cd" points="970.8,-535.67 960.84,-539.28 970.88,-542.67 970.8,-535.67"/>
<text text-anchor="middle" x="1117.5" y="-581.35" font-family="Helvetica,sans-Serif" font-size="10.00"> _opt_for_space</text>
</g>
<!-- Node23 -->
<g id="node23" class="node">
<title>Node23</title>
<g id="a_node23"><a xlink:href="../../d1/d88/a01578.html" target="_top" xlink:title=" ">
<polygon fill="none" stroke="black" points="1551,-140.85 1551,-181.85 1760,-181.85 1760,-140.85 1551,-140.85"/>
<text text-anchor="start" x="1559" y="-169.85" font-family="Helvetica,sans-Serif" font-size="10.00">com.cliffc.aa.util.NonBlocking</text>
<text text-anchor="start" x="1559" y="-158.85" font-family="Helvetica,sans-Serif" font-size="10.00">HashMap&lt; com.cliffc.aa.tvar.UQNodes,</text>
<text text-anchor="middle" x="1655.5" y="-147.85" font-family="Helvetica,sans-Serif" font-size="10.00"> com.cliffc.aa.tvar.UQNodes &gt;</text>
</a>
</g>
</g>
<!-- Node23&#45;&gt;Node1 -->
<g id="edge35" class="edge">
<title>Node23&#45;&gt;Node1</title>
<path fill="none" stroke="#9a32cd" stroke-dasharray="5,2" d="M1762.06,-184.03C1799.13,-191.99 1838.79,-200.51 1868.08,-206.81"/>
<polygon fill="#9a32cd" stroke="#9a32cd" points="1762.7,-180.59 1752.19,-181.91 1761.23,-187.43 1762.7,-180.59"/>
<text text-anchor="middle" x="1799.5" y="-199.35" font-family="Helvetica,sans-Serif" font-size="10.00"> UQSETS</text>
</g>
<!-- Node24&#45;&gt;Node23 -->
<g id="edge36" class="edge">
<title>Node24&#45;&gt;Node23</title>
<path fill="none" stroke="orange" stroke-dasharray="5,2" d="M1311.11,-262.12C1327.04,-232.03 1358.83,-182.13 1403,-161.35 1448.34,-140.03 1503.56,-137.82 1550.7,-141.88"/>
<polygon fill="orange" stroke="orange" points="1307.93,-260.64 1306.49,-271.14 1314.16,-263.83 1307.93,-260.64"/>
<text text-anchor="start" x="1403" y="-186.35" font-family="Helvetica,sans-Serif" font-size="10.00"> &lt; com::cliffc::aa::</text>
<text text-anchor="start" x="1403" y="-175.35" font-family="Helvetica,sans-Serif" font-size="10.00">tvar::UQNodes, com::</text>
<text text-anchor="middle" x="1468" y="-164.35" font-family="Helvetica,sans-Serif" font-size="10.00">cliffc::aa::tvar::UQNodes &gt;</text>
</g>
<!-- Node25 -->
<g id="node25" class="node">
<title>Node25</title>
<g id="a_node25"><a xlink:href="../../d7/da8/a02522.html" target="_top" xlink:title=" ">
<polygon fill="none" stroke="black" points="871.5,-177.35 871.5,-207.35 993.5,-207.35 993.5,-177.35 871.5,-177.35"/>
<text text-anchor="start" x="879.5" y="-195.35" font-family="Helvetica,sans-Serif" font-size="10.00">AbstractMap&lt; TypeK,</text>
<text text-anchor="middle" x="932.5" y="-184.35" font-family="Helvetica,sans-Serif" font-size="10.00"> TypeV &gt;</text>
</a>
</g>
</g>
<!-- Node25&#45;&gt;Node24 -->
<g id="edge37" class="edge">
<title>Node25&#45;&gt;Node24</title>
<path fill="none" stroke="midnightblue" d="M1003.67,-192.2C1057.18,-194.02 1131.98,-200.82 1194,-222.35 1226.33,-233.58 1259.19,-256.23 1278.96,-271.34"/>
<polygon fill="midnightblue" stroke="midnightblue" points="1003.69,-188.7 993.59,-191.9 1003.49,-195.69 1003.69,-188.7"/>
</g>
<!-- Node26 -->
<g id="node26" class="node">
<title>Node26</title>
<g id="a_node26"><a xlink:title=" ">
<polygon fill="none" stroke="#bfbfbf" points="862.5,-67.85 862.5,-108.85 1002.5,-108.85 1002.5,-67.85 862.5,-67.85"/>
<text text-anchor="start" x="870.5" y="-96.85" font-family="Helvetica,sans-Serif" font-size="10.00">java::util::concurrent</text>
<text text-anchor="start" x="870.5" y="-85.85" font-family="Helvetica,sans-Serif" font-size="10.00">::ConcurrentMap&lt; TypeK,</text>
<text text-anchor="middle" x="932.5" y="-74.85" font-family="Helvetica,sans-Serif" font-size="10.00"> TypeV &gt;</text>
</a>
</g>
</g>
<!-- Node26&#45;&gt;Node24 -->
<g id="edge38" class="edge">
<title>Node26&#45;&gt;Node24</title>
<path fill="none" stroke="midnightblue" d="M1012.66,-88.69C1067.49,-92.36 1140.04,-104.36 1194,-139.35 1245.07,-172.47 1278.39,-240.42 1291.37,-270.93"/>
<polygon fill="midnightblue" stroke="midnightblue" points="1012.82,-85.19 1002.63,-88.09 1012.41,-92.18 1012.82,-85.19"/>
</g>
<!-- Node27 -->
<g id="node27" class="node">
<title>Node27</title>
<g id="a_node27"><a xlink:href="../../d0/d21/a01582.html" target="_top" xlink:title=" ">
<polygon fill="none" stroke="black" points="842,-128.35 842,-158.35 1023,-158.35 1023,-128.35 842,-128.35"/>
<text text-anchor="start" x="850" y="-146.35" font-family="Helvetica,sans-Serif" font-size="10.00">com.cliffc.aa.util.NonBlocking</text>
<text text-anchor="middle" x="932.5" y="-135.35" font-family="Helvetica,sans-Serif" font-size="10.00">HashMap&lt; TypeK, TypeV &gt;.Prime</text>
</a>
</g>
</g>
<!-- Node27&#45;&gt;Node24 -->
<g id="edge41" class="edge">
<title>Node27&#45;&gt;Node24</title>
<path fill="none" stroke="#9a32cd" stroke-dasharray="5,2" d="M1033.43,-141.97C1083.93,-144.95 1144.77,-154.36 1194,-179.35 1236.64,-200.99 1271.7,-247.23 1287.87,-271.22"/>
<polygon fill="#9a32cd" stroke="#9a32cd" points="1033.31,-138.46 1023.14,-141.45 1032.95,-145.45 1033.31,-138.46"/>
<text text-anchor="middle" x="1117.5" y="-182.35" font-family="Helvetica,sans-Serif" font-size="10.00"> TOMBPRIME</text>
</g>
<!-- Node28 -->
<g id="node28" class="node">
<title>Node28</title>
<g id="a_node28"><a xlink:title=" ">
<polygon fill="none" stroke="#bfbfbf" points="445,-133.85 445,-152.85 517,-152.85 517,-133.85 445,-133.85"/>
<text text-anchor="middle" x="481" y="-140.85" font-family="Helvetica,sans-Serif" font-size="10.00">final Object</text>
</a>
</g>
</g>
<!-- Node28&#45;&gt;Node27 -->
<g id="edge42" class="edge">
<title>Node28&#45;&gt;Node27</title>
<path fill="none" stroke="#9a32cd" stroke-dasharray="5,2" d="M527.56,-143.35C600.96,-143.35 746.74,-143.35 841.63,-143.35"/>
<polygon fill="#9a32cd" stroke="#9a32cd" points="527.27,-139.85 517.27,-143.35 527.27,-146.85 527.27,-139.85"/>
<text text-anchor="middle" x="713.5" y="-146.35" font-family="Helvetica,sans-Serif" font-size="10.00"> _V</text>
</g>
<!-- Node29 -->
<g id="node29" class="node">
<title>Node29</title>
<g id="a_node29"><a xlink:title=" ">
<polygon fill="none" stroke="#bfbfbf" points="881.5,-302.85 881.5,-321.85 983.5,-321.85 983.5,-302.85 881.5,-302.85"/>
<text text-anchor="middle" x="932.5" y="-309.85" font-family="Helvetica,sans-Serif" font-size="10.00">static final Object</text>
</a>
</g>
</g>
<!-- Node29&#45;&gt;Node24 -->
<g id="edge45" class="edge">
<title>Node29&#45;&gt;Node24</title>
<path fill="none" stroke="#9a32cd" stroke-dasharray="5,2" d="M993.52,-307.84C1008.99,-306.69 1025.61,-305.46 1041,-304.35 1100.11,-300.08 1166.89,-295.4 1217.49,-291.88"/>
<polygon fill="#9a32cd" stroke="#9a32cd" points="993.25,-304.35 983.54,-308.58 993.77,-311.33 993.25,-304.35"/>
<text text-anchor="middle" x="1117.5" y="-329.35" font-family="Helvetica,sans-Serif" font-size="10.00"> MATCH_ANY</text>
<text text-anchor="middle" x="1117.5" y="-318.35" font-family="Helvetica,sans-Serif" font-size="10.00">NO_MATCH_OLD</text>
<text text-anchor="middle" x="1117.5" y="-307.35" font-family="Helvetica,sans-Serif" font-size="10.00">TOMBSTONE</text>
</g>
<!-- Node30 -->
<g id="node30" class="node">
<title>Node30</title>
<g id="a_node30"><a xlink:title=" ">
<polygon fill="none" stroke="#bfbfbf" points="881.5,-264.85 881.5,-283.85 983.5,-283.85 983.5,-264.85 881.5,-264.85"/>
<text text-anchor="middle" x="932.5" y="-271.85" font-family="Helvetica,sans-Serif" font-size="10.00">transient Object[]</text>
</a>
</g>
</g>
<!-- Node30&#45;&gt;Node24 -->
<g id="edge48" class="edge">
<title>Node30&#45;&gt;Node24</title>
<path fill="none" stroke="#9a32cd" stroke-dasharray="5,2" d="M993.74,-270.29C1046.6,-267.48 1125.51,-265.09 1194,-270.35 1201.61,-270.94 1209.52,-271.76 1217.41,-272.73"/>
<polygon fill="#9a32cd" stroke="#9a32cd" points="993.31,-266.81 983.52,-270.86 993.7,-273.8 993.31,-266.81"/>
<text text-anchor="middle" x="1117.5" y="-273.35" font-family="Helvetica,sans-Serif" font-size="10.00"> _kvs</text>
</g>
</g>
</svg>
