<?xml version="1.0" encoding="UTF-8" standalone="no"?>
<!DOCTYPE svg PUBLIC "-//W3C//DTD SVG 1.1//EN"
 "http://www.w3.org/Graphics/SVG/1.1/DTD/svg11.dtd">
<!-- Generated by graphviz version 2.43.0 (0)
 -->
<!-- Title: com.cliffc.aa.type.TypeRPC Pages: 1 -->
<svg width="157pt" height="241pt"
 viewBox="0.00 0.00 157.00 241.00" xmlns="http://www.w3.org/2000/svg" xmlns:xlink="http://www.w3.org/1999/xlink">
<g id="graph0" class="graph" transform="scale(1 1) rotate(0) translate(4 237)">
<title>com.cliffc.aa.type.TypeRPC</title>
<!-- Node1 -->
<g id="node1" class="node">
<title>Node1</title>
<g id="a_node1"><a xlink:title=" ">
<polygon fill="#bfbfbf" stroke="black" points="0,-0.5 0,-19.5 149,-19.5 149,-0.5 0,-0.5"/>
<text text-anchor="middle" x="74.5" y="-7.5" font-family="Helvetica,sans-Serif" font-size="10.00">com.cliffc.aa.type.TypeRPC</text>
</a>
</g>
</g>
<!-- Node2 -->
<g id="node2" class="node">
<title>Node2</title>
<g id="a_node2"><a xlink:href="../../d0/de2/a01442.html" target="_top" xlink:title=" ">
<polygon fill="none" stroke="black" points="10,-57.5 10,-87.5 139,-87.5 139,-57.5 10,-57.5"/>
<text text-anchor="start" x="18" y="-75.5" font-family="Helvetica,sans-Serif" font-size="10.00">com.cliffc.aa.type.Type</text>
<text text-anchor="middle" x="74.5" y="-64.5" font-family="Helvetica,sans-Serif" font-size="10.00">&lt; TypeRPC &gt;</text>
</a>
</g>
</g>
<!-- Node2&#45;&gt;Node1 -->
<g id="edge1" class="edge">
<title>Node2&#45;&gt;Node1</title>
<path fill="none" stroke="midnightblue" d="M74.5,-47.35C74.5,-37.51 74.5,-26.78 74.5,-19.54"/>
<polygon fill="midnightblue" stroke="midnightblue" points="71,-47.47 74.5,-57.47 78,-47.47 71,-47.47"/>
</g>
<!-- Node3 -->
<g id="node3" class="node">
<title>Node3</title>
<g id="a_node3"><a xlink:href="../../d0/de2/a01442.html" target="_top" xlink:title="an implementation of language AA">
<polygon fill="none" stroke="black" points="9.5,-135.5 9.5,-165.5 139.5,-165.5 139.5,-135.5 9.5,-135.5"/>
<text text-anchor="start" x="17.5" y="-153.5" font-family="Helvetica,sans-Serif" font-size="10.00">com.cliffc.aa.type.Type</text>
<text text-anchor="middle" x="74.5" y="-142.5" font-family="Helvetica,sans-Serif" font-size="10.00">&lt; T extends Type&lt; T &gt;</text>
</a>
</g>
</g>
<!-- Node3&#45;&gt;Node2 -->
<g id="edge2" class="edge">
<title>Node3&#45;&gt;Node2</title>
<path fill="none" stroke="orange" stroke-dasharray="5,2" d="M74.5,-125.09C74.5,-112.76 74.5,-98.22 74.5,-87.73"/>
<polygon fill="orange" stroke="orange" points="71,-125.2 74.5,-135.2 78,-125.21 71,-125.2"/>
<text text-anchor="middle" x="108.5" y="-109" font-family="Helvetica,sans-Serif" font-size="10.00"> &lt; TypeRPC &gt;</text>
</g>
<!-- Node4 -->
<g id="node4" class="node">
<title>Node4</title>
<g id="a_node4"><a xlink:href="../../d9/d76/a02526.html" target="_top" xlink:title=" ">
<polygon fill="none" stroke="black" points="3,-213.5 3,-232.5 68,-232.5 68,-213.5 3,-213.5"/>
<text text-anchor="middle" x="35.5" y="-220.5" font-family="Helvetica,sans-Serif" font-size="10.00">Cloneable</text>
</a>
</g>
</g>
<!-- Node4&#45;&gt;Node3 -->
<g id="edge3" class="edge">
<title>Node4&#45;&gt;Node3</title>
<path fill="none" stroke="midnightblue" d="M45.28,-204.32C51.91,-192.34 60.55,-176.72 66.71,-165.58"/>
<polygon fill="midnightblue" stroke="midnightblue" points="42.06,-202.91 40.28,-213.36 48.19,-206.3 42.06,-202.91"/>
</g>
<!-- Node5 -->
<g id="node5" class="node">
<title>Node5</title>
<g id="a_node5"><a xlink:href="../../d7/df2/a02322.html" target="_top" xlink:title=" ">
<polygon fill="none" stroke="black" points="86.5,-213.5 86.5,-232.5 142.5,-232.5 142.5,-213.5 86.5,-213.5"/>
<text text-anchor="middle" x="114.5" y="-220.5" font-family="Helvetica,sans-Serif" font-size="10.00">Type&lt; T</text>
</a>
</g>
</g>
<!-- Node5&#45;&gt;Node3 -->
<g id="edge4" class="edge">
<title>Node5&#45;&gt;Node3</title>
<path fill="none" stroke="orange" stroke-dasharray="5,2" d="M104.47,-204.32C97.67,-192.34 88.81,-176.72 82.49,-165.58"/>
<polygon fill="orange" stroke="orange" points="101.62,-206.38 109.6,-213.36 107.7,-202.93 101.62,-206.38"/>
<text text-anchor="middle" x="102.5" y="-187" font-family="Helvetica,sans-Serif" font-size="10.00"> T</text>
</g>
</g>
</svg>
