<?xml version="1.0" encoding="UTF-8" standalone="no"?>
<!DOCTYPE svg PUBLIC "-//W3C//DTD SVG 1.1//EN"
 "http://www.w3.org/Graphics/SVG/1.1/DTD/svg11.dtd">
<!-- Generated by graphviz version 2.43.0 (0)
 -->
<!-- Title: com.cliffc.aa.HM.HM.Syntax.find Pages: 1 -->
<!--zoomable 280 -->
<svg id="main" version="1.1" xmlns="http://www.w3.org/2000/svg" xmlns:xlink="http://www.w3.org/1999/xlink" xml:space="preserve" onload="init(evt)">
<style type="text/css"><![CDATA[
.edge:hover path { stroke: red; }
.edge:hover polygon { stroke: red; fill: red; }
]]></style>
<script type="text/javascript"><![CDATA[
var edges = document.getElementsByTagName('g');
if (edges && edges.length) {
  for (var i=0;i<edges.length;i++) {
    if (edges[i].id.substr(0,4)=='edge') {
      edges[i].setAttribute('class','edge');
    }
  }
}
]]></script>
        <defs>
                <circle id="rim" cx="0" cy="0" r="7"/>
                <circle id="rim2" cx="0" cy="0" r="3.5"/>
                <g id="zoomPlus">
                        <use xlink:href="#rim" fill="#404040">
                                <set attributeName="fill" to="#808080" begin="zoomplus.mouseover" end="zoomplus.mouseout"/>
                        </use>
                        <path d="M-4,0h8M0,-4v8" fill="none" stroke="white" stroke-width="1.5" pointer-events="none"/>
                </g>
                <g id="zoomMin">
                        <use xlink:href="#rim" fill="#404040">
                                <set attributeName="fill" to="#808080" begin="zoomminus.mouseover" end="zoomminus.mouseout"/>
                        </use>
                        <path d="M-4,0h8" fill="none" stroke="white" stroke-width="1.5" pointer-events="none"/>
                </g>
                <g id="dirArrow">
                        <path fill="none" stroke="white" stroke-width="1.5" d="M0,-3.0v7 M-2.5,-0.5L0,-3.0L2.5,-0.5"/>
                </g>
               <g id="resetDef">
                       <use xlink:href="#rim2" fill="#404040">
                               <set attributeName="fill" to="#808080" begin="reset.mouseover" end="reset.mouseout"/>
                       </use>
               </g>
        </defs>

<script type="text/javascript">
var viewWidth = 1536;
var viewHeight = 280;
var sectionId = 'dynsection-7';
</script>
<script xlink:href="../../svgpan.js"/>
<svg id="graph" class="graph">
<g id="viewport">
<title>com.cliffc.aa.HM.HM.Syntax.find</title>
<!-- Node1 -->
<g id="node1" class="node">
<title>Node1</title>
<g id="a_node1"><a xlink:title=" ">
<polygon fill="#bfbfbf" stroke="black" points="0,-151.5 0,-170.5 176,-170.5 176,-151.5 0,-151.5"/>
<text text-anchor="middle" x="88" y="-158.5" font-family="Helvetica,sans-Serif" font-size="10.00">com.cliffc.aa.HM.HM.Syntax.find</text>
</a>
</g>
</g>
<!-- Node2 -->
<g id="node2" class="node">
<title>Node2</title>
<g id="a_node2"><a xlink:href="../../d6/d90/a00514.html#a6724129a5ae96e24226c55f3058745af" target="_top" xlink:title=" ">
<polygon fill="none" stroke="black" points="212,-151.5 212,-170.5 366,-170.5 366,-151.5 212,-151.5"/>
<text text-anchor="middle" x="289" y="-158.5" font-family="Helvetica,sans-Serif" font-size="10.00">com.cliffc.aa.HM.HM.T2.find</text>
</a>
</g>
</g>
<!-- Node1&#45;&gt;Node2 -->
<g id="edge1" class="edge">
<title>Node1&#45;&gt;Node2</title>
<path fill="none" stroke="midnightblue" d="M176.28,-161C184.67,-161 193.18,-161 201.56,-161"/>
<polygon fill="midnightblue" stroke="midnightblue" points="201.71,-164.5 211.71,-161 201.71,-157.5 201.71,-164.5"/>
</g>
<!-- Node3 -->
<g id="node3" class="node">
<title>Node3</title>
<g id="a_node3"><a xlink:href="../../d6/d90/a00514.html#a0afe3ab0d204626b4beaf769188e6b7f" target="_top" xlink:title=" ">
<polygon fill="none" stroke="black" points="402,-225 402,-255 538,-255 538,-225 402,-225"/>
<text text-anchor="start" x="410" y="-243" font-family="Helvetica,sans-Serif" font-size="10.00">com.cliffc.aa.HM.HM.T2.</text>
<text text-anchor="middle" x="470" y="-232" font-family="Helvetica,sans-Serif" font-size="10.00">_find0</text>
</a>
</g>
</g>
<!-- Node2&#45;&gt;Node3 -->
<g id="edge2" class="edge">
<title>Node2&#45;&gt;Node3</title>
<path fill="none" stroke="midnightblue" d="M311.59,-170.53C339.67,-182.92 389.4,-204.87 425.46,-220.78"/>
<polygon fill="midnightblue" stroke="midnightblue" points="424.21,-224.06 434.77,-224.89 427.04,-217.65 424.21,-224.06"/>
</g>
<!-- Node7 -->
<g id="node7" class="node">
<title>Node7</title>
<g id="a_node7"><a xlink:href="../../d6/d90/a00514.html#a270703fb8c3193ce4203a956fa7fb8c8" target="_top" xlink:title=" ">
<polygon fill="none" stroke="black" points="1013.5,-203 1013.5,-233 1157.5,-233 1157.5,-203 1013.5,-203"/>
<text text-anchor="start" x="1021.5" y="-221" font-family="Helvetica,sans-Serif" font-size="10.00">com.cliffc.aa.HM.HM.T2.is</text>
<text text-anchor="middle" x="1085.5" y="-210" font-family="Helvetica,sans-Serif" font-size="10.00">_nilable</text>
</a>
</g>
</g>
<!-- Node2&#45;&gt;Node7 -->
<g id="edge22" class="edge">
<title>Node2&#45;&gt;Node7</title>
<path fill="none" stroke="midnightblue" d="M366.11,-164.37C516.83,-171.19 848.48,-187.02 962,-199 975.43,-200.42 989.64,-202.28 1003.44,-204.29"/>
<polygon fill="midnightblue" stroke="midnightblue" points="1002.99,-207.76 1013.4,-205.77 1004.02,-200.84 1002.99,-207.76"/>
</g>
<!-- Node10 -->
<g id="node10" class="node">
<title>Node10</title>
<g id="a_node10"><a xlink:href="../../d6/d90/a00514.html#aa03cafcc01a601038d86c3a37d35951c" target="_top" xlink:title=" ">
<polygon fill="none" stroke="black" points="812.5,-121 812.5,-151 948.5,-151 948.5,-121 812.5,-121"/>
<text text-anchor="start" x="820.5" y="-139" font-family="Helvetica,sans-Serif" font-size="10.00">com.cliffc.aa.HM.HM.T2.</text>
<text text-anchor="middle" x="880.5" y="-128" font-family="Helvetica,sans-Serif" font-size="10.00">_find_nil</text>
</a>
</g>
</g>
<!-- Node2&#45;&gt;Node10 -->
<g id="edge11" class="edge">
<title>Node2&#45;&gt;Node10</title>
<path fill="none" stroke="midnightblue" d="M366.16,-157.77C478.86,-152.99 688.88,-144.08 802.22,-139.28"/>
<polygon fill="midnightblue" stroke="midnightblue" points="802.37,-142.77 812.21,-138.85 802.07,-135.78 802.37,-142.77"/>
</g>
<!-- Node4 -->
<g id="node4" class="node">
<title>Node4</title>
<g id="a_node4"><a xlink:href="../../d6/d90/a00514.html#a2be9e6df2e83d83f7e1a0198e7aeefcc" target="_top" xlink:title=" ">
<polygon fill="none" stroke="black" points="574,-230.5 574,-249.5 763,-249.5 763,-230.5 574,-230.5"/>
<text text-anchor="middle" x="668.5" y="-237.5" font-family="Helvetica,sans-Serif" font-size="10.00">com.cliffc.aa.HM.HM.T2.debug_find</text>
</a>
</g>
</g>
<!-- Node3&#45;&gt;Node4 -->
<g id="edge3" class="edge">
<title>Node3&#45;&gt;Node4</title>
<path fill="none" stroke="midnightblue" d="M538.07,-240C546.39,-240 555.03,-240 563.73,-240"/>
<polygon fill="midnightblue" stroke="midnightblue" points="563.95,-243.5 573.95,-240 563.95,-236.5 563.95,-243.5"/>
</g>
<!-- Node5 -->
<g id="node5" class="node">
<title>Node5</title>
<g id="a_node5"><a xlink:href="../../d6/d90/a00514.html#aad197ab7ed2491b2ca581a9e4d68fd35" target="_top" xlink:title=" ">
<polygon fill="none" stroke="black" points="1001.5,-252.5 1001.5,-271.5 1169.5,-271.5 1169.5,-252.5 1001.5,-252.5"/>
<text text-anchor="middle" x="1085.5" y="-259.5" font-family="Helvetica,sans-Serif" font-size="10.00">com.cliffc.aa.HM.HM.T2.is_leaf</text>
</a>
</g>
</g>
<!-- Node3&#45;&gt;Node5 -->
<g id="edge10" class="edge">
<title>Node3&#45;&gt;Node5</title>
<path fill="none" stroke="midnightblue" d="M538.1,-253.93C550.01,-255.96 562.34,-257.78 574,-259 745.52,-277 789.55,-267.11 962,-265 971.47,-264.88 981.36,-264.72 991.22,-264.52"/>
<polygon fill="midnightblue" stroke="midnightblue" points="991.55,-268.02 1001.48,-264.31 991.41,-261.02 991.55,-268.02"/>
</g>
<!-- Node4&#45;&gt;Node5 -->
<g id="edge4" class="edge">
<title>Node4&#45;&gt;Node5</title>
<path fill="none" stroke="midnightblue" d="M763.15,-244.96C831.25,-248.57 923.06,-253.44 991.1,-257.05"/>
<polygon fill="midnightblue" stroke="midnightblue" points="991.21,-260.56 1001.39,-257.59 991.58,-253.57 991.21,-260.56"/>
</g>
<!-- Node6 -->
<g id="node6" class="node">
<title>Node6</title>
<g id="a_node6"><a xlink:href="../../d6/d90/a00514.html#a5a583637713ecacb740ff662677191f7" target="_top" xlink:title=" ">
<polygon fill="none" stroke="black" points="799,-208.5 799,-227.5 962,-227.5 962,-208.5 799,-208.5"/>
<text text-anchor="middle" x="880.5" y="-215.5" font-family="Helvetica,sans-Serif" font-size="10.00">com.cliffc.aa.HM.HM.T2.no_uf</text>
</a>
</g>
</g>
<!-- Node4&#45;&gt;Node6 -->
<g id="edge5" class="edge">
<title>Node4&#45;&gt;Node6</title>
<path fill="none" stroke="midnightblue" d="M760.39,-230.48C769.75,-229.5 779.26,-228.5 788.62,-227.52"/>
<polygon fill="midnightblue" stroke="midnightblue" points="789.13,-230.99 798.71,-226.46 788.4,-224.02 789.13,-230.99"/>
</g>
<!-- Node6&#45;&gt;Node5 -->
<g id="edge6" class="edge">
<title>Node6&#45;&gt;Node5</title>
<path fill="none" stroke="midnightblue" d="M925.55,-227.55C956.41,-234.24 997.83,-243.21 1030.65,-250.33"/>
<polygon fill="midnightblue" stroke="midnightblue" points="1030.02,-253.77 1040.54,-252.47 1031.51,-246.93 1030.02,-253.77"/>
</g>
<!-- Node6&#45;&gt;Node7 -->
<g id="edge7" class="edge">
<title>Node6&#45;&gt;Node7</title>
<path fill="none" stroke="midnightblue" d="M962.02,-218C975.52,-218 989.53,-218 1003.05,-218"/>
<polygon fill="midnightblue" stroke="midnightblue" points="1003.28,-221.5 1013.28,-218 1003.28,-214.5 1003.28,-221.5"/>
</g>
<!-- Node8 -->
<g id="node8" class="node">
<title>Node8</title>
<g id="a_node8"><a xlink:href="../../d6/d90/a00514.html#a217cc5615d6b0620d9c6489b1a5b6e94" target="_top" xlink:title=" ">
<polygon fill="none" stroke="black" points="1209,-164.5 1209,-183.5 1359,-183.5 1359,-164.5 1209,-164.5"/>
<text text-anchor="middle" x="1284" y="-171.5" font-family="Helvetica,sans-Serif" font-size="10.00">com.cliffc.aa.HM.HM.T2.isa</text>
</a>
</g>
</g>
<!-- Node7&#45;&gt;Node8 -->
<g id="edge8" class="edge">
<title>Node7&#45;&gt;Node8</title>
<path fill="none" stroke="midnightblue" d="M1153.57,-202.98C1178.77,-197.34 1207.02,-191.01 1230.68,-185.72"/>
<polygon fill="midnightblue" stroke="midnightblue" points="1231.52,-189.11 1240.52,-183.51 1230,-182.28 1231.52,-189.11"/>
</g>
<!-- Node9 -->
<g id="node9" class="node">
<title>Node9</title>
<g id="a_node9"><a xlink:href="../../dd/d55/a01638.html#a3975ba7dca9fe2d6e4992b2b5558f882" target="_top" xlink:title=" ">
<polygon fill="none" stroke="black" points="1395,-164.5 1395,-183.5 1528,-183.5 1528,-164.5 1395,-164.5"/>
<text text-anchor="middle" x="1461.5" y="-171.5" font-family="Helvetica,sans-Serif" font-size="10.00">com.cliffc.aa.util.Util.eq</text>
</a>
</g>
</g>
<!-- Node8&#45;&gt;Node9 -->
<g id="edge9" class="edge">
<title>Node8&#45;&gt;Node9</title>
<path fill="none" stroke="midnightblue" d="M1359.17,-174C1367.62,-174 1376.24,-174 1384.71,-174"/>
<polygon fill="midnightblue" stroke="midnightblue" points="1384.94,-177.5 1394.94,-174 1384.94,-170.5 1384.94,-177.5"/>
</g>
<!-- Node10&#45;&gt;Node5 -->
<g id="edge16" class="edge">
<title>Node10&#45;&gt;Node5</title>
<path fill="none" stroke="midnightblue" d="M903.41,-151.11C920.22,-163.18 943.61,-181 962,-199 980.06,-216.67 976.47,-229.78 998,-243 1001.44,-245.11 1005.08,-246.99 1008.85,-248.66"/>
<polygon fill="midnightblue" stroke="midnightblue" points="1007.85,-252.03 1018.44,-252.4 1010.39,-245.51 1007.85,-252.03"/>
</g>
<!-- Node10&#45;&gt;Node7 -->
<g id="edge17" class="edge">
<title>Node10&#45;&gt;Node7</title>
<path fill="none" stroke="midnightblue" d="M928.91,-151.09C940.04,-155.33 951.66,-160.35 962,-166 979.55,-175.59 980.1,-184.08 998,-193 1002.6,-195.29 1007.45,-197.41 1012.41,-199.36"/>
<polygon fill="midnightblue" stroke="midnightblue" points="1011.44,-202.73 1022.03,-202.9 1013.86,-196.16 1011.44,-202.73"/>
</g>
<!-- Node11 -->
<g id="node11" class="node">
<title>Node11</title>
<g id="a_node11"><a xlink:href="../../d6/d90/a00514.html#ac1fbc51b21d125add5626c3ff7b6c020" target="_top" xlink:title=" ">
<polygon fill="none" stroke="black" points="1007,-0.5 1007,-19.5 1164,-19.5 1164,-0.5 1007,-0.5"/>
<text text-anchor="middle" x="1085.5" y="-7.5" font-family="Helvetica,sans-Serif" font-size="10.00">com.cliffc.aa.HM.HM.T2.args</text>
</a>
</g>
</g>
<!-- Node10&#45;&gt;Node11 -->
<g id="edge12" class="edge">
<title>Node10&#45;&gt;Node11</title>
<path fill="none" stroke="midnightblue" d="M899.37,-120.8C915.88,-106.63 940.95,-84.77 962,-65 978.49,-49.51 978.15,-39.86 998,-29 1002.24,-26.68 1006.75,-24.64 1011.39,-22.85"/>
<polygon fill="midnightblue" stroke="midnightblue" points="1012.76,-26.08 1021.07,-19.51 1010.48,-19.46 1012.76,-26.08"/>
</g>
<!-- Node12 -->
<g id="node12" class="node">
<title>Node12</title>
<g id="a_node12"><a xlink:href="../../d6/d90/a00514.html#a41ec42213b59c2aa5fa3d08b29392987" target="_top" xlink:title=" ">
<polygon fill="none" stroke="black" points="999,-164.5 999,-183.5 1172,-183.5 1172,-164.5 999,-164.5"/>
<text text-anchor="middle" x="1085.5" y="-171.5" font-family="Helvetica,sans-Serif" font-size="10.00">com.cliffc.aa.HM.HM.T2.is_base</text>
</a>
</g>
</g>
<!-- Node10&#45;&gt;Node12 -->
<g id="edge14" class="edge">
<title>Node10&#45;&gt;Node12</title>
<path fill="none" stroke="midnightblue" d="M948.53,-148.55C972.78,-153.09 1000.02,-158.19 1023.7,-162.62"/>
<polygon fill="midnightblue" stroke="midnightblue" points="1023.15,-166.08 1033.62,-164.48 1024.43,-159.2 1023.15,-166.08"/>
</g>
<!-- Node13 -->
<g id="node13" class="node">
<title>Node13</title>
<g id="a_node13"><a xlink:href="../../d6/d90/a00514.html#aeca37cb502364f8754a30e7d2ab69bea" target="_top" xlink:title=" ">
<polygon fill="none" stroke="black" points="1013.5,-39 1013.5,-69 1157.5,-69 1157.5,-39 1013.5,-39"/>
<text text-anchor="start" x="1021.5" y="-57" font-family="Helvetica,sans-Serif" font-size="10.00">com.cliffc.aa.HM.HM.T2.is</text>
<text text-anchor="middle" x="1085.5" y="-46" font-family="Helvetica,sans-Serif" font-size="10.00">_struct</text>
</a>
</g>
</g>
<!-- Node10&#45;&gt;Node13 -->
<g id="edge18" class="edge">
<title>Node10&#45;&gt;Node13</title>
<path fill="none" stroke="midnightblue" d="M909.14,-120.78C932.37,-108.4 966.7,-91.08 998,-79 1004.27,-76.58 1010.88,-74.27 1017.53,-72.1"/>
<polygon fill="midnightblue" stroke="midnightblue" points="1018.79,-75.37 1027.27,-69.02 1016.68,-68.69 1018.79,-75.37"/>
</g>
<!-- Node14 -->
<g id="node14" class="node">
<title>Node14</title>
<g id="a_node14"><a xlink:href="../../d4/d3c/a01418.html#a27354297967782a1dd7160b773ffbb3b" target="_top" xlink:title=" ">
<polygon fill="none" stroke="black" points="1000,-126.5 1000,-145.5 1171,-145.5 1171,-126.5 1000,-126.5"/>
<text text-anchor="middle" x="1085.5" y="-133.5" font-family="Helvetica,sans-Serif" font-size="10.00">com.cliffc.aa.type.Bits.meet_nil</text>
</a>
</g>
</g>
<!-- Node10&#45;&gt;Node14 -->
<g id="edge20" class="edge">
<title>Node10&#45;&gt;Node14</title>
<path fill="none" stroke="midnightblue" d="M948.53,-136C961.73,-136 975.81,-136 989.72,-136"/>
<polygon fill="midnightblue" stroke="midnightblue" points="989.8,-139.5 999.8,-136 989.8,-132.5 989.8,-139.5"/>
</g>
<!-- Node15 -->
<g id="node15" class="node">
<title>Node15</title>
<g id="a_node15"><a xlink:href="../../d0/de2/a01442.html#ad98969d0c8402d042a84def9adba12e6" target="_top" xlink:title=" ">
<polygon fill="none" stroke="black" points="998,-88.5 998,-107.5 1173,-107.5 1173,-88.5 998,-88.5"/>
<text text-anchor="middle" x="1085.5" y="-95.5" font-family="Helvetica,sans-Serif" font-size="10.00">com.cliffc.aa.type.Type.meet_nil</text>
</a>
</g>
</g>
<!-- Node10&#45;&gt;Node15 -->
<g id="edge21" class="edge">
<title>Node10&#45;&gt;Node15</title>
<path fill="none" stroke="midnightblue" d="M948.53,-123.45C972.78,-118.91 1000.02,-113.81 1023.7,-109.38"/>
<polygon fill="midnightblue" stroke="midnightblue" points="1024.43,-112.8 1033.62,-107.52 1023.15,-105.92 1024.43,-112.8"/>
</g>
<!-- Node11&#45;&gt;Node2 -->
<g id="edge13" class="edge">
<title>Node11&#45;&gt;Node2</title>
<path fill="none" stroke="midnightblue" d="M1034.36,-19.53C894.6,-46.09 501.02,-120.89 350.02,-149.59"/>
<polygon fill="midnightblue" stroke="midnightblue" points="349.17,-146.19 340,-151.5 350.48,-153.07 349.17,-146.19"/>
</g>
<!-- Node12&#45;&gt;Node8 -->
<g id="edge15" class="edge">
<title>Node12&#45;&gt;Node8</title>
<path fill="none" stroke="midnightblue" d="M1172.12,-174C1180.89,-174 1189.8,-174 1198.55,-174"/>
<polygon fill="midnightblue" stroke="midnightblue" points="1198.75,-177.5 1208.75,-174 1198.75,-170.5 1198.75,-177.5"/>
</g>
<!-- Node13&#45;&gt;Node8 -->
<g id="edge19" class="edge">
<title>Node13&#45;&gt;Node8</title>
<path fill="none" stroke="midnightblue" d="M1150.59,-69.11C1158.34,-71.92 1165.99,-75.2 1173,-79 1211.19,-99.71 1247.76,-135.52 1267.62,-156.76"/>
<polygon fill="midnightblue" stroke="midnightblue" points="1265.27,-159.38 1274.61,-164.38 1270.43,-154.65 1265.27,-159.38"/>
</g>
</g>
</svg>
        <g id="navigator" transform="translate(0 0)" fill="#404254">
                <rect fill="#f2f5e9" fill-opacity="0.5" stroke="#606060" stroke-width=".5" x="0" y="0" width="60" height="60"/>
                <use id="zoomplus" xlink:href="#zoomPlus" x="17" y="9" onmousedown="handleZoom(evt,'in')"/>
                <use id="zoomminus" xlink:href="#zoomMin" x="42" y="9" onmousedown="handleZoom(evt,'out')"/>
                <use id="reset" xlink:href="#resetDef" x="30" y="36" onmousedown="handleReset()"/>
                <g id="arrowUp" xlink:href="#dirArrow" transform="translate(30 24)" onmousedown="handlePan(0,-1)">
                  <use xlink:href="#rim" fill="#404040">
                        <set attributeName="fill" to="#808080" begin="arrowUp.mouseover" end="arrowUp.mouseout"/>
                  </use>
                  <path fill="none" stroke="white" stroke-width="1.5" d="M0,-3.0v7 M-2.5,-0.5L0,-3.0L2.5,-0.5"/>
                </g>
                <g id="arrowRight" xlink:href="#dirArrow" transform="rotate(90) translate(36 -43)" onmousedown="handlePan(1,0)">
                  <use xlink:href="#rim" fill="#404040">
                        <set attributeName="fill" to="#808080" begin="arrowRight.mouseover" end="arrowRight.mouseout"/>
                  </use>
                  <path fill="none" stroke="white" stroke-width="1.5" d="M0,-3.0v7 M-2.5,-0.5L0,-3.0L2.5,-0.5"/>
                </g>
                <g id="arrowDown" xlink:href="#dirArrow" transform="rotate(180) translate(-30 -48)" onmousedown="handlePan(0,1)">
                  <use xlink:href="#rim" fill="#404040">
                        <set attributeName="fill" to="#808080" begin="arrowDown.mouseover" end="arrowDown.mouseout"/>
                  </use>
                  <path fill="none" stroke="white" stroke-width="1.5" d="M0,-3.0v7 M-2.5,-0.5L0,-3.0L2.5,-0.5"/>
                </g>
                <g id="arrowLeft" xlink:href="#dirArrow" transform="rotate(270) translate(-36 17)" onmousedown="handlePan(-1,0)">
                  <use xlink:href="#rim" fill="#404040">
                        <set attributeName="fill" to="#808080" begin="arrowLeft.mouseover" end="arrowLeft.mouseout"/>
                  </use>
                  <path fill="none" stroke="white" stroke-width="1.5" d="M0,-3.0v7 M-2.5,-0.5L0,-3.0L2.5,-0.5"/>
                </g>
        </g>
        <svg viewBox="0 0 15 15" width="100%" height="30px" preserveAspectRatio="xMaxYMin meet">
         <g id="arrow_out" transform="scale(0.3 0.3)">
          <a xlink:href="a00418_a936a6f911e9644203e7712e8fcdb2fdc_cgraph_org.svg" target="_base">
           <rect id="button" ry="5" rx="5" y="6" x="6" height="38" width="38"
                fill="#f2f5e9" fill-opacity="0.5" stroke="#606060" stroke-width="1.0"/>
           <path id="arrow"
             d="M 11.500037,31.436501 C 11.940474,20.09759 22.043105,11.32322 32.158766,21.979434 L 37.068811,17.246167 C 37.068811,17.246167 37.088388,32 37.088388,32 L 22.160133,31.978069 C 22.160133,31.978069 26.997745,27.140456 26.997745,27.140456 C 18.528582,18.264221 13.291696,25.230495 11.500037,31.436501 z"
             style="fill:#404040;"/>
          </a>
         </g>
        </svg>
</svg>
