<?xml version="1.0" encoding="UTF-8" standalone="no"?>
<!DOCTYPE svg PUBLIC "-//W3C//DTD SVG 1.1//EN"
 "http://www.w3.org/Graphics/SVG/1.1/DTD/svg11.dtd">
<!-- Generated by graphviz version 2.43.0 (0)
 -->
<!-- Title: com.cliffc.aa.type.TypeFld.Access.str Pages: 1 -->
<svg width="560pt" height="39pt"
 viewBox="0.00 0.00 560.00 39.00" xmlns="http://www.w3.org/2000/svg" xmlns:xlink="http://www.w3.org/1999/xlink">
<g id="graph0" class="graph" transform="scale(1 1) rotate(0) translate(4 35)">
<title>com.cliffc.aa.type.TypeFld.Access.str</title>
<!-- Node1 -->
<g id="node1" class="node">
<title>Node1</title>
<g id="a_node1"><a xlink:title=" ">
<polygon fill="#bfbfbf" stroke="black" points="405,-0.5 405,-30.5 552,-30.5 552,-0.5 405,-0.5"/>
<text text-anchor="start" x="413" y="-18.5" font-family="Helvetica,sans-Serif" font-size="10.00">com.cliffc.aa.type.TypeFld.</text>
<text text-anchor="middle" x="478.5" y="-7.5" font-family="Helvetica,sans-Serif" font-size="10.00">Access.str</text>
</a>
</g>
</g>
<!-- Node2 -->
<g id="node2" class="node">
<title>Node2</title>
<g id="a_node2"><a xlink:href="../../d7/dd1/a01458.html#a8b1ed65a8828d3bde9cb6e84f5f244c6" target="_top" xlink:title=" ">
<polygon fill="none" stroke="black" points="209,-6 209,-25 369,-25 369,-6 209,-6"/>
<text text-anchor="middle" x="289" y="-13" font-family="Helvetica,sans-Serif" font-size="10.00">com.cliffc.aa.type.TypeFld.str</text>
</a>
</g>
</g>
<!-- Node1&#45;&gt;Node2 -->
<g id="edge1" class="edge">
<title>Node1&#45;&gt;Node2</title>
<path fill="none" stroke="midnightblue" d="M394.56,-15.5C386.15,-15.5 377.62,-15.5 369.25,-15.5"/>
<polygon fill="midnightblue" stroke="midnightblue" points="394.74,-19 404.74,-15.5 394.74,-12 394.74,-19"/>
</g>
<!-- Node3 -->
<g id="node3" class="node">
<title>Node3</title>
<g id="a_node3"><a xlink:href="../../da/da6/a01522.html#a1279f9172c0980e94078ccdd39dc8944" target="_top" xlink:title=" ">
<polygon fill="none" stroke="black" points="0,-6 0,-25 173,-25 173,-6 0,-6"/>
<text text-anchor="middle" x="86.5" y="-13" font-family="Helvetica,sans-Serif" font-size="10.00">com.cliffc.aa.type.TypeStruct.str</text>
</a>
</g>
</g>
<!-- Node2&#45;&gt;Node3 -->
<g id="edge2" class="edge">
<title>Node2&#45;&gt;Node3</title>
<path fill="none" stroke="midnightblue" d="M198.52,-15.5C190.07,-15.5 181.51,-15.5 173.1,-15.5"/>
<polygon fill="midnightblue" stroke="midnightblue" points="198.76,-19 208.76,-15.5 198.76,-12 198.76,-19"/>
</g>
</g>
</svg>
