<?xml version="1.0" encoding="UTF-8" standalone="no"?>
<!DOCTYPE svg PUBLIC "-//W3C//DTD SVG 1.1//EN"
 "http://www.w3.org/Graphics/SVG/1.1/DTD/svg11.dtd">
<!-- Generated by graphviz version 2.43.0 (0)
 -->
<!-- Title: com.cliffc.aa.type.TypeFld.Access.str Pages: 1 -->
<svg width="471pt" height="39pt"
 viewBox="0.00 0.00 471.00 39.00" xmlns="http://www.w3.org/2000/svg" xmlns:xlink="http://www.w3.org/1999/xlink">
<g id="graph0" class="graph" transform="scale(1 1) rotate(0) translate(4 35)">
<title>com.cliffc.aa.type.TypeFld.Access.str</title>
<!-- Node1 -->
<g id="node1" class="node">
<title>Node1</title>
<g id="a_node1"><a xlink:title=" ">
<polygon fill="#bfbfbf" stroke="black" points="0,-0.5 0,-30.5 147,-30.5 147,-0.5 0,-0.5"/>
<text text-anchor="start" x="8" y="-18.5" font-family="Helvetica,sans-Serif" font-size="10.00">com.cliffc.aa.type.TypeFld.</text>
<text text-anchor="middle" x="73.5" y="-7.5" font-family="Helvetica,sans-Serif" font-size="10.00">Access.str</text>
</a>
</g>
</g>
<!-- Node2 -->
<g id="node2" class="node">
<title>Node2</title>
<g id="a_node2"><a xlink:href="../../d4/d99/a01634.html#ac801338e82849a7fe2ae7a0feb80bb55" target="_top" xlink:title=" ">
<polygon fill="none" stroke="black" points="183,-6 183,-25 305,-25 305,-6 183,-6"/>
<text text-anchor="middle" x="244" y="-13" font-family="Helvetica,sans-Serif" font-size="10.00">com.cliffc.aa.util.SB.p</text>
</a>
</g>
</g>
<!-- Node1&#45;&gt;Node2 -->
<g id="edge1" class="edge">
<title>Node1&#45;&gt;Node2</title>
<path fill="none" stroke="midnightblue" d="M147.43,-15.5C155.84,-15.5 164.4,-15.5 172.77,-15.5"/>
<polygon fill="midnightblue" stroke="midnightblue" points="172.87,-19 182.87,-15.5 172.87,-12 172.87,-19"/>
</g>
<!-- Node3 -->
<g id="node3" class="node">
<title>Node3</title>
<g id="a_node3"><a xlink:href="../../d4/d99/a01634.html#abd1b8ac722e0fb0bf1e7b2ea0eaeb0b6" target="_top" xlink:title=" ">
<polygon fill="none" stroke="black" points="341,-6 341,-25 463,-25 463,-6 341,-6"/>
<text text-anchor="middle" x="402" y="-13" font-family="Helvetica,sans-Serif" font-size="10.00">com.cliffc.aa.util.SB.s</text>
</a>
</g>
</g>
<!-- Node2&#45;&gt;Node3 -->
<g id="edge2" class="edge">
<title>Node2&#45;&gt;Node3</title>
<path fill="none" stroke="midnightblue" d="M305.31,-15.5C313.6,-15.5 322.17,-15.5 330.63,-15.5"/>
<polygon fill="midnightblue" stroke="midnightblue" points="330.85,-19 340.85,-15.5 330.85,-12 330.85,-19"/>
</g>
</g>
</svg>
