<?xml version="1.0" encoding="UTF-8" standalone="no"?>
<!DOCTYPE svg PUBLIC "-//W3C//DTD SVG 1.1//EN"
 "http://www.w3.org/Graphics/SVG/1.1/DTD/svg11.dtd">
<!-- Generated by graphviz version 2.43.0 (0)
 -->
<!-- Title: com.cliffc.aa.node.ScopeNode.live Pages: 1 -->
<!--zoomable 788 -->
<svg id="main" version="1.1" xmlns="http://www.w3.org/2000/svg" xmlns:xlink="http://www.w3.org/1999/xlink" xml:space="preserve" onload="init(evt)">
<style type="text/css"><![CDATA[
.edge:hover path { stroke: red; }
.edge:hover polygon { stroke: red; fill: red; }
]]></style>
<script type="text/javascript"><![CDATA[
var edges = document.getElementsByTagName('g');
if (edges && edges.length) {
  for (var i=0;i<edges.length;i++) {
    if (edges[i].id.substr(0,4)=='edge') {
      edges[i].setAttribute('class','edge');
    }
  }
}
]]></script>
        <defs>
                <circle id="rim" cx="0" cy="0" r="7"/>
                <circle id="rim2" cx="0" cy="0" r="3.5"/>
                <g id="zoomPlus">
                        <use xlink:href="#rim" fill="#404040">
                                <set attributeName="fill" to="#808080" begin="zoomplus.mouseover" end="zoomplus.mouseout"/>
                        </use>
                        <path d="M-4,0h8M0,-4v8" fill="none" stroke="white" stroke-width="1.5" pointer-events="none"/>
                </g>
                <g id="zoomMin">
                        <use xlink:href="#rim" fill="#404040">
                                <set attributeName="fill" to="#808080" begin="zoomminus.mouseover" end="zoomminus.mouseout"/>
                        </use>
                        <path d="M-4,0h8" fill="none" stroke="white" stroke-width="1.5" pointer-events="none"/>
                </g>
                <g id="dirArrow">
                        <path fill="none" stroke="white" stroke-width="1.5" d="M0,-3.0v7 M-2.5,-0.5L0,-3.0L2.5,-0.5"/>
                </g>
               <g id="resetDef">
                       <use xlink:href="#rim2" fill="#404040">
                               <set attributeName="fill" to="#808080" begin="reset.mouseover" end="reset.mouseout"/>
                       </use>
               </g>
        </defs>

<script type="text/javascript">
var viewWidth = 1692;
var viewHeight = 788;
var sectionId = 'dynsection-98';
</script>
<script xlink:href="../../svgpan.js"/>
<svg id="graph" class="graph">
<g id="viewport">
<title>com.cliffc.aa.node.ScopeNode.live</title>
<!-- Node1 -->
<g id="node1" class="node">
<title>Node1</title>
<g id="a_node1"><a xlink:title=" ">
<polygon fill="#bfbfbf" stroke="black" points="0,-49.5 0,-79.5 138,-79.5 138,-49.5 0,-49.5"/>
<text text-anchor="start" x="8" y="-67.5" font-family="Helvetica,sans-Serif" font-size="10.00">com.cliffc.aa.node.Scope</text>
<text text-anchor="middle" x="69" y="-56.5" font-family="Helvetica,sans-Serif" font-size="10.00">Node.live</text>
</a>
</g>
</g>
<!-- Node2 -->
<g id="node2" class="node">
<title>Node2</title>
<g id="a_node2"><a xlink:href="../../de/d5c/a01358.html#a13e135775bcafb6fe8c296b46dc0c2d6" target="_top" xlink:title=" ">
<polygon fill="none" stroke="black" points="174,-137.5 174,-167.5 316,-167.5 316,-137.5 174,-137.5"/>
<text text-anchor="start" x="182" y="-155.5" font-family="Helvetica,sans-Serif" font-size="10.00">com.cliffc.aa.node.Scope</text>
<text text-anchor="middle" x="245" y="-144.5" font-family="Helvetica,sans-Serif" font-size="10.00">Node.compute_live_mem</text>
</a>
</g>
</g>
<!-- Node1&#45;&gt;Node2 -->
<g id="edge1" class="edge">
<title>Node1&#45;&gt;Node2</title>
<path fill="none" stroke="midnightblue" d="M99.91,-79.63C129.01,-94.34 173.35,-116.77 205.16,-132.86"/>
<polygon fill="midnightblue" stroke="midnightblue" points="203.68,-136.03 214.19,-137.42 206.84,-129.79 203.68,-136.03"/>
</g>
<!-- Node35 -->
<g id="node35" class="node">
<title>Node35</title>
<g id="a_node35"><a xlink:href="../../de/d5c/a01358.html#a199043a64946784dc275e91423aa4076" target="_top" xlink:title=" ">
<polygon fill="none" stroke="black" points="377,-49.5 377,-79.5 515,-79.5 515,-49.5 377,-49.5"/>
<text text-anchor="start" x="385" y="-67.5" font-family="Helvetica,sans-Serif" font-size="10.00">com.cliffc.aa.node.Scope</text>
<text text-anchor="middle" x="446" y="-56.5" font-family="Helvetica,sans-Serif" font-size="10.00">Node.mem</text>
</a>
</g>
</g>
<!-- Node1&#45;&gt;Node35 -->
<g id="edge51" class="edge">
<title>Node1&#45;&gt;Node35</title>
<path fill="none" stroke="midnightblue" d="M138.34,-64.5C202.75,-64.5 299.17,-64.5 366.65,-64.5"/>
<polygon fill="midnightblue" stroke="midnightblue" points="366.81,-68 376.81,-64.5 366.81,-61 366.81,-68"/>
</g>
<!-- Node37 -->
<g id="node37" class="node">
<title>Node37</title>
<g id="a_node37"><a xlink:href="../../de/d5c/a01358.html#ae042d31e0069bd9ff011bae450d21870" target="_top" xlink:title=" ">
<polygon fill="none" stroke="black" points="377,-0.5 377,-30.5 515,-30.5 515,-0.5 377,-0.5"/>
<text text-anchor="start" x="385" y="-18.5" font-family="Helvetica,sans-Serif" font-size="10.00">com.cliffc.aa.node.Scope</text>
<text text-anchor="middle" x="446" y="-7.5" font-family="Helvetica,sans-Serif" font-size="10.00">Node.rez</text>
</a>
</g>
</g>
<!-- Node1&#45;&gt;Node37 -->
<g id="edge52" class="edge">
<title>Node1&#45;&gt;Node37</title>
<path fill="none" stroke="midnightblue" d="M138.34,-55.57C202.75,-47.15 299.17,-34.56 366.65,-25.74"/>
<polygon fill="midnightblue" stroke="midnightblue" points="367.35,-29.18 376.81,-24.41 366.44,-22.24 367.35,-29.18"/>
</g>
<!-- Node3 -->
<g id="node3" class="node">
<title>Node3</title>
<g id="a_node3"><a xlink:href="../../d0/de2/a01442.html#aa714dfa13a9224150753af2d8efde48d" target="_top" xlink:title=" ">
<polygon fill="none" stroke="black" points="365,-137.5 365,-167.5 527,-167.5 527,-137.5 365,-137.5"/>
<text text-anchor="start" x="373" y="-155.5" font-family="Helvetica,sans-Serif" font-size="10.00">com.cliffc.aa.type.Type.above</text>
<text text-anchor="middle" x="446" y="-144.5" font-family="Helvetica,sans-Serif" font-size="10.00">_center</text>
</a>
</g>
</g>
<!-- Node2&#45;&gt;Node3 -->
<g id="edge2" class="edge">
<title>Node2&#45;&gt;Node3</title>
<path fill="none" stroke="midnightblue" d="M316.16,-152.5C328.61,-152.5 341.73,-152.5 354.65,-152.5"/>
<polygon fill="midnightblue" stroke="midnightblue" points="354.95,-156 364.95,-152.5 354.94,-149 354.95,-156"/>
</g>
<!-- Node4 -->
<g id="node4" class="node">
<title>Node4</title>
<g id="a_node4"><a xlink:href="../../d6/d51/a01494.html#a7ae4ee3b7b8a21b1c69b07383b368cb8" target="_top" xlink:title=" ">
<polygon fill="none" stroke="black" points="361.5,-314.5 361.5,-344.5 530.5,-344.5 530.5,-314.5 361.5,-314.5"/>
<text text-anchor="start" x="369.5" y="-332.5" font-family="Helvetica,sans-Serif" font-size="10.00">com.cliffc.aa.type.TypeMem.all</text>
<text text-anchor="middle" x="446" y="-321.5" font-family="Helvetica,sans-Serif" font-size="10.00">_reaching_aliases</text>
</a>
</g>
</g>
<!-- Node2&#45;&gt;Node4 -->
<g id="edge3" class="edge">
<title>Node2&#45;&gt;Node4</title>
<path fill="none" stroke="midnightblue" d="M262.97,-167.59C298.21,-198.94 379.48,-271.22 420.45,-307.66"/>
<polygon fill="midnightblue" stroke="midnightblue" points="418.28,-310.42 428.08,-314.45 422.93,-305.19 418.28,-310.42"/>
</g>
<!-- Node16 -->
<g id="node16" class="node">
<title>Node16</title>
<g id="a_node16"><a xlink:href="../../d0/de2/a01442.html#ad4b6fe2d948ba739fd3d5e0feac103e6" target="_top" xlink:title=" ">
<polygon fill="none" stroke="black" points="600,-137 600,-156 746,-156 746,-137 600,-137"/>
<text text-anchor="middle" x="673" y="-144" font-family="Helvetica,sans-Serif" font-size="10.00">com.cliffc.aa.type.Type.isa</text>
</a>
</g>
</g>
<!-- Node2&#45;&gt;Node16 -->
<g id="edge39" class="edge">
<title>Node2&#45;&gt;Node16</title>
<path fill="none" stroke="midnightblue" d="M298.95,-167.53C315.77,-171.61 334.53,-175.47 352,-177.5 435,-187.15 457.36,-189.84 540,-177.5 556.55,-175.03 559.79,-170.65 576,-166.5 587.6,-163.53 600.06,-160.68 612.05,-158.11"/>
<polygon fill="midnightblue" stroke="midnightblue" points="612.91,-161.51 621.97,-156.02 611.47,-154.66 612.91,-161.51"/>
</g>
<!-- Node24 -->
<g id="node24" class="node">
<title>Node24</title>
<g id="a_node24"><a xlink:href="../../d6/d51/a01494.html#a569a2d713b117af40fb04583d2c2e9ae" target="_top" xlink:title=" ">
<polygon fill="none" stroke="black" points="352,-686.5 352,-716.5 540,-716.5 540,-686.5 352,-686.5"/>
<text text-anchor="start" x="360" y="-704.5" font-family="Helvetica,sans-Serif" font-size="10.00">com.cliffc.aa.type.TypeMem.flatten</text>
<text text-anchor="middle" x="446" y="-693.5" font-family="Helvetica,sans-Serif" font-size="10.00">_fields</text>
</a>
</g>
</g>
<!-- Node2&#45;&gt;Node24 -->
<g id="edge26" class="edge">
<title>Node2&#45;&gt;Node24</title>
<path fill="none" stroke="midnightblue" d="M247.14,-167.76C251.97,-225.96 274.33,-438.36 352,-591.5 369.43,-625.86 399.57,-658.71 420.8,-679.42"/>
<polygon fill="midnightblue" stroke="midnightblue" points="418.54,-682.09 428.18,-686.48 423.38,-677.04 418.54,-682.09"/>
</g>
<!-- Node34 -->
<g id="node34" class="node">
<title>Node34</title>
<g id="a_node34"><a xlink:href="../../d0/de2/a01442.html#a388429cb6bea455104e3b9690d992854" target="_top" xlink:title=" ">
<polygon fill="none" stroke="black" points="828.5,-368 828.5,-387 978.5,-387 978.5,-368 828.5,-368"/>
<text text-anchor="middle" x="903.5" y="-375" font-family="Helvetica,sans-Serif" font-size="10.00">com.cliffc.aa.type.Type.oob</text>
</a>
</g>
</g>
<!-- Node2&#45;&gt;Node34 -->
<g id="edge42" class="edge">
<title>Node2&#45;&gt;Node34</title>
<path fill="none" stroke="midnightblue" d="M301.72,-137.49C317.82,-133.81 335.5,-130.38 352,-128.5 444.29,-117.97 699.01,-67.59 770,-127.5 842.71,-188.85 746.34,-264.4 806,-338.5 815.53,-350.34 829.21,-358.6 843.29,-364.37"/>
<polygon fill="midnightblue" stroke="midnightblue" points="842.46,-367.8 853.05,-367.98 844.88,-361.23 842.46,-367.8"/>
</g>
<!-- Node2&#45;&gt;Node35 -->
<g id="edge40" class="edge">
<title>Node2&#45;&gt;Node35</title>
<path fill="none" stroke="midnightblue" d="M270.6,-137.3C291.67,-124.71 323.1,-106.94 352,-94.5 361.68,-90.33 372.15,-86.42 382.44,-82.89"/>
<polygon fill="midnightblue" stroke="midnightblue" points="383.85,-86.11 392.22,-79.62 381.63,-79.47 383.85,-86.11"/>
</g>
<!-- Node2&#45;&gt;Node37 -->
<g id="edge43" class="edge">
<title>Node2&#45;&gt;Node37</title>
<path fill="none" stroke="midnightblue" d="M256.12,-137.29C273.05,-113.06 309.46,-65.87 352,-40.5 356.76,-37.66 361.84,-35.14 367.08,-32.9"/>
<polygon fill="midnightblue" stroke="midnightblue" points="368.62,-36.06 376.66,-29.17 366.08,-29.54 368.62,-36.06"/>
</g>
<!-- Node38 -->
<g id="node38" class="node">
<title>Node38</title>
<g id="a_node38"><a xlink:href="../../d6/d51/a01494.html#af50e8f32b1dcfbc7653fb17d0702334b" target="_top" xlink:title=" ">
<polygon fill="none" stroke="black" points="356.5,-551.5 356.5,-581.5 535.5,-581.5 535.5,-551.5 356.5,-551.5"/>
<text text-anchor="start" x="364.5" y="-569.5" font-family="Helvetica,sans-Serif" font-size="10.00">com.cliffc.aa.type.TypeMem.slice</text>
<text text-anchor="middle" x="446" y="-558.5" font-family="Helvetica,sans-Serif" font-size="10.00">_reaching_aliases</text>
</a>
</g>
</g>
<!-- Node2&#45;&gt;Node38 -->
<g id="edge45" class="edge">
<title>Node2&#45;&gt;Node38</title>
<path fill="none" stroke="midnightblue" d="M253.32,-167.73C283.18,-229.85 395.99,-464.53 433.09,-541.72"/>
<polygon fill="midnightblue" stroke="midnightblue" points="430.13,-543.64 437.61,-551.14 436.44,-540.61 430.13,-543.64"/>
</g>
<!-- Node5 -->
<g id="node5" class="node">
<title>Node5</title>
<g id="a_node5"><a xlink:href="../../d6/d51/a01494.html#a5e838ac60f632089c8c90131a6157196" target="_top" xlink:title=" ">
<polygon fill="none" stroke="black" points="577.5,-491 577.5,-510 768.5,-510 768.5,-491 577.5,-491"/>
<text text-anchor="middle" x="673" y="-498" font-family="Helvetica,sans-Serif" font-size="10.00">com.cliffc.aa.type.TypeMem.aliases</text>
</a>
</g>
</g>
<!-- Node4&#45;&gt;Node5 -->
<g id="edge4" class="edge">
<title>Node4&#45;&gt;Node5</title>
<path fill="none" stroke="midnightblue" d="M455.3,-344.97C472.97,-376.29 517.51,-447.13 576,-481.5 579.71,-483.68 583.62,-485.61 587.66,-487.33"/>
<polygon fill="midnightblue" stroke="midnightblue" points="586.7,-490.7 597.29,-490.95 589.16,-484.15 586.7,-490.7"/>
</g>
<!-- Node7 -->
<g id="node7" class="node">
<title>Node7</title>
<g id="a_node7"><a xlink:href="../../d4/d3c/a01418.html#a67a22eb4d796191ccdb66423b43af850" target="_top" xlink:title=" ">
<polygon fill="none" stroke="black" points="832,-439 832,-458 975,-458 975,-439 832,-439"/>
<text text-anchor="middle" x="903.5" y="-446" font-family="Helvetica,sans-Serif" font-size="10.00">com.cliffc.aa.type.Bits.set</text>
</a>
</g>
</g>
<!-- Node4&#45;&gt;Node7 -->
<g id="edge24" class="edge">
<title>Node4&#45;&gt;Node7</title>
<path fill="none" stroke="midnightblue" d="M494.19,-344.55C518.49,-352 548.67,-360.81 576,-367.5 661.34,-388.38 684.95,-383.46 770,-405.5 803.21,-414.11 840.31,-426.38 866.78,-435.61"/>
<polygon fill="midnightblue" stroke="midnightblue" points="865.78,-438.97 876.38,-438.99 868.11,-432.37 865.78,-438.97"/>
</g>
<!-- Node8 -->
<g id="node8" class="node">
<title>Node8</title>
<g id="a_node8"><a xlink:href="../../d6/d51/a01494.html#ae46f6ec465a8f92933cac6594c35d615" target="_top" xlink:title=" ">
<polygon fill="none" stroke="black" points="589.5,-529 589.5,-548 756.5,-548 756.5,-529 589.5,-529"/>
<text text-anchor="middle" x="673" y="-536" font-family="Helvetica,sans-Serif" font-size="10.00">com.cliffc.aa.type.TypeMem.at</text>
</a>
</g>
</g>
<!-- Node4&#45;&gt;Node8 -->
<g id="edge7" class="edge">
<title>Node4&#45;&gt;Node8</title>
<path fill="none" stroke="midnightblue" d="M452.52,-344.54C466.74,-381.07 508.35,-474.71 576,-519.5 578.99,-521.48 582.15,-523.27 585.42,-524.87"/>
<polygon fill="midnightblue" stroke="midnightblue" points="584.32,-528.21 594.89,-528.94 587.08,-521.78 584.32,-528.21"/>
</g>
<!-- Node9 -->
<g id="node9" class="node">
<title>Node9</title>
<g id="a_node9"><a xlink:href="../../da/da6/a01522.html#a78cac35958d77be581cdbbe602741b8a" target="_top" xlink:title=" ">
<polygon fill="none" stroke="black" points="584,-263 584,-282 762,-282 762,-263 584,-263"/>
<text text-anchor="middle" x="673" y="-270" font-family="Helvetica,sans-Serif" font-size="10.00">com.cliffc.aa.type.TypeStruct.flds</text>
</a>
</g>
</g>
<!-- Node4&#45;&gt;Node9 -->
<g id="edge9" class="edge">
<title>Node4&#45;&gt;Node9</title>
<path fill="none" stroke="midnightblue" d="M494.2,-314.47C518.5,-307.03 548.68,-298.21 576,-291.5 586.61,-288.89 597.95,-286.4 608.98,-284.12"/>
<polygon fill="midnightblue" stroke="midnightblue" points="609.89,-287.51 618.99,-282.09 608.5,-280.65 609.89,-287.51"/>
</g>
<!-- Node4&#45;&gt;Node16 -->
<g id="edge17" class="edge">
<title>Node4&#45;&gt;Node16</title>
<path fill="none" stroke="midnightblue" d="M458.71,-314.43C489.74,-274.52 572.02,-168.96 576,-166.5 580.41,-163.77 585.14,-161.41 590.03,-159.37"/>
<polygon fill="midnightblue" stroke="midnightblue" points="591.46,-162.57 599.62,-155.82 589.03,-156.01 591.46,-162.57"/>
</g>
<!-- Node17 -->
<g id="node17" class="node">
<title>Node17</title>
<g id="a_node17"><a xlink:href="../../d8/daf/a01550.html#a2071e27511db24293eab0b6db0dbceb9" target="_top" xlink:title=" ">
<polygon fill="none" stroke="black" points="602.5,-175.5 602.5,-205.5 743.5,-205.5 743.5,-175.5 602.5,-175.5"/>
<text text-anchor="start" x="610.5" y="-193.5" font-family="Helvetica,sans-Serif" font-size="10.00">com.cliffc.aa.util.AryInt.is</text>
<text text-anchor="middle" x="673" y="-182.5" font-family="Helvetica,sans-Serif" font-size="10.00">Empty</text>
</a>
</g>
</g>
<!-- Node4&#45;&gt;Node17 -->
<g id="edge18" class="edge">
<title>Node4&#45;&gt;Node17</title>
<path fill="none" stroke="midnightblue" d="M459.65,-314.45C481.07,-289.97 526.93,-241.63 576,-215.5 581.26,-212.7 586.85,-210.2 592.59,-207.97"/>
<polygon fill="midnightblue" stroke="midnightblue" points="594.12,-211.14 602.35,-204.47 591.75,-204.55 594.12,-211.14"/>
</g>
<!-- Node18 -->
<g id="node18" class="node">
<title>Node18</title>
<g id="a_node18"><a xlink:href="../../d4/d3c/a01418.html#abfc9f8ec4af29b590594524d38a617d9" target="_top" xlink:title=" ">
<polygon fill="none" stroke="black" points="589.5,-453 589.5,-472 756.5,-472 756.5,-453 589.5,-453"/>
<text text-anchor="middle" x="673" y="-460" font-family="Helvetica,sans-Serif" font-size="10.00">com.cliffc.aa.type.Bits.may_nil</text>
</a>
</g>
</g>
<!-- Node4&#45;&gt;Node18 -->
<g id="edge19" class="edge">
<title>Node4&#45;&gt;Node18</title>
<path fill="none" stroke="midnightblue" d="M459.48,-344.88C480.65,-369.84 526.18,-418.84 576,-443.5 580.95,-445.95 586.19,-448.08 591.57,-449.94"/>
<polygon fill="midnightblue" stroke="midnightblue" points="590.77,-453.36 601.36,-453 592.86,-446.68 590.77,-453.36"/>
</g>
<!-- Node19 -->
<g id="node19" class="node">
<title>Node19</title>
<g id="a_node19"><a xlink:href="../../d8/dd0/a01430.html#aa42b8de36b63f7693f7167ee5a8c5ef6" target="_top" xlink:title=" ">
<polygon fill="none" stroke="black" points="576,-415 576,-434 770,-434 770,-415 576,-415"/>
<text text-anchor="middle" x="673" y="-422" font-family="Helvetica,sans-Serif" font-size="10.00">com.cliffc.aa.type.BitsAlias.next_kid</text>
</a>
</g>
</g>
<!-- Node4&#45;&gt;Node19 -->
<g id="edge20" class="edge">
<title>Node4&#45;&gt;Node19</title>
<path fill="none" stroke="midnightblue" d="M470.35,-344.77C495.52,-360.65 537.21,-385.27 576,-400.5 587.86,-405.16 600.91,-409.13 613.46,-412.42"/>
<polygon fill="midnightblue" stroke="midnightblue" points="612.83,-415.87 623.38,-414.92 614.54,-409.09 612.83,-415.87"/>
</g>
<!-- Node20 -->
<g id="node20" class="node">
<title>Node20</title>
<g id="a_node20"><a xlink:href="../../d8/daf/a01550.html#a9f8b8d19967c86e69d77d595d881f10e" target="_top" xlink:title=" ">
<polygon fill="none" stroke="black" points="597.5,-225 597.5,-244 748.5,-244 748.5,-225 597.5,-225"/>
<text text-anchor="middle" x="673" y="-232" font-family="Helvetica,sans-Serif" font-size="10.00">com.cliffc.aa.util.AryInt.pop</text>
</a>
</g>
</g>
<!-- Node4&#45;&gt;Node20 -->
<g id="edge21" class="edge">
<title>Node4&#45;&gt;Node20</title>
<path fill="none" stroke="midnightblue" d="M467.78,-314.24C492.39,-296.92 535.19,-269.04 576,-253.5 583.14,-250.78 590.74,-248.43 598.42,-246.4"/>
<polygon fill="midnightblue" stroke="midnightblue" points="599.28,-249.79 608.15,-244 597.6,-243 599.28,-249.79"/>
</g>
<!-- Node22 -->
<g id="node22" class="node">
<title>Node22</title>
<g id="a_node22"><a xlink:href="../../d8/daf/a01550.html#a00adc6b061b25a9099de7d225e814fa2" target="_top" xlink:title="Add element in amortized constant time.">
<polygon fill="none" stroke="black" points="595,-339 595,-358 751,-358 751,-339 595,-339"/>
<text text-anchor="middle" x="673" y="-346" font-family="Helvetica,sans-Serif" font-size="10.00">com.cliffc.aa.util.AryInt.push</text>
</a>
</g>
</g>
<!-- Node4&#45;&gt;Node22 -->
<g id="edge23" class="edge">
<title>Node4&#45;&gt;Node22</title>
<path fill="none" stroke="midnightblue" d="M530.78,-336.57C548.33,-338.06 566.87,-339.62 584.55,-341.12"/>
<polygon fill="midnightblue" stroke="midnightblue" points="584.58,-344.63 594.84,-341.98 585.17,-337.66 584.58,-344.63"/>
</g>
<!-- Node23 -->
<g id="node23" class="node">
<title>Node23</title>
<g id="a_node23"><a xlink:href="../../df/dee/a01646.html#a88ad20daf92e92fe0e3925b23c4fecf0" target="_top" xlink:title=" ">
<polygon fill="none" stroke="black" points="594,-301 594,-320 752,-320 752,-301 594,-301"/>
<text text-anchor="middle" x="673" y="-308" font-family="Helvetica,sans-Serif" font-size="10.00">com.cliffc.aa.util.VBitSet.tset</text>
</a>
</g>
</g>
<!-- Node4&#45;&gt;Node23 -->
<g id="edge25" class="edge">
<title>Node4&#45;&gt;Node23</title>
<path fill="none" stroke="midnightblue" d="M530.78,-322.43C548.02,-320.97 566.21,-319.43 583.6,-317.96"/>
<polygon fill="midnightblue" stroke="midnightblue" points="584.07,-321.44 593.74,-317.11 583.48,-314.46 584.07,-321.44"/>
</g>
<!-- Node6 -->
<g id="node6" class="node">
<title>Node6</title>
<g id="a_node6"><a xlink:href="../../d6/d51/a01494.html#a0eecce7cc3a48609b618fd6ba69927f1" target="_top" xlink:title=" ">
<polygon fill="none" stroke="black" points="1497,-512.5 1497,-542.5 1684,-542.5 1684,-512.5 1497,-512.5"/>
<text text-anchor="start" x="1505" y="-530.5" font-family="Helvetica,sans-Serif" font-size="10.00">com.cliffc.aa.type.TypeMem.above</text>
<text text-anchor="middle" x="1590.5" y="-519.5" font-family="Helvetica,sans-Serif" font-size="10.00">_center</text>
</a>
</g>
</g>
<!-- Node5&#45;&gt;Node6 -->
<g id="edge5" class="edge">
<title>Node5&#45;&gt;Node6</title>
<path fill="none" stroke="midnightblue" d="M768.53,-503.29C941.51,-508.39 1307.65,-519.19 1486.64,-524.47"/>
<polygon fill="midnightblue" stroke="midnightblue" points="1486.75,-527.97 1496.85,-524.77 1486.96,-520.97 1486.75,-527.97"/>
</g>
<!-- Node5&#45;&gt;Node7 -->
<g id="edge6" class="edge">
<title>Node5&#45;&gt;Node7</title>
<path fill="none" stroke="midnightblue" d="M724.92,-490.9C739.5,-488.02 755.41,-484.76 770,-481.5 798.9,-475.04 831.15,-467.03 856.59,-460.52"/>
<polygon fill="midnightblue" stroke="midnightblue" points="857.53,-463.89 866.34,-458.01 855.78,-457.11 857.53,-463.89"/>
</g>
<!-- Node8&#45;&gt;Node8 -->
<g id="edge8" class="edge">
<title>Node8&#45;&gt;Node8</title>
<path fill="none" stroke="midnightblue" d="M638.45,-548.11C621.09,-556.96 632.61,-566.5 673,-566.5 703.29,-566.5 717.34,-561.13 715.15,-554.72"/>
<polygon fill="midnightblue" stroke="midnightblue" points="717.4,-552.03 707.55,-548.11 712.8,-557.31 717.4,-552.03"/>
</g>
<!-- Node10 -->
<g id="node10" class="node">
<title>Node10</title>
<g id="a_node10"><a xlink:href="../../d7/dd1/a01458.html#ad2e925fa654f08a044e0bc3fe5adb9ca" target="_top" xlink:title=" ">
<polygon fill="none" stroke="black" points="806,-263 806,-282 1001,-282 1001,-263 806,-263"/>
<text text-anchor="middle" x="903.5" y="-270" font-family="Helvetica,sans-Serif" font-size="10.00">com.cliffc.aa.type.TypeFld.make_arg</text>
</a>
</g>
</g>
<!-- Node9&#45;&gt;Node10 -->
<g id="edge10" class="edge">
<title>Node9&#45;&gt;Node10</title>
<path fill="none" stroke="midnightblue" d="M762.02,-272.5C772.99,-272.5 784.3,-272.5 795.53,-272.5"/>
<polygon fill="midnightblue" stroke="midnightblue" points="795.79,-276 805.79,-272.5 795.79,-269 795.79,-276"/>
</g>
<!-- Node12 -->
<g id="node12" class="node">
<title>Node12</title>
<g id="a_node12"><a xlink:href="../../d5/d67/a01466.html#aae9c15c127f99a9ce4687428f9150fa5" target="_top" xlink:title=" ">
<polygon fill="none" stroke="black" points="823,-310 823,-329 984,-329 984,-310 823,-310"/>
<text text-anchor="middle" x="903.5" y="-317" font-family="Helvetica,sans-Serif" font-size="10.00">com.cliffc.aa.type.TypeFlds.ts</text>
</a>
</g>
</g>
<!-- Node9&#45;&gt;Node12 -->
<g id="edge13" class="edge">
<title>Node9&#45;&gt;Node12</title>
<path fill="none" stroke="midnightblue" d="M722.86,-282.04C737.98,-285.03 754.69,-288.37 770,-291.5 795.7,-296.76 824.16,-302.75 848.1,-307.84"/>
<polygon fill="midnightblue" stroke="midnightblue" points="847.55,-311.3 858.06,-309.96 849.01,-304.45 847.55,-311.3"/>
</g>
<!-- Node11 -->
<g id="node11" class="node">
<title>Node11</title>
<g id="a_node11"><a xlink:href="../../d7/dd1/a01458.html#a68cd98652ac4a01ee6b4dd90bb553dae" target="_top" xlink:title=" ">
<polygon fill="none" stroke="black" points="1051.5,-254 1051.5,-273 1225.5,-273 1225.5,-254 1051.5,-254"/>
<text text-anchor="middle" x="1138.5" y="-261" font-family="Helvetica,sans-Serif" font-size="10.00">com.cliffc.aa.type.TypeFld.make</text>
</a>
</g>
</g>
<!-- Node10&#45;&gt;Node11 -->
<g id="edge11" class="edge">
<title>Node10&#45;&gt;Node11</title>
<path fill="none" stroke="midnightblue" d="M1001.29,-268.76C1014.54,-268.25 1028.14,-267.72 1041.38,-267.21"/>
<polygon fill="midnightblue" stroke="midnightblue" points="1041.57,-270.71 1051.42,-266.82 1041.3,-263.71 1041.57,-270.71"/>
</g>
<!-- Node11&#45;&gt;Node11 -->
<g id="edge12" class="edge">
<title>Node11&#45;&gt;Node11</title>
<path fill="none" stroke="midnightblue" d="M1103.64,-273.11C1086.13,-281.96 1097.75,-291.5 1138.5,-291.5 1169.06,-291.5 1183.24,-286.13 1181.03,-279.72"/>
<polygon fill="midnightblue" stroke="midnightblue" points="1183.22,-276.99 1173.36,-273.11 1178.65,-282.29 1183.22,-276.99"/>
</g>
<!-- Node13 -->
<g id="node13" class="node">
<title>Node13</title>
<g id="a_node13"><a xlink:href="../../d5/d67/a01466.html#aa4690362ae6b60d7c29aaba6b6b41dfb" target="_top" xlink:title=" ">
<polygon fill="none" stroke="black" points="1054.5,-348 1054.5,-367 1222.5,-367 1222.5,-348 1054.5,-348"/>
<text text-anchor="middle" x="1138.5" y="-355" font-family="Helvetica,sans-Serif" font-size="10.00">com.cliffc.aa.type.TypeFlds.get</text>
</a>
</g>
</g>
<!-- Node12&#45;&gt;Node13 -->
<g id="edge14" class="edge">
<title>Node12&#45;&gt;Node13</title>
<path fill="none" stroke="midnightblue" d="M962.99,-329.04C995.12,-334.28 1035.16,-340.81 1068.77,-346.29"/>
<polygon fill="midnightblue" stroke="midnightblue" points="1068.55,-349.8 1078.98,-347.96 1069.67,-342.89 1068.55,-349.8"/>
</g>
<!-- Node14 -->
<g id="node14" class="node">
<title>Node14</title>
<g id="a_node14"><a xlink:href="../../d5/d67/a01466.html#a7635be6e4a0ff98f908dbdbe136a11d0" target="_top" xlink:title=" ">
<polygon fill="none" stroke="black" points="1052.5,-310 1052.5,-329 1224.5,-329 1224.5,-310 1052.5,-310"/>
<text text-anchor="middle" x="1138.5" y="-317" font-family="Helvetica,sans-Serif" font-size="10.00">com.cliffc.aa.type.TypeFlds.tary</text>
</a>
</g>
</g>
<!-- Node12&#45;&gt;Node14 -->
<g id="edge15" class="edge">
<title>Node12&#45;&gt;Node14</title>
<path fill="none" stroke="midnightblue" d="M984.03,-319.5C1002.78,-319.5 1022.95,-319.5 1042.31,-319.5"/>
<polygon fill="midnightblue" stroke="midnightblue" points="1042.35,-323 1052.35,-319.5 1042.35,-316 1042.35,-323"/>
</g>
<!-- Node15 -->
<g id="node15" class="node">
<title>Node15</title>
<g id="a_node15"><a xlink:href="../../d5/d67/a01466.html#adb7e8e0bcb616710cc42cd7f670936e0" target="_top" xlink:title=" ">
<polygon fill="none" stroke="black" points="1292.5,-304.5 1292.5,-334.5 1444.5,-334.5 1444.5,-304.5 1292.5,-304.5"/>
<text text-anchor="start" x="1300.5" y="-322.5" font-family="Helvetica,sans-Serif" font-size="10.00">com.cliffc.aa.type.TypeFlds.</text>
<text text-anchor="middle" x="1368.5" y="-311.5" font-family="Helvetica,sans-Serif" font-size="10.00">TypeFlds</text>
</a>
</g>
</g>
<!-- Node14&#45;&gt;Node15 -->
<g id="edge16" class="edge">
<title>Node14&#45;&gt;Node15</title>
<path fill="none" stroke="midnightblue" d="M1224.72,-319.5C1243.59,-319.5 1263.59,-319.5 1282.45,-319.5"/>
<polygon fill="midnightblue" stroke="midnightblue" points="1282.5,-323 1292.5,-319.5 1282.5,-316 1282.5,-323"/>
</g>
<!-- Node21 -->
<g id="node21" class="node">
<title>Node21</title>
<g id="a_node21"><a xlink:href="../../d8/daf/a01550.html#ad9642b82e1824a59fa648bdde9b77a22" target="_top" xlink:title=" ">
<polygon fill="none" stroke="black" points="823,-213.5 823,-243.5 984,-243.5 984,-213.5 823,-213.5"/>
<text text-anchor="start" x="831" y="-231.5" font-family="Helvetica,sans-Serif" font-size="10.00">com.cliffc.aa.util.AryInt.range</text>
<text text-anchor="middle" x="903.5" y="-220.5" font-family="Helvetica,sans-Serif" font-size="10.00">_check</text>
</a>
</g>
</g>
<!-- Node20&#45;&gt;Node21 -->
<g id="edge22" class="edge">
<title>Node20&#45;&gt;Node21</title>
<path fill="none" stroke="midnightblue" d="M748.5,-232.54C769.08,-232 791.62,-231.41 812.95,-230.85"/>
<polygon fill="midnightblue" stroke="midnightblue" points="813.08,-234.35 822.98,-230.59 812.89,-227.35 813.08,-234.35"/>
</g>
<!-- Node25 -->
<g id="node25" class="node">
<title>Node25</title>
<g id="a_node25"><a xlink:href="../../d0/de2/a01442.html#aa3715d8050c210fb8cc36ed83da6da13" target="_top" xlink:title=" ">
<polygon fill="none" stroke="black" points="594,-711 594,-730 752,-730 752,-711 594,-711"/>
<text text-anchor="middle" x="673" y="-718" font-family="Helvetica,sans-Serif" font-size="10.00">com.cliffc.aa.type.Type.clone</text>
</a>
</g>
</g>
<!-- Node24&#45;&gt;Node25 -->
<g id="edge27" class="edge">
<title>Node24&#45;&gt;Node25</title>
<path fill="none" stroke="midnightblue" d="M540.14,-709.37C554.54,-710.58 569.37,-711.83 583.66,-713.04"/>
<polygon fill="midnightblue" stroke="midnightblue" points="583.7,-716.56 593.95,-713.91 584.28,-709.58 583.7,-716.56"/>
</g>
<!-- Node26 -->
<g id="node26" class="node">
<title>Node26</title>
<g id="a_node26"><a xlink:href="../../de/dc6/a01502.html#ae551e25fb3b1de8582e90fef208b1c2c" target="_top" xlink:title=" ">
<polygon fill="none" stroke="black" points="583,-749.5 583,-779.5 763,-779.5 763,-749.5 583,-749.5"/>
<text text-anchor="start" x="591" y="-767.5" font-family="Helvetica,sans-Serif" font-size="10.00">com.cliffc.aa.type.TypeObj.flatten</text>
<text text-anchor="middle" x="673" y="-756.5" font-family="Helvetica,sans-Serif" font-size="10.00">_fields</text>
</a>
</g>
</g>
<!-- Node24&#45;&gt;Node26 -->
<g id="edge28" class="edge">
<title>Node24&#45;&gt;Node26</title>
<path fill="none" stroke="midnightblue" d="M496.82,-716.58C520.72,-723.71 549.79,-732.23 576,-739.5 584.78,-741.93 594.02,-744.43 603.17,-746.86"/>
<polygon fill="midnightblue" stroke="midnightblue" points="602.47,-750.29 613.03,-749.46 604.25,-743.52 602.47,-750.29"/>
</g>
<!-- Node27 -->
<g id="node27" class="node">
<title>Node27</title>
<g id="a_node27"><a xlink:href="../../d6/d51/a01494.html#a6e66e12dd6b273e5ade4ab54fa683f8d" target="_top" xlink:title=" ">
<polygon fill="none" stroke="black" points="578,-673 578,-692 768,-692 768,-673 578,-673"/>
<text text-anchor="middle" x="673" y="-680" font-family="Helvetica,sans-Serif" font-size="10.00">com.cliffc.aa.type.TypeMem.make0</text>
</a>
</g>
</g>
<!-- Node24&#45;&gt;Node27 -->
<g id="edge29" class="edge">
<title>Node24&#45;&gt;Node27</title>
<path fill="none" stroke="midnightblue" d="M540.14,-693.63C549.28,-692.86 558.61,-692.08 567.85,-691.29"/>
<polygon fill="midnightblue" stroke="midnightblue" points="568.17,-694.78 577.84,-690.45 567.58,-687.81 568.17,-694.78"/>
</g>
<!-- Node28 -->
<g id="node28" class="node">
<title>Node28</title>
<g id="a_node28"><a xlink:href="../../d6/d51/a01494.html#af6e06afd7033aef3b4d8e85653d41df6" target="_top" xlink:title=" ">
<polygon fill="none" stroke="black" points="825,-667.5 825,-697.5 982,-697.5 982,-667.5 825,-667.5"/>
<text text-anchor="start" x="833" y="-685.5" font-family="Helvetica,sans-Serif" font-size="10.00">com.cliffc.aa.type.TypeMem.</text>
<text text-anchor="middle" x="903.5" y="-674.5" font-family="Helvetica,sans-Serif" font-size="10.00">_make1</text>
</a>
</g>
</g>
<!-- Node27&#45;&gt;Node28 -->
<g id="edge30" class="edge">
<title>Node27&#45;&gt;Node28</title>
<path fill="none" stroke="midnightblue" d="M768.26,-682.5C783.54,-682.5 799.32,-682.5 814.44,-682.5"/>
<polygon fill="midnightblue" stroke="midnightblue" points="814.8,-686 824.8,-682.5 814.8,-679 814.8,-686"/>
</g>
<!-- Node30 -->
<g id="node30" class="node">
<title>Node30</title>
<g id="a_node30"><a xlink:href="../../d6/d51/a01494.html#abfc567fa84de27858d9707536072702c" target="_top" xlink:title=" ">
<polygon fill="none" stroke="black" points="811.5,-607 811.5,-626 995.5,-626 995.5,-607 811.5,-607"/>
<text text-anchor="middle" x="903.5" y="-614" font-family="Helvetica,sans-Serif" font-size="10.00">com.cliffc.aa.type.TypeMem.make</text>
</a>
</g>
</g>
<!-- Node27&#45;&gt;Node30 -->
<g id="edge32" class="edge">
<title>Node27&#45;&gt;Node30</title>
<path fill="none" stroke="midnightblue" d="M729.4,-672.96C742.78,-670.27 756.98,-667.08 770,-663.5 804.43,-654.04 842.79,-640.04 869.33,-629.78"/>
<polygon fill="midnightblue" stroke="midnightblue" points="870.85,-632.95 878.9,-626.05 868.31,-626.42 870.85,-632.95"/>
</g>
<!-- Node27&#45;&gt;Node34 -->
<g id="edge38" class="edge">
<title>Node27&#45;&gt;Node34</title>
<path fill="none" stroke="midnightblue" d="M758.11,-672.83C762.46,-670.26 766.47,-667.18 770,-663.5 842.8,-587.52 745.32,-515.47 806,-429.5 818.77,-411.41 839.86,-399.02 859.08,-390.89"/>
<polygon fill="midnightblue" stroke="midnightblue" points="860.59,-394.06 868.61,-387.13 858.02,-387.55 860.59,-394.06"/>
</g>
<!-- Node29 -->
<g id="node29" class="node">
<title>Node29</title>
<g id="a_node29"><a xlink:href="../../d6/d51/a01494.html#ab31abc3950f3574c970b2858a1870949" target="_top" xlink:title=" ">
<polygon fill="none" stroke="black" points="1052.5,-673 1052.5,-692 1224.5,-692 1224.5,-673 1052.5,-673"/>
<text text-anchor="middle" x="1138.5" y="-680" font-family="Helvetica,sans-Serif" font-size="10.00">com.cliffc.aa.type.TypeMem.len</text>
</a>
</g>
</g>
<!-- Node28&#45;&gt;Node29 -->
<g id="edge31" class="edge">
<title>Node28&#45;&gt;Node29</title>
<path fill="none" stroke="midnightblue" d="M982.09,-682.5C1001.34,-682.5 1022.19,-682.5 1042.19,-682.5"/>
<polygon fill="midnightblue" stroke="midnightblue" points="1042.23,-686 1052.23,-682.5 1042.23,-679 1042.23,-686"/>
</g>
<!-- Node31 -->
<g id="node31" class="node">
<title>Node31</title>
<g id="a_node31"><a xlink:href="../../d0/de2/a01442.html#a8fe8d556e45e6b654f3ac87f118ac8de" target="_top" xlink:title=" ">
<polygon fill="none" stroke="black" points="1037,-607 1037,-626 1240,-626 1240,-607 1037,-607"/>
<text text-anchor="middle" x="1138.5" y="-614" font-family="Helvetica,sans-Serif" font-size="10.00">com.cliffc.aa.type.Type.hashcons_free</text>
</a>
</g>
</g>
<!-- Node30&#45;&gt;Node31 -->
<g id="edge33" class="edge">
<title>Node30&#45;&gt;Node31</title>
<path fill="none" stroke="midnightblue" d="M995.58,-616.5C1005.84,-616.5 1016.37,-616.5 1026.83,-616.5"/>
<polygon fill="midnightblue" stroke="midnightblue" points="1026.84,-620 1036.84,-616.5 1026.84,-613 1026.84,-620"/>
</g>
<!-- Node32 -->
<g id="node32" class="node">
<title>Node32</title>
<g id="a_node32"><a xlink:href="../../d6/d51/a01494.html#a6b1eb89aaaf02ada150969b5f8ce24ff" target="_top" xlink:title=" ">
<polygon fill="none" stroke="black" points="1052,-546 1052,-565 1225,-565 1225,-546 1052,-546"/>
<text text-anchor="middle" x="1138.5" y="-553" font-family="Helvetica,sans-Serif" font-size="10.00">com.cliffc.aa.type.TypeMem.init</text>
</a>
</g>
</g>
<!-- Node30&#45;&gt;Node32 -->
<g id="edge34" class="edge">
<title>Node30&#45;&gt;Node32</title>
<path fill="none" stroke="midnightblue" d="M940.91,-606.97C981.4,-596.37 1046.91,-579.22 1091.06,-567.66"/>
<polygon fill="midnightblue" stroke="midnightblue" points="1092.18,-570.98 1100.97,-565.06 1090.41,-564.21 1092.18,-570.98"/>
</g>
<!-- Node32&#45;&gt;Node32 -->
<g id="edge37" class="edge">
<title>Node32&#45;&gt;Node32</title>
<path fill="none" stroke="midnightblue" d="M1103.64,-565.11C1086.13,-573.96 1097.75,-583.5 1138.5,-583.5 1169.06,-583.5 1183.24,-578.13 1181.03,-571.72"/>
<polygon fill="midnightblue" stroke="midnightblue" points="1183.22,-568.99 1173.36,-565.11 1178.65,-574.29 1183.22,-568.99"/>
</g>
<!-- Node33 -->
<g id="node33" class="node">
<title>Node33</title>
<g id="a_node33"><a xlink:href="../../d6/d51/a01494.html#a9a14a112498c8f5beb4b4585cdf61653" target="_top" xlink:title=" ">
<polygon fill="none" stroke="black" points="1276,-543 1276,-562 1461,-562 1461,-543 1276,-543"/>
<text text-anchor="middle" x="1368.5" y="-550" font-family="Helvetica,sans-Serif" font-size="10.00">com.cliffc.aa.type.TypeMem.check</text>
</a>
</g>
</g>
<!-- Node32&#45;&gt;Node33 -->
<g id="edge35" class="edge">
<title>Node32&#45;&gt;Node33</title>
<path fill="none" stroke="midnightblue" d="M1225.05,-554.37C1238.24,-554.2 1251.97,-554.02 1265.48,-553.84"/>
<polygon fill="midnightblue" stroke="midnightblue" points="1265.8,-557.34 1275.75,-553.71 1265.71,-550.34 1265.8,-557.34"/>
</g>
<!-- Node33&#45;&gt;Node6 -->
<g id="edge36" class="edge">
<title>Node33&#45;&gt;Node6</title>
<path fill="none" stroke="midnightblue" d="M1453.3,-542.98C1464.18,-541.74 1475.42,-540.46 1486.56,-539.2"/>
<polygon fill="midnightblue" stroke="midnightblue" points="1487.21,-542.65 1496.75,-538.04 1486.42,-535.69 1487.21,-542.65"/>
</g>
<!-- Node36 -->
<g id="node36" class="node">
<title>Node36</title>
<g id="a_node36"><a xlink:href="../../df/db5/a01158.html#a9a46cea187559f94192aa6e09b91c60c" target="_top" xlink:title=" ">
<polygon fill="none" stroke="black" points="600,-31 600,-50 746,-50 746,-31 600,-31"/>
<text text-anchor="middle" x="673" y="-38" font-family="Helvetica,sans-Serif" font-size="10.00">com.cliffc.aa.node.Node.in</text>
</a>
</g>
</g>
<!-- Node35&#45;&gt;Node36 -->
<g id="edge41" class="edge">
<title>Node35&#45;&gt;Node36</title>
<path fill="none" stroke="midnightblue" d="M515.12,-57.23C538.65,-54.72 565.27,-51.88 589.81,-49.27"/>
<polygon fill="midnightblue" stroke="midnightblue" points="590.24,-52.74 599.82,-48.2 589.5,-45.78 590.24,-52.74"/>
</g>
<!-- Node37&#45;&gt;Node36 -->
<g id="edge44" class="edge">
<title>Node37&#45;&gt;Node36</title>
<path fill="none" stroke="midnightblue" d="M515.12,-23.07C538.65,-25.68 565.27,-28.64 589.81,-31.37"/>
<polygon fill="midnightblue" stroke="midnightblue" points="589.49,-34.85 599.82,-32.48 590.26,-27.9 589.49,-34.85"/>
</g>
<!-- Node38&#45;&gt;Node5 -->
<g id="edge46" class="edge">
<title>Node38&#45;&gt;Node5</title>
<path fill="none" stroke="midnightblue" d="M483.49,-551.5C509.05,-541.41 544.2,-528.38 576,-519.5 585.7,-516.79 596.05,-514.32 606.23,-512.12"/>
<polygon fill="midnightblue" stroke="midnightblue" points="607.25,-515.48 616.32,-510.01 605.82,-508.63 607.25,-515.48"/>
</g>
<!-- Node38&#45;&gt;Node8 -->
<g id="edge47" class="edge">
<title>Node38&#45;&gt;Node8</title>
<path fill="none" stroke="midnightblue" d="M535.6,-555.47C552,-553.43 569.11,-551.3 585.44,-549.27"/>
<polygon fill="midnightblue" stroke="midnightblue" points="586.01,-552.73 595.5,-548.02 585.14,-545.78 586.01,-552.73"/>
</g>
<!-- Node38&#45;&gt;Node27 -->
<g id="edge48" class="edge">
<title>Node38&#45;&gt;Node27</title>
<path fill="none" stroke="midnightblue" d="M462.18,-581.63C484.88,-603.33 529.95,-642.93 576,-663.5 581.7,-666.05 587.74,-668.25 593.91,-670.17"/>
<polygon fill="midnightblue" stroke="midnightblue" points="593.1,-673.57 603.68,-672.93 595.01,-666.84 593.1,-673.57"/>
</g>
<!-- Node39 -->
<g id="node39" class="node">
<title>Node39</title>
<g id="a_node39"><a xlink:href="../../d4/d3c/a01418.html#a4194e3abb18ab5d553d4e8a3100e5348" target="_top" xlink:title=" ">
<polygon fill="none" stroke="black" points="598,-585 598,-604 748,-604 748,-585 598,-585"/>
<text text-anchor="middle" x="673" y="-592" font-family="Helvetica,sans-Serif" font-size="10.00">com.cliffc.aa.type.Bits.max</text>
</a>
</g>
</g>
<!-- Node38&#45;&gt;Node39 -->
<g id="edge49" class="edge">
<title>Node38&#45;&gt;Node39</title>
<path fill="none" stroke="midnightblue" d="M535.6,-577.53C552.61,-579.64 570.38,-581.85 587.26,-583.95"/>
<polygon fill="midnightblue" stroke="midnightblue" points="587.29,-587.49 597.64,-585.25 588.15,-580.54 587.29,-587.49"/>
</g>
<!-- Node40 -->
<g id="node40" class="node">
<title>Node40</title>
<g id="a_node40"><a xlink:href="../../d4/d3c/a01418.html#a27526714dec704a7c9d4ab7ddf6bb06e" target="_top" xlink:title=" ">
<polygon fill="none" stroke="black" points="599.5,-623.5 599.5,-653.5 746.5,-653.5 746.5,-623.5 599.5,-623.5"/>
<text text-anchor="start" x="607.5" y="-641.5" font-family="Helvetica,sans-Serif" font-size="10.00">com.cliffc.aa.type.Bits.test</text>
<text text-anchor="middle" x="673" y="-630.5" font-family="Helvetica,sans-Serif" font-size="10.00">_recur</text>
</a>
</g>
</g>
<!-- Node38&#45;&gt;Node40 -->
<g id="edge50" class="edge">
<title>Node38&#45;&gt;Node40</title>
<path fill="none" stroke="midnightblue" d="M485.34,-581.55C510.83,-591.29 545.16,-603.89 576,-613.5 584.04,-616 592.5,-618.46 600.94,-620.8"/>
<polygon fill="midnightblue" stroke="midnightblue" points="600.24,-624.24 610.81,-623.49 602.08,-617.49 600.24,-624.24"/>
</g>
</g>
</svg>
        <g id="navigator" transform="translate(0 0)" fill="#404254">
                <rect fill="#f2f5e9" fill-opacity="0.5" stroke="#606060" stroke-width=".5" x="0" y="0" width="60" height="60"/>
                <use id="zoomplus" xlink:href="#zoomPlus" x="17" y="9" onmousedown="handleZoom(evt,'in')"/>
                <use id="zoomminus" xlink:href="#zoomMin" x="42" y="9" onmousedown="handleZoom(evt,'out')"/>
                <use id="reset" xlink:href="#resetDef" x="30" y="36" onmousedown="handleReset()"/>
                <g id="arrowUp" xlink:href="#dirArrow" transform="translate(30 24)" onmousedown="handlePan(0,-1)">
                  <use xlink:href="#rim" fill="#404040">
                        <set attributeName="fill" to="#808080" begin="arrowUp.mouseover" end="arrowUp.mouseout"/>
                  </use>
                  <path fill="none" stroke="white" stroke-width="1.5" d="M0,-3.0v7 M-2.5,-0.5L0,-3.0L2.5,-0.5"/>
                </g>
                <g id="arrowRight" xlink:href="#dirArrow" transform="rotate(90) translate(36 -43)" onmousedown="handlePan(1,0)">
                  <use xlink:href="#rim" fill="#404040">
                        <set attributeName="fill" to="#808080" begin="arrowRight.mouseover" end="arrowRight.mouseout"/>
                  </use>
                  <path fill="none" stroke="white" stroke-width="1.5" d="M0,-3.0v7 M-2.5,-0.5L0,-3.0L2.5,-0.5"/>
                </g>
                <g id="arrowDown" xlink:href="#dirArrow" transform="rotate(180) translate(-30 -48)" onmousedown="handlePan(0,1)">
                  <use xlink:href="#rim" fill="#404040">
                        <set attributeName="fill" to="#808080" begin="arrowDown.mouseover" end="arrowDown.mouseout"/>
                  </use>
                  <path fill="none" stroke="white" stroke-width="1.5" d="M0,-3.0v7 M-2.5,-0.5L0,-3.0L2.5,-0.5"/>
                </g>
                <g id="arrowLeft" xlink:href="#dirArrow" transform="rotate(270) translate(-36 17)" onmousedown="handlePan(-1,0)">
                  <use xlink:href="#rim" fill="#404040">
                        <set attributeName="fill" to="#808080" begin="arrowLeft.mouseover" end="arrowLeft.mouseout"/>
                  </use>
                  <path fill="none" stroke="white" stroke-width="1.5" d="M0,-3.0v7 M-2.5,-0.5L0,-3.0L2.5,-0.5"/>
                </g>
        </g>
        <svg viewBox="0 0 15 15" width="100%" height="30px" preserveAspectRatio="xMaxYMin meet">
         <g id="arrow_out" transform="scale(0.3 0.3)">
          <a xlink:href="a01358_a609f6b7b7fea5482f181cf60df48e569_cgraph_org.svg" target="_base">
           <rect id="button" ry="5" rx="5" y="6" x="6" height="38" width="38"
                fill="#f2f5e9" fill-opacity="0.5" stroke="#606060" stroke-width="1.0"/>
           <path id="arrow"
             d="M 11.500037,31.436501 C 11.940474,20.09759 22.043105,11.32322 32.158766,21.979434 L 37.068811,17.246167 C 37.068811,17.246167 37.088388,32 37.088388,32 L 22.160133,31.978069 C 22.160133,31.978069 26.997745,27.140456 26.997745,27.140456 C 18.528582,18.264221 13.291696,25.230495 11.500037,31.436501 z"
             style="fill:#404040;"/>
          </a>
         </g>
        </svg>
</svg>
