<?xml version="1.0" encoding="UTF-8" standalone="no"?>
<!DOCTYPE svg PUBLIC "-//W3C//DTD SVG 1.1//EN"
 "http://www.w3.org/Graphics/SVG/1.1/DTD/svg11.dtd">
<!-- Generated by graphviz version 2.43.0 (0)
 -->
<!-- Title: com.cliffc.aa.node.ScopeNode.set_mem Pages: 1 -->
<!--zoomable 258 -->
<svg id="main" version="1.1" xmlns="http://www.w3.org/2000/svg" xmlns:xlink="http://www.w3.org/1999/xlink" xml:space="preserve" onload="init(evt)">
<style type="text/css"><![CDATA[
.edge:hover path { stroke: red; }
.edge:hover polygon { stroke: red; fill: red; }
]]></style>
<script type="text/javascript"><![CDATA[
var edges = document.getElementsByTagName('g');
if (edges && edges.length) {
  for (var i=0;i<edges.length;i++) {
    if (edges[i].id.substr(0,4)=='edge') {
      edges[i].setAttribute('class','edge');
    }
  }
}
]]></script>
        <defs>
                <circle id="rim" cx="0" cy="0" r="7"/>
                <circle id="rim2" cx="0" cy="0" r="3.5"/>
                <g id="zoomPlus">
                        <use xlink:href="#rim" fill="#404040">
                                <set attributeName="fill" to="#808080" begin="zoomplus.mouseover" end="zoomplus.mouseout"/>
                        </use>
                        <path d="M-4,0h8M0,-4v8" fill="none" stroke="white" stroke-width="1.5" pointer-events="none"/>
                </g>
                <g id="zoomMin">
                        <use xlink:href="#rim" fill="#404040">
                                <set attributeName="fill" to="#808080" begin="zoomminus.mouseover" end="zoomminus.mouseout"/>
                        </use>
                        <path d="M-4,0h8" fill="none" stroke="white" stroke-width="1.5" pointer-events="none"/>
                </g>
                <g id="dirArrow">
                        <path fill="none" stroke="white" stroke-width="1.5" d="M0,-3.0v7 M-2.5,-0.5L0,-3.0L2.5,-0.5"/>
                </g>
               <g id="resetDef">
                       <use xlink:href="#rim2" fill="#404040">
                               <set attributeName="fill" to="#808080" begin="reset.mouseover" end="reset.mouseout"/>
                       </use>
               </g>
        </defs>

<script type="text/javascript">
var viewWidth = 1609;
var viewHeight = 258;
var sectionId = 'dynsection-137';
</script>
<script xlink:href="../../svgpan.js"/>
<svg id="graph" class="graph">
<g id="viewport">
<title>com.cliffc.aa.node.ScopeNode.set_mem</title>
<!-- Node1 -->
<g id="node1" class="node">
<title>Node1</title>
<g id="a_node1"><a xlink:title=" ">
<polygon fill="#bfbfbf" stroke="black" points="0,-106 0,-136 138,-136 138,-106 0,-106"/>
<text text-anchor="start" x="8" y="-124" font-family="Helvetica,sans-Serif" font-size="10.00">com.cliffc.aa.node.Scope</text>
<text text-anchor="middle" x="69" y="-113" font-family="Helvetica,sans-Serif" font-size="10.00">Node.set_mem</text>
</a>
</g>
</g>
<!-- Node2 -->
<g id="node2" class="node">
<title>Node2</title>
<g id="a_node2"><a xlink:href="../../df/db5/a01158.html#a4c43a2abe5004ef2cf98b07a01500a1f" target="_top" xlink:title=" ">
<polygon fill="none" stroke="black" points="610.5,-101 610.5,-131 765.5,-131 765.5,-101 610.5,-101"/>
<text text-anchor="start" x="618.5" y="-119" font-family="Helvetica,sans-Serif" font-size="10.00">com.cliffc.aa.node.Node.add</text>
<text text-anchor="middle" x="688" y="-108" font-family="Helvetica,sans-Serif" font-size="10.00">_flow_def_extra</text>
</a>
</g>
</g>
<!-- Node1&#45;&gt;Node2 -->
<g id="edge1" class="edge">
<title>Node1&#45;&gt;Node2</title>
<path fill="none" stroke="midnightblue" d="M138.09,-120.45C250.73,-119.54 475.7,-117.71 599.8,-116.71"/>
<polygon fill="midnightblue" stroke="midnightblue" points="600.05,-120.2 610.02,-116.62 599.99,-113.21 600.05,-120.2"/>
</g>
<!-- Node3 -->
<g id="node3" class="node">
<title>Node3</title>
<g id="a_node3"><a xlink:href="../../d9/d0a/a00390.html#a803cd8e6428a4072457fe5d291eb82f1" target="_top" xlink:title=" ">
<polygon fill="none" stroke="black" points="383,-225.5 383,-244.5 564,-244.5 564,-225.5 383,-225.5"/>
<text text-anchor="middle" x="473.5" y="-232.5" font-family="Helvetica,sans-Serif" font-size="10.00">com.cliffc.aa.GVNGCM.add_mono</text>
</a>
</g>
</g>
<!-- Node1&#45;&gt;Node3 -->
<g id="edge2" class="edge">
<title>Node1&#45;&gt;Node3</title>
<path fill="none" stroke="midnightblue" d="M87.43,-136.09C107.08,-152.2 140.64,-177.15 174,-190 237.45,-214.44 313.26,-225.67 372.6,-230.8"/>
<polygon fill="midnightblue" stroke="midnightblue" points="372.48,-234.3 382.73,-231.63 373.05,-227.32 372.48,-234.3"/>
</g>
<!-- Node7 -->
<g id="node7" class="node">
<title>Node7</title>
<g id="a_node7"><a xlink:href="../../d9/d0a/a00390.html#a7604d1a7a8281ef87e4af6c1939b0c85" target="_top" xlink:title=" ">
<polygon fill="none" stroke="black" points="186.5,-150 186.5,-180 334.5,-180 334.5,-150 186.5,-150"/>
<text text-anchor="start" x="194.5" y="-168" font-family="Helvetica,sans-Serif" font-size="10.00">com.cliffc.aa.GVNGCM.add</text>
<text text-anchor="middle" x="260.5" y="-157" font-family="Helvetica,sans-Serif" font-size="10.00">_work_all</text>
</a>
</g>
</g>
<!-- Node1&#45;&gt;Node7 -->
<g id="edge6" class="edge">
<title>Node1&#45;&gt;Node7</title>
<path fill="none" stroke="midnightblue" d="M134.69,-136.02C150.76,-139.75 168.12,-143.78 184.63,-147.62"/>
<polygon fill="midnightblue" stroke="midnightblue" points="184.25,-151.12 194.78,-149.97 185.84,-144.3 184.25,-151.12"/>
</g>
<!-- Node9 -->
<g id="node9" class="node">
<title>Node9</title>
<g id="a_node9"><a xlink:href="../../de/d5c/a01358.html#a199043a64946784dc275e91423aa4076" target="_top" xlink:title=" ">
<polygon fill="none" stroke="black" points="191.5,-62 191.5,-92 329.5,-92 329.5,-62 191.5,-62"/>
<text text-anchor="start" x="199.5" y="-80" font-family="Helvetica,sans-Serif" font-size="10.00">com.cliffc.aa.node.Scope</text>
<text text-anchor="middle" x="260.5" y="-69" font-family="Helvetica,sans-Serif" font-size="10.00">Node.mem</text>
</a>
</g>
</g>
<!-- Node1&#45;&gt;Node9 -->
<g id="edge9" class="edge">
<title>Node1&#45;&gt;Node9</title>
<path fill="none" stroke="midnightblue" d="M134.69,-105.98C150.76,-102.25 168.12,-98.22 184.63,-94.38"/>
<polygon fill="midnightblue" stroke="midnightblue" points="185.84,-97.7 194.78,-92.03 184.25,-90.88 185.84,-97.7"/>
</g>
<!-- Node11 -->
<g id="node11" class="node">
<title>Node11</title>
<g id="a_node11"><a xlink:href="../../df/db5/a01158.html#a76827313ea74c03a0d11a9cbf9e11c6e" target="_top" xlink:title=" ">
<polygon fill="none" stroke="black" points="174,-23.5 174,-42.5 347,-42.5 347,-23.5 174,-23.5"/>
<text text-anchor="middle" x="260.5" y="-30.5" font-family="Helvetica,sans-Serif" font-size="10.00">com.cliffc.aa.node.Node.set_def</text>
</a>
</g>
</g>
<!-- Node1&#45;&gt;Node11 -->
<g id="edge11" class="edge">
<title>Node1&#45;&gt;Node11</title>
<path fill="none" stroke="midnightblue" d="M88.34,-105.77C108.22,-90.02 141.5,-65.83 174,-52 179.88,-49.5 186.13,-47.31 192.47,-45.39"/>
<polygon fill="midnightblue" stroke="midnightblue" points="193.78,-48.66 202.47,-42.6 191.9,-41.92 193.78,-48.66"/>
</g>
<!-- Node4 -->
<g id="node4" class="node">
<title>Node4</title>
<g id="a_node4"><a xlink:href="../../d9/d0a/a00390.html#a6074ca566ae10e746122ac8d09239d02" target="_top" xlink:title=" ">
<polygon fill="none" stroke="black" points="1039,-126.5 1039,-145.5 1216,-145.5 1216,-126.5 1039,-126.5"/>
<text text-anchor="middle" x="1127.5" y="-133.5" font-family="Helvetica,sans-Serif" font-size="10.00">com.cliffc.aa.GVNGCM.add_work</text>
</a>
</g>
</g>
<!-- Node3&#45;&gt;Node4 -->
<g id="edge3" class="edge">
<title>Node3&#45;&gt;Node4</title>
<path fill="none" stroke="midnightblue" d="M564.2,-244.2C671.21,-252.18 854.29,-256.28 1003,-211 1043.43,-198.69 1084.13,-170.1 1107.24,-151.99"/>
<polygon fill="midnightblue" stroke="midnightblue" points="1109.58,-154.6 1115.2,-145.62 1105.2,-149.14 1109.58,-154.6"/>
</g>
<!-- Node5 -->
<g id="node5" class="node">
<title>Node5</title>
<g id="a_node5"><a xlink:href="../../d6/d2f/a01394.html#acc21c59313a6ce5c286431fd2d4fd891" target="_top" xlink:title=" ">
<polygon fill="none" stroke="black" points="1252,-126.5 1252,-145.5 1407,-145.5 1407,-126.5 1252,-126.5"/>
<text text-anchor="middle" x="1329.5" y="-133.5" font-family="Helvetica,sans-Serif" font-size="10.00">com.cliffc.aa.node.Work.add</text>
</a>
</g>
</g>
<!-- Node4&#45;&gt;Node5 -->
<g id="edge4" class="edge">
<title>Node4&#45;&gt;Node5</title>
<path fill="none" stroke="midnightblue" d="M1216.22,-136C1224.65,-136 1233.2,-136 1241.63,-136"/>
<polygon fill="midnightblue" stroke="midnightblue" points="1241.82,-139.5 1251.82,-136 1241.82,-132.5 1241.82,-139.5"/>
</g>
<!-- Node6 -->
<g id="node6" class="node">
<title>Node6</title>
<g id="a_node6"><a xlink:href="../../df/dee/a01646.html#a88ad20daf92e92fe0e3925b23c4fecf0" target="_top" xlink:title=" ">
<polygon fill="none" stroke="black" points="1443,-126.5 1443,-145.5 1601,-145.5 1601,-126.5 1443,-126.5"/>
<text text-anchor="middle" x="1522" y="-133.5" font-family="Helvetica,sans-Serif" font-size="10.00">com.cliffc.aa.util.VBitSet.tset</text>
</a>
</g>
</g>
<!-- Node5&#45;&gt;Node6 -->
<g id="edge5" class="edge">
<title>Node5&#45;&gt;Node6</title>
<path fill="none" stroke="midnightblue" d="M1407.16,-136C1415.63,-136 1424.31,-136 1432.9,-136"/>
<polygon fill="midnightblue" stroke="midnightblue" points="1432.94,-139.5 1442.94,-136 1432.94,-132.5 1432.94,-139.5"/>
</g>
<!-- Node7&#45;&gt;Node4 -->
<g id="edge7" class="edge">
<title>Node7&#45;&gt;Node4</title>
<path fill="none" stroke="midnightblue" d="M334.64,-174.1C350.56,-175.72 367.32,-177.16 383,-178 658.35,-192.69 728.7,-183.21 1003,-155 1022.39,-153.01 1043.38,-150.07 1062.46,-147.1"/>
<polygon fill="midnightblue" stroke="midnightblue" points="1063.22,-150.53 1072.55,-145.5 1062.12,-143.61 1063.22,-150.53"/>
</g>
<!-- Node8 -->
<g id="node8" class="node">
<title>Node8</title>
<g id="a_node8"><a xlink:href="../../df/db5/a01158.html#ab7694c22a9c7542842726bcfb0eb5922" target="_top" xlink:title=" ">
<polygon fill="none" stroke="black" points="386,-149.5 386,-168.5 561,-168.5 561,-149.5 386,-149.5"/>
<text text-anchor="middle" x="473.5" y="-156.5" font-family="Helvetica,sans-Serif" font-size="10.00">com.cliffc.aa.node.Node.is_dead</text>
</a>
</g>
</g>
<!-- Node7&#45;&gt;Node8 -->
<g id="edge8" class="edge">
<title>Node7&#45;&gt;Node8</title>
<path fill="none" stroke="midnightblue" d="M334.71,-162.92C347.79,-162.55 361.62,-162.15 375.26,-161.77"/>
<polygon fill="midnightblue" stroke="midnightblue" points="375.74,-165.25 385.63,-161.47 375.54,-158.26 375.74,-165.25"/>
</g>
<!-- Node10 -->
<g id="node10" class="node">
<title>Node10</title>
<g id="a_node10"><a xlink:href="../../df/db5/a01158.html#a9a46cea187559f94192aa6e09b91c60c" target="_top" xlink:title=" ">
<polygon fill="none" stroke="black" points="400.5,-73.5 400.5,-92.5 546.5,-92.5 546.5,-73.5 400.5,-73.5"/>
<text text-anchor="middle" x="473.5" y="-80.5" font-family="Helvetica,sans-Serif" font-size="10.00">com.cliffc.aa.node.Node.in</text>
</a>
</g>
</g>
<!-- Node9&#45;&gt;Node10 -->
<g id="edge10" class="edge">
<title>Node9&#45;&gt;Node10</title>
<path fill="none" stroke="midnightblue" d="M329.71,-78.94C348.98,-79.49 370.14,-80.09 390.14,-80.66"/>
<polygon fill="midnightblue" stroke="midnightblue" points="390.06,-84.16 400.16,-80.94 390.26,-77.16 390.06,-84.16"/>
</g>
<!-- Node12 -->
<g id="node12" class="node">
<title>Node12</title>
<g id="a_node12"><a xlink:href="../../df/db5/a01158.html#abd1ef05754be5fb96db69e3bd0a0a8bd" target="_top" xlink:title=" ">
<polygon fill="none" stroke="black" points="600,-0.5 600,-19.5 776,-19.5 776,-0.5 600,-0.5"/>
<text text-anchor="middle" x="688" y="-7.5" font-family="Helvetica,sans-Serif" font-size="10.00">com.cliffc.aa.node.Node.unelock</text>
</a>
</g>
</g>
<!-- Node11&#45;&gt;Node12 -->
<g id="edge12" class="edge">
<title>Node11&#45;&gt;Node12</title>
<path fill="none" stroke="midnightblue" d="M347.13,-28.01C359.17,-27.33 371.4,-26.64 383,-26 452.09,-22.19 530.03,-18.09 589.69,-15"/>
<polygon fill="midnightblue" stroke="midnightblue" points="590.05,-18.48 599.85,-14.47 589.68,-11.49 590.05,-18.48"/>
</g>
<!-- Node16 -->
<g id="node16" class="node">
<title>Node16</title>
<g id="a_node16"><a xlink:href="../../df/db5/a01158.html#a284c9a1217237d2f3eede517b6a33aa4" target="_top" xlink:title=" ">
<polygon fill="none" stroke="black" points="390,-35.5 390,-54.5 557,-54.5 557,-35.5 390,-35.5"/>
<text text-anchor="middle" x="473.5" y="-42.5" font-family="Helvetica,sans-Serif" font-size="10.00">com.cliffc.aa.node.Node.unuse</text>
</a>
</g>
</g>
<!-- Node11&#45;&gt;Node16 -->
<g id="edge18" class="edge">
<title>Node11&#45;&gt;Node16</title>
<path fill="none" stroke="midnightblue" d="M347.02,-37.86C357.86,-38.48 369,-39.11 379.95,-39.74"/>
<polygon fill="midnightblue" stroke="midnightblue" points="379.75,-43.23 389.94,-40.3 380.15,-36.24 379.75,-43.23"/>
</g>
<!-- Node13 -->
<g id="node13" class="node">
<title>Node13</title>
<g id="a_node13"><a xlink:href="../../d9/d0a/a00390.html#a195b2b7d0b8f0f1770422573c2cc22ff" target="_top" xlink:title=" ">
<polygon fill="none" stroke="black" points="821,-88.5 821,-107.5 994,-107.5 994,-88.5 821,-88.5"/>
<text text-anchor="middle" x="907.5" y="-95.5" font-family="Helvetica,sans-Serif" font-size="10.00">com.cliffc.aa.GVNGCM.add_flow</text>
</a>
</g>
</g>
<!-- Node12&#45;&gt;Node13 -->
<g id="edge13" class="edge">
<title>Node12&#45;&gt;Node13</title>
<path fill="none" stroke="midnightblue" d="M748.76,-19.53C758.33,-22.59 767.78,-26.64 776,-32 797.75,-46.17 789.97,-64.26 812,-78 816.14,-80.58 820.56,-82.84 825.14,-84.8"/>
<polygon fill="midnightblue" stroke="midnightblue" points="824.15,-88.17 834.74,-88.45 826.63,-81.62 824.15,-88.17"/>
</g>
<!-- Node14 -->
<g id="node14" class="node">
<title>Node14</title>
<g id="a_node14"><a xlink:href="../../d9/d0a/a00390.html#ad52b88a21b47c661e6f6a3bcfdbb3576" target="_top" xlink:title=" ">
<polygon fill="none" stroke="black" points="833.5,-39 833.5,-69 981.5,-69 981.5,-39 833.5,-39"/>
<text text-anchor="start" x="841.5" y="-57" font-family="Helvetica,sans-Serif" font-size="10.00">com.cliffc.aa.GVNGCM.add</text>
<text text-anchor="middle" x="907.5" y="-46" font-family="Helvetica,sans-Serif" font-size="10.00">_reduce</text>
</a>
</g>
</g>
<!-- Node12&#45;&gt;Node14 -->
<g id="edge15" class="edge">
<title>Node12&#45;&gt;Node14</title>
<path fill="none" stroke="midnightblue" d="M736.19,-19.55C761.67,-24.7 793.88,-31.22 823.41,-37.19"/>
<polygon fill="midnightblue" stroke="midnightblue" points="822.81,-40.64 833.3,-39.19 824.2,-33.78 822.81,-40.64"/>
</g>
<!-- Node15 -->
<g id="node15" class="node">
<title>Node15</title>
<g id="a_node15"><a xlink:href="../../df/db5/a01158.html#abcbaaf7e990f5a12a68e91a70af8fb7e" target="_top" xlink:title=" ">
<polygon fill="none" stroke="black" points="812,-0.5 812,-19.5 1003,-19.5 1003,-0.5 812,-0.5"/>
<text text-anchor="middle" x="907.5" y="-7.5" font-family="Helvetica,sans-Serif" font-size="10.00">com.cliffc.aa.node.Node.check_vals</text>
</a>
</g>
</g>
<!-- Node12&#45;&gt;Node15 -->
<g id="edge17" class="edge">
<title>Node12&#45;&gt;Node15</title>
<path fill="none" stroke="midnightblue" d="M776.21,-10C784.62,-10 793.21,-10 801.77,-10"/>
<polygon fill="midnightblue" stroke="midnightblue" points="801.78,-13.5 811.78,-10 801.78,-6.5 801.78,-13.5"/>
</g>
<!-- Node13&#45;&gt;Node4 -->
<g id="edge14" class="edge">
<title>Node13&#45;&gt;Node4</title>
<path fill="none" stroke="midnightblue" d="M963.23,-107.54C993.16,-112.76 1030.42,-119.25 1061.79,-124.72"/>
<polygon fill="midnightblue" stroke="midnightblue" points="1061.3,-128.19 1071.75,-126.46 1062.5,-121.29 1061.3,-128.19"/>
</g>
<!-- Node14&#45;&gt;Node4 -->
<g id="edge16" class="edge">
<title>Node14&#45;&gt;Node4</title>
<path fill="none" stroke="midnightblue" d="M971.49,-69.03C982.11,-72.03 992.94,-75.38 1003,-79 1037.13,-91.29 1074.77,-109.35 1099.41,-121.83"/>
<polygon fill="midnightblue" stroke="midnightblue" points="1098.01,-125.05 1108.5,-126.49 1101.2,-118.81 1098.01,-125.05"/>
</g>
<!-- Node16&#45;&gt;Node2 -->
<g id="edge19" class="edge">
<title>Node16&#45;&gt;Node2</title>
<path fill="none" stroke="midnightblue" d="M529.47,-54.57C541.01,-57.16 553.01,-60.3 564,-64 580.77,-69.65 583.79,-73.92 600,-81 612.48,-86.45 626.1,-92.08 638.78,-97.19"/>
<polygon fill="midnightblue" stroke="midnightblue" points="637.67,-100.51 648.25,-100.98 640.27,-94.01 637.67,-100.51"/>
</g>
<!-- Node17 -->
<g id="node17" class="node">
<title>Node17</title>
<g id="a_node17"><a xlink:href="../../d9/d0a/a00390.html#a4a612bae4153eff084e4fe1d0049987c" target="_top" xlink:title=" ">
<polygon fill="none" stroke="black" points="614,-42 614,-72 762,-72 762,-42 614,-42"/>
<text text-anchor="start" x="622" y="-60" font-family="Helvetica,sans-Serif" font-size="10.00">com.cliffc.aa.GVNGCM.add</text>
<text text-anchor="middle" x="688" y="-49" font-family="Helvetica,sans-Serif" font-size="10.00">_unuse</text>
</a>
</g>
</g>
<!-- Node16&#45;&gt;Node17 -->
<g id="edge20" class="edge">
<title>Node16&#45;&gt;Node17</title>
<path fill="none" stroke="midnightblue" d="M557.27,-49.67C572.42,-50.53 588.24,-51.42 603.41,-52.28"/>
<polygon fill="midnightblue" stroke="midnightblue" points="603.61,-55.8 613.8,-52.87 604.01,-48.81 603.61,-55.8"/>
</g>
<!-- Node17&#45;&gt;Node13 -->
<g id="edge23" class="edge">
<title>Node17&#45;&gt;Node13</title>
<path fill="none" stroke="midnightblue" d="M762.03,-70.77C789.27,-75.9 819.87,-81.67 845.87,-86.57"/>
<polygon fill="midnightblue" stroke="midnightblue" points="845.49,-90.06 855.96,-88.47 846.78,-83.18 845.49,-90.06"/>
</g>
<!-- Node17&#45;&gt;Node14 -->
<g id="edge24" class="edge">
<title>Node17&#45;&gt;Node14</title>
<path fill="none" stroke="midnightblue" d="M762.03,-55.99C781.67,-55.72 803.05,-55.43 823.2,-55.15"/>
<polygon fill="midnightblue" stroke="midnightblue" points="823.34,-58.65 833.29,-55.01 823.25,-51.65 823.34,-58.65"/>
</g>
<!-- Node18 -->
<g id="node18" class="node">
<title>Node18</title>
<g id="a_node18"><a xlink:href="../../d9/d0a/a00390.html#af23b6c0debccdb7104dea273b231c716" target="_top" xlink:title=" ">
<polygon fill="none" stroke="black" points="819,-126.5 819,-145.5 996,-145.5 996,-126.5 819,-126.5"/>
<text text-anchor="middle" x="907.5" y="-133.5" font-family="Helvetica,sans-Serif" font-size="10.00">com.cliffc.aa.GVNGCM.add_dead</text>
</a>
</g>
</g>
<!-- Node17&#45;&gt;Node18 -->
<g id="edge21" class="edge">
<title>Node17&#45;&gt;Node18</title>
<path fill="none" stroke="midnightblue" d="M731.91,-72.06C746.24,-77.66 762.1,-84.5 776,-92 793.14,-101.25 794.08,-109.37 812,-117 818.15,-119.62 824.69,-121.89 831.34,-123.85"/>
<polygon fill="midnightblue" stroke="midnightblue" points="830.57,-127.26 841.13,-126.5 832.4,-120.51 830.57,-127.26"/>
</g>
<!-- Node18&#45;&gt;Node4 -->
<g id="edge22" class="edge">
<title>Node18&#45;&gt;Node4</title>
<path fill="none" stroke="midnightblue" d="M996.23,-136C1006.9,-136 1017.85,-136 1028.65,-136"/>
<polygon fill="midnightblue" stroke="midnightblue" points="1028.95,-139.5 1038.95,-136 1028.95,-132.5 1028.95,-139.5"/>
</g>
</g>
</svg>
        <g id="navigator" transform="translate(0 0)" fill="#404254">
                <rect fill="#f2f5e9" fill-opacity="0.5" stroke="#606060" stroke-width=".5" x="0" y="0" width="60" height="60"/>
                <use id="zoomplus" xlink:href="#zoomPlus" x="17" y="9" onmousedown="handleZoom(evt,'in')"/>
                <use id="zoomminus" xlink:href="#zoomMin" x="42" y="9" onmousedown="handleZoom(evt,'out')"/>
                <use id="reset" xlink:href="#resetDef" x="30" y="36" onmousedown="handleReset()"/>
                <g id="arrowUp" xlink:href="#dirArrow" transform="translate(30 24)" onmousedown="handlePan(0,-1)">
                  <use xlink:href="#rim" fill="#404040">
                        <set attributeName="fill" to="#808080" begin="arrowUp.mouseover" end="arrowUp.mouseout"/>
                  </use>
                  <path fill="none" stroke="white" stroke-width="1.5" d="M0,-3.0v7 M-2.5,-0.5L0,-3.0L2.5,-0.5"/>
                </g>
                <g id="arrowRight" xlink:href="#dirArrow" transform="rotate(90) translate(36 -43)" onmousedown="handlePan(1,0)">
                  <use xlink:href="#rim" fill="#404040">
                        <set attributeName="fill" to="#808080" begin="arrowRight.mouseover" end="arrowRight.mouseout"/>
                  </use>
                  <path fill="none" stroke="white" stroke-width="1.5" d="M0,-3.0v7 M-2.5,-0.5L0,-3.0L2.5,-0.5"/>
                </g>
                <g id="arrowDown" xlink:href="#dirArrow" transform="rotate(180) translate(-30 -48)" onmousedown="handlePan(0,1)">
                  <use xlink:href="#rim" fill="#404040">
                        <set attributeName="fill" to="#808080" begin="arrowDown.mouseover" end="arrowDown.mouseout"/>
                  </use>
                  <path fill="none" stroke="white" stroke-width="1.5" d="M0,-3.0v7 M-2.5,-0.5L0,-3.0L2.5,-0.5"/>
                </g>
                <g id="arrowLeft" xlink:href="#dirArrow" transform="rotate(270) translate(-36 17)" onmousedown="handlePan(-1,0)">
                  <use xlink:href="#rim" fill="#404040">
                        <set attributeName="fill" to="#808080" begin="arrowLeft.mouseover" end="arrowLeft.mouseout"/>
                  </use>
                  <path fill="none" stroke="white" stroke-width="1.5" d="M0,-3.0v7 M-2.5,-0.5L0,-3.0L2.5,-0.5"/>
                </g>
        </g>
        <svg viewBox="0 0 15 15" width="100%" height="30px" preserveAspectRatio="xMaxYMin meet">
         <g id="arrow_out" transform="scale(0.3 0.3)">
          <a xlink:href="a01358_ae82fad194d042fa512afc1d75eba9c76_cgraph_org.svg" target="_base">
           <rect id="button" ry="5" rx="5" y="6" x="6" height="38" width="38"
                fill="#f2f5e9" fill-opacity="0.5" stroke="#606060" stroke-width="1.0"/>
           <path id="arrow"
             d="M 11.500037,31.436501 C 11.940474,20.09759 22.043105,11.32322 32.158766,21.979434 L 37.068811,17.246167 C 37.068811,17.246167 37.088388,32 37.088388,32 L 22.160133,31.978069 C 22.160133,31.978069 26.997745,27.140456 26.997745,27.140456 C 18.528582,18.264221 13.291696,25.230495 11.500037,31.436501 z"
             style="fill:#404040;"/>
          </a>
         </g>
        </svg>
</svg>
