<?xml version="1.0" encoding="UTF-8" standalone="no"?>
<!DOCTYPE svg PUBLIC "-//W3C//DTD SVG 1.1//EN"
 "http://www.w3.org/Graphics/SVG/1.1/DTD/svg11.dtd">
<!-- Generated by graphviz version 2.43.0 (0)
 -->
<!-- Title: com.cliffc.aa.node.ScopeNode.live_use Pages: 1 -->
<!--zoomable 409 -->
<svg id="main" version="1.1" xmlns="http://www.w3.org/2000/svg" xmlns:xlink="http://www.w3.org/1999/xlink" xml:space="preserve" onload="init(evt)">
<style type="text/css"><![CDATA[
.edge:hover path { stroke: red; }
.edge:hover polygon { stroke: red; fill: red; }
]]></style>
<script type="text/javascript"><![CDATA[
var edges = document.getElementsByTagName('g');
if (edges && edges.length) {
  for (var i=0;i<edges.length;i++) {
    if (edges[i].id.substr(0,4)=='edge') {
      edges[i].setAttribute('class','edge');
    }
  }
}
]]></script>
        <defs>
                <circle id="rim" cx="0" cy="0" r="7"/>
                <circle id="rim2" cx="0" cy="0" r="3.5"/>
                <g id="zoomPlus">
                        <use xlink:href="#rim" fill="#404040">
                                <set attributeName="fill" to="#808080" begin="zoomplus.mouseover" end="zoomplus.mouseout"/>
                        </use>
                        <path d="M-4,0h8M0,-4v8" fill="none" stroke="white" stroke-width="1.5" pointer-events="none"/>
                </g>
                <g id="zoomMin">
                        <use xlink:href="#rim" fill="#404040">
                                <set attributeName="fill" to="#808080" begin="zoomminus.mouseover" end="zoomminus.mouseout"/>
                        </use>
                        <path d="M-4,0h8" fill="none" stroke="white" stroke-width="1.5" pointer-events="none"/>
                </g>
                <g id="dirArrow">
                        <path fill="none" stroke="white" stroke-width="1.5" d="M0,-3.0v7 M-2.5,-0.5L0,-3.0L2.5,-0.5"/>
                </g>
               <g id="resetDef">
                       <use xlink:href="#rim2" fill="#404040">
                               <set attributeName="fill" to="#808080" begin="reset.mouseover" end="reset.mouseout"/>
                       </use>
               </g>
        </defs>

<script type="text/javascript">
var viewWidth = 1517;
var viewHeight = 409;
var sectionId = 'dynsection-99';
</script>
<script xlink:href="../../svgpan.js"/>
<svg id="graph" class="graph">
<g id="viewport">
<title>com.cliffc.aa.node.ScopeNode.live_use</title>
<!-- Node1 -->
<g id="node1" class="node">
<title>Node1</title>
<g id="a_node1"><a xlink:title=" ">
<polygon fill="#bfbfbf" stroke="black" points="0,-244.5 0,-274.5 138,-274.5 138,-244.5 0,-244.5"/>
<text text-anchor="start" x="8" y="-262.5" font-family="Helvetica,sans-Serif" font-size="10.00">com.cliffc.aa.node.Scope</text>
<text text-anchor="middle" x="69" y="-251.5" font-family="Helvetica,sans-Serif" font-size="10.00">Node.live_use</text>
</a>
</g>
</g>
<!-- Node2 -->
<g id="node2" class="node">
<title>Node2</title>
<g id="a_node2"><a xlink:href="../../df/db5/a01158.html#a260ab95c10fcb1ccf5f4845aedbb929f" target="_top" xlink:title=" ">
<polygon fill="none" stroke="black" points="190.5,-381 190.5,-400 363.5,-400 363.5,-381 190.5,-381"/>
<text text-anchor="middle" x="277" y="-388" font-family="Helvetica,sans-Serif" font-size="10.00">com.cliffc.aa.node.Node.all_live</text>
</a>
</g>
</g>
<!-- Node1&#45;&gt;Node2 -->
<g id="edge1" class="edge">
<title>Node1&#45;&gt;Node2</title>
<path fill="none" stroke="midnightblue" d="M79.38,-274.7C95.46,-299.36 130.77,-347.7 174,-371.5 178.17,-373.8 182.56,-375.82 187.09,-377.6"/>
<polygon fill="midnightblue" stroke="midnightblue" points="185.96,-380.91 196.55,-380.94 188.29,-374.31 185.96,-380.91"/>
</g>
<!-- Node3 -->
<g id="node3" class="node">
<title>Node3</title>
<g id="a_node3"><a xlink:href="../../d6/d51/a01494.html#aedca9fa727944cdfe2b208fd4e260c4d" target="_top" xlink:title=" ">
<polygon fill="none" stroke="black" points="174,-343 174,-362 380,-362 380,-343 174,-343"/>
<text text-anchor="middle" x="277" y="-350" font-family="Helvetica,sans-Serif" font-size="10.00">com.cliffc.aa.type.TypeMem.basic_live</text>
</a>
</g>
</g>
<!-- Node1&#45;&gt;Node3 -->
<g id="edge2" class="edge">
<title>Node1&#45;&gt;Node3</title>
<path fill="none" stroke="midnightblue" d="M86.27,-274.57C105.65,-291.63 139.73,-318.96 174,-333.5 180.18,-336.12 186.73,-338.39 193.4,-340.34"/>
<polygon fill="midnightblue" stroke="midnightblue" points="192.67,-343.77 203.24,-342.98 194.49,-337 192.67,-343.77"/>
</g>
<!-- Node4 -->
<g id="node4" class="node">
<title>Node4</title>
<g id="a_node4"><a xlink:href="../../de/d5c/a01358.html#a15327eb97b2d4630ec7df1e9cc823881" target="_top" xlink:title=" ">
<polygon fill="none" stroke="black" points="208,-293.5 208,-323.5 346,-323.5 346,-293.5 208,-293.5"/>
<text text-anchor="start" x="216" y="-311.5" font-family="Helvetica,sans-Serif" font-size="10.00">com.cliffc.aa.node.Scope</text>
<text text-anchor="middle" x="277" y="-300.5" font-family="Helvetica,sans-Serif" font-size="10.00">Node.ctrl</text>
</a>
</g>
</g>
<!-- Node1&#45;&gt;Node4 -->
<g id="edge3" class="edge">
<title>Node1&#45;&gt;Node4</title>
<path fill="none" stroke="midnightblue" d="M132.41,-274.55C146.11,-277.84 160.54,-281.3 174,-284.5 183.06,-286.66 192.58,-288.91 202.01,-291.14"/>
<polygon fill="midnightblue" stroke="midnightblue" points="201.25,-294.55 211.78,-293.44 202.85,-287.74 201.25,-294.55"/>
</g>
<!-- Node6 -->
<g id="node6" class="node">
<title>Node6</title>
<g id="a_node6"><a xlink:href="../../d6/d51/a01494.html#a569a2d713b117af40fb04583d2c2e9ae" target="_top" xlink:title=" ">
<polygon fill="none" stroke="black" points="183,-97.5 183,-127.5 371,-127.5 371,-97.5 183,-97.5"/>
<text text-anchor="start" x="191" y="-115.5" font-family="Helvetica,sans-Serif" font-size="10.00">com.cliffc.aa.type.TypeMem.flatten</text>
<text text-anchor="middle" x="277" y="-104.5" font-family="Helvetica,sans-Serif" font-size="10.00">_fields</text>
</a>
</g>
</g>
<!-- Node1&#45;&gt;Node6 -->
<g id="edge5" class="edge">
<title>Node1&#45;&gt;Node6</title>
<path fill="none" stroke="midnightblue" d="M78.44,-244.48C93.88,-218.45 129.23,-165.11 174,-137.5 177.44,-135.38 181.04,-133.44 184.76,-131.66"/>
<polygon fill="midnightblue" stroke="midnightblue" points="186.42,-134.76 194.21,-127.58 183.64,-128.34 186.42,-134.76"/>
</g>
<!-- Node18 -->
<g id="node18" class="node">
<title>Node18</title>
<g id="a_node18"><a xlink:href="../../de/d5c/a01358.html#a199043a64946784dc275e91423aa4076" target="_top" xlink:title=" ">
<polygon fill="none" stroke="black" points="208,-244.5 208,-274.5 346,-274.5 346,-244.5 208,-244.5"/>
<text text-anchor="start" x="216" y="-262.5" font-family="Helvetica,sans-Serif" font-size="10.00">com.cliffc.aa.node.Scope</text>
<text text-anchor="middle" x="277" y="-251.5" font-family="Helvetica,sans-Serif" font-size="10.00">Node.mem</text>
</a>
</g>
</g>
<!-- Node1&#45;&gt;Node18 -->
<g id="edge18" class="edge">
<title>Node1&#45;&gt;Node18</title>
<path fill="none" stroke="midnightblue" d="M138.02,-259.5C157.08,-259.5 177.96,-259.5 197.57,-259.5"/>
<polygon fill="midnightblue" stroke="midnightblue" points="197.7,-263 207.7,-259.5 197.7,-256 197.7,-263"/>
</g>
<!-- Node19 -->
<g id="node19" class="node">
<title>Node19</title>
<g id="a_node19"><a xlink:href="../../de/d5c/a01358.html#aa0a5636db79935abd0a15438798c5ff5" target="_top" xlink:title=" ">
<polygon fill="none" stroke="black" points="208,-195.5 208,-225.5 346,-225.5 346,-195.5 208,-195.5"/>
<text text-anchor="start" x="216" y="-213.5" font-family="Helvetica,sans-Serif" font-size="10.00">com.cliffc.aa.node.Scope</text>
<text text-anchor="middle" x="277" y="-202.5" font-family="Helvetica,sans-Serif" font-size="10.00">Node.ptr</text>
</a>
</g>
</g>
<!-- Node1&#45;&gt;Node19 -->
<g id="edge20" class="edge">
<title>Node1&#45;&gt;Node19</title>
<path fill="none" stroke="midnightblue" d="M133.21,-244.47C155.25,-239.22 180.18,-233.29 202.96,-227.87"/>
<polygon fill="midnightblue" stroke="midnightblue" points="203.99,-231.23 212.91,-225.51 202.37,-224.42 203.99,-231.23"/>
</g>
<!-- Node20 -->
<g id="node20" class="node">
<title>Node20</title>
<g id="a_node20"><a xlink:href="../../de/d5c/a01358.html#ae042d31e0069bd9ff011bae450d21870" target="_top" xlink:title=" ">
<polygon fill="none" stroke="black" points="208,-146.5 208,-176.5 346,-176.5 346,-146.5 208,-146.5"/>
<text text-anchor="start" x="216" y="-164.5" font-family="Helvetica,sans-Serif" font-size="10.00">com.cliffc.aa.node.Scope</text>
<text text-anchor="middle" x="277" y="-153.5" font-family="Helvetica,sans-Serif" font-size="10.00">Node.rez</text>
</a>
</g>
</g>
<!-- Node1&#45;&gt;Node20 -->
<g id="edge22" class="edge">
<title>Node1&#45;&gt;Node20</title>
<path fill="none" stroke="midnightblue" d="M87.16,-244.39C106.83,-227.84 140.66,-201.64 174,-186.5 181.64,-183.03 189.82,-180 198.11,-177.37"/>
<polygon fill="midnightblue" stroke="midnightblue" points="199.29,-180.67 207.87,-174.45 197.28,-173.96 199.29,-180.67"/>
</g>
<!-- Node5 -->
<g id="node5" class="node">
<title>Node5</title>
<g id="a_node5"><a xlink:href="../../df/db5/a01158.html#a9a46cea187559f94192aa6e09b91c60c" target="_top" xlink:title=" ">
<polygon fill="none" stroke="black" points="438,-225 438,-244 584,-244 584,-225 438,-225"/>
<text text-anchor="middle" x="511" y="-232" font-family="Helvetica,sans-Serif" font-size="10.00">com.cliffc.aa.node.Node.in</text>
</a>
</g>
</g>
<!-- Node4&#45;&gt;Node5 -->
<g id="edge4" class="edge">
<title>Node4&#45;&gt;Node5</title>
<path fill="none" stroke="midnightblue" d="M346.11,-293.84C357.5,-291 369.13,-287.85 380,-284.5 414.22,-273.95 452.35,-258.87 478.41,-248.04"/>
<polygon fill="midnightblue" stroke="midnightblue" points="479.91,-251.21 487.78,-244.11 477.2,-244.75 479.91,-251.21"/>
</g>
<!-- Node7 -->
<g id="node7" class="node">
<title>Node7</title>
<g id="a_node7"><a xlink:href="../../d0/de2/a01442.html#aa3715d8050c210fb8cc36ed83da6da13" target="_top" xlink:title=" ">
<polygon fill="none" stroke="black" points="432,-147 432,-166 590,-166 590,-147 432,-147"/>
<text text-anchor="middle" x="511" y="-154" font-family="Helvetica,sans-Serif" font-size="10.00">com.cliffc.aa.type.Type.clone</text>
</a>
</g>
</g>
<!-- Node6&#45;&gt;Node7 -->
<g id="edge6" class="edge">
<title>Node6&#45;&gt;Node7</title>
<path fill="none" stroke="midnightblue" d="M357.19,-127.52C387.47,-133.26 421.48,-139.71 449.72,-145.07"/>
<polygon fill="midnightblue" stroke="midnightblue" points="449.37,-148.56 459.84,-146.99 450.67,-141.69 449.37,-148.56"/>
</g>
<!-- Node8 -->
<g id="node8" class="node">
<title>Node8</title>
<g id="a_node8"><a xlink:href="../../de/dc6/a01502.html#ae551e25fb3b1de8582e90fef208b1c2c" target="_top" xlink:title=" ">
<polygon fill="none" stroke="black" points="421,-97.5 421,-127.5 601,-127.5 601,-97.5 421,-97.5"/>
<text text-anchor="start" x="429" y="-115.5" font-family="Helvetica,sans-Serif" font-size="10.00">com.cliffc.aa.type.TypeObj.flatten</text>
<text text-anchor="middle" x="511" y="-104.5" font-family="Helvetica,sans-Serif" font-size="10.00">_fields</text>
</a>
</g>
</g>
<!-- Node6&#45;&gt;Node8 -->
<g id="edge7" class="edge">
<title>Node6&#45;&gt;Node8</title>
<path fill="none" stroke="midnightblue" d="M371.03,-112.5C384.09,-112.5 397.55,-112.5 410.72,-112.5"/>
<polygon fill="midnightblue" stroke="midnightblue" points="410.72,-116 420.72,-112.5 410.72,-109 410.72,-116"/>
</g>
<!-- Node9 -->
<g id="node9" class="node">
<title>Node9</title>
<g id="a_node9"><a xlink:href="../../d6/d51/a01494.html#a6e66e12dd6b273e5ade4ab54fa683f8d" target="_top" xlink:title=" ">
<polygon fill="none" stroke="black" points="416,-59 416,-78 606,-78 606,-59 416,-59"/>
<text text-anchor="middle" x="511" y="-66" font-family="Helvetica,sans-Serif" font-size="10.00">com.cliffc.aa.type.TypeMem.make0</text>
</a>
</g>
</g>
<!-- Node6&#45;&gt;Node9 -->
<g id="edge8" class="edge">
<title>Node6&#45;&gt;Node9</title>
<path fill="none" stroke="midnightblue" d="M357.19,-97.48C387.47,-91.74 421.48,-85.29 449.72,-79.93"/>
<polygon fill="midnightblue" stroke="midnightblue" points="450.67,-83.31 459.84,-78.01 449.37,-76.44 450.67,-83.31"/>
</g>
<!-- Node10 -->
<g id="node10" class="node">
<title>Node10</title>
<g id="a_node10"><a xlink:href="../../d6/d51/a01494.html#af6e06afd7033aef3b4d8e85653d41df6" target="_top" xlink:title=" ">
<polygon fill="none" stroke="black" points="655.5,-97.5 655.5,-127.5 812.5,-127.5 812.5,-97.5 655.5,-97.5"/>
<text text-anchor="start" x="663.5" y="-115.5" font-family="Helvetica,sans-Serif" font-size="10.00">com.cliffc.aa.type.TypeMem.</text>
<text text-anchor="middle" x="734" y="-104.5" font-family="Helvetica,sans-Serif" font-size="10.00">_make1</text>
</a>
</g>
</g>
<!-- Node9&#45;&gt;Node10 -->
<g id="edge9" class="edge">
<title>Node9&#45;&gt;Node10</title>
<path fill="none" stroke="midnightblue" d="M559.95,-78.05C585.5,-83.13 617.7,-89.54 647.38,-95.45"/>
<polygon fill="midnightblue" stroke="midnightblue" points="646.84,-98.91 657.33,-97.43 648.21,-92.05 646.84,-98.91"/>
</g>
<!-- Node12 -->
<g id="node12" class="node">
<title>Node12</title>
<g id="a_node12"><a xlink:href="../../d6/d51/a01494.html#abfc567fa84de27858d9707536072702c" target="_top" xlink:title=" ">
<polygon fill="none" stroke="black" points="642,-59 642,-78 826,-78 826,-59 642,-59"/>
<text text-anchor="middle" x="734" y="-66" font-family="Helvetica,sans-Serif" font-size="10.00">com.cliffc.aa.type.TypeMem.make</text>
</a>
</g>
</g>
<!-- Node9&#45;&gt;Node12 -->
<g id="edge11" class="edge">
<title>Node9&#45;&gt;Node12</title>
<path fill="none" stroke="midnightblue" d="M606.04,-68.5C614.57,-68.5 623.23,-68.5 631.82,-68.5"/>
<polygon fill="midnightblue" stroke="midnightblue" points="631.85,-72 641.85,-68.5 631.85,-65 631.85,-72"/>
</g>
<!-- Node17 -->
<g id="node17" class="node">
<title>Node17</title>
<g id="a_node17"><a xlink:href="../../d0/de2/a01442.html#a388429cb6bea455104e3b9690d992854" target="_top" xlink:title=" ">
<polygon fill="none" stroke="black" points="659,-21 659,-40 809,-40 809,-21 659,-21"/>
<text text-anchor="middle" x="734" y="-28" font-family="Helvetica,sans-Serif" font-size="10.00">com.cliffc.aa.type.Type.oob</text>
</a>
</g>
</g>
<!-- Node9&#45;&gt;Node17 -->
<g id="edge17" class="edge">
<title>Node9&#45;&gt;Node17</title>
<path fill="none" stroke="midnightblue" d="M567.48,-58.96C597.83,-53.74 635.6,-47.25 667.4,-41.78"/>
<polygon fill="midnightblue" stroke="midnightblue" points="668.23,-45.19 677.49,-40.04 667.05,-38.29 668.23,-45.19"/>
</g>
<!-- Node11 -->
<g id="node11" class="node">
<title>Node11</title>
<g id="a_node11"><a xlink:href="../../d6/d51/a01494.html#ab31abc3950f3574c970b2858a1870949" target="_top" xlink:title=" ">
<polygon fill="none" stroke="black" points="877.5,-103 877.5,-122 1049.5,-122 1049.5,-103 877.5,-103"/>
<text text-anchor="middle" x="963.5" y="-110" font-family="Helvetica,sans-Serif" font-size="10.00">com.cliffc.aa.type.TypeMem.len</text>
</a>
</g>
</g>
<!-- Node10&#45;&gt;Node11 -->
<g id="edge10" class="edge">
<title>Node10&#45;&gt;Node11</title>
<path fill="none" stroke="midnightblue" d="M812.66,-112.5C830.25,-112.5 849.13,-112.5 867.36,-112.5"/>
<polygon fill="midnightblue" stroke="midnightblue" points="867.4,-116 877.4,-112.5 867.4,-109 867.4,-116"/>
</g>
<!-- Node13 -->
<g id="node13" class="node">
<title>Node13</title>
<g id="a_node13"><a xlink:href="../../d0/de2/a01442.html#a8fe8d556e45e6b654f3ac87f118ac8de" target="_top" xlink:title=" ">
<polygon fill="none" stroke="black" points="862,-62 862,-81 1065,-81 1065,-62 862,-62"/>
<text text-anchor="middle" x="963.5" y="-69" font-family="Helvetica,sans-Serif" font-size="10.00">com.cliffc.aa.type.Type.hashcons_free</text>
</a>
</g>
</g>
<!-- Node12&#45;&gt;Node13 -->
<g id="edge12" class="edge">
<title>Node12&#45;&gt;Node13</title>
<path fill="none" stroke="midnightblue" d="M826.22,-69.7C834.66,-69.81 843.28,-69.93 851.87,-70.04"/>
<polygon fill="midnightblue" stroke="midnightblue" points="851.88,-73.54 861.93,-70.17 851.97,-66.54 851.88,-73.54"/>
</g>
<!-- Node14 -->
<g id="node14" class="node">
<title>Node14</title>
<g id="a_node14"><a xlink:href="../../d6/d51/a01494.html#a6b1eb89aaaf02ada150969b5f8ce24ff" target="_top" xlink:title=" ">
<polygon fill="none" stroke="black" points="877,-6 877,-25 1050,-25 1050,-6 877,-6"/>
<text text-anchor="middle" x="963.5" y="-13" font-family="Helvetica,sans-Serif" font-size="10.00">com.cliffc.aa.type.TypeMem.init</text>
</a>
</g>
</g>
<!-- Node12&#45;&gt;Node14 -->
<g id="edge13" class="edge">
<title>Node12&#45;&gt;Node14</title>
<path fill="none" stroke="midnightblue" d="M782.31,-58.98C796.39,-56.05 811.84,-52.74 826,-49.5 856.08,-42.62 889.72,-34.24 916.08,-27.53"/>
<polygon fill="midnightblue" stroke="midnightblue" points="916.98,-30.91 925.8,-25.05 915.25,-24.13 916.98,-30.91"/>
</g>
<!-- Node14&#45;&gt;Node14 -->
<g id="edge16" class="edge">
<title>Node14&#45;&gt;Node14</title>
<path fill="none" stroke="midnightblue" d="M928.64,-25.11C911.13,-33.96 922.75,-43.5 963.5,-43.5 994.06,-43.5 1008.24,-38.13 1006.03,-31.72"/>
<polygon fill="midnightblue" stroke="midnightblue" points="1008.22,-28.99 998.36,-25.11 1003.65,-34.29 1008.22,-28.99"/>
</g>
<!-- Node15 -->
<g id="node15" class="node">
<title>Node15</title>
<g id="a_node15"><a xlink:href="../../d6/d51/a01494.html#a9a14a112498c8f5beb4b4585cdf61653" target="_top" xlink:title=" ">
<polygon fill="none" stroke="black" points="1101,-6 1101,-25 1286,-25 1286,-6 1101,-6"/>
<text text-anchor="middle" x="1193.5" y="-13" font-family="Helvetica,sans-Serif" font-size="10.00">com.cliffc.aa.type.TypeMem.check</text>
</a>
</g>
</g>
<!-- Node14&#45;&gt;Node15 -->
<g id="edge14" class="edge">
<title>Node14&#45;&gt;Node15</title>
<path fill="none" stroke="midnightblue" d="M1050.05,-15.5C1063.24,-15.5 1076.97,-15.5 1090.48,-15.5"/>
<polygon fill="midnightblue" stroke="midnightblue" points="1090.75,-19 1100.75,-15.5 1090.75,-12 1090.75,-19"/>
</g>
<!-- Node16 -->
<g id="node16" class="node">
<title>Node16</title>
<g id="a_node16"><a xlink:href="../../d6/d51/a01494.html#a0eecce7cc3a48609b618fd6ba69927f1" target="_top" xlink:title=" ">
<polygon fill="none" stroke="black" points="1322,-0.5 1322,-30.5 1509,-30.5 1509,-0.5 1322,-0.5"/>
<text text-anchor="start" x="1330" y="-18.5" font-family="Helvetica,sans-Serif" font-size="10.00">com.cliffc.aa.type.TypeMem.above</text>
<text text-anchor="middle" x="1415.5" y="-7.5" font-family="Helvetica,sans-Serif" font-size="10.00">_center</text>
</a>
</g>
</g>
<!-- Node15&#45;&gt;Node16 -->
<g id="edge15" class="edge">
<title>Node15&#45;&gt;Node16</title>
<path fill="none" stroke="midnightblue" d="M1286.21,-15.5C1294.68,-15.5 1303.3,-15.5 1311.87,-15.5"/>
<polygon fill="midnightblue" stroke="midnightblue" points="1311.88,-19 1321.88,-15.5 1311.88,-12 1311.88,-19"/>
</g>
<!-- Node18&#45;&gt;Node5 -->
<g id="edge19" class="edge">
<title>Node18&#45;&gt;Node5</title>
<path fill="none" stroke="midnightblue" d="M346.04,-252.17C371.65,-249.41 401.04,-246.24 427.81,-243.36"/>
<polygon fill="midnightblue" stroke="midnightblue" points="428.35,-246.82 437.92,-242.27 427.6,-239.86 428.35,-246.82"/>
</g>
<!-- Node19&#45;&gt;Node5 -->
<g id="edge21" class="edge">
<title>Node19&#45;&gt;Node5</title>
<path fill="none" stroke="midnightblue" d="M346.04,-217.54C371.65,-220.19 401.04,-223.23 427.81,-226"/>
<polygon fill="midnightblue" stroke="midnightblue" points="427.61,-229.5 437.92,-227.04 428.33,-222.53 427.61,-229.5"/>
</g>
<!-- Node20&#45;&gt;Node5 -->
<g id="edge23" class="edge">
<title>Node20&#45;&gt;Node5</title>
<path fill="none" stroke="midnightblue" d="M344.14,-176.55C356.14,-179.61 368.49,-182.98 380,-186.5 413.45,-196.74 450.85,-210.84 476.91,-221.1"/>
<polygon fill="midnightblue" stroke="midnightblue" points="475.73,-224.4 486.32,-224.83 478.31,-217.89 475.73,-224.4"/>
</g>
</g>
</svg>
        <g id="navigator" transform="translate(0 0)" fill="#404254">
                <rect fill="#f2f5e9" fill-opacity="0.5" stroke="#606060" stroke-width=".5" x="0" y="0" width="60" height="60"/>
                <use id="zoomplus" xlink:href="#zoomPlus" x="17" y="9" onmousedown="handleZoom(evt,'in')"/>
                <use id="zoomminus" xlink:href="#zoomMin" x="42" y="9" onmousedown="handleZoom(evt,'out')"/>
                <use id="reset" xlink:href="#resetDef" x="30" y="36" onmousedown="handleReset()"/>
                <g id="arrowUp" xlink:href="#dirArrow" transform="translate(30 24)" onmousedown="handlePan(0,-1)">
                  <use xlink:href="#rim" fill="#404040">
                        <set attributeName="fill" to="#808080" begin="arrowUp.mouseover" end="arrowUp.mouseout"/>
                  </use>
                  <path fill="none" stroke="white" stroke-width="1.5" d="M0,-3.0v7 M-2.5,-0.5L0,-3.0L2.5,-0.5"/>
                </g>
                <g id="arrowRight" xlink:href="#dirArrow" transform="rotate(90) translate(36 -43)" onmousedown="handlePan(1,0)">
                  <use xlink:href="#rim" fill="#404040">
                        <set attributeName="fill" to="#808080" begin="arrowRight.mouseover" end="arrowRight.mouseout"/>
                  </use>
                  <path fill="none" stroke="white" stroke-width="1.5" d="M0,-3.0v7 M-2.5,-0.5L0,-3.0L2.5,-0.5"/>
                </g>
                <g id="arrowDown" xlink:href="#dirArrow" transform="rotate(180) translate(-30 -48)" onmousedown="handlePan(0,1)">
                  <use xlink:href="#rim" fill="#404040">
                        <set attributeName="fill" to="#808080" begin="arrowDown.mouseover" end="arrowDown.mouseout"/>
                  </use>
                  <path fill="none" stroke="white" stroke-width="1.5" d="M0,-3.0v7 M-2.5,-0.5L0,-3.0L2.5,-0.5"/>
                </g>
                <g id="arrowLeft" xlink:href="#dirArrow" transform="rotate(270) translate(-36 17)" onmousedown="handlePan(-1,0)">
                  <use xlink:href="#rim" fill="#404040">
                        <set attributeName="fill" to="#808080" begin="arrowLeft.mouseover" end="arrowLeft.mouseout"/>
                  </use>
                  <path fill="none" stroke="white" stroke-width="1.5" d="M0,-3.0v7 M-2.5,-0.5L0,-3.0L2.5,-0.5"/>
                </g>
        </g>
        <svg viewBox="0 0 15 15" width="100%" height="30px" preserveAspectRatio="xMaxYMin meet">
         <g id="arrow_out" transform="scale(0.3 0.3)">
          <a xlink:href="a01358_a072ce31c106bfe112dd5584f99caa9c4_cgraph_org.svg" target="_base">
           <rect id="button" ry="5" rx="5" y="6" x="6" height="38" width="38"
                fill="#f2f5e9" fill-opacity="0.5" stroke="#606060" stroke-width="1.0"/>
           <path id="arrow"
             d="M 11.500037,31.436501 C 11.940474,20.09759 22.043105,11.32322 32.158766,21.979434 L 37.068811,17.246167 C 37.068811,17.246167 37.088388,32 37.088388,32 L 22.160133,31.978069 C 22.160133,31.978069 26.997745,27.140456 26.997745,27.140456 C 18.528582,18.264221 13.291696,25.230495 11.500037,31.436501 z"
             style="fill:#404040;"/>
          </a>
         </g>
        </svg>
</svg>
