<?xml version="1.0" encoding="UTF-8" standalone="no"?>
<!DOCTYPE svg PUBLIC "-//W3C//DTD SVG 1.1//EN"
 "http://www.w3.org/Graphics/SVG/1.1/DTD/svg11.dtd">
<!-- Generated by graphviz version 2.43.0 (0)
 -->
<!-- Title: com.cliffc.aa.node.PrimNode.PRIMS Pages: 1 -->
<svg width="350pt" height="66pt"
 viewBox="0.00 0.00 350.00 66.00" xmlns="http://www.w3.org/2000/svg" xmlns:xlink="http://www.w3.org/1999/xlink">
<g id="graph0" class="graph" transform="scale(1 1) rotate(0) translate(4 62)">
<title>com.cliffc.aa.node.PrimNode.PRIMS</title>
<!-- Node1 -->
<g id="node1" class="node">
<title>Node1</title>
<g id="a_node1"><a xlink:title=" ">
<polygon fill="#bfbfbf" stroke="black" points="0,-14 0,-44 160,-44 160,-14 0,-14"/>
<text text-anchor="start" x="8" y="-32" font-family="Helvetica,sans-Serif" font-size="10.00">com.cliffc.aa.node.PrimNode.</text>
<text text-anchor="middle" x="80" y="-21" font-family="Helvetica,sans-Serif" font-size="10.00">PRIMS</text>
</a>
</g>
</g>
<!-- Node2 -->
<g id="node2" class="node">
<title>Node2</title>
<g id="a_node2"><a xlink:href="../../d6/d02/a01542.html#a0a77ca788387cfcb2fb48635c6ea868d" target="_top" xlink:title=" ">
<polygon fill="none" stroke="black" points="196,-38.5 196,-57.5 342,-57.5 342,-38.5 196,-38.5"/>
<text text-anchor="middle" x="269" y="-45.5" font-family="Helvetica,sans-Serif" font-size="10.00">com.cliffc.aa.util.Ary.asAry</text>
</a>
</g>
</g>
<!-- Node1&#45;&gt;Node2 -->
<g id="edge1" class="edge">
<title>Node1&#45;&gt;Node2</title>
<path fill="none" stroke="midnightblue" d="M160.03,-37.03C168.56,-37.9 177.25,-38.78 185.81,-39.65"/>
<polygon fill="midnightblue" stroke="midnightblue" points="185.48,-43.13 195.79,-40.66 186.19,-36.17 185.48,-43.13"/>
</g>
<!-- Node3 -->
<g id="node3" class="node">
<title>Node3</title>
<g id="a_node3"><a xlink:href="../../d6/d02/a01542.html#a297ba4203dcf40a83e97c0cb53866fe7" target="_top" xlink:title="Add element in amortized constant time.">
<polygon fill="none" stroke="black" points="198,-0.5 198,-19.5 340,-19.5 340,-0.5 198,-0.5"/>
<text text-anchor="middle" x="269" y="-7.5" font-family="Helvetica,sans-Serif" font-size="10.00">com.cliffc.aa.util.Ary.push</text>
</a>
</g>
</g>
<!-- Node1&#45;&gt;Node3 -->
<g id="edge2" class="edge">
<title>Node1&#45;&gt;Node3</title>
<path fill="none" stroke="midnightblue" d="M160.03,-20.97C169.16,-20.04 178.47,-19.1 187.62,-18.17"/>
<polygon fill="midnightblue" stroke="midnightblue" points="188.25,-21.62 197.85,-17.13 187.54,-14.66 188.25,-21.62"/>
</g>
</g>
</svg>
