<?xml version="1.0" encoding="UTF-8" standalone="no"?>
<!DOCTYPE svg PUBLIC "-//W3C//DTD SVG 1.1//EN"
 "http://www.w3.org/Graphics/SVG/1.1/DTD/svg11.dtd">
<!-- Generated by graphviz version 2.43.0 (0)
 -->
<!-- Title: com.cliffc.aa.Env.close_display Pages: 1 -->
<svg width="1796pt" height="375pt"
 viewBox="0.00 0.00 1796.00 375.00" xmlns="http://www.w3.org/2000/svg" xmlns:xlink="http://www.w3.org/1999/xlink">
<g id="graph0" class="graph" transform="scale(1 1) rotate(0) translate(4 371)">
<title>com.cliffc.aa.Env.close_display</title>
<!-- Node1 -->
<g id="node1" class="node">
<title>Node1</title>
<g id="a_node1"><a xlink:title=" ">
<polygon fill="#bfbfbf" stroke="black" points="0,-166 0,-196 128,-196 128,-166 0,-166"/>
<text text-anchor="start" x="8" y="-184" font-family="Helvetica,sans-Serif" font-size="10.00">com.cliffc.aa.Env.close</text>
<text text-anchor="middle" x="64" y="-173" font-family="Helvetica,sans-Serif" font-size="10.00">_display</text>
</a>
</g>
</g>
<!-- Node2 -->
<g id="node2" class="node">
<title>Node2</title>
<g id="a_node2"><a xlink:href="../../d9/d0a/a00390.html#a195b2b7d0b8f0f1770422573c2cc22ff" target="_top" xlink:title=" ">
<polygon fill="none" stroke="black" points="1008,-248.5 1008,-267.5 1181,-267.5 1181,-248.5 1008,-248.5"/>
<text text-anchor="middle" x="1094.5" y="-255.5" font-family="Helvetica,sans-Serif" font-size="10.00">com.cliffc.aa.GVNGCM.add_flow</text>
</a>
</g>
</g>
<!-- Node1&#45;&gt;Node2 -->
<g id="edge1" class="edge">
<title>Node1&#45;&gt;Node2</title>
<path fill="none" stroke="midnightblue" d="M76.05,-196.29C92.48,-217.63 125.57,-255.58 164,-272 285.02,-323.71 327.9,-291 459.5,-291 459.5,-291 459.5,-291 668.5,-291 786.14,-291 921.54,-278.28 1007.3,-268.63"/>
<polygon fill="midnightblue" stroke="midnightblue" points="1007.71,-272.11 1017.25,-267.5 1006.92,-265.15 1007.71,-272.11"/>
</g>
<!-- Node6 -->
<g id="node6" class="node">
<title>Node6</title>
<g id="a_node6"><a xlink:href="../../d9/d0a/a00390.html#a7604d1a7a8281ef87e4af6c1939b0c85" target="_top" xlink:title=" ">
<polygon fill="none" stroke="black" points="176.5,-320 176.5,-350 324.5,-350 324.5,-320 176.5,-320"/>
<text text-anchor="start" x="184.5" y="-338" font-family="Helvetica,sans-Serif" font-size="10.00">com.cliffc.aa.GVNGCM.add</text>
<text text-anchor="middle" x="250.5" y="-327" font-family="Helvetica,sans-Serif" font-size="10.00">_work_all</text>
</a>
</g>
</g>
<!-- Node1&#45;&gt;Node6 -->
<g id="edge5" class="edge">
<title>Node1&#45;&gt;Node6</title>
<path fill="none" stroke="midnightblue" d="M73.31,-196.25C88.17,-222.2 121.77,-275.02 164,-305 169.82,-309.13 176.26,-312.74 182.93,-315.88"/>
<polygon fill="midnightblue" stroke="midnightblue" points="181.54,-319.1 192.11,-319.88 184.34,-312.68 181.54,-319.1"/>
</g>
<!-- Node8 -->
<g id="node8" class="node">
<title>Node8</title>
<g id="a_node8"><a xlink:href="../../d4/d3c/a01418.html#aa3c0e7eb1110a51bb421a7d35a5b0ea3" target="_top" xlink:title=" ">
<polygon fill="none" stroke="black" points="174.5,-193.5 174.5,-212.5 326.5,-212.5 326.5,-193.5 174.5,-193.5"/>
<text text-anchor="middle" x="250.5" y="-200.5" font-family="Helvetica,sans-Serif" font-size="10.00">com.cliffc.aa.type.Bits.clear</text>
</a>
</g>
</g>
<!-- Node1&#45;&gt;Node8 -->
<g id="edge8" class="edge">
<title>Node1&#45;&gt;Node8</title>
<path fill="none" stroke="midnightblue" d="M128.24,-188.54C139.81,-189.92 152.06,-191.38 164.15,-192.82"/>
<polygon fill="midnightblue" stroke="midnightblue" points="163.91,-196.32 174.25,-194.03 164.74,-189.37 163.91,-196.32"/>
</g>
<!-- Node9 -->
<g id="node9" class="node">
<title>Node9</title>
<g id="a_node9"><a xlink:href="../../dd/de2/a01134.html#af5bd1373b99febca707a63df86096738" target="_top" xlink:title=" ">
<polygon fill="none" stroke="black" points="177,-144 177,-174 324,-174 324,-144 177,-144"/>
<text text-anchor="start" x="185" y="-162" font-family="Helvetica,sans-Serif" font-size="10.00">com.cliffc.aa.node.NewObj</text>
<text text-anchor="middle" x="250.5" y="-151" font-family="Helvetica,sans-Serif" font-size="10.00">Node.no_more_fields</text>
</a>
</g>
</g>
<!-- Node1&#45;&gt;Node9 -->
<g id="edge9" class="edge">
<title>Node1&#45;&gt;Node9</title>
<path fill="none" stroke="midnightblue" d="M128.24,-173.46C140.58,-171.99 153.7,-170.42 166.58,-168.89"/>
<polygon fill="midnightblue" stroke="midnightblue" points="167.31,-172.32 176.83,-167.67 166.48,-165.37 167.31,-172.32"/>
</g>
<!-- Node11 -->
<g id="node11" class="node">
<title>Node11</title>
<g id="a_node11"><a xlink:href="../../de/d5c/a01358.html#aa0a5636db79935abd0a15438798c5ff5" target="_top" xlink:title=" ">
<polygon fill="none" stroke="black" points="391.5,-51 391.5,-81 529.5,-81 529.5,-51 391.5,-51"/>
<text text-anchor="start" x="399.5" y="-69" font-family="Helvetica,sans-Serif" font-size="10.00">com.cliffc.aa.node.Scope</text>
<text text-anchor="middle" x="460.5" y="-58" font-family="Helvetica,sans-Serif" font-size="10.00">Node.ptr</text>
</a>
</g>
</g>
<!-- Node1&#45;&gt;Node11 -->
<g id="edge11" class="edge">
<title>Node1&#45;&gt;Node11</title>
<path fill="none" stroke="midnightblue" d="M75.36,-165.8C91.4,-143.7 124.56,-103.43 164,-86 232.83,-55.58 319.54,-53.4 381.19,-57.12"/>
<polygon fill="midnightblue" stroke="midnightblue" points="381.03,-60.62 391.25,-57.79 381.5,-53.63 381.03,-60.62"/>
</g>
<!-- Node13 -->
<g id="node13" class="node">
<title>Node13</title>
<g id="a_node13"><a xlink:href="../../de/d5c/a01358.html#a741ce3ddb30d2c05f647cf66a5388feb" target="_top" xlink:title=" ">
<polygon fill="none" stroke="black" points="181.5,-232 181.5,-262 319.5,-262 319.5,-232 181.5,-232"/>
<text text-anchor="start" x="189.5" y="-250" font-family="Helvetica,sans-Serif" font-size="10.00">com.cliffc.aa.node.Scope</text>
<text text-anchor="middle" x="250.5" y="-239" font-family="Helvetica,sans-Serif" font-size="10.00">Node.set_ptr</text>
</a>
</g>
</g>
<!-- Node1&#45;&gt;Node13 -->
<g id="edge13" class="edge">
<title>Node1&#45;&gt;Node13</title>
<path fill="none" stroke="midnightblue" d="M99.01,-196.15C117.95,-204.32 142.07,-214.28 164,-222 170.72,-224.37 177.79,-226.69 184.86,-228.91"/>
<polygon fill="midnightblue" stroke="midnightblue" points="183.9,-232.27 194.49,-231.87 185.96,-225.58 183.9,-232.27"/>
</g>
<!-- Node22 -->
<g id="node22" class="node">
<title>Node22</title>
<g id="a_node22"><a xlink:href="../../de/d5c/a01358.html#ac9f5539df25752e0030903c46930a3df" target="_top" xlink:title=" ">
<polygon fill="none" stroke="black" points="181.5,-95 181.5,-125 319.5,-125 319.5,-95 181.5,-95"/>
<text text-anchor="start" x="189.5" y="-113" font-family="Helvetica,sans-Serif" font-size="10.00">com.cliffc.aa.node.Scope</text>
<text text-anchor="middle" x="250.5" y="-102" font-family="Helvetica,sans-Serif" font-size="10.00">Node.stk</text>
</a>
</g>
</g>
<!-- Node1&#45;&gt;Node22 -->
<g id="edge27" class="edge">
<title>Node1&#45;&gt;Node22</title>
<path fill="none" stroke="midnightblue" d="M94.39,-165.92C113.83,-156.31 140.05,-144.01 164,-135 170.32,-132.62 176.97,-130.33 183.66,-128.16"/>
<polygon fill="midnightblue" stroke="midnightblue" points="184.96,-131.42 193.45,-125.07 182.86,-124.74 184.96,-131.42"/>
</g>
<!-- Node23 -->
<g id="node23" class="node">
<title>Node23</title>
<g id="a_node23"><a xlink:href="../../df/db5/a01158.html#a7d5c85ec867849430a484f9a03665668" target="_top" xlink:title=" ">
<polygon fill="none" stroke="black" points="164,-0.5 164,-19.5 337,-19.5 337,-0.5 164,-0.5"/>
<text text-anchor="middle" x="250.5" y="-7.5" font-family="Helvetica,sans-Serif" font-size="10.00">com.cliffc.aa.node.Node.unkeep</text>
</a>
</g>
</g>
<!-- Node1&#45;&gt;Node23 -->
<g id="edge30" class="edge">
<title>Node1&#45;&gt;Node23</title>
<path fill="none" stroke="midnightblue" d="M73.55,-165.65C88.8,-139.44 122.95,-85.64 164,-52 178.41,-40.2 196.69,-30.65 212.64,-23.66"/>
<polygon fill="midnightblue" stroke="midnightblue" points="214.35,-26.73 222.22,-19.64 211.65,-20.28 214.35,-26.73"/>
</g>
<!-- Node3 -->
<g id="node3" class="node">
<title>Node3</title>
<g id="a_node3"><a xlink:href="../../d9/d0a/a00390.html#a6074ca566ae10e746122ac8d09239d02" target="_top" xlink:title=" ">
<polygon fill="none" stroke="black" points="1226,-229.5 1226,-248.5 1403,-248.5 1403,-229.5 1226,-229.5"/>
<text text-anchor="middle" x="1314.5" y="-236.5" font-family="Helvetica,sans-Serif" font-size="10.00">com.cliffc.aa.GVNGCM.add_work</text>
</a>
</g>
</g>
<!-- Node2&#45;&gt;Node3 -->
<g id="edge2" class="edge">
<title>Node2&#45;&gt;Node3</title>
<path fill="none" stroke="midnightblue" d="M1181.03,-250.55C1192.38,-249.56 1204.09,-248.54 1215.62,-247.53"/>
<polygon fill="midnightblue" stroke="midnightblue" points="1216.05,-251.01 1225.7,-246.65 1215.44,-244.03 1216.05,-251.01"/>
</g>
<!-- Node4 -->
<g id="node4" class="node">
<title>Node4</title>
<g id="a_node4"><a xlink:href="../../d6/d2f/a01394.html#acc21c59313a6ce5c286431fd2d4fd891" target="_top" xlink:title=" ">
<polygon fill="none" stroke="black" points="1439,-229.5 1439,-248.5 1594,-248.5 1594,-229.5 1439,-229.5"/>
<text text-anchor="middle" x="1516.5" y="-236.5" font-family="Helvetica,sans-Serif" font-size="10.00">com.cliffc.aa.node.Work.add</text>
</a>
</g>
</g>
<!-- Node3&#45;&gt;Node4 -->
<g id="edge3" class="edge">
<title>Node3&#45;&gt;Node4</title>
<path fill="none" stroke="midnightblue" d="M1403.22,-239C1411.65,-239 1420.2,-239 1428.63,-239"/>
<polygon fill="midnightblue" stroke="midnightblue" points="1428.82,-242.5 1438.82,-239 1428.82,-235.5 1428.82,-242.5"/>
</g>
<!-- Node5 -->
<g id="node5" class="node">
<title>Node5</title>
<g id="a_node5"><a xlink:href="../../df/dee/a01646.html#a88ad20daf92e92fe0e3925b23c4fecf0" target="_top" xlink:title=" ">
<polygon fill="none" stroke="black" points="1630,-229.5 1630,-248.5 1788,-248.5 1788,-229.5 1630,-229.5"/>
<text text-anchor="middle" x="1709" y="-236.5" font-family="Helvetica,sans-Serif" font-size="10.00">com.cliffc.aa.util.VBitSet.tset</text>
</a>
</g>
</g>
<!-- Node4&#45;&gt;Node5 -->
<g id="edge4" class="edge">
<title>Node4&#45;&gt;Node5</title>
<path fill="none" stroke="midnightblue" d="M1594.16,-239C1602.63,-239 1611.31,-239 1619.9,-239"/>
<polygon fill="midnightblue" stroke="midnightblue" points="1619.94,-242.5 1629.94,-239 1619.94,-235.5 1619.94,-242.5"/>
</g>
<!-- Node6&#45;&gt;Node3 -->
<g id="edge6" class="edge">
<title>Node6&#45;&gt;Node3</title>
<path fill="none" stroke="midnightblue" d="M324.83,-344.08C407.66,-353.54 546.54,-367 666.5,-367 666.5,-367 666.5,-367 876,-367 1036.66,-367 1217.65,-286.5 1285.68,-253.18"/>
<polygon fill="midnightblue" stroke="midnightblue" points="1287.48,-256.2 1294.88,-248.62 1284.37,-249.92 1287.48,-256.2"/>
</g>
<!-- Node7 -->
<g id="node7" class="node">
<title>Node7</title>
<g id="a_node7"><a xlink:href="../../df/db5/a01158.html#ab7694c22a9c7542842726bcfb0eb5922" target="_top" xlink:title=" ">
<polygon fill="none" stroke="black" points="373,-319.5 373,-338.5 548,-338.5 548,-319.5 373,-319.5"/>
<text text-anchor="middle" x="460.5" y="-326.5" font-family="Helvetica,sans-Serif" font-size="10.00">com.cliffc.aa.node.Node.is_dead</text>
</a>
</g>
</g>
<!-- Node6&#45;&gt;Node7 -->
<g id="edge7" class="edge">
<title>Node6&#45;&gt;Node7</title>
<path fill="none" stroke="midnightblue" d="M324.54,-332.89C336.83,-332.54 349.74,-332.17 362.52,-331.8"/>
<polygon fill="midnightblue" stroke="midnightblue" points="362.83,-335.29 372.72,-331.5 362.63,-328.29 362.83,-335.29"/>
</g>
<!-- Node10 -->
<g id="node10" class="node">
<title>Node10</title>
<g id="a_node10"><a xlink:href="../../db/d1e/a01126.html#a4669b24e380cd534fab6667d635fcd1f" target="_top" xlink:title=" ">
<polygon fill="none" stroke="black" points="382.5,-144 382.5,-174 538.5,-174 538.5,-144 382.5,-144"/>
<text text-anchor="start" x="390.5" y="-162" font-family="Helvetica,sans-Serif" font-size="10.00">com.cliffc.aa.node.NewNode</text>
<text text-anchor="middle" x="460.5" y="-151" font-family="Helvetica,sans-Serif" font-size="10.00">&lt; TypeStruct &gt;::setsm</text>
</a>
</g>
</g>
<!-- Node9&#45;&gt;Node10 -->
<g id="edge10" class="edge">
<title>Node9&#45;&gt;Node10</title>
<path fill="none" stroke="midnightblue" d="M324.25,-159C339.62,-159 356.01,-159 371.87,-159"/>
<polygon fill="midnightblue" stroke="midnightblue" points="372.2,-162.5 382.2,-159 372.2,-155.5 372.2,-162.5"/>
</g>
<!-- Node12 -->
<g id="node12" class="node">
<title>Node12</title>
<g id="a_node12"><a xlink:href="../../df/db5/a01158.html#a9a46cea187559f94192aa6e09b91c60c" target="_top" xlink:title=" ">
<polygon fill="none" stroke="black" points="594.5,-78.5 594.5,-97.5 740.5,-97.5 740.5,-78.5 594.5,-78.5"/>
<text text-anchor="middle" x="667.5" y="-85.5" font-family="Helvetica,sans-Serif" font-size="10.00">com.cliffc.aa.node.Node.in</text>
</a>
</g>
</g>
<!-- Node11&#45;&gt;Node12 -->
<g id="edge12" class="edge">
<title>Node11&#45;&gt;Node12</title>
<path fill="none" stroke="midnightblue" d="M529.76,-73.33C547.25,-75.2 566.25,-77.24 584.36,-79.19"/>
<polygon fill="midnightblue" stroke="midnightblue" points="584,-82.67 594.32,-80.25 584.75,-75.71 584,-82.67"/>
</g>
<!-- Node14 -->
<g id="node14" class="node">
<title>Node14</title>
<g id="a_node14"><a xlink:href="../../df/db5/a01158.html#a76827313ea74c03a0d11a9cbf9e11c6e" target="_top" xlink:title=" ">
<polygon fill="none" stroke="black" points="374,-223.5 374,-242.5 547,-242.5 547,-223.5 374,-223.5"/>
<text text-anchor="middle" x="460.5" y="-230.5" font-family="Helvetica,sans-Serif" font-size="10.00">com.cliffc.aa.node.Node.set_def</text>
</a>
</g>
</g>
<!-- Node13&#45;&gt;Node14 -->
<g id="edge14" class="edge">
<title>Node13&#45;&gt;Node14</title>
<path fill="none" stroke="midnightblue" d="M319.61,-242.42C333.66,-241.47 348.71,-240.46 363.55,-239.46"/>
<polygon fill="midnightblue" stroke="midnightblue" points="364.02,-242.93 373.76,-238.77 363.55,-235.95 364.02,-242.93"/>
</g>
<!-- Node15 -->
<g id="node15" class="node">
<title>Node15</title>
<g id="a_node15"><a xlink:href="../../df/db5/a01158.html#abd1ef05754be5fb96db69e3bd0a0a8bd" target="_top" xlink:title=" ">
<polygon fill="none" stroke="black" points="787,-144.5 787,-163.5 963,-163.5 963,-144.5 787,-144.5"/>
<text text-anchor="middle" x="875" y="-151.5" font-family="Helvetica,sans-Serif" font-size="10.00">com.cliffc.aa.node.Node.unelock</text>
</a>
</g>
</g>
<!-- Node14&#45;&gt;Node15 -->
<g id="edge15" class="edge">
<title>Node14&#45;&gt;Node15</title>
<path fill="none" stroke="midnightblue" d="M511.26,-223.47C587.47,-208.87 732.84,-181.03 814.51,-165.39"/>
<polygon fill="midnightblue" stroke="midnightblue" points="815.22,-168.82 824.39,-163.5 813.91,-161.94 815.22,-168.82"/>
</g>
<!-- Node18 -->
<g id="node18" class="node">
<title>Node18</title>
<g id="a_node18"><a xlink:href="../../df/db5/a01158.html#a284c9a1217237d2f3eede517b6a33aa4" target="_top" xlink:title=" ">
<polygon fill="none" stroke="black" points="584,-223.5 584,-242.5 751,-242.5 751,-223.5 584,-223.5"/>
<text text-anchor="middle" x="667.5" y="-230.5" font-family="Helvetica,sans-Serif" font-size="10.00">com.cliffc.aa.node.Node.unuse</text>
</a>
</g>
</g>
<!-- Node14&#45;&gt;Node18 -->
<g id="edge20" class="edge">
<title>Node14&#45;&gt;Node18</title>
<path fill="none" stroke="midnightblue" d="M547.25,-233C555.93,-233 564.76,-233 573.51,-233"/>
<polygon fill="midnightblue" stroke="midnightblue" points="573.72,-236.5 583.72,-233 573.72,-229.5 573.72,-236.5"/>
</g>
<!-- Node15&#45;&gt;Node2 -->
<g id="edge16" class="edge">
<title>Node15&#45;&gt;Node2</title>
<path fill="none" stroke="midnightblue" d="M944.09,-163.64C950.85,-166.32 957.31,-169.71 963,-174 989.38,-193.87 972.35,-219.5 999,-239 1001.55,-240.87 1004.24,-242.56 1007.03,-244.1"/>
<polygon fill="midnightblue" stroke="midnightblue" points="1005.73,-247.36 1016.26,-248.5 1008.74,-241.04 1005.73,-247.36"/>
</g>
<!-- Node16 -->
<g id="node16" class="node">
<title>Node16</title>
<g id="a_node16"><a xlink:href="../../d9/d0a/a00390.html#ad52b88a21b47c661e6f6a3bcfdbb3576" target="_top" xlink:title=" ">
<polygon fill="none" stroke="black" points="1020.5,-161 1020.5,-191 1168.5,-191 1168.5,-161 1020.5,-161"/>
<text text-anchor="start" x="1028.5" y="-179" font-family="Helvetica,sans-Serif" font-size="10.00">com.cliffc.aa.GVNGCM.add</text>
<text text-anchor="middle" x="1094.5" y="-168" font-family="Helvetica,sans-Serif" font-size="10.00">_reduce</text>
</a>
</g>
</g>
<!-- Node15&#45;&gt;Node16 -->
<g id="edge17" class="edge">
<title>Node15&#45;&gt;Node16</title>
<path fill="none" stroke="midnightblue" d="M963.21,-162.82C978.72,-164.39 994.84,-166.02 1010.24,-167.58"/>
<polygon fill="midnightblue" stroke="midnightblue" points="1009.94,-171.07 1020.24,-168.59 1010.65,-164.1 1009.94,-171.07"/>
</g>
<!-- Node17 -->
<g id="node17" class="node">
<title>Node17</title>
<g id="a_node17"><a xlink:href="../../df/db5/a01158.html#abcbaaf7e990f5a12a68e91a70af8fb7e" target="_top" xlink:title=" ">
<polygon fill="none" stroke="black" points="999,-122.5 999,-141.5 1190,-141.5 1190,-122.5 999,-122.5"/>
<text text-anchor="middle" x="1094.5" y="-129.5" font-family="Helvetica,sans-Serif" font-size="10.00">com.cliffc.aa.node.Node.check_vals</text>
</a>
</g>
</g>
<!-- Node15&#45;&gt;Node17 -->
<g id="edge19" class="edge">
<title>Node15&#45;&gt;Node17</title>
<path fill="none" stroke="midnightblue" d="M963.21,-145.18C971.79,-144.31 980.56,-143.42 989.28,-142.54"/>
<polygon fill="midnightblue" stroke="midnightblue" points="989.9,-146 999.5,-141.51 989.2,-139.03 989.9,-146"/>
</g>
<!-- Node16&#45;&gt;Node3 -->
<g id="edge18" class="edge">
<title>Node16&#45;&gt;Node3</title>
<path fill="none" stroke="midnightblue" d="M1153.82,-191.04C1165.81,-194.24 1178.33,-197.66 1190,-201 1218.25,-209.08 1249.91,-218.84 1274.11,-226.44"/>
<polygon fill="midnightblue" stroke="midnightblue" points="1273.06,-229.78 1283.65,-229.45 1275.17,-223.11 1273.06,-229.78"/>
</g>
<!-- Node19 -->
<g id="node19" class="node">
<title>Node19</title>
<g id="a_node19"><a xlink:href="../../df/db5/a01158.html#a4c43a2abe5004ef2cf98b07a01500a1f" target="_top" xlink:title=" ">
<polygon fill="none" stroke="black" points="797.5,-232 797.5,-262 952.5,-262 952.5,-232 797.5,-232"/>
<text text-anchor="start" x="805.5" y="-250" font-family="Helvetica,sans-Serif" font-size="10.00">com.cliffc.aa.node.Node.add</text>
<text text-anchor="middle" x="875" y="-239" font-family="Helvetica,sans-Serif" font-size="10.00">_flow_def_extra</text>
</a>
</g>
</g>
<!-- Node18&#45;&gt;Node19 -->
<g id="edge21" class="edge">
<title>Node18&#45;&gt;Node19</title>
<path fill="none" stroke="midnightblue" d="M751.2,-238.63C763.13,-239.45 775.45,-240.29 787.46,-241.1"/>
<polygon fill="midnightblue" stroke="midnightblue" points="787.24,-244.6 797.46,-241.79 787.72,-237.61 787.24,-244.6"/>
</g>
<!-- Node20 -->
<g id="node20" class="node">
<title>Node20</title>
<g id="a_node20"><a xlink:href="../../d9/d0a/a00390.html#a4a612bae4153eff084e4fe1d0049987c" target="_top" xlink:title=" ">
<polygon fill="none" stroke="black" points="801,-183 801,-213 949,-213 949,-183 801,-183"/>
<text text-anchor="start" x="809" y="-201" font-family="Helvetica,sans-Serif" font-size="10.00">com.cliffc.aa.GVNGCM.add</text>
<text text-anchor="middle" x="875" y="-190" font-family="Helvetica,sans-Serif" font-size="10.00">_unuse</text>
</a>
</g>
</g>
<!-- Node18&#45;&gt;Node20 -->
<g id="edge22" class="edge">
<title>Node18&#45;&gt;Node20</title>
<path fill="none" stroke="midnightblue" d="M724.38,-223.48C744.79,-220.01 768.34,-216 790.62,-212.2"/>
<polygon fill="midnightblue" stroke="midnightblue" points="791.49,-215.6 800.76,-210.47 790.31,-208.7 791.49,-215.6"/>
</g>
<!-- Node20&#45;&gt;Node2 -->
<g id="edge25" class="edge">
<title>Node20&#45;&gt;Node2</title>
<path fill="none" stroke="midnightblue" d="M932.53,-213.01C942.75,-216.07 953.25,-219.45 963,-223 979.45,-228.99 982.32,-233.69 999,-239 1007.61,-241.74 1016.79,-244.17 1025.91,-246.3"/>
<polygon fill="midnightblue" stroke="midnightblue" points="1025.24,-249.74 1035.76,-248.49 1026.76,-242.9 1025.24,-249.74"/>
</g>
<!-- Node20&#45;&gt;Node16 -->
<g id="edge26" class="edge">
<title>Node20&#45;&gt;Node16</title>
<path fill="none" stroke="midnightblue" d="M949.03,-190.61C968.67,-188.63 990.05,-186.46 1010.2,-184.43"/>
<polygon fill="midnightblue" stroke="midnightblue" points="1010.7,-187.89 1020.29,-183.4 1009.99,-180.93 1010.7,-187.89"/>
</g>
<!-- Node21 -->
<g id="node21" class="node">
<title>Node21</title>
<g id="a_node21"><a xlink:href="../../d9/d0a/a00390.html#af23b6c0debccdb7104dea273b231c716" target="_top" xlink:title=" ">
<polygon fill="none" stroke="black" points="1006,-210.5 1006,-229.5 1183,-229.5 1183,-210.5 1006,-210.5"/>
<text text-anchor="middle" x="1094.5" y="-217.5" font-family="Helvetica,sans-Serif" font-size="10.00">com.cliffc.aa.GVNGCM.add_dead</text>
</a>
</g>
</g>
<!-- Node20&#45;&gt;Node21 -->
<g id="edge23" class="edge">
<title>Node20&#45;&gt;Node21</title>
<path fill="none" stroke="midnightblue" d="M949.03,-205.39C964.01,-206.9 980.01,-208.52 995.71,-210.11"/>
<polygon fill="midnightblue" stroke="midnightblue" points="995.66,-213.62 1005.96,-211.15 996.36,-206.66 995.66,-213.62"/>
</g>
<!-- Node21&#45;&gt;Node3 -->
<g id="edge24" class="edge">
<title>Node21&#45;&gt;Node3</title>
<path fill="none" stroke="midnightblue" d="M1183.23,-227.65C1194.01,-228.59 1205.07,-229.55 1215.99,-230.5"/>
<polygon fill="midnightblue" stroke="midnightblue" points="1215.69,-233.99 1225.95,-231.37 1216.29,-227.01 1215.69,-233.99"/>
</g>
<!-- Node22&#45;&gt;Node11 -->
<g id="edge29" class="edge">
<title>Node22&#45;&gt;Node11</title>
<path fill="none" stroke="midnightblue" d="M319.61,-95.59C339.36,-91.41 361.08,-86.82 381.4,-82.52"/>
<polygon fill="midnightblue" stroke="midnightblue" points="382.18,-85.93 391.24,-80.44 380.73,-79.09 382.18,-85.93"/>
</g>
<!-- Node22&#45;&gt;Node12 -->
<g id="edge28" class="edge">
<title>Node22&#45;&gt;Node12</title>
<path fill="none" stroke="midnightblue" d="M319.56,-106.39C391.97,-102.55 506.52,-96.48 584.01,-92.37"/>
<polygon fill="midnightblue" stroke="midnightblue" points="584.41,-95.86 594.21,-91.83 584.04,-88.87 584.41,-95.86"/>
</g>
<!-- Node23&#45;&gt;Node23 -->
<g id="edge31" class="edge">
<title>Node23&#45;&gt;Node23</title>
<path fill="none" stroke="midnightblue" d="M221.83,-19.76C207.89,-28.57 217.44,-38 250.5,-38 273.23,-38 284.85,-33.54 285.36,-27.89"/>
<polygon fill="midnightblue" stroke="midnightblue" points="288.01,-25.6 279.17,-19.76 282.44,-29.83 288.01,-25.6"/>
</g>
</g>
</svg>
