<?xml version="1.0" encoding="UTF-8" standalone="no"?>
<!DOCTYPE svg PUBLIC "-//W3C//DTD SVG 1.1//EN"
 "http://www.w3.org/Graphics/SVG/1.1/DTD/svg11.dtd">
<!-- Generated by graphviz version 2.43.0 (0)
 -->
<!-- Title: com.cliffc.aa.Env.close_display Pages: 1 -->
<svg width="486pt" height="66pt"
 viewBox="0.00 0.00 486.00 66.00" xmlns="http://www.w3.org/2000/svg" xmlns:xlink="http://www.w3.org/1999/xlink">
<g id="graph0" class="graph" transform="scale(1 1) rotate(0) translate(4 62)">
<title>com.cliffc.aa.Env.close_display</title>
<!-- Node1 -->
<g id="node1" class="node">
<title>Node1</title>
<g id="a_node1"><a xlink:title=" ">
<polygon fill="#bfbfbf" stroke="black" points="350,-14 350,-44 478,-44 478,-14 350,-14"/>
<text text-anchor="start" x="358" y="-32" font-family="Helvetica,sans-Serif" font-size="10.00">com.cliffc.aa.Env.close</text>
<text text-anchor="middle" x="414" y="-21" font-family="Helvetica,sans-Serif" font-size="10.00">_display</text>
</a>
</g>
</g>
<!-- Node2 -->
<g id="node2" class="node">
<title>Node2</title>
<g id="a_node2"><a xlink:href="../../d7/d08/a00378.html#a44625d53a9619e7e3d576b03d3ab1cb1" target="_top" xlink:title=" ">
<polygon fill="none" stroke="black" points="186,-38.5 186,-57.5 314,-57.5 314,-38.5 186,-38.5"/>
<text text-anchor="middle" x="250" y="-45.5" font-family="Helvetica,sans-Serif" font-size="10.00">com.cliffc.aa.Env.close</text>
</a>
</g>
</g>
<!-- Node1&#45;&gt;Node2 -->
<g id="edge1" class="edge">
<title>Node1&#45;&gt;Node2</title>
<path fill="none" stroke="midnightblue" d="M339.91,-37.57C331.32,-38.58 322.62,-39.6 314.19,-40.59"/>
<polygon fill="midnightblue" stroke="midnightblue" points="340.38,-41.04 349.9,-36.4 339.56,-34.09 340.38,-41.04"/>
</g>
<!-- Node4 -->
<g id="node4" class="node">
<title>Node4</title>
<g id="a_node4"><a xlink:href="../../da/de3/a01398.html#a7b1a6eaad3b721625612e7475ca9bf3b" target="_top" xlink:title=" ">
<polygon fill="none" stroke="black" points="188.5,-0.5 188.5,-19.5 311.5,-19.5 311.5,-0.5 188.5,-0.5"/>
<text text-anchor="middle" x="250" y="-7.5" font-family="Helvetica,sans-Serif" font-size="10.00">com.cliffc.aa.Parse.go</text>
</a>
</g>
</g>
<!-- Node1&#45;&gt;Node4 -->
<g id="edge3" class="edge">
<title>Node1&#45;&gt;Node4</title>
<path fill="none" stroke="midnightblue" d="M339.75,-20.41C330.31,-19.3 320.73,-18.18 311.54,-17.1"/>
<polygon fill="midnightblue" stroke="midnightblue" points="339.56,-23.91 349.9,-21.6 340.38,-16.96 339.56,-23.91"/>
</g>
<!-- Node3 -->
<g id="node3" class="node">
<title>Node3</title>
<g id="a_node3"><a xlink:href="../../dc/d2d/a01534.html#adefee15688aa3bbaa69600f308df81c8" target="_top" xlink:title=" ">
<polygon fill="none" stroke="black" points="0,-38.5 0,-57.5 150,-57.5 150,-38.5 0,-38.5"/>
<text text-anchor="middle" x="75" y="-45.5" font-family="Helvetica,sans-Serif" font-size="10.00">com.cliffc.aa.TypeEnv.close</text>
</a>
</g>
</g>
<!-- Node2&#45;&gt;Node3 -->
<g id="edge2" class="edge">
<title>Node2&#45;&gt;Node3</title>
<path fill="none" stroke="midnightblue" d="M175.49,-48C167.14,-48 158.63,-48 150.28,-48"/>
<polygon fill="midnightblue" stroke="midnightblue" points="175.56,-51.5 185.56,-48 175.56,-44.5 175.56,-51.5"/>
</g>
</g>
</svg>
