<?xml version="1.0" encoding="UTF-8" standalone="no"?>
<!DOCTYPE svg PUBLIC "-//W3C//DTD SVG 1.1//EN"
 "http://www.w3.org/Graphics/SVG/1.1/DTD/svg11.dtd">
<!-- Generated by graphviz version 2.43.0 (0)
 -->
<!-- Title: com.cliffc.aa.Env.lookup_type Pages: 1 -->
<svg width="540pt" height="62pt"
 viewBox="0.00 0.00 540.00 61.50" xmlns="http://www.w3.org/2000/svg" xmlns:xlink="http://www.w3.org/1999/xlink">
<g id="graph0" class="graph" transform="scale(1 1) rotate(0) translate(4 57.5)">
<title>com.cliffc.aa.Env.lookup_type</title>
<!-- Node1 -->
<g id="node1" class="node">
<title>Node1</title>
<g id="a_node1"><a xlink:title=" ">
<polygon fill="#bfbfbf" stroke="black" points="0,-28.5 0,-47.5 161,-47.5 161,-28.5 0,-28.5"/>
<text text-anchor="middle" x="80.5" y="-35.5" font-family="Helvetica,sans-Serif" font-size="10.00">com.cliffc.aa.Env.lookup_type</text>
</a>
</g>
</g>
<!-- Node2 -->
<g id="node2" class="node">
<title>Node2</title>
<g id="a_node2"><a xlink:href="../../de/d5c/a01358.html#aede05daecc99a1bfc5296c96e7213124" target="_top" xlink:title=" ">
<polygon fill="none" stroke="black" points="394,-23 394,-53 532,-53 532,-23 394,-23"/>
<text text-anchor="start" x="402" y="-41" font-family="Helvetica,sans-Serif" font-size="10.00">com.cliffc.aa.node.Scope</text>
<text text-anchor="middle" x="463" y="-30" font-family="Helvetica,sans-Serif" font-size="10.00">Node.get_type</text>
</a>
</g>
</g>
<!-- Node1&#45;&gt;Node2 -->
<g id="edge1" class="edge">
<title>Node1&#45;&gt;Node2</title>
<path fill="none" stroke="midnightblue" d="M161.29,-45.03C173.25,-45.85 185.44,-46.55 197,-47 268.5,-49.78 286.51,-50.09 358,-47 366.33,-46.64 375.02,-46.12 383.68,-45.51"/>
<polygon fill="midnightblue" stroke="midnightblue" points="384.09,-48.99 393.8,-44.75 383.57,-42 384.09,-48.99"/>
</g>
<!-- Node3 -->
<g id="node3" class="node">
<title>Node3</title>
<g id="a_node3"><a xlink:href="../../d7/d08/a00378.html#a5187ee285ddef210e6175df4741058f3" target="_top" xlink:title=" ">
<polygon fill="none" stroke="black" points="197,-0.5 197,-19.5 358,-19.5 358,-0.5 197,-0.5"/>
<text text-anchor="middle" x="277.5" y="-7.5" font-family="Helvetica,sans-Serif" font-size="10.00">com.cliffc.aa.Env.lookup_type</text>
</a>
</g>
</g>
<!-- Node1&#45;&gt;Node3 -->
<g id="edge2" class="edge">
<title>Node1&#45;&gt;Node3</title>
<path fill="none" stroke="midnightblue" d="M147.79,-28.48C164.59,-26.07 182.77,-23.46 200.03,-20.98"/>
<polygon fill="midnightblue" stroke="midnightblue" points="200.66,-24.43 210.06,-19.54 199.67,-17.5 200.66,-24.43"/>
</g>
<!-- Node3&#45;&gt;Node2 -->
<g id="edge3" class="edge">
<title>Node3&#45;&gt;Node2</title>
<path fill="none" stroke="midnightblue" d="M340.88,-19.52C354.59,-21.61 369.28,-23.85 383.54,-26.03"/>
<polygon fill="midnightblue" stroke="midnightblue" points="383.4,-29.55 393.82,-27.6 384.46,-22.63 383.4,-29.55"/>
</g>
<!-- Node3&#45;&gt;Node3 -->
<g id="edge4" class="edge">
<title>Node3&#45;&gt;Node3</title>
<path fill="none" stroke="midnightblue" d="M249.14,-19.76C235.34,-28.57 244.8,-38 277.5,-38 299.98,-38 311.48,-33.54 311.98,-27.89"/>
<polygon fill="midnightblue" stroke="midnightblue" points="314.67,-25.64 305.86,-19.76 309.08,-29.85 314.67,-25.64"/>
</g>
</g>
</svg>
