<?xml version="1.0" encoding="UTF-8" standalone="no"?>
<!DOCTYPE svg PUBLIC "-//W3C//DTD SVG 1.1//EN"
 "http://www.w3.org/Graphics/SVG/1.1/DTD/svg11.dtd">
<!-- Generated by graphviz version 2.43.0 (0)
 -->
<!-- Title: com.cliffc.aa.Env.lookup_scope Pages: 1 -->
<!--zoomable 407 -->
<svg id="main" version="1.1" xmlns="http://www.w3.org/2000/svg" xmlns:xlink="http://www.w3.org/1999/xlink" xml:space="preserve" onload="init(evt)">
<style type="text/css"><![CDATA[
.edge:hover path { stroke: red; }
.edge:hover polygon { stroke: red; fill: red; }
]]></style>
<script type="text/javascript"><![CDATA[
var edges = document.getElementsByTagName('g');
if (edges && edges.length) {
  for (var i=0;i<edges.length;i++) {
    if (edges[i].id.substr(0,4)=='edge') {
      edges[i].setAttribute('class','edge');
    }
  }
}
]]></script>
        <defs>
                <circle id="rim" cx="0" cy="0" r="7"/>
                <circle id="rim2" cx="0" cy="0" r="3.5"/>
                <g id="zoomPlus">
                        <use xlink:href="#rim" fill="#404040">
                                <set attributeName="fill" to="#808080" begin="zoomplus.mouseover" end="zoomplus.mouseout"/>
                        </use>
                        <path d="M-4,0h8M0,-4v8" fill="none" stroke="white" stroke-width="1.5" pointer-events="none"/>
                </g>
                <g id="zoomMin">
                        <use xlink:href="#rim" fill="#404040">
                                <set attributeName="fill" to="#808080" begin="zoomminus.mouseover" end="zoomminus.mouseout"/>
                        </use>
                        <path d="M-4,0h8" fill="none" stroke="white" stroke-width="1.5" pointer-events="none"/>
                </g>
                <g id="dirArrow">
                        <path fill="none" stroke="white" stroke-width="1.5" d="M0,-3.0v7 M-2.5,-0.5L0,-3.0L2.5,-0.5"/>
                </g>
               <g id="resetDef">
                       <use xlink:href="#rim2" fill="#404040">
                               <set attributeName="fill" to="#808080" begin="reset.mouseover" end="reset.mouseout"/>
                       </use>
               </g>
        </defs>

<script type="text/javascript">
var viewWidth = 3287;
var viewHeight = 407;
var sectionId = 'dynsection-27';
</script>
<script xlink:href="../../svgpan.js"/>
<svg id="graph" class="graph">
<g id="viewport">
<title>com.cliffc.aa.Env.lookup_scope</title>
<!-- Node1 -->
<g id="node1" class="node">
<title>Node1</title>
<g id="a_node1"><a xlink:title=" ">
<polygon fill="#bfbfbf" stroke="black" points="3145,-78 3145,-108 3279,-108 3279,-78 3145,-78"/>
<text text-anchor="start" x="3153" y="-96" font-family="Helvetica,sans-Serif" font-size="10.00">com.cliffc.aa.Env.lookup</text>
<text text-anchor="middle" x="3212" y="-85" font-family="Helvetica,sans-Serif" font-size="10.00">_scope</text>
</a>
</g>
</g>
<!-- Node1&#45;&gt;Node1 -->
<g id="edge49" class="edge">
<title>Node1&#45;&gt;Node1</title>
<path fill="none" stroke="midnightblue" d="M3242.21,-118.46C3238.46,-123.18 3228.39,-126.5 3212,-126.5 3185.11,-126.5 3175.23,-117.56 3182.37,-108.16"/>
<polygon fill="midnightblue" stroke="midnightblue" points="3245.68,-117.95 3241.63,-108.16 3238.69,-118.34 3245.68,-117.95"/>
</g>
<!-- Node2 -->
<g id="node2" class="node">
<title>Node2</title>
<g id="a_node2"><a xlink:href="../../d7/d08/a00378.html#a9b853b51765f6e95dff3f73eea46f53e" target="_top" xlink:title=" ">
<polygon fill="none" stroke="black" points="2975,-176.5 2975,-195.5 3109,-195.5 3109,-176.5 2975,-176.5"/>
<text text-anchor="middle" x="3042" y="-183.5" font-family="Helvetica,sans-Serif" font-size="10.00">com.cliffc.aa.Env.lookup</text>
</a>
</g>
</g>
<!-- Node1&#45;&gt;Node2 -->
<g id="edge1" class="edge">
<title>Node1&#45;&gt;Node2</title>
<path fill="none" stroke="midnightblue" d="M3174.62,-113.14C3139.38,-132.65 3087.45,-161.4 3060.56,-176.28"/>
<polygon fill="midnightblue" stroke="midnightblue" points="3176.58,-116.05 3183.63,-108.15 3173.19,-109.93 3176.58,-116.05"/>
</g>
<!-- Node34 -->
<g id="node34" class="node">
<title>Node34</title>
<g id="a_node34"><a xlink:href="../../da/de3/a01398.html#a3ce3409203fa4d16cb65a708de63046b" target="_top" xlink:title=" ">
<polygon fill="none" stroke="black" points="2008,-119 2008,-149 2151,-149 2151,-119 2008,-119"/>
<text text-anchor="start" x="2016" y="-137" font-family="Helvetica,sans-Serif" font-size="10.00">com.cliffc.aa.Parse.lookup</text>
<text text-anchor="middle" x="2079.5" y="-126" font-family="Helvetica,sans-Serif" font-size="10.00">_scope</text>
</a>
</g>
</g>
<!-- Node1&#45;&gt;Node34 -->
<g id="edge50" class="edge">
<title>Node1&#45;&gt;Node34</title>
<path fill="none" stroke="midnightblue" d="M3167.25,-73.99C3100.57,-46.78 2968.9,0 2852,0 2852,0 2852,0 2433.5,0 2300.76,0 2157.14,-83.84 2102.92,-118.89"/>
<polygon fill="midnightblue" stroke="midnightblue" points="3166.03,-77.27 3176.61,-77.85 3168.7,-70.8 3166.03,-77.27"/>
</g>
<!-- Node3 -->
<g id="node3" class="node">
<title>Node3</title>
<g id="a_node3"><a xlink:href="../../da/de3/a01398.html#ab5f56822b1234ac422a988a689632a42" target="_top" xlink:title="Parse a factor, a leaf grammar token fact = num // number fact = &quot;string&quot; // string fact = (stmts) //...">
<polygon fill="none" stroke="black" points="1840,-191.5 1840,-210.5 1970,-210.5 1970,-191.5 1840,-191.5"/>
<text text-anchor="middle" x="1905" y="-198.5" font-family="Helvetica,sans-Serif" font-size="10.00">com.cliffc.aa.Parse.fact</text>
</a>
</g>
</g>
<!-- Node2&#45;&gt;Node3 -->
<g id="edge2" class="edge">
<title>Node2&#45;&gt;Node3</title>
<path fill="none" stroke="midnightblue" d="M2964.73,-186C2883.51,-186 2751.18,-186 2637,-186 2637,-186 2637,-186 2254.5,-186 2155.18,-186 2040.09,-192.16 1970.2,-196.58"/>
<polygon fill="midnightblue" stroke="midnightblue" points="2964.87,-189.5 2974.87,-186 2964.87,-182.5 2964.87,-189.5"/>
</g>
<!-- Node15 -->
<g id="node15" class="node">
<title>Node15</title>
<g id="a_node15"><a xlink:href="../../da/de3/a01398.html#a82a2e60ef3169d3c09f4d66cff677100" target="_top" xlink:title=" ">
<polygon fill="none" stroke="black" points="2779.5,-252.5 2779.5,-271.5 2922.5,-271.5 2922.5,-252.5 2779.5,-252.5"/>
<text text-anchor="middle" x="2851" y="-259.5" font-family="Helvetica,sans-Serif" font-size="10.00">com.cliffc.aa.Parse.lookup</text>
</a>
</g>
</g>
<!-- Node2&#45;&gt;Node15 -->
<g id="edge20" class="edge">
<title>Node2&#45;&gt;Node15</title>
<path fill="none" stroke="midnightblue" d="M3015.99,-200.56C2995.73,-211.9 2966.19,-227.44 2939,-238 2924.39,-243.67 2907.92,-248.57 2893.27,-252.44"/>
<polygon fill="midnightblue" stroke="midnightblue" points="3017.89,-203.5 3024.87,-195.52 3014.44,-197.41 3017.89,-203.5"/>
</g>
<!-- Node22 -->
<g id="node22" class="node">
<title>Node22</title>
<g id="a_node22"><a xlink:href="../../d7/d08/a00378.html#af4bc5ac4070d80816f02ed287b24817e" target="_top" xlink:title=" ">
<polygon fill="none" stroke="black" points="1838,-286 1838,-316 1972,-316 1972,-286 1838,-286"/>
<text text-anchor="start" x="1846" y="-304" font-family="Helvetica,sans-Serif" font-size="10.00">com.cliffc.aa.Env.lookup</text>
<text text-anchor="middle" x="1905" y="-293" font-family="Helvetica,sans-Serif" font-size="10.00">_filter_fresh</text>
</a>
</g>
</g>
<!-- Node2&#45;&gt;Node22 -->
<g id="edge33" class="edge">
<title>Node2&#45;&gt;Node22</title>
<path fill="none" stroke="midnightblue" d="M2968.48,-196.95C2887.77,-208.18 2753.37,-224 2637,-224 2637,-224 2637,-224 2254.5,-224 2144.62,-224 2113.07,-210.85 2008,-243 1977.42,-252.36 1945.98,-272.05 1926.24,-285.89"/>
<polygon fill="midnightblue" stroke="midnightblue" points="2969.12,-200.4 2978.54,-195.54 2968.15,-193.47 2969.12,-200.4"/>
</g>
<!-- Node25 -->
<g id="node25" class="node">
<title>Node25</title>
<g id="a_node25"><a xlink:href="../../d7/d08/a00378.html#aacf996235106d218ee532807579af5f0" target="_top" xlink:title=" ">
<polygon fill="none" stroke="black" points="2784,-127 2784,-157 2918,-157 2918,-127 2784,-127"/>
<text text-anchor="start" x="2792" y="-145" font-family="Helvetica,sans-Serif" font-size="10.00">com.cliffc.aa.Env.lookup</text>
<text text-anchor="middle" x="2851" y="-134" font-family="Helvetica,sans-Serif" font-size="10.00">_valtype</text>
</a>
</g>
</g>
<!-- Node2&#45;&gt;Node25 -->
<g id="edge40" class="edge">
<title>Node2&#45;&gt;Node25</title>
<path fill="none" stroke="midnightblue" d="M2989.95,-174.12C2967.41,-168.87 2940.64,-162.64 2916.71,-157.07"/>
<polygon fill="midnightblue" stroke="midnightblue" points="2989.46,-177.59 2999.99,-176.45 2991.04,-170.78 2989.46,-177.59"/>
</g>
<!-- Node29 -->
<g id="node29" class="node">
<title>Node29</title>
<g id="a_node29"><a xlink:href="../../d4/d8e/a01694.html#a748f31e379da5dfc94d28eafe1e5f18d" target="_top" xlink:title="Validate monotonicity of CallNode.resolve().">
<polygon fill="none" stroke="black" points="2774,-78 2774,-108 2928,-108 2928,-78 2774,-78"/>
<text text-anchor="start" x="2782" y="-96" font-family="Helvetica,sans-Serif" font-size="10.00">com.cliffc.aa.node.TestNode</text>
<text text-anchor="middle" x="2851" y="-85" font-family="Helvetica,sans-Serif" font-size="10.00">Small.testCallNodeResolve</text>
</a>
</g>
</g>
<!-- Node2&#45;&gt;Node29 -->
<g id="edge44" class="edge">
<title>Node2&#45;&gt;Node29</title>
<path fill="none" stroke="midnightblue" d="M3021.61,-170.04C3001.91,-154.52 2969.95,-131.27 2939,-117 2931.74,-113.65 2923.92,-110.69 2916.06,-108.09"/>
<polygon fill="midnightblue" stroke="midnightblue" points="3019.52,-172.85 3029.52,-176.36 3023.9,-167.38 3019.52,-172.85"/>
</g>
<!-- Node30 -->
<g id="node30" class="node">
<title>Node30</title>
<g id="a_node30"><a xlink:href="../../d4/d8e/a01694.html#a5348bc687a77cb15570f88cd5a12dabe" target="_top" xlink:title=" ">
<polygon fill="none" stroke="black" points="2773.5,-29 2773.5,-59 2928.5,-59 2928.5,-29 2773.5,-29"/>
<text text-anchor="start" x="2781.5" y="-47" font-family="Helvetica,sans-Serif" font-size="10.00">com.cliffc.aa.node.TestNode</text>
<text text-anchor="middle" x="2851" y="-36" font-family="Helvetica,sans-Serif" font-size="10.00">Small.testCallNodeResolve2</text>
</a>
</g>
</g>
<!-- Node2&#45;&gt;Node30 -->
<g id="edge45" class="edge">
<title>Node2&#45;&gt;Node30</title>
<path fill="none" stroke="midnightblue" d="M3030.24,-167.82C3013.86,-141.75 2980.18,-94.03 2939,-68 2933.57,-64.57 2927.65,-61.62 2921.53,-59.09"/>
<polygon fill="midnightblue" stroke="midnightblue" points="3027.26,-169.67 3035.47,-176.36 3033.23,-166.01 3027.26,-169.67"/>
</g>
<!-- Node31 -->
<g id="node31" class="node">
<title>Node31</title>
<g id="a_node31"><a xlink:href="../../d6/d01/a01690.html#a6e6a3a207140c4e96233e6539e82da33" target="_top" xlink:title=" ">
<polygon fill="none" stroke="black" points="2763,-351 2763,-381 2939,-381 2939,-351 2763,-351"/>
<text text-anchor="start" x="2771" y="-369" font-family="Helvetica,sans-Serif" font-size="10.00">com.cliffc.aa.node.TestNode.test</text>
<text text-anchor="middle" x="2851" y="-358" font-family="Helvetica,sans-Serif" font-size="10.00">Monotonic</text>
</a>
</g>
</g>
<!-- Node2&#45;&gt;Node31 -->
<g id="edge46" class="edge">
<title>Node2&#45;&gt;Node31</title>
<path fill="none" stroke="midnightblue" d="M3032.35,-204.63C3017.37,-235.03 2983.86,-295.45 2939,-331 2928.54,-339.29 2915.85,-345.86 2903.44,-350.96"/>
<polygon fill="midnightblue" stroke="midnightblue" points="3035.54,-206.08 3036.71,-195.55 3029.22,-203.05 3035.54,-206.08"/>
</g>
<!-- Node33 -->
<g id="node33" class="node">
<title>Node33</title>
<g id="a_node33"><a xlink:href="../../d4/d8e/a01694.html#a1e7f91ab9c5adec1b185cbe61d7d130b" target="_top" xlink:title=" ">
<polygon fill="none" stroke="black" points="2774,-291 2774,-321 2928,-321 2928,-291 2774,-291"/>
<text text-anchor="start" x="2782" y="-309" font-family="Helvetica,sans-Serif" font-size="10.00">com.cliffc.aa.node.TestNode</text>
<text text-anchor="middle" x="2851" y="-298" font-family="Helvetica,sans-Serif" font-size="10.00">Small.testUnresolvedAdd</text>
</a>
</g>
</g>
<!-- Node2&#45;&gt;Node33 -->
<g id="edge48" class="edge">
<title>Node2&#45;&gt;Node33</title>
<path fill="none" stroke="midnightblue" d="M3026.77,-203.58C3008.58,-224.92 2975.1,-260.58 2939,-281 2932.3,-284.79 2924.97,-288.05 2917.51,-290.83"/>
<polygon fill="midnightblue" stroke="midnightblue" points="3029.66,-205.57 3033.38,-195.65 3024.29,-201.09 3029.66,-205.57"/>
</g>
<!-- Node4 -->
<g id="node4" class="node">
<title>Node4</title>
<g id="a_node4"><a xlink:href="../../da/de3/a01398.html#a7056d9016c6762ee436ae04e04476d3b" target="_top" xlink:title="Parse an optionally typed factor tfact = fact[:type].">
<polygon fill="none" stroke="black" points="1657.5,-199.5 1657.5,-218.5 1791.5,-218.5 1791.5,-199.5 1657.5,-199.5"/>
<text text-anchor="middle" x="1724.5" y="-206.5" font-family="Helvetica,sans-Serif" font-size="10.00">com.cliffc.aa.Parse.tfact</text>
</a>
</g>
</g>
<!-- Node3&#45;&gt;Node4 -->
<g id="edge3" class="edge">
<title>Node3&#45;&gt;Node4</title>
<path fill="none" stroke="midnightblue" d="M1829.75,-204.33C1817.07,-204.9 1803.97,-205.48 1791.52,-206.04"/>
<polygon fill="midnightblue" stroke="midnightblue" points="1829.98,-207.82 1839.81,-203.88 1829.66,-200.83 1829.98,-207.82"/>
</g>
<!-- Node5 -->
<g id="node5" class="node">
<title>Node5</title>
<g id="a_node5"><a xlink:href="../../da/de3/a01398.html#ab502dae0cf2cae3c0ade2422e579fce2" target="_top" xlink:title="Any number field&#45;lookups or function applications, then an optional assignment term = id++ | id– term...">
<polygon fill="none" stroke="black" points="1477,-218.5 1477,-237.5 1611,-237.5 1611,-218.5 1477,-218.5"/>
<text text-anchor="middle" x="1544" y="-225.5" font-family="Helvetica,sans-Serif" font-size="10.00">com.cliffc.aa.Parse.term</text>
</a>
</g>
</g>
<!-- Node4&#45;&gt;Node5 -->
<g id="edge4" class="edge">
<title>Node4&#45;&gt;Node5</title>
<path fill="none" stroke="midnightblue" d="M1647.27,-217.11C1635.24,-218.39 1622.88,-219.71 1611.11,-220.96"/>
<polygon fill="midnightblue" stroke="midnightblue" points="1647.71,-220.59 1657.29,-216.05 1646.97,-213.63 1647.71,-220.59"/>
</g>
<!-- Node6 -->
<g id="node6" class="node">
<title>Node6</title>
<g id="a_node6"><a xlink:href="../../da/de3/a01398.html#a6397933ff168ada64e7209d9c82122de" target="_top" xlink:title=" ">
<polygon fill="none" stroke="black" points="1330,-235 1330,-265 1441,-265 1441,-235 1330,-235"/>
<text text-anchor="start" x="1338" y="-253" font-family="Helvetica,sans-Serif" font-size="10.00">com.cliffc.aa.Parse.</text>
<text text-anchor="middle" x="1385.5" y="-242" font-family="Helvetica,sans-Serif" font-size="10.00">_expr_higher</text>
</a>
</g>
</g>
<!-- Node5&#45;&gt;Node6 -->
<g id="edge5" class="edge">
<title>Node5&#45;&gt;Node6</title>
<path fill="none" stroke="midnightblue" d="M1466.59,-238.74C1458,-239.95 1449.38,-241.16 1441.14,-242.32"/>
<polygon fill="midnightblue" stroke="midnightblue" points="1467.21,-242.19 1476.63,-237.33 1466.24,-235.26 1467.21,-242.19"/>
</g>
<!-- Node7 -->
<g id="node7" class="node">
<title>Node7</title>
<g id="a_node7"><a xlink:href="../../da/de3/a01398.html#ac81c4d62901080f0883b0e984f7f0062" target="_top" xlink:title=" ">
<polygon fill="none" stroke="black" points="854,-266.5 854,-285.5 992,-285.5 992,-266.5 854,-266.5"/>
<text text-anchor="middle" x="923" y="-273.5" font-family="Helvetica,sans-Serif" font-size="10.00">com.cliffc.aa.Parse._expr</text>
</a>
</g>
</g>
<!-- Node6&#45;&gt;Node7 -->
<g id="edge6" class="edge">
<title>Node6&#45;&gt;Node7</title>
<path fill="none" stroke="midnightblue" d="M1319.64,-248.79C1233,-251.21 1080.21,-259.8 992,-267.2"/>
<polygon fill="midnightblue" stroke="midnightblue" points="1319.96,-252.29 1329.87,-248.53 1319.78,-245.29 1319.96,-252.29"/>
</g>
<!-- Node13 -->
<g id="node13" class="node">
<title>Node13</title>
<g id="a_node13"><a xlink:href="../../da/de3/a01398.html#a58b0dba4e9b60d9e9639eea530b6077b" target="_top" xlink:title=" ">
<polygon fill="none" stroke="black" points="1175,-208 1175,-238 1294,-238 1294,-208 1175,-208"/>
<text text-anchor="start" x="1183" y="-226" font-family="Helvetica,sans-Serif" font-size="10.00">com.cliffc.aa.Parse.</text>
<text text-anchor="middle" x="1234.5" y="-215" font-family="Helvetica,sans-Serif" font-size="10.00">_expr_higher_require</text>
</a>
</g>
</g>
<!-- Node6&#45;&gt;Node13 -->
<g id="edge16" class="edge">
<title>Node6&#45;&gt;Node13</title>
<path fill="none" stroke="midnightblue" d="M1319.92,-238.3C1311.35,-236.74 1302.6,-235.16 1294.14,-233.63"/>
<polygon fill="midnightblue" stroke="midnightblue" points="1319.4,-241.76 1329.86,-240.1 1320.65,-234.87 1319.4,-241.76"/>
</g>
<!-- Node7&#45;&gt;Node6 -->
<g id="edge7" class="edge">
<title>Node7&#45;&gt;Node6</title>
<path fill="none" stroke="midnightblue" d="M1002.22,-276.8C1095.38,-273.79 1248.57,-264.91 1329.87,-257.64"/>
<polygon fill="midnightblue" stroke="midnightblue" points="1001.89,-273.31 992,-277.12 1002.11,-280.31 1001.89,-273.31"/>
</g>
<!-- Node8 -->
<g id="node8" class="node">
<title>Node8</title>
<g id="a_node8"><a xlink:href="../../da/de3/a01398.html#af41d3ed90c69faf4279701b6aa98bd3a" target="_top" xlink:title="Parse an expression, a series of terms separated by binary operators.">
<polygon fill="none" stroke="black" points="685,-266.5 685,-285.5 818,-285.5 818,-266.5 685,-266.5"/>
<text text-anchor="middle" x="751.5" y="-273.5" font-family="Helvetica,sans-Serif" font-size="10.00">com.cliffc.aa.Parse.expr</text>
</a>
</g>
</g>
<!-- Node7&#45;&gt;Node8 -->
<g id="edge8" class="edge">
<title>Node7&#45;&gt;Node8</title>
<path fill="none" stroke="midnightblue" d="M843.34,-276C834.93,-276 826.43,-276 818.19,-276"/>
<polygon fill="midnightblue" stroke="midnightblue" points="843.55,-279.5 853.55,-276 843.55,-272.5 843.55,-279.5"/>
</g>
<!-- Node9 -->
<g id="node9" class="node">
<title>Node9</title>
<g id="a_node9"><a xlink:href="../../da/de3/a01398.html#a6e92b63110e4ed2e5bf7533656730f3f" target="_top" xlink:title="Parse a lisp&#45;like function application.">
<polygon fill="none" stroke="black" points="511,-285.5 511,-304.5 649,-304.5 649,-285.5 511,-285.5"/>
<text text-anchor="middle" x="580" y="-292.5" font-family="Helvetica,sans-Serif" font-size="10.00">com.cliffc.aa.Parse.apply</text>
</a>
</g>
</g>
<!-- Node8&#45;&gt;Node9 -->
<g id="edge9" class="edge">
<title>Node8&#45;&gt;Node9</title>
<path fill="none" stroke="midnightblue" d="M674.96,-284.47C666.37,-285.43 657.65,-286.41 649.16,-287.36"/>
<polygon fill="midnightblue" stroke="midnightblue" points="675.42,-287.94 684.97,-283.35 674.64,-280.98 675.42,-287.94"/>
</g>
<!-- Node10 -->
<g id="node10" class="node">
<title>Node10</title>
<g id="a_node10"><a xlink:href="../../da/de3/a01398.html#a5e1b4411da5e7400c4fc45d4b3dbd795" target="_top" xlink:title="Parse an if&#45;expression, with lazy eval on the branches.">
<polygon fill="none" stroke="black" points="345,-266.5 345,-285.5 475,-285.5 475,-266.5 345,-266.5"/>
<text text-anchor="middle" x="410" y="-273.5" font-family="Helvetica,sans-Serif" font-size="10.00">com.cliffc.aa.Parse.ifex</text>
</a>
</g>
</g>
<!-- Node8&#45;&gt;Node10 -->
<g id="edge15" class="edge">
<title>Node8&#45;&gt;Node10</title>
<path fill="none" stroke="midnightblue" d="M674.47,-276C614.54,-276 531.9,-276 475.24,-276"/>
<polygon fill="midnightblue" stroke="midnightblue" points="674.64,-279.5 684.64,-276 674.64,-272.5 674.64,-279.5"/>
</g>
<!-- Node9&#45;&gt;Node10 -->
<g id="edge10" class="edge">
<title>Node9&#45;&gt;Node10</title>
<path fill="none" stroke="midnightblue" d="M500.7,-286.14C492.16,-285.18 483.54,-284.2 475.2,-283.26"/>
<polygon fill="midnightblue" stroke="midnightblue" points="500.34,-289.63 510.67,-287.27 501.12,-282.67 500.34,-289.63"/>
</g>
<!-- Node11 -->
<g id="node11" class="node">
<title>Node11</title>
<g id="a_node11"><a xlink:href="../../da/de3/a01398.html#a2a5934e98ffa96d31e2135ab66c7e796" target="_top" xlink:title="A statement is a list of variables to final&#45;assign or re&#45;assign, and an ifex for the value.">
<polygon fill="none" stroke="black" points="175,-266.5 175,-285.5 309,-285.5 309,-266.5 175,-266.5"/>
<text text-anchor="middle" x="242" y="-273.5" font-family="Helvetica,sans-Serif" font-size="10.00">com.cliffc.aa.Parse.stmt</text>
</a>
</g>
</g>
<!-- Node10&#45;&gt;Node11 -->
<g id="edge11" class="edge">
<title>Node10&#45;&gt;Node11</title>
<path fill="none" stroke="midnightblue" d="M334.59,-269.28C326.13,-269.22 317.55,-269.25 309.2,-269.37"/>
<polygon fill="midnightblue" stroke="midnightblue" points="334.78,-272.78 344.82,-269.41 334.86,-265.79 334.78,-272.78"/>
</g>
<!-- Node11&#45;&gt;Node5 -->
<g id="edge14" class="edge">
<title>Node11&#45;&gt;Node5</title>
<path fill="none" stroke="midnightblue" d="M264.69,-260.45C316.39,-224.95 452.09,-141 579,-141 1235.5,-141 1235.5,-141 1235.5,-141 1348.13,-141 1475.49,-195.71 1523.4,-218.36"/>
<polygon fill="midnightblue" stroke="midnightblue" points="262.51,-257.7 256.3,-266.29 266.51,-263.45 262.51,-257.7"/>
</g>
<!-- Node11&#45;&gt;Node10 -->
<g id="edge12" class="edge">
<title>Node11&#45;&gt;Node10</title>
<path fill="none" stroke="midnightblue" d="M319.47,-282.73C327.95,-282.78 336.52,-282.73 344.82,-282.59"/>
<polygon fill="midnightblue" stroke="midnightblue" points="319.24,-279.23 309.2,-282.63 319.17,-286.23 319.24,-279.23"/>
</g>
<!-- Node12 -->
<g id="node12" class="node">
<title>Node12</title>
<g id="a_node12"><a xlink:href="../../da/de3/a01398.html#adf95c17fe0de5cfff574ee89b78f0d37" target="_top" xlink:title=" ">
<polygon fill="none" stroke="black" points="0,-308.5 0,-327.5 139,-327.5 139,-308.5 0,-308.5"/>
<text text-anchor="middle" x="69.5" y="-315.5" font-family="Helvetica,sans-Serif" font-size="10.00">com.cliffc.aa.Parse.stmts</text>
</a>
</g>
</g>
<!-- Node11&#45;&gt;Node12 -->
<g id="edge13" class="edge">
<title>Node11&#45;&gt;Node12</title>
<path fill="none" stroke="midnightblue" d="M192.52,-287.94C166.17,-294.43 134.01,-302.35 109.33,-308.43"/>
<polygon fill="midnightblue" stroke="midnightblue" points="193.44,-291.32 202.31,-285.53 191.76,-284.52 193.44,-291.32"/>
</g>
<!-- Node13&#45;&gt;Node7 -->
<g id="edge17" class="edge">
<title>Node13&#45;&gt;Node7</title>
<path fill="none" stroke="midnightblue" d="M1182.09,-205.04C1139.76,-193.05 1078.69,-182.28 1028,-199 987.25,-212.44 949.41,-248.69 932.83,-266.23"/>
<polygon fill="midnightblue" stroke="midnightblue" points="1181.32,-208.46 1191.9,-207.93 1183.3,-201.74 1181.32,-208.46"/>
</g>
<!-- Node14 -->
<g id="node14" class="node">
<title>Node14</title>
<g id="a_node14"><a xlink:href="../../da/de3/a01398.html#ade4bf32252a86275a1ec393dea94ed6f" target="_top" xlink:title=" ">
<polygon fill="none" stroke="black" points="1028,-208 1028,-238 1139,-238 1139,-208 1028,-208"/>
<text text-anchor="start" x="1036" y="-226" font-family="Helvetica,sans-Serif" font-size="10.00">com.cliffc.aa.Parse.</text>
<text text-anchor="middle" x="1083.5" y="-215" font-family="Helvetica,sans-Serif" font-size="10.00">_short_circuit_expr</text>
</a>
</g>
</g>
<!-- Node13&#45;&gt;Node14 -->
<g id="edge18" class="edge">
<title>Node13&#45;&gt;Node14</title>
<path fill="none" stroke="midnightblue" d="M1164.35,-223C1155.87,-223 1147.3,-223 1139.08,-223"/>
<polygon fill="midnightblue" stroke="midnightblue" points="1164.61,-226.5 1174.61,-223 1164.61,-219.5 1164.61,-226.5"/>
</g>
<!-- Node14&#45;&gt;Node7 -->
<g id="edge19" class="edge">
<title>Node14&#45;&gt;Node7</title>
<path fill="none" stroke="midnightblue" d="M1028,-241.22C1002.67,-249.7 973.58,-259.42 952.62,-266.43"/>
<polygon fill="midnightblue" stroke="midnightblue" points="1029.13,-244.54 1037.5,-238.05 1026.91,-237.9 1029.13,-244.54"/>
</g>
<!-- Node16 -->
<g id="node16" class="node">
<title>Node16</title>
<g id="a_node16"><a xlink:href="../../da/de3/a01398.html#a7de58cb94e034d32c45310fa8d87f292" target="_top" xlink:title="A type&#45;statement assigns a type to a type variable.">
<polygon fill="none" stroke="black" points="2187,-328.5 2187,-347.5 2324,-347.5 2324,-328.5 2187,-328.5"/>
<text text-anchor="middle" x="2255.5" y="-335.5" font-family="Helvetica,sans-Serif" font-size="10.00">com.cliffc.aa.Parse.tstmt</text>
</a>
</g>
</g>
<!-- Node15&#45;&gt;Node16 -->
<g id="edge21" class="edge">
<title>Node15&#45;&gt;Node16</title>
<path fill="none" stroke="midnightblue" d="M2791.59,-273.42C2723.86,-286.27 2608.75,-306.93 2509,-319 2446.59,-326.55 2375.12,-331.59 2324.18,-334.57"/>
<polygon fill="midnightblue" stroke="midnightblue" points="2792.47,-276.82 2801.64,-271.5 2791.16,-269.94 2792.47,-276.82"/>
</g>
<!-- Node17 -->
<g id="node17" class="node">
<title>Node17</title>
<g id="a_node17"><a xlink:href="../../da/de3/a01398.html#a05da96b3f1e33d3e36188d5c72b8188b" target="_top" xlink:title=" ">
<polygon fill="none" stroke="black" points="2566.5,-252.5 2566.5,-271.5 2705.5,-271.5 2705.5,-252.5 2566.5,-252.5"/>
<text text-anchor="middle" x="2636" y="-259.5" font-family="Helvetica,sans-Serif" font-size="10.00">com.cliffc.aa.Parse.type0</text>
</a>
</g>
</g>
<!-- Node15&#45;&gt;Node17 -->
<g id="edge23" class="edge">
<title>Node15&#45;&gt;Node17</title>
<path fill="none" stroke="midnightblue" d="M2769.21,-262C2748.26,-262 2725.89,-262 2705.63,-262"/>
<polygon fill="midnightblue" stroke="midnightblue" points="2769.37,-265.5 2779.37,-262 2769.37,-258.5 2769.37,-265.5"/>
</g>
<!-- Node16&#45;&gt;Node12 -->
<g id="edge22" class="edge">
<title>Node16&#45;&gt;Node12</title>
<path fill="none" stroke="midnightblue" d="M2212.27,-350.27C2147.13,-368.08 2017.94,-399 1906,-399 1906,-399 1906,-399 409,-399 287.54,-399 148.14,-349.07 93.84,-327.61"/>
<polygon fill="midnightblue" stroke="midnightblue" points="2213.46,-353.57 2222.16,-347.53 2211.59,-346.83 2213.46,-353.57"/>
</g>
<!-- Node18 -->
<g id="node18" class="node">
<title>Node18</title>
<g id="a_node18"><a xlink:href="../../da/de3/a01398.html#ace0a1f607b158a24dd773c993fe69507" target="_top" xlink:title=" ">
<polygon fill="none" stroke="black" points="2365,-252.5 2365,-271.5 2504,-271.5 2504,-252.5 2365,-252.5"/>
<text text-anchor="middle" x="2434.5" y="-259.5" font-family="Helvetica,sans-Serif" font-size="10.00">com.cliffc.aa.Parse.typep</text>
</a>
</g>
</g>
<!-- Node17&#45;&gt;Node18 -->
<g id="edge24" class="edge">
<title>Node17&#45;&gt;Node18</title>
<path fill="none" stroke="midnightblue" d="M2556.33,-255.39C2539.14,-255.16 2521.06,-255.22 2504.28,-255.55"/>
<polygon fill="midnightblue" stroke="midnightblue" points="2556.29,-258.89 2566.34,-255.55 2556.4,-251.89 2556.29,-258.89"/>
</g>
<!-- Node21 -->
<g id="node21" class="node">
<title>Node21</title>
<g id="a_node21"><a xlink:href="../../da/de3/a01398.html#a1866c72f20e94e052d38e838d3205ba7" target="_top" xlink:title=" ">
<polygon fill="none" stroke="black" points="2365,-290.5 2365,-309.5 2504,-309.5 2504,-290.5 2365,-290.5"/>
<text text-anchor="middle" x="2434.5" y="-297.5" font-family="Helvetica,sans-Serif" font-size="10.00">com.cliffc.aa.Parse.typev</text>
</a>
</g>
</g>
<!-- Node17&#45;&gt;Node21 -->
<g id="edge31" class="edge">
<title>Node17&#45;&gt;Node21</title>
<path fill="none" stroke="midnightblue" d="M2575.05,-273.42C2546.51,-278.86 2512.76,-285.28 2485.61,-290.46"/>
<polygon fill="midnightblue" stroke="midnightblue" points="2575.75,-276.85 2584.92,-271.54 2574.44,-269.97 2575.75,-276.85"/>
</g>
<!-- Node18&#45;&gt;Node17 -->
<g id="edge30" class="edge">
<title>Node18&#45;&gt;Node17</title>
<path fill="none" stroke="midnightblue" d="M2514.3,-268.62C2531.5,-268.84 2549.57,-268.78 2566.34,-268.45"/>
<polygon fill="midnightblue" stroke="midnightblue" points="2514.34,-265.12 2504.28,-268.45 2514.22,-272.12 2514.34,-265.12"/>
</g>
<!-- Node19 -->
<g id="node19" class="node">
<title>Node19</title>
<g id="a_node19"><a xlink:href="../../da/de3/a01398.html#a585d40edf74658ce6fbab8af8bb9c904" target="_top" xlink:title="Parse a type or return null type = tcon | tfun | tary | tstruct | ttuple | tvar // Type choices tcon ...">
<polygon fill="none" stroke="black" points="2189,-271.5 2189,-290.5 2322,-290.5 2322,-271.5 2189,-271.5"/>
<text text-anchor="middle" x="2255.5" y="-278.5" font-family="Helvetica,sans-Serif" font-size="10.00">com.cliffc.aa.Parse.type</text>
</a>
</g>
</g>
<!-- Node18&#45;&gt;Node19 -->
<g id="edge25" class="edge">
<title>Node18&#45;&gt;Node19</title>
<path fill="none" stroke="midnightblue" d="M2354.55,-270.48C2343.75,-271.63 2332.77,-272.81 2322.24,-273.94"/>
<polygon fill="midnightblue" stroke="midnightblue" points="2355.24,-273.92 2364.81,-269.37 2354.5,-266.96 2355.24,-273.92"/>
</g>
<!-- Node19&#45;&gt;Node4 -->
<g id="edge29" class="edge">
<title>Node19&#45;&gt;Node4</title>
<path fill="none" stroke="midnightblue" d="M2178.65,-285.86C2129.74,-287.8 2064.89,-288.14 2008,-281 1912.58,-269.03 1803.19,-235.17 1753.12,-218.5"/>
<polygon fill="midnightblue" stroke="midnightblue" points="2178.99,-289.35 2188.83,-285.43 2178.69,-282.36 2178.99,-289.35"/>
</g>
<!-- Node19&#45;&gt;Node11 -->
<g id="edge28" class="edge">
<title>Node19&#45;&gt;Node11</title>
<path fill="none" stroke="midnightblue" d="M2220.4,-294.24C2158.68,-316.97 2023.9,-361 1906,-361 1906,-361 1906,-361 579,-361 457.15,-361 317.83,-307.82 264.93,-285.59"/>
<polygon fill="midnightblue" stroke="midnightblue" points="2221.87,-297.42 2230.01,-290.65 2219.42,-290.87 2221.87,-297.42"/>
</g>
<!-- Node20 -->
<g id="node20" class="node">
<title>Node20</title>
<g id="a_node20"><a xlink:href="../../da/de3/a01398.html#aba7aed0aa9ad4c8e1ad1246b19f6e073" target="_top" xlink:title=" ">
<polygon fill="none" stroke="black" points="2013.5,-252.5 2013.5,-271.5 2145.5,-271.5 2145.5,-252.5 2013.5,-252.5"/>
<text text-anchor="middle" x="2079.5" y="-259.5" font-family="Helvetica,sans-Serif" font-size="10.00">com.cliffc.aa.Parse.func</text>
</a>
</g>
</g>
<!-- Node19&#45;&gt;Node20 -->
<g id="edge26" class="edge">
<title>Node19&#45;&gt;Node20</title>
<path fill="none" stroke="midnightblue" d="M2178.66,-272.72C2167.61,-271.51 2156.32,-270.28 2145.51,-269.1"/>
<polygon fill="midnightblue" stroke="midnightblue" points="2178.4,-276.21 2188.72,-273.82 2179.16,-269.25 2178.4,-276.21"/>
</g>
<!-- Node20&#45;&gt;Node3 -->
<g id="edge27" class="edge">
<title>Node20&#45;&gt;Node3</title>
<path fill="none" stroke="midnightblue" d="M2041.93,-249.07C2009.33,-237.54 1962.37,-220.93 1933.05,-210.56"/>
<polygon fill="midnightblue" stroke="midnightblue" points="2040.95,-252.43 2051.55,-252.47 2043.29,-245.84 2040.95,-252.43"/>
</g>
<!-- Node21&#45;&gt;Node16 -->
<g id="edge32" class="edge">
<title>Node21&#45;&gt;Node16</title>
<path fill="none" stroke="midnightblue" d="M2378.76,-311.75C2353.73,-317.13 2324.47,-323.41 2300.84,-328.48"/>
<polygon fill="midnightblue" stroke="midnightblue" points="2379.79,-315.11 2388.84,-309.59 2378.32,-308.27 2379.79,-315.11"/>
</g>
<!-- Node22&#45;&gt;Node5 -->
<g id="edge39" class="edge">
<title>Node22&#45;&gt;Node5</title>
<path fill="none" stroke="midnightblue" d="M1855.67,-282.38C1838.88,-276.46 1819.79,-270.33 1802,-266 1738.02,-250.43 1663.42,-240.26 1611.13,-234.4"/>
<polygon fill="midnightblue" stroke="midnightblue" points="1854.67,-285.74 1865.27,-285.83 1857.04,-279.15 1854.67,-285.74"/>
</g>
<!-- Node22&#45;&gt;Node7 -->
<g id="edge34" class="edge">
<title>Node22&#45;&gt;Node7</title>
<path fill="none" stroke="midnightblue" d="M1827.93,-308.37C1755.32,-314.76 1642.81,-323 1545,-323 1545,-323 1545,-323 1233.5,-323 1134.59,-323 1019.88,-299.24 961.84,-285.51"/>
<polygon fill="midnightblue" stroke="midnightblue" points="1828.26,-311.86 1837.91,-307.48 1827.64,-304.88 1828.26,-311.86"/>
</g>
<!-- Node23 -->
<g id="node23" class="node">
<title>Node23</title>
<g id="a_node23"><a xlink:href="../../da/de3/a01398.html#a4092ce9560331b1ca5975ee8123a3a00" target="_top" xlink:title=" ">
<polygon fill="none" stroke="black" points="1647,-275.5 1647,-294.5 1802,-294.5 1802,-275.5 1647,-275.5"/>
<text text-anchor="middle" x="1724.5" y="-282.5" font-family="Helvetica,sans-Serif" font-size="10.00">com.cliffc.aa.Parse.bal_open</text>
</a>
</g>
</g>
<!-- Node22&#45;&gt;Node23 -->
<g id="edge35" class="edge">
<title>Node22&#45;&gt;Node23</title>
<path fill="none" stroke="midnightblue" d="M1827.6,-294.15C1819.17,-293.4 1810.58,-292.63 1802.15,-291.87"/>
<polygon fill="midnightblue" stroke="midnightblue" points="1827.51,-297.66 1837.79,-295.06 1828.14,-290.69 1827.51,-297.66"/>
</g>
<!-- Node24 -->
<g id="node24" class="node">
<title>Node24</title>
<g id="a_node24"><a xlink:href="../../da/de3/a01398.html#ac627d3aaaed60f3d4a68bc4431dba21e" target="_top" xlink:title=" ">
<polygon fill="none" stroke="black" points="1662,-161.5 1662,-180.5 1787,-180.5 1787,-161.5 1662,-161.5"/>
<text text-anchor="middle" x="1724.5" y="-168.5" font-family="Helvetica,sans-Serif" font-size="10.00">com.cliffc.aa.Parse.inc</text>
</a>
</g>
</g>
<!-- Node22&#45;&gt;Node24 -->
<g id="edge37" class="edge">
<title>Node22&#45;&gt;Node24</title>
<path fill="none" stroke="midnightblue" d="M1885.27,-277.63C1861.59,-248.64 1821.56,-201.61 1802,-190 1795.41,-186.09 1788.04,-182.98 1780.55,-180.51"/>
<polygon fill="midnightblue" stroke="midnightblue" points="1882.75,-280.07 1891.77,-285.63 1888.18,-275.66 1882.75,-280.07"/>
</g>
<!-- Node23&#45;&gt;Node5 -->
<g id="edge36" class="edge">
<title>Node23&#45;&gt;Node5</title>
<path fill="none" stroke="midnightblue" d="M1683.4,-272.49C1671.66,-268.81 1658.81,-264.76 1647,-261 1622.53,-253.2 1594.8,-244.22 1574.44,-237.6"/>
<polygon fill="midnightblue" stroke="midnightblue" points="1682.37,-275.84 1692.96,-275.49 1684.46,-269.16 1682.37,-275.84"/>
</g>
<!-- Node24&#45;&gt;Node5 -->
<g id="edge38" class="edge">
<title>Node24&#45;&gt;Node5</title>
<path fill="none" stroke="midnightblue" d="M1671.88,-182.97C1663.52,-185.16 1654.99,-187.53 1647,-190 1619.56,-198.49 1588.75,-210.29 1568.24,-218.48"/>
<polygon fill="midnightblue" stroke="midnightblue" points="1672.75,-186.36 1681.58,-180.51 1671.02,-179.58 1672.75,-186.36"/>
</g>
<!-- Node26 -->
<g id="node26" class="node">
<title>Node26</title>
<g id="a_node26"><a xlink:href="../../d6/d9a/a01710.html#ab9a19ad3701efef9c75e1b13332c2ce6" target="_top" xlink:title=" ">
<polygon fill="none" stroke="black" points="2547.5,-132.5 2547.5,-151.5 2724.5,-151.5 2724.5,-132.5 2547.5,-132.5"/>
<text text-anchor="middle" x="2636" y="-139.5" font-family="Helvetica,sans-Serif" font-size="10.00">com.cliffc.aa.TestParse.test_prim</text>
</a>
</g>
</g>
<!-- Node25&#45;&gt;Node26 -->
<g id="edge41" class="edge">
<title>Node25&#45;&gt;Node26</title>
<path fill="none" stroke="midnightblue" d="M2773.53,-142C2757.71,-142 2740.92,-142 2724.73,-142"/>
<polygon fill="midnightblue" stroke="midnightblue" points="2773.77,-145.5 2783.77,-142 2773.77,-138.5 2773.77,-145.5"/>
</g>
<!-- Node27 -->
<g id="node27" class="node">
<title>Node27</title>
<g id="a_node27"><a xlink:href="../../d6/d9a/a01710.html#a83d714a14e862caf17a719d4a266b5ff" target="_top" xlink:title=" ">
<polygon fill="none" stroke="black" points="2360,-127 2360,-157 2509,-157 2509,-127 2360,-127"/>
<text text-anchor="start" x="2368" y="-145" font-family="Helvetica,sans-Serif" font-size="10.00">com.cliffc.aa.TestParse.test</text>
<text text-anchor="middle" x="2434.5" y="-134" font-family="Helvetica,sans-Serif" font-size="10.00">Parse00</text>
</a>
</g>
</g>
<!-- Node26&#45;&gt;Node27 -->
<g id="edge42" class="edge">
<title>Node26&#45;&gt;Node27</title>
<path fill="none" stroke="midnightblue" d="M2537.28,-142C2527.83,-142 2518.37,-142 2509.22,-142"/>
<polygon fill="midnightblue" stroke="midnightblue" points="2537.5,-145.5 2547.5,-142 2537.5,-138.5 2537.5,-145.5"/>
</g>
<!-- Node28 -->
<g id="node28" class="node">
<title>Node28</title>
<g id="a_node28"><a xlink:href="../../d6/d9a/a01710.html#a8fdd95f9dcaaf0d8ace5d5ece4767af5" target="_top" xlink:title=" ">
<polygon fill="none" stroke="black" points="2360,-78 2360,-108 2509,-108 2509,-78 2360,-78"/>
<text text-anchor="start" x="2368" y="-96" font-family="Helvetica,sans-Serif" font-size="10.00">com.cliffc.aa.TestParse.test</text>
<text text-anchor="middle" x="2434.5" y="-85" font-family="Helvetica,sans-Serif" font-size="10.00">Parse15</text>
</a>
</g>
</g>
<!-- Node26&#45;&gt;Node28 -->
<g id="edge43" class="edge">
<title>Node26&#45;&gt;Node28</title>
<path fill="none" stroke="midnightblue" d="M2586.09,-129.99C2559.13,-123.36 2525.41,-115.08 2496.72,-108.04"/>
<polygon fill="midnightblue" stroke="midnightblue" points="2585.51,-133.45 2596.06,-132.44 2587.18,-126.65 2585.51,-133.45"/>
</g>
<!-- Node32 -->
<g id="node32" class="node">
<title>Node32</title>
<g id="a_node32"><a xlink:href="../../d6/d01/a01690.html#a7c3cda8a8bb1f4a81d205db0551e91d1" target="_top" xlink:title=" ">
<polygon fill="none" stroke="black" points="2545,-366.5 2545,-385.5 2727,-385.5 2727,-366.5 2545,-366.5"/>
<text text-anchor="middle" x="2636" y="-373.5" font-family="Helvetica,sans-Serif" font-size="10.00">com.cliffc.aa.node.TestNode.main</text>
</a>
</g>
</g>
<!-- Node31&#45;&gt;Node32 -->
<g id="edge47" class="edge">
<title>Node31&#45;&gt;Node32</title>
<path fill="none" stroke="midnightblue" d="M2752.52,-370.58C2744.09,-370.97 2735.59,-371.37 2727.22,-371.76"/>
<polygon fill="midnightblue" stroke="midnightblue" points="2752.93,-374.06 2762.75,-370.1 2752.6,-367.07 2752.93,-374.06"/>
</g>
<!-- Node34&#45;&gt;Node3 -->
<g id="edge51" class="edge">
<title>Node34&#45;&gt;Node3</title>
<path fill="none" stroke="midnightblue" d="M2030.45,-152.66C1997.95,-165.28 1956.39,-181.43 1930.47,-191.49"/>
<polygon fill="midnightblue" stroke="midnightblue" points="2031.73,-155.92 2039.79,-149.04 2029.2,-149.39 2031.73,-155.92"/>
</g>
<!-- Node34&#45;&gt;Node11 -->
<g id="edge53" class="edge">
<title>Node34&#45;&gt;Node11</title>
<path fill="none" stroke="midnightblue" d="M1997.39,-122.81C1925.96,-113.93 1819.03,-103 1725.5,-103 1725.5,-103 1725.5,-103 579,-103 472.56,-103 436.05,-98.86 345,-154 297.06,-183.03 261.01,-242.73 248.14,-266.21"/>
<polygon fill="midnightblue" stroke="midnightblue" points="1997.31,-126.33 2007.67,-124.11 1998.18,-119.38 1997.31,-126.33"/>
</g>
<!-- Node34&#45;&gt;Node24 -->
<g id="edge52" class="edge">
<title>Node34&#45;&gt;Node24</title>
<path fill="none" stroke="midnightblue" d="M1997.85,-142.45C1933.8,-149.17 1845.59,-158.41 1787.12,-164.54"/>
<polygon fill="midnightblue" stroke="midnightblue" points="1998.33,-145.92 2007.91,-141.4 1997.6,-138.96 1998.33,-145.92"/>
</g>
</g>
</svg>
        <g id="navigator" transform="translate(0 0)" fill="#404254">
                <rect fill="#f2f5e9" fill-opacity="0.5" stroke="#606060" stroke-width=".5" x="0" y="0" width="60" height="60"/>
                <use id="zoomplus" xlink:href="#zoomPlus" x="17" y="9" onmousedown="handleZoom(evt,'in')"/>
                <use id="zoomminus" xlink:href="#zoomMin" x="42" y="9" onmousedown="handleZoom(evt,'out')"/>
                <use id="reset" xlink:href="#resetDef" x="30" y="36" onmousedown="handleReset()"/>
                <g id="arrowUp" xlink:href="#dirArrow" transform="translate(30 24)" onmousedown="handlePan(0,-1)">
                  <use xlink:href="#rim" fill="#404040">
                        <set attributeName="fill" to="#808080" begin="arrowUp.mouseover" end="arrowUp.mouseout"/>
                  </use>
                  <path fill="none" stroke="white" stroke-width="1.5" d="M0,-3.0v7 M-2.5,-0.5L0,-3.0L2.5,-0.5"/>
                </g>
                <g id="arrowRight" xlink:href="#dirArrow" transform="rotate(90) translate(36 -43)" onmousedown="handlePan(1,0)">
                  <use xlink:href="#rim" fill="#404040">
                        <set attributeName="fill" to="#808080" begin="arrowRight.mouseover" end="arrowRight.mouseout"/>
                  </use>
                  <path fill="none" stroke="white" stroke-width="1.5" d="M0,-3.0v7 M-2.5,-0.5L0,-3.0L2.5,-0.5"/>
                </g>
                <g id="arrowDown" xlink:href="#dirArrow" transform="rotate(180) translate(-30 -48)" onmousedown="handlePan(0,1)">
                  <use xlink:href="#rim" fill="#404040">
                        <set attributeName="fill" to="#808080" begin="arrowDown.mouseover" end="arrowDown.mouseout"/>
                  </use>
                  <path fill="none" stroke="white" stroke-width="1.5" d="M0,-3.0v7 M-2.5,-0.5L0,-3.0L2.5,-0.5"/>
                </g>
                <g id="arrowLeft" xlink:href="#dirArrow" transform="rotate(270) translate(-36 17)" onmousedown="handlePan(-1,0)">
                  <use xlink:href="#rim" fill="#404040">
                        <set attributeName="fill" to="#808080" begin="arrowLeft.mouseover" end="arrowLeft.mouseout"/>
                  </use>
                  <path fill="none" stroke="white" stroke-width="1.5" d="M0,-3.0v7 M-2.5,-0.5L0,-3.0L2.5,-0.5"/>
                </g>
        </g>
        <svg viewBox="0 0 15 15" width="100%" height="30px" preserveAspectRatio="xMaxYMin meet">
         <g id="arrow_out" transform="scale(0.3 0.3)">
          <a xlink:href="a00378_a42e71dfd1f2f65a3cb25c9cd210dafb0_icgraph_org.svg" target="_base">
           <rect id="button" ry="5" rx="5" y="6" x="6" height="38" width="38"
                fill="#f2f5e9" fill-opacity="0.5" stroke="#606060" stroke-width="1.0"/>
           <path id="arrow"
             d="M 11.500037,31.436501 C 11.940474,20.09759 22.043105,11.32322 32.158766,21.979434 L 37.068811,17.246167 C 37.068811,17.246167 37.088388,32 37.088388,32 L 22.160133,31.978069 C 22.160133,31.978069 26.997745,27.140456 26.997745,27.140456 C 18.528582,18.264221 13.291696,25.230495 11.500037,31.436501 z"
             style="fill:#404040;"/>
          </a>
         </g>
        </svg>
</svg>
