<?xml version="1.0" encoding="UTF-8" standalone="no"?>
<!DOCTYPE svg PUBLIC "-//W3C//DTD SVG 1.1//EN"
 "http://www.w3.org/Graphics/SVG/1.1/DTD/svg11.dtd">
<!-- Generated by graphviz version 2.43.0 (0)
 -->
<!-- Title: com.cliffc.aa.Env.nongen_push Pages: 1 -->
<!--zoomable 224 -->
<svg id="main" version="1.1" xmlns="http://www.w3.org/2000/svg" xmlns:xlink="http://www.w3.org/1999/xlink" xml:space="preserve" onload="init(evt)">
<style type="text/css"><![CDATA[
.edge:hover path { stroke: red; }
.edge:hover polygon { stroke: red; fill: red; }
]]></style>
<script type="text/javascript"><![CDATA[
var edges = document.getElementsByTagName('g');
if (edges && edges.length) {
  for (var i=0;i<edges.length;i++) {
    if (edges[i].id.substr(0,4)=='edge') {
      edges[i].setAttribute('class','edge');
    }
  }
}
]]></script>
        <defs>
                <circle id="rim" cx="0" cy="0" r="7"/>
                <circle id="rim2" cx="0" cy="0" r="3.5"/>
                <g id="zoomPlus">
                        <use xlink:href="#rim" fill="#404040">
                                <set attributeName="fill" to="#808080" begin="zoomplus.mouseover" end="zoomplus.mouseout"/>
                        </use>
                        <path d="M-4,0h8M0,-4v8" fill="none" stroke="white" stroke-width="1.5" pointer-events="none"/>
                </g>
                <g id="zoomMin">
                        <use xlink:href="#rim" fill="#404040">
                                <set attributeName="fill" to="#808080" begin="zoomminus.mouseover" end="zoomminus.mouseout"/>
                        </use>
                        <path d="M-4,0h8" fill="none" stroke="white" stroke-width="1.5" pointer-events="none"/>
                </g>
                <g id="dirArrow">
                        <path fill="none" stroke="white" stroke-width="1.5" d="M0,-3.0v7 M-2.5,-0.5L0,-3.0L2.5,-0.5"/>
                </g>
               <g id="resetDef">
                       <use xlink:href="#rim2" fill="#404040">
                               <set attributeName="fill" to="#808080" begin="reset.mouseover" end="reset.mouseout"/>
                       </use>
               </g>
        </defs>

<script type="text/javascript">
var viewWidth = 1652;
var viewHeight = 224;
var sectionId = 'dynsection-34';
</script>
<script xlink:href="../../svgpan.js"/>
<svg id="graph" class="graph">
<g id="viewport">
<title>com.cliffc.aa.Env.nongen_push</title>
<!-- Node1 -->
<g id="node1" class="node">
<title>Node1</title>
<g id="a_node1"><a xlink:title=" ">
<polygon fill="#bfbfbf" stroke="black" points="1477,-177 1477,-196 1644,-196 1644,-177 1477,-177"/>
<text text-anchor="middle" x="1560.5" y="-184" font-family="Helvetica,sans-Serif" font-size="10.00">com.cliffc.aa.Env.nongen_push</text>
</a>
</g>
</g>
<!-- Node2 -->
<g id="node2" class="node">
<title>Node2</title>
<g id="a_node2"><a xlink:href="../../d7/d08/a00378.html#a3498542d5e7048bb2c03a11d8f167cb4" target="_top" xlink:title=" ">
<polygon fill="none" stroke="black" points="1314,-196 1314,-215 1434,-215 1434,-196 1314,-196"/>
<text text-anchor="middle" x="1374" y="-203" font-family="Helvetica,sans-Serif" font-size="10.00">com.cliffc.aa.Env.Env</text>
</a>
</g>
</g>
<!-- Node1&#45;&gt;Node2 -->
<g id="edge1" class="edge">
<title>Node1&#45;&gt;Node2</title>
<path fill="none" stroke="midnightblue" d="M1466.81,-196.05C1455.74,-197.19 1444.67,-198.33 1434.25,-199.4"/>
<polygon fill="midnightblue" stroke="midnightblue" points="1467.37,-199.51 1476.96,-195 1466.66,-192.54 1467.37,-199.51"/>
</g>
<!-- Node3 -->
<g id="node3" class="node">
<title>Node3</title>
<g id="a_node3"><a xlink:href="../../da/de3/a01398.html#a2a5934e98ffa96d31e2135ab66c7e796" target="_top" xlink:title="A statement is a list of variables to final&#45;assign or re&#45;assign, and an ifex for the value.">
<polygon fill="none" stroke="black" points="1307,-158 1307,-177 1441,-177 1441,-158 1307,-158"/>
<text text-anchor="middle" x="1374" y="-165" font-family="Helvetica,sans-Serif" font-size="10.00">com.cliffc.aa.Parse.stmt</text>
</a>
</g>
</g>
<!-- Node1&#45;&gt;Node3 -->
<g id="edge2" class="edge">
<title>Node1&#45;&gt;Node3</title>
<path fill="none" stroke="midnightblue" d="M1466.81,-176.95C1458.15,-176.06 1449.49,-175.17 1441.14,-174.31"/>
<polygon fill="midnightblue" stroke="midnightblue" points="1466.66,-180.46 1476.96,-178 1467.37,-173.49 1466.66,-180.46"/>
</g>
<!-- Node4 -->
<g id="node4" class="node">
<title>Node4</title>
<g id="a_node4"><a xlink:href="../../da/de3/a01398.html#a5e1b4411da5e7400c4fc45d4b3dbd795" target="_top" xlink:title="Parse an if&#45;expression, with lazy eval on the branches.">
<polygon fill="none" stroke="black" points="0,-158 0,-177 130,-177 130,-158 0,-158"/>
<text text-anchor="middle" x="65" y="-165" font-family="Helvetica,sans-Serif" font-size="10.00">com.cliffc.aa.Parse.ifex</text>
</a>
</g>
</g>
<!-- Node3&#45;&gt;Node4 -->
<g id="edge3" class="edge">
<title>Node3&#45;&gt;Node4</title>
<path fill="none" stroke="midnightblue" d="M1296.68,-169.05C1229.56,-174.04 1129.18,-182.5 1041.5,-182.5 1041.5,-182.5 1041.5,-182.5 405.5,-182.5 309.33,-182.5 198.23,-172.8 130.04,-168.05"/>
<polygon fill="midnightblue" stroke="midnightblue" points="1297.03,-172.54 1306.75,-168.31 1296.52,-165.56 1297.03,-172.54"/>
</g>
<!-- Node5 -->
<g id="node5" class="node">
<title>Node5</title>
<g id="a_node5"><a xlink:href="../../da/de3/a01398.html#adf95c17fe0de5cfff574ee89b78f0d37" target="_top" xlink:title=" ">
<polygon fill="none" stroke="black" points="1132,-135 1132,-154 1271,-154 1271,-135 1132,-135"/>
<text text-anchor="middle" x="1201.5" y="-142" font-family="Helvetica,sans-Serif" font-size="10.00">com.cliffc.aa.Parse.stmts</text>
</a>
</g>
</g>
<!-- Node3&#45;&gt;Node5 -->
<g id="edge5" class="edge">
<title>Node3&#45;&gt;Node5</title>
<path fill="none" stroke="midnightblue" d="M1296.44,-157.17C1288.05,-156.04 1279.54,-154.89 1271.26,-153.78"/>
<polygon fill="midnightblue" stroke="midnightblue" points="1296.21,-160.67 1306.59,-158.54 1297.15,-153.74 1296.21,-160.67"/>
</g>
<!-- Node6 -->
<g id="node6" class="node">
<title>Node6</title>
<g id="a_node6"><a xlink:href="../../da/de3/a01398.html#ab502dae0cf2cae3c0ade2422e579fce2" target="_top" xlink:title="Any number field&#45;lookups or function applications, then an optional assignment term = id++ | id– term...">
<polygon fill="none" stroke="black" points="1134.5,-97 1134.5,-116 1268.5,-116 1268.5,-97 1134.5,-97"/>
<text text-anchor="middle" x="1201.5" y="-104" font-family="Helvetica,sans-Serif" font-size="10.00">com.cliffc.aa.Parse.term</text>
</a>
</g>
</g>
<!-- Node3&#45;&gt;Node6 -->
<g id="edge6" class="edge">
<title>Node3&#45;&gt;Node6</title>
<path fill="none" stroke="midnightblue" d="M1342.53,-153.83C1322.45,-145.1 1295.44,-133.89 1271,-125.5 1261.08,-122.09 1250.19,-118.86 1240.08,-116.05"/>
<polygon fill="midnightblue" stroke="midnightblue" points="1341.23,-157.08 1351.79,-157.89 1344.04,-150.67 1341.23,-157.08"/>
</g>
<!-- Node4&#45;&gt;Node3 -->
<g id="edge4" class="edge">
<title>Node4&#45;&gt;Node3</title>
<path fill="none" stroke="midnightblue" d="M111.04,-178.64C175.99,-188.78 299.78,-200.5 405.5,-200.5 1041.5,-200.5 1041.5,-200.5 1041.5,-200.5 1150.27,-200.5 1278.59,-187.49 1338.7,-177.03"/>
<polygon fill="midnightblue" stroke="midnightblue" points="111.56,-175.18 101.13,-177.03 110.44,-182.09 111.56,-175.18"/>
</g>
<!-- Node7 -->
<g id="node7" class="node">
<title>Node7</title>
<g id="a_node7"><a xlink:href="../../da/de3/a01398.html#a6397933ff168ada64e7209d9c82122de" target="_top" xlink:title=" ">
<polygon fill="none" stroke="black" points="985,-91.5 985,-121.5 1096,-121.5 1096,-91.5 985,-91.5"/>
<text text-anchor="start" x="993" y="-109.5" font-family="Helvetica,sans-Serif" font-size="10.00">com.cliffc.aa.Parse.</text>
<text text-anchor="middle" x="1040.5" y="-98.5" font-family="Helvetica,sans-Serif" font-size="10.00">_expr_higher</text>
</a>
</g>
</g>
<!-- Node6&#45;&gt;Node7 -->
<g id="edge7" class="edge">
<title>Node6&#45;&gt;Node7</title>
<path fill="none" stroke="midnightblue" d="M1124.31,-106.5C1114.93,-106.5 1105.48,-106.5 1096.49,-106.5"/>
<polygon fill="midnightblue" stroke="midnightblue" points="1124.45,-110 1134.45,-106.5 1124.45,-103 1124.45,-110"/>
</g>
<!-- Node8 -->
<g id="node8" class="node">
<title>Node8</title>
<g id="a_node8"><a xlink:href="../../da/de3/a01398.html#ac81c4d62901080f0883b0e984f7f0062" target="_top" xlink:title=" ">
<polygon fill="none" stroke="black" points="509,-97 509,-116 647,-116 647,-97 509,-97"/>
<text text-anchor="middle" x="578" y="-104" font-family="Helvetica,sans-Serif" font-size="10.00">com.cliffc.aa.Parse._expr</text>
</a>
</g>
</g>
<!-- Node7&#45;&gt;Node8 -->
<g id="edge8" class="edge">
<title>Node7&#45;&gt;Node8</title>
<path fill="none" stroke="midnightblue" d="M974.64,-101.63C888,-99.15 735.21,-99.12 647,-101.54"/>
<polygon fill="midnightblue" stroke="midnightblue" points="974.76,-105.14 984.87,-101.95 974.98,-98.14 974.76,-105.14"/>
</g>
<!-- Node11 -->
<g id="node11" class="node">
<title>Node11</title>
<g id="a_node11"><a xlink:href="../../da/de3/a01398.html#a58b0dba4e9b60d9e9639eea530b6077b" target="_top" xlink:title=" ">
<polygon fill="none" stroke="black" points="830,-38.5 830,-68.5 949,-68.5 949,-38.5 830,-38.5"/>
<text text-anchor="start" x="838" y="-56.5" font-family="Helvetica,sans-Serif" font-size="10.00">com.cliffc.aa.Parse.</text>
<text text-anchor="middle" x="889.5" y="-45.5" font-family="Helvetica,sans-Serif" font-size="10.00">_expr_higher_require</text>
</a>
</g>
</g>
<!-- Node7&#45;&gt;Node11 -->
<g id="edge14" class="edge">
<title>Node7&#45;&gt;Node11</title>
<path fill="none" stroke="midnightblue" d="M987.51,-88.01C969.66,-81.66 949.9,-74.63 932.9,-68.58"/>
<polygon fill="midnightblue" stroke="midnightblue" points="986.61,-91.4 997.2,-91.45 988.95,-84.81 986.61,-91.4"/>
</g>
<!-- Node8&#45;&gt;Node7 -->
<g id="edge9" class="edge">
<title>Node8&#45;&gt;Node7</title>
<path fill="none" stroke="midnightblue" d="M657.22,-111.72C750.38,-113.96 903.57,-113.74 984.87,-111.05"/>
<polygon fill="midnightblue" stroke="midnightblue" points="657.09,-108.22 647,-111.46 656.91,-115.21 657.09,-108.22"/>
</g>
<!-- Node9 -->
<g id="node9" class="node">
<title>Node9</title>
<g id="a_node9"><a xlink:href="../../da/de3/a01398.html#af41d3ed90c69faf4279701b6aa98bd3a" target="_top" xlink:title="Parse an expression, a series of terms separated by binary operators.">
<polygon fill="none" stroke="black" points="340,-97 340,-116 473,-116 473,-97 340,-97"/>
<text text-anchor="middle" x="406.5" y="-104" font-family="Helvetica,sans-Serif" font-size="10.00">com.cliffc.aa.Parse.expr</text>
</a>
</g>
</g>
<!-- Node8&#45;&gt;Node9 -->
<g id="edge10" class="edge">
<title>Node8&#45;&gt;Node9</title>
<path fill="none" stroke="midnightblue" d="M498.34,-106.5C489.93,-106.5 481.43,-106.5 473.19,-106.5"/>
<polygon fill="midnightblue" stroke="midnightblue" points="498.55,-110 508.55,-106.5 498.55,-103 498.55,-110"/>
</g>
<!-- Node9&#45;&gt;Node4 -->
<g id="edge13" class="edge">
<title>Node9&#45;&gt;Node4</title>
<path fill="none" stroke="midnightblue" d="M345.03,-117.93C331.53,-120.45 317.28,-123.08 304,-125.5 241.25,-136.91 169.11,-149.58 120.86,-157.99"/>
<polygon fill="midnightblue" stroke="midnightblue" points="346,-121.31 355.18,-116.03 344.71,-114.43 346,-121.31"/>
</g>
<!-- Node10 -->
<g id="node10" class="node">
<title>Node10</title>
<g id="a_node10"><a xlink:href="../../da/de3/a01398.html#a6e92b63110e4ed2e5bf7533656730f3f" target="_top" xlink:title="Parse a lisp&#45;like function application.">
<polygon fill="none" stroke="black" points="166,-97 166,-116 304,-116 304,-97 166,-97"/>
<text text-anchor="middle" x="235" y="-104" font-family="Helvetica,sans-Serif" font-size="10.00">com.cliffc.aa.Parse.apply</text>
</a>
</g>
</g>
<!-- Node9&#45;&gt;Node10 -->
<g id="edge11" class="edge">
<title>Node9&#45;&gt;Node10</title>
<path fill="none" stroke="midnightblue" d="M329.96,-106.5C321.37,-106.5 312.65,-106.5 304.16,-106.5"/>
<polygon fill="midnightblue" stroke="midnightblue" points="329.97,-110 339.97,-106.5 329.97,-103 329.97,-110"/>
</g>
<!-- Node10&#45;&gt;Node4 -->
<g id="edge12" class="edge">
<title>Node10&#45;&gt;Node4</title>
<path fill="none" stroke="midnightblue" d="M196.82,-119.51C186.8,-123.04 175.98,-126.89 166,-130.5 140.58,-139.69 111.63,-150.43 91.44,-157.97"/>
<polygon fill="midnightblue" stroke="midnightblue" points="198.23,-122.72 206.5,-116.1 195.91,-116.12 198.23,-122.72"/>
</g>
<!-- Node11&#45;&gt;Node8 -->
<g id="edge15" class="edge">
<title>Node11&#45;&gt;Node8</title>
<path fill="none" stroke="midnightblue" d="M819.93,-62.24C779.88,-67.66 728.44,-75.17 683,-83.5 661.72,-87.4 638.17,-92.54 618.86,-96.97"/>
<polygon fill="midnightblue" stroke="midnightblue" points="820.41,-65.71 829.85,-60.91 819.48,-58.77 820.41,-65.71"/>
</g>
<!-- Node12 -->
<g id="node12" class="node">
<title>Node12</title>
<g id="a_node12"><a xlink:href="../../da/de3/a01398.html#ade4bf32252a86275a1ec393dea94ed6f" target="_top" xlink:title=" ">
<polygon fill="none" stroke="black" points="683,-0.5 683,-30.5 794,-30.5 794,-0.5 683,-0.5"/>
<text text-anchor="start" x="691" y="-18.5" font-family="Helvetica,sans-Serif" font-size="10.00">com.cliffc.aa.Parse.</text>
<text text-anchor="middle" x="738.5" y="-7.5" font-family="Helvetica,sans-Serif" font-size="10.00">_short_circuit_expr</text>
</a>
</g>
</g>
<!-- Node11&#45;&gt;Node12 -->
<g id="edge16" class="edge">
<title>Node11&#45;&gt;Node12</title>
<path fill="none" stroke="midnightblue" d="M819.91,-36.01C811.25,-33.8 802.48,-31.56 794.08,-29.42"/>
<polygon fill="midnightblue" stroke="midnightblue" points="819.06,-39.4 829.61,-38.48 820.79,-32.62 819.06,-39.4"/>
</g>
<!-- Node12&#45;&gt;Node8 -->
<g id="edge17" class="edge">
<title>Node12&#45;&gt;Node8</title>
<path fill="none" stroke="midnightblue" d="M700.6,-35.64C694.7,-38.91 688.67,-42.28 683,-45.5 651.7,-63.29 615.51,-84.71 595.13,-96.85"/>
<polygon fill="midnightblue" stroke="midnightblue" points="702.63,-38.51 709.69,-30.62 699.25,-32.38 702.63,-38.51"/>
</g>
</g>
</svg>
        <g id="navigator" transform="translate(0 0)" fill="#404254">
                <rect fill="#f2f5e9" fill-opacity="0.5" stroke="#606060" stroke-width=".5" x="0" y="0" width="60" height="60"/>
                <use id="zoomplus" xlink:href="#zoomPlus" x="17" y="9" onmousedown="handleZoom(evt,'in')"/>
                <use id="zoomminus" xlink:href="#zoomMin" x="42" y="9" onmousedown="handleZoom(evt,'out')"/>
                <use id="reset" xlink:href="#resetDef" x="30" y="36" onmousedown="handleReset()"/>
                <g id="arrowUp" xlink:href="#dirArrow" transform="translate(30 24)" onmousedown="handlePan(0,-1)">
                  <use xlink:href="#rim" fill="#404040">
                        <set attributeName="fill" to="#808080" begin="arrowUp.mouseover" end="arrowUp.mouseout"/>
                  </use>
                  <path fill="none" stroke="white" stroke-width="1.5" d="M0,-3.0v7 M-2.5,-0.5L0,-3.0L2.5,-0.5"/>
                </g>
                <g id="arrowRight" xlink:href="#dirArrow" transform="rotate(90) translate(36 -43)" onmousedown="handlePan(1,0)">
                  <use xlink:href="#rim" fill="#404040">
                        <set attributeName="fill" to="#808080" begin="arrowRight.mouseover" end="arrowRight.mouseout"/>
                  </use>
                  <path fill="none" stroke="white" stroke-width="1.5" d="M0,-3.0v7 M-2.5,-0.5L0,-3.0L2.5,-0.5"/>
                </g>
                <g id="arrowDown" xlink:href="#dirArrow" transform="rotate(180) translate(-30 -48)" onmousedown="handlePan(0,1)">
                  <use xlink:href="#rim" fill="#404040">
                        <set attributeName="fill" to="#808080" begin="arrowDown.mouseover" end="arrowDown.mouseout"/>
                  </use>
                  <path fill="none" stroke="white" stroke-width="1.5" d="M0,-3.0v7 M-2.5,-0.5L0,-3.0L2.5,-0.5"/>
                </g>
                <g id="arrowLeft" xlink:href="#dirArrow" transform="rotate(270) translate(-36 17)" onmousedown="handlePan(-1,0)">
                  <use xlink:href="#rim" fill="#404040">
                        <set attributeName="fill" to="#808080" begin="arrowLeft.mouseover" end="arrowLeft.mouseout"/>
                  </use>
                  <path fill="none" stroke="white" stroke-width="1.5" d="M0,-3.0v7 M-2.5,-0.5L0,-3.0L2.5,-0.5"/>
                </g>
        </g>
        <svg viewBox="0 0 15 15" width="100%" height="30px" preserveAspectRatio="xMaxYMin meet">
         <g id="arrow_out" transform="scale(0.3 0.3)">
          <a xlink:href="a00378_a312ee5e886fda4db94d92fe35264e593_icgraph_org.svg" target="_base">
           <rect id="button" ry="5" rx="5" y="6" x="6" height="38" width="38"
                fill="#f2f5e9" fill-opacity="0.5" stroke="#606060" stroke-width="1.0"/>
           <path id="arrow"
             d="M 11.500037,31.436501 C 11.940474,20.09759 22.043105,11.32322 32.158766,21.979434 L 37.068811,17.246167 C 37.068811,17.246167 37.088388,32 37.088388,32 L 22.160133,31.978069 C 22.160133,31.978069 26.997745,27.140456 26.997745,27.140456 C 18.528582,18.264221 13.291696,25.230495 11.500037,31.436501 z"
             style="fill:#404040;"/>
          </a>
         </g>
        </svg>
</svg>
