<?xml version="1.0" encoding="UTF-8" standalone="no"?>
<!DOCTYPE svg PUBLIC "-//W3C//DTD SVG 1.1//EN"
 "http://www.w3.org/Graphics/SVG/1.1/DTD/svg11.dtd">
<!-- Generated by graphviz version 2.43.0 (0)
 -->
<!-- Title: com.cliffc.aa.Env.top_reset Pages: 1 -->
<svg width="544pt" height="410pt"
 viewBox="0.00 0.00 544.00 409.50" xmlns="http://www.w3.org/2000/svg" xmlns:xlink="http://www.w3.org/1999/xlink">
<g id="graph0" class="graph" transform="scale(1 1) rotate(0) translate(4 405.5)">
<title>com.cliffc.aa.Env.top_reset</title>
<!-- Node1 -->
<g id="node1" class="node">
<title>Node1</title>
<g id="a_node1"><a xlink:title=" ">
<polygon fill="#bfbfbf" stroke="black" points="0,-196.5 0,-226.5 118,-226.5 118,-196.5 0,-196.5"/>
<text text-anchor="start" x="8" y="-214.5" font-family="Helvetica,sans-Serif" font-size="10.00">com.cliffc.aa.Env.top</text>
<text text-anchor="middle" x="59" y="-203.5" font-family="Helvetica,sans-Serif" font-size="10.00">_reset</text>
</a>
</g>
</g>
<!-- Node2 -->
<g id="node2" class="node">
<title>Node2</title>
<g id="a_node2"><a xlink:href="../../d8/d11/a01178.html#a15f59105b23c35a47c8358b67154d90d" target="_top" xlink:title=" ">
<polygon fill="none" stroke="black" points="154,-382 154,-401 339,-401 339,-382 154,-382"/>
<text text-anchor="middle" x="246.5" y="-389" font-family="Helvetica,sans-Serif" font-size="10.00">com.cliffc.aa.node.PrimNode.reset</text>
</a>
</g>
</g>
<!-- Node1&#45;&gt;Node2 -->
<g id="edge1" class="edge">
<title>Node1&#45;&gt;Node2</title>
<path fill="none" stroke="midnightblue" d="M64.28,-226.79C74.19,-259.23 101.97,-335.08 154,-372.5 156.55,-374.34 159.24,-376 162.03,-377.51"/>
<polygon fill="midnightblue" stroke="midnightblue" points="160.72,-380.76 171.26,-381.84 163.69,-374.42 160.72,-380.76"/>
</g>
<!-- Node3 -->
<g id="node3" class="node">
<title>Node3</title>
<g id="a_node3"><a xlink:href="../../d9/d8e/a01050.html#afee0f30455efa70fd72c781f92db8ab9" target="_top" xlink:title=" ">
<polygon fill="none" stroke="black" points="157,-344 157,-363 336,-363 336,-344 157,-344"/>
<text text-anchor="middle" x="246.5" y="-351" font-family="Helvetica,sans-Serif" font-size="10.00">com.cliffc.aa.node.FunNode.reset</text>
</a>
</g>
</g>
<!-- Node1&#45;&gt;Node3 -->
<g id="edge2" class="edge">
<title>Node1&#45;&gt;Node3</title>
<path fill="none" stroke="midnightblue" d="M67.11,-226.81C80.26,-253.3 111,-307.45 154,-334.5 157.38,-336.63 160.96,-338.52 164.66,-340.2"/>
<polygon fill="midnightblue" stroke="midnightblue" points="163.5,-343.51 174.08,-343.98 166.1,-337.01 163.5,-343.51"/>
</g>
<!-- Node4 -->
<g id="node4" class="node">
<title>Node4</title>
<g id="a_node4"><a xlink:href="../../d0/d61/a01130.html#a1cbe0230171eab22ff48c609c7f25925" target="_top" xlink:title=" ">
<polygon fill="none" stroke="black" points="167,-294.5 167,-324.5 326,-324.5 326,-294.5 167,-294.5"/>
<text text-anchor="start" x="175" y="-312.5" font-family="Helvetica,sans-Serif" font-size="10.00">com.cliffc.aa.node.NewNode.</text>
<text text-anchor="middle" x="246.5" y="-301.5" font-family="Helvetica,sans-Serif" font-size="10.00">NewPrimNode.reset</text>
</a>
</g>
</g>
<!-- Node1&#45;&gt;Node4 -->
<g id="edge3" class="edge">
<title>Node1&#45;&gt;Node4</title>
<path fill="none" stroke="midnightblue" d="M74.92,-226.51C92.41,-243.27 122.95,-270.05 154,-285.5 157.8,-287.39 161.77,-289.15 165.84,-290.78"/>
<polygon fill="midnightblue" stroke="midnightblue" points="164.86,-294.15 175.45,-294.34 167.29,-287.58 164.86,-294.15"/>
</g>
<!-- Node5 -->
<g id="node5" class="node">
<title>Node5</title>
<g id="a_node5"><a xlink:href="../../d1/de7/a01434.html#a420938c506719566780835cd0abe09c9" target="_top" xlink:title=" ">
<polygon fill="none" stroke="black" points="161.5,-245.5 161.5,-275.5 331.5,-275.5 331.5,-245.5 161.5,-245.5"/>
<text text-anchor="start" x="169.5" y="-263.5" font-family="Helvetica,sans-Serif" font-size="10.00">com.cliffc.aa.type.BitsFun.reset</text>
<text text-anchor="middle" x="246.5" y="-252.5" font-family="Helvetica,sans-Serif" font-size="10.00">_to_init0</text>
</a>
</g>
</g>
<!-- Node1&#45;&gt;Node5 -->
<g id="edge4" class="edge">
<title>Node1&#45;&gt;Node5</title>
<path fill="none" stroke="midnightblue" d="M116.66,-226.6C128.97,-229.87 141.92,-233.31 154,-236.5 161.79,-238.56 169.95,-240.71 178.06,-242.84"/>
<polygon fill="midnightblue" stroke="midnightblue" points="177.34,-246.27 187.9,-245.42 179.11,-239.5 177.34,-246.27"/>
</g>
<!-- Node6 -->
<g id="node6" class="node">
<title>Node6</title>
<g id="a_node6"><a xlink:href="../../d5/dd0/a01438.html#a08062a1bf199e4d57ea3c59652bd4749" target="_top" xlink:title=" ">
<polygon fill="none" stroke="black" points="160,-196.5 160,-226.5 333,-226.5 333,-196.5 160,-196.5"/>
<text text-anchor="start" x="168" y="-214.5" font-family="Helvetica,sans-Serif" font-size="10.00">com.cliffc.aa.type.BitsRPC.reset</text>
<text text-anchor="middle" x="246.5" y="-203.5" font-family="Helvetica,sans-Serif" font-size="10.00">_to_init0</text>
</a>
</g>
</g>
<!-- Node1&#45;&gt;Node6 -->
<g id="edge5" class="edge">
<title>Node1&#45;&gt;Node6</title>
<path fill="none" stroke="midnightblue" d="M118.18,-211.5C128.17,-211.5 138.78,-211.5 149.44,-211.5"/>
<polygon fill="midnightblue" stroke="midnightblue" points="149.67,-215 159.67,-211.5 149.67,-208 149.67,-215"/>
</g>
<!-- Node7 -->
<g id="node7" class="node">
<title>Node7</title>
<g id="a_node7"><a xlink:href="../../d8/dd0/a01430.html#adacdf01a4b2a7f7aefc7cbfc512bd6fc" target="_top" xlink:title=" ">
<polygon fill="none" stroke="black" points="158,-147.5 158,-177.5 335,-177.5 335,-147.5 158,-147.5"/>
<text text-anchor="start" x="166" y="-165.5" font-family="Helvetica,sans-Serif" font-size="10.00">com.cliffc.aa.type.BitsAlias.reset</text>
<text text-anchor="middle" x="246.5" y="-154.5" font-family="Helvetica,sans-Serif" font-size="10.00">_to_init0</text>
</a>
</g>
</g>
<!-- Node1&#45;&gt;Node7 -->
<g id="edge6" class="edge">
<title>Node1&#45;&gt;Node7</title>
<path fill="none" stroke="midnightblue" d="M116.92,-196.47C136.5,-191.29 158.61,-185.45 178.9,-180.09"/>
<polygon fill="midnightblue" stroke="midnightblue" points="179.92,-183.44 188.69,-177.51 178.13,-176.68 179.92,-183.44"/>
</g>
<!-- Node8 -->
<g id="node8" class="node">
<title>Node8</title>
<g id="a_node8"><a xlink:href="../../df/db5/a01158.html#a86f5f800ab5f6d1cfbf33947af3b1b88" target="_top" xlink:title=" ">
<polygon fill="none" stroke="black" points="165.5,-98.5 165.5,-128.5 327.5,-128.5 327.5,-98.5 165.5,-98.5"/>
<text text-anchor="start" x="173.5" y="-116.5" font-family="Helvetica,sans-Serif" font-size="10.00">com.cliffc.aa.node.Node.reset</text>
<text text-anchor="middle" x="246.5" y="-105.5" font-family="Helvetica,sans-Serif" font-size="10.00">_to_init0</text>
</a>
</g>
</g>
<!-- Node1&#45;&gt;Node8 -->
<g id="edge7" class="edge">
<title>Node1&#45;&gt;Node8</title>
<path fill="none" stroke="midnightblue" d="M75.31,-196.46C92.9,-179.98 123.32,-153.84 154,-138.5 158.67,-136.17 163.58,-134.03 168.61,-132.07"/>
<polygon fill="midnightblue" stroke="midnightblue" points="170.17,-135.23 178.38,-128.53 167.79,-128.65 170.17,-135.23"/>
</g>
<!-- Node9 -->
<g id="node9" class="node">
<title>Node9</title>
<g id="a_node9"><a xlink:href="../../d9/d0a/a00390.html#a012617cf202194877869009514026c62" target="_top" xlink:title=" ">
<polygon fill="none" stroke="black" points="169,-49.5 169,-79.5 324,-79.5 324,-49.5 169,-49.5"/>
<text text-anchor="start" x="177" y="-67.5" font-family="Helvetica,sans-Serif" font-size="10.00">com.cliffc.aa.GVNGCM.reset</text>
<text text-anchor="middle" x="246.5" y="-56.5" font-family="Helvetica,sans-Serif" font-size="10.00">_to_init0</text>
</a>
</g>
</g>
<!-- Node1&#45;&gt;Node9 -->
<g id="edge8" class="edge">
<title>Node1&#45;&gt;Node9</title>
<path fill="none" stroke="midnightblue" d="M67.54,-196.17C81.12,-170.16 112.24,-117.49 154,-89.5 156.96,-87.51 160.08,-85.69 163.3,-84"/>
<polygon fill="midnightblue" stroke="midnightblue" points="165.06,-87.04 172.62,-79.63 162.08,-80.71 165.06,-87.04"/>
</g>
<!-- Node11 -->
<g id="node11" class="node">
<title>Node11</title>
<g id="a_node11"><a xlink:href="../../dc/d25/a01406.html#a6f8b11eef3b8646135f21166610eba9f" target="_top" xlink:title=" ">
<polygon fill="none" stroke="black" points="171.5,-0.5 171.5,-30.5 321.5,-30.5 321.5,-0.5 171.5,-0.5"/>
<text text-anchor="start" x="179.5" y="-18.5" font-family="Helvetica,sans-Serif" font-size="10.00">com.cliffc.aa.tvar.TV2.reset</text>
<text text-anchor="middle" x="246.5" y="-7.5" font-family="Helvetica,sans-Serif" font-size="10.00">_to_init0</text>
</a>
</g>
</g>
<!-- Node1&#45;&gt;Node11 -->
<g id="edge10" class="edge">
<title>Node1&#45;&gt;Node11</title>
<path fill="none" stroke="midnightblue" d="M63.96,-196.3C73.48,-162.81 100.92,-82.33 154,-40.5 156.59,-38.46 159.33,-36.59 162.18,-34.87"/>
<polygon fill="midnightblue" stroke="midnightblue" points="163.87,-37.94 171.05,-30.15 160.58,-31.76 163.87,-37.94"/>
</g>
<!-- Node10 -->
<g id="node10" class="node">
<title>Node10</title>
<g id="a_node10"><a xlink:href="../../d6/d2f/a01394.html#a226305ef1a560fad3482fbb442d0433c" target="_top" xlink:title=" ">
<polygon fill="none" stroke="black" points="375,-55 375,-74 536,-74 536,-55 375,-55"/>
<text text-anchor="middle" x="455.5" y="-62" font-family="Helvetica,sans-Serif" font-size="10.00">com.cliffc.aa.node.Work.clear</text>
</a>
</g>
</g>
<!-- Node9&#45;&gt;Node10 -->
<g id="edge9" class="edge">
<title>Node9&#45;&gt;Node10</title>
<path fill="none" stroke="midnightblue" d="M324.28,-64.5C337.4,-64.5 351.12,-64.5 364.54,-64.5"/>
<polygon fill="midnightblue" stroke="midnightblue" points="364.72,-68 374.72,-64.5 364.72,-61 364.72,-68"/>
</g>
</g>
</svg>
