<?xml version="1.0" encoding="UTF-8" standalone="no"?>
<!DOCTYPE svg PUBLIC "-//W3C//DTD SVG 1.1//EN"
 "http://www.w3.org/Graphics/SVG/1.1/DTD/svg11.dtd">
<!-- Generated by graphviz version 2.43.0 (0)
 -->
<!-- Title: com.cliffc.aa.node.MemPrimNode.adr Pages: 1 -->
<!--zoomable 362 -->
<svg id="main" version="1.1" xmlns="http://www.w3.org/2000/svg" xmlns:xlink="http://www.w3.org/1999/xlink" xml:space="preserve" onload="init(evt)">
<style type="text/css"><![CDATA[
.edge:hover path { stroke: red; }
.edge:hover polygon { stroke: red; fill: red; }
]]></style>
<script type="text/javascript"><![CDATA[
var edges = document.getElementsByTagName('g');
if (edges && edges.length) {
  for (var i=0;i<edges.length;i++) {
    if (edges[i].id.substr(0,4)=='edge') {
      edges[i].setAttribute('class','edge');
    }
  }
}
]]></script>
        <defs>
                <circle id="rim" cx="0" cy="0" r="7"/>
                <circle id="rim2" cx="0" cy="0" r="3.5"/>
                <g id="zoomPlus">
                        <use xlink:href="#rim" fill="#404040">
                                <set attributeName="fill" to="#808080" begin="zoomplus.mouseover" end="zoomplus.mouseout"/>
                        </use>
                        <path d="M-4,0h8M0,-4v8" fill="none" stroke="white" stroke-width="1.5" pointer-events="none"/>
                </g>
                <g id="zoomMin">
                        <use xlink:href="#rim" fill="#404040">
                                <set attributeName="fill" to="#808080" begin="zoomminus.mouseover" end="zoomminus.mouseout"/>
                        </use>
                        <path d="M-4,0h8" fill="none" stroke="white" stroke-width="1.5" pointer-events="none"/>
                </g>
                <g id="dirArrow">
                        <path fill="none" stroke="white" stroke-width="1.5" d="M0,-3.0v7 M-2.5,-0.5L0,-3.0L2.5,-0.5"/>
                </g>
               <g id="resetDef">
                       <use xlink:href="#rim2" fill="#404040">
                               <set attributeName="fill" to="#808080" begin="reset.mouseover" end="reset.mouseout"/>
                       </use>
               </g>
        </defs>

<script type="text/javascript">
var viewWidth = 560;
var viewHeight = 362;
var sectionId = 'dynsection-17';
</script>
<script xlink:href="../../svgpan.js"/>
<svg id="graph" class="graph">
<g id="viewport">
<title>com.cliffc.aa.node.MemPrimNode.adr</title>
<!-- Node1 -->
<g id="node1" class="node">
<title>Node1</title>
<g id="a_node1"><a xlink:title=" ">
<polygon fill="#bfbfbf" stroke="black" points="396,-169.5 396,-199.5 552,-199.5 552,-169.5 396,-169.5"/>
<text text-anchor="start" x="404" y="-187.5" font-family="Helvetica,sans-Serif" font-size="10.00">com.cliffc.aa.node.MemPrim</text>
<text text-anchor="middle" x="474" y="-176.5" font-family="Helvetica,sans-Serif" font-size="10.00">Node.adr</text>
</a>
</g>
</g>
<!-- Node2 -->
<g id="node2" class="node">
<title>Node2</title>
<g id="a_node2"><a xlink:href="../../d9/df5/a01086.html#a1ecfa59496dd77b547b796897a2a0fd5" target="_top" xlink:title=" ">
<polygon fill="none" stroke="black" points="197,-323.5 197,-353.5 355,-353.5 355,-323.5 197,-323.5"/>
<text text-anchor="start" x="205" y="-341.5" font-family="Helvetica,sans-Serif" font-size="10.00">com.cliffc.aa.node.MemPrim</text>
<text text-anchor="middle" x="276" y="-330.5" font-family="Helvetica,sans-Serif" font-size="10.00">Node.LValueLength._live_use</text>
</a>
</g>
</g>
<!-- Node1&#45;&gt;Node2 -->
<g id="edge1" class="edge">
<title>Node1&#45;&gt;Node2</title>
<path fill="none" stroke="midnightblue" d="M457.12,-207.94C437.33,-235.52 401.08,-281.04 360,-308.5 351.08,-314.46 340.84,-319.41 330.66,-323.44"/>
<polygon fill="midnightblue" stroke="midnightblue" points="460.06,-209.85 462.95,-199.66 454.33,-205.82 460.06,-209.85"/>
</g>
<!-- Node3 -->
<g id="node3" class="node">
<title>Node3</title>
<g id="a_node3"><a xlink:href="../../d9/df5/a01086.html#a94cee5246c05f96e01f2f2bb8d6804e7" target="_top" xlink:title=" ">
<polygon fill="none" stroke="black" points="0,-291.5 0,-321.5 156,-321.5 156,-291.5 0,-291.5"/>
<text text-anchor="start" x="8" y="-309.5" font-family="Helvetica,sans-Serif" font-size="10.00">com.cliffc.aa.node.MemPrim</text>
<text text-anchor="middle" x="78" y="-298.5" font-family="Helvetica,sans-Serif" font-size="10.00">Node.LValueLength.live_use</text>
</a>
</g>
</g>
<!-- Node1&#45;&gt;Node3 -->
<g id="edge7" class="edge">
<title>Node1&#45;&gt;Node3</title>
<path fill="none" stroke="midnightblue" d="M452.72,-207C431.8,-228.58 397.08,-260.09 360,-275.5 294.85,-302.58 214.26,-309.02 156.12,-309.47"/>
<polygon fill="midnightblue" stroke="midnightblue" points="455.44,-209.22 459.78,-199.55 450.36,-204.4 455.44,-209.22"/>
</g>
<!-- Node4 -->
<g id="node4" class="node">
<title>Node4</title>
<g id="a_node4"><a xlink:href="../../db/dba/a01078.html#a63aa01df833df190d1320edea85fc129" target="_top" xlink:title=" ">
<polygon fill="none" stroke="black" points="198,-235.5 198,-265.5 354,-265.5 354,-235.5 198,-235.5"/>
<text text-anchor="start" x="206" y="-253.5" font-family="Helvetica,sans-Serif" font-size="10.00">com.cliffc.aa.node.MemPrim</text>
<text text-anchor="middle" x="276" y="-242.5" font-family="Helvetica,sans-Serif" font-size="10.00">Node.err</text>
</a>
</g>
</g>
<!-- Node1&#45;&gt;Node4 -->
<g id="edge3" class="edge">
<title>Node1&#45;&gt;Node4</title>
<path fill="none" stroke="midnightblue" d="M418.41,-202.88C387.95,-213.14 350.47,-225.76 321.76,-235.43"/>
<polygon fill="midnightblue" stroke="midnightblue" points="419.67,-206.15 428.03,-199.64 417.44,-199.52 419.67,-206.15"/>
</g>
<!-- Node5 -->
<g id="node5" class="node">
<title>Node5</title>
<g id="a_node5"><a xlink:href="../../da/d73/a01090.html#ac1b949e330e7b7c8b6373356e35fbdd6" target="_top" xlink:title=" ">
<polygon fill="none" stroke="black" points="0,-223.5 0,-253.5 156,-253.5 156,-223.5 0,-223.5"/>
<text text-anchor="start" x="8" y="-241.5" font-family="Helvetica,sans-Serif" font-size="10.00">com.cliffc.aa.node.MemPrim</text>
<text text-anchor="middle" x="78" y="-230.5" font-family="Helvetica,sans-Serif" font-size="10.00">Node.LValueRead.value</text>
</a>
</g>
</g>
<!-- Node1&#45;&gt;Node5 -->
<g id="edge10" class="edge">
<title>Node1&#45;&gt;Node5</title>
<path fill="none" stroke="midnightblue" d="M385.69,-196.47C316.98,-205.88 222.15,-218.88 156.19,-227.92"/>
<polygon fill="midnightblue" stroke="midnightblue" points="386.2,-199.93 395.63,-195.1 385.25,-192.99 386.2,-199.93"/>
</g>
<!-- Node6 -->
<g id="node6" class="node">
<title>Node6</title>
<g id="a_node6"><a xlink:href="../../d6/dea/a01094.html#af68e253d2c65ef61e99e865937e56067" target="_top" xlink:title=" ">
<polygon fill="none" stroke="black" points="192,-147.5 192,-177.5 360,-177.5 360,-147.5 192,-147.5"/>
<text text-anchor="start" x="200" y="-165.5" font-family="Helvetica,sans-Serif" font-size="10.00">com.cliffc.aa.node.MemPrim</text>
<text text-anchor="middle" x="276" y="-154.5" font-family="Helvetica,sans-Serif" font-size="10.00">Node.WritePrimNode.escapees</text>
</a>
</g>
</g>
<!-- Node1&#45;&gt;Node6 -->
<g id="edge5" class="edge">
<title>Node1&#45;&gt;Node6</title>
<path fill="none" stroke="midnightblue" d="M385.6,-174.69C377.18,-173.74 368.64,-172.79 360.25,-171.84"/>
<polygon fill="midnightblue" stroke="midnightblue" points="385.49,-178.2 395.82,-175.84 386.27,-171.24 385.49,-178.2"/>
</g>
<!-- Node7 -->
<g id="node7" class="node">
<title>Node7</title>
<g id="a_node7"><a xlink:href="../../dd/df1/a01082.html#a6df35a46bbbf9287cbbd5cead203324d" target="_top" xlink:title=" ">
<polygon fill="none" stroke="black" points="195.5,-98.5 195.5,-128.5 356.5,-128.5 356.5,-98.5 195.5,-98.5"/>
<text text-anchor="start" x="203.5" y="-116.5" font-family="Helvetica,sans-Serif" font-size="10.00">com.cliffc.aa.node.MemPrim</text>
<text text-anchor="middle" x="276" y="-105.5" font-family="Helvetica,sans-Serif" font-size="10.00">Node.ReadPrimNode.live_use</text>
</a>
</g>
</g>
<!-- Node1&#45;&gt;Node7 -->
<g id="edge6" class="edge">
<title>Node1&#45;&gt;Node7</title>
<path fill="none" stroke="midnightblue" d="M430.02,-165.28C409.1,-156.28 383.47,-145.74 360,-137.5 351.08,-134.37 341.53,-131.32 332.19,-128.51"/>
<polygon fill="midnightblue" stroke="midnightblue" points="428.7,-168.53 439.27,-169.3 431.49,-162.1 428.7,-168.53"/>
</g>
<!-- Node8 -->
<g id="node8" class="node">
<title>Node8</title>
<g id="a_node8"><a xlink:href="../../d6/dea/a01094.html#a6c40cde3e85367a7f38db9453a1f9be5" target="_top" xlink:title=" ">
<polygon fill="none" stroke="black" points="194.5,-49.5 194.5,-79.5 357.5,-79.5 357.5,-49.5 194.5,-49.5"/>
<text text-anchor="start" x="202.5" y="-67.5" font-family="Helvetica,sans-Serif" font-size="10.00">com.cliffc.aa.node.MemPrim</text>
<text text-anchor="middle" x="276" y="-56.5" font-family="Helvetica,sans-Serif" font-size="10.00">Node.WritePrimNode.live_use</text>
</a>
</g>
</g>
<!-- Node1&#45;&gt;Node8 -->
<g id="edge8" class="edge">
<title>Node1&#45;&gt;Node8</title>
<path fill="none" stroke="midnightblue" d="M451.97,-161.75C430.71,-140.02 395.95,-107.81 360,-88.5 353.66,-85.09 346.77,-82.12 339.78,-79.54"/>
<polygon fill="midnightblue" stroke="midnightblue" points="449.71,-164.45 459.16,-169.23 454.76,-159.6 449.71,-164.45"/>
</g>
<!-- Node9 -->
<g id="node9" class="node">
<title>Node9</title>
<g id="a_node9"><a xlink:href="../../d9/df5/a01086.html#ae915b8f8ec4e85b929b5f4b7aa153923" target="_top" xlink:title=" ">
<polygon fill="none" stroke="black" points="198,-0.5 198,-30.5 354,-30.5 354,-0.5 198,-0.5"/>
<text text-anchor="start" x="206" y="-18.5" font-family="Helvetica,sans-Serif" font-size="10.00">com.cliffc.aa.node.MemPrim</text>
<text text-anchor="middle" x="276" y="-7.5" font-family="Helvetica,sans-Serif" font-size="10.00">Node.LValueLength.value</text>
</a>
</g>
</g>
<!-- Node1&#45;&gt;Node9 -->
<g id="edge9" class="edge">
<title>Node1&#45;&gt;Node9</title>
<path fill="none" stroke="midnightblue" d="M460.59,-160.41C442.71,-128.08 406.66,-71.09 360,-39.5 354.91,-36.05 349.32,-33.09 343.52,-30.55"/>
<polygon fill="midnightblue" stroke="midnightblue" points="457.52,-162.08 465.35,-169.21 463.67,-158.75 457.52,-162.08"/>
</g>
<!-- Node2&#45;&gt;Node3 -->
<g id="edge2" class="edge">
<title>Node2&#45;&gt;Node3</title>
<path fill="none" stroke="midnightblue" d="M186.8,-324.1C176.57,-322.43 166.19,-320.74 156.12,-319.09"/>
<polygon fill="midnightblue" stroke="midnightblue" points="186.54,-327.6 196.97,-325.76 187.67,-320.7 186.54,-327.6"/>
</g>
<!-- Node4&#45;&gt;Node5 -->
<g id="edge4" class="edge">
<title>Node4&#45;&gt;Node5</title>
<path fill="none" stroke="midnightblue" d="M187.77,-245.16C177.22,-244.51 166.5,-243.86 156.11,-243.22"/>
<polygon fill="midnightblue" stroke="midnightblue" points="187.62,-248.66 197.82,-245.77 188.05,-241.67 187.62,-248.66"/>
</g>
</g>
</svg>
        <g id="navigator" transform="translate(0 0)" fill="#404254">
                <rect fill="#f2f5e9" fill-opacity="0.5" stroke="#606060" stroke-width=".5" x="0" y="0" width="60" height="60"/>
                <use id="zoomplus" xlink:href="#zoomPlus" x="17" y="9" onmousedown="handleZoom(evt,'in')"/>
                <use id="zoomminus" xlink:href="#zoomMin" x="42" y="9" onmousedown="handleZoom(evt,'out')"/>
                <use id="reset" xlink:href="#resetDef" x="30" y="36" onmousedown="handleReset()"/>
                <g id="arrowUp" xlink:href="#dirArrow" transform="translate(30 24)" onmousedown="handlePan(0,-1)">
                  <use xlink:href="#rim" fill="#404040">
                        <set attributeName="fill" to="#808080" begin="arrowUp.mouseover" end="arrowUp.mouseout"/>
                  </use>
                  <path fill="none" stroke="white" stroke-width="1.5" d="M0,-3.0v7 M-2.5,-0.5L0,-3.0L2.5,-0.5"/>
                </g>
                <g id="arrowRight" xlink:href="#dirArrow" transform="rotate(90) translate(36 -43)" onmousedown="handlePan(1,0)">
                  <use xlink:href="#rim" fill="#404040">
                        <set attributeName="fill" to="#808080" begin="arrowRight.mouseover" end="arrowRight.mouseout"/>
                  </use>
                  <path fill="none" stroke="white" stroke-width="1.5" d="M0,-3.0v7 M-2.5,-0.5L0,-3.0L2.5,-0.5"/>
                </g>
                <g id="arrowDown" xlink:href="#dirArrow" transform="rotate(180) translate(-30 -48)" onmousedown="handlePan(0,1)">
                  <use xlink:href="#rim" fill="#404040">
                        <set attributeName="fill" to="#808080" begin="arrowDown.mouseover" end="arrowDown.mouseout"/>
                  </use>
                  <path fill="none" stroke="white" stroke-width="1.5" d="M0,-3.0v7 M-2.5,-0.5L0,-3.0L2.5,-0.5"/>
                </g>
                <g id="arrowLeft" xlink:href="#dirArrow" transform="rotate(270) translate(-36 17)" onmousedown="handlePan(-1,0)">
                  <use xlink:href="#rim" fill="#404040">
                        <set attributeName="fill" to="#808080" begin="arrowLeft.mouseover" end="arrowLeft.mouseout"/>
                  </use>
                  <path fill="none" stroke="white" stroke-width="1.5" d="M0,-3.0v7 M-2.5,-0.5L0,-3.0L2.5,-0.5"/>
                </g>
        </g>
        <svg viewBox="0 0 15 15" width="100%" height="30px" preserveAspectRatio="xMaxYMin meet">
         <g id="arrow_out" transform="scale(0.3 0.3)">
          <a xlink:href="a01078_aa7de73f42c34b35a5ceee3ef90bf76bb_icgraph_org.svg" target="_base">
           <rect id="button" ry="5" rx="5" y="6" x="6" height="38" width="38"
                fill="#f2f5e9" fill-opacity="0.5" stroke="#606060" stroke-width="1.0"/>
           <path id="arrow"
             d="M 11.500037,31.436501 C 11.940474,20.09759 22.043105,11.32322 32.158766,21.979434 L 37.068811,17.246167 C 37.068811,17.246167 37.088388,32 37.088388,32 L 22.160133,31.978069 C 22.160133,31.978069 26.997745,27.140456 26.997745,27.140456 C 18.528582,18.264221 13.291696,25.230495 11.500037,31.436501 z"
             style="fill:#404040;"/>
          </a>
         </g>
        </svg>
</svg>
