<?xml version="1.0" encoding="UTF-8" standalone="no"?>
<!DOCTYPE svg PUBLIC "-//W3C//DTD SVG 1.1//EN"
 "http://www.w3.org/Graphics/SVG/1.1/DTD/svg11.dtd">
<!-- Generated by graphviz version 2.43.0 (0)
 -->
<!-- Title: com.cliffc.aa.node.MemPrimNode.rez Pages: 1 -->
<svg width="363pt" height="186pt"
 viewBox="0.00 0.00 363.00 186.00" xmlns="http://www.w3.org/2000/svg" xmlns:xlink="http://www.w3.org/1999/xlink">
<g id="graph0" class="graph" transform="scale(1 1) rotate(0) translate(4 182)">
<title>com.cliffc.aa.node.MemPrimNode.rez</title>
<!-- Node1 -->
<g id="node1" class="node">
<title>Node1</title>
<g id="a_node1"><a xlink:title=" ">
<polygon fill="#bfbfbf" stroke="black" points="199,-73.5 199,-103.5 355,-103.5 355,-73.5 199,-73.5"/>
<text text-anchor="start" x="207" y="-91.5" font-family="Helvetica,sans-Serif" font-size="10.00">com.cliffc.aa.node.MemPrim</text>
<text text-anchor="middle" x="277" y="-80.5" font-family="Helvetica,sans-Serif" font-size="10.00">Node.rez</text>
</a>
</g>
</g>
<!-- Node2 -->
<g id="node2" class="node">
<title>Node2</title>
<g id="a_node2"><a xlink:href="../../d6/dea/a01094.html#a1616305ca142a0ded405664d973719a1" target="_top" xlink:title=" ">
<polygon fill="none" stroke="black" points="3.5,-147.5 3.5,-177.5 159.5,-177.5 159.5,-147.5 3.5,-147.5"/>
<text text-anchor="start" x="11.5" y="-165.5" font-family="Helvetica,sans-Serif" font-size="10.00">com.cliffc.aa.node.MemPrim</text>
<text text-anchor="middle" x="81.5" y="-154.5" font-family="Helvetica,sans-Serif" font-size="10.00">Node.WritePrimNode.as_fun</text>
</a>
</g>
</g>
<!-- Node1&#45;&gt;Node2 -->
<g id="edge1" class="edge">
<title>Node1&#45;&gt;Node2</title>
<path fill="none" stroke="midnightblue" d="M235.69,-107.83C214.35,-117.68 187.55,-129.45 163,-138.5 154.52,-141.63 145.42,-144.65 136.51,-147.43"/>
<polygon fill="midnightblue" stroke="midnightblue" points="237.19,-110.99 244.78,-103.6 234.24,-104.64 237.19,-110.99"/>
</g>
<!-- Node3 -->
<g id="node3" class="node">
<title>Node3</title>
<g id="a_node3"><a xlink:href="../../d6/dea/a01094.html#a6c40cde3e85367a7f38db9453a1f9be5" target="_top" xlink:title=" ">
<polygon fill="none" stroke="black" points="0,-98.5 0,-128.5 163,-128.5 163,-98.5 0,-98.5"/>
<text text-anchor="start" x="8" y="-116.5" font-family="Helvetica,sans-Serif" font-size="10.00">com.cliffc.aa.node.MemPrim</text>
<text text-anchor="middle" x="81.5" y="-105.5" font-family="Helvetica,sans-Serif" font-size="10.00">Node.WritePrimNode.live_use</text>
</a>
</g>
</g>
<!-- Node1&#45;&gt;Node3 -->
<g id="edge2" class="edge">
<title>Node1&#45;&gt;Node3</title>
<path fill="none" stroke="midnightblue" d="M188.93,-99.75C180.32,-100.86 171.61,-101.99 163.07,-103.09"/>
<polygon fill="midnightblue" stroke="midnightblue" points="189.5,-103.21 198.97,-98.45 188.6,-96.26 189.5,-103.21"/>
</g>
<!-- Node4 -->
<g id="node4" class="node">
<title>Node4</title>
<g id="a_node4"><a xlink:href="../../d5/d17/a01098.html#a4403da48624949a5b7506d886449d119" target="_top" xlink:title=" ">
<polygon fill="none" stroke="black" points="3.5,-49.5 3.5,-79.5 159.5,-79.5 159.5,-49.5 3.5,-49.5"/>
<text text-anchor="start" x="11.5" y="-67.5" font-family="Helvetica,sans-Serif" font-size="10.00">com.cliffc.aa.node.MemPrim</text>
<text text-anchor="middle" x="81.5" y="-56.5" font-family="Helvetica,sans-Serif" font-size="10.00">Node.LValueWrite.unify</text>
</a>
</g>
</g>
<!-- Node1&#45;&gt;Node4 -->
<g id="edge3" class="edge">
<title>Node1&#45;&gt;Node4</title>
<path fill="none" stroke="midnightblue" d="M188.86,-77.69C179.1,-76.48 169.21,-75.25 159.58,-74.06"/>
<polygon fill="midnightblue" stroke="midnightblue" points="188.61,-81.19 198.97,-78.95 189.47,-74.24 188.61,-81.19"/>
</g>
<!-- Node5 -->
<g id="node5" class="node">
<title>Node5</title>
<g id="a_node5"><a xlink:href="../../d4/da7/a01102.html#ac9ab60693bfa7f337edf3358ff6da7d4" target="_top" xlink:title=" ">
<polygon fill="none" stroke="black" points="3.5,-0.5 3.5,-30.5 159.5,-30.5 159.5,-0.5 3.5,-0.5"/>
<text text-anchor="start" x="11.5" y="-18.5" font-family="Helvetica,sans-Serif" font-size="10.00">com.cliffc.aa.node.MemPrim</text>
<text text-anchor="middle" x="81.5" y="-7.5" font-family="Helvetica,sans-Serif" font-size="10.00">Node.LValueWriteFinal.unify</text>
</a>
</g>
</g>
<!-- Node1&#45;&gt;Node5 -->
<g id="edge4" class="edge">
<title>Node1&#45;&gt;Node5</title>
<path fill="none" stroke="midnightblue" d="M233.45,-69.23C212.44,-60.02 186.6,-49.15 163,-40.5 153.66,-37.07 143.6,-33.71 133.86,-30.6"/>
<polygon fill="midnightblue" stroke="midnightblue" points="232.17,-72.49 242.73,-73.32 235,-66.08 232.17,-72.49"/>
</g>
</g>
</svg>
