<?xml version="1.0" encoding="UTF-8" standalone="no"?>
<!DOCTYPE svg PUBLIC "-//W3C//DTD SVG 1.1//EN"
 "http://www.w3.org/Graphics/SVG/1.1/DTD/svg11.dtd">
<!-- Generated by graphviz version 2.43.0 (0)
 -->
<!-- Title: com.cliffc.aa.HM.TestHM.reset Pages: 1 -->
<svg width="998pt" height="193pt"
 viewBox="0.00 0.00 998.00 192.50" xmlns="http://www.w3.org/2000/svg" xmlns:xlink="http://www.w3.org/1999/xlink">
<g id="graph0" class="graph" transform="scale(1 1) rotate(0) translate(4 188.5)">
<title>com.cliffc.aa.HM.TestHM.reset</title>
<!-- Node1 -->
<g id="node1" class="node">
<title>Node1</title>
<g id="a_node1"><a xlink:title=" ">
<polygon fill="#bfbfbf" stroke="black" points="0,-77 0,-96 165,-96 165,-77 0,-77"/>
<text text-anchor="middle" x="82.5" y="-84" font-family="Helvetica,sans-Serif" font-size="10.00">com.cliffc.aa.HM.TestHM.reset</text>
</a>
</g>
</g>
<!-- Node2 -->
<g id="node2" class="node">
<title>Node2</title>
<g id="a_node2"><a xlink:href="../../d4/d6d/a00402.html#a4f2115c126936b538ec27e313b396da6" target="_top" xlink:title=" ">
<polygon fill="none" stroke="black" points="201,-77 201,-96 347,-96 347,-77 201,-77"/>
<text text-anchor="middle" x="274" y="-84" font-family="Helvetica,sans-Serif" font-size="10.00">com.cliffc.aa.HM.HM.reset</text>
</a>
</g>
</g>
<!-- Node1&#45;&gt;Node2 -->
<g id="edge1" class="edge">
<title>Node1&#45;&gt;Node2</title>
<path fill="none" stroke="midnightblue" d="M165.24,-86.5C173.64,-86.5 182.19,-86.5 190.6,-86.5"/>
<polygon fill="midnightblue" stroke="midnightblue" points="190.77,-90 200.77,-86.5 190.77,-83 190.77,-90"/>
</g>
<!-- Node3 -->
<g id="node3" class="node">
<title>Node3</title>
<g id="a_node3"><a xlink:href="../../d7/d9f/a00454.html#a45cf772579c402f80869df8a840b518f" target="_top" xlink:title=" ">
<polygon fill="none" stroke="black" points="400,-137.5 400,-167.5 543,-167.5 543,-137.5 400,-137.5"/>
<text text-anchor="start" x="408" y="-155.5" font-family="Helvetica,sans-Serif" font-size="10.00">com.cliffc.aa.HM.HM.Prim</text>
<text text-anchor="middle" x="471.5" y="-144.5" font-family="Helvetica,sans-Serif" font-size="10.00">Syn.reset</text>
</a>
</g>
</g>
<!-- Node2&#45;&gt;Node3 -->
<g id="edge2" class="edge">
<title>Node2&#45;&gt;Node3</title>
<path fill="none" stroke="midnightblue" d="M298.39,-96.04C320.13,-104.74 353.5,-117.7 383,-127.5 390.27,-129.92 397.93,-132.31 405.57,-134.61"/>
<polygon fill="midnightblue" stroke="midnightblue" points="404.62,-137.98 415.2,-137.47 406.61,-131.27 404.62,-137.98"/>
</g>
<!-- Node8 -->
<g id="node8" class="node">
<title>Node8</title>
<g id="a_node8"><a xlink:href="../../d6/d90/a00514.html#acb5f5085a53ba550fa79adf370d3bd80" target="_top" xlink:title=" ">
<polygon fill="none" stroke="black" points="391,-99 391,-118 552,-118 552,-99 391,-99"/>
<text text-anchor="middle" x="471.5" y="-106" font-family="Helvetica,sans-Serif" font-size="10.00">com.cliffc.aa.HM.HM.T2.reset</text>
</a>
</g>
</g>
<!-- Node2&#45;&gt;Node8 -->
<g id="edge7" class="edge">
<title>Node2&#45;&gt;Node8</title>
<path fill="none" stroke="midnightblue" d="M347.24,-94.63C358.15,-95.86 369.52,-97.14 380.74,-98.4"/>
<polygon fill="midnightblue" stroke="midnightblue" points="380.66,-101.91 390.99,-99.55 381.44,-94.96 380.66,-101.91"/>
</g>
<!-- Node9 -->
<g id="node9" class="node">
<title>Node9</title>
<g id="a_node9"><a xlink:href="../../d1/de7/a01434.html#a420938c506719566780835cd0abe09c9" target="_top" xlink:title=" ">
<polygon fill="none" stroke="black" points="386.5,-49.5 386.5,-79.5 556.5,-79.5 556.5,-49.5 386.5,-49.5"/>
<text text-anchor="start" x="394.5" y="-67.5" font-family="Helvetica,sans-Serif" font-size="10.00">com.cliffc.aa.type.BitsFun.reset</text>
<text text-anchor="middle" x="471.5" y="-56.5" font-family="Helvetica,sans-Serif" font-size="10.00">_to_init0</text>
</a>
</g>
</g>
<!-- Node2&#45;&gt;Node9 -->
<g id="edge8" class="edge">
<title>Node2&#45;&gt;Node9</title>
<path fill="none" stroke="midnightblue" d="M347.24,-78.37C356.69,-77.31 366.47,-76.21 376.21,-75.11"/>
<polygon fill="midnightblue" stroke="midnightblue" points="376.79,-78.57 386.33,-73.97 376,-71.61 376.79,-78.57"/>
</g>
<!-- Node10 -->
<g id="node10" class="node">
<title>Node10</title>
<g id="a_node10"><a xlink:href="../../d8/dd0/a01430.html#adacdf01a4b2a7f7aefc7cbfc512bd6fc" target="_top" xlink:title=" ">
<polygon fill="none" stroke="black" points="383,-0.5 383,-30.5 560,-30.5 560,-0.5 383,-0.5"/>
<text text-anchor="start" x="391" y="-18.5" font-family="Helvetica,sans-Serif" font-size="10.00">com.cliffc.aa.type.BitsAlias.reset</text>
<text text-anchor="middle" x="471.5" y="-7.5" font-family="Helvetica,sans-Serif" font-size="10.00">_to_init0</text>
</a>
</g>
</g>
<!-- Node2&#45;&gt;Node10 -->
<g id="edge9" class="edge">
<title>Node2&#45;&gt;Node10</title>
<path fill="none" stroke="midnightblue" d="M294.57,-76.97C315.95,-66.81 351.37,-50.65 383,-39.5 388.85,-37.44 394.97,-35.44 401.14,-33.54"/>
<polygon fill="midnightblue" stroke="midnightblue" points="402.26,-36.86 410.84,-30.63 400.26,-30.15 402.26,-36.86"/>
</g>
<!-- Node4 -->
<g id="node4" class="node">
<title>Node4</title>
<g id="a_node4"><a xlink:href="../../d6/d90/a00514.html#aeaf55e45bb30e1c91287e57a84cf416d" target="_top" xlink:title=" ">
<polygon fill="none" stroke="black" points="596,-165 596,-184 787,-184 787,-165 596,-165"/>
<text text-anchor="middle" x="691.5" y="-172" font-family="Helvetica,sans-Serif" font-size="10.00">com.cliffc.aa.HM.HM.T2.make_base</text>
</a>
</g>
</g>
<!-- Node3&#45;&gt;Node4 -->
<g id="edge3" class="edge">
<title>Node3&#45;&gt;Node4</title>
<path fill="none" stroke="midnightblue" d="M543.28,-159.64C557.02,-161.03 571.68,-162.51 586.23,-163.98"/>
<polygon fill="midnightblue" stroke="midnightblue" points="585.98,-167.47 596.28,-164.99 586.68,-160.5 585.98,-167.47"/>
</g>
<!-- Node6 -->
<g id="node6" class="node">
<title>Node6</title>
<g id="a_node6"><a xlink:href="../../d8/dd0/a01430.html#aac21b340494a304ca99864578b6ee2bc" target="_top" xlink:title=" ">
<polygon fill="none" stroke="black" points="605,-115.5 605,-145.5 778,-145.5 778,-115.5 605,-115.5"/>
<text text-anchor="start" x="613" y="-133.5" font-family="Helvetica,sans-Serif" font-size="10.00">com.cliffc.aa.type.BitsAlias.new</text>
<text text-anchor="middle" x="691.5" y="-122.5" font-family="Helvetica,sans-Serif" font-size="10.00">_alias</text>
</a>
</g>
</g>
<!-- Node3&#45;&gt;Node6 -->
<g id="edge5" class="edge">
<title>Node3&#45;&gt;Node6</title>
<path fill="none" stroke="midnightblue" d="M543.28,-145.36C559.7,-143.7 577.44,-141.91 594.74,-140.16"/>
<polygon fill="midnightblue" stroke="midnightblue" points="595.26,-143.63 604.86,-139.14 594.56,-136.66 595.26,-143.63"/>
</g>
<!-- Node5 -->
<g id="node5" class="node">
<title>Node5</title>
<g id="a_node5"><a xlink:href="../../d6/d90/a00514.html#a26fdb3cb11feddd848b589240ce39dc2" target="_top" xlink:title=" ">
<polygon fill="none" stroke="black" points="832.5,-165 832.5,-184 980.5,-184 980.5,-165 832.5,-165"/>
<text text-anchor="middle" x="906.5" y="-172" font-family="Helvetica,sans-Serif" font-size="10.00">com.cliffc.aa.HM.HM.T2.T2</text>
</a>
</g>
</g>
<!-- Node4&#45;&gt;Node5 -->
<g id="edge4" class="edge">
<title>Node4&#45;&gt;Node5</title>
<path fill="none" stroke="midnightblue" d="M787.17,-174.5C798.73,-174.5 810.49,-174.5 821.88,-174.5"/>
<polygon fill="midnightblue" stroke="midnightblue" points="822.23,-178 832.23,-174.5 822.23,-171 822.23,-178"/>
</g>
<!-- Node7 -->
<g id="node7" class="node">
<title>Node7</title>
<g id="a_node7"><a xlink:href="../../d8/dd0/a01430.html#a491b77d1b9076feaf271aa8b8b6eacf9" target="_top" xlink:title=" ">
<polygon fill="none" stroke="black" points="823,-115.5 823,-145.5 990,-145.5 990,-115.5 823,-115.5"/>
<text text-anchor="start" x="831" y="-133.5" font-family="Helvetica,sans-Serif" font-size="10.00">com.cliffc.aa.type.BitsAlias.set</text>
<text text-anchor="middle" x="906.5" y="-122.5" font-family="Helvetica,sans-Serif" font-size="10.00">_alias</text>
</a>
</g>
</g>
<!-- Node6&#45;&gt;Node7 -->
<g id="edge6" class="edge">
<title>Node6&#45;&gt;Node7</title>
<path fill="none" stroke="midnightblue" d="M778.21,-130.5C789.57,-130.5 801.25,-130.5 812.72,-130.5"/>
<polygon fill="midnightblue" stroke="midnightblue" points="812.73,-134 822.73,-130.5 812.73,-127 812.73,-134"/>
</g>
</g>
</svg>
