<?xml version="1.0" encoding="UTF-8" standalone="no"?>
<!DOCTYPE svg PUBLIC "-//W3C//DTD SVG 1.1//EN"
 "http://www.w3.org/Graphics/SVG/1.1/DTD/svg11.dtd">
<!-- Generated by graphviz version 2.43.0 (0)
 -->
<!-- Title: com.cliffc.aa.util.NonBlockingHashMapLong.contains Pages: 1 -->
<svg width="368pt" height="170pt"
 viewBox="0.00 0.00 368.00 170.00" xmlns="http://www.w3.org/2000/svg" xmlns:xlink="http://www.w3.org/1999/xlink">
<g id="graph0" class="graph" transform="scale(1 1) rotate(0) translate(4 166)">
<title>com.cliffc.aa.util.NonBlockingHashMapLong.contains</title>
<!-- Node1 -->
<g id="node1" class="node">
<title>Node1</title>
<g id="a_node1"><a xlink:title="Legacy method testing if some key maps into the specified value in this table.">
<polygon fill="#bfbfbf" stroke="black" points="198,-66 198,-96 360,-96 360,-66 198,-66"/>
<text text-anchor="start" x="206" y="-84" font-family="Helvetica,sans-Serif" font-size="10.00">com.cliffc.aa.util.NonBlocking</text>
<text text-anchor="middle" x="279" y="-73" font-family="Helvetica,sans-Serif" font-size="10.00">HashMapLong.contains</text>
</a>
</g>
</g>
<!-- Node2 -->
<g id="node2" class="node">
<title>Node2</title>
<g id="a_node2"><a xlink:href="../../d3/d2d/a01606.html#aa7a1c1b620739a2d9bdb3880d7983ed4" target="_top" xlink:title="Returns a Set view of the mappings contained in this map.">
<polygon fill="none" stroke="black" points="0,-120.5 0,-161.5 162,-161.5 162,-120.5 0,-120.5"/>
<text text-anchor="start" x="8" y="-149.5" font-family="Helvetica,sans-Serif" font-size="10.00">com.cliffc.aa.util.NonBlocking</text>
<text text-anchor="start" x="8" y="-138.5" font-family="Helvetica,sans-Serif" font-size="10.00">HashMapLong&lt; TypeStruct &gt;</text>
<text text-anchor="middle" x="81" y="-127.5" font-family="Helvetica,sans-Serif" font-size="10.00">::entrySet</text>
</a>
</g>
</g>
<!-- Node1&#45;&gt;Node2 -->
<g id="edge1" class="edge">
<title>Node1&#45;&gt;Node2</title>
<path fill="none" stroke="midnightblue" d="M219.21,-99C197.1,-105.77 171.8,-113.51 149,-120.49"/>
<polygon fill="midnightblue" stroke="midnightblue" points="220.26,-102.34 228.79,-96.06 218.21,-95.64 220.26,-102.34"/>
</g>
<!-- Node3 -->
<g id="node3" class="node">
<title>Node3</title>
<g id="a_node3"><a xlink:href="../../d3/d2d/a01606.html#a18a734e4ffc0d72d3967327342c074d9" target="_top" xlink:title="Returns a Set view of the keys contained in this map; with care the keys may be iterated over without...">
<polygon fill="none" stroke="black" points="0,-60.5 0,-101.5 162,-101.5 162,-60.5 0,-60.5"/>
<text text-anchor="start" x="8" y="-89.5" font-family="Helvetica,sans-Serif" font-size="10.00">com.cliffc.aa.util.NonBlocking</text>
<text text-anchor="start" x="8" y="-78.5" font-family="Helvetica,sans-Serif" font-size="10.00">HashMapLong&lt; TypeStruct &gt;</text>
<text text-anchor="middle" x="81" y="-67.5" font-family="Helvetica,sans-Serif" font-size="10.00">::keySet</text>
</a>
</g>
</g>
<!-- Node1&#45;&gt;Node3 -->
<g id="edge2" class="edge">
<title>Node1&#45;&gt;Node3</title>
<path fill="none" stroke="midnightblue" d="M187.92,-81C179.3,-81 170.59,-81 162.07,-81"/>
<polygon fill="midnightblue" stroke="midnightblue" points="188,-84.5 198,-81 188,-77.5 188,-84.5"/>
</g>
<!-- Node4 -->
<g id="node4" class="node">
<title>Node4</title>
<g id="a_node4"><a xlink:href="../../d3/d2d/a01606.html#a7dabc238f566bd1039cc62b63af734ed" target="_top" xlink:title="Returns a Collection view of the values contained in this map.">
<polygon fill="none" stroke="black" points="0,-0.5 0,-41.5 162,-41.5 162,-0.5 0,-0.5"/>
<text text-anchor="start" x="8" y="-29.5" font-family="Helvetica,sans-Serif" font-size="10.00">com.cliffc.aa.util.NonBlocking</text>
<text text-anchor="start" x="8" y="-18.5" font-family="Helvetica,sans-Serif" font-size="10.00">HashMapLong&lt; TypeStruct &gt;</text>
<text text-anchor="middle" x="81" y="-7.5" font-family="Helvetica,sans-Serif" font-size="10.00">::values</text>
</a>
</g>
</g>
<!-- Node1&#45;&gt;Node4 -->
<g id="edge3" class="edge">
<title>Node1&#45;&gt;Node4</title>
<path fill="none" stroke="midnightblue" d="M219.21,-63C197.1,-56.23 171.8,-48.49 149,-41.51"/>
<polygon fill="midnightblue" stroke="midnightblue" points="218.21,-66.36 228.79,-65.94 220.26,-59.66 218.21,-66.36"/>
</g>
</g>
</svg>
