<?xml version="1.0" encoding="UTF-8" standalone="no"?>
<!DOCTYPE svg PUBLIC "-//W3C//DTD SVG 1.1//EN"
 "http://www.w3.org/Graphics/SVG/1.1/DTD/svg11.dtd">
<!-- Generated by graphviz version 2.43.0 (0)
 -->
<!-- Title: com.cliffc.aa.util.NonBlockingHashMapLong&lt; TypeV &gt;.NBHMLEntry Pages: 1 -->
<svg width="210pt" height="253pt"
 viewBox="0.00 0.00 210.00 253.00" xmlns="http://www.w3.org/2000/svg" xmlns:xlink="http://www.w3.org/1999/xlink">
<g id="graph0" class="graph" transform="scale(1 1) rotate(0) translate(4 249)">
<title>com.cliffc.aa.util.NonBlockingHashMapLong&lt; TypeV &gt;.NBHMLEntry</title>
<!-- Node1 -->
<g id="node1" class="node">
<title>Node1</title>
<g id="a_node1"><a xlink:title=" ">
<polygon fill="#bfbfbf" stroke="black" points="0,-0.5 0,-30.5 202,-30.5 202,-0.5 0,-0.5"/>
<text text-anchor="start" x="8" y="-18.5" font-family="Helvetica,sans-Serif" font-size="10.00">com.cliffc.aa.util.NonBlocking</text>
<text text-anchor="middle" x="101" y="-7.5" font-family="Helvetica,sans-Serif" font-size="10.00">HashMapLong&lt; TypeV &gt;.NBHMLEntry</text>
</a>
</g>
</g>
<!-- Node2 -->
<g id="node2" class="node">
<title>Node2</title>
<g id="a_node2"><a xlink:href="../../d7/def/a01538.html" target="_top" xlink:title=" ">
<polygon fill="none" stroke="black" points="30.5,-68.5 30.5,-98.5 171.5,-98.5 171.5,-68.5 30.5,-68.5"/>
<text text-anchor="start" x="38.5" y="-86.5" font-family="Helvetica,sans-Serif" font-size="10.00">com.cliffc.aa.util.Abstract</text>
<text text-anchor="middle" x="101" y="-75.5" font-family="Helvetica,sans-Serif" font-size="10.00">Entry&lt; Long, TypeV &gt;</text>
</a>
</g>
</g>
<!-- Node2&#45;&gt;Node1 -->
<g id="edge1" class="edge">
<title>Node2&#45;&gt;Node1</title>
<path fill="none" stroke="midnightblue" d="M101,-58.03C101,-48.86 101,-38.74 101,-30.79"/>
<polygon fill="midnightblue" stroke="midnightblue" points="97.5,-58.18 101,-68.18 104.5,-58.18 97.5,-58.18"/>
</g>
<!-- Node3 -->
<g id="node3" class="node">
<title>Node3</title>
<g id="a_node3"><a xlink:href="../../d7/def/a01538.html" target="_top" xlink:title="A simple implementation of java.util.Map.Entry.">
<polygon fill="none" stroke="black" points="30.5,-146.5 30.5,-176.5 171.5,-176.5 171.5,-146.5 30.5,-146.5"/>
<text text-anchor="start" x="38.5" y="-164.5" font-family="Helvetica,sans-Serif" font-size="10.00">com.cliffc.aa.util.Abstract</text>
<text text-anchor="middle" x="101" y="-153.5" font-family="Helvetica,sans-Serif" font-size="10.00">Entry&lt; TypeK, TypeV &gt;</text>
</a>
</g>
</g>
<!-- Node3&#45;&gt;Node2 -->
<g id="edge2" class="edge">
<title>Node3&#45;&gt;Node2</title>
<path fill="none" stroke="orange" stroke-dasharray="5,2" d="M101,-136.09C101,-123.76 101,-109.22 101,-98.73"/>
<polygon fill="orange" stroke="orange" points="97.5,-136.2 101,-146.2 104.5,-136.21 97.5,-136.2"/>
<text text-anchor="middle" x="143.5" y="-120" font-family="Helvetica,sans-Serif" font-size="10.00"> &lt; Long, TypeV &gt;</text>
</g>
<!-- Node4 -->
<g id="node4" class="node">
<title>Node4</title>
<g id="a_node4"><a xlink:title=" ">
<polygon fill="none" stroke="#bfbfbf" points="44.5,-214.5 44.5,-244.5 157.5,-244.5 157.5,-214.5 44.5,-214.5"/>
<text text-anchor="start" x="52.5" y="-232.5" font-family="Helvetica,sans-Serif" font-size="10.00">Map::Entry&lt; TypeK,</text>
<text text-anchor="middle" x="101" y="-221.5" font-family="Helvetica,sans-Serif" font-size="10.00"> TypeV &gt;</text>
</a>
</g>
</g>
<!-- Node4&#45;&gt;Node3 -->
<g id="edge3" class="edge">
<title>Node4&#45;&gt;Node3</title>
<path fill="none" stroke="midnightblue" d="M101,-204.03C101,-194.86 101,-184.74 101,-176.79"/>
<polygon fill="midnightblue" stroke="midnightblue" points="97.5,-204.18 101,-214.18 104.5,-204.18 97.5,-204.18"/>
</g>
</g>
</svg>
