<?xml version="1.0" encoding="UTF-8" standalone="no"?>
<!DOCTYPE svg PUBLIC "-//W3C//DTD SVG 1.1//EN"
 "http://www.w3.org/Graphics/SVG/1.1/DTD/svg11.dtd">
<!-- Generated by graphviz version 2.43.0 (0)
 -->
<!-- Title: com.cliffc.aa.type.TypeFld.xmeet Pages: 1 -->
<svg width="669pt" height="66pt"
 viewBox="0.00 0.00 669.00 66.00" xmlns="http://www.w3.org/2000/svg" xmlns:xlink="http://www.w3.org/1999/xlink">
<g id="graph0" class="graph" transform="scale(1 1) rotate(0) translate(4 62)">
<title>com.cliffc.aa.type.TypeFld.xmeet</title>
<!-- Node1 -->
<g id="node1" class="node">
<title>Node1</title>
<g id="a_node1"><a xlink:title=" ">
<polygon fill="#bfbfbf" stroke="black" points="482,-19.5 482,-38.5 661,-38.5 661,-19.5 482,-19.5"/>
<text text-anchor="middle" x="571.5" y="-26.5" font-family="Helvetica,sans-Serif" font-size="10.00">com.cliffc.aa.type.TypeFld.xmeet</text>
</a>
</g>
</g>
<!-- Node2 -->
<g id="node2" class="node">
<title>Node2</title>
<g id="a_node2"><a xlink:href="../../da/da6/a01522.html#a94b36b8963e3344985c7d4ec3752dc53" target="_top" xlink:title=" ">
<polygon fill="none" stroke="black" points="248,-19.5 248,-38.5 446,-38.5 446,-19.5 248,-19.5"/>
<text text-anchor="middle" x="347" y="-26.5" font-family="Helvetica,sans-Serif" font-size="10.00">com.cliffc.aa.type.TypeStruct.xmeet1</text>
</a>
</g>
</g>
<!-- Node1&#45;&gt;Node2 -->
<g id="edge1" class="edge">
<title>Node1&#45;&gt;Node2</title>
<path fill="none" stroke="midnightblue" d="M471.65,-29C463.18,-29 454.62,-29 446.15,-29"/>
<polygon fill="midnightblue" stroke="midnightblue" points="471.92,-32.5 481.92,-29 471.92,-25.5 471.92,-32.5"/>
</g>
<!-- Node3 -->
<g id="node3" class="node">
<title>Node3</title>
<g id="a_node3"><a xlink:href="../../da/da6/a01522.html#aa6af35e937d8b44b8cad982a8a29082c" target="_top" xlink:title=" ">
<polygon fill="none" stroke="black" points="0,-38.5 0,-57.5 212,-57.5 212,-38.5 0,-38.5"/>
<text text-anchor="middle" x="106" y="-45.5" font-family="Helvetica,sans-Serif" font-size="10.00">com.cliffc.aa.type.TypeStruct.meet_loop</text>
</a>
</g>
</g>
<!-- Node2&#45;&gt;Node3 -->
<g id="edge2" class="edge">
<title>Node2&#45;&gt;Node3</title>
<path fill="none" stroke="midnightblue" d="M237.54,-37.62C229.12,-38.29 220.63,-38.97 212.23,-39.63"/>
<polygon fill="midnightblue" stroke="midnightblue" points="238.06,-41.09 247.75,-36.81 237.51,-34.11 238.06,-41.09"/>
</g>
<!-- Node4 -->
<g id="node4" class="node">
<title>Node4</title>
<g id="a_node4"><a xlink:href="../../da/da6/a01522.html#a8bfc72a6d7c52e1b8f25dc0a0604b1ce" target="_top" xlink:title=" ">
<polygon fill="none" stroke="black" points="10,-0.5 10,-19.5 202,-19.5 202,-0.5 10,-0.5"/>
<text text-anchor="middle" x="106" y="-7.5" font-family="Helvetica,sans-Serif" font-size="10.00">com.cliffc.aa.type.TypeStruct.xmeet</text>
</a>
</g>
</g>
<!-- Node2&#45;&gt;Node4 -->
<g id="edge3" class="edge">
<title>Node2&#45;&gt;Node4</title>
<path fill="none" stroke="midnightblue" d="M237.46,-20.37C225.68,-19.43 213.76,-18.49 202.17,-17.57"/>
<polygon fill="midnightblue" stroke="midnightblue" points="237.51,-23.89 247.75,-21.19 238.06,-16.91 237.51,-23.89"/>
</g>
</g>
</svg>
