<?xml version="1.0" encoding="UTF-8" standalone="no"?>
<!DOCTYPE svg PUBLIC "-//W3C//DTD SVG 1.1//EN"
 "http://www.w3.org/Graphics/SVG/1.1/DTD/svg11.dtd">
<!-- Generated by graphviz version 2.43.0 (0)
 -->
<!-- Title: com.cliffc.aa.type.TypeFld.fld_find Pages: 1 -->
<svg width="1574pt" height="713pt"
 viewBox="0.00 0.00 1574.00 712.50" xmlns="http://www.w3.org/2000/svg" xmlns:xlink="http://www.w3.org/1999/xlink">
<g id="graph0" class="graph" transform="scale(1 1) rotate(0) translate(4 708.5)">
<title>com.cliffc.aa.type.TypeFld.fld_find</title>
<!-- Node1 -->
<g id="node1" class="node">
<title>Node1</title>
<g id="a_node1"><a xlink:title=" ">
<polygon fill="#bfbfbf" stroke="black" points="1384,-383 1384,-402 1566,-402 1566,-383 1384,-383"/>
<text text-anchor="middle" x="1475" y="-390" font-family="Helvetica,sans-Serif" font-size="10.00">com.cliffc.aa.type.TypeFld.fld_find</text>
</a>
</g>
</g>
<!-- Node2 -->
<g id="node2" class="node">
<title>Node2</title>
<g id="a_node2"><a xlink:href="../../da/da6/a01522.html#aec3e7b3c5046f4c39cf2d40f89b8c27f" target="_top" xlink:title=" ">
<polygon fill="none" stroke="black" points="1152,-383 1152,-402 1348,-402 1348,-383 1152,-383"/>
<text text-anchor="middle" x="1250" y="-390" font-family="Helvetica,sans-Serif" font-size="10.00">com.cliffc.aa.type.TypeStruct.fld_find</text>
</a>
</g>
</g>
<!-- Node1&#45;&gt;Node2 -->
<g id="edge1" class="edge">
<title>Node1&#45;&gt;Node2</title>
<path fill="none" stroke="midnightblue" d="M1373.7,-392.5C1365.26,-392.5 1356.74,-392.5 1348.32,-392.5"/>
<polygon fill="midnightblue" stroke="midnightblue" points="1373.94,-396 1383.94,-392.5 1373.94,-389 1373.94,-396"/>
</g>
<!-- Node3 -->
<g id="node3" class="node">
<title>Node3</title>
<g id="a_node3"><a xlink:href="../../da/da6/a01522.html#acaf661dc55401abf9109674668809714" target="_top" xlink:title=" ">
<polygon fill="none" stroke="black" points="919,-685 919,-704 1115,-704 1115,-685 919,-685"/>
<text text-anchor="middle" x="1017" y="-692" font-family="Helvetica,sans-Serif" font-size="10.00">com.cliffc.aa.type.TypeStruct.add_fld</text>
</a>
</g>
</g>
<!-- Node2&#45;&gt;Node3 -->
<g id="edge2" class="edge">
<title>Node2&#45;&gt;Node3</title>
<path fill="none" stroke="midnightblue" d="M1245.97,-412.18C1236.85,-464.28 1204.6,-606.53 1116,-675.5 1111.21,-679.23 1105.9,-682.29 1100.3,-684.8"/>
<polygon fill="midnightblue" stroke="midnightblue" points="1249.44,-412.67 1247.62,-402.23 1242.53,-411.53 1249.44,-412.67"/>
</g>
<!-- Node4 -->
<g id="node4" class="node">
<title>Node4</title>
<g id="a_node4"><a xlink:href="../../d2/dff/a01374.html#ad8dbf1a4e3b6c493dcc5dc25ed632f96" target="_top" xlink:title=" ">
<polygon fill="none" stroke="black" points="721,-588.5 721,-618.5 855,-618.5 855,-588.5 721,-588.5"/>
<text text-anchor="start" x="729" y="-606.5" font-family="Helvetica,sans-Serif" font-size="10.00">com.cliffc.aa.node.Store</text>
<text text-anchor="middle" x="788" y="-595.5" font-family="Helvetica,sans-Serif" font-size="10.00">Node.err</text>
</a>
</g>
</g>
<!-- Node2&#45;&gt;Node4 -->
<g id="edge3" class="edge">
<title>Node2&#45;&gt;Node4</title>
<path fill="none" stroke="midnightblue" d="M1242.58,-411.71C1227.75,-452.61 1186.89,-547.79 1116,-587.5 1035.17,-632.77 924.7,-626.88 855.11,-616.62"/>
<polygon fill="midnightblue" stroke="midnightblue" points="1245.93,-412.72 1245.93,-402.13 1239.32,-410.41 1245.93,-412.72"/>
</g>
<!-- Node7 -->
<g id="node7" class="node">
<title>Node7</title>
<g id="a_node7"><a xlink:href="../../d0/dfb/a01066.html#af62d2b9b8d98a334d90f5126a53024ce" target="_top" xlink:title=" ">
<polygon fill="none" stroke="black" points="927.5,-471 927.5,-490 1106.5,-490 1106.5,-471 927.5,-471"/>
<text text-anchor="middle" x="1017" y="-478" font-family="Helvetica,sans-Serif" font-size="10.00">com.cliffc.aa.node.LoadNode.find</text>
</a>
</g>
</g>
<!-- Node2&#45;&gt;Node7 -->
<g id="edge6" class="edge">
<title>Node2&#45;&gt;Node7</title>
<path fill="none" stroke="midnightblue" d="M1225.37,-407.43C1199.47,-423.14 1156.26,-447.48 1116,-461.5 1105.03,-465.32 1093.1,-468.44 1081.44,-470.97"/>
<polygon fill="midnightblue" stroke="midnightblue" points="1227.4,-410.29 1234.08,-402.07 1223.73,-404.33 1227.4,-410.29"/>
</g>
<!-- Node12 -->
<g id="node12" class="node">
<title>Node12</title>
<g id="a_node12"><a xlink:href="../../d2/dff/a01374.html#a685f0d96a6856eed16e172b64bb2ee67" target="_top" xlink:title=" ">
<polygon fill="none" stroke="black" points="950,-547.5 950,-577.5 1084,-577.5 1084,-547.5 950,-547.5"/>
<text text-anchor="start" x="958" y="-565.5" font-family="Helvetica,sans-Serif" font-size="10.00">com.cliffc.aa.node.Store</text>
<text text-anchor="middle" x="1017" y="-554.5" font-family="Helvetica,sans-Serif" font-size="10.00">Node.find</text>
</a>
</g>
</g>
<!-- Node2&#45;&gt;Node12 -->
<g id="edge12" class="edge">
<title>Node2&#45;&gt;Node12</title>
<path fill="none" stroke="midnightblue" d="M1237.66,-410.53C1217.25,-441.45 1171.26,-504.44 1116,-537.5 1106.28,-543.31 1095.24,-547.79 1084.16,-551.22"/>
<polygon fill="midnightblue" stroke="midnightblue" points="1240.67,-412.33 1243.16,-402.03 1234.79,-408.53 1240.67,-412.33"/>
</g>
<!-- Node13 -->
<g id="node13" class="node">
<title>Node13</title>
<g id="a_node13"><a xlink:href="../../d6/d51/a01494.html#a18668e739a74b0f3f3d9e3051f865ede" target="_top" xlink:title=" ">
<polygon fill="none" stroke="black" points="932.5,-635.5 932.5,-665.5 1101.5,-665.5 1101.5,-635.5 932.5,-635.5"/>
<text text-anchor="start" x="940.5" y="-653.5" font-family="Helvetica,sans-Serif" font-size="10.00">com.cliffc.aa.type.TypeMem.fld</text>
<text text-anchor="middle" x="1017" y="-642.5" font-family="Helvetica,sans-Serif" font-size="10.00">_is_mod</text>
</a>
</g>
</g>
<!-- Node2&#45;&gt;Node13 -->
<g id="edge13" class="edge">
<title>Node2&#45;&gt;Node13</title>
<path fill="none" stroke="midnightblue" d="M1243.02,-412.26C1228.63,-456.39 1187.86,-563.58 1116,-620.5 1108.26,-626.63 1099.27,-631.51 1089.93,-635.4"/>
<polygon fill="midnightblue" stroke="midnightblue" points="1246.43,-413.05 1246.11,-402.46 1239.76,-410.95 1246.43,-413.05"/>
</g>
<!-- Node15 -->
<g id="node15" class="node">
<title>Node15</title>
<g id="a_node15"><a xlink:href="../../d0/dfb/a01066.html#ae70cc2ea02a0daf20f60cf555d413784" target="_top" xlink:title=" ">
<polygon fill="none" stroke="black" points="920,-509 920,-528 1114,-528 1114,-509 920,-509"/>
<text text-anchor="middle" x="1017" y="-516" font-family="Helvetica,sans-Serif" font-size="10.00">com.cliffc.aa.node.LoadNode.get_fld</text>
</a>
</g>
</g>
<!-- Node2&#45;&gt;Node15 -->
<g id="edge16" class="edge">
<title>Node2&#45;&gt;Node15</title>
<path fill="none" stroke="midnightblue" d="M1233.47,-409.38C1210.32,-433.42 1164.3,-477.08 1116,-499.5 1107.59,-503.4 1098.41,-506.5 1089.16,-508.97"/>
<polygon fill="midnightblue" stroke="midnightblue" points="1236.08,-411.71 1240.41,-402.04 1231,-406.9 1236.08,-411.71"/>
</g>
<!-- Node17 -->
<g id="node17" class="node">
<title>Node17</title>
<g id="a_node17"><a xlink:href="../../da/da6/a01522.html#a69d84ef2bd742020866da36081b8d05c" target="_top" xlink:title=" ">
<polygon fill="none" stroke="black" points="918,-421.5 918,-451.5 1116,-451.5 1116,-421.5 918,-421.5"/>
<text text-anchor="start" x="926" y="-439.5" font-family="Helvetica,sans-Serif" font-size="10.00">com.cliffc.aa.type.TypeStruct.remove</text>
<text text-anchor="middle" x="1017" y="-428.5" font-family="Helvetica,sans-Serif" font-size="10.00">_other_flds</text>
</a>
</g>
</g>
<!-- Node2&#45;&gt;Node17 -->
<g id="edge19" class="edge">
<title>Node2&#45;&gt;Node17</title>
<path fill="none" stroke="midnightblue" d="M1188.83,-403.96C1160.82,-409.3 1127.13,-415.71 1097.09,-421.43"/>
<polygon fill="midnightblue" stroke="midnightblue" points="1189.71,-407.36 1198.88,-402.05 1188.4,-400.48 1189.71,-407.36"/>
</g>
<!-- Node18 -->
<g id="node18" class="node">
<title>Node18</title>
<g id="a_node18"><a xlink:href="../../da/da6/a01522.html#a1279f9172c0980e94078ccdd39dc8944" target="_top" xlink:title=" ">
<polygon fill="none" stroke="black" points="930.5,-383 930.5,-402 1103.5,-402 1103.5,-383 930.5,-383"/>
<text text-anchor="middle" x="1017" y="-390" font-family="Helvetica,sans-Serif" font-size="10.00">com.cliffc.aa.type.TypeStruct.str</text>
</a>
</g>
</g>
<!-- Node2&#45;&gt;Node18 -->
<g id="edge20" class="edge">
<title>Node2&#45;&gt;Node18</title>
<path fill="none" stroke="midnightblue" d="M1141.59,-392.5C1128.92,-392.5 1116.13,-392.5 1103.82,-392.5"/>
<polygon fill="midnightblue" stroke="midnightblue" points="1141.7,-396 1151.7,-392.5 1141.7,-389 1141.7,-396"/>
</g>
<!-- Node19 -->
<g id="node19" class="node">
<title>Node19</title>
<g id="a_node19"><a xlink:href="../../da/da6/a01522.html#a47dcd3d7e6cb096262a61aa0b8c47d42" target="_top" xlink:title=" ">
<polygon fill="none" stroke="black" points="920,-345 920,-364 1114,-364 1114,-345 920,-345"/>
<text text-anchor="middle" x="1017" y="-352" font-family="Helvetica,sans-Serif" font-size="10.00">com.cliffc.aa.type.TypeStruct.update</text>
</a>
</g>
</g>
<!-- Node2&#45;&gt;Node19 -->
<g id="edge21" class="edge">
<title>Node2&#45;&gt;Node19</title>
<path fill="none" stroke="midnightblue" d="M1180.89,-381.3C1147.56,-375.81 1107.87,-369.28 1076.02,-364.04"/>
<polygon fill="midnightblue" stroke="midnightblue" points="1180.57,-384.79 1191.01,-382.96 1181.71,-377.88 1180.57,-384.79"/>
</g>
<!-- Node20 -->
<g id="node20" class="node">
<title>Node20</title>
<g id="a_node20"><a xlink:href="../../d5/d54/a00938.html#a2f3351526017b1a0b87499ba96605019" target="_top" xlink:title=" ">
<polygon fill="none" stroke="black" points="933,-307 933,-326 1101,-326 1101,-307 933,-307"/>
<text text-anchor="middle" x="1017" y="-314" font-family="Helvetica,sans-Serif" font-size="10.00">com.cliffc.aa.HM.HM9.Field.val</text>
</a>
</g>
</g>
<!-- Node2&#45;&gt;Node20 -->
<g id="edge22" class="edge">
<title>Node2&#45;&gt;Node20</title>
<path fill="none" stroke="midnightblue" d="M1221.05,-378.44C1194.58,-365.63 1153.43,-347 1116,-335.5 1103.91,-331.78 1090.74,-328.64 1078.1,-326.05"/>
<polygon fill="midnightblue" stroke="midnightblue" points="1219.58,-381.62 1230.1,-382.87 1222.66,-375.33 1219.58,-381.62"/>
</g>
<!-- Node21 -->
<g id="node21" class="node">
<title>Node21</title>
<g id="a_node21"><a xlink:href="../../de/df4/a00450.html#af84075a9a9d3f9c7f92749b085f73d26" target="_top" xlink:title=" ">
<polygon fill="none" stroke="black" points="936,-269 936,-288 1098,-288 1098,-269 936,-269"/>
<text text-anchor="middle" x="1017" y="-276" font-family="Helvetica,sans-Serif" font-size="10.00">com.cliffc.aa.HM.HM.Field.val</text>
</a>
</g>
</g>
<!-- Node2&#45;&gt;Node21 -->
<g id="edge23" class="edge">
<title>Node2&#45;&gt;Node21</title>
<path fill="none" stroke="midnightblue" d="M1231.32,-376C1207.19,-354.44 1161.71,-317.14 1116,-297.5 1106.92,-293.6 1097.03,-290.49 1087.14,-288.02"/>
<polygon fill="midnightblue" stroke="midnightblue" points="1229.17,-378.77 1238.93,-382.91 1233.88,-373.59 1229.17,-378.77"/>
</g>
<!-- Node22 -->
<g id="node22" class="node">
<title>Node22</title>
<g id="a_node22"><a xlink:href="../../d9/d9a/a00998.html#a174e7c51ad8df488ef92f4fd2a557b89" target="_top" xlink:title=" ">
<polygon fill="none" stroke="black" points="934.5,-134.5 934.5,-164.5 1099.5,-164.5 1099.5,-134.5 934.5,-134.5"/>
<text text-anchor="start" x="942.5" y="-152.5" font-family="Helvetica,sans-Serif" font-size="10.00">com.cliffc.aa.HM.HM9.T2.walk</text>
<text text-anchor="middle" x="1017" y="-141.5" font-family="Helvetica,sans-Serif" font-size="10.00">_types_in</text>
</a>
</g>
</g>
<!-- Node2&#45;&gt;Node22 -->
<g id="edge24" class="edge">
<title>Node2&#45;&gt;Node22</title>
<path fill="none" stroke="midnightblue" d="M1240.71,-373.12C1223.12,-334.02 1178.45,-244.97 1116,-192.5 1101.7,-180.49 1083.53,-171.28 1066.72,-164.53"/>
<polygon fill="midnightblue" stroke="midnightblue" points="1237.72,-375.01 1244.95,-382.75 1244.13,-372.19 1237.72,-375.01"/>
</g>
<!-- Node24 -->
<g id="node24" class="node">
<title>Node24</title>
<g id="a_node24"><a xlink:href="../../d6/d90/a00514.html#af76067f9e6420c0ae91e63654a4a7be2" target="_top" xlink:title=" ">
<polygon fill="none" stroke="black" points="937.5,-0.5 937.5,-30.5 1096.5,-30.5 1096.5,-0.5 937.5,-0.5"/>
<text text-anchor="start" x="945.5" y="-18.5" font-family="Helvetica,sans-Serif" font-size="10.00">com.cliffc.aa.HM.HM.T2.walk</text>
<text text-anchor="middle" x="1017" y="-7.5" font-family="Helvetica,sans-Serif" font-size="10.00">_types_in</text>
</a>
</g>
</g>
<!-- Node2&#45;&gt;Node24 -->
<g id="edge27" class="edge">
<title>Node2&#45;&gt;Node24</title>
<path fill="none" stroke="midnightblue" d="M1246.49,-372.71C1238.31,-316.08 1207.47,-151.47 1116,-57.5 1104.38,-45.56 1088.82,-36.83 1073.52,-30.52"/>
<polygon fill="midnightblue" stroke="midnightblue" points="1243.05,-373.38 1247.87,-382.81 1249.98,-372.43 1243.05,-373.38"/>
</g>
<!-- Node26 -->
<g id="node26" class="node">
<title>Node26</title>
<g id="a_node26"><a xlink:href="../../d9/d9a/a00998.html#ab91ccb27ae052176deeaf9382b2f8165" target="_top" xlink:title=" ">
<polygon fill="none" stroke="black" points="934.5,-201.5 934.5,-231.5 1099.5,-231.5 1099.5,-201.5 934.5,-201.5"/>
<text text-anchor="start" x="942.5" y="-219.5" font-family="Helvetica,sans-Serif" font-size="10.00">com.cliffc.aa.HM.HM9.T2.walk</text>
<text text-anchor="middle" x="1017" y="-208.5" font-family="Helvetica,sans-Serif" font-size="10.00">_types_out</text>
</a>
</g>
</g>
<!-- Node2&#45;&gt;Node26 -->
<g id="edge30" class="edge">
<title>Node2&#45;&gt;Node26</title>
<path fill="none" stroke="midnightblue" d="M1235.16,-374.94C1212.65,-347.32 1165.63,-293.41 1116,-259.5 1099.43,-248.18 1079.4,-238.76 1061.78,-231.65"/>
<polygon fill="midnightblue" stroke="midnightblue" points="1232.58,-377.32 1241.57,-382.92 1238.04,-372.93 1232.58,-377.32"/>
</g>
<!-- Node27 -->
<g id="node27" class="node">
<title>Node27</title>
<g id="a_node27"><a xlink:href="../../d6/d90/a00514.html#aa0bdecbeeba56f110f4d5d11c9acb866" target="_top" xlink:title=" ">
<polygon fill="none" stroke="black" points="937.5,-67.5 937.5,-97.5 1096.5,-97.5 1096.5,-67.5 937.5,-67.5"/>
<text text-anchor="start" x="945.5" y="-85.5" font-family="Helvetica,sans-Serif" font-size="10.00">com.cliffc.aa.HM.HM.T2.walk</text>
<text text-anchor="middle" x="1017" y="-74.5" font-family="Helvetica,sans-Serif" font-size="10.00">_types_out</text>
</a>
</g>
</g>
<!-- Node2&#45;&gt;Node27 -->
<g id="edge33" class="edge">
<title>Node2&#45;&gt;Node27</title>
<path fill="none" stroke="midnightblue" d="M1244.25,-373.02C1231.57,-324.77 1192.54,-198.4 1116,-125.5 1103.15,-113.26 1086.25,-104.17 1070.11,-97.58"/>
<polygon fill="midnightblue" stroke="midnightblue" points="1240.89,-373.98 1246.74,-382.81 1247.67,-372.25 1240.89,-373.98"/>
</g>
<!-- Node5 -->
<g id="node5" class="node">
<title>Node5</title>
<g id="a_node5"><a xlink:href="../../d0/dfb/a01066.html#a14a8ca3940ab377a67de458b109a36d9" target="_top" xlink:title=" ">
<polygon fill="none" stroke="black" points="468.5,-612.5 468.5,-642.5 647.5,-642.5 647.5,-612.5 468.5,-612.5"/>
<text text-anchor="start" x="476.5" y="-630.5" font-family="Helvetica,sans-Serif" font-size="10.00">com.cliffc.aa.node.LoadNode.find</text>
<text text-anchor="middle" x="558" y="-619.5" font-family="Helvetica,sans-Serif" font-size="10.00">_previous_store</text>
</a>
</g>
</g>
<!-- Node4&#45;&gt;Node5 -->
<g id="edge4" class="edge">
<title>Node4&#45;&gt;Node5</title>
<path fill="none" stroke="midnightblue" d="M710.7,-611.53C690.56,-613.65 668.65,-615.96 647.91,-618.14"/>
<polygon fill="midnightblue" stroke="midnightblue" points="711.17,-615 720.75,-610.47 710.44,-608.04 711.17,-615"/>
</g>
<!-- Node6 -->
<g id="node6" class="node">
<title>Node6</title>
<g id="a_node6"><a xlink:href="../../d0/dfb/a01066.html#af687a97365428ba2560bff84c7d20eff" target="_top" xlink:title=" ">
<polygon fill="none" stroke="black" points="237,-612.5 237,-642.5 422,-642.5 422,-612.5 237,-612.5"/>
<text text-anchor="start" x="245" y="-630.5" font-family="Helvetica,sans-Serif" font-size="10.00">com.cliffc.aa.node.LoadNode.ideal</text>
<text text-anchor="middle" x="329.5" y="-619.5" font-family="Helvetica,sans-Serif" font-size="10.00">_reduce</text>
</a>
</g>
</g>
<!-- Node5&#45;&gt;Node6 -->
<g id="edge5" class="edge">
<title>Node5&#45;&gt;Node6</title>
<path fill="none" stroke="midnightblue" d="M458.45,-627.5C446.45,-627.5 434.23,-627.5 422.34,-627.5"/>
<polygon fill="midnightblue" stroke="midnightblue" points="458.46,-631 468.46,-627.5 458.46,-624 458.46,-631"/>
</g>
<!-- Node8 -->
<g id="node8" class="node">
<title>Node8</title>
<g id="a_node8"><a xlink:href="../../d0/dfb/a01066.html#ad67f57cb1fc3b5558e0e909b8bc7d145" target="_top" xlink:title=" ">
<polygon fill="none" stroke="black" points="701,-471 701,-490 875,-490 875,-471 701,-471"/>
<text text-anchor="middle" x="788" y="-478" font-family="Helvetica,sans-Serif" font-size="10.00">com.cliffc.aa.node.LoadNode.err</text>
</a>
</g>
</g>
<!-- Node7&#45;&gt;Node8 -->
<g id="edge7" class="edge">
<title>Node7&#45;&gt;Node8</title>
<path fill="none" stroke="midnightblue" d="M917.13,-480.5C903.12,-480.5 888.81,-480.5 875.07,-480.5"/>
<polygon fill="midnightblue" stroke="midnightblue" points="917.26,-484 927.26,-480.5 917.26,-477 917.26,-484"/>
</g>
<!-- Node9 -->
<g id="node9" class="node">
<title>Node9</title>
<g id="a_node9"><a xlink:href="../../d0/dfb/a01066.html#ad0aa5c9f45cb37abe56da01c859c2c00" target="_top" xlink:title=" ">
<polygon fill="none" stroke="black" points="249,-484.5 249,-514.5 410,-514.5 410,-484.5 249,-484.5"/>
<text text-anchor="start" x="257" y="-502.5" font-family="Helvetica,sans-Serif" font-size="10.00">com.cliffc.aa.node.LoadNode.</text>
<text text-anchor="middle" x="329.5" y="-491.5" font-family="Helvetica,sans-Serif" font-size="10.00">_live_use</text>
</a>
</g>
</g>
<!-- Node8&#45;&gt;Node9 -->
<g id="edge8" class="edge">
<title>Node8&#45;&gt;Node9</title>
<path fill="none" stroke="midnightblue" d="M690.63,-484.51C607.28,-487.98 488.21,-492.94 410.15,-496.18"/>
<polygon fill="midnightblue" stroke="midnightblue" points="691.02,-488 700.87,-484.08 690.73,-481 691.02,-488"/>
</g>
<!-- Node11 -->
<g id="node11" class="node">
<title>Node11</title>
<g id="a_node11"><a xlink:href="../../d0/dfb/a01066.html#a318ad28c75cfa00cdbe71886baea637d" target="_top" xlink:title=" ">
<polygon fill="none" stroke="black" points="458,-509 458,-528 658,-528 658,-509 458,-509"/>
<text text-anchor="middle" x="558" y="-516" font-family="Helvetica,sans-Serif" font-size="10.00">com.cliffc.aa.node.LoadNode.get_fld2</text>
</a>
</g>
</g>
<!-- Node8&#45;&gt;Node11 -->
<g id="edge10" class="edge">
<title>Node8&#45;&gt;Node11</title>
<path fill="none" stroke="midnightblue" d="M719.77,-491.7C686.88,-497.19 647.71,-503.72 616.26,-508.96"/>
<polygon fill="midnightblue" stroke="midnightblue" points="720.47,-495.14 729.76,-490.04 719.32,-488.23 720.47,-495.14"/>
</g>
<!-- Node10 -->
<g id="node10" class="node">
<title>Node10</title>
<g id="a_node10"><a xlink:href="../../d0/dfb/a01066.html#a909995b973eee1bccf21bdb389e1c53d" target="_top" xlink:title=" ">
<polygon fill="none" stroke="black" points="0,-490 0,-509 201,-509 201,-490 0,-490"/>
<text text-anchor="middle" x="100.5" y="-497" font-family="Helvetica,sans-Serif" font-size="10.00">com.cliffc.aa.node.LoadNode.live_use</text>
</a>
</g>
</g>
<!-- Node9&#45;&gt;Node10 -->
<g id="edge9" class="edge">
<title>Node9&#45;&gt;Node10</title>
<path fill="none" stroke="midnightblue" d="M238.61,-499.5C226.37,-499.5 213.75,-499.5 201.35,-499.5"/>
<polygon fill="midnightblue" stroke="midnightblue" points="238.79,-503 248.79,-499.5 238.79,-496 238.79,-503"/>
</g>
<!-- Node11&#45;&gt;Node9 -->
<g id="edge11" class="edge">
<title>Node11&#45;&gt;Node9</title>
<path fill="none" stroke="midnightblue" d="M447.85,-509.34C435.18,-508.28 422.44,-507.21 410.27,-506.19"/>
<polygon fill="midnightblue" stroke="midnightblue" points="447.73,-512.85 457.98,-510.19 448.31,-505.87 447.73,-512.85"/>
</g>
<!-- Node14 -->
<g id="node14" class="node">
<title>Node14</title>
<g id="a_node14"><a xlink:href="../../d0/dfb/a01066.html#a12f88e04b21088732a8ef9ecb8354b3c" target="_top" xlink:title=" ">
<polygon fill="none" stroke="black" points="707.5,-637.5 707.5,-667.5 868.5,-667.5 868.5,-637.5 707.5,-637.5"/>
<text text-anchor="start" x="715.5" y="-655.5" font-family="Helvetica,sans-Serif" font-size="10.00">com.cliffc.aa.node.LoadNode.</text>
<text text-anchor="middle" x="788" y="-644.5" font-family="Helvetica,sans-Serif" font-size="10.00">_find_previous_store_call</text>
</a>
</g>
</g>
<!-- Node13&#45;&gt;Node14 -->
<g id="edge14" class="edge">
<title>Node13&#45;&gt;Node14</title>
<path fill="none" stroke="midnightblue" d="M922.07,-651.33C904.31,-651.48 885.88,-651.65 868.61,-651.8"/>
<polygon fill="midnightblue" stroke="midnightblue" points="922.47,-654.82 932.44,-651.24 922.41,-647.82 922.47,-654.82"/>
</g>
<!-- Node14&#45;&gt;Node5 -->
<g id="edge15" class="edge">
<title>Node14&#45;&gt;Node5</title>
<path fill="none" stroke="midnightblue" d="M697.21,-642.65C680.91,-640.87 663.92,-639 647.65,-637.22"/>
<polygon fill="midnightblue" stroke="midnightblue" points="696.93,-646.15 707.26,-643.76 697.7,-639.19 696.93,-646.15"/>
</g>
<!-- Node15&#45;&gt;Node11 -->
<g id="edge17" class="edge">
<title>Node15&#45;&gt;Node11</title>
<path fill="none" stroke="midnightblue" d="M951.53,-529.52C929.54,-532.77 904.76,-535.89 882,-537.5 798.65,-543.38 777.35,-543.34 694,-537.5 667.56,-535.65 638.41,-531.78 613.99,-528.01"/>
<polygon fill="midnightblue" stroke="midnightblue" points="952.06,-532.98 961.42,-528.01 951.01,-526.05 952.06,-532.98"/>
</g>
<!-- Node16 -->
<g id="node16" class="node">
<title>Node16</title>
<g id="a_node16"><a xlink:href="../../d0/dfb/a01066.html#ac3bf692db4b8a9d157ec186d9039acb9" target="_top" xlink:title=" ">
<polygon fill="none" stroke="black" points="694,-509 694,-528 882,-528 882,-509 694,-509"/>
<text text-anchor="middle" x="788" y="-516" font-family="Helvetica,sans-Serif" font-size="10.00">com.cliffc.aa.node.LoadNode.value</text>
</a>
</g>
</g>
<!-- Node15&#45;&gt;Node16 -->
<g id="edge18" class="edge">
<title>Node15&#45;&gt;Node16</title>
<path fill="none" stroke="midnightblue" d="M909.47,-518.5C900.35,-518.5 891.17,-518.5 882.16,-518.5"/>
<polygon fill="midnightblue" stroke="midnightblue" points="909.73,-522 919.73,-518.5 909.73,-515 909.73,-522"/>
</g>
<!-- Node22&#45;&gt;Node22 -->
<g id="edge26" class="edge">
<title>Node22&#45;&gt;Node22</title>
<path fill="none" stroke="midnightblue" d="M1057.51,-174.96C1052.48,-179.68 1038.98,-183 1017,-183 980.93,-183 967.69,-174.06 977.27,-164.66"/>
<polygon fill="midnightblue" stroke="midnightblue" points="1060.98,-174.37 1056.73,-164.66 1054,-174.89 1060.98,-174.37"/>
</g>
<!-- Node23 -->
<g id="node23" class="node">
<title>Node23</title>
<g id="a_node23"><a xlink:href="../../d8/d38/a00926.html#a8131ee594decbbdd998aab28fabea51b" target="_top" xlink:title=" ">
<polygon fill="none" stroke="black" points="702.5,-173 702.5,-192 873.5,-192 873.5,-173 702.5,-173"/>
<text text-anchor="middle" x="788" y="-180" font-family="Helvetica,sans-Serif" font-size="10.00">com.cliffc.aa.HM.HM9.Apply.val</text>
</a>
</g>
</g>
<!-- Node22&#45;&gt;Node23 -->
<g id="edge25" class="edge">
<title>Node22&#45;&gt;Node23</title>
<path fill="none" stroke="midnightblue" d="M924.45,-162.81C901.08,-166.21 876.43,-169.79 854.65,-172.96"/>
<polygon fill="midnightblue" stroke="midnightblue" points="924.98,-166.27 934.37,-161.37 923.97,-159.34 924.98,-166.27"/>
</g>
<!-- Node24&#45;&gt;Node24 -->
<g id="edge29" class="edge">
<title>Node24&#45;&gt;Node24</title>
<path fill="none" stroke="midnightblue" d="M1057.51,-40.96C1052.48,-45.68 1038.98,-49 1017,-49 980.93,-49 967.69,-40.06 977.27,-30.66"/>
<polygon fill="midnightblue" stroke="midnightblue" points="1060.98,-40.37 1056.73,-30.66 1054,-40.89 1060.98,-40.37"/>
</g>
<!-- Node25 -->
<g id="node25" class="node">
<title>Node25</title>
<g id="a_node25"><a xlink:href="../../dd/dfd/a00438.html#a40305653e9392070e933aa4d27e02da9" target="_top" xlink:title=" ">
<polygon fill="none" stroke="black" points="705.5,-40 705.5,-59 870.5,-59 870.5,-40 705.5,-40"/>
<text text-anchor="middle" x="788" y="-47" font-family="Helvetica,sans-Serif" font-size="10.00">com.cliffc.aa.HM.HM.Apply.val</text>
</a>
</g>
</g>
<!-- Node24&#45;&gt;Node25 -->
<g id="edge28" class="edge">
<title>Node24&#45;&gt;Node25</title>
<path fill="none" stroke="midnightblue" d="M927.07,-28.82C902.21,-32.54 875.7,-36.51 852.62,-39.97"/>
<polygon fill="midnightblue" stroke="midnightblue" points="927.87,-32.24 937.24,-27.3 926.84,-25.32 927.87,-32.24"/>
</g>
<!-- Node26&#45;&gt;Node23 -->
<g id="edge31" class="edge">
<title>Node26&#45;&gt;Node23</title>
<path fill="none" stroke="midnightblue" d="M924.48,-202.79C900.33,-199.17 874.79,-195.35 852.48,-192.01"/>
<polygon fill="midnightblue" stroke="midnightblue" points="923.96,-206.25 934.37,-204.27 925,-199.33 923.96,-206.25"/>
</g>
<!-- Node26&#45;&gt;Node26 -->
<g id="edge32" class="edge">
<title>Node26&#45;&gt;Node26</title>
<path fill="none" stroke="midnightblue" d="M1057.51,-241.96C1052.48,-246.68 1038.98,-250 1017,-250 980.93,-250 967.69,-241.06 977.27,-231.66"/>
<polygon fill="midnightblue" stroke="midnightblue" points="1060.98,-241.37 1056.73,-231.66 1054,-241.89 1060.98,-241.37"/>
</g>
<!-- Node27&#45;&gt;Node25 -->
<g id="edge34" class="edge">
<title>Node27&#45;&gt;Node25</title>
<path fill="none" stroke="midnightblue" d="M927.31,-69.61C903.04,-66.08 877.17,-62.32 854.45,-59.01"/>
<polygon fill="midnightblue" stroke="midnightblue" points="926.84,-73.08 937.24,-71.05 927.85,-66.15 926.84,-73.08"/>
</g>
<!-- Node27&#45;&gt;Node27 -->
<g id="edge35" class="edge">
<title>Node27&#45;&gt;Node27</title>
<path fill="none" stroke="midnightblue" d="M1057.51,-107.96C1052.48,-112.68 1038.98,-116 1017,-116 980.93,-116 967.69,-107.06 977.27,-97.66"/>
<polygon fill="midnightblue" stroke="midnightblue" points="1060.98,-107.37 1056.73,-97.66 1054,-107.89 1060.98,-107.37"/>
</g>
</g>
</svg>
