<?xml version="1.0" encoding="UTF-8" standalone="no"?>
<!DOCTYPE svg PUBLIC "-//W3C//DTD SVG 1.1//EN"
 "http://www.w3.org/Graphics/SVG/1.1/DTD/svg11.dtd">
<!-- Generated by graphviz version 2.43.0 (0)
 -->
<!-- Title: com.cliffc.aa.type.TypeFld.str Pages: 1 -->
<svg width="689pt" height="204pt"
 viewBox="0.00 0.00 689.00 203.50" xmlns="http://www.w3.org/2000/svg" xmlns:xlink="http://www.w3.org/1999/xlink">
<g id="graph0" class="graph" transform="scale(1 1) rotate(0) translate(4 199.5)">
<title>com.cliffc.aa.type.TypeFld.str</title>
<!-- Node1 -->
<g id="node1" class="node">
<title>Node1</title>
<g id="a_node1"><a xlink:title=" ">
<polygon fill="#bfbfbf" stroke="black" points="0,-88.5 0,-107.5 160,-107.5 160,-88.5 0,-88.5"/>
<text text-anchor="middle" x="80" y="-95.5" font-family="Helvetica,sans-Serif" font-size="10.00">com.cliffc.aa.type.TypeFld.str</text>
</a>
</g>
</g>
<!-- Node2 -->
<g id="node2" class="node">
<title>Node2</title>
<g id="a_node2"><a xlink:href="../../da/da6/a01522.html#a4cf7731dae754eed859309002aabb62b" target="_top" xlink:title=" ">
<polygon fill="none" stroke="black" points="196,-165 196,-195 365,-195 365,-165 196,-165"/>
<text text-anchor="start" x="204" y="-183" font-family="Helvetica,sans-Serif" font-size="10.00">com.cliffc.aa.type.TypeStruct.is</text>
<text text-anchor="middle" x="280.5" y="-172" font-family="Helvetica,sans-Serif" font-size="10.00">Digit</text>
</a>
</g>
</g>
<!-- Node1&#45;&gt;Node2 -->
<g id="edge1" class="edge">
<title>Node1&#45;&gt;Node2</title>
<path fill="none" stroke="midnightblue" d="M100.74,-107.5C123.48,-118.32 162.08,-136.26 196,-150 205.63,-153.9 215.98,-157.83 226.01,-161.5"/>
<polygon fill="midnightblue" stroke="midnightblue" points="224.89,-164.81 235.48,-164.93 227.27,-158.23 224.89,-164.81"/>
</g>
<!-- Node3 -->
<g id="node3" class="node">
<title>Node3</title>
<g id="a_node3"><a xlink:href="../../d4/d99/a01634.html#ac801338e82849a7fe2ae7a0feb80bb55" target="_top" xlink:title=" ">
<polygon fill="none" stroke="black" points="401,-85.5 401,-104.5 523,-104.5 523,-85.5 401,-85.5"/>
<text text-anchor="middle" x="462" y="-92.5" font-family="Helvetica,sans-Serif" font-size="10.00">com.cliffc.aa.util.SB.p</text>
</a>
</g>
</g>
<!-- Node1&#45;&gt;Node3 -->
<g id="edge2" class="edge">
<title>Node1&#45;&gt;Node3</title>
<path fill="none" stroke="midnightblue" d="M127.78,-107.51C148.58,-111.28 173.41,-115.15 196,-117 270.86,-123.14 290.36,-125.44 365,-117 382.45,-115.03 401.34,-111.1 417.72,-107.1"/>
<polygon fill="midnightblue" stroke="midnightblue" points="418.72,-110.46 427.55,-104.61 417,-103.67 418.72,-110.46"/>
</g>
<!-- Node5 -->
<g id="node5" class="node">
<title>Node5</title>
<g id="a_node5"><a xlink:href="../../d0/de2/a01442.html#aa85e71041555eba377310225778642bf" target="_top" xlink:title=" ">
<polygon fill="none" stroke="black" points="208,-88.5 208,-107.5 353,-107.5 353,-88.5 208,-88.5"/>
<text text-anchor="middle" x="280.5" y="-95.5" font-family="Helvetica,sans-Serif" font-size="10.00">com.cliffc.aa.type.Type.str</text>
</a>
</g>
</g>
<!-- Node1&#45;&gt;Node5 -->
<g id="edge4" class="edge">
<title>Node1&#45;&gt;Node5</title>
<path fill="none" stroke="midnightblue" d="M160.02,-98C172.35,-98 185.12,-98 197.52,-98"/>
<polygon fill="midnightblue" stroke="midnightblue" points="197.83,-101.5 207.83,-98 197.83,-94.5 197.83,-101.5"/>
</g>
<!-- Node6 -->
<g id="node6" class="node">
<title>Node6</title>
<g id="a_node6"><a xlink:href="../../de/d36/a01462.html#aa44282072acff9db30235dc09b3764dd" target="_top" xlink:title=" ">
<polygon fill="none" stroke="black" points="207,-39 207,-69 354,-69 354,-39 207,-39"/>
<text text-anchor="start" x="215" y="-57" font-family="Helvetica,sans-Serif" font-size="10.00">com.cliffc.aa.type.TypeFld.</text>
<text text-anchor="middle" x="280.5" y="-46" font-family="Helvetica,sans-Serif" font-size="10.00">Access.str</text>
</a>
</g>
</g>
<!-- Node1&#45;&gt;Node6 -->
<g id="edge5" class="edge">
<title>Node1&#45;&gt;Node6</title>
<path fill="none" stroke="midnightblue" d="M124.07,-88.45C146.72,-83.43 175.19,-77.12 201.55,-71.28"/>
<polygon fill="midnightblue" stroke="midnightblue" points="202.53,-74.65 211.53,-69.07 201.01,-67.81 202.53,-74.65"/>
</g>
<!-- Node7 -->
<g id="node7" class="node">
<title>Node7</title>
<g id="a_node7"><a xlink:href="../../df/dee/a01646.html#a88ad20daf92e92fe0e3925b23c4fecf0" target="_top" xlink:title=" ">
<polygon fill="none" stroke="black" points="201.5,-0.5 201.5,-19.5 359.5,-19.5 359.5,-0.5 201.5,-0.5"/>
<text text-anchor="middle" x="280.5" y="-7.5" font-family="Helvetica,sans-Serif" font-size="10.00">com.cliffc.aa.util.VBitSet.tset</text>
</a>
</g>
</g>
<!-- Node1&#45;&gt;Node7 -->
<g id="edge7" class="edge">
<title>Node1&#45;&gt;Node7</title>
<path fill="none" stroke="midnightblue" d="M94.12,-88.45C114.8,-73.83 156.65,-45.92 196,-30 203.29,-27.05 211.11,-24.47 218.95,-22.23"/>
<polygon fill="midnightblue" stroke="midnightblue" points="220.1,-25.54 228.84,-19.57 218.28,-18.78 220.1,-25.54"/>
</g>
<!-- Node4 -->
<g id="node4" class="node">
<title>Node4</title>
<g id="a_node4"><a xlink:href="../../d4/d99/a01634.html#abd1b8ac722e0fb0bf1e7b2ea0eaeb0b6" target="_top" xlink:title=" ">
<polygon fill="none" stroke="black" points="559,-85.5 559,-104.5 681,-104.5 681,-85.5 559,-85.5"/>
<text text-anchor="middle" x="620" y="-92.5" font-family="Helvetica,sans-Serif" font-size="10.00">com.cliffc.aa.util.SB.s</text>
</a>
</g>
</g>
<!-- Node3&#45;&gt;Node4 -->
<g id="edge3" class="edge">
<title>Node3&#45;&gt;Node4</title>
<path fill="none" stroke="midnightblue" d="M523.31,-95C531.6,-95 540.17,-95 548.63,-95"/>
<polygon fill="midnightblue" stroke="midnightblue" points="548.85,-98.5 558.85,-95 548.85,-91.5 548.85,-98.5"/>
</g>
<!-- Node6&#45;&gt;Node3 -->
<g id="edge6" class="edge">
<title>Node6&#45;&gt;Node3</title>
<path fill="none" stroke="midnightblue" d="M347.32,-69.03C367.77,-73.7 390.01,-78.78 409.35,-83.2"/>
<polygon fill="midnightblue" stroke="midnightblue" points="408.64,-86.63 419.17,-85.45 410.2,-79.81 408.64,-86.63"/>
</g>
</g>
</svg>
