<?xml version="1.0" encoding="UTF-8" standalone="no"?>
<!DOCTYPE svg PUBLIC "-//W3C//DTD SVG 1.1//EN"
 "http://www.w3.org/Graphics/SVG/1.1/DTD/svg11.dtd">
<!-- Generated by graphviz version 2.43.0 (0)
 -->
<!-- Title: com.cliffc.aa.node.MemPrimNode.LValueLength.live_use Pages: 1 -->
<svg width="811pt" height="329pt"
 viewBox="0.00 0.00 811.00 328.50" xmlns="http://www.w3.org/2000/svg" xmlns:xlink="http://www.w3.org/1999/xlink">
<g id="graph0" class="graph" transform="scale(1 1) rotate(0) translate(4 324.5)">
<title>com.cliffc.aa.node.MemPrimNode.LValueLength.live_use</title>
<!-- Node1 -->
<g id="node1" class="node">
<title>Node1</title>
<g id="a_node1"><a xlink:title=" ">
<polygon fill="#bfbfbf" stroke="black" points="0,-172 0,-202 156,-202 156,-172 0,-172"/>
<text text-anchor="start" x="8" y="-190" font-family="Helvetica,sans-Serif" font-size="10.00">com.cliffc.aa.node.MemPrim</text>
<text text-anchor="middle" x="78" y="-179" font-family="Helvetica,sans-Serif" font-size="10.00">Node.LValueLength.live_use</text>
</a>
</g>
</g>
<!-- Node2 -->
<g id="node2" class="node">
<title>Node2</title>
<g id="a_node2"><a xlink:href="../../d9/df5/a01086.html#a1ecfa59496dd77b547b796897a2a0fd5" target="_top" xlink:title=" ">
<polygon fill="none" stroke="black" points="206.5,-197 206.5,-227 364.5,-227 364.5,-197 206.5,-197"/>
<text text-anchor="start" x="214.5" y="-215" font-family="Helvetica,sans-Serif" font-size="10.00">com.cliffc.aa.node.MemPrim</text>
<text text-anchor="middle" x="285.5" y="-204" font-family="Helvetica,sans-Serif" font-size="10.00">Node.LValueLength._live_use</text>
</a>
</g>
</g>
<!-- Node1&#45;&gt;Node2 -->
<g id="edge1" class="edge">
<title>Node1&#45;&gt;Node2</title>
<path fill="none" stroke="midnightblue" d="M156.11,-196.38C169.17,-197.97 182.83,-199.63 196.16,-201.25"/>
<polygon fill="midnightblue" stroke="midnightblue" points="195.93,-204.75 206.28,-202.48 196.77,-197.8 195.93,-204.75"/>
</g>
<!-- Node4 -->
<g id="node4" class="node">
<title>Node4</title>
<g id="a_node4"><a xlink:href="../../db/dba/a01078.html#aa7de73f42c34b35a5ceee3ef90bf76bb" target="_top" xlink:title=" ">
<polygon fill="none" stroke="black" points="440,-290 440,-320 596,-320 596,-290 440,-290"/>
<text text-anchor="start" x="448" y="-308" font-family="Helvetica,sans-Serif" font-size="10.00">com.cliffc.aa.node.MemPrim</text>
<text text-anchor="middle" x="518" y="-297" font-family="Helvetica,sans-Serif" font-size="10.00">Node.adr</text>
</a>
</g>
</g>
<!-- Node1&#45;&gt;Node4 -->
<g id="edge10" class="edge">
<title>Node1&#45;&gt;Node4</title>
<path fill="none" stroke="midnightblue" d="M108.54,-202.13C130.96,-213.1 162.8,-227.6 192,-237 270.94,-262.41 363.8,-280.74 430,-291.92"/>
<polygon fill="midnightblue" stroke="midnightblue" points="429.54,-295.39 439.98,-293.58 430.69,-288.48 429.54,-295.39"/>
</g>
<!-- Node9 -->
<g id="node9" class="node">
<title>Node9</title>
<g id="a_node9"><a xlink:href="../../d6/d51/a01494.html#a0eecce7cc3a48609b618fd6ba69927f1" target="_top" xlink:title=" ">
<polygon fill="none" stroke="black" points="192,-148 192,-178 379,-178 379,-148 192,-148"/>
<text text-anchor="start" x="200" y="-166" font-family="Helvetica,sans-Serif" font-size="10.00">com.cliffc.aa.type.TypeMem.above</text>
<text text-anchor="middle" x="285.5" y="-155" font-family="Helvetica,sans-Serif" font-size="10.00">_center</text>
</a>
</g>
</g>
<!-- Node1&#45;&gt;Node9 -->
<g id="edge9" class="edge">
<title>Node1&#45;&gt;Node9</title>
<path fill="none" stroke="midnightblue" d="M156.11,-178C164.45,-177.02 173.05,-176.02 181.64,-175.01"/>
<polygon fill="midnightblue" stroke="midnightblue" points="182.18,-178.47 191.71,-173.84 181.37,-171.52 182.18,-178.47"/>
</g>
<!-- Node10 -->
<g id="node10" class="node">
<title>Node10</title>
<g id="a_node10"><a xlink:href="../../df/db5/a01158.html#a14b4db4eb1ac03fbbb3c9e7b02f0d81e" target="_top" xlink:title=" ">
<polygon fill="none" stroke="black" points="208,-57.5 208,-76.5 363,-76.5 363,-57.5 208,-57.5"/>
<text text-anchor="middle" x="285.5" y="-64.5" font-family="Helvetica,sans-Serif" font-size="10.00">com.cliffc.aa.node.Node.live</text>
</a>
</g>
</g>
<!-- Node1&#45;&gt;Node10 -->
<g id="edge11" class="edge">
<title>Node1&#45;&gt;Node10</title>
<path fill="none" stroke="midnightblue" d="M105.03,-171.8C144.82,-148.56 220.29,-104.5 259.47,-81.61"/>
<polygon fill="midnightblue" stroke="midnightblue" points="261.29,-84.61 268.16,-76.54 257.76,-78.56 261.29,-84.61"/>
</g>
<!-- Node3 -->
<g id="node3" class="node">
<title>Node3</title>
<g id="a_node3"><a xlink:href="../../d0/de2/a01442.html#aa714dfa13a9224150753af2d8efde48d" target="_top" xlink:title=" ">
<polygon fill="none" stroke="black" points="437,-241 437,-271 599,-271 599,-241 437,-241"/>
<text text-anchor="start" x="445" y="-259" font-family="Helvetica,sans-Serif" font-size="10.00">com.cliffc.aa.type.Type.above</text>
<text text-anchor="middle" x="518" y="-248" font-family="Helvetica,sans-Serif" font-size="10.00">_center</text>
</a>
</g>
</g>
<!-- Node2&#45;&gt;Node3 -->
<g id="edge2" class="edge">
<title>Node2&#45;&gt;Node3</title>
<path fill="none" stroke="midnightblue" d="M364.54,-226.9C385.06,-230.81 407.34,-235.07 428.37,-239.08"/>
<polygon fill="midnightblue" stroke="midnightblue" points="427.78,-242.53 438.26,-240.97 429.09,-235.66 427.78,-242.53"/>
</g>
<!-- Node2&#45;&gt;Node4 -->
<g id="edge3" class="edge">
<title>Node2&#45;&gt;Node4</title>
<path fill="none" stroke="midnightblue" d="M310.24,-227.2C335.37,-242.7 376.64,-266.47 415,-281 420.81,-283.2 426.88,-285.24 433.04,-287.12"/>
<polygon fill="midnightblue" stroke="midnightblue" points="432.19,-290.52 442.77,-289.95 434.14,-283.8 432.19,-290.52"/>
</g>
<!-- Node6 -->
<g id="node6" class="node">
<title>Node6</title>
<g id="a_node6"><a xlink:href="../../d0/de2/a01442.html#a2d1a737fc331611b5996126d31da26fd" target="_top" xlink:title=" ">
<polygon fill="none" stroke="black" points="436.5,-202.5 436.5,-221.5 599.5,-221.5 599.5,-202.5 436.5,-202.5"/>
<text text-anchor="middle" x="518" y="-209.5" font-family="Helvetica,sans-Serif" font-size="10.00">com.cliffc.aa.type.Type.is_con</text>
</a>
</g>
</g>
<!-- Node2&#45;&gt;Node6 -->
<g id="edge5" class="edge">
<title>Node2&#45;&gt;Node6</title>
<path fill="none" stroke="midnightblue" d="M364.54,-212C384.31,-212 405.73,-212 426.08,-212"/>
<polygon fill="midnightblue" stroke="midnightblue" points="426.29,-215.5 436.29,-212 426.29,-208.5 426.29,-215.5"/>
</g>
<!-- Node7 -->
<g id="node7" class="node">
<title>Node7</title>
<g id="a_node7"><a xlink:href="../../db/dba/a01078.html#aaab9e3338e50fa5cc0f9193e3abebe8b" target="_top" xlink:title=" ">
<polygon fill="none" stroke="black" points="440,-153 440,-183 596,-183 596,-153 440,-153"/>
<text text-anchor="start" x="448" y="-171" font-family="Helvetica,sans-Serif" font-size="10.00">com.cliffc.aa.node.MemPrim</text>
<text text-anchor="middle" x="518" y="-160" font-family="Helvetica,sans-Serif" font-size="10.00">Node.mem</text>
</a>
</g>
</g>
<!-- Node2&#45;&gt;Node7 -->
<g id="edge6" class="edge">
<title>Node2&#45;&gt;Node7</title>
<path fill="none" stroke="midnightblue" d="M364.54,-197.1C385.51,-193.1 408.32,-188.75 429.76,-184.65"/>
<polygon fill="midnightblue" stroke="midnightblue" points="430.66,-188.04 439.83,-182.73 429.35,-181.17 430.66,-188.04"/>
</g>
<!-- Node8 -->
<g id="node8" class="node">
<title>Node8</title>
<g id="a_node8"><a xlink:href="../../d0/de2/a01442.html#a388429cb6bea455104e3b9690d992854" target="_top" xlink:title=" ">
<polygon fill="none" stroke="black" points="443,-114.5 443,-133.5 593,-133.5 593,-114.5 443,-114.5"/>
<text text-anchor="middle" x="518" y="-121.5" font-family="Helvetica,sans-Serif" font-size="10.00">com.cliffc.aa.type.Type.oob</text>
</a>
</g>
</g>
<!-- Node2&#45;&gt;Node8 -->
<g id="edge8" class="edge">
<title>Node2&#45;&gt;Node8</title>
<path fill="none" stroke="midnightblue" d="M361.94,-196.82C367.92,-194.32 373.69,-191.4 379,-188 400.28,-174.38 393.32,-156.98 415,-144 420.72,-140.58 426.92,-137.72 433.33,-135.35"/>
<polygon fill="midnightblue" stroke="midnightblue" points="434.46,-138.66 442.85,-132.2 432.26,-132.02 434.46,-138.66"/>
</g>
<!-- Node5 -->
<g id="node5" class="node">
<title>Node5</title>
<g id="a_node5"><a xlink:href="../../df/db5/a01158.html#a9a46cea187559f94192aa6e09b91c60c" target="_top" xlink:title=" ">
<polygon fill="none" stroke="black" points="657,-226.5 657,-245.5 803,-245.5 803,-226.5 657,-226.5"/>
<text text-anchor="middle" x="730" y="-233.5" font-family="Helvetica,sans-Serif" font-size="10.00">com.cliffc.aa.node.Node.in</text>
</a>
</g>
</g>
<!-- Node4&#45;&gt;Node5 -->
<g id="edge4" class="edge">
<title>Node4&#45;&gt;Node5</title>
<path fill="none" stroke="midnightblue" d="M589.65,-289.97C600.24,-287.26 610.96,-284.25 621,-281 648.15,-272.21 678.03,-259.52 699.46,-249.85"/>
<polygon fill="midnightblue" stroke="midnightblue" points="701.03,-252.98 708.67,-245.65 698.12,-246.62 701.03,-252.98"/>
</g>
<!-- Node7&#45;&gt;Node5 -->
<g id="edge7" class="edge">
<title>Node7&#45;&gt;Node5</title>
<path fill="none" stroke="midnightblue" d="M586.03,-183.02C597.77,-186.05 609.8,-189.42 621,-193 647.5,-201.48 676.79,-213.3 698.17,-222.4"/>
<polygon fill="midnightblue" stroke="midnightblue" points="696.83,-225.63 707.4,-226.37 699.59,-219.2 696.83,-225.63"/>
</g>
<!-- Node11 -->
<g id="node11" class="node">
<title>Node11</title>
<g id="a_node11"><a xlink:href="../../df/db5/a01158.html#a260ab95c10fcb1ccf5f4845aedbb929f" target="_top" xlink:title=" ">
<polygon fill="none" stroke="black" points="431.5,-76.5 431.5,-95.5 604.5,-95.5 604.5,-76.5 431.5,-76.5"/>
<text text-anchor="middle" x="518" y="-83.5" font-family="Helvetica,sans-Serif" font-size="10.00">com.cliffc.aa.node.Node.all_live</text>
</a>
</g>
</g>
<!-- Node10&#45;&gt;Node11 -->
<g id="edge12" class="edge">
<title>Node10&#45;&gt;Node11</title>
<path fill="none" stroke="midnightblue" d="M363.25,-73.33C381.88,-74.86 402.02,-76.52 421.39,-78.12"/>
<polygon fill="midnightblue" stroke="midnightblue" points="421.19,-81.61 431.44,-78.95 421.77,-74.64 421.19,-81.61"/>
</g>
<!-- Node12 -->
<g id="node12" class="node">
<title>Node12</title>
<g id="a_node12"><a xlink:href="../../d6/d51/a01494.html#aedca9fa727944cdfe2b208fd4e260c4d" target="_top" xlink:title=" ">
<polygon fill="none" stroke="black" points="415,-38.5 415,-57.5 621,-57.5 621,-38.5 415,-38.5"/>
<text text-anchor="middle" x="518" y="-45.5" font-family="Helvetica,sans-Serif" font-size="10.00">com.cliffc.aa.type.TypeMem.basic_live</text>
</a>
</g>
</g>
<!-- Node10&#45;&gt;Node12 -->
<g id="edge13" class="edge">
<title>Node10&#45;&gt;Node12</title>
<path fill="none" stroke="midnightblue" d="M363.25,-60.67C376.53,-59.58 390.58,-58.42 404.57,-57.27"/>
<polygon fill="midnightblue" stroke="midnightblue" points="405.06,-60.74 414.74,-56.43 404.49,-53.76 405.06,-60.74"/>
</g>
<!-- Node13 -->
<g id="node13" class="node">
<title>Node13</title>
<g id="a_node13"><a xlink:href="../../d0/de2/a01442.html#a086b90d9d651ac00b80a9b5caa60eb09" target="_top" xlink:title=" ">
<polygon fill="none" stroke="black" points="439,-0.5 439,-19.5 597,-19.5 597,-0.5 439,-0.5"/>
<text text-anchor="middle" x="518" y="-7.5" font-family="Helvetica,sans-Serif" font-size="10.00">com.cliffc.aa.type.Type.meet</text>
</a>
</g>
</g>
<!-- Node10&#45;&gt;Node13 -->
<g id="edge14" class="edge">
<title>Node10&#45;&gt;Node13</title>
<path fill="none" stroke="midnightblue" d="M315.61,-57.45C341.51,-49.19 380.5,-37.29 415,-29 426.24,-26.3 438.26,-23.76 449.96,-21.46"/>
<polygon fill="midnightblue" stroke="midnightblue" points="450.97,-24.84 460.13,-19.52 449.65,-17.96 450.97,-24.84"/>
</g>
</g>
</svg>
