<?xml version="1.0" encoding="UTF-8" standalone="no"?>
<!DOCTYPE svg PUBLIC "-//W3C//DTD SVG 1.1//EN"
 "http://www.w3.org/Graphics/SVG/1.1/DTD/svg11.dtd">
<!-- Generated by graphviz version 2.43.0 (0)
 -->
<!-- Title: com.cliffc.aa.util.NonBlockingHashMap.CHM.resize Pages: 1 -->
<svg width="950pt" height="323pt"
 viewBox="0.00 0.00 950.00 323.00" xmlns="http://www.w3.org/2000/svg" xmlns:xlink="http://www.w3.org/1999/xlink">
<g id="graph0" class="graph" transform="scale(1 1) rotate(0) translate(4 319)">
<title>com.cliffc.aa.util.NonBlockingHashMap.CHM.resize</title>
<!-- Node1 -->
<g id="node1" class="node">
<title>Node1</title>
<g id="a_node1"><a xlink:title=" ">
<polygon fill="#bfbfbf" stroke="black" points="0,-142.5 0,-172.5 162,-172.5 162,-142.5 0,-142.5"/>
<text text-anchor="start" x="8" y="-160.5" font-family="Helvetica,sans-Serif" font-size="10.00">com.cliffc.aa.util.NonBlocking</text>
<text text-anchor="middle" x="81" y="-149.5" font-family="Helvetica,sans-Serif" font-size="10.00">HashMap.CHM.resize</text>
</a>
</g>
</g>
<!-- Node2 -->
<g id="node2" class="node">
<title>Node2</title>
<g id="a_node2"><a xlink:href="../../d2/d2f/a01586.html#ab43304059040308580055a49cf390f01" target="_top" xlink:title=" ">
<polygon fill="none" stroke="black" points="198,-284.5 198,-314.5 360,-314.5 360,-284.5 198,-284.5"/>
<text text-anchor="start" x="206" y="-302.5" font-family="Helvetica,sans-Serif" font-size="10.00">com.cliffc.aa.util.NonBlocking</text>
<text text-anchor="middle" x="279" y="-291.5" font-family="Helvetica,sans-Serif" font-size="10.00">HashMap.CHM.CAS_newkvs</text>
</a>
</g>
</g>
<!-- Node1&#45;&gt;Node2 -->
<g id="edge1" class="edge">
<title>Node1&#45;&gt;Node2</title>
<path fill="none" stroke="midnightblue" d="M92.71,-172.55C111.31,-197.58 152,-247.76 198,-275.5 200.79,-277.18 203.71,-278.76 206.72,-280.23"/>
<polygon fill="midnightblue" stroke="midnightblue" points="205.38,-283.46 215.93,-284.33 208.22,-277.07 205.38,-283.46"/>
</g>
<!-- Node3 -->
<g id="node3" class="node">
<title>Node3</title>
<g id="a_node3"><a xlink:href="../../d1/d88/a01578.html#a115294c7aac1ca8f3439ce725c0b025d" target="_top" xlink:title=" ">
<polygon fill="none" stroke="black" points="198,-235.5 198,-265.5 360,-265.5 360,-235.5 198,-235.5"/>
<text text-anchor="start" x="206" y="-253.5" font-family="Helvetica,sans-Serif" font-size="10.00">com.cliffc.aa.util.NonBlocking</text>
<text text-anchor="middle" x="279" y="-242.5" font-family="Helvetica,sans-Serif" font-size="10.00">HashMap.chm</text>
</a>
</g>
</g>
<!-- Node1&#45;&gt;Node3 -->
<g id="edge2" class="edge">
<title>Node1&#45;&gt;Node3</title>
<path fill="none" stroke="midnightblue" d="M103.8,-172.68C126.49,-187.94 163.46,-211.32 198,-226.5 202.41,-228.44 207.03,-230.28 211.72,-232.02"/>
<polygon fill="midnightblue" stroke="midnightblue" points="210.83,-235.41 221.42,-235.42 213.15,-228.81 210.83,-235.41"/>
</g>
<!-- Node4 -->
<g id="node4" class="node">
<title>Node4</title>
<g id="a_node4"><a xlink:href="../../d2/d2f/a01586.html#a5a8b9ba9efec713414f2d95424a01f94" target="_top" xlink:title=" ">
<polygon fill="none" stroke="black" points="198,-186.5 198,-216.5 360,-216.5 360,-186.5 198,-186.5"/>
<text text-anchor="start" x="206" y="-204.5" font-family="Helvetica,sans-Serif" font-size="10.00">com.cliffc.aa.util.NonBlocking</text>
<text text-anchor="middle" x="279" y="-193.5" font-family="Helvetica,sans-Serif" font-size="10.00">HashMap.CHM.CHM</text>
</a>
</g>
</g>
<!-- Node1&#45;&gt;Node4 -->
<g id="edge3" class="edge">
<title>Node1&#45;&gt;Node4</title>
<path fill="none" stroke="midnightblue" d="M148.9,-172.52C165.68,-176.29 183.82,-180.36 201.05,-184.22"/>
<polygon fill="midnightblue" stroke="midnightblue" points="200.54,-187.7 211.07,-186.47 202.07,-180.87 200.54,-187.7"/>
</g>
<!-- Node5 -->
<g id="node5" class="node">
<title>Node5</title>
<g id="a_node5"><a xlink:href="../../d2/d2f/a01586.html#a83c249a5e62177a70d11294cdf0f8ae1" target="_top" xlink:title=" ">
<polygon fill="none" stroke="black" points="396,-147.5 396,-177.5 558,-177.5 558,-147.5 396,-147.5"/>
<text text-anchor="start" x="404" y="-165.5" font-family="Helvetica,sans-Serif" font-size="10.00">com.cliffc.aa.util.NonBlocking</text>
<text text-anchor="middle" x="477" y="-154.5" font-family="Helvetica,sans-Serif" font-size="10.00">HashMap.CHM.size</text>
</a>
</g>
</g>
<!-- Node1&#45;&gt;Node5 -->
<g id="edge13" class="edge">
<title>Node1&#45;&gt;Node5</title>
<path fill="none" stroke="midnightblue" d="M162.21,-158.52C227.05,-159.34 318.32,-160.5 385.72,-161.35"/>
<polygon fill="midnightblue" stroke="midnightblue" points="385.86,-164.86 395.91,-161.48 385.95,-157.86 385.86,-164.86"/>
</g>
<!-- Node8 -->
<g id="node8" class="node">
<title>Node8</title>
<g id="a_node8"><a xlink:href="../../da/dcf/a01558.html#a9344a8223e6fa082967da3a2a9a537ae" target="_top" xlink:title="A cheaper get.">
<polygon fill="none" stroke="black" points="202,-98.5 202,-128.5 356,-128.5 356,-98.5 202,-98.5"/>
<text text-anchor="start" x="210" y="-116.5" font-family="Helvetica,sans-Serif" font-size="10.00">com.cliffc.aa.util.Concurrent</text>
<text text-anchor="middle" x="279" y="-105.5" font-family="Helvetica,sans-Serif" font-size="10.00">AutoTable.estimate_get</text>
</a>
</g>
</g>
<!-- Node1&#45;&gt;Node8 -->
<g id="edge8" class="edge">
<title>Node1&#45;&gt;Node8</title>
<path fill="none" stroke="midnightblue" d="M148.9,-142.48C165.68,-138.71 183.82,-134.64 201.05,-130.78"/>
<polygon fill="midnightblue" stroke="midnightblue" points="202.07,-134.13 211.07,-128.53 200.54,-127.3 202.07,-134.13"/>
</g>
<!-- Node10 -->
<g id="node10" class="node">
<title>Node10</title>
<g id="a_node10"><a xlink:href="../../d1/d88/a01578.html#a6e1835db75a57079b5194e312f8de3d3" target="_top" xlink:title=" ">
<polygon fill="none" stroke="black" points="198,-49.5 198,-79.5 360,-79.5 360,-49.5 198,-49.5"/>
<text text-anchor="start" x="206" y="-67.5" font-family="Helvetica,sans-Serif" font-size="10.00">com.cliffc.aa.util.NonBlocking</text>
<text text-anchor="middle" x="279" y="-56.5" font-family="Helvetica,sans-Serif" font-size="10.00">HashMap.len</text>
</a>
</g>
</g>
<!-- Node1&#45;&gt;Node10 -->
<g id="edge11" class="edge">
<title>Node1&#45;&gt;Node10</title>
<path fill="none" stroke="midnightblue" d="M103.8,-142.32C126.49,-127.06 163.46,-103.68 198,-88.5 202.41,-86.56 207.03,-84.72 211.72,-82.98"/>
<polygon fill="midnightblue" stroke="midnightblue" points="213.15,-86.19 221.42,-79.58 210.83,-79.59 213.15,-86.19"/>
</g>
<!-- Node11 -->
<g id="node11" class="node">
<title>Node11</title>
<g id="a_node11"><a xlink:href="../../d1/d88/a01578.html#a9b043735ab8cc9dd38de1772f83b11f4" target="_top" xlink:title=" ">
<polygon fill="none" stroke="black" points="198,-0.5 198,-30.5 360,-30.5 360,-0.5 198,-0.5"/>
<text text-anchor="start" x="206" y="-18.5" font-family="Helvetica,sans-Serif" font-size="10.00">com.cliffc.aa.util.NonBlocking</text>
<text text-anchor="middle" x="279" y="-7.5" font-family="Helvetica,sans-Serif" font-size="10.00">HashMap.rehash</text>
</a>
</g>
</g>
<!-- Node1&#45;&gt;Node11 -->
<g id="edge12" class="edge">
<title>Node1&#45;&gt;Node11</title>
<path fill="none" stroke="midnightblue" d="M92.71,-142.45C111.31,-117.42 152,-67.24 198,-39.5 200.79,-37.82 203.71,-36.24 206.72,-34.77"/>
<polygon fill="midnightblue" stroke="midnightblue" points="208.22,-37.93 215.93,-30.67 205.38,-31.54 208.22,-37.93"/>
</g>
<!-- Node4&#45;&gt;Node5 -->
<g id="edge4" class="edge">
<title>Node4&#45;&gt;Node5</title>
<path fill="none" stroke="midnightblue" d="M355.5,-186.48C366.93,-184.2 378.78,-181.84 390.41,-179.53"/>
<polygon fill="midnightblue" stroke="midnightblue" points="391.42,-182.9 400.54,-177.51 390.05,-176.03 391.42,-182.9"/>
</g>
<!-- Node6 -->
<g id="node6" class="node">
<title>Node6</title>
<g id="a_node6"><a xlink:href="../../da/dcf/a01558.html#a0829d01be3a5a0269feb836ed02db8f2" target="_top" xlink:title="Current value of the counter.">
<polygon fill="none" stroke="black" points="596,-147.5 596,-177.5 750,-177.5 750,-147.5 596,-147.5"/>
<text text-anchor="start" x="604" y="-165.5" font-family="Helvetica,sans-Serif" font-size="10.00">com.cliffc.aa.util.Concurrent</text>
<text text-anchor="middle" x="673" y="-154.5" font-family="Helvetica,sans-Serif" font-size="10.00">AutoTable.get</text>
</a>
</g>
</g>
<!-- Node5&#45;&gt;Node6 -->
<g id="edge5" class="edge">
<title>Node5&#45;&gt;Node6</title>
<path fill="none" stroke="midnightblue" d="M558.03,-162.5C567.13,-162.5 576.43,-162.5 585.61,-162.5"/>
<polygon fill="midnightblue" stroke="midnightblue" points="585.9,-166 595.9,-162.5 585.9,-159 585.9,-166"/>
</g>
<!-- Node7 -->
<g id="node7" class="node">
<title>Node7</title>
<g id="a_node7"><a xlink:href="../../d2/dc1/a01562.html#affe24fc89bef3098502356c3ee538722" target="_top" xlink:title=" ">
<polygon fill="none" stroke="black" points="788,-122.5 788,-152.5 942,-152.5 942,-122.5 788,-122.5"/>
<text text-anchor="start" x="796" y="-140.5" font-family="Helvetica,sans-Serif" font-size="10.00">com.cliffc.aa.util.Concurrent</text>
<text text-anchor="middle" x="865" y="-129.5" font-family="Helvetica,sans-Serif" font-size="10.00">AutoTable.CAT.sum</text>
</a>
</g>
</g>
<!-- Node6&#45;&gt;Node7 -->
<g id="edge6" class="edge">
<title>Node6&#45;&gt;Node7</title>
<path fill="none" stroke="midnightblue" d="M750.19,-152.48C759.28,-151.28 768.62,-150.05 777.85,-148.84"/>
<polygon fill="midnightblue" stroke="midnightblue" points="778.34,-152.3 787.8,-147.53 777.43,-145.36 778.34,-152.3"/>
</g>
<!-- Node7&#45;&gt;Node7 -->
<g id="edge7" class="edge">
<title>Node7&#45;&gt;Node7</title>
<path fill="none" stroke="midnightblue" d="M831.54,-152.66C823.47,-162.06 834.62,-171 865,-171 883.51,-171 894.88,-167.68 899.12,-162.96"/>
<polygon fill="midnightblue" stroke="midnightblue" points="902.59,-162.42 898.46,-152.66 895.6,-162.86 902.59,-162.42"/>
</g>
<!-- Node9 -->
<g id="node9" class="node">
<title>Node9</title>
<g id="a_node9"><a xlink:href="../../d2/dc1/a01562.html#a0f817e0a3eea4bb0474428009259f2b9" target="_top" xlink:title=" ">
<polygon fill="none" stroke="black" points="594,-98.5 594,-128.5 752,-128.5 752,-98.5 594,-98.5"/>
<text text-anchor="start" x="602" y="-116.5" font-family="Helvetica,sans-Serif" font-size="10.00">com.cliffc.aa.util.Concurrent</text>
<text text-anchor="middle" x="673" y="-105.5" font-family="Helvetica,sans-Serif" font-size="10.00">AutoTable.CAT.estimate_sum</text>
</a>
</g>
</g>
<!-- Node8&#45;&gt;Node9 -->
<g id="edge9" class="edge">
<title>Node8&#45;&gt;Node9</title>
<path fill="none" stroke="midnightblue" d="M356.05,-113.5C421.17,-113.5 514.99,-113.5 583.48,-113.5"/>
<polygon fill="midnightblue" stroke="midnightblue" points="583.82,-117 593.82,-113.5 583.82,-110 583.82,-117"/>
</g>
<!-- Node9&#45;&gt;Node7 -->
<g id="edge10" class="edge">
<title>Node9&#45;&gt;Node7</title>
<path fill="none" stroke="midnightblue" d="M752.1,-123.37C760.56,-124.43 769.21,-125.53 777.76,-126.61"/>
<polygon fill="midnightblue" stroke="midnightblue" points="777.37,-130.09 787.73,-127.87 778.25,-123.14 777.37,-130.09"/>
</g>
</g>
</svg>
