<?xml version="1.0" encoding="UTF-8" standalone="no"?>
<!DOCTYPE svg PUBLIC "-//W3C//DTD SVG 1.1//EN"
 "http://www.w3.org/Graphics/SVG/1.1/DTD/svg11.dtd">
<!-- Generated by graphviz version 2.43.0 (0)
 -->
<!-- Title: com.cliffc.aa.util.NonBlockingHashMap.CHM.copy_slot_and_check Pages: 1 -->
<svg width="401pt" height="132pt"
 viewBox="0.00 0.00 401.00 132.00" xmlns="http://www.w3.org/2000/svg" xmlns:xlink="http://www.w3.org/1999/xlink">
<g id="graph0" class="graph" transform="scale(1 1) rotate(0) translate(4 128)">
<title>com.cliffc.aa.util.NonBlockingHashMap.CHM.copy_slot_and_check</title>
<!-- Node1 -->
<g id="node1" class="node">
<title>Node1</title>
<g id="a_node1"><a xlink:title=" ">
<polygon fill="#bfbfbf" stroke="black" points="198,-46.5 198,-76.5 393,-76.5 393,-46.5 198,-46.5"/>
<text text-anchor="start" x="206" y="-64.5" font-family="Helvetica,sans-Serif" font-size="10.00">com.cliffc.aa.util.NonBlocking</text>
<text text-anchor="middle" x="295.5" y="-53.5" font-family="Helvetica,sans-Serif" font-size="10.00">HashMap.CHM.copy_slot_and_check</text>
</a>
</g>
</g>
<!-- Node2 -->
<g id="node2" class="node">
<title>Node2</title>
<g id="a_node2"><a xlink:href="../../d1/d88/a01578.html#a3bab2e9a84a115e693c549ceca1ec335" target="_top" xlink:title=" ">
<polygon fill="none" stroke="black" points="0,-71.5 0,-123.5 162,-123.5 162,-71.5 0,-71.5"/>
<text text-anchor="start" x="8" y="-111.5" font-family="Helvetica,sans-Serif" font-size="10.00">com.cliffc.aa.util.NonBlocking</text>
<text text-anchor="start" x="8" y="-100.5" font-family="Helvetica,sans-Serif" font-size="10.00">HashMap&lt; com::cliffc::aa</text>
<text text-anchor="start" x="8" y="-89.5" font-family="Helvetica,sans-Serif" font-size="10.00">::type::Type::Key, com::cliffc</text>
<text text-anchor="middle" x="81" y="-78.5" font-family="Helvetica,sans-Serif" font-size="10.00">::aa::type::Type &gt;::get_impl</text>
</a>
</g>
</g>
<!-- Node1&#45;&gt;Node2 -->
<g id="edge1" class="edge">
<title>Node1&#45;&gt;Node2</title>
<path fill="none" stroke="midnightblue" d="M196.03,-78.18C184.73,-80.1 173.32,-82.03 162.3,-83.9"/>
<polygon fill="midnightblue" stroke="midnightblue" points="196.64,-81.63 205.92,-76.51 195.48,-74.73 196.64,-81.63"/>
</g>
<!-- Node3 -->
<g id="node3" class="node">
<title>Node3</title>
<g id="a_node3"><a xlink:href="../../d1/d88/a01578.html#a5de08e8f6ee1fa095943fae0dda60b7a" target="_top" xlink:title=" ">
<polygon fill="none" stroke="black" points="0,-0.5 0,-52.5 162,-52.5 162,-0.5 0,-0.5"/>
<text text-anchor="start" x="8" y="-40.5" font-family="Helvetica,sans-Serif" font-size="10.00">com.cliffc.aa.util.NonBlocking</text>
<text text-anchor="start" x="8" y="-29.5" font-family="Helvetica,sans-Serif" font-size="10.00">HashMap&lt; com::cliffc::aa</text>
<text text-anchor="start" x="8" y="-18.5" font-family="Helvetica,sans-Serif" font-size="10.00">::type::Type::Key, com::cliffc</text>
<text text-anchor="middle" x="81" y="-7.5" font-family="Helvetica,sans-Serif" font-size="10.00">::aa::type::Type &gt;::putIfMatch</text>
</a>
</g>
</g>
<!-- Node1&#45;&gt;Node3 -->
<g id="edge2" class="edge">
<title>Node1&#45;&gt;Node3</title>
<path fill="none" stroke="midnightblue" d="M193.21,-44.82C182.82,-43.11 172.36,-41.38 162.23,-39.71"/>
<polygon fill="midnightblue" stroke="midnightblue" points="192.71,-48.28 203.15,-46.45 193.85,-41.38 192.71,-48.28"/>
</g>
</g>
</svg>
