<?xml version="1.0" encoding="UTF-8" standalone="no"?>
<!DOCTYPE svg PUBLIC "-//W3C//DTD SVG 1.1//EN"
 "http://www.w3.org/Graphics/SVG/1.1/DTD/svg11.dtd">
<!-- Generated by graphviz version 2.43.0 (0)
 -->
<!-- Title: com.cliffc.aa.HM.HM.NotNil.apply Pages: 1 -->
<!--zoomable 166 -->
<svg id="main" version="1.1" xmlns="http://www.w3.org/2000/svg" xmlns:xlink="http://www.w3.org/1999/xlink" xml:space="preserve" onload="init(evt)">
<style type="text/css"><![CDATA[
.edge:hover path { stroke: red; }
.edge:hover polygon { stroke: red; fill: red; }
]]></style>
<script type="text/javascript"><![CDATA[
var edges = document.getElementsByTagName('g');
if (edges && edges.length) {
  for (var i=0;i<edges.length;i++) {
    if (edges[i].id.substr(0,4)=='edge') {
      edges[i].setAttribute('class','edge');
    }
  }
}
]]></script>
        <defs>
                <circle id="rim" cx="0" cy="0" r="7"/>
                <circle id="rim2" cx="0" cy="0" r="3.5"/>
                <g id="zoomPlus">
                        <use xlink:href="#rim" fill="#404040">
                                <set attributeName="fill" to="#808080" begin="zoomplus.mouseover" end="zoomplus.mouseout"/>
                        </use>
                        <path d="M-4,0h8M0,-4v8" fill="none" stroke="white" stroke-width="1.5" pointer-events="none"/>
                </g>
                <g id="zoomMin">
                        <use xlink:href="#rim" fill="#404040">
                                <set attributeName="fill" to="#808080" begin="zoomminus.mouseover" end="zoomminus.mouseout"/>
                        </use>
                        <path d="M-4,0h8" fill="none" stroke="white" stroke-width="1.5" pointer-events="none"/>
                </g>
                <g id="dirArrow">
                        <path fill="none" stroke="white" stroke-width="1.5" d="M0,-3.0v7 M-2.5,-0.5L0,-3.0L2.5,-0.5"/>
                </g>
               <g id="resetDef">
                       <use xlink:href="#rim2" fill="#404040">
                               <set attributeName="fill" to="#808080" begin="reset.mouseover" end="reset.mouseout"/>
                       </use>
               </g>
        </defs>

<script type="text/javascript">
var viewWidth = 1007;
var viewHeight = 166;
var sectionId = 'dynsection-5';
</script>
<script xlink:href="../../svgpan.js"/>
<svg id="graph" class="graph">
<g id="viewport">
<title>com.cliffc.aa.HM.HM.NotNil.apply</title>
<!-- Node1 -->
<g id="node1" class="node">
<title>Node1</title>
<g id="a_node1"><a xlink:title=" ">
<polygon fill="#bfbfbf" stroke="black" points="0,-105 0,-124 182,-124 182,-105 0,-105"/>
<text text-anchor="middle" x="91" y="-112" font-family="Helvetica,sans-Serif" font-size="10.00">com.cliffc.aa.HM.HM.NotNil.apply</text>
</a>
</g>
</g>
<!-- Node2 -->
<g id="node2" class="node">
<title>Node2</title>
<g id="a_node2"><a xlink:href="../../d0/de2/a01442.html#a8ca47b43ab89089bd312510730041561" target="_top" xlink:title=" ">
<polygon fill="none" stroke="black" points="232,-124 232,-143 382,-143 382,-124 232,-124"/>
<text text-anchor="middle" x="307" y="-131" font-family="Helvetica,sans-Serif" font-size="10.00">com.cliffc.aa.type.Type.join</text>
</a>
</g>
</g>
<!-- Node1&#45;&gt;Node2 -->
<g id="edge1" class="edge">
<title>Node1&#45;&gt;Node2</title>
<path fill="none" stroke="midnightblue" d="M182.14,-122.5C195.2,-123.66 208.62,-124.85 221.57,-126"/>
<polygon fill="midnightblue" stroke="midnightblue" points="221.57,-129.52 231.84,-126.92 222.19,-122.55 221.57,-129.52"/>
</g>
<!-- Node3 -->
<g id="node3" class="node">
<title>Node3</title>
<g id="a_node3"><a xlink:href="../../dc/d0c/a00430.html#a006a9a28ca06eec593342acb2deec850" target="_top" xlink:title=" ">
<polygon fill="none" stroke="black" points="218,-86 218,-105 396,-105 396,-86 218,-86"/>
<text text-anchor="middle" x="307" y="-93" font-family="Helvetica,sans-Serif" font-size="10.00">com.cliffc.aa.HM.HM.Lambda.val</text>
</a>
</g>
</g>
<!-- Node1&#45;&gt;Node3 -->
<g id="edge2" class="edge">
<title>Node1&#45;&gt;Node3</title>
<path fill="none" stroke="midnightblue" d="M182.14,-106.5C190.59,-105.75 199.19,-104.98 207.72,-104.23"/>
<polygon fill="midnightblue" stroke="midnightblue" points="208.03,-107.71 217.68,-103.34 207.41,-100.74 208.03,-107.71"/>
</g>
<!-- Node4 -->
<g id="node4" class="node">
<title>Node4</title>
<g id="a_node4"><a xlink:href="../../d8/d7b/a01478.html#abfcb13c82cfef03b54961c47de257834" target="_top" xlink:title=" ">
<polygon fill="none" stroke="black" points="432,-80.5 432,-110.5 578,-110.5 578,-80.5 432,-80.5"/>
<text text-anchor="start" x="440" y="-98.5" font-family="Helvetica,sans-Serif" font-size="10.00">com.cliffc.aa.type.TypeFun</text>
<text text-anchor="middle" x="505" y="-87.5" font-family="Helvetica,sans-Serif" font-size="10.00">Ptr.make</text>
</a>
</g>
</g>
<!-- Node3&#45;&gt;Node4 -->
<g id="edge3" class="edge">
<title>Node3&#45;&gt;Node4</title>
<path fill="none" stroke="midnightblue" d="M396.25,-95.5C404.7,-95.5 413.25,-95.5 421.65,-95.5"/>
<polygon fill="midnightblue" stroke="midnightblue" points="421.79,-99 431.79,-95.5 421.79,-92 421.79,-99"/>
</g>
<!-- Node5 -->
<g id="node5" class="node">
<title>Node5</title>
<g id="a_node5"><a xlink:href="../../d8/d7b/a01478.html#aa25e7fb4217a6c132391f58312f06ec2" target="_top" xlink:title=" ">
<polygon fill="none" stroke="black" points="853,-99.5 853,-129.5 999,-129.5 999,-99.5 853,-99.5"/>
<text text-anchor="start" x="861" y="-117.5" font-family="Helvetica,sans-Serif" font-size="10.00">com.cliffc.aa.type.TypeFun</text>
<text text-anchor="middle" x="926" y="-106.5" font-family="Helvetica,sans-Serif" font-size="10.00">Ptr.fidxs</text>
</a>
</g>
</g>
<!-- Node4&#45;&gt;Node5 -->
<g id="edge4" class="edge">
<title>Node4&#45;&gt;Node5</title>
<path fill="none" stroke="midnightblue" d="M530.65,-110.69C551.86,-122.81 583.73,-138.83 614,-145.5 702.11,-164.91 727.66,-158.07 817,-145.5 835.57,-142.89 855.42,-137.87 872.98,-132.61"/>
<polygon fill="midnightblue" stroke="midnightblue" points="874.5,-135.81 883.02,-129.51 872.43,-129.12 874.5,-135.81"/>
</g>
<!-- Node6 -->
<g id="node6" class="node">
<title>Node6</title>
<g id="a_node6"><a xlink:href="../../d0/de2/a01442.html#a8fe8d556e45e6b654f3ac87f118ac8de" target="_top" xlink:title=" ">
<polygon fill="none" stroke="black" points="614,-117 614,-136 817,-136 817,-117 614,-117"/>
<text text-anchor="middle" x="715.5" y="-124" font-family="Helvetica,sans-Serif" font-size="10.00">com.cliffc.aa.type.Type.hashcons_free</text>
</a>
</g>
</g>
<!-- Node4&#45;&gt;Node6 -->
<g id="edge5" class="edge">
<title>Node4&#45;&gt;Node6</title>
<path fill="none" stroke="midnightblue" d="M578.05,-106.21C598.18,-109.21 620.1,-112.46 640.36,-115.48"/>
<polygon fill="midnightblue" stroke="midnightblue" points="640.06,-118.97 650.47,-116.98 641.09,-112.05 640.06,-118.97"/>
</g>
<!-- Node7 -->
<g id="node7" class="node">
<title>Node7</title>
<g id="a_node7"><a xlink:href="../../d8/d7b/a01478.html#a42f8ada06bc493d5b138d77c6370b64c" target="_top" xlink:title=" ">
<polygon fill="none" stroke="black" points="642.5,-49.5 642.5,-79.5 788.5,-79.5 788.5,-49.5 642.5,-49.5"/>
<text text-anchor="start" x="650.5" y="-67.5" font-family="Helvetica,sans-Serif" font-size="10.00">com.cliffc.aa.type.TypeFun</text>
<text text-anchor="middle" x="715.5" y="-56.5" font-family="Helvetica,sans-Serif" font-size="10.00">Ptr.init</text>
</a>
</g>
</g>
<!-- Node4&#45;&gt;Node7 -->
<g id="edge6" class="edge">
<title>Node4&#45;&gt;Node7</title>
<path fill="none" stroke="midnightblue" d="M578.05,-84.79C595.54,-82.19 614.38,-79.39 632.31,-76.72"/>
<polygon fill="midnightblue" stroke="midnightblue" points="633.07,-80.14 642.45,-75.21 632.05,-73.22 633.07,-80.14"/>
</g>
<!-- Node8 -->
<g id="node8" class="node">
<title>Node8</title>
<g id="a_node8"><a xlink:href="../../d0/de2/a01442.html#a64703347bc6c4282358a7bd95493a922" target="_top" xlink:title=" ">
<polygon fill="none" stroke="black" points="645.5,-0.5 645.5,-30.5 785.5,-30.5 785.5,-0.5 645.5,-0.5"/>
<text text-anchor="start" x="653.5" y="-18.5" font-family="Helvetica,sans-Serif" font-size="10.00">com.cliffc.aa.type.Type.is</text>
<text text-anchor="middle" x="715.5" y="-7.5" font-family="Helvetica,sans-Serif" font-size="10.00">_display_ptr</text>
</a>
</g>
</g>
<!-- Node4&#45;&gt;Node8 -->
<g id="edge9" class="edge">
<title>Node4&#45;&gt;Node8</title>
<path fill="none" stroke="midnightblue" d="M531.44,-80.46C552.86,-68.3 584.63,-51.47 614,-40.5 620.89,-37.93 628.14,-35.54 635.47,-33.34"/>
<polygon fill="midnightblue" stroke="midnightblue" points="636.83,-36.59 645.48,-30.46 634.9,-29.86 636.83,-36.59"/>
</g>
<!-- Node7&#45;&gt;Node5 -->
<g id="edge7" class="edge">
<title>Node7&#45;&gt;Node5</title>
<path fill="none" stroke="midnightblue" d="M779.06,-79.5C802.15,-85.04 828.5,-91.36 852.4,-97.09"/>
<polygon fill="midnightblue" stroke="midnightblue" points="851.59,-100.49 862.13,-99.42 853.22,-93.69 851.59,-100.49"/>
</g>
<!-- Node7&#45;&gt;Node7 -->
<g id="edge8" class="edge">
<title>Node7&#45;&gt;Node7</title>
<path fill="none" stroke="midnightblue" d="M678.9,-79.66C670.08,-89.06 682.28,-98 715.5,-98 735.75,-98 748.18,-94.68 752.81,-89.96"/>
<polygon fill="midnightblue" stroke="midnightblue" points="756.28,-89.39 752.1,-79.66 749.3,-89.88 756.28,-89.39"/>
</g>
</g>
</svg>
        <g id="navigator" transform="translate(0 0)" fill="#404254">
                <rect fill="#f2f5e9" fill-opacity="0.5" stroke="#606060" stroke-width=".5" x="0" y="0" width="60" height="60"/>
                <use id="zoomplus" xlink:href="#zoomPlus" x="17" y="9" onmousedown="handleZoom(evt,'in')"/>
                <use id="zoomminus" xlink:href="#zoomMin" x="42" y="9" onmousedown="handleZoom(evt,'out')"/>
                <use id="reset" xlink:href="#resetDef" x="30" y="36" onmousedown="handleReset()"/>
                <g id="arrowUp" xlink:href="#dirArrow" transform="translate(30 24)" onmousedown="handlePan(0,-1)">
                  <use xlink:href="#rim" fill="#404040">
                        <set attributeName="fill" to="#808080" begin="arrowUp.mouseover" end="arrowUp.mouseout"/>
                  </use>
                  <path fill="none" stroke="white" stroke-width="1.5" d="M0,-3.0v7 M-2.5,-0.5L0,-3.0L2.5,-0.5"/>
                </g>
                <g id="arrowRight" xlink:href="#dirArrow" transform="rotate(90) translate(36 -43)" onmousedown="handlePan(1,0)">
                  <use xlink:href="#rim" fill="#404040">
                        <set attributeName="fill" to="#808080" begin="arrowRight.mouseover" end="arrowRight.mouseout"/>
                  </use>
                  <path fill="none" stroke="white" stroke-width="1.5" d="M0,-3.0v7 M-2.5,-0.5L0,-3.0L2.5,-0.5"/>
                </g>
                <g id="arrowDown" xlink:href="#dirArrow" transform="rotate(180) translate(-30 -48)" onmousedown="handlePan(0,1)">
                  <use xlink:href="#rim" fill="#404040">
                        <set attributeName="fill" to="#808080" begin="arrowDown.mouseover" end="arrowDown.mouseout"/>
                  </use>
                  <path fill="none" stroke="white" stroke-width="1.5" d="M0,-3.0v7 M-2.5,-0.5L0,-3.0L2.5,-0.5"/>
                </g>
                <g id="arrowLeft" xlink:href="#dirArrow" transform="rotate(270) translate(-36 17)" onmousedown="handlePan(-1,0)">
                  <use xlink:href="#rim" fill="#404040">
                        <set attributeName="fill" to="#808080" begin="arrowLeft.mouseover" end="arrowLeft.mouseout"/>
                  </use>
                  <path fill="none" stroke="white" stroke-width="1.5" d="M0,-3.0v7 M-2.5,-0.5L0,-3.0L2.5,-0.5"/>
                </g>
        </g>
        <svg viewBox="0 0 15 15" width="100%" height="30px" preserveAspectRatio="xMaxYMin meet">
         <g id="arrow_out" transform="scale(0.3 0.3)">
          <a xlink:href="a00490_ab96f156b3e4dd6c72decfd96f4598ea3_cgraph_org.svg" target="_base">
           <rect id="button" ry="5" rx="5" y="6" x="6" height="38" width="38"
                fill="#f2f5e9" fill-opacity="0.5" stroke="#606060" stroke-width="1.0"/>
           <path id="arrow"
             d="M 11.500037,31.436501 C 11.940474,20.09759 22.043105,11.32322 32.158766,21.979434 L 37.068811,17.246167 C 37.068811,17.246167 37.088388,32 37.088388,32 L 22.160133,31.978069 C 22.160133,31.978069 26.997745,27.140456 26.997745,27.140456 C 18.528582,18.264221 13.291696,25.230495 11.500037,31.436501 z"
             style="fill:#404040;"/>
          </a>
         </g>
        </svg>
</svg>
