<?xml version="1.0" encoding="UTF-8" standalone="no"?>
<!DOCTYPE svg PUBLIC "-//W3C//DTD SVG 1.1//EN"
 "http://www.w3.org/Graphics/SVG/1.1/DTD/svg11.dtd">
<!-- Generated by graphviz version 2.43.0 (0)
 -->
<!-- Title: com.cliffc.aa.HM.HM.Lambda.Lambda Pages: 1 -->
<svg width="1001pt" height="190pt"
 viewBox="0.00 0.00 1001.00 189.50" xmlns="http://www.w3.org/2000/svg" xmlns:xlink="http://www.w3.org/1999/xlink">
<g id="graph0" class="graph" transform="scale(1 1) rotate(0) translate(4 185.5)">
<title>com.cliffc.aa.HM.HM.Lambda.Lambda</title>
<!-- Node1 -->
<g id="node1" class="node">
<title>Node1</title>
<g id="a_node1"><a xlink:title=" ">
<polygon fill="#bfbfbf" stroke="black" points="0,-118.5 0,-148.5 163,-148.5 163,-118.5 0,-118.5"/>
<text text-anchor="start" x="8" y="-136.5" font-family="Helvetica,sans-Serif" font-size="10.00">com.cliffc.aa.HM.HM.Lambda.</text>
<text text-anchor="middle" x="81.5" y="-125.5" font-family="Helvetica,sans-Serif" font-size="10.00">Lambda</text>
</a>
</g>
</g>
<!-- Node2 -->
<g id="node2" class="node">
<title>Node2</title>
<g id="a_node2"><a xlink:href="../../d6/d90/a00514.html#a00e14efdacb99c4fe3f1512c9bbeb566" target="_top" xlink:title=" ">
<polygon fill="none" stroke="black" points="200,-162 200,-181 387,-181 387,-162 200,-162"/>
<text text-anchor="middle" x="293.5" y="-169" font-family="Helvetica,sans-Serif" font-size="10.00">com.cliffc.aa.HM.HM.T2.make_leaf</text>
</a>
</g>
</g>
<!-- Node1&#45;&gt;Node2 -->
<g id="edge1" class="edge">
<title>Node1&#45;&gt;Node2</title>
<path fill="none" stroke="midnightblue" d="M163.09,-148.08C185.16,-152.08 208.75,-156.34 229.66,-160.13"/>
<polygon fill="midnightblue" stroke="midnightblue" points="229.23,-163.61 239.69,-161.94 230.48,-156.72 229.23,-163.61"/>
</g>
<!-- Node4 -->
<g id="node4" class="node">
<title>Node4</title>
<g id="a_node4"><a xlink:href="../../d1/de7/a01434.html#a30e2e44cd2f3597f89f07e6429fdf0f0" target="_top" xlink:title=" ">
<polygon fill="none" stroke="black" points="199,-124 199,-143 388,-143 388,-124 199,-124"/>
<text text-anchor="middle" x="293.5" y="-131" font-family="Helvetica,sans-Serif" font-size="10.00">com.cliffc.aa.type.BitsFun.new_fidx</text>
</a>
</g>
</g>
<!-- Node1&#45;&gt;Node4 -->
<g id="edge3" class="edge">
<title>Node1&#45;&gt;Node4</title>
<path fill="none" stroke="midnightblue" d="M163.09,-133.5C171.49,-133.5 180.1,-133.5 188.71,-133.5"/>
<polygon fill="midnightblue" stroke="midnightblue" points="188.8,-137 198.8,-133.5 188.8,-130 188.8,-137"/>
</g>
<!-- Node5 -->
<g id="node5" class="node">
<title>Node5</title>
<g id="a_node5"><a xlink:href="../../dc/d0c/a00430.html#a006a9a28ca06eec593342acb2deec850" target="_top" xlink:title=" ">
<polygon fill="none" stroke="black" points="204.5,-86 204.5,-105 382.5,-105 382.5,-86 204.5,-86"/>
<text text-anchor="middle" x="293.5" y="-93" font-family="Helvetica,sans-Serif" font-size="10.00">com.cliffc.aa.HM.HM.Lambda.val</text>
</a>
</g>
</g>
<!-- Node1&#45;&gt;Node5 -->
<g id="edge4" class="edge">
<title>Node1&#45;&gt;Node5</title>
<path fill="none" stroke="midnightblue" d="M163.09,-118.92C185.16,-114.92 208.75,-110.66 229.66,-106.87"/>
<polygon fill="midnightblue" stroke="midnightblue" points="230.48,-110.28 239.69,-105.06 229.23,-103.39 230.48,-110.28"/>
</g>
<!-- Node3 -->
<g id="node3" class="node">
<title>Node3</title>
<g id="a_node3"><a xlink:href="../../d6/d90/a00514.html#a26fdb3cb11feddd848b589240ce39dc2" target="_top" xlink:title=" ">
<polygon fill="none" stroke="black" points="424,-162 424,-181 572,-181 572,-162 424,-162"/>
<text text-anchor="middle" x="498" y="-169" font-family="Helvetica,sans-Serif" font-size="10.00">com.cliffc.aa.HM.HM.T2.T2</text>
</a>
</g>
</g>
<!-- Node2&#45;&gt;Node3 -->
<g id="edge2" class="edge">
<title>Node2&#45;&gt;Node3</title>
<path fill="none" stroke="midnightblue" d="M387.16,-171.5C395.99,-171.5 404.91,-171.5 413.65,-171.5"/>
<polygon fill="midnightblue" stroke="midnightblue" points="413.8,-175 423.8,-171.5 413.8,-168 413.8,-175"/>
</g>
<!-- Node6 -->
<g id="node6" class="node">
<title>Node6</title>
<g id="a_node6"><a xlink:href="../../d8/d7b/a01478.html#abfcb13c82cfef03b54961c47de257834" target="_top" xlink:title=" ">
<polygon fill="none" stroke="black" points="425,-80.5 425,-110.5 571,-110.5 571,-80.5 425,-80.5"/>
<text text-anchor="start" x="433" y="-98.5" font-family="Helvetica,sans-Serif" font-size="10.00">com.cliffc.aa.type.TypeFun</text>
<text text-anchor="middle" x="498" y="-87.5" font-family="Helvetica,sans-Serif" font-size="10.00">Ptr.make</text>
</a>
</g>
</g>
<!-- Node5&#45;&gt;Node6 -->
<g id="edge5" class="edge">
<title>Node5&#45;&gt;Node6</title>
<path fill="none" stroke="midnightblue" d="M382.73,-95.5C393.39,-95.5 404.25,-95.5 414.82,-95.5"/>
<polygon fill="midnightblue" stroke="midnightblue" points="414.85,-99 424.85,-95.5 414.85,-92 414.85,-99"/>
</g>
<!-- Node7 -->
<g id="node7" class="node">
<title>Node7</title>
<g id="a_node7"><a xlink:href="../../d8/d7b/a01478.html#aa25e7fb4217a6c132391f58312f06ec2" target="_top" xlink:title=" ">
<polygon fill="none" stroke="black" points="847,-99.5 847,-129.5 993,-129.5 993,-99.5 847,-99.5"/>
<text text-anchor="start" x="855" y="-117.5" font-family="Helvetica,sans-Serif" font-size="10.00">com.cliffc.aa.type.TypeFun</text>
<text text-anchor="middle" x="920" y="-106.5" font-family="Helvetica,sans-Serif" font-size="10.00">Ptr.fidxs</text>
</a>
</g>
</g>
<!-- Node6&#45;&gt;Node7 -->
<g id="edge6" class="edge">
<title>Node6&#45;&gt;Node7</title>
<path fill="none" stroke="midnightblue" d="M523.89,-110.69C545.31,-122.82 577.49,-138.84 608,-145.5 696.14,-164.75 721.66,-158.07 811,-145.5 829.57,-142.89 849.42,-137.87 866.98,-132.61"/>
<polygon fill="midnightblue" stroke="midnightblue" points="868.5,-135.81 877.02,-129.51 866.43,-129.12 868.5,-135.81"/>
</g>
<!-- Node8 -->
<g id="node8" class="node">
<title>Node8</title>
<g id="a_node8"><a xlink:href="../../d0/de2/a01442.html#a8fe8d556e45e6b654f3ac87f118ac8de" target="_top" xlink:title=" ">
<polygon fill="none" stroke="black" points="608,-117 608,-136 811,-136 811,-117 608,-117"/>
<text text-anchor="middle" x="709.5" y="-124" font-family="Helvetica,sans-Serif" font-size="10.00">com.cliffc.aa.type.Type.hashcons_free</text>
</a>
</g>
</g>
<!-- Node6&#45;&gt;Node8 -->
<g id="edge7" class="edge">
<title>Node6&#45;&gt;Node8</title>
<path fill="none" stroke="midnightblue" d="M571.1,-106.17C591.44,-109.18 613.61,-112.46 634.09,-115.49"/>
<polygon fill="midnightblue" stroke="midnightblue" points="633.58,-118.95 643.99,-116.95 634.61,-112.03 633.58,-118.95"/>
</g>
<!-- Node9 -->
<g id="node9" class="node">
<title>Node9</title>
<g id="a_node9"><a xlink:href="../../d8/d7b/a01478.html#a42f8ada06bc493d5b138d77c6370b64c" target="_top" xlink:title=" ">
<polygon fill="none" stroke="black" points="636.5,-49.5 636.5,-79.5 782.5,-79.5 782.5,-49.5 636.5,-49.5"/>
<text text-anchor="start" x="644.5" y="-67.5" font-family="Helvetica,sans-Serif" font-size="10.00">com.cliffc.aa.type.TypeFun</text>
<text text-anchor="middle" x="709.5" y="-56.5" font-family="Helvetica,sans-Serif" font-size="10.00">Ptr.init</text>
</a>
</g>
</g>
<!-- Node6&#45;&gt;Node9 -->
<g id="edge8" class="edge">
<title>Node6&#45;&gt;Node9</title>
<path fill="none" stroke="midnightblue" d="M571.1,-84.83C588.87,-82.2 608.04,-79.36 626.26,-76.67"/>
<polygon fill="midnightblue" stroke="midnightblue" points="626.89,-80.11 636.27,-75.19 625.86,-73.19 626.89,-80.11"/>
</g>
<!-- Node10 -->
<g id="node10" class="node">
<title>Node10</title>
<g id="a_node10"><a xlink:href="../../d0/de2/a01442.html#a64703347bc6c4282358a7bd95493a922" target="_top" xlink:title=" ">
<polygon fill="none" stroke="black" points="639.5,-0.5 639.5,-30.5 779.5,-30.5 779.5,-0.5 639.5,-0.5"/>
<text text-anchor="start" x="647.5" y="-18.5" font-family="Helvetica,sans-Serif" font-size="10.00">com.cliffc.aa.type.Type.is</text>
<text text-anchor="middle" x="709.5" y="-7.5" font-family="Helvetica,sans-Serif" font-size="10.00">_display_ptr</text>
</a>
</g>
</g>
<!-- Node6&#45;&gt;Node10 -->
<g id="edge11" class="edge">
<title>Node6&#45;&gt;Node10</title>
<path fill="none" stroke="midnightblue" d="M524.69,-80.47C546.33,-68.32 578.39,-51.49 608,-40.5 614.89,-37.94 622.15,-35.56 629.48,-33.37"/>
<polygon fill="midnightblue" stroke="midnightblue" points="630.84,-36.62 639.49,-30.49 628.91,-29.89 630.84,-36.62"/>
</g>
<!-- Node9&#45;&gt;Node7 -->
<g id="edge9" class="edge">
<title>Node9&#45;&gt;Node7</title>
<path fill="none" stroke="midnightblue" d="M773.06,-79.5C796.15,-85.04 822.5,-91.36 846.4,-97.09"/>
<polygon fill="midnightblue" stroke="midnightblue" points="845.59,-100.49 856.13,-99.42 847.22,-93.69 845.59,-100.49"/>
</g>
<!-- Node9&#45;&gt;Node9 -->
<g id="edge10" class="edge">
<title>Node9&#45;&gt;Node9</title>
<path fill="none" stroke="midnightblue" d="M672.9,-79.66C664.08,-89.06 676.28,-98 709.5,-98 729.75,-98 742.18,-94.68 746.81,-89.96"/>
<polygon fill="midnightblue" stroke="midnightblue" points="750.28,-89.39 746.1,-79.66 743.3,-89.88 750.28,-89.39"/>
</g>
</g>
</svg>
