<?xml version="1.0" encoding="UTF-8" standalone="no"?>
<!DOCTYPE svg PUBLIC "-//W3C//DTD SVG 1.1//EN"
 "http://www.w3.org/Graphics/SVG/1.1/DTD/svg11.dtd">
<!-- Generated by graphviz version 2.43.0 (0)
 -->
<!-- Title: com.cliffc.aa.HM.HM.Lambda.targ Pages: 1 -->
<svg width="435pt" height="405pt"
 viewBox="0.00 0.00 435.00 404.50" xmlns="http://www.w3.org/2000/svg" xmlns:xlink="http://www.w3.org/1999/xlink">
<g id="graph0" class="graph" transform="scale(1 1) rotate(0) translate(4 400.5)">
<title>com.cliffc.aa.HM.HM.Lambda.targ</title>
<!-- Node1 -->
<g id="node1" class="node">
<title>Node1</title>
<g id="a_node1"><a xlink:title=" ">
<polygon fill="#bfbfbf" stroke="black" points="245,-171.5 245,-190.5 427,-190.5 427,-171.5 245,-171.5"/>
<text text-anchor="middle" x="336" y="-178.5" font-family="Helvetica,sans-Serif" font-size="10.00">com.cliffc.aa.HM.HM.Lambda.targ</text>
</a>
</g>
</g>
<!-- Node1&#45;&gt;Node1 -->
<g id="edge10" class="edge">
<title>Node1&#45;&gt;Node1</title>
<path fill="none" stroke="midnightblue" d="M378.9,-197.22C381.13,-203.63 366.83,-209 336,-209 294.9,-209 283.18,-199.46 300.84,-190.61"/>
<polygon fill="midnightblue" stroke="midnightblue" points="381.04,-194.44 371.16,-190.61 376.49,-199.77 381.04,-194.44"/>
</g>
<!-- Node2 -->
<g id="node2" class="node">
<title>Node2</title>
<g id="a_node2"><a xlink:href="../../dc/d0c/a00430.html#a38062d9d31a4a6c28b713b3e66f183ea" target="_top" xlink:title=" ">
<polygon fill="none" stroke="black" points="14,-366 14,-396 195,-396 195,-366 14,-366"/>
<text text-anchor="start" x="22" y="-384" font-family="Helvetica,sans-Serif" font-size="10.00">com.cliffc.aa.HM.HM.Lambda.add</text>
<text text-anchor="middle" x="104.5" y="-373" font-family="Helvetica,sans-Serif" font-size="10.00">_hm_work</text>
</a>
</g>
</g>
<!-- Node1&#45;&gt;Node2 -->
<g id="edge1" class="edge">
<title>Node1&#45;&gt;Node2</title>
<path fill="none" stroke="midnightblue" d="M326.81,-200.44C310.28,-237.18 269.3,-316.74 209,-357 203.86,-360.43 198.29,-363.38 192.5,-365.9"/>
<polygon fill="midnightblue" stroke="midnightblue" points="330.19,-201.45 330.98,-190.89 323.77,-198.65 330.19,-201.45"/>
</g>
<!-- Node3 -->
<g id="node3" class="node">
<title>Node3</title>
<g id="a_node3"><a xlink:href="../../dd/dfd/a00438.html#a28a21e492c48d30e6beaad589f4b202b" target="_top" xlink:title=" ">
<polygon fill="none" stroke="black" points="20.5,-317 20.5,-347 188.5,-347 188.5,-317 20.5,-317"/>
<text text-anchor="start" x="28.5" y="-335" font-family="Helvetica,sans-Serif" font-size="10.00">com.cliffc.aa.HM.HM.Apply.add</text>
<text text-anchor="middle" x="104.5" y="-324" font-family="Helvetica,sans-Serif" font-size="10.00">_val_work</text>
</a>
</g>
</g>
<!-- Node1&#45;&gt;Node3 -->
<g id="edge2" class="edge">
<title>Node1&#45;&gt;Node3</title>
<path fill="none" stroke="midnightblue" d="M322.25,-199.01C301.68,-226.66 258.45,-279.26 209,-307 202.07,-310.89 194.54,-314.18 186.82,-316.96"/>
<polygon fill="midnightblue" stroke="midnightblue" points="325.27,-200.81 328.33,-190.66 319.61,-196.68 325.27,-200.81"/>
</g>
<!-- Node4 -->
<g id="node4" class="node">
<title>Node4</title>
<g id="a_node4"><a xlink:href="../../dc/d0c/a00430.html#a003d59fc77551bf3448ae83a9d2ed712" target="_top" xlink:title=" ">
<polygon fill="none" stroke="black" points="15,-278.5 15,-297.5 194,-297.5 194,-278.5 15,-278.5"/>
<text text-anchor="middle" x="104.5" y="-285.5" font-family="Helvetica,sans-Serif" font-size="10.00">com.cliffc.aa.HM.HM.Lambda.hm</text>
</a>
</g>
</g>
<!-- Node1&#45;&gt;Node4 -->
<g id="edge3" class="edge">
<title>Node1&#45;&gt;Node4</title>
<path fill="none" stroke="midnightblue" d="M316.84,-197.53C293.62,-217.71 251.32,-251.33 209,-269 199.64,-272.91 189.48,-276.01 179.3,-278.48"/>
<polygon fill="midnightblue" stroke="midnightblue" points="319.32,-200.01 324.5,-190.76 314.69,-194.76 319.32,-200.01"/>
</g>
<!-- Node5 -->
<g id="node5" class="node">
<title>Node5</title>
<g id="a_node5"><a xlink:href="../../d7/d9f/a00454.html#af22190d8656eaf54e25d6708d7cd2752" target="_top" xlink:title=" ">
<polygon fill="none" stroke="black" points="33,-229 33,-259 176,-259 176,-229 33,-229"/>
<text text-anchor="start" x="41" y="-247" font-family="Helvetica,sans-Serif" font-size="10.00">com.cliffc.aa.HM.HM.Prim</text>
<text text-anchor="middle" x="104.5" y="-236" font-family="Helvetica,sans-Serif" font-size="10.00">Syn.hm</text>
</a>
</g>
</g>
<!-- Node1&#45;&gt;Node5 -->
<g id="edge4" class="edge">
<title>Node1&#45;&gt;Node5</title>
<path fill="none" stroke="midnightblue" d="M295.35,-193.58C270.62,-201.27 238.07,-211.11 209,-219 196.51,-222.39 183.11,-225.79 170.24,-228.95"/>
<polygon fill="midnightblue" stroke="midnightblue" points="296.59,-196.86 305.09,-190.53 294.51,-190.18 296.59,-196.86"/>
</g>
<!-- Node6 -->
<g id="node6" class="node">
<title>Node6</title>
<g id="a_node6"><a xlink:href="../../d5/d26/a00474.html#a10b0942ad909e0c50933ebdad7ad6644" target="_top" xlink:title=" ">
<polygon fill="none" stroke="black" points="31.5,-190.5 31.5,-209.5 177.5,-209.5 177.5,-190.5 31.5,-190.5"/>
<text text-anchor="middle" x="104.5" y="-197.5" font-family="Helvetica,sans-Serif" font-size="10.00">com.cliffc.aa.HM.HM.If.hm</text>
</a>
</g>
</g>
<!-- Node1&#45;&gt;Node6 -->
<g id="edge5" class="edge">
<title>Node1&#45;&gt;Node6</title>
<path fill="none" stroke="midnightblue" d="M234.93,-189.29C215.63,-190.88 195.76,-192.53 177.57,-194.03"/>
<polygon fill="midnightblue" stroke="midnightblue" points="235.28,-192.77 244.95,-188.45 234.7,-185.79 235.28,-192.77"/>
</g>
<!-- Node7 -->
<g id="node7" class="node">
<title>Node7</title>
<g id="a_node7"><a xlink:href="../../d7/daa/a00490.html#a86b5bb048fce145f160e2302c9f19255" target="_top" xlink:title=" ">
<polygon fill="none" stroke="black" points="19.5,-152.5 19.5,-171.5 189.5,-171.5 189.5,-152.5 19.5,-152.5"/>
<text text-anchor="middle" x="104.5" y="-159.5" font-family="Helvetica,sans-Serif" font-size="10.00">com.cliffc.aa.HM.HM.NotNil.hm</text>
</a>
</g>
</g>
<!-- Node1&#45;&gt;Node7 -->
<g id="edge6" class="edge">
<title>Node1&#45;&gt;Node7</title>
<path fill="none" stroke="midnightblue" d="M234.63,-172.69C219.63,-171.45 204.29,-170.18 189.67,-168.97"/>
<polygon fill="midnightblue" stroke="midnightblue" points="234.7,-176.21 244.95,-173.55 235.28,-169.23 234.7,-176.21"/>
</g>
<!-- Node8 -->
<g id="node8" class="node">
<title>Node8</title>
<g id="a_node8"><a xlink:href="../../dc/d0c/a00430.html#a0a6af1dfb2a2a6ee4d16598be3eee691" target="_top" xlink:title=" ">
<polygon fill="none" stroke="black" points="17,-114.5 17,-133.5 192,-133.5 192,-114.5 17,-114.5"/>
<text text-anchor="middle" x="104.5" y="-121.5" font-family="Helvetica,sans-Serif" font-size="10.00">com.cliffc.aa.HM.HM.Lambda.p1</text>
</a>
</g>
</g>
<!-- Node1&#45;&gt;Node8 -->
<g id="edge7" class="edge">
<title>Node1&#45;&gt;Node8</title>
<path fill="none" stroke="midnightblue" d="M296.96,-168.32C272.12,-160.34 238.86,-150.22 209,-143 194.44,-139.48 178.59,-136.26 163.77,-133.52"/>
<polygon fill="midnightblue" stroke="midnightblue" points="296.13,-171.73 306.72,-171.49 298.29,-165.07 296.13,-171.73"/>
</g>
<!-- Node9 -->
<g id="node9" class="node">
<title>Node9</title>
<g id="a_node9"><a xlink:href="../../d7/db9/a00426.html#acfcaf860b7cee48ca46cb00a1b8542dc" target="_top" xlink:title=" ">
<polygon fill="none" stroke="black" points="7,-76.5 7,-95.5 202,-95.5 202,-76.5 7,-76.5"/>
<text text-anchor="middle" x="104.5" y="-83.5" font-family="Helvetica,sans-Serif" font-size="10.00">com.cliffc.aa.HM.HM.Ident.prep_tree</text>
</a>
</g>
</g>
<!-- Node1&#45;&gt;Node9 -->
<g id="edge8" class="edge">
<title>Node1&#45;&gt;Node9</title>
<path fill="none" stroke="midnightblue" d="M314.24,-165.22C290.21,-147.75 248.82,-120.09 209,-105 198.75,-101.12 187.62,-98.01 176.58,-95.53"/>
<polygon fill="midnightblue" stroke="midnightblue" points="312.44,-168.24 322.56,-171.36 316.6,-162.61 312.44,-168.24"/>
</g>
<!-- Node10 -->
<g id="node10" class="node">
<title>Node10</title>
<g id="a_node10"><a xlink:href="../../dc/d0c/a00430.html#a65a4e204ccfd9aa60ab007d6f911cdf1" target="_top" xlink:title=" ">
<polygon fill="none" stroke="black" points="0,-38.5 0,-57.5 209,-57.5 209,-38.5 0,-38.5"/>
<text text-anchor="middle" x="104.5" y="-45.5" font-family="Helvetica,sans-Serif" font-size="10.00">com.cliffc.aa.HM.HM.Lambda.prep_tree</text>
</a>
</g>
</g>
<!-- Node1&#45;&gt;Node10 -->
<g id="edge9" class="edge">
<title>Node1&#45;&gt;Node10</title>
<path fill="none" stroke="midnightblue" d="M321.11,-163.33C299.9,-137.68 256.8,-90.59 209,-67 201.14,-63.12 192.58,-60.03 183.88,-57.56"/>
<polygon fill="midnightblue" stroke="midnightblue" points="318.67,-165.87 327.68,-171.44 324.11,-161.47 318.67,-165.87"/>
</g>
<!-- Node11 -->
<g id="node11" class="node">
<title>Node11</title>
<g id="a_node11"><a xlink:href="../../db/d34/a00442.html#a8c52dd2754409ffed60139c5ea3e47ef" target="_top" xlink:title=" ">
<polygon fill="none" stroke="black" points="24,-0.5 24,-19.5 185,-19.5 185,-0.5 24,-0.5"/>
<text text-anchor="middle" x="104.5" y="-7.5" font-family="Helvetica,sans-Serif" font-size="10.00">com.cliffc.aa.HM.HM.Root.val</text>
</a>
</g>
</g>
<!-- Node1&#45;&gt;Node11 -->
<g id="edge11" class="edge">
<title>Node1&#45;&gt;Node11</title>
<path fill="none" stroke="midnightblue" d="M325.23,-162.16C307.11,-129.28 265.01,-61.83 209,-29 201.59,-24.66 193.42,-21.27 185,-18.63"/>
<polygon fill="midnightblue" stroke="midnightblue" points="322.25,-164.02 330.07,-171.17 328.42,-160.71 322.25,-164.02"/>
</g>
</g>
</svg>
