<?xml version="1.0" encoding="UTF-8" standalone="no"?>
<!DOCTYPE svg PUBLIC "-//W3C//DTD SVG 1.1//EN"
 "http://www.w3.org/Graphics/SVG/1.1/DTD/svg11.dtd">
<!-- Generated by graphviz version 2.43.0 (0)
 -->
<!-- Title: com.cliffc.aa.HM.HM8.Apply.prep_tree Pages: 1 -->
<!--zoomable 284 -->
<svg id="main" version="1.1" xmlns="http://www.w3.org/2000/svg" xmlns:xlink="http://www.w3.org/1999/xlink" xml:space="preserve" onload="init(evt)">
<style type="text/css"><![CDATA[
.edge:hover path { stroke: red; }
.edge:hover polygon { stroke: red; fill: red; }
]]></style>
<script type="text/javascript"><![CDATA[
var edges = document.getElementsByTagName('g');
if (edges && edges.length) {
  for (var i=0;i<edges.length;i++) {
    if (edges[i].id.substr(0,4)=='edge') {
      edges[i].setAttribute('class','edge');
    }
  }
}
]]></script>
        <defs>
                <circle id="rim" cx="0" cy="0" r="7"/>
                <circle id="rim2" cx="0" cy="0" r="3.5"/>
                <g id="zoomPlus">
                        <use xlink:href="#rim" fill="#404040">
                                <set attributeName="fill" to="#808080" begin="zoomplus.mouseover" end="zoomplus.mouseout"/>
                        </use>
                        <path d="M-4,0h8M0,-4v8" fill="none" stroke="white" stroke-width="1.5" pointer-events="none"/>
                </g>
                <g id="zoomMin">
                        <use xlink:href="#rim" fill="#404040">
                                <set attributeName="fill" to="#808080" begin="zoomminus.mouseover" end="zoomminus.mouseout"/>
                        </use>
                        <path d="M-4,0h8" fill="none" stroke="white" stroke-width="1.5" pointer-events="none"/>
                </g>
                <g id="dirArrow">
                        <path fill="none" stroke="white" stroke-width="1.5" d="M0,-3.0v7 M-2.5,-0.5L0,-3.0L2.5,-0.5"/>
                </g>
               <g id="resetDef">
                       <use xlink:href="#rim2" fill="#404040">
                               <set attributeName="fill" to="#808080" begin="reset.mouseover" end="reset.mouseout"/>
                       </use>
               </g>
        </defs>

<script type="text/javascript">
var viewWidth = 2314;
var viewHeight = 284;
var sectionId = 'dynsection-23';
</script>
<script xlink:href="../../svgpan.js"/>
<svg id="graph" class="graph">
<g id="viewport">
<title>com.cliffc.aa.HM.HM8.Apply.prep_tree</title>
<!-- Node1 -->
<g id="node1" class="node">
<title>Node1</title>
<g id="a_node1"><a xlink:title=" ">
<polygon fill="#bfbfbf" stroke="black" points="0,-174.5 0,-193.5 203,-193.5 203,-174.5 0,-174.5"/>
<text text-anchor="middle" x="101.5" y="-181.5" font-family="Helvetica,sans-Serif" font-size="10.00">com.cliffc.aa.HM.HM8.Apply.prep_tree</text>
</a>
</g>
</g>
<!-- Node2 -->
<g id="node2" class="node">
<title>Node2</title>
<g id="a_node2"><a xlink:href="../../df/d2a/a00874.html#ae61880f9ca63102477e495acda1a787a" target="_top" xlink:title=" ">
<polygon fill="none" stroke="black" points="721,-245 721,-275 885,-275 885,-245 721,-245"/>
<text text-anchor="start" x="729" y="-263" font-family="Helvetica,sans-Serif" font-size="10.00">com.cliffc.aa.HM.HM8.Apply.is</text>
<text text-anchor="middle" x="803" y="-252" font-family="Helvetica,sans-Serif" font-size="10.00">_if_nil</text>
</a>
</g>
</g>
<!-- Node1&#45;&gt;Node2 -->
<g id="edge1" class="edge">
<title>Node1&#45;&gt;Node2</title>
<path fill="none" stroke="midnightblue" d="M119.93,-193.71C145.25,-207.24 194.09,-231.21 239,-241 402.08,-276.55 597.95,-273.15 710.41,-266.92"/>
<polygon fill="midnightblue" stroke="midnightblue" points="710.91,-270.4 720.69,-266.33 710.51,-263.41 710.91,-270.4"/>
</g>
<!-- Node10 -->
<g id="node10" class="node">
<title>Node10</title>
<g id="a_node10"><a xlink:href="../../d2/dab/a00886.html#ab7e47d38a21bfa70b5fee3ba7ff4a26f" target="_top" xlink:title=" ">
<polygon fill="none" stroke="black" points="247.5,-212.5 247.5,-231.5 440.5,-231.5 440.5,-212.5 247.5,-212.5"/>
<text text-anchor="middle" x="344" y="-219.5" font-family="Helvetica,sans-Serif" font-size="10.00">com.cliffc.aa.HM.HM8.T2.make_leaf</text>
</a>
</g>
</g>
<!-- Node1&#45;&gt;Node10 -->
<g id="edge12" class="edge">
<title>Node1&#45;&gt;Node10</title>
<path fill="none" stroke="midnightblue" d="M162.88,-193.54C196.18,-198.8 237.72,-205.37 272.51,-210.86"/>
<polygon fill="midnightblue" stroke="midnightblue" points="272.17,-214.35 282.6,-212.46 273.27,-207.44 272.17,-214.35"/>
</g>
<!-- Node13 -->
<g id="node13" class="node">
<title>Node13</title>
<g id="a_node13"><a xlink:href="../../d6/d2f/a00854.html#a7d4eedd089a2da7d9089180a3eeb9552" target="_top" xlink:title=" ">
<polygon fill="none" stroke="black" points="239,-174.5 239,-193.5 449,-193.5 449,-174.5 239,-174.5"/>
<text text-anchor="middle" x="344" y="-181.5" font-family="Helvetica,sans-Serif" font-size="10.00">com.cliffc.aa.HM.HM8.Syntax.prep_tree</text>
</a>
</g>
</g>
<!-- Node1&#45;&gt;Node13 -->
<g id="edge16" class="edge">
<title>Node1&#45;&gt;Node13</title>
<path fill="none" stroke="midnightblue" d="M203.1,-184C211.61,-184 220.26,-184 228.86,-184"/>
<polygon fill="midnightblue" stroke="midnightblue" points="228.93,-187.5 238.93,-184 228.93,-180.5 228.93,-187.5"/>
</g>
<!-- Node14 -->
<g id="node14" class="node">
<title>Node14</title>
<g id="a_node14"><a xlink:href="../../d6/d2f/a00854.html#ae70f48319838e4aaa4a8a3e235f7d217" target="_top" xlink:title=" ">
<polygon fill="none" stroke="black" points="251.5,-125 251.5,-155 436.5,-155 436.5,-125 251.5,-125"/>
<text text-anchor="start" x="259.5" y="-143" font-family="Helvetica,sans-Serif" font-size="10.00">com.cliffc.aa.HM.HM8.Syntax.prep</text>
<text text-anchor="middle" x="344" y="-132" font-family="Helvetica,sans-Serif" font-size="10.00">_tree_impl</text>
</a>
</g>
</g>
<!-- Node1&#45;&gt;Node14 -->
<g id="edge17" class="edge">
<title>Node1&#45;&gt;Node14</title>
<path fill="none" stroke="midnightblue" d="M154.68,-174.45C182.73,-169.32 218.14,-162.84 250.66,-156.89"/>
<polygon fill="midnightblue" stroke="midnightblue" points="251.45,-160.31 260.65,-155.07 250.19,-153.42 251.45,-160.31"/>
</g>
<!-- Node17 -->
<g id="node17" class="node">
<title>Node17</title>
<g id="a_node17"><a xlink:href="../../df/d2a/a00874.html#afeb9b7d33900d1d7681253e99dd508e2" target="_top" xlink:title=" ">
<polygon fill="none" stroke="black" points="259.5,-73.5 259.5,-92.5 428.5,-92.5 428.5,-73.5 259.5,-73.5"/>
<text text-anchor="middle" x="344" y="-80.5" font-family="Helvetica,sans-Serif" font-size="10.00">com.cliffc.aa.HM.HM8.Apply.str</text>
</a>
</g>
</g>
<!-- Node1&#45;&gt;Node17 -->
<g id="edge21" class="edge">
<title>Node1&#45;&gt;Node17</title>
<path fill="none" stroke="midnightblue" d="M119.77,-174.31C145.29,-160.24 194.83,-133.89 239,-116 258.2,-108.23 279.97,-101.07 298.62,-95.43"/>
<polygon fill="midnightblue" stroke="midnightblue" points="299.75,-98.74 308.33,-92.54 297.75,-92.03 299.75,-98.74"/>
</g>
<!-- Node3 -->
<g id="node3" class="node">
<title>Node3</title>
<g id="a_node3"><a xlink:href="../../dd/d55/a01638.html#a3975ba7dca9fe2d6e4992b2b5558f882" target="_top" xlink:title=" ">
<polygon fill="none" stroke="black" points="2173,-212.5 2173,-231.5 2306,-231.5 2306,-212.5 2173,-212.5"/>
<text text-anchor="middle" x="2239.5" y="-219.5" font-family="Helvetica,sans-Serif" font-size="10.00">com.cliffc.aa.util.Util.eq</text>
</a>
</g>
</g>
<!-- Node2&#45;&gt;Node3 -->
<g id="edge2" class="edge">
<title>Node2&#45;&gt;Node3</title>
<path fill="none" stroke="midnightblue" d="M885.3,-260C968.78,-260 1102.46,-260 1218,-260 1218,-260 1218,-260 1859,-260 1968.15,-260 2094.09,-244.24 2169.94,-233.02"/>
<polygon fill="midnightblue" stroke="midnightblue" points="2170.47,-236.48 2179.85,-231.54 2169.44,-229.56 2170.47,-236.48"/>
</g>
<!-- Node4 -->
<g id="node4" class="node">
<title>Node4</title>
<g id="a_node4"><a xlink:href="../../d6/d2f/a00854.html#ab1937ad4ffeb51dd85f8f10383bb00d0" target="_top" xlink:title=" ">
<polygon fill="none" stroke="black" points="921,-212.5 921,-231.5 1103,-231.5 1103,-212.5 921,-212.5"/>
<text text-anchor="middle" x="1012" y="-219.5" font-family="Helvetica,sans-Serif" font-size="10.00">com.cliffc.aa.HM.HM8.Syntax.find</text>
</a>
</g>
</g>
<!-- Node2&#45;&gt;Node4 -->
<g id="edge3" class="edge">
<title>Node2&#45;&gt;Node4</title>
<path fill="none" stroke="midnightblue" d="M885.22,-245.09C906.53,-241.18 929.18,-237.02 949.29,-233.33"/>
<polygon fill="midnightblue" stroke="midnightblue" points="950.04,-236.75 959.24,-231.5 948.78,-229.86 950.04,-236.75"/>
</g>
<!-- Node5 -->
<g id="node5" class="node">
<title>Node5</title>
<g id="a_node5"><a xlink:href="../../d2/dab/a00886.html#a1763346127b9a8beea93517ce5cc4777" target="_top" xlink:title=" ">
<polygon fill="none" stroke="black" points="1139,-174.5 1139,-193.5 1299,-193.5 1299,-174.5 1139,-174.5"/>
<text text-anchor="middle" x="1219" y="-181.5" font-family="Helvetica,sans-Serif" font-size="10.00">com.cliffc.aa.HM.HM8.T2.find</text>
</a>
</g>
</g>
<!-- Node4&#45;&gt;Node5 -->
<g id="edge4" class="edge">
<title>Node4&#45;&gt;Node5</title>
<path fill="none" stroke="midnightblue" d="M1064.47,-212.46C1092.37,-207.29 1127.05,-200.86 1156.38,-195.42"/>
<polygon fill="midnightblue" stroke="midnightblue" points="1157.32,-198.81 1166.51,-193.54 1156.04,-191.93 1157.32,-198.81"/>
</g>
<!-- Node6 -->
<g id="node6" class="node">
<title>Node6</title>
<g id="a_node6"><a xlink:href="../../d2/dab/a00886.html#a7078e3d719664d1f13ad63f47cd10741" target="_top" xlink:title=" ">
<polygon fill="none" stroke="black" points="1335,-174.5 1335,-193.5 1530,-193.5 1530,-174.5 1335,-174.5"/>
<text text-anchor="middle" x="1432.5" y="-181.5" font-family="Helvetica,sans-Serif" font-size="10.00">com.cliffc.aa.HM.HM8.T2.debug_find</text>
</a>
</g>
</g>
<!-- Node5&#45;&gt;Node6 -->
<g id="edge5" class="edge">
<title>Node5&#45;&gt;Node6</title>
<path fill="none" stroke="midnightblue" d="M1299.06,-184C1307.4,-184 1315.99,-184 1324.59,-184"/>
<polygon fill="midnightblue" stroke="midnightblue" points="1324.67,-187.5 1334.67,-184 1324.67,-180.5 1324.67,-187.5"/>
</g>
<!-- Node7 -->
<g id="node7" class="node">
<title>Node7</title>
<g id="a_node7"><a xlink:href="../../d2/dab/a00886.html#a7e2bfdeff7e3e9e00d0e3cabdd3aa182" target="_top" xlink:title=" ">
<polygon fill="none" stroke="black" points="1771,-183.5 1771,-202.5 1945,-202.5 1945,-183.5 1771,-183.5"/>
<text text-anchor="middle" x="1858" y="-190.5" font-family="Helvetica,sans-Serif" font-size="10.00">com.cliffc.aa.HM.HM8.T2.is_leaf</text>
</a>
</g>
</g>
<!-- Node5&#45;&gt;Node7 -->
<g id="edge11" class="edge">
<title>Node5&#45;&gt;Node7</title>
<path fill="none" stroke="midnightblue" d="M1266.78,-174.49C1287.58,-170.72 1312.41,-166.85 1335,-165 1512.18,-150.46 1558.35,-144.99 1735,-165 1761.9,-168.05 1791.5,-174.76 1814.82,-180.85"/>
<polygon fill="midnightblue" stroke="midnightblue" points="1814.16,-184.29 1824.72,-183.49 1815.97,-177.53 1814.16,-184.29"/>
</g>
<!-- Node6&#45;&gt;Node7 -->
<g id="edge6" class="edge">
<title>Node6&#45;&gt;Node7</title>
<path fill="none" stroke="midnightblue" d="M1487.46,-193.51C1511.43,-197.28 1540.04,-201.15 1566,-203 1640.92,-208.34 1659.95,-206.07 1735,-203 1743.32,-202.66 1751.95,-202.19 1760.6,-201.64"/>
<polygon fill="midnightblue" stroke="midnightblue" points="1761,-205.12 1770.74,-200.95 1760.53,-198.13 1761,-205.12"/>
</g>
<!-- Node9 -->
<g id="node9" class="node">
<title>Node9</title>
<g id="a_node9"><a xlink:href="../../d2/dab/a00886.html#ab2e44d28229a2d3cbe52d8c70e7226b2" target="_top" xlink:title=" ">
<polygon fill="none" stroke="black" points="1566,-174.5 1566,-193.5 1735,-193.5 1735,-174.5 1566,-174.5"/>
<text text-anchor="middle" x="1650.5" y="-181.5" font-family="Helvetica,sans-Serif" font-size="10.00">com.cliffc.aa.HM.HM8.T2.no_uf</text>
</a>
</g>
</g>
<!-- Node6&#45;&gt;Node9 -->
<g id="edge9" class="edge">
<title>Node6&#45;&gt;Node9</title>
<path fill="none" stroke="midnightblue" d="M1530.13,-184C1538.59,-184 1547.15,-184 1555.59,-184"/>
<polygon fill="midnightblue" stroke="midnightblue" points="1555.82,-187.5 1565.82,-184 1555.82,-180.5 1555.82,-187.5"/>
</g>
<!-- Node8 -->
<g id="node8" class="node">
<title>Node8</title>
<g id="a_node8"><a xlink:href="../../d2/dab/a00886.html#a3e2b226c9b8b043480a2914cb5d27dc8" target="_top" xlink:title=" ">
<polygon fill="none" stroke="black" points="1981,-193.5 1981,-212.5 2137,-212.5 2137,-193.5 1981,-193.5"/>
<text text-anchor="middle" x="2059" y="-200.5" font-family="Helvetica,sans-Serif" font-size="10.00">com.cliffc.aa.HM.HM8.T2.isa</text>
</a>
</g>
</g>
<!-- Node7&#45;&gt;Node8 -->
<g id="edge7" class="edge">
<title>Node7&#45;&gt;Node8</title>
<path fill="none" stroke="midnightblue" d="M1945.13,-197.33C1953.57,-197.75 1962.14,-198.18 1970.59,-198.61"/>
<polygon fill="midnightblue" stroke="midnightblue" points="1970.66,-202.12 1980.82,-199.12 1971.01,-195.12 1970.66,-202.12"/>
</g>
<!-- Node8&#45;&gt;Node3 -->
<g id="edge8" class="edge">
<title>Node8&#45;&gt;Node3</title>
<path fill="none" stroke="midnightblue" d="M2137.25,-211.22C2145.69,-212.12 2154.28,-213.04 2162.7,-213.93"/>
<polygon fill="midnightblue" stroke="midnightblue" points="2162.56,-217.44 2172.87,-215.01 2163.3,-210.48 2162.56,-217.44"/>
</g>
<!-- Node9&#45;&gt;Node7 -->
<g id="edge10" class="edge">
<title>Node9&#45;&gt;Node7</title>
<path fill="none" stroke="midnightblue" d="M1735.08,-187.66C1743.55,-188.03 1752.2,-188.41 1760.78,-188.79"/>
<polygon fill="midnightblue" stroke="midnightblue" points="1760.67,-192.28 1770.82,-189.23 1760.98,-185.29 1760.67,-192.28"/>
</g>
<!-- Node11 -->
<g id="node11" class="node">
<title>Node11</title>
<g id="a_node11"><a xlink:href="../../d2/dab/a00886.html#a0a77b74c73f90fb3045d35e43a73db92" target="_top" xlink:title=" ">
<polygon fill="none" stroke="black" points="726,-174.5 726,-193.5 880,-193.5 880,-174.5 726,-174.5"/>
<text text-anchor="middle" x="803" y="-181.5" font-family="Helvetica,sans-Serif" font-size="10.00">com.cliffc.aa.HM.HM8.T2.T2</text>
</a>
</g>
</g>
<!-- Node10&#45;&gt;Node11 -->
<g id="edge13" class="edge">
<title>Node10&#45;&gt;Node11</title>
<path fill="none" stroke="midnightblue" d="M440.82,-218.77C509.05,-215.88 602.83,-210.72 685,-202 701.84,-200.21 719.96,-197.71 736.79,-195.14"/>
<polygon fill="midnightblue" stroke="midnightblue" points="737.74,-198.54 747.08,-193.54 736.66,-191.62 737.74,-198.54"/>
</g>
<!-- Node12 -->
<g id="node12" class="node">
<title>Node12</title>
<g id="a_node12"><a xlink:href="../../d2/dab/a00886.html#abde112b309e2447d0d4012ad2f0b2361" target="_top" xlink:title=" ">
<polygon fill="none" stroke="black" points="930.5,-174.5 930.5,-193.5 1093.5,-193.5 1093.5,-174.5 930.5,-174.5"/>
<text text-anchor="middle" x="1012" y="-181.5" font-family="Helvetica,sans-Serif" font-size="10.00">com.cliffc.aa.HM.HM8.T2.args</text>
</a>
</g>
</g>
<!-- Node11&#45;&gt;Node12 -->
<g id="edge14" class="edge">
<title>Node11&#45;&gt;Node12</title>
<path fill="none" stroke="midnightblue" d="M880.2,-184C893.24,-184 906.91,-184 920.29,-184"/>
<polygon fill="midnightblue" stroke="midnightblue" points="920.45,-187.5 930.45,-184 920.45,-180.5 920.45,-187.5"/>
</g>
<!-- Node12&#45;&gt;Node5 -->
<g id="edge15" class="edge">
<title>Node12&#45;&gt;Node5</title>
<path fill="none" stroke="midnightblue" d="M1093.73,-184C1105.17,-184 1116.98,-184 1128.58,-184"/>
<polygon fill="midnightblue" stroke="midnightblue" points="1128.69,-187.5 1138.69,-184 1128.69,-180.5 1128.69,-187.5"/>
</g>
<!-- Node15 -->
<g id="node15" class="node">
<title>Node15</title>
<g id="a_node15"><a xlink:href="../../d2/dab/a00886.html#adb2e3489a4e399d68da4e773c735f732" target="_top" xlink:title=" ">
<polygon fill="none" stroke="black" points="485,-173.5 485,-192.5 685,-192.5 685,-173.5 485,-173.5"/>
<text text-anchor="middle" x="585" y="-180.5" font-family="Helvetica,sans-Serif" font-size="10.00">com.cliffc.aa.HM.HM8.T2.make_mem</text>
</a>
</g>
</g>
<!-- Node14&#45;&gt;Node15 -->
<g id="edge18" class="edge">
<title>Node14&#45;&gt;Node15</title>
<path fill="none" stroke="midnightblue" d="M428.59,-155.04C458.92,-160.5 492.66,-166.57 520.92,-171.65"/>
<polygon fill="midnightblue" stroke="midnightblue" points="520.61,-175.15 531.07,-173.48 521.85,-168.26 520.61,-175.15"/>
</g>
<!-- Node16 -->
<g id="node16" class="node">
<title>Node16</title>
<g id="a_node16"><a xlink:href="../../d0/d11/a00842.html#a5bdda8dcc66d2bc3ea2b8364cfd88ca8" target="_top" xlink:title=" ">
<polygon fill="none" stroke="black" points="488.5,-132.5 488.5,-151.5 681.5,-151.5 681.5,-132.5 488.5,-132.5"/>
<text text-anchor="middle" x="585" y="-139.5" font-family="Helvetica,sans-Serif" font-size="10.00">com.cliffc.aa.HM.HM8.Worklist.push</text>
</a>
</g>
</g>
<!-- Node14&#45;&gt;Node16 -->
<g id="edge20" class="edge">
<title>Node14&#45;&gt;Node16</title>
<path fill="none" stroke="midnightblue" d="M436.72,-140.77C450.28,-140.88 464.34,-141 478.16,-141.11"/>
<polygon fill="midnightblue" stroke="midnightblue" points="478.14,-144.61 488.17,-141.2 478.2,-137.61 478.14,-144.61"/>
</g>
<!-- Node15&#45;&gt;Node11 -->
<g id="edge19" class="edge">
<title>Node15&#45;&gt;Node11</title>
<path fill="none" stroke="midnightblue" d="M685.15,-183.46C695.27,-183.51 705.5,-183.55 715.48,-183.6"/>
<polygon fill="midnightblue" stroke="midnightblue" points="715.75,-187.1 725.76,-183.65 715.78,-180.1 715.75,-187.1"/>
</g>
<!-- Node18 -->
<g id="node18" class="node">
<title>Node18</title>
<g id="a_node18"><a xlink:href="../../d4/d99/a01634.html#ac801338e82849a7fe2ae7a0feb80bb55" target="_top" xlink:title=" ">
<polygon fill="none" stroke="black" points="524,-94.5 524,-113.5 646,-113.5 646,-94.5 524,-94.5"/>
<text text-anchor="middle" x="585" y="-101.5" font-family="Helvetica,sans-Serif" font-size="10.00">com.cliffc.aa.util.SB.p</text>
</a>
</g>
</g>
<!-- Node17&#45;&gt;Node18 -->
<g id="edge22" class="edge">
<title>Node17&#45;&gt;Node18</title>
<path fill="none" stroke="midnightblue" d="M428.59,-90.34C456.4,-92.79 487.07,-95.48 513.77,-97.83"/>
<polygon fill="midnightblue" stroke="midnightblue" points="513.52,-101.32 523.79,-98.71 514.14,-94.35 513.52,-101.32"/>
</g>
<!-- Node20 -->
<g id="node20" class="node">
<title>Node20</title>
<g id="a_node20"><a xlink:href="../../d6/d2f/a00854.html#a8c74fef4ba242dc9deb6880d3d4dc913" target="_top" xlink:title=" ">
<polygon fill="none" stroke="black" points="497,-56.5 497,-75.5 673,-75.5 673,-56.5 497,-56.5"/>
<text text-anchor="middle" x="585" y="-63.5" font-family="Helvetica,sans-Serif" font-size="10.00">com.cliffc.aa.HM.HM8.Syntax.str</text>
</a>
</g>
</g>
<!-- Node17&#45;&gt;Node20 -->
<g id="edge24" class="edge">
<title>Node17&#45;&gt;Node20</title>
<path fill="none" stroke="midnightblue" d="M428.59,-77.05C447.39,-75.72 467.5,-74.29 486.8,-72.91"/>
<polygon fill="midnightblue" stroke="midnightblue" points="487.08,-76.4 496.81,-72.2 486.58,-69.42 487.08,-76.4"/>
</g>
<!-- Node21 -->
<g id="node21" class="node">
<title>Node21</title>
<g id="a_node21"><a xlink:href="../../d4/d99/a01634.html#a6536bbd3de1ca1c901e1cb9527dbf3db" target="_top" xlink:title=" ">
<polygon fill="none" stroke="black" points="510.5,-0.5 510.5,-19.5 659.5,-19.5 659.5,-0.5 510.5,-0.5"/>
<text text-anchor="middle" x="585" y="-7.5" font-family="Helvetica,sans-Serif" font-size="10.00">com.cliffc.aa.util.SB.unchar</text>
</a>
</g>
</g>
<!-- Node17&#45;&gt;Node21 -->
<g id="edge25" class="edge">
<title>Node17&#45;&gt;Node21</title>
<path fill="none" stroke="midnightblue" d="M376.25,-73.46C419.01,-60.4 495.84,-36.93 543.13,-22.48"/>
<polygon fill="midnightblue" stroke="midnightblue" points="544.21,-25.81 552.75,-19.55 542.16,-19.12 544.21,-25.81"/>
</g>
<!-- Node19 -->
<g id="node19" class="node">
<title>Node19</title>
<g id="a_node19"><a xlink:href="../../d4/d99/a01634.html#abd1b8ac722e0fb0bf1e7b2ea0eaeb0b6" target="_top" xlink:title=" ">
<polygon fill="none" stroke="black" points="742,-94.5 742,-113.5 864,-113.5 864,-94.5 742,-94.5"/>
<text text-anchor="middle" x="803" y="-101.5" font-family="Helvetica,sans-Serif" font-size="10.00">com.cliffc.aa.util.SB.s</text>
</a>
</g>
</g>
<!-- Node18&#45;&gt;Node19 -->
<g id="edge23" class="edge">
<title>Node18&#45;&gt;Node19</title>
<path fill="none" stroke="midnightblue" d="M646.17,-104C672.62,-104 703.88,-104 731.42,-104"/>
<polygon fill="midnightblue" stroke="midnightblue" points="731.78,-107.5 741.78,-104 731.78,-100.5 731.78,-107.5"/>
</g>
<!-- Node21&#45;&gt;Node21 -->
<g id="edge26" class="edge">
<title>Node21&#45;&gt;Node21</title>
<path fill="none" stroke="midnightblue" d="M551.67,-19.61C534.93,-28.46 546.04,-38 585,-38 613.61,-38 627.2,-32.86 625.77,-26.62"/>
<polygon fill="midnightblue" stroke="midnightblue" points="628.01,-23.92 618.33,-19.61 623.21,-29.01 628.01,-23.92"/>
</g>
</g>
</svg>
        <g id="navigator" transform="translate(0 0)" fill="#404254">
                <rect fill="#f2f5e9" fill-opacity="0.5" stroke="#606060" stroke-width=".5" x="0" y="0" width="60" height="60"/>
                <use id="zoomplus" xlink:href="#zoomPlus" x="17" y="9" onmousedown="handleZoom(evt,'in')"/>
                <use id="zoomminus" xlink:href="#zoomMin" x="42" y="9" onmousedown="handleZoom(evt,'out')"/>
                <use id="reset" xlink:href="#resetDef" x="30" y="36" onmousedown="handleReset()"/>
                <g id="arrowUp" xlink:href="#dirArrow" transform="translate(30 24)" onmousedown="handlePan(0,-1)">
                  <use xlink:href="#rim" fill="#404040">
                        <set attributeName="fill" to="#808080" begin="arrowUp.mouseover" end="arrowUp.mouseout"/>
                  </use>
                  <path fill="none" stroke="white" stroke-width="1.5" d="M0,-3.0v7 M-2.5,-0.5L0,-3.0L2.5,-0.5"/>
                </g>
                <g id="arrowRight" xlink:href="#dirArrow" transform="rotate(90) translate(36 -43)" onmousedown="handlePan(1,0)">
                  <use xlink:href="#rim" fill="#404040">
                        <set attributeName="fill" to="#808080" begin="arrowRight.mouseover" end="arrowRight.mouseout"/>
                  </use>
                  <path fill="none" stroke="white" stroke-width="1.5" d="M0,-3.0v7 M-2.5,-0.5L0,-3.0L2.5,-0.5"/>
                </g>
                <g id="arrowDown" xlink:href="#dirArrow" transform="rotate(180) translate(-30 -48)" onmousedown="handlePan(0,1)">
                  <use xlink:href="#rim" fill="#404040">
                        <set attributeName="fill" to="#808080" begin="arrowDown.mouseover" end="arrowDown.mouseout"/>
                  </use>
                  <path fill="none" stroke="white" stroke-width="1.5" d="M0,-3.0v7 M-2.5,-0.5L0,-3.0L2.5,-0.5"/>
                </g>
                <g id="arrowLeft" xlink:href="#dirArrow" transform="rotate(270) translate(-36 17)" onmousedown="handlePan(-1,0)">
                  <use xlink:href="#rim" fill="#404040">
                        <set attributeName="fill" to="#808080" begin="arrowLeft.mouseover" end="arrowLeft.mouseout"/>
                  </use>
                  <path fill="none" stroke="white" stroke-width="1.5" d="M0,-3.0v7 M-2.5,-0.5L0,-3.0L2.5,-0.5"/>
                </g>
        </g>
        <svg viewBox="0 0 15 15" width="100%" height="30px" preserveAspectRatio="xMaxYMin meet">
         <g id="arrow_out" transform="scale(0.3 0.3)">
          <a xlink:href="a00874_a711ba1c89e16f30db3acac86b0989fe1_cgraph_org.svg" target="_base">
           <rect id="button" ry="5" rx="5" y="6" x="6" height="38" width="38"
                fill="#f2f5e9" fill-opacity="0.5" stroke="#606060" stroke-width="1.0"/>
           <path id="arrow"
             d="M 11.500037,31.436501 C 11.940474,20.09759 22.043105,11.32322 32.158766,21.979434 L 37.068811,17.246167 C 37.068811,17.246167 37.088388,32 37.088388,32 L 22.160133,31.978069 C 22.160133,31.978069 26.997745,27.140456 26.997745,27.140456 C 18.528582,18.264221 13.291696,25.230495 11.500037,31.436501 z"
             style="fill:#404040;"/>
          </a>
         </g>
        </svg>
</svg>
