<?xml version="1.0" encoding="UTF-8" standalone="no"?>
<!DOCTYPE svg PUBLIC "-//W3C//DTD SVG 1.1//EN"
 "http://www.w3.org/Graphics/SVG/1.1/DTD/svg11.dtd">
<!-- Generated by graphviz version 2.43.0 (0)
 -->
<!-- Title: com.cliffc.aa.HM.HM7.term Pages: 1 -->
<svg width="740pt" height="1244pt"
 viewBox="0.00 0.00 740.00 1244.00" xmlns="http://www.w3.org/2000/svg" xmlns:xlink="http://www.w3.org/1999/xlink">
<g id="graph0" class="graph" transform="scale(1 1) rotate(0) translate(4 1240)">
<title>com.cliffc.aa.HM.HM7.term</title>
<!-- Node1 -->
<g id="node1" class="node">
<title>Node1</title>
<g id="a_node1"><a xlink:title=" ">
<polygon fill="#bfbfbf" stroke="black" points="582,-608.5 582,-627.5 732,-627.5 732,-608.5 582,-608.5"/>
<text text-anchor="middle" x="657" y="-615.5" font-family="Helvetica,sans-Serif" font-size="10.00">com.cliffc.aa.HM.HM7.term</text>
</a>
</g>
</g>
<!-- Node2 -->
<g id="node2" class="node">
<title>Node2</title>
<g id="a_node2"><a xlink:href="../../d0/d7d/a00786.html#a6d31a198947ca762220bbea8d3f7de08" target="_top" xlink:title=" ">
<polygon fill="none" stroke="black" points="392,-608.5 392,-627.5 546,-627.5 546,-608.5 392,-608.5"/>
<text text-anchor="middle" x="469" y="-615.5" font-family="Helvetica,sans-Serif" font-size="10.00">com.cliffc.aa.HM.HM7.parse</text>
</a>
</g>
</g>
<!-- Node1&#45;&gt;Node2 -->
<g id="edge1" class="edge">
<title>Node1&#45;&gt;Node2</title>
<path fill="none" stroke="midnightblue" d="M571.68,-618C563.2,-618 554.62,-618 546.23,-618"/>
<polygon fill="midnightblue" stroke="midnightblue" points="571.95,-621.5 581.95,-618 571.95,-614.5 571.95,-621.5"/>
</g>
<!-- Node3 -->
<g id="node3" class="node">
<title>Node3</title>
<g id="a_node3"><a xlink:href="../../d0/d7d/a00786.html#adbb9bcb85c715b7aabb22581327c06d3" target="_top" xlink:title=" ">
<polygon fill="none" stroke="black" points="213,-608.5 213,-627.5 356,-627.5 356,-608.5 213,-608.5"/>
<text text-anchor="middle" x="284.5" y="-615.5" font-family="Helvetica,sans-Serif" font-size="10.00">com.cliffc.aa.HM.HM7.hm</text>
</a>
</g>
</g>
<!-- Node2&#45;&gt;Node3 -->
<g id="edge2" class="edge">
<title>Node2&#45;&gt;Node3</title>
<path fill="none" stroke="midnightblue" d="M381.88,-618C373.27,-618 364.61,-618 356.2,-618"/>
<polygon fill="midnightblue" stroke="midnightblue" points="381.93,-621.5 391.93,-618 381.93,-614.5 381.93,-621.5"/>
</g>
<!-- Node4 -->
<g id="node4" class="node">
<title>Node4</title>
<g id="a_node4"><a xlink:href="../../d6/d26/a01678.html#a717ddfa7fbc8fefa4878a2bb7928c0d5" target="_top" xlink:title=" ">
<polygon fill="none" stroke="black" points="0,-1216.5 0,-1235.5 177,-1235.5 177,-1216.5 0,-1216.5"/>
<text text-anchor="middle" x="88.5" y="-1223.5" font-family="Helvetica,sans-Serif" font-size="10.00">com.cliffc.aa.HM.TestHM7.test00</text>
</a>
</g>
</g>
<!-- Node3&#45;&gt;Node4 -->
<g id="edge3" class="edge">
<title>Node3&#45;&gt;Node4</title>
<path fill="none" stroke="midnightblue" d="M282.77,-637.98C278.96,-731.26 258.25,-1122.86 177,-1207 173.33,-1210.8 169.09,-1213.93 164.5,-1216.49"/>
<polygon fill="midnightblue" stroke="midnightblue" points="286.27,-638.04 283.16,-627.91 279.28,-637.77 286.27,-638.04"/>
</g>
<!-- Node5 -->
<g id="node5" class="node">
<title>Node5</title>
<g id="a_node5"><a xlink:href="../../d6/d26/a01678.html#a45b2f7ee1efb53e3c920f1172c9c68b1" target="_top" xlink:title=" ">
<polygon fill="none" stroke="black" points="0,-1178.5 0,-1197.5 177,-1197.5 177,-1178.5 0,-1178.5"/>
<text text-anchor="middle" x="88.5" y="-1185.5" font-family="Helvetica,sans-Serif" font-size="10.00">com.cliffc.aa.HM.TestHM7.test01</text>
</a>
</g>
</g>
<!-- Node3&#45;&gt;Node5 -->
<g id="edge4" class="edge">
<title>Node3&#45;&gt;Node5</title>
<path fill="none" stroke="midnightblue" d="M282.51,-637.81C277.64,-727.07 253.33,-1090.9 177,-1169 173.31,-1172.78 169.05,-1175.89 164.45,-1178.44"/>
<polygon fill="midnightblue" stroke="midnightblue" points="286.01,-637.87 283.04,-627.7 279.02,-637.51 286.01,-637.87"/>
</g>
<!-- Node6 -->
<g id="node6" class="node">
<title>Node6</title>
<g id="a_node6"><a xlink:href="../../d6/d26/a01678.html#adcb479b50586e474e00b196d59d06823" target="_top" xlink:title=" ">
<polygon fill="none" stroke="black" points="0,-1140.5 0,-1159.5 177,-1159.5 177,-1140.5 0,-1140.5"/>
<text text-anchor="middle" x="88.5" y="-1147.5" font-family="Helvetica,sans-Serif" font-size="10.00">com.cliffc.aa.HM.TestHM7.test02</text>
</a>
</g>
</g>
<!-- Node3&#45;&gt;Node6 -->
<g id="edge5" class="edge">
<title>Node3&#45;&gt;Node6</title>
<path fill="none" stroke="midnightblue" d="M282.19,-638.06C276.16,-723.88 248.31,-1059.03 177,-1131 173.28,-1134.75 169,-1137.85 164.39,-1140.39"/>
<polygon fill="midnightblue" stroke="midnightblue" points="285.69,-638.07 282.88,-627.86 278.71,-637.59 285.69,-638.07"/>
</g>
<!-- Node7 -->
<g id="node7" class="node">
<title>Node7</title>
<g id="a_node7"><a xlink:href="../../d6/d26/a01678.html#a45ebc155399f179478d71a27bd222ea9" target="_top" xlink:title=" ">
<polygon fill="none" stroke="black" points="0,-1102.5 0,-1121.5 177,-1121.5 177,-1102.5 0,-1102.5"/>
<text text-anchor="middle" x="88.5" y="-1109.5" font-family="Helvetica,sans-Serif" font-size="10.00">com.cliffc.aa.HM.TestHM7.test03</text>
</a>
</g>
</g>
<!-- Node3&#45;&gt;Node7 -->
<g id="edge6" class="edge">
<title>Node3&#45;&gt;Node7</title>
<path fill="none" stroke="midnightblue" d="M281.85,-637.85C274.66,-719.34 243.44,-1027.01 177,-1093 173.25,-1096.72 168.95,-1099.8 164.32,-1102.32"/>
<polygon fill="midnightblue" stroke="midnightblue" points="285.36,-637.79 282.73,-627.52 278.39,-637.19 285.36,-637.79"/>
</g>
<!-- Node8 -->
<g id="node8" class="node">
<title>Node8</title>
<g id="a_node8"><a xlink:href="../../d6/d26/a01678.html#a496db09b70408a7655ecf4224af2f314" target="_top" xlink:title=" ">
<polygon fill="none" stroke="black" points="0,-1064.5 0,-1083.5 177,-1083.5 177,-1064.5 0,-1064.5"/>
<text text-anchor="middle" x="88.5" y="-1071.5" font-family="Helvetica,sans-Serif" font-size="10.00">com.cliffc.aa.HM.TestHM7.test04</text>
</a>
</g>
</g>
<!-- Node3&#45;&gt;Node8 -->
<g id="edge7" class="edge">
<title>Node3&#45;&gt;Node8</title>
<path fill="none" stroke="midnightblue" d="M281.45,-637.73C273.01,-714.9 238.55,-994.98 177,-1055 173.1,-1058.8 168.64,-1061.91 163.83,-1064.46"/>
<polygon fill="midnightblue" stroke="midnightblue" points="284.96,-637.82 282.54,-627.51 277.99,-637.08 284.96,-637.82"/>
</g>
<!-- Node9 -->
<g id="node9" class="node">
<title>Node9</title>
<g id="a_node9"><a xlink:href="../../d6/d26/a01678.html#a9a5ea1558c8f6eaa503d490e7cb3f568" target="_top" xlink:title=" ">
<polygon fill="none" stroke="black" points="0,-1026.5 0,-1045.5 177,-1045.5 177,-1026.5 0,-1026.5"/>
<text text-anchor="middle" x="88.5" y="-1033.5" font-family="Helvetica,sans-Serif" font-size="10.00">com.cliffc.aa.HM.TestHM7.test05</text>
</a>
</g>
</g>
<!-- Node3&#45;&gt;Node9 -->
<g id="edge8" class="edge">
<title>Node3&#45;&gt;Node9</title>
<path fill="none" stroke="midnightblue" d="M280.94,-637.88C271.13,-710.91 233.63,-962.98 177,-1017 173.06,-1020.76 168.57,-1023.84 163.74,-1026.37"/>
<polygon fill="midnightblue" stroke="midnightblue" points="284.44,-638.12 282.27,-627.75 277.5,-637.21 284.44,-638.12"/>
</g>
<!-- Node10 -->
<g id="node10" class="node">
<title>Node10</title>
<g id="a_node10"><a xlink:href="../../d6/d26/a01678.html#a38742fffc84e3fa62dab0d260412b48f" target="_top" xlink:title=" ">
<polygon fill="none" stroke="black" points="0,-988.5 0,-1007.5 177,-1007.5 177,-988.5 0,-988.5"/>
<text text-anchor="middle" x="88.5" y="-995.5" font-family="Helvetica,sans-Serif" font-size="10.00">com.cliffc.aa.HM.TestHM7.test06</text>
</a>
</g>
</g>
<!-- Node3&#45;&gt;Node10 -->
<g id="edge9" class="edge">
<title>Node3&#45;&gt;Node10</title>
<path fill="none" stroke="midnightblue" d="M284.13,-637.7C284.94,-698.46 278.62,-884.55 177,-979 172.9,-982.81 168.22,-985.92 163.21,-988.46"/>
<polygon fill="midnightblue" stroke="midnightblue" points="287.63,-637.49 283.91,-627.57 280.63,-637.64 287.63,-637.49"/>
</g>
<!-- Node11 -->
<g id="node11" class="node">
<title>Node11</title>
<g id="a_node11"><a xlink:href="../../d6/d26/a01678.html#a7301f655b744bfbfc0cbb6d281dbc2fb" target="_top" xlink:title=" ">
<polygon fill="none" stroke="black" points="0,-950.5 0,-969.5 177,-969.5 177,-950.5 0,-950.5"/>
<text text-anchor="middle" x="88.5" y="-957.5" font-family="Helvetica,sans-Serif" font-size="10.00">com.cliffc.aa.HM.TestHM7.test07</text>
</a>
</g>
</g>
<!-- Node3&#45;&gt;Node11 -->
<g id="edge10" class="edge">
<title>Node3&#45;&gt;Node11</title>
<path fill="none" stroke="midnightblue" d="M283.34,-637.86C281.73,-694.51 268.95,-858.2 177,-941 172.84,-944.74 168.12,-947.81 163.08,-950.32"/>
<polygon fill="midnightblue" stroke="midnightblue" points="286.84,-637.8 283.53,-627.73 279.84,-637.66 286.84,-637.8"/>
</g>
<!-- Node12 -->
<g id="node12" class="node">
<title>Node12</title>
<g id="a_node12"><a xlink:href="../../d6/d26/a01678.html#adcffd6e4f7981f80aa2d775ff0d36e68" target="_top" xlink:title=" ">
<polygon fill="none" stroke="black" points="0,-912.5 0,-931.5 177,-931.5 177,-912.5 0,-912.5"/>
<text text-anchor="middle" x="88.5" y="-919.5" font-family="Helvetica,sans-Serif" font-size="10.00">com.cliffc.aa.HM.TestHM7.test08</text>
</a>
</g>
</g>
<!-- Node3&#45;&gt;Node12 -->
<g id="edge11" class="edge">
<title>Node3&#45;&gt;Node12</title>
<path fill="none" stroke="midnightblue" d="M282.34,-637.92C278.17,-690.1 259.43,-831.65 177,-903 172.65,-906.76 167.73,-909.84 162.5,-912.34"/>
<polygon fill="midnightblue" stroke="midnightblue" points="285.85,-637.91 283.05,-627.68 278.86,-637.42 285.85,-637.91"/>
</g>
<!-- Node13 -->
<g id="node13" class="node">
<title>Node13</title>
<g id="a_node13"><a xlink:href="../../d6/d26/a01678.html#a28a01a7ef840763868166f39ababc3dd" target="_top" xlink:title=" ">
<polygon fill="none" stroke="black" points="0,-874.5 0,-893.5 177,-893.5 177,-874.5 0,-874.5"/>
<text text-anchor="middle" x="88.5" y="-881.5" font-family="Helvetica,sans-Serif" font-size="10.00">com.cliffc.aa.HM.TestHM7.test09</text>
</a>
</g>
</g>
<!-- Node3&#45;&gt;Node13 -->
<g id="edge12" class="edge">
<title>Node3&#45;&gt;Node13</title>
<path fill="none" stroke="midnightblue" d="M281.08,-637.78C274.22,-685 250.11,-804.81 177,-865 172.32,-868.85 167.03,-871.97 161.44,-874.49"/>
<polygon fill="midnightblue" stroke="midnightblue" points="284.58,-638.04 282.45,-627.66 277.64,-637.1 284.58,-638.04"/>
</g>
<!-- Node14 -->
<g id="node14" class="node">
<title>Node14</title>
<g id="a_node14"><a xlink:href="../../d6/d26/a01678.html#a21b36aad9b9f4318ac140c8d67e97fff" target="_top" xlink:title=" ">
<polygon fill="none" stroke="black" points="0,-836.5 0,-855.5 177,-855.5 177,-836.5 0,-836.5"/>
<text text-anchor="middle" x="88.5" y="-843.5" font-family="Helvetica,sans-Serif" font-size="10.00">com.cliffc.aa.HM.TestHM7.test10</text>
</a>
</g>
</g>
<!-- Node3&#45;&gt;Node14 -->
<g id="edge13" class="edge">
<title>Node3&#45;&gt;Node14</title>
<path fill="none" stroke="midnightblue" d="M279.45,-637.56C269.73,-679.39 240.95,-777.7 177,-827 172.08,-830.8 166.55,-833.87 160.74,-836.35"/>
<polygon fill="midnightblue" stroke="midnightblue" points="282.87,-638.3 281.62,-627.78 276.04,-636.79 282.87,-638.3"/>
</g>
<!-- Node15 -->
<g id="node15" class="node">
<title>Node15</title>
<g id="a_node15"><a xlink:href="../../d6/d26/a01678.html#a76d15629f31ad5ec9b4fe7f046c3f99e" target="_top" xlink:title=" ">
<polygon fill="none" stroke="black" points="0,-798.5 0,-817.5 177,-817.5 177,-798.5 0,-798.5"/>
<text text-anchor="middle" x="88.5" y="-805.5" font-family="Helvetica,sans-Serif" font-size="10.00">com.cliffc.aa.HM.TestHM7.test11</text>
</a>
</g>
</g>
<!-- Node3&#45;&gt;Node15 -->
<g id="edge14" class="edge">
<title>Node3&#45;&gt;Node15</title>
<path fill="none" stroke="midnightblue" d="M277.18,-637.4C264.4,-673.37 231.93,-750.3 177,-789 171.54,-792.85 165.44,-795.94 159.08,-798.42"/>
<polygon fill="midnightblue" stroke="midnightblue" points="280.59,-638.23 280.51,-627.63 273.97,-635.96 280.59,-638.23"/>
</g>
<!-- Node16 -->
<g id="node16" class="node">
<title>Node16</title>
<g id="a_node16"><a xlink:href="../../d6/d26/a01678.html#a5b5492e55936133020e746d4ab175254" target="_top" xlink:title=" ">
<polygon fill="none" stroke="black" points="0,-760.5 0,-779.5 177,-779.5 177,-760.5 0,-760.5"/>
<text text-anchor="middle" x="88.5" y="-767.5" font-family="Helvetica,sans-Serif" font-size="10.00">com.cliffc.aa.HM.TestHM7.test12</text>
</a>
</g>
</g>
<!-- Node3&#45;&gt;Node16 -->
<g id="edge15" class="edge">
<title>Node3&#45;&gt;Node16</title>
<path fill="none" stroke="midnightblue" d="M274.02,-636.71C258.15,-666 223.34,-722.29 177,-751 170.79,-754.85 163.91,-757.92 156.82,-760.38"/>
<polygon fill="midnightblue" stroke="midnightblue" points="277.27,-638.05 278.83,-627.57 271.07,-634.79 277.27,-638.05"/>
</g>
<!-- Node17 -->
<g id="node17" class="node">
<title>Node17</title>
<g id="a_node17"><a xlink:href="../../d6/d26/a01678.html#aaee0d89f41dd68ad240814af71ec5ea0" target="_top" xlink:title=" ">
<polygon fill="none" stroke="black" points="0,-722.5 0,-741.5 177,-741.5 177,-722.5 0,-722.5"/>
<text text-anchor="middle" x="88.5" y="-729.5" font-family="Helvetica,sans-Serif" font-size="10.00">com.cliffc.aa.HM.TestHM7.test13</text>
</a>
</g>
</g>
<!-- Node3&#45;&gt;Node17 -->
<g id="edge16" class="edge">
<title>Node3&#45;&gt;Node17</title>
<path fill="none" stroke="midnightblue" d="M269.23,-635.34C250.42,-656.99 215.2,-693.54 177,-713 169.38,-716.88 161,-719.97 152.53,-722.43"/>
<polygon fill="midnightblue" stroke="midnightblue" points="272.01,-637.46 275.82,-627.58 266.68,-632.93 272.01,-637.46"/>
</g>
<!-- Node18 -->
<g id="node18" class="node">
<title>Node18</title>
<g id="a_node18"><a xlink:href="../../d6/d26/a01678.html#ac1d822cd9151a24e4cc077738babd9bb" target="_top" xlink:title=" ">
<polygon fill="none" stroke="black" points="0,-684.5 0,-703.5 177,-703.5 177,-684.5 0,-684.5"/>
<text text-anchor="middle" x="88.5" y="-691.5" font-family="Helvetica,sans-Serif" font-size="10.00">com.cliffc.aa.HM.TestHM7.test14</text>
</a>
</g>
</g>
<!-- Node3&#45;&gt;Node18 -->
<g id="edge17" class="edge">
<title>Node3&#45;&gt;Node18</title>
<path fill="none" stroke="midnightblue" d="M260.05,-633.02C239.04,-645.86 207,-663.96 177,-675 166.79,-678.76 155.62,-681.88 144.78,-684.44"/>
<polygon fill="midnightblue" stroke="midnightblue" points="261.96,-635.95 268.61,-627.7 258.26,-630 261.96,-635.95"/>
</g>
<!-- Node19 -->
<g id="node19" class="node">
<title>Node19</title>
<g id="a_node19"><a xlink:href="../../d6/d26/a01678.html#ad18f26e8afbfd0a71c85437c1a75445d" target="_top" xlink:title=" ">
<polygon fill="none" stroke="black" points="0,-646.5 0,-665.5 177,-665.5 177,-646.5 0,-646.5"/>
<text text-anchor="middle" x="88.5" y="-653.5" font-family="Helvetica,sans-Serif" font-size="10.00">com.cliffc.aa.HM.TestHM7.test15</text>
</a>
</g>
</g>
<!-- Node3&#45;&gt;Node19 -->
<g id="edge18" class="edge">
<title>Node3&#45;&gt;Node19</title>
<path fill="none" stroke="midnightblue" d="M224.59,-629.54C196.92,-634.96 164.34,-641.34 138.1,-646.48"/>
<polygon fill="midnightblue" stroke="midnightblue" points="225.4,-632.95 234.55,-627.59 224.06,-626.08 225.4,-632.95"/>
</g>
<!-- Node20 -->
<g id="node20" class="node">
<title>Node20</title>
<g id="a_node20"><a xlink:href="../../d6/d26/a01678.html#a38110d0999ad4bf495dde2a8f8d76032" target="_top" xlink:title=" ">
<polygon fill="none" stroke="black" points="0,-608.5 0,-627.5 177,-627.5 177,-608.5 0,-608.5"/>
<text text-anchor="middle" x="88.5" y="-615.5" font-family="Helvetica,sans-Serif" font-size="10.00">com.cliffc.aa.HM.TestHM7.test16</text>
</a>
</g>
</g>
<!-- Node3&#45;&gt;Node20 -->
<g id="edge19" class="edge">
<title>Node3&#45;&gt;Node20</title>
<path fill="none" stroke="midnightblue" d="M202.74,-618C194.32,-618 185.73,-618 177.24,-618"/>
<polygon fill="midnightblue" stroke="midnightblue" points="202.91,-621.5 212.91,-618 202.91,-614.5 202.91,-621.5"/>
</g>
<!-- Node21 -->
<g id="node21" class="node">
<title>Node21</title>
<g id="a_node21"><a xlink:href="../../d6/d26/a01678.html#abde249ca4eefa6e8ce8a0502abfd4168" target="_top" xlink:title=" ">
<polygon fill="none" stroke="black" points="0,-570.5 0,-589.5 177,-589.5 177,-570.5 0,-570.5"/>
<text text-anchor="middle" x="88.5" y="-577.5" font-family="Helvetica,sans-Serif" font-size="10.00">com.cliffc.aa.HM.TestHM7.test17</text>
</a>
</g>
</g>
<!-- Node3&#45;&gt;Node21 -->
<g id="edge20" class="edge">
<title>Node3&#45;&gt;Node21</title>
<path fill="none" stroke="midnightblue" d="M224.59,-606.46C196.92,-601.04 164.34,-594.66 138.1,-589.52"/>
<polygon fill="midnightblue" stroke="midnightblue" points="224.06,-609.92 234.55,-608.41 225.4,-603.05 224.06,-609.92"/>
</g>
<!-- Node22 -->
<g id="node22" class="node">
<title>Node22</title>
<g id="a_node22"><a xlink:href="../../d6/d26/a01678.html#ae1cb7d6f591ee30f83fc2c723cdd3bfc" target="_top" xlink:title=" ">
<polygon fill="none" stroke="black" points="0,-532.5 0,-551.5 177,-551.5 177,-532.5 0,-532.5"/>
<text text-anchor="middle" x="88.5" y="-539.5" font-family="Helvetica,sans-Serif" font-size="10.00">com.cliffc.aa.HM.TestHM7.test18</text>
</a>
</g>
</g>
<!-- Node3&#45;&gt;Node22 -->
<g id="edge21" class="edge">
<title>Node3&#45;&gt;Node22</title>
<path fill="none" stroke="midnightblue" d="M260.05,-602.98C239.04,-590.14 207,-572.04 177,-561 166.79,-557.24 155.62,-554.12 144.78,-551.56"/>
<polygon fill="midnightblue" stroke="midnightblue" points="258.26,-606 268.61,-608.3 261.96,-600.05 258.26,-606"/>
</g>
<!-- Node23 -->
<g id="node23" class="node">
<title>Node23</title>
<g id="a_node23"><a xlink:href="../../d6/d26/a01678.html#ac91afe3b9651961852c62c701aa25070" target="_top" xlink:title=" ">
<polygon fill="none" stroke="black" points="0,-494.5 0,-513.5 177,-513.5 177,-494.5 0,-494.5"/>
<text text-anchor="middle" x="88.5" y="-501.5" font-family="Helvetica,sans-Serif" font-size="10.00">com.cliffc.aa.HM.TestHM7.test19</text>
</a>
</g>
</g>
<!-- Node3&#45;&gt;Node23 -->
<g id="edge22" class="edge">
<title>Node3&#45;&gt;Node23</title>
<path fill="none" stroke="midnightblue" d="M269.23,-600.66C250.42,-579.01 215.2,-542.46 177,-523 169.38,-519.12 161,-516.03 152.53,-513.57"/>
<polygon fill="midnightblue" stroke="midnightblue" points="266.68,-603.07 275.82,-608.42 272.01,-598.54 266.68,-603.07"/>
</g>
<!-- Node24 -->
<g id="node24" class="node">
<title>Node24</title>
<g id="a_node24"><a xlink:href="../../d6/d26/a01678.html#a49a0c60e4144668d3d0c583f2cc73984" target="_top" xlink:title=" ">
<polygon fill="none" stroke="black" points="0,-456.5 0,-475.5 177,-475.5 177,-456.5 0,-456.5"/>
<text text-anchor="middle" x="88.5" y="-463.5" font-family="Helvetica,sans-Serif" font-size="10.00">com.cliffc.aa.HM.TestHM7.test20</text>
</a>
</g>
</g>
<!-- Node3&#45;&gt;Node24 -->
<g id="edge23" class="edge">
<title>Node3&#45;&gt;Node24</title>
<path fill="none" stroke="midnightblue" d="M274.02,-599.29C258.15,-570 223.34,-513.71 177,-485 170.79,-481.15 163.91,-478.08 156.82,-475.62"/>
<polygon fill="midnightblue" stroke="midnightblue" points="271.07,-601.21 278.83,-608.43 277.27,-597.95 271.07,-601.21"/>
</g>
<!-- Node25 -->
<g id="node25" class="node">
<title>Node25</title>
<g id="a_node25"><a xlink:href="../../d6/d26/a01678.html#a3433e0c161c4d6a94852f76425d65b48" target="_top" xlink:title=" ">
<polygon fill="none" stroke="black" points="0,-418.5 0,-437.5 177,-437.5 177,-418.5 0,-418.5"/>
<text text-anchor="middle" x="88.5" y="-425.5" font-family="Helvetica,sans-Serif" font-size="10.00">com.cliffc.aa.HM.TestHM7.test21</text>
</a>
</g>
</g>
<!-- Node3&#45;&gt;Node25 -->
<g id="edge24" class="edge">
<title>Node3&#45;&gt;Node25</title>
<path fill="none" stroke="midnightblue" d="M277.18,-598.6C264.4,-562.63 231.93,-485.7 177,-447 171.54,-443.15 165.44,-440.06 159.08,-437.58"/>
<polygon fill="midnightblue" stroke="midnightblue" points="273.97,-600.04 280.51,-608.37 280.59,-597.77 273.97,-600.04"/>
</g>
<!-- Node26 -->
<g id="node26" class="node">
<title>Node26</title>
<g id="a_node26"><a xlink:href="../../d6/d26/a01678.html#a5ac79ca6a7b87a80b2dd0de2414bb7cd" target="_top" xlink:title=" ">
<polygon fill="none" stroke="black" points="0,-380.5 0,-399.5 177,-399.5 177,-380.5 0,-380.5"/>
<text text-anchor="middle" x="88.5" y="-387.5" font-family="Helvetica,sans-Serif" font-size="10.00">com.cliffc.aa.HM.TestHM7.test22</text>
</a>
</g>
</g>
<!-- Node3&#45;&gt;Node26 -->
<g id="edge25" class="edge">
<title>Node3&#45;&gt;Node26</title>
<path fill="none" stroke="midnightblue" d="M279.45,-598.44C269.73,-556.61 240.95,-458.3 177,-409 172.08,-405.2 166.55,-402.13 160.74,-399.65"/>
<polygon fill="midnightblue" stroke="midnightblue" points="276.04,-599.21 281.62,-608.22 282.87,-597.7 276.04,-599.21"/>
</g>
<!-- Node27 -->
<g id="node27" class="node">
<title>Node27</title>
<g id="a_node27"><a xlink:href="../../d6/d26/a01678.html#a4896be527176571f67776e415791b7aa" target="_top" xlink:title=" ">
<polygon fill="none" stroke="black" points="0,-342.5 0,-361.5 177,-361.5 177,-342.5 0,-342.5"/>
<text text-anchor="middle" x="88.5" y="-349.5" font-family="Helvetica,sans-Serif" font-size="10.00">com.cliffc.aa.HM.TestHM7.test23</text>
</a>
</g>
</g>
<!-- Node3&#45;&gt;Node27 -->
<g id="edge26" class="edge">
<title>Node3&#45;&gt;Node27</title>
<path fill="none" stroke="midnightblue" d="M281.08,-598.22C274.22,-551 250.11,-431.19 177,-371 172.32,-367.15 167.03,-364.03 161.44,-361.51"/>
<polygon fill="midnightblue" stroke="midnightblue" points="277.64,-598.9 282.45,-608.34 284.58,-597.96 277.64,-598.9"/>
</g>
<!-- Node28 -->
<g id="node28" class="node">
<title>Node28</title>
<g id="a_node28"><a xlink:href="../../d6/d26/a01678.html#a88936fa40bdc6c1d0dfe631c9dced089" target="_top" xlink:title=" ">
<polygon fill="none" stroke="black" points="0,-304.5 0,-323.5 177,-323.5 177,-304.5 0,-304.5"/>
<text text-anchor="middle" x="88.5" y="-311.5" font-family="Helvetica,sans-Serif" font-size="10.00">com.cliffc.aa.HM.TestHM7.test24</text>
</a>
</g>
</g>
<!-- Node3&#45;&gt;Node28 -->
<g id="edge27" class="edge">
<title>Node3&#45;&gt;Node28</title>
<path fill="none" stroke="midnightblue" d="M282.34,-598.08C278.17,-545.9 259.43,-404.35 177,-333 172.65,-329.24 167.73,-326.16 162.5,-323.66"/>
<polygon fill="midnightblue" stroke="midnightblue" points="278.86,-598.58 283.05,-608.32 285.85,-598.09 278.86,-598.58"/>
</g>
<!-- Node29 -->
<g id="node29" class="node">
<title>Node29</title>
<g id="a_node29"><a xlink:href="../../d6/d26/a01678.html#a6d459b45a568c9a2d114ed4c4d70be35" target="_top" xlink:title=" ">
<polygon fill="none" stroke="black" points="0,-266.5 0,-285.5 177,-285.5 177,-266.5 0,-266.5"/>
<text text-anchor="middle" x="88.5" y="-273.5" font-family="Helvetica,sans-Serif" font-size="10.00">com.cliffc.aa.HM.TestHM7.test25</text>
</a>
</g>
</g>
<!-- Node3&#45;&gt;Node29 -->
<g id="edge28" class="edge">
<title>Node3&#45;&gt;Node29</title>
<path fill="none" stroke="midnightblue" d="M283.34,-598.14C281.73,-541.49 268.95,-377.8 177,-295 172.84,-291.26 168.12,-288.19 163.08,-285.68"/>
<polygon fill="midnightblue" stroke="midnightblue" points="279.84,-598.34 283.53,-608.27 286.84,-598.2 279.84,-598.34"/>
</g>
<!-- Node30 -->
<g id="node30" class="node">
<title>Node30</title>
<g id="a_node30"><a xlink:href="../../d6/d26/a01678.html#a29cd5fc38b6ba1c02f67aa30de8908fa" target="_top" xlink:title=" ">
<polygon fill="none" stroke="black" points="0,-228.5 0,-247.5 177,-247.5 177,-228.5 0,-228.5"/>
<text text-anchor="middle" x="88.5" y="-235.5" font-family="Helvetica,sans-Serif" font-size="10.00">com.cliffc.aa.HM.TestHM7.test26</text>
</a>
</g>
</g>
<!-- Node3&#45;&gt;Node30 -->
<g id="edge29" class="edge">
<title>Node3&#45;&gt;Node30</title>
<path fill="none" stroke="midnightblue" d="M284.13,-598.3C284.94,-537.54 278.62,-351.45 177,-257 172.9,-253.19 168.22,-250.08 163.21,-247.54"/>
<polygon fill="midnightblue" stroke="midnightblue" points="280.63,-598.36 283.91,-608.43 287.63,-598.51 280.63,-598.36"/>
</g>
<!-- Node31 -->
<g id="node31" class="node">
<title>Node31</title>
<g id="a_node31"><a xlink:href="../../d6/d26/a01678.html#a2954b19dbed82f4985c2a84a7bf86246" target="_top" xlink:title=" ">
<polygon fill="none" stroke="black" points="0,-190.5 0,-209.5 177,-209.5 177,-190.5 0,-190.5"/>
<text text-anchor="middle" x="88.5" y="-197.5" font-family="Helvetica,sans-Serif" font-size="10.00">com.cliffc.aa.HM.TestHM7.test27</text>
</a>
</g>
</g>
<!-- Node3&#45;&gt;Node31 -->
<g id="edge30" class="edge">
<title>Node3&#45;&gt;Node31</title>
<path fill="none" stroke="midnightblue" d="M280.94,-598.12C271.13,-525.09 233.63,-273.02 177,-219 173.06,-215.24 168.57,-212.16 163.74,-209.63"/>
<polygon fill="midnightblue" stroke="midnightblue" points="277.5,-598.79 282.27,-608.25 284.44,-597.88 277.5,-598.79"/>
</g>
<!-- Node32 -->
<g id="node32" class="node">
<title>Node32</title>
<g id="a_node32"><a xlink:href="../../d6/d26/a01678.html#a6886a76de83ef7072d59f466fafbe473" target="_top" xlink:title=" ">
<polygon fill="none" stroke="black" points="0,-152.5 0,-171.5 177,-171.5 177,-152.5 0,-152.5"/>
<text text-anchor="middle" x="88.5" y="-159.5" font-family="Helvetica,sans-Serif" font-size="10.00">com.cliffc.aa.HM.TestHM7.test28</text>
</a>
</g>
</g>
<!-- Node3&#45;&gt;Node32 -->
<g id="edge31" class="edge">
<title>Node3&#45;&gt;Node32</title>
<path fill="none" stroke="midnightblue" d="M281.45,-598.27C273.01,-521.1 238.55,-241.02 177,-181 173.1,-177.2 168.64,-174.09 163.83,-171.54"/>
<polygon fill="midnightblue" stroke="midnightblue" points="277.99,-598.92 282.54,-608.49 284.96,-598.18 277.99,-598.92"/>
</g>
<!-- Node33 -->
<g id="node33" class="node">
<title>Node33</title>
<g id="a_node33"><a xlink:href="../../d6/d26/a01678.html#a89662f9a1003578587dd72772af6363d" target="_top" xlink:title=" ">
<polygon fill="none" stroke="black" points="0,-114.5 0,-133.5 177,-133.5 177,-114.5 0,-114.5"/>
<text text-anchor="middle" x="88.5" y="-121.5" font-family="Helvetica,sans-Serif" font-size="10.00">com.cliffc.aa.HM.TestHM7.test29</text>
</a>
</g>
</g>
<!-- Node3&#45;&gt;Node33 -->
<g id="edge32" class="edge">
<title>Node3&#45;&gt;Node33</title>
<path fill="none" stroke="midnightblue" d="M281.85,-598.15C274.66,-516.66 243.44,-208.99 177,-143 173.25,-139.28 168.95,-136.2 164.32,-133.68"/>
<polygon fill="midnightblue" stroke="midnightblue" points="278.39,-598.81 282.73,-608.48 285.36,-598.21 278.39,-598.81"/>
</g>
<!-- Node34 -->
<g id="node34" class="node">
<title>Node34</title>
<g id="a_node34"><a xlink:href="../../d6/d26/a01678.html#a017eacb91bc8bd857b15d4259045aa55" target="_top" xlink:title=" ">
<polygon fill="none" stroke="black" points="0,-76.5 0,-95.5 177,-95.5 177,-76.5 0,-76.5"/>
<text text-anchor="middle" x="88.5" y="-83.5" font-family="Helvetica,sans-Serif" font-size="10.00">com.cliffc.aa.HM.TestHM7.test30</text>
</a>
</g>
</g>
<!-- Node3&#45;&gt;Node34 -->
<g id="edge33" class="edge">
<title>Node3&#45;&gt;Node34</title>
<path fill="none" stroke="midnightblue" d="M282.19,-597.94C276.16,-512.12 248.31,-176.97 177,-105 173.28,-101.25 169,-98.15 164.39,-95.61"/>
<polygon fill="midnightblue" stroke="midnightblue" points="278.71,-598.41 282.88,-608.14 285.69,-597.93 278.71,-598.41"/>
</g>
<!-- Node35 -->
<g id="node35" class="node">
<title>Node35</title>
<g id="a_node35"><a xlink:href="../../d6/d26/a01678.html#a282c7e00128e125e3effac2888dc8a39" target="_top" xlink:title=" ">
<polygon fill="none" stroke="black" points="0,-38.5 0,-57.5 177,-57.5 177,-38.5 0,-38.5"/>
<text text-anchor="middle" x="88.5" y="-45.5" font-family="Helvetica,sans-Serif" font-size="10.00">com.cliffc.aa.HM.TestHM7.test31</text>
</a>
</g>
</g>
<!-- Node3&#45;&gt;Node35 -->
<g id="edge34" class="edge">
<title>Node3&#45;&gt;Node35</title>
<path fill="none" stroke="midnightblue" d="M282.51,-598.19C277.64,-508.93 253.33,-145.1 177,-67 173.31,-63.22 169.05,-60.11 164.45,-57.56"/>
<polygon fill="midnightblue" stroke="midnightblue" points="279.02,-598.49 283.04,-608.3 286.01,-598.13 279.02,-598.49"/>
</g>
<!-- Node36 -->
<g id="node36" class="node">
<title>Node36</title>
<g id="a_node36"><a xlink:href="../../d6/d26/a01678.html#a9666306644d15095278be9eb848635e6" target="_top" xlink:title=" ">
<polygon fill="none" stroke="black" points="0,-0.5 0,-19.5 177,-19.5 177,-0.5 0,-0.5"/>
<text text-anchor="middle" x="88.5" y="-7.5" font-family="Helvetica,sans-Serif" font-size="10.00">com.cliffc.aa.HM.TestHM7.test32</text>
</a>
</g>
</g>
<!-- Node3&#45;&gt;Node36 -->
<g id="edge35" class="edge">
<title>Node3&#45;&gt;Node36</title>
<path fill="none" stroke="midnightblue" d="M282.77,-598.02C278.96,-504.74 258.25,-113.14 177,-29 173.33,-25.2 169.09,-22.07 164.5,-19.51"/>
<polygon fill="midnightblue" stroke="midnightblue" points="279.28,-598.23 283.16,-608.09 286.27,-597.96 279.28,-598.23"/>
</g>
</g>
</svg>
