<?xml version="1.0" encoding="UTF-8" standalone="no"?>
<!DOCTYPE svg PUBLIC "-//W3C//DTD SVG 1.1//EN"
 "http://www.w3.org/Graphics/SVG/1.1/DTD/svg11.dtd">
<!-- Generated by graphviz version 2.43.0 (0)
 -->
<!-- Title: com.cliffc.aa.node.MemSplitNode.insert_split Pages: 1 -->
<svg width="600pt" height="137pt"
 viewBox="0.00 0.00 600.00 137.00" xmlns="http://www.w3.org/2000/svg" xmlns:xlink="http://www.w3.org/1999/xlink">
<g id="graph0" class="graph" transform="scale(1 1) rotate(0) translate(4 133)">
<title>com.cliffc.aa.node.MemSplitNode.insert_split</title>
<!-- Node1 -->
<g id="node1" class="node">
<title>Node1</title>
<g id="a_node1"><a xlink:title=" ">
<polygon fill="#bfbfbf" stroke="black" points="437,-49.5 437,-79.5 592,-79.5 592,-49.5 437,-49.5"/>
<text text-anchor="start" x="445" y="-67.5" font-family="Helvetica,sans-Serif" font-size="10.00">com.cliffc.aa.node.MemSplit</text>
<text text-anchor="middle" x="514.5" y="-56.5" font-family="Helvetica,sans-Serif" font-size="10.00">Node.insert_split</text>
</a>
</g>
</g>
<!-- Node2 -->
<g id="node2" class="node">
<title>Node2</title>
<g id="a_node2"><a xlink:href="../../d0/d2b/a01010.html#ab379c52becb0c5ae2aea5dfa6046eea2" target="_top" xlink:title=" ">
<polygon fill="none" stroke="black" points="245,-98.5 245,-128.5 401,-128.5 401,-98.5 245,-98.5"/>
<text text-anchor="start" x="253" y="-116.5" font-family="Helvetica,sans-Serif" font-size="10.00">com.cliffc.aa.node.CallNode.</text>
<text text-anchor="middle" x="323" y="-105.5" font-family="Helvetica,sans-Serif" font-size="10.00">_ideal_grow</text>
</a>
</g>
</g>
<!-- Node1&#45;&gt;Node2 -->
<g id="edge1" class="edge">
<title>Node1&#45;&gt;Node2</title>
<path fill="none" stroke="midnightblue" d="M445.63,-82.05C424.82,-87.43 402.12,-93.3 382.03,-98.49"/>
<polygon fill="midnightblue" stroke="midnightblue" points="446.55,-85.43 455.36,-79.53 444.8,-78.65 446.55,-85.43"/>
</g>
<!-- Node4 -->
<g id="node4" class="node">
<title>Node4</title>
<g id="a_node4"><a xlink:href="../../d6/d40/a01114.html#a270d0e54a1e6fc4072bc3d970cffcae5" target="_top" xlink:title=" ">
<polygon fill="none" stroke="black" points="250,-49.5 250,-79.5 396,-79.5 396,-49.5 250,-49.5"/>
<text text-anchor="start" x="258" y="-67.5" font-family="Helvetica,sans-Serif" font-size="10.00">com.cliffc.aa.node.MrgProj</text>
<text text-anchor="middle" x="323" y="-56.5" font-family="Helvetica,sans-Serif" font-size="10.00">Node.ideal_grow</text>
</a>
</g>
</g>
<!-- Node1&#45;&gt;Node4 -->
<g id="edge3" class="edge">
<title>Node1&#45;&gt;Node4</title>
<path fill="none" stroke="midnightblue" d="M426.8,-64.5C416.57,-64.5 406.21,-64.5 396.21,-64.5"/>
<polygon fill="midnightblue" stroke="midnightblue" points="426.97,-68 436.97,-64.5 426.97,-61 426.97,-68"/>
</g>
<!-- Node5 -->
<g id="node5" class="node">
<title>Node5</title>
<g id="a_node5"><a xlink:href="../../d2/dff/a01374.html#a7a1699aaa4eea6cc12c410125d5762a4" target="_top" xlink:title=" ">
<polygon fill="none" stroke="black" points="256,-0.5 256,-30.5 390,-30.5 390,-0.5 256,-0.5"/>
<text text-anchor="start" x="264" y="-18.5" font-family="Helvetica,sans-Serif" font-size="10.00">com.cliffc.aa.node.Store</text>
<text text-anchor="middle" x="323" y="-7.5" font-family="Helvetica,sans-Serif" font-size="10.00">Node.ideal_grow</text>
</a>
</g>
</g>
<!-- Node1&#45;&gt;Node5 -->
<g id="edge4" class="edge">
<title>Node1&#45;&gt;Node5</title>
<path fill="none" stroke="midnightblue" d="M445.63,-46.95C424.82,-41.57 402.12,-35.7 382.03,-30.51"/>
<polygon fill="midnightblue" stroke="midnightblue" points="444.8,-50.35 455.36,-49.47 446.55,-43.57 444.8,-50.35"/>
</g>
<!-- Node3 -->
<g id="node3" class="node">
<title>Node3</title>
<g id="a_node3"><a xlink:href="../../d0/d2b/a01010.html#a88196b80c9958b84e83d3d5e8967ec48" target="_top" xlink:title=" ">
<polygon fill="none" stroke="black" points="0,-104 0,-123 209,-123 209,-104 0,-104"/>
<text text-anchor="middle" x="104.5" y="-111" font-family="Helvetica,sans-Serif" font-size="10.00">com.cliffc.aa.node.CallNode.ideal_grow</text>
</a>
</g>
</g>
<!-- Node2&#45;&gt;Node3 -->
<g id="edge2" class="edge">
<title>Node2&#45;&gt;Node3</title>
<path fill="none" stroke="midnightblue" d="M234.64,-113.5C226.26,-113.5 217.71,-113.5 209.19,-113.5"/>
<polygon fill="midnightblue" stroke="midnightblue" points="234.76,-117 244.76,-113.5 234.76,-110 234.76,-117"/>
</g>
</g>
</svg>
