<?xml version="1.0" encoding="UTF-8" standalone="no"?>
<!DOCTYPE svg PUBLIC "-//W3C//DTD SVG 1.1//EN"
 "http://www.w3.org/Graphics/SVG/1.1/DTD/svg11.dtd">
<!-- Generated by graphviz version 2.43.0 (0)
 -->
<!-- Title: com.cliffc.aa.HM.HM2.Syntax Pages: 1 -->
<svg width="371pt" height="180pt"
 viewBox="0.00 0.00 371.00 180.00" xmlns="http://www.w3.org/2000/svg" xmlns:xlink="http://www.w3.org/1999/xlink">
<g id="graph0" class="graph" transform="scale(1 1) rotate(0) translate(4 176)">
<title>com.cliffc.aa.HM.HM2.Syntax</title>
<!-- Node1 -->
<g id="node1" class="node">
<title>Node1</title>
<g id="a_node1"><a xlink:title=" ">
<polygon fill="#bfbfbf" stroke="black" points="0,-76.5 0,-95.5 161,-95.5 161,-76.5 0,-76.5"/>
<text text-anchor="middle" x="80.5" y="-83.5" font-family="Helvetica,sans-Serif" font-size="10.00">com.cliffc.aa.HM.HM2.Syntax</text>
</a>
</g>
</g>
<!-- Node2 -->
<g id="node2" class="node">
<title>Node2</title>
<g id="a_node2"><a xlink:href="../../d6/d92/a00586.html" target="_top" xlink:title=" ">
<polygon fill="none" stroke="black" points="202.5,-152.5 202.5,-171.5 357.5,-171.5 357.5,-152.5 202.5,-152.5"/>
<text text-anchor="middle" x="280" y="-159.5" font-family="Helvetica,sans-Serif" font-size="10.00">com.cliffc.aa.HM.HM2.Apply</text>
</a>
</g>
</g>
<!-- Node1&#45;&gt;Node2 -->
<g id="edge1" class="edge">
<title>Node1&#45;&gt;Node2</title>
<path fill="none" stroke="midnightblue" d="M106.54,-100.47C129.45,-113.19 164.61,-131.43 197,-143 207.32,-146.69 218.63,-149.84 229.47,-152.47"/>
<polygon fill="midnightblue" stroke="midnightblue" points="108.24,-97.41 97.8,-95.55 104.8,-103.51 108.24,-97.41"/>
</g>
<!-- Node3 -->
<g id="node3" class="node">
<title>Node3</title>
<g id="a_node3"><a xlink:href="../../d8/da5/a00570.html" target="_top" xlink:title=" ">
<polygon fill="none" stroke="black" points="207,-114.5 207,-133.5 353,-133.5 353,-114.5 207,-114.5"/>
<text text-anchor="middle" x="280" y="-121.5" font-family="Helvetica,sans-Serif" font-size="10.00">com.cliffc.aa.HM.HM2.Con</text>
</a>
</g>
</g>
<!-- Node1&#45;&gt;Node3 -->
<g id="edge2" class="edge">
<title>Node1&#45;&gt;Node3</title>
<path fill="none" stroke="midnightblue" d="M141.21,-97.49C169.39,-102.91 202.63,-109.31 229.4,-114.46"/>
<polygon fill="midnightblue" stroke="midnightblue" points="141.56,-93.99 131.08,-95.54 140.24,-100.87 141.56,-93.99"/>
</g>
<!-- Node4 -->
<g id="node4" class="node">
<title>Node4</title>
<g id="a_node4"><a xlink:href="../../d4/dbe/a00574.html" target="_top" xlink:title=" ">
<polygon fill="none" stroke="black" points="204,-76.5 204,-95.5 356,-95.5 356,-76.5 204,-76.5"/>
<text text-anchor="middle" x="280" y="-83.5" font-family="Helvetica,sans-Serif" font-size="10.00">com.cliffc.aa.HM.HM2.Ident</text>
</a>
</g>
</g>
<!-- Node1&#45;&gt;Node4 -->
<g id="edge3" class="edge">
<title>Node1&#45;&gt;Node4</title>
<path fill="none" stroke="midnightblue" d="M171.53,-86C182.3,-86 193.21,-86 203.74,-86"/>
<polygon fill="midnightblue" stroke="midnightblue" points="171.26,-82.5 161.26,-86 171.26,-89.5 171.26,-82.5"/>
</g>
<!-- Node5 -->
<g id="node5" class="node">
<title>Node5</title>
<g id="a_node5"><a xlink:href="../../dd/d5c/a00578.html" target="_top" xlink:title=" ">
<polygon fill="none" stroke="black" points="197,-38.5 197,-57.5 363,-57.5 363,-38.5 197,-38.5"/>
<text text-anchor="middle" x="280" y="-45.5" font-family="Helvetica,sans-Serif" font-size="10.00">com.cliffc.aa.HM.HM2.Lambda</text>
</a>
</g>
</g>
<!-- Node1&#45;&gt;Node5 -->
<g id="edge4" class="edge">
<title>Node1&#45;&gt;Node5</title>
<path fill="none" stroke="midnightblue" d="M141.21,-74.51C169.39,-69.09 202.63,-62.69 229.4,-57.54"/>
<polygon fill="midnightblue" stroke="midnightblue" points="140.24,-71.13 131.08,-76.46 141.56,-78.01 140.24,-71.13"/>
</g>
<!-- Node6 -->
<g id="node6" class="node">
<title>Node6</title>
<g id="a_node6"><a xlink:href="../../d4/d2f/a00582.html" target="_top" xlink:title=" ">
<polygon fill="none" stroke="black" points="209,-0.5 209,-19.5 351,-19.5 351,-0.5 209,-0.5"/>
<text text-anchor="middle" x="280" y="-7.5" font-family="Helvetica,sans-Serif" font-size="10.00">com.cliffc.aa.HM.HM2.Let</text>
</a>
</g>
</g>
<!-- Node1&#45;&gt;Node6 -->
<g id="edge5" class="edge">
<title>Node1&#45;&gt;Node6</title>
<path fill="none" stroke="midnightblue" d="M106.54,-71.53C129.45,-58.81 164.61,-40.57 197,-29 207.32,-25.31 218.63,-22.16 229.47,-19.53"/>
<polygon fill="midnightblue" stroke="midnightblue" points="104.8,-68.49 97.8,-76.45 108.24,-74.59 104.8,-68.49"/>
</g>
</g>
</svg>
