<?xml version="1.0" encoding="UTF-8" standalone="no"?>
<!DOCTYPE svg PUBLIC "-//W3C//DTD SVG 1.1//EN"
 "http://www.w3.org/Graphics/SVG/1.1/DTD/svg11.dtd">
<!-- Generated by graphviz version 2.43.0 (0)
 -->
<!-- Title: com.cliffc.aa.node.RetNode.rpc Pages: 1 -->
<svg width="589pt" height="39pt"
 viewBox="0.00 0.00 589.00 39.00" xmlns="http://www.w3.org/2000/svg" xmlns:xlink="http://www.w3.org/1999/xlink">
<g id="graph0" class="graph" transform="scale(1 1) rotate(0) translate(4 35)">
<title>com.cliffc.aa.node.RetNode.rpc</title>
<!-- Node1 -->
<g id="node1" class="node">
<title>Node1</title>
<g id="a_node1"><a xlink:title=" ">
<polygon fill="#bfbfbf" stroke="black" points="412,-6 412,-25 581,-25 581,-6 412,-6"/>
<text text-anchor="middle" x="496.5" y="-13" font-family="Helvetica,sans-Serif" font-size="10.00">com.cliffc.aa.node.RetNode.rpc</text>
</a>
</g>
</g>
<!-- Node2 -->
<g id="node2" class="node">
<title>Node2</title>
<g id="a_node2"><a xlink:href="../../d7/dc4/a01354.html#a985a377fa4bc0bda09b37f08dcf79e54" target="_top" xlink:title=" ">
<polygon fill="none" stroke="black" points="222,-0.5 222,-30.5 376,-30.5 376,-0.5 222,-0.5"/>
<text text-anchor="start" x="230" y="-18.5" font-family="Helvetica,sans-Serif" font-size="10.00">com.cliffc.aa.node.RetNode.</text>
<text text-anchor="middle" x="299" y="-7.5" font-family="Helvetica,sans-Serif" font-size="10.00">RetNode</text>
</a>
</g>
</g>
<!-- Node1&#45;&gt;Node2 -->
<g id="edge1" class="edge">
<title>Node1&#45;&gt;Node2</title>
<path fill="none" stroke="midnightblue" d="M401.72,-15.5C393.16,-15.5 384.55,-15.5 376.17,-15.5"/>
<polygon fill="midnightblue" stroke="midnightblue" points="401.74,-19 411.74,-15.5 401.74,-12 401.74,-19"/>
</g>
<!-- Node3 -->
<g id="node3" class="node">
<title>Node3</title>
<g id="a_node3"><a xlink:href="../../d7/dc4/a01354.html#acd7afa8bd228ef262fa625288ddce37e" target="_top" xlink:title=" ">
<polygon fill="none" stroke="black" points="0,-6 0,-25 186,-25 186,-6 0,-6"/>
<text text-anchor="middle" x="93" y="-13" font-family="Helvetica,sans-Serif" font-size="10.00">com.cliffc.aa.node.RetNode.equals</text>
</a>
</g>
</g>
<!-- Node2&#45;&gt;Node3 -->
<g id="edge2" class="edge">
<title>Node2&#45;&gt;Node3</title>
<path fill="none" stroke="midnightblue" d="M211.54,-15.5C203.09,-15.5 194.5,-15.5 186,-15.5"/>
<polygon fill="midnightblue" stroke="midnightblue" points="211.75,-19 221.75,-15.5 211.75,-12 211.75,-19"/>
</g>
</g>
</svg>
