<?xml version="1.0" encoding="UTF-8" standalone="no"?>
<!DOCTYPE svg PUBLIC "-//W3C//DTD SVG 1.1//EN"
 "http://www.w3.org/Graphics/SVG/1.1/DTD/svg11.dtd">
<!-- Generated by graphviz version 2.43.0 (0)
 -->
<!-- Title: com.cliffc.aa.type.TypeObj.str Pages: 1 -->
<svg width="1494pt" height="509pt"
 viewBox="0.00 0.00 1494.00 509.00" xmlns="http://www.w3.org/2000/svg" xmlns:xlink="http://www.w3.org/1999/xlink">
<g id="graph0" class="graph" transform="scale(1 1) rotate(0) translate(4 505)">
<title>com.cliffc.aa.type.TypeObj.str</title>
<!-- Node1 -->
<g id="node1" class="node">
<title>Node1</title>
<g id="a_node1"><a xlink:title=" ">
<polygon fill="#bfbfbf" stroke="black" points="1325,-217 1325,-236 1486,-236 1486,-217 1325,-217"/>
<text text-anchor="middle" x="1405.5" y="-224" font-family="Helvetica,sans-Serif" font-size="10.00">com.cliffc.aa.type.TypeObj.str</text>
</a>
</g>
</g>
<!-- Node2 -->
<g id="node2" class="node">
<title>Node2</title>
<g id="a_node2"><a xlink:href="../../dc/dee/a01166.html#a98083a6fce0f5fae321e8a4a7b20dd2b" target="_top" xlink:title=" ">
<polygon fill="none" stroke="black" points="1135.5,-301.5 1135.5,-331.5 1272.5,-331.5 1272.5,-301.5 1135.5,-301.5"/>
<text text-anchor="start" x="1143.5" y="-319.5" font-family="Helvetica,sans-Serif" font-size="10.00">com.cliffc.aa.node.Node.</text>
<text text-anchor="middle" x="1204" y="-308.5" font-family="Helvetica,sans-Serif" font-size="10.00">ErrMsg.field</text>
</a>
</g>
</g>
<!-- Node1&#45;&gt;Node2 -->
<g id="edge1" class="edge">
<title>Node1&#45;&gt;Node2</title>
<path fill="none" stroke="midnightblue" d="M1373.96,-240.28C1337.36,-256.79 1276.26,-284.35 1238.43,-301.42"/>
<polygon fill="midnightblue" stroke="midnightblue" points="1375.47,-243.43 1383.15,-236.13 1372.6,-237.05 1375.47,-243.43"/>
</g>
<!-- Node16 -->
<g id="node16" class="node">
<title>Node16</title>
<g id="a_node16"><a xlink:href="../../d6/dc9/a01498.html#a1400d32771d99ae0f71d79c15a43dafc" target="_top" xlink:title=" ">
<polygon fill="none" stroke="black" points="1127,-233.5 1127,-263.5 1281,-263.5 1281,-233.5 1127,-233.5"/>
<text text-anchor="start" x="1135" y="-251.5" font-family="Helvetica,sans-Serif" font-size="10.00">com.cliffc.aa.type.TypeMem</text>
<text text-anchor="middle" x="1204" y="-240.5" font-family="Helvetica,sans-Serif" font-size="10.00">Ptr.str</text>
</a>
</g>
</g>
<!-- Node1&#45;&gt;Node16 -->
<g id="edge16" class="edge">
<title>Node1&#45;&gt;Node16</title>
<path fill="none" stroke="midnightblue" d="M1314.56,-236.42C1303.36,-237.65 1291.98,-238.91 1281.01,-240.12"/>
<polygon fill="midnightblue" stroke="midnightblue" points="1315.24,-239.86 1324.79,-235.29 1314.47,-232.91 1315.24,-239.86"/>
</g>
<!-- Node27 -->
<g id="node27" class="node">
<title>Node27</title>
<g id="a_node27"><a xlink:href="../../d6/d51/a01494.html#a00ce0f48ce2f9361f86d4bc95c6e7810" target="_top" xlink:title=" ">
<polygon fill="none" stroke="black" points="1119,-195 1119,-214 1289,-214 1289,-195 1119,-195"/>
<text text-anchor="middle" x="1204" y="-202" font-family="Helvetica,sans-Serif" font-size="10.00">com.cliffc.aa.type.TypeMem.str</text>
</a>
</g>
</g>
<!-- Node1&#45;&gt;Node27 -->
<g id="edge29" class="edge">
<title>Node1&#45;&gt;Node27</title>
<path fill="none" stroke="midnightblue" d="M1314.83,-216.61C1306.28,-215.67 1297.64,-214.72 1289.16,-213.78"/>
<polygon fill="midnightblue" stroke="midnightblue" points="1314.47,-220.09 1324.79,-217.71 1315.24,-213.14 1314.47,-220.09"/>
</g>
<!-- Node28 -->
<g id="node28" class="node">
<title>Node28</title>
<g id="a_node28"><a xlink:href="../../d6/d9a/a01710.html#af954ba4683c5d4b484046b4c2223defa" target="_top" xlink:title=" ">
<polygon fill="none" stroke="black" points="1120,-157 1120,-176 1288,-176 1288,-157 1120,-157"/>
<text text-anchor="middle" x="1204" y="-164" font-family="Helvetica,sans-Serif" font-size="10.00">com.cliffc.aa.TestParse.test_ptr</text>
</a>
</g>
</g>
<!-- Node1&#45;&gt;Node28 -->
<g id="edge30" class="edge">
<title>Node1&#45;&gt;Node28</title>
<path fill="none" stroke="midnightblue" d="M1370.43,-213.2C1347.61,-204.6 1316.77,-193.54 1289,-185.5 1277.08,-182.05 1264.06,-178.84 1251.9,-176.08"/>
<polygon fill="midnightblue" stroke="midnightblue" points="1369.4,-216.56 1379.99,-216.84 1371.89,-210.02 1369.4,-216.56"/>
</g>
<!-- Node3 -->
<g id="node3" class="node">
<title>Node3</title>
<g id="a_node3"><a xlink:href="../../d2/dff/a01374.html#a7a8f8280ff157231077661d36b4fb516" target="_top" xlink:title=" ">
<polygon fill="none" stroke="black" points="926.5,-301.5 926.5,-331.5 1060.5,-331.5 1060.5,-301.5 926.5,-301.5"/>
<text text-anchor="start" x="934.5" y="-319.5" font-family="Helvetica,sans-Serif" font-size="10.00">com.cliffc.aa.node.Store</text>
<text text-anchor="middle" x="993.5" y="-308.5" font-family="Helvetica,sans-Serif" font-size="10.00">Node.bad</text>
</a>
</g>
</g>
<!-- Node2&#45;&gt;Node3 -->
<g id="edge2" class="edge">
<title>Node2&#45;&gt;Node3</title>
<path fill="none" stroke="midnightblue" d="M1125.07,-316.5C1103.92,-316.5 1081.23,-316.5 1060.79,-316.5"/>
<polygon fill="midnightblue" stroke="midnightblue" points="1125.31,-320 1135.31,-316.5 1125.31,-313 1125.31,-320"/>
</g>
<!-- Node10 -->
<g id="node10" class="node">
<title>Node10</title>
<g id="a_node10"><a xlink:href="../../d0/dfb/a01066.html#a49b5c8c93ac9b27945355814c4ea11d7" target="_top" xlink:title=" ">
<polygon fill="none" stroke="black" points="904,-432 904,-451 1083,-451 1083,-432 904,-432"/>
<text text-anchor="middle" x="993.5" y="-439" font-family="Helvetica,sans-Serif" font-size="10.00">com.cliffc.aa.node.LoadNode.bad</text>
</a>
</g>
</g>
<!-- Node2&#45;&gt;Node10 -->
<g id="edge9" class="edge">
<title>Node2&#45;&gt;Node10</title>
<path fill="none" stroke="midnightblue" d="M1169.21,-336.76C1123.64,-364.08 1044.3,-411.65 1010.49,-431.91"/>
<polygon fill="midnightblue" stroke="midnightblue" points="1171.07,-339.72 1177.85,-331.58 1167.47,-333.72 1171.07,-339.72"/>
</g>
<!-- Node4 -->
<g id="node4" class="node">
<title>Node4</title>
<g id="a_node4"><a xlink:href="../../d2/dff/a01374.html#ad8dbf1a4e3b6c493dcc5dc25ed632f96" target="_top" xlink:title=" ">
<polygon fill="none" stroke="black" points="714,-284.5 714,-314.5 848,-314.5 848,-284.5 714,-284.5"/>
<text text-anchor="start" x="722" y="-302.5" font-family="Helvetica,sans-Serif" font-size="10.00">com.cliffc.aa.node.Store</text>
<text text-anchor="middle" x="781" y="-291.5" font-family="Helvetica,sans-Serif" font-size="10.00">Node.err</text>
</a>
</g>
</g>
<!-- Node3&#45;&gt;Node4 -->
<g id="edge3" class="edge">
<title>Node3&#45;&gt;Node4</title>
<path fill="none" stroke="midnightblue" d="M916.36,-310.35C894.03,-308.55 869.81,-306.59 848.15,-304.84"/>
<polygon fill="midnightblue" stroke="midnightblue" points="916.22,-313.85 926.47,-311.17 916.79,-306.87 916.22,-313.85"/>
</g>
<!-- Node7 -->
<g id="node7" class="node">
<title>Node7</title>
<g id="a_node7"><a xlink:href="../../d2/dff/a01374.html#a467cf9957024d8403a129f1ef43e78cf" target="_top" xlink:title=" ">
<polygon fill="none" stroke="black" points="714,-333.5 714,-363.5 848,-363.5 848,-333.5 714,-333.5"/>
<text text-anchor="start" x="722" y="-351.5" font-family="Helvetica,sans-Serif" font-size="10.00">com.cliffc.aa.node.Store</text>
<text text-anchor="middle" x="781" y="-340.5" font-family="Helvetica,sans-Serif" font-size="10.00">Node.StoreNode</text>
</a>
</g>
</g>
<!-- Node3&#45;&gt;Node7 -->
<g id="edge6" class="edge">
<title>Node3&#45;&gt;Node7</title>
<path fill="none" stroke="midnightblue" d="M916.36,-328.07C894.03,-331.47 869.81,-335.15 848.15,-338.44"/>
<polygon fill="midnightblue" stroke="midnightblue" points="917.11,-331.5 926.47,-326.54 916.06,-324.58 917.11,-331.5"/>
</g>
<!-- Node5 -->
<g id="node5" class="node">
<title>Node5</title>
<g id="a_node5"><a xlink:href="../../d0/dfb/a01066.html#a14a8ca3940ab377a67de458b109a36d9" target="_top" xlink:title=" ">
<polygon fill="none" stroke="black" points="468.5,-284.5 468.5,-314.5 647.5,-314.5 647.5,-284.5 468.5,-284.5"/>
<text text-anchor="start" x="476.5" y="-302.5" font-family="Helvetica,sans-Serif" font-size="10.00">com.cliffc.aa.node.LoadNode.find</text>
<text text-anchor="middle" x="558" y="-291.5" font-family="Helvetica,sans-Serif" font-size="10.00">_previous_store</text>
</a>
</g>
</g>
<!-- Node4&#45;&gt;Node5 -->
<g id="edge4" class="edge">
<title>Node4&#45;&gt;Node5</title>
<path fill="none" stroke="midnightblue" d="M703.79,-299.5C685.67,-299.5 666.18,-299.5 647.56,-299.5"/>
<polygon fill="midnightblue" stroke="midnightblue" points="703.99,-303 713.99,-299.5 703.99,-296 703.99,-303"/>
</g>
<!-- Node6 -->
<g id="node6" class="node">
<title>Node6</title>
<g id="a_node6"><a xlink:href="../../d0/dfb/a01066.html#af687a97365428ba2560bff84c7d20eff" target="_top" xlink:title=" ">
<polygon fill="none" stroke="black" points="237,-284.5 237,-314.5 422,-314.5 422,-284.5 237,-284.5"/>
<text text-anchor="start" x="245" y="-302.5" font-family="Helvetica,sans-Serif" font-size="10.00">com.cliffc.aa.node.LoadNode.ideal</text>
<text text-anchor="middle" x="329.5" y="-291.5" font-family="Helvetica,sans-Serif" font-size="10.00">_reduce</text>
</a>
</g>
</g>
<!-- Node5&#45;&gt;Node6 -->
<g id="edge5" class="edge">
<title>Node5&#45;&gt;Node6</title>
<path fill="none" stroke="midnightblue" d="M458.45,-299.5C446.45,-299.5 434.23,-299.5 422.34,-299.5"/>
<polygon fill="midnightblue" stroke="midnightblue" points="458.46,-303 468.46,-299.5 458.46,-296 458.46,-303"/>
</g>
<!-- Node8 -->
<g id="node8" class="node">
<title>Node8</title>
<g id="a_node8"><a xlink:href="../../d2/dff/a01374.html#a5e3154f462859dd43ad4d4e1690f1dd6" target="_top" xlink:title=" ">
<polygon fill="none" stroke="black" points="491,-382.5 491,-412.5 625,-412.5 625,-382.5 491,-382.5"/>
<text text-anchor="start" x="499" y="-400.5" font-family="Helvetica,sans-Serif" font-size="10.00">com.cliffc.aa.node.Store</text>
<text text-anchor="middle" x="558" y="-389.5" font-family="Helvetica,sans-Serif" font-size="10.00">Node.equals</text>
</a>
</g>
</g>
<!-- Node7&#45;&gt;Node8 -->
<g id="edge7" class="edge">
<title>Node7&#45;&gt;Node8</title>
<path fill="none" stroke="midnightblue" d="M703.93,-365.37C678.28,-371.05 649.87,-377.35 625.05,-382.86"/>
<polygon fill="midnightblue" stroke="midnightblue" points="704.99,-368.72 713.99,-363.14 703.47,-361.88 704.99,-368.72"/>
</g>
<!-- Node9 -->
<g id="node9" class="node">
<title>Node9</title>
<g id="a_node9"><a xlink:href="../../d2/dff/a01374.html#a37cb65987b0994834308e3549efb2ae7" target="_top" xlink:title=" ">
<polygon fill="none" stroke="black" points="491,-333.5 491,-363.5 625,-363.5 625,-333.5 491,-333.5"/>
<text text-anchor="start" x="499" y="-351.5" font-family="Helvetica,sans-Serif" font-size="10.00">com.cliffc.aa.node.Store</text>
<text text-anchor="middle" x="558" y="-340.5" font-family="Helvetica,sans-Serif" font-size="10.00">Node.ideal_reduce</text>
</a>
</g>
</g>
<!-- Node7&#45;&gt;Node9 -->
<g id="edge8" class="edge">
<title>Node7&#45;&gt;Node9</title>
<path fill="none" stroke="midnightblue" d="M703.93,-348.5C678.28,-348.5 649.87,-348.5 625.05,-348.5"/>
<polygon fill="midnightblue" stroke="midnightblue" points="703.99,-352 713.99,-348.5 703.99,-345 703.99,-352"/>
</g>
<!-- Node11 -->
<g id="node11" class="node">
<title>Node11</title>
<g id="a_node11"><a xlink:href="../../d0/dfb/a01066.html#ad67f57cb1fc3b5558e0e909b8bc7d145" target="_top" xlink:title=" ">
<polygon fill="none" stroke="black" points="694,-432 694,-451 868,-451 868,-432 694,-432"/>
<text text-anchor="middle" x="781" y="-439" font-family="Helvetica,sans-Serif" font-size="10.00">com.cliffc.aa.node.LoadNode.err</text>
</a>
</g>
</g>
<!-- Node10&#45;&gt;Node11 -->
<g id="edge10" class="edge">
<title>Node10&#45;&gt;Node11</title>
<path fill="none" stroke="midnightblue" d="M893.83,-441.5C885.27,-441.5 876.65,-441.5 868.2,-441.5"/>
<polygon fill="midnightblue" stroke="midnightblue" points="893.84,-445 903.84,-441.5 893.84,-438 893.84,-445"/>
</g>
<!-- Node15 -->
<g id="node15" class="node">
<title>Node15</title>
<g id="a_node15"><a xlink:href="../../d0/dfb/a01066.html#affab2f1405842994ca5dc80cb9dac3e7" target="_top" xlink:title=" ">
<polygon fill="none" stroke="black" points="700.5,-470.5 700.5,-500.5 861.5,-500.5 861.5,-470.5 700.5,-470.5"/>
<text text-anchor="start" x="708.5" y="-488.5" font-family="Helvetica,sans-Serif" font-size="10.00">com.cliffc.aa.node.LoadNode.</text>
<text text-anchor="middle" x="781" y="-477.5" font-family="Helvetica,sans-Serif" font-size="10.00">LoadNode</text>
</a>
</g>
</g>
<!-- Node10&#45;&gt;Node15 -->
<g id="edge15" class="edge">
<title>Node10&#45;&gt;Node15</title>
<path fill="none" stroke="midnightblue" d="M937,-453.1C911.61,-458.41 881.2,-464.76 854.07,-470.43"/>
<polygon fill="midnightblue" stroke="midnightblue" points="937.75,-456.52 946.82,-451.05 936.32,-449.67 937.75,-456.52"/>
</g>
<!-- Node12 -->
<g id="node12" class="node">
<title>Node12</title>
<g id="a_node12"><a xlink:href="../../d0/dfb/a01066.html#ad0aa5c9f45cb37abe56da01c859c2c00" target="_top" xlink:title=" ">
<polygon fill="none" stroke="black" points="249,-445.5 249,-475.5 410,-475.5 410,-445.5 249,-445.5"/>
<text text-anchor="start" x="257" y="-463.5" font-family="Helvetica,sans-Serif" font-size="10.00">com.cliffc.aa.node.LoadNode.</text>
<text text-anchor="middle" x="329.5" y="-452.5" font-family="Helvetica,sans-Serif" font-size="10.00">_live_use</text>
</a>
</g>
</g>
<!-- Node11&#45;&gt;Node12 -->
<g id="edge11" class="edge">
<title>Node11&#45;&gt;Node12</title>
<path fill="none" stroke="midnightblue" d="M683.6,-445.57C602.09,-449.02 486.72,-453.9 410.31,-457.13"/>
<polygon fill="midnightblue" stroke="midnightblue" points="684.02,-449.06 693.86,-445.14 683.72,-442.07 684.02,-449.06"/>
</g>
<!-- Node14 -->
<g id="node14" class="node">
<title>Node14</title>
<g id="a_node14"><a xlink:href="../../d0/dfb/a01066.html#a318ad28c75cfa00cdbe71886baea637d" target="_top" xlink:title=" ">
<polygon fill="none" stroke="black" points="458,-470 458,-489 658,-489 658,-470 458,-470"/>
<text text-anchor="middle" x="558" y="-477" font-family="Helvetica,sans-Serif" font-size="10.00">com.cliffc.aa.node.LoadNode.get_fld2</text>
</a>
</g>
</g>
<!-- Node11&#45;&gt;Node14 -->
<g id="edge13" class="edge">
<title>Node11&#45;&gt;Node14</title>
<path fill="none" stroke="midnightblue" d="M714.42,-452.78C682.63,-458.24 644.85,-464.74 614.51,-469.96"/>
<polygon fill="midnightblue" stroke="midnightblue" points="715.26,-456.18 724.52,-451.04 714.07,-449.29 715.26,-456.18"/>
</g>
<!-- Node13 -->
<g id="node13" class="node">
<title>Node13</title>
<g id="a_node13"><a xlink:href="../../d0/dfb/a01066.html#a909995b973eee1bccf21bdb389e1c53d" target="_top" xlink:title=" ">
<polygon fill="none" stroke="black" points="0,-451 0,-470 201,-470 201,-451 0,-451"/>
<text text-anchor="middle" x="100.5" y="-458" font-family="Helvetica,sans-Serif" font-size="10.00">com.cliffc.aa.node.LoadNode.live_use</text>
</a>
</g>
</g>
<!-- Node12&#45;&gt;Node13 -->
<g id="edge12" class="edge">
<title>Node12&#45;&gt;Node13</title>
<path fill="none" stroke="midnightblue" d="M238.61,-460.5C226.37,-460.5 213.75,-460.5 201.35,-460.5"/>
<polygon fill="midnightblue" stroke="midnightblue" points="238.79,-464 248.79,-460.5 238.79,-457 238.79,-464"/>
</g>
<!-- Node14&#45;&gt;Node12 -->
<g id="edge14" class="edge">
<title>Node14&#45;&gt;Node12</title>
<path fill="none" stroke="midnightblue" d="M447.85,-470.34C435.18,-469.28 422.44,-468.21 410.27,-467.19"/>
<polygon fill="midnightblue" stroke="midnightblue" points="447.73,-473.85 457.98,-471.19 448.31,-466.87 447.73,-473.85"/>
</g>
<!-- Node17 -->
<g id="node17" class="node">
<title>Node17</title>
<g id="a_node17"><a xlink:href="../../d0/dc7/a01402.html#ad03d0d9789ee2638d41ec1271d9a246b" target="_top" xlink:title=" ">
<polygon fill="none" stroke="black" points="921.5,-229 921.5,-248 1065.5,-248 1065.5,-229 921.5,-229"/>
<text text-anchor="middle" x="993.5" y="-236" font-family="Helvetica,sans-Serif" font-size="10.00">com.cliffc.aa.REPL.go_one</text>
</a>
</g>
</g>
<!-- Node16&#45;&gt;Node17 -->
<g id="edge17" class="edge">
<title>Node16&#45;&gt;Node17</title>
<path fill="none" stroke="midnightblue" d="M1116.41,-244.35C1099.49,-243.54 1081.94,-242.69 1065.6,-241.91"/>
<polygon fill="midnightblue" stroke="midnightblue" points="1116.69,-247.86 1126.84,-244.85 1117.02,-240.87 1116.69,-247.86"/>
</g>
<!-- Node18 -->
<g id="node18" class="node">
<title>Node18</title>
<g id="a_node18"><a xlink:href="../../d0/dc7/a01402.html#ade453511962c490db1222a4b161a3832" target="_top" xlink:title=" ">
<polygon fill="none" stroke="black" points="720.5,-243 720.5,-262 841.5,-262 841.5,-243 720.5,-243"/>
<text text-anchor="middle" x="781" y="-250" font-family="Helvetica,sans-Serif" font-size="10.00">com.cliffc.aa.REPL.go</text>
</a>
</g>
</g>
<!-- Node17&#45;&gt;Node18 -->
<g id="edge18" class="edge">
<title>Node17&#45;&gt;Node18</title>
<path fill="none" stroke="midnightblue" d="M911.09,-243.91C887.96,-245.45 863.21,-247.1 841.63,-248.53"/>
<polygon fill="midnightblue" stroke="midnightblue" points="911.49,-247.4 921.23,-243.24 911.02,-240.41 911.49,-247.4"/>
</g>
<!-- Node20 -->
<g id="node20" class="node">
<title>Node20</title>
<g id="a_node20"><a xlink:href="../../d8/dce/a01714.html#ad010f7dd848ab83816ccbcb0b8a1544c" target="_top" xlink:title=" ">
<polygon fill="none" stroke="black" points="707.5,-129 707.5,-148 854.5,-148 854.5,-129 707.5,-129"/>
<text text-anchor="middle" x="781" y="-136" font-family="Helvetica,sans-Serif" font-size="10.00">com.cliffc.aa.TestREPL.test</text>
</a>
</g>
</g>
<!-- Node17&#45;&gt;Node20 -->
<g id="edge20" class="edge">
<title>Node17&#45;&gt;Node20</title>
<path fill="none" stroke="midnightblue" d="M963.13,-224.55C919.7,-203.92 839.48,-165.81 802.12,-148.06"/>
<polygon fill="midnightblue" stroke="midnightblue" points="961.78,-227.78 972.32,-228.91 964.79,-221.46 961.78,-227.78"/>
</g>
<!-- Node26 -->
<g id="node26" class="node">
<title>Node26</title>
<g id="a_node26"><a xlink:href="../../d8/dce/a01714.html#aac90b254f07f65efe221761ff6973063" target="_top" xlink:title=" ">
<polygon fill="none" stroke="black" points="700.5,-202 700.5,-221 861.5,-221 861.5,-202 700.5,-202"/>
<text text-anchor="middle" x="781" y="-209" font-family="Helvetica,sans-Serif" font-size="10.00">com.cliffc.aa.TestREPL.testerr</text>
</a>
</g>
</g>
<!-- Node17&#45;&gt;Node26 -->
<g id="edge26" class="edge">
<title>Node17&#45;&gt;Node26</title>
<path fill="none" stroke="midnightblue" d="M911.26,-228.08C893.1,-225.75 873.92,-223.29 856.07,-221"/>
<polygon fill="midnightblue" stroke="midnightblue" points="910.87,-231.56 921.23,-229.36 911.76,-224.62 910.87,-231.56"/>
</g>
<!-- Node19 -->
<g id="node19" class="node">
<title>Node19</title>
<g id="a_node19"><a xlink:href="../../d3/d30/a00370.html#a5d5f08576d482899e6122e26e312fa57" target="_top" xlink:title=" ">
<polygon fill="none" stroke="black" points="496.5,-246 496.5,-265 619.5,-265 619.5,-246 496.5,-246"/>
<text text-anchor="middle" x="558" y="-253" font-family="Helvetica,sans-Serif" font-size="10.00">com.cliffc.aa.AA.main</text>
</a>
</g>
</g>
<!-- Node18&#45;&gt;Node19 -->
<g id="edge19" class="edge">
<title>Node18&#45;&gt;Node19</title>
<path fill="none" stroke="midnightblue" d="M710.4,-253.44C681.32,-253.84 647.84,-254.29 619.78,-254.67"/>
<polygon fill="midnightblue" stroke="midnightblue" points="710.53,-256.94 720.49,-253.31 710.44,-249.94 710.53,-256.94"/>
</g>
<!-- Node21 -->
<g id="node21" class="node">
<title>Node21</title>
<g id="a_node21"><a xlink:href="../../d8/dce/a01714.html#a507817ea92bced252246260cd7df8345" target="_top" xlink:title=" ">
<polygon fill="none" stroke="black" points="484.5,-98.5 484.5,-128.5 631.5,-128.5 631.5,-98.5 484.5,-98.5"/>
<text text-anchor="start" x="492.5" y="-116.5" font-family="Helvetica,sans-Serif" font-size="10.00">com.cliffc.aa.TestREPL.test</text>
<text text-anchor="middle" x="558" y="-105.5" font-family="Helvetica,sans-Serif" font-size="10.00">REPL00</text>
</a>
</g>
</g>
<!-- Node20&#45;&gt;Node21 -->
<g id="edge21" class="edge">
<title>Node20&#45;&gt;Node21</title>
<path fill="none" stroke="midnightblue" d="M697.23,-129.14C675.7,-126.7 652.68,-124.1 631.71,-121.73"/>
<polygon fill="midnightblue" stroke="midnightblue" points="697,-132.63 707.33,-130.28 697.79,-125.68 697,-132.63"/>
</g>
<!-- Node22 -->
<g id="node22" class="node">
<title>Node22</title>
<g id="a_node22"><a xlink:href="../../d8/dce/a01714.html#a52358b81ff1d73fd9f909b7fca1d9f24" target="_top" xlink:title=" ">
<polygon fill="none" stroke="black" points="484.5,-147.5 484.5,-177.5 631.5,-177.5 631.5,-147.5 484.5,-147.5"/>
<text text-anchor="start" x="492.5" y="-165.5" font-family="Helvetica,sans-Serif" font-size="10.00">com.cliffc.aa.TestREPL.test</text>
<text text-anchor="middle" x="558" y="-154.5" font-family="Helvetica,sans-Serif" font-size="10.00">REPL01</text>
</a>
</g>
</g>
<!-- Node20&#45;&gt;Node22 -->
<g id="edge22" class="edge">
<title>Node20&#45;&gt;Node22</title>
<path fill="none" stroke="midnightblue" d="M697.23,-147.49C675.7,-149.83 652.68,-152.33 631.71,-154.6"/>
<polygon fill="midnightblue" stroke="midnightblue" points="697.77,-150.95 707.33,-146.39 697.01,-143.99 697.77,-150.95"/>
</g>
<!-- Node23 -->
<g id="node23" class="node">
<title>Node23</title>
<g id="a_node23"><a xlink:href="../../d8/dce/a01714.html#a4c6c9e4ac2e24309fb00791c311c1744" target="_top" xlink:title=" ">
<polygon fill="none" stroke="black" points="484.5,-49.5 484.5,-79.5 631.5,-79.5 631.5,-49.5 484.5,-49.5"/>
<text text-anchor="start" x="492.5" y="-67.5" font-family="Helvetica,sans-Serif" font-size="10.00">com.cliffc.aa.TestREPL.test</text>
<text text-anchor="middle" x="558" y="-56.5" font-family="Helvetica,sans-Serif" font-size="10.00">REPL02</text>
</a>
</g>
</g>
<!-- Node20&#45;&gt;Node23 -->
<g id="edge23" class="edge">
<title>Node20&#45;&gt;Node23</title>
<path fill="none" stroke="midnightblue" d="M749.78,-124.62C725.38,-113.77 689.96,-98.86 658,-88.5 648.07,-85.28 637.46,-82.27 627.01,-79.55"/>
<polygon fill="midnightblue" stroke="midnightblue" points="748.65,-127.94 759.2,-128.85 751.51,-121.56 748.65,-127.94"/>
</g>
<!-- Node24 -->
<g id="node24" class="node">
<title>Node24</title>
<g id="a_node24"><a xlink:href="../../d8/dce/a01714.html#a1a0eeb763b3801771da320fc50da0c5a" target="_top" xlink:title=" ">
<polygon fill="none" stroke="black" points="484.5,-196.5 484.5,-226.5 631.5,-226.5 631.5,-196.5 484.5,-196.5"/>
<text text-anchor="start" x="492.5" y="-214.5" font-family="Helvetica,sans-Serif" font-size="10.00">com.cliffc.aa.TestREPL.test</text>
<text text-anchor="middle" x="558" y="-203.5" font-family="Helvetica,sans-Serif" font-size="10.00">REPL03</text>
</a>
</g>
</g>
<!-- Node20&#45;&gt;Node24 -->
<g id="edge24" class="edge">
<title>Node20&#45;&gt;Node24</title>
<path fill="none" stroke="midnightblue" d="M748.81,-152.04C724.4,-162.34 689.42,-176.4 658,-186.5 646.95,-190.05 635.07,-193.43 623.51,-196.48"/>
<polygon fill="midnightblue" stroke="midnightblue" points="750.43,-155.16 758.27,-148.03 747.69,-148.72 750.43,-155.16"/>
</g>
<!-- Node25 -->
<g id="node25" class="node">
<title>Node25</title>
<g id="a_node25"><a xlink:href="../../d8/dce/a01714.html#a12788dac66ade8a35f6dc681c28dc137" target="_top" xlink:title=" ">
<polygon fill="none" stroke="black" points="484.5,-0.5 484.5,-30.5 631.5,-30.5 631.5,-0.5 484.5,-0.5"/>
<text text-anchor="start" x="492.5" y="-18.5" font-family="Helvetica,sans-Serif" font-size="10.00">com.cliffc.aa.TestREPL.test</text>
<text text-anchor="middle" x="558" y="-7.5" font-family="Helvetica,sans-Serif" font-size="10.00">REPL04</text>
</a>
</g>
</g>
<!-- Node20&#45;&gt;Node25 -->
<g id="edge25" class="edge">
<title>Node20&#45;&gt;Node25</title>
<path fill="none" stroke="midnightblue" d="M764.1,-121.57C742.29,-99.37 700.89,-60.74 658,-39.5 649.76,-35.42 640.78,-32.01 631.71,-29.16"/>
<polygon fill="midnightblue" stroke="midnightblue" points="761.76,-124.18 771.22,-128.95 766.8,-119.32 761.76,-124.18"/>
</g>
<!-- Node26&#45;&gt;Node22 -->
<g id="edge27" class="edge">
<title>Node26&#45;&gt;Node22</title>
<path fill="none" stroke="midnightblue" d="M727.26,-199.81C697.21,-193.14 659.24,-184.73 626.97,-177.57"/>
<polygon fill="midnightblue" stroke="midnightblue" points="726.61,-203.25 737.13,-201.99 728.12,-196.41 726.61,-203.25"/>
</g>
<!-- Node26&#45;&gt;Node24 -->
<g id="edge28" class="edge">
<title>Node26&#45;&gt;Node24</title>
<path fill="none" stroke="midnightblue" d="M690.14,-211.5C670.7,-211.5 650.37,-211.5 631.69,-211.5"/>
<polygon fill="midnightblue" stroke="midnightblue" points="690.21,-215 700.21,-211.5 690.21,-208 690.21,-215"/>
</g>
</g>
</svg>
