<?xml version="1.0" encoding="UTF-8" standalone="no"?>
<!DOCTYPE svg PUBLIC "-//W3C//DTD SVG 1.1//EN"
 "http://www.w3.org/Graphics/SVG/1.1/DTD/svg11.dtd">
<!-- Generated by graphviz version 2.43.0 (0)
 -->
<!-- Title: com.cliffc.aa.type.TypeObj.is_con Pages: 1 -->
<svg width="418pt" height="66pt"
 viewBox="0.00 0.00 418.00 66.00" xmlns="http://www.w3.org/2000/svg" xmlns:xlink="http://www.w3.org/1999/xlink">
<g id="graph0" class="graph" transform="scale(1 1) rotate(0) translate(4 62)">
<title>com.cliffc.aa.type.TypeObj.is_con</title>
<!-- Node1 -->
<g id="node1" class="node">
<title>Node1</title>
<g id="a_node1"><a xlink:title=" ">
<polygon fill="#bfbfbf" stroke="black" points="231,-19.5 231,-38.5 410,-38.5 410,-19.5 231,-19.5"/>
<text text-anchor="middle" x="320.5" y="-26.5" font-family="Helvetica,sans-Serif" font-size="10.00">com.cliffc.aa.type.TypeObj.is_con</text>
</a>
</g>
</g>
<!-- Node2 -->
<g id="node2" class="node">
<title>Node2</title>
<g id="a_node2"><a xlink:href="../../df/dce/a00974.html#a6bcdf3f19179a49860e199f285ea8ced" target="_top" xlink:title=" ">
<polygon fill="none" stroke="black" points="0,-38.5 0,-57.5 195,-57.5 195,-38.5 0,-38.5"/>
<text text-anchor="middle" x="97.5" y="-45.5" font-family="Helvetica,sans-Serif" font-size="10.00">com.cliffc.aa.HM.HM9.IsEmpty.apply</text>
</a>
</g>
</g>
<!-- Node1&#45;&gt;Node2 -->
<g id="edge1" class="edge">
<title>Node1&#45;&gt;Node2</title>
<path fill="none" stroke="midnightblue" d="M220.89,-37.48C212.32,-38.21 203.66,-38.96 195.11,-39.69"/>
<polygon fill="midnightblue" stroke="midnightblue" points="221.22,-40.96 230.88,-36.62 220.62,-33.99 221.22,-40.96"/>
</g>
<!-- Node3 -->
<g id="node3" class="node">
<title>Node3</title>
<g id="a_node3"><a xlink:href="../../db/df1/a00486.html#ac30db5e775bfd7a750141c68bb0eead5" target="_top" xlink:title=" ">
<polygon fill="none" stroke="black" points="3,-0.5 3,-19.5 192,-19.5 192,-0.5 3,-0.5"/>
<text text-anchor="middle" x="97.5" y="-7.5" font-family="Helvetica,sans-Serif" font-size="10.00">com.cliffc.aa.HM.HM.IsEmpty.apply</text>
</a>
</g>
</g>
<!-- Node1&#45;&gt;Node3 -->
<g id="edge2" class="edge">
<title>Node1&#45;&gt;Node3</title>
<path fill="none" stroke="midnightblue" d="M220.67,-20.5C211.2,-19.69 201.62,-18.87 192.2,-18.06"/>
<polygon fill="midnightblue" stroke="midnightblue" points="220.62,-24.01 230.88,-21.38 221.22,-17.04 220.62,-24.01"/>
</g>
</g>
</svg>
