<?xml version="1.0" encoding="UTF-8" standalone="no"?>
<!DOCTYPE svg PUBLIC "-//W3C//DTD SVG 1.1//EN"
 "http://www.w3.org/Graphics/SVG/1.1/DTD/svg11.dtd">
<!-- Generated by graphviz version 2.43.0 (0)
 -->
<!-- Title: com.cliffc.aa.node.StoreNode.add_reduce_extra Pages: 1 -->
<svg width="957pt" height="78pt"
 viewBox="0.00 0.00 957.00 77.50" xmlns="http://www.w3.org/2000/svg" xmlns:xlink="http://www.w3.org/1999/xlink">
<g id="graph0" class="graph" transform="scale(1 1) rotate(0) translate(4 73.5)">
<title>com.cliffc.aa.node.StoreNode.add_reduce_extra</title>
<!-- Node1 -->
<g id="node1" class="node">
<title>Node1</title>
<g id="a_node1"><a xlink:title=" ">
<polygon fill="#bfbfbf" stroke="black" points="0,-22.5 0,-52.5 134,-52.5 134,-22.5 0,-22.5"/>
<text text-anchor="start" x="8" y="-40.5" font-family="Helvetica,sans-Serif" font-size="10.00">com.cliffc.aa.node.Store</text>
<text text-anchor="middle" x="67" y="-29.5" font-family="Helvetica,sans-Serif" font-size="10.00">Node.add_reduce_extra</text>
</a>
</g>
</g>
<!-- Node2 -->
<g id="node2" class="node">
<title>Node2</title>
<g id="a_node2"><a xlink:href="../../d9/d0a/a00390.html#a803cd8e6428a4072457fe5d291eb82f1" target="_top" xlink:title=" ">
<polygon fill="none" stroke="black" points="170,-50 170,-69 351,-69 351,-50 170,-50"/>
<text text-anchor="middle" x="260.5" y="-57" font-family="Helvetica,sans-Serif" font-size="10.00">com.cliffc.aa.GVNGCM.add_mono</text>
</a>
</g>
</g>
<!-- Node1&#45;&gt;Node2 -->
<g id="edge1" class="edge">
<title>Node1&#45;&gt;Node2</title>
<path fill="none" stroke="midnightblue" d="M134.17,-45.1C144.68,-46.31 155.72,-47.58 166.71,-48.84"/>
<polygon fill="midnightblue" stroke="midnightblue" points="166.44,-52.33 176.77,-50 167.23,-45.38 166.44,-52.33"/>
</g>
<!-- Node6 -->
<g id="node6" class="node">
<title>Node6</title>
<g id="a_node6"><a xlink:href="../../d9/d0a/a00390.html#ad52b88a21b47c661e6f6a3bcfdbb3576" target="_top" xlink:title=" ">
<polygon fill="none" stroke="black" points="186.5,-0.5 186.5,-30.5 334.5,-30.5 334.5,-0.5 186.5,-0.5"/>
<text text-anchor="start" x="194.5" y="-18.5" font-family="Helvetica,sans-Serif" font-size="10.00">com.cliffc.aa.GVNGCM.add</text>
<text text-anchor="middle" x="260.5" y="-7.5" font-family="Helvetica,sans-Serif" font-size="10.00">_reduce</text>
</a>
</g>
</g>
<!-- Node1&#45;&gt;Node6 -->
<g id="edge5" class="edge">
<title>Node1&#45;&gt;Node6</title>
<path fill="none" stroke="midnightblue" d="M134.17,-29.9C147.74,-28.34 162.19,-26.68 176.28,-25.06"/>
<polygon fill="midnightblue" stroke="midnightblue" points="176.91,-28.51 186.45,-23.89 176.11,-21.56 176.91,-28.51"/>
</g>
<!-- Node3 -->
<g id="node3" class="node">
<title>Node3</title>
<g id="a_node3"><a xlink:href="../../d9/d0a/a00390.html#a6074ca566ae10e746122ac8d09239d02" target="_top" xlink:title=" ">
<polygon fill="none" stroke="black" points="387,-28 387,-47 564,-47 564,-28 387,-28"/>
<text text-anchor="middle" x="475.5" y="-35" font-family="Helvetica,sans-Serif" font-size="10.00">com.cliffc.aa.GVNGCM.add_work</text>
</a>
</g>
</g>
<!-- Node2&#45;&gt;Node3 -->
<g id="edge2" class="edge">
<title>Node2&#45;&gt;Node3</title>
<path fill="none" stroke="midnightblue" d="M351.21,-50.23C359.71,-49.36 368.36,-48.46 376.92,-47.58"/>
<polygon fill="midnightblue" stroke="midnightblue" points="377.35,-51.05 386.93,-46.54 376.63,-44.09 377.35,-51.05"/>
</g>
<!-- Node4 -->
<g id="node4" class="node">
<title>Node4</title>
<g id="a_node4"><a xlink:href="../../d6/d2f/a01394.html#acc21c59313a6ce5c286431fd2d4fd891" target="_top" xlink:title=" ">
<polygon fill="none" stroke="black" points="600,-28 600,-47 755,-47 755,-28 600,-28"/>
<text text-anchor="middle" x="677.5" y="-35" font-family="Helvetica,sans-Serif" font-size="10.00">com.cliffc.aa.node.Work.add</text>
</a>
</g>
</g>
<!-- Node3&#45;&gt;Node4 -->
<g id="edge3" class="edge">
<title>Node3&#45;&gt;Node4</title>
<path fill="none" stroke="midnightblue" d="M564.22,-37.5C572.65,-37.5 581.2,-37.5 589.63,-37.5"/>
<polygon fill="midnightblue" stroke="midnightblue" points="589.82,-41 599.82,-37.5 589.82,-34 589.82,-41"/>
</g>
<!-- Node5 -->
<g id="node5" class="node">
<title>Node5</title>
<g id="a_node5"><a xlink:href="../../df/dee/a01646.html#a88ad20daf92e92fe0e3925b23c4fecf0" target="_top" xlink:title=" ">
<polygon fill="none" stroke="black" points="791,-28 791,-47 949,-47 949,-28 791,-28"/>
<text text-anchor="middle" x="870" y="-35" font-family="Helvetica,sans-Serif" font-size="10.00">com.cliffc.aa.util.VBitSet.tset</text>
</a>
</g>
</g>
<!-- Node4&#45;&gt;Node5 -->
<g id="edge4" class="edge">
<title>Node4&#45;&gt;Node5</title>
<path fill="none" stroke="midnightblue" d="M755.16,-37.5C763.63,-37.5 772.31,-37.5 780.9,-37.5"/>
<polygon fill="midnightblue" stroke="midnightblue" points="780.94,-41 790.94,-37.5 780.94,-34 780.94,-41"/>
</g>
<!-- Node6&#45;&gt;Node3 -->
<g id="edge6" class="edge">
<title>Node6&#45;&gt;Node3</title>
<path fill="none" stroke="midnightblue" d="M334.5,-23.04C348.07,-24.44 362.45,-25.93 376.62,-27.39"/>
<polygon fill="midnightblue" stroke="midnightblue" points="376.58,-30.9 386.88,-28.45 377.3,-23.94 376.58,-30.9"/>
</g>
</g>
</svg>
