<?xml version="1.0" encoding="UTF-8" standalone="no"?>
<!DOCTYPE svg PUBLIC "-//W3C//DTD SVG 1.1//EN"
 "http://www.w3.org/Graphics/SVG/1.1/DTD/svg11.dtd">
<!-- Generated by graphviz version 2.43.0 (0)
 -->
<!-- Title: com.cliffc.aa.node.StoreNode.equals Pages: 1 -->
<!--zoomable 278 -->
<svg id="main" version="1.1" xmlns="http://www.w3.org/2000/svg" xmlns:xlink="http://www.w3.org/1999/xlink" xml:space="preserve" onload="init(evt)">
<style type="text/css"><![CDATA[
.edge:hover path { stroke: red; }
.edge:hover polygon { stroke: red; fill: red; }
]]></style>
<script type="text/javascript"><![CDATA[
var edges = document.getElementsByTagName('g');
if (edges && edges.length) {
  for (var i=0;i<edges.length;i++) {
    if (edges[i].id.substr(0,4)=='edge') {
      edges[i].setAttribute('class','edge');
    }
  }
}
]]></script>
        <defs>
                <circle id="rim" cx="0" cy="0" r="7"/>
                <circle id="rim2" cx="0" cy="0" r="3.5"/>
                <g id="zoomPlus">
                        <use xlink:href="#rim" fill="#404040">
                                <set attributeName="fill" to="#808080" begin="zoomplus.mouseover" end="zoomplus.mouseout"/>
                        </use>
                        <path d="M-4,0h8M0,-4v8" fill="none" stroke="white" stroke-width="1.5" pointer-events="none"/>
                </g>
                <g id="zoomMin">
                        <use xlink:href="#rim" fill="#404040">
                                <set attributeName="fill" to="#808080" begin="zoomminus.mouseover" end="zoomminus.mouseout"/>
                        </use>
                        <path d="M-4,0h8" fill="none" stroke="white" stroke-width="1.5" pointer-events="none"/>
                </g>
                <g id="dirArrow">
                        <path fill="none" stroke="white" stroke-width="1.5" d="M0,-3.0v7 M-2.5,-0.5L0,-3.0L2.5,-0.5"/>
                </g>
               <g id="resetDef">
                       <use xlink:href="#rim2" fill="#404040">
                               <set attributeName="fill" to="#808080" begin="reset.mouseover" end="reset.mouseout"/>
                       </use>
               </g>
        </defs>

<script type="text/javascript">
var viewWidth = 1028;
var viewHeight = 278;
var sectionId = 'dynsection-49';
</script>
<script xlink:href="../../svgpan.js"/>
<svg id="graph" class="graph">
<g id="viewport">
<title>com.cliffc.aa.node.StoreNode.equals</title>
<!-- Node1 -->
<g id="node1" class="node">
<title>Node1</title>
<g id="a_node1"><a xlink:title=" ">
<polygon fill="#bfbfbf" stroke="black" points="0,-193 0,-223 134,-223 134,-193 0,-193"/>
<text text-anchor="start" x="8" y="-211" font-family="Helvetica,sans-Serif" font-size="10.00">com.cliffc.aa.node.Store</text>
<text text-anchor="middle" x="67" y="-200" font-family="Helvetica,sans-Serif" font-size="10.00">Node.equals</text>
</a>
</g>
</g>
<!-- Node2 -->
<g id="node2" class="node">
<title>Node2</title>
<g id="a_node2"><a xlink:href="../../dd/d55/a01638.html#a3975ba7dca9fe2d6e4992b2b5558f882" target="_top" xlink:title=" ">
<polygon fill="none" stroke="black" points="170.5,-220.5 170.5,-239.5 303.5,-239.5 303.5,-220.5 170.5,-220.5"/>
<text text-anchor="middle" x="237" y="-227.5" font-family="Helvetica,sans-Serif" font-size="10.00">com.cliffc.aa.util.Util.eq</text>
</a>
</g>
</g>
<!-- Node1&#45;&gt;Node2 -->
<g id="edge1" class="edge">
<title>Node1&#45;&gt;Node2</title>
<path fill="none" stroke="midnightblue" d="M134.4,-216.69C142.9,-217.81 151.66,-218.96 160.3,-220.09"/>
<polygon fill="midnightblue" stroke="midnightblue" points="159.99,-223.58 170.36,-221.4 160.9,-216.64 159.99,-223.58"/>
</g>
<!-- Node3 -->
<g id="node3" class="node">
<title>Node3</title>
<g id="a_node3"><a xlink:href="../../d2/dff/a01374.html#a467cf9957024d8403a129f1ef43e78cf" target="_top" xlink:title=" ">
<polygon fill="none" stroke="black" points="170,-171 170,-201 304,-201 304,-171 170,-171"/>
<text text-anchor="start" x="178" y="-189" font-family="Helvetica,sans-Serif" font-size="10.00">com.cliffc.aa.node.Store</text>
<text text-anchor="middle" x="237" y="-178" font-family="Helvetica,sans-Serif" font-size="10.00">Node.StoreNode</text>
</a>
</g>
</g>
<!-- Node1&#45;&gt;Node3 -->
<g id="edge2" class="edge">
<title>Node1&#45;&gt;Node3</title>
<path fill="none" stroke="midnightblue" d="M134.4,-199.31C142.77,-198.21 151.39,-197.08 159.89,-195.97"/>
<polygon fill="midnightblue" stroke="midnightblue" points="160.35,-199.44 169.81,-194.67 159.44,-192.5 160.35,-199.44"/>
</g>
<!-- Node4 -->
<g id="node4" class="node">
<title>Node4</title>
<g id="a_node4"><a xlink:href="../../d2/dff/a01374.html#ae8591a86096e776c6d389ee1cb367092" target="_top" xlink:title=" ">
<polygon fill="none" stroke="black" points="529.5,-151 529.5,-181 663.5,-181 663.5,-151 529.5,-151"/>
<text text-anchor="start" x="537.5" y="-169" font-family="Helvetica,sans-Serif" font-size="10.00">com.cliffc.aa.node.Store</text>
<text text-anchor="middle" x="596.5" y="-158" font-family="Helvetica,sans-Serif" font-size="10.00">Node.adr</text>
</a>
</g>
</g>
<!-- Node3&#45;&gt;Node4 -->
<g id="edge3" class="edge">
<title>Node3&#45;&gt;Node4</title>
<path fill="none" stroke="midnightblue" d="M304.41,-182.29C365.36,-178.88 455.62,-173.83 519.44,-170.25"/>
<polygon fill="midnightblue" stroke="midnightblue" points="519.66,-173.75 529.45,-169.7 519.27,-166.76 519.66,-173.75"/>
</g>
<!-- Node6 -->
<g id="node6" class="node">
<title>Node6</title>
<g id="a_node6"><a xlink:href="../../d2/dff/a01374.html#a7a8f8280ff157231077661d36b4fb516" target="_top" xlink:title=" ">
<polygon fill="none" stroke="black" points="349,-108 349,-138 483,-138 483,-108 349,-108"/>
<text text-anchor="start" x="357" y="-126" font-family="Helvetica,sans-Serif" font-size="10.00">com.cliffc.aa.node.Store</text>
<text text-anchor="middle" x="416" y="-115" font-family="Helvetica,sans-Serif" font-size="10.00">Node.bad</text>
</a>
</g>
</g>
<!-- Node3&#45;&gt;Node6 -->
<g id="edge5" class="edge">
<title>Node3&#45;&gt;Node6</title>
<path fill="none" stroke="midnightblue" d="M280.4,-170.91C305.26,-162.06 336.87,-150.81 363.2,-141.44"/>
<polygon fill="midnightblue" stroke="midnightblue" points="364.4,-144.73 372.64,-138.08 362.05,-138.13 364.4,-144.73"/>
</g>
<!-- Node13 -->
<g id="node13" class="node">
<title>Node13</title>
<g id="a_node13"><a xlink:href="../../d2/dff/a01374.html#a433bcd13ab18fd5258f3923c6d4a9160" target="_top" xlink:title=" ">
<polygon fill="none" stroke="black" points="529.5,-239 529.5,-269 663.5,-269 663.5,-239 529.5,-239"/>
<text text-anchor="start" x="537.5" y="-257" font-family="Helvetica,sans-Serif" font-size="10.00">com.cliffc.aa.node.Store</text>
<text text-anchor="middle" x="596.5" y="-246" font-family="Helvetica,sans-Serif" font-size="10.00">Node.mem</text>
</a>
</g>
</g>
<!-- Node3&#45;&gt;Node13 -->
<g id="edge14" class="edge">
<title>Node3&#45;&gt;Node13</title>
<path fill="none" stroke="midnightblue" d="M278.98,-201.11C287.29,-204.29 295.95,-207.69 304,-211 320.19,-217.66 323.09,-222.47 340,-227 398.97,-242.8 467.92,-249.42 519.32,-252.16"/>
<polygon fill="midnightblue" stroke="midnightblue" points="519.2,-255.66 529.36,-252.66 519.55,-248.67 519.2,-255.66"/>
</g>
<!-- Node14 -->
<g id="node14" class="node">
<title>Node14</title>
<g id="a_node14"><a xlink:href="../../df/db5/a01158.html#a836e60a9058e50764b67efa7bf911fd4" target="_top" xlink:title=" ">
<polygon fill="none" stroke="black" points="340,-198.5 340,-217.5 492,-217.5 492,-198.5 340,-198.5"/>
<text text-anchor="middle" x="416" y="-205.5" font-family="Helvetica,sans-Serif" font-size="10.00">com.cliffc.aa.node.Node.val</text>
</a>
</g>
</g>
<!-- Node3&#45;&gt;Node14 -->
<g id="edge16" class="edge">
<title>Node3&#45;&gt;Node14</title>
<path fill="none" stroke="midnightblue" d="M304.16,-194.22C312.56,-195.27 321.24,-196.35 329.89,-197.42"/>
<polygon fill="midnightblue" stroke="midnightblue" points="329.64,-200.92 339.99,-198.68 330.5,-193.97 329.64,-200.92"/>
</g>
<!-- Node5 -->
<g id="node5" class="node">
<title>Node5</title>
<g id="a_node5"><a xlink:href="../../df/db5/a01158.html#a9a46cea187559f94192aa6e09b91c60c" target="_top" xlink:title=" ">
<polygon fill="none" stroke="black" points="708.5,-188.5 708.5,-207.5 854.5,-207.5 854.5,-188.5 708.5,-188.5"/>
<text text-anchor="middle" x="781.5" y="-195.5" font-family="Helvetica,sans-Serif" font-size="10.00">com.cliffc.aa.node.Node.in</text>
</a>
</g>
</g>
<!-- Node4&#45;&gt;Node5 -->
<g id="edge4" class="edge">
<title>Node4&#45;&gt;Node5</title>
<path fill="none" stroke="midnightblue" d="M663.57,-177.55C680.52,-180.52 698.75,-183.7 715.64,-186.66"/>
<polygon fill="midnightblue" stroke="midnightblue" points="715.51,-190.19 725.97,-188.46 716.72,-183.29 715.51,-190.19"/>
</g>
<!-- Node6&#45;&gt;Node4 -->
<g id="edge6" class="edge">
<title>Node6&#45;&gt;Node4</title>
<path fill="none" stroke="midnightblue" d="M479.43,-138.04C493.56,-141.44 508.68,-145.09 523.18,-148.58"/>
<polygon fill="midnightblue" stroke="midnightblue" points="522.56,-152.03 533.1,-150.97 524.2,-145.22 522.56,-152.03"/>
</g>
<!-- Node6&#45;&gt;Node5 -->
<g id="edge13" class="edge">
<title>Node6&#45;&gt;Node5</title>
<path fill="none" stroke="midnightblue" d="M483.16,-118.45C534.26,-117.14 605.98,-120.14 665,-141 683.37,-147.49 683.86,-156.75 701,-166 714.17,-173.11 729.26,-179.57 742.74,-184.8"/>
<polygon fill="midnightblue" stroke="midnightblue" points="741.62,-188.11 752.21,-188.38 744.09,-181.57 741.62,-188.11"/>
</g>
<!-- Node7 -->
<g id="node7" class="node">
<title>Node7</title>
<g id="a_node7"><a xlink:href="../../dc/dee/a01166.html#a98083a6fce0f5fae321e8a4a7b20dd2b" target="_top" xlink:title=" ">
<polygon fill="none" stroke="black" points="528,-63 528,-93 665,-93 665,-63 528,-63"/>
<text text-anchor="start" x="536" y="-81" font-family="Helvetica,sans-Serif" font-size="10.00">com.cliffc.aa.node.Node.</text>
<text text-anchor="middle" x="596.5" y="-70" font-family="Helvetica,sans-Serif" font-size="10.00">ErrMsg.field</text>
</a>
</g>
</g>
<!-- Node6&#45;&gt;Node7 -->
<g id="edge7" class="edge">
<title>Node6&#45;&gt;Node7</title>
<path fill="none" stroke="midnightblue" d="M476.93,-107.89C492.62,-103.94 509.66,-99.64 525.81,-95.57"/>
<polygon fill="midnightblue" stroke="midnightblue" points="526.88,-98.91 535.72,-93.07 525.17,-92.12 526.88,-98.91"/>
</g>
<!-- Node8 -->
<g id="node8" class="node">
<title>Node8</title>
<g id="a_node8"><a xlink:href="../../dc/dee/a01166.html#a02c185f9d57847aa3414ee3b72c59c12" target="_top" xlink:title=" ">
<polygon fill="none" stroke="black" points="713,-39 713,-69 850,-69 850,-39 713,-39"/>
<text text-anchor="start" x="721" y="-57" font-family="Helvetica,sans-Serif" font-size="10.00">com.cliffc.aa.node.Node.</text>
<text text-anchor="middle" x="781.5" y="-46" font-family="Helvetica,sans-Serif" font-size="10.00">ErrMsg.ErrMsg</text>
</a>
</g>
</g>
<!-- Node7&#45;&gt;Node8 -->
<g id="edge8" class="edge">
<title>Node7&#45;&gt;Node8</title>
<path fill="none" stroke="midnightblue" d="M665.12,-69.13C677.41,-67.52 690.32,-65.83 702.88,-64.18"/>
<polygon fill="midnightblue" stroke="midnightblue" points="703.39,-67.64 712.85,-62.87 702.48,-60.7 703.39,-67.64"/>
</g>
<!-- Node9 -->
<g id="node9" class="node">
<title>Node9</title>
<g id="a_node9"><a xlink:href="../../d4/d99/a01634.html#ac801338e82849a7fe2ae7a0feb80bb55" target="_top" xlink:title=" ">
<polygon fill="none" stroke="black" points="720.5,-0.5 720.5,-19.5 842.5,-19.5 842.5,-0.5 720.5,-0.5"/>
<text text-anchor="middle" x="781.5" y="-7.5" font-family="Helvetica,sans-Serif" font-size="10.00">com.cliffc.aa.util.SB.p</text>
</a>
</g>
</g>
<!-- Node7&#45;&gt;Node9 -->
<g id="edge9" class="edge">
<title>Node7&#45;&gt;Node9</title>
<path fill="none" stroke="midnightblue" d="M625.39,-62.85C645.85,-52.22 674.56,-38.31 701,-29 708.25,-26.45 715.98,-24.13 723.68,-22.05"/>
<polygon fill="midnightblue" stroke="midnightblue" points="724.56,-25.44 733.37,-19.56 722.81,-18.66 724.56,-25.44"/>
</g>
<!-- Node11 -->
<g id="node11" class="node">
<title>Node11</title>
<g id="a_node11"><a xlink:href="../../de/dc6/a01502.html#ae039535ed6191f45a3e6c4c7e85fc7b0" target="_top" xlink:title=" ">
<polygon fill="none" stroke="black" points="701,-137.5 701,-156.5 862,-156.5 862,-137.5 701,-137.5"/>
<text text-anchor="middle" x="781.5" y="-144.5" font-family="Helvetica,sans-Serif" font-size="10.00">com.cliffc.aa.type.TypeObj.str</text>
</a>
</g>
</g>
<!-- Node7&#45;&gt;Node11 -->
<g id="edge11" class="edge">
<title>Node7&#45;&gt;Node11</title>
<path fill="none" stroke="midnightblue" d="M632.74,-93.13C643.19,-97.76 654.62,-102.96 665,-108 681.28,-115.9 684.11,-120.52 701,-127 708.56,-129.9 716.68,-132.49 724.75,-134.78"/>
<polygon fill="midnightblue" stroke="midnightblue" points="723.95,-138.19 734.51,-137.42 725.77,-131.43 723.95,-138.19"/>
</g>
<!-- Node12 -->
<g id="node12" class="node">
<title>Node12</title>
<g id="a_node12"><a xlink:href="../../d4/d99/a01634.html#a810e7fa54cbd178760c86b30b2aa893c" target="_top" xlink:title=" ">
<polygon fill="none" stroke="black" points="718.5,-88 718.5,-118 844.5,-118 844.5,-88 718.5,-88"/>
<text text-anchor="start" x="726.5" y="-106" font-family="Helvetica,sans-Serif" font-size="10.00">com.cliffc.aa.util.SB.to</text>
<text text-anchor="middle" x="781.5" y="-95" font-family="Helvetica,sans-Serif" font-size="10.00">String</text>
</a>
</g>
</g>
<!-- Node7&#45;&gt;Node12 -->
<g id="edge12" class="edge">
<title>Node7&#45;&gt;Node12</title>
<path fill="none" stroke="midnightblue" d="M665.12,-87.24C679.13,-89.15 693.95,-91.18 708.12,-93.11"/>
<polygon fill="midnightblue" stroke="midnightblue" points="707.92,-96.62 718.3,-94.5 708.87,-89.68 707.92,-96.62"/>
</g>
<!-- Node10 -->
<g id="node10" class="node">
<title>Node10</title>
<g id="a_node10"><a xlink:href="../../d4/d99/a01634.html#abd1b8ac722e0fb0bf1e7b2ea0eaeb0b6" target="_top" xlink:title=" ">
<polygon fill="none" stroke="black" points="898,-0.5 898,-19.5 1020,-19.5 1020,-0.5 898,-0.5"/>
<text text-anchor="middle" x="959" y="-7.5" font-family="Helvetica,sans-Serif" font-size="10.00">com.cliffc.aa.util.SB.s</text>
</a>
</g>
</g>
<!-- Node9&#45;&gt;Node10 -->
<g id="edge10" class="edge">
<title>Node9&#45;&gt;Node10</title>
<path fill="none" stroke="midnightblue" d="M842.9,-10C857.32,-10 872.83,-10 887.66,-10"/>
<polygon fill="midnightblue" stroke="midnightblue" points="887.79,-13.5 897.79,-10 887.79,-6.5 887.79,-13.5"/>
</g>
<!-- Node13&#45;&gt;Node5 -->
<g id="edge15" class="edge">
<title>Node13&#45;&gt;Node5</title>
<path fill="none" stroke="midnightblue" d="M646.54,-238.99C675.68,-230.08 712.19,-218.9 739.74,-210.47"/>
<polygon fill="midnightblue" stroke="midnightblue" points="740.91,-213.77 749.45,-207.5 738.87,-207.08 740.91,-213.77"/>
</g>
<!-- Node14&#45;&gt;Node5 -->
<g id="edge17" class="edge">
<title>Node14&#45;&gt;Node5</title>
<path fill="none" stroke="midnightblue" d="M492.32,-205.93C552.4,-204.28 636.44,-201.96 698.26,-200.26"/>
<polygon fill="midnightblue" stroke="midnightblue" points="698.48,-203.76 708.38,-199.98 698.28,-196.76 698.48,-203.76"/>
</g>
</g>
</svg>
        <g id="navigator" transform="translate(0 0)" fill="#404254">
                <rect fill="#f2f5e9" fill-opacity="0.5" stroke="#606060" stroke-width=".5" x="0" y="0" width="60" height="60"/>
                <use id="zoomplus" xlink:href="#zoomPlus" x="17" y="9" onmousedown="handleZoom(evt,'in')"/>
                <use id="zoomminus" xlink:href="#zoomMin" x="42" y="9" onmousedown="handleZoom(evt,'out')"/>
                <use id="reset" xlink:href="#resetDef" x="30" y="36" onmousedown="handleReset()"/>
                <g id="arrowUp" xlink:href="#dirArrow" transform="translate(30 24)" onmousedown="handlePan(0,-1)">
                  <use xlink:href="#rim" fill="#404040">
                        <set attributeName="fill" to="#808080" begin="arrowUp.mouseover" end="arrowUp.mouseout"/>
                  </use>
                  <path fill="none" stroke="white" stroke-width="1.5" d="M0,-3.0v7 M-2.5,-0.5L0,-3.0L2.5,-0.5"/>
                </g>
                <g id="arrowRight" xlink:href="#dirArrow" transform="rotate(90) translate(36 -43)" onmousedown="handlePan(1,0)">
                  <use xlink:href="#rim" fill="#404040">
                        <set attributeName="fill" to="#808080" begin="arrowRight.mouseover" end="arrowRight.mouseout"/>
                  </use>
                  <path fill="none" stroke="white" stroke-width="1.5" d="M0,-3.0v7 M-2.5,-0.5L0,-3.0L2.5,-0.5"/>
                </g>
                <g id="arrowDown" xlink:href="#dirArrow" transform="rotate(180) translate(-30 -48)" onmousedown="handlePan(0,1)">
                  <use xlink:href="#rim" fill="#404040">
                        <set attributeName="fill" to="#808080" begin="arrowDown.mouseover" end="arrowDown.mouseout"/>
                  </use>
                  <path fill="none" stroke="white" stroke-width="1.5" d="M0,-3.0v7 M-2.5,-0.5L0,-3.0L2.5,-0.5"/>
                </g>
                <g id="arrowLeft" xlink:href="#dirArrow" transform="rotate(270) translate(-36 17)" onmousedown="handlePan(-1,0)">
                  <use xlink:href="#rim" fill="#404040">
                        <set attributeName="fill" to="#808080" begin="arrowLeft.mouseover" end="arrowLeft.mouseout"/>
                  </use>
                  <path fill="none" stroke="white" stroke-width="1.5" d="M0,-3.0v7 M-2.5,-0.5L0,-3.0L2.5,-0.5"/>
                </g>
        </g>
        <svg viewBox="0 0 15 15" width="100%" height="30px" preserveAspectRatio="xMaxYMin meet">
         <g id="arrow_out" transform="scale(0.3 0.3)">
          <a xlink:href="a01374_a5e3154f462859dd43ad4d4e1690f1dd6_cgraph_org.svg" target="_base">
           <rect id="button" ry="5" rx="5" y="6" x="6" height="38" width="38"
                fill="#f2f5e9" fill-opacity="0.5" stroke="#606060" stroke-width="1.0"/>
           <path id="arrow"
             d="M 11.500037,31.436501 C 11.940474,20.09759 22.043105,11.32322 32.158766,21.979434 L 37.068811,17.246167 C 37.068811,17.246167 37.088388,32 37.088388,32 L 22.160133,31.978069 C 22.160133,31.978069 26.997745,27.140456 26.997745,27.140456 C 18.528582,18.264221 13.291696,25.230495 11.500037,31.436501 z"
             style="fill:#404040;"/>
          </a>
         </g>
        </svg>
</svg>
