<?xml version="1.0" encoding="UTF-8" standalone="no"?>
<!DOCTYPE svg PUBLIC "-//W3C//DTD SVG 1.1//EN"
 "http://www.w3.org/Graphics/SVG/1.1/DTD/svg11.dtd">
<!-- Generated by graphviz version 2.43.0 (0)
 -->
<!-- Title: com.cliffc.aa.HM.HM2.Let.hm Pages: 1 -->
<svg width="880pt" height="242pt"
 viewBox="0.00 0.00 880.00 241.89" xmlns="http://www.w3.org/2000/svg" xmlns:xlink="http://www.w3.org/1999/xlink">
<g id="graph0" class="graph" transform="scale(1 1) rotate(0) translate(4 237.89)">
<title>com.cliffc.aa.HM.HM2.Let.hm</title>
<!-- Node1 -->
<g id="node1" class="node">
<title>Node1</title>
<g id="a_node1"><a xlink:title=" ">
<polygon fill="#bfbfbf" stroke="black" points="0,-129.5 0,-148.5 161,-148.5 161,-129.5 0,-129.5"/>
<text text-anchor="middle" x="80.5" y="-136.5" font-family="Helvetica,sans-Serif" font-size="10.00">com.cliffc.aa.HM.HM2.Let.hm</text>
</a>
</g>
</g>
<!-- Node2 -->
<g id="node2" class="node">
<title>Node2</title>
<g id="a_node2"><a xlink:href="../../d0/d3e/a00566.html#a5d0dfea7449d82d6be4e46d9f37a1d50" target="_top" xlink:title=" ">
<polygon fill="none" stroke="black" points="201.5,-148.5 201.5,-167.5 380.5,-167.5 380.5,-148.5 201.5,-148.5"/>
<text text-anchor="middle" x="291" y="-155.5" font-family="Helvetica,sans-Serif" font-size="10.00">com.cliffc.aa.HM.HM2.Syntax.hm</text>
</a>
</g>
</g>
<!-- Node1&#45;&gt;Node2 -->
<g id="edge1" class="edge">
<title>Node1&#45;&gt;Node2</title>
<path fill="none" stroke="midnightblue" d="M161.22,-146.26C171.05,-147.16 181.18,-148.08 191.25,-149"/>
<polygon fill="midnightblue" stroke="midnightblue" points="191.01,-152.49 201.29,-149.92 191.64,-145.52 191.01,-152.49"/>
</g>
<!-- Node3 -->
<g id="node3" class="node">
<title>Node3</title>
<g id="a_node3"><a xlink:href="../../da/de4/a00594.html#aeb01850493b3a1079edc8e7f45676d77" target="_top" xlink:title=" ">
<polygon fill="none" stroke="black" points="197,-110.5 197,-129.5 385,-129.5 385,-110.5 197,-110.5"/>
<text text-anchor="middle" x="291" y="-117.5" font-family="Helvetica,sans-Serif" font-size="10.00">com.cliffc.aa.HM.HM2.HMVar.union</text>
</a>
</g>
</g>
<!-- Node1&#45;&gt;Node3 -->
<g id="edge2" class="edge">
<title>Node1&#45;&gt;Node3</title>
<path fill="none" stroke="midnightblue" d="M161.22,-131.74C169.56,-130.98 178.13,-130.19 186.69,-129.41"/>
<polygon fill="midnightblue" stroke="midnightblue" points="187.08,-132.89 196.72,-128.5 186.44,-125.92 187.08,-132.89"/>
</g>
<!-- Node4 -->
<g id="node4" class="node">
<title>Node4</title>
<g id="a_node4"><a xlink:href="../../d7/db1/a00590.html#a9a17f7576b46794780f88a341d5c629a" target="_top" xlink:title=" ">
<polygon fill="none" stroke="black" points="671,-167.5 671,-186.5 858,-186.5 858,-167.5 671,-167.5"/>
<text text-anchor="middle" x="764.5" y="-174.5" font-family="Helvetica,sans-Serif" font-size="10.00">com.cliffc.aa.HM.HM2.HMType.find</text>
</a>
</g>
</g>
<!-- Node3&#45;&gt;Node4 -->
<g id="edge3" class="edge">
<title>Node3&#45;&gt;Node4</title>
<path fill="none" stroke="midnightblue" d="M368.04,-129.58C374.08,-132.08 379.83,-135.18 385,-139 411.87,-158.86 392.27,-187.94 421,-205 521.8,-264.84 669.64,-216.33 732.92,-190.54"/>
<polygon fill="midnightblue" stroke="midnightblue" points="734.45,-193.69 742.33,-186.61 731.75,-187.23 734.45,-193.69"/>
</g>
<!-- Node5 -->
<g id="node5" class="node">
<title>Node5</title>
<g id="a_node5"><a xlink:href="../../da/de4/a00594.html#a123e7c6af64796fa4632da96f72b309e" target="_top" xlink:title=" ">
<polygon fill="none" stroke="black" points="431.5,-176.5 431.5,-195.5 610.5,-195.5 610.5,-176.5 431.5,-176.5"/>
<text text-anchor="middle" x="521" y="-183.5" font-family="Helvetica,sans-Serif" font-size="10.00">com.cliffc.aa.HM.HM2.HMVar.find</text>
</a>
</g>
</g>
<!-- Node3&#45;&gt;Node5 -->
<g id="edge4" class="edge">
<title>Node3&#45;&gt;Node5</title>
<path fill="none" stroke="midnightblue" d="M358.25,-129.61C367.45,-132.06 376.62,-135.14 385,-139 403.41,-147.47 402.54,-158.64 421,-167 426.65,-169.56 432.63,-171.77 438.75,-173.69"/>
<polygon fill="midnightblue" stroke="midnightblue" points="437.86,-177.08 448.44,-176.46 439.79,-170.35 437.86,-177.08"/>
</g>
<!-- Node6 -->
<g id="node6" class="node">
<title>Node6</title>
<g id="a_node6"><a xlink:href="../../da/de4/a00594.html#a94b5dd76fed1e8a8c749f58a00c23145" target="_top" xlink:title=" ">
<polygon fill="none" stroke="black" points="440.5,-127 440.5,-157 601.5,-157 601.5,-127 440.5,-127"/>
<text text-anchor="start" x="448.5" y="-145" font-family="Helvetica,sans-Serif" font-size="10.00">com.cliffc.aa.HM.HM2.HMVar.</text>
<text text-anchor="middle" x="521" y="-134" font-family="Helvetica,sans-Serif" font-size="10.00">HMVar</text>
</a>
</g>
</g>
<!-- Node3&#45;&gt;Node6 -->
<g id="edge5" class="edge">
<title>Node3&#45;&gt;Node6</title>
<path fill="none" stroke="midnightblue" d="M385.07,-128.98C399.97,-130.42 415.37,-131.9 430.2,-133.34"/>
<polygon fill="midnightblue" stroke="midnightblue" points="430.07,-136.84 440.36,-134.32 430.75,-129.87 430.07,-136.84"/>
</g>
<!-- Node7 -->
<g id="node7" class="node">
<title>Node7</title>
<g id="a_node7"><a xlink:href="../../d0/de2/a01442.html#a086b90d9d651ac00b80a9b5caa60eb09" target="_top" xlink:title=" ">
<polygon fill="none" stroke="black" points="442,-88.5 442,-107.5 600,-107.5 600,-88.5 442,-88.5"/>
<text text-anchor="middle" x="521" y="-95.5" font-family="Helvetica,sans-Serif" font-size="10.00">com.cliffc.aa.type.Type.meet</text>
</a>
</g>
</g>
<!-- Node3&#45;&gt;Node7 -->
<g id="edge6" class="edge">
<title>Node3&#45;&gt;Node7</title>
<path fill="none" stroke="midnightblue" d="M385.07,-111.02C400.52,-109.53 416.51,-107.99 431.83,-106.51"/>
<polygon fill="midnightblue" stroke="midnightblue" points="432.18,-109.99 441.8,-105.55 431.51,-103.02 432.18,-109.99"/>
</g>
<!-- Node8 -->
<g id="node8" class="node">
<title>Node8</title>
<g id="a_node8"><a xlink:href="../../d7/db1/a00590.html#adbf34e2af356cec7f72d636b203bc881" target="_top" xlink:title=" ">
<polygon fill="none" stroke="black" points="421,-39 421,-69 621,-69 621,-39 421,-39"/>
<text text-anchor="start" x="429" y="-57" font-family="Helvetica,sans-Serif" font-size="10.00">com.cliffc.aa.HM.HM2.HMType.occurs</text>
<text text-anchor="middle" x="521" y="-46" font-family="Helvetica,sans-Serif" font-size="10.00">_in_type</text>
</a>
</g>
</g>
<!-- Node3&#45;&gt;Node8 -->
<g id="edge7" class="edge">
<title>Node3&#45;&gt;Node8</title>
<path fill="none" stroke="midnightblue" d="M320.29,-110.47C346.33,-101.82 386.08,-88.95 421,-79 429.76,-76.5 439,-74 448.17,-71.6"/>
<polygon fill="midnightblue" stroke="midnightblue" points="449.26,-74.93 458.06,-69.03 447.5,-68.15 449.26,-74.93"/>
</g>
<!-- Node11 -->
<g id="node11" class="node">
<title>Node11</title>
<g id="a_node11"><a xlink:href="../../d7/db1/a00590.html#a7869f59a4e57fbef71d345970779838e" target="_top" xlink:title=" ">
<polygon fill="none" stroke="black" points="423,-0.5 423,-19.5 619,-19.5 619,-0.5 423,-0.5"/>
<text text-anchor="middle" x="521" y="-7.5" font-family="Helvetica,sans-Serif" font-size="10.00">com.cliffc.aa.HM.HM2.HMType.union</text>
</a>
</g>
</g>
<!-- Node3&#45;&gt;Node11 -->
<g id="edge12" class="edge">
<title>Node3&#45;&gt;Node11</title>
<path fill="none" stroke="midnightblue" d="M302.42,-110.23C323.22,-91.34 372.07,-49.8 421,-29 427.17,-26.38 433.71,-24.11 440.37,-22.16"/>
<polygon fill="midnightblue" stroke="midnightblue" points="441.44,-25.5 450.18,-19.52 439.61,-18.74 441.44,-25.5"/>
</g>
<!-- Node8&#45;&gt;Node4 -->
<g id="edge8" class="edge">
<title>Node8&#45;&gt;Node4</title>
<path fill="none" stroke="midnightblue" d="M597.75,-69.07C605.81,-71.86 613.72,-75.14 621,-79 639.92,-89.02 639.84,-98.2 657,-111 683.09,-130.46 715.06,-149.71 737.13,-162.36"/>
<polygon fill="midnightblue" stroke="midnightblue" points="735.51,-165.47 745.94,-167.36 738.97,-159.38 735.51,-165.47"/>
</g>
<!-- Node9 -->
<g id="node9" class="node">
<title>Node9</title>
<g id="a_node9"><a xlink:href="../../d7/db1/a00590.html#a9febc2f6cc19cffed5d4c8f62f1ef6d4" target="_top" xlink:title=" ">
<polygon fill="none" stroke="black" points="665.5,-82.5 665.5,-101.5 863.5,-101.5 863.5,-82.5 665.5,-82.5"/>
<text text-anchor="middle" x="764.5" y="-89.5" font-family="Helvetica,sans-Serif" font-size="10.00">com.cliffc.aa.HM.HM2.HMType.is_top</text>
</a>
</g>
</g>
<!-- Node8&#45;&gt;Node9 -->
<g id="edge9" class="edge">
<title>Node8&#45;&gt;Node9</title>
<path fill="none" stroke="midnightblue" d="M617.45,-69.02C642.71,-72.99 669.52,-77.21 693.18,-80.94"/>
<polygon fill="midnightblue" stroke="midnightblue" points="692.7,-84.4 703.12,-82.5 693.78,-77.49 692.7,-84.4"/>
</g>
<!-- Node10 -->
<g id="node10" class="node">
<title>Node10</title>
<g id="a_node10"><a xlink:href="../../d7/db1/a00590.html#af15a1fd9cc5bd94c9d29a1eb59922965" target="_top" xlink:title=" ">
<polygon fill="none" stroke="black" points="657,-44.5 657,-63.5 872,-63.5 872,-44.5 657,-44.5"/>
<text text-anchor="middle" x="764.5" y="-51.5" font-family="Helvetica,sans-Serif" font-size="10.00">com.cliffc.aa.HM.HM2.HMType.occurs_in</text>
</a>
</g>
</g>
<!-- Node8&#45;&gt;Node10 -->
<g id="edge10" class="edge">
<title>Node8&#45;&gt;Node10</title>
<path fill="none" stroke="midnightblue" d="M621.27,-47.35C629.6,-47.27 638.06,-47.24 646.5,-47.25"/>
<polygon fill="midnightblue" stroke="midnightblue" points="646.76,-50.75 656.77,-47.29 646.79,-43.75 646.76,-50.75"/>
</g>
<!-- Node10&#45;&gt;Node8 -->
<g id="edge11" class="edge">
<title>Node10&#45;&gt;Node8</title>
<path fill="none" stroke="midnightblue" d="M656.77,-60.71C648.38,-60.76 639.9,-60.76 631.49,-60.72"/>
<polygon fill="midnightblue" stroke="midnightblue" points="631.3,-57.22 621.27,-60.65 631.25,-64.22 631.3,-57.22"/>
</g>
</g>
</svg>
