<?xml version="1.0" encoding="UTF-8" standalone="no"?>
<!DOCTYPE svg PUBLIC "-//W3C//DTD SVG 1.1//EN"
 "http://www.w3.org/Graphics/SVG/1.1/DTD/svg11.dtd">
<!-- Generated by graphviz version 2.43.0 (0)
 -->
<!-- Title: com.cliffc.aa.type.TypeRPC.must_nil Pages: 1 -->
<svg width="614pt" height="78pt"
 viewBox="0.00 0.00 614.00 77.50" xmlns="http://www.w3.org/2000/svg" xmlns:xlink="http://www.w3.org/1999/xlink">
<g id="graph0" class="graph" transform="scale(1 1) rotate(0) translate(4 73.5)">
<title>com.cliffc.aa.type.TypeRPC.must_nil</title>
<!-- Node1 -->
<g id="node1" class="node">
<title>Node1</title>
<g id="a_node1"><a xlink:title=" ">
<polygon fill="#bfbfbf" stroke="black" points="0,-22.5 0,-41.5 194,-41.5 194,-22.5 0,-22.5"/>
<text text-anchor="middle" x="97" y="-29.5" font-family="Helvetica,sans-Serif" font-size="10.00">com.cliffc.aa.type.TypeRPC.must_nil</text>
</a>
</g>
</g>
<!-- Node2 -->
<g id="node2" class="node">
<title>Node2</title>
<g id="a_node2"><a xlink:href="../../db/d57/a01506.html#a4ca5ea88237b6c8a01ff805983061a71" target="_top" xlink:title=" ">
<polygon fill="none" stroke="black" points="230,-39 230,-69 412,-69 412,-39 230,-39"/>
<text text-anchor="start" x="238" y="-57" font-family="Helvetica,sans-Serif" font-size="10.00">com.cliffc.aa.type.TypeRPC.above</text>
<text text-anchor="middle" x="321" y="-46" font-family="Helvetica,sans-Serif" font-size="10.00">_center</text>
</a>
</g>
</g>
<!-- Node1&#45;&gt;Node2 -->
<g id="edge1" class="edge">
<title>Node1&#45;&gt;Node2</title>
<path fill="none" stroke="midnightblue" d="M194.08,-41.52C202.59,-42.36 211.21,-43.22 219.75,-44.07"/>
<polygon fill="midnightblue" stroke="midnightblue" points="219.43,-47.55 229.73,-45.05 220.12,-40.58 219.43,-47.55"/>
</g>
<!-- Node4 -->
<g id="node4" class="node">
<title>Node4</title>
<g id="a_node4"><a xlink:href="../../d4/d3c/a01418.html#a465d6b8071232dd55e5c39a056674488" target="_top" xlink:title=" ">
<polygon fill="none" stroke="black" points="247.5,-0.5 247.5,-19.5 394.5,-19.5 394.5,-0.5 247.5,-0.5"/>
<text text-anchor="middle" x="321" y="-7.5" font-family="Helvetica,sans-Serif" font-size="10.00">com.cliffc.aa.type.Bits.test</text>
</a>
</g>
</g>
<!-- Node1&#45;&gt;Node4 -->
<g id="edge3" class="edge">
<title>Node1&#45;&gt;Node4</title>
<path fill="none" stroke="midnightblue" d="M194.08,-22.48C208.41,-21.06 223.09,-19.6 237.11,-18.21"/>
<polygon fill="midnightblue" stroke="midnightblue" points="237.6,-21.68 247.2,-17.21 236.91,-14.72 237.6,-21.68"/>
</g>
<!-- Node3 -->
<g id="node3" class="node">
<title>Node3</title>
<g id="a_node3"><a xlink:href="../../d4/d3c/a01418.html#a70c111ff3805fbcfddf9a530ac61a6bd" target="_top" xlink:title=" ">
<polygon fill="none" stroke="black" points="448,-39 448,-69 606,-69 606,-39 448,-39"/>
<text text-anchor="start" x="456" y="-57" font-family="Helvetica,sans-Serif" font-size="10.00">com.cliffc.aa.type.Bits.above</text>
<text text-anchor="middle" x="527" y="-46" font-family="Helvetica,sans-Serif" font-size="10.00">_center</text>
</a>
</g>
</g>
<!-- Node2&#45;&gt;Node3 -->
<g id="edge2" class="edge">
<title>Node2&#45;&gt;Node3</title>
<path fill="none" stroke="midnightblue" d="M412.07,-54C420.57,-54 429.18,-54 437.66,-54"/>
<polygon fill="midnightblue" stroke="midnightblue" points="437.93,-57.5 447.93,-54 437.93,-50.5 437.93,-57.5"/>
</g>
</g>
</svg>
