<?xml version="1.0" encoding="UTF-8" standalone="no"?>
<!DOCTYPE svg PUBLIC "-//W3C//DTD SVG 1.1//EN"
 "http://www.w3.org/Graphics/SVG/1.1/DTD/svg11.dtd">
<!-- Generated by graphviz version 2.43.0 (0)
 -->
<!-- Title: com.cliffc.aa.node.ParmNode.ideal_reduce Pages: 1 -->
<svg width="590pt" height="104pt"
 viewBox="0.00 0.00 590.00 104.00" xmlns="http://www.w3.org/2000/svg" xmlns:xlink="http://www.w3.org/1999/xlink">
<g id="graph0" class="graph" transform="scale(1 1) rotate(0) translate(4 100)">
<title>com.cliffc.aa.node.ParmNode.ideal_reduce</title>
<!-- Node1 -->
<g id="node1" class="node">
<title>Node1</title>
<g id="a_node1"><a xlink:title=" ">
<polygon fill="#bfbfbf" stroke="black" points="0,-33 0,-63 186,-63 186,-33 0,-33"/>
<text text-anchor="start" x="8" y="-51" font-family="Helvetica,sans-Serif" font-size="10.00">com.cliffc.aa.node.ParmNode.ideal</text>
<text text-anchor="middle" x="93" y="-40" font-family="Helvetica,sans-Serif" font-size="10.00">_reduce</text>
</a>
</g>
</g>
<!-- Node2 -->
<g id="node2" class="node">
<title>Node2</title>
<g id="a_node2"><a xlink:href="../../d3/dc7/a01170.html#abd09f8f921cc6377691dc7a395c64e0a" target="_top" xlink:title=" ">
<polygon fill="none" stroke="black" points="222,-76.5 222,-95.5 400,-95.5 400,-76.5 222,-76.5"/>
<text text-anchor="middle" x="311" y="-83.5" font-family="Helvetica,sans-Serif" font-size="10.00">com.cliffc.aa.node.ParmNode.fun</text>
</a>
</g>
</g>
<!-- Node1&#45;&gt;Node2 -->
<g id="edge1" class="edge">
<title>Node1&#45;&gt;Node2</title>
<path fill="none" stroke="midnightblue" d="M179.37,-63.02C201.56,-66.92 225.09,-71.06 245.97,-74.74"/>
<polygon fill="midnightblue" stroke="midnightblue" points="245.54,-78.21 255.99,-76.5 246.75,-71.32 245.54,-78.21"/>
</g>
<!-- Node3 -->
<g id="node3" class="node">
<title>Node3</title>
<g id="a_node3"><a xlink:href="../../df/db5/a01158.html#a9a46cea187559f94192aa6e09b91c60c" target="_top" xlink:title=" ">
<polygon fill="none" stroke="black" points="436,-57.5 436,-76.5 582,-76.5 582,-57.5 436,-57.5"/>
<text text-anchor="middle" x="509" y="-64.5" font-family="Helvetica,sans-Serif" font-size="10.00">com.cliffc.aa.node.Node.in</text>
</a>
</g>
</g>
<!-- Node1&#45;&gt;Node3 -->
<g id="edge3" class="edge">
<title>Node1&#45;&gt;Node3</title>
<path fill="none" stroke="midnightblue" d="M186.14,-52.23C257.75,-55.52 356.21,-60.03 425.31,-63.2"/>
<polygon fill="midnightblue" stroke="midnightblue" points="425.56,-66.72 435.71,-63.68 425.88,-59.73 425.56,-66.72"/>
</g>
<!-- Node4 -->
<g id="node4" class="node">
<title>Node4</title>
<g id="a_node4"><a xlink:href="../../df/db5/a01158.html#a634afaa0042a1f6467b395b9dfcf0636" target="_top" xlink:title=" ">
<polygon fill="none" stroke="black" points="224,-0.5 224,-19.5 398,-19.5 398,-0.5 224,-0.5"/>
<text text-anchor="middle" x="311" y="-7.5" font-family="Helvetica,sans-Serif" font-size="10.00">com.cliffc.aa.node.Node.is_copy</text>
</a>
</g>
</g>
<!-- Node1&#45;&gt;Node4 -->
<g id="edge4" class="edge">
<title>Node1&#45;&gt;Node4</title>
<path fill="none" stroke="midnightblue" d="M179.37,-32.98C201.56,-29.08 225.09,-24.94 245.97,-21.26"/>
<polygon fill="midnightblue" stroke="midnightblue" points="246.75,-24.68 255.99,-19.5 245.54,-17.79 246.75,-24.68"/>
</g>
<!-- Node2&#45;&gt;Node3 -->
<g id="edge2" class="edge">
<title>Node2&#45;&gt;Node3</title>
<path fill="none" stroke="midnightblue" d="M400.25,-77.44C408.7,-76.63 417.25,-75.8 425.65,-74.98"/>
<polygon fill="midnightblue" stroke="midnightblue" points="426.17,-78.45 435.79,-74 425.5,-71.48 426.17,-78.45"/>
</g>
</g>
</svg>
