<?xml version="1.0" encoding="UTF-8" standalone="no"?>
<!DOCTYPE svg PUBLIC "-//W3C//DTD SVG 1.1//EN"
 "http://www.w3.org/Graphics/SVG/1.1/DTD/svg11.dtd">
<!-- Generated by graphviz version 2.43.0 (0)
 -->
<!-- Title: com.cliffc.aa.HM.HM1.HMVar.union Pages: 1 -->
<svg width="683pt" height="227pt"
 viewBox="0.00 0.00 683.00 227.36" xmlns="http://www.w3.org/2000/svg" xmlns:xlink="http://www.w3.org/1999/xlink">
<g id="graph0" class="graph" transform="scale(1 1) rotate(0) translate(4 223.36)">
<title>com.cliffc.aa.HM.HM1.HMVar.union</title>
<!-- Node1 -->
<g id="node1" class="node">
<title>Node1</title>
<g id="a_node1"><a xlink:title=" ">
<polygon fill="#bfbfbf" stroke="black" points="0,-110.5 0,-129.5 188,-129.5 188,-110.5 0,-110.5"/>
<text text-anchor="middle" x="94" y="-117.5" font-family="Helvetica,sans-Serif" font-size="10.00">com.cliffc.aa.HM.HM1.HMVar.union</text>
</a>
</g>
</g>
<!-- Node2 -->
<g id="node2" class="node">
<title>Node2</title>
<g id="a_node2"><a xlink:href="../../de/de7/a00550.html#ab7fc971e10019db9b20e0673e8af5dbe" target="_top" xlink:title=" ">
<polygon fill="none" stroke="black" points="474,-167.5 474,-186.5 661,-186.5 661,-167.5 474,-167.5"/>
<text text-anchor="middle" x="567.5" y="-174.5" font-family="Helvetica,sans-Serif" font-size="10.00">com.cliffc.aa.HM.HM1.HMType.find</text>
</a>
</g>
</g>
<!-- Node1&#45;&gt;Node2 -->
<g id="edge1" class="edge">
<title>Node1&#45;&gt;Node2</title>
<path fill="none" stroke="midnightblue" d="M104.95,-129.62C125.28,-148.52 173.9,-189.98 224,-205 330.05,-236.8 462.32,-207.78 527.08,-189.41"/>
<polygon fill="midnightblue" stroke="midnightblue" points="528.25,-192.72 536.87,-186.57 526.29,-185.99 528.25,-192.72"/>
</g>
<!-- Node3 -->
<g id="node3" class="node">
<title>Node3</title>
<g id="a_node3"><a xlink:href="../../dc/df9/a00554.html#a07ec7274f3a0a9fcc09e1488f108425e" target="_top" xlink:title=" ">
<polygon fill="none" stroke="black" points="234.5,-176.5 234.5,-195.5 413.5,-195.5 413.5,-176.5 234.5,-176.5"/>
<text text-anchor="middle" x="324" y="-183.5" font-family="Helvetica,sans-Serif" font-size="10.00">com.cliffc.aa.HM.HM1.HMVar.find</text>
</a>
</g>
</g>
<!-- Node1&#45;&gt;Node3 -->
<g id="edge2" class="edge">
<title>Node1&#45;&gt;Node3</title>
<path fill="none" stroke="midnightblue" d="M117.94,-129.62C143.46,-140.03 186.09,-156.53 224,-167 233.97,-169.75 244.62,-172.25 255.09,-174.46"/>
<polygon fill="midnightblue" stroke="midnightblue" points="254.56,-177.92 265.06,-176.49 255.96,-171.06 254.56,-177.92"/>
</g>
<!-- Node4 -->
<g id="node4" class="node">
<title>Node4</title>
<g id="a_node4"><a xlink:href="../../dc/df9/a00554.html#a9fac6e128c7f74d6d207018e84beab89" target="_top" xlink:title=" ">
<polygon fill="none" stroke="black" points="243.5,-127 243.5,-157 404.5,-157 404.5,-127 243.5,-127"/>
<text text-anchor="start" x="251.5" y="-145" font-family="Helvetica,sans-Serif" font-size="10.00">com.cliffc.aa.HM.HM1.HMVar.</text>
<text text-anchor="middle" x="324" y="-134" font-family="Helvetica,sans-Serif" font-size="10.00">HMVar</text>
</a>
</g>
</g>
<!-- Node1&#45;&gt;Node4 -->
<g id="edge3" class="edge">
<title>Node1&#45;&gt;Node4</title>
<path fill="none" stroke="midnightblue" d="M188.07,-128.98C202.97,-130.42 218.37,-131.9 233.2,-133.34"/>
<polygon fill="midnightblue" stroke="midnightblue" points="233.07,-136.84 243.36,-134.32 233.75,-129.87 233.07,-136.84"/>
</g>
<!-- Node5 -->
<g id="node5" class="node">
<title>Node5</title>
<g id="a_node5"><a xlink:href="../../d0/de2/a01442.html#a086b90d9d651ac00b80a9b5caa60eb09" target="_top" xlink:title=" ">
<polygon fill="none" stroke="black" points="245,-88.5 245,-107.5 403,-107.5 403,-88.5 245,-88.5"/>
<text text-anchor="middle" x="324" y="-95.5" font-family="Helvetica,sans-Serif" font-size="10.00">com.cliffc.aa.type.Type.meet</text>
</a>
</g>
</g>
<!-- Node1&#45;&gt;Node5 -->
<g id="edge4" class="edge">
<title>Node1&#45;&gt;Node5</title>
<path fill="none" stroke="midnightblue" d="M188.07,-111.02C203.52,-109.53 219.51,-107.99 234.83,-106.51"/>
<polygon fill="midnightblue" stroke="midnightblue" points="235.18,-109.99 244.8,-105.55 234.51,-103.02 235.18,-109.99"/>
</g>
<!-- Node6 -->
<g id="node6" class="node">
<title>Node6</title>
<g id="a_node6"><a xlink:href="../../de/de7/a00550.html#abdc447bc2053d2c35df4471b8f3d0cd7" target="_top" xlink:title=" ">
<polygon fill="none" stroke="black" points="224,-39 224,-69 424,-69 424,-39 224,-39"/>
<text text-anchor="start" x="232" y="-57" font-family="Helvetica,sans-Serif" font-size="10.00">com.cliffc.aa.HM.HM1.HMType.occurs</text>
<text text-anchor="middle" x="324" y="-46" font-family="Helvetica,sans-Serif" font-size="10.00">_in_type</text>
</a>
</g>
</g>
<!-- Node1&#45;&gt;Node6 -->
<g id="edge5" class="edge">
<title>Node1&#45;&gt;Node6</title>
<path fill="none" stroke="midnightblue" d="M123.29,-110.47C149.33,-101.82 189.08,-88.95 224,-79 232.76,-76.5 242,-74 251.17,-71.6"/>
<polygon fill="midnightblue" stroke="midnightblue" points="252.26,-74.93 261.06,-69.03 250.5,-68.15 252.26,-74.93"/>
</g>
<!-- Node9 -->
<g id="node9" class="node">
<title>Node9</title>
<g id="a_node9"><a xlink:href="../../de/de7/a00550.html#a58d37f512cdec58eae138bcf5516c208" target="_top" xlink:title=" ">
<polygon fill="none" stroke="black" points="226,-0.5 226,-19.5 422,-19.5 422,-0.5 226,-0.5"/>
<text text-anchor="middle" x="324" y="-7.5" font-family="Helvetica,sans-Serif" font-size="10.00">com.cliffc.aa.HM.HM1.HMType.union</text>
</a>
</g>
</g>
<!-- Node1&#45;&gt;Node9 -->
<g id="edge10" class="edge">
<title>Node1&#45;&gt;Node9</title>
<path fill="none" stroke="midnightblue" d="M105.42,-110.23C126.22,-91.34 175.07,-49.8 224,-29 230.17,-26.38 236.71,-24.11 243.37,-22.16"/>
<polygon fill="midnightblue" stroke="midnightblue" points="244.44,-25.5 253.18,-19.52 242.61,-18.74 244.44,-25.5"/>
</g>
<!-- Node6&#45;&gt;Node2 -->
<g id="edge6" class="edge">
<title>Node6&#45;&gt;Node2</title>
<path fill="none" stroke="midnightblue" d="M400.75,-69.07C408.81,-71.86 416.72,-75.14 424,-79 442.92,-89.02 442.84,-98.2 460,-111 486.09,-130.46 518.06,-149.71 540.13,-162.36"/>
<polygon fill="midnightblue" stroke="midnightblue" points="538.51,-165.47 548.94,-167.36 541.97,-159.38 538.51,-165.47"/>
</g>
<!-- Node7 -->
<g id="node7" class="node">
<title>Node7</title>
<g id="a_node7"><a xlink:href="../../de/de7/a00550.html#aee929ac1ca2d3c9ddf06649503acb289" target="_top" xlink:title=" ">
<polygon fill="none" stroke="black" points="468.5,-82.5 468.5,-101.5 666.5,-101.5 666.5,-82.5 468.5,-82.5"/>
<text text-anchor="middle" x="567.5" y="-89.5" font-family="Helvetica,sans-Serif" font-size="10.00">com.cliffc.aa.HM.HM1.HMType.is_top</text>
</a>
</g>
</g>
<!-- Node6&#45;&gt;Node7 -->
<g id="edge7" class="edge">
<title>Node6&#45;&gt;Node7</title>
<path fill="none" stroke="midnightblue" d="M420.45,-69.02C445.71,-72.99 472.52,-77.21 496.18,-80.94"/>
<polygon fill="midnightblue" stroke="midnightblue" points="495.7,-84.4 506.12,-82.5 496.78,-77.49 495.7,-84.4"/>
</g>
<!-- Node8 -->
<g id="node8" class="node">
<title>Node8</title>
<g id="a_node8"><a xlink:href="../../de/de7/a00550.html#ab6c09fcdc5e955d56e2c796458467ae6" target="_top" xlink:title=" ">
<polygon fill="none" stroke="black" points="460,-44.5 460,-63.5 675,-63.5 675,-44.5 460,-44.5"/>
<text text-anchor="middle" x="567.5" y="-51.5" font-family="Helvetica,sans-Serif" font-size="10.00">com.cliffc.aa.HM.HM1.HMType.occurs_in</text>
</a>
</g>
</g>
<!-- Node6&#45;&gt;Node8 -->
<g id="edge8" class="edge">
<title>Node6&#45;&gt;Node8</title>
<path fill="none" stroke="midnightblue" d="M424.27,-47.35C432.6,-47.27 441.06,-47.24 449.5,-47.25"/>
<polygon fill="midnightblue" stroke="midnightblue" points="449.76,-50.75 459.77,-47.29 449.79,-43.75 449.76,-50.75"/>
</g>
<!-- Node8&#45;&gt;Node6 -->
<g id="edge9" class="edge">
<title>Node8&#45;&gt;Node6</title>
<path fill="none" stroke="midnightblue" d="M459.77,-60.71C451.38,-60.76 442.9,-60.76 434.49,-60.72"/>
<polygon fill="midnightblue" stroke="midnightblue" points="434.3,-57.22 424.27,-60.65 434.25,-64.22 434.3,-57.22"/>
</g>
</g>
</svg>
