<?xml version="1.0" encoding="UTF-8" standalone="no"?>
<!DOCTYPE svg PUBLIC "-//W3C//DTD SVG 1.1//EN"
 "http://www.w3.org/Graphics/SVG/1.1/DTD/svg11.dtd">
<!-- Generated by graphviz version 2.43.0 (0)
 -->
<!-- Title: com.cliffc.aa.type.TypeObj&lt; O extends TypeObj&lt; O &gt; Pages: 1 -->
<svg width="1256pt" height="559pt"
 viewBox="0.00 0.00 1256.00 559.00" xmlns="http://www.w3.org/2000/svg" xmlns:xlink="http://www.w3.org/1999/xlink">
<g id="graph0" class="graph" transform="scale(1 1) rotate(0) translate(4 555)">
<title>com.cliffc.aa.type.TypeObj&lt; O extends TypeObj&lt; O &gt;</title>
<!-- Node1 -->
<g id="node1" class="node">
<title>Node1</title>
<g id="a_node1"><a xlink:title=" ">
<polygon fill="#bfbfbf" stroke="black" points="1099,-179 1099,-209 1248,-209 1248,-179 1099,-179"/>
<text text-anchor="start" x="1107" y="-197" font-family="Helvetica,sans-Serif" font-size="10.00">com.cliffc.aa.type.TypeObj</text>
<text text-anchor="middle" x="1173.5" y="-186" font-family="Helvetica,sans-Serif" font-size="10.00">&lt; O extends TypeObj&lt; O &gt;</text>
</a>
</g>
</g>
<!-- Node1&#45;&gt;Node1 -->
<g id="edge21" class="edge">
<title>Node1&#45;&gt;Node1</title>
<path fill="none" stroke="#9a32cd" stroke-dasharray="5,2" d="M1155.02,-219.46C1157.31,-224.18 1163.47,-227.5 1173.5,-227.5 1189.95,-227.5 1195.99,-218.56 1191.62,-209.16"/>
<polygon fill="#9a32cd" stroke="#9a32cd" points="1158.53,-219.27 1155.38,-209.16 1151.53,-219.03 1158.53,-219.27"/>
<text text-anchor="middle" x="1173.5" y="-274.5" font-family="Helvetica,sans-Serif" font-size="10.00"> OBJ</text>
<text text-anchor="middle" x="1173.5" y="-263.5" font-family="Helvetica,sans-Serif" font-size="10.00">TYPES</text>
<text text-anchor="middle" x="1173.5" y="-252.5" font-family="Helvetica,sans-Serif" font-size="10.00">UNUSED</text>
<text text-anchor="middle" x="1173.5" y="-241.5" font-family="Helvetica,sans-Serif" font-size="10.00">ISUSED</text>
<text text-anchor="middle" x="1173.5" y="-230.5" font-family="Helvetica,sans-Serif" font-size="10.00">XOBJ</text>
</g>
<!-- Node2 -->
<g id="node2" class="node">
<title>Node2</title>
<g id="a_node2"><a xlink:href="../../d0/de2/a01442.html" target="_top" xlink:title=" ">
<polygon fill="none" stroke="black" points="878,-222.5 878,-241.5 1037,-241.5 1037,-222.5 878,-222.5"/>
<text text-anchor="middle" x="957.5" y="-229.5" font-family="Helvetica,sans-Serif" font-size="10.00">com.cliffc.aa.type.Type&lt; O &gt;</text>
</a>
</g>
</g>
<!-- Node2&#45;&gt;Node1 -->
<g id="edge1" class="edge">
<title>Node2&#45;&gt;Node1</title>
<path fill="none" stroke="midnightblue" d="M1047.14,-222.47C1058.57,-220.86 1070.08,-219.03 1081,-217 1092.76,-214.81 1105.25,-212 1117.1,-209.1"/>
<polygon fill="midnightblue" stroke="midnightblue" points="1046.58,-219.02 1037.14,-223.84 1047.52,-225.95 1046.58,-219.02"/>
</g>
<!-- Node3 -->
<g id="node3" class="node">
<title>Node3</title>
<g id="a_node3"><a xlink:href="../../d0/de2/a01442.html" target="_top" xlink:title="an implementation of language AA">
<polygon fill="none" stroke="black" points="676,-217 676,-247 806,-247 806,-217 676,-217"/>
<text text-anchor="start" x="684" y="-235" font-family="Helvetica,sans-Serif" font-size="10.00">com.cliffc.aa.type.Type</text>
<text text-anchor="middle" x="741" y="-224" font-family="Helvetica,sans-Serif" font-size="10.00">&lt; T extends Type&lt; T &gt;</text>
</a>
</g>
</g>
<!-- Node3&#45;&gt;Node2 -->
<g id="edge2" class="edge">
<title>Node3&#45;&gt;Node2</title>
<path fill="none" stroke="orange" stroke-dasharray="5,2" d="M816.31,-232C836.23,-232 857.83,-232 877.97,-232"/>
<polygon fill="orange" stroke="orange" points="816.07,-228.5 806.07,-232 816.07,-235.5 816.07,-228.5"/>
<text text-anchor="middle" x="842" y="-235" font-family="Helvetica,sans-Serif" font-size="10.00"> &lt; O &gt;</text>
</g>
<!-- Node3&#45;&gt;Node3 -->
<g id="edge18" class="edge">
<title>Node3&#45;&gt;Node3</title>
<path fill="none" stroke="#9a32cd" stroke-dasharray="5,2" d="M723.23,-257.46C725.44,-262.18 731.36,-265.5 741,-265.5 756.82,-265.5 762.63,-256.56 758.43,-247.16"/>
<polygon fill="#9a32cd" stroke="#9a32cd" points="726.74,-257.27 723.57,-247.16 719.74,-257.04 726.74,-257.27"/>
<text text-anchor="middle" x="741" y="-378.5" font-family="Helvetica,sans-Serif" font-size="10.00"> XREAL</text>
<text text-anchor="middle" x="741" y="-367.5" font-family="Helvetica,sans-Serif" font-size="10.00">TYPES</text>
<text text-anchor="middle" x="741" y="-356.5" font-family="Helvetica,sans-Serif" font-size="10.00">XNREAL</text>
<text text-anchor="middle" x="741" y="-345.5" font-family="Helvetica,sans-Serif" font-size="10.00">XSCALAR</text>
<text text-anchor="middle" x="741" y="-334.5" font-family="Helvetica,sans-Serif" font-size="10.00">NREAL</text>
<text text-anchor="middle" x="741" y="-323.5" font-family="Helvetica,sans-Serif" font-size="10.00">ANY</text>
<text text-anchor="middle" x="741" y="-312.5" font-family="Helvetica,sans-Serif" font-size="10.00">NSCALR</text>
<text text-anchor="middle" x="741" y="-301.5" font-family="Helvetica,sans-Serif" font-size="10.00">XNIL</text>
<text text-anchor="middle" x="741" y="-290.5" font-family="Helvetica,sans-Serif" font-size="10.00">CTRL</text>
<text text-anchor="middle" x="741" y="-279.5" font-family="Helvetica,sans-Serif" font-size="10.00">SCALAR</text>
<text text-anchor="middle" x="741" y="-268.5" font-family="Helvetica,sans-Serif" font-size="10.00">...</text>
</g>
<!-- Node11 -->
<g id="node11" class="node">
<title>Node11</title>
<g id="a_node11"><a xlink:href="../../d8/d22/a01446.html" target="_top" xlink:title=" ">
<polygon fill="none" stroke="black" points="880.5,-383 880.5,-413 1034.5,-413 1034.5,-383 880.5,-383"/>
<text text-anchor="start" x="888.5" y="-401" font-family="Helvetica,sans-Serif" font-size="10.00">com.cliffc.aa.type.Type</text>
<text text-anchor="middle" x="957.5" y="-390" font-family="Helvetica,sans-Serif" font-size="10.00">&lt; T extends Type&lt; T &gt;.Pool</text>
</a>
</g>
</g>
<!-- Node3&#45;&gt;Node11 -->
<g id="edge13" class="edge">
<title>Node3&#45;&gt;Node11</title>
<path fill="none" stroke="#9a32cd" stroke-dasharray="5,2" d="M790.34,-251.22C812.67,-261.31 838.87,-274.92 860,-291 896.04,-318.41 929.35,-360.55 945.78,-382.89"/>
<polygon fill="#9a32cd" stroke="#9a32cd" points="791.59,-247.95 781.03,-247.12 788.76,-254.35 791.59,-247.95"/>
<text text-anchor="middle" x="842" y="-294" font-family="Helvetica,sans-Serif" font-size="10.00"> _gold</text>
</g>
<!-- Node4 -->
<g id="node4" class="node">
<title>Node4</title>
<g id="a_node4"><a xlink:href="../../d9/d76/a02526.html" target="_top" xlink:title=" ">
<polygon fill="none" stroke="black" points="475.5,-241.5 475.5,-260.5 540.5,-260.5 540.5,-241.5 475.5,-241.5"/>
<text text-anchor="middle" x="508" y="-248.5" font-family="Helvetica,sans-Serif" font-size="10.00">Cloneable</text>
</a>
</g>
</g>
<!-- Node4&#45;&gt;Node3 -->
<g id="edge3" class="edge">
<title>Node4&#45;&gt;Node3</title>
<path fill="none" stroke="midnightblue" d="M550.91,-247.55C585.7,-244.69 635.74,-240.58 675.61,-237.3"/>
<polygon fill="midnightblue" stroke="midnightblue" points="550.31,-244.09 540.64,-248.4 550.89,-251.07 550.31,-244.09"/>
</g>
<!-- Node5 -->
<g id="node5" class="node">
<title>Node5</title>
<g id="a_node5"><a xlink:href="../../d6/d02/a01542.html" target="_top" xlink:title=" ">
<polygon fill="none" stroke="black" points="432,-374 432,-404 584,-404 584,-374 432,-374"/>
<text text-anchor="start" x="440" y="-392" font-family="Helvetica,sans-Serif" font-size="10.00">com.cliffc.aa.util.Ary</text>
<text text-anchor="middle" x="508" y="-381" font-family="Helvetica,sans-Serif" font-size="10.00">&lt; com.cliffc.aa.type.Type &gt;</text>
</a>
</g>
</g>
<!-- Node5&#45;&gt;Node3 -->
<g id="edge4" class="edge">
<title>Node5&#45;&gt;Node3</title>
<path fill="none" stroke="#9a32cd" stroke-dasharray="5,2" d="M560.19,-370.07C590.18,-357.68 627.95,-339.77 658,-318 686.57,-297.3 713.56,-265.88 728.33,-247.3"/>
<polygon fill="#9a32cd" stroke="#9a32cd" points="558.7,-366.89 550.74,-373.89 561.32,-373.38 558.7,-366.89"/>
<text text-anchor="middle" x="630" y="-354" font-family="Helvetica,sans-Serif" font-size="10.00"> ALL_TYPES</text>
</g>
<!-- Node5&#45;&gt;Node11 -->
<g id="edge11" class="edge">
<title>Node5&#45;&gt;Node11</title>
<path fill="none" stroke="#9a32cd" stroke-dasharray="5,2" d="M594.48,-393.16C620.63,-394.27 649.49,-395.35 676,-396 745.13,-397.69 823.87,-398.12 880.3,-398.17"/>
<polygon fill="#9a32cd" stroke="#9a32cd" points="594.36,-389.65 584.22,-392.71 594.05,-396.64 594.36,-389.65"/>
<text text-anchor="middle" x="741" y="-400" font-family="Helvetica,sans-Serif" font-size="10.00"> _frees</text>
</g>
<!-- Node6 -->
<g id="node6" class="node">
<title>Node6</title>
<g id="a_node6"><a xlink:href="../../d6/d02/a01542.html" target="_top" xlink:title=" ">
<polygon fill="none" stroke="black" points="143,-379.5 143,-398.5 289,-398.5 289,-379.5 143,-379.5"/>
<text text-anchor="middle" x="216" y="-386.5" font-family="Helvetica,sans-Serif" font-size="10.00">com.cliffc.aa.util.Ary&lt; E &gt;</text>
</a>
</g>
</g>
<!-- Node6&#45;&gt;Node5 -->
<g id="edge5" class="edge">
<title>Node6&#45;&gt;Node5</title>
<path fill="none" stroke="orange" stroke-dasharray="5,2" d="M299.18,-389C340.86,-389 391.12,-389 431.77,-389"/>
<polygon fill="orange" stroke="orange" points="299.06,-385.5 289.06,-389 299.06,-392.5 299.06,-385.5"/>
<text text-anchor="start" x="316" y="-403" font-family="Helvetica,sans-Serif" font-size="10.00"> &lt; com::cliffc::aa::</text>
<text text-anchor="middle" x="360.5" y="-392" font-family="Helvetica,sans-Serif" font-size="10.00">type::Type &gt;</text>
</g>
<!-- Node7 -->
<g id="node7" class="node">
<title>Node7</title>
<g id="a_node7"><a xlink:href="../../dd/df4/a02510.html" target="_top" xlink:title=" ">
<polygon fill="none" stroke="black" points="0,-379.5 0,-398.5 83,-398.5 83,-379.5 0,-379.5"/>
<text text-anchor="middle" x="41.5" y="-386.5" font-family="Helvetica,sans-Serif" font-size="10.00">Iterable&lt; E &gt;</text>
</a>
</g>
</g>
<!-- Node7&#45;&gt;Node6 -->
<g id="edge6" class="edge">
<title>Node7&#45;&gt;Node6</title>
<path fill="none" stroke="midnightblue" d="M93.7,-389C109.07,-389 126.22,-389 142.68,-389"/>
<polygon fill="midnightblue" stroke="midnightblue" points="93.38,-385.5 83.38,-389 93.38,-392.5 93.38,-385.5"/>
</g>
<!-- Node8 -->
<g id="node8" class="node">
<title>Node8</title>
<g id="a_node8"><a xlink:title=" ">
<polygon fill="none" stroke="#bfbfbf" points="26.5,-341.5 26.5,-360.5 56.5,-360.5 56.5,-341.5 26.5,-341.5"/>
<text text-anchor="middle" x="41.5" y="-348.5" font-family="Helvetica,sans-Serif" font-size="10.00">E[]</text>
</a>
</g>
</g>
<!-- Node8&#45;&gt;Node6 -->
<g id="edge7" class="edge">
<title>Node8&#45;&gt;Node6</title>
<path fill="none" stroke="#9a32cd" stroke-dasharray="5,2" d="M66.43,-356.27C93.59,-362.25 138.45,-372.14 171.78,-379.48"/>
<polygon fill="#9a32cd" stroke="#9a32cd" points="67.14,-352.84 56.62,-354.11 65.63,-359.68 67.14,-352.84"/>
<text text-anchor="middle" x="113" y="-372" font-family="Helvetica,sans-Serif" font-size="10.00"> _es</text>
</g>
<!-- Node9 -->
<g id="node9" class="node">
<title>Node9</title>
<g id="a_node9"><a xlink:title=" ">
<polygon fill="none" stroke="#bfbfbf" points="27,-438.5 27,-457.5 56,-457.5 56,-438.5 27,-438.5"/>
<text text-anchor="middle" x="41.5" y="-445.5" font-family="Helvetica,sans-Serif" font-size="10.00">int</text>
</a>
</g>
</g>
<!-- Node9&#45;&gt;Node3 -->
<g id="edge17" class="edge">
<title>Node9&#45;&gt;Node3</title>
<path fill="none" stroke="#9a32cd" stroke-dasharray="5,2" d="M66.58,-448.1C158.36,-448.24 485.9,-446.41 584,-414 621.22,-401.7 630.65,-394.08 658,-366 693.97,-329.07 721.52,-273.63 733.48,-247.14"/>
<polygon fill="#9a32cd" stroke="#9a32cd" points="66.37,-444.6 56.37,-448.08 66.36,-451.6 66.37,-444.6"/>
<text text-anchor="middle" x="360.5" y="-479" font-family="Helvetica,sans-Serif" font-size="10.00"> RECURSIVE_MEET</text>
<text text-anchor="middle" x="360.5" y="-468" font-family="Helvetica,sans-Serif" font-size="10.00">_uid</text>
<text text-anchor="middle" x="360.5" y="-457" font-family="Helvetica,sans-Serif" font-size="10.00">CNT</text>
<text text-anchor="middle" x="360.5" y="-446" font-family="Helvetica,sans-Serif" font-size="10.00">_hash</text>
</g>
<!-- Node9&#45;&gt;Node6 -->
<g id="edge8" class="edge">
<title>Node9&#45;&gt;Node6</title>
<path fill="none" stroke="#9a32cd" stroke-dasharray="5,2" d="M65.69,-437.37C76.34,-432.67 89.19,-427.27 101,-423 126.83,-413.66 156.59,-404.85 179.23,-398.54"/>
<polygon fill="#9a32cd" stroke="#9a32cd" points="63.97,-434.31 56.27,-441.59 66.83,-440.69 63.97,-434.31"/>
<text text-anchor="middle" x="113" y="-426" font-family="Helvetica,sans-Serif" font-size="10.00"> _len</text>
</g>
<!-- Node9&#45;&gt;Node11 -->
<g id="edge12" class="edge">
<title>Node9&#45;&gt;Node11</title>
<path fill="none" stroke="#9a32cd" stroke-dasharray="5,2" d="M65.3,-461.2C97.53,-478.6 158.78,-507 215,-507 215,-507 215,-507 742,-507 823.87,-507 906.11,-443.11 940.17,-413.16"/>
<polygon fill="#9a32cd" stroke="#9a32cd" points="66.71,-457.98 56.26,-456.2 63.32,-464.11 66.71,-457.98"/>
<text text-anchor="middle" x="508" y="-543" font-family="Helvetica,sans-Serif" font-size="10.00"> _free</text>
<text text-anchor="middle" x="508" y="-532" font-family="Helvetica,sans-Serif" font-size="10.00">_pool</text>
<text text-anchor="middle" x="508" y="-521" font-family="Helvetica,sans-Serif" font-size="10.00">_malloc</text>
<text text-anchor="middle" x="508" y="-510" font-family="Helvetica,sans-Serif" font-size="10.00">_clone</text>
</g>
<!-- Node10 -->
<g id="node10" class="node">
<title>Node10</title>
<g id="a_node10"><a xlink:title=" ">
<polygon fill="none" stroke="#bfbfbf" points="485.5,-203.5 485.5,-222.5 530.5,-222.5 530.5,-203.5 485.5,-203.5"/>
<text text-anchor="middle" x="508" y="-210.5" font-family="Helvetica,sans-Serif" font-size="10.00">String</text>
</a>
</g>
</g>
<!-- Node10&#45;&gt;Node3 -->
<g id="edge9" class="edge">
<title>Node10&#45;&gt;Node3</title>
<path fill="none" stroke="#9a32cd" stroke-dasharray="5,2" d="M540.91,-211.29C571.16,-210.13 617.82,-209.51 658,-214 664.52,-214.73 671.28,-215.76 677.99,-216.96"/>
<polygon fill="#9a32cd" stroke="#9a32cd" points="540.39,-207.81 530.55,-211.74 540.69,-214.8 540.39,-207.81"/>
<text text-anchor="middle" x="630" y="-228" font-family="Helvetica,sans-Serif" font-size="10.00"> STRS</text>
<text text-anchor="middle" x="630" y="-217" font-family="Helvetica,sans-Serif" font-size="10.00">_name</text>
</g>
<!-- Node11&#45;&gt;Node3 -->
<g id="edge10" class="edge">
<title>Node11&#45;&gt;Node3</title>
<path fill="none" stroke="#9a32cd" stroke-dasharray="5,2" d="M924.47,-377.42C897.11,-359.45 857.06,-332.22 824,-306 799.81,-286.82 773.61,-262.49 757.5,-247.08"/>
<polygon fill="#9a32cd" stroke="#9a32cd" points="922.59,-380.37 932.88,-382.91 926.42,-374.51 922.59,-380.37"/>
<text text-anchor="middle" x="842" y="-336" font-family="Helvetica,sans-Serif" font-size="10.00"> POOLS</text>
</g>
<!-- Node12 -->
<g id="node12" class="node">
<title>Node12</title>
<g id="a_node12"><a xlink:title=" ">
<polygon fill="none" stroke="#bfbfbf" points="489,-60.5 489,-79.5 527,-79.5 527,-60.5 489,-60.5"/>
<text text-anchor="middle" x="508" y="-67.5" font-family="Helvetica,sans-Serif" font-size="10.00">byte</text>
</a>
</g>
</g>
<!-- Node12&#45;&gt;Node3 -->
<g id="edge14" class="edge">
<title>Node12&#45;&gt;Node3</title>
<path fill="none" stroke="#9a32cd" stroke-dasharray="5,2" d="M537.29,-65.79C569.3,-62.56 621.71,-62.06 658,-86 705.57,-117.37 728.36,-186.29 736.44,-216.87"/>
<polygon fill="#9a32cd" stroke="#9a32cd" points="536.79,-62.32 527.27,-66.96 537.61,-69.28 536.79,-62.32"/>
<text text-anchor="middle" x="630" y="-199" font-family="Helvetica,sans-Serif" font-size="10.00"> TMEM</text>
<text text-anchor="middle" x="630" y="-188" font-family="Helvetica,sans-Serif" font-size="10.00">TRPC</text>
<text text-anchor="middle" x="630" y="-177" font-family="Helvetica,sans-Serif" font-size="10.00">TSIMPLE</text>
<text text-anchor="middle" x="630" y="-166" font-family="Helvetica,sans-Serif" font-size="10.00">TXREAL</text>
<text text-anchor="middle" x="630" y="-155" font-family="Helvetica,sans-Serif" font-size="10.00">TSCALAR</text>
<text text-anchor="middle" x="630" y="-144" font-family="Helvetica,sans-Serif" font-size="10.00">TSTRUCT</text>
<text text-anchor="middle" x="630" y="-133" font-family="Helvetica,sans-Serif" font-size="10.00">TOBJ</text>
<text text-anchor="middle" x="630" y="-122" font-family="Helvetica,sans-Serif" font-size="10.00">_type</text>
<text text-anchor="middle" x="630" y="-111" font-family="Helvetica,sans-Serif" font-size="10.00">TARY</text>
<text text-anchor="middle" x="630" y="-100" font-family="Helvetica,sans-Serif" font-size="10.00">TTUPLE</text>
<text text-anchor="middle" x="630" y="-89" font-family="Helvetica,sans-Serif" font-size="10.00">...</text>
</g>
<!-- Node13 -->
<g id="node13" class="node">
<title>Node13</title>
<g id="a_node13"><a xlink:title=" ">
<polygon fill="none" stroke="#bfbfbf" points="436.5,-0.5 436.5,-41.5 579.5,-41.5 579.5,-0.5 436.5,-0.5"/>
<text text-anchor="start" x="444.5" y="-29.5" font-family="Helvetica,sans-Serif" font-size="10.00">ConcurrentHashMap&lt;</text>
<text text-anchor="start" x="444.5" y="-18.5" font-family="Helvetica,sans-Serif" font-size="10.00"> com.cliffc.aa.type.Type,</text>
<text text-anchor="middle" x="508" y="-7.5" font-family="Helvetica,sans-Serif" font-size="10.00"> com.cliffc.aa.type.Type &gt;</text>
</a>
</g>
</g>
<!-- Node13&#45;&gt;Node3 -->
<g id="edge15" class="edge">
<title>Node13&#45;&gt;Node3</title>
<path fill="none" stroke="#9a32cd" stroke-dasharray="5,2" d="M589.48,-23.96C613.57,-28.27 638.68,-36.56 658,-52 712.05,-95.2 731.82,-181.91 737.78,-216.87"/>
<polygon fill="#9a32cd" stroke="#9a32cd" points="590.03,-20.5 579.6,-22.4 588.93,-27.41 590.03,-20.5"/>
<text text-anchor="middle" x="630" y="-55" font-family="Helvetica,sans-Serif" font-size="10.00"> INTERN</text>
</g>
<!-- Node14 -->
<g id="node14" class="node">
<title>Node14</title>
<g id="a_node14"><a xlink:title=" ">
<polygon fill="none" stroke="#bfbfbf" points="158,-11.5 158,-30.5 274,-30.5 274,-11.5 158,-11.5"/>
<text text-anchor="middle" x="216" y="-18.5" font-family="Helvetica,sans-Serif" font-size="10.00">ConcurrentHashMap</text>
</a>
</g>
</g>
<!-- Node14&#45;&gt;Node13 -->
<g id="edge16" class="edge">
<title>Node14&#45;&gt;Node13</title>
<path fill="none" stroke="orange" stroke-dasharray="5,2" d="M284.39,-21C330.03,-21 390.21,-21 436.49,-21"/>
<polygon fill="orange" stroke="orange" points="284.29,-17.5 274.29,-21 284.29,-24.5 284.29,-17.5"/>
<text text-anchor="start" x="307" y="-46" font-family="Helvetica,sans-Serif" font-size="10.00"> &lt; com::cliffc::aa::</text>
<text text-anchor="start" x="307" y="-35" font-family="Helvetica,sans-Serif" font-size="10.00">type::Type, com::cliffc</text>
<text text-anchor="middle" x="360.5" y="-24" font-family="Helvetica,sans-Serif" font-size="10.00">::aa::type::Type &gt;</text>
</g>
<!-- Node15 -->
<g id="node15" class="node">
<title>Node15</title>
<g id="a_node15"><a xlink:title=" ">
<polygon fill="none" stroke="#bfbfbf" points="493.5,-317.5 493.5,-336.5 522.5,-336.5 522.5,-317.5 493.5,-317.5"/>
<text text-anchor="middle" x="508" y="-324.5" font-family="Helvetica,sans-Serif" font-size="10.00">T</text>
</a>
</g>
</g>
<!-- Node15&#45;&gt;Node3 -->
<g id="edge19" class="edge">
<title>Node15&#45;&gt;Node3</title>
<path fill="none" stroke="#9a32cd" stroke-dasharray="5,2" d="M532.49,-321.47C547.33,-317.87 566.86,-312.94 584,-308 617.22,-298.42 626.71,-298.71 658,-284 679.97,-273.67 703.17,-258.51 719.26,-247.22"/>
<polygon fill="#9a32cd" stroke="#9a32cd" points="531.53,-318.1 522.62,-323.83 533.16,-324.91 531.53,-318.1"/>
<text text-anchor="middle" x="630" y="-306" font-family="Helvetica,sans-Serif" font-size="10.00"> _dual</text>
</g>
<!-- Node16 -->
<g id="node16" class="node">
<title>Node16</title>
<g id="a_node16"><a xlink:href="../../d7/df2/a02322.html" target="_top" xlink:title=" ">
<polygon fill="none" stroke="black" points="480,-279.5 480,-298.5 536,-298.5 536,-279.5 480,-279.5"/>
<text text-anchor="middle" x="508" y="-286.5" font-family="Helvetica,sans-Serif" font-size="10.00">Type&lt; T</text>
</a>
</g>
</g>
<!-- Node16&#45;&gt;Node3 -->
<g id="edge20" class="edge">
<title>Node16&#45;&gt;Node3</title>
<path fill="none" stroke="orange" stroke-dasharray="5,2" d="M546.15,-281.49C576.39,-275.21 620.12,-265.73 658,-256 668.63,-253.27 679.97,-250.11 690.71,-247"/>
<polygon fill="orange" stroke="orange" points="545.13,-278.13 536.05,-283.58 546.55,-284.98 545.13,-278.13"/>
<text text-anchor="middle" x="630" y="-272" font-family="Helvetica,sans-Serif" font-size="10.00"> T</text>
</g>
<!-- Node17 -->
<g id="node17" class="node">
<title>Node17</title>
<g id="a_node17"><a xlink:title=" ">
<polygon fill="none" stroke="#bfbfbf" points="929.5,-184.5 929.5,-203.5 985.5,-203.5 985.5,-184.5 929.5,-184.5"/>
<text text-anchor="middle" x="957.5" y="-191.5" font-family="Helvetica,sans-Serif" font-size="10.00">boolean</text>
</a>
</g>
</g>
<!-- Node17&#45;&gt;Node1 -->
<g id="edge22" class="edge">
<title>Node17&#45;&gt;Node1</title>
<path fill="none" stroke="#9a32cd" stroke-dasharray="5,2" d="M995.87,-194C1024.22,-194 1064.1,-194 1098.79,-194"/>
<polygon fill="#9a32cd" stroke="#9a32cd" points="995.6,-190.5 985.6,-194 995.6,-197.5 995.6,-190.5"/>
<text text-anchor="middle" x="1068" y="-208" font-family="Helvetica,sans-Serif" font-size="10.00"> _use</text>
<text text-anchor="middle" x="1068" y="-197" font-family="Helvetica,sans-Serif" font-size="10.00">_any</text>
</g>
<!-- Node18 -->
<g id="node18" class="node">
<title>Node18</title>
<g id="a_node18"><a xlink:href="../../db/d34/a02118.html" target="_top" xlink:title=" ">
<polygon fill="none" stroke="black" points="920.5,-146.5 920.5,-165.5 994.5,-165.5 994.5,-146.5 920.5,-146.5"/>
<text text-anchor="middle" x="957.5" y="-153.5" font-family="Helvetica,sans-Serif" font-size="10.00">TypeObj&lt; O</text>
</a>
</g>
</g>
<!-- Node18&#45;&gt;Node1 -->
<g id="edge23" class="edge">
<title>Node18&#45;&gt;Node1</title>
<path fill="none" stroke="orange" stroke-dasharray="5,2" d="M1004.88,-164.24C1032.27,-169.1 1067.55,-175.36 1098.68,-180.89"/>
<polygon fill="orange" stroke="orange" points="1005.26,-160.75 994.8,-162.45 1004.04,-167.64 1005.26,-160.75"/>
<text text-anchor="middle" x="1068" y="-181" font-family="Helvetica,sans-Serif" font-size="10.00"> O</text>
</g>
</g>
</svg>
