<?xml version="1.0" encoding="UTF-8" standalone="no"?>
<!DOCTYPE svg PUBLIC "-//W3C//DTD SVG 1.1//EN"
 "http://www.w3.org/Graphics/SVG/1.1/DTD/svg11.dtd">
<!-- Generated by graphviz version 2.43.0 (0)
 -->
<!-- Title: com.cliffc.aa.HM.HM4.Con.prep_tree Pages: 1 -->
<svg width="816pt" height="78pt"
 viewBox="0.00 0.00 816.00 77.50" xmlns="http://www.w3.org/2000/svg" xmlns:xlink="http://www.w3.org/1999/xlink">
<g id="graph0" class="graph" transform="scale(1 1) rotate(0) translate(4 73.5)">
<title>com.cliffc.aa.HM.HM4.Con.prep_tree</title>
<!-- Node1 -->
<g id="node1" class="node">
<title>Node1</title>
<g id="a_node1"><a xlink:title=" ">
<polygon fill="#bfbfbf" stroke="black" points="0,-28 0,-47 195,-47 195,-28 0,-28"/>
<text text-anchor="middle" x="97.5" y="-35" font-family="Helvetica,sans-Serif" font-size="10.00">com.cliffc.aa.HM.HM4.Con.prep_tree</text>
</a>
</g>
</g>
<!-- Node2 -->
<g id="node2" class="node">
<title>Node2</title>
<g id="a_node2"><a xlink:href="../../df/d9e/a00686.html#ac0f514d3c96d7caaed064b7f7b20009c" target="_top" xlink:title=" ">
<polygon fill="none" stroke="black" points="241,-50 241,-69 406,-69 406,-50 241,-50"/>
<text text-anchor="middle" x="323.5" y="-57" font-family="Helvetica,sans-Serif" font-size="10.00">com.cliffc.aa.HM.HM4.T2.base</text>
</a>
</g>
</g>
<!-- Node1&#45;&gt;Node2 -->
<g id="edge1" class="edge">
<title>Node1&#45;&gt;Node2</title>
<path fill="none" stroke="midnightblue" d="M195.12,-46.99C206.94,-48.15 218.98,-49.33 230.72,-50.49"/>
<polygon fill="midnightblue" stroke="midnightblue" points="230.65,-54 240.95,-51.49 231.34,-47.03 230.65,-54"/>
</g>
<!-- Node5 -->
<g id="node5" class="node">
<title>Node5</title>
<g id="a_node5"><a xlink:href="../../d9/db8/a00658.html#a7091c62863779d9dac32e266468698eb" target="_top" xlink:title=" ">
<polygon fill="none" stroke="black" points="231,-0.5 231,-30.5 416,-30.5 416,-0.5 231,-0.5"/>
<text text-anchor="start" x="239" y="-18.5" font-family="Helvetica,sans-Serif" font-size="10.00">com.cliffc.aa.HM.HM4.Syntax.prep</text>
<text text-anchor="middle" x="323.5" y="-7.5" font-family="Helvetica,sans-Serif" font-size="10.00">_tree_impl</text>
</a>
</g>
</g>
<!-- Node1&#45;&gt;Node5 -->
<g id="edge4" class="edge">
<title>Node1&#45;&gt;Node5</title>
<path fill="none" stroke="midnightblue" d="M195.12,-28.01C203.63,-27.17 212.26,-26.33 220.81,-25.49"/>
<polygon fill="midnightblue" stroke="midnightblue" points="221.19,-28.97 230.8,-24.51 220.51,-22 221.19,-28.97"/>
</g>
<!-- Node3 -->
<g id="node3" class="node">
<title>Node3</title>
<g id="a_node3"><a xlink:href="../../df/d9e/a00686.html#ada79c3ddcda84c0c7763932cd4a97313" target="_top" xlink:title=" ">
<polygon fill="none" stroke="black" points="452,-50 452,-69 618,-69 618,-50 452,-50"/>
<text text-anchor="middle" x="535" y="-57" font-family="Helvetica,sans-Serif" font-size="10.00">com.cliffc.aa.HM.HM4.T2.tnew</text>
</a>
</g>
</g>
<!-- Node2&#45;&gt;Node3 -->
<g id="edge2" class="edge">
<title>Node2&#45;&gt;Node3</title>
<path fill="none" stroke="midnightblue" d="M406.1,-59.5C417.74,-59.5 429.78,-59.5 441.61,-59.5"/>
<polygon fill="midnightblue" stroke="midnightblue" points="441.94,-63 451.94,-59.5 441.94,-56 441.94,-63"/>
</g>
<!-- Node4 -->
<g id="node4" class="node">
<title>Node4</title>
<g id="a_node4"><a xlink:href="../../df/d9e/a00686.html#aabdf74cfdeefb79633b05011d50ce690" target="_top" xlink:title=" ">
<polygon fill="none" stroke="black" points="654,-50 654,-69 808,-69 808,-50 654,-50"/>
<text text-anchor="middle" x="731" y="-57" font-family="Helvetica,sans-Serif" font-size="10.00">com.cliffc.aa.HM.HM4.T2.T2</text>
</a>
</g>
</g>
<!-- Node3&#45;&gt;Node4 -->
<g id="edge3" class="edge">
<title>Node3&#45;&gt;Node4</title>
<path fill="none" stroke="midnightblue" d="M618.27,-59.5C626.64,-59.5 635.16,-59.5 643.57,-59.5"/>
<polygon fill="midnightblue" stroke="midnightblue" points="643.77,-63 653.77,-59.5 643.77,-56 643.77,-63"/>
</g>
<!-- Node6 -->
<g id="node6" class="node">
<title>Node6</title>
<g id="a_node6"><a xlink:href="../../d6/d02/a01542.html#a297ba4203dcf40a83e97c0cb53866fe7" target="_top" xlink:title="Add element in amortized constant time.">
<polygon fill="none" stroke="black" points="464,-6 464,-25 606,-25 606,-6 464,-6"/>
<text text-anchor="middle" x="535" y="-13" font-family="Helvetica,sans-Serif" font-size="10.00">com.cliffc.aa.util.Ary.push</text>
</a>
</g>
</g>
<!-- Node5&#45;&gt;Node6 -->
<g id="edge5" class="edge">
<title>Node5&#45;&gt;Node6</title>
<path fill="none" stroke="midnightblue" d="M416.08,-15.5C428.56,-15.5 441.28,-15.5 453.54,-15.5"/>
<polygon fill="midnightblue" stroke="midnightblue" points="453.71,-19 463.71,-15.5 453.71,-12 453.71,-19"/>
</g>
</g>
</svg>
