<?xml version="1.0" encoding="UTF-8" standalone="no"?>
<!DOCTYPE svg PUBLIC "-//W3C//DTD SVG 1.1//EN"
 "http://www.w3.org/Graphics/SVG/1.1/DTD/svg11.dtd">
<!-- Generated by graphviz version 2.43.0 (0)
 -->
<!-- Title: com.cliffc.aa.util.NonBlockingHashMapLong.CHM.resize Pages: 1 -->
<svg width="965pt" height="110pt"
 viewBox="0.00 0.00 965.00 110.00" xmlns="http://www.w3.org/2000/svg" xmlns:xlink="http://www.w3.org/1999/xlink">
<g id="graph0" class="graph" transform="scale(1 1) rotate(0) translate(4 106)">
<title>com.cliffc.aa.util.NonBlockingHashMapLong.CHM.resize</title>
<!-- Node1 -->
<g id="node1" class="node">
<title>Node1</title>
<g id="a_node1"><a xlink:title=" ">
<polygon fill="#bfbfbf" stroke="black" points="0,-22.5 0,-52.5 162,-52.5 162,-22.5 0,-22.5"/>
<text text-anchor="start" x="8" y="-40.5" font-family="Helvetica,sans-Serif" font-size="10.00">com.cliffc.aa.util.NonBlocking</text>
<text text-anchor="middle" x="81" y="-29.5" font-family="Helvetica,sans-Serif" font-size="10.00">HashMapLong.CHM.resize</text>
</a>
</g>
</g>
<!-- Node2 -->
<g id="node2" class="node">
<title>Node2</title>
<g id="a_node2"><a xlink:href="../../db/d7c/a01614.html#a856359efb86627135b6d146a09882066" target="_top" xlink:title=" ">
<polygon fill="none" stroke="black" points="198,-71.5 198,-101.5 379,-101.5 379,-71.5 198,-71.5"/>
<text text-anchor="start" x="206" y="-89.5" font-family="Helvetica,sans-Serif" font-size="10.00">com.cliffc.aa.util.NonBlocking</text>
<text text-anchor="middle" x="288.5" y="-78.5" font-family="Helvetica,sans-Serif" font-size="10.00">HashMapLong.CHM.CAS_newchm</text>
</a>
</g>
</g>
<!-- Node1&#45;&gt;Node2 -->
<g id="edge1" class="edge">
<title>Node1&#45;&gt;Node2</title>
<path fill="none" stroke="midnightblue" d="M145.05,-52.53C167.05,-57.78 191.91,-63.71 214.63,-69.13"/>
<polygon fill="midnightblue" stroke="midnightblue" points="214.03,-72.58 224.57,-71.49 215.65,-65.77 214.03,-72.58"/>
</g>
<!-- Node3 -->
<g id="node3" class="node">
<title>Node3</title>
<g id="a_node3"><a xlink:href="../../db/d7c/a01614.html#ae638baf110a3af5eface0498d6e59df2" target="_top" xlink:title=" ">
<polygon fill="none" stroke="black" points="207.5,-22.5 207.5,-52.5 369.5,-52.5 369.5,-22.5 207.5,-22.5"/>
<text text-anchor="start" x="215.5" y="-40.5" font-family="Helvetica,sans-Serif" font-size="10.00">com.cliffc.aa.util.NonBlocking</text>
<text text-anchor="middle" x="288.5" y="-29.5" font-family="Helvetica,sans-Serif" font-size="10.00">HashMapLong.CHM.CHM</text>
</a>
</g>
</g>
<!-- Node1&#45;&gt;Node3 -->
<g id="edge2" class="edge">
<title>Node1&#45;&gt;Node3</title>
<path fill="none" stroke="midnightblue" d="M162.04,-37.5C173.55,-37.5 185.45,-37.5 197.14,-37.5"/>
<polygon fill="midnightblue" stroke="midnightblue" points="197.34,-41 207.34,-37.5 197.34,-34 197.34,-41"/>
</g>
<!-- Node4 -->
<g id="node4" class="node">
<title>Node4</title>
<g id="a_node4"><a xlink:href="../../db/d7c/a01614.html#ac77a187a7ca1484b1c77b177aa236782" target="_top" xlink:title=" ">
<polygon fill="none" stroke="black" points="415,-0.5 415,-30.5 577,-30.5 577,-0.5 415,-0.5"/>
<text text-anchor="start" x="423" y="-18.5" font-family="Helvetica,sans-Serif" font-size="10.00">com.cliffc.aa.util.NonBlocking</text>
<text text-anchor="middle" x="496" y="-7.5" font-family="Helvetica,sans-Serif" font-size="10.00">HashMapLong.CHM.size</text>
</a>
</g>
</g>
<!-- Node1&#45;&gt;Node4 -->
<g id="edge7" class="edge">
<title>Node1&#45;&gt;Node4</title>
<path fill="none" stroke="midnightblue" d="M143.04,-22.44C160.66,-18.75 180,-15.34 198,-13.5 267.1,-6.43 345.71,-7.35 404.7,-9.81"/>
<polygon fill="midnightblue" stroke="midnightblue" points="404.59,-13.31 414.73,-10.26 404.89,-6.32 404.59,-13.31"/>
</g>
<!-- Node3&#45;&gt;Node4 -->
<g id="edge3" class="edge">
<title>Node3&#45;&gt;Node4</title>
<path fill="none" stroke="midnightblue" d="M369.54,-28.93C381.05,-27.7 392.95,-26.42 404.64,-25.17"/>
<polygon fill="midnightblue" stroke="midnightblue" points="405.27,-28.63 414.84,-24.08 404.52,-21.67 405.27,-28.63"/>
</g>
<!-- Node5 -->
<g id="node5" class="node">
<title>Node5</title>
<g id="a_node5"><a xlink:href="../../da/dcf/a01558.html#a0829d01be3a5a0269feb836ed02db8f2" target="_top" xlink:title="Current value of the counter.">
<polygon fill="none" stroke="black" points="613,-0.5 613,-30.5 767,-30.5 767,-0.5 613,-0.5"/>
<text text-anchor="start" x="621" y="-18.5" font-family="Helvetica,sans-Serif" font-size="10.00">com.cliffc.aa.util.Concurrent</text>
<text text-anchor="middle" x="690" y="-7.5" font-family="Helvetica,sans-Serif" font-size="10.00">AutoTable.get</text>
</a>
</g>
</g>
<!-- Node4&#45;&gt;Node5 -->
<g id="edge4" class="edge">
<title>Node4&#45;&gt;Node5</title>
<path fill="none" stroke="midnightblue" d="M577.03,-15.5C585.45,-15.5 594.03,-15.5 602.51,-15.5"/>
<polygon fill="midnightblue" stroke="midnightblue" points="602.79,-19 612.79,-15.5 602.79,-12 602.79,-19"/>
</g>
<!-- Node6 -->
<g id="node6" class="node">
<title>Node6</title>
<g id="a_node6"><a xlink:href="../../d2/dc1/a01562.html#affe24fc89bef3098502356c3ee538722" target="_top" xlink:title=" ">
<polygon fill="none" stroke="black" points="803,-0.5 803,-30.5 957,-30.5 957,-0.5 803,-0.5"/>
<text text-anchor="start" x="811" y="-18.5" font-family="Helvetica,sans-Serif" font-size="10.00">com.cliffc.aa.util.Concurrent</text>
<text text-anchor="middle" x="880" y="-7.5" font-family="Helvetica,sans-Serif" font-size="10.00">AutoTable.CAT.sum</text>
</a>
</g>
</g>
<!-- Node5&#45;&gt;Node6 -->
<g id="edge5" class="edge">
<title>Node5&#45;&gt;Node6</title>
<path fill="none" stroke="midnightblue" d="M767.2,-15.5C775.52,-15.5 784.03,-15.5 792.47,-15.5"/>
<polygon fill="midnightblue" stroke="midnightblue" points="792.7,-19 802.7,-15.5 792.7,-12 792.7,-19"/>
</g>
<!-- Node6&#45;&gt;Node6 -->
<g id="edge6" class="edge">
<title>Node6&#45;&gt;Node6</title>
<path fill="none" stroke="midnightblue" d="M846.89,-30.66C838.9,-40.06 849.94,-49 880,-49 898.32,-49 909.57,-45.68 913.76,-40.96"/>
<polygon fill="midnightblue" stroke="midnightblue" points="917.23,-40.42 913.11,-30.66 910.25,-40.86 917.23,-40.42"/>
</g>
</g>
</svg>
