<?xml version="1.0" encoding="UTF-8" standalone="no"?>
<!DOCTYPE svg PUBLIC "-//W3C//DTD SVG 1.1//EN"
 "http://www.w3.org/Graphics/SVG/1.1/DTD/svg11.dtd">
<!-- Generated by graphviz version 2.43.0 (0)
 -->
<!-- Title: com.cliffc.aa.util.NonBlockingHashMapLong.CHM.tableFull Pages: 1 -->
<svg width="752pt" height="106pt"
 viewBox="0.00 0.00 752.00 106.00" xmlns="http://www.w3.org/2000/svg" xmlns:xlink="http://www.w3.org/1999/xlink">
<g id="graph0" class="graph" transform="scale(1 1) rotate(0) translate(4 102)">
<title>com.cliffc.aa.util.NonBlockingHashMapLong.CHM.tableFull</title>
<!-- Node1 -->
<g id="node1" class="node">
<title>Node1</title>
<g id="a_node1"><a xlink:title=" ">
<polygon fill="#bfbfbf" stroke="black" points="0,-24.5 0,-54.5 162,-54.5 162,-24.5 0,-24.5"/>
<text text-anchor="start" x="8" y="-42.5" font-family="Helvetica,sans-Serif" font-size="10.00">com.cliffc.aa.util.NonBlocking</text>
<text text-anchor="middle" x="81" y="-31.5" font-family="Helvetica,sans-Serif" font-size="10.00">HashMapLong.CHM.tableFull</text>
</a>
</g>
</g>
<!-- Node2 -->
<g id="node2" class="node">
<title>Node2</title>
<g id="a_node2"><a xlink:href="../../da/dcf/a01558.html#a9344a8223e6fa082967da3a2a9a537ae" target="_top" xlink:title="A cheaper get.">
<polygon fill="none" stroke="black" points="202,-49.5 202,-79.5 356,-79.5 356,-49.5 202,-49.5"/>
<text text-anchor="start" x="210" y="-67.5" font-family="Helvetica,sans-Serif" font-size="10.00">com.cliffc.aa.util.Concurrent</text>
<text text-anchor="middle" x="279" y="-56.5" font-family="Helvetica,sans-Serif" font-size="10.00">AutoTable.estimate_get</text>
</a>
</g>
</g>
<!-- Node1&#45;&gt;Node2 -->
<g id="edge1" class="edge">
<title>Node1&#45;&gt;Node2</title>
<path fill="none" stroke="midnightblue" d="M162,-49.7C171.75,-50.95 181.73,-52.22 191.56,-53.47"/>
<polygon fill="midnightblue" stroke="midnightblue" points="191.37,-56.98 201.73,-54.77 192.26,-50.03 191.37,-56.98"/>
</g>
<!-- Node5 -->
<g id="node5" class="node">
<title>Node5</title>
<g id="a_node5"><a xlink:href="../../d3/d2d/a01606.html#af47d43fd353fd00bba06ea09860981ac" target="_top" xlink:title=" ">
<polygon fill="none" stroke="black" points="198,-0.5 198,-30.5 360,-30.5 360,-0.5 198,-0.5"/>
<text text-anchor="start" x="206" y="-18.5" font-family="Helvetica,sans-Serif" font-size="10.00">com.cliffc.aa.util.NonBlocking</text>
<text text-anchor="middle" x="279" y="-7.5" font-family="Helvetica,sans-Serif" font-size="10.00">HashMapLong.reprobe_limit</text>
</a>
</g>
</g>
<!-- Node1&#45;&gt;Node5 -->
<g id="edge5" class="edge">
<title>Node1&#45;&gt;Node5</title>
<path fill="none" stroke="midnightblue" d="M162,-29.7C170.52,-28.66 179.23,-27.59 187.86,-26.54"/>
<polygon fill="midnightblue" stroke="midnightblue" points="188.43,-29.99 197.93,-25.3 187.58,-23.05 188.43,-29.99"/>
</g>
<!-- Node3 -->
<g id="node3" class="node">
<title>Node3</title>
<g id="a_node3"><a xlink:href="../../d2/dc1/a01562.html#a0f817e0a3eea4bb0474428009259f2b9" target="_top" xlink:title=" ">
<polygon fill="none" stroke="black" points="396,-49.5 396,-79.5 554,-79.5 554,-49.5 396,-49.5"/>
<text text-anchor="start" x="404" y="-67.5" font-family="Helvetica,sans-Serif" font-size="10.00">com.cliffc.aa.util.Concurrent</text>
<text text-anchor="middle" x="475" y="-56.5" font-family="Helvetica,sans-Serif" font-size="10.00">AutoTable.CAT.estimate_sum</text>
</a>
</g>
</g>
<!-- Node2&#45;&gt;Node3 -->
<g id="edge2" class="edge">
<title>Node2&#45;&gt;Node3</title>
<path fill="none" stroke="midnightblue" d="M356.12,-64.5C365.81,-64.5 375.79,-64.5 385.65,-64.5"/>
<polygon fill="midnightblue" stroke="midnightblue" points="385.87,-68 395.87,-64.5 385.87,-61 385.87,-68"/>
</g>
<!-- Node4 -->
<g id="node4" class="node">
<title>Node4</title>
<g id="a_node4"><a xlink:href="../../d2/dc1/a01562.html#affe24fc89bef3098502356c3ee538722" target="_top" xlink:title=" ">
<polygon fill="none" stroke="black" points="590,-49.5 590,-79.5 744,-79.5 744,-49.5 590,-49.5"/>
<text text-anchor="start" x="598" y="-67.5" font-family="Helvetica,sans-Serif" font-size="10.00">com.cliffc.aa.util.Concurrent</text>
<text text-anchor="middle" x="667" y="-56.5" font-family="Helvetica,sans-Serif" font-size="10.00">AutoTable.CAT.sum</text>
</a>
</g>
</g>
<!-- Node3&#45;&gt;Node4 -->
<g id="edge3" class="edge">
<title>Node3&#45;&gt;Node4</title>
<path fill="none" stroke="midnightblue" d="M554.1,-64.5C562.47,-64.5 571.02,-64.5 579.48,-64.5"/>
<polygon fill="midnightblue" stroke="midnightblue" points="579.73,-68 589.73,-64.5 579.73,-61 579.73,-68"/>
</g>
<!-- Node4&#45;&gt;Node4 -->
<g id="edge4" class="edge">
<title>Node4&#45;&gt;Node4</title>
<path fill="none" stroke="midnightblue" d="M633.54,-79.66C625.47,-89.06 636.62,-98 667,-98 685.51,-98 696.88,-94.68 701.12,-89.96"/>
<polygon fill="midnightblue" stroke="midnightblue" points="704.59,-89.42 700.46,-79.66 697.6,-89.86 704.59,-89.42"/>
</g>
</g>
</svg>
