<?xml version="1.0" encoding="UTF-8" standalone="no"?>
<!DOCTYPE svg PUBLIC "-//W3C//DTD SVG 1.1//EN"
 "http://www.w3.org/Graphics/SVG/1.1/DTD/svg11.dtd">
<!-- Generated by graphviz version 2.43.0 (0)
 -->
<!-- Title: com.cliffc.aa.util.NonBlockingHashMapLong.CHM.copy_slot Pages: 1 -->
<!--zoomable 553 -->
<svg id="main" version="1.1" xmlns="http://www.w3.org/2000/svg" xmlns:xlink="http://www.w3.org/1999/xlink" xml:space="preserve" onload="init(evt)">
<style type="text/css"><![CDATA[
.edge:hover path { stroke: red; }
.edge:hover polygon { stroke: red; fill: red; }
]]></style>
<script type="text/javascript"><![CDATA[
var edges = document.getElementsByTagName('g');
if (edges && edges.length) {
  for (var i=0;i<edges.length;i++) {
    if (edges[i].id.substr(0,4)=='edge') {
      edges[i].setAttribute('class','edge');
    }
  }
}
]]></script>
        <defs>
                <circle id="rim" cx="0" cy="0" r="7"/>
                <circle id="rim2" cx="0" cy="0" r="3.5"/>
                <g id="zoomPlus">
                        <use xlink:href="#rim" fill="#404040">
                                <set attributeName="fill" to="#808080" begin="zoomplus.mouseover" end="zoomplus.mouseout"/>
                        </use>
                        <path d="M-4,0h8M0,-4v8" fill="none" stroke="white" stroke-width="1.5" pointer-events="none"/>
                </g>
                <g id="zoomMin">
                        <use xlink:href="#rim" fill="#404040">
                                <set attributeName="fill" to="#808080" begin="zoomminus.mouseover" end="zoomminus.mouseout"/>
                        </use>
                        <path d="M-4,0h8" fill="none" stroke="white" stroke-width="1.5" pointer-events="none"/>
                </g>
                <g id="dirArrow">
                        <path fill="none" stroke="white" stroke-width="1.5" d="M0,-3.0v7 M-2.5,-0.5L0,-3.0L2.5,-0.5"/>
                </g>
               <g id="resetDef">
                       <use xlink:href="#rim2" fill="#404040">
                               <set attributeName="fill" to="#808080" begin="reset.mouseover" end="reset.mouseout"/>
                       </use>
               </g>
        </defs>

<script type="text/javascript">
var viewWidth = 1366;
var viewHeight = 553;
var sectionId = 'dynsection-12';
</script>
<script xlink:href="../../svgpan.js"/>
<svg id="graph" class="graph">
<g id="viewport">
<title>com.cliffc.aa.util.NonBlockingHashMapLong.CHM.copy_slot</title>
<!-- Node1 -->
<g id="node1" class="node">
<title>Node1</title>
<g id="a_node1"><a xlink:title=" ">
<polygon fill="#bfbfbf" stroke="black" points="0,-427.5 0,-457.5 162,-457.5 162,-427.5 0,-427.5"/>
<text text-anchor="start" x="8" y="-445.5" font-family="Helvetica,sans-Serif" font-size="10.00">com.cliffc.aa.util.NonBlocking</text>
<text text-anchor="middle" x="81" y="-434.5" font-family="Helvetica,sans-Serif" font-size="10.00">HashMapLong.CHM.copy_slot</text>
</a>
</g>
</g>
<!-- Node2 -->
<g id="node2" class="node">
<title>Node2</title>
<g id="a_node2"><a xlink:href="../../db/d7c/a01614.html#a63c13750f3a218f5b3d5aa0cd5147c05" target="_top" xlink:title=" ">
<polygon fill="none" stroke="black" points="401,-459.5 401,-489.5 563,-489.5 563,-459.5 401,-459.5"/>
<text text-anchor="start" x="409" y="-477.5" font-family="Helvetica,sans-Serif" font-size="10.00">com.cliffc.aa.util.NonBlocking</text>
<text text-anchor="middle" x="482" y="-466.5" font-family="Helvetica,sans-Serif" font-size="10.00">HashMapLong.CHM.CAS_key</text>
</a>
</g>
</g>
<!-- Node1&#45;&gt;Node2 -->
<g id="edge1" class="edge">
<title>Node1&#45;&gt;Node2</title>
<path fill="none" stroke="midnightblue" d="M162.26,-448.94C228.28,-454.23 321.82,-461.73 390.49,-467.24"/>
<polygon fill="midnightblue" stroke="midnightblue" points="390.62,-470.76 400.86,-468.07 391.18,-463.78 390.62,-470.76"/>
</g>
<!-- Node4 -->
<g id="node4" class="node">
<title>Node4</title>
<g id="a_node4"><a xlink:href="../../db/d7c/a01614.html#ad5ad52485b5825bbc34d4bd3442bb8bb" target="_top" xlink:title=" ">
<polygon fill="none" stroke="black" points="401,-508.5 401,-538.5 563,-538.5 563,-508.5 401,-508.5"/>
<text text-anchor="start" x="409" y="-526.5" font-family="Helvetica,sans-Serif" font-size="10.00">com.cliffc.aa.util.NonBlocking</text>
<text text-anchor="middle" x="482" y="-515.5" font-family="Helvetica,sans-Serif" font-size="10.00">HashMapLong.CHM.CAS_val</text>
</a>
</g>
</g>
<!-- Node1&#45;&gt;Node4 -->
<g id="edge3" class="edge">
<title>Node1&#45;&gt;Node4</title>
<path fill="none" stroke="midnightblue" d="M136.68,-457.54C155.98,-462.61 177.88,-468.09 198,-472.5 262.04,-486.53 334.85,-499.59 390.58,-508.98"/>
<polygon fill="midnightblue" stroke="midnightblue" points="390.34,-512.49 400.78,-510.69 391.5,-505.58 390.34,-512.49"/>
</g>
<!-- Node5 -->
<g id="node5" class="node">
<title>Node5</title>
<g id="a_node5"><a xlink:href="../../db/d7c/a01614.html#a58773656a270aa27e508e81adb42f22d" target="_top" xlink:title=" ">
<polygon fill="none" stroke="black" points="198,-331.5 198,-361.5 365,-361.5 365,-331.5 198,-331.5"/>
<text text-anchor="start" x="206" y="-349.5" font-family="Helvetica,sans-Serif" font-size="10.00">com.cliffc.aa.util.NonBlocking</text>
<text text-anchor="middle" x="281.5" y="-338.5" font-family="Helvetica,sans-Serif" font-size="10.00">HashMapLong.CHM.putIfMatch</text>
</a>
</g>
</g>
<!-- Node1&#45;&gt;Node5 -->
<g id="edge5" class="edge">
<title>Node1&#45;&gt;Node5</title>
<path fill="none" stroke="midnightblue" d="M113.45,-427.29C147.72,-410.72 202.63,-384.16 240.07,-366.05"/>
<polygon fill="midnightblue" stroke="midnightblue" points="241.72,-369.15 249.19,-361.64 238.67,-362.84 241.72,-369.15"/>
</g>
<!-- Node3 -->
<g id="node3" class="node">
<title>Node3</title>
<g id="a_node3"><a xlink:href="../../d3/d2d/a01606.html#aad73ccbb7e0f550d7161415b2562b01c" target="_top" xlink:title=" ">
<polygon fill="none" stroke="black" points="608.5,-514.5 608.5,-544.5 770.5,-544.5 770.5,-514.5 608.5,-514.5"/>
<text text-anchor="start" x="616.5" y="-532.5" font-family="Helvetica,sans-Serif" font-size="10.00">com.cliffc.aa.util.NonBlocking</text>
<text text-anchor="middle" x="689.5" y="-521.5" font-family="Helvetica,sans-Serif" font-size="10.00">HashMapLong.rawIndex</text>
</a>
</g>
</g>
<!-- Node2&#45;&gt;Node3 -->
<g id="edge2" class="edge">
<title>Node2&#45;&gt;Node3</title>
<path fill="none" stroke="midnightblue" d="M539.15,-489.53C564.98,-496.44 595.79,-504.69 622.69,-511.89"/>
<polygon fill="midnightblue" stroke="midnightblue" points="621.85,-515.28 632.41,-514.49 623.66,-508.52 621.85,-515.28"/>
</g>
<!-- Node4&#45;&gt;Node3 -->
<g id="edge4" class="edge">
<title>Node4&#45;&gt;Node3</title>
<path fill="none" stroke="midnightblue" d="M563.04,-525.84C574.55,-526.17 586.45,-526.52 598.14,-526.86"/>
<polygon fill="midnightblue" stroke="midnightblue" points="598.24,-530.37 608.34,-527.16 598.45,-523.37 598.24,-530.37"/>
</g>
<!-- Node5&#45;&gt;Node2 -->
<g id="edge15" class="edge">
<title>Node5&#45;&gt;Node2</title>
<path fill="none" stroke="midnightblue" d="M295.96,-361.65C316.52,-383.92 357.92,-425.45 401,-449.5 404.89,-451.67 409,-453.68 413.21,-455.54"/>
<polygon fill="midnightblue" stroke="midnightblue" points="411.99,-458.82 422.57,-459.36 414.64,-452.34 411.99,-458.82"/>
</g>
<!-- Node5&#45;&gt;Node4 -->
<g id="edge16" class="edge">
<title>Node5&#45;&gt;Node4</title>
<path fill="none" stroke="midnightblue" d="M290.03,-361.63C306.09,-392.34 346.71,-462.23 401,-499.5 403.28,-501.06 405.65,-502.52 408.11,-503.89"/>
<polygon fill="midnightblue" stroke="midnightblue" points="406.77,-507.13 417.28,-508.45 409.88,-500.87 406.77,-507.13"/>
</g>
<!-- Node5&#45;&gt;Node5 -->
<g id="edge24" class="edge">
<title>Node5&#45;&gt;Node5</title>
<path fill="none" stroke="midnightblue" d="M246.65,-361.66C238.24,-371.06 249.86,-380 281.5,-380 300.78,-380 312.63,-376.68 317.04,-371.96"/>
<polygon fill="midnightblue" stroke="midnightblue" points="320.51,-371.41 316.35,-361.66 313.52,-371.87 320.51,-371.41"/>
</g>
<!-- Node6 -->
<g id="node6" class="node">
<title>Node6</title>
<g id="a_node6"><a xlink:href="../../da/dcf/a01558.html#a4b0bab4576aff6bfb017f0d1c794bef3" target="_top" xlink:title="Add the given value to current counter value.">
<polygon fill="none" stroke="black" points="405,-171.5 405,-201.5 559,-201.5 559,-171.5 405,-171.5"/>
<text text-anchor="start" x="413" y="-189.5" font-family="Helvetica,sans-Serif" font-size="10.00">com.cliffc.aa.util.Concurrent</text>
<text text-anchor="middle" x="482" y="-178.5" font-family="Helvetica,sans-Serif" font-size="10.00">AutoTable.add</text>
</a>
</g>
</g>
<!-- Node5&#45;&gt;Node6 -->
<g id="edge6" class="edge">
<title>Node5&#45;&gt;Node6</title>
<path fill="none" stroke="midnightblue" d="M291.54,-331.36C309.08,-303.29 350.47,-243.09 401,-210.5 403.6,-208.83 406.32,-207.26 409.12,-205.81"/>
<polygon fill="midnightblue" stroke="midnightblue" points="410.74,-208.91 418.31,-201.5 407.77,-202.57 410.74,-208.91"/>
</g>
<!-- Node14 -->
<g id="node14" class="node">
<title>Node14</title>
<g id="a_node14"><a xlink:href="../../db/d7c/a01614.html#a33d184d4d9e115109ccafabd2ffa6b7d" target="_top" xlink:title=" ">
<polygon fill="none" stroke="black" points="401,-399 401,-440 563,-440 563,-399 401,-399"/>
<text text-anchor="start" x="409" y="-428" font-family="Helvetica,sans-Serif" font-size="10.00">com.cliffc.aa.util.NonBlocking</text>
<text text-anchor="start" x="409" y="-417" font-family="Helvetica,sans-Serif" font-size="10.00">HashMapLong.CHM.copy_slot</text>
<text text-anchor="middle" x="482" y="-406" font-family="Helvetica,sans-Serif" font-size="10.00">_and_check</text>
</a>
</g>
</g>
<!-- Node5&#45;&gt;Node14 -->
<g id="edge17" class="edge">
<title>Node5&#45;&gt;Node14</title>
<path fill="none" stroke="midnightblue" d="M323.63,-361.63C350.17,-371.39 385.27,-384.29 415.58,-395.44"/>
<polygon fill="midnightblue" stroke="midnightblue" points="414.65,-398.83 425.24,-398.99 417.07,-392.26 414.65,-398.83"/>
</g>
<!-- Node17 -->
<g id="node17" class="node">
<title>Node17</title>
<g id="a_node17"><a xlink:href="../../d3/d2d/a01606.html#a188b3c4c68d9af0adb8f1e2b3f448694" target="_top" xlink:title=" ">
<polygon fill="none" stroke="black" points="608.5,-404.5 608.5,-434.5 770.5,-434.5 770.5,-404.5 608.5,-404.5"/>
<text text-anchor="start" x="616.5" y="-422.5" font-family="Helvetica,sans-Serif" font-size="10.00">com.cliffc.aa.util.NonBlocking</text>
<text text-anchor="middle" x="689.5" y="-411.5" font-family="Helvetica,sans-Serif" font-size="10.00">HashMapLong.help_copy</text>
</a>
</g>
</g>
<!-- Node5&#45;&gt;Node17 -->
<g id="edge23" class="edge">
<title>Node5&#45;&gt;Node17</title>
<path fill="none" stroke="midnightblue" d="M365.04,-357.33C421.09,-365.13 496.76,-376.53 563,-389.5 581.64,-393.15 601.69,-397.67 620.18,-402.09"/>
<polygon fill="midnightblue" stroke="midnightblue" points="619.44,-405.51 629.98,-404.45 621.08,-398.7 619.44,-405.51"/>
</g>
<!-- Node18 -->
<g id="node18" class="node">
<title>Node18</title>
<g id="a_node18"><a xlink:href="../../d3/d2d/a01606.html#a2242d40c2091176c7aec66a1c1f1b107" target="_top" xlink:title=" ">
<polygon fill="none" stroke="black" points="401,-122.5 401,-152.5 563,-152.5 563,-122.5 401,-122.5"/>
<text text-anchor="start" x="409" y="-140.5" font-family="Helvetica,sans-Serif" font-size="10.00">com.cliffc.aa.util.NonBlocking</text>
<text text-anchor="middle" x="482" y="-129.5" font-family="Helvetica,sans-Serif" font-size="10.00">HashMapLong.hash</text>
</a>
</g>
</g>
<!-- Node5&#45;&gt;Node18 -->
<g id="edge22" class="edge">
<title>Node5&#45;&gt;Node18</title>
<path fill="none" stroke="midnightblue" d="M287.88,-331.47C301.27,-296.26 339.49,-207.9 401,-161.5 402.83,-160.12 404.75,-158.81 406.72,-157.58"/>
<polygon fill="midnightblue" stroke="midnightblue" points="408.64,-160.52 415.74,-152.66 405.28,-154.38 408.64,-160.52"/>
</g>
<!-- Node19 -->
<g id="node19" class="node">
<title>Node19</title>
<g id="a_node19"><a xlink:href="../../d3/d2d/a01606.html#af47d43fd353fd00bba06ea09860981ac" target="_top" xlink:title=" ">
<polygon fill="none" stroke="black" points="608.5,-218.5 608.5,-248.5 770.5,-248.5 770.5,-218.5 608.5,-218.5"/>
<text text-anchor="start" x="616.5" y="-236.5" font-family="Helvetica,sans-Serif" font-size="10.00">com.cliffc.aa.util.NonBlocking</text>
<text text-anchor="middle" x="689.5" y="-225.5" font-family="Helvetica,sans-Serif" font-size="10.00">HashMapLong.reprobe_limit</text>
</a>
</g>
</g>
<!-- Node5&#45;&gt;Node19 -->
<g id="edge25" class="edge">
<title>Node5&#45;&gt;Node19</title>
<path fill="none" stroke="midnightblue" d="M318.38,-331.47C341.66,-322.07 372.81,-310.15 401,-301.5 439.58,-289.67 539.35,-266.69 610.51,-250.74"/>
<polygon fill="midnightblue" stroke="midnightblue" points="611.36,-254.14 620.35,-248.54 609.83,-247.31 611.36,-254.14"/>
</g>
<!-- Node20 -->
<g id="node20" class="node">
<title>Node20</title>
<g id="a_node20"><a xlink:href="../../db/d7c/a01614.html#a3f69b6f6ef8856601bdd5e09b61ab9fb" target="_top" xlink:title=" ">
<polygon fill="none" stroke="black" points="401,-311.5 401,-341.5 563,-341.5 563,-311.5 401,-311.5"/>
<text text-anchor="start" x="409" y="-329.5" font-family="Helvetica,sans-Serif" font-size="10.00">com.cliffc.aa.util.NonBlocking</text>
<text text-anchor="middle" x="482" y="-318.5" font-family="Helvetica,sans-Serif" font-size="10.00">HashMapLong.CHM.resize</text>
</a>
</g>
</g>
<!-- Node5&#45;&gt;Node20 -->
<g id="edge26" class="edge">
<title>Node5&#45;&gt;Node20</title>
<path fill="none" stroke="midnightblue" d="M365.24,-338.16C373.73,-337.31 382.38,-336.44 390.95,-335.57"/>
<polygon fill="midnightblue" stroke="midnightblue" points="391.34,-339.05 400.94,-334.57 390.64,-332.09 391.34,-339.05"/>
</g>
<!-- Node26 -->
<g id="node26" class="node">
<title>Node26</title>
<g id="a_node26"><a xlink:href="../../db/d7c/a01614.html#a216819fc5b9d6b7eeacb469566a9e292" target="_top" xlink:title=" ">
<polygon fill="none" stroke="black" points="401,-220.5 401,-250.5 563,-250.5 563,-220.5 401,-220.5"/>
<text text-anchor="start" x="409" y="-238.5" font-family="Helvetica,sans-Serif" font-size="10.00">com.cliffc.aa.util.NonBlocking</text>
<text text-anchor="middle" x="482" y="-227.5" font-family="Helvetica,sans-Serif" font-size="10.00">HashMapLong.CHM.tableFull</text>
</a>
</g>
</g>
<!-- Node5&#45;&gt;Node26 -->
<g id="edge34" class="edge">
<title>Node5&#45;&gt;Node26</title>
<path fill="none" stroke="midnightblue" d="M302.26,-331.46C325.16,-314.48 364.46,-286.72 401,-267.5 409.94,-262.8 419.72,-258.35 429.29,-254.35"/>
<polygon fill="midnightblue" stroke="midnightblue" points="430.8,-257.52 438.74,-250.51 428.16,-251.03 430.8,-257.52"/>
</g>
<!-- Node7 -->
<g id="node7" class="node">
<title>Node7</title>
<g id="a_node7"><a xlink:href="../../da/dcf/a01558.html#a262459cb28d48e079a9990d40aaad390" target="_top" xlink:title=" ">
<polygon fill="none" stroke="black" points="612.5,-120.5 612.5,-150.5 766.5,-150.5 766.5,-120.5 612.5,-120.5"/>
<text text-anchor="start" x="620.5" y="-138.5" font-family="Helvetica,sans-Serif" font-size="10.00">com.cliffc.aa.util.Concurrent</text>
<text text-anchor="middle" x="689.5" y="-127.5" font-family="Helvetica,sans-Serif" font-size="10.00">AutoTable.add_if</text>
</a>
</g>
</g>
<!-- Node6&#45;&gt;Node7 -->
<g id="edge7" class="edge">
<title>Node6&#45;&gt;Node7</title>
<path fill="none" stroke="midnightblue" d="M543.55,-171.47C566.96,-165.66 593.91,-158.98 618.17,-152.95"/>
<polygon fill="midnightblue" stroke="midnightblue" points="619.17,-156.31 628.03,-150.51 617.48,-149.52 619.17,-156.31"/>
</g>
<!-- Node8 -->
<g id="node8" class="node">
<title>Node8</title>
<g id="a_node8"><a xlink:href="../../d2/dc1/a01562.html#a7336896360f0eba7bbb60ccaea2a5737" target="_top" xlink:title=" ">
<polygon fill="none" stroke="black" points="820,-98.5 820,-128.5 974,-128.5 974,-98.5 820,-98.5"/>
<text text-anchor="start" x="828" y="-116.5" font-family="Helvetica,sans-Serif" font-size="10.00">com.cliffc.aa.util.Concurrent</text>
<text text-anchor="middle" x="897" y="-105.5" font-family="Helvetica,sans-Serif" font-size="10.00">AutoTable.CAT.add_if</text>
</a>
</g>
</g>
<!-- Node7&#45;&gt;Node8 -->
<g id="edge8" class="edge">
<title>Node7&#45;&gt;Node8</title>
<path fill="none" stroke="midnightblue" d="M766.73,-127.34C780.7,-125.84 795.37,-124.27 809.62,-122.75"/>
<polygon fill="midnightblue" stroke="midnightblue" points="810.32,-126.19 819.89,-121.65 809.58,-119.23 810.32,-126.19"/>
</g>
<!-- Node13 -->
<g id="node13" class="node">
<title>Node13</title>
<g id="a_node13"><a xlink:href="../../da/dcf/a01558.html#a074036c1c16302eaab17311aa96809ab" target="_top" xlink:title=" ">
<polygon fill="none" stroke="black" points="1014,-147.5 1014,-177.5 1168,-177.5 1168,-147.5 1014,-147.5"/>
<text text-anchor="start" x="1022" y="-165.5" font-family="Helvetica,sans-Serif" font-size="10.00">com.cliffc.aa.util.Concurrent</text>
<text text-anchor="middle" x="1091" y="-154.5" font-family="Helvetica,sans-Serif" font-size="10.00">AutoTable.hash</text>
</a>
</g>
</g>
<!-- Node7&#45;&gt;Node13 -->
<g id="edge14" class="edge">
<title>Node7&#45;&gt;Node13</title>
<path fill="none" stroke="midnightblue" d="M766.58,-140.64C834.23,-145.21 933.07,-151.89 1003.66,-156.66"/>
<polygon fill="midnightblue" stroke="midnightblue" points="1003.65,-160.17 1013.86,-157.35 1004.12,-153.19 1003.65,-160.17"/>
</g>
<!-- Node9 -->
<g id="node9" class="node">
<title>Node9</title>
<g id="a_node9"><a xlink:href="../../d2/dc1/a01562.html#a6db7031609cd9694b857ef0014406fac" target="_top" xlink:title=" ">
<polygon fill="none" stroke="black" points="1014,-0.5 1014,-30.5 1168,-30.5 1168,-0.5 1014,-0.5"/>
<text text-anchor="start" x="1022" y="-18.5" font-family="Helvetica,sans-Serif" font-size="10.00">com.cliffc.aa.util.Concurrent</text>
<text text-anchor="middle" x="1091" y="-7.5" font-family="Helvetica,sans-Serif" font-size="10.00">AutoTable.CAT.CAS</text>
</a>
</g>
</g>
<!-- Node8&#45;&gt;Node9 -->
<g id="edge9" class="edge">
<title>Node8&#45;&gt;Node9</title>
<path fill="none" stroke="midnightblue" d="M918.01,-98.42C940.42,-82.1 978.29,-56.18 1014,-39.5 1018.06,-37.6 1022.31,-35.8 1026.63,-34.11"/>
<polygon fill="midnightblue" stroke="midnightblue" points="1028.02,-37.32 1036.17,-30.55 1025.58,-30.76 1028.02,-37.32"/>
</g>
<!-- Node11 -->
<g id="node11" class="node">
<title>Node11</title>
<g id="a_node11"><a xlink:href="../../da/dcf/a01558.html#a095c4286914eb55093fddc6876df6fc9" target="_top" xlink:title=" ">
<polygon fill="none" stroke="black" points="1014,-98.5 1014,-128.5 1168,-128.5 1168,-98.5 1014,-98.5"/>
<text text-anchor="start" x="1022" y="-116.5" font-family="Helvetica,sans-Serif" font-size="10.00">com.cliffc.aa.util.Concurrent</text>
<text text-anchor="middle" x="1091" y="-105.5" font-family="Helvetica,sans-Serif" font-size="10.00">AutoTable.CAS_cat</text>
</a>
</g>
</g>
<!-- Node8&#45;&gt;Node11 -->
<g id="edge11" class="edge">
<title>Node8&#45;&gt;Node11</title>
<path fill="none" stroke="midnightblue" d="M974.16,-113.5C983.87,-113.5 993.87,-113.5 1003.73,-113.5"/>
<polygon fill="midnightblue" stroke="midnightblue" points="1003.93,-117 1013.93,-113.5 1003.93,-110 1003.93,-117"/>
</g>
<!-- Node12 -->
<g id="node12" class="node">
<title>Node12</title>
<g id="a_node12"><a xlink:href="../../d2/dc1/a01562.html#ae0d22a9ee9f18152ca66f36600372c3b" target="_top" xlink:title=" ">
<polygon fill="none" stroke="black" points="1014,-49.5 1014,-79.5 1168,-79.5 1168,-49.5 1014,-49.5"/>
<text text-anchor="start" x="1022" y="-67.5" font-family="Helvetica,sans-Serif" font-size="10.00">com.cliffc.aa.util.Concurrent</text>
<text text-anchor="middle" x="1091" y="-56.5" font-family="Helvetica,sans-Serif" font-size="10.00">AutoTable.CAT.CAT</text>
</a>
</g>
</g>
<!-- Node8&#45;&gt;Node12 -->
<g id="edge12" class="edge">
<title>Node8&#45;&gt;Node12</title>
<path fill="none" stroke="midnightblue" d="M956.91,-98.47C977.28,-93.27 1000.27,-87.4 1021.35,-82.02"/>
<polygon fill="midnightblue" stroke="midnightblue" points="1022.38,-85.37 1031.2,-79.51 1020.65,-78.59 1022.38,-85.37"/>
</g>
<!-- Node8&#45;&gt;Node13 -->
<g id="edge13" class="edge">
<title>Node8&#45;&gt;Node13</title>
<path fill="none" stroke="midnightblue" d="M956.91,-128.53C977.28,-133.73 1000.27,-139.6 1021.35,-144.98"/>
<polygon fill="midnightblue" stroke="midnightblue" points="1020.65,-148.41 1031.2,-147.49 1022.38,-141.63 1020.65,-148.41"/>
</g>
<!-- Node10 -->
<g id="node10" class="node">
<title>Node10</title>
<g id="a_node10"><a xlink:href="../../d2/dc1/a01562.html#aa608923d1601362028a28e0b5f3b8d9a" target="_top" xlink:title=" ">
<polygon fill="none" stroke="black" points="1204,-0.5 1204,-30.5 1358,-30.5 1358,-0.5 1204,-0.5"/>
<text text-anchor="start" x="1212" y="-18.5" font-family="Helvetica,sans-Serif" font-size="10.00">com.cliffc.aa.util.Concurrent</text>
<text text-anchor="middle" x="1281" y="-7.5" font-family="Helvetica,sans-Serif" font-size="10.00">AutoTable.CAT.rawIndex</text>
</a>
</g>
</g>
<!-- Node9&#45;&gt;Node10 -->
<g id="edge10" class="edge">
<title>Node9&#45;&gt;Node10</title>
<path fill="none" stroke="midnightblue" d="M1168.2,-15.5C1176.52,-15.5 1185.03,-15.5 1193.47,-15.5"/>
<polygon fill="midnightblue" stroke="midnightblue" points="1193.7,-19 1203.7,-15.5 1193.7,-12 1193.7,-19"/>
</g>
<!-- Node14&#45;&gt;Node1 -->
<g id="edge20" class="edge">
<title>Node14&#45;&gt;Node1</title>
<path fill="none" stroke="midnightblue" d="M400.86,-424.12C334.88,-427.92 241.35,-433.31 172.64,-437.28"/>
<polygon fill="midnightblue" stroke="midnightblue" points="172.05,-433.8 162.26,-437.87 172.45,-440.79 172.05,-433.8"/>
</g>
<!-- Node15 -->
<g id="node15" class="node">
<title>Node15</title>
<g id="a_node15"><a xlink:href="../../db/d7c/a01614.html#a95610f614310481507b338bf8a0e06a7" target="_top" xlink:title=" ">
<polygon fill="none" stroke="black" points="603.5,-454 603.5,-495 775.5,-495 775.5,-454 603.5,-454"/>
<text text-anchor="start" x="611.5" y="-483" font-family="Helvetica,sans-Serif" font-size="10.00">com.cliffc.aa.util.NonBlocking</text>
<text text-anchor="start" x="611.5" y="-472" font-family="Helvetica,sans-Serif" font-size="10.00">HashMapLong.CHM.copy_check</text>
<text text-anchor="middle" x="689.5" y="-461" font-family="Helvetica,sans-Serif" font-size="10.00">_and_promote</text>
</a>
</g>
</g>
<!-- Node14&#45;&gt;Node15 -->
<g id="edge18" class="edge">
<title>Node14&#45;&gt;Node15</title>
<path fill="none" stroke="midnightblue" d="M559.81,-440.06C573.48,-443.72 587.81,-447.55 601.73,-451.28"/>
<polygon fill="midnightblue" stroke="midnightblue" points="601.22,-454.76 611.78,-453.97 603.03,-448 601.22,-454.76"/>
</g>
<!-- Node14&#45;&gt;Node17 -->
<g id="edge21" class="edge">
<title>Node14&#45;&gt;Node17</title>
<path fill="none" stroke="midnightblue" d="M563.04,-419.5C574.55,-419.5 586.45,-419.5 598.14,-419.5"/>
<polygon fill="midnightblue" stroke="midnightblue" points="598.34,-423 608.34,-419.5 598.34,-416 598.34,-423"/>
</g>
<!-- Node16 -->
<g id="node16" class="node">
<title>Node16</title>
<g id="a_node16"><a xlink:href="../../d3/d2d/a01606.html#ae6a2380fef90cf32e5468117f7ae7714" target="_top" xlink:title=" ">
<polygon fill="none" stroke="black" points="816,-459.5 816,-489.5 978,-489.5 978,-459.5 816,-459.5"/>
<text text-anchor="start" x="824" y="-477.5" font-family="Helvetica,sans-Serif" font-size="10.00">com.cliffc.aa.util.NonBlocking</text>
<text text-anchor="middle" x="897" y="-466.5" font-family="Helvetica,sans-Serif" font-size="10.00">HashMapLong.CAS</text>
</a>
</g>
</g>
<!-- Node15&#45;&gt;Node16 -->
<g id="edge19" class="edge">
<title>Node15&#45;&gt;Node16</title>
<path fill="none" stroke="midnightblue" d="M775.57,-474.5C785.59,-474.5 795.84,-474.5 805.93,-474.5"/>
<polygon fill="midnightblue" stroke="midnightblue" points="805.94,-478 815.94,-474.5 805.94,-471 805.94,-478"/>
</g>
<!-- Node21 -->
<g id="node21" class="node">
<title>Node21</title>
<g id="a_node21"><a xlink:href="../../db/d7c/a01614.html#a856359efb86627135b6d146a09882066" target="_top" xlink:title=" ">
<polygon fill="none" stroke="black" points="599,-267.5 599,-297.5 780,-297.5 780,-267.5 599,-267.5"/>
<text text-anchor="start" x="607" y="-285.5" font-family="Helvetica,sans-Serif" font-size="10.00">com.cliffc.aa.util.NonBlocking</text>
<text text-anchor="middle" x="689.5" y="-274.5" font-family="Helvetica,sans-Serif" font-size="10.00">HashMapLong.CHM.CAS_newchm</text>
</a>
</g>
</g>
<!-- Node20&#45;&gt;Node21 -->
<g id="edge27" class="edge">
<title>Node20&#45;&gt;Node21</title>
<path fill="none" stroke="midnightblue" d="M553.15,-311.48C570.9,-307.68 590.11,-303.57 608.32,-299.67"/>
<polygon fill="midnightblue" stroke="midnightblue" points="609.28,-303.04 618.32,-297.53 607.81,-296.2 609.28,-303.04"/>
</g>
<!-- Node22 -->
<g id="node22" class="node">
<title>Node22</title>
<g id="a_node22"><a xlink:href="../../db/d7c/a01614.html#ae638baf110a3af5eface0498d6e59df2" target="_top" xlink:title=" ">
<polygon fill="none" stroke="black" points="608.5,-355.5 608.5,-385.5 770.5,-385.5 770.5,-355.5 608.5,-355.5"/>
<text text-anchor="start" x="616.5" y="-373.5" font-family="Helvetica,sans-Serif" font-size="10.00">com.cliffc.aa.util.NonBlocking</text>
<text text-anchor="middle" x="689.5" y="-362.5" font-family="Helvetica,sans-Serif" font-size="10.00">HashMapLong.CHM.CHM</text>
</a>
</g>
</g>
<!-- Node20&#45;&gt;Node22 -->
<g id="edge28" class="edge">
<title>Node20&#45;&gt;Node22</title>
<path fill="none" stroke="midnightblue" d="M553.15,-341.52C570.9,-345.32 590.11,-349.43 608.32,-353.33"/>
<polygon fill="midnightblue" stroke="midnightblue" points="607.81,-356.8 618.32,-355.47 609.28,-349.96 607.81,-356.8"/>
</g>
<!-- Node23 -->
<g id="node23" class="node">
<title>Node23</title>
<g id="a_node23"><a xlink:href="../../db/d7c/a01614.html#ac77a187a7ca1484b1c77b177aa236782" target="_top" xlink:title=" ">
<polygon fill="none" stroke="black" points="816,-311.5 816,-341.5 978,-341.5 978,-311.5 816,-311.5"/>
<text text-anchor="start" x="824" y="-329.5" font-family="Helvetica,sans-Serif" font-size="10.00">com.cliffc.aa.util.NonBlocking</text>
<text text-anchor="middle" x="897" y="-318.5" font-family="Helvetica,sans-Serif" font-size="10.00">HashMapLong.CHM.size</text>
</a>
</g>
</g>
<!-- Node20&#45;&gt;Node23 -->
<g id="edge33" class="edge">
<title>Node20&#45;&gt;Node23</title>
<path fill="none" stroke="midnightblue" d="M563.12,-326.5C632.68,-326.5 733.34,-326.5 805.73,-326.5"/>
<polygon fill="midnightblue" stroke="midnightblue" points="805.75,-330 815.75,-326.5 805.75,-323 805.75,-330"/>
</g>
<!-- Node22&#45;&gt;Node23 -->
<g id="edge29" class="edge">
<title>Node22&#45;&gt;Node23</title>
<path fill="none" stroke="midnightblue" d="M760.65,-355.48C778.4,-351.68 797.61,-347.57 815.82,-343.67"/>
<polygon fill="midnightblue" stroke="midnightblue" points="816.78,-347.04 825.82,-341.53 815.31,-340.2 816.78,-347.04"/>
</g>
<!-- Node24 -->
<g id="node24" class="node">
<title>Node24</title>
<g id="a_node24"><a xlink:href="../../da/dcf/a01558.html#a0829d01be3a5a0269feb836ed02db8f2" target="_top" xlink:title="Current value of the counter.">
<polygon fill="none" stroke="black" points="1014,-291.5 1014,-321.5 1168,-321.5 1168,-291.5 1014,-291.5"/>
<text text-anchor="start" x="1022" y="-309.5" font-family="Helvetica,sans-Serif" font-size="10.00">com.cliffc.aa.util.Concurrent</text>
<text text-anchor="middle" x="1091" y="-298.5" font-family="Helvetica,sans-Serif" font-size="10.00">AutoTable.get</text>
</a>
</g>
</g>
<!-- Node23&#45;&gt;Node24 -->
<g id="edge30" class="edge">
<title>Node23&#45;&gt;Node24</title>
<path fill="none" stroke="midnightblue" d="M978.03,-318.16C986.54,-317.28 995.22,-316.37 1003.79,-315.48"/>
<polygon fill="midnightblue" stroke="midnightblue" points="1004.2,-318.96 1013.79,-314.44 1003.48,-311.99 1004.2,-318.96"/>
</g>
<!-- Node25 -->
<g id="node25" class="node">
<title>Node25</title>
<g id="a_node25"><a xlink:href="../../d2/dc1/a01562.html#affe24fc89bef3098502356c3ee538722" target="_top" xlink:title=" ">
<polygon fill="none" stroke="black" points="1204,-269.5 1204,-299.5 1358,-299.5 1358,-269.5 1204,-269.5"/>
<text text-anchor="start" x="1212" y="-287.5" font-family="Helvetica,sans-Serif" font-size="10.00">com.cliffc.aa.util.Concurrent</text>
<text text-anchor="middle" x="1281" y="-276.5" font-family="Helvetica,sans-Serif" font-size="10.00">AutoTable.CAT.sum</text>
</a>
</g>
</g>
<!-- Node24&#45;&gt;Node25 -->
<g id="edge31" class="edge">
<title>Node24&#45;&gt;Node25</title>
<path fill="none" stroke="midnightblue" d="M1168.2,-297.58C1176.61,-296.6 1185.22,-295.59 1193.74,-294.59"/>
<polygon fill="midnightblue" stroke="midnightblue" points="1194.17,-298.07 1203.7,-293.43 1193.36,-291.12 1194.17,-298.07"/>
</g>
<!-- Node25&#45;&gt;Node25 -->
<g id="edge32" class="edge">
<title>Node25&#45;&gt;Node25</title>
<path fill="none" stroke="midnightblue" d="M1247.89,-299.66C1239.9,-309.06 1250.94,-318 1281,-318 1299.32,-318 1310.57,-314.68 1314.76,-309.96"/>
<polygon fill="midnightblue" stroke="midnightblue" points="1318.23,-309.42 1314.11,-299.66 1311.25,-309.86 1318.23,-309.42"/>
</g>
<!-- Node26&#45;&gt;Node19 -->
<g id="edge38" class="edge">
<title>Node26&#45;&gt;Node19</title>
<path fill="none" stroke="midnightblue" d="M563.04,-234.72C574.55,-234.61 586.45,-234.49 598.14,-234.38"/>
<polygon fill="midnightblue" stroke="midnightblue" points="598.37,-237.88 608.34,-234.28 598.31,-230.88 598.37,-237.88"/>
</g>
<!-- Node27 -->
<g id="node27" class="node">
<title>Node27</title>
<g id="a_node27"><a xlink:href="../../da/dcf/a01558.html#a9344a8223e6fa082967da3a2a9a537ae" target="_top" xlink:title="A cheaper get.">
<polygon fill="none" stroke="black" points="612.5,-169.5 612.5,-199.5 766.5,-199.5 766.5,-169.5 612.5,-169.5"/>
<text text-anchor="start" x="620.5" y="-187.5" font-family="Helvetica,sans-Serif" font-size="10.00">com.cliffc.aa.util.Concurrent</text>
<text text-anchor="middle" x="689.5" y="-176.5" font-family="Helvetica,sans-Serif" font-size="10.00">AutoTable.estimate_get</text>
</a>
</g>
</g>
<!-- Node26&#45;&gt;Node27 -->
<g id="edge35" class="edge">
<title>Node26&#45;&gt;Node27</title>
<path fill="none" stroke="midnightblue" d="M543.55,-220.47C566.96,-214.66 593.91,-207.98 618.17,-201.95"/>
<polygon fill="midnightblue" stroke="midnightblue" points="619.17,-205.31 628.03,-199.51 617.48,-198.52 619.17,-205.31"/>
</g>
<!-- Node28 -->
<g id="node28" class="node">
<title>Node28</title>
<g id="a_node28"><a xlink:href="../../d2/dc1/a01562.html#a0f817e0a3eea4bb0474428009259f2b9" target="_top" xlink:title=" ">
<polygon fill="none" stroke="black" points="818,-226.5 818,-256.5 976,-256.5 976,-226.5 818,-226.5"/>
<text text-anchor="start" x="826" y="-244.5" font-family="Helvetica,sans-Serif" font-size="10.00">com.cliffc.aa.util.Concurrent</text>
<text text-anchor="middle" x="897" y="-233.5" font-family="Helvetica,sans-Serif" font-size="10.00">AutoTable.CAT.estimate_sum</text>
</a>
</g>
</g>
<!-- Node27&#45;&gt;Node28 -->
<g id="edge36" class="edge">
<title>Node27&#45;&gt;Node28</title>
<path fill="none" stroke="midnightblue" d="M747.35,-199.61C758.2,-202.53 769.46,-205.59 780,-208.5 797.46,-213.32 816.37,-218.66 833.75,-223.6"/>
<polygon fill="midnightblue" stroke="midnightblue" points="833.21,-227.09 843.79,-226.46 835.13,-220.36 833.21,-227.09"/>
</g>
<!-- Node28&#45;&gt;Node25 -->
<g id="edge37" class="edge">
<title>Node28&#45;&gt;Node25</title>
<path fill="none" stroke="midnightblue" d="M976.23,-250.31C1039.42,-257.42 1128.28,-267.42 1193.57,-274.77"/>
<polygon fill="midnightblue" stroke="midnightblue" points="1193.51,-278.29 1203.83,-275.93 1194.29,-271.33 1193.51,-278.29"/>
</g>
</g>
</svg>
        <g id="navigator" transform="translate(0 0)" fill="#404254">
                <rect fill="#f2f5e9" fill-opacity="0.5" stroke="#606060" stroke-width=".5" x="0" y="0" width="60" height="60"/>
                <use id="zoomplus" xlink:href="#zoomPlus" x="17" y="9" onmousedown="handleZoom(evt,'in')"/>
                <use id="zoomminus" xlink:href="#zoomMin" x="42" y="9" onmousedown="handleZoom(evt,'out')"/>
                <use id="reset" xlink:href="#resetDef" x="30" y="36" onmousedown="handleReset()"/>
                <g id="arrowUp" xlink:href="#dirArrow" transform="translate(30 24)" onmousedown="handlePan(0,-1)">
                  <use xlink:href="#rim" fill="#404040">
                        <set attributeName="fill" to="#808080" begin="arrowUp.mouseover" end="arrowUp.mouseout"/>
                  </use>
                  <path fill="none" stroke="white" stroke-width="1.5" d="M0,-3.0v7 M-2.5,-0.5L0,-3.0L2.5,-0.5"/>
                </g>
                <g id="arrowRight" xlink:href="#dirArrow" transform="rotate(90) translate(36 -43)" onmousedown="handlePan(1,0)">
                  <use xlink:href="#rim" fill="#404040">
                        <set attributeName="fill" to="#808080" begin="arrowRight.mouseover" end="arrowRight.mouseout"/>
                  </use>
                  <path fill="none" stroke="white" stroke-width="1.5" d="M0,-3.0v7 M-2.5,-0.5L0,-3.0L2.5,-0.5"/>
                </g>
                <g id="arrowDown" xlink:href="#dirArrow" transform="rotate(180) translate(-30 -48)" onmousedown="handlePan(0,1)">
                  <use xlink:href="#rim" fill="#404040">
                        <set attributeName="fill" to="#808080" begin="arrowDown.mouseover" end="arrowDown.mouseout"/>
                  </use>
                  <path fill="none" stroke="white" stroke-width="1.5" d="M0,-3.0v7 M-2.5,-0.5L0,-3.0L2.5,-0.5"/>
                </g>
                <g id="arrowLeft" xlink:href="#dirArrow" transform="rotate(270) translate(-36 17)" onmousedown="handlePan(-1,0)">
                  <use xlink:href="#rim" fill="#404040">
                        <set attributeName="fill" to="#808080" begin="arrowLeft.mouseover" end="arrowLeft.mouseout"/>
                  </use>
                  <path fill="none" stroke="white" stroke-width="1.5" d="M0,-3.0v7 M-2.5,-0.5L0,-3.0L2.5,-0.5"/>
                </g>
        </g>
        <svg viewBox="0 0 15 15" width="100%" height="30px" preserveAspectRatio="xMaxYMin meet">
         <g id="arrow_out" transform="scale(0.3 0.3)">
          <a xlink:href="a01614_a9fefce0469c570900d4263a0d8ada688_cgraph_org.svg" target="_base">
           <rect id="button" ry="5" rx="5" y="6" x="6" height="38" width="38"
                fill="#f2f5e9" fill-opacity="0.5" stroke="#606060" stroke-width="1.0"/>
           <path id="arrow"
             d="M 11.500037,31.436501 C 11.940474,20.09759 22.043105,11.32322 32.158766,21.979434 L 37.068811,17.246167 C 37.068811,17.246167 37.088388,32 37.088388,32 L 22.160133,31.978069 C 22.160133,31.978069 26.997745,27.140456 26.997745,27.140456 C 18.528582,18.264221 13.291696,25.230495 11.500037,31.436501 z"
             style="fill:#404040;"/>
          </a>
         </g>
        </svg>
</svg>
