<?xml version="1.0" encoding="UTF-8" standalone="no"?>
<!DOCTYPE svg PUBLIC "-//W3C//DTD SVG 1.1//EN"
 "http://www.w3.org/Graphics/SVG/1.1/DTD/svg11.dtd">
<!-- Generated by graphviz version 2.43.0 (0)
 -->
<!-- Title: com.cliffc.aa.node.CallNode.is_pure_call Pages: 1 -->
<svg width="572pt" height="116pt"
 viewBox="0.00 0.00 572.00 116.00" xmlns="http://www.w3.org/2000/svg" xmlns:xlink="http://www.w3.org/1999/xlink">
<g id="graph0" class="graph" transform="scale(1 1) rotate(0) translate(4 112)">
<title>com.cliffc.aa.node.CallNode.is_pure_call</title>
<!-- Node1 -->
<g id="node1" class="node">
<title>Node1</title>
<g id="a_node1"><a xlink:title=" ">
<polygon fill="#bfbfbf" stroke="black" points="0,-39 0,-69 164,-69 164,-39 0,-39"/>
<text text-anchor="start" x="8" y="-57" font-family="Helvetica,sans-Serif" font-size="10.00">com.cliffc.aa.node.CallNode.is</text>
<text text-anchor="middle" x="82" y="-46" font-family="Helvetica,sans-Serif" font-size="10.00">_pure_call</text>
</a>
</g>
</g>
<!-- Node2 -->
<g id="node2" class="node">
<title>Node2</title>
<g id="a_node2"><a xlink:href="../../d0/d2b/a01010.html#ac49192868e4e019c937493b05ae55329" target="_top" xlink:title=" ">
<polygon fill="none" stroke="black" points="205,-88.5 205,-107.5 377,-107.5 377,-88.5 205,-88.5"/>
<text text-anchor="middle" x="291" y="-95.5" font-family="Helvetica,sans-Serif" font-size="10.00">com.cliffc.aa.node.CallNode.fdx</text>
</a>
</g>
</g>
<!-- Node1&#45;&gt;Node2 -->
<g id="edge1" class="edge">
<title>Node1&#45;&gt;Node2</title>
<path fill="none" stroke="midnightblue" d="M153.22,-69.03C168.63,-72.32 184.86,-75.79 200,-79 211.24,-81.39 223.26,-83.93 234.75,-86.36"/>
<polygon fill="midnightblue" stroke="midnightblue" points="234.16,-89.81 244.67,-88.45 235.61,-82.96 234.16,-89.81"/>
</g>
<!-- Node3 -->
<g id="node3" class="node">
<title>Node3</title>
<g id="a_node3"><a xlink:href="../../df/db5/a01158.html#a760b86145d0393d7c96f9c80dbd71a2f" target="_top" xlink:title=" ">
<polygon fill="none" stroke="black" points="218,-39 218,-69 364,-69 364,-39 218,-39"/>
<text text-anchor="start" x="226" y="-57" font-family="Helvetica,sans-Serif" font-size="10.00">com.cliffc.aa.node.Node.is</text>
<text text-anchor="middle" x="291" y="-46" font-family="Helvetica,sans-Serif" font-size="10.00">_pure_call</text>
</a>
</g>
</g>
<!-- Node1&#45;&gt;Node3 -->
<g id="edge2" class="edge">
<title>Node1&#45;&gt;Node3</title>
<path fill="none" stroke="midnightblue" d="M164.22,-54C178.44,-54 193.24,-54 207.5,-54"/>
<polygon fill="midnightblue" stroke="midnightblue" points="207.76,-57.5 217.76,-54 207.76,-50.5 207.76,-57.5"/>
</g>
<!-- Node4 -->
<g id="node4" class="node">
<title>Node4</title>
<g id="a_node4"><a xlink:href="../../d0/d2b/a01010.html#a51c5d2025c1fb1d16a6c18352f02f513" target="_top" xlink:title=" ">
<polygon fill="none" stroke="black" points="200,-0.5 200,-19.5 382,-19.5 382,-0.5 200,-0.5"/>
<text text-anchor="middle" x="291" y="-7.5" font-family="Helvetica,sans-Serif" font-size="10.00">com.cliffc.aa.node.CallNode.mem</text>
</a>
</g>
</g>
<!-- Node1&#45;&gt;Node4 -->
<g id="edge3" class="edge">
<title>Node1&#45;&gt;Node4</title>
<path fill="none" stroke="midnightblue" d="M153.66,-38.98C180.32,-33.31 210.22,-26.96 235.22,-21.64"/>
<polygon fill="midnightblue" stroke="midnightblue" points="236.19,-25.02 245.25,-19.51 234.74,-18.17 236.19,-25.02"/>
</g>
<!-- Node5 -->
<g id="node5" class="node">
<title>Node5</title>
<g id="a_node5"><a xlink:href="../../df/db5/a01158.html#a9a46cea187559f94192aa6e09b91c60c" target="_top" xlink:title=" ">
<polygon fill="none" stroke="black" points="418,-0.5 418,-19.5 564,-19.5 564,-0.5 418,-0.5"/>
<text text-anchor="middle" x="491" y="-7.5" font-family="Helvetica,sans-Serif" font-size="10.00">com.cliffc.aa.node.Node.in</text>
</a>
</g>
</g>
<!-- Node4&#45;&gt;Node5 -->
<g id="edge4" class="edge">
<title>Node4&#45;&gt;Node5</title>
<path fill="none" stroke="midnightblue" d="M382.02,-10C390.59,-10 399.25,-10 407.74,-10"/>
<polygon fill="midnightblue" stroke="midnightblue" points="408,-13.5 418,-10 408,-6.5 408,-13.5"/>
</g>
</g>
</svg>
