<?xml version="1.0" encoding="UTF-8" standalone="no"?>
<!DOCTYPE svg PUBLIC "-//W3C//DTD SVG 1.1//EN"
 "http://www.w3.org/Graphics/SVG/1.1/DTD/svg11.dtd">
<!-- Generated by graphviz version 2.43.0 (0)
 -->
<!-- Title: com.cliffc.aa.node.CallNode.mem Pages: 1 -->
<!--zoomable 634 -->
<svg id="main" version="1.1" xmlns="http://www.w3.org/2000/svg" xmlns:xlink="http://www.w3.org/1999/xlink" xml:space="preserve" onload="init(evt)">
<style type="text/css"><![CDATA[
.edge:hover path { stroke: red; }
.edge:hover polygon { stroke: red; fill: red; }
]]></style>
<script type="text/javascript"><![CDATA[
var edges = document.getElementsByTagName('g');
if (edges && edges.length) {
  for (var i=0;i<edges.length;i++) {
    if (edges[i].id.substr(0,4)=='edge') {
      edges[i].setAttribute('class','edge');
    }
  }
}
]]></script>
        <defs>
                <circle id="rim" cx="0" cy="0" r="7"/>
                <circle id="rim2" cx="0" cy="0" r="3.5"/>
                <g id="zoomPlus">
                        <use xlink:href="#rim" fill="#404040">
                                <set attributeName="fill" to="#808080" begin="zoomplus.mouseover" end="zoomplus.mouseout"/>
                        </use>
                        <path d="M-4,0h8M0,-4v8" fill="none" stroke="white" stroke-width="1.5" pointer-events="none"/>
                </g>
                <g id="zoomMin">
                        <use xlink:href="#rim" fill="#404040">
                                <set attributeName="fill" to="#808080" begin="zoomminus.mouseover" end="zoomminus.mouseout"/>
                        </use>
                        <path d="M-4,0h8" fill="none" stroke="white" stroke-width="1.5" pointer-events="none"/>
                </g>
                <g id="dirArrow">
                        <path fill="none" stroke="white" stroke-width="1.5" d="M0,-3.0v7 M-2.5,-0.5L0,-3.0L2.5,-0.5"/>
                </g>
               <g id="resetDef">
                       <use xlink:href="#rim2" fill="#404040">
                               <set attributeName="fill" to="#808080" begin="reset.mouseover" end="reset.mouseout"/>
                       </use>
               </g>
        </defs>

<script type="text/javascript">
var viewWidth = 911;
var viewHeight = 634;
var sectionId = 'dynsection-105';
</script>
<script xlink:href="../../svgpan.js"/>
<svg id="graph" class="graph">
<g id="viewport">
<title>com.cliffc.aa.node.CallNode.mem</title>
<!-- Node1 -->
<g id="node1" class="node">
<title>Node1</title>
<g id="a_node1"><a xlink:title=" ">
<polygon fill="#bfbfbf" stroke="black" points="721,-307 721,-326 903,-326 903,-307 721,-307"/>
<text text-anchor="middle" x="812" y="-314" font-family="Helvetica,sans-Serif" font-size="10.00">com.cliffc.aa.node.CallNode.mem</text>
</a>
</g>
</g>
<!-- Node2 -->
<g id="node2" class="node">
<title>Node2</title>
<g id="a_node2"><a xlink:href="../../d0/dfb/a01066.html#a12f88e04b21088732a8ef9ecb8354b3c" target="_top" xlink:title=" ">
<polygon fill="none" stroke="black" points="503.5,-595.5 503.5,-625.5 664.5,-625.5 664.5,-595.5 503.5,-595.5"/>
<text text-anchor="start" x="511.5" y="-613.5" font-family="Helvetica,sans-Serif" font-size="10.00">com.cliffc.aa.node.LoadNode.</text>
<text text-anchor="middle" x="584" y="-602.5" font-family="Helvetica,sans-Serif" font-size="10.00">_find_previous_store_call</text>
</a>
</g>
</g>
<!-- Node1&#45;&gt;Node2 -->
<g id="edge1" class="edge">
<title>Node1&#45;&gt;Node2</title>
<path fill="none" stroke="midnightblue" d="M807.34,-336C797.16,-384.76 763.89,-512.9 685,-580.5 677.84,-586.63 669.47,-591.51 660.66,-595.39"/>
<polygon fill="midnightblue" stroke="midnightblue" points="810.79,-336.61 809.31,-326.12 803.92,-335.24 810.79,-336.61"/>
</g>
<!-- Node5 -->
<g id="node5" class="node">
<title>Node5</title>
<g id="a_node5"><a xlink:href="../../d0/d2b/a01010.html#ab379c52becb0c5ae2aea5dfa6046eea2" target="_top" xlink:title=" ">
<polygon fill="none" stroke="black" points="268,-469.5 268,-499.5 424,-499.5 424,-469.5 268,-469.5"/>
<text text-anchor="start" x="276" y="-487.5" font-family="Helvetica,sans-Serif" font-size="10.00">com.cliffc.aa.node.CallNode.</text>
<text text-anchor="middle" x="346" y="-476.5" font-family="Helvetica,sans-Serif" font-size="10.00">_ideal_grow</text>
</a>
</g>
</g>
<!-- Node1&#45;&gt;Node5 -->
<g id="edge4" class="edge">
<title>Node1&#45;&gt;Node5</title>
<path fill="none" stroke="midnightblue" d="M801.02,-335.25C782.81,-367.27 740.88,-431.73 685,-459.5 602.93,-500.28 495.61,-500.69 424.15,-494.76"/>
<polygon fill="midnightblue" stroke="midnightblue" points="804.31,-336.52 806.08,-326.08 798.18,-333.14 804.31,-336.52"/>
</g>
<!-- Node6 -->
<g id="node6" class="node">
<title>Node6</title>
<g id="a_node6"><a xlink:href="../../d0/d2b/a01010.html#a88196b80c9958b84e83d3d5e8967ec48" target="_top" xlink:title=" ">
<polygon fill="none" stroke="black" points="0,-519 0,-538 209,-538 209,-519 0,-519"/>
<text text-anchor="middle" x="104.5" y="-526" font-family="Helvetica,sans-Serif" font-size="10.00">com.cliffc.aa.node.CallNode.ideal_grow</text>
</a>
</g>
</g>
<!-- Node1&#45;&gt;Node6 -->
<g id="edge18" class="edge">
<title>Node1&#45;&gt;Node6</title>
<path fill="none" stroke="midnightblue" d="M806.04,-336.08C793.85,-379.6 758,-484.13 685,-529.5 518.77,-632.81 440.27,-560.74 245,-547.5 217.69,-545.65 187.57,-541.78 162.33,-538.01"/>
<polygon fill="midnightblue" stroke="midnightblue" points="809.42,-336.96 808.63,-326.4 802.66,-335.15 809.42,-336.96"/>
</g>
<!-- Node7 -->
<g id="node7" class="node">
<title>Node7</title>
<g id="a_node7"><a xlink:href="../../d0/d2b/a01010.html#a9b26fb38a1bb993fff7dbc4250f2ad5d" target="_top" xlink:title=" ">
<polygon fill="none" stroke="black" points="259,-343.5 259,-373.5 433,-373.5 433,-343.5 259,-343.5"/>
<text text-anchor="start" x="267" y="-361.5" font-family="Helvetica,sans-Serif" font-size="10.00">com.cliffc.aa.node.CallNode.add</text>
<text text-anchor="middle" x="346" y="-350.5" font-family="Helvetica,sans-Serif" font-size="10.00">_flow_use_extra</text>
</a>
</g>
</g>
<!-- Node1&#45;&gt;Node7 -->
<g id="edge6" class="edge">
<title>Node1&#45;&gt;Node7</title>
<path fill="none" stroke="midnightblue" d="M744.26,-327.6C725.16,-330.5 704.29,-333.39 685,-335.5 599.64,-344.82 501.7,-350.99 433.3,-354.57"/>
<polygon fill="midnightblue" stroke="midnightblue" points="745.01,-331.03 754.36,-326.05 743.95,-324.11 745.01,-331.03"/>
</g>
<!-- Node8 -->
<g id="node8" class="node">
<title>Node8</title>
<g id="a_node8"><a xlink:href="../../d0/d2b/a01010.html#aef07a2283d73f9f60f0215af08389efb" target="_top" xlink:title=" ">
<polygon fill="none" stroke="black" points="14.5,-365.5 14.5,-395.5 194.5,-395.5 194.5,-365.5 14.5,-365.5"/>
<text text-anchor="start" x="22.5" y="-383.5" font-family="Helvetica,sans-Serif" font-size="10.00">com.cliffc.aa.node.CallNode.ideal</text>
<text text-anchor="middle" x="104.5" y="-372.5" font-family="Helvetica,sans-Serif" font-size="10.00">_reduce</text>
</a>
</g>
</g>
<!-- Node1&#45;&gt;Node8 -->
<g id="edge20" class="edge">
<title>Node1&#45;&gt;Node8</title>
<path fill="none" stroke="midnightblue" d="M777.36,-329.54C752.28,-338.75 716.97,-350.63 685,-357.5 514.45,-394.15 309.33,-391.73 194.55,-386.33"/>
<polygon fill="midnightblue" stroke="midnightblue" points="778.63,-332.8 786.78,-326.03 776.19,-326.24 778.63,-332.8"/>
</g>
<!-- Node9 -->
<g id="node9" class="node">
<title>Node9</title>
<g id="a_node9"><a xlink:href="../../d0/d2b/a01010.html#a17a1cb4673e92be7f8d369783afa708f" target="_top" xlink:title=" ">
<polygon fill="none" stroke="black" points="497,-132.5 497,-162.5 671,-162.5 671,-132.5 497,-132.5"/>
<text text-anchor="start" x="505" y="-150.5" font-family="Helvetica,sans-Serif" font-size="10.00">com.cliffc.aa.node.CallNode.add</text>
<text text-anchor="middle" x="584" y="-139.5" font-family="Helvetica,sans-Serif" font-size="10.00">_reduce_extra</text>
</a>
</g>
</g>
<!-- Node1&#45;&gt;Node9 -->
<g id="edge8" class="edge">
<title>Node1&#45;&gt;Node9</title>
<path fill="none" stroke="midnightblue" d="M799.96,-297.71C780.71,-266.65 737.95,-204.85 685,-172.5 678.66,-168.63 671.75,-165.35 664.62,-162.59"/>
<polygon fill="midnightblue" stroke="midnightblue" points="797.19,-299.89 805.37,-306.63 803.18,-296.27 797.19,-299.89"/>
</g>
<!-- Node10 -->
<g id="node10" class="node">
<title>Node10</title>
<g id="a_node10"><a xlink:href="../../d3/dc7/a01170.html#a2064728d0ff661c5f5e922990dc8fc1d" target="_top" xlink:title=" ">
<polygon fill="none" stroke="black" points="496,-94 496,-113 672,-113 672,-94 496,-94"/>
<text text-anchor="middle" x="584" y="-101" font-family="Helvetica,sans-Serif" font-size="10.00">com.cliffc.aa.node.ParmNode.err</text>
</a>
</g>
</g>
<!-- Node1&#45;&gt;Node10 -->
<g id="edge9" class="edge">
<title>Node1&#45;&gt;Node10</title>
<path fill="none" stroke="midnightblue" d="M804.46,-297.33C789.87,-257.66 750.67,-166.59 685,-122.5 679.28,-118.66 672.98,-115.55 666.41,-113.03"/>
<polygon fill="midnightblue" stroke="midnightblue" points="801.21,-298.62 807.86,-306.87 807.8,-296.27 801.21,-298.62"/>
</g>
<!-- Node11 -->
<g id="node11" class="node">
<title>Node11</title>
<g id="a_node11"><a xlink:href="../../d0/d2b/a01010.html#a36a8626bf90bfda234be1168d92b67f3" target="_top" xlink:title=" ">
<polygon fill="none" stroke="black" points="499,-307 499,-326 669,-326 669,-307 499,-307"/>
<text text-anchor="middle" x="584" y="-314" font-family="Helvetica,sans-Serif" font-size="10.00">com.cliffc.aa.node.CallNode.err</text>
</a>
</g>
</g>
<!-- Node1&#45;&gt;Node11 -->
<g id="edge10" class="edge">
<title>Node1&#45;&gt;Node11</title>
<path fill="none" stroke="midnightblue" d="M710.69,-316.5C696.87,-316.5 682.78,-316.5 669.28,-316.5"/>
<polygon fill="midnightblue" stroke="midnightblue" points="710.7,-320 720.7,-316.5 710.7,-313 710.7,-320"/>
</g>
<!-- Node13 -->
<g id="node13" class="node">
<title>Node13</title>
<g id="a_node13"><a xlink:href="../../dc/d81/a01006.html#a2fc8d45a36328634008e89d520cfb885" target="_top" xlink:title=" ">
<polygon fill="none" stroke="black" points="274.5,-167.5 274.5,-197.5 417.5,-197.5 417.5,-167.5 274.5,-167.5"/>
<text text-anchor="start" x="282.5" y="-185.5" font-family="Helvetica,sans-Serif" font-size="10.00">com.cliffc.aa.node.CallEpi</text>
<text text-anchor="middle" x="346" y="-174.5" font-family="Helvetica,sans-Serif" font-size="10.00">Node.ideal_reduce</text>
</a>
</g>
</g>
<!-- Node1&#45;&gt;Node13 -->
<g id="edge19" class="edge">
<title>Node1&#45;&gt;Node13</title>
<path fill="none" stroke="midnightblue" d="M786.63,-301.79C761.89,-287.53 722.06,-266.36 685,-254.5 598.36,-226.78 570.76,-245.45 483,-221.5 466.44,-216.98 463.36,-212.7 447,-207.5 435.83,-203.95 423.83,-200.58 412.15,-197.53"/>
<polygon fill="midnightblue" stroke="midnightblue" points="784.93,-304.86 795.33,-306.89 788.47,-298.81 784.93,-304.86"/>
</g>
<!-- Node14 -->
<g id="node14" class="node">
<title>Node14</title>
<g id="a_node14"><a xlink:href="../../d0/d2b/a01010.html#a21fa6d626c9b5de9200143339540c864" target="_top" xlink:title=" ">
<polygon fill="none" stroke="black" points="247.5,-217 247.5,-236 444.5,-236 444.5,-217 247.5,-217"/>
<text text-anchor="middle" x="346" y="-224" font-family="Helvetica,sans-Serif" font-size="10.00">com.cliffc.aa.node.CallNode.live_use</text>
</a>
</g>
</g>
<!-- Node1&#45;&gt;Node14 -->
<g id="edge24" class="edge">
<title>Node1&#45;&gt;Node14</title>
<path fill="none" stroke="midnightblue" d="M747.93,-305.19C681.8,-293.2 574.92,-273.4 483,-254.5 466.95,-251.2 463.04,-249.89 447,-246.5 430.28,-242.97 411.96,-239.26 395.62,-236.01"/>
<polygon fill="midnightblue" stroke="midnightblue" points="747.32,-308.64 757.78,-306.98 748.56,-301.75 747.32,-308.64"/>
</g>
<!-- Node15 -->
<g id="node15" class="node">
<title>Node15</title>
<g id="a_node15"><a xlink:href="../../d0/d2b/a01010.html#a5b34a20cc97a31a50a5dc1b5450f62fd" target="_top" xlink:title=" ">
<polygon fill="none" stroke="black" points="245,-519 245,-538 447,-538 447,-519 245,-519"/>
<text text-anchor="middle" x="346" y="-526" font-family="Helvetica,sans-Serif" font-size="10.00">com.cliffc.aa.node.CallNode.escapees</text>
</a>
</g>
</g>
<!-- Node1&#45;&gt;Node15 -->
<g id="edge16" class="edge">
<title>Node1&#45;&gt;Node15</title>
<path fill="none" stroke="midnightblue" d="M803.66,-335.61C788.15,-373.05 748.21,-455.65 685,-492.5 608.4,-537.15 505.28,-541.79 433.16,-538.01"/>
<polygon fill="midnightblue" stroke="midnightblue" points="806.91,-336.9 807.38,-326.32 800.41,-334.3 806.91,-336.9"/>
</g>
<!-- Node16 -->
<g id="node16" class="node">
<title>Node16</title>
<g id="a_node16"><a xlink:href="../../d0/d2b/a01010.html#a299d078249cca5ce9b32282cf3ccc38f" target="_top" xlink:title=" ">
<polygon fill="none" stroke="black" points="502,-181.5 502,-211.5 666,-211.5 666,-181.5 502,-181.5"/>
<text text-anchor="start" x="510" y="-199.5" font-family="Helvetica,sans-Serif" font-size="10.00">com.cliffc.aa.node.CallNode.is</text>
<text text-anchor="middle" x="584" y="-188.5" font-family="Helvetica,sans-Serif" font-size="10.00">_pure_call</text>
</a>
</g>
</g>
<!-- Node1&#45;&gt;Node16 -->
<g id="edge21" class="edge">
<title>Node1&#45;&gt;Node16</title>
<path fill="none" stroke="midnightblue" d="M792.57,-300.33C769.07,-280.44 726.49,-246.84 685,-226.5 673.04,-220.64 659.7,-215.67 646.77,-211.56"/>
<polygon fill="midnightblue" stroke="midnightblue" points="790.46,-303.13 800.33,-306.98 795.02,-297.81 790.46,-303.13"/>
</g>
<!-- Node18 -->
<g id="node18" class="node">
<title>Node18</title>
<g id="a_node18"><a xlink:href="../../d0/d2b/a01010.html#a3d9983845f14ca82818bfdc6fcb1f160" target="_top" xlink:title=" ">
<polygon fill="none" stroke="black" points="483,-431 483,-450 685,-450 685,-431 483,-431"/>
<text text-anchor="middle" x="584" y="-438" font-family="Helvetica,sans-Serif" font-size="10.00">com.cliffc.aa.node.CallNode.set_mem</text>
</a>
</g>
</g>
<!-- Node1&#45;&gt;Node18 -->
<g id="edge25" class="edge">
<title>Node1&#45;&gt;Node18</title>
<path fill="none" stroke="midnightblue" d="M794.81,-333.3C772.28,-355.68 729.25,-394.95 685,-416.5 672.08,-422.79 657.4,-427.5 643.34,-431"/>
<polygon fill="midnightblue" stroke="midnightblue" points="797.34,-335.72 801.89,-326.15 792.37,-330.79 797.34,-335.72"/>
</g>
<!-- Node19 -->
<g id="node19" class="node">
<title>Node19</title>
<g id="a_node19"><a xlink:href="../../dc/d81/a01006.html#abb422a6e7ca1e2d4c40517cc0197a237" target="_top" xlink:title=" ">
<polygon fill="none" stroke="black" points="512.5,-44.5 512.5,-74.5 655.5,-74.5 655.5,-44.5 512.5,-44.5"/>
<text text-anchor="start" x="520.5" y="-62.5" font-family="Helvetica,sans-Serif" font-size="10.00">com.cliffc.aa.node.CallEpi</text>
<text text-anchor="middle" x="584" y="-51.5" font-family="Helvetica,sans-Serif" font-size="10.00">Node.value</text>
</a>
</g>
</g>
<!-- Node1&#45;&gt;Node19 -->
<g id="edge28" class="edge">
<title>Node1&#45;&gt;Node19</title>
<path fill="none" stroke="midnightblue" d="M806.13,-296.77C793.96,-251.73 757.82,-140.91 685,-84.5 676.37,-77.81 666.18,-72.9 655.65,-69.28"/>
<polygon fill="midnightblue" stroke="midnightblue" points="802.82,-297.93 808.72,-306.73 809.59,-296.17 802.82,-297.93"/>
</g>
<!-- Node20 -->
<g id="node20" class="node">
<title>Node20</title>
<g id="a_node20"><a xlink:href="../../d0/d2b/a01010.html#adc042d1089c8080084332bce5869f028" target="_top" xlink:title=" ">
<polygon fill="none" stroke="black" points="492.5,-6 492.5,-25 675.5,-25 675.5,-6 492.5,-6"/>
<text text-anchor="middle" x="584" y="-13" font-family="Helvetica,sans-Serif" font-size="10.00">com.cliffc.aa.node.CallNode.value</text>
</a>
</g>
</g>
<!-- Node1&#45;&gt;Node20 -->
<g id="edge29" class="edge">
<title>Node1&#45;&gt;Node20</title>
<path fill="none" stroke="midnightblue" d="M808.47,-296.9C800.66,-245 771.99,-103.3 685,-34.5 680.29,-30.77 675.06,-27.7 669.55,-25.17"/>
<polygon fill="midnightblue" stroke="midnightblue" points="805,-297.39 809.86,-306.81 811.93,-296.42 805,-297.39"/>
</g>
<!-- Node3 -->
<g id="node3" class="node">
<title>Node3</title>
<g id="a_node3"><a xlink:href="../../d0/dfb/a01066.html#a14a8ca3940ab377a67de458b109a36d9" target="_top" xlink:title=" ">
<polygon fill="none" stroke="black" points="256.5,-595.5 256.5,-625.5 435.5,-625.5 435.5,-595.5 256.5,-595.5"/>
<text text-anchor="start" x="264.5" y="-613.5" font-family="Helvetica,sans-Serif" font-size="10.00">com.cliffc.aa.node.LoadNode.find</text>
<text text-anchor="middle" x="346" y="-602.5" font-family="Helvetica,sans-Serif" font-size="10.00">_previous_store</text>
</a>
</g>
</g>
<!-- Node2&#45;&gt;Node3 -->
<g id="edge2" class="edge">
<title>Node2&#45;&gt;Node3</title>
<path fill="none" stroke="midnightblue" d="M493.34,-610.5C474.41,-610.5 454.45,-610.5 435.56,-610.5"/>
<polygon fill="midnightblue" stroke="midnightblue" points="493.43,-614 503.43,-610.5 493.43,-607 493.43,-614"/>
</g>
<!-- Node4 -->
<g id="node4" class="node">
<title>Node4</title>
<g id="a_node4"><a xlink:href="../../d0/dfb/a01066.html#af687a97365428ba2560bff84c7d20eff" target="_top" xlink:title=" ">
<polygon fill="none" stroke="black" points="12,-595.5 12,-625.5 197,-625.5 197,-595.5 12,-595.5"/>
<text text-anchor="start" x="20" y="-613.5" font-family="Helvetica,sans-Serif" font-size="10.00">com.cliffc.aa.node.LoadNode.ideal</text>
<text text-anchor="middle" x="104.5" y="-602.5" font-family="Helvetica,sans-Serif" font-size="10.00">_reduce</text>
</a>
</g>
</g>
<!-- Node3&#45;&gt;Node4 -->
<g id="edge3" class="edge">
<title>Node3&#45;&gt;Node4</title>
<path fill="none" stroke="midnightblue" d="M246.44,-610.5C230.17,-610.5 213.35,-610.5 197.24,-610.5"/>
<polygon fill="midnightblue" stroke="midnightblue" points="246.5,-614 256.5,-610.5 246.5,-607 246.5,-614"/>
</g>
<!-- Node5&#45;&gt;Node6 -->
<g id="edge5" class="edge">
<title>Node5&#45;&gt;Node6</title>
<path fill="none" stroke="midnightblue" d="M258.04,-500.48C224.32,-506.67 186.85,-513.55 157.49,-518.95"/>
<polygon fill="midnightblue" stroke="midnightblue" points="258.7,-503.91 267.9,-498.66 257.43,-497.03 258.7,-503.91"/>
</g>
<!-- Node7&#45;&gt;Node8 -->
<g id="edge7" class="edge">
<title>Node7&#45;&gt;Node8</title>
<path fill="none" stroke="midnightblue" d="M248.54,-367.36C230.82,-368.99 212.4,-370.68 194.9,-372.29"/>
<polygon fill="midnightblue" stroke="midnightblue" points="249.24,-370.81 258.87,-366.41 248.6,-363.84 249.24,-370.81"/>
</g>
<!-- Node11&#45;&gt;Node7 -->
<g id="edge12" class="edge">
<title>Node11&#45;&gt;Node7</title>
<path fill="none" stroke="midnightblue" d="M519.33,-327.83C492.27,-332.65 460.34,-338.33 431.36,-343.49"/>
<polygon fill="midnightblue" stroke="midnightblue" points="520.22,-331.23 529.45,-326.03 518.99,-324.34 520.22,-331.23"/>
</g>
<!-- Node11&#45;&gt;Node8 -->
<g id="edge14" class="edge">
<title>Node11&#45;&gt;Node8</title>
<path fill="none" stroke="midnightblue" d="M488.63,-314.87C420.39,-315.3 326.3,-319.21 245,-334.5 209.16,-341.24 169.83,-354.8 142.1,-365.46"/>
<polygon fill="midnightblue" stroke="midnightblue" points="488.94,-318.37 498.92,-314.83 488.91,-311.37 488.94,-318.37"/>
</g>
<!-- Node12 -->
<g id="node12" class="node">
<title>Node12</title>
<g id="a_node12"><a xlink:href="../../d0/d2b/a01010.html#a042f1a0b299eddc17b23da554e088150" target="_top" xlink:title=" ">
<polygon fill="none" stroke="black" points="259,-255.5 259,-285.5 433,-285.5 433,-255.5 259,-255.5"/>
<text text-anchor="start" x="267" y="-273.5" font-family="Helvetica,sans-Serif" font-size="10.00">com.cliffc.aa.node.CallNode.add</text>
<text text-anchor="middle" x="346" y="-262.5" font-family="Helvetica,sans-Serif" font-size="10.00">_flow_extra</text>
</a>
</g>
</g>
<!-- Node11&#45;&gt;Node12 -->
<g id="edge11" class="edge">
<title>Node11&#45;&gt;Node12</title>
<path fill="none" stroke="midnightblue" d="M524.13,-305.03C493.9,-299.13 456.68,-291.88 424.18,-285.54"/>
<polygon fill="midnightblue" stroke="midnightblue" points="523.62,-308.49 534.1,-306.97 524.95,-301.62 523.62,-308.49"/>
</g>
<!-- Node11&#45;&gt;Node13 -->
<g id="edge13" class="edge">
<title>Node11&#45;&gt;Node13</title>
<path fill="none" stroke="midnightblue" d="M554.06,-302.2C533,-290.97 504.53,-274 483,-254.5 463.5,-236.83 468.99,-221.94 447,-207.5 438.1,-201.66 427.93,-197.18 417.57,-193.75"/>
<polygon fill="midnightblue" stroke="midnightblue" points="552.67,-305.43 563.16,-306.95 555.91,-299.22 552.67,-305.43"/>
</g>
<!-- Node11&#45;&gt;Node14 -->
<g id="edge15" class="edge">
<title>Node11&#45;&gt;Node14</title>
<path fill="none" stroke="midnightblue" d="M506.22,-303.78C498.04,-300.78 490.13,-297.08 483,-292.5 461.16,-278.47 469.1,-260.12 447,-246.5 439.99,-242.18 432.23,-238.77 424.22,-236.09"/>
<polygon fill="midnightblue" stroke="midnightblue" points="505.3,-307.17 515.9,-306.99 507.5,-300.52 505.3,-307.17"/>
</g>
<!-- Node15&#45;&gt;Node6 -->
<g id="edge17" class="edge">
<title>Node15&#45;&gt;Node6</title>
<path fill="none" stroke="midnightblue" d="M234.82,-528.5C226.26,-528.5 217.64,-528.5 209.13,-528.5"/>
<polygon fill="midnightblue" stroke="midnightblue" points="234.82,-532 244.82,-528.5 234.82,-525 234.82,-532"/>
</g>
<!-- Node16&#45;&gt;Node13 -->
<g id="edge22" class="edge">
<title>Node16&#45;&gt;Node13</title>
<path fill="none" stroke="midnightblue" d="M491.74,-191.09C467.18,-189.63 440.99,-188.08 417.73,-186.7"/>
<polygon fill="midnightblue" stroke="midnightblue" points="491.59,-194.58 501.78,-191.68 492.01,-187.6 491.59,-194.58"/>
</g>
<!-- Node17 -->
<g id="node17" class="node">
<title>Node17</title>
<g id="a_node17"><a xlink:href="../../dc/d81/a01006.html#afa9d5491213b331a911ae7da0c52d71e" target="_top" xlink:title=" ">
<polygon fill="none" stroke="black" points="274.5,-118.5 274.5,-148.5 417.5,-148.5 417.5,-118.5 274.5,-118.5"/>
<text text-anchor="start" x="282.5" y="-136.5" font-family="Helvetica,sans-Serif" font-size="10.00">com.cliffc.aa.node.CallEpi</text>
<text text-anchor="middle" x="346" y="-125.5" font-family="Helvetica,sans-Serif" font-size="10.00">Node.is_pure_call</text>
</a>
</g>
</g>
<!-- Node16&#45;&gt;Node17 -->
<g id="edge23" class="edge">
<title>Node16&#45;&gt;Node17</title>
<path fill="none" stroke="midnightblue" d="M508.87,-178.86C500.11,-176.52 491.33,-174.04 483,-171.5 466.73,-166.54 463.27,-163.46 447,-158.5 435.53,-155.01 423.22,-151.63 411.28,-148.54"/>
<polygon fill="midnightblue" stroke="midnightblue" points="508.16,-182.3 518.72,-181.46 509.94,-175.53 508.16,-182.3"/>
</g>
<!-- Node18&#45;&gt;Node5 -->
<g id="edge26" class="edge">
<title>Node18&#45;&gt;Node5</title>
<path fill="none" stroke="midnightblue" d="M521.93,-451.89C492.09,-457.45 455.86,-464.2 424.13,-470.12"/>
<polygon fill="midnightblue" stroke="midnightblue" points="522.6,-455.32 531.79,-450.05 521.32,-448.44 522.6,-455.32"/>
</g>
<!-- Node18&#45;&gt;Node8 -->
<g id="edge27" class="edge">
<title>Node18&#45;&gt;Node8</title>
<path fill="none" stroke="midnightblue" d="M472.93,-437.74C406.56,-434.82 320.52,-428.82 245,-416.5 214.64,-411.55 181.25,-403.04 154.75,-395.54"/>
<polygon fill="midnightblue" stroke="midnightblue" points="472.85,-441.24 482.99,-438.16 473.14,-434.24 472.85,-441.24"/>
</g>
<!-- Node21 -->
<g id="node21" class="node">
<title>Node21</title>
<g id="a_node21"><a xlink:href="../../d4/d8e/a01694.html#a5348bc687a77cb15570f88cd5a12dabe" target="_top" xlink:title=" ">
<polygon fill="none" stroke="black" points="268.5,-0.5 268.5,-30.5 423.5,-30.5 423.5,-0.5 268.5,-0.5"/>
<text text-anchor="start" x="276.5" y="-18.5" font-family="Helvetica,sans-Serif" font-size="10.00">com.cliffc.aa.node.TestNode</text>
<text text-anchor="middle" x="346" y="-7.5" font-family="Helvetica,sans-Serif" font-size="10.00">Small.testCallNodeResolve2</text>
</a>
</g>
</g>
<!-- Node20&#45;&gt;Node21 -->
<g id="edge30" class="edge">
<title>Node20&#45;&gt;Node21</title>
<path fill="none" stroke="midnightblue" d="M482.22,-15.5C462.55,-15.5 442.23,-15.5 423.51,-15.5"/>
<polygon fill="midnightblue" stroke="midnightblue" points="482.43,-19 492.43,-15.5 482.43,-12 482.43,-19"/>
</g>
</g>
</svg>
        <g id="navigator" transform="translate(0 0)" fill="#404254">
                <rect fill="#f2f5e9" fill-opacity="0.5" stroke="#606060" stroke-width=".5" x="0" y="0" width="60" height="60"/>
                <use id="zoomplus" xlink:href="#zoomPlus" x="17" y="9" onmousedown="handleZoom(evt,'in')"/>
                <use id="zoomminus" xlink:href="#zoomMin" x="42" y="9" onmousedown="handleZoom(evt,'out')"/>
                <use id="reset" xlink:href="#resetDef" x="30" y="36" onmousedown="handleReset()"/>
                <g id="arrowUp" xlink:href="#dirArrow" transform="translate(30 24)" onmousedown="handlePan(0,-1)">
                  <use xlink:href="#rim" fill="#404040">
                        <set attributeName="fill" to="#808080" begin="arrowUp.mouseover" end="arrowUp.mouseout"/>
                  </use>
                  <path fill="none" stroke="white" stroke-width="1.5" d="M0,-3.0v7 M-2.5,-0.5L0,-3.0L2.5,-0.5"/>
                </g>
                <g id="arrowRight" xlink:href="#dirArrow" transform="rotate(90) translate(36 -43)" onmousedown="handlePan(1,0)">
                  <use xlink:href="#rim" fill="#404040">
                        <set attributeName="fill" to="#808080" begin="arrowRight.mouseover" end="arrowRight.mouseout"/>
                  </use>
                  <path fill="none" stroke="white" stroke-width="1.5" d="M0,-3.0v7 M-2.5,-0.5L0,-3.0L2.5,-0.5"/>
                </g>
                <g id="arrowDown" xlink:href="#dirArrow" transform="rotate(180) translate(-30 -48)" onmousedown="handlePan(0,1)">
                  <use xlink:href="#rim" fill="#404040">
                        <set attributeName="fill" to="#808080" begin="arrowDown.mouseover" end="arrowDown.mouseout"/>
                  </use>
                  <path fill="none" stroke="white" stroke-width="1.5" d="M0,-3.0v7 M-2.5,-0.5L0,-3.0L2.5,-0.5"/>
                </g>
                <g id="arrowLeft" xlink:href="#dirArrow" transform="rotate(270) translate(-36 17)" onmousedown="handlePan(-1,0)">
                  <use xlink:href="#rim" fill="#404040">
                        <set attributeName="fill" to="#808080" begin="arrowLeft.mouseover" end="arrowLeft.mouseout"/>
                  </use>
                  <path fill="none" stroke="white" stroke-width="1.5" d="M0,-3.0v7 M-2.5,-0.5L0,-3.0L2.5,-0.5"/>
                </g>
        </g>
        <svg viewBox="0 0 15 15" width="100%" height="30px" preserveAspectRatio="xMaxYMin meet">
         <g id="arrow_out" transform="scale(0.3 0.3)">
          <a xlink:href="a01010_a51c5d2025c1fb1d16a6c18352f02f513_icgraph_org.svg" target="_base">
           <rect id="button" ry="5" rx="5" y="6" x="6" height="38" width="38"
                fill="#f2f5e9" fill-opacity="0.5" stroke="#606060" stroke-width="1.0"/>
           <path id="arrow"
             d="M 11.500037,31.436501 C 11.940474,20.09759 22.043105,11.32322 32.158766,21.979434 L 37.068811,17.246167 C 37.068811,17.246167 37.088388,32 37.088388,32 L 22.160133,31.978069 C 22.160133,31.978069 26.997745,27.140456 26.997745,27.140456 C 18.528582,18.264221 13.291696,25.230495 11.500037,31.436501 z"
             style="fill:#404040;"/>
          </a>
         </g>
        </svg>
</svg>
