<?xml version="1.0" encoding="UTF-8" standalone="no"?>
<!DOCTYPE svg PUBLIC "-//W3C//DTD SVG 1.1//EN"
 "http://www.w3.org/Graphics/SVG/1.1/DTD/svg11.dtd">
<!-- Generated by graphviz version 2.43.0 (0)
 -->
<!-- Title: com.cliffc.aa.node.CallNode.fidxs Pages: 1 -->
<svg width="395pt" height="78pt"
 viewBox="0.00 0.00 395.00 77.50" xmlns="http://www.w3.org/2000/svg" xmlns:xlink="http://www.w3.org/1999/xlink">
<g id="graph0" class="graph" transform="scale(1 1) rotate(0) translate(4 73.5)">
<title>com.cliffc.aa.node.CallNode.fidxs</title>
<!-- Node1 -->
<g id="node1" class="node">
<title>Node1</title>
<g id="a_node1"><a xlink:title=" ">
<polygon fill="#bfbfbf" stroke="black" points="0,-28 0,-47 179,-47 179,-28 0,-28"/>
<text text-anchor="middle" x="89.5" y="-35" font-family="Helvetica,sans-Serif" font-size="10.00">com.cliffc.aa.node.CallNode.fidxs</text>
</a>
</g>
</g>
<!-- Node2 -->
<g id="node2" class="node">
<title>Node2</title>
<g id="a_node2"><a xlink:href="../../d0/d2b/a01010.html#ac49192868e4e019c937493b05ae55329" target="_top" xlink:title=" ">
<polygon fill="none" stroke="black" points="215,-50 215,-69 387,-69 387,-50 215,-50"/>
<text text-anchor="middle" x="301" y="-57" font-family="Helvetica,sans-Serif" font-size="10.00">com.cliffc.aa.node.CallNode.fdx</text>
</a>
</g>
</g>
<!-- Node1&#45;&gt;Node2 -->
<g id="edge1" class="edge">
<title>Node1&#45;&gt;Node2</title>
<path fill="none" stroke="midnightblue" d="M179.04,-46.8C187.55,-47.69 196.21,-48.6 204.77,-49.5"/>
<polygon fill="midnightblue" stroke="midnightblue" points="204.47,-52.99 214.78,-50.55 205.2,-46.03 204.47,-52.99"/>
</g>
<!-- Node3 -->
<g id="node3" class="node">
<title>Node3</title>
<g id="a_node3"><a xlink:href="../../d8/d7b/a01478.html#aa25e7fb4217a6c132391f58312f06ec2" target="_top" xlink:title=" ">
<polygon fill="none" stroke="black" points="228,-0.5 228,-30.5 374,-30.5 374,-0.5 228,-0.5"/>
<text text-anchor="start" x="236" y="-18.5" font-family="Helvetica,sans-Serif" font-size="10.00">com.cliffc.aa.type.TypeFun</text>
<text text-anchor="middle" x="301" y="-7.5" font-family="Helvetica,sans-Serif" font-size="10.00">Ptr.fidxs</text>
</a>
</g>
</g>
<!-- Node1&#45;&gt;Node3 -->
<g id="edge2" class="edge">
<title>Node1&#45;&gt;Node3</title>
<path fill="none" stroke="midnightblue" d="M179.04,-28.2C191.91,-26.85 205.11,-25.46 217.84,-24.13"/>
<polygon fill="midnightblue" stroke="midnightblue" points="218.36,-27.59 227.94,-23.07 217.62,-20.63 218.36,-27.59"/>
</g>
</g>
</svg>
