<?xml version="1.0" encoding="UTF-8" standalone="no"?>
<!DOCTYPE svg PUBLIC "-//W3C//DTD SVG 1.1//EN"
 "http://www.w3.org/Graphics/SVG/1.1/DTD/svg11.dtd">
<!-- Generated by graphviz version 2.43.0 (0)
 -->
<!-- Title: com.cliffc.aa.node.CallNode.set_mem Pages: 1 -->
<svg width="1668pt" height="154pt"
 viewBox="0.00 0.00 1668.00 154.00" xmlns="http://www.w3.org/2000/svg" xmlns:xlink="http://www.w3.org/1999/xlink">
<g id="graph0" class="graph" transform="scale(1 1) rotate(0) translate(4 150)">
<title>com.cliffc.aa.node.CallNode.set_mem</title>
<!-- Node1 -->
<g id="node1" class="node">
<title>Node1</title>
<g id="a_node1"><a xlink:title=" ">
<polygon fill="#bfbfbf" stroke="black" points="0,-79.5 0,-98.5 202,-98.5 202,-79.5 0,-79.5"/>
<text text-anchor="middle" x="101" y="-86.5" font-family="Helvetica,sans-Serif" font-size="10.00">com.cliffc.aa.node.CallNode.set_mem</text>
</a>
</g>
</g>
<!-- Node2 -->
<g id="node2" class="node">
<title>Node2</title>
<g id="a_node2"><a xlink:href="../../d0/d2b/a01010.html#a51c5d2025c1fb1d16a6c18352f02f513" target="_top" xlink:title=" ">
<polygon fill="none" stroke="black" points="238,-98.5 238,-117.5 420,-117.5 420,-98.5 238,-98.5"/>
<text text-anchor="middle" x="329" y="-105.5" font-family="Helvetica,sans-Serif" font-size="10.00">com.cliffc.aa.node.CallNode.mem</text>
</a>
</g>
</g>
<!-- Node1&#45;&gt;Node2 -->
<g id="edge1" class="edge">
<title>Node1&#45;&gt;Node2</title>
<path fill="none" stroke="midnightblue" d="M202.11,-97.42C210.68,-98.14 219.36,-98.87 227.93,-99.59"/>
<polygon fill="midnightblue" stroke="midnightblue" points="227.67,-103.08 237.93,-100.43 228.26,-96.1 227.67,-103.08"/>
</g>
<!-- Node4 -->
<g id="node4" class="node">
<title>Node4</title>
<g id="a_node4"><a xlink:href="../../df/db5/a01158.html#a76827313ea74c03a0d11a9cbf9e11c6e" target="_top" xlink:title=" ">
<polygon fill="none" stroke="black" points="242.5,-60.5 242.5,-79.5 415.5,-79.5 415.5,-60.5 242.5,-60.5"/>
<text text-anchor="middle" x="329" y="-67.5" font-family="Helvetica,sans-Serif" font-size="10.00">com.cliffc.aa.node.Node.set_def</text>
</a>
</g>
</g>
<!-- Node1&#45;&gt;Node4 -->
<g id="edge3" class="edge">
<title>Node1&#45;&gt;Node4</title>
<path fill="none" stroke="midnightblue" d="M202.11,-80.58C212.21,-79.73 222.44,-78.87 232.49,-78.03"/>
<polygon fill="midnightblue" stroke="midnightblue" points="232.79,-81.52 242.46,-77.19 232.2,-74.54 232.79,-81.52"/>
</g>
<!-- Node3 -->
<g id="node3" class="node">
<title>Node3</title>
<g id="a_node3"><a xlink:href="../../df/db5/a01158.html#a9a46cea187559f94192aa6e09b91c60c" target="_top" xlink:title=" ">
<polygon fill="none" stroke="black" points="466.5,-98.5 466.5,-117.5 612.5,-117.5 612.5,-98.5 466.5,-98.5"/>
<text text-anchor="middle" x="539.5" y="-105.5" font-family="Helvetica,sans-Serif" font-size="10.00">com.cliffc.aa.node.Node.in</text>
</a>
</g>
</g>
<!-- Node2&#45;&gt;Node3 -->
<g id="edge2" class="edge">
<title>Node2&#45;&gt;Node3</title>
<path fill="none" stroke="midnightblue" d="M420.24,-108C432.16,-108 444.32,-108 456.1,-108"/>
<polygon fill="midnightblue" stroke="midnightblue" points="456.33,-111.5 466.33,-108 456.33,-104.5 456.33,-111.5"/>
</g>
<!-- Node5 -->
<g id="node5" class="node">
<title>Node5</title>
<g id="a_node5"><a xlink:href="../../df/db5/a01158.html#abd1ef05754be5fb96db69e3bd0a0a8bd" target="_top" xlink:title=" ">
<polygon fill="none" stroke="black" points="659,-16.5 659,-35.5 835,-35.5 835,-16.5 659,-16.5"/>
<text text-anchor="middle" x="747" y="-23.5" font-family="Helvetica,sans-Serif" font-size="10.00">com.cliffc.aa.node.Node.unelock</text>
</a>
</g>
</g>
<!-- Node4&#45;&gt;Node5 -->
<g id="edge4" class="edge">
<title>Node4&#45;&gt;Node5</title>
<path fill="none" stroke="midnightblue" d="M387.92,-60.48C409.28,-57.17 433.7,-53.64 456,-51 520.15,-43.41 592.54,-37.16 648.94,-32.81"/>
<polygon fill="midnightblue" stroke="midnightblue" points="649.22,-36.3 658.93,-32.05 648.69,-29.32 649.22,-36.3"/>
</g>
<!-- Node12 -->
<g id="node12" class="node">
<title>Node12</title>
<g id="a_node12"><a xlink:href="../../df/db5/a01158.html#a284c9a1217237d2f3eede517b6a33aa4" target="_top" xlink:title=" ">
<polygon fill="none" stroke="black" points="456,-60.5 456,-79.5 623,-79.5 623,-60.5 456,-60.5"/>
<text text-anchor="middle" x="539.5" y="-67.5" font-family="Helvetica,sans-Serif" font-size="10.00">com.cliffc.aa.node.Node.unuse</text>
</a>
</g>
</g>
<!-- Node4&#45;&gt;Node12 -->
<g id="edge12" class="edge">
<title>Node4&#45;&gt;Node12</title>
<path fill="none" stroke="midnightblue" d="M415.71,-70C425.54,-70 435.61,-70 445.53,-70"/>
<polygon fill="midnightblue" stroke="midnightblue" points="445.81,-73.5 455.81,-70 445.81,-66.5 445.81,-73.5"/>
</g>
<!-- Node6 -->
<g id="node6" class="node">
<title>Node6</title>
<g id="a_node6"><a xlink:href="../../d9/d0a/a00390.html#a195b2b7d0b8f0f1770422573c2cc22ff" target="_top" xlink:title=" ">
<polygon fill="none" stroke="black" points="880,-88.5 880,-107.5 1053,-107.5 1053,-88.5 880,-88.5"/>
<text text-anchor="middle" x="966.5" y="-95.5" font-family="Helvetica,sans-Serif" font-size="10.00">com.cliffc.aa.GVNGCM.add_flow</text>
</a>
</g>
</g>
<!-- Node5&#45;&gt;Node6 -->
<g id="edge5" class="edge">
<title>Node5&#45;&gt;Node6</title>
<path fill="none" stroke="midnightblue" d="M810.72,-35.51C819.13,-37.98 827.45,-41.08 835,-45 854.27,-54.99 851.7,-68.07 871,-78 876.58,-80.87 882.54,-83.33 888.66,-85.43"/>
<polygon fill="midnightblue" stroke="midnightblue" points="887.79,-88.83 898.38,-88.46 889.87,-82.14 887.79,-88.83"/>
</g>
<!-- Node10 -->
<g id="node10" class="node">
<title>Node10</title>
<g id="a_node10"><a xlink:href="../../d9/d0a/a00390.html#ad52b88a21b47c661e6f6a3bcfdbb3576" target="_top" xlink:title=" ">
<polygon fill="none" stroke="black" points="892.5,-39 892.5,-69 1040.5,-69 1040.5,-39 892.5,-39"/>
<text text-anchor="start" x="900.5" y="-57" font-family="Helvetica,sans-Serif" font-size="10.00">com.cliffc.aa.GVNGCM.add</text>
<text text-anchor="middle" x="966.5" y="-46" font-family="Helvetica,sans-Serif" font-size="10.00">_reduce</text>
</a>
</g>
</g>
<!-- Node5&#45;&gt;Node10 -->
<g id="edge9" class="edge">
<title>Node5&#45;&gt;Node10</title>
<path fill="none" stroke="midnightblue" d="M821.94,-35.52C841.32,-38.01 862.36,-40.72 882.2,-43.28"/>
<polygon fill="midnightblue" stroke="midnightblue" points="881.77,-46.75 892.13,-44.56 882.66,-39.81 881.77,-46.75"/>
</g>
<!-- Node11 -->
<g id="node11" class="node">
<title>Node11</title>
<g id="a_node11"><a xlink:href="../../df/db5/a01158.html#abcbaaf7e990f5a12a68e91a70af8fb7e" target="_top" xlink:title=" ">
<polygon fill="none" stroke="black" points="871,-0.5 871,-19.5 1062,-19.5 1062,-0.5 871,-0.5"/>
<text text-anchor="middle" x="966.5" y="-7.5" font-family="Helvetica,sans-Serif" font-size="10.00">com.cliffc.aa.node.Node.check_vals</text>
</a>
</g>
</g>
<!-- Node5&#45;&gt;Node11 -->
<g id="edge11" class="edge">
<title>Node5&#45;&gt;Node11</title>
<path fill="none" stroke="midnightblue" d="M835.21,-19.58C843.62,-18.97 852.21,-18.33 860.77,-17.7"/>
<polygon fill="midnightblue" stroke="midnightblue" points="861.06,-21.19 870.78,-16.97 860.55,-14.21 861.06,-21.19"/>
</g>
<!-- Node7 -->
<g id="node7" class="node">
<title>Node7</title>
<g id="a_node7"><a xlink:href="../../d9/d0a/a00390.html#a6074ca566ae10e746122ac8d09239d02" target="_top" xlink:title=" ">
<polygon fill="none" stroke="black" points="1098,-88.5 1098,-107.5 1275,-107.5 1275,-88.5 1098,-88.5"/>
<text text-anchor="middle" x="1186.5" y="-95.5" font-family="Helvetica,sans-Serif" font-size="10.00">com.cliffc.aa.GVNGCM.add_work</text>
</a>
</g>
</g>
<!-- Node6&#45;&gt;Node7 -->
<g id="edge6" class="edge">
<title>Node6&#45;&gt;Node7</title>
<path fill="none" stroke="midnightblue" d="M1053.03,-98C1064.38,-98 1076.09,-98 1087.62,-98"/>
<polygon fill="midnightblue" stroke="midnightblue" points="1087.7,-101.5 1097.7,-98 1087.7,-94.5 1087.7,-101.5"/>
</g>
<!-- Node8 -->
<g id="node8" class="node">
<title>Node8</title>
<g id="a_node8"><a xlink:href="../../d6/d2f/a01394.html#acc21c59313a6ce5c286431fd2d4fd891" target="_top" xlink:title=" ">
<polygon fill="none" stroke="black" points="1311,-88.5 1311,-107.5 1466,-107.5 1466,-88.5 1311,-88.5"/>
<text text-anchor="middle" x="1388.5" y="-95.5" font-family="Helvetica,sans-Serif" font-size="10.00">com.cliffc.aa.node.Work.add</text>
</a>
</g>
</g>
<!-- Node7&#45;&gt;Node8 -->
<g id="edge7" class="edge">
<title>Node7&#45;&gt;Node8</title>
<path fill="none" stroke="midnightblue" d="M1275.22,-98C1283.65,-98 1292.2,-98 1300.63,-98"/>
<polygon fill="midnightblue" stroke="midnightblue" points="1300.82,-101.5 1310.82,-98 1300.82,-94.5 1300.82,-101.5"/>
</g>
<!-- Node9 -->
<g id="node9" class="node">
<title>Node9</title>
<g id="a_node9"><a xlink:href="../../df/dee/a01646.html#a88ad20daf92e92fe0e3925b23c4fecf0" target="_top" xlink:title=" ">
<polygon fill="none" stroke="black" points="1502,-88.5 1502,-107.5 1660,-107.5 1660,-88.5 1502,-88.5"/>
<text text-anchor="middle" x="1581" y="-95.5" font-family="Helvetica,sans-Serif" font-size="10.00">com.cliffc.aa.util.VBitSet.tset</text>
</a>
</g>
</g>
<!-- Node8&#45;&gt;Node9 -->
<g id="edge8" class="edge">
<title>Node8&#45;&gt;Node9</title>
<path fill="none" stroke="midnightblue" d="M1466.16,-98C1474.63,-98 1483.31,-98 1491.9,-98"/>
<polygon fill="midnightblue" stroke="midnightblue" points="1491.94,-101.5 1501.94,-98 1491.94,-94.5 1491.94,-101.5"/>
</g>
<!-- Node10&#45;&gt;Node7 -->
<g id="edge10" class="edge">
<title>Node10&#45;&gt;Node7</title>
<path fill="none" stroke="midnightblue" d="M1040.7,-68.77C1069.21,-74.53 1101.41,-81.03 1128.19,-86.43"/>
<polygon fill="midnightblue" stroke="midnightblue" points="1127.67,-89.9 1138.17,-88.45 1129.06,-83.04 1127.67,-89.9"/>
</g>
<!-- Node13 -->
<g id="node13" class="node">
<title>Node13</title>
<g id="a_node13"><a xlink:href="../../df/db5/a01158.html#a4c43a2abe5004ef2cf98b07a01500a1f" target="_top" xlink:title=" ">
<polygon fill="none" stroke="black" points="669.5,-55 669.5,-85 824.5,-85 824.5,-55 669.5,-55"/>
<text text-anchor="start" x="677.5" y="-73" font-family="Helvetica,sans-Serif" font-size="10.00">com.cliffc.aa.node.Node.add</text>
<text text-anchor="middle" x="747" y="-62" font-family="Helvetica,sans-Serif" font-size="10.00">_flow_def_extra</text>
</a>
</g>
</g>
<!-- Node12&#45;&gt;Node13 -->
<g id="edge13" class="edge">
<title>Node12&#45;&gt;Node13</title>
<path fill="none" stroke="midnightblue" d="M623.2,-70C635.13,-70 647.45,-70 659.46,-70"/>
<polygon fill="midnightblue" stroke="midnightblue" points="659.46,-73.5 669.46,-70 659.46,-66.5 659.46,-73.5"/>
</g>
<!-- Node14 -->
<g id="node14" class="node">
<title>Node14</title>
<g id="a_node14"><a xlink:href="../../d9/d0a/a00390.html#a4a612bae4153eff084e4fe1d0049987c" target="_top" xlink:title=" ">
<polygon fill="none" stroke="black" points="673,-104 673,-134 821,-134 821,-104 673,-104"/>
<text text-anchor="start" x="681" y="-122" font-family="Helvetica,sans-Serif" font-size="10.00">com.cliffc.aa.GVNGCM.add</text>
<text text-anchor="middle" x="747" y="-111" font-family="Helvetica,sans-Serif" font-size="10.00">_unuse</text>
</a>
</g>
</g>
<!-- Node12&#45;&gt;Node14 -->
<g id="edge14" class="edge">
<title>Node12&#45;&gt;Node14</title>
<path fill="none" stroke="midnightblue" d="M582.49,-79.56C595.49,-82.55 609.84,-85.88 623,-89 639.9,-93.01 658.08,-97.4 675.14,-101.55"/>
<polygon fill="midnightblue" stroke="midnightblue" points="674.49,-105 685.04,-103.97 676.15,-98.2 674.49,-105"/>
</g>
<!-- Node14&#45;&gt;Node6 -->
<g id="edge17" class="edge">
<title>Node14&#45;&gt;Node6</title>
<path fill="none" stroke="midnightblue" d="M821.03,-111.95C836.67,-110.44 853.41,-108.82 869.76,-107.24"/>
<polygon fill="midnightblue" stroke="midnightblue" points="870.25,-110.71 879.87,-106.27 869.58,-103.74 870.25,-110.71"/>
</g>
<!-- Node14&#45;&gt;Node10 -->
<g id="edge18" class="edge">
<title>Node14&#45;&gt;Node10</title>
<path fill="none" stroke="midnightblue" d="M807.34,-103.91C816.67,-101.17 826.15,-98.17 835,-95 851.49,-89.1 854.48,-84.81 871,-79 878.2,-76.46 885.79,-74.05 893.41,-71.79"/>
<polygon fill="midnightblue" stroke="midnightblue" points="894.41,-75.14 903.05,-69.01 892.48,-68.41 894.41,-75.14"/>
</g>
<!-- Node15 -->
<g id="node15" class="node">
<title>Node15</title>
<g id="a_node15"><a xlink:href="../../d9/d0a/a00390.html#af23b6c0debccdb7104dea273b231c716" target="_top" xlink:title=" ">
<polygon fill="none" stroke="black" points="878,-126.5 878,-145.5 1055,-145.5 1055,-126.5 878,-126.5"/>
<text text-anchor="middle" x="966.5" y="-133.5" font-family="Helvetica,sans-Serif" font-size="10.00">com.cliffc.aa.GVNGCM.add_dead</text>
</a>
</g>
</g>
<!-- Node14&#45;&gt;Node15 -->
<g id="edge15" class="edge">
<title>Node14&#45;&gt;Node15</title>
<path fill="none" stroke="midnightblue" d="M821.03,-124.71C836.01,-125.88 852.01,-127.13 867.71,-128.36"/>
<polygon fill="midnightblue" stroke="midnightblue" points="867.72,-131.87 877.96,-129.16 868.26,-124.89 867.72,-131.87"/>
</g>
<!-- Node15&#45;&gt;Node7 -->
<g id="edge16" class="edge">
<title>Node15&#45;&gt;Node7</title>
<path fill="none" stroke="midnightblue" d="M1022.23,-126.46C1052.16,-121.24 1089.42,-114.75 1120.79,-109.28"/>
<polygon fill="midnightblue" stroke="midnightblue" points="1121.5,-112.71 1130.75,-107.54 1120.3,-105.81 1121.5,-112.71"/>
</g>
</g>
</svg>
