<?xml version="1.0" encoding="UTF-8" standalone="no"?>
<!DOCTYPE svg PUBLIC "-//W3C//DTD SVG 1.1//EN"
 "http://www.w3.org/Graphics/SVG/1.1/DTD/svg11.dtd">
<!-- Generated by graphviz version 2.43.0 (0)
 -->
<!-- Title: com.cliffc.aa.node.CallNode.set_ttfp Pages: 1 -->
<!--zoomable 380 -->
<svg id="main" version="1.1" xmlns="http://www.w3.org/2000/svg" xmlns:xlink="http://www.w3.org/1999/xlink" xml:space="preserve" onload="init(evt)">
<style type="text/css"><![CDATA[
.edge:hover path { stroke: red; }
.edge:hover polygon { stroke: red; fill: red; }
]]></style>
<script type="text/javascript"><![CDATA[
var edges = document.getElementsByTagName('g');
if (edges && edges.length) {
  for (var i=0;i<edges.length;i++) {
    if (edges[i].id.substr(0,4)=='edge') {
      edges[i].setAttribute('class','edge');
    }
  }
}
]]></script>
        <defs>
                <circle id="rim" cx="0" cy="0" r="7"/>
                <circle id="rim2" cx="0" cy="0" r="3.5"/>
                <g id="zoomPlus">
                        <use xlink:href="#rim" fill="#404040">
                                <set attributeName="fill" to="#808080" begin="zoomplus.mouseover" end="zoomplus.mouseout"/>
                        </use>
                        <path d="M-4,0h8M0,-4v8" fill="none" stroke="white" stroke-width="1.5" pointer-events="none"/>
                </g>
                <g id="zoomMin">
                        <use xlink:href="#rim" fill="#404040">
                                <set attributeName="fill" to="#808080" begin="zoomminus.mouseover" end="zoomminus.mouseout"/>
                        </use>
                        <path d="M-4,0h8" fill="none" stroke="white" stroke-width="1.5" pointer-events="none"/>
                </g>
                <g id="dirArrow">
                        <path fill="none" stroke="white" stroke-width="1.5" d="M0,-3.0v7 M-2.5,-0.5L0,-3.0L2.5,-0.5"/>
                </g>
               <g id="resetDef">
                       <use xlink:href="#rim2" fill="#404040">
                               <set attributeName="fill" to="#808080" begin="reset.mouseover" end="reset.mouseout"/>
                       </use>
               </g>
        </defs>

<script type="text/javascript">
var viewWidth = 2071;
var viewHeight = 380;
var sectionId = 'dynsection-141';
</script>
<script xlink:href="../../svgpan.js"/>
<svg id="graph" class="graph">
<g id="viewport">
<title>com.cliffc.aa.node.CallNode.set_ttfp</title>
<!-- Node1 -->
<g id="node1" class="node">
<title>Node1</title>
<g id="a_node1"><a xlink:title=" ">
<polygon fill="#bfbfbf" stroke="black" points="0,-322.05 0,-341.05 194,-341.05 194,-322.05 0,-322.05"/>
<text text-anchor="middle" x="97" y="-329.05" font-family="Helvetica,sans-Serif" font-size="10.00">com.cliffc.aa.node.CallNode.set_ttfp</text>
</a>
</g>
</g>
<!-- Node2 -->
<g id="node2" class="node">
<title>Node2</title>
<g id="a_node2"><a xlink:href="../../d7/d90/a01530.html#a47d2201401538218682099fe1a41cbcd" target="_top" xlink:title=" ">
<polygon fill="none" stroke="black" points="230,-341.05 230,-360.05 403,-360.05 403,-341.05 230,-341.05"/>
<text text-anchor="middle" x="316.5" y="-348.05" font-family="Helvetica,sans-Serif" font-size="10.00">com.cliffc.aa.type.TypeTuple.len</text>
</a>
</g>
</g>
<!-- Node1&#45;&gt;Node2 -->
<g id="edge1" class="edge">
<title>Node1&#45;&gt;Node2</title>
<path fill="none" stroke="midnightblue" d="M194.03,-339.94C202.62,-340.69 211.32,-341.45 219.9,-342.19"/>
<polygon fill="midnightblue" stroke="midnightblue" points="219.65,-345.69 229.91,-343.07 220.26,-338.71 219.65,-345.69"/>
</g>
<!-- Node3 -->
<g id="node3" class="node">
<title>Node3</title>
<g id="a_node3"><a xlink:href="../../d7/d90/a01530.html#afdb0c721dcb5d61796e0d9a83ac39fac" target="_top" xlink:title=" ">
<polygon fill="none" stroke="black" points="230,-303.05 230,-322.05 403,-322.05 403,-303.05 230,-303.05"/>
<text text-anchor="middle" x="316.5" y="-310.05" font-family="Helvetica,sans-Serif" font-size="10.00">com.cliffc.aa.type.TypeTuple.set</text>
</a>
</g>
</g>
<!-- Node1&#45;&gt;Node3 -->
<g id="edge2" class="edge">
<title>Node1&#45;&gt;Node3</title>
<path fill="none" stroke="midnightblue" d="M194.03,-323.16C202.62,-322.41 211.32,-321.65 219.9,-320.9"/>
<polygon fill="midnightblue" stroke="midnightblue" points="220.26,-324.38 229.91,-320.02 219.65,-317.41 220.26,-324.38"/>
</g>
<!-- Node4 -->
<g id="node4" class="node">
<title>Node4</title>
<g id="a_node4"><a xlink:href="../../dc/d47/a01510.html#a32afa8e2041f9a7e23aaa00de0e0f57f" target="_top" xlink:title=" ">
<polygon fill="none" stroke="black" points="1308,-341.05 1308,-360.05 1472,-360.05 1472,-341.05 1308,-341.05"/>
<text text-anchor="middle" x="1390" y="-348.05" font-family="Helvetica,sans-Serif" font-size="10.00">com.cliffc.aa.type.Types.clone</text>
</a>
</g>
</g>
<!-- Node3&#45;&gt;Node4 -->
<g id="edge3" class="edge">
<title>Node3&#45;&gt;Node4</title>
<path fill="none" stroke="midnightblue" d="M385.09,-322.09C470.83,-333.34 623.32,-350.55 754.5,-350.55 754.5,-350.55 754.5,-350.55 982,-350.55 1090.53,-350.55 1215.34,-350.55 1297.82,-350.55"/>
<polygon fill="midnightblue" stroke="midnightblue" points="1297.92,-354.05 1307.92,-350.55 1297.92,-347.05 1297.92,-354.05"/>
</g>
<!-- Node11 -->
<g id="node11" class="node">
<title>Node11</title>
<g id="a_node11"><a xlink:href="../../d7/d90/a01530.html#a4e94486f858a347a30f5a30966292479" target="_top" xlink:title=" ">
<polygon fill="none" stroke="black" points="439,-284.05 439,-303.05 624,-303.05 624,-284.05 439,-284.05"/>
<text text-anchor="middle" x="531.5" y="-291.05" font-family="Helvetica,sans-Serif" font-size="10.00">com.cliffc.aa.type.TypeTuple.make</text>
</a>
</g>
</g>
<!-- Node3&#45;&gt;Node11 -->
<g id="edge13" class="edge">
<title>Node3&#45;&gt;Node11</title>
<path fill="none" stroke="midnightblue" d="M403.21,-304.9C411.61,-304.15 420.18,-303.39 428.71,-302.63"/>
<polygon fill="midnightblue" stroke="midnightblue" points="429.04,-306.11 438.69,-301.74 428.42,-299.14 429.04,-306.11"/>
</g>
<!-- Node5 -->
<g id="node5" class="node">
<title>Node5</title>
<g id="a_node5"><a xlink:href="../../dc/d47/a01510.html#ae85b20de55899d48bb869a55a8e3d753" target="_top" xlink:title=" ">
<polygon fill="none" stroke="black" points="1690,-207.05 1690,-226.05 1856,-226.05 1856,-207.05 1690,-207.05"/>
<text text-anchor="middle" x="1773" y="-214.05" font-family="Helvetica,sans-Serif" font-size="10.00">com.cliffc.aa.type.Types.check</text>
</a>
</g>
</g>
<!-- Node4&#45;&gt;Node5 -->
<g id="edge4" class="edge">
<title>Node4&#45;&gt;Node5</title>
<path fill="none" stroke="midnightblue" d="M1438.61,-340.94C1450.05,-337.44 1461.87,-332.76 1472,-326.55 1491.83,-314.38 1487.78,-300.05 1508,-288.55 1565.82,-255.64 1591.6,-278.6 1654,-255.55 1670.97,-249.28 1673.08,-242.96 1690,-236.55 1697.78,-233.6 1706.14,-230.97 1714.45,-228.67"/>
<polygon fill="midnightblue" stroke="midnightblue" points="1715.35,-232.05 1724.13,-226.12 1713.57,-225.28 1715.35,-232.05"/>
</g>
<!-- Node7 -->
<g id="node7" class="node">
<title>Node7</title>
<g id="a_node7"><a xlink:href="../../dc/d47/a01510.html#a59ae02bf35b3fe500c1d1093e941b082" target="_top" xlink:title=" ">
<polygon fill="none" stroke="black" points="1696.5,-341.05 1696.5,-360.05 1849.5,-360.05 1849.5,-341.05 1696.5,-341.05"/>
<text text-anchor="middle" x="1773" y="-348.05" font-family="Helvetica,sans-Serif" font-size="10.00">com.cliffc.aa.type.Types.get</text>
</a>
</g>
</g>
<!-- Node4&#45;&gt;Node7 -->
<g id="edge6" class="edge">
<title>Node4&#45;&gt;Node7</title>
<path fill="none" stroke="midnightblue" d="M1472.27,-350.55C1535.23,-350.55 1622.23,-350.55 1686.29,-350.55"/>
<polygon fill="midnightblue" stroke="midnightblue" points="1686.36,-354.05 1696.36,-350.55 1686.36,-347.05 1686.36,-354.05"/>
</g>
<!-- Node8 -->
<g id="node8" class="node">
<title>Node8</title>
<g id="a_node8"><a xlink:href="../../dc/d47/a01510.html#af601d8f31e72d4f191068352752b4d43" target="_top" xlink:title=" ">
<polygon fill="none" stroke="black" points="1694.5,-246.05 1694.5,-265.05 1851.5,-265.05 1851.5,-246.05 1694.5,-246.05"/>
<text text-anchor="middle" x="1773" y="-253.05" font-family="Helvetica,sans-Serif" font-size="10.00">com.cliffc.aa.type.Types.tary</text>
</a>
</g>
</g>
<!-- Node4&#45;&gt;Node8 -->
<g id="edge7" class="edge">
<title>Node4&#45;&gt;Node8</title>
<path fill="none" stroke="midnightblue" d="M1433.95,-340.99C1486.13,-329.25 1576.77,-308.44 1654,-288.55 1679.1,-282.08 1707.04,-274.29 1729.42,-267.91"/>
<polygon fill="midnightblue" stroke="midnightblue" points="1730.64,-271.2 1739.29,-265.08 1728.71,-264.47 1730.64,-271.2"/>
</g>
<!-- Node10 -->
<g id="node10" class="node">
<title>Node10</title>
<g id="a_node10"><a xlink:href="../../dc/d47/a01510.html#aa115d584cb2586147c60f206d002d611" target="_top" xlink:title=" ">
<polygon fill="none" stroke="black" points="1508,-227.05 1508,-246.05 1654,-246.05 1654,-227.05 1508,-227.05"/>
<text text-anchor="middle" x="1581" y="-234.05" font-family="Helvetica,sans-Serif" font-size="10.00">com.cliffc.aa.type.Types.ts</text>
</a>
</g>
</g>
<!-- Node4&#45;&gt;Node10 -->
<g id="edge9" class="edge">
<title>Node4&#45;&gt;Node10</title>
<path fill="none" stroke="midnightblue" d="M1444.92,-341.02C1454.62,-337.58 1464.13,-332.91 1472,-326.55 1497.99,-305.54 1482.37,-281.98 1508,-260.55 1512.97,-256.39 1518.7,-252.94 1524.7,-250.08"/>
<polygon fill="midnightblue" stroke="midnightblue" points="1526.41,-253.16 1534.29,-246.06 1523.71,-246.7 1526.41,-253.16"/>
</g>
<!-- Node6 -->
<g id="node6" class="node">
<title>Node6</title>
<g id="a_node6"><a xlink:href="../../dc/d47/a01510.html#a8315cf29307cc36137f05d9629f5ed52" target="_top" xlink:title=" ">
<polygon fill="none" stroke="black" points="1892,-204.05 1892,-223.05 2063,-223.05 2063,-204.05 1892,-204.05"/>
<text text-anchor="middle" x="1977.5" y="-211.05" font-family="Helvetica,sans-Serif" font-size="10.00">com.cliffc.aa.type.Types.check_</text>
</a>
</g>
</g>
<!-- Node5&#45;&gt;Node6 -->
<g id="edge5" class="edge">
<title>Node5&#45;&gt;Node6</title>
<path fill="none" stroke="midnightblue" d="M1856.07,-215.33C1864.5,-215.21 1873.12,-215.08 1881.67,-214.95"/>
<polygon fill="midnightblue" stroke="midnightblue" points="1881.73,-218.45 1891.67,-214.8 1881.62,-211.45 1881.73,-218.45"/>
</g>
<!-- Node9 -->
<g id="node9" class="node">
<title>Node9</title>
<g id="a_node9"><a xlink:href="../../dc/d47/a01510.html#a59a89150cac8ee6302775579cb5977c8" target="_top" xlink:title=" ">
<polygon fill="none" stroke="black" points="1909,-242.55 1909,-272.55 2046,-272.55 2046,-242.55 1909,-242.55"/>
<text text-anchor="start" x="1917" y="-260.55" font-family="Helvetica,sans-Serif" font-size="10.00">com.cliffc.aa.type.Types.</text>
<text text-anchor="middle" x="1977.5" y="-249.55" font-family="Helvetica,sans-Serif" font-size="10.00">Types</text>
</a>
</g>
</g>
<!-- Node8&#45;&gt;Node9 -->
<g id="edge8" class="edge">
<title>Node8&#45;&gt;Node9</title>
<path fill="none" stroke="midnightblue" d="M1851.71,-256.31C1867.18,-256.47 1883.41,-256.63 1898.87,-256.78"/>
<polygon fill="midnightblue" stroke="midnightblue" points="1898.87,-260.28 1908.9,-256.88 1898.94,-253.28 1898.87,-260.28"/>
</g>
<!-- Node10&#45;&gt;Node5 -->
<g id="edge10" class="edge">
<title>Node10&#45;&gt;Node5</title>
<path fill="none" stroke="midnightblue" d="M1654.1,-228.96C1662.48,-228.07 1671.11,-227.17 1679.7,-226.26"/>
<polygon fill="midnightblue" stroke="midnightblue" points="1680.19,-229.73 1689.77,-225.2 1679.46,-222.77 1680.19,-229.73"/>
</g>
<!-- Node10&#45;&gt;Node7 -->
<g id="edge11" class="edge">
<title>Node10&#45;&gt;Node7</title>
<path fill="none" stroke="midnightblue" d="M1597.87,-246.07C1630.98,-265.94 1707.62,-311.92 1747.26,-335.7"/>
<polygon fill="midnightblue" stroke="midnightblue" points="1745.66,-338.83 1756.04,-340.97 1749.26,-332.82 1745.66,-338.83"/>
</g>
<!-- Node10&#45;&gt;Node8 -->
<g id="edge12" class="edge">
<title>Node10&#45;&gt;Node8</title>
<path fill="none" stroke="midnightblue" d="M1654.1,-243.76C1663.94,-244.74 1674.13,-245.76 1684.22,-246.77"/>
<polygon fill="midnightblue" stroke="midnightblue" points="1683.95,-250.26 1694.24,-247.77 1684.64,-243.29 1683.95,-250.26"/>
</g>
<!-- Node11&#45;&gt;Node7 -->
<g id="edge14" class="edge">
<title>Node11&#45;&gt;Node7</title>
<path fill="none" stroke="midnightblue" d="M605.3,-303.08C742.47,-320.5 1048.74,-356.87 1308,-369.55 1380.8,-373.1 1399.12,-370.55 1472,-369.55 1552.91,-368.43 1573.29,-370.43 1654,-364.55 1665.81,-363.68 1678.27,-362.51 1690.47,-361.19"/>
<polygon fill="midnightblue" stroke="midnightblue" points="1691.1,-364.65 1700.65,-360.07 1690.33,-357.69 1691.1,-364.65"/>
</g>
<!-- Node12 -->
<g id="node12" class="node">
<title>Node12</title>
<g id="a_node12"><a xlink:href="../../d7/d90/a01530.html#a81ed2204609a5aec7317ef0a06ce8429" target="_top" xlink:title=" ">
<polygon fill="none" stroke="black" points="660,-265.05 660,-284.05 851,-284.05 851,-265.05 660,-265.05"/>
<text text-anchor="middle" x="755.5" y="-272.05" font-family="Helvetica,sans-Serif" font-size="10.00">com.cliffc.aa.type.TypeTuple.make0</text>
</a>
</g>
</g>
<!-- Node11&#45;&gt;Node12 -->
<g id="edge15" class="edge">
<title>Node11&#45;&gt;Node12</title>
<path fill="none" stroke="midnightblue" d="M578.5,-284.02C599.15,-281.41 624.43,-278.87 649.33,-276.81"/>
<polygon fill="midnightblue" stroke="midnightblue" points="649.89,-280.27 659.58,-275.98 649.33,-273.29 649.89,-280.27"/>
</g>
<!-- Node12&#45;&gt;Node11 -->
<g id="edge26" class="edge">
<title>Node12&#45;&gt;Node11</title>
<path fill="none" stroke="midnightblue" d="M708.66,-284.06C687.07,-286.78 660.39,-289.45 634.39,-291.56"/>
<polygon fill="midnightblue" stroke="midnightblue" points="633.77,-288.09 624.08,-292.37 634.32,-295.07 633.77,-288.09"/>
</g>
<!-- Node13 -->
<g id="node13" class="node">
<title>Node13</title>
<g id="a_node13"><a xlink:href="../../dc/d47/a01510.html#aeb95b59869f5978b8c19ba7f371f2502" target="_top" xlink:title=" ">
<polygon fill="none" stroke="black" points="887,-193.05 887,-212.05 1075,-212.05 1075,-193.05 887,-193.05"/>
<text text-anchor="middle" x="981" y="-200.05" font-family="Helvetica,sans-Serif" font-size="10.00">com.cliffc.aa.type.Types.hash_cons</text>
</a>
</g>
</g>
<!-- Node12&#45;&gt;Node13 -->
<g id="edge16" class="edge">
<title>Node12&#45;&gt;Node13</title>
<path fill="none" stroke="midnightblue" d="M786.18,-264.99C825.92,-252.18 896.53,-229.44 940.66,-215.22"/>
<polygon fill="midnightblue" stroke="midnightblue" points="941.75,-218.54 950.2,-212.15 939.61,-211.88 941.75,-218.54"/>
</g>
<!-- Node13&#45;&gt;Node5 -->
<g id="edge17" class="edge">
<title>Node13&#45;&gt;Node5</title>
<path fill="none" stroke="midnightblue" d="M987.71,-192.93C1003.47,-167.49 1050.43,-98.64 1111,-73.55 1333.96,18.81 1435.7,29.34 1654,-73.55 1708.91,-99.43 1746.96,-164.78 1763.19,-197.41"/>
<polygon fill="midnightblue" stroke="midnightblue" points="1760.19,-199.26 1767.68,-206.76 1766.5,-196.23 1760.19,-199.26"/>
</g>
<!-- Node13&#45;&gt;Node8 -->
<g id="edge24" class="edge">
<title>Node13&#45;&gt;Node8</title>
<path fill="none" stroke="midnightblue" d="M1000.47,-192.86C1065.68,-159.92 1290.98,-57 1472,-106.55 1526.29,-121.41 1637.87,-214.31 1690,-235.55 1697.25,-238.5 1705.05,-241.09 1712.85,-243.34"/>
<polygon fill="midnightblue" stroke="midnightblue" points="1712.12,-246.77 1722.69,-246.02 1713.95,-240.02 1712.12,-246.77"/>
</g>
<!-- Node13&#45;&gt;Node10 -->
<g id="edge25" class="edge">
<title>Node13&#45;&gt;Node10</title>
<path fill="none" stroke="midnightblue" d="M998.08,-212.16C1061.48,-248.71 1299.06,-373.09 1472,-293.55 1494.34,-283.27 1486.83,-264.06 1508,-251.55 1508.66,-251.16 1509.33,-250.78 1510,-250.41"/>
<polygon fill="midnightblue" stroke="midnightblue" points="1511.59,-253.53 1519.17,-246.13 1508.63,-247.18 1511.59,-253.53"/>
</g>
<!-- Node14 -->
<g id="node14" class="node">
<title>Node14</title>
<g id="a_node14"><a xlink:href="../../dc/d47/a01510.html#a6aa41fc18dbf7ed9b38b68240bc797ed" target="_top" xlink:title=" ">
<polygon fill="none" stroke="black" points="1111,-187.55 1111,-217.55 1272,-217.55 1272,-187.55 1111,-187.55"/>
<text text-anchor="start" x="1119" y="-205.55" font-family="Helvetica,sans-Serif" font-size="10.00">com.cliffc.aa.type.Types.hash</text>
<text text-anchor="middle" x="1191.5" y="-194.55" font-family="Helvetica,sans-Serif" font-size="10.00">_cons_</text>
</a>
</g>
</g>
<!-- Node13&#45;&gt;Node14 -->
<g id="edge18" class="edge">
<title>Node13&#45;&gt;Node14</title>
<path fill="none" stroke="midnightblue" d="M1075.27,-202.55C1083.68,-202.55 1092.17,-202.55 1100.55,-202.55"/>
<polygon fill="midnightblue" stroke="midnightblue" points="1100.68,-206.05 1110.68,-202.55 1100.68,-199.05 1100.68,-206.05"/>
</g>
<!-- Node14&#45;&gt;Node10 -->
<g id="edge23" class="edge">
<title>Node14&#45;&gt;Node10</title>
<path fill="none" stroke="midnightblue" d="M1272.32,-209.55C1338.18,-215.33 1431.27,-223.5 1497.77,-229.33"/>
<polygon fill="midnightblue" stroke="midnightblue" points="1497.53,-232.82 1507.8,-230.21 1498.14,-225.85 1497.53,-232.82"/>
</g>
<!-- Node15 -->
<g id="node15" class="node">
<title>Node15</title>
<g id="a_node15"><a xlink:href="../../d9/df5/a01574.html#ac48b496d83326e6d52ae1ec4f3459e86" target="_top" xlink:title=" ">
<polygon fill="none" stroke="black" points="1326,-165.55 1326,-195.55 1454,-195.55 1454,-165.55 1326,-165.55"/>
<text text-anchor="start" x="1334" y="-183.55" font-family="Helvetica,sans-Serif" font-size="10.00">com.cliffc.aa.util.IHash</text>
<text text-anchor="middle" x="1390" y="-172.55" font-family="Helvetica,sans-Serif" font-size="10.00">Map.get</text>
</a>
</g>
</g>
<!-- Node14&#45;&gt;Node15 -->
<g id="edge19" class="edge">
<title>Node14&#45;&gt;Node15</title>
<path fill="none" stroke="midnightblue" d="M1272.14,-193.63C1286.52,-192.02 1301.46,-190.35 1315.65,-188.76"/>
<polygon fill="midnightblue" stroke="midnightblue" points="1316.28,-192.21 1325.83,-187.62 1315.51,-185.25 1316.28,-192.21"/>
</g>
<!-- Node16 -->
<g id="node16" class="node">
<title>Node16</title>
<g id="a_node16"><a xlink:href="../../d7/d22/a01514.html#aafe283d43283761a4753805b70c4b07a" target="_top" xlink:title=" ">
<polygon fill="none" stroke="black" points="1321.5,-253.55 1321.5,-283.55 1458.5,-283.55 1458.5,-253.55 1321.5,-253.55"/>
<text text-anchor="start" x="1329.5" y="-271.55" font-family="Helvetica,sans-Serif" font-size="10.00">com.cliffc.aa.type.Types.</text>
<text text-anchor="middle" x="1390" y="-260.55" font-family="Helvetica,sans-Serif" font-size="10.00">Key.hash</text>
</a>
</g>
</g>
<!-- Node14&#45;&gt;Node16 -->
<g id="edge20" class="edge">
<title>Node14&#45;&gt;Node16</title>
<path fill="none" stroke="midnightblue" d="M1237.58,-217.69C1266.41,-227.37 1303.99,-239.99 1334.49,-250.24"/>
<polygon fill="midnightblue" stroke="midnightblue" points="1333.53,-253.61 1344.13,-253.47 1335.76,-246.97 1333.53,-253.61"/>
</g>
<!-- Node17 -->
<g id="node17" class="node">
<title>Node17</title>
<g id="a_node17"><a xlink:href="../../d9/df5/a01574.html#a48318148c1c043cb02b70ff5a7be8eb0" target="_top" xlink:title=" ">
<polygon fill="none" stroke="black" points="1326,-116.55 1326,-146.55 1454,-146.55 1454,-116.55 1326,-116.55"/>
<text text-anchor="start" x="1334" y="-134.55" font-family="Helvetica,sans-Serif" font-size="10.00">com.cliffc.aa.util.IHash</text>
<text text-anchor="middle" x="1390" y="-123.55" font-family="Helvetica,sans-Serif" font-size="10.00">Map.put</text>
</a>
</g>
</g>
<!-- Node14&#45;&gt;Node17 -->
<g id="edge22" class="edge">
<title>Node14&#45;&gt;Node17</title>
<path fill="none" stroke="midnightblue" d="M1227.03,-187.45C1249.81,-177.76 1280.42,-165.22 1308,-155.55 1313.81,-153.51 1319.9,-151.49 1326.01,-149.55"/>
<polygon fill="midnightblue" stroke="midnightblue" points="1327.1,-152.87 1335.6,-146.55 1325.02,-146.19 1327.1,-152.87"/>
</g>
<!-- Node16&#45;&gt;Node10 -->
<g id="edge21" class="edge">
<title>Node16&#45;&gt;Node10</title>
<path fill="none" stroke="midnightblue" d="M1458.7,-257.08C1476.5,-254.07 1495.68,-250.82 1513.41,-247.82"/>
<polygon fill="midnightblue" stroke="midnightblue" points="1514.4,-251.2 1523.67,-246.08 1513.23,-244.3 1514.4,-251.2"/>
</g>
</g>
</svg>
        <g id="navigator" transform="translate(0 0)" fill="#404254">
                <rect fill="#f2f5e9" fill-opacity="0.5" stroke="#606060" stroke-width=".5" x="0" y="0" width="60" height="60"/>
                <use id="zoomplus" xlink:href="#zoomPlus" x="17" y="9" onmousedown="handleZoom(evt,'in')"/>
                <use id="zoomminus" xlink:href="#zoomMin" x="42" y="9" onmousedown="handleZoom(evt,'out')"/>
                <use id="reset" xlink:href="#resetDef" x="30" y="36" onmousedown="handleReset()"/>
                <g id="arrowUp" xlink:href="#dirArrow" transform="translate(30 24)" onmousedown="handlePan(0,-1)">
                  <use xlink:href="#rim" fill="#404040">
                        <set attributeName="fill" to="#808080" begin="arrowUp.mouseover" end="arrowUp.mouseout"/>
                  </use>
                  <path fill="none" stroke="white" stroke-width="1.5" d="M0,-3.0v7 M-2.5,-0.5L0,-3.0L2.5,-0.5"/>
                </g>
                <g id="arrowRight" xlink:href="#dirArrow" transform="rotate(90) translate(36 -43)" onmousedown="handlePan(1,0)">
                  <use xlink:href="#rim" fill="#404040">
                        <set attributeName="fill" to="#808080" begin="arrowRight.mouseover" end="arrowRight.mouseout"/>
                  </use>
                  <path fill="none" stroke="white" stroke-width="1.5" d="M0,-3.0v7 M-2.5,-0.5L0,-3.0L2.5,-0.5"/>
                </g>
                <g id="arrowDown" xlink:href="#dirArrow" transform="rotate(180) translate(-30 -48)" onmousedown="handlePan(0,1)">
                  <use xlink:href="#rim" fill="#404040">
                        <set attributeName="fill" to="#808080" begin="arrowDown.mouseover" end="arrowDown.mouseout"/>
                  </use>
                  <path fill="none" stroke="white" stroke-width="1.5" d="M0,-3.0v7 M-2.5,-0.5L0,-3.0L2.5,-0.5"/>
                </g>
                <g id="arrowLeft" xlink:href="#dirArrow" transform="rotate(270) translate(-36 17)" onmousedown="handlePan(-1,0)">
                  <use xlink:href="#rim" fill="#404040">
                        <set attributeName="fill" to="#808080" begin="arrowLeft.mouseover" end="arrowLeft.mouseout"/>
                  </use>
                  <path fill="none" stroke="white" stroke-width="1.5" d="M0,-3.0v7 M-2.5,-0.5L0,-3.0L2.5,-0.5"/>
                </g>
        </g>
        <svg viewBox="0 0 15 15" width="100%" height="30px" preserveAspectRatio="xMaxYMin meet">
         <g id="arrow_out" transform="scale(0.3 0.3)">
          <a xlink:href="a01010_a5b26c9d82d82727a97ff800c29589dd9_cgraph_org.svg" target="_base">
           <rect id="button" ry="5" rx="5" y="6" x="6" height="38" width="38"
                fill="#f2f5e9" fill-opacity="0.5" stroke="#606060" stroke-width="1.0"/>
           <path id="arrow"
             d="M 11.500037,31.436501 C 11.940474,20.09759 22.043105,11.32322 32.158766,21.979434 L 37.068811,17.246167 C 37.068811,17.246167 37.088388,32 37.088388,32 L 22.160133,31.978069 C 22.160133,31.978069 26.997745,27.140456 26.997745,27.140456 C 18.528582,18.264221 13.291696,25.230495 11.500037,31.436501 z"
             style="fill:#404040;"/>
          </a>
         </g>
        </svg>
</svg>
