<?xml version="1.0" encoding="UTF-8" standalone="no"?>
<!DOCTYPE svg PUBLIC "-//W3C//DTD SVG 1.1//EN"
 "http://www.w3.org/Graphics/SVG/1.1/DTD/svg11.dtd">
<!-- Generated by graphviz version 2.43.0 (0)
 -->
<!-- Title: com.cliffc.aa.HM.HM4.Ident.live Pages: 1 -->
<!--zoomable 218 -->
<svg id="main" version="1.1" xmlns="http://www.w3.org/2000/svg" xmlns:xlink="http://www.w3.org/1999/xlink" xml:space="preserve" onload="init(evt)">
<style type="text/css"><![CDATA[
.edge:hover path { stroke: red; }
.edge:hover polygon { stroke: red; fill: red; }
]]></style>
<script type="text/javascript"><![CDATA[
var edges = document.getElementsByTagName('g');
if (edges && edges.length) {
  for (var i=0;i<edges.length;i++) {
    if (edges[i].id.substr(0,4)=='edge') {
      edges[i].setAttribute('class','edge');
    }
  }
}
]]></script>
        <defs>
                <circle id="rim" cx="0" cy="0" r="7"/>
                <circle id="rim2" cx="0" cy="0" r="3.5"/>
                <g id="zoomPlus">
                        <use xlink:href="#rim" fill="#404040">
                                <set attributeName="fill" to="#808080" begin="zoomplus.mouseover" end="zoomplus.mouseout"/>
                        </use>
                        <path d="M-4,0h8M0,-4v8" fill="none" stroke="white" stroke-width="1.5" pointer-events="none"/>
                </g>
                <g id="zoomMin">
                        <use xlink:href="#rim" fill="#404040">
                                <set attributeName="fill" to="#808080" begin="zoomminus.mouseover" end="zoomminus.mouseout"/>
                        </use>
                        <path d="M-4,0h8" fill="none" stroke="white" stroke-width="1.5" pointer-events="none"/>
                </g>
                <g id="dirArrow">
                        <path fill="none" stroke="white" stroke-width="1.5" d="M0,-3.0v7 M-2.5,-0.5L0,-3.0L2.5,-0.5"/>
                </g>
               <g id="resetDef">
                       <use xlink:href="#rim2" fill="#404040">
                               <set attributeName="fill" to="#808080" begin="reset.mouseover" end="reset.mouseout"/>
                       </use>
               </g>
        </defs>

<script type="text/javascript">
var viewWidth = 1152;
var viewHeight = 218;
var sectionId = 'dynsection-5';
</script>
<script xlink:href="../../svgpan.js"/>
<svg id="graph" class="graph">
<g id="viewport">
<title>com.cliffc.aa.HM.HM4.Ident.live</title>
<!-- Node1 -->
<g id="node1" class="node">
<title>Node1</title>
<g id="a_node1"><a xlink:title=" ">
<polygon fill="#bfbfbf" stroke="black" points="0,-152.5 0,-171.5 173,-171.5 173,-152.5 0,-152.5"/>
<text text-anchor="middle" x="86.5" y="-159.5" font-family="Helvetica,sans-Serif" font-size="10.00">com.cliffc.aa.HM.HM4.Ident.live</text>
</a>
</g>
</g>
<!-- Node2 -->
<g id="node2" class="node">
<title>Node2</title>
<g id="a_node2"><a xlink:href="../../df/d9e/a00686.html#a17de39c498dc2bc15f8cd181ce071f99" target="_top" xlink:title=" ">
<polygon fill="none" stroke="black" points="209,-152.5 209,-171.5 369,-171.5 369,-152.5 209,-152.5"/>
<text text-anchor="middle" x="289" y="-159.5" font-family="Helvetica,sans-Serif" font-size="10.00">com.cliffc.aa.HM.HM4.T2.live</text>
</a>
</g>
</g>
<!-- Node1&#45;&gt;Node2 -->
<g id="edge1" class="edge">
<title>Node1&#45;&gt;Node2</title>
<path fill="none" stroke="midnightblue" d="M173.11,-162C181.51,-162 190.05,-162 198.49,-162"/>
<polygon fill="midnightblue" stroke="midnightblue" points="198.71,-165.5 208.71,-162 198.71,-158.5 198.71,-165.5"/>
</g>
<!-- Node3 -->
<g id="node3" class="node">
<title>Node3</title>
<g id="a_node3"><a xlink:href="../../d1/d9b/a01566.html#a15ffe771a6c7400d146785f0753e76c4" target="_top" xlink:title=" ">
<polygon fill="none" stroke="black" points="405,-152.5 405,-171.5 556,-171.5 556,-152.5 405,-152.5"/>
<text text-anchor="middle" x="480.5" y="-159.5" font-family="Helvetica,sans-Serif" font-size="10.00">com.cliffc.aa.util.IBitSet.set</text>
</a>
</g>
</g>
<!-- Node2&#45;&gt;Node3 -->
<g id="edge2" class="edge">
<title>Node2&#45;&gt;Node3</title>
<path fill="none" stroke="midnightblue" d="M369.27,-162C377.63,-162 386.16,-162 394.59,-162"/>
<polygon fill="midnightblue" stroke="midnightblue" points="394.79,-165.5 404.79,-162 394.79,-158.5 394.79,-165.5"/>
</g>
<!-- Node4 -->
<g id="node4" class="node">
<title>Node4</title>
<g id="a_node4"><a xlink:href="../../d1/d9b/a01566.html#a289d332b96e77162f10e3bd0ff1b8556" target="_top" xlink:title=" ">
<polygon fill="none" stroke="black" points="593.5,-114.5 593.5,-133.5 746.5,-133.5 746.5,-114.5 593.5,-114.5"/>
<text text-anchor="middle" x="670" y="-121.5" font-family="Helvetica,sans-Serif" font-size="10.00">com.cliffc.aa.util.IBitSet._clr</text>
</a>
</g>
</g>
<!-- Node3&#45;&gt;Node4 -->
<g id="edge3" class="edge">
<title>Node3&#45;&gt;Node4</title>
<path fill="none" stroke="midnightblue" d="M528.81,-152.41C554.11,-147.28 585.45,-140.93 612.07,-135.54"/>
<polygon fill="midnightblue" stroke="midnightblue" points="612.92,-138.94 622.03,-133.52 611.53,-132.08 612.92,-138.94"/>
</g>
<!-- Node6 -->
<g id="node6" class="node">
<title>Node6</title>
<g id="a_node6"><a xlink:href="../../d1/d9b/a01566.html#a45bde87d9046049bd3145a2a08268a45" target="_top" xlink:title=" ">
<polygon fill="none" stroke="black" points="790,-190.5 790,-209.5 941,-209.5 941,-190.5 790,-190.5"/>
<text text-anchor="middle" x="865.5" y="-197.5" font-family="Helvetica,sans-Serif" font-size="10.00">com.cliffc.aa.util.IBitSet.idx</text>
</a>
</g>
</g>
<!-- Node3&#45;&gt;Node6 -->
<g id="edge17" class="edge">
<title>Node3&#45;&gt;Node6</title>
<path fill="none" stroke="midnightblue" d="M530.58,-171.53C549.68,-174.95 571.8,-178.57 592,-181 654.7,-188.56 725.9,-193.39 779.8,-196.29"/>
<polygon fill="midnightblue" stroke="midnightblue" points="779.83,-199.8 790,-196.83 780.2,-192.81 779.83,-199.8"/>
</g>
<!-- Node12 -->
<g id="node12" class="node">
<title>Node12</title>
<g id="a_node12"><a xlink:href="../../d1/d9b/a01566.html#ac3b2ce3af78129a8b8a5a8483d7c2ea5" target="_top" xlink:title=" ">
<polygon fill="none" stroke="black" points="592,-152.5 592,-171.5 748,-171.5 748,-152.5 592,-152.5"/>
<text text-anchor="middle" x="670" y="-159.5" font-family="Helvetica,sans-Serif" font-size="10.00">com.cliffc.aa.util.IBitSet._set</text>
</a>
</g>
</g>
<!-- Node3&#45;&gt;Node12 -->
<g id="edge12" class="edge">
<title>Node3&#45;&gt;Node12</title>
<path fill="none" stroke="midnightblue" d="M556.14,-162C564.58,-162 573.24,-162 581.83,-162"/>
<polygon fill="midnightblue" stroke="midnightblue" points="581.85,-165.5 591.85,-162 581.85,-158.5 581.85,-165.5"/>
</g>
<!-- Node5 -->
<g id="node5" class="node">
<title>Node5</title>
<g id="a_node5"><a xlink:href="../../d8/daf/a01550.html#ae58328f321549ff80f83993ba7828e33" target="_top" xlink:title=" ">
<polygon fill="none" stroke="black" points="791,-152.5 791,-171.5 940,-171.5 940,-152.5 791,-152.5"/>
<text text-anchor="middle" x="865.5" y="-159.5" font-family="Helvetica,sans-Serif" font-size="10.00">com.cliffc.aa.util.AryInt.atX</text>
</a>
</g>
</g>
<!-- Node4&#45;&gt;Node5 -->
<g id="edge4" class="edge">
<title>Node4&#45;&gt;Node5</title>
<path fill="none" stroke="midnightblue" d="M719.83,-133.59C746.05,-138.74 778.56,-145.12 806.12,-150.53"/>
<polygon fill="midnightblue" stroke="midnightblue" points="805.54,-153.99 816.02,-152.48 806.88,-147.12 805.54,-153.99"/>
</g>
<!-- Node4&#45;&gt;Node6 -->
<g id="edge5" class="edge">
<title>Node4&#45;&gt;Node6</title>
<path fill="none" stroke="midnightblue" d="M726.36,-133.57C733.9,-136.03 741.34,-139.12 748,-143 768.11,-154.7 763.83,-169.4 784,-181 787.89,-183.24 792.02,-185.21 796.29,-186.95"/>
<polygon fill="midnightblue" stroke="midnightblue" points="795.19,-190.28 805.79,-190.4 797.59,-183.7 795.19,-190.28"/>
</g>
<!-- Node7 -->
<g id="node7" class="node">
<title>Node7</title>
<g id="a_node7"><a xlink:href="../../d8/daf/a01550.html#a1dccdbfce4b3d101038883cb065c4e17" target="_top" xlink:title=" ">
<polygon fill="none" stroke="black" points="790,-38.5 790,-57.5 941,-57.5 941,-38.5 790,-38.5"/>
<text text-anchor="middle" x="865.5" y="-45.5" font-family="Helvetica,sans-Serif" font-size="10.00">com.cliffc.aa.util.AryInt.last</text>
</a>
</g>
</g>
<!-- Node4&#45;&gt;Node7 -->
<g id="edge6" class="edge">
<title>Node4&#45;&gt;Node7</title>
<path fill="none" stroke="midnightblue" d="M686.93,-114.45C708.33,-101.97 747.87,-80.17 784,-67 791.04,-64.44 798.55,-62.13 806.04,-60.08"/>
<polygon fill="midnightblue" stroke="midnightblue" points="807.05,-63.43 815.85,-57.53 805.3,-56.66 807.05,-63.43"/>
</g>
<!-- Node9 -->
<g id="node9" class="node">
<title>Node9</title>
<g id="a_node9"><a xlink:href="../../d1/d9b/a01566.html#a4b4af910be7303e0735124e0af8a5864" target="_top" xlink:title=" ">
<polygon fill="none" stroke="black" points="784,-114.5 784,-133.5 947,-133.5 947,-114.5 784,-114.5"/>
<text text-anchor="middle" x="865.5" y="-121.5" font-family="Helvetica,sans-Serif" font-size="10.00">com.cliffc.aa.util.IBitSet.mask</text>
</a>
</g>
</g>
<!-- Node4&#45;&gt;Node9 -->
<g id="edge8" class="edge">
<title>Node4&#45;&gt;Node9</title>
<path fill="none" stroke="midnightblue" d="M746.64,-124C755.5,-124 764.6,-124 773.64,-124"/>
<polygon fill="midnightblue" stroke="midnightblue" points="773.8,-127.5 783.8,-124 773.8,-120.5 773.8,-127.5"/>
</g>
<!-- Node10 -->
<g id="node10" class="node">
<title>Node10</title>
<g id="a_node10"><a xlink:href="../../d8/daf/a01550.html#a9f8b8d19967c86e69d77d595d881f10e" target="_top" xlink:title=" ">
<polygon fill="none" stroke="black" points="790,-0.5 790,-19.5 941,-19.5 941,-0.5 790,-0.5"/>
<text text-anchor="middle" x="865.5" y="-7.5" font-family="Helvetica,sans-Serif" font-size="10.00">com.cliffc.aa.util.AryInt.pop</text>
</a>
</g>
</g>
<!-- Node4&#45;&gt;Node10 -->
<g id="edge9" class="edge">
<title>Node4&#45;&gt;Node10</title>
<path fill="none" stroke="midnightblue" d="M679.58,-114.21C697.15,-94.81 739.34,-51.43 784,-29 788.81,-26.58 793.94,-24.47 799.19,-22.61"/>
<polygon fill="midnightblue" stroke="midnightblue" points="800.28,-25.94 808.73,-19.56 798.14,-19.28 800.28,-25.94"/>
</g>
<!-- Node11 -->
<g id="node11" class="node">
<title>Node11</title>
<g id="a_node11"><a xlink:href="../../d8/daf/a01550.html#a800bd7114a8542084daf30f523573cc7" target="_top" xlink:title=" ">
<polygon fill="none" stroke="black" points="788,-76.5 788,-95.5 943,-95.5 943,-76.5 788,-76.5"/>
<text text-anchor="middle" x="865.5" y="-83.5" font-family="Helvetica,sans-Serif" font-size="10.00">com.cliffc.aa.util.AryInt.setX</text>
</a>
</g>
</g>
<!-- Node4&#45;&gt;Node11 -->
<g id="edge11" class="edge">
<title>Node4&#45;&gt;Node11</title>
<path fill="none" stroke="midnightblue" d="M719.83,-114.41C746.05,-109.26 778.56,-102.88 806.12,-97.47"/>
<polygon fill="midnightblue" stroke="midnightblue" points="806.88,-100.88 816.02,-95.52 805.54,-94.01 806.88,-100.88"/>
</g>
<!-- Node8 -->
<g id="node8" class="node">
<title>Node8</title>
<g id="a_node8"><a xlink:href="../../d8/daf/a01550.html#ad9642b82e1824a59fa648bdde9b77a22" target="_top" xlink:title=" ">
<polygon fill="none" stroke="black" points="983,-14 983,-44 1144,-44 1144,-14 983,-14"/>
<text text-anchor="start" x="991" y="-32" font-family="Helvetica,sans-Serif" font-size="10.00">com.cliffc.aa.util.AryInt.range</text>
<text text-anchor="middle" x="1063.5" y="-21" font-family="Helvetica,sans-Serif" font-size="10.00">_check</text>
</a>
</g>
</g>
<!-- Node7&#45;&gt;Node8 -->
<g id="edge7" class="edge">
<title>Node7&#45;&gt;Node8</title>
<path fill="none" stroke="midnightblue" d="M941.16,-40.76C951.49,-39.76 962.19,-38.72 972.75,-37.7"/>
<polygon fill="midnightblue" stroke="midnightblue" points="973.21,-41.17 982.83,-36.72 972.54,-34.2 973.21,-41.17"/>
</g>
<!-- Node10&#45;&gt;Node8 -->
<g id="edge10" class="edge">
<title>Node10&#45;&gt;Node8</title>
<path fill="none" stroke="midnightblue" d="M941.16,-17.24C951.49,-18.24 962.19,-19.28 972.75,-20.3"/>
<polygon fill="midnightblue" stroke="midnightblue" points="972.54,-23.8 982.83,-21.28 973.21,-16.83 972.54,-23.8"/>
</g>
<!-- Node12&#45;&gt;Node5 -->
<g id="edge13" class="edge">
<title>Node12&#45;&gt;Node5</title>
<path fill="none" stroke="midnightblue" d="M748.03,-162C758.73,-162 769.77,-162 780.59,-162"/>
<polygon fill="midnightblue" stroke="midnightblue" points="780.88,-165.5 790.88,-162 780.88,-158.5 780.88,-165.5"/>
</g>
<!-- Node12&#45;&gt;Node6 -->
<g id="edge14" class="edge">
<title>Node12&#45;&gt;Node6</title>
<path fill="none" stroke="midnightblue" d="M719.83,-171.59C746.05,-176.74 778.56,-183.12 806.12,-188.53"/>
<polygon fill="midnightblue" stroke="midnightblue" points="805.54,-191.99 816.02,-190.48 806.88,-185.12 805.54,-191.99"/>
</g>
<!-- Node12&#45;&gt;Node9 -->
<g id="edge15" class="edge">
<title>Node12&#45;&gt;Node9</title>
<path fill="none" stroke="midnightblue" d="M719.83,-152.41C746.05,-147.26 778.56,-140.88 806.12,-135.47"/>
<polygon fill="midnightblue" stroke="midnightblue" points="806.88,-138.88 816.02,-133.52 805.54,-132.01 806.88,-138.88"/>
</g>
<!-- Node12&#45;&gt;Node11 -->
<g id="edge16" class="edge">
<title>Node12&#45;&gt;Node11</title>
<path fill="none" stroke="midnightblue" d="M726.36,-152.43C733.9,-149.97 741.34,-146.88 748,-143 768.11,-131.3 763.83,-116.6 784,-105 787.89,-102.76 792.02,-100.79 796.29,-99.05"/>
<polygon fill="midnightblue" stroke="midnightblue" points="797.59,-102.3 805.79,-95.6 795.19,-95.72 797.59,-102.3"/>
</g>
</g>
</svg>
        <g id="navigator" transform="translate(0 0)" fill="#404254">
                <rect fill="#f2f5e9" fill-opacity="0.5" stroke="#606060" stroke-width=".5" x="0" y="0" width="60" height="60"/>
                <use id="zoomplus" xlink:href="#zoomPlus" x="17" y="9" onmousedown="handleZoom(evt,'in')"/>
                <use id="zoomminus" xlink:href="#zoomMin" x="42" y="9" onmousedown="handleZoom(evt,'out')"/>
                <use id="reset" xlink:href="#resetDef" x="30" y="36" onmousedown="handleReset()"/>
                <g id="arrowUp" xlink:href="#dirArrow" transform="translate(30 24)" onmousedown="handlePan(0,-1)">
                  <use xlink:href="#rim" fill="#404040">
                        <set attributeName="fill" to="#808080" begin="arrowUp.mouseover" end="arrowUp.mouseout"/>
                  </use>
                  <path fill="none" stroke="white" stroke-width="1.5" d="M0,-3.0v7 M-2.5,-0.5L0,-3.0L2.5,-0.5"/>
                </g>
                <g id="arrowRight" xlink:href="#dirArrow" transform="rotate(90) translate(36 -43)" onmousedown="handlePan(1,0)">
                  <use xlink:href="#rim" fill="#404040">
                        <set attributeName="fill" to="#808080" begin="arrowRight.mouseover" end="arrowRight.mouseout"/>
                  </use>
                  <path fill="none" stroke="white" stroke-width="1.5" d="M0,-3.0v7 M-2.5,-0.5L0,-3.0L2.5,-0.5"/>
                </g>
                <g id="arrowDown" xlink:href="#dirArrow" transform="rotate(180) translate(-30 -48)" onmousedown="handlePan(0,1)">
                  <use xlink:href="#rim" fill="#404040">
                        <set attributeName="fill" to="#808080" begin="arrowDown.mouseover" end="arrowDown.mouseout"/>
                  </use>
                  <path fill="none" stroke="white" stroke-width="1.5" d="M0,-3.0v7 M-2.5,-0.5L0,-3.0L2.5,-0.5"/>
                </g>
                <g id="arrowLeft" xlink:href="#dirArrow" transform="rotate(270) translate(-36 17)" onmousedown="handlePan(-1,0)">
                  <use xlink:href="#rim" fill="#404040">
                        <set attributeName="fill" to="#808080" begin="arrowLeft.mouseover" end="arrowLeft.mouseout"/>
                  </use>
                  <path fill="none" stroke="white" stroke-width="1.5" d="M0,-3.0v7 M-2.5,-0.5L0,-3.0L2.5,-0.5"/>
                </g>
        </g>
        <svg viewBox="0 0 15 15" width="100%" height="30px" preserveAspectRatio="xMaxYMin meet">
         <g id="arrow_out" transform="scale(0.3 0.3)">
          <a xlink:href="a00666_a321c226d7892f115e3d3673f874184a1_cgraph_org.svg" target="_base">
           <rect id="button" ry="5" rx="5" y="6" x="6" height="38" width="38"
                fill="#f2f5e9" fill-opacity="0.5" stroke="#606060" stroke-width="1.0"/>
           <path id="arrow"
             d="M 11.500037,31.436501 C 11.940474,20.09759 22.043105,11.32322 32.158766,21.979434 L 37.068811,17.246167 C 37.068811,17.246167 37.088388,32 37.088388,32 L 22.160133,31.978069 C 22.160133,31.978069 26.997745,27.140456 26.997745,27.140456 C 18.528582,18.264221 13.291696,25.230495 11.500037,31.436501 z"
             style="fill:#404040;"/>
          </a>
         </g>
        </svg>
</svg>
