<?xml version="1.0" encoding="UTF-8" standalone="no"?>
<!DOCTYPE svg PUBLIC "-//W3C//DTD SVG 1.1//EN"
 "http://www.w3.org/Graphics/SVG/1.1/DTD/svg11.dtd">
<!-- Generated by graphviz version 2.43.0 (0)
 -->
<!-- Title: com.cliffc.aa.type.Bits.test_recur Pages: 1 -->
<!--zoomable 701 -->
<svg id="main" version="1.1" xmlns="http://www.w3.org/2000/svg" xmlns:xlink="http://www.w3.org/1999/xlink" xml:space="preserve" onload="init(evt)">
<style type="text/css"><![CDATA[
.edge:hover path { stroke: red; }
.edge:hover polygon { stroke: red; fill: red; }
]]></style>
<script type="text/javascript"><![CDATA[
var edges = document.getElementsByTagName('g');
if (edges && edges.length) {
  for (var i=0;i<edges.length;i++) {
    if (edges[i].id.substr(0,4)=='edge') {
      edges[i].setAttribute('class','edge');
    }
  }
}
]]></script>
        <defs>
                <circle id="rim" cx="0" cy="0" r="7"/>
                <circle id="rim2" cx="0" cy="0" r="3.5"/>
                <g id="zoomPlus">
                        <use xlink:href="#rim" fill="#404040">
                                <set attributeName="fill" to="#808080" begin="zoomplus.mouseover" end="zoomplus.mouseout"/>
                        </use>
                        <path d="M-4,0h8M0,-4v8" fill="none" stroke="white" stroke-width="1.5" pointer-events="none"/>
                </g>
                <g id="zoomMin">
                        <use xlink:href="#rim" fill="#404040">
                                <set attributeName="fill" to="#808080" begin="zoomminus.mouseover" end="zoomminus.mouseout"/>
                        </use>
                        <path d="M-4,0h8" fill="none" stroke="white" stroke-width="1.5" pointer-events="none"/>
                </g>
                <g id="dirArrow">
                        <path fill="none" stroke="white" stroke-width="1.5" d="M0,-3.0v7 M-2.5,-0.5L0,-3.0L2.5,-0.5"/>
                </g>
               <g id="resetDef">
                       <use xlink:href="#rim2" fill="#404040">
                               <set attributeName="fill" to="#808080" begin="reset.mouseover" end="reset.mouseout"/>
                       </use>
               </g>
        </defs>

<script type="text/javascript">
var viewWidth = 1265;
var viewHeight = 701;
var sectionId = 'dynsection-36';
</script>
<script xlink:href="../../svgpan.js"/>
<svg id="graph" class="graph">
<g id="viewport">
<title>com.cliffc.aa.type.Bits.test_recur</title>
<!-- Node1 -->
<g id="node1" class="node">
<title>Node1</title>
<g id="a_node1"><a xlink:title=" ">
<polygon fill="#bfbfbf" stroke="black" points="1110,-318.5 1110,-348.5 1257,-348.5 1257,-318.5 1110,-318.5"/>
<text text-anchor="start" x="1118" y="-336.5" font-family="Helvetica,sans-Serif" font-size="10.00">com.cliffc.aa.type.Bits.test</text>
<text text-anchor="middle" x="1183.5" y="-325.5" font-family="Helvetica,sans-Serif" font-size="10.00">_recur</text>
</a>
</g>
</g>
<!-- Node2 -->
<g id="node2" class="node">
<title>Node2</title>
<g id="a_node2"><a xlink:href="../../d0/d2b/a01010.html#ab379c52becb0c5ae2aea5dfa6046eea2" target="_top" xlink:title=" ">
<polygon fill="none" stroke="black" points="641,-655.5 641,-685.5 797,-685.5 797,-655.5 641,-655.5"/>
<text text-anchor="start" x="649" y="-673.5" font-family="Helvetica,sans-Serif" font-size="10.00">com.cliffc.aa.node.CallNode.</text>
<text text-anchor="middle" x="719" y="-662.5" font-family="Helvetica,sans-Serif" font-size="10.00">_ideal_grow</text>
</a>
</g>
</g>
<!-- Node1&#45;&gt;Node2 -->
<g id="edge1" class="edge">
<title>Node1&#45;&gt;Node2</title>
<path fill="none" stroke="midnightblue" d="M1182.15,-358.62C1179.81,-418.6 1164.75,-570.38 1074,-640.5 993.71,-702.53 870.44,-697.23 792.57,-685.52"/>
<polygon fill="midnightblue" stroke="midnightblue" points="1185.65,-358.63 1182.45,-348.53 1178.65,-358.42 1185.65,-358.63"/>
</g>
<!-- Node4 -->
<g id="node4" class="node">
<title>Node4</title>
<g id="a_node4"><a xlink:href="../../d6/d51/a01494.html#a8c931db1f6bb0b89813e7b5b79167949" target="_top" xlink:title=" ">
<polygon fill="none" stroke="black" points="877.5,-600.5 877.5,-630.5 1052.5,-630.5 1052.5,-600.5 877.5,-600.5"/>
<text text-anchor="start" x="885.5" y="-618.5" font-family="Helvetica,sans-Serif" font-size="10.00">com.cliffc.aa.type.TypeMem.and</text>
<text text-anchor="middle" x="965" y="-607.5" font-family="Helvetica,sans-Serif" font-size="10.00">_unused</text>
</a>
</g>
</g>
<!-- Node1&#45;&gt;Node4 -->
<g id="edge3" class="edge">
<title>Node1&#45;&gt;Node4</title>
<path fill="none" stroke="midnightblue" d="M1177.27,-358.69C1166.23,-406.03 1136.25,-508.99 1074,-569.5 1059.68,-583.42 1040.5,-593.43 1022.27,-600.47"/>
<polygon fill="midnightblue" stroke="midnightblue" points="1180.75,-359.2 1179.52,-348.68 1173.91,-357.67 1180.75,-359.2"/>
</g>
<!-- Node6 -->
<g id="node6" class="node">
<title>Node6</title>
<g id="a_node6"><a xlink:href="../../d0/dfb/a01066.html#a14a8ca3940ab377a67de458b109a36d9" target="_top" xlink:title=" ">
<polygon fill="none" stroke="black" points="875.5,-529.5 875.5,-559.5 1054.5,-559.5 1054.5,-529.5 875.5,-529.5"/>
<text text-anchor="start" x="883.5" y="-547.5" font-family="Helvetica,sans-Serif" font-size="10.00">com.cliffc.aa.node.LoadNode.find</text>
<text text-anchor="middle" x="965" y="-536.5" font-family="Helvetica,sans-Serif" font-size="10.00">_previous_store</text>
</a>
</g>
</g>
<!-- Node1&#45;&gt;Node6 -->
<g id="edge6" class="edge">
<title>Node1&#45;&gt;Node6</title>
<path fill="none" stroke="midnightblue" d="M1173.62,-358.49C1158.84,-396.57 1125.6,-468.96 1074,-509.5 1063.15,-518.02 1050.16,-524.5 1037.01,-529.42"/>
<polygon fill="midnightblue" stroke="midnightblue" points="1177.05,-359.31 1177.3,-348.71 1170.5,-356.84 1177.05,-359.31"/>
</g>
<!-- Node8 -->
<g id="node8" class="node">
<title>Node8</title>
<g id="a_node8"><a xlink:href="../../d3/d08/a01018.html#ab80c0240e157a0c29c501fec7f248154" target="_top" xlink:title=" ">
<polygon fill="none" stroke="black" points="895,-469.5 895,-499.5 1035,-499.5 1035,-469.5 895,-469.5"/>
<text text-anchor="start" x="903" y="-487.5" font-family="Helvetica,sans-Serif" font-size="10.00">com.cliffc.aa.node.CEProj</text>
<text text-anchor="middle" x="965" y="-476.5" font-family="Helvetica,sans-Serif" font-size="10.00">Node.good_call</text>
</a>
</g>
</g>
<!-- Node1&#45;&gt;Node8 -->
<g id="edge8" class="edge">
<title>Node1&#45;&gt;Node8</title>
<path fill="none" stroke="midnightblue" d="M1167.43,-357.26C1148.79,-384.73 1114.49,-429.37 1074,-454.5 1062.18,-461.84 1048.53,-467.41 1035.01,-471.65"/>
<polygon fill="midnightblue" stroke="midnightblue" points="1170.53,-358.92 1173.14,-348.66 1164.7,-355.05 1170.53,-358.92"/>
</g>
<!-- Node14 -->
<g id="node14" class="node">
<title>Node14</title>
<g id="a_node14"><a xlink:href="../../dc/d81/a01006.html#a2fc8d45a36328634008e89d520cfb885" target="_top" xlink:title=" ">
<polygon fill="none" stroke="black" points="406,-441.5 406,-471.5 549,-471.5 549,-441.5 406,-441.5"/>
<text text-anchor="start" x="414" y="-459.5" font-family="Helvetica,sans-Serif" font-size="10.00">com.cliffc.aa.node.CallEpi</text>
<text text-anchor="middle" x="477.5" y="-448.5" font-family="Helvetica,sans-Serif" font-size="10.00">Node.ideal_reduce</text>
</a>
</g>
</g>
<!-- Node1&#45;&gt;Node14 -->
<g id="edge18" class="edge">
<title>Node1&#45;&gt;Node14</title>
<path fill="none" stroke="midnightblue" d="M1162.62,-356.29C1142.61,-377.43 1109.69,-407.65 1074,-421.5 980.16,-457.9 685.52,-459.2 549.1,-457.72"/>
<polygon fill="midnightblue" stroke="midnightblue" points="1165.42,-358.41 1169.63,-348.68 1160.28,-353.66 1165.42,-358.41"/>
</g>
<!-- Node17 -->
<g id="node17" class="node">
<title>Node17</title>
<g id="a_node17"><a xlink:href="../../d0/dfb/a01066.html#afe41e60c06ba59759f9f18ad385f7490" target="_top" xlink:title=" ">
<polygon fill="none" stroke="black" points="856,-393 856,-412 1074,-412 1074,-393 856,-393"/>
<text text-anchor="middle" x="965" y="-400" font-family="Helvetica,sans-Serif" font-size="10.00">com.cliffc.aa.node.LoadNode.ideal_mono</text>
</a>
</g>
</g>
<!-- Node1&#45;&gt;Node17 -->
<g id="edge17" class="edge">
<title>Node1&#45;&gt;Node17</title>
<path fill="none" stroke="midnightblue" d="M1145.72,-353.33C1125.14,-363.69 1098.72,-375.77 1074,-383.5 1061.83,-387.31 1048.63,-390.42 1035.77,-392.95"/>
<polygon fill="midnightblue" stroke="midnightblue" points="1147.43,-356.39 1154.74,-348.72 1144.24,-350.16 1147.43,-356.39"/>
</g>
<!-- Node18 -->
<g id="node18" class="node">
<title>Node18</title>
<g id="a_node18"><a xlink:href="../../dc/d81/a01006.html#aab0bc7edb3975970a3b88234b49e76f5" target="_top" xlink:title=" ">
<polygon fill="none" stroke="black" points="893.5,-343.5 893.5,-373.5 1036.5,-373.5 1036.5,-343.5 893.5,-343.5"/>
<text text-anchor="start" x="901.5" y="-361.5" font-family="Helvetica,sans-Serif" font-size="10.00">com.cliffc.aa.node.CallEpi</text>
<text text-anchor="middle" x="965" y="-350.5" font-family="Helvetica,sans-Serif" font-size="10.00">Node.live_use</text>
</a>
</g>
</g>
<!-- Node1&#45;&gt;Node18 -->
<g id="edge19" class="edge">
<title>Node1&#45;&gt;Node18</title>
<path fill="none" stroke="midnightblue" d="M1099.72,-343.06C1078.93,-345.46 1056.81,-348.01 1036.67,-350.34"/>
<polygon fill="midnightblue" stroke="midnightblue" points="1100.27,-346.52 1109.81,-341.89 1099.47,-339.56 1100.27,-346.52"/>
</g>
<!-- Node19 -->
<g id="node19" class="node">
<title>Node19</title>
<g id="a_node19"><a xlink:href="../../d0/d2b/a01010.html#a6c076c510644c91a1259ff58ff0453cd" target="_top" xlink:title=" ">
<polygon fill="none" stroke="black" points="878,-196.5 878,-226.5 1052,-226.5 1052,-196.5 878,-196.5"/>
<text text-anchor="start" x="886" y="-214.5" font-family="Helvetica,sans-Serif" font-size="10.00">com.cliffc.aa.node.CallNode.live</text>
<text text-anchor="middle" x="965" y="-203.5" font-family="Helvetica,sans-Serif" font-size="10.00">_use_call</text>
</a>
</g>
</g>
<!-- Node1&#45;&gt;Node19 -->
<g id="edge20" class="edge">
<title>Node1&#45;&gt;Node19</title>
<path fill="none" stroke="midnightblue" d="M1163.43,-310.79C1143.43,-288.48 1109.96,-255.15 1074,-236.5 1066.48,-232.6 1058.36,-229.3 1050.06,-226.52"/>
<polygon fill="midnightblue" stroke="midnightblue" points="1160.94,-313.26 1170.16,-318.47 1166.2,-308.64 1160.94,-313.26"/>
</g>
<!-- Node21 -->
<g id="node21" class="node">
<title>Node21</title>
<g id="a_node21"><a xlink:href="../../d4/d3c/a01418.html#abcedd7ba50d0aefc94780f1f46b65e34" target="_top" xlink:title=" ">
<polygon fill="none" stroke="black" points="902.5,-245.5 902.5,-275.5 1027.5,-275.5 1027.5,-245.5 902.5,-245.5"/>
<text text-anchor="start" x="910.5" y="-263.5" font-family="Helvetica,sans-Serif" font-size="10.00">com.cliffc.aa.type.Bits</text>
<text text-anchor="middle" x="965" y="-252.5" font-family="Helvetica,sans-Serif" font-size="10.00">&lt; BitsRPC &gt;::overlaps</text>
</a>
</g>
</g>
<!-- Node1&#45;&gt;Node21 -->
<g id="edge22" class="edge">
<title>Node1&#45;&gt;Node21</title>
<path fill="none" stroke="midnightblue" d="M1143.46,-314.08C1123.12,-304.52 1097.61,-293.38 1074,-285.5 1059.21,-280.57 1042.97,-276.25 1027.67,-272.66"/>
<polygon fill="midnightblue" stroke="midnightblue" points="1142.17,-317.34 1152.71,-318.49 1145.18,-311.03 1142.17,-317.34"/>
</g>
<!-- Node22 -->
<g id="node22" class="node">
<title>Node22</title>
<g id="a_node22"><a xlink:href="../../d6/d51/a01494.html#ad866f82ab215dec5b0f3988654111189" target="_top" xlink:title=" ">
<polygon fill="none" stroke="black" points="868,-294.5 868,-324.5 1062,-324.5 1062,-294.5 868,-294.5"/>
<text text-anchor="start" x="876" y="-312.5" font-family="Helvetica,sans-Serif" font-size="10.00">com.cliffc.aa.type.TypeMem.remove</text>
<text text-anchor="middle" x="965" y="-301.5" font-family="Helvetica,sans-Serif" font-size="10.00">_no_escapes</text>
</a>
</g>
</g>
<!-- Node1&#45;&gt;Node22 -->
<g id="edge23" class="edge">
<title>Node1&#45;&gt;Node22</title>
<path fill="none" stroke="midnightblue" d="M1099.67,-324.32C1087.46,-322.96 1074.8,-321.56 1062.34,-320.18"/>
<polygon fill="midnightblue" stroke="midnightblue" points="1099.48,-327.82 1109.81,-325.44 1100.25,-320.86 1099.48,-327.82"/>
</g>
<!-- Node24 -->
<g id="node24" class="node">
<title>Node24</title>
<g id="a_node24"><a xlink:href="../../d6/d51/a01494.html#af50e8f32b1dcfbc7653fb17d0702334b" target="_top" xlink:title=" ">
<polygon fill="none" stroke="black" points="875.5,-147.5 875.5,-177.5 1054.5,-177.5 1054.5,-147.5 875.5,-147.5"/>
<text text-anchor="start" x="883.5" y="-165.5" font-family="Helvetica,sans-Serif" font-size="10.00">com.cliffc.aa.type.TypeMem.slice</text>
<text text-anchor="middle" x="965" y="-154.5" font-family="Helvetica,sans-Serif" font-size="10.00">_reaching_aliases</text>
</a>
</g>
</g>
<!-- Node1&#45;&gt;Node24 -->
<g id="edge25" class="edge">
<title>Node1&#45;&gt;Node24</title>
<path fill="none" stroke="midnightblue" d="M1171.46,-309.16C1155.1,-275.99 1121.19,-217.2 1074,-186.5 1067.96,-182.57 1061.38,-179.28 1054.53,-176.52"/>
<polygon fill="midnightblue" stroke="midnightblue" points="1168.31,-310.68 1175.79,-318.18 1174.62,-307.65 1168.31,-310.68"/>
</g>
<!-- Node31 -->
<g id="node31" class="node">
<title>Node31</title>
<g id="a_node31"><a xlink:href="../../d9/d8e/a01050.html#a0ef60478ee30510481eb33dc87069b2a" target="_top" xlink:title=" ">
<polygon fill="none" stroke="black" points="877,-98.5 877,-128.5 1053,-128.5 1053,-98.5 877,-98.5"/>
<text text-anchor="start" x="885" y="-116.5" font-family="Helvetica,sans-Serif" font-size="10.00">com.cliffc.aa.node.FunNode.split</text>
<text text-anchor="middle" x="965" y="-105.5" font-family="Helvetica,sans-Serif" font-size="10.00">_callers</text>
</a>
</g>
</g>
<!-- Node1&#45;&gt;Node31 -->
<g id="edge33" class="edge">
<title>Node1&#45;&gt;Node31</title>
<path fill="none" stroke="midnightblue" d="M1176.01,-308.67C1163.65,-266.52 1132.58,-181.3 1074,-137.5 1067.69,-132.78 1060.64,-128.96 1053.23,-125.87"/>
<polygon fill="midnightblue" stroke="midnightblue" points="1172.67,-309.73 1178.75,-318.4 1179.41,-307.83 1172.67,-309.73"/>
</g>
<!-- Node33 -->
<g id="node33" class="node">
<title>Node33</title>
<g id="a_node33"><a xlink:href="../../d4/d3c/a01418.html#a8f5464adb463b37b18950652c457b503" target="_top" xlink:title=" ">
<polygon fill="none" stroke="black" points="902.5,-49.5 902.5,-79.5 1027.5,-79.5 1027.5,-49.5 902.5,-49.5"/>
<text text-anchor="start" x="910.5" y="-67.5" font-family="Helvetica,sans-Serif" font-size="10.00">com.cliffc.aa.type.Bits</text>
<text text-anchor="middle" x="965" y="-56.5" font-family="Helvetica,sans-Serif" font-size="10.00">&lt; BitsRPC &gt;::subtract</text>
</a>
</g>
</g>
<!-- Node1&#45;&gt;Node33 -->
<g id="edge35" class="edge">
<title>Node1&#45;&gt;Node33</title>
<path fill="none" stroke="midnightblue" d="M1178.93,-308.33C1170.44,-258.25 1144.24,-146.03 1074,-88.5 1060.92,-77.79 1044.08,-71.61 1027.59,-68.1"/>
<polygon fill="midnightblue" stroke="midnightblue" points="1175.49,-308.98 1180.52,-318.3 1182.4,-307.87 1175.49,-308.98"/>
</g>
<!-- Node34 -->
<g id="node34" class="node">
<title>Node34</title>
<g id="a_node34"><a xlink:href="../../dc/d81/a01006.html#abb422a6e7ca1e2d4c40517cc0197a237" target="_top" xlink:title=" ">
<polygon fill="none" stroke="black" points="893.5,-0.5 893.5,-30.5 1036.5,-30.5 1036.5,-0.5 893.5,-0.5"/>
<text text-anchor="start" x="901.5" y="-18.5" font-family="Helvetica,sans-Serif" font-size="10.00">com.cliffc.aa.node.CallEpi</text>
<text text-anchor="middle" x="965" y="-7.5" font-family="Helvetica,sans-Serif" font-size="10.00">Node.value</text>
</a>
</g>
</g>
<!-- Node1&#45;&gt;Node34 -->
<g id="edge36" class="edge">
<title>Node1&#45;&gt;Node34</title>
<path fill="none" stroke="midnightblue" d="M1181,-308.22C1176.19,-251.06 1156.19,-111.29 1074,-39.5 1063.51,-30.34 1050.3,-24.44 1036.75,-20.7"/>
<polygon fill="midnightblue" stroke="midnightblue" points="1177.51,-308.49 1181.76,-318.2 1184.49,-307.96 1177.51,-308.49"/>
</g>
<!-- Node3 -->
<g id="node3" class="node">
<title>Node3</title>
<g id="a_node3"><a xlink:href="../../d0/d2b/a01010.html#a88196b80c9958b84e83d3d5e8967ec48" target="_top" xlink:title=" ">
<polygon fill="none" stroke="black" points="373,-628 373,-647 582,-647 582,-628 373,-628"/>
<text text-anchor="middle" x="477.5" y="-635" font-family="Helvetica,sans-Serif" font-size="10.00">com.cliffc.aa.node.CallNode.ideal_grow</text>
</a>
</g>
</g>
<!-- Node2&#45;&gt;Node3 -->
<g id="edge2" class="edge">
<title>Node2&#45;&gt;Node3</title>
<path fill="none" stroke="midnightblue" d="M630.94,-658.5C603.57,-654.73 573.73,-650.62 547.76,-647.04"/>
<polygon fill="midnightblue" stroke="midnightblue" points="630.52,-661.98 640.9,-659.88 631.47,-655.04 630.52,-661.98"/>
</g>
<!-- Node5 -->
<g id="node5" class="node">
<title>Node5</title>
<g id="a_node5"><a xlink:href="../../d0/d2b/a01010.html#a5b34a20cc97a31a50a5dc1b5450f62fd" target="_top" xlink:title=" ">
<polygon fill="none" stroke="black" points="618,-617 618,-636 820,-636 820,-617 618,-617"/>
<text text-anchor="middle" x="719" y="-624" font-family="Helvetica,sans-Serif" font-size="10.00">com.cliffc.aa.node.CallNode.escapees</text>
</a>
</g>
</g>
<!-- Node4&#45;&gt;Node5 -->
<g id="edge4" class="edge">
<title>Node4&#45;&gt;Node5</title>
<path fill="none" stroke="midnightblue" d="M867.22,-619.86C851.75,-620.56 835.72,-621.28 820.17,-621.98"/>
<polygon fill="midnightblue" stroke="midnightblue" points="867.46,-623.36 877.29,-619.41 867.14,-616.36 867.46,-623.36"/>
</g>
<!-- Node5&#45;&gt;Node3 -->
<g id="edge5" class="edge">
<title>Node5&#45;&gt;Node3</title>
<path fill="none" stroke="midnightblue" d="M607.82,-631.56C599.26,-631.95 590.64,-632.35 582.13,-632.74"/>
<polygon fill="midnightblue" stroke="midnightblue" points="607.99,-635.06 617.82,-631.1 607.67,-628.06 607.99,-635.06"/>
</g>
<!-- Node7 -->
<g id="node7" class="node">
<title>Node7</title>
<g id="a_node7"><a xlink:href="../../d0/dfb/a01066.html#af687a97365428ba2560bff84c7d20eff" target="_top" xlink:title=" ">
<polygon fill="none" stroke="black" points="626.5,-567.5 626.5,-597.5 811.5,-597.5 811.5,-567.5 626.5,-567.5"/>
<text text-anchor="start" x="634.5" y="-585.5" font-family="Helvetica,sans-Serif" font-size="10.00">com.cliffc.aa.node.LoadNode.ideal</text>
<text text-anchor="middle" x="719" y="-574.5" font-family="Helvetica,sans-Serif" font-size="10.00">_reduce</text>
</a>
</g>
</g>
<!-- Node6&#45;&gt;Node7 -->
<g id="edge7" class="edge">
<title>Node6&#45;&gt;Node7</title>
<path fill="none" stroke="midnightblue" d="M864.93,-559.93C847.29,-562.68 829,-565.53 811.58,-568.24"/>
<polygon fill="midnightblue" stroke="midnightblue" points="865.88,-563.32 875.22,-558.33 864.8,-556.41 865.88,-563.32"/>
</g>
<!-- Node9 -->
<g id="node9" class="node">
<title>Node9</title>
<g id="a_node9"><a xlink:href="../../dc/d81/a01006.html#ae25482952b8921d40650ad9fa679b19b" target="_top" xlink:title=" ">
<polygon fill="none" stroke="black" points="647.5,-518.5 647.5,-548.5 790.5,-548.5 790.5,-518.5 647.5,-518.5"/>
<text text-anchor="start" x="655.5" y="-536.5" font-family="Helvetica,sans-Serif" font-size="10.00">com.cliffc.aa.node.CallEpi</text>
<text text-anchor="middle" x="719" y="-525.5" font-family="Helvetica,sans-Serif" font-size="10.00">Node.check_and_wire</text>
</a>
</g>
</g>
<!-- Node8&#45;&gt;Node9 -->
<g id="edge9" class="edge">
<title>Node8&#45;&gt;Node9</title>
<path fill="none" stroke="midnightblue" d="M884.64,-500.44C854.38,-506.51 820.12,-513.39 790.71,-519.3"/>
<polygon fill="midnightblue" stroke="midnightblue" points="885.62,-503.81 894.73,-498.41 884.24,-496.95 885.62,-503.81"/>
</g>
<!-- Node16 -->
<g id="node16" class="node">
<title>Node16</title>
<g id="a_node16"><a xlink:href="../../d3/d08/a01018.html#a22f64e4da42efc6c5048a50d5e4b408c" target="_top" xlink:title=" ">
<polygon fill="none" stroke="black" points="649,-469.5 649,-499.5 789,-499.5 789,-469.5 649,-469.5"/>
<text text-anchor="start" x="657" y="-487.5" font-family="Helvetica,sans-Serif" font-size="10.00">com.cliffc.aa.node.CEProj</text>
<text text-anchor="middle" x="719" y="-476.5" font-family="Helvetica,sans-Serif" font-size="10.00">Node.value</text>
</a>
</g>
</g>
<!-- Node8&#45;&gt;Node16 -->
<g id="edge16" class="edge">
<title>Node8&#45;&gt;Node16</title>
<path fill="none" stroke="midnightblue" d="M884.46,-484.5C853.66,-484.5 818.74,-484.5 789.02,-484.5"/>
<polygon fill="midnightblue" stroke="midnightblue" points="884.73,-488 894.73,-484.5 884.73,-481 884.73,-488"/>
</g>
<!-- Node10 -->
<g id="node10" class="node">
<title>Node10</title>
<g id="a_node10"><a xlink:href="../../d9/d0a/a00390.html#adef511925a7d3a3ec9b8441a8e2c298c" target="_top" xlink:title=" ">
<polygon fill="none" stroke="black" points="398.5,-507.5 398.5,-537.5 556.5,-537.5 556.5,-507.5 398.5,-507.5"/>
<text text-anchor="start" x="406.5" y="-525.5" font-family="Helvetica,sans-Serif" font-size="10.00">com.cliffc.aa.GVNGCM.check</text>
<text text-anchor="middle" x="477.5" y="-514.5" font-family="Helvetica,sans-Serif" font-size="10.00">_and_wire</text>
</a>
</g>
</g>
<!-- Node9&#45;&gt;Node10 -->
<g id="edge10" class="edge">
<title>Node9&#45;&gt;Node10</title>
<path fill="none" stroke="midnightblue" d="M637.22,-529.79C611.17,-528.59 582.36,-527.27 556.52,-526.08"/>
<polygon fill="midnightblue" stroke="midnightblue" points="637.29,-533.3 647.44,-530.26 637.61,-526.3 637.29,-533.3"/>
</g>
<!-- Node9&#45;&gt;Node14 -->
<g id="edge14" class="edge">
<title>Node9&#45;&gt;Node14</title>
<path fill="none" stroke="midnightblue" d="M640.25,-515.87C632.69,-513.85 625.18,-511.71 618,-509.5 582.1,-498.42 542.12,-482.89 514.19,-471.5"/>
<polygon fill="midnightblue" stroke="midnightblue" points="639.61,-519.32 650.17,-518.46 641.38,-512.55 639.61,-519.32"/>
</g>
<!-- Node15 -->
<g id="node15" class="node">
<title>Node15</title>
<g id="a_node15"><a xlink:href="../../d0/d2b/a01010.html#aef07a2283d73f9f60f0215af08389efb" target="_top" xlink:title=" ">
<polygon fill="none" stroke="black" points="387.5,-556.5 387.5,-586.5 567.5,-586.5 567.5,-556.5 387.5,-556.5"/>
<text text-anchor="start" x="395.5" y="-574.5" font-family="Helvetica,sans-Serif" font-size="10.00">com.cliffc.aa.node.CallNode.ideal</text>
<text text-anchor="middle" x="477.5" y="-563.5" font-family="Helvetica,sans-Serif" font-size="10.00">_reduce</text>
</a>
</g>
</g>
<!-- Node9&#45;&gt;Node15 -->
<g id="edge15" class="edge">
<title>Node9&#45;&gt;Node15</title>
<path fill="none" stroke="midnightblue" d="M637.32,-546.3C614.95,-549.85 590.54,-553.72 567.71,-557.35"/>
<polygon fill="midnightblue" stroke="midnightblue" points="638.11,-549.72 647.44,-544.7 637.01,-542.81 638.11,-549.72"/>
</g>
<!-- Node11 -->
<g id="node11" class="node">
<title>Node11</title>
<g id="a_node11"><a xlink:href="../../d9/d0a/a00390.html#a30adb7d17b631cd35a2e994feaa511f1" target="_top" xlink:title=" ">
<polygon fill="none" stroke="black" points="190,-513 190,-532 337,-532 337,-513 190,-513"/>
<text text-anchor="middle" x="263.5" y="-520" font-family="Helvetica,sans-Serif" font-size="10.00">com.cliffc.aa.GVNGCM.gcp</text>
</a>
</g>
</g>
<!-- Node10&#45;&gt;Node11 -->
<g id="edge11" class="edge">
<title>Node10&#45;&gt;Node11</title>
<path fill="none" stroke="midnightblue" d="M388,-522.5C371.05,-522.5 353.48,-522.5 337.1,-522.5"/>
<polygon fill="midnightblue" stroke="midnightblue" points="388.46,-526 398.46,-522.5 388.46,-519 388.46,-526"/>
</g>
<!-- Node12 -->
<g id="node12" class="node">
<title>Node12</title>
<g id="a_node12"><a xlink:href="../../da/de3/a01398.html#a7b1a6eaad3b721625612e7475ca9bf3b" target="_top" xlink:title=" ">
<polygon fill="none" stroke="black" points="15.5,-535 15.5,-554 138.5,-554 138.5,-535 15.5,-535"/>
<text text-anchor="middle" x="77" y="-542" font-family="Helvetica,sans-Serif" font-size="10.00">com.cliffc.aa.Parse.go</text>
</a>
</g>
</g>
<!-- Node11&#45;&gt;Node12 -->
<g id="edge12" class="edge">
<title>Node11&#45;&gt;Node12</title>
<path fill="none" stroke="midnightblue" d="M179.83,-532.36C165.98,-534.01 151.84,-535.69 138.68,-537.26"/>
<polygon fill="midnightblue" stroke="midnightblue" points="180.33,-535.82 189.85,-531.16 179.5,-528.87 180.33,-535.82"/>
</g>
<!-- Node13 -->
<g id="node13" class="node">
<title>Node13</title>
<g id="a_node13"><a xlink:href="../../d4/d8e/a01694.html#a0047bc5cd2ee14b1d3822a5969bc0502" target="_top" xlink:title=" ">
<polygon fill="none" stroke="black" points="0,-485.5 0,-515.5 154,-515.5 154,-485.5 0,-485.5"/>
<text text-anchor="start" x="8" y="-503.5" font-family="Helvetica,sans-Serif" font-size="10.00">com.cliffc.aa.node.TestNode</text>
<text text-anchor="middle" x="77" y="-492.5" font-family="Helvetica,sans-Serif" font-size="10.00">Small.testRecursiveDisplay</text>
</a>
</g>
</g>
<!-- Node11&#45;&gt;Node13 -->
<g id="edge13" class="edge">
<title>Node11&#45;&gt;Node13</title>
<path fill="none" stroke="midnightblue" d="M179.89,-512.65C171.35,-511.63 162.7,-510.6 154.23,-509.59"/>
<polygon fill="midnightblue" stroke="midnightblue" points="179.5,-516.13 189.85,-513.84 180.33,-509.18 179.5,-516.13"/>
</g>
<!-- Node20 -->
<g id="node20" class="node">
<title>Node20</title>
<g id="a_node20"><a xlink:href="../../d0/d2b/a01010.html#a21fa6d626c9b5de9200143339540c864" target="_top" xlink:title=" ">
<polygon fill="none" stroke="black" points="620.5,-224 620.5,-243 817.5,-243 817.5,-224 620.5,-224"/>
<text text-anchor="middle" x="719" y="-231" font-family="Helvetica,sans-Serif" font-size="10.00">com.cliffc.aa.node.CallNode.live_use</text>
</a>
</g>
</g>
<!-- Node19&#45;&gt;Node20 -->
<g id="edge21" class="edge">
<title>Node19&#45;&gt;Node20</title>
<path fill="none" stroke="midnightblue" d="M867.82,-220.17C851.36,-221.66 834.24,-223.2 817.74,-224.69"/>
<polygon fill="midnightblue" stroke="midnightblue" points="868.33,-223.64 877.97,-219.26 867.7,-216.67 868.33,-223.64"/>
</g>
<!-- Node23 -->
<g id="node23" class="node">
<title>Node23</title>
<g id="a_node23"><a xlink:href="../../d5/d16/a01154.html#ae505b9d4e63b3e7d8f88eb0db2a3d6e0" target="_top" xlink:title=" ">
<polygon fill="none" stroke="black" points="647,-294.5 647,-324.5 791,-324.5 791,-294.5 647,-294.5"/>
<text text-anchor="start" x="655" y="-312.5" font-family="Helvetica,sans-Serif" font-size="10.00">com.cliffc.aa.node.NewStr</text>
<text text-anchor="middle" x="719" y="-301.5" font-family="Helvetica,sans-Serif" font-size="10.00">Node.AddStrStr.live_use</text>
</a>
</g>
</g>
<!-- Node22&#45;&gt;Node23 -->
<g id="edge24" class="edge">
<title>Node22&#45;&gt;Node23</title>
<path fill="none" stroke="midnightblue" d="M857.64,-309.5C835.14,-309.5 811.92,-309.5 791.11,-309.5"/>
<polygon fill="midnightblue" stroke="midnightblue" points="857.92,-313 867.91,-309.5 857.91,-306 857.92,-313"/>
</g>
<!-- Node24&#45;&gt;Node20 -->
<g id="edge29" class="edge">
<title>Node24&#45;&gt;Node20</title>
<path fill="none" stroke="midnightblue" d="M870.22,-180.71C865.34,-182.47 860.57,-184.4 856,-186.5 837.83,-194.86 838.26,-205.34 820,-213.5 810.22,-217.87 799.48,-221.29 788.78,-223.97"/>
<polygon fill="midnightblue" stroke="midnightblue" points="871.34,-184.03 879.7,-177.53 869.11,-177.39 871.34,-184.03"/>
</g>
<!-- Node25 -->
<g id="node25" class="node">
<title>Node25</title>
<g id="a_node25"><a xlink:href="../../de/d5c/a01358.html#a13e135775bcafb6fe8c296b46dc0c2d6" target="_top" xlink:title=" ">
<polygon fill="none" stroke="black" points="648,-174.5 648,-204.5 790,-204.5 790,-174.5 648,-174.5"/>
<text text-anchor="start" x="656" y="-192.5" font-family="Helvetica,sans-Serif" font-size="10.00">com.cliffc.aa.node.Scope</text>
<text text-anchor="middle" x="719" y="-181.5" font-family="Helvetica,sans-Serif" font-size="10.00">Node.compute_live_mem</text>
</a>
</g>
</g>
<!-- Node24&#45;&gt;Node25 -->
<g id="edge26" class="edge">
<title>Node24&#45;&gt;Node25</title>
<path fill="none" stroke="midnightblue" d="M864.97,-173.46C839.97,-176.22 813.63,-179.14 790.37,-181.71"/>
<polygon fill="midnightblue" stroke="midnightblue" points="865.67,-176.9 875.22,-172.32 864.9,-169.95 865.67,-176.9"/>
</g>
<!-- Node28 -->
<g id="node28" class="node">
<title>Node28</title>
<g id="a_node28"><a xlink:href="../../da/d4e/a01106.html#a59f63602fac7a9816636e9f6538f9bfa" target="_top" xlink:title=" ">
<polygon fill="none" stroke="black" points="641.5,-125.5 641.5,-155.5 796.5,-155.5 796.5,-125.5 641.5,-125.5"/>
<text text-anchor="start" x="649.5" y="-143.5" font-family="Helvetica,sans-Serif" font-size="10.00">com.cliffc.aa.node.MemSplit</text>
<text text-anchor="middle" x="719" y="-132.5" font-family="Helvetica,sans-Serif" font-size="10.00">Node.value</text>
</a>
</g>
</g>
<!-- Node24&#45;&gt;Node28 -->
<g id="edge30" class="edge">
<title>Node24&#45;&gt;Node28</title>
<path fill="none" stroke="midnightblue" d="M865.17,-153.59C842.33,-151.53 818.36,-149.37 796.63,-147.41"/>
<polygon fill="midnightblue" stroke="midnightblue" points="864.95,-157.08 875.22,-154.5 865.57,-150.11 864.95,-157.08"/>
</g>
<!-- Node29 -->
<g id="node29" class="node">
<title>Node29</title>
<g id="a_node29"><a xlink:href="../../d0/d2b/a01010.html#adc042d1089c8080084332bce5869f028" target="_top" xlink:title=" ">
<polygon fill="none" stroke="black" points="627.5,-87 627.5,-106 810.5,-106 810.5,-87 627.5,-87"/>
<text text-anchor="middle" x="719" y="-94" font-family="Helvetica,sans-Serif" font-size="10.00">com.cliffc.aa.node.CallNode.value</text>
</a>
</g>
</g>
<!-- Node24&#45;&gt;Node29 -->
<g id="edge31" class="edge">
<title>Node24&#45;&gt;Node29</title>
<path fill="none" stroke="midnightblue" d="M875.6,-144.52C868.89,-142.4 862.28,-140.07 856,-137.5 838.64,-130.41 837.49,-122.25 820,-115.5 809.94,-111.62 799,-108.51 788.17,-106.02"/>
<polygon fill="midnightblue" stroke="midnightblue" points="874.91,-147.97 885.49,-147.47 876.91,-141.26 874.91,-147.97"/>
</g>
<!-- Node26 -->
<g id="node26" class="node">
<title>Node26</title>
<g id="a_node26"><a xlink:href="../../de/d5c/a01358.html#a609f6b7b7fea5482f181cf60df48e569" target="_top" xlink:title=" ">
<polygon fill="none" stroke="black" points="408.5,-152.5 408.5,-182.5 546.5,-182.5 546.5,-152.5 408.5,-152.5"/>
<text text-anchor="start" x="416.5" y="-170.5" font-family="Helvetica,sans-Serif" font-size="10.00">com.cliffc.aa.node.Scope</text>
<text text-anchor="middle" x="477.5" y="-159.5" font-family="Helvetica,sans-Serif" font-size="10.00">Node.live</text>
</a>
</g>
</g>
<!-- Node25&#45;&gt;Node26 -->
<g id="edge27" class="edge">
<title>Node25&#45;&gt;Node26</title>
<path fill="none" stroke="midnightblue" d="M637.5,-182.11C608.02,-179.4 574.97,-176.36 546.68,-173.76"/>
<polygon fill="midnightblue" stroke="midnightblue" points="637.48,-185.62 647.76,-183.05 638.12,-178.65 637.48,-185.62"/>
</g>
<!-- Node27 -->
<g id="node27" class="node">
<title>Node27</title>
<g id="a_node27"><a xlink:href="../../d2/dd5/a01002.html#a8eada041b9e61f819f1c1e3e7617ad36" target="_top" xlink:title=" ">
<polygon fill="none" stroke="black" points="407.5,-201.5 407.5,-231.5 547.5,-231.5 547.5,-201.5 407.5,-201.5"/>
<text text-anchor="start" x="415.5" y="-219.5" font-family="Helvetica,sans-Serif" font-size="10.00">com.cliffc.aa.node.Assert</text>
<text text-anchor="middle" x="477.5" y="-208.5" font-family="Helvetica,sans-Serif" font-size="10.00">Node.live_use</text>
</a>
</g>
</g>
<!-- Node25&#45;&gt;Node27 -->
<g id="edge28" class="edge">
<title>Node25&#45;&gt;Node27</title>
<path fill="none" stroke="midnightblue" d="M637.63,-198.56C608.55,-201.84 575.97,-205.51 547.91,-208.67"/>
<polygon fill="midnightblue" stroke="midnightblue" points="638.22,-202.02 647.76,-197.42 637.43,-195.06 638.22,-202.02"/>
</g>
<!-- Node30 -->
<g id="node30" class="node">
<title>Node30</title>
<g id="a_node30"><a xlink:href="../../d4/d8e/a01694.html#a5348bc687a77cb15570f88cd5a12dabe" target="_top" xlink:title=" ">
<polygon fill="none" stroke="black" points="400,-81.5 400,-111.5 555,-111.5 555,-81.5 400,-81.5"/>
<text text-anchor="start" x="408" y="-99.5" font-family="Helvetica,sans-Serif" font-size="10.00">com.cliffc.aa.node.TestNode</text>
<text text-anchor="middle" x="477.5" y="-88.5" font-family="Helvetica,sans-Serif" font-size="10.00">Small.testCallNodeResolve2</text>
</a>
</g>
</g>
<!-- Node29&#45;&gt;Node30 -->
<g id="edge32" class="edge">
<title>Node29&#45;&gt;Node30</title>
<path fill="none" stroke="midnightblue" d="M617.31,-96.5C596.49,-96.5 574.88,-96.5 555.09,-96.5"/>
<polygon fill="midnightblue" stroke="midnightblue" points="617.46,-100 627.46,-96.5 617.46,-93 617.46,-100"/>
</g>
<!-- Node32 -->
<g id="node32" class="node">
<title>Node32</title>
<g id="a_node32"><a xlink:href="../../d9/d8e/a01050.html#a35a8d77a634141d969d902a346af2000" target="_top" xlink:title=" ">
<polygon fill="none" stroke="black" points="629.5,-37.5 629.5,-67.5 808.5,-67.5 808.5,-37.5 629.5,-37.5"/>
<text text-anchor="start" x="637.5" y="-55.5" font-family="Helvetica,sans-Serif" font-size="10.00">com.cliffc.aa.node.FunNode.ideal</text>
<text text-anchor="middle" x="719" y="-44.5" font-family="Helvetica,sans-Serif" font-size="10.00">_inline</text>
</a>
</g>
</g>
<!-- Node31&#45;&gt;Node32 -->
<g id="edge34" class="edge">
<title>Node31&#45;&gt;Node32</title>
<path fill="none" stroke="midnightblue" d="M885.83,-96.08C875.76,-93.64 865.62,-91.08 856,-88.5 839.84,-84.17 836.12,-81.97 820,-77.5 807.84,-74.13 794.8,-70.71 782.28,-67.54"/>
<polygon fill="midnightblue" stroke="midnightblue" points="885.3,-99.55 895.84,-98.48 886.93,-92.74 885.3,-99.55"/>
</g>
</g>
</svg>
        <g id="navigator" transform="translate(0 0)" fill="#404254">
                <rect fill="#f2f5e9" fill-opacity="0.5" stroke="#606060" stroke-width=".5" x="0" y="0" width="60" height="60"/>
                <use id="zoomplus" xlink:href="#zoomPlus" x="17" y="9" onmousedown="handleZoom(evt,'in')"/>
                <use id="zoomminus" xlink:href="#zoomMin" x="42" y="9" onmousedown="handleZoom(evt,'out')"/>
                <use id="reset" xlink:href="#resetDef" x="30" y="36" onmousedown="handleReset()"/>
                <g id="arrowUp" xlink:href="#dirArrow" transform="translate(30 24)" onmousedown="handlePan(0,-1)">
                  <use xlink:href="#rim" fill="#404040">
                        <set attributeName="fill" to="#808080" begin="arrowUp.mouseover" end="arrowUp.mouseout"/>
                  </use>
                  <path fill="none" stroke="white" stroke-width="1.5" d="M0,-3.0v7 M-2.5,-0.5L0,-3.0L2.5,-0.5"/>
                </g>
                <g id="arrowRight" xlink:href="#dirArrow" transform="rotate(90) translate(36 -43)" onmousedown="handlePan(1,0)">
                  <use xlink:href="#rim" fill="#404040">
                        <set attributeName="fill" to="#808080" begin="arrowRight.mouseover" end="arrowRight.mouseout"/>
                  </use>
                  <path fill="none" stroke="white" stroke-width="1.5" d="M0,-3.0v7 M-2.5,-0.5L0,-3.0L2.5,-0.5"/>
                </g>
                <g id="arrowDown" xlink:href="#dirArrow" transform="rotate(180) translate(-30 -48)" onmousedown="handlePan(0,1)">
                  <use xlink:href="#rim" fill="#404040">
                        <set attributeName="fill" to="#808080" begin="arrowDown.mouseover" end="arrowDown.mouseout"/>
                  </use>
                  <path fill="none" stroke="white" stroke-width="1.5" d="M0,-3.0v7 M-2.5,-0.5L0,-3.0L2.5,-0.5"/>
                </g>
                <g id="arrowLeft" xlink:href="#dirArrow" transform="rotate(270) translate(-36 17)" onmousedown="handlePan(-1,0)">
                  <use xlink:href="#rim" fill="#404040">
                        <set attributeName="fill" to="#808080" begin="arrowLeft.mouseover" end="arrowLeft.mouseout"/>
                  </use>
                  <path fill="none" stroke="white" stroke-width="1.5" d="M0,-3.0v7 M-2.5,-0.5L0,-3.0L2.5,-0.5"/>
                </g>
        </g>
        <svg viewBox="0 0 15 15" width="100%" height="30px" preserveAspectRatio="xMaxYMin meet">
         <g id="arrow_out" transform="scale(0.3 0.3)">
          <a xlink:href="a01418_a27526714dec704a7c9d4ab7ddf6bb06e_icgraph_org.svg" target="_base">
           <rect id="button" ry="5" rx="5" y="6" x="6" height="38" width="38"
                fill="#f2f5e9" fill-opacity="0.5" stroke="#606060" stroke-width="1.0"/>
           <path id="arrow"
             d="M 11.500037,31.436501 C 11.940474,20.09759 22.043105,11.32322 32.158766,21.979434 L 37.068811,17.246167 C 37.068811,17.246167 37.088388,32 37.088388,32 L 22.160133,31.978069 C 22.160133,31.978069 26.997745,27.140456 26.997745,27.140456 C 18.528582,18.264221 13.291696,25.230495 11.500037,31.436501 z"
             style="fill:#404040;"/>
          </a>
         </g>
        </svg>
</svg>
