<?xml version="1.0" encoding="UTF-8" standalone="no"?>
<!DOCTYPE svg PUBLIC "-//W3C//DTD SVG 1.1//EN"
 "http://www.w3.org/Graphics/SVG/1.1/DTD/svg11.dtd">
<!-- Generated by graphviz version 2.43.0 (0)
 -->
<!-- Title: com.cliffc.aa.type.Bits.not_nil Pages: 1 -->
<svg width="390pt" height="127pt"
 viewBox="0.00 0.00 390.00 126.50" xmlns="http://www.w3.org/2000/svg" xmlns:xlink="http://www.w3.org/1999/xlink">
<g id="graph0" class="graph" transform="scale(1 1) rotate(0) translate(4 122.5)">
<title>com.cliffc.aa.type.Bits.not_nil</title>
<!-- Node1 -->
<g id="node1" class="node">
<title>Node1</title>
<g id="a_node1"><a xlink:title=" ">
<polygon fill="#bfbfbf" stroke="black" points="221,-55 221,-74 382,-74 382,-55 221,-55"/>
<text text-anchor="middle" x="301.5" y="-62" font-family="Helvetica,sans-Serif" font-size="10.00">com.cliffc.aa.type.Bits.not_nil</text>
</a>
</g>
</g>
<!-- Node2 -->
<g id="node2" class="node">
<title>Node2</title>
<g id="a_node2"><a xlink:href="../../db/d57/a01506.html#a6d178ee6bd2d81b027cf8bdcb0610c74" target="_top" xlink:title=" ">
<polygon fill="none" stroke="black" points="0,-99 0,-118 185,-118 185,-99 0,-99"/>
<text text-anchor="middle" x="92.5" y="-106" font-family="Helvetica,sans-Serif" font-size="10.00">com.cliffc.aa.type.TypeRPC.not_nil</text>
</a>
</g>
</g>
<!-- Node1&#45;&gt;Node2 -->
<g id="edge1" class="edge">
<title>Node1&#45;&gt;Node2</title>
<path fill="none" stroke="midnightblue" d="M246.99,-76.18C227.49,-80.41 205.25,-85.21 185,-89.5 170.4,-92.6 154.47,-95.92 140.06,-98.91"/>
<polygon fill="midnightblue" stroke="midnightblue" points="247.89,-79.57 256.92,-74.02 246.4,-72.73 247.89,-79.57"/>
</g>
<!-- Node3 -->
<g id="node3" class="node">
<title>Node3</title>
<g id="a_node3"><a xlink:href="../../d8/d7b/a01478.html#a9363bb4da4ab41df8809c6a8a90527f7" target="_top" xlink:title=" ">
<polygon fill="none" stroke="black" points="19.5,-49.5 19.5,-79.5 165.5,-79.5 165.5,-49.5 19.5,-49.5"/>
<text text-anchor="start" x="27.5" y="-67.5" font-family="Helvetica,sans-Serif" font-size="10.00">com.cliffc.aa.type.TypeFun</text>
<text text-anchor="middle" x="92.5" y="-56.5" font-family="Helvetica,sans-Serif" font-size="10.00">Ptr.not_nil</text>
</a>
</g>
</g>
<!-- Node1&#45;&gt;Node3 -->
<g id="edge2" class="edge">
<title>Node1&#45;&gt;Node3</title>
<path fill="none" stroke="midnightblue" d="M210.49,-64.5C195.53,-64.5 180.19,-64.5 165.74,-64.5"/>
<polygon fill="midnightblue" stroke="midnightblue" points="210.76,-68 220.76,-64.5 210.76,-61 210.76,-68"/>
</g>
<!-- Node4 -->
<g id="node4" class="node">
<title>Node4</title>
<g id="a_node4"><a xlink:href="../../d6/dc9/a01498.html#ab17ac6202bc464d4d05f39b887da53c4" target="_top" xlink:title=" ">
<polygon fill="none" stroke="black" points="15.5,-0.5 15.5,-30.5 169.5,-30.5 169.5,-0.5 15.5,-0.5"/>
<text text-anchor="start" x="23.5" y="-18.5" font-family="Helvetica,sans-Serif" font-size="10.00">com.cliffc.aa.type.TypeMem</text>
<text text-anchor="middle" x="92.5" y="-7.5" font-family="Helvetica,sans-Serif" font-size="10.00">Ptr.not_nil</text>
</a>
</g>
</g>
<!-- Node1&#45;&gt;Node4 -->
<g id="edge3" class="edge">
<title>Node1&#45;&gt;Node4</title>
<path fill="none" stroke="midnightblue" d="M250.12,-52.57C222.08,-45.94 186.92,-37.61 157.02,-30.54"/>
<polygon fill="midnightblue" stroke="midnightblue" points="249.56,-56.04 260.1,-54.94 251.17,-49.23 249.56,-56.04"/>
</g>
</g>
</svg>
