<?xml version="1.0" encoding="UTF-8" standalone="no"?>
<!DOCTYPE svg PUBLIC "-//W3C//DTD SVG 1.1//EN"
 "http://www.w3.org/Graphics/SVG/1.1/DTD/svg11.dtd">
<!-- Generated by graphviz version 2.43.0 (0)
 -->
<!-- Title: com.cliffc.aa.type.TypeMem.xmeet Pages: 1 -->
<svg width="1103pt" height="316pt"
 viewBox="0.00 0.00 1103.00 316.00" xmlns="http://www.w3.org/2000/svg" xmlns:xlink="http://www.w3.org/1999/xlink">
<g id="graph0" class="graph" transform="scale(1 1) rotate(0) translate(4 312)">
<title>com.cliffc.aa.type.TypeMem.xmeet</title>
<!-- Node1 -->
<g id="node1" class="node">
<title>Node1</title>
<g id="a_node1"><a xlink:title=" ">
<polygon fill="#bfbfbf" stroke="black" points="0,-200.5 0,-219.5 188,-219.5 188,-200.5 0,-200.5"/>
<text text-anchor="middle" x="94" y="-207.5" font-family="Helvetica,sans-Serif" font-size="10.00">com.cliffc.aa.type.TypeMem.xmeet</text>
</a>
</g>
</g>
<!-- Node2 -->
<g id="node2" class="node">
<title>Node2</title>
<g id="a_node2"><a xlink:href="../../d6/d51/a01494.html#af6e06afd7033aef3b4d8e85653d41df6" target="_top" xlink:title=" ">
<polygon fill="none" stroke="black" points="239.5,-261 239.5,-291 396.5,-291 396.5,-261 239.5,-261"/>
<text text-anchor="start" x="247.5" y="-279" font-family="Helvetica,sans-Serif" font-size="10.00">com.cliffc.aa.type.TypeMem.</text>
<text text-anchor="middle" x="318" y="-268" font-family="Helvetica,sans-Serif" font-size="10.00">_make1</text>
</a>
</g>
</g>
<!-- Node1&#45;&gt;Node2 -->
<g id="edge1" class="edge">
<title>Node1&#45;&gt;Node2</title>
<path fill="none" stroke="midnightblue" d="M127.28,-219.6C161.01,-229.63 214.73,-245.6 256.41,-257.99"/>
<polygon fill="midnightblue" stroke="midnightblue" points="255.6,-261.4 266.19,-260.89 257.6,-254.69 255.6,-261.4"/>
</g>
<!-- Node4 -->
<g id="node4" class="node">
<title>Node4</title>
<g id="a_node4"><a xlink:href="../../d6/d51/a01494.html#a440340b44ad84d1d3aebe4d8a145b867" target="_top" xlink:title=" ">
<polygon fill="none" stroke="black" points="224,-200.5 224,-219.5 412,-219.5 412,-200.5 224,-200.5"/>
<text text-anchor="middle" x="318" y="-207.5" font-family="Helvetica,sans-Serif" font-size="10.00">com.cliffc.aa.type.TypeMem._meet</text>
</a>
</g>
</g>
<!-- Node1&#45;&gt;Node4 -->
<g id="edge3" class="edge">
<title>Node1&#45;&gt;Node4</title>
<path fill="none" stroke="midnightblue" d="M188.18,-210C196.53,-210 205.02,-210 213.46,-210"/>
<polygon fill="midnightblue" stroke="midnightblue" points="213.7,-213.5 223.7,-210 213.7,-206.5 213.7,-213.5"/>
</g>
<!-- Node9 -->
<g id="node9" class="node">
<title>Node9</title>
<g id="a_node9"><a xlink:href="../../d6/d51/a01494.html#abfc567fa84de27858d9707536072702c" target="_top" xlink:title=" ">
<polygon fill="none" stroke="black" points="226,-56.5 226,-75.5 410,-75.5 410,-56.5 226,-56.5"/>
<text text-anchor="middle" x="318" y="-63.5" font-family="Helvetica,sans-Serif" font-size="10.00">com.cliffc.aa.type.TypeMem.make</text>
</a>
</g>
</g>
<!-- Node1&#45;&gt;Node9 -->
<g id="edge10" class="edge">
<title>Node1&#45;&gt;Node9</title>
<path fill="none" stroke="midnightblue" d="M109.91,-200.33C147.75,-175.79 247.72,-110.94 293.5,-81.24"/>
<polygon fill="midnightblue" stroke="midnightblue" points="295.67,-84.01 302.15,-75.63 291.86,-78.14 295.67,-84.01"/>
</g>
<!-- Node3 -->
<g id="node3" class="node">
<title>Node3</title>
<g id="a_node3"><a xlink:href="../../d6/d51/a01494.html#ab31abc3950f3574c970b2858a1870949" target="_top" xlink:title=" ">
<polygon fill="none" stroke="black" points="463.5,-288.5 463.5,-307.5 635.5,-307.5 635.5,-288.5 463.5,-288.5"/>
<text text-anchor="middle" x="549.5" y="-295.5" font-family="Helvetica,sans-Serif" font-size="10.00">com.cliffc.aa.type.TypeMem.len</text>
</a>
</g>
</g>
<!-- Node2&#45;&gt;Node3 -->
<g id="edge2" class="edge">
<title>Node2&#45;&gt;Node3</title>
<path fill="none" stroke="midnightblue" d="M396.7,-283.45C414.89,-285.19 434.46,-287.07 453.32,-288.88"/>
<polygon fill="midnightblue" stroke="midnightblue" points="453.11,-292.37 463.4,-289.84 453.78,-285.4 453.11,-292.37"/>
</g>
<!-- Node4&#45;&gt;Node3 -->
<g id="edge8" class="edge">
<title>Node4&#45;&gt;Node3</title>
<path fill="none" stroke="midnightblue" d="M344.22,-219.63C363.36,-227.35 390.04,-239.02 412,-252 429.22,-262.18 429.7,-270.93 448,-279 453.81,-281.56 459.96,-283.78 466.24,-285.7"/>
<polygon fill="midnightblue" stroke="midnightblue" points="465.61,-289.15 476.18,-288.47 467.49,-282.41 465.61,-289.15"/>
</g>
<!-- Node5 -->
<g id="node5" class="node">
<title>Node5</title>
<g id="a_node5"><a xlink:href="../../de/dc6/a01502.html#a45229600a2ea7a5cb2bf31100d208431" target="_top" xlink:title=" ">
<polygon fill="none" stroke="black" points="460,-239 460,-269 639,-269 639,-239 460,-239"/>
<text text-anchor="start" x="468" y="-257" font-family="Helvetica,sans-Serif" font-size="10.00">com.cliffc.aa.type.TypeObj.above</text>
<text text-anchor="middle" x="549.5" y="-246" font-family="Helvetica,sans-Serif" font-size="10.00">_center</text>
</a>
</g>
</g>
<!-- Node4&#45;&gt;Node5 -->
<g id="edge4" class="edge">
<title>Node4&#45;&gt;Node5</title>
<path fill="none" stroke="midnightblue" d="M368.8,-219.55C395.44,-224.66 429.06,-231.1 459.99,-237.03"/>
<polygon fill="midnightblue" stroke="midnightblue" points="459.44,-240.49 469.92,-238.93 460.76,-233.61 459.44,-240.49"/>
</g>
<!-- Node6 -->
<g id="node6" class="node">
<title>Node6</title>
<g id="a_node6"><a xlink:href="../../d6/d51/a01494.html#a0eecce7cc3a48609b618fd6ba69927f1" target="_top" xlink:title=" ">
<polygon fill="none" stroke="black" points="908,-95 908,-125 1095,-125 1095,-95 908,-95"/>
<text text-anchor="start" x="916" y="-113" font-family="Helvetica,sans-Serif" font-size="10.00">com.cliffc.aa.type.TypeMem.above</text>
<text text-anchor="middle" x="1001.5" y="-102" font-family="Helvetica,sans-Serif" font-size="10.00">_center</text>
</a>
</g>
</g>
<!-- Node4&#45;&gt;Node6 -->
<g id="edge5" class="edge">
<title>Node4&#45;&gt;Node6</title>
<path fill="none" stroke="midnightblue" d="M412.09,-208.91C478.87,-207.1 570.85,-202.5 651,-191 752.96,-176.38 869.03,-146.85 938.44,-127.77"/>
<polygon fill="midnightblue" stroke="midnightblue" points="939.63,-131.07 948.33,-125.03 937.76,-124.33 939.63,-131.07"/>
</g>
<!-- Node7 -->
<g id="node7" class="node">
<title>Node7</title>
<g id="a_node7"><a xlink:href="../../d6/d51/a01494.html#ae46f6ec465a8f92933cac6594c35d615" target="_top" xlink:title=" ">
<polygon fill="none" stroke="black" points="466,-144.5 466,-163.5 633,-163.5 633,-144.5 466,-144.5"/>
<text text-anchor="middle" x="549.5" y="-151.5" font-family="Helvetica,sans-Serif" font-size="10.00">com.cliffc.aa.type.TypeMem.at</text>
</a>
</g>
</g>
<!-- Node4&#45;&gt;Node7 -->
<g id="edge6" class="edge">
<title>Node4&#45;&gt;Node7</title>
<path fill="none" stroke="midnightblue" d="M358.19,-200.44C397.3,-190.89 457.5,-176.21 499.69,-165.91"/>
<polygon fill="midnightblue" stroke="midnightblue" points="500.58,-169.29 509.47,-163.52 498.93,-162.49 500.58,-169.29"/>
</g>
<!-- Node8 -->
<g id="node8" class="node">
<title>Node8</title>
<g id="a_node8"><a xlink:href="../../d0/de2/a01442.html#a086b90d9d651ac00b80a9b5caa60eb09" target="_top" xlink:title=" ">
<polygon fill="none" stroke="black" points="485,-95 485,-125 614,-125 614,-95 485,-95"/>
<text text-anchor="start" x="493" y="-113" font-family="Helvetica,sans-Serif" font-size="10.00">com.cliffc.aa.type.Type</text>
<text text-anchor="middle" x="549.5" y="-102" font-family="Helvetica,sans-Serif" font-size="10.00">&lt; TypeMem &gt;::meet</text>
</a>
</g>
</g>
<!-- Node4&#45;&gt;Node8 -->
<g id="edge9" class="edge">
<title>Node4&#45;&gt;Node8</title>
<path fill="none" stroke="midnightblue" d="M332.64,-200.31C355.48,-184.49 403.35,-153.11 448,-135 456.66,-131.49 465.94,-128.38 475.24,-125.64"/>
<polygon fill="midnightblue" stroke="midnightblue" points="476.22,-129 484.9,-122.93 474.33,-122.26 476.22,-129"/>
</g>
<!-- Node7&#45;&gt;Node7 -->
<g id="edge7" class="edge">
<title>Node7&#45;&gt;Node7</title>
<path fill="none" stroke="midnightblue" d="M514.64,-163.61C497.13,-172.46 508.75,-182 549.5,-182 580.06,-182 594.24,-176.63 592.03,-170.22"/>
<polygon fill="midnightblue" stroke="midnightblue" points="594.22,-167.49 584.36,-163.61 589.65,-172.79 594.22,-167.49"/>
</g>
<!-- Node10 -->
<g id="node10" class="node">
<title>Node10</title>
<g id="a_node10"><a xlink:href="../../d0/de2/a01442.html#a8fe8d556e45e6b654f3ac87f118ac8de" target="_top" xlink:title=" ">
<polygon fill="none" stroke="black" points="448,-56.5 448,-75.5 651,-75.5 651,-56.5 448,-56.5"/>
<text text-anchor="middle" x="549.5" y="-63.5" font-family="Helvetica,sans-Serif" font-size="10.00">com.cliffc.aa.type.Type.hashcons_free</text>
</a>
</g>
</g>
<!-- Node9&#45;&gt;Node10 -->
<g id="edge11" class="edge">
<title>Node9&#45;&gt;Node10</title>
<path fill="none" stroke="midnightblue" d="M410.03,-66C419.13,-66 428.44,-66 437.71,-66"/>
<polygon fill="midnightblue" stroke="midnightblue" points="437.75,-69.5 447.75,-66 437.75,-62.5 437.75,-69.5"/>
</g>
<!-- Node11 -->
<g id="node11" class="node">
<title>Node11</title>
<g id="a_node11"><a xlink:href="../../d6/d51/a01494.html#a6b1eb89aaaf02ada150969b5f8ce24ff" target="_top" xlink:title=" ">
<polygon fill="none" stroke="black" points="463,-0.5 463,-19.5 636,-19.5 636,-0.5 463,-0.5"/>
<text text-anchor="middle" x="549.5" y="-7.5" font-family="Helvetica,sans-Serif" font-size="10.00">com.cliffc.aa.type.TypeMem.init</text>
</a>
</g>
</g>
<!-- Node9&#45;&gt;Node11 -->
<g id="edge12" class="edge">
<title>Node9&#45;&gt;Node11</title>
<path fill="none" stroke="midnightblue" d="M358.19,-56.44C397.3,-46.89 457.5,-32.21 499.69,-21.91"/>
<polygon fill="midnightblue" stroke="midnightblue" points="500.58,-25.29 509.47,-19.52 498.93,-18.49 500.58,-25.29"/>
</g>
<!-- Node11&#45;&gt;Node11 -->
<g id="edge15" class="edge">
<title>Node11&#45;&gt;Node11</title>
<path fill="none" stroke="midnightblue" d="M514.64,-19.61C497.13,-28.46 508.75,-38 549.5,-38 580.06,-38 594.24,-32.63 592.03,-26.22"/>
<polygon fill="midnightblue" stroke="midnightblue" points="594.22,-23.49 584.36,-19.61 589.65,-28.79 594.22,-23.49"/>
</g>
<!-- Node12 -->
<g id="node12" class="node">
<title>Node12</title>
<g id="a_node12"><a xlink:href="../../d6/d51/a01494.html#a9a14a112498c8f5beb4b4585cdf61653" target="_top" xlink:title=" ">
<polygon fill="none" stroke="black" points="687,-81.5 687,-100.5 872,-100.5 872,-81.5 687,-81.5"/>
<text text-anchor="middle" x="779.5" y="-88.5" font-family="Helvetica,sans-Serif" font-size="10.00">com.cliffc.aa.type.TypeMem.check</text>
</a>
</g>
</g>
<!-- Node11&#45;&gt;Node12 -->
<g id="edge13" class="edge">
<title>Node11&#45;&gt;Node12</title>
<path fill="none" stroke="midnightblue" d="M577.55,-19.61C618.43,-34.13 696.04,-61.71 741.92,-78.01"/>
<polygon fill="midnightblue" stroke="midnightblue" points="740.89,-81.35 751.49,-81.4 743.23,-74.76 740.89,-81.35"/>
</g>
<!-- Node12&#45;&gt;Node6 -->
<g id="edge14" class="edge">
<title>Node12&#45;&gt;Node6</title>
<path fill="none" stroke="midnightblue" d="M872.21,-98.92C880.68,-99.65 889.3,-100.4 897.87,-101.14"/>
<polygon fill="midnightblue" stroke="midnightblue" points="897.62,-104.63 907.88,-102 898.22,-97.65 897.62,-104.63"/>
</g>
</g>
</svg>
