<?xml version="1.0" encoding="UTF-8" standalone="no"?>
<!DOCTYPE svg PUBLIC "-//W3C//DTD SVG 1.1//EN"
 "http://www.w3.org/Graphics/SVG/1.1/DTD/svg11.dtd">
<!-- Generated by graphviz version 2.43.0 (0)
 -->
<!-- Title: com.cliffc.aa.type.TypeMem.set Pages: 1 -->
<svg width="1309pt" height="143pt"
 viewBox="0.00 0.00 1309.00 142.50" xmlns="http://www.w3.org/2000/svg" xmlns:xlink="http://www.w3.org/1999/xlink">
<g id="graph0" class="graph" transform="scale(1 1) rotate(0) translate(4 138.5)">
<title>com.cliffc.aa.type.TypeMem.set</title>
<!-- Node1 -->
<g id="node1" class="node">
<title>Node1</title>
<g id="a_node1"><a xlink:title=" ">
<polygon fill="#bfbfbf" stroke="black" points="0,-78 0,-97 172,-97 172,-78 0,-78"/>
<text text-anchor="middle" x="86" y="-85" font-family="Helvetica,sans-Serif" font-size="10.00">com.cliffc.aa.type.TypeMem.set</text>
</a>
</g>
</g>
<!-- Node2 -->
<g id="node2" class="node">
<title>Node2</title>
<g id="a_node2"><a xlink:href="../../d6/d51/a01494.html#ae46f6ec465a8f92933cac6594c35d615" target="_top" xlink:title=" ">
<polygon fill="none" stroke="black" points="219.5,-97 219.5,-116 386.5,-116 386.5,-97 219.5,-97"/>
<text text-anchor="middle" x="303" y="-104" font-family="Helvetica,sans-Serif" font-size="10.00">com.cliffc.aa.type.TypeMem.at</text>
</a>
</g>
</g>
<!-- Node1&#45;&gt;Node2 -->
<g id="edge1" class="edge">
<title>Node1&#45;&gt;Node2</title>
<path fill="none" stroke="midnightblue" d="M172.28,-95.04C184.37,-96.11 196.86,-97.21 209.08,-98.29"/>
<polygon fill="midnightblue" stroke="midnightblue" points="209.01,-101.8 219.28,-99.19 209.62,-94.82 209.01,-101.8"/>
</g>
<!-- Node3 -->
<g id="node3" class="node">
<title>Node3</title>
<g id="a_node3"><a xlink:href="../../d6/d51/a01494.html#a6e66e12dd6b273e5ade4ab54fa683f8d" target="_top" xlink:title=" ">
<polygon fill="none" stroke="black" points="208,-59 208,-78 398,-78 398,-59 208,-59"/>
<text text-anchor="middle" x="303" y="-66" font-family="Helvetica,sans-Serif" font-size="10.00">com.cliffc.aa.type.TypeMem.make0</text>
</a>
</g>
</g>
<!-- Node1&#45;&gt;Node3 -->
<g id="edge3" class="edge">
<title>Node1&#45;&gt;Node3</title>
<path fill="none" stroke="midnightblue" d="M172.28,-79.96C180.71,-79.22 189.33,-78.46 197.91,-77.7"/>
<polygon fill="midnightblue" stroke="midnightblue" points="198.32,-81.18 207.97,-76.81 197.7,-74.2 198.32,-81.18"/>
</g>
<!-- Node2&#45;&gt;Node2 -->
<g id="edge2" class="edge">
<title>Node2&#45;&gt;Node2</title>
<path fill="none" stroke="midnightblue" d="M269.98,-116.11C253.39,-124.96 264.4,-134.5 303,-134.5 331.35,-134.5 344.81,-129.36 343.4,-123.12"/>
<polygon fill="midnightblue" stroke="midnightblue" points="345.68,-120.46 336.02,-116.11 340.86,-125.54 345.68,-120.46"/>
</g>
<!-- Node4 -->
<g id="node4" class="node">
<title>Node4</title>
<g id="a_node4"><a xlink:href="../../d6/d51/a01494.html#af6e06afd7033aef3b4d8e85653d41df6" target="_top" xlink:title=" ">
<polygon fill="none" stroke="black" points="447.5,-97.5 447.5,-127.5 604.5,-127.5 604.5,-97.5 447.5,-97.5"/>
<text text-anchor="start" x="455.5" y="-115.5" font-family="Helvetica,sans-Serif" font-size="10.00">com.cliffc.aa.type.TypeMem.</text>
<text text-anchor="middle" x="526" y="-104.5" font-family="Helvetica,sans-Serif" font-size="10.00">_make1</text>
</a>
</g>
</g>
<!-- Node3&#45;&gt;Node4 -->
<g id="edge4" class="edge">
<title>Node3&#45;&gt;Node4</title>
<path fill="none" stroke="midnightblue" d="M351.95,-78.05C377.5,-83.13 409.7,-89.54 439.38,-95.45"/>
<polygon fill="midnightblue" stroke="midnightblue" points="438.84,-98.91 449.33,-97.43 440.21,-92.05 438.84,-98.91"/>
</g>
<!-- Node6 -->
<g id="node6" class="node">
<title>Node6</title>
<g id="a_node6"><a xlink:href="../../d6/d51/a01494.html#abfc567fa84de27858d9707536072702c" target="_top" xlink:title=" ">
<polygon fill="none" stroke="black" points="434,-59 434,-78 618,-78 618,-59 434,-59"/>
<text text-anchor="middle" x="526" y="-66" font-family="Helvetica,sans-Serif" font-size="10.00">com.cliffc.aa.type.TypeMem.make</text>
</a>
</g>
</g>
<!-- Node3&#45;&gt;Node6 -->
<g id="edge6" class="edge">
<title>Node3&#45;&gt;Node6</title>
<path fill="none" stroke="midnightblue" d="M398.04,-68.5C406.57,-68.5 415.23,-68.5 423.82,-68.5"/>
<polygon fill="midnightblue" stroke="midnightblue" points="423.85,-72 433.85,-68.5 423.85,-65 423.85,-72"/>
</g>
<!-- Node11 -->
<g id="node11" class="node">
<title>Node11</title>
<g id="a_node11"><a xlink:href="../../d0/de2/a01442.html#a388429cb6bea455104e3b9690d992854" target="_top" xlink:title=" ">
<polygon fill="none" stroke="black" points="451,-21 451,-40 601,-40 601,-21 451,-21"/>
<text text-anchor="middle" x="526" y="-28" font-family="Helvetica,sans-Serif" font-size="10.00">com.cliffc.aa.type.Type.oob</text>
</a>
</g>
</g>
<!-- Node3&#45;&gt;Node11 -->
<g id="edge12" class="edge">
<title>Node3&#45;&gt;Node11</title>
<path fill="none" stroke="midnightblue" d="M359.48,-58.96C389.83,-53.74 427.6,-47.25 459.4,-41.78"/>
<polygon fill="midnightblue" stroke="midnightblue" points="460.23,-45.19 469.49,-40.04 459.05,-38.29 460.23,-45.19"/>
</g>
<!-- Node5 -->
<g id="node5" class="node">
<title>Node5</title>
<g id="a_node5"><a xlink:href="../../d6/d51/a01494.html#ab31abc3950f3574c970b2858a1870949" target="_top" xlink:title=" ">
<polygon fill="none" stroke="black" points="669.5,-103 669.5,-122 841.5,-122 841.5,-103 669.5,-103"/>
<text text-anchor="middle" x="755.5" y="-110" font-family="Helvetica,sans-Serif" font-size="10.00">com.cliffc.aa.type.TypeMem.len</text>
</a>
</g>
</g>
<!-- Node4&#45;&gt;Node5 -->
<g id="edge5" class="edge">
<title>Node4&#45;&gt;Node5</title>
<path fill="none" stroke="midnightblue" d="M604.66,-112.5C622.25,-112.5 641.13,-112.5 659.36,-112.5"/>
<polygon fill="midnightblue" stroke="midnightblue" points="659.4,-116 669.4,-112.5 659.4,-109 659.4,-116"/>
</g>
<!-- Node7 -->
<g id="node7" class="node">
<title>Node7</title>
<g id="a_node7"><a xlink:href="../../d0/de2/a01442.html#a8fe8d556e45e6b654f3ac87f118ac8de" target="_top" xlink:title=" ">
<polygon fill="none" stroke="black" points="654,-62 654,-81 857,-81 857,-62 654,-62"/>
<text text-anchor="middle" x="755.5" y="-69" font-family="Helvetica,sans-Serif" font-size="10.00">com.cliffc.aa.type.Type.hashcons_free</text>
</a>
</g>
</g>
<!-- Node6&#45;&gt;Node7 -->
<g id="edge7" class="edge">
<title>Node6&#45;&gt;Node7</title>
<path fill="none" stroke="midnightblue" d="M618.22,-69.7C626.66,-69.81 635.28,-69.93 643.87,-70.04"/>
<polygon fill="midnightblue" stroke="midnightblue" points="643.88,-73.54 653.93,-70.17 643.97,-66.54 643.88,-73.54"/>
</g>
<!-- Node8 -->
<g id="node8" class="node">
<title>Node8</title>
<g id="a_node8"><a xlink:href="../../d6/d51/a01494.html#a6b1eb89aaaf02ada150969b5f8ce24ff" target="_top" xlink:title=" ">
<polygon fill="none" stroke="black" points="669,-6 669,-25 842,-25 842,-6 669,-6"/>
<text text-anchor="middle" x="755.5" y="-13" font-family="Helvetica,sans-Serif" font-size="10.00">com.cliffc.aa.type.TypeMem.init</text>
</a>
</g>
</g>
<!-- Node6&#45;&gt;Node8 -->
<g id="edge8" class="edge">
<title>Node6&#45;&gt;Node8</title>
<path fill="none" stroke="midnightblue" d="M574.31,-58.98C588.39,-56.05 603.84,-52.74 618,-49.5 648.08,-42.62 681.72,-34.24 708.08,-27.53"/>
<polygon fill="midnightblue" stroke="midnightblue" points="708.98,-30.91 717.8,-25.05 707.25,-24.13 708.98,-30.91"/>
</g>
<!-- Node8&#45;&gt;Node8 -->
<g id="edge11" class="edge">
<title>Node8&#45;&gt;Node8</title>
<path fill="none" stroke="midnightblue" d="M720.64,-25.11C703.13,-33.96 714.75,-43.5 755.5,-43.5 786.06,-43.5 800.24,-38.13 798.03,-31.72"/>
<polygon fill="midnightblue" stroke="midnightblue" points="800.22,-28.99 790.36,-25.11 795.65,-34.29 800.22,-28.99"/>
</g>
<!-- Node9 -->
<g id="node9" class="node">
<title>Node9</title>
<g id="a_node9"><a xlink:href="../../d6/d51/a01494.html#a9a14a112498c8f5beb4b4585cdf61653" target="_top" xlink:title=" ">
<polygon fill="none" stroke="black" points="893,-6 893,-25 1078,-25 1078,-6 893,-6"/>
<text text-anchor="middle" x="985.5" y="-13" font-family="Helvetica,sans-Serif" font-size="10.00">com.cliffc.aa.type.TypeMem.check</text>
</a>
</g>
</g>
<!-- Node8&#45;&gt;Node9 -->
<g id="edge9" class="edge">
<title>Node8&#45;&gt;Node9</title>
<path fill="none" stroke="midnightblue" d="M842.05,-15.5C855.24,-15.5 868.97,-15.5 882.48,-15.5"/>
<polygon fill="midnightblue" stroke="midnightblue" points="882.75,-19 892.75,-15.5 882.75,-12 882.75,-19"/>
</g>
<!-- Node10 -->
<g id="node10" class="node">
<title>Node10</title>
<g id="a_node10"><a xlink:href="../../d6/d51/a01494.html#a0eecce7cc3a48609b618fd6ba69927f1" target="_top" xlink:title=" ">
<polygon fill="none" stroke="black" points="1114,-0.5 1114,-30.5 1301,-30.5 1301,-0.5 1114,-0.5"/>
<text text-anchor="start" x="1122" y="-18.5" font-family="Helvetica,sans-Serif" font-size="10.00">com.cliffc.aa.type.TypeMem.above</text>
<text text-anchor="middle" x="1207.5" y="-7.5" font-family="Helvetica,sans-Serif" font-size="10.00">_center</text>
</a>
</g>
</g>
<!-- Node9&#45;&gt;Node10 -->
<g id="edge10" class="edge">
<title>Node9&#45;&gt;Node10</title>
<path fill="none" stroke="midnightblue" d="M1078.21,-15.5C1086.68,-15.5 1095.3,-15.5 1103.87,-15.5"/>
<polygon fill="midnightblue" stroke="midnightblue" points="1103.88,-19 1113.88,-15.5 1103.88,-12 1103.88,-19"/>
</g>
</g>
</svg>
