<?xml version="1.0" encoding="UTF-8" standalone="no"?>
<!DOCTYPE svg PUBLIC "-//W3C//DTD SVG 1.1//EN"
 "http://www.w3.org/Graphics/SVG/1.1/DTD/svg11.dtd">
<!-- Generated by graphviz version 2.43.0 (0)
 -->
<!-- Title: com.cliffc.aa.type.TypeMem.update Pages: 1 -->
<svg width="1112pt" height="336pt"
 viewBox="0.00 0.00 1112.00 335.50" xmlns="http://www.w3.org/2000/svg" xmlns:xlink="http://www.w3.org/1999/xlink">
<g id="graph0" class="graph" transform="scale(1 1) rotate(0) translate(4 331.5)">
<title>com.cliffc.aa.type.TypeMem.update</title>
<!-- Node1 -->
<g id="node1" class="node">
<title>Node1</title>
<g id="a_node1"><a xlink:title=" ">
<polygon fill="#bfbfbf" stroke="black" points="0,-142.5 0,-161.5 191,-161.5 191,-142.5 0,-142.5"/>
<text text-anchor="middle" x="95.5" y="-149.5" font-family="Helvetica,sans-Serif" font-size="10.00">com.cliffc.aa.type.TypeMem.update</text>
</a>
</g>
</g>
<!-- Node2 -->
<g id="node2" class="node">
<title>Node2</title>
<g id="a_node2"><a xlink:href="../../d6/d51/a01494.html#af6e06afd7033aef3b4d8e85653d41df6" target="_top" xlink:title=" ">
<polygon fill="none" stroke="black" points="245.5,-297 245.5,-327 402.5,-327 402.5,-297 245.5,-297"/>
<text text-anchor="start" x="253.5" y="-315" font-family="Helvetica,sans-Serif" font-size="10.00">com.cliffc.aa.type.TypeMem.</text>
<text text-anchor="middle" x="324" y="-304" font-family="Helvetica,sans-Serif" font-size="10.00">_make1</text>
</a>
</g>
</g>
<!-- Node1&#45;&gt;Node2 -->
<g id="edge1" class="edge">
<title>Node1&#45;&gt;Node2</title>
<path fill="none" stroke="midnightblue" d="M102.85,-161.56C119.85,-186.36 169.01,-253.14 227,-287 230.72,-289.17 234.64,-291.16 238.66,-292.98"/>
<polygon fill="midnightblue" stroke="midnightblue" points="237.67,-296.35 248.25,-296.92 240.33,-289.88 237.67,-296.35"/>
</g>
<!-- Node4 -->
<g id="node4" class="node">
<title>Node4</title>
<g id="a_node4"><a xlink:href="../../d6/d51/a01494.html#a5e838ac60f632089c8c90131a6157196" target="_top" xlink:title=" ">
<polygon fill="none" stroke="black" points="228.5,-258.5 228.5,-277.5 419.5,-277.5 419.5,-258.5 228.5,-258.5"/>
<text text-anchor="middle" x="324" y="-265.5" font-family="Helvetica,sans-Serif" font-size="10.00">com.cliffc.aa.type.TypeMem.aliases</text>
</a>
</g>
</g>
<!-- Node1&#45;&gt;Node4 -->
<g id="edge3" class="edge">
<title>Node1&#45;&gt;Node4</title>
<path fill="none" stroke="midnightblue" d="M106.31,-161.79C126.79,-181.63 176.42,-226.58 227,-249 232.76,-251.55 238.86,-253.77 245.09,-255.68"/>
<polygon fill="midnightblue" stroke="midnightblue" points="244.38,-259.12 254.95,-258.46 246.27,-252.38 244.38,-259.12"/>
</g>
<!-- Node7 -->
<g id="node7" class="node">
<title>Node7</title>
<g id="a_node7"><a xlink:href="../../d6/d02/a01542.html#a0a77ca788387cfcb2fb48635c6ea868d" target="_top" xlink:title=" ">
<polygon fill="none" stroke="black" points="251,-220.5 251,-239.5 397,-239.5 397,-220.5 251,-220.5"/>
<text text-anchor="middle" x="324" y="-227.5" font-family="Helvetica,sans-Serif" font-size="10.00">com.cliffc.aa.util.Ary.asAry</text>
</a>
</g>
</g>
<!-- Node1&#45;&gt;Node7 -->
<g id="edge6" class="edge">
<title>Node1&#45;&gt;Node7</title>
<path fill="none" stroke="midnightblue" d="M114.14,-161.55C138.75,-174.51 185.09,-197.57 227,-211 235.56,-213.74 244.67,-216.16 253.75,-218.27"/>
<polygon fill="midnightblue" stroke="midnightblue" points="253.04,-221.7 263.56,-220.45 254.56,-214.87 253.04,-221.7"/>
</g>
<!-- Node8 -->
<g id="node8" class="node">
<title>Node8</title>
<g id="a_node8"><a xlink:href="../../d6/d51/a01494.html#ae46f6ec465a8f92933cac6594c35d615" target="_top" xlink:title=" ">
<polygon fill="none" stroke="black" points="240.5,-164.5 240.5,-183.5 407.5,-183.5 407.5,-164.5 240.5,-164.5"/>
<text text-anchor="middle" x="324" y="-171.5" font-family="Helvetica,sans-Serif" font-size="10.00">com.cliffc.aa.type.TypeMem.at</text>
</a>
</g>
</g>
<!-- Node1&#45;&gt;Node8 -->
<g id="edge7" class="edge">
<title>Node1&#45;&gt;Node8</title>
<path fill="none" stroke="midnightblue" d="M191.24,-161.2C204.06,-162.45 217.2,-163.72 229.99,-164.97"/>
<polygon fill="midnightblue" stroke="midnightblue" points="229.86,-168.47 240.16,-165.95 230.54,-161.5 229.86,-168.47"/>
</g>
<!-- Node9 -->
<g id="node9" class="node">
<title>Node9</title>
<g id="a_node9"><a xlink:href="../../d0/de2/a01442.html#aa3715d8050c210fb8cc36ed83da6da13" target="_top" xlink:title=" ">
<polygon fill="none" stroke="black" points="259.5,-115 259.5,-145 388.5,-145 388.5,-115 259.5,-115"/>
<text text-anchor="start" x="267.5" y="-133" font-family="Helvetica,sans-Serif" font-size="10.00">com.cliffc.aa.type.Type</text>
<text text-anchor="middle" x="324" y="-122" font-family="Helvetica,sans-Serif" font-size="10.00">&lt; TypeMem &gt;::clone</text>
</a>
</g>
</g>
<!-- Node1&#45;&gt;Node9 -->
<g id="edge9" class="edge">
<title>Node1&#45;&gt;Node9</title>
<path fill="none" stroke="midnightblue" d="M191.24,-142.8C210.58,-140.92 230.65,-138.97 249.12,-137.18"/>
<polygon fill="midnightblue" stroke="midnightblue" points="249.59,-140.65 259.21,-136.2 248.91,-133.68 249.59,-140.65"/>
</g>
<!-- Node10 -->
<g id="node10" class="node">
<title>Node10</title>
<g id="a_node10"><a xlink:href="../../d6/d51/a01494.html#abfc567fa84de27858d9707536072702c" target="_top" xlink:title=" ">
<polygon fill="none" stroke="black" points="232,-76.5 232,-95.5 416,-95.5 416,-76.5 232,-76.5"/>
<text text-anchor="middle" x="324" y="-83.5" font-family="Helvetica,sans-Serif" font-size="10.00">com.cliffc.aa.type.TypeMem.make</text>
</a>
</g>
</g>
<!-- Node1&#45;&gt;Node10 -->
<g id="edge10" class="edge">
<title>Node1&#45;&gt;Node10</title>
<path fill="none" stroke="midnightblue" d="M119.73,-142.43C145.57,-132.07 188.71,-115.62 227,-105 236.7,-102.31 247.05,-99.85 257.24,-97.65"/>
<polygon fill="midnightblue" stroke="midnightblue" points="258.26,-101.01 267.33,-95.54 256.83,-94.16 258.26,-101.01"/>
</g>
<!-- Node14 -->
<g id="node14" class="node">
<title>Node14</title>
<g id="a_node14"><a xlink:href="../../d8/dd0/a01430.html#aa42b8de36b63f7693f7167ee5a8c5ef6" target="_top" xlink:title=" ">
<polygon fill="none" stroke="black" points="227,-38.5 227,-57.5 421,-57.5 421,-38.5 227,-38.5"/>
<text text-anchor="middle" x="324" y="-45.5" font-family="Helvetica,sans-Serif" font-size="10.00">com.cliffc.aa.type.BitsAlias.next_kid</text>
</a>
</g>
</g>
<!-- Node1&#45;&gt;Node14 -->
<g id="edge16" class="edge">
<title>Node1&#45;&gt;Node14</title>
<path fill="none" stroke="midnightblue" d="M107.87,-142.39C129.55,-124.59 178.91,-86.56 227,-67 233.4,-64.4 240.18,-62.14 247.07,-60.19"/>
<polygon fill="midnightblue" stroke="midnightblue" points="248.42,-63.46 257.21,-57.54 246.65,-56.68 248.42,-63.46"/>
</g>
<!-- Node15 -->
<g id="node15" class="node">
<title>Node15</title>
<g id="a_node15"><a xlink:href="../../d6/d02/a01542.html#a5d72bc082624838b3a3380693bbbd7ef" target="_top" xlink:title=" ">
<polygon fill="none" stroke="black" points="254,-0.5 254,-19.5 394,-19.5 394,-0.5 254,-0.5"/>
<text text-anchor="middle" x="324" y="-7.5" font-family="Helvetica,sans-Serif" font-size="10.00">com.cliffc.aa.util.Ary.setX</text>
</a>
</g>
</g>
<!-- Node1&#45;&gt;Node15 -->
<g id="edge17" class="edge">
<title>Node1&#45;&gt;Node15</title>
<path fill="none" stroke="midnightblue" d="M103.48,-142.44C121.19,-118.92 170.54,-58.08 227,-29 232.32,-26.26 238,-23.91 243.83,-21.9"/>
<polygon fill="midnightblue" stroke="midnightblue" points="245.23,-25.13 253.75,-18.83 243.17,-18.45 245.23,-25.13"/>
</g>
<!-- Node3 -->
<g id="node3" class="node">
<title>Node3</title>
<g id="a_node3"><a xlink:href="../../d6/d51/a01494.html#ab31abc3950f3574c970b2858a1870949" target="_top" xlink:title=" ">
<polygon fill="none" stroke="black" points="472.5,-302.5 472.5,-321.5 644.5,-321.5 644.5,-302.5 472.5,-302.5"/>
<text text-anchor="middle" x="558.5" y="-309.5" font-family="Helvetica,sans-Serif" font-size="10.00">com.cliffc.aa.type.TypeMem.len</text>
</a>
</g>
</g>
<!-- Node2&#45;&gt;Node3 -->
<g id="edge2" class="edge">
<title>Node2&#45;&gt;Node3</title>
<path fill="none" stroke="midnightblue" d="M402.74,-312C421.74,-312 442.29,-312 462.01,-312"/>
<polygon fill="midnightblue" stroke="midnightblue" points="462.23,-315.5 472.23,-312 462.23,-308.5 462.23,-315.5"/>
</g>
<!-- Node5 -->
<g id="node5" class="node">
<title>Node5</title>
<g id="a_node5"><a xlink:href="../../d6/d51/a01494.html#a0eecce7cc3a48609b618fd6ba69927f1" target="_top" xlink:title=" ">
<polygon fill="none" stroke="black" points="917,-162 917,-192 1104,-192 1104,-162 917,-162"/>
<text text-anchor="start" x="925" y="-180" font-family="Helvetica,sans-Serif" font-size="10.00">com.cliffc.aa.type.TypeMem.above</text>
<text text-anchor="middle" x="1010.5" y="-169" font-family="Helvetica,sans-Serif" font-size="10.00">_center</text>
</a>
</g>
</g>
<!-- Node4&#45;&gt;Node5 -->
<g id="edge4" class="edge">
<title>Node4&#45;&gt;Node5</title>
<path fill="none" stroke="midnightblue" d="M419.56,-266.33C486.86,-264.24 579.28,-259.55 660,-249 758.07,-236.19 869.75,-211.35 939.92,-194.48"/>
<polygon fill="midnightblue" stroke="midnightblue" points="941.07,-197.8 949.96,-192.05 939.42,-190.99 941.07,-197.8"/>
</g>
<!-- Node6 -->
<g id="node6" class="node">
<title>Node6</title>
<g id="a_node6"><a xlink:href="../../d4/d3c/a01418.html#a67a22eb4d796191ccdb66423b43af850" target="_top" xlink:title=" ">
<polygon fill="none" stroke="black" points="487,-220.5 487,-239.5 630,-239.5 630,-220.5 487,-220.5"/>
<text text-anchor="middle" x="558.5" y="-227.5" font-family="Helvetica,sans-Serif" font-size="10.00">com.cliffc.aa.type.Bits.set</text>
</a>
</g>
</g>
<!-- Node4&#45;&gt;Node6 -->
<g id="edge5" class="edge">
<title>Node4&#45;&gt;Node6</title>
<path fill="none" stroke="midnightblue" d="M383.37,-258.46C415.43,-253.22 455.38,-246.69 488.92,-241.21"/>
<polygon fill="midnightblue" stroke="midnightblue" points="489.8,-244.61 499.11,-239.54 488.67,-237.7 489.8,-244.61"/>
</g>
<!-- Node8&#45;&gt;Node8 -->
<g id="edge8" class="edge">
<title>Node8&#45;&gt;Node8</title>
<path fill="none" stroke="midnightblue" d="M289.14,-183.61C271.63,-192.46 283.25,-202 324,-202 354.56,-202 368.74,-196.63 366.53,-190.22"/>
<polygon fill="midnightblue" stroke="midnightblue" points="368.72,-187.49 358.86,-183.61 364.15,-192.79 368.72,-187.49"/>
</g>
<!-- Node11 -->
<g id="node11" class="node">
<title>Node11</title>
<g id="a_node11"><a xlink:href="../../d0/de2/a01442.html#a8fe8d556e45e6b654f3ac87f118ac8de" target="_top" xlink:title=" ">
<polygon fill="none" stroke="black" points="457,-132.5 457,-151.5 660,-151.5 660,-132.5 457,-132.5"/>
<text text-anchor="middle" x="558.5" y="-139.5" font-family="Helvetica,sans-Serif" font-size="10.00">com.cliffc.aa.type.Type.hashcons_free</text>
</a>
</g>
</g>
<!-- Node10&#45;&gt;Node11 -->
<g id="edge11" class="edge">
<title>Node10&#45;&gt;Node11</title>
<path fill="none" stroke="midnightblue" d="M386.08,-95.53C397.82,-98.08 409.91,-101.21 421,-105 437.93,-110.79 440.05,-117.28 457,-123 465.25,-125.78 474.03,-128.2 482.83,-130.28"/>
<polygon fill="midnightblue" stroke="midnightblue" points="482.23,-133.73 492.75,-132.5 483.75,-126.9 482.23,-133.73"/>
</g>
<!-- Node12 -->
<g id="node12" class="node">
<title>Node12</title>
<g id="a_node12"><a xlink:href="../../d6/d51/a01494.html#a6b1eb89aaaf02ada150969b5f8ce24ff" target="_top" xlink:title=" ">
<polygon fill="none" stroke="black" points="472,-76.5 472,-95.5 645,-95.5 645,-76.5 472,-76.5"/>
<text text-anchor="middle" x="558.5" y="-83.5" font-family="Helvetica,sans-Serif" font-size="10.00">com.cliffc.aa.type.TypeMem.init</text>
</a>
</g>
</g>
<!-- Node10&#45;&gt;Node12 -->
<g id="edge12" class="edge">
<title>Node10&#45;&gt;Node12</title>
<path fill="none" stroke="midnightblue" d="M416.22,-86C431.11,-86 446.57,-86 461.56,-86"/>
<polygon fill="midnightblue" stroke="midnightblue" points="461.85,-89.5 471.85,-86 461.85,-82.5 461.85,-89.5"/>
</g>
<!-- Node12&#45;&gt;Node12 -->
<g id="edge15" class="edge">
<title>Node12&#45;&gt;Node12</title>
<path fill="none" stroke="midnightblue" d="M523.64,-95.61C506.13,-104.46 517.75,-114 558.5,-114 589.06,-114 603.24,-108.63 601.03,-102.22"/>
<polygon fill="midnightblue" stroke="midnightblue" points="603.22,-99.49 593.36,-95.61 598.65,-104.79 603.22,-99.49"/>
</g>
<!-- Node13 -->
<g id="node13" class="node">
<title>Node13</title>
<g id="a_node13"><a xlink:href="../../d6/d51/a01494.html#a9a14a112498c8f5beb4b4585cdf61653" target="_top" xlink:title=" ">
<polygon fill="none" stroke="black" points="696,-148.5 696,-167.5 881,-167.5 881,-148.5 696,-148.5"/>
<text text-anchor="middle" x="788.5" y="-155.5" font-family="Helvetica,sans-Serif" font-size="10.00">com.cliffc.aa.type.TypeMem.check</text>
</a>
</g>
</g>
<!-- Node12&#45;&gt;Node13 -->
<g id="edge13" class="edge">
<title>Node12&#45;&gt;Node13</title>
<path fill="none" stroke="midnightblue" d="M589.78,-95.56C630.32,-108.36 702.35,-131.11 747.37,-145.33"/>
<polygon fill="midnightblue" stroke="midnightblue" points="746.51,-148.73 757.1,-148.4 748.62,-142.05 746.51,-148.73"/>
</g>
<!-- Node13&#45;&gt;Node5 -->
<g id="edge14" class="edge">
<title>Node13&#45;&gt;Node5</title>
<path fill="none" stroke="midnightblue" d="M881.21,-165.92C889.68,-166.65 898.3,-167.4 906.87,-168.14"/>
<polygon fill="midnightblue" stroke="midnightblue" points="906.62,-171.63 916.88,-169 907.22,-164.65 906.62,-171.63"/>
</g>
</g>
</svg>
