<?xml version="1.0" encoding="UTF-8" standalone="no"?>
<!DOCTYPE svg PUBLIC "-//W3C//DTD SVG 1.1//EN"
 "http://www.w3.org/Graphics/SVG/1.1/DTD/svg11.dtd">
<!-- Generated by graphviz version 2.43.0 (0)
 -->
<!-- Title: com.cliffc.aa.type.TypeMem.make_live Pages: 1 -->
<svg width="1344pt" height="136pt"
 viewBox="0.00 0.00 1344.00 136.00" xmlns="http://www.w3.org/2000/svg" xmlns:xlink="http://www.w3.org/1999/xlink">
<g id="graph0" class="graph" transform="scale(1 1) rotate(0) translate(4 132)">
<title>com.cliffc.aa.type.TypeMem.make_live</title>
<!-- Node1 -->
<g id="node1" class="node">
<title>Node1</title>
<g id="a_node1"><a xlink:title=" ">
<polygon fill="#bfbfbf" stroke="black" points="0,-78 0,-97 207,-97 207,-78 0,-78"/>
<text text-anchor="middle" x="103.5" y="-85" font-family="Helvetica,sans-Serif" font-size="10.00">com.cliffc.aa.type.TypeMem.make_live</text>
</a>
</g>
</g>
<!-- Node2 -->
<g id="node2" class="node">
<title>Node2</title>
<g id="a_node2"><a xlink:href="../../d6/d51/a01494.html#ae392026e3633d14a7cd12aea2a02114e" target="_top" xlink:title=" ">
<polygon fill="none" stroke="black" points="250.5,-97 250.5,-116 425.5,-116 425.5,-97 250.5,-97"/>
<text text-anchor="middle" x="338" y="-104" font-family="Helvetica,sans-Serif" font-size="10.00">com.cliffc.aa.type.TypeMem.live</text>
</a>
</g>
</g>
<!-- Node1&#45;&gt;Node2 -->
<g id="edge1" class="edge">
<title>Node1&#45;&gt;Node2</title>
<path fill="none" stroke="midnightblue" d="M207.15,-95.89C218.03,-96.78 229.07,-97.68 239.88,-98.56"/>
<polygon fill="midnightblue" stroke="midnightblue" points="239.92,-102.08 250.17,-99.4 240.49,-95.1 239.92,-102.08"/>
</g>
<!-- Node3 -->
<g id="node3" class="node">
<title>Node3</title>
<g id="a_node3"><a xlink:href="../../d6/d51/a01494.html#a6e66e12dd6b273e5ade4ab54fa683f8d" target="_top" xlink:title=" ">
<polygon fill="none" stroke="black" points="243,-59 243,-78 433,-78 433,-59 243,-59"/>
<text text-anchor="middle" x="338" y="-66" font-family="Helvetica,sans-Serif" font-size="10.00">com.cliffc.aa.type.TypeMem.make0</text>
</a>
</g>
</g>
<!-- Node1&#45;&gt;Node3 -->
<g id="edge2" class="edge">
<title>Node1&#45;&gt;Node3</title>
<path fill="none" stroke="midnightblue" d="M207.15,-79.11C215.72,-78.41 224.39,-77.7 232.97,-77"/>
<polygon fill="midnightblue" stroke="midnightblue" points="233.31,-80.49 242.99,-76.18 232.74,-73.51 233.31,-80.49"/>
</g>
<!-- Node4 -->
<g id="node4" class="node">
<title>Node4</title>
<g id="a_node4"><a xlink:href="../../d6/d51/a01494.html#af6e06afd7033aef3b4d8e85653d41df6" target="_top" xlink:title=" ">
<polygon fill="none" stroke="black" points="482.5,-97.5 482.5,-127.5 639.5,-127.5 639.5,-97.5 482.5,-97.5"/>
<text text-anchor="start" x="490.5" y="-115.5" font-family="Helvetica,sans-Serif" font-size="10.00">com.cliffc.aa.type.TypeMem.</text>
<text text-anchor="middle" x="561" y="-104.5" font-family="Helvetica,sans-Serif" font-size="10.00">_make1</text>
</a>
</g>
</g>
<!-- Node3&#45;&gt;Node4 -->
<g id="edge3" class="edge">
<title>Node3&#45;&gt;Node4</title>
<path fill="none" stroke="midnightblue" d="M386.95,-78.05C412.5,-83.13 444.7,-89.54 474.38,-95.45"/>
<polygon fill="midnightblue" stroke="midnightblue" points="473.84,-98.91 484.33,-97.43 475.21,-92.05 473.84,-98.91"/>
</g>
<!-- Node6 -->
<g id="node6" class="node">
<title>Node6</title>
<g id="a_node6"><a xlink:href="../../d6/d51/a01494.html#abfc567fa84de27858d9707536072702c" target="_top" xlink:title=" ">
<polygon fill="none" stroke="black" points="469,-59 469,-78 653,-78 653,-59 469,-59"/>
<text text-anchor="middle" x="561" y="-66" font-family="Helvetica,sans-Serif" font-size="10.00">com.cliffc.aa.type.TypeMem.make</text>
</a>
</g>
</g>
<!-- Node3&#45;&gt;Node6 -->
<g id="edge5" class="edge">
<title>Node3&#45;&gt;Node6</title>
<path fill="none" stroke="midnightblue" d="M433.04,-68.5C441.57,-68.5 450.23,-68.5 458.82,-68.5"/>
<polygon fill="midnightblue" stroke="midnightblue" points="458.85,-72 468.85,-68.5 458.85,-65 458.85,-72"/>
</g>
<!-- Node11 -->
<g id="node11" class="node">
<title>Node11</title>
<g id="a_node11"><a xlink:href="../../d0/de2/a01442.html#a388429cb6bea455104e3b9690d992854" target="_top" xlink:title=" ">
<polygon fill="none" stroke="black" points="486,-21 486,-40 636,-40 636,-21 486,-21"/>
<text text-anchor="middle" x="561" y="-28" font-family="Helvetica,sans-Serif" font-size="10.00">com.cliffc.aa.type.Type.oob</text>
</a>
</g>
</g>
<!-- Node3&#45;&gt;Node11 -->
<g id="edge11" class="edge">
<title>Node3&#45;&gt;Node11</title>
<path fill="none" stroke="midnightblue" d="M394.48,-58.96C424.83,-53.74 462.6,-47.25 494.4,-41.78"/>
<polygon fill="midnightblue" stroke="midnightblue" points="495.23,-45.19 504.49,-40.04 494.05,-38.29 495.23,-45.19"/>
</g>
<!-- Node5 -->
<g id="node5" class="node">
<title>Node5</title>
<g id="a_node5"><a xlink:href="../../d6/d51/a01494.html#ab31abc3950f3574c970b2858a1870949" target="_top" xlink:title=" ">
<polygon fill="none" stroke="black" points="704.5,-103 704.5,-122 876.5,-122 876.5,-103 704.5,-103"/>
<text text-anchor="middle" x="790.5" y="-110" font-family="Helvetica,sans-Serif" font-size="10.00">com.cliffc.aa.type.TypeMem.len</text>
</a>
</g>
</g>
<!-- Node4&#45;&gt;Node5 -->
<g id="edge4" class="edge">
<title>Node4&#45;&gt;Node5</title>
<path fill="none" stroke="midnightblue" d="M639.66,-112.5C657.25,-112.5 676.13,-112.5 694.36,-112.5"/>
<polygon fill="midnightblue" stroke="midnightblue" points="694.4,-116 704.4,-112.5 694.4,-109 694.4,-116"/>
</g>
<!-- Node7 -->
<g id="node7" class="node">
<title>Node7</title>
<g id="a_node7"><a xlink:href="../../d0/de2/a01442.html#a8fe8d556e45e6b654f3ac87f118ac8de" target="_top" xlink:title=" ">
<polygon fill="none" stroke="black" points="689,-62 689,-81 892,-81 892,-62 689,-62"/>
<text text-anchor="middle" x="790.5" y="-69" font-family="Helvetica,sans-Serif" font-size="10.00">com.cliffc.aa.type.Type.hashcons_free</text>
</a>
</g>
</g>
<!-- Node6&#45;&gt;Node7 -->
<g id="edge6" class="edge">
<title>Node6&#45;&gt;Node7</title>
<path fill="none" stroke="midnightblue" d="M653.22,-69.7C661.66,-69.81 670.28,-69.93 678.87,-70.04"/>
<polygon fill="midnightblue" stroke="midnightblue" points="678.88,-73.54 688.93,-70.17 678.97,-66.54 678.88,-73.54"/>
</g>
<!-- Node8 -->
<g id="node8" class="node">
<title>Node8</title>
<g id="a_node8"><a xlink:href="../../d6/d51/a01494.html#a6b1eb89aaaf02ada150969b5f8ce24ff" target="_top" xlink:title=" ">
<polygon fill="none" stroke="black" points="704,-6 704,-25 877,-25 877,-6 704,-6"/>
<text text-anchor="middle" x="790.5" y="-13" font-family="Helvetica,sans-Serif" font-size="10.00">com.cliffc.aa.type.TypeMem.init</text>
</a>
</g>
</g>
<!-- Node6&#45;&gt;Node8 -->
<g id="edge7" class="edge">
<title>Node6&#45;&gt;Node8</title>
<path fill="none" stroke="midnightblue" d="M609.31,-58.98C623.39,-56.05 638.84,-52.74 653,-49.5 683.08,-42.62 716.72,-34.24 743.08,-27.53"/>
<polygon fill="midnightblue" stroke="midnightblue" points="743.98,-30.91 752.8,-25.05 742.25,-24.13 743.98,-30.91"/>
</g>
<!-- Node8&#45;&gt;Node8 -->
<g id="edge10" class="edge">
<title>Node8&#45;&gt;Node8</title>
<path fill="none" stroke="midnightblue" d="M755.64,-25.11C738.13,-33.96 749.75,-43.5 790.5,-43.5 821.06,-43.5 835.24,-38.13 833.03,-31.72"/>
<polygon fill="midnightblue" stroke="midnightblue" points="835.22,-28.99 825.36,-25.11 830.65,-34.29 835.22,-28.99"/>
</g>
<!-- Node9 -->
<g id="node9" class="node">
<title>Node9</title>
<g id="a_node9"><a xlink:href="../../d6/d51/a01494.html#a9a14a112498c8f5beb4b4585cdf61653" target="_top" xlink:title=" ">
<polygon fill="none" stroke="black" points="928,-6 928,-25 1113,-25 1113,-6 928,-6"/>
<text text-anchor="middle" x="1020.5" y="-13" font-family="Helvetica,sans-Serif" font-size="10.00">com.cliffc.aa.type.TypeMem.check</text>
</a>
</g>
</g>
<!-- Node8&#45;&gt;Node9 -->
<g id="edge8" class="edge">
<title>Node8&#45;&gt;Node9</title>
<path fill="none" stroke="midnightblue" d="M877.05,-15.5C890.24,-15.5 903.97,-15.5 917.48,-15.5"/>
<polygon fill="midnightblue" stroke="midnightblue" points="917.75,-19 927.75,-15.5 917.75,-12 917.75,-19"/>
</g>
<!-- Node10 -->
<g id="node10" class="node">
<title>Node10</title>
<g id="a_node10"><a xlink:href="../../d6/d51/a01494.html#a0eecce7cc3a48609b618fd6ba69927f1" target="_top" xlink:title=" ">
<polygon fill="none" stroke="black" points="1149,-0.5 1149,-30.5 1336,-30.5 1336,-0.5 1149,-0.5"/>
<text text-anchor="start" x="1157" y="-18.5" font-family="Helvetica,sans-Serif" font-size="10.00">com.cliffc.aa.type.TypeMem.above</text>
<text text-anchor="middle" x="1242.5" y="-7.5" font-family="Helvetica,sans-Serif" font-size="10.00">_center</text>
</a>
</g>
</g>
<!-- Node9&#45;&gt;Node10 -->
<g id="edge9" class="edge">
<title>Node9&#45;&gt;Node10</title>
<path fill="none" stroke="midnightblue" d="M1113.21,-15.5C1121.68,-15.5 1130.3,-15.5 1138.87,-15.5"/>
<polygon fill="midnightblue" stroke="midnightblue" points="1138.88,-19 1148.88,-15.5 1138.88,-12 1138.88,-19"/>
</g>
</g>
</svg>
