<?xml version="1.0" encoding="UTF-8" standalone="no"?>
<!DOCTYPE svg PUBLIC "-//W3C//DTD SVG 1.1//EN"
 "http://www.w3.org/Graphics/SVG/1.1/DTD/svg11.dtd">
<!-- Generated by graphviz version 2.43.0 (0)
 -->
<!-- Title: com.cliffc.aa.GVNGCM.add_unuse Pages: 1 -->
<svg width="967pt" height="116pt"
 viewBox="0.00 0.00 967.00 115.50" xmlns="http://www.w3.org/2000/svg" xmlns:xlink="http://www.w3.org/1999/xlink">
<g id="graph0" class="graph" transform="scale(1 1) rotate(0) translate(4 111.5)">
<title>com.cliffc.aa.GVNGCM.add_unuse</title>
<!-- Node1 -->
<g id="node1" class="node">
<title>Node1</title>
<g id="a_node1"><a xlink:title=" ">
<polygon fill="#bfbfbf" stroke="black" points="0,-44.5 0,-74.5 148,-74.5 148,-44.5 0,-44.5"/>
<text text-anchor="start" x="8" y="-62.5" font-family="Helvetica,sans-Serif" font-size="10.00">com.cliffc.aa.GVNGCM.add</text>
<text text-anchor="middle" x="74" y="-51.5" font-family="Helvetica,sans-Serif" font-size="10.00">_unuse</text>
</a>
</g>
</g>
<!-- Node2 -->
<g id="node2" class="node">
<title>Node2</title>
<g id="a_node2"><a xlink:href="../../d9/d0a/a00390.html#af23b6c0debccdb7104dea273b231c716" target="_top" xlink:title=" ">
<polygon fill="none" stroke="black" points="184,-88 184,-107 361,-107 361,-88 184,-88"/>
<text text-anchor="middle" x="272.5" y="-95" font-family="Helvetica,sans-Serif" font-size="10.00">com.cliffc.aa.GVNGCM.add_dead</text>
</a>
</g>
</g>
<!-- Node1&#45;&gt;Node2 -->
<g id="edge1" class="edge">
<title>Node1&#45;&gt;Node2</title>
<path fill="none" stroke="midnightblue" d="M148.17,-73.65C169.27,-77.73 192.02,-82.13 212.16,-86.02"/>
<polygon fill="midnightblue" stroke="midnightblue" points="211.65,-89.49 222.13,-87.95 212.98,-82.62 211.65,-89.49"/>
</g>
<!-- Node6 -->
<g id="node6" class="node">
<title>Node6</title>
<g id="a_node6"><a xlink:href="../../d9/d0a/a00390.html#a195b2b7d0b8f0f1770422573c2cc22ff" target="_top" xlink:title=" ">
<polygon fill="none" stroke="black" points="186,-50 186,-69 359,-69 359,-50 186,-50"/>
<text text-anchor="middle" x="272.5" y="-57" font-family="Helvetica,sans-Serif" font-size="10.00">com.cliffc.aa.GVNGCM.add_flow</text>
</a>
</g>
</g>
<!-- Node1&#45;&gt;Node6 -->
<g id="edge5" class="edge">
<title>Node1&#45;&gt;Node6</title>
<path fill="none" stroke="midnightblue" d="M148.17,-59.5C157.14,-59.5 166.42,-59.5 175.66,-59.5"/>
<polygon fill="midnightblue" stroke="midnightblue" points="175.67,-63 185.67,-59.5 175.67,-56 175.67,-63"/>
</g>
<!-- Node7 -->
<g id="node7" class="node">
<title>Node7</title>
<g id="a_node7"><a xlink:href="../../d9/d0a/a00390.html#ad52b88a21b47c661e6f6a3bcfdbb3576" target="_top" xlink:title=" ">
<polygon fill="none" stroke="black" points="198.5,-0.5 198.5,-30.5 346.5,-30.5 346.5,-0.5 198.5,-0.5"/>
<text text-anchor="start" x="206.5" y="-18.5" font-family="Helvetica,sans-Serif" font-size="10.00">com.cliffc.aa.GVNGCM.add</text>
<text text-anchor="middle" x="272.5" y="-7.5" font-family="Helvetica,sans-Serif" font-size="10.00">_reduce</text>
</a>
</g>
</g>
<!-- Node1&#45;&gt;Node7 -->
<g id="edge7" class="edge">
<title>Node1&#45;&gt;Node7</title>
<path fill="none" stroke="midnightblue" d="M142.07,-44.48C158.9,-40.71 177.08,-36.64 194.35,-32.78"/>
<polygon fill="midnightblue" stroke="midnightblue" points="195.4,-36.13 204.39,-30.53 193.87,-29.3 195.4,-36.13"/>
</g>
<!-- Node3 -->
<g id="node3" class="node">
<title>Node3</title>
<g id="a_node3"><a xlink:href="../../d9/d0a/a00390.html#a6074ca566ae10e746122ac8d09239d02" target="_top" xlink:title=" ">
<polygon fill="none" stroke="black" points="397,-50 397,-69 574,-69 574,-50 397,-50"/>
<text text-anchor="middle" x="485.5" y="-57" font-family="Helvetica,sans-Serif" font-size="10.00">com.cliffc.aa.GVNGCM.add_work</text>
</a>
</g>
</g>
<!-- Node2&#45;&gt;Node3 -->
<g id="edge2" class="edge">
<title>Node2&#45;&gt;Node3</title>
<path fill="none" stroke="midnightblue" d="M326.47,-87.96C355.32,-82.77 391.2,-76.3 421.47,-70.85"/>
<polygon fill="midnightblue" stroke="midnightblue" points="422.29,-74.26 431.51,-69.04 421.04,-67.37 422.29,-74.26"/>
</g>
<!-- Node4 -->
<g id="node4" class="node">
<title>Node4</title>
<g id="a_node4"><a xlink:href="../../d6/d2f/a01394.html#acc21c59313a6ce5c286431fd2d4fd891" target="_top" xlink:title=" ">
<polygon fill="none" stroke="black" points="610,-50 610,-69 765,-69 765,-50 610,-50"/>
<text text-anchor="middle" x="687.5" y="-57" font-family="Helvetica,sans-Serif" font-size="10.00">com.cliffc.aa.node.Work.add</text>
</a>
</g>
</g>
<!-- Node3&#45;&gt;Node4 -->
<g id="edge3" class="edge">
<title>Node3&#45;&gt;Node4</title>
<path fill="none" stroke="midnightblue" d="M574.22,-59.5C582.65,-59.5 591.2,-59.5 599.63,-59.5"/>
<polygon fill="midnightblue" stroke="midnightblue" points="599.82,-63 609.82,-59.5 599.82,-56 599.82,-63"/>
</g>
<!-- Node5 -->
<g id="node5" class="node">
<title>Node5</title>
<g id="a_node5"><a xlink:href="../../df/dee/a01646.html#a88ad20daf92e92fe0e3925b23c4fecf0" target="_top" xlink:title=" ">
<polygon fill="none" stroke="black" points="801,-50 801,-69 959,-69 959,-50 801,-50"/>
<text text-anchor="middle" x="880" y="-57" font-family="Helvetica,sans-Serif" font-size="10.00">com.cliffc.aa.util.VBitSet.tset</text>
</a>
</g>
</g>
<!-- Node4&#45;&gt;Node5 -->
<g id="edge4" class="edge">
<title>Node4&#45;&gt;Node5</title>
<path fill="none" stroke="midnightblue" d="M765.16,-59.5C773.63,-59.5 782.31,-59.5 790.9,-59.5"/>
<polygon fill="midnightblue" stroke="midnightblue" points="790.94,-63 800.94,-59.5 790.94,-56 790.94,-63"/>
</g>
<!-- Node6&#45;&gt;Node3 -->
<g id="edge6" class="edge">
<title>Node6&#45;&gt;Node3</title>
<path fill="none" stroke="midnightblue" d="M359.02,-59.5C368.16,-59.5 377.51,-59.5 386.79,-59.5"/>
<polygon fill="midnightblue" stroke="midnightblue" points="386.8,-63 396.8,-59.5 386.8,-56 386.8,-63"/>
</g>
<!-- Node7&#45;&gt;Node3 -->
<g id="edge8" class="edge">
<title>Node7&#45;&gt;Node3</title>
<path fill="none" stroke="midnightblue" d="M345.52,-30.52C372.82,-36.21 403.45,-42.6 429,-47.93"/>
<polygon fill="midnightblue" stroke="midnightblue" points="428.38,-51.37 438.88,-49.99 429.81,-44.52 428.38,-51.37"/>
</g>
</g>
</svg>
