<?xml version="1.0" encoding="UTF-8" standalone="no"?>
<!DOCTYPE svg PUBLIC "-//W3C//DTD SVG 1.1//EN"
 "http://www.w3.org/Graphics/SVG/1.1/DTD/svg11.dtd">
<!-- Generated by graphviz version 2.43.0 (0)
 -->
<!-- Title: com.cliffc.aa.GVNGCM.revalive Pages: 1 -->
<!--zoomable 203 -->
<svg id="main" version="1.1" xmlns="http://www.w3.org/2000/svg" xmlns:xlink="http://www.w3.org/1999/xlink" xml:space="preserve" onload="init(evt)">
<style type="text/css"><![CDATA[
.edge:hover path { stroke: red; }
.edge:hover polygon { stroke: red; fill: red; }
]]></style>
<script type="text/javascript"><![CDATA[
var edges = document.getElementsByTagName('g');
if (edges && edges.length) {
  for (var i=0;i<edges.length;i++) {
    if (edges[i].id.substr(0,4)=='edge') {
      edges[i].setAttribute('class','edge');
    }
  }
}
]]></script>
        <defs>
                <circle id="rim" cx="0" cy="0" r="7"/>
                <circle id="rim2" cx="0" cy="0" r="3.5"/>
                <g id="zoomPlus">
                        <use xlink:href="#rim" fill="#404040">
                                <set attributeName="fill" to="#808080" begin="zoomplus.mouseover" end="zoomplus.mouseout"/>
                        </use>
                        <path d="M-4,0h8M0,-4v8" fill="none" stroke="white" stroke-width="1.5" pointer-events="none"/>
                </g>
                <g id="zoomMin">
                        <use xlink:href="#rim" fill="#404040">
                                <set attributeName="fill" to="#808080" begin="zoomminus.mouseover" end="zoomminus.mouseout"/>
                        </use>
                        <path d="M-4,0h8" fill="none" stroke="white" stroke-width="1.5" pointer-events="none"/>
                </g>
                <g id="dirArrow">
                        <path fill="none" stroke="white" stroke-width="1.5" d="M0,-3.0v7 M-2.5,-0.5L0,-3.0L2.5,-0.5"/>
                </g>
               <g id="resetDef">
                       <use xlink:href="#rim2" fill="#404040">
                               <set attributeName="fill" to="#808080" begin="reset.mouseover" end="reset.mouseout"/>
                       </use>
               </g>
        </defs>

<script type="text/javascript">
var viewWidth = 1209;
var viewHeight = 203;
var sectionId = 'dynsection-54';
</script>
<script xlink:href="../../svgpan.js"/>
<svg id="graph" class="graph">
<g id="viewport">
<title>com.cliffc.aa.GVNGCM.revalive</title>
<!-- Node1 -->
<g id="node1" class="node">
<title>Node1</title>
<g id="a_node1"><a xlink:title=" ">
<polygon fill="#bfbfbf" stroke="black" points="0,-120.5 0,-139.5 170,-139.5 170,-120.5 0,-120.5"/>
<text text-anchor="middle" x="85" y="-127.5" font-family="Helvetica,sans-Serif" font-size="10.00">com.cliffc.aa.GVNGCM.revalive</text>
</a>
</g>
</g>
<!-- Node2 -->
<g id="node2" class="node">
<title>Node2</title>
<g id="a_node2"><a xlink:href="../../d9/d0a/a00390.html#af5bf697602c5ca0a61e3b01d6e0e44ce" target="_top" xlink:title=" ">
<polygon fill="none" stroke="black" points="209.5,-164 209.5,-194 357.5,-194 357.5,-164 209.5,-164"/>
<text text-anchor="start" x="217.5" y="-182" font-family="Helvetica,sans-Serif" font-size="10.00">com.cliffc.aa.GVNGCM.add</text>
<text text-anchor="middle" x="283.5" y="-171" font-family="Helvetica,sans-Serif" font-size="10.00">_flow_defs</text>
</a>
</g>
</g>
<!-- Node1&#45;&gt;Node2 -->
<g id="edge1" class="edge">
<title>Node1&#45;&gt;Node2</title>
<path fill="none" stroke="midnightblue" d="M124.35,-139.56C149.34,-145.79 182.68,-154.11 212.31,-161.5"/>
<polygon fill="midnightblue" stroke="midnightblue" points="211.65,-164.94 222.2,-163.96 213.34,-158.15 211.65,-164.94"/>
</g>
<!-- Node7 -->
<g id="node7" class="node">
<title>Node7</title>
<g id="a_node7"><a xlink:href="../../d9/d0a/a00390.html#af9419887ce8c6743e7281422d35c698e" target="_top" xlink:title=" ">
<polygon fill="none" stroke="black" points="209.5,-115 209.5,-145 357.5,-145 357.5,-115 209.5,-115"/>
<text text-anchor="start" x="217.5" y="-133" font-family="Helvetica,sans-Serif" font-size="10.00">com.cliffc.aa.GVNGCM.add</text>
<text text-anchor="middle" x="283.5" y="-122" font-family="Helvetica,sans-Serif" font-size="10.00">_flow_uses</text>
</a>
</g>
</g>
<!-- Node1&#45;&gt;Node7 -->
<g id="edge6" class="edge">
<title>Node1&#45;&gt;Node7</title>
<path fill="none" stroke="midnightblue" d="M170.19,-130C179.75,-130 189.49,-130 199.05,-130"/>
<polygon fill="midnightblue" stroke="midnightblue" points="199.32,-133.5 209.32,-130 199.32,-126.5 199.32,-133.5"/>
</g>
<!-- Node9 -->
<g id="node9" class="node">
<title>Node9</title>
<g id="a_node9"><a xlink:href="../../df/db5/a01158.html#a14b4db4eb1ac03fbbb3c9e7b02f0d81e" target="_top" xlink:title=" ">
<polygon fill="none" stroke="black" points="206,-57.5 206,-76.5 361,-76.5 361,-57.5 206,-57.5"/>
<text text-anchor="middle" x="283.5" y="-64.5" font-family="Helvetica,sans-Serif" font-size="10.00">com.cliffc.aa.node.Node.live</text>
</a>
</g>
</g>
<!-- Node1&#45;&gt;Node9 -->
<g id="edge9" class="edge">
<title>Node1&#45;&gt;Node9</title>
<path fill="none" stroke="midnightblue" d="M115.84,-120.43C149.85,-109.53 205.55,-91.67 243.1,-79.63"/>
<polygon fill="midnightblue" stroke="midnightblue" points="244.24,-82.94 252.7,-76.55 242.11,-76.28 244.24,-82.94"/>
</g>
<!-- Node3 -->
<g id="node3" class="node">
<title>Node3</title>
<g id="a_node3"><a xlink:href="../../d9/d0a/a00390.html#a64d0bc8e86c577184b95d3a6dea46ba9" target="_top" xlink:title=" ">
<polygon fill="none" stroke="black" points="426,-164 426,-194 574,-194 574,-164 426,-164"/>
<text text-anchor="start" x="434" y="-182" font-family="Helvetica,sans-Serif" font-size="10.00">com.cliffc.aa.GVNGCM.add</text>
<text text-anchor="middle" x="500" y="-171" font-family="Helvetica,sans-Serif" font-size="10.00">_work_defs</text>
</a>
</g>
</g>
<!-- Node2&#45;&gt;Node3 -->
<g id="edge2" class="edge">
<title>Node2&#45;&gt;Node3</title>
<path fill="none" stroke="midnightblue" d="M357.72,-179C376.34,-179 396.49,-179 415.57,-179"/>
<polygon fill="midnightblue" stroke="midnightblue" points="415.75,-182.5 425.75,-179 415.75,-175.5 415.75,-182.5"/>
</g>
<!-- Node4 -->
<g id="node4" class="node">
<title>Node4</title>
<g id="a_node4"><a xlink:href="../../d9/d0a/a00390.html#a6074ca566ae10e746122ac8d09239d02" target="_top" xlink:title=" ">
<polygon fill="none" stroke="black" points="639,-144.5 639,-163.5 816,-163.5 816,-144.5 639,-144.5"/>
<text text-anchor="middle" x="727.5" y="-151.5" font-family="Helvetica,sans-Serif" font-size="10.00">com.cliffc.aa.GVNGCM.add_work</text>
</a>
</g>
</g>
<!-- Node3&#45;&gt;Node4 -->
<g id="edge3" class="edge">
<title>Node3&#45;&gt;Node4</title>
<path fill="none" stroke="midnightblue" d="M574.21,-170.88C592.2,-168.89 611.72,-166.72 630.6,-164.63"/>
<polygon fill="midnightblue" stroke="midnightblue" points="631.15,-168.09 640.71,-163.51 630.38,-161.13 631.15,-168.09"/>
</g>
<!-- Node5 -->
<g id="node5" class="node">
<title>Node5</title>
<g id="a_node5"><a xlink:href="../../d6/d2f/a01394.html#acc21c59313a6ce5c286431fd2d4fd891" target="_top" xlink:title=" ">
<polygon fill="none" stroke="black" points="852,-144.5 852,-163.5 1007,-163.5 1007,-144.5 852,-144.5"/>
<text text-anchor="middle" x="929.5" y="-151.5" font-family="Helvetica,sans-Serif" font-size="10.00">com.cliffc.aa.node.Work.add</text>
</a>
</g>
</g>
<!-- Node4&#45;&gt;Node5 -->
<g id="edge4" class="edge">
<title>Node4&#45;&gt;Node5</title>
<path fill="none" stroke="midnightblue" d="M816.22,-154C824.65,-154 833.2,-154 841.63,-154"/>
<polygon fill="midnightblue" stroke="midnightblue" points="841.82,-157.5 851.82,-154 841.82,-150.5 841.82,-157.5"/>
</g>
<!-- Node6 -->
<g id="node6" class="node">
<title>Node6</title>
<g id="a_node6"><a xlink:href="../../df/dee/a01646.html#a88ad20daf92e92fe0e3925b23c4fecf0" target="_top" xlink:title=" ">
<polygon fill="none" stroke="black" points="1043,-144.5 1043,-163.5 1201,-163.5 1201,-144.5 1043,-144.5"/>
<text text-anchor="middle" x="1122" y="-151.5" font-family="Helvetica,sans-Serif" font-size="10.00">com.cliffc.aa.util.VBitSet.tset</text>
</a>
</g>
</g>
<!-- Node5&#45;&gt;Node6 -->
<g id="edge5" class="edge">
<title>Node5&#45;&gt;Node6</title>
<path fill="none" stroke="midnightblue" d="M1007.16,-154C1015.63,-154 1024.31,-154 1032.9,-154"/>
<polygon fill="midnightblue" stroke="midnightblue" points="1032.94,-157.5 1042.94,-154 1032.94,-150.5 1032.94,-157.5"/>
</g>
<!-- Node8 -->
<g id="node8" class="node">
<title>Node8</title>
<g id="a_node8"><a xlink:href="../../d9/d0a/a00390.html#aa4af00d73c9e87a3a5723f8dca5a4415" target="_top" xlink:title=" ">
<polygon fill="none" stroke="black" points="426,-115 426,-145 574,-145 574,-115 426,-115"/>
<text text-anchor="start" x="434" y="-133" font-family="Helvetica,sans-Serif" font-size="10.00">com.cliffc.aa.GVNGCM.add</text>
<text text-anchor="middle" x="500" y="-122" font-family="Helvetica,sans-Serif" font-size="10.00">_work_uses</text>
</a>
</g>
</g>
<!-- Node7&#45;&gt;Node8 -->
<g id="edge7" class="edge">
<title>Node7&#45;&gt;Node8</title>
<path fill="none" stroke="midnightblue" d="M357.72,-130C376.34,-130 396.49,-130 415.57,-130"/>
<polygon fill="midnightblue" stroke="midnightblue" points="415.75,-133.5 425.75,-130 415.75,-126.5 415.75,-133.5"/>
</g>
<!-- Node8&#45;&gt;Node4 -->
<g id="edge8" class="edge">
<title>Node8&#45;&gt;Node4</title>
<path fill="none" stroke="midnightblue" d="M574.21,-137.79C591.57,-139.64 610.37,-141.64 628.63,-143.58"/>
<polygon fill="midnightblue" stroke="midnightblue" points="628.4,-147.08 638.71,-144.66 629.14,-140.12 628.4,-147.08"/>
</g>
<!-- Node10 -->
<g id="node10" class="node">
<title>Node10</title>
<g id="a_node10"><a xlink:href="../../df/db5/a01158.html#a260ab95c10fcb1ccf5f4845aedbb929f" target="_top" xlink:title=" ">
<polygon fill="none" stroke="black" points="413.5,-76.5 413.5,-95.5 586.5,-95.5 586.5,-76.5 413.5,-76.5"/>
<text text-anchor="middle" x="500" y="-83.5" font-family="Helvetica,sans-Serif" font-size="10.00">com.cliffc.aa.node.Node.all_live</text>
</a>
</g>
</g>
<!-- Node9&#45;&gt;Node10 -->
<g id="edge10" class="edge">
<title>Node9&#45;&gt;Node10</title>
<path fill="none" stroke="midnightblue" d="M361.03,-73.78C374.68,-74.99 389.06,-76.26 403.17,-77.51"/>
<polygon fill="midnightblue" stroke="midnightblue" points="403.11,-81.02 413.38,-78.42 403.73,-74.05 403.11,-81.02"/>
</g>
<!-- Node11 -->
<g id="node11" class="node">
<title>Node11</title>
<g id="a_node11"><a xlink:href="../../d6/d51/a01494.html#aedca9fa727944cdfe2b208fd4e260c4d" target="_top" xlink:title=" ">
<polygon fill="none" stroke="black" points="397,-38.5 397,-57.5 603,-57.5 603,-38.5 397,-38.5"/>
<text text-anchor="middle" x="500" y="-45.5" font-family="Helvetica,sans-Serif" font-size="10.00">com.cliffc.aa.type.TypeMem.basic_live</text>
</a>
</g>
</g>
<!-- Node9&#45;&gt;Node11 -->
<g id="edge11" class="edge">
<title>Node9&#45;&gt;Node11</title>
<path fill="none" stroke="midnightblue" d="M361.03,-60.22C369.33,-59.49 377.9,-58.73 386.52,-57.96"/>
<polygon fill="midnightblue" stroke="midnightblue" points="386.99,-61.44 396.64,-57.07 386.37,-54.46 386.99,-61.44"/>
</g>
<!-- Node12 -->
<g id="node12" class="node">
<title>Node12</title>
<g id="a_node12"><a xlink:href="../../d0/de2/a01442.html#a086b90d9d651ac00b80a9b5caa60eb09" target="_top" xlink:title=" ">
<polygon fill="none" stroke="black" points="421,-0.5 421,-19.5 579,-19.5 579,-0.5 421,-0.5"/>
<text text-anchor="middle" x="500" y="-7.5" font-family="Helvetica,sans-Serif" font-size="10.00">com.cliffc.aa.type.Type.meet</text>
</a>
</g>
</g>
<!-- Node9&#45;&gt;Node12 -->
<g id="edge12" class="edge">
<title>Node9&#45;&gt;Node12</title>
<path fill="none" stroke="midnightblue" d="M309.66,-57.36C332.26,-48.97 366.48,-36.95 397,-29 407.54,-26.25 418.8,-23.74 429.84,-21.51"/>
<polygon fill="midnightblue" stroke="midnightblue" points="430.75,-24.9 439.89,-19.54 429.41,-18.03 430.75,-24.9"/>
</g>
</g>
</svg>
        <g id="navigator" transform="translate(0 0)" fill="#404254">
                <rect fill="#f2f5e9" fill-opacity="0.5" stroke="#606060" stroke-width=".5" x="0" y="0" width="60" height="60"/>
                <use id="zoomplus" xlink:href="#zoomPlus" x="17" y="9" onmousedown="handleZoom(evt,'in')"/>
                <use id="zoomminus" xlink:href="#zoomMin" x="42" y="9" onmousedown="handleZoom(evt,'out')"/>
                <use id="reset" xlink:href="#resetDef" x="30" y="36" onmousedown="handleReset()"/>
                <g id="arrowUp" xlink:href="#dirArrow" transform="translate(30 24)" onmousedown="handlePan(0,-1)">
                  <use xlink:href="#rim" fill="#404040">
                        <set attributeName="fill" to="#808080" begin="arrowUp.mouseover" end="arrowUp.mouseout"/>
                  </use>
                  <path fill="none" stroke="white" stroke-width="1.5" d="M0,-3.0v7 M-2.5,-0.5L0,-3.0L2.5,-0.5"/>
                </g>
                <g id="arrowRight" xlink:href="#dirArrow" transform="rotate(90) translate(36 -43)" onmousedown="handlePan(1,0)">
                  <use xlink:href="#rim" fill="#404040">
                        <set attributeName="fill" to="#808080" begin="arrowRight.mouseover" end="arrowRight.mouseout"/>
                  </use>
                  <path fill="none" stroke="white" stroke-width="1.5" d="M0,-3.0v7 M-2.5,-0.5L0,-3.0L2.5,-0.5"/>
                </g>
                <g id="arrowDown" xlink:href="#dirArrow" transform="rotate(180) translate(-30 -48)" onmousedown="handlePan(0,1)">
                  <use xlink:href="#rim" fill="#404040">
                        <set attributeName="fill" to="#808080" begin="arrowDown.mouseover" end="arrowDown.mouseout"/>
                  </use>
                  <path fill="none" stroke="white" stroke-width="1.5" d="M0,-3.0v7 M-2.5,-0.5L0,-3.0L2.5,-0.5"/>
                </g>
                <g id="arrowLeft" xlink:href="#dirArrow" transform="rotate(270) translate(-36 17)" onmousedown="handlePan(-1,0)">
                  <use xlink:href="#rim" fill="#404040">
                        <set attributeName="fill" to="#808080" begin="arrowLeft.mouseover" end="arrowLeft.mouseout"/>
                  </use>
                  <path fill="none" stroke="white" stroke-width="1.5" d="M0,-3.0v7 M-2.5,-0.5L0,-3.0L2.5,-0.5"/>
                </g>
        </g>
        <svg viewBox="0 0 15 15" width="100%" height="30px" preserveAspectRatio="xMaxYMin meet">
         <g id="arrow_out" transform="scale(0.3 0.3)">
          <a xlink:href="a00390_ae4f0c012a438248f0dcfdff4f1d0eafd_cgraph_org.svg" target="_base">
           <rect id="button" ry="5" rx="5" y="6" x="6" height="38" width="38"
                fill="#f2f5e9" fill-opacity="0.5" stroke="#606060" stroke-width="1.0"/>
           <path id="arrow"
             d="M 11.500037,31.436501 C 11.940474,20.09759 22.043105,11.32322 32.158766,21.979434 L 37.068811,17.246167 C 37.068811,17.246167 37.088388,32 37.088388,32 L 22.160133,31.978069 C 22.160133,31.978069 26.997745,27.140456 26.997745,27.140456 C 18.528582,18.264221 13.291696,25.230495 11.500037,31.436501 z"
             style="fill:#404040;"/>
          </a>
         </g>
        </svg>
</svg>
