<?xml version="1.0" encoding="UTF-8" standalone="no"?>
<!DOCTYPE svg PUBLIC "-//W3C//DTD SVG 1.1//EN"
 "http://www.w3.org/Graphics/SVG/1.1/DTD/svg11.dtd">
<!-- Generated by graphviz version 2.43.0 (0)
 -->
<!-- Title: com.cliffc.aa.GVNGCM.add_reduce_uses Pages: 1 -->
<svg width="550pt" height="186pt"
 viewBox="0.00 0.00 550.00 186.00" xmlns="http://www.w3.org/2000/svg" xmlns:xlink="http://www.w3.org/1999/xlink">
<g id="graph0" class="graph" transform="scale(1 1) rotate(0) translate(4 182)">
<title>com.cliffc.aa.GVNGCM.add_reduce_uses</title>
<!-- Node1 -->
<g id="node1" class="node">
<title>Node1</title>
<g id="a_node1"><a xlink:title=" ">
<polygon fill="#bfbfbf" stroke="black" points="394,-73.5 394,-103.5 542,-103.5 542,-73.5 394,-73.5"/>
<text text-anchor="start" x="402" y="-91.5" font-family="Helvetica,sans-Serif" font-size="10.00">com.cliffc.aa.GVNGCM.add</text>
<text text-anchor="middle" x="468" y="-80.5" font-family="Helvetica,sans-Serif" font-size="10.00">_reduce_uses</text>
</a>
</g>
</g>
<!-- Node2 -->
<g id="node2" class="node">
<title>Node2</title>
<g id="a_node2"><a xlink:href="../../d9/d8e/a01050.html#aaa85753bc2e8e1651099300cbe0ac7c2" target="_top" xlink:title=" ">
<polygon fill="none" stroke="black" points="179,-147.5 179,-177.5 358,-177.5 358,-147.5 179,-147.5"/>
<text text-anchor="start" x="187" y="-165.5" font-family="Helvetica,sans-Serif" font-size="10.00">com.cliffc.aa.node.FunNode.ideal</text>
<text text-anchor="middle" x="268.5" y="-154.5" font-family="Helvetica,sans-Serif" font-size="10.00">_reduce</text>
</a>
</g>
</g>
<!-- Node1&#45;&gt;Node2 -->
<g id="edge1" class="edge">
<title>Node1&#45;&gt;Node2</title>
<path fill="none" stroke="midnightblue" d="M428.44,-108.08C407.87,-118.04 381.94,-129.83 358,-138.5 349.17,-141.7 339.71,-144.7 330.38,-147.42"/>
<polygon fill="midnightblue" stroke="midnightblue" points="430.04,-111.19 437.48,-103.65 426.96,-104.91 430.04,-111.19"/>
</g>
<!-- Node3 -->
<g id="node3" class="node">
<title>Node3</title>
<g id="a_node3"><a xlink:href="../../dd/d57/a01054.html#a5dc88cdf51dec20873fcb76473564a5c" target="_top" xlink:title=" ">
<polygon fill="none" stroke="black" points="198.5,-98.5 198.5,-128.5 338.5,-128.5 338.5,-98.5 198.5,-98.5"/>
<text text-anchor="start" x="206.5" y="-116.5" font-family="Helvetica,sans-Serif" font-size="10.00">com.cliffc.aa.node.FunPtr</text>
<text text-anchor="middle" x="268.5" y="-105.5" font-family="Helvetica,sans-Serif" font-size="10.00">Node.merge_ref_def</text>
</a>
</g>
</g>
<!-- Node1&#45;&gt;Node3 -->
<g id="edge2" class="edge">
<title>Node1&#45;&gt;Node3</title>
<path fill="none" stroke="midnightblue" d="M383.5,-99.07C368.58,-100.96 353.18,-102.91 338.71,-104.74"/>
<polygon fill="midnightblue" stroke="midnightblue" points="384.26,-102.5 393.74,-97.77 383.38,-95.56 384.26,-102.5"/>
</g>
<!-- Node4 -->
<g id="node4" class="node">
<title>Node4</title>
<g id="a_node4"><a xlink:href="../../dc/d81/a01006.html#a3b5642b004e55b27a2860a15c0cb7741" target="_top" xlink:title=" ">
<polygon fill="none" stroke="black" points="197,-49.5 197,-79.5 340,-79.5 340,-49.5 197,-49.5"/>
<text text-anchor="start" x="205" y="-67.5" font-family="Helvetica,sans-Serif" font-size="10.00">com.cliffc.aa.node.CallEpi</text>
<text text-anchor="middle" x="268.5" y="-56.5" font-family="Helvetica,sans-Serif" font-size="10.00">Node.set_is_copy</text>
</a>
</g>
</g>
<!-- Node1&#45;&gt;Node4 -->
<g id="edge3" class="edge">
<title>Node1&#45;&gt;Node4</title>
<path fill="none" stroke="midnightblue" d="M383.75,-78.38C369.2,-76.62 354.19,-74.79 340.02,-73.07"/>
<polygon fill="midnightblue" stroke="midnightblue" points="383.39,-81.87 393.74,-79.6 384.23,-74.92 383.39,-81.87"/>
</g>
<!-- Node6 -->
<g id="node6" class="node">
<title>Node6</title>
<g id="a_node6"><a xlink:href="../../d9/d8e/a01050.html#af1c4d2d40a5f0d355fea6c3c66664b77" target="_top" xlink:title=" ">
<polygon fill="none" stroke="black" points="183.5,-0.5 183.5,-30.5 353.5,-30.5 353.5,-0.5 183.5,-0.5"/>
<text text-anchor="start" x="191.5" y="-18.5" font-family="Helvetica,sans-Serif" font-size="10.00">com.cliffc.aa.node.FunNode.set</text>
<text text-anchor="middle" x="268.5" y="-7.5" font-family="Helvetica,sans-Serif" font-size="10.00">_is_copy</text>
</a>
</g>
</g>
<!-- Node1&#45;&gt;Node6 -->
<g id="edge5" class="edge">
<title>Node1&#45;&gt;Node6</title>
<path fill="none" stroke="midnightblue" d="M426.72,-69.16C406.39,-59.8 381.18,-48.83 358,-40.5 348.23,-36.99 337.72,-33.65 327.47,-30.62"/>
<polygon fill="midnightblue" stroke="midnightblue" points="425.45,-72.42 435.99,-73.46 428.39,-66.07 425.45,-72.42"/>
</g>
<!-- Node5 -->
<g id="node5" class="node">
<title>Node5</title>
<g id="a_node5"><a xlink:href="../../dc/d81/a01006.html#a2fc8d45a36328634008e89d520cfb885" target="_top" xlink:title=" ">
<polygon fill="none" stroke="black" points="0,-24.5 0,-54.5 143,-54.5 143,-24.5 0,-24.5"/>
<text text-anchor="start" x="8" y="-42.5" font-family="Helvetica,sans-Serif" font-size="10.00">com.cliffc.aa.node.CallEpi</text>
<text text-anchor="middle" x="71.5" y="-31.5" font-family="Helvetica,sans-Serif" font-size="10.00">Node.ideal_reduce</text>
</a>
</g>
</g>
<!-- Node4&#45;&gt;Node5 -->
<g id="edge4" class="edge">
<title>Node4&#45;&gt;Node5</title>
<path fill="none" stroke="midnightblue" d="M186.9,-54.17C172.42,-52.31 157.43,-50.39 143.26,-48.57"/>
<polygon fill="midnightblue" stroke="midnightblue" points="186.46,-57.64 196.82,-55.44 187.35,-50.7 186.46,-57.64"/>
</g>
<!-- Node6&#45;&gt;Node5 -->
<g id="edge6" class="edge">
<title>Node6&#45;&gt;Node5</title>
<path fill="none" stroke="midnightblue" d="M173.29,-27.1C163.16,-28.34 152.98,-29.59 143.19,-30.8"/>
<polygon fill="midnightblue" stroke="midnightblue" points="173.89,-30.55 183.39,-25.85 173.03,-23.6 173.89,-30.55"/>
</g>
</g>
</svg>
