<?xml version="1.0" encoding="UTF-8" standalone="no"?>
<!DOCTYPE svg PUBLIC "-//W3C//DTD SVG 1.1//EN"
 "http://www.w3.org/Graphics/SVG/1.1/DTD/svg11.dtd">
<!-- Generated by graphviz version 2.43.0 (0)
 -->
<!-- Title: com.cliffc.aa.util.AbstractEntry&lt; TypeK, TypeV &gt; Pages: 1 -->
<svg width="825pt" height="100pt"
 viewBox="0.00 0.00 825.00 99.50" xmlns="http://www.w3.org/2000/svg" xmlns:xlink="http://www.w3.org/1999/xlink">
<g id="graph0" class="graph" transform="scale(1 1) rotate(0) translate(4 95.5)">
<title>com.cliffc.aa.util.AbstractEntry&lt; TypeK, TypeV &gt;</title>
<!-- Node1 -->
<g id="node1" class="node">
<title>Node1</title>
<g id="a_node1"><a xlink:title="A simple implementation of java.util.Map.Entry.">
<polygon fill="#bfbfbf" stroke="black" points="150,-28.5 150,-58.5 291,-58.5 291,-28.5 150,-28.5"/>
<text text-anchor="start" x="158" y="-46.5" font-family="Helvetica,sans-Serif" font-size="10.00">com.cliffc.aa.util.Abstract</text>
<text text-anchor="middle" x="220.5" y="-35.5" font-family="Helvetica,sans-Serif" font-size="10.00">Entry&lt; TypeK, TypeV &gt;</text>
</a>
</g>
</g>
<!-- Node3 -->
<g id="node3" class="node">
<title>Node3</title>
<g id="a_node3"><a xlink:href="../../d3/da5/a01598.html" target="_top" xlink:title=" ">
<polygon fill="none" stroke="black" points="412,-50 412,-91 578,-91 578,-50 412,-50"/>
<text text-anchor="start" x="420" y="-79" font-family="Helvetica,sans-Serif" font-size="10.00">com::cliffc::aa::util</text>
<text text-anchor="start" x="420" y="-68" font-family="Helvetica,sans-Serif" font-size="10.00">::NonBlockingHashMap</text>
<text text-anchor="middle" x="495" y="-57" font-family="Helvetica,sans-Serif" font-size="10.00">&lt; TypeK, TypeV &gt;::NBHMEntry</text>
</a>
</g>
</g>
<!-- Node1&#45;&gt;Node3 -->
<g id="edge2" class="edge">
<title>Node1&#45;&gt;Node3</title>
<path fill="none" stroke="midnightblue" d="M301.42,-51.42C336.14,-54.86 376.79,-58.89 411.77,-62.35"/>
<polygon fill="midnightblue" stroke="midnightblue" points="301.62,-47.92 291.32,-50.42 300.93,-54.89 301.62,-47.92"/>
</g>
<!-- Node4 -->
<g id="node4" class="node">
<title>Node4</title>
<g id="a_node4"><a xlink:href="../../d7/def/a01538.html" target="_top" xlink:title=" ">
<polygon fill="none" stroke="black" points="424.5,-0.5 424.5,-30.5 565.5,-30.5 565.5,-0.5 424.5,-0.5"/>
<text text-anchor="start" x="432.5" y="-18.5" font-family="Helvetica,sans-Serif" font-size="10.00">com.cliffc.aa.util.Abstract</text>
<text text-anchor="middle" x="495" y="-7.5" font-family="Helvetica,sans-Serif" font-size="10.00">Entry&lt; Long, TypeV &gt;</text>
</a>
</g>
</g>
<!-- Node1&#45;&gt;Node4 -->
<g id="edge3" class="edge">
<title>Node1&#45;&gt;Node4</title>
<path fill="none" stroke="orange" stroke-dasharray="5,2" d="M301.57,-35.27C340.52,-31.27 386.9,-26.51 424.36,-22.66"/>
<polygon fill="orange" stroke="orange" points="300.91,-31.82 291.32,-36.33 301.63,-38.79 300.91,-31.82"/>
<text text-anchor="middle" x="351.5" y="-37.5" font-family="Helvetica,sans-Serif" font-size="10.00"> &lt; Long, TypeV &gt;</text>
</g>
<!-- Node2 -->
<g id="node2" class="node">
<title>Node2</title>
<g id="a_node2"><a xlink:title=" ">
<polygon fill="none" stroke="#bfbfbf" points="0,-28.5 0,-58.5 113,-58.5 113,-28.5 0,-28.5"/>
<text text-anchor="start" x="8" y="-46.5" font-family="Helvetica,sans-Serif" font-size="10.00">Map::Entry&lt; TypeK,</text>
<text text-anchor="middle" x="56.5" y="-35.5" font-family="Helvetica,sans-Serif" font-size="10.00"> TypeV &gt;</text>
</a>
</g>
</g>
<!-- Node2&#45;&gt;Node1 -->
<g id="edge1" class="edge">
<title>Node2&#45;&gt;Node1</title>
<path fill="none" stroke="midnightblue" d="M123.38,-43.5C132.12,-43.5 141.1,-43.5 149.91,-43.5"/>
<polygon fill="midnightblue" stroke="midnightblue" points="123.25,-40 113.25,-43.5 123.25,-47 123.25,-40"/>
</g>
<!-- Node5 -->
<g id="node5" class="node">
<title>Node5</title>
<g id="a_node5"><a xlink:href="../../dd/d90/a01626.html" target="_top" xlink:title=" ">
<polygon fill="none" stroke="black" points="615,-0.5 615,-30.5 817,-30.5 817,-0.5 615,-0.5"/>
<text text-anchor="start" x="623" y="-18.5" font-family="Helvetica,sans-Serif" font-size="10.00">com.cliffc.aa.util.NonBlocking</text>
<text text-anchor="middle" x="716" y="-7.5" font-family="Helvetica,sans-Serif" font-size="10.00">HashMapLong&lt; TypeV &gt;.NBHMLEntry</text>
</a>
</g>
</g>
<!-- Node4&#45;&gt;Node5 -->
<g id="edge4" class="edge">
<title>Node4&#45;&gt;Node5</title>
<path fill="none" stroke="midnightblue" d="M575.65,-15.5C588.37,-15.5 601.67,-15.5 614.8,-15.5"/>
<polygon fill="midnightblue" stroke="midnightblue" points="575.59,-12 565.59,-15.5 575.59,-19 575.59,-12"/>
</g>
</g>
</svg>
