<?xml version="1.0" encoding="UTF-8" standalone="no"?>
<!DOCTYPE svg PUBLIC "-//W3C//DTD SVG 1.1//EN"
 "http://www.w3.org/Graphics/SVG/1.1/DTD/svg11.dtd">
<!-- Generated by graphviz version 2.43.0 (0)
 -->
<!-- Title: com.cliffc.aa.util.NonBlockingHashMap.SnapshotV.next Pages: 1 -->
<svg width="566pt" height="137pt"
 viewBox="0.00 0.00 566.00 137.00" xmlns="http://www.w3.org/2000/svg" xmlns:xlink="http://www.w3.org/1999/xlink">
<g id="graph0" class="graph" transform="scale(1 1) rotate(0) translate(4 133)">
<title>com.cliffc.aa.util.NonBlockingHashMap.SnapshotV.next</title>
<!-- Node1 -->
<g id="node1" class="node">
<title>Node1</title>
<g id="a_node1"><a xlink:title=" ">
<polygon fill="#bfbfbf" stroke="black" points="0,-49.5 0,-79.5 162,-79.5 162,-49.5 0,-49.5"/>
<text text-anchor="start" x="8" y="-67.5" font-family="Helvetica,sans-Serif" font-size="10.00">com.cliffc.aa.util.NonBlocking</text>
<text text-anchor="middle" x="81" y="-56.5" font-family="Helvetica,sans-Serif" font-size="10.00">HashMap.SnapshotV.next</text>
</a>
</g>
</g>
<!-- Node2 -->
<g id="node2" class="node">
<title>Node2</title>
<g id="a_node2"><a xlink:href="../../d4/d49/a01590.html#af03fd5ec54710fad0a4a1fb0b6867d45" target="_top" xlink:title=" ">
<polygon fill="none" stroke="black" points="198,-98.5 198,-128.5 360,-128.5 360,-98.5 198,-98.5"/>
<text text-anchor="start" x="206" y="-116.5" font-family="Helvetica,sans-Serif" font-size="10.00">com.cliffc.aa.util.NonBlocking</text>
<text text-anchor="middle" x="279" y="-105.5" font-family="Helvetica,sans-Serif" font-size="10.00">HashMap.SnapshotV.key</text>
</a>
</g>
</g>
<!-- Node1&#45;&gt;Node2 -->
<g id="edge1" class="edge">
<title>Node1&#45;&gt;Node2</title>
<path fill="none" stroke="midnightblue" d="M142.14,-79.53C163.02,-84.76 186.61,-90.65 208.21,-96.05"/>
<polygon fill="midnightblue" stroke="midnightblue" points="207.42,-99.46 217.98,-98.49 209.12,-92.67 207.42,-99.46"/>
</g>
<!-- Node4 -->
<g id="node4" class="node">
<title>Node4</title>
<g id="a_node4"><a xlink:href="../../d4/d49/a01590.html#aaa1f9ba5e17c5ee93a48ab088c1758a4" target="_top" xlink:title=" ">
<polygon fill="none" stroke="black" points="198,-49.5 198,-79.5 360,-79.5 360,-49.5 198,-49.5"/>
<text text-anchor="start" x="206" y="-67.5" font-family="Helvetica,sans-Serif" font-size="10.00">com.cliffc.aa.util.NonBlocking</text>
<text text-anchor="middle" x="279" y="-56.5" font-family="Helvetica,sans-Serif" font-size="10.00">HashMap.SnapshotV.length</text>
</a>
</g>
</g>
<!-- Node1&#45;&gt;Node4 -->
<g id="edge3" class="edge">
<title>Node1&#45;&gt;Node4</title>
<path fill="none" stroke="midnightblue" d="M162,-64.5C170.52,-64.5 179.23,-64.5 187.86,-64.5"/>
<polygon fill="midnightblue" stroke="midnightblue" points="187.93,-68 197.93,-64.5 187.93,-61 187.93,-68"/>
</g>
<!-- Node6 -->
<g id="node6" class="node">
<title>Node6</title>
<g id="a_node6"><a xlink:href="../../d4/d49/a01590.html#a9c6a18b0d439c016f4eb68f6be7225b8" target="_top" xlink:title=" ">
<polygon fill="none" stroke="black" points="198,-0.5 198,-30.5 360,-30.5 360,-0.5 198,-0.5"/>
<text text-anchor="start" x="206" y="-18.5" font-family="Helvetica,sans-Serif" font-size="10.00">com.cliffc.aa.util.NonBlocking</text>
<text text-anchor="middle" x="279" y="-7.5" font-family="Helvetica,sans-Serif" font-size="10.00">HashMap.SnapshotV.val</text>
</a>
</g>
</g>
<!-- Node1&#45;&gt;Node6 -->
<g id="edge5" class="edge">
<title>Node1&#45;&gt;Node6</title>
<path fill="none" stroke="midnightblue" d="M142.14,-49.47C163.02,-44.24 186.61,-38.35 208.21,-32.95"/>
<polygon fill="midnightblue" stroke="midnightblue" points="209.12,-36.33 217.98,-30.51 207.42,-29.54 209.12,-36.33"/>
</g>
<!-- Node3 -->
<g id="node3" class="node">
<title>Node3</title>
<g id="a_node3"><a xlink:href="../../d1/d88/a01578.html#a17cadc8cc7460b02f6f76100f6e64513" target="_top" xlink:title=" ">
<polygon fill="none" stroke="black" points="396,-98.5 396,-128.5 558,-128.5 558,-98.5 396,-98.5"/>
<text text-anchor="start" x="404" y="-116.5" font-family="Helvetica,sans-Serif" font-size="10.00">com.cliffc.aa.util.NonBlocking</text>
<text text-anchor="middle" x="477" y="-105.5" font-family="Helvetica,sans-Serif" font-size="10.00">HashMap.key</text>
</a>
</g>
</g>
<!-- Node2&#45;&gt;Node3 -->
<g id="edge2" class="edge">
<title>Node2&#45;&gt;Node3</title>
<path fill="none" stroke="midnightblue" d="M360,-113.5C368.52,-113.5 377.23,-113.5 385.86,-113.5"/>
<polygon fill="midnightblue" stroke="midnightblue" points="385.93,-117 395.93,-113.5 385.93,-110 385.93,-117"/>
</g>
<!-- Node5 -->
<g id="node5" class="node">
<title>Node5</title>
<g id="a_node5"><a xlink:href="../../d1/d88/a01578.html#a6e1835db75a57079b5194e312f8de3d3" target="_top" xlink:title=" ">
<polygon fill="none" stroke="black" points="396,-49.5 396,-79.5 558,-79.5 558,-49.5 396,-49.5"/>
<text text-anchor="start" x="404" y="-67.5" font-family="Helvetica,sans-Serif" font-size="10.00">com.cliffc.aa.util.NonBlocking</text>
<text text-anchor="middle" x="477" y="-56.5" font-family="Helvetica,sans-Serif" font-size="10.00">HashMap.len</text>
</a>
</g>
</g>
<!-- Node4&#45;&gt;Node5 -->
<g id="edge4" class="edge">
<title>Node4&#45;&gt;Node5</title>
<path fill="none" stroke="midnightblue" d="M360,-64.5C368.52,-64.5 377.23,-64.5 385.86,-64.5"/>
<polygon fill="midnightblue" stroke="midnightblue" points="385.93,-68 395.93,-64.5 385.93,-61 385.93,-68"/>
</g>
<!-- Node7 -->
<g id="node7" class="node">
<title>Node7</title>
<g id="a_node7"><a xlink:href="../../d1/d88/a01578.html#ae663333cf20049876dbf772db24daa32" target="_top" xlink:title=" ">
<polygon fill="none" stroke="black" points="396,-0.5 396,-30.5 558,-30.5 558,-0.5 396,-0.5"/>
<text text-anchor="start" x="404" y="-18.5" font-family="Helvetica,sans-Serif" font-size="10.00">com.cliffc.aa.util.NonBlocking</text>
<text text-anchor="middle" x="477" y="-7.5" font-family="Helvetica,sans-Serif" font-size="10.00">HashMap.val</text>
</a>
</g>
</g>
<!-- Node6&#45;&gt;Node7 -->
<g id="edge6" class="edge">
<title>Node6&#45;&gt;Node7</title>
<path fill="none" stroke="midnightblue" d="M360,-15.5C368.52,-15.5 377.23,-15.5 385.86,-15.5"/>
<polygon fill="midnightblue" stroke="midnightblue" points="385.93,-19 395.93,-15.5 385.93,-12 385.93,-19"/>
</g>
</g>
</svg>
